<?xml version="1.0" encoding="UTF-8" standalone="no"?>
<!-- Created with Inkscape (http://www.inkscape.org/) -->

<svg
   xmlns:dc="http://purl.org/dc/elements/1.1/"
   xmlns:cc="http://creativecommons.org/ns#"
   xmlns:rdf="http://www.w3.org/1999/02/22-rdf-syntax-ns#"
   xmlns:svg="http://www.w3.org/2000/svg"
   xmlns="http://www.w3.org/2000/svg"
   xmlns:xlink="http://www.w3.org/1999/xlink"
   version="1.1"
   width="385"
   height="385"
   id="svg3614">
  <defs
     id="defs3616">
    <linearGradient
       x1="-411.5267"
       y1="-29.889751"
       x2="-23.846952"
       y2="-258.96371"
       id="linearGradient2851"
       xlink:href="#linearGradient3649-2"
       gradientUnits="userSpaceOnUse"
       gradientTransform="matrix(0.66977913,0,0,0.66977913,488.25553,811.45513)" />
    <linearGradient
       id="linearGradient3649-2">
      <stop
         id="stop3651-1"
         style="stop-color:#909ca9;stop-opacity:1"
         offset="0" />
      <stop
         id="stop3653-6"
         style="stop-color:#ededee;stop-opacity:1"
         offset="1" />
    </linearGradient>
    <linearGradient
       x1="-447.79681"
       y1="-889.05798"
       x2="-135.85931"
       y2="-889.05798"
       id="linearGradient2848"
       xlink:href="#linearGradient3672-8"
       gradientUnits="userSpaceOnUse"
       gradientTransform="matrix(0.66977913,0,0,0.66977913,488.25553,811.45513)" />
    <linearGradient
       id="linearGradient3672-8">
      <stop
         id="stop3674-5"
         style="stop-color:#939fab;stop-opacity:1"
         offset="0" />
      <stop
         id="stop3676-7"
         style="stop-color:#dcdee1;stop-opacity:1"
         offset="1" />
    </linearGradient>
    <radialGradient
       cx="-1259.0977"
       cy="-245.42754"
       r="414.15625"
       fx="-1259.0977"
       fy="-245.42754"
       id="radialGradient2845"
       xlink:href="#linearGradient3629-6"
       gradientUnits="userSpaceOnUse"
       gradientTransform="matrix(-0.6435342,-0.09731428,0.19435637,-1.2852688,-377.15369,-44.777181)" />
    <linearGradient
       id="linearGradient3629-6">
      <stop
         id="stop3631-1"
         style="stop-color:#ee352c;stop-opacity:1"
         offset="0" />
      <stop
         id="stop3633-8"
         style="stop-color:#a91d22;stop-opacity:1"
         offset="1" />
    </linearGradient>
  </defs>
  <metadata
     id="metadata3619">
    <rdf:RDF>
      <cc:Work
         rdf:about="">
        <dc:format>image/svg+xml</dc:format>
        <dc:type
           rdf:resource="http://purl.org/dc/dcmitype/StillImage" />
        <dc:title></dc:title>
      </cc:Work>
    </rdf:RDF>
  </metadata>
  <g
     transform="translate(-220.96887,-214.23042)"
     id="layer1">
    <g
       transform="matrix(0.87205879,0,0,0.87205879,-814.02071,35.444919)"
       id="g3545">
      <g
         transform="matrix(0.65282401,0,0,0.65282401,1153.1248,109.92721)"
         id="layer1-2">
        <path
           d="m 469.03913,461.90328 -132.3442,43.15889 -115.05546,50.81949 -32.23313,8.51875 c -8.17177,7.76757 -16.8442,15.65704 -26.07959,23.69344 -10.15197,8.83403 -19.69921,16.83977 -26.95861,22.62598 -8.0837,6.44323 -20.10328,18.36933 -26.2469,26.01673 -9.14014,11.37738 -16.287689,23.50961 -19.360836,32.84011 -5.528893,16.78653 -2.835108,33.78858 7.828043,49.47993 13.621163,20.04417 40.737103,40.40934 72.273323,54.27304 16.08642,7.07173 43.2321,16.18811 63.58722,21.32828 33.92184,8.56609 99.48216,17.87306 135.58835,19.25615 7.32269,0.28037 17.07093,0.25405 17.51894,-0.0419 0.79242,-0.52337 6.41334,-11.16652 12.93511,-24.4888 22.19045,-45.32961 38.24499,-87.82466 46.88454,-124.11845 5.23117,-21.97568 9.30946,-51.27956 11.9514,-86.02475 0.73997,-9.73283 1.00822,-42.19356 0.43951,-53.22651 -0.92537,-17.95348 -2.50678,-32.58669 -5.04424,-46.94733 -0.37226,-2.10481 -0.50923,-3.95573 -0.31399,-4.12333 0.36798,-0.31586 1.61798,-0.71689 17.87473,-5.44196 l -3.24421,-7.5978 z m -30.24475,17.74914 c 1.20273,0 4.40105,30.67062 5.23265,50.12878 0.17669,4.13457 0.14099,6.78152 -0.10462,6.78152 -0.78993,0 -16.94869,-9.48862 -28.40285,-16.68169 -10.00288,-6.28166 -28.98503,-18.89586 -32.00292,-21.26549 -0.95222,-0.74772 -0.85162,-0.78423 7.32578,-3.60006 13.91339,-4.79103 46.90054,-15.36306 47.95196,-15.36306 z m -67.41748,22.12364 c 0.8551,-0.002 3.18352,1.28312 8.68623,4.73032 20.64212,12.93129 48.59495,28.48887 60.57315,33.71919 3.71405,1.62171 4.13809,0.99331 -4.41633,6.80245 -18.2344,12.38245 -40.90361,24.5574 -68.73608,36.92157 -4.85087,2.15488 -8.9601,3.91402 -9.12574,3.91402 -0.1657,0 0.37575,-2.46057 1.19301,-5.48381 6.7424,-24.94123 10.54708,-50.11594 10.65364,-70.30588 0.0528,-9.98517 0.0555,-10.03807 1.00467,-10.27692 0.0445,-0.0112 0.11045,-0.0208 0.16745,-0.0209 z m -13.87696,5.29545 c 0.59745,0.60014 0.16483,22.97565 -0.56509,29.0726 -1.7512,14.62678 -4.61304,28.15457 -9.18857,43.53564 -1.09334,3.67531 -2.11824,6.8435 -2.2814,7.03268 -0.39745,0.46078 -14.07996,-12.87072 -18.6283,-18.14683 -7.77131,-9.01483 -13.91915,-17.9699 -18.39796,-26.79116 -2.27631,-4.48349 -5.90618,-13.33805 -5.56754,-13.58396 1.53714,-1.11625 54.25332,-21.49615 54.62886,-21.11897 z m -65.36622,25.76556 c 0.12304,0.0123 0.21861,0.0457 0.27206,0.10465 0.19732,0.2174 0.89409,1.84262 1.54887,3.621 3.18701,8.65635 10.35364,21.51606 16.57703,29.74238 6.79451,8.98129 15.65307,18.55091 23.06552,24.90741 2.38006,2.04101 4.60058,3.94598 4.91872,4.22798 0.63469,0.56261 0.84808,0.46722 -15.46774,6.65593 -18.90941,7.17244 -39.50324,14.35475 -63.14758,21.99806 -9.01047,2.91269 -16.63651,5.37392 -16.93289,5.48382 -0.90065,0.33395 -0.62443,-0.22068 2.00934,-4.33264 11.74846,-18.3418 29.5459,-54.22153 39.496,-79.59906 1.72589,-4.40154 3.36832,-8.80985 3.66289,-9.79552 0.43275,-1.448 0.85919,-1.94051 2.21864,-2.55353 0.75197,-0.33911 1.40989,-0.49735 1.77914,-0.46048 z m -20.03062,8.26759 c 0.26617,0.23414 -4.80586,10.9457 -9.79552,20.67943 -9.67797,18.87958 -20.34802,37.45869 -34.51459,60.13361 -2.44429,3.91242 -4.69682,7.48919 -5.00238,7.93269 -0.50313,0.73036 -0.70936,0.48967 -2.2605,-2.59539 -3.39136,-6.74515 -6.2327,-15.25552 -7.70246,-23.17017 -1.45456,-7.8331 -1.20714,-21.39417 0.5442,-29.80517 1.30111,-6.24889 1.24371,-6.11077 4.18612,-7.61874 12.72165,-6.51994 54.13081,-25.92074 54.54513,-25.55626 z m 172.53089,7.01175 0,4.24891 c -0.0214,22.31631 -2.40351,52.86892 -5.86057,75.16178 -0.60662,3.91204 -1.13193,7.13954 -1.17211,7.17919 -0.0399,0.0395 -2.85983,-0.78685 -6.25822,-1.84189 -15.01651,-4.6618 -31.29677,-11.6262 -45.98456,-19.67476 -9.7266,-5.33 -23.7947,-13.96405 -23.40034,-14.35839 0.10717,-0.10722 4.25062,-2.30294 9.20947,-4.87683 19.6404,-10.19451 38.40192,-21.18544 54.71251,-32.08661 6.11971,-4.09005 15.27646,-10.71038 17.30964,-12.49557 l 1.44418,-1.25583 z m -248.06945,29.57493 c 0.40776,-0.0196 0.30422,0.75423 -0.33489,4.43729 -0.44433,2.56146 -0.9466,7.40004 -1.13018,10.7374 -0.80454,14.62803 1.56768,25.42028 8.83264,40.18674 2.01986,4.10553 3.59993,7.52788 3.51634,7.59781 -0.72738,0.60887 -66.88032,19.96701 -87.67824,25.66091 -6.16505,1.68785 -11.55335,3.17468 -11.9932,3.30704 -0.72168,0.21724 -0.78598,0.0601 -0.5233,-1.63259 2.27799,-14.67589 13.47301,-33.93791 29.11443,-50.10785 10.39893,-10.75028 18.72529,-17.11825 32.88201,-25.20044 10.16014,-5.80048 25.93974,-14.50561 27.10515,-14.94445 0.0783,-0.0295 0.15104,-0.039 0.20924,-0.0419 z m 156.03764,27.94235 c 0.0628,-0.0752 2.51368,1.2368 5.44196,2.93028 21.36749,12.35737 51.18459,23.94792 76.60598,29.76331 l 2.30237,0.52327 -3.16049,1.75817 c -13.27957,7.36881 -57.0128,25.56519 -101.68091,42.32167 -6.52063,2.44614 -12.88327,4.84452 -14.12812,5.3373 -1.24485,0.49277 -2.2605,0.83065 -2.2605,0.73257 0,-0.0981 1.84243,-3.64405 4.1024,-7.8699 12.53953,-23.44641 25.05657,-51.93851 31.47962,-71.70823 0.65484,-2.01549 1.23473,-3.71321 1.29769,-3.78844 z m -15.90725,5.21172 c 0.0686,0.0686 -0.71258,2.16894 -1.73728,4.64659 -8.71744,21.07977 -20.13898,44.07627 -34.70286,69.9082 -3.70629,6.57395 -6.83047,11.94122 -6.94896,11.93044 -0.11862,-0.0108 -3.13302,-1.79443 -6.69779,-3.97681 -21.21318,-12.9868 -39.98213,-28.97251 -52.3056,-44.51938 l -1.75817,-2.19772 9.14664,-2.51167 c 32.62555,-8.93767 60.29345,-18.49568 87.80389,-30.34937 3.8955,-1.67848 7.13161,-2.99883 7.20013,-2.93028 z m 98.81332,34.49363 c 0.0469,0.01 0.0628,0.0426 0.0628,0.0837 0,2.22372 -5.04658,22.80235 -9.25132,37.696 -3.52706,12.49334 -6.48795,22.26528 -11.9723,39.57976 -2.42219,7.64702 -4.50166,13.88841 -4.6257,13.85606 -0.12398,-0.0323 -0.70488,-0.1439 -1.29763,-0.25117 -29.71937,-5.37841 -56.33827,-12.87864 -81.27354,-22.89807 -6.97609,-2.80315 -17.04984,-7.26544 -17.58171,-7.78618 -0.18017,-0.17646 5.84389,-3.01436 13.37469,-6.30011 45.54156,-19.87009 92.7275,-42.49814 108.86,-52.20091 1.94035,-1.16701 3.37683,-1.84667 3.70469,-1.7791 z m -228.10159,7.80711 c 0.2442,0.23133 -12.49486,18.4671 -30.28661,43.3682 -6.18387,8.65476 -13.44816,18.85582 -16.13752,22.66783 -2.68937,3.81203 -6.75754,9.84571 -9.06292,13.41652 l -4.20702,6.48848 -4.47921,-3.7675 c -5.25569,-4.41283 -14.45517,-13.78206 -18.62817,-18.98406 -8.5875,-10.7047 -14.40634,-21.97023 -16.70268,-32.31684 -1.06013,-4.77661 -1.09134,-7.21066 -0.0837,-7.51408 1.4563,-0.43858 28.17205,-6.72799 53.22654,-12.53743 13.91701,-3.22699 30.00678,-7.00436 35.77036,-8.39317 5.76372,-1.38878 10.53462,-2.48127 10.59095,-2.42795 z m 12.80952,4.89776 3.22325,3.60006 c 14.41063,16.05315 29.06627,28.03245 46.94736,38.36579 3.15707,1.82441 5.56326,3.41056 5.35824,3.53727 -0.74426,0.46 -61.83334,22.18032 -90.0853,32.02381 -15.9331,5.55138 -29.02126,10.07794 -29.09353,10.06762 -0.0723,-0.0106 -0.97479,-0.60081 -1.98837,-1.31863 l -1.84189,-1.31863 2.88835,-4.16518 c 9.37383,-13.57822 21.15136,-28.51041 46.92647,-59.52662 l 17.66542,-21.26549 z m 79.82924,57.05681 c 0.0707,-0.0882 4.53708,1.49528 9.94207,3.51634 13.0284,4.87154 23.25352,8.04885 37.08901,11.51183 16.99337,4.25336 41.55116,8.5067 56.09401,9.73272 2.23257,0.18819 3.3722,0.44297 3.014,0.66978 -0.67513,0.42754 -15.40023,5.34585 -26.226,8.74899 -17.18459,5.402 -69.70184,20.91648 -112.5229,33.23779 -7.94351,2.28564 -14.73534,4.2168 -15.09099,4.29078 -0.95912,0.19948 -4.3117,-0.68047 -4.3117,-1.13026 0,-0.21379 2.40109,-3.25252 5.31637,-6.73965 14.39308,-17.21623 28.69146,-36.44489 40.62632,-54.62886 3.2643,-4.97354 5.99921,-9.12129 6.06981,-9.20946 z m -17.68632,0.50233 c 0.12879,0.12882 -6.96618,11.48947 -19.4445,31.14473 -5.26881,8.29909 -11.24331,17.74618 -13.29096,20.99339 -2.04758,3.24725 -5.04799,8.18192 -6.65593,10.98857 l -2.93028,5.10706 -1.48604,-0.39768 c -3.5858,-0.9708 -28.87947,-9.90623 -35.56112,-12.55836 -8.28115,-3.28696 -16.91132,-7.25644 -23.27483,-10.69553 -7.95208,-4.29764 -18.03755,-10.6749 -17.24681,-10.92578 0.22766,-0.0722 13.91165,-3.81738 30.39123,-8.30944 43.83966,-11.94992 68.08908,-18.815 83.99446,-23.77716 2.97194,-0.92717 5.44784,-1.62666 5.50478,-1.5698 z m 124.51609,29.19819 c 0.0944,-0.0205 0.13817,-0.0209 0.14655,0 0.41466,1.03688 -15.8149,45.98847 -21.74693,60.23826 -1.32857,3.19176 -1.82019,3.96509 -2.51167,3.93495 -1.67907,-0.0733 -25.21156,-3.3635 -39.45414,-5.52568 -24.9328,-3.78505 -66.6954,-11.07791 -77.23391,-13.4793 l -2.44891,-0.5442 14.94451,-3.36982 c 32.03205,-7.21707 47.41561,-11.0878 63.022,-15.8654 19.68246,-6.02544 39.17203,-13.53787 58.85684,-22.68877 3.11213,-1.44671 5.76479,-2.5564 6.42566,-2.70004 z"
           id="path3639"
           style="fill:url(#linearGradient2851);fill-opacity:1" />
        <path
           d="m 332.64704,153.47532 c -2.21329,-0.2584 -37.73187,12.5384 -60.55222,21.80969 -30.92132,12.56253 -54.92967,24.5993 -69.74075,34.99596 -5.51288,3.86977 -12.44517,10.82962 -13.45838,13.50023 -0.37916,0.99939 -0.55705,2.16745 -0.56512,3.36983 l 13.43744,12.68394 31.8773,10.17227 75.93621,13.56303 86.79919,14.92352 0.87908,-7.4513 c -0.2626,-0.0414 -0.51109,-0.0842 -0.77443,-0.12558 l -11.42811,-1.80003 -2.32329,-4.08147 c -11.79701,-20.81606 -24.83366,-46.57511 -32.40057,-64.00577 -5.86027,-13.49938 -11.48771,-29.05026 -14.60955,-40.31233 -1.8541,-6.68868 -2.04712,-7.12176 -3.0768,-7.24199 z m -1.67445,5.14893 c 0.0883,-0.0159 0.13275,-0.0165 0.14651,0 0.0701,0.0839 0.47344,2.87583 0.87909,6.19546 1.70838,13.98057 4.83676,27.53945 9.73273,42.13329 3.68933,10.99713 3.74223,10.35122 -0.64885,9.12574 -10.20664,-2.84851 -55.93699,-10.69829 -89.01783,-15.27933 -5.3303,-0.73814 -9.76678,-1.39454 -9.83739,-1.46515 -0.42002,-0.42002 23.85716,-13.1396 34.61921,-18.14682 13.80301,-6.42205 51.38994,-22.07103 54.12653,-22.56319 z m -96.3854,44.77055 3.87216,1.31863 c 21.23855,7.22952 74.474,17.39861 103.89948,19.8422 3.31964,0.27568 6.11084,0.57143 6.19546,0.64885 0.0846,0.0774 -2.73544,1.58422 -6.25825,3.3489 -14.19511,7.11074 -29.8186,15.77776 -40.62629,22.54225 -3.17389,1.98653 -6.08469,3.58875 -6.46755,3.5582 -0.38286,-0.0305 -2.47593,-0.36679 -4.66753,-0.73257 l -3.99774,-0.64884 -10.04669,-9.75366 c -17.63706,-17.07029 -31.40719,-30.2763 -36.7332,-35.26806 l -5.16985,-4.8559 z m -3.93496,3.13959 14.06537,17.56077 c 7.74292,9.65889 15.50294,19.24456 17.22588,21.30735 1.72293,2.0628 3.05584,3.81094 2.97214,3.87216 -0.39911,0.29195 -20.38542,-3.5993 -30.97728,-6.02801 -10.87353,-2.49331 -15.37086,-3.68678 -22.10271,-5.83964 l -5.48382,-1.75817 0.0209,-1.36049 c 0.0697,-6.74572 8.57225,-16.69555 23.00272,-26.87488 l 1.27677,-0.87909 z m 119.78582,23.92367 c 0.42188,0.0326 0.8674,0.89008 2.11399,3.621 3.41149,7.47361 14.0307,27.72893 16.59796,31.64706 0.84547,1.29036 2.18584,1.37673 -11.90951,-0.90001 -33.87492,-5.47162 -44.83374,-7.3032 -44.83334,-7.51409 2.4e-4,-0.12853 1.01589,-0.79393 2.2605,-1.48607 10.49029,-5.8337 21.07471,-13.17639 30.49588,-21.11898 2.25261,-1.89907 4.4172,-3.70835 4.81404,-4.0396 0.16319,-0.13622 0.31985,-0.22016 0.46048,-0.20931 z"
           id="path3667"
           style="fill:url(#linearGradient2848);fill-opacity:1" />
        <path
           d="m 189.49624,222.43029 c 0,0 -2.19802,3.48486 -0.12559,8.66526 1.28236,3.20557 5.13312,7.05619 9.37691,11.13508 0,0 44.4523,43.36164 49.89855,49.64738 24.62938,28.42583 35.32656,56.41067 36.31462,95.04581 0.63401,24.79275 -4.14775,46.58763 -15.76078,71.91753 -20.81466,45.40038 -64.672,95.4667 -132.40696,151.13988 l 9.94207,-3.28613 c 6.39049,-4.78745 15.06889,-9.90061 35.54015,-21.09805 47.14502,-25.7875 100.08704,-49.50759 165.12146,-73.94776 93.56794,-35.16314 247.48095,-76.42006 335.05701,-89.83413 l 9.12574,-1.40238 -1.40235,-2.19768 c -8.00773,-12.44678 -13.47363,-20.12184 -20.05151,-28.25631 -19.20861,-23.75425 -42.46295,-43.13612 -70.95473,-59.08711 -39.15285,-21.91946 -89.93571,-38.95523 -154.13289,-51.71947 -12.13647,-2.41309 -38.71491,-6.96926 -60.34295,-10.33972 -45.8141,-7.13958 -75.36328,-11.96085 -108.00188,-17.64453 -11.70198,-2.03037 -29.17404,-4.96447 -40.77281,-7.47219 -6.04368,-1.30667 -17.52946,-4.02262 -26.45627,-7.0955 -7.36978,-2.90169 -17.74774,-5.70666 -19.96779,-14.16998 z m 25.7656,25.01203 c 0.0623,-0.0563 1.73198,0.4602 3.7675,1.15121 3.75137,1.27345 8.70164,2.76425 14.46301,4.37446 4.03609,1.12805 8.47385,2.31161 13.18628,3.51634 6.01455,1.53768 10.98779,2.85882 11.05135,2.93029 0.66583,0.74868 10.76717,32.98709 14.21191,45.35664 1.31478,4.7212 2.31282,8.65475 2.21865,8.74899 -0.0942,0.0942 -1.21478,-1.64411 -2.46981,-3.85123 -11.68618,-20.55124 -30.19298,-41.45042 -51.59396,-58.27079 -2.66753,-2.09661 -4.83493,-3.87661 -4.83493,-3.95591 z m 49.24966,13.60488 c 0.51479,-0.0355 2.73384,0.33597 5.3792,0.92095 17.04192,3.76871 47.4716,9.64348 67.04067,12.93511 3.26035,0.54842 5.94429,1.13903 5.94429,1.31866 0,0.17957 -1.21806,0.94995 -2.70002,1.69535 -3.28339,1.6516 -16.56913,9.60416 -21.01432,12.57932 -11.0969,7.42711 -21.07399,15.37699 -28.34003,22.60504 -2.91997,2.9047 -5.36345,5.27452 -5.44195,5.27452 -0.0785,0 -0.58901,-1.69274 -1.13025,-3.76751 -3.63262,-13.92431 -11.14339,-34.48572 -17.87474,-48.9567 -1.08323,-2.32862 -1.96747,-4.3823 -1.96747,-4.56287 0,-0.0228 0.0308,-0.0368 0.10462,-0.0415 z m 86.63178,16.47242 c 0.57031,0.19008 1.64819,3.55391 3.5582,11.11411 3.65733,14.47668 5.36011,30.73456 4.79307,45.77525 -0.1578,4.18565 -0.4225,8.07258 -0.58606,8.64431 l -0.31392,1.04653 -5.16989,-1.67445 c -10.65733,-3.40656 -28.06998,-8.53352 -42.99145,-12.66298 -8.47693,-2.34597 -15.42582,-4.44037 -15.42582,-4.64659 0,-0.61968 12.36922,-12.98581 17.68632,-17.68639 10.15647,-8.97872 37.48084,-30.23269 38.44955,-29.90979 z m 6.88613,0.9837 c 0.30843,-0.287 41.39844,6.82807 60.07081,10.40254 13.91808,2.66432 34.05452,6.88145 35.2681,7.38847 0.58585,0.24481 -1.49803,1.38042 -8.1839,4.39543 -26.44563,11.92582 -46.0374,22.56968 -65.51277,35.60298 -5.12991,3.43302 -9.39292,6.23732 -9.48153,6.23732 -0.0887,0 -0.16477,-2.86545 -0.16744,-6.36291 -0.0134,-18.99205 -3.80509,-38.1614 -10.75833,-54.35679 -0.74835,-1.7429 -1.30989,-3.23725 -1.23494,-3.30704 z m 106.24372,21.01432 c 0.31814,0.31822 -1.02959,8.42094 -2.19768,13.20724 -3.6357,14.89676 -13.26987,37.00704 -25.15858,57.78935 -2.09501,3.66215 -3.96878,6.71554 -4.18612,6.78151 -0.21741,0.0663 -2.92459,-1.3575 -6.00712,-3.16048 -11.62542,-6.79973 -24.78873,-13.23236 -39.24484,-19.19339 -4.03099,-1.66219 -7.46415,-3.14227 -7.6397,-3.30704 -0.65926,-0.61854 31.46482,-21.88711 48.49623,-32.10754 13.6223,-8.17465 35.55556,-20.39189 35.93781,-20.00965 z m 7.59784,1.19308 c 0.92509,0 19.14786,4.96815 28.57023,7.78618 23.4703,7.01942 50.54446,16.90985 68.10817,24.88645 l 7.30478,3.30704 -5.14893,1.19307 c -42.97491,9.87268 -79.80901,21.26536 -115.2857,35.66574 -2.9479,1.19656 -5.51316,2.17678 -5.69313,2.17678 -0.18003,0 0.76081,-2.27905 2.0721,-5.0652 10.66409,-22.65816 17.55183,-46.43378 19.33987,-66.62213 0.16276,-1.8376 0.4945,-3.32793 0.73261,-3.32793 z m -181.1334,41.63093 c 0.29102,-0.28747 14.16081,2.96223 21.72596,5.08617 11.37077,3.19236 35.56681,11.28879 35.58202,11.90947 0,0.12076 -2.66659,2.44523 -5.9234,5.16989 -13.08138,10.94419 -25.69962,22.3873 -40.81466,36.98434 -4.48096,4.32737 -8.28865,7.849 -8.47686,7.849 -0.18821,0 -0.27186,-0.63173 -0.16744,-1.40238 2.27631,-16.80322 1.7873,-38.37962 -1.38142,-60.34288 -0.40167,-2.78407 -0.64507,-5.15402 -0.5442,-5.25361 z m 292.06554,0.27213 c 0.20802,0.20803 -6.43495,10.59088 -10.56996,16.51421 -6.03345,8.64276 -14.77874,19.98909 -34.70293,45.04264 -10.46568,13.16002 -22.27043,28.05256 -26.24697,33.09131 -3.97649,5.03875 -7.31355,9.1676 -7.40943,9.1676 -0.0958,0 -1.37838,-1.80445 -2.84656,-3.99777 -11.23161,-16.77898 -24.55927,-31.51787 -40.45882,-44.74962 -2.96712,-2.46921 -6.31454,-5.17713 -7.43039,-6.00705 -1.11579,-0.82992 -2.02555,-1.59776 -2.03024,-1.71631 -0.0107,-0.27354 16.97,-7.55631 29.93073,-12.83049 22.56343,-9.1818 53.40235,-20.17643 76.4804,-27.25164 12.16983,-3.731 25.09935,-7.44774 25.28417,-7.26288 z m 7.66059,2.00934 c 0.36443,-0.0743 2.78649,1.09783 5.69313,2.76283 24.30567,13.9231 48.12312,31.80286 66.85233,50.19158 5.32753,5.23064 18.36133,18.78851 18.16776,18.90029 -0.0496,0.0288 -4.55114,0.38526 -10.00483,0.79537 -42.11909,3.16765 -95.9679,12.12762 -147.81188,24.59348 -3.5211,0.8466 -6.56494,1.54887 -6.76058,1.54887 -0.19569,0 3.65828,-3.86858 8.56061,-8.58155 30.44591,-29.27002 44.33563,-47.75183 60.6778,-80.77121 2.43394,-4.91772 4.49766,-9.1603 4.5838,-9.41877 0.005,-0.0161 0.0176,-0.0161 0.0419,-0.0208 z m -222.61781,22.81435 c 1.39073,0.31211 14.3752,6.35392 24.17481,11.26066 8.96171,4.48718 22.53499,11.71377 23.21207,12.34905 0.085,0.0798 -4.69643,2.57657 -10.63275,5.54658 -18.79353,9.40256 -34.89134,18.28202 -51.69857,28.54933 -4.79281,2.92787 -8.81001,5.33734 -8.9374,5.33734 -0.41928,0 -0.25405,-0.36249 2.42795,-5.27451 8.95032,-16.39245 16.17014,-35.96413 20.32364,-55.08934 0.37072,-1.70706 0.8168,-2.74944 1.13025,-2.67911 z m -13.08165,2.34422 c 0.27106,0.27106 -3.09834,12.64697 -5.23265,19.25615 -4.09356,12.67624 -11.01506,28.61129 -17.66543,40.60536 -1.56186,2.81683 -3.95826,6.94005 -5.31637,9.16761 l -2.46981,4.03957 -5.6094,-5.42099 c -6.51822,-6.3191 -11.8277,-10.2432 -18.60727,-13.73048 -2.66471,-1.37063 -4.83165,-2.63919 -4.835,-2.82566 -0.0127,-0.82436 17.05298,-16.34402 30.22378,-27.48184 9.42775,-7.97252 29.27116,-23.8507 29.51215,-23.60972 z m 79.49441,32.6936 4.87686,3.16048 c 11.18772,7.26376 24.43495,17.0353 34.53549,25.45161 5.66023,4.71652 16.66073,14.56689 18.92123,16.95379 l 1.21398,1.2768 -8.10015,2.2605 c -45.81343,12.711 -81.20818,24.02665 -122.50676,39.20298 -4.5833,1.68429 -8.54082,3.07683 -8.81181,3.07683 -0.56972,0 -1.13595,0.5237 9.1676,-8.9583 26.41535,-24.3091 49.75019,-51.09249 67.18722,-77.15018 l 3.51634,-5.27451 z m -20.88874,5.23265 c 0.23931,0.23931 -13.53845,19.53585 -21.72596,30.43309 -9.79532,13.03718 -27.24126,34.83112 -39.24484,49.01946 -5.01517,5.92788 -9.31167,10.84673 -9.54435,10.92577 -0.25525,0.0867 -0.41392,-1.36548 -0.41861,-3.66289 -0.0234,-12.10619 -3.08614,-25.04478 -8.49783,-36.00063 -2.28575,-4.62744 -2.66873,-5.74744 -2.19774,-6.17449 1.88342,-1.70754 31.02524,-18.32389 49.39621,-28.17259 12.61891,-6.76503 31.99307,-16.60777 32.23312,-16.36772 z m -126.33709,30.95632 c 0.2503,0 2.58796,1.17446 5.19079,2.61636 6.37804,3.53321 12.10807,7.42075 17.16309,11.63741 0.19504,0.16269 -2.42259,2.30096 -5.81871,4.75121 -9.47945,6.83932 -23.91439,17.73368 -32.27498,24.38418 -8.82079,7.01654 -9.11335,7.23167 -8.12107,5.71402 6.60583,-10.10288 9.92713,-15.82286 13.39558,-23.12828 3.08333,-6.49424 6.15621,-14.2034 8.35134,-20.9097 0.91191,-2.78608 1.86367,-5.0652 2.11396,-5.0652 z m 33.6564,26.41441 c 0.45539,-0.0563 1.10346,0.79175 3.80937,4.835 5.70277,8.52113 10.06986,19.88474 11.1979,29.1354 l 0.23021,1.98837 -13.66765,5.29547 c -24.53414,9.52085 -47.11769,18.90539 -62.37318,25.89112 -4.2681,1.95442 -11.80338,5.55455 -16.72358,8.01645 -4.92013,2.46184 -8.93733,4.3967 -8.93733,4.29074 0,-0.10589 3.08982,-2.42902 6.86523,-5.16982 29.9406,-21.73594 55.7553,-45.53279 75.20361,-69.32214 2.08,-2.54429 3.96918,-4.75075 4.20708,-4.89776 0.063,-0.0389 0.12331,-0.0549 0.18834,-0.063 z m -15.5305,3.85123 c 0.39604,0.39604 -11.04714,13.33711 -18.75382,21.20273 -19.2889,19.68682 -38.41143,35.12141 -62.10105,50.14971 -2.96397,1.88027 -5.67236,3.58037 -6.02801,3.78841 -0.65029,0.38037 0.21024,-0.59758 10.61178,-11.93044 6.55473,-7.14159 11.57171,-13.07014 17.26778,-20.47013 3.75116,-4.87324 4.46763,-5.55689 9.96296,-9.52339 14.80266,-10.68458 48.64666,-33.61058 49.04036,-33.21689 z"
           id="path2851"
           style="fill:url(#radialGradient2845);fill-opacity:1" />
      </g>
    </g>
  </g>
</svg>
