<svg width="26" height="27" viewBox="0 0 26 27" fill="none" xmlns="http://www.w3.org/2000/svg">
<path d="M0 9.5C0 4.52944 4.02944 0.5 9 0.5H17C21.9706 0.5 26 4.52944 26 9.5V15.5C26 20.4706 21.9706 24.5 17 24.5H0V9.5Z" fill="url(#paint0_linear_68_17626)"/>
<path d="M8.91193 18.7053C7.14915 18.7053 5.77876 17.7031 5.77876 15.88C5.77876 13.7731 7.57777 13.3143 9.33452 13.109C11.0007 12.9158 11.6768 12.9279 11.6768 12.2699V12.2276C11.6768 11.1772 11.0792 10.5675 9.91406 10.5675C8.70064 10.5675 8.0245 11.2013 7.75888 11.8594L6.0625 11.473C6.66619 9.78267 8.21165 9.10653 9.88992 9.10653C11.3629 9.10653 13.4879 9.64382 13.4879 12.3423V18.5H11.7251V17.2322H11.6527C11.3086 17.9265 10.4453 18.7053 8.91193 18.7053ZM9.30433 17.2564C10.8075 17.2564 11.6829 16.2543 11.6829 15.1555V13.9602C11.4233 14.2198 10.0348 14.3768 9.44922 14.4553C8.40483 14.5941 7.54759 14.9382 7.54759 15.9041C7.54759 16.7976 8.28409 17.2564 9.30433 17.2564ZM15.8921 18.5V9.22727H17.6972V18.5H15.8921ZM16.8037 7.79652C16.1759 7.79652 15.6627 7.31357 15.6627 6.72195C15.6627 6.13033 16.1759 5.64133 16.8037 5.64133C17.4255 5.64133 17.9447 6.13033 17.9447 6.72195C17.9447 7.31357 17.4255 7.79652 16.8037 7.79652Z" fill="white"/>
<path d="M0 24.5H3L0 26.5V24.5Z" fill="#5B5CC2"/>
<defs>
<linearGradient id="paint0_linear_68_17626" x1="4.76666" y1="-5.1" x2="24.472" y2="5.4613" gradientUnits="userSpaceOnUse">
<stop offset="0.0333246" stop-color="#965AFB"/>
<stop offset="1" stop-color="#096174"/>
</linearGradient>
</defs>
</svg>
