<svg id="Layer_1" data-name="Layer 1" xmlns="http://www.w3.org/2000/svg" viewBox="0 0 40.04 40.04"><defs><style>.cls-1{fill:#51799e;}</style></defs><path class="cls-1" d="M12.15,24.13l.5.29,7.18,4.15a.29.29,0,0,0,.33,0c.31-.18.62-.37.95-.54a.39.39,0,0,0,.23-.41c0-3.08,0-6.15,0-9.23v-.12c0-.17,0-.18-.17-.18H19.93a1.32,1.32,0,0,0-.84.35,1.41,1.41,0,0,0-.44,1.12v4.9a.5.5,0,0,1,0,.27c-.09,0-.15,0-.22-.08l-3.54-2a.31.31,0,0,1-.19-.31c0-.95,0-1.9,0-2.86A5.23,5.23,0,0,1,15,17.64a5.31,5.31,0,0,1,5.79-3.48,5.2,5.2,0,0,1,2.92,1.44,5.14,5.14,0,0,1,1.61,3.83v6c0,.1.06.11.13.07l.1-.06,2.27-1.31a.34.34,0,0,0,.2-.35c0-1.46,0-2.91,0-4.36a8,8,0,0,0-.19-1.69,7.85,7.85,0,0,0-4.13-5.42,8,8,0,0,0-7.36,0,7.87,7.87,0,0,0-3.18,3A7.3,7.3,0,0,0,12,19c0,1.64,0,3.29,0,4.94A.23.23,0,0,0,12.15,24.13Z"/><path class="cls-1" d="M38,3H2A2,2,0,0,0,0,5V35a2,2,0,0,0,2,2H38a2,2,0,0,0,2-2V5A2,2,0,0,0,38,3ZM31,4h5V7H31ZM24,4h5V7H24ZM17,4h5V7H17ZM10,4h5V7H10ZM3,4H8V7H3ZM8,36H3V33H8Zm7,0H10V33h5Zm7,0H17V33h5Zm7,0H24V33h5Zm7,0H31V33h5Zm2-4H2V8H38Z"/></svg>