<svg xmlns="http://www.w3.org/2000/svg" width="128" height="128" viewBox="0 0 128 128" fill="none"><path fill-rule="evenodd" clip-rule="evenodd" d="M105.825 58.635c5.491 22.449-8.458 45.049-31.156 50.48-22.695 5.429-45.547-8.365-51.036-30.815-5.492-22.449 8.458-45.049 31.153-50.48l.078-.018c22.588-5.46 45.374 8.223 50.896 30.565l.065.268Z" fill="#59B3D8"/><path fill-rule="evenodd" clip-rule="evenodd" d="M58.747 85.194c-.013-6.137-5.055-11.1-11.259-11.085h-1.701c1.442-5.932-2.248-11.895-8.246-13.322a11.182 11.182 0 0 0-2.703-.306H23.162c-2.525 12.851 1.246 26.127 10.174 35.796h14.149c6.205.015 11.247-4.948 11.262-11.083ZM72.69 39.233c0 .649.085 1.296.255 1.925h-4.861c-6.445 0-11.667 5.168-11.667 11.543 0 6.372 5.222 11.54 11.667 11.54h38.645c-1.258-13.787-9.486-26.01-21.862-32.477h-4.605c-4.177-.002-7.562 3.339-7.572 7.469Zm34.043 33.587H83.679c-5.259-.013-9.531 4.187-9.552 9.385a9.241 9.241 0 0 0 1.148 4.471c-5.003 1.546-7.792 6.814-6.228 11.765 1.242 3.934 4.938 6.607 9.106 6.589h6.427c12.314-6.454 20.607-18.51 22.153-32.21Z" fill="#B6DEEC"/><path fill-rule="evenodd" clip-rule="evenodd" d="M17.382 40.624a1.286 1.286 0 0 1-1.3-1.275v-.003c-.021-8.064-6.637-14.587-14.79-14.579A1.286 1.286 0 0 1 0 23.489c0-.703.579-1.275 1.292-1.275 8.143.007 14.756-6.503 14.79-14.554a1.29 1.29 0 0 1 1.356-1.227c.672.028 1.21.56 1.241 1.227.021 8.061 6.639 14.584 14.792 14.577.713 0 1.292.572 1.292 1.277 0 .706-.579 1.279-1.292 1.279-8.148-.011-14.766 6.507-14.792 14.566-.01.7-.589 1.265-1.297 1.265Z" fill="#B7D332"/><path fill-rule="evenodd" clip-rule="evenodd" d="M108.6 122.793a.764.764 0 0 1-.768-.759c-.018-4.821-3.98-8.719-8.854-8.709a.762.762 0 0 1-.77-.756c0-.419.342-.759.765-.759h.005c4.872.002 8.826-3.893 8.844-8.711a.77.77 0 0 1 .778-.767.77.77 0 0 1 .775.767c.018 4.818 3.972 8.713 8.843 8.711a.761.761 0 0 1 .77.756.759.759 0 0 1-.765.759h-.005c-4.871-.002-8.828 3.893-8.843 8.714a.764.764 0 0 1-.773.754h-.002Z" fill="#0072C5"/><path fill-rule="evenodd" clip-rule="evenodd" d="M126.317 30.84c-4.035-6.539-14.175-8.049-29.306-4.384a121.688 121.688 0 0 0-13.893 4.384 42.829 42.829 0 0 1 8.187 5.173c2.574-.836 5.101-1.59 7.512-2.173a53.33 53.33 0 0 1 12.335-1.727c4.957 0 7.691 1.211 8.606 2.686 1.496 2.423.119 8.816-8.681 18.871-1.566 1.789-3.326 3.601-5.179 5.423a175.936 175.936 0 0 1-31.843 24.149 176.032 176.032 0 0 1-36.329 17.105c-15.317 4.936-25.773 4.836-28.119 1.048-2.342-3.788 2.344-13.048 13.776-24.29a41.005 41.005 0 0 1-.938-9.735c-18.2 16.271-24.09 30.365-19.387 37.981 2.463 3.985 7.844 6.229 15.705 6.229a80.772 80.772 0 0 0 27.183-5.932 194.648 194.648 0 0 0 32.11-15.926 193.405 193.405 0 0 0 28.884-21.148 118.565 118.565 0 0 0 9.947-9.941c10.207-11.655 13.466-21.268 9.43-27.793Z" fill="#000"/></svg>
