<svg
  xmlns="http://www.w3.org/2000/svg"
  viewBox="47.34 -25.84 64 64"
  width="64"
  height="64"
>
  <g transform="matrix(.034739 0 0 .034739 44.585177 -26.534788)">
    <g fill="#006eba">
      <circle r="49.6" cy="1139.8" cx="1844.4" />
      <circle r="49.6" cy="886" cx="1866.5" />
      <circle r="49.6" cy="621.3" cx="1811.4" />
      <circle r="49.6" cy="400.6" cx="1679" />
      <circle r="49.6" cy="224.1" cx="1491.4" />
      <circle r="49.6" cy="113.8" cx="1259.7" />
      <circle r="49.6" cy="69.6" cx="995" />
      <circle r="49.6" cy="113.8" cx="741.2" />
      <circle r="49.6" cy="1382.5" cx="1745.2" />
      <circle r="49.6" cy="1592.1" cx="1590.7" />
      <circle r="49.6" cy="1735.5" cx="1370.1" />
      <circle r="49.6" cy="1812.7" cx="1127.4" />
      <circle r="49.6" cy="1801.7" cx="862.6" />
      <circle r="49.6" cy="1724.5" cx="619.9" />
      <circle r="49.6" cy="1581.1" cx="410.3" />
      <circle r="49.6" cy="1371.5" cx="244.8" />
      <circle r="49.6" cy="1128.7" cx="145.5" />
      <circle r="49.6" cy="864" cx="134.4" />
      <circle r="49.6" cy="610.2" cx="189.6" />
      <circle r="49.6" cy="400.6" cx="322" />
      <circle r="49.6" cy="224.1" cx="509.5" />
    </g>
    <g transform="rotate(9 -4.182 99.324)" fill="#0078c2">
      <circle
        r="44.1"
        cy="944.7"
        cx="1870"
        transform="matrix(.1564 -.9877 .9877 .1564 644.4339 2643.8684)"
      />
      <circle
        r="44.1"
        cy="724"
        cx="1892.1"
        transform="matrix(.1564 -.9877 .9877 .1564 880.9756 2479.5325)"
      />
      <circle
        r="44.1"
        cy="492.3"
        cx="1847.9"
        transform="matrix(.1564 -.9877 .9877 .1564 1072.5753 2240.5115)"
      />
      <circle
        r="44.1"
        cy="282.7"
        cx="1726.6"
        transform="matrix(.1564 -.9877 .9877 .1564 1177.2368 1943.8282)"
      />
      <circle
        r="44.1"
        cy="128.3"
        cx="1550.1"
        transform="matrix(.1564 -.9877 .9877 .1564 1180.8842 1639.1951)"
      />
      <circle
        r="44.1"
        cy="40"
        cx="1351.5"
        transform="matrix(.1564 -.9877 .9877 .1564 1100.5398 1368.6075)"
      />
      <circle
        r="44.1"
        cy="-4.1"
        cx="1119.8"
        transform="matrix(.1564 -.9877 .9877 .1564 948.6905 1102.5564)"
      />
      <circle
        r="44.1"
        cy="40"
        cx="888.1"
        transform="matrix(.1564 -.9877 .9877 .1564 709.6696 910.9568)"
      />
      <circle
        r="44.1"
        cy="1165.3"
        cx="1781.7"
        transform="matrix(.1564 -.9877 .9877 .1564 352.0535 2742.8254)"
      />
      <circle
        r="44.1"
        cy="1352.9"
        cx="1649.4"
        transform="matrix(.1564 -.9877 .9877 .1564 55.1368 2770.2776)"
      />
      <circle
        r="44.1"
        cy="1485.2"
        cx="1450.8"
        transform="matrix(.1564 -.9877 .9877 .1564 -243.1366 2685.8188)"
      />
      <circle
        r="44.1"
        cy="1551.4"
        cx="1230.1"
        transform="matrix(.1564 -.9877 .9877 .1564 -494.6439 2523.7283)"
      />
      <circle
        r="44.1"
        cy="1540.4"
        cx="998.5"
        transform="matrix(.1564 -.9877 .9877 .1564 -679.1827 2285.5967)"
      />
      <circle
        r="44.1"
        cy="1474.2"
        cx="788.8"
        transform="matrix(.1564 -.9877 .9877 .1564 -790.6263 2022.7256)"
      />
      <circle
        r="44.1"
        cy="1352.9"
        cx="590.3"
        transform="matrix(.1564 -.9877 .9877 .1564 -838.2812 1724.2186)"
      />
      <circle
        r="44.1"
        cy="1154.3"
        cx="446.8"
        transform="matrix(.1564 -.9877 .9877 .1564 -763.1288 1415.0491)"
      />
      <circle
        r="44.1"
        cy="944.7"
        cx="358.6"
        transform="matrix(.1564 -.9877 .9877 .1564 -630.5479 1151.0552)"
      />
      <circle
        r="44.1"
        cy="702"
        cx="347.6"
        transform="matrix(.1564 -.9877 .9877 .1564 -400.1325 935.4172)"
      />
      <circle
        r="44.1"
        cy="481.3"
        cx="391.7"
        transform="matrix(.1564 -.9877 .9877 .1564 -144.9779 792.8742)"
      />
      <circle
        r="44.1"
        cy="282.7"
        cx="513"
        transform="matrix(.1564 -.9877 .9877 .1564 153.5289 745.2193)"
      />
      <circle
        r="44.1"
        cy="128.3"
        cx="678.5"
        transform="matrix(.1564 -.9877 .9877 .1564 445.6757 778.3759)"
      />
    </g>
    <g transform="rotate(18 8.7 82.989)" fill="#0084cc">
      <circle
        r="33.4"
        cy="747.2"
        cx="1906.5"
        transform="rotate(90 1906.541 747.239)"
      />
      <circle
        r="33.4"
        cy="544.9"
        cx="1926.8"
        transform="rotate(90 1926.773 544.918)"
      />
      <circle
        r="33.4"
        cy="332.5"
        cx="1886.3"
        transform="rotate(90 1886.309 332.482)"
      />
      <circle
        r="33.4"
        cy="140.3"
        cx="1775"
        transform="rotate(90 1775.032 140.277)"
      />
      <circle
        r="33.4"
        cy="-1.3"
        cx="1613.2"
        transform="rotate(90 1613.176 -1.347)"
      />
      <circle
        r="33.4"
        cy="-82.3"
        cx="1431.1"
        transform="rotate(90 1431.088 -82.275)"
      />
      <circle
        r="33.4"
        cy="-122.7"
        cx="1218.7"
        transform="rotate(90 1218.651 -122.739)"
      />
      <circle
        r="33.4"
        cy="-82.3"
        cx="1006.2"
        transform="rotate(90 1006.215 -82.275)"
      />
      <circle
        r="33.4"
        cy="949.6"
        cx="1825.6"
        transform="rotate(90 1825.612 949.559)"
      />
      <circle
        r="33.4"
        cy="1121.5"
        cx="1704.2"
        transform="rotate(90 1704.22 1121.531)"
      />
      <circle
        r="33.4"
        cy="1242.9"
        cx="1522.1"
        transform="rotate(90 1522.132 1242.924)"
      />
      <circle
        r="33.4"
        cy="1303.6"
        cx="1319.8"
        transform="rotate(90 1319.811 1303.62)"
      />
      <circle
        r="33.4"
        cy="1293.5"
        cx="1107.4"
        transform="rotate(90 1107.375 1293.504)"
      />
      <circle
        r="33.4"
        cy="1232.8"
        cx="915.2"
        transform="rotate(90 915.17 1232.808)"
      />
      <circle
        r="33.4"
        cy="1121.5"
        cx="733.1"
        transform="rotate(90 733.082 1121.531)"
      />
      <circle
        r="33.4"
        cy="939.4"
        cx="601.6"
        transform="rotate(90 601.574 939.443)"
      />
      <circle
        r="33.4"
        cy="747.2"
        cx="520.6"
        transform="rotate(90 520.646 747.238)"
      />
      <circle
        r="33.4"
        cy="524.7"
        cx="510.5"
        transform="rotate(90 510.53 524.686)"
      />
      <circle
        r="33.4"
        cy="322.4"
        cx="551"
        transform="rotate(90 550.994 322.366)"
      />
      <circle
        r="33.4"
        cy="140.3"
        cx="662.3"
        transform="rotate(90 662.27 140.277)"
      />
      <circle
        r="33.4"
        cy="-1.3"
        cx="814"
        transform="rotate(90 814.01 -1.347)"
      />
    </g>
    <g transform="rotate(26 10.567 75.357)" fill="#0085cd">
      <ellipse
        ry="27.7"
        rx="27.6"
        cy="554.6"
        cx="1910.1"
        transform="rotate(90 1910.054 554.561)"
      />
      <ellipse
        ry="27.7"
        rx="27.6"
        cy="377.2"
        cx="1932.2"
        transform="rotate(90 1932.23 377.159)"
      />
      <ellipse
        ry="27.7"
        rx="27.6"
        cy="177.6"
        cx="1887.9"
        transform="rotate(90 1887.879 177.582)"
      />
      <ellipse
        ry="27.7"
        rx="27.6"
        cy=".2"
        cx="1788.1"
        transform="rotate(90 1788.09 .18)"
      />
      <ellipse
        ry="27.7"
        rx="27.6"
        cy="-121.8"
        cx="1644"
        transform="rotate(90 1643.952 -121.783)"
      />
      <ellipse
        ry="27.7"
        rx="27.6"
        cy="-199.4"
        cx="1477.6"
        transform="rotate(90 1477.637 -199.397)"
      />
      <ellipse
        ry="27.7"
        rx="27.6"
        cy="-232.7"
        cx="1278.1"
        transform="rotate(90 1278.06 -232.66)"
      />
      <ellipse
        ry="27.7"
        rx="27.6"
        cy="-199.4"
        cx="1089.6"
        transform="rotate(90 1089.571 -199.397)"
      />
      <ellipse
        ry="27.7"
        rx="27.6"
        cy="743.1"
        cx="1832.4"
        transform="rotate(90 1832.441 743.051)"
      />
      <ellipse
        ry="27.7"
        rx="27.6"
        cy="898.3"
        cx="1721.6"
        transform="rotate(90 1721.565 898.277)"
      />
      <ellipse
        ry="27.7"
        rx="27.6"
        cy="1009.2"
        cx="1555.3"
        transform="rotate(90 1555.25 1009.154)"
      />
      <ellipse
        ry="27.7"
        rx="27.6"
        cy="1064.6"
        cx="1377.8"
        transform="rotate(90 1377.849 1064.592)"
      />
      <ellipse
        ry="27.7"
        rx="27.6"
        cy="1053.5"
        cx="1178.3"
        transform="rotate(90 1178.272 1053.504)"
      />
      <ellipse
        ry="27.7"
        rx="27.6"
        cy="998.1"
        cx="1012"
        transform="rotate(90 1011.957 998.066)"
      />
      <ellipse
        ry="27.7"
        rx="27.6"
        cy="898.3"
        cx="845.6"
        transform="rotate(90 845.643 898.277)"
      />
      <ellipse
        ry="27.7"
        rx="27.6"
        cy="732"
        cx="723.7"
        transform="rotate(90 723.679 731.963)"
      />
      <ellipse
        ry="27.7"
        rx="27.6"
        cy="554.6"
        cx="646.1"
        transform="rotate(90 646.066 554.561)"
      />
      <ellipse
        ry="27.7"
        rx="27.6"
        cy="355"
        cx="635"
        transform="rotate(90 634.978 354.984)"
      />
      <ellipse
        ry="27.7"
        rx="27.6"
        cy="166.5"
        cx="679.3"
        transform="rotate(90 679.329 166.494)"
      />
      <ellipse
        ry="27.7"
        rx="27.6"
        cy=".2"
        cx="779.1"
        transform="rotate(90 779.117 .18)"
      />
      <ellipse
        ry="27.7"
        rx="27.6"
        cy="-121.8"
        cx="912.2"
        transform="rotate(90 912.169 -121.784)"
      />
    </g>
    <g transform="rotate(17 -20.396 101.898)">
      <g fill="#006eba">
        <ellipse
          ry="25.1"
          rx="25"
          cy="733.1"
          cx="1766.7"
          transform="rotate(90 1766.722 733.146)"
        />
        <ellipse
          ry="25.1"
          rx="25"
          cy="572.7"
          cx="1786.8"
          transform="rotate(90 1786.775 572.72)"
        />
        <ellipse
          ry="25.1"
          rx="25"
          cy="392.2"
          cx="1746.7"
          transform="rotate(90 1746.669 392.242)"
        />
        <ellipse
          ry="25.1"
          rx="25"
          cy="231.8"
          cx="1656.4"
          transform="rotate(90 1656.429 231.816)"
        />
        <ellipse
          ry="25.1"
          rx="25"
          cy="121.5"
          cx="1526.1"
          transform="rotate(90 1526.083 121.524)"
        />
        <ellipse
          ry="25.1"
          rx="25"
          cy="51.3"
          cx="1375.7"
          transform="rotate(90 1375.685 51.337)"
        />
        <ellipse
          ry="25.1"
          rx="25"
          cy="21.3"
          cx="1195.2"
          transform="rotate(90 1195.206 21.258)"
        />
        <ellipse
          ry="25.1"
          rx="25"
          cy="51.3"
          cx="1024.8"
          transform="rotate(90 1024.754 51.338)"
        />
        <ellipse
          ry="25.1"
          rx="25"
          cy="903.6"
          cx="1696.5"
          transform="rotate(90 1696.536 903.598)"
        />
        <ellipse
          ry="25.1"
          rx="25"
          cy="1044"
          cx="1596.3"
          transform="rotate(90 1596.27 1043.97)"
        />
        <ellipse
          ry="25.1"
          rx="25"
          cy="1144.2"
          cx="1445.9"
          transform="rotate(90 1445.871 1144.236)"
        />
        <ellipse
          ry="25.1"
          rx="25"
          cy="1194.4"
          cx="1285.4"
          transform="rotate(90 1285.445 1194.369)"
        />
        <ellipse
          ry="25.1"
          rx="25"
          cy="1184.3"
          cx="1105"
          transform="rotate(90 1104.967 1184.343)"
        />
        <ellipse
          ry="25.1"
          rx="25"
          cy="1134.2"
          cx="954.6"
          transform="rotate(90 954.568 1134.21)"
        />
        <ellipse
          ry="25.1"
          rx="25"
          cy="1044"
          cx="804.2"
          transform="rotate(90 804.169 1043.97)"
        />
        <ellipse
          ry="25.1"
          rx="25"
          cy="893.6"
          cx="693.9"
          transform="rotate(90 693.876 893.572)"
        />
        <ellipse
          ry="25.1"
          rx="25"
          cy="733.1"
          cx="623.7"
          transform="rotate(90 623.69 733.146)"
        />
        <ellipse
          ry="25.1"
          rx="25"
          cy="552.7"
          cx="613.7"
          transform="rotate(90 613.663 552.667)"
        />
        <ellipse
          ry="25.1"
          rx="25"
          cy="382.2"
          cx="653.8"
          transform="rotate(90 653.77 382.215)"
        />
        <ellipse
          ry="25.1"
          rx="25"
          cy="231.8"
          cx="744"
          transform="rotate(90 744.009 231.816)"
        />
        <ellipse
          ry="25.1"
          rx="25"
          cy="121.5"
          cx="864.3"
          transform="rotate(90 864.328 121.524)"
        />
      </g>
      <g fill="#0090d6">
        <ellipse
          ry="25.1"
          rx="25"
          cy="733.1"
          cx="1766.7"
          transform="rotate(90 1766.722 733.146)"
        />
        <ellipse
          ry="25.1"
          rx="25"
          cy="572.7"
          cx="1786.8"
          transform="rotate(90 1786.775 572.72)"
        />
        <ellipse
          ry="25.1"
          rx="25"
          cy="392.2"
          cx="1746.7"
          transform="rotate(90 1746.669 392.242)"
        />
        <ellipse
          ry="25.1"
          rx="25"
          cy="231.8"
          cx="1656.4"
          transform="rotate(90 1656.429 231.816)"
        />
        <ellipse
          ry="25.1"
          rx="25"
          cy="121.5"
          cx="1526.1"
          transform="rotate(90 1526.083 121.524)"
        />
        <ellipse
          ry="25.1"
          rx="25"
          cy="51.3"
          cx="1375.7"
          transform="rotate(90 1375.685 51.337)"
        />
        <ellipse
          ry="25.1"
          rx="25"
          cy="21.3"
          cx="1195.2"
          transform="rotate(90 1195.206 21.258)"
        />
        <ellipse
          ry="25.1"
          rx="25"
          cy="51.3"
          cx="1024.8"
          transform="rotate(90 1024.754 51.338)"
        />
        <ellipse
          ry="25.1"
          rx="25"
          cy="903.6"
          cx="1696.5"
          transform="rotate(90 1696.536 903.598)"
        />
        <ellipse
          ry="25.1"
          rx="25"
          cy="1044"
          cx="1596.3"
          transform="rotate(90 1596.27 1043.97)"
        />
        <ellipse
          ry="25.1"
          rx="25"
          cy="1144.2"
          cx="1445.9"
          transform="rotate(90 1445.871 1144.236)"
        />
        <ellipse
          ry="25.1"
          rx="25"
          cy="1194.4"
          cx="1285.4"
          transform="rotate(90 1285.445 1194.369)"
        />
        <ellipse
          ry="25.1"
          rx="25"
          cy="1184.3"
          cx="1105"
          transform="rotate(90 1104.967 1184.343)"
        />
        <ellipse
          ry="25.1"
          rx="25"
          cy="1134.2"
          cx="954.6"
          transform="rotate(90 954.568 1134.21)"
        />
        <ellipse
          ry="25.1"
          rx="25"
          cy="1044"
          cx="804.2"
          transform="rotate(90 804.169 1043.97)"
        />
        <ellipse
          ry="25.1"
          rx="25"
          cy="893.6"
          cx="693.9"
          transform="rotate(90 693.876 893.572)"
        />
        <ellipse
          ry="25.1"
          rx="25"
          cy="733.1"
          cx="623.7"
          transform="rotate(90 623.69 733.146)"
        />
        <ellipse
          ry="25.1"
          rx="25"
          cy="552.7"
          cx="613.7"
          transform="rotate(90 613.663 552.667)"
        />
        <ellipse
          ry="25.1"
          rx="25"
          cy="382.2"
          cx="653.8"
          transform="rotate(90 653.77 382.215)"
        />
        <ellipse
          ry="25.1"
          rx="25"
          cy="231.8"
          cx="744"
          transform="rotate(90 744.009 231.816)"
        />
        <ellipse
          ry="25.1"
          rx="25"
          cy="121.5"
          cx="864.3"
          transform="rotate(90 864.328 121.524)"
        />
      </g>
    </g>
    <g transform="rotate(26 -7.305 85.587)">
      <g fill="#006eba">
        <ellipse
          ry="22.5"
          rx="22.4"
          cy="527.6"
          cx="1782"
          transform="rotate(90 1782.039 527.557)"
        />
        <ellipse
          ry="22.5"
          rx="22.4"
          cy="383.3"
          cx="1800.1"
          transform="rotate(90 1800.071 383.298)"
        />
        <ellipse
          ry="22.5"
          rx="22.4"
          cy="221"
          cx="1764"
          transform="rotate(90 1764.007 221.007)"
        />
        <ellipse
          ry="22.5"
          rx="22.4"
          cy="76.7"
          cx="1682.9"
          transform="rotate(90 1682.861 76.749)"
        />
        <ellipse
          ry="22.5"
          rx="22.4"
          cy="-22.4"
          cx="1565.7"
          transform="rotate(90 1565.651 -22.429)"
        />
        <ellipse
          ry="22.5"
          rx="22.4"
          cy="-85.5"
          cx="1430.4"
          transform="rotate(90 1430.408 -85.543)"
        />
        <ellipse
          ry="22.5"
          rx="22.4"
          cy="-112.6"
          cx="1268.1"
          transform="rotate(90 1268.117 -112.591)"
        />
        <ellipse
          ry="22.5"
          rx="22.4"
          cy="-85.5"
          cx="1114.8"
          transform="rotate(90 1114.843 -85.543)"
        />
        <ellipse
          ry="22.5"
          rx="22.4"
          cy="680.8"
          cx="1718.9"
          transform="rotate(90 1718.926 680.832)"
        />
        <ellipse
          ry="22.5"
          rx="22.4"
          cy="807.1"
          cx="1628.8"
          transform="rotate(90 1628.764 807.058)"
        />
        <ellipse
          ry="22.5"
          rx="22.4"
          cy="897.2"
          cx="1493.5"
          transform="rotate(90 1493.521 897.22)"
        />
        <ellipse
          ry="22.5"
          rx="22.4"
          cy="942.3"
          cx="1349.3"
          transform="rotate(90 1349.263 942.301)"
        />
        <ellipse
          ry="22.5"
          rx="22.4"
          cy="933.3"
          cx="1187"
          transform="rotate(90 1186.972 933.285)"
        />
        <ellipse
          ry="22.5"
          rx="22.4"
          cy="888.2"
          cx="1051.7"
          transform="rotate(90 1051.729 888.204)"
        />
        <ellipse
          ry="22.5"
          rx="22.4"
          cy="807.1"
          cx="916.5"
          transform="rotate(90 916.487 807.058)"
        />
        <ellipse
          ry="22.5"
          rx="22.4"
          cy="671.8"
          cx="817.3"
          transform="rotate(90 817.309 671.816)"
        />
        <ellipse
          ry="22.5"
          rx="22.4"
          cy="527.6"
          cx="754.2"
          transform="rotate(90 754.196 527.557)"
        />
        <ellipse
          ry="22.5"
          rx="22.4"
          cy="365.3"
          cx="745.2"
          transform="rotate(90 745.179 365.266)"
        />
        <ellipse
          ry="22.5"
          rx="22.4"
          cy="212"
          cx="781.2"
          transform="rotate(90 781.244 211.991)"
        />
        <ellipse
          ry="22.5"
          rx="22.4"
          cy="76.7"
          cx="862.4"
          transform="rotate(90 862.39 76.748)"
        />
        <ellipse
          ry="22.5"
          rx="22.4"
          cy="-22.4"
          cx="970.6"
          transform="rotate(90 970.584 -22.429)"
        />
      </g>
      <g fill="#00a1e5">
        <ellipse
          ry="22.5"
          rx="22.4"
          cy="527.6"
          cx="1782"
          transform="rotate(90 1782.039 527.557)"
        />
        <ellipse
          ry="22.5"
          rx="22.4"
          cy="383.3"
          cx="1800.1"
          transform="rotate(90 1800.071 383.298)"
        />
        <ellipse
          ry="22.5"
          rx="22.4"
          cy="221"
          cx="1764"
          transform="rotate(90 1764.007 221.007)"
        />
        <ellipse
          ry="22.5"
          rx="22.4"
          cy="76.7"
          cx="1682.9"
          transform="rotate(90 1682.861 76.749)"
        />
        <ellipse
          ry="22.5"
          rx="22.4"
          cy="-22.4"
          cx="1565.7"
          transform="rotate(90 1565.651 -22.429)"
        />
        <ellipse
          ry="22.5"
          rx="22.4"
          cy="-85.5"
          cx="1430.4"
          transform="rotate(90 1430.408 -85.543)"
        />
        <ellipse
          ry="22.5"
          rx="22.4"
          cy="-112.6"
          cx="1268.1"
          transform="rotate(90 1268.117 -112.591)"
        />
        <ellipse
          ry="22.5"
          rx="22.4"
          cy="-85.5"
          cx="1114.8"
          transform="rotate(90 1114.843 -85.543)"
        />
        <ellipse
          ry="22.5"
          rx="22.4"
          cy="680.8"
          cx="1718.9"
          transform="rotate(90 1718.926 680.832)"
        />
        <ellipse
          ry="22.5"
          rx="22.4"
          cy="807.1"
          cx="1628.8"
          transform="rotate(90 1628.764 807.058)"
        />
        <ellipse
          ry="22.5"
          rx="22.4"
          cy="897.2"
          cx="1493.5"
          transform="rotate(90 1493.521 897.22)"
        />
        <ellipse
          ry="22.5"
          rx="22.4"
          cy="942.3"
          cx="1349.3"
          transform="rotate(90 1349.263 942.301)"
        />
        <ellipse
          ry="22.5"
          rx="22.4"
          cy="933.3"
          cx="1187"
          transform="rotate(90 1186.972 933.285)"
        />
        <ellipse
          ry="22.5"
          rx="22.4"
          cy="888.2"
          cx="1051.7"
          transform="rotate(90 1051.729 888.204)"
        />
        <ellipse
          ry="22.5"
          rx="22.4"
          cy="807.1"
          cx="916.5"
          transform="rotate(90 916.487 807.058)"
        />
        <ellipse
          ry="22.5"
          rx="22.4"
          cy="671.8"
          cx="817.3"
          transform="rotate(90 817.309 671.816)"
        />
        <ellipse
          ry="22.5"
          rx="22.4"
          cy="527.6"
          cx="754.2"
          transform="rotate(90 754.196 527.557)"
        />
        <ellipse
          ry="22.5"
          rx="22.4"
          cy="365.3"
          cx="745.2"
          transform="rotate(90 745.179 365.266)"
        />
        <ellipse
          ry="22.5"
          rx="22.4"
          cy="212"
          cx="781.2"
          transform="rotate(90 781.244 211.991)"
        />
        <ellipse
          ry="22.5"
          rx="22.4"
          cy="76.7"
          cx="862.4"
          transform="rotate(90 862.39 76.748)"
        />
        <ellipse
          ry="22.5"
          rx="22.4"
          cy="-22.4"
          cx="970.6"
          transform="rotate(90 970.584 -22.429)"
        />
      </g>
    </g>
    <g transform="rotate(35 -.663 76.131)" fill="#09aef3">
      <circle
        r="20.3"
        cy="314.7"
        cx="1774.6"
        transform="rotate(90 1774.577 314.743)"
      />
      <circle
        r="20.3"
        cy="184.6"
        cx="1790.8"
        transform="rotate(90 1790.848 184.573)"
      />
      <circle
        r="20.3"
        cy="38.1"
        cx="1758.3"
        transform="rotate(90 1758.305 38.131)"
      />
      <circle
        r="20.3"
        cy="-92"
        cx="1685.1"
        transform="rotate(90 1685.085 -92.039)"
      />
      <circle
        r="20.3"
        cy="-181.5"
        cx="1579.3"
        transform="rotate(90 1579.321 -181.531)"
      />
      <circle
        r="20.3"
        cy="-238.5"
        cx="1457.3"
        transform="rotate(90 1457.287 -238.481)"
      />
      <circle
        r="20.3"
        cy="-262.9"
        cx="1310.8"
        transform="rotate(90 1310.845 -262.888)"
      />
      <circle
        r="20.3"
        cy="-238.5"
        cx="1172.5"
        transform="rotate(90 1172.539 -238.481)"
      />
      <circle
        r="20.3"
        cy="453"
        cx="1717.6"
        transform="rotate(90 1717.627 453.049)"
      />
      <circle
        r="20.3"
        cy="566.9"
        cx="1636.3"
        transform="rotate(90 1636.271 566.948)"
      />
      <circle
        r="20.3"
        cy="648.3"
        cx="1514.2"
        transform="rotate(90 1514.236 648.304)"
      />
      <circle
        r="20.3"
        cy="689"
        cx="1384.1"
        transform="rotate(90 1384.066 688.982)"
      />
      <circle
        r="20.3"
        cy="680.8"
        cx="1237.6"
        transform="rotate(90 1237.624 680.847)"
      />
      <circle
        r="20.3"
        cy="640.2"
        cx="1115.6"
        transform="rotate(90 1115.59 640.168)"
      />
      <circle
        r="20.3"
        cy="566.9"
        cx="993.6"
        transform="rotate(90 993.555 566.948)"
      />
      <circle
        r="20.3"
        cy="444.9"
        cx="904.1"
        transform="rotate(90 904.063 444.913)"
      />
      <circle
        r="20.3"
        cy="314.7"
        cx="847.1"
        transform="rotate(90 847.113 314.743)"
      />
      <circle
        r="20.3"
        cy="168.3"
        cx="839"
        transform="rotate(90 838.978 168.301)"
      />
      <circle
        r="20.3"
        cy="30"
        cx="871.5"
        transform="rotate(90 871.52 29.995)"
      />
      <circle
        r="20.3"
        cy="-92"
        cx="944.7"
        transform="rotate(90 944.741 -92.039)"
      />
      <circle
        r="20.3"
        cy="-181.5"
        cx="1042.4"
        transform="rotate(90 1042.369 -181.531)"
      />
    </g>
    <g transform="rotate(43 3.355 70.062)" fill="#27bfff">
      <circle
        r="19.6"
        cy="123.2"
        cx="1749.1"
        transform="rotate(90 1749.073 123.189)"
      />
      <circle
        r="19.6"
        cy="3.5"
        cx="1764"
        transform="rotate(90 1764.032 3.519)"
      />
      <circle
        r="19.6"
        cy="-131.1"
        cx="1734.1"
        transform="rotate(90 1734.115 -131.109)"
      />
      <circle
        r="19.6"
        cy="-250.8"
        cx="1666.8"
        transform="rotate(90 1666.8 -250.779)"
      />
      <circle
        r="19.6"
        cy="-333.1"
        cx="1569.6"
        transform="rotate(90 1569.569 -333.052)"
      />
      <circle
        r="19.6"
        cy="-385.4"
        cx="1457.4"
        transform="rotate(90 1457.379 -385.407)"
      />
      <circle
        r="19.6"
        cy="-407.8"
        cx="1322.8"
        transform="rotate(90 1322.751 -407.845)"
      />
      <circle
        r="19.6"
        cy="-385.4"
        cx="1195.6"
        transform="rotate(90 1195.602 -385.407)"
      />
      <circle
        r="19.6"
        cy="250.3"
        cx="1696.7"
        transform="rotate(90 1696.718 250.338)"
      />
      <circle
        r="19.6"
        cy="355"
        cx="1621.9"
        transform="rotate(90 1621.924 355.048)"
      />
      <circle
        r="19.6"
        cy="429.8"
        cx="1509.7"
        transform="rotate(90 1509.734 429.842)"
      />
      <circle
        r="19.6"
        cy="467.2"
        cx="1390.1"
        transform="rotate(90 1390.064 467.238)"
      />
      <circle
        r="19.6"
        cy="459.8"
        cx="1255.4"
        transform="rotate(90 1255.436 459.759)"
      />
      <circle
        r="19.6"
        cy="422.4"
        cx="1143.2"
        transform="rotate(90 1143.246 422.362)"
      />
      <circle
        r="19.6"
        cy="355"
        cx="1031.1"
        transform="rotate(90 1031.056 355.048)"
      />
      <circle
        r="19.6"
        cy="242.9"
        cx="948.8"
        transform="rotate(90 948.783 242.858)"
      />
      <circle
        r="19.6"
        cy="123.2"
        cx="896.4"
        transform="rotate(90 896.428 123.188)"
      />
      <circle
        r="19.6"
        cy="-11.4"
        cx="888.9"
        transform="rotate(90 888.948 -11.44)"
      />
      <circle
        r="19.6"
        cy="-138.6"
        cx="918.9"
        transform="rotate(90 918.866 -138.589)"
      />
      <circle
        r="19.6"
        cy="-250.8"
        cx="986.2"
        transform="rotate(90 986.18 -250.779)"
      />
      <circle
        r="19.6"
        cy="-333.1"
        cx="1075.9"
        transform="rotate(90 1075.932 -333.052)"
      />
    </g>
    <g transform="rotate(51 5.456 65.539)" fill="#64cffd">
      <circle
        r="19.6"
        cy="-69.5"
        cx="1692"
        transform="rotate(90 1692.025 -69.527)"
      />
      <circle
        r="19.6"
        cy="-177.1"
        cx="1705.5"
        transform="rotate(90 1705.47 -177.085)"
      />
      <circle
        r="19.6"
        cy="-298.1"
        cx="1678.6"
        transform="rotate(90 1678.58 -298.089)"
      />
      <circle
        r="19.6"
        cy="-405.6"
        cx="1618.1"
        transform="rotate(90 1618.078 -405.648)"
      />
      <circle
        r="19.6"
        cy="-479.6"
        cx="1530.7"
        transform="rotate(90 1530.687 -479.594)"
      />
      <circle
        r="19.6"
        cy="-526.7"
        cx="1429.9"
        transform="rotate(90 1429.85 -526.651)"
      />
      <circle
        r="19.6"
        cy="-546.8"
        cx="1308.8"
        transform="rotate(90 1308.847 -546.819)"
      />
      <circle
        r="19.6"
        cy="-526.7"
        cx="1194.6"
        transform="rotate(90 1194.565 -526.651)"
      />
      <circle
        r="19.6"
        cy="44.8"
        cx="1645"
        transform="rotate(90 1644.968 44.755)"
      />
      <circle
        r="19.6"
        cy="138.9"
        cx="1577.7"
        transform="rotate(90 1577.744 138.868)"
      />
      <circle
        r="19.6"
        cy="206.1"
        cx="1476.9"
        transform="rotate(90 1476.907 206.093)"
      />
      <circle
        r="19.6"
        cy="239.7"
        cx="1369.3"
        transform="rotate(90 1369.349 239.705)"
      />
      <circle
        r="19.6"
        cy="233"
        cx="1248.3"
        transform="rotate(90 1248.345 232.982)"
      />
      <circle
        r="19.6"
        cy="199.4"
        cx="1147.5"
        transform="rotate(90 1147.509 199.37)"
      />
      <circle
        r="19.6"
        cy="138.9"
        cx="1046.7"
        transform="rotate(90 1046.672 138.869)"
      />
      <circle
        r="19.6"
        cy="38"
        cx="972.7"
        transform="rotate(90 972.726 38.032)"
      />
      <circle
        r="19.6"
        cy="-69.5"
        cx="925.7"
        transform="rotate(90 925.669 -69.526)"
      />
      <circle
        r="19.6"
        cy="-190.5"
        cx="918.9"
        transform="rotate(90 918.946 -190.53)"
      />
      <circle
        r="19.6"
        cy="-304.8"
        cx="945.8"
        transform="rotate(90 945.836 -304.811)"
      />
      <circle
        r="19.6"
        cy="-405.6"
        cx="1006.3"
        transform="rotate(90 1006.338 -405.648)"
      />
      <circle
        r="19.6"
        cy="-479.6"
        cx="1087"
        transform="rotate(90 1087.007 -479.594)"
      />
    </g>
    <g fill="#81d9ff">
      <g transform="rotate(59 7.56 61.569)">
        <circle
          r="19.6"
          cy="-257.3"
          cx="1619.3"
          transform="rotate(90 1619.303 -257.262)"
        />
        <circle
          r="19.6"
          cy="-355.2"
          cx="1631.5"
          transform="rotate(90 1631.541 -355.164)"
        />
        <circle
          r="19.6"
          cy="-465.3"
          cx="1607.1"
          transform="rotate(90 1607.065 -465.304)"
        />
        <circle
          r="19.6"
          cy="-563.2"
          cx="1552"
          transform="rotate(90 1551.995 -563.206)"
        />
        <circle
          r="19.6"
          cy="-630.5"
          cx="1472.4"
          transform="rotate(90 1472.45 -630.513)"
        />
        <circle
          r="19.6"
          cy="-673.3"
          cx="1380.7"
          transform="rotate(90 1380.667 -673.346)"
        />
        <circle
          r="19.6"
          cy="-691.7"
          cx="1270.5"
          transform="rotate(90 1270.527 -691.702)"
        />
        <circle
          r="19.6"
          cy="-673.3"
          cx="1166.5"
          transform="rotate(90 1166.506 -673.346)"
        />
        <circle
          r="19.6"
          cy="-153.2"
          cx="1576.5"
          transform="rotate(90 1576.471 -153.241)"
        />
        <circle
          r="19.6"
          cy="-67.6"
          cx="1515.3"
          transform="rotate(90 1515.282 -67.576)"
        />
        <circle
          r="19.6"
          cy="-6.4"
          cx="1423.5"
          transform="rotate(90 1423.499 -6.388)"
        />
        <circle
          r="19.6"
          cy="24.2"
          cx="1325.6"
          transform="rotate(90 1325.597 24.207)"
        />
        <circle
          r="19.6"
          cy="18.1"
          cx="1215.5"
          transform="rotate(90 1215.457 18.088)"
        />
        <circle
          r="19.6"
          cy="-12.5"
          cx="1123.7"
          transform="rotate(90 1123.674 -12.507)"
        />
        <circle
          r="19.6"
          cy="-67.6"
          cx="1031.9"
          transform="rotate(90 1031.891 -67.577)"
        />
        <circle
          r="19.6"
          cy="-159.4"
          cx="964.6"
          transform="rotate(90 964.583 -159.36)"
        />
        <circle
          r="19.6"
          cy="-257.3"
          cx="921.8"
          transform="rotate(90 921.751 -257.262)"
        />
        <circle
          r="19.6"
          cy="-367.4"
          cx="915.6"
          transform="rotate(90 915.632 -367.402)"
        />
        <circle
          r="19.6"
          cy="-471.4"
          cx="940.1"
          transform="rotate(90 940.107 -471.423)"
        />
        <circle
          r="19.6"
          cy="-563.2"
          cx="995.2"
          transform="rotate(90 995.177 -563.206)"
        />
        <circle
          r="19.6"
          cy="-630.5"
          cx="1068.6"
          transform="rotate(90 1068.604 -630.513)"
        />
      </g>
      <g transform="rotate(68 8.592 57.854)">
        <circle
          r="19.6"
          cy="-461.8"
          cx="1498.6"
          transform="rotate(90 1498.575 -461.808)"
        />
        <circle
          r="19.6"
          cy="-546.2"
          cx="1509.1"
          transform="rotate(90 1509.124 -546.202)"
        />
        <circle
          r="19.6"
          cy="-641.1"
          cx="1488"
          transform="rotate(90 1488.026 -641.146)"
        />
        <circle
          r="19.6"
          cy="-725.5"
          cx="1440.6"
          transform="rotate(90 1440.554 -725.54)"
        />
        <circle
          r="19.6"
          cy="-783.6"
          cx="1372"
          transform="rotate(90 1371.984 -783.561)"
        />
        <circle
          r="19.6"
          cy="-820.5"
          cx="1292.9"
          transform="rotate(90 1292.864 -820.483)"
        />
        <circle
          r="19.6"
          cy="-836.3"
          cx="1197.9"
          transform="rotate(90 1197.921 -836.307)"
        />
        <circle
          r="19.6"
          cy="-820.5"
          cx="1108.3"
          transform="rotate(90 1108.252 -820.483)"
        />
        <circle
          r="19.6"
          cy="-372.1"
          cx="1461.7"
          transform="rotate(90 1461.652 -372.139)"
        />
        <circle
          r="19.6"
          cy="-298.3"
          cx="1408.9"
          transform="rotate(90 1408.906 -298.294)"
        />
        <circle
          r="19.6"
          cy="-245.5"
          cx="1329.8"
          transform="rotate(90 1329.786 -245.548)"
        />
        <circle
          r="19.6"
          cy="-219.2"
          cx="1245.4"
          transform="rotate(90 1245.392 -219.175)"
        />
        <circle
          r="19.6"
          cy="-224.4"
          cx="1150.4"
          transform="rotate(90 1150.449 -224.449)"
        />
        <circle
          r="19.6"
          cy="-250.8"
          cx="1071.3"
          transform="rotate(90 1071.329 -250.823)"
        />
        <circle
          r="19.6"
          cy="-298.3"
          cx="992.2"
          transform="rotate(90 992.21 -298.294)"
        />
        <circle
          r="19.6"
          cy="-377.4"
          cx="934.2"
          transform="rotate(90 934.189 -377.414)"
        />
        <circle
          r="19.6"
          cy="-461.8"
          cx="897.3"
          transform="rotate(90 897.266 -461.808)"
        />
        <circle
          r="19.6"
          cy="-556.8"
          cx="892"
          transform="rotate(90 891.991 -556.752)"
        />
        <circle
          r="19.6"
          cy="-646.4"
          cx="913.1"
          transform="rotate(90 913.09 -646.421)"
        />
        <circle
          r="19.6"
          cy="-725.5"
          cx="960.6"
          transform="rotate(90 960.562 -725.54)"
        />
        <circle
          r="19.6"
          cy="-783.6"
          cx="1023.9"
          transform="rotate(90 1023.858 -783.561)"
        />
      </g>
    </g>
  </g>
  <style xmlns="" class="darkreader darkreader--fallback">
    html,
    body,
    body :not(iframe) {
      background-color: #181a1b !important;
      border-color: #776e62 !important;
      color: #e8e6e3 !important;
    }
    div[style*="background-color: rgb(135, 135, 135)"] {
      background-color: #878787 !important;
    }
  </style>
</svg>