<svg width="28" height="28" viewBox="0 0 28 28" xmlns="http://www.w3.org/2000/svg">
<defs>
    <style>.cls-1{fill:url(#linear-gradient);}</style>
    <linearGradient id="linear-gradient" x1="13.8934" y1="24.8839" x2="13.8934" y2="3" gradientUnits="userSpaceOnUse">
        <stop stop-color="#FAC10D"/>
        <stop offset="1" stop-color="#F05A28"/>
    </linearGradient>
</defs>
<path  class="cls-1" d="M22.4374 10.2593C22.3555 10.0709 22.2224 9.90922 22.0533 9.7926C21.8842 9.67597 21.6858 9.60904 21.4806 9.59938H16.4436L17.8403 4.38638C17.8848 4.22325 17.8911 4.05207 17.8586 3.88612C17.8262 3.72018 17.756 3.56395 17.6533 3.42956C17.5509 3.29647 17.4193 3.18862 17.2687 3.11427C17.1181 3.03992 16.9525 3.00105 16.7845 3.00065H9.08597C8.83768 2.99214 8.59382 3.06795 8.39412 3.21573C8.19441 3.36351 8.05063 3.57456 7.98618 3.81449L5.03874 14.8124C4.99426 14.9755 4.98799 15.1467 5.02041 15.3126C5.05284 15.4786 5.12309 15.6348 5.22571 15.7692C5.32929 15.9038 5.46263 16.0125 5.61528 16.0869C5.76792 16.1614 5.93573 16.1994 6.10554 16.1981H10.3617L8.37111 23.6107C8.30589 23.8497 8.32329 24.1038 8.42049 24.3317C8.51769 24.5596 8.689 24.748 8.90666 24.8664C9.12432 24.9847 9.37557 25.0261 9.6197 24.9839C9.86384 24.9416 10.0865 24.8182 10.2517 24.6335L22.2395 11.436C22.3822 11.2797 22.4768 11.0856 22.5119 10.8768C22.547 10.6681 22.5212 10.4537 22.4374 10.2593V10.2593ZM11.6705 19.8054L12.8473 15.4063C12.8917 15.2431 12.898 15.072 12.8656 14.906C12.8332 14.7401 12.7629 14.5838 12.6603 14.4495C12.5578 14.3164 12.4263 14.2085 12.2757 14.1342C12.125 14.0598 11.9594 14.0209 11.7915 14.0205H7.56826L9.92181 5.20022H15.3438L13.947 10.4132C13.9022 10.5794 13.897 10.7537 13.9318 10.9222C13.9666 11.0907 14.0404 11.2487 14.1474 11.3835C14.2544 11.5183 14.3915 11.6261 14.5477 11.6983C14.7039 11.7704 14.8749 11.8049 15.0468 11.799H18.9731L11.6705 19.8054Z"/>
</svg>
