<svg xmlns="http://www.w3.org/2000/svg" xmlns:xlink="http://www.w3.org/1999/xlink" viewBox="0 0 80.9 80.9"><defs><style>.cls-1{fill:#8ab8ff;}.cls-2{fill:#1f60c4;}.cls-3{fill:url(#linear-gradient);}</style><linearGradient id="linear-gradient" x1="8.4" y1="40.45" x2="72.5" y2="40.45" gradientUnits="userSpaceOnUse"><stop offset="0" stop-color="#f2cc0c"/><stop offset="1" stop-color="#ff9830"/></linearGradient></defs><g id="Layer_2" data-name="Layer 2"><g id="Layer_4" data-name="Layer 4"><path class="cls-1" d="M71.71,62a2.66,2.66,0,0,0,.86.54A2.59,2.59,0,0,0,75.38,62a2.87,2.87,0,0,0,.55-.86,2.47,2.47,0,0,0,0-2,2.42,2.42,0,0,0-1.4-1.4,2.59,2.59,0,0,0-2.82.55,3.15,3.15,0,0,0-.54.85,2.39,2.39,0,0,0,0,2A3.05,3.05,0,0,0,71.71,62Z"/><path class="cls-2" d="M40.45,80.9A40.42,40.42,0,1,1,78.88,53.1a2,2,0,1,1-3.8-1.25A36.47,36.47,0,1,0,66.35,66.1a2,2,0,0,1,2.84,2.81A40.17,40.17,0,0,1,40.45,80.9Z"/><path class="cls-3" d="M40.45,8.4A32,32,0,1,0,72.5,40.45,32.09,32.09,0,0,0,40.45,8.4ZM41,67.51a1.76,1.76,0,0,0-.11.8h-.35A27.65,27.65,0,0,1,12.93,40.68a27.11,27.11,0,0,1,7.31-19.07,2.37,2.37,0,0,0,.57.34,9.65,9.65,0,0,1,.11,3V25s1.14,2.86.12,5.14-.92,6.4-.35,7.31,3.2,4.23,3.54,4.57a10.74,10.74,0,0,1,1.26,3.2c.11.34,1.83,2.51,3.65,2.39a7,7,0,0,1,3.09,1,2.19,2.19,0,0,0,.91.34c.12,0,.23.23.34.35a4.35,4.35,0,0,0,1.6,1.71c.23.11.57.34.8.46A18.51,18.51,0,0,1,38.28,53c0,.11-.23.34-.34.46-.57.68-1.6,1.82-1.26,3.31C37,58.83,40,61.35,41,62,41.59,62.49,41.36,66.71,41,67.51ZM64.09,29.94a2.28,2.28,0,0,1,1.25,1.94c0,.23,1.6,1.26,1.6,1.26s-.68,1.37-1,1.37-.58,1.37-.58,1.83a3.65,3.65,0,0,0,1.37,2c.58.46,1.26-.34,1.6-.68a16.08,16.08,0,0,1,.12,2.4,6.81,6.81,0,0,0-2.06.8c-.45.45-1.48,3.65-1.94,4S63.06,49.7,63,50.16s1.14,3.65,1.94,4.11a27.44,27.44,0,0,1-18,13.36c.12-.23.23-.35.35-.35s.34-.22.45-.34a2.88,2.88,0,0,0,1.15-.8,8.15,8.15,0,0,1,1.71-1.71,26,26,0,0,0,4.11-3.77,16.28,16.28,0,0,1,1.6-3c.68-.57.11-1.71-.23-2v-.12c-.23-.45-2.17-.68-2.51-.57a6.06,6.06,0,0,1-2.06-1.14c0-.57-1.6-2.06-1.94-2.06a2.58,2.58,0,0,1-1.6-.79c-.57-.8-2.85-1.26-3.42-1.26a4.53,4.53,0,0,1-2.06-.46,3.93,3.93,0,0,0-2.51.57c-.23.12-.34.12-.46.23a10.87,10.87,0,0,1-2.62-.46,2.71,2.71,0,0,1-.23-1.14,5.85,5.85,0,0,0-.12-.91c-.11-.23-.57-.34-1.37-.57-.23,0-.45-.12-.68-.12a1.84,1.84,0,0,1,.23-.57A2.1,2.1,0,0,0,35,44.79c-.12-.12-.12-.23-.34-.23-.46-.11-1,.34-1.6.8a2,2,0,0,1-.8.46,5.87,5.87,0,0,1-1.94-.8c-.92-.69-.35-2.29-.12-3.09a4,4,0,0,0,.23-.8c0-.22.91-.45,2.28-.45.35,0,.92-.12,1.37-.12a5,5,0,0,1,1.15-.11c.23,0,.57.46.8.8s.68.91,1,.8c.58-.12.46-.8.46-1.26v-.46a3.53,3.53,0,0,1,1.26-1.82c.68-.46,1.6-1.71,1.37-2.29,0-.22,1.14-1,1.6-1.37a1.42,1.42,0,0,0,.45-.34c.12-.11.23-.11.46-.23.46-.23.91-.45.91-1.14,0-.46,1.26-.57,2.06-.68.23,0,.34,0,.46-.12.45-.11.79-.23.91-.46a1.34,1.34,0,0,0-.12-.91c0-.11-.11-.23-.11-.34a1.13,1.13,0,0,1,.46-1.49c.23-.22.8-.22,1.25-.34a6.28,6.28,0,0,0,1.6-.34,1.22,1.22,0,0,0,.69-.57c.11-.34-.12-.57-.35-.92-.11-.11-.11-.22-.22-.34A3,3,0,0,0,49,25.38c-.22-.12-.34-.92-.45-1.37-.12-.23-.12-.46-.23-.69S48.1,23,48,23a3,3,0,0,0-1.49.23.45.45,0,0,0-.11-.35,1,1,0,0,0-.23-.68c-.11-.12-.34-.34-.57-.57a14.49,14.49,0,0,1-1.26-1.14.73.73,0,0,0-.57-.23c-.46.11-.91.68-1.25,1.25,0,.12-.12.12-.12.23-.57.92-.68,1.6-.23,1.94,0,0,.12.12,0,.46s-.45.8-.68.8c-.57,0-.69.68-.8,1.37a1.71,1.71,0,0,1-.23.8c-.11-.12-.23-.57-.23-1.83v-.11c0-.12,0-.35-.11-.35a1.08,1.08,0,0,0-.57-.11c-.23,0-.35,0-.46-.11a7.94,7.94,0,0,0-2.4-1.26V21.61a24.17,24.17,0,0,1,3.08-2.06,22.35,22.35,0,0,0,3-1.71.69.69,0,0,0,.35-.69c-.12-.57-1.15-1-1.6-1.14-.34-.8-.92-.8-1.6-.8a4.41,4.41,0,0,1-1.14-.11,15,15,0,0,0-4.34-.23,10.18,10.18,0,0,1-2.63-.23c-.23,0-.46-.11-.68-.11a26.47,26.47,0,0,1,9.59-1.72A28.35,28.35,0,0,1,51.53,15c.11.23.11.46.22.69a9.26,9.26,0,0,1,1,3.31,16.78,16.78,0,0,1,0,2.51c-.11.35,2.06,2.86,2.63,2.86s.8-.23,1.14-.69A7.06,7.06,0,0,1,58.15,22a4.31,4.31,0,0,1,2.74-.34,36.82,36.82,0,0,1,2.63,3.19l-.23.23c-.46.46-1.49,1.49-1.37,2.4A3.82,3.82,0,0,0,64.09,29.94Z"/></g></g></svg>