<svg width="371" height="371" viewBox="0 0 371 371" fill="none" xmlns="http://www.w3.org/2000/svg">
<path d="M11.1314 195.438L106.111 57.7826L261.982 54.3998L360.865 195.698L358.263 232.649L189.121 307.592L13.4734 230.047L11.1314 195.438Z" fill="white"/>
<path d="M305.453 41.0885C309.824 43.5911 313.942 46.2668 317.874 49.2281C322.5 52.7132 326.53 56.8251 330.314 61.1819C336.066 67.8042 340.794 75.1098 344.611 83.0006C348.126 90.2619 350.51 97.9131 352.417 105.732C354.556 114.512 356.436 123.348 357.694 132.294C358.651 139.092 359.387 145.924 360.055 152.757C361.426 166.784 360.902 180.858 360.899 194.917C360.899 195.174 360.861 195.431 360.833 195.8H296.219C282.594 155.234 268.931 114.555 255.259 73.8499H235.081C218.688 122.794 202.291 171.752 185.895 220.71C185.801 220.714 185.709 220.721 185.617 220.729C168.994 171.785 152.373 122.842 135.739 73.8651H116.243C102.812 114.542 89.3883 155.195 75.9402 195.922C54.3395 195.82 32.8286 195.72 11.2035 195.619C11.1592 195.16 11.0869 194.757 11.0859 194.354C11.0658 186.529 10.9017 178.699 11.0882 170.878C11.2405 164.49 11.7228 158.105 12.2207 151.731C13.02 141.5 14.6255 131.376 16.7323 121.338C18.5877 112.497 20.6274 103.694 23.7052 95.1805C27.8615 83.6837 33.9507 73.2965 41.8778 63.9891C45.3811 59.8757 49.1537 56.0182 53.3258 52.5899C57.8265 48.8919 62.7473 45.7917 67.822 42.9371C78.5885 36.8811 90.0288 32.6145 102.128 30.1631C106.213 29.3355 110.345 28.7225 114.474 28.1338C119.754 27.3806 125.045 26.6821 130.345 26.0877C135.7 25.4875 141.07 25.0115 146.438 24.5376C157.29 23.5795 168.173 23.1659 179.061 23.0596C192.86 22.9251 206.663 22.969 220.446 23.7169C228.36 24.1464 236.268 24.7629 244.159 25.5086C251.941 26.2441 259.722 27.0732 267.46 28.1749C280.603 30.0464 293.022 34.2084 304.645 40.67C304.875 40.7985 305.113 40.915 305.453 41.0885Z" fill="#006BFF"/>
<path d="M212.789 346.974C201.432 347.544 190.22 347.42 179.014 347.247C172.939 347.153 166.865 346.792 160.796 346.449C156.048 346.181 151.302 345.83 146.566 345.384C141.149 344.875 135.727 344.348 130.337 343.603C121.601 342.394 112.874 341.096 104.173 339.658C94.3301 338.033 84.8663 335.078 75.7639 330.984C67.5371 327.284 59.7855 322.765 52.6541 317.242C48.5503 314.064 44.9405 310.332 41.5319 306.42C36.0177 300.089 31.407 293.148 27.6546 285.643C24.4303 279.195 22.1461 272.396 20.1947 265.469C17.786 256.915 15.9123 248.252 14.5796 239.473C14.1834 236.862 13.8974 234.234 13.5848 231.611C13.5245 231.105 13.5762 230.585 13.5762 229.942H99.8048C108.738 203.147 117.64 176.446 126.541 149.744C126.632 149.733 126.722 149.722 126.812 149.711C143.202 198.648 159.592 247.584 175.994 296.554H195.513C211.893 247.648 228.266 198.76 244.64 149.873C244.762 149.87 244.883 149.868 245.005 149.865C254.118 176.51 263.232 203.157 272.345 229.801C300.974 230.464 329.486 231.126 358.169 231.789C357.583 235.918 357.106 239.848 356.455 243.748C354.643 254.607 351.944 265.251 348.333 275.649C343.98 288.186 337.199 299.297 328.453 309.268C319.41 319.576 308.159 326.718 295.841 332.36C287.495 336.183 278.782 338.914 269.748 340.501C262.521 341.772 255.254 342.838 247.986 343.858C236.78 345.429 225.507 346.32 214.212 346.93C213.79 346.952 213.367 346.954 212.789 346.974Z" fill="#006BFF"/>
</svg>
