<svg xmlns="http://www.w3.org/2000/svg" xml:space="preserve" style="fill-rule:evenodd;clip-rule:evenodd;stroke-linejoin:round;stroke-miterlimit:2" viewBox="0 0 2470 2096">
  <path d="M2006 126a742.6 742.6 0 0 1 78.2 51.3 518 518 0 0 1 78.4 75.4c36.3 41.7 66 87.8 90.2 137.5 22.1 45.8 37.1 94 49.1 143.3 13.5 55.3 25.4 111 33.3 167.4 6 42.8 10.7 85.9 14.9 129 8.6 88.3 5.3 177 5.3 265.7 0 1.6-.2 3.2-.4 5.5h-407.3l-258.1-768.6h-127.2l-310 925.6-1.8.1-314.3-925.6h-123l-254 769.3-408-2c-.2-2.8-.7-5.4-.7-7.9-.1-49.3-1.2-98.7 0-148 1-40.2 4-80.5 7.2-120.6 5-64.5 15.1-128.3 28.4-191.6 11.7-55.7 24.5-111.2 44-164.8a633 633 0 0 1 114.5-196.6 563 563 0 0 1 72.1-71.9 625.8 625.8 0 0 1 91.4-60.8c67.9-38.2 140-65 216.2-80.5 25.8-5.2 51.8-9.1 77.8-12.8 33.3-4.8 66.7-9.2 100-13 33.8-3.7 67.7-6.7 101.5-9.7 68.4-6 137-8.6 205.6-9.3 87-.8 174-.6 260.9 4.1a3934.2 3934.2 0 0 1 296.3 28.1 674.4 674.4 0 0 1 234.3 78.8l5.1 2.6Z" style="fill:#006bff;fill-rule:nonzero"/>
  <path d="M1421.9 2054a3291 3291 0 0 1-212.9 1.6c-38.3-.5-76.5-2.8-114.8-5-30-1.7-59.8-3.9-89.7-6.7-34.1-3.2-68.3-6.5-102.3-11.2-55-7.7-110-15.8-164.9-24.9a722.3 722.3 0 0 1-179-54.7 716.6 716.6 0 0 1-145.7-86.6 501.5 501.5 0 0 1-70.1-68.2 622 622 0 0 1-87.5-131 716.2 716.2 0 0 1-47-127 1353 1353 0 0 1-35.4-164c-2.5-16.4-4.3-33-6.2-49.5-.4-3.2-.1-6.4-.1-10.5h543.5L878.3 811l1.7-.3 310 925.5h123l309.7-924.4h2.3l172.3 503.7 540.9 12.5c-3.7 26-6.7 50.8-10.8 75.4a1227.8 1227.8 0 0 1-51.2 201 636 636 0 0 1-125.3 212c-57 65-127.9 110-205.5 145.5a673.4 673.4 0 0 1-164.5 51.3 4010 4010 0 0 1-137.2 21.2 2503.6 2503.6 0 0 1-212.8 19.3c-2.7.2-5.4.2-9 .3Z" style="fill:#006bff;fill-rule:nonzero"/>
</svg>
