<?xml version="1.0" encoding="utf-8"?>
<svg viewBox="0 0 681.02 551.55" xmlns="http://www.w3.org/2000/svg" data-name="CMYK - square" id="CMYK_-_square"><defs><style>.cls-1{fill:#0097a0;}.cls-2{fill:#5bc6cc;}.cls-3{fill:#fff;}</style></defs><title>NewRelic-logo-square-w</title><g id="outlines"><path transform="translate(-16.78 -17.71)" d="M692.8,220.54C660.86,73.7,484.77-12.68,299.47,27.61s-309.63,192-277.7,338.83,208,233.22,393.32,192.93S724.72,367.37,692.8,220.54ZM344.87,476.79c-103.41,0-187.2-83.82-187.2-187.22s83.8-187.19,187.2-187.19,187.2,83.81,187.2,187.19S448.25,476.79,344.87,476.79Z" class="cls-1"></path><path transform="translate(-16.78 -17.71)" d="M391.53,57.56c-132.32,0-239.61,107.28-239.61,239.6S259.21,536.78,391.53,536.78,631.15,429.49,631.15,297.16,523.85,57.56,391.53,57.56ZM344.87,473.78c-101.75,0-184.19-82.47-184.19-184.21S243.12,105.4,344.87,105.4,529,187.85,529,289.57,446.58,473.78,344.87,473.78Z" class="cls-2"></path><path transform="translate(-16.78 -17.71)" d="M278.93,271.2l-20.19-42.33c-4.82-10-9.77-21.36-11.46-26.7l-.39.39c.65,7.55.78,17.06.91,25l.52,43.63H233.61V181.08h16.93l21.88,44a164.17,164.17,0,0,1,9.25,23.18l.39-.39c-.39-4.56-1.3-17.45-1.3-25.66l-.26-41.15h14.2V271.2Z" class="cls-3"></path><path transform="translate(-16.78 -17.71)" d="M321.51,242.16v1c0,9.12,3.39,18.75,16.28,18.75,6.12,0,11.46-2.21,16.41-6.51l5.6,8.73a35.59,35.59,0,0,1-23.7,8.73c-18.62,0-30.34-13.41-30.34-34.51,0-11.59,2.47-19.27,8.21-25.79,5.34-6.12,11.85-8.86,20.19-8.86a25.45,25.45,0,0,1,18.1,6.77c5.73,5.21,8.6,13.28,8.6,28.65v3Zm12.63-27.61c-8.07,0-12.5,6.38-12.5,17.06H346C346,220.93,341.31,214.55,334.15,214.55Z" class="cls-3"></path><path transform="translate(-16.78 -17.71)" d="M437,271.46H423.61l-8.07-30.34c-2.08-7.81-4.3-18-4.3-18H411s-1,6.51-4.3,18.62l-7.94,29.69H385.32l-18-65.25,14.2-2,7.16,31.91c1.82,8.2,3.39,17.32,3.39,17.32h.39a178.91,178.91,0,0,1,3.78-17.71l8.47-30.47h14.07L426.22,235c2.74,10.68,4.17,18.75,4.17,18.75h.39s1.56-10,3.26-17.71l6.77-30.74h14.85Z" class="cls-3"></path><path transform="translate(-16.78 -17.71)" d="M267.62,387.2l-7.81-13.94c-6.25-11.07-10.42-17.32-15.37-22.27a7.64,7.64,0,0,0-5.86-2.73V387.2H223.86V297.08h27.48c20.19,0,29.3,11.72,29.3,25.79,0,12.89-8.33,24.75-22.4,24.75,3.26,1.69,9.25,10.42,13.93,18l13.28,21.62Zm-20.84-78h-8.21v28.52h7.68c7.81,0,12-1,14.72-3.78,2.47-2.47,4-6.25,4-10.94C265,313.88,260.06,309.19,246.78,309.19Z" class="cls-3"></path><path transform="translate(-16.78 -17.71)" d="M305.12,358.16v1c0,9.12,3.39,18.75,16.28,18.75,6.12,0,11.46-2.21,16.41-6.51l5.6,8.72a35.59,35.59,0,0,1-23.7,8.73c-18.62,0-30.34-13.41-30.34-34.51,0-11.59,2.47-19.28,8.21-25.79,5.34-6.12,11.85-8.86,20.19-8.86a25.45,25.45,0,0,1,18.1,6.77c5.73,5.21,8.6,13.28,8.6,28.65v3Zm12.63-27.61c-8.07,0-12.5,6.38-12.5,17.06H329.6C329.6,336.93,324.92,330.55,317.75,330.55Z" class="cls-3"></path><path transform="translate(-16.78 -17.71)" d="M371.28,388.63c-14.46,0-14.46-13-14.46-18.62V313.88a106.72,106.72,0,0,0-1.3-19.27l14.72-3.26c1,4,1.17,9.51,1.17,18.1v55.87c0,8.86.39,10.29,1.43,11.85a4,4,0,0,0,4.69,1l2.34,8.86A22.44,22.44,0,0,1,371.28,388.63Z" class="cls-3"></path><path transform="translate(-16.78 -17.71)" d="M396.15,311.53A9.34,9.34,0,0,1,386.9,302a9.44,9.44,0,1,1,9.25,9.51ZM389,387.2V322.34l14.46-2.6V387.2Z" class="cls-3"></path><path transform="translate(-16.78 -17.71)" d="M444.46,388.89c-18,0-28-12.63-28-33.86,0-24,14.33-35.42,29-35.42,7.16,0,12.37,1.69,18.23,7.16l-7.16,9.51c-3.91-3.52-7.29-5.08-11.07-5.08a11.2,11.2,0,0,0-10.42,6.64c-2,4-2.73,10.16-2.73,18.36,0,9,1.43,14.72,4.43,18A11.58,11.58,0,0,0,445.5,378c4.56,0,9-2.21,13.28-6.51l6.77,8.72C459.57,386.16,453.32,388.89,444.46,388.89Z" class="cls-3"></path><path transform="translate(-16.78 -17.71)" d="M477.78,388.64A9.67,9.67,0,1,1,487.4,379,9.63,9.63,0,0,1,477.78,388.64Zm0-17.42a7.78,7.78,0,1,0,7.44,7.75A7.55,7.55,0,0,0,477.78,371.22Zm1.9,13.1c-.42-.73-.6-1-1-1.79-1.07-2-1.4-2.5-1.79-2.65a.72.72,0,0,0-.34-.08v4.52H474.4V373.48h4a3,3,0,0,1,3.2,3.17,2.78,2.78,0,0,1-2.42,3,2.47,2.47,0,0,1,.44.47c.62.78,2.6,4.21,2.6,4.21Zm-1.14-8.94a4.35,4.35,0,0,0-1.22-.16h-.78v2.94h.73c.94,0,1.35-.1,1.64-.36a1.53,1.53,0,0,0,.42-1.09A1.28,1.28,0,0,0,478.53,375.38Z" class="cls-3"></path></g></svg>