<?xml version="1.0" encoding="UTF-8" standalone="no"?>
<svg width="256px" height="180px" viewBox="0 0 256 180" version="1.1" xmlns="http://www.w3.org/2000/svg" xmlns:xlink="http://www.w3.org/1999/xlink" preserveAspectRatio="xMidYMid">
	<g>
		<path d="M106.553203,159.610976 C114.801129,168.204994 126.284107,173.534815 138.983873,173.534815 C155.865892,173.534815 170.594851,164.121105 178.438396,150.146262 C185.254593,153.191874 192.799405,154.885905 200.737669,154.885905 C231.186506,154.885905 255.871995,129.985475 255.871995,99.2706935 C255.871995,68.5522694 231.186506,43.651839 200.737669,43.651839 C197.021731,43.651839 193.389583,44.0234329 189.877657,44.7338328 C182.970383,32.4129469 169.807947,24.0885163 154.700107,24.0885163 C148.375726,24.0885163 142.393793,25.5493901 137.067615,28.1469039 C130.065621,11.6765534 113.751923,0.127999726 94.7387049,0.127999726 C74.9385822,0.127999726 58.0638501,12.6565411 51.5864595,30.2271008 C48.7557888,29.6259931 45.8231119,29.3126885 42.8139304,29.3126885 C19.23958,29.3126885 0.127998772,48.6209959 0.127998772,72.4430755 C0.127998772,88.4070383 8.71473094,102.34545 21.4727861,109.802829 C18.8461277,115.846693 17.3852539,122.517167 17.3852539,129.53009 C17.3852539,156.926028 39.6262381,179.134225 67.0586069,179.134225 C83.1646497,179.134225 97.4782987,171.476477 106.553203,159.610976" fill="#00A1E0" transform="translate(127.999997, 89.631112) scale(1, -1) translate(-127.999997, -89.631112) "></path>
		<path d="M37.1700744,75.3309413 C37.009779,74.9119875 37.2283636,74.8245536 37.2793667,74.7516921 C37.7602528,74.4019567 38.2484251,74.1505844 38.7402405,73.8700675 C41.3486835,72.4856983 43.8114035,72.0813168 46.3870588,72.0813168 C51.6330895,72.0813168 54.8900002,74.8719136 54.8900002,79.3638274 L54.8900002,79.4512613 C54.8900002,83.6043689 51.2141357,85.1126027 47.7641419,86.2018827 L47.3160434,86.3476058 C44.7148866,87.1927996 42.4707512,87.921415 42.4707512,89.6336611 L42.4707512,89.724738 C42.4707512,91.1892549 43.7822589,92.2676057 45.8150958,92.2676057 C48.0738034,92.2676057 50.755108,91.5171318 52.4819264,90.5626457 C52.4819264,90.5626457 52.9883141,90.2347688 53.174111,90.7265842 C53.2761172,90.9888857 54.1504556,93.3423133 54.2415326,93.5973287 C54.3398956,93.8742026 54.1650279,94.0782149 53.9865172,94.1875072 C52.0156126,95.3860795 49.2905911,96.2057718 46.4708496,96.2057718 L45.9462465,96.2021287 C41.1446712,96.2021287 37.7930405,93.3022395 37.7930405,89.1454888 L37.7930405,89.058055 C37.7930405,84.6754335 41.4907635,83.2546335 44.9553296,82.2637166 L45.5127204,82.092492 C48.0373727,81.3165166 50.2122895,80.6498336 50.2122895,78.872012 L50.2122895,78.7845782 C50.2122895,77.1597659 48.7987757,75.9502644 46.5182096,75.9502644 C45.6329419,75.9502644 42.8095574,75.9684798 39.760302,77.8956674 C39.3923513,78.110609 39.1774097,78.2672613 38.8932497,78.4384859 C38.7438836,78.5332059 38.3686467,78.6971444 38.2047082,78.2016859 L37.1700744,75.3309413 L37.1700744,75.3309413 Z" fill="#FFFFFF" transform="translate(46.001138, 84.143544) scale(1, -1) translate(-46.001138, -84.143544) "></path>
		<path d="M113.969779,75.3309413 C113.809484,74.9119875 114.028068,74.8245536 114.079072,74.7516921 C114.559958,74.4019567 115.04813,74.1505844 115.539945,73.8700675 C118.148388,72.4856983 120.611108,72.0813168 123.186764,72.0813168 C128.432794,72.0813168 131.689705,74.8719136 131.689705,79.3638274 L131.689705,79.4512613 C131.689705,83.6043689 128.013841,85.1126027 124.563847,86.2018827 L124.115748,86.3476058 C121.514591,87.1927996 119.270456,87.921415 119.270456,89.6336611 L119.270456,89.724738 C119.270456,91.1892549 120.581964,92.2676057 122.614801,92.2676057 C124.873508,92.2676057 127.554813,91.5171318 129.281631,90.5626457 C129.281631,90.5626457 129.788019,90.2347688 129.973816,90.7265842 C130.075822,90.9888857 130.95016,93.3423133 131.041237,93.5973287 C131.1396,93.8742026 130.964733,94.0782149 130.786222,94.1875072 C128.815317,95.3860795 126.090296,96.2057718 123.270554,96.2057718 L122.745951,96.2021287 C117.944376,96.2021287 114.592745,93.3022395 114.592745,89.1454888 L114.592745,89.058055 C114.592745,84.6754335 118.290468,83.2546335 121.755034,82.2637166 L122.312425,82.092492 C124.837077,81.3165166 127.015637,80.6498336 127.015637,78.872012 L127.015637,78.7845782 C127.015637,77.1597659 125.598481,75.9502644 123.317914,75.9502644 C122.432647,75.9502644 119.609262,75.9684798 116.560007,77.8956674 C116.192056,78.110609 115.973471,78.2599751 115.696598,78.4384859 C115.601878,78.5004182 115.157422,78.6716428 115.004413,78.2016859 L113.969779,75.3309413 L113.969779,75.3309413 Z" fill="#FFFFFF" transform="translate(122.800843, 84.143544) scale(1, -1) translate(-122.800843, -84.143544) "></path>
		<path d="M166.398769,84.1136744 C166.398769,81.5744499 165.925169,79.5744007 164.992541,78.1608868 C164.070843,76.7619453 162.675544,76.08069 160.730141,76.08069 C158.781095,76.08069 157.393083,76.7583022 156.485956,78.1608868 C155.567901,79.5707576 155.101587,81.5744499 155.101587,84.1136744 C155.101587,86.6492559 155.567901,88.6456621 156.485956,90.0446036 C157.393083,91.4289728 158.781095,92.102942 160.730141,92.102942 C162.675544,92.102942 164.070843,91.4289728 164.996184,90.0446036 C165.925169,88.6456621 166.398769,86.6492559 166.398769,84.1136744 M170.777747,88.8205297 C170.347864,90.2741174 169.677538,91.5564805 168.784984,92.623902 C167.89243,93.6949666 166.763076,94.5547327 165.422424,95.181342 C164.085415,95.8043081 162.504319,96.1212558 160.730141,96.1212558 C158.95232,96.1212558 157.371224,95.8043081 156.034215,95.181342 C154.693563,94.5547327 153.564209,93.6949666 152.668012,92.623902 C151.779101,91.5528374 151.108775,90.2704743 150.675249,88.8205297 C150.249009,87.3742282 150.034067,85.7931329 150.034067,84.1136744 C150.034067,82.434216 150.249009,80.8494776 150.675249,79.4068191 C151.108775,77.9568745 151.775458,76.6745115 152.671655,75.6034469 C153.564209,74.5323823 154.697206,73.6762592 156.034215,73.0678654 C157.374867,72.4594715 158.95232,72.14981 160.730141,72.14981 C162.504319,72.14981 164.081772,72.4594715 165.422424,73.0678654 C166.759433,73.6762592 167.89243,74.5323823 168.784984,75.6034469 C169.677538,76.6708684 170.347864,77.9532315 170.777747,79.4068191 C171.20763,80.8531206 171.422572,82.4378591 171.422572,84.1136744 C171.422572,85.7894898 171.20763,87.3742282 170.777747,88.8205297" fill="#FFFFFF" transform="translate(160.728320, 84.135533) scale(1, -1) translate(-160.728320, -84.135533) "></path>
		<path d="M206.737482,76.7251427 C206.591759,77.1513827 206.180091,76.9910873 206.180091,76.9910873 C205.542553,76.7470012 204.864941,76.5211304 204.143612,76.408195 C203.411353,76.2952596 202.606233,76.2369704 201.742824,76.2369704 C199.622553,76.2369704 197.939452,76.8672227 196.733593,78.113155 C195.524092,79.3590873 194.846479,81.3737088 194.853766,84.0987303 C194.861052,86.5796656 195.458516,88.444921 196.533224,89.8657209 C197.600645,91.2792348 199.225458,92.0042071 201.393088,92.0042071 C203.200055,92.0042071 204.577138,91.7965517 206.019796,91.3411671 C206.019796,91.3411671 206.365888,91.1918009 206.529827,91.6435424 C206.91235,92.7073209 207.19651,93.468724 207.604535,94.6381516 C207.721113,94.9696716 207.436953,95.1117516 207.334947,95.1518255 C206.766627,95.3740532 205.425975,95.7347178 204.413199,95.887727 C203.465999,96.0334501 202.358504,96.1099547 201.127144,96.1099547 C199.28739,96.1099547 197.648005,95.7966501 196.245421,95.1700409 C194.846479,94.5470747 193.658836,93.6873086 192.718922,92.616244 C191.779009,91.5451794 191.064966,90.2628163 190.587723,88.8128717 C190.114123,87.3665702 189.873679,85.7781887 189.873679,84.0987303 C189.873679,80.4665826 190.853667,77.5302627 192.788141,75.3808473 C194.726258,73.2241458 197.637076,72.1275797 201.433162,72.1275797 C203.677298,72.1275797 205.979722,72.5829643 207.633679,73.2350751 C207.633679,73.2350751 207.950627,73.3880843 207.81219,73.756035 L206.737482,76.7251427 L206.737482,76.7251427 Z" fill="#FFFFFF" transform="translate(198.860433, 84.118767) scale(1, -1) translate(-198.860433, -84.118767) "></path>
		<path d="M214.399204,86.5520198 C214.606859,87.9618906 214.996668,89.1349613 215.597776,90.0493736 C216.504902,91.4373859 217.889271,92.198789 219.834675,92.198789 C221.780078,92.198789 223.066084,91.4337428 223.987782,90.0493736 C224.599819,89.1349613 224.865764,87.9108875 224.971413,86.5520198 L214.399204,86.5520198 L214.399204,86.5520198 Z M229.142736,89.6522783 C228.771142,91.0548629 227.849444,92.4720198 227.244693,93.1204874 C226.290207,94.1478351 225.357579,94.8655213 224.432238,95.2662597 C223.222736,95.7835766 221.772791,96.1260258 220.18441,96.1260258 C218.333727,96.1260258 216.654268,95.8163643 215.291758,95.1751828 C213.925604,94.5340013 212.778035,93.6596628 211.878195,92.5703828 C210.978355,91.4847459 210.300742,90.1914536 209.870859,88.7232937 C209.437333,87.2624198 209.218749,85.6703952 209.218749,83.9909368 C209.218749,82.2823338 209.444619,80.6903092 209.892718,79.25858 C210.344459,77.8159215 211.065789,76.5444877 212.042133,75.4916385 C213.014835,74.4315031 214.268053,73.6008816 215.769001,73.0216324 C217.259019,72.4460262 219.069628,72.1472939 221.149825,72.150937 C225.430441,72.1655093 227.685505,73.1199955 228.61449,73.6336693 C228.778428,73.7247462 228.935081,73.8850416 228.738354,74.3440693 L227.769296,77.0581615 C227.623573,77.4625431 227.211905,77.3131769 227.211905,77.3131769 C226.15177,76.9197246 224.643536,76.2129677 221.127967,76.2202539 C218.829185,76.2238969 217.124225,76.9015092 216.056804,77.9616446 C214.960238,79.0472815 214.424705,80.6429492 214.329985,82.8943707 L229.153665,82.8797984 C229.153665,82.8797984 229.543474,82.8870845 229.583548,83.2659645 C229.598121,83.4262599 230.093579,86.3115768 229.142736,89.6522783 L229.142736,89.6522783 Z" fill="#FFFFFF" transform="translate(219.472103, 84.138465) scale(1, -1) translate(-219.472103, -84.138465) "></path>
		<path d="M95.6829901,86.5520198 C95.8942885,87.9618906 96.2804547,89.1349613 96.8815624,90.0493736 C97.7886885,91.4373859 99.1730577,92.198789 101.118461,92.198789 C103.063864,92.198789 104.34987,91.4337428 105.275211,90.0493736 C105.883605,89.1349613 106.14955,87.9108875 106.255199,86.5520198 L95.6829901,86.5520198 L95.6829901,86.5520198 Z M110.422879,89.6522783 C110.051285,91.0548629 109.13323,92.4720198 108.528479,93.1204874 C107.573993,94.1478351 106.641365,94.8655213 105.716024,95.2662597 C104.506522,95.7835766 103.056578,96.1260258 101.468196,96.1260258 C99.6211562,96.1260258 97.9380547,95.8163643 96.5755439,95.1751828 C95.2093901,94.5340013 94.0618209,93.6596628 93.1619809,92.5703828 C92.2621409,91.4847459 91.5845286,90.1914536 91.1546455,88.7232937 C90.7247625,87.2624198 90.5025348,85.6703952 90.5025348,83.9909368 C90.5025348,82.2823338 90.7284055,80.6903092 91.176504,79.25858 C91.6282455,77.8159215 92.3495747,76.5444877 93.3259193,75.4916385 C94.2986209,74.4315031 95.5518393,73.6008816 97.052787,73.0216324 C98.5428054,72.4460262 100.353415,72.1472939 102.433612,72.150937 C106.714227,72.1655093 108.969291,73.1199955 109.898276,73.6336693 C110.062214,73.7247462 110.218867,73.8850416 110.022141,74.3440693 L109.056725,77.0581615 C108.907359,77.4625431 108.495691,77.3131769 108.495691,77.3131769 C107.435556,76.9197246 105.930965,76.2129677 102.40811,76.2202539 C100.112972,76.2238969 98.4080116,76.9015092 97.3405901,77.9616446 C96.2440239,79.0472815 95.7084916,80.6429492 95.6137716,82.8943707 L110.437451,82.8797984 C110.437451,82.8797984 110.827261,82.8870845 110.867334,83.2659645 C110.881907,83.4262599 111.377365,86.3115768 110.422879,89.6522783 L110.422879,89.6522783 Z" fill="#FFFFFF" transform="translate(100.755643, 84.138465) scale(1, -1) translate(-100.755643, -84.138465) "></path>
		<path d="M63.6417638,76.8187739 C63.0625146,77.2814447 62.9823669,77.3980231 62.7856408,77.6967554 C62.4941946,78.15214 62.3448285,78.8006077 62.3448285,79.6239431 C62.3448285,80.9281646 62.7747115,81.8644354 63.6672654,82.4946877 C63.6563361,82.4910446 64.9423423,83.6058261 67.9660961,83.5657523 C70.0900099,83.5366076 71.9880529,83.223303 71.9880529,83.223303 L71.9880529,76.4836108 L71.991696,76.4836108 C71.991696,76.4836108 70.1082253,76.0792293 67.9879545,75.9517216 C64.9714869,75.7695678 63.6308346,76.822417 63.6417638,76.8187739 M69.5399053,87.2343307 C68.9387976,87.2780476 68.1591792,87.3035491 67.2265515,87.3035491 C65.9551176,87.3035491 64.7274007,87.1432537 63.5761885,86.8335922 C62.41769,86.5239307 61.37577,86.0394014 60.4795731,85.3982199 C59.5797331,84.7533953 58.8547608,83.9300599 58.3301578,82.9537153 C57.8055547,81.9773707 57.5396101,80.8261584 57.5396101,79.5365092 C57.5396101,78.2250016 57.7654809,77.0847185 58.2172224,76.1520908 C58.6689639,75.2158201 59.3210747,74.4362016 60.1516962,73.8350939 C60.9750316,73.2339863 61.99145,72.793174 63.1718069,72.5272294 C64.3339484,72.2612847 65.6527423,72.1264909 67.0954007,72.1264909 C68.6145638,72.1264909 70.1300837,72.2503555 71.5982437,72.5017278 C73.0518314,72.749457 74.836939,73.1101217 75.3323975,73.223057 C75.8242129,73.3396355 76.3706744,73.4890016 76.3706744,73.4890016 C76.7386252,73.5800786 76.7094806,73.9735309 76.7094806,73.9735309 L76.7021944,87.5294199 C76.7021944,90.5021706 75.9080036,92.7062321 74.3451237,94.0723859 C72.7895298,95.4348967 70.4980345,96.1234382 67.536213,96.1234382 C66.4250746,96.1234382 64.6363238,95.970429 63.5652592,95.7554874 C63.5652592,95.7554874 60.3265639,95.1288782 58.9931978,94.0869582 C58.9931978,94.0869582 58.7017516,93.9048044 58.862047,93.4967798 L59.9112531,90.6770383 C60.0424039,90.3127306 60.3957824,90.4365952 60.3957824,90.4365952 C60.3957824,90.4365952 60.5087177,90.4803121 60.6398685,90.5568168 C63.4923977,92.1087675 67.0990438,92.0614075 67.0990438,92.0614075 C68.7019976,92.0614075 69.9333576,91.7408167 70.7639791,91.1032783 C71.5727422,90.4839552 71.9844099,89.5476845 71.9844099,87.5731368 L71.9844099,86.9465276 C70.709333,87.1286814 69.5399053,87.2343307 69.5399053,87.2343307" fill="#FFFFFF" transform="translate(67.124818, 84.124965) scale(1, -1) translate(-67.124818, -84.124965) "></path>
		<path d="M189.099133,94.6589745 C189.212069,94.9941376 188.975269,95.1544329 188.876906,95.1908637 C188.625533,95.2892268 187.365029,95.5551714 186.392327,95.6171037 C184.530715,95.7300391 183.496081,95.4167345 182.57074,95.0014237 C181.652684,94.586113 180.632623,93.9157868 180.064303,93.1543837 L180.064303,94.9577068 C180.064303,95.2090791 179.885792,95.4094483 179.638063,95.4094483 L175.838334,95.4094483 C175.590604,95.4094483 175.412094,95.2090791 175.412094,94.9577068 L175.412094,72.8478733 C175.412094,72.6001441 175.616106,72.3961318 175.863835,72.3961318 L179.758284,72.3961318 C180.006014,72.3961318 180.206383,72.6001441 180.206383,72.8478733 L180.206383,83.8936824 C180.206383,85.3764146 180.370321,86.8555038 180.698198,87.7844884 C181.018789,88.7025438 181.455958,89.4384453 181.995134,89.9666915 C182.537952,90.4912946 183.153632,90.8592453 183.827601,91.0669007 C184.516143,91.2781992 185.277546,91.3474176 185.816721,91.3474176 C186.592697,91.3474176 187.445177,91.1470484 187.445177,91.1470484 C187.729337,91.1142607 187.889632,91.2891284 187.984352,91.5477868 C188.239367,92.2253991 188.960697,94.254593 189.099133,94.6589745" fill="#FFFFFF" transform="translate(182.270544, 84.018248) scale(1, -1) translate(-182.270544, -84.018248) "></path>
		<path d="M152.543767,105.761574 C152.070167,105.907297 151.640284,106.00566 151.07925,106.111309 C150.51093,106.213316 149.833318,106.264319 149.064629,106.264319 C146.383324,106.264319 144.270339,105.506559 142.787607,104.012897 C141.312161,102.526522 140.310315,100.264171 139.80757,97.2877773 L139.625416,96.2859312 L136.259213,96.2859312 C136.259213,96.2859312 135.851189,96.3005035 135.763755,95.8560481 L135.21365,92.770362 C135.173577,92.4789159 135.301084,92.2931189 135.694537,92.2931189 L138.969663,92.2931189 L135.647177,73.7425715 C135.388518,72.24891 135.089786,71.0211931 134.758266,70.0885655 C134.434032,69.1705101 134.117084,68.4819686 133.723632,67.9792239 C133.344752,67.4983378 132.98773,67.1413163 132.368407,66.9336609 C131.858377,66.7624363 131.268198,66.6822886 130.623374,66.6822886 C130.266352,66.6822886 129.789109,66.7405778 129.43573,66.8134393 C129.085995,66.8826578 128.900198,66.9591624 128.634254,67.0720978 C128.634254,67.0720978 128.251731,67.2178209 128.098721,66.8352978 C127.9785,66.5183501 127.104161,64.1175625 126.998512,63.8224732 C126.896506,63.527384 127.042229,63.2978702 127.228026,63.2286517 C127.665195,63.0756425 127.989429,62.9736363 128.583251,62.8315563 C129.406586,62.6384733 130.102414,62.627544 130.754524,62.627544 C132.117035,62.627544 133.362967,62.8206271 134.393958,63.1922209 C135.428592,63.5674579 136.332075,64.2195686 137.133552,65.1011932 C137.996961,66.0556794 138.53978,67.0538824 139.057096,68.4200362 C139.57077,69.7679747 140.011583,71.44379 140.361318,73.3964792 L143.702019,92.2931189 L148.583742,92.2931189 C148.583742,92.2931189 148.99541,92.2785466 149.079201,92.7266451 L149.632949,95.8086881 C149.669379,96.1037773 149.545515,96.2859312 149.148419,96.2859312 L144.408776,96.2859312 C144.434278,96.3915804 144.649219,98.0601096 145.192038,99.6302757 C145.425195,100.296959 145.862364,100.839777 146.230315,101.211371 C146.594623,101.575679 147.013576,101.834337 147.472604,101.983703 C147.942561,102.136713 148.478093,102.209574 149.064629,102.209574 C149.509084,102.209574 149.949896,102.158571 150.281416,102.089353 C150.740444,101.99099 150.918955,101.939986 151.039176,101.903556 C151.523706,101.757833 151.589281,101.899913 151.684001,102.13307 L152.816998,105.244257 C152.933576,105.57942 152.645773,105.7215 152.543767,105.761574" fill="#FFFFFF" transform="translate(139.904621, 84.445931) scale(1, -1) translate(-139.904621, -84.445931) "></path>
		<path d="M86.3217408,63.553237 C86.3217408,63.3055078 86.14323,63.1051385 85.8955008,63.1051385 L81.9646209,63.1051385 C81.7168916,63.1051385 81.542024,63.3055078 81.542024,63.553237 L81.542024,95.1897165 C81.542024,95.4374457 81.7168916,95.6378149 81.9646209,95.6378149 L85.8955008,95.6378149 C86.14323,95.6378149 86.3217408,95.4374457 86.3217408,95.1897165 L86.3217408,63.553237 L86.3217408,63.553237 Z" fill="#FFFFFF" transform="translate(83.931882, 79.371477) scale(1, -1) translate(-83.931882, -79.371477) "></path>
	</g>
</svg>