<?xml version="1.0" encoding="utf-8"?>
<!-- Generator: Adobe Illustrator 23.0.2, SVG Export Plug-In . SVG Version: 6.00 Build 0)  -->
<svg version="1.1" id="Layer_1" xmlns="http://www.w3.org/2000/svg" xmlns:xlink="http://www.w3.org/1999/xlink" x="0px" y="0px"
	 viewBox="0 0 500 150" style="enable-background:new 0 0 500 150;" xml:space="preserve">
<style type="text/css">
	.st0{fill-rule:evenodd;clip-rule:evenodd;fill:#293E40;}
	.st1{fill-rule:evenodd;clip-rule:evenodd;fill:#81B5A1;}
	.st2{fill:#293E40;}
</style>
<path class="st0" d="M8.3,141V12.7h33.2v10.2c9.9-8.3,23-13.1,36-13.1c16.9,0,33.2,7.7,44.3,20.7c8.6,10.2,13.1,23,13.1,45V141
	h-34.4V73c1-8.9-1.6-17.5-7.3-24.2c-5.4-4.8-12.1-7.3-19.5-7c-12.1,0.3-23.6,6.1-30.9,15.6V141"/>
<path class="st1" d="M223,122.5c-9.9,0.3-19.5-3.8-26.5-10.8c-7-7-10.8-16.6-10.8-26.5c-0.6-13.7,6.4-26.8,18.2-33.8
	c11.8-7.3,26.8-7.3,38.6,0c11.8,7,18.5,20.1,17.9,33.8c0.3,9.9-3.5,19.5-10.5,26.5C242.8,119,233.2,122.8,223,122.5 M223,9.9
	c-30.6,0-58.4,18.8-69.5,47.2c-11.5,28.7-4.5,61.2,17.9,82.3c5.4,5.1,13.7,5.7,19.5,1.3c18.8-14.4,45-14.4,63.8,0
	c6.1,4.5,14,3.8,19.5-1.3c22-21,29.3-53.3,18.2-82C281,29,253.6,10.2,223,9.9z"/>
<polyline class="st0" points="365.2,141 339.7,141 288.7,12.7 322.8,12.7 350.9,86.1 378.3,12.7 406.7,12.7 433.8,86.1 461.9,12.7 
	496,12.7 445.3,141 419.8,141 392.3,67.9 365.2,141 "/>
<polyline class="st2" points="477.5,124.7 477.5,127.2 473,127.2 473,141 469.8,141 469.8,127.2 465.7,127.2 465.7,124.7 
	477.5,124.7 "/>
<polyline class="st2" points="488,134.3 493.8,124.7 496,124.7 496,141 493.1,141 493.1,131.7 489,138.1 486.8,138.1 482.9,131.7 
	482.9,141 479.7,141 479.7,124.7 482,124.7 488,134.3 "/>
</svg>
