<svg version="1.1" id="Layer_1" xmlns="http://www.w3.org/2000/svg" x="0" y="0" viewBox="0 0 120 60" xml:space="preserve"><path d="M107.6 36.7h-3c-.5 0-.8-.1-1.2-.5l-2.9-3.8c0-.1-.1-.1-.1-.2L99.1 34l-1.9 2.5c-.1.2-.3.3-.6.3h-3.3l2.7-3.4 2.7-3.4-5.1-6.3H97c.3 0 .6.1.7.4 1.5 1.9 2.9 3.8 4.4 5.7l.2.2c.1.1.1.2.2.3 1.6 2.1 3.3 4.1 4.9 6.2 0 0 .1 0 .2.2z"/><path d="M84.9 28.1v8.6h-2.8V17.2h12.1v2.5H85v5.9h8.5v2.5h-8.6z"/><path d="M76.5 16.8h2.7v19.9h-2.7v-.3-19.5-.1zM102.2 29.9v-4.3c0-.3.1-.5.2-.7l.8-1.1c.1-.1.2-.2.4-.2h3.7l-.9 1.1c-1.3 1.6-2.5 3.2-3.8 4.7-.1.2-.2.4-.4.5z"/><path d="M74 36.7h-2.4c-.2-.5-.2-1.1-.3-1.7l-.2.2c-.9 1.1-2.2 1.7-3.6 1.8-1 .1-2 0-2.9-.5-1.7-.8-2.6-2.2-2.3-4.2.1-1.3.9-2.2 2.1-2.8.8-.4 1.6-.7 2.5-.8l3.2-.3h1.2c.2-1.8-.8-2.8-2.3-3-1.6-.2-3 .2-4.5 1.5L63 25.3c.2-.3.5-.5.8-.7 1.1-.8 2.4-1.2 3.7-1.3 1-.1 2-.1 2.9.2 1.9.6 3 1.8 3.3 3.7.1.5.1 1.1.1 1.6v5.8l.2 2.1zm-2.8-6.1c-1.2-.1-2.3 0-3.5.2-.7.1-1.3.3-1.9.7-.6.4-.9 1-.8 1.7.1.7.5 1.2 1.2 1.5.7.3 1.5.3 2.2.2 1-.1 2-.8 2.4-1.7.4-.9.5-1.7.4-2.6z" fill="#030303"/><path d="M60.5 36.7h-2.7v-.4-6.7c0-.7 0-1.4-.2-2.1-.4-1.4-1.4-2-2.8-1.9-1.6.1-2.6 1.2-3 2.5-.2.6-.3 1.2-.2 1.8v6.9h-2.7c-.1-4.3.1-8.7-.1-13.1h2.6c0 .3 0 .6.1.9s0 .6 0 1c.1 0 .1-.1.2-.1.8-1.3 2-2 3.5-2.2 1.2-.2 2.4 0 3.5.7.9.6 1.5 1.5 1.8 2.6.2.6.3 1.3.3 2v7.8l-.3.3zM43.6 34.8c-1.3 1.6-3 2.1-4.9 2.1-1.3 0-2.6-.5-3.7-1.3s-1.9-2-2.2-3.3c-.5-1.8-.5-3.6.3-5.3 1-2.2 2.8-3.4 5.2-3.7 1.3-.2 2.7.1 3.8.8.3.2.6.4.8.6.2.2.4.5.7.8V23.7h2.7V35.9c0 1-.1 2-.4 3-.5 1.6-1.6 2.9-3.1 3.6-1 .5-2 .7-3.1.8-1.3.1-2.6-.1-3.9-.5-1.1-.4-2.2-1-3.1-1.7-.1 0-.1-.1-.2-.1l1.8-2.1.2.2c1.8 1.8 3.9 2.3 6.3 1.7 1.2-.3 2-1.1 2.5-2.3.2-.5.3-1.1.3-1.7v-2zM35.2 30c.1.5.1.9.2 1.4.5 1.8 1.7 2.9 3.5 3.1 1.4.2 2.6-.2 3.6-1.2 1.1-1.1 1.4-2.4 1.3-3.8-.2-1.9-1.5-3.4-3.3-3.8-1.6-.4-3 0-4.2 1.2-.8.9-1.1 1.9-1.1 3.1z"/><path d="M30.4 22.2h-2.7v-2.7h2.7v2.7zM30.4 23.6v13.1h-2.7V23.6h2.7z"/><path d="M21.5 16.9c1.4.3 2.7.9 3.7 1.9.1.1.1.2.2.3l-2 2-.2-.2c-.7-.8-1.6-1.3-2.6-1.5-1.1-.2-2.2-.1-3.1.4-1.3.7-1.8 2-1.5 3.4.2.5.5 1 .9 1.3.6.4 1.2.7 1.9.9l3.2 1.1c1.2.5 2.2 1.2 2.9 2.4.3.5.5 1 .5 1.6.2 1.2.1 2.3-.4 3.4-.6 1.4-1.7 2.4-3.1 2.9-1.6.6-3.3.8-4.9.4-1.5-.3-2.9-.9-4-1.9-.3-.2-.5-.5-.8-.8l2.2-1.9.2.3c1.3 1.6 3 2.3 5.1 1.9 1-.2 1.8-.6 2.4-1.4.9-1.2.6-2.9-.5-3.9-.5-.4-1-.7-1.6-.9l-3.2-1.1c-.8-.3-1.6-.7-2.2-1.3-1-.8-1.5-2-1.6-3.2 0-.6 0-1.2.1-1.8.3-1.3 1-2.4 2.1-3.1.9-.6 1.8-1 2.9-1.1 1.2-.3 2.7-.2 3.4-.1z"/></svg>
