<?xml version="1.0" encoding="UTF-8"?>
<svg width="37px" height="21px" viewBox="0 0 37 21" version="1.1" xmlns="http://www.w3.org/2000/svg" xmlns:xlink="http://www.w3.org/1999/xlink">
    <!-- Generator: sketchtool 63.1 (101010) - https://sketch.com -->
    <title>BMC Communities</title>
    <g id="Page-1" stroke="none" stroke-width="1" fill="none" fill-rule="evenodd">
        <g id="Landing-Page-Option-2-Copy-5" transform="translate(-1182.000000, -108.000000)" fill="#F86E00" fill-rule="nonzero">
            <g id="Group-12" transform="translate(1088.000000, 108.000000)">
                <path d="M130.405018,21 L130.405018,17.2365591 L130.379928,17.0860215 C130.296296,16.6344086 130.162485,16.2162485 129.978495,15.8315412 C129.827957,15.4970131 129.602151,15.1624851 129.301075,14.827957 C128.966547,14.4265233 128.548387,14.1338112 128.046595,13.9498208 L127.695341,13.8243728 L126.44086,13.3225806 C126.106332,13.172043 125.729988,13.0215054 125.311828,12.8709677 L122.577061,11.6917563 L122.577061,10.7383513 L122.602151,10.6129032 L122.928315,9.58422939 C123.229391,9.01553166 123.446834,8.44683393 123.580645,7.8781362 C123.747909,7.19235364 123.831541,6.48984468 123.831541,5.77060932 C123.831541,4.78375149 123.727001,3.9390681 123.517921,3.23655914 C123.308841,2.53405018 122.991039,1.93189964 122.564516,1.43010753 C122.137993,0.928315412 121.640382,0.56869773 121.071685,0.35125448 C120.53644,0.150537634 119.959379,0.0501792115 119.340502,0.0501792115 C118.721625,0.0501792115 118.140382,0.158900836 117.596774,0.376344086 C117.053166,0.593787336 116.555556,0.953405018 116.103943,1.45519713 C115.719235,1.94026284 115.413978,2.54241338 115.188172,3.26164875 C114.962366,3.98088411 114.849462,4.8255675 114.849462,5.79569892 C114.849462,6.48148148 114.933094,7.20071685 115.100358,7.95340502 C115.23417,8.55555556 115.451613,9.14097969 115.752688,9.70967742 L115.953405,10.3870968 C115.986858,10.4707288 116.003584,10.5376344 116.003584,10.5878136 L116.053763,10.7383513 C116.07049,10.8219833 116.078853,10.9307049 116.078853,11.0645161 L116.078853,11.6666667 L112.867384,13.0716846 C112.566308,13.2054958 112.340502,13.297491 112.189964,13.3476703 L111.261649,12.9462366 L108.551971,11.7168459 L108.551971,10.7634409 C108.551971,10.7467145 108.568698,10.6965352 108.602151,10.6129032 L108.928315,9.6344086 C109.212664,9.06571087 109.421744,8.48864994 109.555556,7.90322581 C109.72282,7.21744325 109.806452,6.52329749 109.806452,5.82078853 C109.806452,4.8339307 109.701912,3.98506571 109.492832,3.27419355 C109.283751,2.56332139 108.96595,1.95280765 108.539427,1.44265233 C108.112903,0.932497013 107.60693,0.560334528 107.021505,0.326164875 C106.48626,0.108721625 105.9092,0 105.290323,0 C104.671446,0 104.094385,0.108721625 103.55914,0.326164875 C102.973716,0.543608124 102.480287,0.899044205 102.078853,1.39247312 C101.677419,1.88590203 101.367981,2.49641577 101.150538,3.22401434 C100.933094,3.9516129 100.824373,4.7921147 100.824373,5.74551971 C100.824373,6.48148148 100.908005,7.20071685 101.075269,7.90322581 C101.20908,8.50537634 101.426523,9.09080048 101.727599,9.65949821 L101.903226,10.311828 C101.936679,10.39546 101.961768,10.4623656 101.978495,10.5125448 L102.003584,10.6630824 C102.020311,10.7467145 102.028674,10.8554361 102.028674,10.9892473 L102.028674,11.5913978 L98.0394265,13.3225806 L96.3333333,14 C95.8315412,14.1839904 95.4259259,14.4641577 95.1164875,14.8405018 C94.807049,15.2168459 94.5770609,15.5597372 94.4265233,15.8691756 C94.2759857,16.1786141 94.167264,16.4587814 94.1003584,16.7096774 C94.0334528,17.0107527 94,17.3034648 94,17.5878136 L94,21 L130.405018,21 Z M129,19.5949821 L116.379928,19.5949821 L116.379928,17.2365591 L116.354839,17.0860215 C116.237754,16.5842294 116.099761,16.1660693 115.94086,15.8315412 C115.781959,15.4970131 115.560335,15.1624851 115.275986,14.827957 C114.941458,14.4599761 114.531661,14.1756272 114.046595,13.9749104 L117.458781,12.4946237 L117.458781,10.9892473 C117.458781,10.8554361 117.442055,10.6798088 117.408602,10.4623656 L117.383513,10.1612903 C117.35006,10.0609319 117.299881,9.91875747 117.232975,9.73476703 L117.232975,9.68458781 C117.182796,9.50059737 117.124253,9.33333333 117.057348,9.1827957 L117.032258,9.08243728 L116.982079,9.00716846 C116.764636,8.57228196 116.584827,8.08303465 116.442652,7.53942652 C116.300478,6.9958184 116.229391,6.39784946 116.229391,5.74551971 C116.229391,4.89247312 116.317204,4.18996416 116.492832,3.63799283 C116.668459,3.08602151 116.894265,2.65113501 117.170251,2.33333333 C117.446237,2.01553166 117.759857,1.78972521 118.111111,1.65591398 C118.479092,1.48864994 118.884707,1.40501792 119.327957,1.40501792 C119.771207,1.40501792 120.17264,1.47610514 120.532258,1.61827957 C120.891876,1.760454 121.205496,1.99044205 121.473118,2.30824373 C121.774194,2.67622461 122,3.11111111 122.150538,3.61290323 C122.334528,4.19832736 122.426523,4.90919952 122.426523,5.74551971 C122.426523,6.36439665 122.351254,6.94982079 122.200717,7.50179211 C122.083632,7.98685783 121.916368,8.46356033 121.698925,8.93189964 L121.648746,9.05734767 L121.297491,10.1863799 L121.197133,10.562724 L121.172043,10.6129032 L121.172043,12.5949821 L125.612903,14.5017921 L127.11828,15.1290323 C127.335723,15.2126643 127.48626,15.2628435 127.569892,15.2795699 C127.854241,15.3799283 128.084229,15.5304659 128.259857,15.7311828 C128.435484,15.9318996 128.58184,16.1660693 128.698925,16.4336918 C128.799283,16.651135 128.899642,16.9522103 129,17.3369176 L129,19.5949821 Z" id="Communities"></path>
            </g>
        </g>
    </g>
</svg>