<?xml version="1.0" encoding="UTF-8"?>
<svg width="24px" height="30px" viewBox="0 0 24 30" version="1.1" xmlns="http://www.w3.org/2000/svg" xmlns:xlink="http://www.w3.org/1999/xlink">
    <!-- Generator: sketchtool 63.1 (101010) - https://sketch.com -->
    <title>BMC Documentation</title>
    <g id="Page-1" stroke="none" stroke-width="1" fill="none" fill-rule="evenodd">
        <g id="Landing-Page-Option-2-Copy-5" transform="translate(-615.000000, -103.000000)" fill="#F86E00" fill-rule="nonzero">
            <g id="Group-9" transform="translate(514.000000, 103.000000)">
                <g id="Group-3" transform="translate(101.000000, -0.000000)">
                    <path d="M21.670785,28.4585909 C22.1960667,27.7515451 22.6338013,26.1606922 22.9839891,23.6860321 C23.3341768,21.2113721 23.5092707,18.2064277 23.5092707,14.671199 C23.5092707,11.3716522 23.3254221,8.30778739 22.957725,5.47960445 C22.5900279,2.65142151 22.1610479,1.23733004 21.670785,1.23733004 L3.02328754,1.23733004 C2.5330247,1.23733004 2.1127994,2.47466007 1.76261166,4.94932015 C1.41242391,7.42398022 1.23733004,10.6646065 1.23733004,14.671199 C1.23733004,18.2064277 1.41242391,21.3881335 1.76261166,24.2163164 C2.1127994,27.0444994 2.5330247,28.4585909 3.02328754,28.4585909 L21.670785,28.4585909 Z M21.3893696,29.7255871 C22.0815822,29.7255871 22.6897404,29.4783684 23.2138443,28.9839308 C23.7379481,28.4894932 24,27.9060569 24,27.2336218 L24,2.40296663 C24,1.77008653 23.7775031,1.21137206 23.3325093,0.726823239 C22.8875155,0.242274413 22.3485785,0 21.7156984,0 L18.3040791,0 L18.3040791,2.31396786 L21.1520396,2.31396786 C21.3300371,2.31396786 21.4684796,2.36341162 21.5673671,2.46229913 C21.6662546,2.56118665 21.7156984,2.69962917 21.7156984,2.8776267 L21.7156984,27.1149567 C21.7156984,27.2138443 21.6761434,27.2929543 21.5970334,27.3522868 C21.5179234,27.4116193 21.4487021,27.4412855 21.3893696,27.4412855 L2.64029666,27.4412855 C2.40296663,27.4412855 2.28430161,27.3325093 2.28430161,27.1149567 L2.28430161,2.64029666 C2.28430161,2.42274413 2.40296663,2.31396786 2.64029666,2.31396786 L5.72558714,2.31396786 L5.72558714,0 L2.52163164,0 C1.82941904,0 1.23609394,0.266996292 0.741656366,0.800988875 C0.247218789,1.33498146 0,1.94808405 0,2.64029666 L0,27.2336218 C0,27.9060569 0.247218789,28.4894932 0.741656366,28.9839308 C1.23609394,29.4783684 1.82941904,29.7255871 2.52163164,29.7255871 M16.0197775,3.44128554 L16.0197775,0 L8.00988875,0 L8.00988875,3.44128554 L16.0197775,3.44128554 Z M17.2657602,18.3040791 C17.5426452,18.3040791 17.7849197,18.4227441 17.9925834,18.6600742 C18.2002472,18.8974042 18.3040791,19.1644005 18.3040791,19.461063 C18.3040791,19.7972806 18.2150803,20.0692213 18.0370828,20.276885 C17.8590853,20.4845488 17.6019778,20.5883807 17.2657602,20.5883807 L17.2657602,20.5883807 L6.7342398,20.5883807 C6.45735476,20.5883807 6.22002472,20.4697157 6.02224969,20.2323857 C5.82447466,19.9950556 5.72558714,19.7379481 5.72558714,19.461063 C5.72558714,19.1248455 5.82447466,18.8479604 6.02224969,18.6304079 C6.22002472,18.4128554 6.45735476,18.3040791 6.7342398,18.3040791 L6.7342398,18.3040791 Z M17.2657602,13.7354759 C17.5426452,13.7354759 17.7849197,13.8541409 17.9925834,14.091471 C18.2002472,14.328801 18.3040791,14.5859085 18.3040791,14.8627936 L18.3040791,14.8627936 L18.3040791,14.8924598 C18.3040791,15.1693449 18.2150803,15.4116193 18.0370828,15.6192831 C17.8590853,15.8269468 17.6019778,15.960445 17.2657602,16.0197775 L17.2657602,16.0197775 L6.7342398,16.0197775 C6.45735476,16.0197775 6.22002472,15.9011125 6.02224969,15.6637824 C5.82447466,15.4264524 5.72558714,15.1594561 5.72558714,14.8627936 C5.72558714,14.526576 5.82447466,14.2546354 6.02224969,14.0469716 C6.22002472,13.8393078 6.45735476,13.7354759 6.7342398,13.7354759 L6.7342398,13.7354759 Z M17.2657602,9.16687268 C17.5426452,9.16687268 17.7849197,9.2855377 17.9925834,9.52286774 C18.2002472,9.76019778 18.3040791,10.0173053 18.3040791,10.2941904 C18.3040791,10.5908529 18.2051916,10.8430161 18.0074166,11.0506799 C17.8096415,11.2583436 17.5624227,11.3918418 17.2657602,11.4511743 L17.2657602,11.4511743 L6.7342398,11.4511743 C6.45735476,11.4511743 6.22002472,11.3325093 6.02224969,11.0951792 C5.82447466,10.8578492 5.72558714,10.5908529 5.72558714,10.2941904 C5.72558714,9.95797281 5.82447466,9.68603214 6.02224969,9.47836836 C6.22002472,9.27070457 6.45735476,9.16687268 6.7342398,9.16687268 L6.7342398,9.16687268 Z" id="Documentation"></path>
                </g>
            </g>
        </g>
    </g>
</svg>