<?xml version="1.0" encoding="UTF-8"?>
<svg width="24px" height="24px" viewBox="0 0 24 24" version="1.1" xmlns="http://www.w3.org/2000/svg" xmlns:xlink="http://www.w3.org/1999/xlink">
    <!-- Generator: sketchtool 63.1 (101010) - https://sketch.com -->
    <title>BMC Training Videos</title>
    <g id="Page-1" stroke="none" stroke-width="1" fill="none" fill-rule="evenodd">
        <g id="Landing-Page-Option-2-Copy-5" transform="translate(-902.000000, -106.000000)" fill="#F86E00" fill-rule="nonzero">
            <g id="Group-11" transform="translate(801.000000, 106.000000)">
                <path d="M122.580838,24 C123.251497,24 123.822355,23.7684631 124.293413,23.3053892 C124.764471,22.8423154 125,22.2754491 125,21.6047904 L125,2.41916168 C125,1.74850299 124.764471,1.17764471 124.293413,0.706586826 C123.822355,0.235528942 123.251497,1.0658141e-14 122.580838,1.0658141e-14 L103.39521,1.0658141e-14 C102.724551,1.0658141e-14 102.157685,0.235528942 101.694611,0.706586826 C101.231537,1.17764471 101,1.74850299 101,2.41916168 L101,21.6047904 C101,22.2754491 101.231537,22.8423154 101.694611,23.3053892 C102.157685,23.7684631 102.724551,24 103.39521,24 L122.580838,24 Z M109.287425,16.754491 C109.07984,16.6986028 108.908184,16.5788423 108.772455,16.3952096 C108.636727,16.2115768 108.568862,16 108.568862,15.760479 L108.568862,8.26347305 C108.568862,8.0239521 108.636727,7.81237525 108.772455,7.62874251 C108.908184,7.44510978 109.07984,7.3253493 109.287425,7.26946108 C109.49501,7.21357285 109.694611,7.24151697 109.886228,7.35329341 L117,11.3053892 C117.175649,11.4011976 117.295409,11.5409182 117.359281,11.7245509 C117.423154,11.9081836 117.423154,12.0958084 117.359281,12.2874251 C117.295409,12.4790419 117.175649,12.6227545 117,12.7185629 L109.886228,16.6706587 C109.694611,16.7824351 109.49501,16.8103792 109.287425,16.754491 Z" id="Video"></path>
            </g>
        </g>
    </g>
</svg>