<svg xmlns="http://www.w3.org/2000/svg" xmlns:xlink="http://www.w3.org/1999/xlink" viewBox="0 0 107.68 75"><defs><style>.cls-1{fill:#3865ab;}.cls-2{fill:url(#linear-gradient);}</style><linearGradient id="linear-gradient" x1="55.86" y1="36.22" x2="107.68" y2="36.22" gradientUnits="userSpaceOnUse"><stop offset="0" stop-color="#f2cc0c"/><stop offset="1" stop-color="#ff9830"/></linearGradient></defs><g id="Layer_2" data-name="Layer 2"><g id="Layer_1-2" data-name="Layer 1"><rect class="cls-1" x="34.6" y="35.29" width="29.04" height="4.55"/><path class="cls-1" d="M0,0H28V15.72H0Z"/><path class="cls-1" d="M0,29.64H28V45.36H0Z"/><path class="cls-1" d="M0,59.29H28V75H0Z"/><path class="cls-1" d="M38.49,69.48H34V64.93h4.47a4.24,4.24,0,0,0,4.24-4.24V14.31a4.24,4.24,0,0,0-4.24-4.24H33.63V5.52h4.86a8.8,8.8,0,0,1,8.79,8.79V60.69A8.8,8.8,0,0,1,38.49,69.48Z"/><path class="cls-2" d="M107.68,50.59c0-2.89-2.25-5.36-4.85-6.58V32.58A21.22,21.22,0,0,0,83.92,11.52V7a2.28,2.28,0,0,0-4.55,0v4.49A21.22,21.22,0,0,0,60.46,32.58V44c-2.54,1.22-4.71,3.63-4.6,6.61V58H68.71a13.47,13.47,0,0,0,25.87,0h13.1Zm-26,12.55A8.91,8.91,0,0,1,73.55,58H89.74A8.93,8.93,0,0,1,81.64,63.14Zm21.5-9.71H95.3V53.3H68v.13H60.41v-3c0-1.17,1.67-2.36,2.89-2.66L65,47.38V32.58A16.66,16.66,0,0,1,81.6,15.94h.09A16.66,16.66,0,0,1,98.28,32.58V47.41l1.75.41c1.4.33,3.11,1.67,3.11,2.77Z"/></g></g></svg>