<svg fill="none" viewBox="0 0 12652 6700" xmlns="http://www.w3.org/2000/svg" xmlns:xlink="http://www.w3.org/1999/xlink"><clipPath id="a"><path d="m0 0h12652v6700h-12652z"/></clipPath><g clip-path="url(#a)"><path d="m6326 6700c3494 0 6326-309 6326-689 0-381-2832-690-6326-690s-6326 309-6326 690c0 380 2832 689 6326 689z" fill="#9087e9" fill-opacity=".3"/><path d="m493 2968-5 10c-3 4-5 5-8 6l-3-1c-4-1-6-4-8-7a173 173 0 0 1 -30-79c-10 82-2 169 7 250l5 44c42 441 290 774 735 992l1-528c-35-14-70-31-102-67-88-99-113-247-136-377l-9-53-10-54c-22-131-46-265-115-369-36-56-93-88-155-88-59 0-116 29-156 78-32 39-50 85-60 134l4-7 6-3 4 1c5 4 7 8 9 13 3 5 4 10 6 16l21 66 1 10c0 7-1 11-3 14zm512 825c1 4 0 9-1 12-2 5-4 7-6 8l-5 2c-7-4-9-6-10-12l-4-24v-25l1-4 4-4c1 0 2 0 3 3a180 180 0 0 1 18 44zm-65-373c2-5 2-8 4-9 2-3 4-4 6-4 3 0 5 0 7 2 16 12 28 22 38 40l1 7v11l-1 3-2 5c-6 3-8 3-9 2-10-4-17-9-23-16-7-6-12-13-19-22l-3-8v-10zm13 545c3 3 5 7 5 12v17l-6 12c-4 4-7 6-10 6h-5c-4-2-6-3-8-6-15-19-28-38-42-58l-2-9v-13c1-6 2-10 4-13s4-4 7-4 6 1 8 4l49 53zm-88-837c1-5 3-9 6-11 1-2 2-2 3-2l6-3 5 2 3 1c2 2 4 6 5 12 3 25 9 47 21 69 3 5 3 9 3 15v3a38 38 0 0 1 -10 25l-10 5-8-2-3-1a163 163 0 0 1 -26-86l4-26zm-75-298c0-10 2-20 4-30 1-5 4-9 6-12l3-2 6-3 6 3 3 1c2 2 5 7 6 12 4 20 5 39 5 59 0 5 0 9-2 13l-1 3-3 6-3 2-4 3-3 1-4 1-4-1h-3l-4-3c0-1-2-1-2-3l-3-5-2-3-2-12zm-28 680c3-4 6-6 10-7h5c15 5 30 9 44 15 3 0 5 2 6 4l5 7v4l1 5v12l-1 5-2 3-2 4-5 4h-9l-44-20c-4-2-6-6-8-10-2-5-3-9-3-14s1-9 3-13zm-100-416 2-8 5-7c3-3 5-3 8-3 6 2 8 3 10 6l13 18 11 20c2 3 2 8 3 12v4c0 3-1 7-3 10l-6 11c-4 3-7 4-9 4l-7-1-9-11c-7-14-13-28-17-44v-10zm0 553 1 5 1 9-1 5-2 8-4 2c-2 1-3 3-5 3-19-1-31-7-45-18-3-3-5-6-6-11-2-6-2-10-2-15 0-7 2-10 4-14 4-4 7-6 10-6h6c8 2 14 4 20 8s12 8 18 14zm-64-962s1-5 3-7c2-5 4-8 6-9 3-3 5-3 7-3l6 1c4 4 7 6 9 11 5 7 9 16 12 24l2 15v4l-2 10-2 3c-1 4-4 7-6 9-3 2-6 4-9 4-5-1-7-2-9-4l-2-2c-3-3-6-8-8-15-3-9-4-18-6-28v-13zm-46 540c2-5 3-9 6-12l3-2 7-3h5c6 3 8 6 10 10l7 22c5 23 6 47 9 71l-1 12-2 4-3 6-2 3-5 4-3 2-6 1c-6 0-10-1-13-4-4-6-7-10-7-18-2-16-5-31-6-47s-1-32 2-48zm1823-819c0-801-280-909-555-909-274 0-554 108-554 909l-4 324c-9 684-27 2108 20 2365 103 558 301 558 460 558h152c161 0 362 0 466-564 47-255 28-1675 19-2358-3-159-4-276-4-326zm-1056-136 12-16 8-3c5 1 7 2 10 5s4 7 5 12c1 6 2 11 1 15-2 7-3 10-6 13l-7 11-6 12c0 5-2 9-5 13l-7 5h-5c-5-3-7-6-8-12-5-20-2-38 8-54zm-14 1573-5 6-5 3-6-2-6-6-3-7v-10a649 649 0 0 1 25-96l6-9 7-3c4 0 6 1 7 3 4 2 6 5 7 7l4 9v12c-3 16-8 32-13 47zm0-821c-3 4-5 5-8 5-2 0-4 0-5-2l-4-7-2-8v-8a438 438 0 0 1 30-65c6-1 8 0 10 2l6 8 3 10-1 10a410 410 0 0 1 -29 56zm20 1578c2-3 3-6 6-8l6-3c5 0 6 1 8 2 3 2 5 4 6 7l3 8v12l-13 43-16 41c-2 5-4 7-6 9l-5 3c-3 0-5-1-7-3-4-3-5-6-7-9l-3-10v-13c5-13 8-27 12-40 5-13 9-27 15-40zm-49-2022c1-5 2-9 4-11 2-3 4-4 6-4 4 0 6 0 8 3 17 17 36 32 49 53 2 2 3 6 3 10v15c-1 6-2 10-4 13s-5 4-8 5c-4 0-6-1-9-3-19-18-32-40-46-61l-2-8v-12zm-14 750 2-9 6-10 7-4 6 1c4 3 6 6 8 10 9 20 19 40 27 61 2 4 2 8 2 12l-2 13c-2 6-4 9-7 10-3 3-6 5-8 5l-6-2c-4-3-6-6-8-10l-25-63c-2-4-2-8-2-11zm-4 875 3-9 4-6c5-1 7 0 9 2 17 17 30 35 43 55 3 5 4 10 5 15v4c0 5 0 9-2 14l-6 12c-5 4-8 6-11 6l-6-2c-5-3-8-6-10-12-12-24-22-47-29-73v-7zm97 861-6 11c-3 4-6 6-9 6-9-2-11-4-13-7-19-20-34-45-50-68l-2-7v-9l3-9c2-2 3-3 5-3l7 2 31 28c10 10 20 19 29 30l5 11v16zm12-3064-3 8-2 3-6 5c-5 4-8 5-11 5s-6-2-9-4c-5-5-7-9-8-17-3-17-4-35-6-52 0-3 0-5 2-8l3-7 6-6 6-3 6 2c4 3 5 5 7 9l15 48 1 13zm61 3399c0 6-3 10-4 13-4 4-6 6-9 6-4 0-6-1-7-2l-6-4-6-7-3-13c-2-15-2-29-2-44 0-9 3-15 6-20 4-5 9-7 14-7 3 0 6 2 9 4 1 1 3 0 4 2 4 5 6 12 6 20 0 18 0 35-2 52zm292-1202 18-60 7-11 8-4c4 1 7 2 9 4 5 4 7 7 10 11l4 13v4c0 5 0 9-2 13-10 25-19 50-33 72l-5 5-5 2-6-3a29 29 0 0 1 -9-16v-10l5-20zm-26-1038c3 0 6 2 9 5 3 4 4 8 5 12l1 15c-1 6-2 10-4 13-11 16-24 30-31 48-3 5-5 8-8 10-7 2-9 1-10 0-4-1-7-4-9-7-3-5-4-9-3-14 1-15 3-33 10-48 6-14 17-27 33-33l6-1zm-59-439c-4-1-6-3-8-5l-5-10-3-13 1-11a373 373 0 0 1 39-67c3-3 6-4 9-5 5 0 8 2 10 5l6 12c3 6 3 10 4 15l-1 13c-11 22-25 43-42 62-3 3-5 4-8 4zm1-779c4-8 9-17 16-26 2-4 5-7 8-9l8-2c6 2 7 2 8 4 5 3 6 5 8 7l5 12 2 12v3l-1 8v3l-4 10c-9 12-16 24-28 30-4 1-8 3-14 3-3 0-3-1-5-2l-3-1-3-5-3-9-1-10c2-11 4-20 8-29zm-59-324 2-8 5-7c2-2 3-3 5-3 3 0 4 0 5 2 3 2 5 4 6 7l24 48c2 5 3 11 2 15v5l-2 9-2 4-7 9c-4 3-7 3-10 4-5-1-7-2-9-4l-3-2c-3-4-5-8-6-15-3-10-4-19-5-29l-5-28v-8zm-14 608c0-6 2-9 5-12l3-2c2-2 4-2 7-3s4 0 5 1c5 2 8 5 10 9 6 13 11 23 20 34 3 4 5 8 5 14v3c0 6 0 11-2 16-2 7-4 11-7 15-4 5-7 7-11 7h-5c-5-3-8-5-10-8a99 99 0 0 1 -20-54zm68 2051-6 12c-4 5-7 6-10 7-8-3-10-4-12-8-9-12-17-25-25-39l-2-8v-14l4-12c2-3 4-4 6-5 4 0 6 1 8 4l32 35c3 3 4 8 5 12 0 7 0 12-2 16zm-110-1369 2-12c1-4 2-7 4-9 3-4 5-5 7-5 7 2 9 4 11 7 15 20 32 38 51 54l5 7 3 9v13l-1 6v3c-1 2-1 5-3 6-2 5-4 6-6 8l-6 1c-3 0-6-1-10-4-26-20-45-45-56-77l-1-9zm45 638-33-47c-2-2-3-6-3-10v-14c1-7 3-10 5-13s4-5 6-5c5 0 7 1 9 3l41 45c3 4 4 8 5 13l-1 16-6 13c-4 4-7 6-10 6h-4c-5-2-7-3-10-7zm2 981-1-8 1-11 4-7c2-3 4-4 6-4 4 0 7 2 10 5 18 21 34 41 49 64 2 4 3 9 3 14v3c0 6 0 10-2 15l-6 13c-4 6-7 7-10 7h-4l-9-9-22-40zm81 511-6 12c-4 5-7 6-10 7-8-2-10-4-12-7l-12-20-13-20-2-8v-14l5-12c1-3 3-4 6-5 3 0 5 1 8 4l31 35c3 4 5 8 5 12l-1 16zm32-1166c-8 25-22 44-40 63-3 4-6 4-8 5-4 0-6-2-8-5a68 68 0 0 1 -6-27c0-5 0-9 2-11 4-11 10-21 16-31 6-9 13-18 23-25 3-2 5-3 8-3 4 0 6 1 8 4l4 8 2 11zm47 1541a987 987 0 0 0 -21 41c-6 1-7 0-8-2l-5-8-3-10c0-6 0-9 2-11l19-35 3-4c6-2 7 0 9 1 2 3 4 6 4 9l2 9-1 10zm28-324-19 88c-1 5-3 8-5 11-4 4-6 5-8 5-3 0-5 0-7-2l-5-5-4-8-1-13 17-89c1-5 3-10 5-12 5-4 7-5 10-5l7 2c4 2 5 4 6 5l4 9c1 6 2 10 1 13zm25-410c-6 21-15 42-17 64 0 6-2 10-4 13-3 4-6 5-9 5l-5-1-6-4-6-7-3-12c-2-8-2-17-2-25l2-19c4-18 12-35 26-48 3-3 6-5 8-5 5 0 7 2 9 5l5 10c2 5 2 9 2 13zm285-1614c1-6 3-10 5-13 4-4 7-6 10-6s5 1 8 3l6 6c1 1 2 1 2 3l3 6 1 4c1 3 2 7 0 12l-11 52-5 12c-4 4-7 5-9 5l-7-2c-3-3-5-4-5-6l-4-8c-2-6-2-9-2-14l8-53zm-9 625-7-3a26 26 0 0 1 -10-15c-2-6-2-10-1-14a778 778 0 0 1 25-112l6-4c5 0 6 1 8 2 4 3 5 5 7 8 3 4 4 7 4 10 2 6 3 9 2 12-4 33-10 65-18 97-1 6-4 10-6 13-4 4-7 5-10 5zm-19-1119a73 73 0 0 0 7 6l3 7 2 4 1 13c-1 13-4 25-8 38-1 3-3 6-5 7l-10-1c-5-5-7-7-8-10-4-14-6-27-7-41l1-12 1-3 2-6 6-5h12l3 2zm-30-640 6-2c4 1 7 3 9 6 4 5 6 8 7 12 2 6 2 10 2 15 0 8-1 12-4 16-15 19-24 38-30 61l-4 8-5 3c-3 0-5 0-7-2l-4-5-5-6-2-9c-1-34 8-65 29-91zm-76 355 3-9c3-3 5-4 7-4 4 0 6 2 9 5l28 34c2 2 3 6 3 10v13l-5 10-8 5c-6-2-8-3-10-6l-25-37c-2-2-3-5-3-9v-12zm3 566 4-13c2-2 5-4 8-4 4 0 7 1 10 4 10 7 17 16 24 26 3 5 4 9 5 15v3c0 6 0 10-2 16l-6 13c-5 5-8 7-11 7l-4-1c-5-2-7-4-10-8-7-12-14-22-19-35l-1-10 1-13zm22-1290c1-7 4-14 8-19 4-6 10-10 18-12l4-1c4 1 7 3 8 5 3 4 4 8 5 11 0 6 0 10-2 13-2 5-4 8-7 10l-5 6-5 6c0 5-2 9-5 11l-7 3-7-4c-2 0-2-1-3-2-3-4-5-8-5-13l2-15zm-39 148 2-11 6-9c3-3 6-5 8-5 6 3 8 5 10 8l31 56 2 12c0 7-1 10-2 13l-7 11-8 4-7-1c-5-3-7-6-9-10l-25-55-1-10zm-8 1610 4-17c2-6 5-10 7-13 4-5 7-6 10-7 8 2 11 3 13 6 23 25 35 51 37 85 0 4 0 8-2 13l-1 3-4 8-3 3-7 4-3 1c-5 0-9 0-13-3-6-3-11-9-16-14-12-17-18-39-22-59v-11zm17 546v-12c1-6 2-10 4-13 3-3 6-5 8-5 5 0 7 0 11 3 20 12 37 30 55 46l6 9 1 3 2 7v16l-2 7-1 4-4 7c-2 4-4 6-6 7l-6 2c-4 0-7-2-10-5-18-21-38-41-54-64-2-2-3-6-3-11v-1zm5 568-2-8v-12l2-12c3-4 5-6 8-6a156 156 0 0 1 48 30l6 9 1 3 2 7v15l-3 10-5 9-7 4h-7c-6-2-9-4-12-7l-16-20c-6-7-10-14-15-22zm20 559a47 47 0 0 1 7-21c3-3 5-4 7-4 4 0 7 1 9 4 17 17 28 35 39 56 2 5 3 10 3 16v4l-2 13c-2 7-5 10-8 13-5 4-8 5-11 5l-8-1c-2 0-3-1-3-2-3-2-6-6-9-11a243 243 0 0 1 -23-65v-7zm63 527-1 7-1 4-3 6c-3 5-4 7-7 9-2 2-5 2-7 2-4 0-7-1-11-4-22-15-30-37-32-63l2-10 5-8c4-4 6-5 9-5 4 1 7 2 10 6 7 9 16 17 25 24 3 2 5 4 6 7l1 3 3 7v15zm32-237c-4 18-8 35-17 51-2 3-4 5-7 5l-6-2-5-7-3-10v-25l4-26c1-6 4-9 6-12 4-4 6-6 9-6s5 2 7 3l6 6c3 5 4 6 4 9 2 6 2 10 1 14zm53-611c0 5-2 9-4 12-14 18-23 36-26 58-1 5-3 9-6 11l-7 3-7-4c-2 0-2-1-3-2-3-4-5-8-5-13 0-9 2-17 3-25 3-23 11-44 25-65l7-7 5-1c4 0 7 2 9 4a39 39 0 0 1 9 26zm7-543a1335 1335 0 0 0 -44 103l-5 3-6-2-5-7c-2-3-3-5-3-8-2-4-2-7-2-10 3-32 12-62 24-91l14-29c2-3 3-6 6-7l6-2 6 2c5 2 7 4 9 7 3 3 4 6 5 9 3 11 0 23-4 32zm220-1921 7-2c4 0 7 2 8 5 3 5 4 9 4 14l-1 16c-1 6-2 10-4 12l-6 10 1 10-2 12-5 9c-3 3-5 3-6 3l-6-1c-4-3-6-5-7-9-4-7-6-14-8-22v-17c2-17 11-33 27-41zm-60 838c9-19 17-37 31-53l7-3 8 5 4 9c2 6 2 9 1 11l-11 34-16 32c-2 3-3 6-5 7-8 1-10 0-12-2l-6-12-3-13c0-8 0-12 2-15zm-1 366c1-6 2-10 4-13 2-2 3-4 6-4 4 0 6 1 9 4a252 252 0 0 1 38 48l2 9v12l-4 12c-1 2-3 4-5 4-4 0-6 0-9-3a185 185 0 0 1 -39-46l-2-9zm34 339 6-9c4-3 5-3 7-3 4 0 6 1 7 3 4 3 6 6 7 9l3 11-1 14a813 813 0 0 1 -36 71c-7 1-9 0-11-2a33 33 0 0 1 -9-20v-11c7-22 16-42 26-63zm-33 410 2-9 4-7c3-3 5-4 7-4 3 0 6 2 9 6l35 50c3 3 3 7 4 11 0 8 0 12-2 15l-5 11-8 6c-7-2-9-4-11-7a2087 2087 0 0 1 -35-70zm59 263-5 12-27 25-6 3c-4 0-6-2-8-4l-3-9v-13l4-11 26-27 7-4c3 0 6 2 7 5l5 10 1 13zm-63-1826 3-8 6-8 6-3c4 0 5 1 6 2 4 3 6 5 8 9a259 259 0 0 0 36 52l5 15c2 8 0 13 0 18-3 7-4 11-7 14-4 5-7 7-11 7h-5c-5-3-8-4-11-8a174 174 0 0 1 -36-78zm-62-756-12-36v-11l3-14 6-9c4-3 7-5 10-5l4 1c4 3 7 4 8 7 15 21 24 43 34 66l3 15v4c0 5-2 9-3 13l-9 14c-4 4-7 5-10 5l-8-2c-1 0-2 0-3-2-3-2-5-6-8-12-6-11-11-23-15-35zm72 3463-1 8c-2 4-3 6-5 7-3 3-5 3-6 3l-5-1c-4-2-5-4-6-7l-12-32-13-32-1-8c0-5 1-7 2-9l4-7 5-3 4 1c3 3 5 4 6 7l28 62 1 9v2zm59-335-12 36-6 9-6 3c-4 0-6-1-7-2l-7-7-3-9c-2-6-2-9-1-12l8-36 7-18 9-15c3-4 6-5 9-5 4 1 6 2 8 5 4 5 5 9 5 13 0 13-1 26-4 38zm16-232c-2 6-3 10-6 13-3 5-7 7-10 7h-4c-5-2-8-4-10-7-11-13-20-28-30-42l-31-41c-2-3-2-6-2-10v-15l5-13c2-3 4-5 7-5 4 0 6 1 9 4 24 26 47 51 68 79l5 13-1 18zm142-1697c-4 7-6 14-8 22l-34 8 5 534c38 0 81-9 126-26l-2-5-1-4c-2-3-2-8-2-13 2-13 2-17 8-29l4-7 6-2 4 1c3 2 5 4 6 7 6 13 7 23 8 36v4c139-58 264-149 370-270l-5-5a49 49 0 0 1 -10-45c1-6 3-10 6-16 1-3 4-4 6-5 7 0 9 1 10 3l7 11 8 26v10-7c95-115 175-253 233-411l2-4-5 2c-4 0-7-2-8-3-5-5-8-9-9-15-5-14-6-26-6-40 0-4 1-8 3-11 3-5 6-6 8-7 4 0 6 1 9 4l11 15 7 17c2 5 3 9 2 13l-1-8c18-51 38-115 56-188l-4-3-6-9c-2-3-3-7-3-10l1-11c6-14 12-27 20-39l5-6c6-1 9 0 11 2l-5-3c11-56 37-201 28-340-3-1-5-3-7-6l-26-36-4-13c-1-8 0-12 1-17 1-6 3-9 5-12 3-5 6-7 9-7h5l7 5c-11-56-30-108-61-146-39-47-92-69-164-65-212 13-263 329-297 538l-19 107c-43 207-111 418-287 489-1-7-3-9-5-12 2 3 4 6 4 9 0 7 2 13 4 18l7 17 1 11-2 16-5 11c-4 4-6 6-9 6l-4-1c-5-2-8-4-10-7a68 68 0 0 1 -13-58c2-8 4-15 8-22zm657-8-1 7-2 3-2 6c-1 1-2 1-2 3l-5 3-3 1h-8l-5 6-6 2-6-3a30 30 0 0 1 -8-16c-1-5-2-8-1-10l3-13c3-8 8-13 15-17 3-2 8-3 12-3l6 1c5 2 6 4 8 6 2 3 4 7 4 10l1 11v4zm60-650v15l-3 13c-11 19-25 35-23 59 0 7-2 13-4 17l-3 2c-3 2-5 4-8 4-3 1-4 0-6-1l-4-1c-3-2-6-6-7-13-3-10-5-21-5-32 0-22 5-44 16-61 6-9 15-16 25-21l7-2c4 0 7 2 9 6 3 5 5 9 6 14v2zm-49-376 17-45 5-9 6-3c4 0 6 1 8 3l7 9 3 10-1 13-19 44c-2 3-3 6-5 7l-6 3c-4 0-5-1-7-2-4-3-5-5-7-8-2-4-2-7-2-10v-12zm-71 85 2-7c2-4 4-7 7-9l7-3 6 2c4 3 7 6 9 10 2 6 6 10 9 15 10 14 23 25 36 39l6 12c2 6 2 10 2 16s-1 11-3 14c-3 5-7 7-11 7h-6c-10-2-17-6-24-12-14-11-24-27-31-44l-9-26c-2-3-2-6 0-10zm-71 601v-10l2-4c1-2 2-5 4-6 1-2 3-2 4-2 2-1 3-3 5-3h3l17 7 15 9 5 7 3 8v19l-1 4-2 5-6 7c-3 3-5 3-7 3l-10-3c-12-7-20-14-29-25l-4-11v-5zm-79 253c2-4 4-6 6-7l6-2c3 0 6 2 8 5 4 4 5 8 6 11l3 15c0 8-1 12-3 16l-14 21-14 20-6 6c-8 2-10 0-12-2-3-4-4-7-5-11l-1-13 1-13c8-16 15-32 25-47zm-46-768 2-11c3-6 5-9 8-10l6-1c7 2 9 5 12 10 5 12 8 24 11 36l3 12v16l-3 7-2 3-4 5c-5 3-7 4-10 4s-6-2-8-4c-4-4-7-9-8-15-4-17-6-33-6-51zm-35 251v-3l2-6c1-6 3-8 4-10l18-19 8-5 4 1 8 6 5 8 1 3 2 7v13l-2 7c-2 6-3 8-6 11l-18 16c-4 3-7 4-10 4l-4-1c-3-1-5-3-6-5l-4-8-2-9zm-31 216c2-5 4-7 6-8 9 0 11 1 13 3l2 3c3 3 4 8 4 12 0 9 3 16 8 24l1 8-1 12-5 10c-3 3-4 5-7 5s-6-2-8-4c-18-20-21-40-13-65zm-10 764c8 3 9 4 9 6l1 8-3 9c-4 5-8 6-12 8-8 1-12 0-17-2-2-1-4-3-4-6l-2-8 2-9 6-3c7 0 13-2 20-5zm-44-370 3-3 6-3c3-1 4 0 6 1l3 1c3 2 6 6 7 12a295 295 0 0 1 10 55l-1 19c0 5-2 9-5 11l-7 4h-5c-5-3-7-5-9-9-12-23-11-47-12-73 0-7 1-11 4-15zm-88-124c0-3 1-6 3-8 8-11 9-13 20-21 2-2 5-2 6-2 4 0 6 2 8 3 3 3 4 6 4 9l1 12-2 10-5 6-10 10-6 5-6 3c-4 0-6-2-8-3-2-3-4-6-4-9l-1-12zm-132 388c7-10 14-18 23-23s19-7 32-7l5 1 3 1 4 4 3 3 2 5 1 4 1 5 1 5v11l-3 6-1 3-4 4c-4 4-7 5-10 6-15 1-27 6-41 10h-5l-4-1-3-2-4-6-2-4v-13c0-5 2-9 3-11zm4749 1325 6 54 10 3c2 0 3 2 4 3v6l-3 4c-3 2-4 2-4 1l-7-7 2 2c11 76 30 152 71 220-6 1-7 13-1 15l12 4a489 489 0 0 0 177 150l-4 3c-2 2-3 6-2 9-1-3 0-7 2-9l5-3 4-2 3-1c2 0 3 2 5 3l2 8c15 7 30 13 46 17l2-75v-49l-1-69c-16-5-31-12-45-20l-2-4 3 4v8l-1 4c-2 2-2 3-4 3s-3 0-4-2l-2-2-2-5v-6l3-5 3-1-2 1c-46-35-75-96-85-182l-4-3-3-7c0-6 1-10 3-15l2-4-2-30c-1-46 2-109 6-169 3-53 6-102 6-141 0-60-21-154-76-154-11 0-23 3-36 10l-3-3 3 2 4 5 1 7-3 6-4 2h-4l-4-6-1-5v-3l-19 12c-19 14-31 33-39 51l-4-2c2 0 3 1 4 3l5 8 3 9v2l-1 5v2l-3 4-6 3c-2 0-4-1-5-3-2-4-4-6-4-11l2 7-5 20c-6 36-10 77-11 120 0-2 1-3 3-4h3l5 2 4 4 1 7-3 6-4 3c-2 0-3-1-5-3l-2-4-2-5v-2c-2 59 0 124 6 196zm302 381 2-4c1-2 2-2 3-2 4 1 4 2 5 4l5 10v5l-2 4-2 3c-2 1-3 0-5-2l-5-8-1-5zm-108-210 12-1c2 0 3 1 4 3l1 5-2 6-3 3c-1 0-2 0-3-2l-9-8-1-5zm-7 213v6l-3 4-3 2-5-4-4-13v-4l2-4 2-3c2-1 4 0 5 2l6 9 1 5zm-1-531-3 4-3 2c-2-2-4-3-4-5l-1-5c-1-4 0-6 1-8l4-4 4 1 3 3 2 5c0 4-1 5-2 7zm-18-163 4-4 4 2c5 6 9 12 12 19l1 5-1 6-3 5-4 2-3-1-3-4c-3-8-6-15-7-24zm-4 249 1-3 3-4c3 0 4 0 6 2l2 3 6 8 2 5-1 6-2 5-4 3c-5-2-5-4-6-5l-5-10-1-4-1-4zm-12 304v-3l3-2 8 1h4c2 0 4 1 5 3l2 7-1 2-1 4-2 1-2 2c-8-2-8-2-14-6l-2-3zm-21-648c1-3 2-4 4-4l3 2 2 4c1 4 0 6-1 7l-3 6-3 4-2 2-3-4v-5zm-11 545c1-3 3-4 4-4 2-1 3 0 4 1l3 5v8l-3 12c-1 2-2 3-4 3l-5-4-1-10 2-10zm-18-322v-3c3-4 4-4 5-3l4 4 3 5v8c-3 4-4 3-5 3l-2-3-5-7-1-4v-1zm1 172 2-4 3-2 4 2 4 4 1 5v7l-6 14c-1 2-2 3-4 3l-2-1c-2-1-3-2-3-4l-1-12zm-21-307 3-2c3 0 4 1 5 2l3 4 1 5c0 4 0 6-2 8l-5 8-4 1-3-2-2-4-1-5 2-9zm-9 228v-2c3-3 4-3 4-2 5 5 9 8 12 14l1 4-1 5-2 3c-3 1-4 0-5-2-1-1-3-3-3-5l-5-7-2-5v-3zm-28 251 2-10c1-2 2-3 4-3l3 3c2 6 3 12 3 19l-2 7-5 2-2-1c-3-3-4-5-4-8zm-40-261 2-4 3-2 4 2 4 6v7l-2 7-2 2c-2 2-4 4-7 4l-2-2c-3-3-4-6-4-9 0-4 2-7 3-11zm767-204c0-3 2-3 3-3-1 0-2 0-3 3v4l-2 4-1 101-1 74v7l8-5c0-2 2-2 4-3l39-32v-2l1-5 1-5c1-2 2-3 4-3 1 0 3 1 3 3l1 4 4-3c36-31 64-71 85-114l-2-7 1-7 6-7 3-1c12-24 19-50 25-77l-4-3-2-4v-5l2-4h5c6-25 9-51 11-77l-2-6 1-5 3-6c2-29 2-59 2-89l-1-2-1-5 1-4 1-18v-15c0-34 0-67-22-86a81 81 0 0 0 -54-19c-15 0-30 4-42 10a86 86 0 0 0 -41 51l3 4 1 4-1 5-3 3c-2 1-3 0-4-1l-3 28v43l-2 2 3-4c4-1 6 0 6 1 2 2 3 3 3 5l1 5c-1 4-1 6-3 8l-6 5-3 83 2 4v5l-2 4-2 36-2 19c-3 32-7 71-20 98l2 4 1 12-1 4c-6-1-7-2-7-4v-4l1-9zm144-183-3 5c-2 2-3 2-5 2l-4-3c-3-8-4-10-4-17l1-4 3-3 4 2 2 3 2 3 4 5zm4-138 3 1 3 4 1 6-1 6c-3 5-5 6-10 9-3 0-4-1-4-3-1-2-2-4-1-5 1-7 2-10 5-16l4-3zm-23-87 1-3 1-4c7 1 8 2 10 3l5 5c2 1 2 3 3 5v7l-3 5-4 3c-2 0-3-1-5-3l-4-7-4-7zm-20 343 4-7c2-2 3-3 5-3l5 2 2 5 1 7-3 6-8 4c-5-1-6-2-6-3l-1-5zm-21-308 5-9c1-2 2-3 4-3l3 1 3 5 1 5-1 6-10 14-3 3-3-3-2-4v-6l3-10zm-8 107 2-4h4l6 4s3 3 3 5v6l-2 4c-3 2-4 1-5 0l-7-7-2-4v-4zm-7 110 6-10 6-8 3-1 4 3 1 5-1 6c-4 7-7 11-13 16l-3 2-3-3-1-5zm0 153 1-6 3-2c3 0 4 0 5 3 3 4 4 9 6 13v7l-1 5-3 4-3 2-5-2c-2-3-3-5-3-9zm-33-49 3-7 1-3 4-3 4 3 1 6c0 4 0 6-2 7l-7 6c-5-4-5-5-5-6v-3zm-26 137 9-6h2l4 2 3 7c0 3 0 6-2 7-1 2-2 4-5 4h-8c-2 0-3 0-4-2l-1-4c-1-3 0-7 2-8zm-431-143-1 3 1-3c3-1 4-1 5 1 2 6 6 13 11 19l1 3v3c-4 4-4 3-5 3a36 36 0 0 1 -12-26l1 6 5 65c4 41 7 80 8 117l5 229c5 2 9 5 12 9l4 11-1 10c-1 3-2 3-4 3-4-2-4-3-4-5l-1-4c-1-3-3-6-6-8l3 279v49c1 24 0 52-2 82-5 115-12 272 57 343 27 28 62 41 109 41 113 0 170-100 170-299v-2l-9 18-3 2-4-2-1-5 2-5 8-13 3-5 3-1a2888 2888 0 0 1 4-114c-5-1-6-2-6-3l-6-18 1-8 3-1 2 1c4 3 5 7 7 11 0-51 2-100 3-148-1 4-1 9-3 13l-3 3c-2 0-2-1-3-2-2-2-2-3-2-5l2-13 4-13 3-3c3-11 3-25 4-38l2-55-3 6-2 5-3 1-3-3v-6c1-4 4-7 6-10l2-4 3-1 2 2-1-2c3-91 6-183 6-274l-4 3-4 3c-5-4-5-5-5-6l1-4 8-10 9-8-4 4v-56c1-68 1-136-2-203l-3 4-2-1c-2-2-2-5 0-7l4-9c-2-45-7-90-14-132l-1 7-5 13c-1 2-2 2-3 2l-4-5c0-10 2-19 4-29l2-3 3-2-1-10c-11-57-49-152-167-152-73 0-137 46-165 117l-12 42 7 19v4l-3 3c-1 0-2 0-2-2l-5-11c-11 58-10 123-6 189zm345 371 4-1 2 1c4 6 6 12 8 19v4l-2 3c-1 0-2 0-3-2l-9-15-1-5zm-7-279 2-1 3 3-1 4c1 8-1 15-3 21-3-1-4-1-3-2l1-6-2-4c1-5 1-10 3-14zm-89 544-1 4c-5 2-6 1-6-1l-3-14v-4l3-2c3 1 4 2 4 4l1 7zm17-519-7 10-2 3-12 10-4-2v-5l9-14c3-5 7-9 12-12l4 6zm-15 162-2 2-2-1-1-4 1-13 2-13c0-2 2-3 2-3 1 0 2 0 2 2 2 10 1 21-2 30zm3 129-1-6 1-3 6-10c2-3 4-6 4-10l2-5 4-2c5 1 7 6 6 9-1 12-6 26-20 28zm15 551-4 4c-1 0-3-1-3-3l-6-15 1-4 3-4 3 2 7 14v6zm9-111c-2 4-5 8-9 11l-4-5 1-4c5-4 8-10 9-16 1-3 2-3 3-3 4 2 4 3 4 4 0 5-1 9-3 13zm9-147 1 4c-2 13-6 26-16 35-3 0-3-1-4-2v-5l6-15 6-14 2-4h5l1 1zm-5-172 2 2c2 2 2 5 1 8l-7 15-9 11c-4 0-5-1-5-2l-1-5c2-10 8-21 16-28l2-1zm-12-833c1-3 1-5 3-7l2-3c3 1 3 2 3 3l1 4-1 8-1 8c1 3 0 8-3 9l-3-1-3-4c-1-6 0-12 2-17zm-9 148c1-2 2-3 4-3 4 2 4 4 4 5l-2 24-2 4-3 2c-6-2-6-7-6-11l5-20zm-23 141 2-1 5 4a57 57 0 0 1 4 18v3l-3 2-2-1-5-7-3-8v-5zm-5 474 1 4 2 7 3 21-1 3-3 3c-1 0-2 0-3-2-4-8-6-19-7-29-1-2 0-5 1-7l2-3 4 1 1 1zm-11-272 2-2 2 2 5 14v3c-3 2-3 2-4 0l-5-13zm-1 570v-4l3-4h6l11 13c4 6 6 11 6 17l-1 4c-1 3-1 4-3 4l-2-1-4-3-5-6-7-10-3-3-1-5zm-120-440 3-1h2c4 5 7 9 9 14 2 3 2 7 0 10 0 2-2 2-3 2s-2 0-3-2l-9-15 1-4zm4 182 3-1 4 4 3 11 2 3v4l-2 4-2 2c-2 0-2-1-3-2l-7-15v-5zm20 297-1 4-3 3c-1 0-2 0-3-2l-7-14v-5l2-5 3-1 4 4zm-20 99c6-6 8-4 10-2l6 6v7c-4 3-4 3-5 2-5-4-8-8-11-13zm33 150-1 3c-1 2-2 2-3 2s-2 0-3-2c-5-9-11-18-14-29l1-7 3-2c5 5 8 10 11 15l6 15zm5-307-3-2v-6l5-9c3-5 5-11 9-16l2-2c2 0 2 2 3 3l1 6-11 19-3 6-3 2zm22 175 2 2 2 3v5c-4 9-11 14-20 18l-4-7 2-4 7-7 7-9 4-2zm-3-467c0 3-2 5-3 7-2 6-6 11-12 13-4-1-5-2-5-3v-4l2-5 6-9 1-4 2-4 4-2 4 3 1 5zm-6-222 3 2 1 3v5l-3 5-5 9-4 6c0 2-1 2-3 2l-3-1-1-5v-4c4-8 7-15 13-21zm-14-313 4-3 4 3 2 6-2 6-10 13c-3 0-5 0-5-2-2-2-1-5-1-7l8-17zm-15 707 4 5c4 5 6 11 5 18l-1 3-2 2-4-4c0-4-3-7-6-10-2 0-2-2-3-4v-5l2-5zm-16-904 2-1 4 2 4 10 2 12c1 2 0 6-2 7l-2 1-3-2-3-6c-2-5-4-10-4-15 0-3 0-6 2-8zm-8 318 3-1c1 0 2 0 3 2 4 6 7 13 9 20l-1 4c-1 3-2 4-4 4h-2l-3-5c-3-4-6-9-7-14v-3c0-3 0-5 2-7zm-54 268 3 2c1 3 0 6-1 8-5 9-10 17-19 22l-3 1c-3-2-3-3-3-4l-1-5c0-4 1-5 2-7 7-5 14-11 19-17zm-26-381c7-8 14-17 18-26 0-2 1-3 2-3l3 3v6c-4 11-8 22-15 32l-4 3-3-3-2-5zm-3 216 5 8 4 8-1 8c-1 2-2 2-3 2l-3-1c-4-4-7-9-9-14l-2-5c0-2 0-4 2-6l3-3c2 0 3 1 4 3z" fill="#9087e9"/><path clip-rule="evenodd" d="m4953 6237c1190 0 2154-113 2154-253s-964-253-2154-253-2154 113-2154 253 964 253 2154 253z" fill="#080821" fill-rule="evenodd" opacity=".3"/><path clip-rule="evenodd" d="m7488 4320c182 53 504 311 416 565-87 254-395 212-749-41" fill="#f99f10" fill-rule="evenodd"/><path d="m7488 4320c182 53 504 311 416 565-87 254-395 212-749-41" stroke="#3a1103" stroke-linecap="round" stroke-width="2.1"/><path clip-rule="evenodd" d="m4555 1384c-518-361-1180-442-1296-312-95 105 262 679 204 847-57 168-563 59-619 273-26 101 362 346 352 488-11 141-310 101-332 284-15 124 258 151 248 298s-208 120-199 262c7 115 223 39 280 234 58 194 1362-2374 1362-2374z" fill="#ef6122" fill-rule="evenodd"/><path clip-rule="evenodd" d="m2247 4829c16-475 347-581 588-500 241 82 227 361 167 466-98 168-240 96-187-22 40-113 47-269-139-219-232 62-160 685 328 562 334-84 308-438 281-954-71-499 6-1153 218-1775 431-1259 3022-1668 3882-503 1117 1512-115 2990-304 3179-591 458-495 872-918 900-402 26-369-383-635-405l-47-1c-312 23-372 413-843 406-383-6-213-341-469-502-54-25-100-43-143-55-34-7-72-12-114-15h-86c-153 3-244 39-588 109-620 126-1004-270-991-671z" fill="#fac20c" fill-rule="evenodd" stroke="#3a1103" stroke-width="2.1"/><path clip-rule="evenodd" d="m3939 1705c881-624 1907-283 2038-197 131 87 317-16 212-276-349-870-1252-1313-1495-1163-272 167 70 915-107 1091-143 140-240 33-482-48-219-74-166 593-166 593z" fill="#ef6122" fill-rule="evenodd"/><path clip-rule="evenodd" d="m5483 739a227 227 0 0 0 -25-92 263 263 0 0 0 -52-74c11-41-12-76-12-76-39-3-63 10-73 17l-4-2-20-7-21-7-23-5h-4c-16-55-64-78-64-78-55 33-67 82-67 82v3l-10 2-12 4-13 4-24 11-23 14-2-1c-74-29-141 5-141 5-8 79 27 131 35 140l-5 15c-6 18-10 37-14 56l-1 9c-70 31-92 101-92 101 57 67 125 73 125 73a327 327 0 0 0 43 61c-22 60 1 111 1 111 65 3 108-26 117-33l19 6c20 5 40 8 60 10h25c30 45 83 51 83 51 39-39 41-79 41-88v-3a257 257 0 0 0 64-63l3-5c43 3 74-25 74-25-6-45-32-67-37-72l-1-1-1-1 1-7 1-15v-27l-1-4-2-15a183 183 0 0 0 -103-129c-16-7-33-13-51-15l-25-2h-13l-13 1a148 148 0 0 0 -85 48 133 133 0 0 0 -35 81v20l4 20c3 14 9 26 16 35 7 10 16 18 26 26 9 6 19 11 29 14s19 4 29 4l3 1h9l4-1 3-1 6-1 12-5c4-1 7-3 10-6l2-1c3-2 4-7 1-10-2-4-6-4-9-2l-2 1-9 3-10 3h-19a77 77 0 0 1 -66-65v-20l1-7a94 94 0 0 1 41-61l13-7a87 87 0 0 1 31-7h16l17 2a120 120 0 0 1 90 98l1 9v18l-1 10-2 9-3 9a163 163 0 0 1 -25 53 154 154 0 0 1 -99 59l-20 2h-10l-10-1a206 206 0 0 1 -179-152c-4-13-5-27-6-40v-20l2-20 4-21 5-20 14-38a203 203 0 0 1 60-75l15-10 15-9 8-4 4-2 4-1 17-6 5-2 5-1 8-2 5-1 5-1h5l2-1h2l5-1h6l5-1h22l17 1a237 237 0 0 1 144 59l3 2 2 3 5 5 5 4 5 5 17 21c9 13 18 27 24 40l1 2 1 3 2 4 3 5 2 5 6 17 6 24c1 2 4 4 7 4s5-3 5-6c5-11 5-20 5-29z" fill="#fac20c" fill-opacity=".5" fill-rule="evenodd"/><path clip-rule="evenodd" d="m5044 4684c-227 207-486 283-631 106-160-195-16-421 194-612" fill="#f99f10" fill-rule="evenodd"/><path d="m5044 4684c-227 207-486 283-631 106-160-195-16-421 194-612" stroke="#3a1103" stroke-linecap="round" stroke-width="2.1"/><path d="m4251 1209c-444-209-877-320-992-138-124 197 299 616 204 847-88 217-586 31-619 273-26 194 362 346 352 488-11 142-314 84-336 267-15 124 262 168 252 315-11 147-197 120-200 263-2 133 340 131 350 372" stroke="#3a1103" stroke-width="2.1"/><path d="m5977 1509c131 87 317-16 212-276-349-871-1225-1315-1495-1164-283 159 70 916-107 1091-99 98-230 94-349 44" stroke="#3a1103" stroke-width="2.1"/><path d="m5982 1512c-471-279-1292-296-2031 257" stroke="#3a1103" stroke-width="2.1"/><g clip-rule="evenodd" fill-rule="evenodd"><path d="m5253 3455 2406 194a525 525 0 1 0 85-1047l-2406-194a525 525 0 1 0 -85 1047z" fill="#5545ef" stroke="#231735" stroke-width="2.1"/><path d="m5822 3323 1826 148a348 348 0 0 0 57-695l-1826-148a348 348 0 0 0 -57 695z" fill="#19052d"/><path d="m6192 3216c2-25-23-47-55-50l-299-24c-32-2-60 16-62 40-2 25 23 47 55 50l299 24c32 2 60-16 62-40zm14-178c2-25-23-47-55-50l-299-24c-32-2-60 16-62 40-2 25 23 47 55 50l299 24c32 2 60-16 62-40zm502 219c2-25-23-47-55-50l-299-24c-32-2-60 16-62 40-2 25 23 47 55 50l299 24c32 2 60-16 62-40zm14-177c2-25-23-47-55-50l-299-24c-32-2-60 16-62 40-2 25 23 47 55 50l299 24c32 2 60-16 62-40zm15-177c2-25-23-47-55-50l-299-24c-32-2-60 16-62 40-2 25 23 47 55 50l299 24c32 2 60-16 62-40zm488 396c2-25-23-47-55-50l-299-24c-32-2-60 16-62 40-2 25 23 47 55 50l299 24c32 2 60-16 62-40zm516 42c2-25-23-47-55-50l-299-24c-32-2-60 16-62 40-2 25 23 47 55 50l299 24c32 2 60-16 62-40zm14-177c2-25-23-47-55-50l-299-24c-32-2-60 16-62 40-2 25 23 47 55 50l299 24c32 2 60-16 62-40z" fill="#fff"/><path d="m6770 4067-487-55c-74-8-128-76-119-150a40 40 0 0 1 79 9c-3 31 19 59 49 62l487 55a40 40 0 1 1 -9 79z" fill="#231f20"/><path d="m9538 2515a1063 1063 0 0 0 278 89c87 15 179 20 272 19 134-2 271-17 407-44 161-32 319-80 466-139 162-64 310-142 432-228 11-8 13-23 6-34-8-11-23-13-34-5-118 86-261 165-419 230-144 60-300 107-458 140-134 27-269 43-400 46a1819 1819 0 0 1 -550-74z" fill="#3b3b5a"/><path d="m9571 2664a2151 2151 0 0 0 1170 27c204-56 411-159 624-215 139-37 282-53 426-20 274 62 387 229 373 386-14 168-175 318-430 302-125-8-196-111-206-219-10-107 41-220 166-245 108-22 173 27 190 89 10 36 3 75-21 104-21 24-55 39-102 38a24 24 0 0 0 -1 49c64 0 110-23 139-56 34-41 44-97 29-148-22-79-104-149-243-119-149 31-211 164-199 292 13 126 99 246 245 255 282 17 455-154 471-339 14-171-104-358-403-425a919 919 0 0 0 -443 22c-213 56-420 160-624 218-110 31-227 52-345 63a2429 2429 0 0 1 -816-59zm1916-355c31-7 62-12 95-18l31-5 31-7c120-23 246-28 363 0a515 515 0 0 1 288 174c9 10 24 11 34 2s11-24 2-34a576 576 0 0 0 -186-136c-69-31-143-50-220-58a860 860 0 0 0 -352 42c-30 12-58 26-86 40zm-11093-1962a1063 1063 0 0 0 278 89c87 15 179 20 272 19 134-2 271-17 407-44 161-32 319-80 466-139 162-64 310-142 432-228 11-8 13-23 5-34-7-11-22-13-33-5-118 86-261 165-419 230-144 60-300 107-458 140-134 27-269 43-400 46a1820 1820 0 0 1 -550-74z" fill="#3b3b5a"/><path d="m427 497a2151 2151 0 0 0 1170 27c204-56 411-159 623-215 140-37 283-53 427-20 274 62 387 229 373 386-15 168-175 318-430 302-125-8-196-111-206-219-10-107 41-220 166-245 108-22 173 27 190 89 10 36 3 75-21 104-21 24-55 39-102 38a24 24 0 0 0 -1 49c64 0 110-23 139-56 34-41 44-97 29-148-22-79-104-149-243-119-149 31-211 164-199 292 13 126 99 246 245 255 282 17 455-154 471-339 14-171-104-358-403-425a919 919 0 0 0 -443 22c-213 56-420 160-624 218-110 31-227 52-345 63a2424 2424 0 0 1 -816-59zm1916-355c31-7 62-12 95-18l31-5 31-7c120-23 246-28 363 0a516 516 0 0 1 288 174c9 10 24 11 34 2s11-24 2-34a575 575 0 0 0 -186-136c-69-31-144-50-220-58a860 860 0 0 0 -352 42c-30 12-58 26-86 40z" fill="#3b3b5a"/></g><path d="m11841 5367a714 714 0 0 0 31-272v-3a2083 2083 0 0 0 -33-231l-1-6-6-26v-1l-18-77 17 112 6 40v1l2 14 7 56c6 64 10 128 7 191v1l-2 32a729 729 0 0 1 -28 150 538 538 0 0 1 -18 53l-4 10-1 2-2 6c-11 26-25 51-40 75l18-51 2-8c17-53 29-107 37-162v-3c8-64 10-129 5-193v-3l-2-18v32a1025 1025 0 0 1 -38 260v1c-24 85-59 167-104 243l-1 1a611 611 0 0 1 -37 58c-40 58-87 111-138 158l-2 1a986 986 0 0 1 -572 254l4-4 25-25 9-8 2-2 42-42 18-18h5a1720 1720 0 0 0 129-38l23-4 11-2a705 705 0 0 0 164-56l49-29a446 446 0 0 0 141-154l6-12 3-5c11-23 20-47 27-71a477 477 0 0 1 -70 119l-7 9a473 473 0 0 1 -216 144c26-15 51-31 75-50l5-4a472 472 0 0 0 60-53l1-1 1-1a599 599 0 0 0 158-287 665 665 0 0 1 -88 178l-1 1v1l-4 5a674 674 0 0 1 -130 134h-1a513 513 0 0 1 -64 43l23-35a2187 2187 0 0 1 72-106l19-25 19-27a408 408 0 0 0 -86 97 392 392 0 0 0 -33 55l-21 45a883 883 0 0 1 -124 59c-31 13-64 24-97 35l-20 6 125-126 121-124 19-21 71-72a2534 2534 0 0 0 63-64l25-11a450 450 0 0 0 75-49l5-4 4-3a482 482 0 0 0 136-182l3-6 9-28 1-2-1 1-11 15-2 4-2 3a1360 1360 0 0 1 -116 141 1031 1031 0 0 1 -113 103 738 738 0 0 0 104-158l1-1c7-7 12-15 17-22a766 766 0 0 0 45-68c14-25 27-51 37-78l9-26 7-28 2-7a637 637 0 0 0 14-180l8-29 1-4 2-13c4-17 6-34 8-52l1-4a625 625 0 0 0 -45-299c-12-29-25-58-41-85l-1-2-17-28-1-2-11-16 10 25 1 3a2198 2198 0 0 1 15 40l1 2 23 70 20 72a842 842 0 0 1 20 125l2 20 2 37v37l-2 46v5l-1-1v-3a950 950 0 0 0 -28-142c-9-35-20-70-31-105l-22-61-6-17v-1l-9-25 7 26v2l1 1 21 77v2a2125 2125 0 0 1 40 180c5 32 9 63 11 95v3l1 43v15a630 630 0 0 1 -33 197 569 569 0 0 1 -53 110l-5 9a634 634 0 0 0 28-188v-4c1-20 0-40-1-59v-3c-1-32-4-63-7-94l-2-12c-7-60-18-119-29-179l-1-5-1-3 1 3 1 6a2778 2778 0 0 1 24 191c3 37 5 73 5 110v3l-2 62v5l-2 21c-5 50-15 99-31 146a1710 1710 0 0 1 -20-71l-2-9-2-8v-1l-1-3a766 766 0 0 1 -21-126l-4-46v-5l-2-69-1-13v-19a328 328 0 0 0 -16 70v1l-1 6a467 467 0 0 0 -1 94v1a534 534 0 0 0 18 97l1 4 9 26 1 3 1 3a463 463 0 0 0 38 75 512 512 0 0 1 -134 206c-20 22-42 43-64 65l-47 47-24 24h-1l-32 32-3 2-108 107-4 4 26-40 6-11a1488 1488 0 0 0 78-156l6-16 3-7 2-6a440 440 0 0 0 95-137c12-26 21-53 29-81v-1l1-7 1-2 1-6 1-1v-4c7-33 11-66 9-99-10 33-19 66-30 97a1116 1116 0 0 1 -57 133v1l-16 29-11 19-4 8 7-24 1-1 2-6 3-11 12-46 1-4 10-42 9-39 1-6 1-3v-3l1-2a1424 1424 0 0 1 25-93l13-33a369 369 0 0 0 -42 84 842 842 0 0 0 -15 45l-6 19-8 26a3115 3115 0 0 1 -35 114l-1 4-15 42-6 14-1 2-2 7a1015 1015 0 0 1 -14 36l-3 8-3 7-12 28c-12 29-26 56-39 84l-26 52-4 9h-1l-21 41-5 8-3 6-92 92-11 11-44 45 7-21 7-21a1884 1884 0 0 1 28-78l3-8a752 752 0 0 1 9-24l3-8 16-41a367 367 0 0 0 -31 52h-1l-1 3-10 20-3 8a731 731 0 0 0 -31 94l-6 34-13 14-4 3-30 31-5 5-3 4-15 14c-2 3-4 5-5 9h-11c-46 3-93 4-140 4-71 1-143 2-213-1l24-10 15-6 6-3 16-7a2667 2667 0 0 0 99-45l28-14 30-17a275 275 0 0 0 -97 20 391 391 0 0 0 -120 70l-11 11-58-4a917 917 0 0 1 -203-41l-30-12a589 589 0 0 0 77-11l19-4 16-4a716 716 0 0 0 148-59l20-5 6-2h1l25-8c27-7 54-12 81-16l62-8 75-9 76-14a491 491 0 0 0 92-33 329 329 0 0 0 107-85l9-13c11-18 19-37 24-56-15 30-37 56-61 77a313 313 0 0 1 -93 55l-14 6c-23 9-46 16-70 22l-74 15h-1a1413 1413 0 0 1 -36 7l-38 7-43 10 6-3 26-11 51-24 13-7 13-7 24-13a1225 1225 0 0 0 300-233l13-13a522 522 0 0 0 39-43l13-17 22-28 18-22 16-24 16-23 16-24 29-49c11-16 18-34 27-51l13-25 7-13 5-13 23-52 9-24 1-3 9-27a911 911 0 0 0 47-250v-18c0-21 0-41-2-62l-1-6a649 649 0 0 0 -18-98v-1l-4-14 4 19 3 13a614 614 0 0 1 10 90 607 607 0 0 1 0 66l-1 6-2 31c-5 51-16 102-30 152l-3-22v-1a469 469 0 0 1 2-132v-6l4-21a173 173 0 0 0 -18 52 258 258 0 0 0 12 142 1065 1065 0 0 1 -28 81l-11 26-22 52-6 12-7 13-13 25c-9 16-16 33-27 49l-29 48-2 3 5-33 5-28 30-159 1-3 2-13 1-6 2-10a2356 2356 0 0 0 27-173v-1l1-6v-1l4-41a64 64 0 0 0 1-9l2-36c2-39 1-78-2-117l-2-19-1-8a711 711 0 0 0 -3-30l2-4 2-4 6-16 11-32 8-34 6-33c4-24 6-49 7-73a554 554 0 0 1 93-73v-1a447 447 0 0 1 35-19h1l27-14-25 5-1 1-27 9-6 3a264 264 0 0 0 -97 78v-27l-1-25v-5c-2-30-5-59-10-89l-1-3-1-4 5-21v-1a205 205 0 0 1 7-27 522 522 0 0 1 42-98 252 252 0 0 0 -61 117v-4l-10-32-10-32-13-31-3-7-11-24 8 24 1 2 2 6 9 32 8 32 6 33 3 17a277 277 0 0 0 -58-107l-3-4-6-6-15-14c-21-19-46-35-73-44a350 350 0 0 1 79 66l6 7 4 5a320 320 0 0 1 59 115c5 16 9 33 11 50v2l2 22 1 6v2l1-11 1 26a705 705 0 0 1 -4 63l-2-11-1-6-3-14-1-2-6-19v-1a285 285 0 0 0 -76-110c-21-19-46-35-73-44a348 348 0 0 1 126 136c7 13 13 27 17 41l1 1a253 253 0 0 1 14 60c-1 12-3 25-6 37l-7 32-7 32-4 13a1077 1077 0 0 0 -5-21 479 479 0 0 0 -7-25l-3-10-1-2c-12-39-29-76-49-111-24-39-52-75-86-104a554 554 0 0 1 126 265l1 8 8 47 1 3a716 716 0 0 1 4 47l1 10 1 16c1 22 2 43 1 64l-7-17-9-20-6-14v-1l-13-32-4-9v-1a1148 1148 0 0 1 -40-109l-21-64-2-5-5-15 3 22 2 10a741 741 0 0 0 58 184v1l5 11 13 26 1 2 18 32 7 13-1 23-3 58-1 7v5a4334 4334 0 0 1 -4 41l-1 7-2 14-17 133-8 56-1 5-5 40v3c-5 39-9 78-11 116v11l-1 27-13 17-16 23-16 23-17 23-35 44-13 14-25 27-19 21-13 13-7 6 1-3 1-3 5-21 1-8 6-24 1-6 8-32 10-40 2-7 4-15 17-62a408 408 0 0 0 -46 118l-1 2a570 570 0 0 0 -10 55l-1 5v4l-2 10v7l-1 20-1 1v6l-13 13h-1l-20 20-7 6-2 1-7 6-14 13-13 11-21 18-23 17-22 17-23 17-21 14 5-12 11-26 8-20 4-8 3-7 5-13 4-8 1-3 5-11 15-31 7-16 13-25 15-33c-14 17-26 35-37 53l-2 3a454 454 0 0 0 -28 55l-1 2-6 13-3 8-7 17v1l-3 8-3 11a439 439 0 0 0 -12 46c-22 15-44 30-68 43l-24 14-12 7-12 7-51 25c-8 5-17 8-25 12l-26 11c-18 7-35 15-53 21l-40 15a593 593 0 0 0 91-68c36-32 70-65 104-100l8-9 7-8 7-7 8-9 19-22 5-5 15-19 3-3a1401 1401 0 0 0 114-162c20-15 38-31 55-48a733 733 0 0 0 84-104l61-95 10-17 11-18v-1l3-5h1l55-87c-12 10-23 21-33 33l-1 1c-19 20-37 43-54 65-27 35-52 72-76 108l-25 35-1 2c-16 23-33 46-51 68l-5 6 6-10 5-9 13-24 12-25 24-50 21-51 11-25 9-26 19-52 16-53 6-22 1-4 7-27 2-9 11-45 1-6 3-5a467 467 0 0 1 81-96v-1l25-22-22 11-1 1a233 233 0 0 0 -62 55c-7 8-13 16-18 25l3-16 4-27 4-27 2-18 1-6 2-15v-7l2-8 3-55 2-28v-82l-3 55-2 27-4 27-3 27-3 27-3 17-1 7-4 22-1 6-1 2-4 27-2 6-4 20-13 53-11 41-2-74-2-40v-5l-2-29v-6l-9-136-1-17a1443 1443 0 0 0 -9-69l-1-6v-4l-5-23a424 424 0 0 0 17-81v-1a486 486 0 0 0 3-78v-3l-1-6v-4a573 573 0 0 0 -23-113 162 162 0 0 0 -6-18h-1l-2-7-4-9-2-3v4l1 9 1 7a297 297 0 0 0 1 20l2 16v3l2 31a2028 2028 0 0 1 5 107v38l-1 5v27l-1 17a262 262 0 0 0 -10-32 206 206 0 0 0 -7-18l-1-2a341 341 0 0 0 -50-85l-1-1-3-4-2-2-19-19c6 6 10 13 15 20l2 3 2 3 1 2a390 390 0 0 1 46 110v1l4 15 2 10c7 34 12 69 15 104v2l2 29v3l2 21 5 86 4 67 1 5a664 664 0 0 0 2 31l1 5v4l-1-3-2-4a17487 17487 0 0 1 -44-123l-5-18-1-2-5-17-1-2-7-24-4-13-2-9-1-4-11-39-7-25-1-6-4-12 2 15 1 8 4 34a668 668 0 0 0 10 47l2 10a438 438 0 0 0 9 35l1 2 5 16v2l2 6a795 795 0 0 0 37 94l2 5 12 24 3 4 7 14a3227 3227 0 0 0 13 125l-5 13-17 52-20 50-10 25-12 25-5 11-2-17-3-14-8-64-7-63-7-64a423 423 0 0 0 0 129 548 548 0 0 0 23 102l-13 29-26 48-12 24-14 23-24 41-3 5v1l-17 26-4 5-9 14-15 23-16 21-32 44-3 3-16 20v1l-11 12-4 5c-12 14-23 28-36 41l-24 27-12 13-2 2-6 6 2-5a297 297 0 0 0 8-25l3-11 1-7a378 378 0 0 0 11-117l2-3 11-18 11-18 10-19c8-14 15-28 21-43a272 272 0 0 0 56-61c10-14 19-30 26-46l3-5a366 366 0 0 0 32-171 305 305 0 0 0 -21-92l-1-2-8-18 5 39v1l1 7 1 16a530 530 0 0 1 -9 129l-2 10-5 19c-8 32-21 63-36 92l-5 10a496 496 0 0 1 -26 42l2-5 1-3a566 566 0 0 0 27-163l-27 79-1 4-26 74-24 64-3 8-2 5-7 20-1 1-3 9-4 9-1 1v-4l-1-4a239 239 0 0 0 -6-39 431 431 0 0 0 -78-165l-4-5 36-42 4-4 8-11a969 969 0 0 0 126-212 766 766 0 0 0 38-127l-10 31a796 796 0 0 1 -105 204 1186 1186 0 0 1 -176 203l-54 49-1 1-1 2-33 27-1 1-2 2-1 1a2425 2425 0 0 1 -42 32l12-19 10-21c14-27 24-56 30-85l4-23 3-22 2-23a855 855 0 0 0 -1-54c-2-20-5-39-11-58l-4 57-1 13a360 360 0 0 1 -6 40l-3 21-5 21-5 21c-7 28-16 56-25 83l-8 20-8 21-9 20-4 14-30 23-52 40-52 40-12 8a1240 1240 0 0 1 0-63l1-11v-6l1-12v-7l1-11 4-43 2-17 3-19 1-5 8-44 1-7a1133 1133 0 0 1 28-105 597 597 0 0 0 -56 131l-3 7a660 660 0 0 0 -13 54l-1 7-7 46-2 17-1 7-1 14a223 223 0 0 0 0 14l-1 7a600 600 0 0 0 2 59h11l-21 10a110 110 0 0 1 -60 5l-3 13v1-1a1379 1379 0 0 1 -3-43l-1-5-1-33v-31a1231 1231 0 0 1 12-155l10-61 12-51 2-7v-2l6-22 2-7 2-7 12-36h4l17-1h3l14-3 15-3 2-1a254 254 0 0 0 30-10 398 398 0 0 0 64-30l10-6 13-7 26-15 16-10a1741 1741 0 0 0 109-69 1152 1152 0 0 0 101-81l3-4c16-15 32-29 47-45l5-4 22-22a568 568 0 0 0 117-27 580 580 0 0 0 91-34 298 298 0 0 0 -96 8 449 449 0 0 0 -83 26l-7 3 77-86c28-32 55-63 81-97l1-1 3-4v-1l3-4 11-15 3-5a338 338 0 0 0 39-82l1-3-2 3a264 264 0 0 1 -28 54 414 414 0 0 1 -17 25l-9 10-3 4-9 11-6 7-9 10c-23 26-48 50-72 76l-37 38h-1l-13 14-50 50a515 515 0 0 1 -34 32 2338 2338 0 0 1 134-200l18-24 43-55 21-26a731 731 0 0 0 -114 125 838 838 0 0 0 -77 119c-13 23-24 46-35 70a1367 1367 0 0 1 -78 67l4-21 3-15 1-7a1436 1436 0 0 0 16-113v-7l1-11 1-7 1-16a950 950 0 0 0 2-79 315 315 0 0 0 -16 48v1a642 642 0 0 0 -21 104v3l-6 75v15l1 18 1 21a1170 1170 0 0 1 -154 101l-29 17-37 22-8 4a623 623 0 0 1 -48 25l-3 1c-12 5-24 10-36 13l-5 1-24 5c16-46 35-90 57-133l7-13a1002 1002 0 0 1 214-280l13-13 20-18 14-12v-1l31-27 15-14 7-6 107-93a328 328 0 0 0 58 0 450 450 0 0 0 144-34c-14-3-28-3-42-3a339 339 0 0 0 -69 5l-51 10-3 1-21 6 6-5 8-7 10-9 50-43 5-5 11-9 6-6 62-55 14-12 8-7a2343 2343 0 0 0 67-60l-54 42-25 20-18 14-19 15-59 47-20 16-12 10-19 15h-1l-29 24-11 8-5 5-10 8-76 61-15 12-20 16-74 62c-1-27-1-54 2-81v-6a664 664 0 0 1 5-41v-4a852 852 0 0 1 11-59l5-1 21-9 42-20 11-6 1-1a981 981 0 0 0 22-12h1l6-3 39-25c29-19 57-39 83-61l10-8a1121 1121 0 0 0 132-127l1-2a647 647 0 0 1 47-21 571 571 0 0 1 149-39c28-4 56-6 85-7-25-10-52-14-79-15h-13a320 320 0 0 0 -155 42l10-13 27-37 5-7 5-8 10-15 5-8h1l23-40 19-34 3-6-4 6-22 32-27 36-6 8-6 8-14 16-2 4-5 5-25 29a890 890 0 0 1 -63 66l-9 8c-19 18-38 36-58 52l-17 14-22 17-53 38 8-21a1115 1115 0 0 0 24-85l2-8 1-6 1-6 1-1 5-25 1-7 3-22a186 186 0 0 0 -30 48l-4 8-3 8-2 4-3 8a367 367 0 0 0 -17 71v1l-1 7v36l-41 25-8 5-1 1-17 10a2023 2023 0 0 0 -52 29l-38 21 6-20 3-9a887 887 0 0 1 56-137l2-3 5-9c9-17 20-34 31-51l7-9 14-8-9 4-4 2a387 387 0 0 1 124-108l11-7 32-21 2-1 19-13 1-1a312 312 0 0 0 83-76 344 344 0 0 1 -80 63l-9 5-12 8-2 1-38 21-7 4-38 22a397 397 0 0 0 -135 129 1283 1283 0 0 0 -348 287l-14 18-7 7-10 13c-27 35-53 70-76 107l-15 23 3-12 12-47 4-11v-1l2-6v-1l12-37 3-8c14-37 31-72 50-106l1-1 18-31 2-3a642 642 0 0 1 35-56l5-7 43-65 35-52 7-11 42-70c-25 27-48 55-71 83l-12 15a3777 3777 0 0 0 -91 122 1006 1006 0 0 0 -56 100 560 560 0 0 0 -49 215l-31 53-8 15-6 12v1l-1 1c-28 55-52 111-71 170l-1-1v-2c-3-28-6-54-7-81v-6a549 549 0 0 1 7-110c7-35 18-70 34-103 16-32 37-63 64-90-34 18-62 47-83 80s-35 70-42 109c-7 36-7 74-2 110v6a418 418 0 0 0 27 96v1l-1 1-19 62-8 34-5 17-3 17-13 68c-7 42-11 86-12 129a853 853 0 0 1 -40-134 250 250 0 0 1 -4-25 396 396 0 0 1 31-199l7-15c-8 8-15 17-21 26h-1l-1 2a244 244 0 0 0 -33 72 295 295 0 0 0 -3 156l4 15a364 364 0 0 0 61 126 841 841 0 0 0 3 83l2 17c6 52 16 102 31 151l2 9a1086 1086 0 0 0 75 191 1355 1355 0 0 0 51 93 963 963 0 0 1 -66-62l-19-21a1112 1112 0 0 1 -145-209 1290 1290 0 0 1 -31-61l-3-6c-22-47-42-95-59-144l-24-78a1161 1161 0 0 1 -32-155l3-8 2-7 1-2 23-77 11-36 12-42 18-67 3-12 4-13 2-7c5-19 11-37 20-54a301 301 0 0 1 62-81c13-14 27-28 39-43 17-21 32-45 39-71-11 25-27 46-46 65a686 686 0 0 1 -29 29l-26 25-3 3-5 5c-18 17-34 37-47 59l-5 9c-9 19-16 38-21 57l-3 7v1l-1 4-4 14-5 16-5 17-2 7-2 8-4 16-2 5-4 14-1 6-15 53-11 46v-28c3-50 11-100 23-150l2-10a1791 1791 0 0 1 69-222l10-11 14-15 8-8a4124 4124 0 0 0 32-35l33-37 42-49a421 421 0 0 1 43-45l22-14 5-3 5-2 23-11 21-8 10-4 5-3a454 454 0 0 0 42-20c13-8 24-17 34-28a159 159 0 0 1 -56 30h-1a38 38 0 0 1 -6 3l-5 2-16 5-32 9-1 1-4 1a335 335 0 0 0 -56 27c-19 13-34 30-49 46l-43 48-42 49-2 3h-1l-15 19a1617 1617 0 0 1 26-57l1-1c17-36 36-71 57-105 27-9 51-26 74-43a776 776 0 0 0 58-44l19-15c49-41 96-84 147-122a601 601 0 0 1 167-88 351 351 0 0 1 93-17 267 267 0 0 1 82 9l5 2 7 1a86 86 0 0 0 -11-4l-6-2a264 264 0 0 0 -116-13 303 303 0 0 0 -73 14c-57 17-111 46-160 81a1698 1698 0 0 0 -149 123l-16 14-57 48c-18 14-37 26-54 41a866 866 0 0 1 236-257l-1-1 15-10a814 814 0 0 1 217-109 599 599 0 0 1 133-28c26-3 52-4 78-3a575 575 0 0 0 -201 17l-15 4-25 7a766 766 0 0 0 -192 89 827 827 0 0 0 -61 42l6-7c6-8 13-17 21-24v-1l1-1a212 212 0 0 1 24-24l6-6a539 539 0 0 1 148-100c33-16 67-29 101-40l2-1c71-22 144-36 219-45 37-5 74-8 112-11l70-5h2l29-2 3-1h8-11l-29-1h-2a4311 4311 0 0 0 -184 7c-75 5-150 17-223 38-62 19-122 45-176 80a556 556 0 0 0 -126 110l-3 4-7 9-4 5-8 12-6 8-20 35a922 922 0 0 0 -161 181v1l-12 17a346 346 0 0 1 22-99l2-7 9-20 4-9a185 185 0 0 1 13-23 325 325 0 0 1 27-37l20-23 4-4 42-50 13-16 5-6 4-6-22 18-4 3-13 11-25 23-2 2-10 9-36 37a310 310 0 0 0 -42 70l-2 6-2 5a241 241 0 0 0 -17 82v10c0 12 0 24 2 36l-31 52a1667 1667 0 0 0 -154 383l-1 2a1151 1151 0 0 0 -23 105 717 717 0 0 0 -8 85v10a602 602 0 0 1 -8-58v-1l-2-19-2-59 1-29 3-29v-8l2-15a660 660 0 0 1 42-171 383 383 0 0 1 13-31c10-25 22-49 35-72l1-2v-1l16-31c34-61 67-123 98-185l2-4 4-9 6-12-10 16-2 3v1c-33 51-64 102-95 154l-1 2-6 10-5 9-5 7a1227 1227 0 0 0 -56 105 698 698 0 0 0 -28 71 558 558 0 0 0 -12 43l-2 8-2 10a703 703 0 0 0 14 349v1a694 694 0 0 0 11 88l1 5a1288 1288 0 0 0 42 159l14 40 15 40v1l17 38 4 11 4 9 9 19 19 38 20 38 22 36 11 19 6 9 6 8 24 36 26 33 14 17 14 16 28 32 30 31 16 14 16 15 10 8 6 5 1 1 8 7 4 3 4 3 5 4 12 9 18 13a643 643 0 0 0 36 22l10 5 10 4 12 6-3 1-23 19c-9 10-16 21-17 37a65 65 0 0 0 7 29l1-1 2-1 3-3 4-4a49 49 0 0 0 9-12l1-3 1-3 1-2 1-1a72 72 0 0 0 2-7v-1c3-9 5-19 6-29h5l6 4 1 1 8 5 1 1 10 7 26 15 5-6 1-1v1l7 11 8 5 8 4 33 14a675 675 0 0 0 183 48l28 4c47 6 95 9 143 11a8203 8203 0 0 0 272 2h1c52-2 104-7 156-17h1c21 4 42 8 63 9 35 2 68-6 100-12l97-22a467 467 0 0 0 182-84c54-40 99-90 140-142-48 47-96 92-150 128-53 37-114 61-177 77l-96 24a428 428 0 0 1 -120 14 954 954 0 0 0 269-105 1100 1100 0 0 0 126-86 1046 1046 0 0 0 169-173l22-29 20-30c12-20 25-41 36-62l19-37a483 483 0 0 0 115-197zm-1460-987 9-7c46-43 97-81 149-116l-5 9a394 394 0 0 0 -32 59 834 834 0 0 0 -58 155l-3 11a813 813 0 0 0 -17 99l-2 14v8l-2 36v5c0 22 1 44 3 65h4l-9 8-12 11-15 14-10 10-40 42-9 10c-25 28-48 58-70 89l-6 9a1126 1126 0 0 0 -161 359l-1 7-6 22-1 7-1 4-12 63-5 36c-5-17-8-34-11-52l-2-17v-1l-7-49-4-33 5-25 5-21a846 846 0 0 1 25-85l6-14a815 815 0 0 1 70-144l2-3a1375 1375 0 0 1 37-62l10-16 11-18 11-19c24-39 46-78 67-118l-50 63-4 5a3146 3146 0 0 0 -66 92h-1l-20 30a1359 1359 0 0 0 -41 68l-3 5a758 758 0 0 0 -56 143c-6 25-10 50-13 75a3309 3309 0 0 1 -9-123v-34a587 587 0 0 1 7-98 635 635 0 0 1 25-104h1l6-11a780 780 0 0 1 23-37v-1l11-15c25-35 52-68 82-100l13-13a1696 1696 0 0 1 99-96l47-46 4-4 15-16 1-1a628 628 0 0 0 43-46l-39 29-4 3-2 2-3 2-77 61-1 1-59 50a1164 1164 0 0 0 -109 116l-10 15a999 999 0 0 1 178-253c-17 14-34 29-50 45l26-32 14-16a1308 1308 0 0 1 109-111zm-268 1537v-1l-3-7-3-9-1-2-6-17-8-20-17-43a2004 2004 0 0 1 -56-130c-15-39-28-78-39-118l-9-32-3-18-1-4-3-10-6-33-3-16-2-16a751 751 0 0 1 -7-188 1101 1101 0 0 1 9-85l1-8 1-6a1083 1083 0 0 1 58-228 719 719 0 0 0 -10 165v5l1 18 1 4a1243 1243 0 0 0 18 138l2 12a2461 2461 0 0 0 20 102c5 19 11 37 19 54v1l1 2-1 9a1238 1238 0 0 0 -5 167v1l2 31 1 5h-1a1067 1067 0 0 0 55 268l2 7 4 11zm91 48v1h-12l-2-5-1-2-2-6a485 485 0 0 1 -20-52 724 724 0 0 1 -12-36 1081 1081 0 0 1 -43-216 110 110 0 0 0 69-2c23-7 43-18 62-30l55-38 53-39a2408 2408 0 0 0 80-62l1-1a1500 1500 0 0 0 33-28l2-2 24-20a1587 1587 0 0 0 115-114l3 6 2 4v1a602 602 0 0 1 35 94c8 29 15 58 19 88l2 12 1 4v5l1 4 2 19v5c3 30 3 60 1 91v1l-4 42v6l-2 11v4l-2 9-2 16-18 17-6 6c-16 16-34 31-51 46l-20 18-3 2c-22 19-45 35-70 50l-17 10-49 25a314 314 0 0 0 11-25v-1l2-6a316 316 0 0 0 14-59v-6l1-3v-2l1-10a197 197 0 0 0 1-38 339 339 0 0 0 -3-35l-1-6a218 218 0 0 0 -7-33l-2-5-2-7a192 192 0 0 0 -8-21l-1-2v28l1 7v7l-1 21v26l-1 15v4l-2 15a496 496 0 0 1 -1 20l-1 7a279 279 0 0 1 -3 25l-1 6-2 13-9 42v2l-2 7-5 24a655 655 0 0 1 -104 33 564 564 0 0 1 -99 14z" fill="#9087e9" fill-opacity=".8"/><path d="m11966 5224h1l-3 7a996 996 0 0 1 -14 37 299 299 0 0 1 -96 118l-12 8-1 1-11 7h-1l-30 16h-1l-11 5-8 15-3 5-5 10-6 10-12 21a1553 1553 0 0 1 -165 228l-17 20-17 19-3 3-15 17-19 21-17 17-1 1-17 17a1716 1716 0 0 1 -98 90l-14 11-3 2a642 642 0 0 1 -72 51l-13 8 15-5 9-4a547 547 0 0 0 57-24l15-8 29-15 15-8 28-17 9-6 18-12a749 749 0 0 0 63-48l7-5 16-15 7-6a366 366 0 0 0 33-33 716 716 0 0 0 103-128l27-42 9-15 30-47 24-37 18-28a8586 8586 0 0 1 30-48l14-20 30-44-11 19-14 27-13 24-10 18-16 30-17 29a3510 3510 0 0 1 -33 58l-16 29a830 830 0 0 1 -162 216 795 795 0 0 1 -225 148l-8 3-14 6a362 362 0 0 1 -16 7h-1a995 995 0 0 1 -26 9l-12 3a471 471 0 0 1 -48 13l-16 4c-31 15-63 27-94 38-62 21-123 36-186 49l-47 9-36 5-12 2-47 5-18 2-6 1-24 1-48 3-48 1-48-1-24-1-12-1-13-1-47-4-48-7-24-4-24-5-3-1-11-2-11-2-22-5-47-13-23-8-45-15-23-10-22-9-22-10-13-7v-1l-3-1-26-15-10-7-2-1-7-5-1-1-6-4-6-5a36 36 0 0 1 -1 5v5l-1 5-2 12v1a170 170 0 0 1 -4 14l-1 3a32 32 0 0 1 -3 6l-2 4a47 47 0 0 1 -10 12 33 33 0 0 1 -5 4l-1 1-3 2h-2l-3 2-4 2h-1a42 42 0 0 1 -8 2l-5 2h-4a131 131 0 0 1 -66-8l-4-2-1-1-3-1a52 52 0 0 1 -10-6l-1-1-4-3a1005 1005 0 0 0 29-24l3-3a84 84 0 0 0 6-7l5-6 2-3 4-5 8-12 4-8h-2 2l2-4a63 63 0 0 0 4-7l2-5 3-8h-1l-2 1a31 31 0 0 1 -22-7l-8-5-33-25a1062 1062 0 0 1 -167-178c-33-44-62-89-90-135l-82-138c-54-92-106-188-141-292l-1-1a435 435 0 0 1 -61-89 297 297 0 0 1 -13-33l-10-31-3-10-32-107a762 762 0 0 1 -21-183 508 508 0 0 1 12-94l2-10 3-13 1-5a435 435 0 0 1 17-57l5-14c7-22 16-44 25-65-20 72-38 144-43 218a639 639 0 0 0 29 244l7 27 16 53a481 481 0 0 0 45 113l8 13a1232 1232 0 0 1 -27-110l-1-5-3-20a1277 1277 0 0 1 -14-143 1238 1238 0 0 1 43-349l3-9 2-9 7-20c10-31 22-61 35-91 5-13 10-25 17-37l18-37c13-23 26-47 41-70l26-40 1-1 1-6 1-1a552 552 0 0 1 91-169c52-69 118-126 190-173 73-47 150-83 230-114 40-15 80-28 121-41l69-22a4915 4915 0 0 1 53-15l-82 31-37 14c-40 15-79 31-118 48-78 33-153 71-223 118a798 798 0 0 0 -221 223l-6 11a540 540 0 0 0 -7 16l12-15a1082 1082 0 0 1 51-54l11-11 11-11 11-11 12-10a1087 1087 0 0 1 61-52l9-6a972 972 0 0 1 63-44l2-2a781 781 0 0 1 94-54l55-26a1340 1340 0 0 0 -109 67l-18 13-7 6-15 10a1306 1306 0 0 0 -39 32l-12 10a1151 1151 0 0 0 -93 89l-10 10-15 17-9 10a1047 1047 0 0 0 -122 173v1a1357 1357 0 0 0 -36 67c-18 38-35 77-48 117l-6 16-4 14-1 2-2 5-1 4-2 8-2 7-3 11-4 14a271 271 0 0 0 -6 22l-2 13-3 11-2 12-3 13a802 802 0 0 0 -17 129l-1 15a1064 1064 0 0 0 40 368c6 19 11 38 18 56l2 7 6 17 8 20 2 5a1930 1930 0 0 0 18 44l2-6 10-36 5-19 2-7 5-18 2-8 5-18 2-8 1-3 8-30-3-5-4-16-3-8-1-7-3-10-4-16-2-8-2-9-1-2-3-18a865 865 0 0 1 -11-53l-2-7-3-7v-2l-1-3-4-9-3-10a945 945 0 0 1 -23-87v-4l-5-26-1-10v-1l-2-16a532 532 0 0 1 5-169l1-3 3-11v-1l3-14 3-12 2-5 3-11 4-11a482 482 0 0 1 41-90l9-13 4-7 5-7 8-12 2-2 8-11 1-1a318 318 0 0 1 26-28l-8 11-8 12-6 8-5 9-4 7-2 3-5 9-5 9a494 494 0 0 0 -19 38l-4 9-4 10-4 10-10 28v3l-2 5-1 2-1 4v2a202 202 0 0 0 -7 25l-2 11a491 491 0 0 0 -10 114l1 27v1l2 18v2a457 457 0 0 0 5 43l1 2 2 13a707 707 0 0 1 1-40l1-14a356 356 0 0 1 3-42 727 727 0 0 1 12-69l3-9 2-10 3-13 4-13 3-10v-1a674 674 0 0 1 177-288l7-6 6-6 1-1-9 9-1 3a291 291 0 0 0 -20 22 483 483 0 0 0 -26 34 674 674 0 0 0 -89 160 751 751 0 0 0 -19 51l-2 8-5 15a699 699 0 0 0 -26 181l17-31v-1l6-10 16-31 8-16 8-17a1928 1928 0 0 0 32-65l8-18a738 738 0 0 1 16-35l6-13-1 4-1 5-2 11v1l-3 11-3 9-3 12-6 16v1l-1 4-2 5-6 15-6 15-6 12-7 17a692 692 0 0 1 -20 36 389 389 0 0 1 -21 33l-4 6v1l-17 23h-1l-7 9v34l1 16 1 16 1 16 1 8v6l2 19v4a1204 1204 0 0 0 10 70l1 6 3 19 1 6 1 3a1716 1716 0 0 0 14 70l2-8 8-30 17-59a10678 10678 0 0 1 24-83l4-12 15-53 2-8 47-158 5-17 5-17 2-7 20-68 7-24 5-16v-1l3-10 4-11 2-8 5-14v-1l3-8-3-23v-14l-1-8v-25l1-3v-10l1-17 2-15 1-9v-2l1-3v-7a223 223 0 0 1 4-22l2-7 1-7 2-8a662 662 0 0 0 6-22l3-11 1-2 2-5 1-4a561 561 0 0 1 91-168l8-10 2-1 9-10 2-3-4 10a3060 3060 0 0 0 -29 62l-4 9a1183 1183 0 0 0 -41 108l-6 17-1 5-1 3-5 17-1 1a747 747 0 0 0 -9 36l-2 7-2 6v2l-1 2v3l-1 1v2l-1 5-2 9-2 5v1l-2 9-7 36-1 6-1 9-3 15v2l2-7 4-10 9-23 4-10a505 505 0 0 1 18-39l1-2a1339 1339 0 0 1 22-42l7-12 6-8a296 296 0 0 1 16-24v-1h1l7-11 1-2 2-6 2-6 3-6 5-11 3-8 3-6 3-6 4-9 4-8 5-9 6-11a755 755 0 0 1 70-104l5-6 16-18 23-22a659 659 0 0 1 176-120 303 303 0 0 1 31-30l12-9a706 706 0 0 1 46-36l9-6a690 690 0 0 1 55-33l10-5a814 814 0 0 1 160-61 781 781 0 0 1 149-23h11a724 724 0 0 1 21-1h10a382 382 0 0 1 64 4 2910 2910 0 0 0 -127 20l-16 3-23 5c-27 6-54 12-81 20a950 950 0 0 0 -183 73l-9 5-10 4-9 6-18 10c-16 9-33 19-48 30l13-5 12-5c25-10 50-18 75-26l14-4 13-4 14-4 17-4a2233 2233 0 0 1 244-49l-89 22-4 1-27 7c-40 11-80 21-120 34-78 24-155 53-227 93a704 704 0 0 0 -245 223 917 917 0 0 0 -19 31l-4 7-7 12 5-4 8-8 1-1 4-5 10-10h1l10-9 10-9 10-8a757 757 0 0 1 69-52c64-42 133-76 203-106l25-10 25-10 20-7 144-51a4200 4200 0 0 0 -122 47l-5 2a2141 2141 0 0 0 -84 36 1254 1254 0 0 0 -220 126v1l-6 4-6 5-11 9-7 5-9 8-10 8a187 187 0 0 0 -18 17l-9 9-10 9-2 3a501 501 0 0 0 -17 18l6-1 20-5 26-6a938 938 0 0 0 21-6l4-1h2l3-1a798 798 0 0 0 26-8l7-2 20-6 8-3a1038 1038 0 0 0 149-61h1a549 549 0 0 0 35-18l5-2a288 288 0 0 0 27-15l3-1 21-12 10-5-12 12v1h-1l-5 6-4 3-2 2-5 5-3 3-10 8-9 7-4 4a205 205 0 0 1 -22 16l-12 8-29 17-9 5-13 7a562 562 0 0 1 -81 33l-10 3-13 4a422 422 0 0 1 -40 9l-8 2-10 1-2 1a68 68 0 0 0 -5 0 416 416 0 0 1 -27 3l-3 1h-7l-8 1h-48a1005 1005 0 0 0 -38 48l-4 7v1l-5 7-1 1a320 320 0 0 0 -21 37l-4 7a386 386 0 0 0 -11 22l-6 12-4 9-2 4-4 10-5 12-14 38-2 8-4 12-2 7-3 8-3 9a1515 1515 0 0 0 -11 38l-2 8-11 39-6 21-1 6-9 32-2 7-10 36-2 7v1l-1 3v1l-1 6-57 210-2 5 2-3a1492 1492 0 0 1 18-35l2-3 5-10a862 862 0 0 1 27-46l10-14 1-2 10-16 10-15a862 862 0 0 1 39-54l10-13 10-13 20-25v-1l2-7h1l2-7a473 473 0 0 1 28-70v-1a164 164 0 0 1 6-11l3-7a554 554 0 0 1 40-63l1-2 6-8 10-12v-1l2-2 6-7 2-3 1-2 9-10 4-4 10-10 5-5 10-10a381 381 0 0 1 18-17 55 55 0 0 1 7-5 301 301 0 0 1 43-33 271 271 0 0 1 42-24l-13 13-37 39-13 14-16 18a229 229 0 0 0 -13 15l-4 4-3 4-10 12-14 17-12 16v1h-1a716 716 0 0 0 -44 62c-9 15-19 29-27 44l-2 2-3 5-5 9 6-6 1-2 1-1 18-19 2-3 6-6a1305 1305 0 0 1 32-31l4-4 2-2 39-36 30-26 8-7 10-9 5-5 5-4 3-3 12-11 15-14 12-12 12-13 22-25 7-9 6-8 2-2-1 2-4 8-2 4-6 10a295 295 0 0 1 -19 28l-5 8-3 3a144 144 0 0 1 -12 16l-8 9-8 9-13 16-7 7-5 5-39 41c-34 34-67 68-98 104l-2 1-8 10-8 9a1042 1042 0 0 0 -23 28l-2 2a1728 1728 0 0 0 -95 120l-9 14-7 9-15 22-1 1-4 6a2087 2087 0 0 0 -37 55 426 426 0 0 0 -8 13l-20 32-2 3-3 5-6 9v1l-2 7-2 7-4 13-2 8-4 15-2 5a13453 13453 0 0 1 -24 84l-2 9-3 10-3 12-17 57a8005 8005 0 0 1 20-22l3-3 8-9a2051 2051 0 0 0 52-60l3-4 11-12 7-9 3-3v-1l5-5 21-26 2-2 11-14a1273 1273 0 0 1 8-7l-2 4a373 373 0 0 1 -23 41l-8 11-5 8a121 121 0 0 1 -7 10l-2 3-3 4-6 8-8 10-3 3-4 5-6 7a892 892 0 0 1 -50 52h-1l-3 3a355 355 0 0 1 -27 23l-6 21-2 4-1 3v1l-2 7-1 4v1l-2 5-2 8-8 26-1 5-7 22-1 4-1 3-3 4 1 2 4 8a2856 2856 0 0 0 90 170l24 42 13 23 12 22 12 21a2477 2477 0 0 0 38 64l5 7a744 744 0 0 1 -5-35l-1-9-1-10-3-28-3-27-1-12v-5l-1-15a2153 2153 0 0 1 -6-86v-43l2 4 4 8 3 8 4 8a352 352 0 0 1 20 75v2l1 2a657 657 0 0 1 6 67v18l-1 4v5a118 118 0 0 1 -1 15v4l-1 10-2 10a340 340 0 0 1 -8 39l35 55a1031 1031 0 0 0 118 144l14 14 11 10h1l10 9a315 315 0 0 0 15 13l3 3 10 7-1-1-2-4a594 594 0 0 1 -17-40l-1-5a322 322 0 0 1 -14-41l-1-3-3-11-1-2v-1l-2-7a412 412 0 0 1 -11-49l-2-9-1-5a655 655 0 0 1 -8-61v-3l-1-6v-5l-1-8a652 652 0 0 1 -1-38l-6-22-8-38a913 913 0 0 0 -54-148l-2-5-2-4-30-75a1098 1098 0 0 1 -33-102l-3-12a186 186 0 0 0 -3-15l-1-4v-3a524 524 0 0 1 -7-60v-9l-1-7a327 327 0 0 1 4-58l2-9a310 310 0 0 1 4-21l4-14 1-1a490 490 0 0 1 14-35l3-8a263 263 0 0 1 12-20l4-5 4-5a81 81 0 0 1 8-11l4-4 5-5 6-6-3 5a63 63 0 0 0 -6 8v2l-4 6v1l-2 4-4 6-2 6a273 273 0 0 1 -6 14 195 195 0 0 0 -10 32l-2 5-1 5-2 9-3 20v2a41 41 0 0 0 -1 4v3a160 160 0 0 0 -2 19v7a644 644 0 0 0 7 93v2l2 11v3h1v5l3 12 2 11a557 557 0 0 0 14 51l5 14 3 10 11 34 28 81 7 21 2 7 3 13 2 6-1-6-1-10-1-10v-1l-1-11-4-64-1-16-1-16v-65a580 580 0 0 1 2-49l1-17 1-17 2-16 1-17 2-15v-1a1548 1548 0 0 1 13-86l3-17 3-14 1-6 1-8 1-3 1-4v-3l3-9v-4a1230 1230 0 0 1 24-92l4-12 4-15 2-7 3-8 5-15 7-22 6-16 24-59 9-23 2-3 2-4 14-29 7-14 5-11 2-4 7-15 3-5 1-2 4-7 31-56 17-27 9-14 9-13 8-11v-1l10-15 8-11 1-2 10-13 5-7 7-9 23-30 4-5 3-4h1l4-5 4-6a362 362 0 0 1 30-34l14-15 15-15 13-13 3-4 13-12 15-14 15-14 16-14 14-11 2-2 10-8a381 381 0 0 1 46-34 646 646 0 0 1 55-35l7-4 2-1 3-2 11-6 11-6 13-6 7-4a205 205 0 0 1 17-8l15-6 4-2h1l5-2 13-5 12-5 13-4a606 606 0 0 1 29-7 220 220 0 0 0 -21 7 838 838 0 0 0 -54 23v1l-15 7-7 3a672 672 0 0 0 -46 26h-1l-4 3-8 5a874 874 0 0 0 -68 48l-4 3-1 1h-1l-1 1-9 7-7 6-38 32-10 10a854 854 0 0 0 -31 30l8-3a427 427 0 0 0 70-32 582 582 0 0 0 86-58l14-10-5 6-5 7a431 431 0 0 1 -15 17l-6 6-4 4-7 6a280 280 0 0 1 -58 39l-7 4a276 276 0 0 1 -81 24l-44 48-8 9-6 8-2 1-5 6-2 3-17 22-8 10-7 9-23 32-10 13-9 13-17 27-26 40-3 5-2 5-2 4-13 22-15 26-2 4-1 3-2 3 3-2 42-34 5-4a2164 2164 0 0 1 41-34l14-11 1-1 58-49 58-49a2039 2039 0 0 1 53-43l30-25 5-4a3100 3100 0 0 1 98-73l19-12v-1l19-12 19-12 16-10 9-6h1l9-5c33-19 67-36 101-51l8-3 2-1h1l18-8 3-1 8-3v-1l2-4 4-4 12-15a1759 1759 0 0 1 54-55l30-25a767 767 0 0 1 65-44l2-2 1-1 2-7 3-13a677 677 0 0 0 12-72 519 519 0 0 0 3-82v-11l-1-19-1-8 3 6 1 3a242 242 0 0 1 6 22l1 5a242 242 0 0 1 4 86 141 141 0 0 1 -3 19v4l-2 6a189 189 0 0 1 -5 22l-2 7-1 3-3 7-2 5-1 3-4 8h2a826 826 0 0 1 157-72 543 543 0 0 0 113-132 204 204 0 0 1 -24 54 284 284 0 0 1 -46 58l-2 2-9 8 4-1 5-1 32-8 38-7 38-5 37-3-37 7-28 7-9 2-36 10-36 11-18 7a305 305 0 0 1 39-7 226 226 0 0 1 40-2 308 308 0 0 1 128 31l11 6 2 1 7 4 9 5 5 4 17 14-9-6-14-6c-2-2-6-3-9-4l-10-5a421 421 0 0 0 -45-15 374 374 0 0 0 -273 29l10-7-26 14-18 10a221 221 0 0 0 -21 14l-8 5-13 9a273 273 0 0 1 19-6 311 311 0 0 1 224 17 243 243 0 0 1 51 33 398 398 0 0 0 -53-24l-10-4-25-7a384 384 0 0 0 -104-13h-7a102 102 0 0 0 -12 0 185 185 0 0 0 -28 3h-1a130 130 0 0 0 -12 2l-9 2-11 2c-17 4-34 10-50 16l-13 10-7 6-13 10-28 25-27 25-11 10 8-2c12-3 24-7 37-9l2-1a23 23 0 0 1 3-1h3l3-1 14-3a611 611 0 0 1 53-8h2l9-1h2a657 657 0 0 1 108 0l14 2h4v1l15 2 10 2h3l10 2a339 339 0 0 1 31 8l3 1 13 5 6 2-15-3-6-1-12-2a438 438 0 0 0 -23-3l-6-1-8-1h-4a214 214 0 0 0 -28-2h-31a584 584 0 0 0 -50 4l-12 1a204 204 0 0 0 -24 3 421 421 0 0 0 -16 3l-13 3h-2l-4 1a680 680 0 0 0 -43 10l-1 1-7 1-2 1a392 392 0 0 0 -40 13l-13 4-14 5-41 17-2 1-20 8-3 2-2 1-9 4-9 4-10 5-10 5-2 1-51 28 13-1 24-3h4l5-1 20-2 23-3h2l6-1h6l12-2h2l4-1 25-3 50-8 5-1 6-1 15-3h1l7-1 6-2 8-1 26-5 41-8 32-7-10 4-8 3-6 2-18 7-13 4-14 4a751 751 0 0 1 -31 9l-5 1a239 239 0 0 1 -5 1l-7 2a68 68 0 0 1 -6 1v1a858 858 0 0 1 -35 7h-4v1l-13 2-20 3-32 4h-2l-13 2-11 1h-2l-25 2a2608 2608 0 0 1 -27 1 847 847 0 0 1 -49 0l-22 13-19 12-16 11-3 1a1044 1044 0 0 0 -47 32l-2 2-37 27-91 68-30 22-18 14-56 42-12 9-11 9a1489 1489 0 0 1 -80 55l-9 6-17 11-7 5-3 2a740 740 0 0 1 -23 14l-3 2a435 435 0 0 0 -10 19v1l-1 2-8 16-5 12h-1l-7 17-2 4-4 8-3 5-2 5-2 5-2 5-3 8v1l-22 54-2 5-1 4-4 9v1l-3 8-13 38-10 30v3l-8 27a5746 5746 0 0 0 84-76l17-17h1l8-8 26-25 33-33 4-5 8-7 6-6a372 372 0 0 1 -34 49l-6 7-2 3a558 558 0 0 1 -60 62l-10 9-3 3-7 6-8 6a222 222 0 0 1 -18 14l-41 28-2 7a1250 1250 0 0 0 -12 45l-13 62-2 12v2l-2 7-1 7v1l-1 3v2l-2 17-2 12-4 32-2 7-2 24-2 29 12-16 1-1 7-9 8-11 9-11 23-30 2-3 10-13 7-10 4-6 3-3 2-3 6-9 1-1 19-27 11-16 1-1 14-21 14-20 2-2-4 10-5 11-9 20v1l-4 7-2 3-3 5-5 9-8 16-1 1a455 455 0 0 1 -27 40l-2 2v1l-1 1v1l-10 13-2 2-9 11-3 3-1 2-9 10-2 3a370 370 0 0 1 -24 25l-7 7-7 6-1 2-4 3-5 5-2 1-1 6-1 18-1 18-1 12v8l-1 28v32l-1 11v5l1 11v5l3 63 2 32 4 32c2 21 4 42 8 63l8 47v1a12800 12800 0 0 1 5-61l1-7 1-13a689 689 0 0 1 10-51l2-9 1-3 4-16 4-19 3-12 1-3 3-13 4-14 3-12 1-3 1-3a631 631 0 0 1 12-43l1-2a66 66 0 0 1 2-6v-2l4-10 1-2 1-5 4-11 2-8 4-10 2-8 1-3 9-23 10-27 10-26 2-4 9-22h1l2-7 5-10a488 488 0 0 1 29-62l27-51 9-17 1-2 2-4v-5h1v-6l1-6 1-6 1-2 1-8 2-5v-3l1-4 1-3v-2l3-10 2-8 1-6 2-6 1-1 2-8 3-9 4-13c10-29 22-57 34-84l8-17 4-8 7-14 4-7 3-7 3-5a336 336 0 0 1 11-21l11-20 10-19 21-39 44-79 1-2 5-10 4-7 4-8 1-1a57 57 0 0 0 3-6l1-2 3-5 1-1 1-3 3-6-1 4v2l-2 7v1l-2 7-1 2v1l-2 6v1l-6 21c-10 31-22 60-35 89l-8 20a948 948 0 0 1 -17 35l-3 7-1 2-5 11-12 24-17 36-9 16-5 12-6 12a1567 1567 0 0 0 -32 70l-6 15-4 9-1 2-2 6 1-2 7-11 5-8a104 104 0 0 0 4-7l4-7 9-13 2-4 16-21 26-39 5-6 4-7 38-49 20-24 20-24 41-47 25-26 2-2 16-17 21-21 1-1v-1l16-14 6-6 20-19 26-23 6-5 3-6a461 461 0 0 0 12-24l2-5 1-3 1-1 4-10 1-1a397 397 0 0 0 14-38l1-4 2-3 1-6a153 153 0 0 0 5-16l9-36 1-4 1-4v-2l1-2v-2l2-10 1 11v20a175 175 0 0 1 -1 19l-1 4-1 8-2 10a148 148 0 0 1 -6 25l-1 5-1 2-6 18-2 4-1 3-3 6-1 2-3 7-1 1-4 8 3-2 11-9 12-10 8-7 4-3 6-4 18-14 9-6 41-31 27-17 2-2 2-1 2-1 18-12 1-1 13-8 1-1 12-8 27-15 54-31-52 34-20 13-6 4-24 19-20 14-11 8-19 14-2 1-16 13-30 25-23 20-11 9-5 5-7 6-8 8-38 34-33 33 11-5 77-40 29-15 32-17 32-15 28-14a5996 5996 0 0 1 115-54l27-11 7-3 25-10h1l18-6 17-6 1-1 21-21h1l11-11 11-10 14-10 4-3 1-1 1-1 2-1 7-5 3-2a281 281 0 0 1 10-7l9-6a477 477 0 0 1 50-29l8-3a223 223 0 0 1 30-14l2-1 13-5h1l4-2 12-4 11-4 13-3a339 339 0 0 1 39-10h1a173 173 0 0 1 18-3 170 170 0 0 1 17-2h5l4-1h5l-2 1-2 1-16 7-7 3-7 3-6 3-6 3-36 16-8 4h-1l-2 1-7 4a2247 2247 0 0 0 -103 53l-2 1-3 2-9 4v1l-9 5a3667 3667 0 0 0 -18 10v1a507 507 0 0 0 -25 15l-17 10a853 853 0 0 1 40-9h5l5-1 3-1 8-1a456 456 0 0 1 48-3h7l36 2 12 2 13 2 12 2 10 3 14 4a338 338 0 0 0 -27-3h-12a332 332 0 0 0 -32-1l-1 1h-10l-10 1a427 427 0 0 0 -64 10l-5 1a152 152 0 0 0 -10 3 555 555 0 0 0 -100 34c-33 14-66 29-98 45l-13 6h-1l-23 12-15 7-2 1-11 5-1 1-12 6-9 4-15 7-17 8a1361 1361 0 0 1 -57 27l-25 12 20-3a2011 2011 0 0 0 35-6l21-3 7-1a2484 2484 0 0 0 168-35l77-20 4-1h2l6-1 8-3-7 4-5 2-1 1-5 2-14 5-1 1-6 2a202 202 0 0 1 -18 7l-15 6-3 1-13 4-6 2a814 814 0 0 1 -43 12l-5 2-17 4a1230 1230 0 0 1 -33 7l-14 3-5 1h-3a899 899 0 0 1 -29 5l-5 1-11 1-6 1-18 2-9 1-22 1-7 1h-17l-9 1h-17l-29 13-3 2h-2l-96 42-11 12-2 2-34 38-2 3-2 3c-14 15-26 31-39 47l-6 8-13 16a464 464 0 0 0 -18 25h-1l-1 2-6 9 2-1 2-1 20-7 1-1 8-3 41-16 10-4 16-6 26-11a2778 2778 0 0 0 26-11l12-5 3-1 17-8 30-13 18-8h1a74 74 0 0 1 -6 4l-4 3-11 8-10 7-10 6-10 6-10 6-13 6-6 4-17 8-6 3-11 5-13 5a659 659 0 0 1 -87 28l-10 2-10 3h-2l-4 1-21 29-17 26-11 18-5 8-17 25-2 5-9 15-4 6-31 53-28 55-14 27-13 27-5 14-5 11-14 31-3 7a282 282 0 0 0 -8 21l-4 10-7 19a691 691 0 0 1 -14 37l-2 5a231 231 0 0 0 -5 15l-17 53-2 5-1 3-2 9 7-8 7-8 8-8 7-7v-1h1l26-23v-1h1l5-4 25-19h1l25-17h1l1-1 14-8 4-2a555 555 0 0 1 18-12l1-3 4-8 6-10 10-19 2-2 3-6 9-14c9-15 19-29 30-43l1-1 5-25 2-8 1-2 2-8a206 206 0 0 1 8-21l3-7 8-18 6-11a271 271 0 0 1 11-20l3-5 3-5 4-5c0-2 2-3 3-5l4-6 1-1 5-7 3-4 5-6 7-9s0 1 0 0l3-3 10-10v-1l9-9a390 390 0 0 1 137-88l4-2a298 298 0 0 1 69-17h6l8-1 11-1-17 6-8 3-10 5-17 7-17 8-2 1-27 14-2 1a416 416 0 0 0 -58 39l-4 2-7 6a322 322 0 0 1 -14 12l-5 4-5 4a193 193 0 0 0 -12 11l-1 1-7 7a555 555 0 0 0 -105 146l2-2 2-3a658 658 0 0 1 114-99l8-4 8-6 19-10-11 12-53 58-61 70-35 41-10 12-16 18-14 18-7 8-8 10-1 1h2l3-2 13-5a310 310 0 0 1 49-16h1a606 606 0 0 1 15-4h2a600 600 0 0 1 34-6l2-1h5l3-1h4l29-3h7a218 218 0 0 1 32-1 442 442 0 0 1 49 5h3l7 2h3l21-59 7-17 18-40 5-12 8-17 9-17a1127 1127 0 0 1 15-28l2-5 4-6 6-12 5-8 7-11 4-6 11-18 12-18 1-1 5-7 6-9 1-1 1-1 10-13a1279 1279 0 0 1 30-37l9-11a409 409 0 0 1 42-43l10-10 11-10 12-10-18 20-7 7-5 6-2 3-14 16-1 2-14 17-7 9-9 13-2 2a540 540 0 0 0 -33 49l-2 2-5 10-9 13-4 8a590 590 0 0 0 -13 23l-5 10a1180 1180 0 0 0 -41 83l-8 19-4 10-2 4-1 2-1 3-1 4-2 4-1 2-7 21-2 5a1560 1560 0 0 0 -17 47l-3 9-2 7-3 10-2 7-5 17c-6 18-11 37-15 55l-6 24-1 2-4 19-4 16v1l-4 17-1 3-3 15v1l-3 15-6 31-4 20-1 6v1l-6 37-1 4 2-5 1-2 13-22 14-21 7-11 8-10 16-19 9-10a346 346 0 0 1 28-27l3-3 16-13 21-16 21-14a361 361 0 0 1 22-13h1l6-3a270 270 0 0 1 41-20 354 354 0 0 1 46-15l-19 13-55 38-8 6-9 7-10 8-19 15-6 5-3 3-2 2-2 2-5 5-11 10-7 6-9 9-8 8-17 18c-12 11-23 23-33 36l-16 18-16 20-3 4a553 553 0 0 1 -19 24l-3 2-1 2-1 6-2 12-1 6-3 18-10 73-7 48-1 4v6l-2 12v5l-1 7-1 8 2-1 3-2 8-4 4-2a1270 1270 0 0 0 71-43 1101 1101 0 0 0 32-21l1-1c14-9 28-20 41-30l13-10a679 679 0 0 0 37-30l12-10 2-1 9-9 3-3 10-9 12-11 3-3a363 363 0 0 0 21-20l14-14 19-20-8 14v1l-8 12-7 10a255 255 0 0 0 -11 15l-4 6a401 401 0 0 1 -8 11l-5 6-2 2-1 1-3 5-8 9-11 13-1 1-1 2-26 27-10 10a865 865 0 0 1 -96 80l-37 24-11 7-11 6-23 12-3 2h-2l-15 8-1-3-2-4-1-3-1-1 1 13v9l1 3 1 6 1 4c1 8 4 15 7 22l2 4v2l2 4h1v2a62 62 0 0 0 6 8v1l4 5 1 1 2 3-1 1v1l-3 2v1l-1 1-6 5 5-2 2-1h1l1-1 3-1 17-8c31-15 61-31 91-48l9-5a1081 1081 0 0 0 89-59l2-1 3-2 15-11 1-1 12-9 4-3 5-3 3-3 10-8 41-33 7-6v-1l14-12 7-7 3-2 5-5a394 394 0 0 0 34-33l2-1 16-17 18-20 4-4-2-4-2-3-2-3-5-11-1-3-2-6-3-9-2-6-1-4-7-30-3-16a384 384 0 0 1 -5-67v-7l-1-17 1-65v-8a3444 3444 0 0 1 8-137v-7l2-10a815 815 0 0 1 6-46v-1a955 955 0 0 1 13-70l4-17 2-13 2-6 5-20a804 804 0 0 1 22-79l-11-29-3-9-5-14a956 956 0 0 1 -29-118l-1-6v-3l-1-3-1-3v-4l-2-10v-4l-1-4v-7l-2-12v-12l3 4 4 7 1 2 4 7 1 1 2 4 1 2 3 6 1 2a390 390 0 0 1 33 92 200 200 0 0 1 3 12l4 20 6 36 1 8 13-40 18-55a152 152 0 0 1 5-14l6-15 19-55 10-26 6-16 5-13 4-7 2-5 2-6 1-2 2-4v-1l1-2 1-3 7-15 9-17a165 165 0 0 1 7-12l6-10 6-10 1-2 6-8 1-1 4-7a244 244 0 0 1 11-13l1-2 1-2 2-2 3-3 11-12-6 8-3 4-5 8-2 3-5 6-1 2-6 9-5 9-2 5a449 449 0 0 0 -21 42l-4 10v1l-2 6-1 2-2 5-2 6-1 2-2 6-2 5-2 7-3 8-5 15-1 3-1 5-1 3-1 1-5 17-3 10-9 31-7 24-9 29-5 18-6 21-3 8-1 4-5 18-5 17-1 6-2 6-8 30-4 16-4 16-1 5c-2 4-2 8-3 13l35-64 11-21a186 186 0 0 0 9-18l3-5 15-30 15-30 9-18 2-6 4-9 6-12 3-6 4-9 1-2 2-4v-2a481 481 0 0 0 17-38l22-53 22-54-4 17-3 15-3 9-4 14-2 7-2 5v3l-2 5-3 8a989 989 0 0 1 -26 71l-3 8-3 6-2 5-2 6-1 1-3 6-2 6-5 11-8 17v1l-3 5-11 22-7 13-8 15-6 10-3 6-2 4-1 1-2 3-4 8-3 3-1 2-5 10c-16 25-32 49-50 72l-1 7a1393 1393 0 0 0 -21 107 1342 1342 0 0 1 122-96l8-6 6-5 3-2 23-16h1l3-2 12-9 8-5 1-1 2-1 16-10 4-2 1-1h1l10-7 2-1a440 440 0 0 1 25-14l7-3a289 289 0 0 1 -35 39l-1 2-12 11-1 1-1 1-1 1-11 10-14 12v1l-12 10-2 2-23 18-1 1-2 1-2 2-1 1a399 399 0 0 1 -47 33 763 763 0 0 1 -48 29l-10 6-20 10-13 7-1 7-2 15-1 6-2 17-1 10v6l-1 4c-4 47-5 94-7 142 0 48-3 96 0 142l2 19 1 9v6l1 4v2l2 10 1 5 1 5 1 1v2l1 5 5 15 1 3 3 8a493 493 0 0 0 36-44l3-3 16-21a1308 1308 0 0 0 36-50l1-2 7-10a1295 1295 0 0 0 126-247l8-21 7-21 2-6v-2l1-4 1-2a204 204 0 0 0 6-19l4-13v-2l2-7 2-6 5-21 7-27v-1a10972 10972 0 0 1 13-54v-2l1-3 1-7 1-4 11-49 16-79 2-9 3-14 2-9 12-55a400 400 0 0 1 -49-96l-5-14-5-15a571 571 0 0 1 -8-28l-1-2v-1l-5-23-1-6a146 146 0 0 1 -4-21l-1-12a189 189 0 0 1 14 20l4 5a423 423 0 0 1 41 85 558 558 0 0 1 24 81l1 2 3-14 2-9 8-39 2-9 19-91 4-17 2-9 3-14 2-9 2-10 2-9a1270 1270 0 0 1 8-38l17-77 4-18-2 16-1 4-4 25-1 11-10 63a29275 29275 0 0 1 -9 53l-4 27-2 10-19 120-2 10-7 46-2 12-2 11-5 29-8 47-3 20-2 9-8 46-4 25a28793 28793 0 0 0 -15 83l12-6 3-2 13-8 12-6 5-3 2-2h1l2-1a341 341 0 0 0 27-18l2-1 5-4 19-13a620 620 0 0 0 37-28l7-6 5-4a222 222 0 0 0 22-19l3-3-1-5-1-6v-3l-2-17-2-23v-4l-2-26v-52l2-50v-3l1-5v-6l1-11 1-7v-3l2-17 1-12 1-6 1-6 1-6 2-17 1-2 2-13a1271 1271 0 0 1 14-72l5-23a951 951 0 0 1 6-24l1-1 1-7 2-6 5-17 2-7 6-20v-1a786 786 0 0 1 14-42l-1-10-1-14a425 425 0 0 0 -5-43 649 649 0 0 0 -26-115l-8-22-8-22-5-12-4-10-5-11-3-7a1057 1057 0 0 0 -24-48l7 6 4 4a268 268 0 0 1 38 46h1l6 10a567 567 0 0 1 29 56 400 400 0 0 1 26 137l5-11 2-6 21-48 24-46 25-45a3812 3812 0 0 1 27-44l-14 31-8 15-21 48-19 47-17 48a567 567 0 0 1 -8 23l-3 9-3 10-3 12-4 12-1 2-5 19-2 9-5 20-2 6-3 12a507 507 0 0 0 -5 21v3l-1 4-4 18-3 18a842 842 0 0 0 -12 79l-2 20-1 5-1 6-1 18 5-6 2-2 10-11 2-3a328 328 0 0 1 22-23h1l8-9 9-9a1052 1052 0 0 1 68-62l2-2 2-2 8-6 2-1a410 410 0 0 1 11-8l-2 4-1 4a182 182 0 0 1 -10 21l-2 4h-1l-3 5-1 3-4 5a1081 1081 0 0 1 -17 23l-3 5a251 251 0 0 1 -8 10l-9 9-10 10-2 2-1 1-1 1-3 3-4 4-6 5a148 148 0 0 1 -18 15l-2 1a253 253 0 0 1 -25 17l-2 1-7 4-5 3-2 1-5 3v6a2248 2248 0 0 0 -2 48l-1 15v14l-1 22v50l1 50a1034 1034 0 0 0 167-226 142 142 0 0 0 5-11l1-3v-2l1-6v-10 5l1 10 4-11 1-2 1-1v-2l3-7a193 193 0 0 0 7-22l2-5v-1a481 481 0 0 0 8-34 348 348 0 0 0 6-35v-1l1-9 1-13c5-41 6-83 9-125a634 634 0 0 1 13-77 181 181 0 0 1 4-12v-2l1-1 1-5 4-12 6-15a393 393 0 0 0 -15 82l-1 11-1 31c-2 42 0 84-1 127l-1 20-1 10a358 358 0 0 1 -5 39v4l-1 4-2 12-2 6-2 8-1 4-2 9-1 3-2 5v3l-8 20-1 3v1l-3 7-2 6v1a242 242 0 0 1 -11 22l-8 17v54l-1 3-1 20v13l-1 7v6l-1 5v5l-1 7-1 13v1l-1 13v4l-2 15-1 4-2 18-2 20a668 668 0 0 1 -7 40v1l-2 10-2 10v3l-3 12-5 26-3 14-2 6-4 16-3 14-4 16-6 19-4 15-1 4-3 8-3 9v3l-1 2v1l-3 7a374 374 0 0 1 -9 28l-3 8-2 6a1311 1311 0 0 1 -86 196l-10 19-2 4-2 2-3 7 3-3 19-17 17-17 2-2a923 923 0 0 0 36-37l4-4 2-4 9-10 9-10 2-2 18-23 4-5 17-23 3-4 4-6 14-20 6-11 2-2 20-33 4-8 2-3 2-4a668 668 0 0 0 12-22l7-13 3-5 4-8 4-8 2-2a157 157 0 0 0 9-19l6-11 1-2 5-10 9-19 8-16 11-21 1-1 2-5 9-18 3-5 2-4 1-2 2-4 12-23 9-16 1-1 1-4h1a1005 1005 0 0 1 38-65 2100 2100 0 0 1 -46 124l-2 6-2 4-5 12-5 12-5 13-6 14-3 8-3 7a415 415 0 0 1 -18 40l-2 4-2 5h-1l-8 17-3 6-6 12-2 4-8 16-9 16-4 8h-1a373 373 0 0 1 -12 20l-1 3-1 1-21 32-1 2-8 10-19 25-2 2-3 4-4 4-14 17-4 4-1 1a328 328 0 0 1 -28 28l-4 4a140 140 0 0 1 -13 12l-6 5-3 2-28 23-9 6a603 603 0 0 1 -29 20l-9 5v1h-1a61 61 0 0 1 -6 4 851 851 0 0 1 -47 76l-7 11-5 8-3 4-5 7-2 3-3 4-8 12-5 6-4 6-1 2a1273 1273 0 0 1 -19 25l-5 6-14 18-14 18-1 1-12 14-7 9h-1l-7 9-9 10-5 6 7-3 20-9h1l34-16h1a1026 1026 0 0 0 73-39l5-3 4-3a569 569 0 0 0 110-95l7-9v-1c4-3 6-7 9-11l9-11a353 353 0 0 0 27-47l4-9 5-10 4-9 3-8 5-13 2-6v-1l1-3 2-7a133 133 0 0 1 0 14v5a234 234 0 0 1 -3 24l-2 7-1 6-1 6-1 1-2 7-2 8-2 6a243 243 0 0 1 -19 41 371 371 0 0 1 -72 92 579 579 0 0 1 -65 47l-19 10-11 5v1l-12 5-9 4-9 4a563 563 0 0 1 -81 23h-1l-6 1-7 1-9 2h-6l-52 55-28 27-5 4-5 6-4 3-15 13a1598 1598 0 0 1 -87 72l-3 2-7 5h-1l-2 2-12 8-3 3-4 2-12 9a200 200 0 0 1 -19 12l-31 19 6-1 7-1h3l16-2a627 627 0 0 0 63-13l7-2a215 215 0 0 0 12-3h1a513 513 0 0 0 122-51l10-6 9-7 13-8 4-3 8-6 6-5a426 426 0 0 0 82-88l-2 8-4 10-1 1-4 10-3 6-2 4-5 8-3 7-4 5-5 8-5 7-2 3-1 1-2 3-2 2a267 267 0 0 1 -13 15l-1 1a264 264 0 0 1 -16 17l-2 1-7 6-7 6-2 2a76 76 0 0 1 -8 6l-9 6-10 7-2 2a417 417 0 0 1 -29 16l-5 3-3 1-16 8a389 389 0 0 1 -80 24l-11 2h-1l-14 2h-1l-10 1-10 1c-30 3-60 2-89-1a995 995 0 0 1 -294 110l-12 3-46 8-17 3h-3a1078 1078 0 0 1 -60 8l-126 9h-26l-3 1h-4l-35-2 15 6 10 3 3 1a1039 1039 0 0 0 47 14l4 2 20 5a883 883 0 0 0 63 13c5 1 11 3 17 3a524 524 0 0 0 31 5l15 2a1772 1772 0 0 0 36 4l1 1h4l17 1 13 1a570 570 0 0 0 48 3h2l21 1h24a1365 1365 0 0 0 252-21l6-1a1189 1189 0 0 0 49-9l4-1 12-2 31-7 18-4a1308 1308 0 0 0 169-55l14-15a5004 5004 0 0 1 32-34l9-9a1795 1795 0 0 1 22-23l8-7a731 731 0 0 0 10-11l38-39 9-8 7-8 15-14 1-1 7-7 35-34a219 219 0 0 0 13-13l9-9a486 486 0 0 0 31-36l6-9 4-5v-2l3-5 3-5 4-7 2-5a299 299 0 0 0 12-27l3-8 6-17 5-15 3-9 9-29 12-34 5-10 3-8 6-11a244 244 0 0 1 7-13l5-8 1-1 2-4 3-4 2-2 4-5 2-3 3-4 5-5-5 8h-1l-4 8-1 1-1 2-1 1-1 1-2 4-3 6-3 5-4 10-3 7-1 1-6 17-1 4-1 4-1 3a496 496 0 0 0 -11 41l-3 11-8 32-1 4v2l-3 11a224 224 0 0 1 -4 12l-2 4v3l-1 1-1 4-2 5-1 4-4 9-4 8v1l-4 8-3 5-2 4-4 6a260 260 0 0 1 -33 45l-13 13v1l-1 1-12 12-31 32-7 7-27 26-8 8-12 12a3955 3955 0 0 1 -34 34v1l-11 10h-1l-11 11-10 10h-1l-15 16h-1l4-2 6-4 4-2 5-3 4-3 5-3 5-3 5-3 6-4a301 301 0 0 0 15-10l12-9a817 817 0 0 0 36-27c17-14 33-27 48-42l16-14 13-12 1-1 16-15 19-19 8-8 14-14 35-36 5-6 15-16 4-5c18-19 34-39 51-59l2-7 3-9 3-10 6-17 2-8 4-13 1-3 6-18 5-16 19-53 25-69 5-14 1-5 4-10v-1l2-7h1v-2l2-8 1-3 2-8 1-9 1-9v-1l1-9v-28l-1-1v-2l-1-10v-6l-1-4-8-73v-9a263 263 0 0 1 1-26l1-8v-1l1-9 2-8 1-1v-2l1-1 2-8c-5 24-4 49 1 72l9 48v1l2 6 1 3v4l2 9 1 5a346 346 0 0 1 5 70 101 101 0 0 1 -2 16l-2 6-1 5-3 12-1 5-5 17-1 3-3 9-24 69-12 34-13 34-8 22-3 9 1-2 13-18 14-18a1648 1648 0 0 0 85-135v-2l-1-6-1-6-1-14v-14a275 275 0 0 1 2-30v-2l2-23c4-36 10-72 17-108 13-71 29-142 38-212 9-71 9-143-5-213a391 391 0 0 0 -42-112v-1l-6-10-5-8-1-1-5-7a369 369 0 0 0 -15-20l-3-3-8-9-3-3-1-1-3-4a251 251 0 0 0 -3-3l4 3 4 2a266 266 0 0 1 36 38 181 181 0 0 1 17 24c2 3 5 6 6 10a398 398 0 0 1 55 162l1 4v8l1 1 1 12 1 12v1a235 235 0 0 1 1 32v15a617 617 0 0 1 -1 45l-1 14-2 14-2 18-2 19-1 2-1 12-7 38v2l-2 9v2l-2 11-1 4-4 20-16 78c-8 35-15 70-21 106l-7 57a611 611 0 0 1 -3 19l8-15v-1l8-15 9-17 8-18 15-34 1-2 2-5 5-13 6-14a1069 1069 0 0 0 22-61l2-8 3-11 1-3a283 283 0 0 0 8-26l10-44 1-5 4-18 5-29 1-9 2-11 2-14v-2l2-15a272 272 0 0 0 2-22l2-31 1-19v-13a826 826 0 0 0 -62-334v-1l-7-16-5-10-4-8-4-8a703 703 0 0 0 -9-21l2 2 9 15a731 731 0 0 1 28 55l1 2a633 633 0 0 1 21 49l5 16a297 297 0 0 1 11 35 451 451 0 0 1 18 68 650 650 0 0 1 8 49l3 18v2a623 623 0 0 1 4 37l1 13 1 28 1 27v14a946 946 0 0 1 -9 123l17-44 2-8a391 391 0 0 0 7-25l1-5 3-9 2-11 2-10v-1a487 487 0 0 0 7-40l2-13c9-83 3-168-14-249l-3-16a1061 1061 0 0 0 -40-136 1881 1881 0 0 0 -85-205 2974 2974 0 0 0 -54-116 4500 4500 0 0 1 120 226c36 77 66 158 85 242a763 763 0 0 1 -1 344l-2 9-2 5-1 4-1 5-1 3-2 4-3 9-10 28-6 13-6 14-17 31-4 7-8 13-1 6-1 2-4 16-4 20-4 13-4 15-4 13-1 3-2 8-2 7-5 14-6 18-7 19-26 65h-1v1l-5 12-12 25-1 2-6 11-4 9 2-1 8-6h1l33-27 3-2a361 361 0 0 0 70-84l8-12 4-9 7-14 5-9 1-2 1-3 5-12 5-14 9-26 11-31a1918 1918 0 0 1 30-76 1402 1402 0 0 1 -32 144zm-750-235-26 12-2-5-2 9-3 16-4 13-1 7a933 933 0 0 1 -19 66l-1 3-1 4-2 5-2 9-13 35a527 527 0 0 1 -15 38l-6 13-1 3-6 13c-2 6-4 11-7 15l-7 16a1680 1680 0 0 1 -27 53l-7 12v1l-6 10a2115 2115 0 0 1 -21 35l-9 15a1155 1155 0 0 1 -123 163l-8 9-3 3-1 2-7 7-19 20-20 20a2177 2177 0 0 1 -52 49l-2 1-32 28-7 6-7 5-8 6-18 15-14 10 11-3h1l10-3 6-2 14-4 15-6 71-28 13-6h1l17-7h1l2-1a920 920 0 0 0 23-20l2-2 14-12 28-27 9-10a553 553 0 0 0 18-18l2-2a778 778 0 0 0 67-84l1-1 22-33 1-1a438 438 0 0 0 13-21 1123 1123 0 0 0 44-76l44-77 44-76 11-18 2-3 8-14 1-1 1-2 14-22 2-3 9-13a377 377 0 0 1 -12 29l-1 4-14 33-14 32-1 2v1l-14 31a4475 4475 0 0 1 -53 112 1387 1387 0 0 1 -86 138l-6 8-4 5-8 9-1 1-14 17-2 2-1 1-8 9-2 2a558 558 0 0 1 -28 27l-4 4-2 3-4 3a558 558 0 0 1 -55 43l19-8 21-9a1655 1655 0 0 0 50-23l1-1 9-4 1-1 5-3 3-1 3-2a368 368 0 0 0 26-13l11-6 12-7 10-6 20-12 18-12 2-1 7-5a595 595 0 0 0 56-42 683 683 0 0 0 61-57 906 906 0 0 0 52-96l4-9 3-6a337 337 0 0 0 18-44l9-24 6-19 5-14 2-8 24-84 22-86a2118 2118 0 0 1 15-58l8-28 8-28 5-14 13-43a2455 2455 0 0 1 -46 279l-6 25a377 377 0 0 1 -13 45l-2 8h-1a688 688 0 0 1 -13 40v1h-1v1l-6 14-1 5-4 8-4 9-3 7-2 4v1l-1 2-2 5 1-2 1-2 1-1 12-18 11-17a408 408 0 0 0 25-43l9-15a789 789 0 0 0 10-20l1-2 8-16 2-3v-1a1203 1203 0 0 0 64-162l5-13-13 61-1 5-2 7 8-20v-1l8-20 6-17v-1l9-27 2-6 4-9 1-5 1-4 1-2 1-2 3-11 2-8 1-4 3-8v-1l2-7 4-13 1-4 6-22a1688 1688 0 0 0 11-48l2-7v-1l1-5 2-8 3-16 3-16a1095 1095 0 0 0 13-79l1-6v-3l1-7v-3l2-11 1-18 4-38a653 653 0 0 1 -38 62l-14 20-9 13-10 13-16 20v1h-1v1l-2 2-1 2-6 7-1 1-7 8-7 8-10 12a751 751 0 0 1 -55 56l-9 8-7 6v1l-2 1v1h-1l-4 4-2 2-2 2-2 1-1 1a574 574 0 0 1 -29 24l-2 1-8 6-31 23-16 10-11 7-5 3v1l-2 1h-1l-11 7-3 1-12 7-2 1a455 455 0 0 1 -24 13zm-1078 923a467 467 0 0 0 31-5 1364 1364 0 0 0 174-44 1236 1236 0 0 0 82-32l11-4 4-2 7-3-7-6-3-5-4-5-4-6h-1v-2l-3-4-2-4c-5-10-9-21-12-32l-1-5c-5-26-6-52-4-78 1-25 4-50 7-74l9-75 6-40v-7a878 878 0 0 1 6-36l1-6 8-46 4-20 2-14 5-23a716 716 0 0 1 8-37l3-14 6-21 4-19 2-6 1-4v-1l1-3 1-4 1-4 5-17 3-10 3-9 2-7 3-8 4-13v-1l2-6a734 734 0 0 0 -125 19l-17 4-7 2-13 4h-3l-3 1-2 1-13 4-8 3-19 6-4 1-4 2a273 273 0 0 0 -30 12 805 805 0 0 0 -95 48l-2 1-17 10-1 1a726 726 0 0 0 -34 23l-4 3a572 572 0 0 1 -15 11l-1 1-28 22-1 7-1 3-3 9-2 8-3 11-1 2-1 7-1 2-3 12-8 36-7 37-2 10-1 1v5l-1 4-1 3-3 20-1 8-1 14-1 3v8l-1 13-1 12a690 690 0 0 0 2 91 291 291 0 0 1 18-23l6-7a367 367 0 0 1 21-21v-1a269 269 0 0 1 20-17l2-2 10-7 2-2 6-4 6-4v-1c20-13 41-25 63-35h3l4-2 7-3 2-1 15-5 5-2 12-3 2-1 3-1 5-1 10-2 6-1 9-2h5l9-1-16 9-19 10-13 7-2 2a348 348 0 0 0 -29 17l-4 2-2 1-13 9-3 1-6 4-3 2-4 3h-1a972 972 0 0 0 -43 31l-3 2-10 8-9 7-3 3-3 2-17 14a228 228 0 0 0 -19 17l-3 2-3 3-21 19 1 5v2a222 222 0 0 0 4 23c1 12 3 23 6 34l3 15 3 13 3 10 8 28 4 14 5 14 1 3 11 26 4 10 2 4a566 566 0 0 0 18 37l5-1h4l1-1 7-1h5l3-1h5l8-1zm50 56 16-3h1l14-2 6-1 6-1 13-2 16-2 41-5h3l10-1 11-1 10-1h6a2329 2329 0 0 0 100-12l32-4 16-3 20-3 58-12 16-4 15-3 17-5 19-5 36-10 31-11 4-1 7-3 11-3 17-7 8-3 4-2 15-6 7-3a299 299 0 0 0 23-10l8-4 9-4 4-2 17-9 1-1 15-7 2-1 16-9 4-3c86-49 167-110 239-179l12-11 8-8 10-10a1002 1002 0 0 0 36-37l5-5 10-12 10-10 9-10h-1l-2 2-5 4-8 7-10 7-15 12-16 11a336 336 0 0 1 -30 19l-3 2-22 13-11 6-10 6h-1l-11 6-1 1-11 5a1042 1042 0 0 1 -87 39l-4 2-7 3-5 2-11 4-2 1a1366 1366 0 0 1 -84 30l-1 1-15 5-33 11a1828 1828 0 0 1 -85 23l-6 1a198 198 0 0 1 -21 3h-4l-8 7-7 4a1550 1550 0 0 1 -72 46l-9 6-9 5-18 10v1l-18 9-18 10-18 9-70 32-4 2a1229 1229 0 0 1 -26 11l-6 2a990 990 0 0 1 -114 38h-1l-18 5a1052 1052 0 0 1 -56 14l-12 2-2 1-14 2-5 1-17 3 12 5 2 1z" fill="#9087e9" fill-opacity=".8"/></g></svg>