<svg xmlns="http://www.w3.org/2000/svg" fill="none" viewBox="0 0 321 171">
  <ellipse cx="160.5" cy="153.5" fill="#9087e9" fill-opacity=".3" rx="160.5" ry="17.5"/>
  <g id="grot-cta-cactus-1" fill="#9087e9">
    <path d="m12.5 76.3-.1.3-.2.1H12c-.1 0-.2 0-.2-.2l-.2-.3a4.4 4.4 0 0 1-.6-1.7c-.2 2 0 4.3.2 6.4l.1 1c1.1 11.3 7.4 19.7 18.7 25.2V93.7c-.9-.3-1.8-.7-2.6-1.7-2.2-2.5-2.9-6.2-3.4-9.5l-.3-1.4-.2-1.3c-.6-3.3-1.2-6.8-3-9.4a4.7 4.7 0 0 0-3.9-2.2c-1.5 0-3 .7-4 2-.7 1-1.2 2.1-1.4 3.4v-.2l.2-.1h.1l.2.4.2.4.5 1.6v.6Zm13 21v.2l-.2.3h-.1c-.2 0-.2-.1-.3-.3V96.1h.1a4.6 4.6 0 0 1 .5 1.2Zm-1.7-9.5.1-.2.2-.1h.2l1 1v.5l-.1.2H25c-.3 0-.5-.2-.6-.4l-.5-.5v-.5Zm.4 13.8.1.3v.4c0 .2-.1.3-.2.3 0 .2-.1.2-.2.2h-.1c-.1 0-.2 0-.3-.2a32.3 32.3 0 0 1-1-1.6v-.7l.2-.1h.2l1.3 1.5Zm-2.3-21.2.2-.3.2-.1h.2l.1.3c.1.7.3 1.3.6 1.8v.4a1 1 0 0 1-.2.7l-.3.1h-.2l-.2-.3a4.2 4.2 0 0 1-.5-2l.1-.6ZM20 72.8l.1-.7c0-.2.1-.3.2-.3l.2-.2.2.1.2.3.1 1.5v.4l-.1.2h-.1l-.1.1h-.4l-.1-.1-.1-.1V72.8Zm-.7 17.3.3-.2h.1l1.1.4h.2v.3h.1v.6l-.1.2h-.4c-.3 0-.7-.2-1-.4-.2 0-.2-.2-.3-.3v-.6Zm-2.5-10.6v-.2l.2-.2h.2l.2.1.3.5.3.5.1.3v.3l-.2.3-.3.1h-.1a.8.8 0 0 1-.3-.3l-.4-1v-.3Zm0 14v.7h-.1l-.2.2c-.5 0-.7-.2-1.1-.5l-.2-.3V93l.3-.2h.2l.5.2.4.4.2.3Zm-1.6-24.4V69c0-.2.1-.2.2-.3H15.7l.3.3.2.6.1.3v.4l-.3.3-.2.1h-.2v-.1l-.3-.4-.1-.7v-.3ZM14 82.8s0-.2.2-.3h.2c0-.1.1 0 .1 0 .2 0 .2 0 .3.2l.2.5.2 1.8v.4l-.2.2-.1.2H14.3a.8.8 0 0 1-.2-.5L14 84v-1.2ZM60.2 62c0-20.3-7-23-14-23s-14 2.7-14 23l-.2 8.3c-.2 17.3-.7 53.5.5 60 2.6 14.1 7.7 14.1 11.7 14.1H48c4.1 0 9.2 0 11.9-14.3 1.1-6.4.7-42.5.4-59.8V62Zm-26.7-3.4.3-.4h.4l.1.3v.8l-.3.3-.1.3-.1.3-.2.1h-.1a.4.4 0 0 1-.2-.3c-.2-.5 0-1 .2-1.4Zm-.4 40H33l-.2.1h-.1l-.2-.1V98a16.4 16.4 0 0 1 .6-2.4c0-.1 0-.2.2-.2l.1-.1h.2l.2.2v.6l-.2 1.2-.5 1.1Zm0-21c0 .2-.1.2-.2.2h-.1l-.1-.2v-.4a11 11 0 0 1 .7-1.7h.2l.2.3v.5a10.3 10.3 0 0 1-.7 1.4Zm.5 40.1.2-.2H34l.2.2v.5c0 .4-.2.7-.3 1l-.4 1.1-.1.2-.2.1h-.2l-.1-.3v-.2c-.1-.2-.1-.3 0-.4l.2-1 .4-1Zm-1.2-51.3v-.3h.4c.5.5 1 .8 1.3 1.4V68.4l-.3.2-.2-.1c-.5-.5-.8-1-1.2-1.6v-.5Zm-.4 19v-.2l.2-.2.2-.1h.1a28.7 28.7 0 0 1 1 2.1v.3l-.2.3-.2.1h-.2a.6.6 0 0 1-.2-.3l-.7-1.6v-.3Zm0 22.2V107.3h.3l1.1 1.4.1.4v.4l-.2.4-.2.1h-.2a.6.6 0 0 1-.3-.3l-.7-1.9v-.2Zm2.4 21.9-.2.3-.2.1-.4-.1-1.2-1.8V127.4H32.7l.8.7.7.7.2.3v.4Zm.3-77.7-.1.2-.2.2-.3.1-.2-.1a.7.7 0 0 1-.2-.4l-.2-1.4v-.2l.2-.1.1-.2H34.1l.2.2.4 1.2v.4Zm1.5 86.2v.3l-.3.2h-.2l-.1-.2-.2-.2v-.3l-.1-1 .1-.6.4-.2.2.1h.1l.2.6v1.3Zm7.4-30.5.5-1.5c0-.2.1-.2.2-.3h.4l.2.3.1.3v.5l-.8 1.8-.2.1h-.2a.7.7 0 0 1-.3-.4v-.3l.1-.5ZM43 81.2h.2l.1.4v.7l-.9 1.2-.1.3H42a.4.4 0 0 1-.2-.2l-.1-.4c0-.3 0-.8.3-1.2.1-.3.4-.7.8-.8h.1ZM41.5 70l-.2-.1-.2-.3V69a9.5 9.5 0 0 1 1-1.6l.2-.2.3.1.1.3.1.4v.3l-1 1.6-.3.1Zm0-19.7.4-.7.2-.2h.4l.2.2.1.3V50.8l-.7.8h-.6v-.1l-.2-.3V51l.2-.8ZM40 42v-.2l.2-.1.1-.1h.1l.2.2.6 1.2v.8l-.2.3h-.5c-.2-.1-.2-.3-.3-.4v-.8l-.2-.7V42Zm-.4 15.5c0-.2.1-.3.2-.3l.2-.2h.2l.2.3.5.8.1.4v.5l-.2.4-.3.2a.5.5 0 0 1-.3-.3c-.4-.4-.5-.8-.6-1.3v-.5Zm1.8 52c0 .2-.1.2-.2.3l-.2.2c-.2 0-.3-.1-.3-.2l-.7-1V108h.4a21.9 21.9 0 0 1 1 1.2v.4Zm-2.8-34.7v-.3l.1-.3h.5l1.3 1.5.1.1v1l-.2.2H40a4 4 0 0 1-1.4-2v-.3ZM39.7 91l-.8-1.2v-1l.2-.1h.2l1 1.2.2.3v.5l-.2.3-.3.1-.3-.1Zm0 24.9v-.5l.2-.2.1-.1.3.1 1.2 1.6.1.4v.5l-.2.3-.2.2H41a.6.6 0 0 1-.2-.3l-.5-1-.5-1Zm2.1 13-.1.2-.3.2c-.2 0-.2-.1-.3-.2 0-.2-.2-.3-.3-.5l-.3-.5v-.9h.4l.8 1 .1.2v.4Zm.8-29.7c-.2.7-.5 1.2-1 1.6l-.2.2-.2-.2v-.3l-.1-.3v-.3l.4-.8.6-.6.2-.1h.2l.1.3v.5Zm1.2 39.1a24.8 24.8 0 0 0-.5 1h-.2l-.1-.2-.1-.3v-.2l.5-.9.1-.1h.2l.1.2v.5Zm.7-8.2-.4 2.2c0 .2-.1.3-.2.3l-.2.1h-.1l-.2-.1v-.2c-.1-.2-.1-.3 0-.4l.3-2.2c0-.2.1-.3.2-.3l.2-.2.2.1.1.1.1.2v.4Zm.7-10.4-.5 1.6v.4H44l-.1-.2-.1-.3V120c.1-.5.3-1 .7-1.3h.4l.1.3v.6Zm7.2-41 .1-.3.3-.1h.2l.2.2v.2l.1.1v.3c0 .5-.2 1-.3 1.4l-.1.3h-.4l-.1-.1-.2-.2V80l.2-1.3Zm-.2 15.9H52a.7.7 0 0 1-.3-.4v-.4a19.9 19.9 0 0 1 .7-2.9H52.7l.2.2.1.3v.3a22.1 22.1 0 0 1-.6 2.7c0 .2-.1.2-.2.2Zm-.5-28.4a1.9 1.9 0 0 0 .2.2v.2l.1.4c0 .3 0 .6-.2 1l-.1.1h-.3l-.1-.3c-.2-.3-.2-.6-.2-1v-.5l.2-.1h.4ZM50.9 50h.4l.2.4v.8c-.4.5-.7 1-.8 1.5l-.1.2h-.4l-.1-.2-.1-.3c0-.8.2-1.6.7-2.3l.2-.1ZM49 59v-.2l.3-.1h.2l.7 1v.8l-.2.1-.3-.1-.7-1V59Zm0 14.3.2-.3h.5l.6.7v.8l-.1.4-.3.2h-.1a.6.6 0 0 1-.3-.3l-.4-.9V73.3Zm.6-32.7.2-.5.5-.3h.1l.2.1.1.3v.4l-.2.2-.1.1-.1.2-.2.3h-.4l-.1-.4v-.4Zm-1 3.8a.9.9 0 0 1 .3-.5l.1-.2.3.2a66.8 66.8 0 0 1 .8 1.8v.3l-.2.3h-.4a.5.5 0 0 1-.2-.2l-.6-1.4v-.3Zm-.1 40.8v-.4l.2-.3c.1-.2.2-.2.3-.2l.3.1c.6.7 1 1.3 1 2.2v.3l-.1.1-.1.2H50l-.2.2h-.4L49 87c-.3-.4-.5-1-.6-1.5v-.3Zm.4 13.9v-.6l.3-.2h.3l1.4 1.3.1.2v1.1l-.2.2h-.2l-.2-.1-1.4-1.6-.1-.3Zm.1 14.4v-.8l.2-.2h.2l1 .8.2.2V114.5l-.1.2-.2.1H50a.7.7 0 0 1-.3-.1l-.4-.6-.4-.5Zm.5 14.2a1.2 1.2 0 0 1 .2-.6h.4l1 1.5v.8c0 .2-.1.3-.2.3l-.3.2h-.2v-.1l-.3-.3a6.1 6.1 0 0 1-.6-1.6v-.2Zm1.6 13.4v.2l-.1.2-.2.2h-.5c-.5-.4-.7-1-.8-1.7v-.2l.2-.2.2-.1.3.1.6.6.2.2v.7h.1Zm.8-6c0 .4-.2.8-.4 1.2l-.2.1h-.1l-.2-.2v-1.5l.2-.3.2-.2h.2l.2.2v.3l.1.3Zm1.4-15.6-.1.3a3 3 0 0 0-.7 1.5l-.1.3H52v-.1l-.2-.3v-.6l.7-1.7.2-.2h.1l.2.1a1 1 0 0 1 .3.6v.1Zm.2-13.8a34 34 0 0 0-1.2 2.7h-.2l-.2-.2v-.2c0-.1-.1-.2 0-.2 0-.9.2-1.6.5-2.4l.4-.7.1-.2H53.2l.3.2v.2c.2.3 0 .6 0 .9ZM59 57h.2l.2.1.1.3v.5l-.1.3-.2.2v.6l-.1.2H58.8a.5.5 0 0 1-.2-.2l-.2-.5V58c0-.4.3-.8.7-1Zm-1.5 21.3c.2-.5.4-1 .8-1.4h.4v.3l.1.3-.3.9-.4.8-.1.1h-.3l-.2-.3v-.7Zm0 9.3v-.4h.5a6.4 6.4 0 0 1 1 1.3v.5l-.1.3h-.4a4.7 4.7 0 0 1-1-1.2v-.5Zm.8 8.6c0-.2.2-.2.2-.3h.4l.1.3.1.2v.4a20.6 20.6 0 0 1-1 1.8H58a.8.8 0 0 1-.2-.6v-.2c.1-.6.4-1.1.6-1.6Zm-.8 10.4v-.3l.2-.1.1-.1h.3a24.3 24.3 0 0 1 1 1.7v.3l-.2.3-.2.2-.3-.2a53.4 53.4 0 0 1-.9-1.8Zm1.5 6.6-.1.3-.7.7h-.4V113.3l.7-.7h.4v.3l.1.3ZM57.4 67v-.2l.2-.2H58l.2.2.4.7.5.6.2.4v.5l-.2.3-.3.2h-.1l-.3-.2a4.4 4.4 0 0 1-.9-2V67Zm-1.6-19.2-.3-.9v-.3l.1-.3.2-.2.2-.2h.1l.2.2.9 1.7v.8l-.2.4h-.5c-.2 0-.2-.2-.3-.3l-.4-.9Zm1.9 87.9v.2l-.2.2h-.2c-.2 0-.2 0-.2-.2l-.3-.8-.4-.8v-.4l.2-.2h.2l.2.1.7 1.6v.2ZM59 127l-.3 1v.1l-.2.1h-.2l-.2-.2-.1-.3v-.3l.2-.9a2.2 2.2 0 0 1 .4-.8l.2-.1h.2l.2.4-.1 1Zm.5-5.9c0 .2-.1.3-.2.3 0 .2-.2.2-.2.2H59a.6.6 0 0 1-.3-.2l-.8-1-.7-1-.1-.3v-.4l.1-.3.2-.2.2.1a24.2 24.2 0 0 1 1.9 2.4v.4ZM63.2 78.1a2 2 0 0 0-.2.6l-1 .2.2 13.6c1 0 2-.3 3.2-.7v-1.3l.2-.2h.2l.2.2c.2.3.2.6.2.9 3.5-1.4 6.7-3.7 9.4-6.8h-.1c-.3-.4-.4-.8-.3-1.2l.2-.4.1-.2.3.1.2.3.1.7v.2-.2c2.5-2.9 4.5-6.4 6-10.4v-.1H81.8a.8.8 0 0 1-.3-.4v-1.3l.2-.2.2.1.3.4.2.4v.4-.2c.4-1.3 1-3 1.4-4.8l-.2-.3-.1-.3V67l.5-1 .1-.2h.3-.1a35.5 35.5 0 0 0 .5-8.8l-.6-1-.1-.2v-.5l.1-.3.3-.1h.2a8.3 8.3 0 0 0-1.5-3.6c-1-1.2-2.3-1.8-4.2-1.7-5.3.4-6.6 8.4-7.5 13.7L71 66c-1 5.2-2.8 10.6-7.2 12.4 0-.2-.1-.2-.2-.3l.1.2.1.5.2.4v.7l-.2.3-.2.1a.5.5 0 0 1-.3-.2 1.7 1.7 0 0 1-.4-1v-.4l.2-.6Zm16.6-.2v.4l-.2.1-.1.1h-.2l-.2.2H78.8a.8.8 0 0 1-.2-.4v-.6l.4-.5h.5l.2.1.1.3v.3Zm1.6-16.4v.3l-.1.4c-.3.5-.6.9-.6 1.5l-.1.4-.3.2h-.1l-.1-.1-.2-.3-.1-.8c0-.6 0-1.2.4-1.6.1-.2.3-.4.6-.5h.4l.2.4ZM80 51.9l.4-1.1.2-.3H81l.2.3V51.4l-.4 1c0 .2-.1.2-.2.3H80.3l-.2-.2v-.6Zm-1.8 2.2v-.2l.2-.2.2-.1h.2l.2.3.2.4 1 1v.3l.1.4v.3c-.1.2-.2.2-.3.2h-.2l-.6-.3-.8-1.1-.2-.7V54.1Zm-1.8 15.2V69l.2-.2.2-.1c.2 0 .4 0 .5.2l.4.2.1.2V70.2l-.1.2h-.5a3 3 0 0 1-.7-.7l-.1-.3Zm-2 6.4.2-.2h.1l.2.1.2.3v.8l-.4.5-.3.6-.2.1H74l-.1-.3v-.7l.6-1.2Zm-1.2-19.4.1-.3c0-.2.1-.2.2-.3h.1c.2 0 .3.1.3.3l.3.9.1.3v.5l-.1.1-.1.1-.3.2-.2-.1a.8.8 0 0 1-.2-.4l-.1-1.3Zm-.8 6.3v-.2l.1-.3.4-.4.3-.2.3.2v.2h.1v.8l-.1.2-.5.5h-.5V63l-.1-.2V62.6Zm-.8 5.5.1-.2h.3l.1.1.1.3c0 .3 0 .5.2.7v.5l-.1.2-.2.1H72c-.5-.5-.5-1-.3-1.7Zm-.3 19.4.2.1v.5l-.3.2h-.4l-.2-.2v-.5h.2c.2 0 .3 0 .5-.2ZM70.3 78l.2-.2h.2l.2.4a7.5 7.5 0 0 1 .3 1.4v.5l-.2.3h-.2a.4.4 0 0 1-.3-.2c-.3-.6-.3-1.2-.3-1.8l.1-.4ZM68 75v-.3l.5-.5h.4l.1.3v.5l-.2.2-.2.2-.1.2h-.4l-.1-.3V75Zm-3.4 9.8.6-.6.8-.2h.2l.1.2.1.2v.2l.1.1v.5l-.2.2-.2.1c-.4 0-.7.1-1 .3H64.8v-.1l-.2-.2v-.7Z"/>
  </g>
  <g id="grot-cta-cactus-2" fill="#9087e9">
    <path d="m185.2 118.4.1 1.4h.3l.1.1v.2c-.1.1-.2.1-.2 0h-.1c.3 2 .8 3.8 1.8 5.5-.1 0-.2.4 0 .4l.3.1a12.4 12.4 0 0 0 4.5 3.8l-.1.1v.2c-.1 0 0-.1 0-.2h.1l.1-.1h.2v.2l1.2.5v-4.9l-1-.5-.1-.1v.4h-.2l-.1-.2V125h.2c-1.3-.9-2-2.4-2.2-4.6h-.2V119.7l.1-.1v-.8a57.4 57.4 0 0 1 .2-7.8c0-1.6-.5-4-1.9-4l-.9.3.1.1V107.8l-.2.1-.1-.2v-.2a3.1 3.1 0 0 0-1.5 1.6h-.1l.2.3v.5H185.5l-.1-.3v.7a23 23 0 0 0-.3 3h.2l.1.1V113.7l-.1.1h-.2V113.5v5l.1-.1Zm7.7 9.6.1-.1.1.1.1.3v.2h-.2l-.1-.2V128Zm-2.8-5.3h.4v.4h-.1l-.3-.2v-.2Zm-.1 5.4v.2h-.1l-.1.1h-.1l-.1-.4v-.2h.2l.1.2v.1Zm0-13.4h-.1l-.1.1-.1-.1v-.4h.2l.1.2v.2Zm-.5-4.2h.2l.3.5v.2l-.1.2h-.1l-.2-.1a3 3 0 0 1-.1-.6v-.2Zm-.1 6.3v-.1h.2l.2.3v.4H189.5v-.3h-.1v-.2Zm-.4 7.8v-.1H189.7v.4h-.1l-.4-.1v-.2Zm-.5-16.5h.2v.4h-.1v.1h-.1v-.5Zm-.2 13.8h.2V122.5h-.2l-.1-.3v-.2Zm-.5-8.1v-.1c0-.1 0 0 .1 0h.1v.1l.1.1v.1l-.1.1-.2-.2v-.1Zm0 4.3.1-.1h.1l.1.1V118.8H187.7v-.7Zm-.5-7.7h.2l.1.2v.2l-.2.2h-.2v-.6Zm-.3 5.7c.1-.1.2 0 .2 0l.3.3v.2h-.1c0 .1 0 0-.1 0h-.1l-.1-.3v-.2Zm-.7 6.4.1-.3h.2v.7h-.1c-.2 0-.2 0-.2-.2v-.2Zm-1-6.6v-.1h.2l.2.1v.2l-.1.2-.2.1-.2-.3.1-.2ZM204.8 110.7V113.5l-.1 1.8v.2l.2-.1 1.1-.9v-.2l.1-.2.1.1v.1h.1a9 9 0 0 0 2.2-3V111l.1-.2h.1c.3-.6.5-1.3.6-2l-.1-.1v-.2c.1-.1.1-.1.2 0l.2-2v-.5l.1-2.2v-1.1c0-1 0-1.7-.5-2.2a2 2 0 0 0-1.4-.5c-.4 0-.7 0-1 .3-.6.3-1 .8-1 1.3v.4h-.2V103.6h-.1.2l.1.1v.4h-.2V106.7l-.1.1v1l-.1.4c0 .8-.2 1.8-.5 2.5v.5l-.1-.1v-.3Zm3.6-4.6-.1.2-.2-.1v-.6h.2v.2h.1v.3Zm.1-3.5h.1l.1.1V103l-.2.2h-.2v-.2l.1-.4h.1Zm-.5-2.2v-.2h.3l.1.2v.4h-.2l-.1-.2-.1-.1v-.1Zm-.5 8.7v-.2H207.9v.4l-.2.1h-.1V109Zm-.6-7.9.1-.2H207.3v.4l-.2.3h-.2v-.5Zm-.2 2.8v-.1H207l.1.2v.2h-.2l-.1-.1v-.2Zm-.1 2.7v-.2l.3-.2h.1V106.6c0 .2-.2.3-.3.4h-.1V106.7Zm0 4v-.2h.2l.1.3v.4h-.2l-.2-.2v-.4Zm-.9-1.3v-.2h.1l.1-.1h.1v.4l-.2.1-.1-.1v-.1Zm-.7 3.5.3-.2h.1l.1.2v.2l-.2.1h-.2l-.1-.1v-.2ZM194.1 109.2v.1c.1-.1.1 0 .1 0l.3.4v.2a1 1 0 0 1-.4-.6v.2l.2 1.6.2 3v5.8l.4.2v.6l-.1-.1v-.1l-.2-.2v10.4c-.1 3-.3 6.9 1.5 8.7.6.7 1.6 1 2.7 1 2.9 0 4.3-2.5 4.3-7.5v-.1l-.2.5h-.2v-.2l.3-.4v-.1h.1a73 73 0 0 1 0-3l-.2-.5v-.2h.1c.2 0 .2.2.2.3l.1-3.8v.3l-.1.1h-.1v-.5l.1-.3c.2-.4.2-.7.2-1v-1.4.1l-.1.1h-.2v-.2l.2-.2v-.1h.1l.2-7h-.1l-.1.2-.1-.2v-.1l.2-.3s.2 0 .2-.2v.1-1.4a88 88 0 0 0-.2-5c-.1-.1 0-.2 0-.2v-.3a28 28 0 0 0-.3-3.3v.2l-.2.3h-.1v-.8l.1-.1h.1v-.3c-.3-1.4-1.3-3.8-4.3-3.8a4.5 4.5 0 0 0-4.2 3l-.3 1 .2.5v.1h-.1l-.1-.3a19 19 0 0 0-.2 4.8Zm8.8 9.5h.1l.2.4v.2h-.1l-.2-.4v-.2Zm-.2-7.1h.1v.7l-.2-.1v-.2l.1-.4Zm-2.3 13.8c-.1.1-.1.1-.2 0v-.4h.2v.4Zm.5-13.2-.2.3-.4.3v-.2l.1-.3.3-.3.2.1v.1Zm-.4 4.1h-.1v-.7h.1v.7Zm0 3.3v-.2l.2-.3.1-.3.2-.1.1.2c0 .3-.1.7-.5.7Zm.4 14h-.2v-.5c.2 0 .2.2.3.3v.2Zm.3-2.8-.3.2v-.2l.2-.4h.2l-.1.4Zm.2-3.8v.1c0 .4-.1.7-.4.9v-.5l.2-.4v-.1h.2Zm-.1-4.3v.2l-.1.4-.3.3-.1-.2c0-.3.2-.5.4-.7Zm-.3-21.2v-.2h.1s.1.1 0 .2V102h-.1v-.6Zm-.3 3.8.1-.1.1.1v.7h-.2v-.7Zm-.5 3.5.1.1.1.3V109.5h-.1l-.1-.2-.1-.2v-.2Zm-.2 12v.2l.1.2v.6c-.2-.2-.2-.5-.3-.7v-.2h.2Zm-.3-6.8h.2v.4l-.2-.3v-.1Zm0 14.4.1-.2h.1c.2.1.3.2.3.4l.2.4v.1H200l-.1-.2-.2-.2v-.2Zm-3-11.1h.1l.2.3v.3h-.1l-.2-.4v-.2Zm0 4.6h.2l.1.3V122.5h-.1l-.2-.3V121.9Zm.6 7.5v.1l-.1.1-.3-.4V128.9h.2v.1l.2.4Zm-.5 2.5c.1-.1.2 0 .2 0l.2.2v.1h-.1a1 1 0 0 1-.3-.3Zm.8 3.8v.1h-.2l-.3-.7v-.2c.2 0 .3.2.3.3l.2.4v.1Zm.1-7.7v-.5c.2-.1.2-.3.3-.4h.2v.2l-.3.5v.1h-.2Zm.6 4.4V132.7c0 .2-.2.3-.4.4l-.1-.2.2-.3s.2 0 .2-.2h.1Zm0-11.9-.2.2c0 .2-.1.3-.3.4V120.8l.1-.3.1-.2h.2v.2Zm-.2-5.6v.4l-.1.2-.1.2h-.1l-.1-.1v-.1l.3-.6Zm-.4-8h.2v.4l-.2.3h-.2v-.2l.2-.4Zm-.4 18 .1.1.2.5-.1.1h-.1c0-.2 0-.3-.2-.3V125c0-.1.1-.1.1 0Zm-.4-23 .2.1v.3l.1.3v.2h-.1l-.1-.2-.1-.4v-.2Zm-.2 8.1h.2l.2.6-.1.2-.2-.1-.1-.4v-.3Zm-1.3 6.8V117.1l-.5.6-.1-.1V117.3l.5-.5Zm-.7-9.6.4-.7h.1s.1.1 0 .2a3 3 0 0 1-.3.8h-.1l-.1-.2v-.1Zm0 5.5v.2l.1.2v.2h-.1l-.3-.3V112.7l.1-.1h.1Z"/>
  </g>
  <path fill="#080821" d="M125.7 159.2c30.1 0 54.6-2.8 54.6-6.4 0-3.5-24.5-6.4-54.6-6.4-30.2 0-54.7 2.9-54.7 6.4 0 3.6 24.5 6.4 54.7 6.4Z" opacity=".3"/>
  <path fill="#F99F10" d="M190 110.6c4.6 1.4 12.8 7.9 10.5 14.3-2.2 6.5-10 5.4-19-1"/>
  <path stroke="#3A1103" stroke-linecap="round" stroke-miterlimit="10" stroke-width="2.1" d="M190 110.6c4.6 1.4 12.8 7.9 10.5 14.3-2.2 6.5-10 5.4-19-1"/>
  <path fill="#EF6122" d="M115.6 36.1c-13.2-9.1-30-11.2-33-8-2.3 2.8 6.7 17.3 5.3 21.6-1.5 4.2-14.3 1.5-15.7 7-.7 2.5 9.1 8.7 8.9 12.3-.3 3.6-7.9 2.6-8.4 7.2-.4 3.1 6.5 3.8 6.3 7.6-.3 3.7-5.3 3-5.1 6.6.2 3 5.7 1 7.1 6 1.5 4.9 34.6-60.3 34.6-60.3Z"/>
  <path fill="#FAC20C" stroke="#3A1103" stroke-miterlimit="10" stroke-width="2.1" d="M57 123.5c.4-12 8.8-14.7 15-12.7 6 2.1 5.7 9.2 4.1 11.9-2.4 4.2-6 2.4-4.7-.6 1-2.9 1.2-6.8-3.5-5.6-6 1.6-4 17.4 8.3 14.3 8.5-2.1 7.8-11.1 7.1-24.2-1.8-12.7.2-29.3 5.6-45 10.9-32 76.6-42.4 98.5-12.8 28.3 38.4-3 75.9-7.8 80.6-15 11.7-12.5 22.2-23.2 22.9-10.2.6-9.4-9.7-16.2-10.3h-1.1c-8 .6-9.5 10.5-21.4 10.3-9.8-.2-5.4-8.7-12-12.7-1.3-.7-2.5-1.1-3.6-1.4l-2.9-.4h-2.1c-4 0-6.2 1-15 2.7-15.7 3.2-25.4-6.8-25-17Z"/>
  <path fill="#EF6122" d="M100 44.3a54.4 54.4 0 0 1 51.6-5c3.4 2.2 8-.4 5.4-7-8.8-22.1-31.7-33.4-37.9-29.6-6.9 4.3 1.8 23.3-2.7 27.7-3.6 3.6-6.1.9-12.3-1.2-5.5-1.9-4.2 15-4.2 15Z"/>
  <path fill="#FAC20C" fill-opacity=".5" d="M139 19.7a5.8 5.8 0 0 0-.5-2.3 6.7 6.7 0 0 0-1.4-1.9c.3-1-.2-1.9-.2-1.9-1 0-1.7.3-1.9.4h-.1l-.5-.2c-.2 0-.4 0-.6-.2h-.5l-.1-.1c-.4-1.4-1.7-2-1.7-2-1.3.9-1.6 2.1-1.6 2.1l-.3.1a2 2 0 0 1-.3.1l-.3.1-.7.3-.5.4c-2-.8-3.7 0-3.7 0-.2 2 .7 3.4 1 3.6l-.2.4-.3 1.4v.3a4.5 4.5 0 0 0-2.4 2.5c1.4 1.7 3.1 1.9 3.1 1.9a8.3 8.3 0 0 0 1.2 1.5 4 4 0 0 0 0 2.8c1.6.1 2.7-.6 3-.8l.4.2 1.5.2h.6a3.2 3.2 0 0 0 2.2 1.3c1-1 1-2 1-2.2v-.1a6.5 6.5 0 0 0 1.6-1.6l.1-.1c1.1 0 1.9-.7 1.9-.7a2.9 2.9 0 0 0-1-1.8V21.6a4.7 4.7 0 0 0-4-3.6h-.6s-.1 0 0 0H132.5a3.7 3.7 0 0 0-2.2 1.2 3.4 3.4 0 0 0-.8 2v1.1l.5.8c.1.3.4.5.6.7l.7.4h1.4l.3-.1.3-.2v-.3h-.2l-.3.1h-.7a2 2 0 0 1-1.7-1.6v-.7a2.4 2.4 0 0 1 1-1.5l.4-.2a2.2 2.2 0 0 1 .8-.2h.9l.8.4a3 3 0 0 1 1.4 2.2v1.4a4.1 4.1 0 0 1-.7 1.3 4 4 0 0 1-2.5 1.5H131.5c-.3 0-.7 0-1-.2a5.2 5.2 0 0 1-3.5-3.6l-.2-1V20.9l.1-.5.1-.5.1-.5.4-1a5.2 5.2 0 0 1 1.5-1.9l.4-.2.4-.3h.2v-.1h.2l.4-.2H131l.2-.1h.5v-.1H133a6 6 0 0 1 3.7 1.5l.1.1.2.1v.2h.2l.4.6c.3.3.5.7.6 1v.1l.1.2h.1v.2l.2.4.2.6s0 .2.1.1l.2-.1c.1-.3.1-.5 0-.8Z"/>
  <path fill="#F99F10" d="M128 119.9c-5.8 5.2-12.3 7.1-16 2.6-4-5-.4-10.6 4.9-15.5"/>
  <path stroke="#3A1103" stroke-linecap="round" stroke-miterlimit="10" stroke-width="2.1" d="M128 119.9c-5.8 5.2-12.3 7.1-16 2.6-4-5-.4-10.6 4.9-15.5"/>
  <path stroke="#3A1103" stroke-miterlimit="10" stroke-width="2.1" d="M107.9 31.7c-11.3-5.3-22.3-8.1-25.2-3.5-3.2 5 7.6 15.6 5.2 21.5-2.3 5.5-15 .8-15.7 7-.7 4.8 9.1 8.7 8.9 12.3-.3 3.6-8 2.1-8.5 6.8-.4 3.1 6.6 4.2 6.4 8-.3 3.7-5 3-5.1 6.6 0 3.4 8.6 3.3 8.9 9.5M151.6 39.3c3.4 2.2 8-.4 5.4-7-8.8-22.1-31-33.4-37.9-29.6-7.2 4 1.8 23.3-2.7 27.7-2.5 2.5-5.8 2.4-8.9 1.1"/>
  <path stroke="#3A1103" stroke-miterlimit="10" stroke-width="2.1" d="M151.8 39.4c-12-7.1-32.8-7.5-51.6 6.5"/>
  <path fill="#5545EF" stroke="#231735" stroke-miterlimit="10" stroke-width="2.1" d="m133.3 88.6 61 5a13.3 13.3 0 1 0 2.2-26.6l-61-5a13.3 13.3 0 1 0-2.2 26.6Z"/>
  <path fill="#19052D" d="m147.7 85.3 46.4 3.8a8.8 8.8 0 0 0 1.4-17.7L149 67.7a8.8 8.8 0 1 0-1.4 17.6Z"/>
  <path fill="#fff" d="M157 82.6c.1-.6-.5-1.2-1.3-1.3l-7.6-.6c-.8 0-1.5.4-1.6 1 0 .7.6 1.2 1.4 1.3l7.6.6c.8 0 1.5-.4 1.6-1ZM157.5 78c0-.5-.6-1.1-1.4-1.2l-7.6-.6c-.8 0-1.5.4-1.6 1 0 .7.6 1.2 1.4 1.3l7.6.6c.8 0 1.5-.4 1.6-1ZM170.2 83.6c0-.6-.6-1.1-1.4-1.2l-7.6-.6c-.8 0-1.5.4-1.6 1 0 .6.6 1.2 1.4 1.2l7.6.7c.8 0 1.5-.4 1.6-1ZM170.6 79.1c0-.6-.6-1.1-1.4-1.2l-7.6-.6c-.8 0-1.5.4-1.6 1 0 .6.6 1.2 1.4 1.2l7.6.7c.8 0 1.5-.4 1.6-1ZM171 74.6c0-.6-.6-1.1-1.5-1.2l-7.6-.6c-.8 0-1.5.4-1.5 1s.5 1.2 1.4 1.3l7.6.6c.8 0 1.5-.4 1.5-1ZM183.3 84.7c0-.6-.6-1.2-1.4-1.3l-7.6-.6c-.8 0-1.5.4-1.6 1 0 .7.6 1.2 1.4 1.3l7.6.6c.8 0 1.5-.4 1.6-1ZM196.4 85.8c0-.7-.6-1.2-1.4-1.3l-7.6-.6c-.8 0-1.5.4-1.6 1 0 .6.6 1.2 1.4 1.3l7.6.6c.8 0 1.6-.4 1.6-1ZM196.8 81.3c0-.7-.6-1.2-1.4-1.3l-7.6-.6c-.8 0-1.5.4-1.6 1 0 .6.6 1.2 1.4 1.3l7.6.6c.8 0 1.5-.4 1.6-1Z"/>
  <path fill="#231F20" d="m171.7 104.2-12.3-1.4c-1.9-.2-3.2-2-3-3.8a1 1 0 1 1 2 .2c-.1.8.5 1.5 1.2 1.6l12.4 1.4a1 1 0 1 1-.3 2Z"/>
  <path fill="#3B3B5A" fill-rule="evenodd" d="M242 64.8a27 27 0 0 0 7 2.3 56.8 56.8 0 0 0 29-4.2c4.2-1.6 8-3.6 11-5.8.3-.2.4-.6.2-.8a.6.6 0 0 0-.8-.2c-3 2.2-6.7 4.2-10.7 5.9a64.9 64.9 0 0 1-21.8 4.7 46.2 46.2 0 0 1-13.9-1.9Z" clip-rule="evenodd"/>
  <path fill="#3B3B5A" fill-rule="evenodd" d="M242.8 68.6a54.6 54.6 0 0 0 29.7.7c5.2-1.4 10.4-4 15.8-5.5 3.6-.9 7.2-1.3 10.9-.5 6.9 1.6 9.8 5.8 9.4 9.8-.4 4.3-4.4 8-11 7.7-3-.2-4.9-2.8-5.1-5.6-.3-2.7 1-5.5 4.2-6.2 2.7-.5 4.4.7 4.8 2.3.3.9 0 1.9-.5 2.6-.6.6-1.4 1-2.6 1a.6.6 0 0 0 0 1.2c1.6 0 2.8-.6 3.5-1.4a4 4 0 0 0 .7-3.8c-.5-2-2.6-3.7-6.1-3-3.8.8-5.4 4.2-5 7.4.2 3.2 2.4 6.3 6.1 6.5 7.2.4 11.6-4 12-8.6.3-4.3-2.7-9-10.2-10.8-3.9-.8-7.6-.4-11.3.6-5.4 1.4-10.6 4-15.8 5.5a50.1 50.1 0 0 1-14.7 1.9 62.5 62.5 0 0 1-14.8-1.8ZM291.4 59.6l2.4-.5.8-.1.8-.2c3-.6 6.3-.7 9.2 0a13 13 0 0 1 7.3 4.4c.3.3.6.3.9 0 .2-.1.3-.5 0-.8-1.3-1.5-3-2.6-4.7-3.4a17 17 0 0 0-5.6-1.5 21.8 21.8 0 0 0-8.9 1l-2.2 1ZM10 9.8a27 27 0 0 0 7 2.3 56.7 56.7 0 0 0 29-4.2c4.2-1.6 8-3.6 11-5.8.3-.2.4-.6.2-.8a.6.6 0 0 0-.8-.2c-3 2.2-6.7 4.2-10.7 5.9A64.9 64.9 0 0 1 24 11.7 46.2 46.2 0 0 1 10 9.8Z" clip-rule="evenodd"/>
  <path fill="#3B3B5A" fill-rule="evenodd" d="M10.8 13.6a54.6 54.6 0 0 0 29.7.7c5.2-1.4 10.4-4 15.8-5.5 3.6-.9 7.2-1.3 10.9-.5 6.9 1.6 9.8 5.8 9.4 9.8-.4 4.3-4.4 8-11 7.7-3-.2-4.9-2.8-5.1-5.6-.3-2.7 1-5.5 4.2-6.2 2.7-.5 4.4.7 4.8 2.3.3.9 0 1.9-.5 2.6-.6.6-1.4 1-2.6 1a.6.6 0 0 0 0 1.2c1.6 0 2.8-.6 3.5-1.4a4 4 0 0 0 .7-3.8c-.5-2-2.6-3.7-6.1-3-3.8.8-5.4 4.2-5 7.4.2 3.2 2.4 6.3 6.1 6.5 7.2.4 11.6-4 12-8.6.3-4.3-2.7-9-10.2-10.8-3.9-.8-7.6-.4-11.3.6-5.4 1.4-10.6 4-15.8 5.5a50.2 50.2 0 0 1-14.7 1.9 62.5 62.5 0 0 1-14.8-1.8ZM59.4 4.6l2.4-.5.8-.1.8-.2c3-.6 6.3-.7 9.2 0A13 13 0 0 1 80 8.2c.3.3.6.3.9 0 .2-.1.3-.5 0-.8-1.3-1.5-3-2.6-4.7-3.4a17 17 0 0 0-5.6-1.5 21.8 21.8 0 0 0-8.9 1l-2.2 1Z" clip-rule="evenodd"/>
  <g id="grot-cta-tumbleweed" fill="#9087e9" fill-opacity=".8">
    <path d="m255.8 142.6.3-2.1.5-2.5.1-.4.3-1.6.3-1.3a14.7 14.7 0 0 0-.9.6 36.5 36.5 0 0 0-1 3.4v.2a27.4 27.4 0 0 0-.1 4.3 5.7 5.7 0 0 1 .3-.3l.2-.2v-.1Zm-1.3-12.6a28.5 28.5 0 0 1 0-.5h-.1l-.1.2-.2.3-.3.3v.5c.2 0 .2-.1.3-.2a21 21 0 0 0 .3-.4v-.2Zm1.9 5.3v-.2l.4-.8-.7.6-.1.6v.1l-.1.1-.3 1.6-.1 1-.3-1.4v-.4l-.2-1.3-.1-.8a32.4 32.4 0 0 1 .9-3.3v-.4a21 21 0 0 1 1.9-3.6v-.1a40.5 40.5 0 0 1 1-1.6l.2-.4.3-.5.3-.4 1.7-3-1.3 1.6a74.4 74.4 0 0 0-1.8 2.4 139.7 139.7 0 0 0-1.5 2.5l-.1.1a19.5 19.5 0 0 0-1.4 3.7l-.4 1.9a71.3 71.3 0 0 1-.2-3.1v-.2.2l-.3.3-.3.4a31.5 31.5 0 0 0 .4 3.3v.2l.1.3a59.4 59.4 0 0 0 .5 2.5l.5 1.4 1-3.3Zm6.7-20.2v.2l-.1.2h-.2l-.1.3-.1.2.4-.4a18.5 18.5 0 0 0 1-1.2l-1 .7Zm2.6 23.2v-.2l-.8.8-.2 1a32.9 32.9 0 0 0 .8-.6l.2-1Zm4.4-3.7a18.9 18.9 0 0 0-.5.4l-.6.3-.5.4-.4.4h-.1a10.5 10.5 0 0 0-.5.5l-.2.2a8.6 8.6 0 0 0-.8 1l-.2.3-.4.5-.3.6a22.5 22.5 0 0 0 2.7-2.6l.8-.8v.2h.2l-.2-.2a29 29 0 0 0 1-1.2Zm10 8.5a18.3 18.3 0 0 1-1 .4l-.5.6-.1.1-.3.2-.3.3-.4.3-.5.5-.6.4-.5.4-.6.4-.5.4v-.3l.4-.7.2-.5v-.2l.1-.2.2-.3-.4.2-.2.4-.1.3-.1.2-.2 1-.1.2c-.6.4-1.1.8-1.7 1l-.6.5-.3.1-.4.2-1.2.6c-.2.2-.5.3-.7.3l-.6.3-1.4.6-1 .3c.7-.4 1.4-.9 2-1.5l.3-.2c1-.8 1.8-1.6 2.6-2.5l.3-.2c0-.1 0-.2.2-.3l.1-.1.2-.3a26.4 26.4 0 0 0 .4-.5 18.6 18.6 0 0 1-1.8.5l-.2.2a3.2 3.2 0 0 0 .2-.4h-.4a7.1 7.1 0 0 1 0 .7l-.5.4-.2.2-1.3 1.2-.5.4a13.5 13.5 0 0 1-3.5 2.2 7.8 7.8 0 0 0 .2-.6l.1-.2a8.3 8.3 0 0 0 .4-1.6v-.4a5.8 5.8 0 0 0 0-1V146.2a7.5 7.5 0 0 0-.2-1l-.1-.3a4.3 4.3 0 0 0-.2-.5V146a4.4 4.4 0 0 1 0 .4v.2l-.1.4v.9l-.1.3v.2a9.8 9.8 0 0 1-.1.6v.3l-.3 1v.3l-.2.6a15.8 15.8 0 0 1-1 .4 44 44 0 0 0 6-.9l.9-.2.9-.3.8-.3h.2l-1 .1-1 .3.7-.3 1.3-.7.3-.1.4-.2.6-.4a31 31 0 0 0 7.6-5.9l-.6.4Zm-11.8-6.4-.5.3-.4.4a39.2 39.2 0 0 0 1-.7h-.1Zm2.8 8.5-.4.2v.4l.4-.4v-.2Zm-1.8-9.2.1.5.2-.1-.3-.4Zm.8-1.4-.3.2-.2.2-.6.3-.5.4-.4.4h-.1l-.5.5a8.1 8.1 0 0 0-1 1.2l-.2.3-.4.5-.3.6a21 21 0 0 0 2.2-2 39.6 39.6 0 0 0 1.3-1.4v.2h.2l-.2-.2 1-1v-.2Zm-4.4 3.7v-.2l-.8.8-.2 1a35 35 0 0 0 .8-.6l.2-1ZM280 143a21.3 21.3 0 0 1-1 .4l-.5.6-.1.1-.3.2-.3.3-.4.3-.5.5-.6.4-.5.4-.6.4-.5.4v-.3l.4-.7.2-.5v-.2l.1-.2.2-.3-.4.2-.2.4-.1.3a8.4 8.4 0 0 0-.4 1.4c-.6.4-1.1.8-1.7 1l-.6.5-.3.1-.4.2-1.2.6c-.2.2-.5.3-.7.3l-.6.3-1.4.6-1 .3c.7-.4 1.4-.9 2-1.5l.3-.2c1-.8 1.8-1.6 2.6-2.5l.3-.2c0-.1 0-.2.2-.3l.1-.1h-.3a7 7 0 0 1-.3.1 22.4 22.4 0 0 0 .9-.6l.2-.2.1-.1-.3.1-.7.2-.8.2-.2.2v-.1h-.2v.4l-.5.4-.2.2-1.3 1.2-.5.4a13.5 13.5 0 0 1-3.5 2.2 7.8 7.8 0 0 0 .2-.6l.1-.2a8.3 8.3 0 0 0 .4-1.6 1 1 0 0 0 0-.2v-.2a5.3 5.3 0 0 0 0-1V146.1a5.4 5.4 0 0 0-.2-.9l-.1-.3-.2-.4v-.1V146a4.4 4.4 0 0 1 0 .4v.2l-.1.4v.9l-.1.3V148.8a4.9 4.9 0 0 1-.2.5c0 .3 0 .7-.2 1v.3l-.2.6a19.6 19.6 0 0 1-1 .4 45.3 45.3 0 0 0 6-.9l.9-.2.9-.3.8-.3h.2l-1 .1-1 .3.7-.4 1.3-.6.3-.1.4-.2.6-.4a31 31 0 0 0 7.6-5.9l-.6.4Zm-11.8-6.4-.5.3-.4.4a39.2 39.2 0 0 0 1-.7h-.1Zm-12.5 5.9.3-2.1.5-2.5.1-.4.3-1.6.3-1.3a14.7 14.7 0 0 0-.9.6 36.5 36.5 0 0 0-1 3.4v.2a28.3 28.3 0 0 0-.1 4.3 5.8 5.8 0 0 1 .3-.3l.2-.2v-.1Zm-1.3-12.6a28.6 28.6 0 0 1 0-.5h-.1l-.1.2a13 13 0 0 1-.5.6v.5a9.3 9.3 0 0 0 .6-.6v-.2Zm1.9 5.3a9.2 9.2 0 0 1 .4-1l-.7.6-.1.6v.1l-.1.1-.3 1.6-.1 1a10.3 10.3 0 0 1-.4-1.8l-.1-1.3-.1-.8a42 42 0 0 1 .9-3.3v-.4a21 21 0 0 1 1.9-3.6v-.1l.5-.8.1-.2.4-.6.2-.4.3-.5a118 118 0 0 1 2-3.4l-1.3 1.6a78.8 78.8 0 0 0-1.8 2.4 81.6 81.6 0 0 0-1.5 2.5l-.1.1a19.2 19.2 0 0 0-1.4 3.7l-.4 1.9a79 79 0 0 1-.2-3.1v-.1a1 1 0 0 1 0-.2V130.3l-.3.3-.3.4a32.6 32.6 0 0 0 .3 2.7l.1.6v.2l.1.3a59.8 59.8 0 0 0 .5 2.5l.5 1.4 1-3.3Zm6.7-20.2v.2l-.1.2h-.2l-.1.3-.1.2.4-.4a16.2 16.2 0 0 0 1-1.2l-1 .7Zm-8.6 14.2a13.3 13.3 0 0 1 .2-2.5 16.3 16.3 0 0 1 .5-2.5 24.5 24.5 0 0 1-.5.4l-.2.1-1 .7v.2l-.2.5-.2.7-.3 1.5v.4l-.1.2v.2-.1l.5-.5c-.3.3-.4.6-.6 1v.4l-.2.8v.8l-.1.8c0-.2.2-.3.3-.4v-.2a27.4 27.4 0 0 1 1.4-5 15.9 15.9 0 0 0-.2 3.4 21.5 21.5 0 0 0 .5-.5v-.1l.1-.1h.1v-.2Zm25.6 13.8a21.3 21.3 0 0 1-1 .4l-.5.6-.1.1-.3.2-.3.3-.4.3-.5.5-.6.4-.5.4-.6.4-.5.4v-.3l.4-.7.2-.5v-.2l.1-.2.2-.3-.4.2-.2.4-.1.3-.1.2-.2 1-.1.2c-.6.4-1.1.8-1.7 1l-.6.5-.3.1-.4.2-1.2.6c-.2.2-.5.3-.7.3l-.6.3-1.4.6-1 .3a14.9 14.9 0 0 0 2.3-1.7 40.3 40.3 0 0 0 2.9-2.7c0-.1 0-.2.2-.3l.1-.1h-.3l-.3.1a15.3 15.3 0 0 0 .9-.6l.2-.2.1-.1-.3.1-.7.2-.8.2-.2.2v-.1h-.2v.4l-.5.4-.2.2-1.3 1.2-.5.4a13.6 13.6 0 0 1-3.5 2.2 7 7 0 0 0 .2-.6l.1-.2a8.3 8.3 0 0 0 .4-1.5v-.5a5.3 5.3 0 0 0 0-1 7.6 7.6 0 0 0-.2-1.9l-.1-.3a4.5 4.5 0 0 0-.2-.5V145.3a8.2 8.2 0 0 0 0 .7 4.4 4.4 0 0 1 0 .4v.2l-.1.4v.9l-.1.3V148.8l-.1.2a11.4 11.4 0 0 1-.3 1.3v.3l-.2.6a20.6 20.6 0 0 1-1 .4 45.4 45.4 0 0 0 6-.9l.9-.2.9-.3.8-.3h.2l-1 .1-1 .3.7-.4 1.3-.6.3-.1.4-.2.6-.4a31 31 0 0 0 7.6-5.9l-.6.4Zm-24.3-.5.3-2.1.5-2.5.1-.4.3-1.6.3-1.3a14.7 14.7 0 0 0-.9.6 36.5 36.5 0 0 0-1 3.4v.2a28.3 28.3 0 0 0-.1 4.3 5.8 5.8 0 0 1 .3-.3l.2-.2v-.1Zm-1.3-12.6a28.6 28.6 0 0 1 0-.5h-.1l-.1.2a13 13 0 0 1-.5.6v.5a9.3 9.3 0 0 0 .6-.6v-.2Zm1.9 5.3a9.2 9.2 0 0 1 .4-1l-.7.6-.1.6v.1l-.1.1-.3 1.6-.1 1a10.3 10.3 0 0 1-.4-1.8l-.1-1.3-.1-.8a42 42 0 0 1 .9-3.3v-.4a21 21 0 0 1 1.9-3.6v-.1l.5-.8.1-.2.4-.6.2-.4.3-.5a118 118 0 0 1 2-3.4l-1.3 1.6a78.8 78.8 0 0 0-1.8 2.4 81.6 81.6 0 0 0-1.5 2.5l-.1.1a19.2 19.2 0 0 0-1.4 3.7l-.4 1.9a79 79 0 0 1-.2-3.1v-.1a1 1 0 0 1 0-.2V130.3l-.3.3-.3.4a32.6 32.6 0 0 0 .3 2.7l.1.6v.2l.1.3a59.8 59.8 0 0 0 .5 2.5l.5 1.4 1-3.3Zm6.7-20.2v.2l-.1.2h-.2l-.1.3-.1.2.4-.4a16.2 16.2 0 0 0 1-1.2l-1 .7Zm-8.6 14.2a13.3 13.3 0 0 1 .2-2.5 16.3 16.3 0 0 1 .5-2.5 24.5 24.5 0 0 1-.5.4l-.2.1-1 .7v.2l-.2.5-.2.7-.3 1.5v.4l-.1.2v.2-.1l.5-.5c-.3.3-.4.6-.6 1v.4l-.2.8v.8l-.1.8c0-.2.2-.3.3-.4v-.2a27.4 27.4 0 0 1 1.4-5 15.9 15.9 0 0 0-.2 3.4 21.5 21.5 0 0 0 .5-.5v-.1l.1-.1h.1v-.2Zm25.6 13.8a21.3 21.3 0 0 1-1 .4l-.5.6-.1.1-.3.2-.3.3-.4.3-.5.5-.6.4-.5.4-.6.4-.5.4v-.3l.4-.7.2-.5v-.2l.1-.2.2-.3-.4.2-.2.4-.1.3-.1.2-.2 1-.1.2c-.6.4-1.1.8-1.7 1l-.6.5-.3.1-.4.2-1.2.6c-.2.2-.5.3-.7.3l-.6.3-1.4.6-1 .3a14.9 14.9 0 0 0 2.3-1.7 40.3 40.3 0 0 0 2.9-2.7c0-.1 0-.2.2-.3l.1-.1h-.3l-.3.1a15.3 15.3 0 0 0 .9-.6l.2-.2.1-.1-.3.1-.7.2-.8.2-.2.2v-.1h-.2v.4l-.5.4-.2.2-1.3 1.2-.5.4a13.6 13.6 0 0 1-3.5 2.2 7 7 0 0 0 .2-.6l.1-.2a8.3 8.3 0 0 0 .4-1.5v-.5a5.3 5.3 0 0 0 0-1 7.6 7.6 0 0 0-.2-1.9l-.1-.3a4.5 4.5 0 0 0-.2-.5V145.3a8.2 8.2 0 0 0 0 .7 4.4 4.4 0 0 1 0 .4v.2l-.1.4v.9l-.1.3V148.8l-.1.2a11.4 11.4 0 0 1-.3 1.3v.3l-.2.6a20.6 20.6 0 0 1-1 .4 45.4 45.4 0 0 0 6-.9l.9-.2.9-.3.8-.3h.2l-1 .1-1 .3.7-.4 1.3-.6.3-.1.4-.2.6-.4a31 31 0 0 0 7.6-5.9l-.6.4Zm-24.3-.5.3-2.1.5-2.5.1-.4.3-1.6.3-1.3a14.7 14.7 0 0 0-.9.6 36.5 36.5 0 0 0-1 3.4v.2a28.3 28.3 0 0 0-.1 4.3 5.8 5.8 0 0 1 .3-.3l.2-.2v-.1Zm-1.3-12.6a28.6 28.6 0 0 1 0-.5h-.1l-.1.2a13 13 0 0 1-.5.6v.5a9.3 9.3 0 0 0 .6-.6v-.2Zm1.9 5.3a9.2 9.2 0 0 1 .4-1l-.7.6-.1.6v.1l-.1.1-.3 1.6-.1 1a10.3 10.3 0 0 1-.4-1.8l-.1-1.3-.1-.8a42 42 0 0 1 .9-3.3v-.4a21 21 0 0 1 1.9-3.6v-.1l.5-.8.1-.2.4-.6.2-.4.3-.5a118 118 0 0 1 2-3.4l-1.3 1.6a78.8 78.8 0 0 0-1.8 2.4 81.6 81.6 0 0 0-1.5 2.5l-.1.1a19.2 19.2 0 0 0-1.4 3.7l-.4 1.9a79 79 0 0 1-.2-3.1v-.1a1 1 0 0 1 0-.2V130.3l-.3.3-.3.4a32.6 32.6 0 0 0 .3 2.7l.1.6v.2l.1.3a59.8 59.8 0 0 0 .5 2.5l.5 1.4 1-3.3Zm6.7-20.2v.2l-.1.2h-.2l-.1.3-.1.2.4-.4a16.2 16.2 0 0 0 1-1.2l-1 .7Zm-8.6 14.2a13.3 13.3 0 0 1 .2-2.5 16.3 16.3 0 0 1 .5-2.5 24.5 24.5 0 0 1-.5.4l-.2.1-1 .7v.2l-.2.5-.2.7-.3 1.5v.4l-.1.2v.2-.1l.5-.5c-.3.3-.4.6-.6 1v.4l-.2.8v.8l-.1.8c0-.2.2-.3.3-.4v-.2a27.4 27.4 0 0 1 1.4-5 15.9 15.9 0 0 0-.2 3.4 21.5 21.5 0 0 0 .5-.5v-.1l.1-.1h.1v-.2Zm25.6 13.8a21.3 21.3 0 0 1-1 .4l-.5.6-.1.1-.3.2-.3.3-.4.3-.5.5-.6.4-.5.4-.6.4-.5.4v-.3l.4-.7.2-.5v-.2l.1-.2.2-.3-.4.2-.2.4-.1.3-.1.2-.2 1-.1.2c-.6.4-1.1.8-1.7 1l-.6.5-.3.1-.4.2-1.2.6c-.2.2-.5.3-.7.3l-.6.3-1.4.6-1 .3a14.9 14.9 0 0 0 2.3-1.7 40.3 40.3 0 0 0 2.9-2.7c0-.1 0-.2.2-.3l.1-.1h-.3l-.3.1a15.3 15.3 0 0 0 .9-.6l.2-.2.1-.1-.3.1-.7.2-.8.2-.2.2v-.1h-.2v.4l-.5.4-.2.2-1.3 1.2-.5.4a13.6 13.6 0 0 1-3.5 2.2 7 7 0 0 0 .2-.6l.1-.2a8.3 8.3 0 0 0 .4-1.5v-.5a5.3 5.3 0 0 0 0-1 7.6 7.6 0 0 0-.2-1.9l-.1-.3a4.5 4.5 0 0 0-.2-.5V145.3a8.2 8.2 0 0 0 0 .7 4.4 4.4 0 0 1 0 .4v.2l-.1.4v.9l-.1.3V148.8l-.1.2a11.4 11.4 0 0 1-.3 1.3v.3l-.2.6a20.6 20.6 0 0 1-1 .4 45.4 45.4 0 0 0 6-.9l.9-.2.9-.3.8-.3h.2l-1 .1-1 .3.7-.4 1.3-.6.3-.1.4-.2.6-.4a31 31 0 0 0 7.6-5.9l-.6.4Zm-24.3-.5.3-2.1.5-2.5.1-.4.3-1.6.3-1.3a14.7 14.7 0 0 0-.9.6 36.5 36.5 0 0 0-1 3.4v.2a28.3 28.3 0 0 0-.1 4.3 5.8 5.8 0 0 1 .3-.3l.2-.2v-.1Zm-1.3-12.7a28.6 28.6 0 0 1 0-.4h-.1l-.1.2a13 13 0 0 1-.5.6v.5a9.3 9.3 0 0 0 .6-.6v-.2h.1Zm1.9 5.4a9.2 9.2 0 0 1 .4-1l-.7.6-.1.6v.1l-.1.1-.3 1.6-.1 1a10.3 10.3 0 0 1-.4-1.8l-.1-1.3-.1-.8a42 42 0 0 1 .9-3.3v-.4a21 21 0 0 1 1.9-3.6v-.1l.5-.8.1-.2.4-.6.2-.4.3-.5a118 118 0 0 1 2-3.4l-1.3 1.6a78.8 78.8 0 0 0-1.8 2.4 81.6 81.6 0 0 0-1.5 2.5l-.1.1a19.2 19.2 0 0 0-1.4 3.7l-.4 1.9a79 79 0 0 1-.2-3.1v-.1a1 1 0 0 1 0-.2V130.3l-.3.3-.3.4a32.6 32.6 0 0 0 .3 2.7l.1.6v.2l.1.3a59.8 59.8 0 0 0 .5 2.5l.5 1.4 1-3.3Zm6.6-19.7a18.5 18.5 0 0 0 1-1.2 37.2 37.2 0 0 0-1 .7v.2a6.4 6.4 0 0 1 0 .2h-.2l-.1.3-.1.2.4-.4Zm-8.6 13.9h.1v-.2a13.3 13.3 0 0 1 .2-2.5 16.5 16.5 0 0 1 .5-2.5 24.5 24.5 0 0 0-.5.4l-.2.1-1 .7v.2l-.2.5-.2.7-.3 1.5v.4l-.1.2v.2-.1l.5-.5c-.3.3-.4.6-.6 1v.4l-.2.8v.8l-.1.8c0-.2.2-.3.3-.4v-.2a27.5 27.5 0 0 1 1.4-5 15.6 15.6 0 0 0-.2 3.4 21.6 21.6 0 0 0 .6-.6v-.1Zm46 7.7c.4-1.2.6-2.4.8-3.6a17.3 17.3 0 0 0 0-3.3 30.6 30.6 0 0 0-.8-6v-.1l-.2-.7a88 88 0 0 0-.4-2c0 1 .3 2 .4 2.9l.1 1a118 118 0 0 0 .3 1.8c.1 1.6.2 3.3.1 4.9a19.6 19.6 0 0 1-.7 4.6 14 14 0 0 1-.6 1.6v.2l-1 2c0-.5.2-1 .4-1.4v-.2a23.4 23.4 0 0 0 1-9c.1-.1 0-.1 0-.2a12.5 12.5 0 0 0 0 .3v.1a25.9 25.9 0 0 1-3.6 12.8 17 17 0 0 1-1 1.5 25.9 25.9 0 0 1-12.4 9.3 24.6 24.6 0 0 1-5.6 1.2l.1-.1.7-.7.2-.2 1-1 .6-.5a42 42 0 0 0 4.2-1.2 18 18 0 0 0 4.2-1.4l1.2-.7a11.3 11.3 0 0 0 3.8-4.2v-.2l.7-1.8a12 12 0 0 1-7.5 7l2-1.3.1-.1a11.3 11.3 0 0 0 1.5-1.4 15.2 15.2 0 0 0 3.7-6.2 15.6 15.6 0 0 1-1.9 3.4v.2a17 17 0 0 1-3.7 3.7h-.2l-1.1.8.6-1 .9-1.3.9-1.3.5-.6.4-.7a10.4 10.4 0 0 0-2.1 2.4 12.4 12.4 0 0 0-1.4 2.6 22.5 22.5 0 0 1-5.6 2.4l-.5.1 3.1-3.2 3.1-3.1.5-.6 1.8-1.8a56.1 56.1 0 0 0 1.6-1.6l.6-.3a11.7 11.7 0 0 0 2-1.2v-.1l.2-.1a12.3 12.3 0 0 0 3.4-4.6v-.2c.2-.2.3-.5.3-.7l-.2.4h-.1v.1a34.3 34.3 0 0 1-5.9 6.2 18.9 18.9 0 0 0 2.7-4l.4-.6a19.8 19.8 0 0 0 2.1-3.7l.2-.6.2-.7v-.2a15 15 0 0 0 .5-4v-.6l.1-.7v-.1l.1-.4.2-1.3a15.8 15.8 0 0 0-1.1-7.6l-1-2.2-.5-.8-.3-.4.2.6a47.2 47.2 0 0 1 1 3l.6 1.7a21.5 21.5 0 0 1 .5 3.7v1.9a22.3 22.3 0 0 1 0 1.2v.1-.1a24.5 24.5 0 0 0-1.5-6.3 126.6 126.6 0 0 0-.7-2v.1l.5 2a51.4 51.4 0 0 1 1.3 7v1.5a16 16 0 0 1-.8 5 14.4 14.4 0 0 1-1.5 3 16 16 0 0 0 .7-4.8V129c0-.9 0-1.7-.2-2.4v-.4l-.8-4.5v-.2.2l.6 4.8.2 2.9V131.1l-.1.6c-.2 1.2-.4 2.5-.8 3.7a69 69 0 0 1-.6-2.3 22.4 22.4 0 0 1-.7-4.4v-.1a38 38 0 0 1 0-2.1v-.5a7.9 7.9 0 0 0-.5 1.8v.2a11 11 0 0 0 0 2.3 12 12 0 0 0 .7 3.4 13.2 13.2 0 0 0 1 2 13.4 13.4 0 0 1-3.4 5.2l-1.6 1.6-1.2 1.2-.6.6-.9.8-2.8 2.8.6-1 .1-.2a33 33 0 0 0 2.2-4.4v-.2h.1a11 11 0 0 0 2.4-3.6l.7-2a3.2 3.2 0 0 0 0-.3l.1-.1v-.2c.2-.8.3-1.6.3-2.5l-.8 2.5a27.8 27.8 0 0 1-1.4 3.4 24.6 24.6 0 0 1-.8 1.4l.2-.6v-.2l.1-.3.3-1.1v-.1l.3-1 .2-1v-.4a30.7 30.7 0 0 1 1-3.2 9.4 9.4 0 0 0-1 2.1l-.3 1v.1a22 22 0 0 0-.4 1.2l-.5 1.5-.1.5-.3.7v.2a36.7 36.7 0 0 1-.6 1.5v.2l-.3.7-.1.2-.1.2v.2l-.4.7-1 2.2-.6 1.3-.1.2-.6 1-.1.3-.1.1-2.3 2.3-.3.3-1.1 1.2c0-.2 0-.4.2-.6l.1-.5a51.2 51.2 0 0 1 .7-2l.1-.2.1-.3.2-.3v-.2l.4-1-.7 1v.3h-.1l-.2.6-.1.2a18 18 0 0 0-1 3.2l-.3.4h-.1l-.8.8v.2h-.2l-.3.4-.2.2a324 324 0 0 0-3.8.2H267l.6-.3a29.5 29.5 0 0 0 .5-.2l.4-.2a62.9 62.9 0 0 0 2.6-1.2l.7-.3.7-.5a7 7 0 0 0-2.4.5 10 10 0 0 0-3 1.8l-.4.3a37.7 37.7 0 0 1-5-.6 16 16 0 0 1-1.6-.6l-.7-.2a15 15 0 0 0 1.8-.3h.1l.5-.1.4-.1a18.2 18.2 0 0 0 3.7-1.5l.5-.2h.2l.7-.2 2-.4 1.6-.2 2-.3a24.6 24.6 0 0 0 3.7-1 14.9 14.9 0 0 0 1.7-1 6.4 6.4 0 0 0 1.7-1.6l.6-1.5c-.4.8-1 1.5-1.5 2l-1 .7a10.2 10.2 0 0 1-1.7.8l-1.8.6-1.9.4a36.4 36.4 0 0 1-1 .2l-.9.1-1.1.3h.1l.7-.4 1.3-.6.3-.1.4-.2.6-.4a31 31 0 0 0 7.6-5.9l.3-.3a13.5 13.5 0 0 0 1-1l.3-.5.6-.7.4-.6.5-.6.4-.6.4-.6.7-1.2.7-1.3.3-.7.2-.3.1-.3.6-1.3.2-.6v-.1l.3-.7a23 23 0 0 0 1.2-6.7V122.8a16.4 16.4 0 0 0-.5-2.5l-.1-.4v.5l.1.3a15 15 0 0 1 .3 2.3 16.8 16.8 0 0 1 0 1.8 18.7 18.7 0 0 1-.8 4.7l-.1-.6a12.6 12.6 0 0 1 0-3.4v-.1l.1-.6a4.5 4.5 0 0 0-.4 1.4 6.5 6.5 0 0 0 .3 3.6 25.6 25.6 0 0 1-.7 2l-.3.7-.6 1.3-.1.3-.2.3-.3.7-.7 1.2-.8 1.2v.1l.1-.8.1-.7.8-4v-.5l.1-.1v-.3a66.4 66.4 0 0 0 .8-4.4V125.4a47.3 47.3 0 0 0 0-4.6 18.3 18.3 0 0 0 0-.8v-.2l.2-.4.3-.8.2-.8.1-.9.2-1.9a16 16 0 0 1 2.4-1.8 12 12 0 0 1 .9-.5l.7-.4-.7.2-.7.2h-.1a6.6 6.6 0 0 0-2.5 2 21.8 21.8 0 0 0 0-1.3c0-.8-.1-1.6-.3-2.3v-.2l.1-.6a6.3 6.3 0 0 1 .2-.6 12.5 12.5 0 0 1 1-2.5l-.8 1a6.4 6.4 0 0 0-.7 2v-.2l-.2-.8-.3-.8-.3-.8-.1-.1-.3-.7.2.6v.2l.3.9.2.8.2.8v.4a7 7 0 0 0-1.4-2.7h-.1a4.4 4.4 0 0 0-.5-.6c-.6-.5-1.2-.9-1.9-1.1a9 9 0 0 1 2.2 1.9 8 8 0 0 1 1.6 3l.2 1.3a7.6 7.6 0 0 1 .1.6v.1-.2 2.3a3.9 3.9 0 0 0-.1-.5v-.3h-.1l-.2-.6a7.1 7.1 0 0 0-1.9-2.8c-.5-.5-1.1-.9-1.8-1.1a8.8 8.8 0 0 1 3.6 4.5 6.1 6.1 0 0 1 .2.7l.2.8-.2 1-.1.8-.2.8-.1.3-.1-.4v-.1l-.2-.6a4.6 4.6 0 0 0-.1-.3c-.3-1-.8-2-1.3-2.9-.6-1-1.3-1.9-2.2-2.6a14 14 0 0 1 3.3 7l.2 1.1v1.1l.1.2a4.8 4.8 0 0 1 0 .7v1.6l-.1-.4a63.5 63.5 0 0 1-.4-1l-.3-.8-.1-.2a30 30 0 0 1-1-2.8l-.6-1.6v-.1l-.2-.4.1.6v.2a18.6 18.6 0 0 0 1.5 4.7l.2.3.3.6.5.9.2.3v.6l-.1 1.5v.2l-.2 1V127.8l-.5 3.3-.2 1.5a82 82 0 0 0-.1 1.2 44.9 44.9 0 0 0-.3 3.9l-.4.4-.4.6-.4.6-.4.6-.9 1-.3.4-.7.7-.4.6-.4.3-.1.2v-.2l.1-.5v-.2l.2-.6v-.2a56.4 56.4 0 0 1 .5-2l.1-.4.5-1.6a10.2 10.2 0 0 0-1.2 3 14 14 0 0 0-.3 1.6V143.2h-.1l-.3.3-.6.6-.1.1-.3.2-.3.3-.4.3-.5.5-.6.4-.5.4-.6.4-.6.4.2-.3.3-.7.2-.5v-.2l.1-.2.2-.3v-.2h.1l.1-.3.4-.8.2-.4.3-.7.4-.8-1 1.3v.1a11.7 11.7 0 0 0-.7 1.4 9.4 9.4 0 0 0-.4 1l-.1.3-.1.2-.2 1-.1.2c-.6.4-1.1.8-1.7 1l-.6.5-.3.1-.4.2-1.2.6a7 7 0 0 1-.7.3l-.6.3-1.4.6-1 .3c.7-.4 1.4-.9 2-1.5l.3-.2c1-.8 1.8-1.6 2.6-2.5l.3-.2c0-.1 0-.2.2-.3l.1-.1a9.3 9.3 0 0 0 .7-.8l.1-.2a16.9 16.9 0 0 0 .5-.5c1-1.2 1.8-2.4 2.6-3.6 0-.2.2-.4.3-.5l1.4-1.2a18.4 18.4 0 0 0 2.1-2.7 55 55 0 0 0 2-3.3l.2-.1 1.4-2.2-.9.8-1.4 1.7-1.9 2.7a120.8 120.8 0 0 1-2 2.7v.1-.2l.2-.2.3-.7.4-.6.6-1.3.5-1.2c0-.3.2-.5.3-.7l.2-.7.5-1.3.4-1.3.2-.6.1-.8.1-.2.3-1.1V128a12 12 0 0 1 1.8-2.1l.3-.3.7-.6-.6.3a5.8 5.8 0 0 0-1.6 1.4l-.5.6.1-.4.1-.7.1-.7v-.4l.1-.2v-.5l.1-.2v-1.4l.1-.7V120v1.4l-.1.7v.6l-.2.7v.7l-.1.4v.2l-.2.6v.1l-.1.8v.1l-.2.5-.3 1.4-.3 1a97.3 97.3 0 0 0 0-2.9v-.1l-.1-.7v-.2l-.2-3.4v-.5a32.8 32.8 0 0 0-.3-1.7v-.2l-.1-.7a10.5 10.5 0 0 0 .4-2 12.3 12.3 0 0 0 0-2V114.5a10.6 10.6 0 0 0-.5-3l-.2-.4v-.2l-.2-.2v1.4h.1a53.4 53.4 0 0 1 .2 3.5v2.2a7.2 7.2 0 0 0-.3-.8 6.5 6.5 0 0 0-.2-.4l-.6-1.2a6.7 6.7 0 0 0-.7-1v-.2h-.1l-.5-.5.3.5.1.1v.1a9.5 9.5 0 0 1 1.2 2.8l.1.4.1.3.4 2.6v1.4l.2 2.2.1 1.7v.9l.1.1v.1-.2l-.3-.6v-.1l-.1-.3a53.8 53.8 0 0 1-1-2.5v-.5l-.3-.7v-.3l-.1-.2v-.1l-.3-1-.2-.6v-.2l-.1-.3a11.4 11.4 0 0 0 .1 1.4 17.9 17.9 0 0 0 .3 1.2v.3a14 14 0 0 0 .3.9l.1.4v.2a20.3 20.3 0 0 0 1 2.4v.1l.4.6v.2l.2.3a80.7 80.7 0 0 0 .2 3.5l-.4 1.3-.5 1.3-.3.6c0 .3-.2.5-.3.7v.2l-.2-.4a43.3 43.3 0 0 0-.2-2l-.2-1.6-.2-1.6a10.5 10.5 0 0 0 0 3.3 14.2 14.2 0 0 0 .6 2.6l-.3.7-.7 1.2-.3.6-.3.6-.6 1-.1.2-.5.7v.1l-.3.4-.4.5c0 .2-.2.4-.4.6l-.8 1v.2a22.3 22.3 0 0 1-.5.5l-.2.3-.2.1c-.2.4-.5.7-.9 1l-.6.8-.3.3-.2.2v-.1a10 10 0 0 0 .6-4.1h.1l.3-.5.3-.5.2-.5.5-1a6.6 6.6 0 0 0 1.1-1.1 7.3 7.3 0 0 0 1-1.7h.1a9.3 9.3 0 0 0 .8-4.5 7.7 7.7 0 0 0-.5-2.3 6 6 0 0 0-.2-.5v1h.1v.2a8.5 8.5 0 0 1 0 1.7c0 .6 0 1.3-.2 2v.2l-.2.5-.9 2.4-.1.2-.6 1v-.1a14.7 14.7 0 0 0 .7-4.2l-.7 2v.1l-.7 2-.6 1.5v.2l-.1.2-.2.5-.1.2-.1.3v-.2a6.2 6.2 0 0 0-.2-1 10.7 10.7 0 0 0-2-4.2v-.1l.8-1 .1-.2.2-.3a24.8 24.8 0 0 0 3.2-5.3 19.5 19.5 0 0 0 .7-2.5 19.9 19.9 0 0 1-2.6 5.2 30.2 30.2 0 0 1-4.3 5l-.2.2-1.3 1.2h-.1l-.8.8h-.1l-1.2 1v-.1l.4-.5.3-.5a9 9 0 0 0 .7-2.2l.1-.6v-.6l.1-.5a18.3 18.3 0 0 0 0-1.4l-.3-1.5a29.1 29.1 0 0 1-.2 2.8l-.1.6-.1.5-.2.5-.6 2.1-.2.5-.2.6-.2.5-.1.3-.8.6-1.3 1-1.3 1-.4.2a29 29 0 0 1 0-1.6v-.7h.1v-.4l.1-1.1v-.5l.2-.4v-.2l.2-1v-.3a28.2 28.2 0 0 1 .7-2.6 15 15 0 0 0-1.4 3.3v.2l-.3.9-.1.4v.2l-.2 1.2a9.8 9.8 0 0 0 0 .6l-.1.3V142.1a13.8 13.8 0 0 0 0 1.5h.3l-.5.2a2.8 2.8 0 0 1-1.6.2v.3a25.5 25.5 0 0 1-.2-2v-.8a29.7 29.7 0 0 1 .3-4l.3-1.5.3-1.3v-.2a28.9 28.9 0 0 1 .3-1l.3-.9h1l.4-.2a6.4 6.4 0 0 0 .8-.2 9.5 9.5 0 0 0 1.6-.8l.2-.1.4-.2.6-.4.4-.3a44.1 44.1 0 0 0 5.5-3.9l1.1-1.1.2-.1.5-.6a14.6 14.6 0 0 0 3-.7 14.5 14.5 0 0 0 2.3-.8 7.6 7.6 0 0 0-2.4.2 10.8 10.8 0 0 0-2.2.6l-.1.1 2-2.2 2-2.4v-.2h.2l.2-.5.1-.1a8.5 8.5 0 0 0 1-2v-.1a8.2 8.2 0 0 1-1 1.9l-.2.1-.2.3-.3.4-.2.1-.2.3-1.8 2-1 .9a120.9 120.9 0 0 0-1.6 1.6l-.2.2-.6.6a66.5 66.5 0 0 1 3-4.7c.2 0 .3-.2.4-.4l.4-.6 1.1-1.3a173.2 173.2 0 0 1-.3 0 22.7 22.7 0 0 0-4 5.5l-.9 1.8a33.7 33.7 0 0 1-.8.7h-.1l-1 1a14.9 14.9 0 0 0 .1-1v-.1a37 37 0 0 0 .4-3v-.4l.1-.1v-.4a27.8 27.8 0 0 0 0-2 8.2 8.2 0 0 0-.3 1.2 18.3 18.3 0 0 0-.5 2v.7a19.4 19.4 0 0 0-.2 3.3 30.4 30.4 0 0 1-3.9 2.5l-.7.5-1 .5-.1.1a15 15 0 0 1-1.3.7 7 7 0 0 1-1 .3l-.7.2c.4-1.2 1-2.3 1.5-3.4l.1-.3a25.3 25.3 0 0 1 5.5-7.1 95.3 95.3 0 0 0 .8-.8l.3-.3.8-.7.4-.4.2-.1 2.7-2.4a8.3 8.3 0 0 0 1.5 0 11.6 11.6 0 0 0 3.6-.9h-1a8.3 8.3 0 0 0-1.8 0c-.4.2-.8.2-1.3.3l-.6.2.2-.1.2-.2.2-.2 1.3-1.1.1-.1.3-.3.2-.1 1.5-1.4.4-.3.2-.2.5-.5 1.2-1-1.4 1-.6.6c-.2 0-.3.2-.5.3l-.5.4-1.4 1.2-.6.4a308.2 308.2 0 0 1-.8.6l-.7.6-.3.3h-.1l-.3.3-1.9 1.5-.4.3a67.2 67.2 0 0 1-2.4 2V118h.1a16 16 0 0 1 .1-1v-.1a17.3 17.3 0 0 1 .3-1.5h.1l.6-.3a44.8 44.8 0 0 0 1.3-.7l.6-.3h.2l1-.7a27.8 27.8 0 0 0 5.6-5 15.3 15.3 0 0 1 1.3-.6 14.5 14.5 0 0 1 3.8-1l2.1-.1c-.6-.3-1.3-.4-2-.4H280a8.1 8.1 0 0 0-4 1l.3-.3.7-1h.1l.1-.3.3-.4.1-.2.6-1 .5-.8.1-.2-.1.2-.6.8-.7.9-.1.2-.2.2-.3.4-.2.2-.6.8a20.9 20.9 0 0 1-1.4 1.4l-.2.2-.3.2-1.4 1.4c-.2 0-.3.2-.5.3l-.5.4-1.3 1 .1-.5a29.4 29.4 0 0 0 .6-2.2v-.2l.1-.1v-.2l.2-.7v-.1l.1-.6a4.7 4.7 0 0 0-.8 1.2v.2l-.1.2v.1l-.2.2a8.9 8.9 0 0 0-.4 3l-1 .6-.3.1-.4.3a23.7 23.7 0 0 0-1.3.7l-1 .6.1-.5.1-.3a24 24 0 0 1 1.5-3.5l.1-.2.8-1.3.2-.3.3-.2-.2.1a9.6 9.6 0 0 1 3-2.7c.2 0 .3 0 .3-.2l.9-.5a25.7 25.7 0 0 0 .5-.3l1.1-1c.4-.2.7-.6 1-1a8.8 8.8 0 0 1-2 1.6l-.2.1-.4.2-1 .6h-.1l-1 .7a10 10 0 0 0-3.4 3.2 32.4 32.4 0 0 0-8.9 7.3c0 .2-.2.3-.3.5l-.2.2-.2.3-2 2.7-.3.6v-.3a24.3 24.3 0 0 1 .4-1.5v-.2a17.6 17.6 0 0 1 1.7-3.8l.5-.8v-.1a20.3 20.3 0 0 1 1-1.6l1.2-1.7.9-1.3.1-.3c.4-.6.8-1.1 1.1-1.8l-1.8 2.2-.3.3a68.5 68.5 0 0 0-2.8 4 18.4 18.4 0 0 0-1.8 4.3l-.1.4a12.3 12.3 0 0 0-.3 2.4l-.8 1.4-.2.4-.1.3c-.7 1.4-1.4 2.8-1.9 4.3l-.1-2.1v-.2a14 14 0 0 1 .1-2.7c.2-1 .5-1.8.9-2.7a9 9 0 0 1 1.6-2.3c-.9.5-1.6 1.2-2.1 2a9.2 9.2 0 0 0-1.1 5.6v.2a10.6 10.6 0 0 0 .7 2.4l-.5 1.7-.2.8-.2.4v.5a35.4 35.4 0 0 0-.7 5 21.7 21.7 0 0 1-1-3.2v-.9a10 10 0 0 1 .7-5l.2-.4a6.3 6.3 0 0 0-1.7 4.5 8 8 0 0 0 .3 2.4 9.2 9.2 0 0 0 1.5 3.2 21.4 21.4 0 0 0 .1 2 30 30 0 0 0 .8 4.4l.1.2a27.7 27.7 0 0 0 3.2 7.2 24.7 24.7 0 0 1-1.7-1.6l-.5-.5a28.2 28.2 0 0 1-3.6-5.3 32.7 32.7 0 0 1-.8-1.6l-.1-.1c-.6-1.2-1-2.4-1.5-3.7l-.6-2a29.5 29.5 0 0 1-.8-3.9v-.2l.1-.2a117.1 117.1 0 0 0 .9-2.9l.3-1 .5-1.8v-.2l.1-.4v-.2l.6-1.3c.3-.6.7-1.1 1.2-1.6v-.1l.4-.4 1-1c.4-.6.8-1.2 1-1.9-.3.6-.7 1.2-1.2 1.7a17.3 17.3 0 0 1-.8.7l-.6.6-.1.1-.1.1a7 7 0 0 0-1.2 1.5l-.1.3c-.3.4-.4 1-.6 1.4V124.7l-.2.4-.1.4-.1.4v.2l-.1.2-.1.4v.1l-.2.4v.1l-.4 1.4c0 .4-.2.8-.3 1.1v-.7c0-1.2.3-2.5.6-3.8v-.2a45.5 45.5 0 0 1 1.8-5.7l.3-.2c0-.2.2-.3.3-.4l.2-.2a106.2 106.2 0 0 0 .8-1l.9-.9 1-1.2a10.7 10.7 0 0 1 1.1-1.1l.6-.4h.1l.1-.1.6-.3.6-.2.2-.1h.1a11 11 0 0 0 1.1-.6l.9-.7a4.2 4.2 0 0 1-1.5.8 1 1 0 0 1-.1 0h-.2l-.4.2-.8.3h-.1a8.6 8.6 0 0 0-1.3.6h-.1l-1.3 1.2-1 1.3-1.1 1.2v.1l-.5.5a41.7 41.7 0 0 1 .7-1.5c.4-1 1-1.8 1.4-2.7.7-.2 1.3-.6 2-1a20 20 0 0 0 1.9-1.6l3.7-3a15.3 15.3 0 0 1 4.2-2.3 8.9 8.9 0 0 1 2.4-.4 6.8 6.8 0 0 1 2 .2h.2l.2.1a3.2 3.2 0 0 0-.3-.1h-.1a6.7 6.7 0 0 0-3-.4 7.7 7.7 0 0 0-1.8.4c-1.5.4-2.9 1.1-4.1 2l-3.4 2.8-.4.3-.4.4-1.4 1.2-1.4 1a27.4 27.4 0 0 1 6-6.5l.4-.3a20.6 20.6 0 0 1 5.5-2.7 15.3 15.3 0 0 1 5.3-.8 14.6 14.6 0 0 0-5.1.4l-.4.1-.6.2a19.6 19.6 0 0 0-4.9 2.3 20.8 20.8 0 0 0-1.4.9l.5-.7a6.4 6.4 0 0 1 .7-.6l.1-.2a13.6 13.6 0 0 1 3.8-2.5l2.6-1a30.4 30.4 0 0 1 8.4-1.5h1.8l.8-.2h.3-1.1a108.5 108.5 0 0 0-4.7.2c-1.9.1-3.8.4-5.7 1-1.5.4-3 1-4.4 2a13.8 13.8 0 0 0-3.5 3v.2l-.3.3-.1.2-.5 1a23 23 0 0 0-4.1 4.5l-.3.5a8.8 8.8 0 0 1 .5-2.5l.1-.2a7.5 7.5 0 0 1 1.3-2.3l.6-.6 1.1-1.3.3-.4.2-.2v-.1l-.5.4v.1c-.2 0-.3.2-.4.3l-.7.6-.3.2-.9 1a7.9 7.9 0 0 0-1 1.7l-.1.2v.1l-.2.5a6.1 6.1 0 0 0-.3 1.6v1.2l-.7 1.3-1 1.8a42.3 42.3 0 0 0-3 8 29.2 29.2 0 0 0-.5 2.6 18.2 18.2 0 0 0-.2 2.2v.2a15.2 15.2 0 0 1-.2-1.4v-.5l-.1-1.5v-1.7l.1-.4a16.7 16.7 0 0 1 1-4.3 9.9 9.9 0 0 1 .4-.8l.9-1.8v-.1l.5-.8a171 171 0 0 0 2.4-4.7v-.1l.2-.2.1-.3-.2.4-2.5 4-.2.3v.2l-.2.2a31 31 0 0 0-2.1 4.5 14.4 14.4 0 0 0-.4 1v.5a17.8 17.8 0 0 0 .3 8.9 17.5 17.5 0 0 0 .3 2.2v.2a32.7 32.7 0 0 0 1 4l.4 1 .4 1 .4 1 .1.3.1.2.3.5.5 1 .5 1 .5.8.3.5.2.2.1.3.6.9.7.8.3.4.4.4.7.9.8.7c0 .2.2.3.4.4l.4.4.2.2.2.1.2.2h.1l.1.2h.1l.3.3.5.3a15 15 0 0 0 1 .6l.2.1.2.1.3.1-.6.6c-.3.2-.5.5-.5 1a1.6 1.6 0 0 0 .2.6h.2a1.3 1.3 0 0 0 .3-.5v-.2a1.6 1.6 0 0 0 .1-.2l.2-.7H257.1l.2.2.3.2.6.4a1.9 1.9 0 0 1 .2-.2l.2.3.2.1.2.1.8.4a17.1 17.1 0 0 0 4.6 1.2l.8.1a41 41 0 0 0 7.2.4 95.1 95.1 0 0 0 3.3 0c1.3-.1 2.7-.2 4-.5l1.6.2a46 46 0 0 0 7.4-1.7c.8-.3 1.5-.8 2.2-1.3 1.4-1 2.5-2.2 3.6-3.6a27.4 27.4 0 0 1-3.8 3.3c-1.4 1-3 1.5-4.5 2l-2.5.5a10.9 10.9 0 0 1-3 .4 24 24 0 0 0 6.8-2.7 27.8 27.8 0 0 0 3.2-2.1 25.4 25.4 0 0 0 4.3-4.4l.5-.8.6-.7.9-1.6.5-1a12.2 12.2 0 0 0 2.9-5v-.1Zm-37-25 .2-.3a32.8 32.8 0 0 1 3.7-2.7 10.8 10.8 0 0 0-.8 1.5 21.3 21.3 0 0 0-2 6.8v.5l-.1 1v1.7h.2l-.3.2-.3.3-.4.4-.2.2-1 1-.3.3-1.7 2.3-.2.2a28.3 28.3 0 0 0-4 9.1l-.1.2-.1.6v.1l-.1.1-.3 1.6-.1 1a10.1 10.1 0 0 1-.4-1.8l-.1-1.3-.1-.8v-.6l.2-.6a21 21 0 0 1 .7-2.1v-.4a20.8 20.8 0 0 1 1.9-3.6v-.1a52.1 52.1 0 0 1 1-1.6l.2-.4.3-.5a118 118 0 0 0 2-3.4l-1.3 1.6a71.6 71.6 0 0 0-1.8 2.4 140 140 0 0 0-1.6 2.6 19.4 19.4 0 0 0-1.4 3.7l-.4 1.9a71.2 71.2 0 0 1-.2-3.1v-.1a.9.9 0 0 1 0-.2v-.6a14.2 14.2 0 0 1 .2-2.5 16.4 16.4 0 0 1 .6-2.6 11.3 11.3 0 0 1 .8-1.3l.3-.4 2-2.5.4-.3a42 42 0 0 1 1.7-1.7l.8-.8a74 74 0 0 0 1.3-1.2l.4-.4a21.6 21.6 0 0 0 1-1.2 37.2 37.2 0 0 0-1 .7v.1h-.2l-1.9 1.6-1.5 1.3a29.4 29.4 0 0 0-3 3.4 25.8 25.8 0 0 1 3.2-5.3l.7-.8c0-.2.2-.3.3-.4l2.8-2.9Zm-6.8 39a12.2 12.2 0 0 0-.2-.5 28.3 28.3 0 0 1-.8-2 50.9 50.9 0 0 1-1.4-3.4l-1-3-.2-.8-.1-.4v-.4c-.2-.3-.2-.5-.2-.8l-.1-.4v-.4l-.3-2.5a19.4 19.4 0 0 1 .3-4.5V131.8a27.5 27.5 0 0 1 1.4-5 15.6 15.6 0 0 0-.2 3.4v.6a32.6 32.6 0 0 0 .4 2.8l.1.6v.2l.1.3a59.4 59.4 0 0 0 .5 2.5l.5 1.4V139a28.3 28.3 0 0 0-.1 4.3v.9a26.7 26.7 0 0 0 1.4 6.8v.2l.2.3-.3-.3Zm2.3 1.2h-.3v-.2l-.1-.2a14.2 14.2 0 0 1-.8-2.2 27.2 27.2 0 0 1-1.1-5.5 2.8 2.8 0 0 0 1.7 0l1.6-.8 1.4-1 1.3-1a62.3 62.3 0 0 0 2-1.5 37.8 37.8 0 0 0 1-.8 19.7 19.7 0 0 0 2.2-2 39.6 39.6 0 0 0 1.3-1.4v.2h.1a19.3 19.3 0 0 1 1.4 5V141.3l.1.5v4a21.5 21.5 0 0 1-.1.3v.4l-.5.4-.2.2-1.3 1.2-.5.4a13.6 13.6 0 0 1-3.5 2.2 7.6 7.6 0 0 0 .2-.6l.1-.2a8.3 8.3 0 0 0 .4-1.5v-.5a5.3 5.3 0 0 0 0-1 8.3 8.3 0 0 0 0-.9v-.1a5.3 5.3 0 0 0-.2-.9l-.1-.3a4.4 4.4 0 0 0-.2-.5V145.4a33.1 33.1 0 0 1 0 .7v.5l-.1.4v.1a16.5 16.5 0 0 1 0 .8l-.1.3a6 6 0 0 1 0 .6l-.1.2v.3l-.3 1v.3l-.2.6a16.8 16.8 0 0 1-2.6.8 14.3 14.3 0 0 1-2.5.4Zm-4.4-23.1a13.3 13.3 0 0 1 .2-2.5 16.5 16.5 0 0 1 .5-2.5l-.2.2c-.1 0-.2 0-.3.2l-.2.1-1 .7v.2l-.2.5-.2.7-.3 1.5v.4l-.1.2v.2-.1l.5-.5c-.3.3-.4.6-.6 1v.4l-.2.8v.8l-.1.8c0-.2.2-.3.3-.4v-.2a27.4 27.4 0 0 1 1.4-5 15.6 15.6 0 0 0-.2 3.4l.3-.2.2-.3v-.1l.1-.1h.1v-.2Zm8.6-14.2v.2a5.5 5.5 0 0 1-.1.2h-.2l-.1.3-.1.2.4-.4a18.5 18.5 0 0 0 1-1.2l-1 .7Zm-6.7 20.2v-.2l.4-.8-.7.6-.1.6v.1l-.1.1-.3 1.6-.1 1-.3-1.4v-.4l-.2-1.3-.1-.8a42 42 0 0 1 .9-3.3v-.4a21 21 0 0 1 1.9-3.6v-.1l.5-.8.1-.2.4-.6.2-.4.3-.5.3-.4 1.7-3-1.3 1.6a71.6 71.6 0 0 0-1.8 2.4l-.5.8a34 34 0 0 0-2 3.5 14.3 14.3 0 0 0-.9 3.9 80 80 0 0 1-.2-3.1v-.1a1.2 1.2 0 0 1 0-.2V130.3l-.3.3-.3.4a31.4 31.4 0 0 0 .4 3.3v.2l.1.3a59.4 59.4 0 0 0 .5 2.5l.5 1.4a36 36 0 0 1 1-3.3Zm-2-5.3h.1a17 17 0 0 1 0-.5h-.1l-.1.2-.2.3-.2.3v.5l.2-.2.3-.4v-.2Zm1.4 12.6.3-2.1.5-2.5.1-.4.3-1.6.3-1.3a13.6 13.6 0 0 0-.9.6 36.5 36.5 0 0 0-1 3.4v.2a27.4 27.4 0 0 0-.1 4.3 5.7 5.7 0 0 1 .3-.3l.2-.2v-.1Zm24.3.5a21.2 21.2 0 0 1-1 .4l-.5.6-.1.1-.3.2-.3.3-.3.3-.6.5-.6.4-.5.4-.6.4-.5.4v-.3l.4-.7.2-.5v-.2l.1-.1.2-.4-.4.2-.2.4-.1.3a8.4 8.4 0 0 0-.3 1.1l-.1.3c-.6.4-1.1.8-1.7 1l-.6.5-.3.1-.4.2-1.2.6c-.2.2-.5.3-.7.3l-.6.3-1.4.6-1 .3c.7-.4 1.4-.9 2-1.5l.3-.2a39.8 39.8 0 0 0 2.9-2.7c0-.1 0-.2.2-.3l.1-.1h-.3l-.3.1a24.1 24.1 0 0 0 .9-.6l.2-.2.1-.1-.3.1-.7.2-.8.2-.2.2v-.1h-.2v.4l-.5.4-.2.2-1.3 1.2-.5.4a13.5 13.5 0 0 1-3.5 2.2 8.6 8.6 0 0 0 .2-.6l.1-.2a8.3 8.3 0 0 0 .4-1.6v-.4a5.3 5.3 0 0 0 0-1V146.2a7.5 7.5 0 0 0-.2-1l-.1-.3a4.4 4.4 0 0 0-.2-.5V146a4.4 4.4 0 0 1 0 .4v.2l-.1.4v.9l-.1.3V148.8l-.1.2v.3l-.3 1v.3l-.2.6a17.5 17.5 0 0 1-1 .4 45.3 45.3 0 0 0 6-.9l.9-.2.9-.3.8-.3h.2l-1 .1-1 .3.7-.4 1.3-.6.3-.1.4-.2.6-.4a31.1 31.1 0 0 0 7.6-5.9l-.6.4Zm-25.6-13.8a13.3 13.3 0 0 1 .2-2.5 16.5 16.5 0 0 1 .5-2.5l-.2.2c-.1 0-.2 0-.3.2l-.2.1-1 .7v.2l-.2.5-.2.7-.3 1.5v.4l-.1.2v.2-.1l.5-.5c-.3.3-.4.6-.6 1v.4l-.2.8v.8l-.1.8c0-.2.2-.3.3-.4v-.2a27.4 27.4 0 0 1 1.4-5 15.6 15.6 0 0 0-.2 3.4l.3-.2.2-.3v-.1l.1-.1h.1v-.2Zm8.6-14.2v.2a5.5 5.5 0 0 1-.1.2h-.2l-.1.3-.1.2.4-.4a18.5 18.5 0 0 0 1-1.2l-1 .7Zm-6.7 20.2v-.2l.4-.8-.7.6-.1.6v.1l-.1.1-.3 1.6-.1 1-.3-1.4v-.4l-.2-1.3-.1-.8a42 42 0 0 1 .9-3.3v-.4a21 21 0 0 1 1.9-3.6v-.1l.5-.8.1-.2.4-.6.2-.4.3-.5.3-.4 1.7-3-1.3 1.6a71.6 71.6 0 0 0-1.8 2.4l-.5.8a34 34 0 0 0-2 3.5 14.3 14.3 0 0 0-.9 3.9 80 80 0 0 1-.2-3.1v-.1a1.2 1.2 0 0 1 0-.2V130.3l-.3.3-.3.4a31.4 31.4 0 0 0 .4 3.3v.2l.1.3a59.4 59.4 0 0 0 .5 2.5l.5 1.4a36 36 0 0 1 1-3.3Zm-2-5.3h.1a17 17 0 0 1 0-.5h-.1l-.1.2-.2.3-.2.3v.5l.2-.2.3-.4v-.2Zm1.4 12.6.3-2.1.5-2.5.1-.4.3-1.6.3-1.3a13.6 13.6 0 0 0-.9.6 36.5 36.5 0 0 0-1 3.4v.2a27.4 27.4 0 0 0-.1 4.3 5.7 5.7 0 0 1 .3-.3l.2-.2v-.1Zm24.3.5a21.2 21.2 0 0 1-1 .4l-.5.6-.1.1-.3.2-.3.3-.3.3-.6.5-.6.4-.5.4-.6.4-.5.4v-.3l.4-.7.2-.5v-.2l.1-.1.2-.4-.4.2-.2.4-.1.3a8.4 8.4 0 0 0-.3 1.1l-.1.3c-.6.4-1.1.8-1.7 1l-.6.5-.3.1-.4.2-1.2.6c-.2.2-.5.3-.7.3l-.6.3-1.4.6-1 .3c.7-.4 1.4-.9 2-1.5l.3-.2a39.8 39.8 0 0 0 2.9-2.7c0-.1 0-.2.2-.3l.1-.1h-.3l-.3.1a24.1 24.1 0 0 0 .9-.6l.2-.2.1-.1-.3.1-.7.2-.8.2-.2.2v-.1h-.2v.4l-.5.4-.2.2-1.3 1.2-.5.4a13.5 13.5 0 0 1-3.5 2.2 8.6 8.6 0 0 0 .2-.6l.1-.2a8.3 8.3 0 0 0 .4-1.6v-.4a5.3 5.3 0 0 0 0-1V146.2a7.5 7.5 0 0 0-.2-1l-.1-.3a4.4 4.4 0 0 0-.2-.5V146a4.4 4.4 0 0 1 0 .4v.2l-.1.4v.9l-.1.3V148.8l-.1.2v.3l-.3 1v.3l-.2.6a17.5 17.5 0 0 1-1 .4 45.3 45.3 0 0 0 6-.9l.9-.2.9-.3.8-.3h.2l-1 .1-1 .3.7-.4 1.3-.6.3-.1.4-.2.6-.4a31.1 31.1 0 0 0 7.6-5.9l-.6.4Zm-25.6-13.8a13.3 13.3 0 0 1 .2-2.5 16.5 16.5 0 0 1 .5-2.5l-.2.2c-.1 0-.2 0-.3.2l-.2.1-1 .7v.2l-.2.5-.2.7-.3 1.5v.4l-.1.2v.2-.1l.5-.5c-.3.3-.4.6-.6 1v.4l-.2.8v.8l-.1.8c0-.2.2-.3.3-.4v-.2a27.4 27.4 0 0 1 1.4-5 15.6 15.6 0 0 0-.2 3.4l.3-.2.2-.3v-.1l.1-.1h.1v-.2Zm8.6-14.2v.2a5.5 5.5 0 0 1-.1.2h-.2l-.1.3-.1.2.4-.4a18.5 18.5 0 0 0 1-1.2l-1 .7Zm-6.7 20.2v-.2l.4-.8-.7.6-.1.6v.1l-.1.1-.3 1.6-.1 1-.3-1.4v-.4l-.2-1.3-.1-.8a42 42 0 0 1 .9-3.3v-.4a21 21 0 0 1 1.9-3.6v-.1l.5-.8.1-.2.4-.6.2-.4.3-.5.3-.4 1.7-3-1.3 1.6a71.6 71.6 0 0 0-1.8 2.4l-.5.8a34 34 0 0 0-2 3.5 14.3 14.3 0 0 0-.9 3.9 80 80 0 0 1-.2-3.1v-.1a1.2 1.2 0 0 1 0-.2V130.3l-.3.3-.3.4a31.4 31.4 0 0 0 .4 3.3v.2l.1.3a59.4 59.4 0 0 0 .5 2.5l.5 1.4a36 36 0 0 1 1-3.3Zm-2-5.3h.1a17 17 0 0 1 0-.5h-.1l-.1.2-.2.3-.2.3v.5l.2-.2.3-.4v-.2Zm1.4 12.6.3-2.1.5-2.5.1-.4.3-1.6.3-1.3a13.6 13.6 0 0 0-.9.6 36.5 36.5 0 0 0-1 3.4v.2a27.4 27.4 0 0 0-.1 4.3 5.7 5.7 0 0 1 .3-.3l.2-.2v-.1Zm24.3.5a21.2 21.2 0 0 1-1 .4l-.5.6-.1.1-.3.2-.3.3-.3.3-.6.5-.6.4-.5.4-.6.4-.5.4v-.3l.4-.7.2-.5v-.2l.1-.1.2-.4-.4.2-.2.4-.1.3a8.4 8.4 0 0 0-.3 1.1l-.1.3c-.6.4-1.1.8-1.7 1l-.6.5-.3.1-.4.2-1.2.6c-.2.2-.5.3-.7.3l-.6.3-1.4.6-1 .3c.7-.4 1.4-.9 2-1.5l.3-.2a39.8 39.8 0 0 0 2.9-2.7c0-.1 0-.2.2-.3l.1-.1h-.3l-.3.1a24.1 24.1 0 0 0 .9-.6l.2-.2.1-.1-.3.1-.7.2-.8.2-.2.2v-.1h-.2v.4l-.5.4-.2.2-1.3 1.2-.5.4a13.5 13.5 0 0 1-3.5 2.2 8.6 8.6 0 0 0 .2-.6l.1-.2a8.3 8.3 0 0 0 .4-1.6v-.4a5.3 5.3 0 0 0 0-1V146.2a7.5 7.5 0 0 0-.2-1l-.1-.3a4.4 4.4 0 0 0-.2-.5V146a4.4 4.4 0 0 1 0 .4v.2l-.1.4v.9l-.1.3V148.8l-.1.2v.3l-.3 1v.3l-.2.6a17.5 17.5 0 0 1-1 .4 45.3 45.3 0 0 0 6-.9l.9-.2.9-.3.8-.3h.2l-1 .1-1 .3.7-.4 1.3-.6.3-.1.4-.2.6-.4a31.1 31.1 0 0 0 7.6-5.9l-.6.4Zm-25.6-13.8a13.3 13.3 0 0 1 .2-2.5 16.5 16.5 0 0 1 .5-2.5l-.2.2c-.1 0-.2 0-.3.2l-.2.1-1 .7v.2l-.2.5-.2.7-.3 1.5v.4l-.1.2v.2-.1l.5-.5c-.3.3-.4.6-.6 1v.4l-.2.8v.8l-.1.8c0-.2.2-.3.3-.4v-.2a27.4 27.4 0 0 1 1.4-5 15.6 15.6 0 0 0-.2 3.4l.3-.2.2-.3v-.1l.1-.1h.1v-.2Zm8.6-14.2v.2a5.5 5.5 0 0 1-.1.2h-.2l-.1.3-.1.2.4-.4a18.5 18.5 0 0 0 1-1.2l-1 .7Zm-6.7 20.2v-.2l.4-.8-.7.6-.1.6v.1l-.1.1-.3 1.6-.1 1-.3-1.4v-.4l-.2-1.3-.1-.8a42 42 0 0 1 .9-3.3v-.4a21 21 0 0 1 1.9-3.6v-.1l.5-.8.1-.2.4-.6.2-.4.3-.5.3-.4 1.7-3-1.3 1.6a71.6 71.6 0 0 0-1.8 2.4l-.5.8a34 34 0 0 0-2 3.5 14.3 14.3 0 0 0-.9 3.9 80 80 0 0 1-.2-3.1v-.1a1.2 1.2 0 0 1 0-.2V130.3l-.3.3-.3.4a31.4 31.4 0 0 0 .4 3.3v.2l.1.3a59.4 59.4 0 0 0 .5 2.5l.5 1.4a36 36 0 0 1 1-3.3Zm-2-5.3h.1a17 17 0 0 1 0-.5h-.1l-.1.2-.2.3-.2.3v.5l.2-.2.3-.4v-.2Zm1.4 12.6.3-2.1.5-2.5.1-.4.3-1.6.3-1.3a13.6 13.6 0 0 0-.9.6 36.5 36.5 0 0 0-1 3.4v.2a27.4 27.4 0 0 0-.1 4.3 5.7 5.7 0 0 1 .3-.3l.2-.2v-.1Zm9.9-4.3v-.2l-.8.8-.2 1a37.8 37.8 0 0 0 .8-.6l.2-1Zm4.4-3.7a18.8 18.8 0 0 0-.5.4l-.6.3-.5.4-.4.4h-.1a10 10 0 0 0-.5.5l-.2.2a8.4 8.4 0 0 0-.7.7l-.1.3-.2.3-.4.5-.3.6.6-.5a40 40 0 0 0 2.9-2.9v.2h.2l-.2-.2a30 30 0 0 0 1-1.2Zm10 8.5a21.2 21.2 0 0 1-1 .4l-.5.6-.1.1-.3.2-.3.3-.3.3-.6.5-.6.4-.5.4-.6.4-.5.4v-.3l.4-.7.2-.5v-.2l.1-.1.2-.4-.4.2-.2.4-.1.3a8.4 8.4 0 0 0-.3 1.1l-.1.3c-.6.4-1.1.8-1.7 1l-.6.5-.3.1-.4.2-1.2.6c-.2.2-.5.3-.7.3l-.6.3-1.4.6-1 .3c.7-.4 1.4-.9 2-1.5l.3-.2a39.8 39.8 0 0 0 2.9-2.7c0-.1 0-.2.2-.3l.1-.1h-.3l-.3.1a24.1 24.1 0 0 0 .9-.6l.2-.2.1-.1-.3.1-.7.2-.8.2-.2.2v-.1h-.2v.4l-.5.4-.2.2-1.3 1.2-.5.4a13.5 13.5 0 0 1-3.5 2.2 8.6 8.6 0 0 0 .2-.6l.1-.2a8.3 8.3 0 0 0 .4-1.6v-.4a5.3 5.3 0 0 0 0-1V146.2a7.5 7.5 0 0 0-.2-1l-.1-.3a4.4 4.4 0 0 0-.2-.5V146a4.4 4.4 0 0 1 0 .4v.2l-.1.4v.9l-.1.3V148.8l-.1.2v.3l-.3 1v.3l-.2.6a17.5 17.5 0 0 1-1 .4 45.3 45.3 0 0 0 6-.9l.9-.2.9-.3.8-.3h.2l-1 .1-1 .3.7-.4 1.3-.6.3-.1.4-.2.6-.4a31.1 31.1 0 0 0 7.6-5.9l-.6.4Zm-11.8-6.4-.5.3-.4.4a39.9 39.9 0 0 0 1-.7h-.1Zm-13.2-.2-.1-1.3-.1-.8a32.4 32.4 0 0 1 .9-3.3v-.4a21 21 0 0 1 1.9-3.6v-.1a40.5 40.5 0 0 1 1-1.6l.2-.4.3-.5.3-.4 1.7-3-1.3 1.6a74.4 74.4 0 0 0-1.8 2.4 139.7 139.7 0 0 0-1.5 2.5l-.1.1a19.5 19.5 0 0 0-1.4 3.7l-.4 1.9a71.3 71.3 0 0 1-.2-3.1v-.2.2l-.3.3-.3.4a31.5 31.5 0 0 0 .4 3.3v.2l.1.3a59.4 59.4 0 0 0 .5 2.5 20.9 20.9 0 0 1 .2-.7Zm8-21.4v.2l-.1.2h-.2l-.1.3-.1.2.4-.4a18.5 18.5 0 0 0 1-1.2l-1 .7Zm-7 19.8-.1.6v.1l.2-.1.1-.1.1-.1a11.8 11.8 0 0 1 .4-1l-.7.6Zm-1.6-5a28.5 28.5 0 0 1 0-.4h-.1l-.1.2-.2.3-.3.3v.5c.2 0 .2-.1.3-.2a21 21 0 0 0 .3-.4v-.2Zm17-7-1.3 1.3-.1.3-.2.1a23.5 23.5 0 0 0-.7 1.1l-.2.3v.2l-.2.3 1.1-1.1.2-.1v-.2a8.9 8.9 0 0 1 .4-.6 10.3 10.3 0 0 1 1-1.3l.2-.4.2-.2-.4.4Zm2.9 19.4-.8.7-.4.5-.2.3a17 17 0 0 0 .8-.9 27.8 27.8 0 0 0 .6-.6Zm6.3.3-.3.1-.3.2a10 10 0 0 1-.4.2 1.6 1.6 0 0 1-.2.1l-.3.3-.6.6-.1.1-.3.2-.3.3-.4.3-.5.5-.6.4-.5.4-.6.4-.5.4v-.3l.4-.7.2-.5v-.2a6.7 6.7 0 0 1 .3-.5 12.4 12.4 0 0 1 .1-.3l.1-.2-.4.2a8.7 8.7 0 0 0-.4 1l-.1.2a8.4 8.4 0 0 0-.3 1.1l-.1.3c-.6.4-1.1.8-1.7 1l-.6.5-.3.1-.4.2-1.2.6c-.2.2-.5.3-.7.3l-.6.3-1.4.6-1 .3a14.9 14.9 0 0 0 2.3-1.7 40.3 40.3 0 0 0 2.9-2.7c0-.1 0-.2.2-.3l.1-.1.2-.3a26.3 26.3 0 0 0 1-1.2l-.3.1-1.4.6-.4.2-.3.3-.2.2v-.1a9 9 0 0 0 .3-.7v-.4a8.6 8.6 0 0 0 .3-1.2V142h.1l.3-.5.3-.5.2-.5.6-1a6 6 0 0 0 1-1.1 7.3 7.3 0 0 0 1-1.7 31 31 0 0 1 0-1.7 12 12 0 0 1-1 2.4l-.1.2-.6 1v-.1a14.8 14.8 0 0 0 .7-4.2l-.7 2v.1a59 59 0 0 1-.7 2l-.6 1.5v.2l-.1.2-.2.5-.1.2v.3h-.1v-.2a5.6 5.6 0 0 0-.2-1 10.7 10.7 0 0 0-1.9-4.1l-.2-.2 1-1v-.2l.3-.3a24.6 24.6 0 0 0 3.1-5.3 19.5 19.5 0 0 0 .7-2.5 19.8 19.8 0 0 1-2.6 5.2 30.3 30.3 0 0 1-4.3 5l-.2.2-1.3 1.2h-.1l-.8.8-.2 1a35 35 0 0 0 .9-.7 19.5 19.5 0 0 0 2.2-2 39.7 39.7 0 0 0 1.3-1.4v.2h.1a19.3 19.3 0 0 1 1.4 4.7v.6l.1.5v4a6.7 6.7 0 0 1-.2.7 23.6 23.6 0 0 0-.6.6l-1.3 1.2-.5.4a13.6 13.6 0 0 1-3.5 2.2 7.8 7.8 0 0 0 .2-.6l.1-.2a8.3 8.3 0 0 0 .4-1.6 1 1 0 0 0 0-.2v-.2a5.3 5.3 0 0 0 0-1V146.2a8.9 8.9 0 0 0-.2-1l-.1-.3a4 4 0 0 0-.2-.4v-.1V146a4.4 4.4 0 0 1 0 .4v.2l-.1.4v.9l-.1.3V148.8a5 5 0 0 1-.2.5c0 .3 0 .7-.2 1v.3l-.2.6a19.6 19.6 0 0 1-1 .4 44 44 0 0 0 6-.9l.9-.2.9-.3.8-.3h.2l-1 .1-1 .3.7-.4 1.3-.6.3-.1.4-.2.6-.4a31 31 0 0 0 8-6.2l-.4.2Z"/>
    <path d="M264.6 148v-.3a3.6 3.6 0 0 1-.4-1c-.1-.6-.2-1.2-.1-1.9l.2-1.9.2-1.9.1-.8v-.2a31 31 0 0 1 1.3-5.5v-.2a35.2 35.2 0 0 1 .3-.6h-.3v-.1.2l-.1.2a19 19 0 0 0-.6 2.3v.6l-.1.4-.1.5-.2 1.2v.1a24.8 24.8 0 0 0-.2 1l-.2 1.1-.2 2-.2 1.8.1 2a3.7 3.7 0 0 0 .4 1v.1h.1v-.1Zm1.8-16.1v.3l-.1.2.1-.5Zm-6.1 8.8h-.4l-.1.1h-.4l-.1.1a6 6 0 0 0-.3.1h-.2l-.4.2h-.2l-.1.1-1.7 1h-.1l-.2.2-.3.2-.2.2-.3.3v.9l.5-.3v-.1h.1l.2-.2.3-.2v-.1l.2-.1 1-.7h.1v-.1l.2-.1.4-.3h.2a14 14 0 0 1 .7-.5l.4-.2c.2 0 .3-.2.5-.3l.4-.2h-.2Zm2.6-9.1a5.7 5.7 0 0 0-.7.1h-.2l-.1.2v-.1h-.3l-.1.5a9.6 9.6 0 0 0-.4.5l.5-.2h.2a7.8 7.8 0 0 1 .4-.2l.2-.2.1-.2a37.5 37.5 0 0 1 .4-.4Zm-7.6 12.6-.2.1a9.1 9.1 0 0 1 .2-.1Zm29-3.2h.2-.1Zm-3.2 2a18.3 18.3 0 0 1-1.5.8l1.1-1a28.2 28.2 0 0 1-1.5.7l-.3.2a25.6 25.6 0 0 1-1.3 1.1h.3v-.1l.3-.1a28.6 28.6 0 0 0 1.4-.6h.1l.1-.1.7-.3.3-.2.3-.1a15.3 15.3 0 0 0 1.1-.7l-1 .5Zm-5.8 2v.1l-.4.1-1.8.8a17.4 17.4 0 0 1-.7.2h-.2l-.2.1a24 24 0 0 0 .5-.6h.2l.1-.2-.3.1-.7.2-.8.2-.2.2v-.1h-.2v.4l-.5.4-.2.2-1.3 1.2-.5.4.5-.2.2-.2a24.2 24.2 0 0 0 2-1.3l.2-.1.2-.2h.1a4.7 4.7 0 0 0 .6 0h.1l.3-.1a14.2 14.2 0 0 0 1.9-.6 79.9 79.9 0 0 0 1.2-.4v-.2a5.5 5.5 0 0 1 .3-.5l-.4.2Zm16.6-17v-.2.1c0 .3-.2.5-.3.7l.3-.5Zm-.4.3-.1.3a32.6 32.6 0 0 1-1.7 4.1l.1-.1a25.6 25.6 0 0 0 1.4-2.8l.3-1.5Zm-3 5.9.1-.4.1-.2.2-.8.1-.3a23.3 23.3 0 0 0 .7-3.3 63.4 63.4 0 0 0 .3-3.4v.4c-.2.2-.2.5-.3.7l-.2.7-.2.6-.2.9-.6 2.2a40 40 0 0 1-.6 2.1v.2l-.1.3a27.8 27.8 0 0 1-.4 1.2l-.3.6v.2l-.2.3v.1l-.1.2a19.2 19.2 0 0 1-1.4 2.5 18.1 18.1 0 0 1-1.6 1.5l2-.3.3-.3a49.6 49.6 0 0 0 .8-2.5l.3-.9.1-.5v-.2l.3-.1.4-.5-.2.8.1-.2a5.7 5.7 0 0 0 .2-.6l.2-.3.2-.7Zm-6.2 7.4-.5.3-.5.4-.3.1-.3.2-.3.1a19.2 19.2 0 0 1-.7.4l-.2.1-.3.2h-.2l-1 .6-.6.2-.5.2a15.9 15.9 0 0 0 1.4-1.1h.1v-.1l.2-.1a6.9 6.9 0 0 0 .7-.7v-.1l.2-.2h.1l.4-.5.2-.3.1-.1.2-.2a22.1 22.1 0 0 0 2.1-3.5l1-2 .4-.9.3-.7v-.1a75.1 75.1 0 0 0 .8-1.7l.2-.6.1-.2-.2.3v.1a22.3 22.3 0 0 0-.5.6l-.2.4-.3.5-1.1 2-1.1 2a73 73 0 0 1-1.2 1.8l-.1.3-.2.3-.6.8a18.8 18.8 0 0 1-.5.8h-.1c0 .2-.1.2-.2.3l-.9 1v.1l-.4.4a8.8 8.8 0 0 1-.3.3 27 27 0 0 1-1.1 1l-.2.2-.4.4h-.1l-.2.3v.2l-.1.2a78.8 78.8 0 0 0 2.1-.8h.1a27.1 27.1 0 0 0 1.6-1.3 10 10 0 0 0 .9-.4l.6-.4-1 1.1.2-.1a28.7 28.7 0 0 0 1.2-.6l1.2-1.5Zm2-.6h.2-.1Zm-3.2 2a14.3 14.3 0 0 1-1.5.8l1.1-1a28.2 28.2 0 0 1-1.5.7l-.3.2a25.6 25.6 0 0 1-1.3 1.1h.3v-.1l.3-.1a24.4 24.4 0 0 0 1.1-.5l.3-.1h.1l.1-.1.7-.3.3-.2.3-.1.3-.2.2-.2.6-.3-1 .5Zm-5.8 2v.1l-.4.1-1.8.8-.4.1-.3.1h-.2l-.2.1-.4.1a18.6 18.6 0 0 0 .9-.6l.2-.2.1-.1-.3.1-.7.2-.8.2-.2.2v-.1h-.2v.4l-.5.4-.2.2-1.3 1.2-.5.4.5-.2.2-.2.2-.1.5-.3a12.6 12.6 0 0 0 1.3-.9l.2-.1.2-.2h.1a3.8 3.8 0 0 0 .6 0h.1a9 9 0 0 0 1.2-.4l1-.3.8-.2.4-.2v-.2l.1-.2.2-.3-.4.2Zm-10.7 3v-.3a3.6 3.6 0 0 1-.4-1c-.1-.6-.2-1.2-.1-1.9l.2-1.9.2-1.9.1-.8v-.2a31.4 31.4 0 0 1 1.3-5.5v-.2a41.9 41.9 0 0 1 .3-.6h-.3v-.1.2a10.1 10.1 0 0 0-.2.7 20.4 20.4 0 0 0-.6 2.4v.4l-.1.5-.2 1.2v.1a24.9 24.9 0 0 0-.2 1l-.2 1.1-.2 2-.2 1.8.1 2a3.7 3.7 0 0 0 .4 1v.1h.1v-.1Zm1.8-16.1v.3l-.1.2.1-.5Zm-6.1 8.8h-.4l-.1.1a4 4 0 0 0-.4 0l-.1.1-.3.1h-.2a9.5 9.5 0 0 0-2.4 1.2l-.1.2h-.2v.1l-.3.2-.2.2a3.5 3.5 0 0 0-.3.3v.9l.5-.3v-.1h.1l.2-.2.3-.2v-.1l.2-.1 1-.7h.1v-.1l.2-.1a7.2 7.2 0 0 1 .5-.3 21.3 21.3 0 0 1 .8-.5l.4-.2c.2 0 .3-.2.5-.3l.4-.2h-.2Zm2.6-9.1a5.7 5.7 0 0 0-.9.2h-.4l-.1.5a9.6 9.6 0 0 0-.4.5l.5-.2h.2l.4-.1.2-.3.1-.2a37.4 37.4 0 0 1 .4-.4Zm-7.6 12.6-.2.1a6.5 6.5 0 0 1 .2-.1Zm36.6-16.1V127.8v.1a50.7 50.7 0 0 1 0 .2Zm-.4.2-.1.3a33 33 0 0 1-1.7 4.1l.1-.1a26.7 26.7 0 0 0 1.4-2.8l.3-1.5Zm-3 5.9.1-.4a44.5 44.5 0 0 0 .3-1l.1-.3a22.5 22.5 0 0 0 .7-3.3 63.2 63.2 0 0 0 .3-3.4v.4c-.2.2-.2.5-.3.7l-.2.7-.2.6-.2.9-.6 2.2-.6 2.1v.2l-.1.3a21 21 0 0 1-.4 1.2l-.3.6v.2l-.2.3v.1l-.1.2a13.1 13.1 0 0 1-.5 1 23.5 23.5 0 0 1-.9 1.5 21.4 21.4 0 0 1-1.5 1.4l2-.2.2-.3.3-.7.1-.5a81.2 81.2 0 0 0 .8-2.7v-.2l.3-.1.4-.5-.2.8.1-.2.1-.3v-.2a25.8 25.8 0 0 0 .3-.4l.2-.7Zm-6.2 7.4-.5.3-.5.4-.3.1-.3.2-.3.1a19.2 19.2 0 0 1-.7.4 1.6 1.6 0 0 1-.2.1l-.3.2h-.2l-1 .6-.6.2-.5.2a15.9 15.9 0 0 0 1.5-1.2l.2-.1a6.2 6.2 0 0 0 .7-.8l.2-.2h.1l.4-.5.2-.3.1-.1.2-.2a22 22 0 0 0 2.1-3.5l1-2 .4-.9.3-.7v-.1l.4-.8.4-.9.2-.6.1-.2-.2.3v.1l-.4.5v.1l-.3.4a31 31 0 0 0-1.4 2.5l-1.1 2a67 67 0 0 1-1.2 1.8l-.1.3-.2.3-.6.8a12.8 12.8 0 0 1-.5.8h-.1l-.2.3-.9 1v.1a47.9 47.9 0 0 1-1.4 1.4l-.4.3-.2.2-.4.4h-.1l-.2.3v.2l-.1.2a78.8 78.8 0 0 0 2.1-.8h.1a26.2 26.2 0 0 0 1.3-1.1l.3-.2h.2a19.1 19.1 0 0 0 1.3-.8 33 33 0 0 1-.8 1 28.7 28.7 0 0 0 1.2-.6l1.2-1.5Zm2-.6h.2-.1Zm-3.2 2a18.3 18.3 0 0 1-1.2.7l-.3.1 1.1-1a30.3 30.3 0 0 1-1.5.7l-.3.2a25.6 25.6 0 0 1-1.3 1.1h.3v-.1l.3-.1a24.4 24.4 0 0 0 1.4-.6h.1l.1-.1.7-.3.3-.2.3-.1.3-.2.2-.2.6-.3-1 .5Zm-5.8 2v.1l-.4.1-1.8.8-.4.1-.3.1h-.2l-.2.1-.4.1a30.7 30.7 0 0 0 .9-.6l.2-.2.1-.1-.3.1-.7.2-.8.2-.2.2v-.1h-.2v.4l-.5.4-.2.2-1.3 1.2-.5.4.5-.2.2-.2a13 13 0 0 0 1-.6l1-.7.2-.1.2-.2h.1a4.7 4.7 0 0 0 .6 0h.1a9 9 0 0 0 1.2-.4l1-.3.8-.2.4-.2v-.2l.1-.2.2-.3-.4.2Zm-10.7 3v-.3a3.5 3.5 0 0 1-.4-1c-.1-.6-.2-1.2-.1-1.9l.2-1.9.2-1.9.1-.8v-.2a30.6 30.6 0 0 1 1.3-5.5v-.2l.2-.5v-.1h-.2v-.1.2a6.7 6.7 0 0 0-.2.7l-.2.6a20.6 20.6 0 0 0-.4 1.8v.4l-.1.5-.2 1.2v.1a19.3 19.3 0 0 0-.2 1l-.2 1.1-.2 2-.2 1.8.1 2a3.7 3.7 0 0 0 .4 1v.1h.1v-.1Zm1.8-16.1v.3l-.1.2.1-.5Zm-6.1 8.8h-.4l-.1.1h-.4l-.1.1-.3.1h-.2l-.4.2h-.2l-.1.1-1.7 1h-.1l-.2.2-.3.2-.2.2-.3.3v.9l.5-.3v-.1h.1l.2-.2.3-.2v-.1l.2-.1 1-.7h.1v-.1l.2-.1.4-.3h.2a16.9 16.9 0 0 1 .7-.5l.4-.2c.2 0 .3-.2.5-.3l.4-.2h-.2Zm2.6-9.1a7.4 7.4 0 0 0-.9.2h-.4l-.1.5a8.4 8.4 0 0 0-.4.5 13.8 13.8 0 0 1 1.1-.4l.2-.2.1-.2.4-.4Zm-7.6 12.6-.2.1.2-.2Zm36.6-16.1V127.8v.1a56 56 0 0 1 0 .2Zm-.4.2-.1.3a31 31 0 0 1-.7 2.3l.5-1c0-.6.2-1.1.3-1.6Zm-3 5.9.1-.4a44.5 44.5 0 0 1 .3-1l.1-.3a23.3 23.3 0 0 0 .7-3.3 63.3 63.3 0 0 0 .3-3.4v.4c-.2.2-.2.5-.3.7l-.2.7a45.4 45.4 0 0 0-.4 1.5l-.6 2.2a40 40 0 0 1-.6 2.1v.2l-.1.3a21 21 0 0 1-.4 1.2l-.3.6v.2l-.2.3v.1a49.9 49.9 0 0 1-1.5 2.7 19.7 19.7 0 0 1-1.6 1.5l2-.3.3-.3.3-.7.1-.5a96 96 0 0 0 .8-2.7v-.2l.3-.1.4-.5-.2.8.1-.2a5.2 5.2 0 0 0 .2-.6l.2-.3.2-.7Zm-6.2 7.4-.5.3-.5.4-.3.1-.3.2-.3.1-.3.2a10 10 0 0 1-.4.2 1.6 1.6 0 0 1-.2.1l-.3.2h-.2l-1 .6-.6.2-.5.2a15.5 15.5 0 0 0 1.5-1.2l.2-.1.3-.3.4-.4v-.1a7.8 7.8 0 0 0 .3-.2l.4-.5.2-.3.1-.1.2-.2a21.9 21.9 0 0 0 2.1-3.5l1-2 .4-.9.3-.7v-.1l.4-.8.4-.9.2-.6.1-.2-.2.3v.1a24.4 24.4 0 0 0-.5.6l-.2.4a31 31 0 0 0-1.4 2.5l-1.1 2a67.2 67.2 0 0 1-1.2 1.8l-.1.3-.2.3-.6.8a14.8 14.8 0 0 1-.5.8h-.1l-.2.3-.9 1v.1l-.4.4a8.7 8.7 0 0 1-.3.3 25.4 25.4 0 0 1-1.1 1l-.2.2-.4.4h-.1a14.3 14.3 0 0 0-.2.5l-.1.2 1.5-.5.6-.3h.1l.4-.3a25.6 25.6 0 0 0 1.2-1 10 10 0 0 0 .9-.4l.6-.4-1 1.1.2-.1a28.7 28.7 0 0 0 1.2-.6l1.2-1.5Zm2-.6h.2-.1Zm-3.2 2a18.3 18.3 0 0 1-1.2.7l-.3.1 1.1-1a26.1 26.1 0 0 1-1.5.7l-.3.2a25.6 25.6 0 0 1-1 1l.3-.1a20.1 20.1 0 0 0 1.4-.6h.1l.1-.1a27.6 27.6 0 0 0 1-.5l.3-.1.3-.2a28 28 0 0 1 .8-.5l-1 .5Zm-5.8 2v.1l-.4.1-1.8.8a19.7 19.7 0 0 1-.7.2h-.2l-.2.1-.4.1a24.1 24.1 0 0 0 .9-.6l.2-.2.1-.1h-.3v.1l-.7.2-.8.2-.2.2v-.1h-.2v.4l-.5.4-.2.2-1.3 1.2a36.2 36.2 0 0 0-.5.4l.5-.2.2-.2a13 13 0 0 0 1-.6l1-.7.2-.1.2-.2h.1a4.6 4.6 0 0 0 .6 0h.1a9.7 9.7 0 0 0 1.2-.4l1-.3.8-.2.4-.2v-.2l.1-.2.2-.3-.4.2Zm-10.7 3v-.3a3.6 3.6 0 0 1-.4-1c-.1-.6-.2-1.2-.1-1.9l.2-1.9.2-1.9.1-.8v-.2a37 37 0 0 1 1.3-5.5v-.2l.2-.5v-.1h-.2v-.1a1.8 1.8 0 0 0 0 .2l-.1.2-.1.5-.2.6a20.5 20.5 0 0 0-.4 1.8v.4a52.4 52.4 0 0 0-.3 1.7v.1a19.3 19.3 0 0 0-.2 1l-.2 1.1-.2 2-.2 1.8.1 2a3.7 3.7 0 0 0 .4 1v.1h.1v-.1Zm1.8-16.1v.3l-.1.2.1-.5Zm-6.1 8.8h-.4l-.1.1h-.4l-.1.1-.3.1h-.2a7 7 0 0 0-.4.2h-.2l-.1.1-1.7 1h-.1l-.2.2-.3.2-.2.2-.3.3v.9l.5-.3v-.1h.1l.2-.2.3-.2v-.1l.2-.1 1-.7h.1v-.1l.2-.1.4-.3h.2a14 14 0 0 1 .7-.5l.4-.2c.2 0 .3-.2.5-.3a97.1 97.1 0 0 0 .2-.2Zm2.6-9.1a5.7 5.7 0 0 0-.9.2h-.4l-.1.5a9.3 9.3 0 0 0-.4.5l.5-.2h.2l.4-.1.2-.3.1-.2.4-.4Zm-7.6 12.6-.2.1.2-.2Zm36.6-16.1V127.8v.1a46.8 46.8 0 0 1 0 .2Zm-.4.2-.1.3a31.4 31.4 0 0 1-1.7 4.1l.1-.1a25.6 25.6 0 0 0 1.4-2.8l.3-1.5Zm-3 5.9.1-.4.1-.2a33 33 0 0 0 1-4.4 62.7 62.7 0 0 0 .3-3.4v.4c-.2.2-.2.5-.3.7l-.2.7a49.6 49.6 0 0 0-.4 1.5l-.6 2.2-.6 2.1v.2l-.1.3a20.8 20.8 0 0 1-.4 1.2 25.1 25.1 0 0 1-.4.8v.3l-.1.1-.1.2a15 15 0 0 1-1.9 3l-1 1 2-.3.2-.3.3-.7.1-.5a96 96 0 0 0 .8-2.7v-.2a7.6 7.6 0 0 0 .7-.6l-.2.8.1-.2a5.7 5.7 0 0 0 .2-.6 9.1 9.1 0 0 0 .2-.4l.2-.6Zm-6.2 7.4-.5.3-.5.4-.3.1-.3.2-.3.1-.3.2a9.2 9.2 0 0 1-.4.2 1.5 1.5 0 0 1-.2.1l-.3.2h-.2l-1 .6-.6.2-.5.2a16.2 16.2 0 0 0 1.4-1.1h.1v-.1l.2-.1a6.2 6.2 0 0 0 .7-.7v-.1l.2-.2h.1l.4-.5.2-.3.1-.1.2-.2a22 22 0 0 0 2.1-3.5l1-2 .4-.9.3-.7v-.1l.4-.8.4-.9.2-.6.1-.2-.2.3v.1l-.4.5v.1l-.3.4-.3.5a75 75 0 0 0-1.1 2l-1.1 2a78 78 0 0 1-1.2 1.8l-.1.3-.2.3-.6.8a12.8 12.8 0 0 1-.6.9l-.2.2-.9 1v.1l-.4.4-.1.1a10.7 10.7 0 0 1-1 1l-.3.2-.2.2-.4.4h-.1a16.5 16.5 0 0 0-.2.5l-.1.2a76.4 76.4 0 0 0 2.1-.8h.1a35.3 35.3 0 0 0 1.3-1.1l.3-.2a7.8 7.8 0 0 0 .9-.4l.6-.4a31 31 0 0 1-.8 1 26.4 26.4 0 0 0 1.2-.6l1.2-1.5Zm2-.6h.2-.1Zm-3.8 2.4-.6.3-.3.1 1.1-1a28.2 28.2 0 0 1-1.5.7l-.3.2-1 .8-.3.3h.3v-.1l.3-.1.5-.2.6-.3.3-.1h.1l.1-.1.7-.3.3-.2.3-.1.3-.2a16.5 16.5 0 0 1 .8-.5 27 27 0 0 1-1.7.8Zm-5.3 1.7-.3.1-1.8.8-.4.1-.3.1h-.2l-.2.1a7 7 0 0 1-.4.1 22.4 22.4 0 0 0 .9-.6l.2-.2.1-.1a22.3 22.3 0 0 1-.3.1l-.7.2-.8.2-.2.2v-.1h-.2v.4l-.5.4-.2.2-1.3 1.2-.5.4.5-.2.2-.2.2-.1.5-.3a14 14 0 0 0 1.3-.9l.2-.1.2-.2h.1a3.8 3.8 0 0 0 .6 0h.1a9.1 9.1 0 0 0 1.2-.4l1-.3a133.2 133.2 0 0 0 1.2-.4v-.2a5.5 5.5 0 0 1 .3-.5l-.4.2Zm-10.6 2.9a3 3 0 0 1-.3-1l-.1-.2c-.1-.7-.2-1.3-.1-2l.2-1.9a98.3 98.3 0 0 1 .3-3 34 34 0 0 1 1.3-5.4v-.2a41.9 41.9 0 0 1 .3-.6h-.3v-.1.2l-.1.2a20.2 20.2 0 0 0-.6 2.3v.6l-.1.4-.1.5-.2 1.2v.1a24.9 24.9 0 0 0-.2 1 61 61 0 0 0-.4 3l-.2 1.9.1 2 .4 1v.1h.1v-.1Zm1.7-15.8v.2l.1-.5v.3Zm-6.2 8.5h-.2l-.1.1a4 4 0 0 0-.4 0l-.1.1a6 6 0 0 0-.3.1h-.2l-.4.2a5.7 5.7 0 0 0-.3.1l-1.7 1h-.1l-.2.2-.3.2-.2.1a3.5 3.5 0 0 0-.3.4v.9l.5-.4h.1l.2-.2.3-.2v-.1l.2-.1 1-.7h.1v-.1l.2-.1h.1a7.2 7.2 0 0 1 .4-.3 18.4 18.4 0 0 1 .8-.5l.4-.2c.2 0 .3-.2.5-.3l.4-.2h-.4Zm1.5-8a13.1 13.1 0 0 1 .6-.3l.2-.2.1-.2.4-.4a7.4 7.4 0 0 0-.9.2h-.4l-.1.5a8.4 8.4 0 0 0-.4.5l.5-.2Zm-6.5 11.6a6.5 6.5 0 0 1 .2-.1l-.2.1Zm36.8-16.2V127.8v.1c0 .3-.2.5-.3.7l.3-.5Zm-.5.5a31.8 31.8 0 0 1-1.7 4.1l.1-.1a25.9 25.9 0 0 0 1.4-2.8l.3-1.5-.1.3Zm-2.8 5.2.1-.2a29 29 0 0 0 1-4.4 62.7 62.7 0 0 0 .3-3.4v.4c-.2.2-.2.5-.3.7l-.2.7-.2.6-.2.9-.6 2.2-.6 2.1v.2l-.1.3a16.7 16.7 0 0 1-.4 1.2 25 25 0 0 1-.4.8v.3l-.1.1-.1.2a15 15 0 0 1-1.9 3l-1 1 2-.3.2-.3.3-.7.1-.5a81.4 81.4 0 0 0 .8-2.7v-.2a7.7 7.7 0 0 0 .7-.6l-.2.8.1-.2a4.7 4.7 0 0 0 .2-.5l.2-.4.2-.7.1-.4Zm-6.4 7.9-.4.2-.5.4-.3.1-.3.2-.3.1a19.1 19.1 0 0 1-.6.4h-.2v.1h-.1l-.3.2a14 14 0 0 1-1.3.6l-.5.2-.5.2a15.8 15.8 0 0 0 1.5-1.2l.2-.1a6.9 6.9 0 0 0 .7-.8l.2-.2h.1l.4-.5.2-.3.1-.1.2-.2a21.2 21.2 0 0 0 2.1-3.5l1-2 .4-.9.3-.7v-.1l.4-.8.4-.9.2-.6.1-.2-.2.3v.1l-.4.5v.1l-.3.4-.3.5-1.1 2-1.1 2a67 67 0 0 1-1.2 1.8l-.1.3-.2.3-.6.8a18.7 18.7 0 0 1-.5.8h-.1l-.2.3-.9 1v.1l-.4.4-.1.1-.2.2-.8.7-.3.3-.2.2-.4.4h-.1l-.2.3v.2l-.1.2a81.3 81.3 0 0 0 2.1-.8h.1a26.2 26.2 0 0 0 1.6-1.3 7.8 7.8 0 0 0 .9-.4l.6-.4-1 1.1.2-.1a31 31 0 0 0 1.2-.6l1.2-1.5Zm21.4-8.1.1-.4v-.2l.1-.3a35.2 35.2 0 0 0 .5-2.5 28.5 28.5 0 0 0-1 2.4c0 .2 0 .5-.2.7v.3l-.2.3v.1a3.4 3.4 0 0 1-.2.3c0 .1 0 .2-.2.3v.3a13 13 0 0 1-1 1.4 9.1 9.1 0 0 1-1.1 1l-.9.7a7.1 7.1 0 0 1-.2.2v-.2l.2-.3.3-.7.2-.3a27 27 0 0 0 1-2.6l.1-.3v-.2l.1-.2v-.1a11.5 11.5 0 0 0 .3-.7v-.3l.2-.5v-.5l.1-.2.2-.3.1-.2a12.1 12.1 0 0 0 .6-1.1l.1-.3.3-.7v-.3h.1v-.2l.1-.2v-.1a4.8 4.8 0 0 0 .2-.5v-.2a7.2 7.2 0 0 0 .1-.6l.2-1.2c.3-2.1.1-4.4-.4-6.5a30.8 30.8 0 0 0-3.6-9l-1.6-2.8.8 1.7a72.3 72.3 0 0 1 3.8 9.9v.3c.5 2.1.6 4.3.4 6.4v.3a9.8 9.8 0 0 1-.2 1v.3l-.1.3a7.3 7.3 0 0 1-.3 1v.2l-.5 1.1a25.8 25.8 0 0 0 .2-3.1v-.4a27 27 0 0 0-.1-2.7l-.1-.5-.1-.7-.1-.5a22 22 0 0 0-.5-2l-.1-.3a6.3 6.3 0 0 0-.3-.7 18.6 18.6 0 0 0-.3-.9l-.2-.4a13.1 13.1 0 0 0-1-1.9h-.1a13.5 13.5 0 0 0 .3.6l.1.2.1.2.1.3.2.4a19 19 0 0 1 1.6 7.7v1.1a16.2 16.2 0 0 1-.2 1.8v.4a22 22 0 0 1-.3 1.6v.6a20.4 20.4 0 0 1-.5 1.8l-.1.4-.1.2a19 19 0 0 1-.8 2.2v.1h-.1a27 27 0 0 1-.8 1.8l-.2.4a35.6 35.6 0 0 1-.1 0l.1-1.5.6-2.7.4-2v-.5l.1-.1v-.3l.1-.3a30.8 30.8 0 0 0 .2-1.3v-.5l.1-.5v-.3l.1-.4a23.6 23.6 0 0 0 0-1.1v-.4a6 6 0 0 0 0-.8 8.5 8.5 0 0 0 0-.6v-.3h-.1a12.2 12.2 0 0 0-1.5-4.4l-.1-.2a6.6 6.6 0 0 0-.4-.4 7.5 7.5 0 0 0-.9-1l-.2-.1-.1-.2a9.2 9.2 0 0 1 .3.3v.1l.3.3a5 5 0 0 1 .4.6 2.8 2.8 0 0 1 .2.1l.1.3.2.2.1.3 1 2.6c.3 1.7.3 3.6 0 5.4-.2 1.8-.6 3.6-1 5.4a35 35 0 0 0-.3 2.7l-.1.6a7.4 7.4 0 0 0 0 .8v.1a2 2 0 0 0 0 .3 5 5 0 0 0 0 .5V138a33.3 33.3 0 0 1-2.5 3.8l-.3.4v-.2l.2-.5.4-.9.3-.9.6-1.7V137.8l.2-.4v-.2l.1-.3v-.1a8.6 8.6 0 0 0 .1-.6 5.6 5.6 0 0 0 0-1.7l-.1-.2a21.2 21.2 0 0 0 0-.2v-.1h-.1v-.2l-.3-1.3a5 5 0 0 1 0-1.8V131l-.1.2v.2a4.7 4.7 0 0 0-.1 1v.2l.2 1.8V134.7a6.4 6.4 0 0 1 0 .3V136a3.4 3.4 0 0 1 0 .7 2.5 2.5 0 0 1-.2.4v.1l-.1.3v.1l-.2.4-.6 1.7-.5 1.4a31.3 31.3 0 0 0-.3.9l-.1.4v.2l-.2.4v.2l-.2.3v.2L293 145h-.1l-.4.5-.1.1-.9 1-.4.3-.2.2-.4.5-.4.4c-.2 0-.3.2-.4.3l-.4.4a31 31 0 0 1-2.8 2.2h-.2v.2h-.2a2.9 2.9 0 0 1-.3.2l-.2.1-.1.1h-.1l.4-.3.3-.3.2-.3.3-.2.6-.6.3-.3.3-.3.2-.2.7-.7.2-.2.7-.8.3-.3.4-.4.2-.3.7-.8v-.1l.1-.2.2-.3a11 11 0 0 0 .2-.4V144.3l.1-.2v-.1a7.4 7.4 0 0 0 .2-.6v-.1l.3-.8v-.3a27.7 27.7 0 0 1 .4-1.2v-.1a6.2 6.2 0 0 1 .4-.9v-.1l.1-.2v-.1h.1v-.1l.2-.2.1-.2a2.2 2.2 0 0 0-.2.3l-.2.1v.2a1.6 1.6 0 0 0-.1 0v.1l-.2.2-.2.3-.1.3a8.8 8.8 0 0 0-.5 1.3l-.3.8v.2l-.1.4-.2.4v.2a5.6 5.6 0 0 1-.4.7v.1l-.1.2-.1.1v.2h-.1v.1a5.4 5.4 0 0 1-.6.7l-.2.2-.2.3-.2.2-.2.1-.2.2-.9.9-.2.2-.3.4-.2.1-.2.3-1 1-.3.2a16.4 16.4 0 0 0-.7.8l-.3.2v.1l-.8.8-.3.4a20.6 20.6 0 0 1-4.3 1.3l-.5.1-.8.2h-.3v.1h-.2a15.4 15.4 0 0 1-1.1.2h-.2l-.4.1a40.4 40.4 0 0 1-6 .5h-1.1a30 30 0 0 1-1.6-.1h-.5a21.1 21.1 0 0 0-1-.2h-.3a10.7 10.7 0 0 1-.8-.2h-.5a33.2 33.2 0 0 1-1.6-.4l-.5-.1a12.1 12.1 0 0 1-1.3-.4l-.3-.1-.4-.1H262.1a49.3 49.3 0 0 0 4.8-.5h.5l1.1-.2.3-.1a28 28 0 0 0 7.5-2.8H279.4l.4-.1a12.5 12.5 0 0 0 2.5-.9 8.3 8.3 0 0 0 1.4-.8 2.5 2.5 0 0 0 .2-.2l.2-.2.2-.1a5.7 5.7 0 0 0 .4-.5l.2-.2.2-.2v-.1h.1v-.1l.2-.2.1-.2a2.5 2.5 0 0 0 .2-.3l.1-.2v-.1l.1-.2.2-.2v-.3l.1-.2v-.1a11.4 11.4 0 0 1-1.8 2c0 .2-.2.2-.3.3a5.8 5.8 0 0 1-.4.4 9.8 9.8 0 0 1-.6.4l-.2.1a9.2 9.2 0 0 1-1.4.7l-1.7.6h-.4l-.1.1a18.2 18.2 0 0 1-1.2.3h-.4l-.4.1h-.4l.8-.4.2-.2a5.6 5.6 0 0 0 .6-.4h.1l.3-.3a8.7 8.7 0 0 0 .7-.5 16.4 16.4 0 0 0 1.9-1.5l.3-.4h.1l.2-.2v-.1l.8-.7a37.4 37.4 0 0 0 1.5-1.4h.5l.8-.3a11 11 0 0 0 1.3-.4h.2l.3-.2.3-.1.3-.1a8.6 8.6 0 0 0 1.8-1.2l.3-.3a6.5 6.5 0 0 0 1-1.1 8 8 0 0 0 1.3-2.4l.1-.2v-.4l.1-.1v-.2a6 6 0 0 0 .1-.6v-.5a2.5 2.5 0 0 1 0 .2v.2a12.6 12.6 0 0 1-.3.6v.2l-.2.3a8.3 8.3 0 0 1-1 1.6l-.2.3a37.7 37.7 0 0 0-.6.7 11 11 0 0 1-2.4 2h-.1l-.1.1a16.9 16.9 0 0 1-1.9 1l-.9.4a30.4 30.4 0 0 1-.6.2 18.4 18.4 0 0 0 .4-.5l.2-.2.3-.4a70.5 70.5 0 0 0 .8-1h.1l.2-.3a36.4 36.4 0 0 0 .3-.4l.1-.2.1-.1.2-.4h.1v-.1l.2-.2v-.1a9.2 9.2 0 0 0 .4-.5c0-.2.2-.3.3-.5a33.9 33.9 0 0 0 1-1.5 21.8 21.8 0 0 0 1-.7l.2-.1.8-.6.2-.2.2-.2.1-.1.1-.1a13.1 13.1 0 0 0 .7-.7 94.4 94.4 0 0 1 .5-.6l.2-.2.5-.7.2-.2.6-.9a10.2 10.2 0 0 0 .3-.6l.2-.2a39.2 39.2 0 0 0 .4-.8v-.1l.2-.3v-.2l.3-.4v-.2a77.7 77.7 0 0 0 .5-1l.1-.2a6 6 0 0 0 .3-.6v-.3l.2-.3.1-.3v-.1l.1-.2a35.6 35.6 0 0 0 1.2-3.1v-.2a48.3 48.3 0 0 0-1 1.8v.1l-.3.5c0 .2-.2.3-.3.5v.2l-.1.1v.1l-.3.5v.1l-.4.6-.2.4a56.2 56.2 0 0 1-.3.7l-.2.3a8.8 8.8 0 0 1-.2.5l-.2.3a6 6 0 0 1-.1.3l-.2.3v.2c-.2.1-.3.3-.3.4l-.1.2-.1.2-.6.8a20.5 20.5 0 0 1-.5.8l-.1.2v.1l-.5.6-.1.1-.5.6-.2.3-.3.3-.1.2h-.1a24 24 0 0 1-1.8 1.8 5.8 5.8 0 0 0 0-.1v-.1l.4-.5.2-.5.2-.4a36.7 36.7 0 0 0 1.8-4.3v-.1a15.9 15.9 0 0 0 .4-1v-.3l.1-.2v-.1l.2-.4.1-.5.1-.4.1-.4.1-.4v-.1l.1-.4.2-.6V124.8l.1-.3v-.3l.1-.2a21.3 21.3 0 0 0 .2-1v-1.1l.1-.3v-1l.1-.1a7.8 7.8 0 0 0 0-1 43 43 0 0 0 0-1.3l.3-.4.1-.4.1-.2.1-.2v-.2h.1l.2-.6v-.2l.1-.3a3.4 3.4 0 0 0 .1-.4 6.8 6.8 0 0 0 .1-.5v-.2a4.2 4.2 0 0 0 .1-.3v-.3a7.7 7.7 0 0 0 .1-1v-4.5l.1-.3a10.2 10.2 0 0 1 .2-1.2v.3l-.1.1v.1l-.1.3-.1.4-.3 1.6c0 1 0 2.1-.2 3.2v.8l-.1.2v.4a8 8 0 0 1-.3 1l-.1.3-.1.3-.1.2-.2.4v-.4.6l-.2.2-.1.3-.1.2-.8 1.3c-1 1.4-2 2.7-3.2 4a48.1 48.1 0 0 0 0-1.4 35.6 35.6 0 0 0 0-2v-.5a31.1 31.1 0 0 1 0-1.2v-.2h.2l.2-.1.2-.1a7.8 7.8 0 0 0 .6-.5h.1a7.7 7.7 0 0 0 .3-.3l.2-.1v-.1l.2-.1v-.1h.1v-.1a7 7 0 0 0 .8-.7v-.2a7.5 7.5 0 0 0 .7-.9 5 5 0 0 0 .3-.7v-.1a10.3 10.3 0 0 0-.2.2l-.2.2h-.1l-.1.1a11.7 11.7 0 0 0-.5.5l-.3.2a27.6 27.6 0 0 0-1.1 1l-.2.3a27.4 27.4 0 0 0-.6.6l-.3.3-.2.2V116.3a30.3 30.3 0 0 1 .4-2.5l.1-.5a15.1 15.1 0 0 1 .1-.5v-.1l.1-.2a16.4 16.4 0 0 1 .5-2l.1-.4.1-.3.1-.2v-.3l.2-.2v-.3l.5-1.3.5-1.2.5-1.2.2-.4a55.3 55.3 0 0 0-.3.4l-.7 1.1-.5 1.2-.6 1.2v.1l-.2.3a9.3 9.3 0 0 0-1.5-5.1l-.2-.2-.8-1-.3-.2.3.4a24.7 24.7 0 0 1 .4 1l.1.2.1.3.2.3a15.2 15.2 0 0 1 1 4v.3l.1.3v.9l.1.2-.1.5-.2.6a44.6 44.6 0 0 0-.4 1.1v.4h-.1v.2l-.1.4-.2.6v.3l-.3 1.5v.4l-.1.4V117.1l-.1.2v.7l-.1.1v.8l-.1 1.3v.2a6.6 6.6 0 0 0 0 .5 24.6 24.6 0 0 0 0 1.3v.6l.1.5v.4a14.6 14.6 0 0 1-.6.5l-.3.2a14.4 14.4 0 0 1-1.5 1.2 6.3 6.3 0 0 1-.7.5h-.1l-.2.1-.3.2-.3.2h-.1l-.3.2a40.6 40.6 0 0 0 .5-2.8l.2-1.1v-.3l.1-.5.2-1.2.1-.7v-.3l.1-.3.2-1.1v-.3l.6-3v-.3l.1-.7v-.3l.2-1 .3-1.6v-.3l.1-.7v-.4.4l-.4 2-.1.2-.2.7v.5l-.1.2v.4a8.9 8.9 0 0 0-.2.6l-.5 2.4v.2l-.3 1v.2l-.1.4a16 16 0 0 0-.6-2.1 14.2 14.2 0 0 0-1.4-2.7l-.1-.1v.3a6.9 6.9 0 0 0 0 .5l.1.2.1.5v.1l.2.4a10.2 10.2 0 0 0 .2.7l.1.3a14.5 14.5 0 0 0 1.3 2.5l-.3 1.4v.2l-.1.4v.2l-.5 2-.3 1.3V125.6l-.2.8-.2.6a36.2 36.2 0 0 1-.3 1.4l-.1.2-.1.4a7.3 7.3 0 0 1-.2.5V129.7a29.6 29.6 0 0 1-3.6 7.4l-.2.2a15.3 15.3 0 0 1-1 1.3 15.2 15.2 0 0 1-1 1.2v.3c-.2 0-.3.2-.3.2l-.1-.2a5.4 5.4 0 0 1-.2-.6V139.2l-.1-.2v-.5l-.1-.5v-3.6c0-1.2 0-2.4.2-3.6V130.5a5.7 5.7 0 0 1 0-.7v-.1l.1-.4v-.2l.4-.2a12.3 12.3 0 0 0 .7-.4l.3-.1a19.5 19.5 0 0 0 1.9-1.2l.2-.3h.2l.6-.5a11.8 11.8 0 0 0 .4-.4l.3-.3.3-.2.4-.4a11.5 11.5 0 0 0 .9-1 6.5 6.5 0 0 0-.4.2l-.4.2-.3.2h-.1v.1a14 14 0 0 0-.6.3l-.2.1-.3.3a37.3 37.3 0 0 0-.7.5h-.2l-.2.2-.1.1-.3.2a44.4 44.4 0 0 0-2.7 2.2 32.4 32.4 0 0 1 .5-2.7v-.2c.5-.6 1-1.2 1.3-1.8l.2-.3v-.1l.2-.2v-.2l.2-.2.1-.2a27.5 27.5 0 0 0 .4-.8l.3-.5v-.1a27.6 27.6 0 0 0 .4-.8v-.1l.1-.2v-.2h.1l.1-.2v-.2a12 12 0 0 0 .5-1.1 27.2 27.2 0 0 0 .4-1v-.4l.2-.4v-.2a21.8 21.8 0 0 0 .2-.8l-.5 1.3a78 78 0 0 1-.8 2l-.2.4v.1h-.1l-.1.3v.1l-.2.3-.1.3v.1l-.3.5-.4.7-.4.8v.1a9 9 0 0 1-.3.5l-.3.5-.9 1.6.1-.3v-.1l.2-.4v-.4l.3-.8V123.1l.2-.4.1-.5a4.3 4.3 0 0 1 0-.3l.3-.5v-.5c.2-.2.2-.5.3-.7l.2-.6.2-.8.1-.3.1-.4v-.1l.1-.1v-.1l.1-.4.1-.2v-.2l.1-.1v-.1l.1-.1V116.4h.1v-.2l.2-.3.1-.2a10.3 10.3 0 0 1 .3-.7l.1-.1v-.1l.2-.3.1-.2.2-.2c0-.2.1-.2.2-.3l.2-.3a5 5 0 0 0-.3.3l-.1.1v.1l-.2.2a5.7 5.7 0 0 0-.3.3l-.1.3a5.8 5.8 0 0 0-.5.8l-.2.5-.2.4-.1.2-.1.2v.1l-.1.2-.2.3-.1.5-.3.6-.5 1.4-.1.4v.2l-.1.1-.5 1.4-.3 1v-.2l-.2-.9a10.7 10.7 0 0 0-.2-.8 13 13 0 0 0-.8-2.3l-.1-.2-.1-.2-.1-.2-.2-.2v-.1a10.2 10.2 0 0 0 0 .7 2.4 2.4 0 0 0 0 .3v.2l.1.1v.4a25 25 0 0 0 .8 3l.1.4.1.2c0 .3.2.5.3.7a47.4 47.4 0 0 0-.7 2.6v.1l-.1.3-.1.5a24.8 24.8 0 0 0-.3 1.7l-.1.7-.1.5V131.2a33.3 33.3 0 0 0-.2 3.3v2.2a17 17 0 0 0 0 1.8l.1.4.2.8.1.2a5.6 5.6 0 0 1 .2.4l.1.4a.4.4 0 0 0 0 .1l.2.1-.2.1-.4.5-.4.4a27 27 0 0 1-1 1h-.1c0 .2-.2.2-.2.3l-.4.3-.2.2-1 .8-.2.2h-.1l-.1.1-.2.1-.2.3-.4.2-.1.1a35.1 35.1 0 0 1-2 1.3l-.3.2-.3.1a30.2 30.2 0 0 1-2.8 1.5l-.2.1.1-.1.1-.1v-.1l-.1-.2a1.6 1.6 0 0 1-.2-.2v-.2l-.1-.1-.2-.6V146.1v.2l.4-.1h.2a13 13 0 0 0 1-.7h.1l1-.6a19.9 19.9 0 0 0 3.3-3l.3-.4.2-.2.1-.1v-.1l.2-.2a8.4 8.4 0 0 0 .3-.4l.2-.2v-.2a20 20 0 0 0 .5-.5l.2-.4a38.8 38.8 0 0 1-1.4 1.4l-.4.3-.2.2-.1.1-.2.2h-.1c0 .2-.2.2-.3.3a18.4 18.4 0 0 1-.6.5l-.3.3a15.9 15.9 0 0 1-1.4 1 27 27 0 0 1-.8.6 17.7 17.7 0 0 1-1.8 1l-.1.1-.3.1v-.4a6 6 0 0 1 0-.5v-.1l.2-1.2.3-1.9V140.7l.1-.3v-.1h.1v-.1l.3-.2.2-.4.1-.1.4-.5.4-.5a30.3 30.3 0 0 1 1.3-1.4l.2-.2.2-.2.2-.2.3-.2.1-.1.1-.1.1-.1.1-.1.5-.4.3-.2.2-.2.2-.2 1.4-1 .5-.2a8 8 0 0 0-2 .7 6 6 0 0 0-.4.2 18.8 18.8 0 0 0-.5.4l-.6.3-.5.4-.4.3-.1.1a10 10 0 0 0-1.5 1.7l-.2.3-.4.5-.3.6v.1l.1-1v-.2l.1-.5.2-.8v-.3l.1-.5.1-.5.1-.4.2-.5a32 32 0 0 1 .5-2l.1-.5v-.1l.2-.3v-.2a8.4 8.4 0 0 1 .3-.9l.2-.5v-.1l.3-.6v-.2l.1-.1v-.1a18.1 18.1 0 0 1 .4-.8 21.4 21.4 0 0 1 1-2l.1-.3.2-.3a18.2 18.2 0 0 1 .3-.5l.2-.4a5.7 5.7 0 0 1 .4-.6 17.1 17.1 0 0 1 .6-1l.3-.3.2-.2c0-.2.2-.3.3-.4v-.1l.4-.4.2-.2.1-.2.5-.5-.3.2-.3.3-.2.2-.3.3a22.4 22.4 0 0 0-.8.8l-.2.3-.5.6-.3.4a14.4 14.4 0 0 0-.3.3l-.1.3-.2.1a23.5 23.5 0 0 0-.7 1.1l-.1.3-.2.2-.1.3-.1.2-.1.1-.2.3-.2.4-.2.4-.2.5-.1.3a32.3 32.3 0 0 0-1.2 3l-.3-.1h-.3l-.3-.1h-.1a6 6 0 0 0-1 0H263a5.9 5.9 0 0 0-1 .3h-.3a16.2 16.2 0 0 0-1.7.6l.2-.2.1-.2.4-.5.4-.5.3-.3.8-1 1.6-1.8 1.3-1.5.3-.3-.5.3-.2.1-.2.2a13.7 13.7 0 0 0-2.9 2.5 12.7 12.7 0 0 1 .5-1l.1-.2a14 14 0 0 1 2-2.4l.2-.2a4.3 4.3 0 0 1 .3-.3h.1l.2-.2.1-.2h.2l.2-.2v-.1a10.5 10.5 0 0 1 .8-.6l.4-.2a13.4 13.4 0 0 1 1.1-.6l.5-.2.4-.2.3-.1h.2l.4-.2h-.6l-1.1.2-.7.2-.2.1-.6.3a9.9 9.9 0 0 0-3 2.2l-.2.2-.1.1a13.2 13.2 0 0 0-.5.7l-.2.2-.1.2-.1.1a1.5 1.5 0 0 0-.1.2l-.1.2a6.1 6.1 0 0 0-.5 1v.2l-.2.3v.2l-.1.2-.1.3-.2.6-.7 1.1-.3.4v.1l-.4.6v.2l-.2.2v.2l-.5.2-.4.3h-.1l-.6.4-.7.5h-.1v.1l-.7.6-.2.2-.2.2-.2.2-.2.2.1-.2v-.2l.5-1.4.1-.3v-.2l.1-.1.2-.5.1-.3.2-.5.1-.3.1-.2.1-.3v-.2l.4-.8.2-.2.1-.4.3-.7.4-.7.7-1.3.8-1.4v-.1l.3-.4v-.1l.5-.7.1-.2.3-.5.4-.6.6-.8H262.7l.1-.1h.2a6.3 6.3 0 0 0 .7-.3h.3l1-.4.3-.1.2-.2h.2l.4-.2.2-.1.3-.2.3-.2.2-.1.3-.2.2-.1a7.4 7.4 0 0 0 .3-.2l.1-.1.2-.1-.5.2-.8.3-.4.2h-.1l-.3.2h-.1l-.5.3-.7.2-.4.2-.3.1-1 .4h-.2l-.5.3h-.1l.1-.2.2-.3.3-.4.3-.4.2-.2 1-1.2v-.1l1-1c0-.2.2-.3.3-.4a94 94 0 0 0 2.4-1h.1a173.8 173.8 0 0 0 1.1-.4h1.5l.2-.1h.6l.3-.1h.1a11 11 0 0 0 .8-.2 7 7 0 0 0 .5 0l.3-.1.6-.1.4-.1h.1a25 25 0 0 0 1.1-.4h.2a6.8 6.8 0 0 0 .8-.3l.2-.1.2-.1a2.1 2.1 0 0 0 .2 0l.3-.2h.2l.1-.1.2-.1H277.8l-.2.1-2 .5a61.4 61.4 0 0 1-4.2.9h-.2l-.5.1a4.9 4.9 0 0 1-.4 0l-.5.1-.5.1.6-.3a66.5 66.5 0 0 0 1.5-.7l.4-.2.4-.1.2-.2.3-.1.3-.2.4-.2.6-.3.4-.1a42.2 42.2 0 0 1 5.3-2v-.1a6.6 6.6 0 0 1 1-.2 8.4 8.4 0 0 1 .7 0l.2-.1h.3a5.2 5.2 0 0 1 .8 0h.4a6.6 6.6 0 0 1 .6 0 8.2 8.2 0 0 0-.6 0l-.3-.2a8 8 0 0 0-.3 0h-.3l-1-.1a6 6 0 0 0-.6 0h-.7l-.2.1h-.2a11.7 11.7 0 0 0-.7.2h-.5l.5-.2a24.8 24.8 0 0 1 .6-.4l.4-.2.3-.2.2-.1h.1a36.3 36.3 0 0 1 2.6-1.4 7.5 7.5 0 0 1 .3-.1l.2-.1a59 59 0 0 1 1-.5l.2-.1h.2l.2-.2.4-.1h-.5a4.3 4.3 0 0 0-.5 0h-.2a8.8 8.8 0 0 0-1 .3l-.3.1-.3.1-.3.1h-.1l-.3.2h-.1a6.5 6.5 0 0 0-1 .4 10 10 0 0 0-1.2.8l-.3.1-.2.2-.3.2-.2.1a16 16 0 0 0-.9.8 10.5 10.5 0 0 0-.6.6l-.4.1-.5.2-.6.2-.2.1-.7.3-.2.1-.4.2h-.2l-2 1-.8.4-.8.4-.8.4-.8.4-2 1-.2.2.9-.9.9-.9.2-.1.2-.2.1-.1.3-.3.6-.5.8-.6.4-.3.5-.4.3-.2.5-.4.6-.4.1-.1.5-.4 1.3-.8-1.3.7-.7.4-.3.2-.4.3-.5.3-.8.5-1 .8-.2.1-.5.4-.2.1-.3.3-.3.2-.3.3v-.2h.1v-.2h.1v-.2h.1v-.2l.2-.4v-.2a7 7 0 0 0 .3-1.2 3.4 3.4 0 0 0 0-.5v-.4a3 3 0 0 0 0-.4v.3a1 1 0 0 1 0 .2l-.1.1-.2 1-.1.1v.2l-.1.2v.2l-.3.7-.1.2-.1.3-.1.1v.1l-.2.4-.2.2v.2l-.2.1-.6.6-.5.5-.2.1-.4.4-.6.6-.4.4-.7.7-1 1.2-.5.6-.5.6-1 1.3v.2l-.2.1-.7 1-.4.6-.2.4-.1.1v.1l-.1.1-.2.2-.1.3v-.4a26.4 26.4 0 0 1 1-2.1l.2-.3.2-.3c0-.2 0-.3.2-.5l.4-.9.3-.6.1-.3.1-.2a19.3 19.3 0 0 0 .5-.9l.2-.5a23.5 23.5 0 0 0 1-2.8v-.2l.1-.2v-.2l.1-.2v.2h-.1v.2h-.1v.1l-.1.1-.1.3-.1.2-.2.2-1 2-.6 1-.3.5c0 .2-.2.4-.3.5v.3h-.1l-.1.3h-.1l-.1.3v.1l-.3.4v.2a35.5 35.5 0 0 0-1.1 2.6l-.1.3-.1.2v.2l-.1.2v.2a3.8 3.8 0 0 0-.2.5V126.3l-.1.3v.2l-.1.2v.2l-.1.1-.2.5a44.6 44.6 0 0 0-1.2 2.4l-.3.4v.3l-.1.2-.3.5v.1l-.3.7a41.8 41.8 0 0 0-.5 1.3v.2l-.1.3-.1.2v.3h-.1v.1l-.1.3v.2h-.1a17.5 17.5 0 0 0-.3 1.1v.2l-.2.3v.3l-.1.4-.1.4-.1.5-.1.4-.1.3a31.6 31.6 0 0 0-.4 3.3l-.3-1.2-.2-1.6v-.8l-.1-.8v-1.8l-.1-.2v-2.5l.1-.4v-.6l.2-.2h.1v-.1l.2-.2.2-.1a13.2 13.2 0 0 0 .6-.7l.3-.3v-.1l.3-.3a21 21 0 0 0 .3-.4l.1-.1.3-.5.1-.1a5.1 5.1 0 0 0 .3-.4l.2-.5.2-.2v-.1l.2-.3.2-.5.1-.3.1-.2-.4.5c0 .2-.2.4-.3.5l-.3.5-.5.7-.2.2-.1.2-.1.1a13 13 0 0 1-.4.6h-.1l-.6.9-.2.2-.2.3-.2.2-.3.5V131l.1-.2.1-.8v-.3l.1-.4V129l.1-.2v-.4l.4-1.5.2-.7.1-.5v-.2l1.1-.7.2-.1.3-.2.2-.2.1-.1.1-.1.3-.2.2-.3a16.9 16.9 0 0 0 2.4-2.8l-.2.1-.2.2-.1.1-.8.9a101.1 101.1 0 0 1-1 .8c0 .2-.2.3-.4.4l-1.3 1.3-.8.7.2-.7.3-.8c0-.4.2-.7.3-1v-.2l.2-.3v-.2l.6-1.4v-.2h.1v-.1l.1-.2.1-.2.1-.2v-.1l.3-.4.1-.3.2-.5a7 7 0 0 0 .3-.5l.3-.2.3-.2h.1l.2-.2.4-.3.3-.1.2-.2a43.2 43.2 0 0 0 1.8-1.2l.3-.2a38 38 0 0 0 1.7-1.3l.5-.4.7-.6 2.3-1.7 1-.7.6-.4.6-.4a50 50 0 0 1 1-.6l.5-.4h1.3a6.8 6.8 0 0 0 .6 0h1l.4-.1a20 20 0 0 0 1.3-.2h.5l.8-.3h.4l.2-.1h.1l.7-.2.4-.1.3-.1.5-.2h.1l.2-.1.2-.1-.8.1-1 .2-.7.2h-.5l-.4.1h-.2l-1.4.3h-.6v.1H271.8l-.7.2h-.7l-.6.1h-.3l1.2-.7h.1l.2-.1.3-.1.2-.2h.3v-.1l.6-.2a22 22 0 0 1 1.4-.6l.4-.1a14.5 14.5 0 0 1 1-.4h.2l1.1-.3h.5v-.1h.4a8.3 8.3 0 0 1 .6-.1h.3a14.6 14.6 0 0 1 1.3-.2h1a7.6 7.6 0 0 1 .5 0h.1l.2.1h.4l.3.1h.3a8.5 8.5 0 0 0 .6.2l-.2-.1a8 8 0 0 0-.3-.1 3.2 3.2 0 0 0-.5-.1 8.7 8.7 0 0 0-.7-.2h-.2l-.4-.1h-.5a10 10 0 0 0-1.9-.1h-1.3a15.3 15.3 0 0 0-1.6.3h-.1l-.1.1-1 .2-.2.1.3-.3.7-.6.7-.6a12.2 12.2 0 0 1 .8-.7 9.6 9.6 0 0 1 2.1-.5 7.7 7.7 0 0 1 1-.1h.2a11 11 0 0 1 3.3.5h.3a6.9 6.9 0 0 1 .5.3l.8.4-.2-.2a6.2 6.2 0 0 0-2-1 7.8 7.8 0 0 0-5.3 0l.4-.1.2-.2a26.3 26.3 0 0 1 .5-.3l.5-.3a18.1 18.1 0 0 1 .4-.2 9.9 9.9 0 0 1 7.2-.6 7.7 7.7 0 0 1 1.7.7l.2.1-.4-.3-.2-.1a2.9 2.9 0 0 0-.3-.3h-.1a11 11 0 0 0-1.1-.5 7.8 7.8 0 0 0-3.4-.4 7.7 7.7 0 0 0-1 .2l.4-.2 1-.3.9-.2h.2l.7-.2 1-.2h-1l-1 .2-1 .2-.8.2h-.2l.2-.2.3-.2a7.4 7.4 0 0 0 1.6-2.7 24.3 24.3 0 0 1-1.9 2.4l-1 1a20.2 20.2 0 0 0-4 1.8v-.2l.1-.2.1-.2a4.2 4.2 0 0 0 .2-.8 2.5 2.5 0 0 0 0-.3l.1-.1V100.3a7.4 7.4 0 0 0-.3-3v-.1V98a13.1 13.1 0 0 1-.4 4.3v.2h-.1l-.4.2-1.3 1-.8.6-.7.6-.6.8-.4.3v.1l-.1.1-.2.2a16 16 0 0 0-.6.2h-.2l-2.6 1.4-.2.1-.3.2-.4.2-.4.3-.5.3-.5.4a52.2 52.2 0 0 0-2.5 1.8l-.1.1a80 80 0 0 0-1.5 1.2l-.6.5-1.5 1.3-1.5 1.2-.3.3-.7.6-.4.3h-.1l-1 1h-.2l.1-.2.4-.7.4-.6v-.2l.2-.1.6-1 .5-.7.2-.4.2-.3.6-.8.2-.2.2-.3a9.4 9.4 0 0 1 .5-.6l.1-.2.2-.2.2-.2 1.1-1.2a6.4 6.4 0 0 0 2-.7h.3a3.7 3.7 0 0 0 .6-.4 6.7 6.7 0 0 0 1.1-.9l.2-.2a7.6 7.6 0 0 0 .3-.4l.2-.2v-.1a19.9 19.9 0 0 1-4.2 2.5l-.2.1a23.1 23.1 0 0 1 2.4-2.2h.1a21.8 21.8 0 0 1 1.8-1.3l.2-.1.1-.1a23 23 0 0 1 1.2-.7h.2l.3-.2a9.4 9.4 0 0 1 1.4-.6 16.7 16.7 0 0 1 .9-.4l-1.1.4h-.3l-.3.2-.4.1h-.1l-.1.1-.4.2a6.2 6.2 0 0 0-.4.2h-.2l-.3.2-.3.2-.3.2h-.1l-.2.1a17.2 17.2 0 0 0-2.6 1.8l-.2.2-.4.3-.4.4-.4.3-.4.4-.3.3a17.5 17.5 0 0 0-1.7 1.8l-.2.2a4.6 4.6 0 0 0-.2.3l-.1.1-.1.1-.6.8-.2.2-.1.2-.3.3-.2.4-.2.3-.2.3-.3.4-.2.3-.4.7-.8 1.4a1.9 1.9 0 0 0-.2.3l-.2.5-.2.4-.2.3-.3.7v.1l-.1.1-.2.6-.7 1.5-.1.4-.2.6-.1.4v.2l-.1.1-.1.4-.1.3a11.3 11.3 0 0 0-.3 1 32.4 32.4 0 0 0-.3 1.4l-.1.3v.2l-.1.2v.2l-.1.3v.5a35.2 35.2 0 0 0-.4 2.2v.8l-.1.4v.9a27 27 0 0 0-.1 1.2v2.5l.1 1.6v.5l.1.3v.2-.2l-.1-.3v-.2l-.2-.5-.7-2.1-.3-.9-.1-.2-.1-.4v-.2a12.4 12.4 0 0 1-.4-1v-.3l-.1-.3v-.5h-.1v-.3a11 11 0 0 1-.2-2.1v-.2a5.4 5.4 0 0 1 0-.5 4 4 0 0 1 .1-.2v-.5l.1-.2v-.2l.1-.1a6 6 0 0 1 .4-1.2v-.1l.2-.2v-.1a3.2 3.2 0 0 1 .3-.4v-.1l-.1.1-.1.1-.1.1a3.4 3.4 0 0 0-.2.3l-.1.1-.1.2a6.6 6.6 0 0 0-.3.5l-.1.2a6.6 6.6 0 0 0-.2.4l-.1.3a12.6 12.6 0 0 0 0 .2l-.2.4a6.5 6.5 0 0 0-.1.5v.5a8.3 8.3 0 0 0-.1 1.4v.2a13.8 13.8 0 0 0 .2 1.6 8.3 8.3 0 0 0 0 .5l.1.3a13.2 13.2 0 0 0 .9 2.6l.7 1.9.1.2.5 1v.4a21 21 0 0 1 .9 2.4l.2 1 .1.5a19.6 19.6 0 0 0 0 1l.1.1V145a14.4 14.4 0 0 0 .1 1v.2l.1.5.1.3a21.3 21.3 0 0 0 .3 1.2v.2l.1.4.3.9.1.2v.1a9.1 9.1 0 0 0 .5 1.2l-.2-.2-.3-.3-.2-.1a14.1 14.1 0 0 1-.2-.3l-.3-.2-.4-.4a10.4 10.4 0 0 1-.5-.5 26.2 26.2 0 0 1-3.4-4.5 6.4 6.4 0 0 0 .3-1V141.5a9.3 9.3 0 0 0 0-1.3 9 9 0 0 0-.6-2l-.1-.2v-.2l-.2-.2v.5a13.9 13.9 0 0 0 0 1.3 55.4 55.4 0 0 0 .1 1.8v.4l.1.7.1.7v.5a23.5 23.5 0 0 0 .2.9l-.1-.2a58.5 58.5 0 0 1-1-1.6l-.3-.6-.3-.5-.3-.6-.6-1a108.7 108.7 0 0 1-2.3-4.4l-.1-.2V135l.2-.6v-.1l.3-.7V133.3l.1-.1V132.9l.1-.1.2-.5a9.8 9.8 0 0 0 .7-.6v-.1h.1a12.5 12.5 0 0 0 1.2-1.3l.2-.2v-.1l.2-.1.2-.3.1-.2h.1v-.1l.1-.1.1-.2.2-.2.2-.3a11.5 11.5 0 0 0 .6-1V127.2l-.2.4-.3.3a91.4 91.4 0 0 1-.7.9l-.3.3a18.6 18.6 0 0 1-.3.4 24.2 24.2 0 0 1-1.3 1.5l-.2.2-.1.1-.5.6.4-1.5.1-.3v-.2l.1-.2a161.9 161.9 0 0 0 .6-2.2v-.1l.2-.4v-.2l.1-.3v-.2l.1-.2.2-.2v-.2h.1a86.4 86.4 0 0 1 .7-1.2 124.8 124.8 0 0 1 1-1.5l.5-.6.2-.3.2-.3a33.9 33.9 0 0 1 2.4-3v-.1h.1l.5-.7.2-.2.2-.3a66.3 66.3 0 0 1 3.6-3.7v-.1l.3-.2.3-.4.2-.2a12.7 12.7 0 0 0 .5-.7 8.7 8.7 0 0 0 .7-1l.1-.2.1-.1.1-.2a8.3 8.3 0 0 1-.4.4 16.2 16.2 0 0 1-1.8 2l-.2.1-.1.1-.3.2-.2.2-.8.7-1 1h-.1a18.2 18.2 0 0 0-.8.9l-.2.1-.5.6-.2.2.2-.2v-.2a30.3 30.3 0 0 1 1.9-2.7l.3-.4.4-.5.2-.3.2-.2.2-.2.1-.2.4-.4.3-.4a63.3 63.3 0 0 1 1.3-1.3 9.1 9.1 0 0 0-2.3 1.6h-.1a9.8 9.8 0 0 0-1 1v.2c-.2 0-.2.1-.3.2l-.1.1-.2.2-.3.4-.1.2a20.4 20.4 0 0 0-1 1.6l-.1.2a2.1 2.1 0 0 0-.2.3v.1a13.4 13.4 0 0 0-.7 1.7v.2l-.1.2-.5.6-.3.3-.2.4a38.6 38.6 0 0 0-1 1.3l-.3.4-.2.4-.3.4a18.7 18.7 0 0 0-.7 1.2l-.1.2v.1a60.4 60.4 0 0 0-.5 1v-.1l1.4-5.4v-.2l.1-.2.3-1v-.1l.2-.8v-.2l.2-.5.3-1v-.2a39.1 39.1 0 0 1 .3-1l.1-.2v-.2l.1-.2.1-.3.1-.2a24.5 24.5 0 0 1 .6-1.6l.1-.2.2-.3a8.6 8.6 0 0 1 .2-.6l.2-.2a4.1 4.1 0 0 1 .2-.5 8.2 8.2 0 0 1 .3-.4l.1-.2.2-.2a10.4 10.4 0 0 1 1-1.2h.8a6 6 0 0 0 .5 0h.2a9.8 9.8 0 0 0 .8-.2H256.2l.3-.1h.3l.4-.2h.3l.3-.2a14 14 0 0 0 2.4-1l.2-.1.7-.4.4-.3a15.1 15.1 0 0 0 .5-.4h.1l.3-.2.2-.2v-.1l.2-.1.1-.2.2-.1.3-.4a14.5 14.5 0 0 0-.8.5 14.6 14.6 0 0 1-.7.4h-.2a16.3 16.3 0 0 1-.9.5 30.4 30.4 0 0 1-3.8 1.6h-.2l-.5.2H256l-.5.2h-.2l-.1.1-.5.1-.6.2-.5.1h-.2a4.8 4.8 0 0 1 .4-.4h.1c0-.2.2-.3.2-.3a12 12 0 0 1 .7-.7l.3-.2.2-.2.2-.1.3-.3h.1l.2-.2.5-.4a31.8 31.8 0 0 1 7.2-3.7h.1a53.4 53.4 0 0 1-1 .2l-.7.3a46.6 46.6 0 0 0-6.4 3.4l-.3.2-.8.6-.3.2-.2.3-.3.2-.2.2-.2.2-.2.2-.1.1.2-.3v-.2a6.2 6.2 0 0 0 .1-.1 24.8 24.8 0 0 1 1.8-2.5c1.4-1.6 3-2.8 4.9-3.8a30 30 0 0 1 8.8-3.2l.7-.2 2.3-.6a88.7 88.7 0 0 0-7.3 1.5l-.3.1-2 .7-.3.1-.3.2 1.2-.8.5-.3.2-.1.3-.1.2-.1.5-.3h.2a22.9 22.9 0 0 1 4-1.6l2-.5.6-.1.4-.1a45.7 45.7 0 0 1 2.3-.6 8.1 8.1 0 0 0-.7 0h-1.1a18.8 18.8 0 0 0-7.8 2.1l-.3.2a32.5 32.5 0 0 0-2.8 1.9l-.3.2a15.2 15.2 0 0 0-.8.8 17.4 17.4 0 0 0-4.4 3l-.6.6-.4.4-.1.2a14.4 14.4 0 0 0-1.8 2.6l-.2.3v.2l-.2.2-.1.3a2.3 2.3 0 0 0-.1.3l-.1.2-.2.2v.2a2.8 2.8 0 0 0-.1.3l-.2.3a12 12 0 0 0-.5.7l-.1.2-.2.3a8.2 8.2 0 0 0-.6 1v.2a11.3 11.3 0 0 0-.4.9l-.1.2-.3.6v.3l-.1.1V112.3l.1-.2a26.8 26.8 0 0 1 .2-1.1v-.2l.1-.2v-.2h.1V110a20.3 20.3 0 0 1 .4-1.1 15.5 15.5 0 0 1 .1-.6l.2-.5a30.9 30.9 0 0 1 1-2.7l.1-.3a40.8 40.8 0 0 1 .8-1.5v-.3c0 .2-.1.2-.2.3l-.2.3a8 8 0 0 0-.9 1.2 13.6 13.6 0 0 0-1.5 3V108.3l-.1.3a11.8 11.8 0 0 0-.2.6v.4l-.1.1a10.7 10.7 0 0 0-.1.9 7 7 0 0 0-.1 1V111.8a9.4 9.4 0 0 0 0 1V114l-.2.4v.1l-.1.3v.3h-.1l-.1.4-.2.6-.5 1.7v.2l-.2.5-.1.4-1.2 4v.2l-.4 1.3-.1.3-.1.2-.5 2-.5 1.5-.2.7v.2a23.8 23.8 0 0 1-.4-1.8v-.2l-.1-.5v-.1a8 8 0 0 1-.2-.9v-.9a4.6 4.6 0 0 0-.1-.1v-.8l-.1-.4v-1.3a14.9 14.9 0 0 1 0-.4l.1-.2.5-.6v-.2a4.4 4.4 0 0 0 .4-.5l.2-.3v-.1a17.5 17.5 0 0 0 .9-1.6l.1-.4.2-.4v-.2l.2-.4v-.3l.1-.3.1-.2v-.3l.1-.2-.1.3a25.5 25.5 0 0 0-.4.8l-.3.5a128.5 128.5 0 0 1-.7 1.6l-.3.5a80.5 80.5 0 0 0-.6 1.2l-.1.2-.4.9a19.2 19.2 0 0 1 .7-5v-.2a15 15 0 0 1 1-2.2 18.1 18.1 0 0 1 3-4.6l.2-.3-.1.2-.2.1-.2.2-.1.2a16.4 16.4 0 0 0-3 4l-1.2 3v.2l-.2.3v.4l-.1.2v.2a17.6 17.6 0 0 0-.5 2.9v.3a8.6 8.6 0 0 0 0 1v-.3a12.5 12.5 0 0 1-.2-1.1V119.7a12.4 12.4 0 0 1 .2-2.8v-.5l.1-.2v-.3h.1V115.7h.1c0-.3.2-.5.3-.8v-.2l.1-.3.2-.2a15.1 15.1 0 0 1 .4-1l.2-.2v-.2l.1-.1.1-.2.2-.2.1-.2.2-.3.2-.3.3-.3a10.8 10.8 0 0 0-1 1c0 .1 0 .2-.2.3a21 21 0 0 0-.3.5l-.1.2-.3.4a13.2 13.2 0 0 0-1.4 3.6v.3a13.4 13.4 0 0 0-.2 4.8v.2l.2.7v.2a16.7 16.7 0 0 0 .6 2.1v.3l.1.2v.1l.1.2.1.2a27.3 27.3 0 0 0 .3 1.3v.5l.1.2v.3l.2.4v.4l.1.2.2.4v.1l-.2.8v.3l-.2.4v.2l-.2.5v.2l-.1.4-.3 1v.1l-.3-.6-.2-.5v-.1l-.2-.5-.2-.5v-.1a30.9 30.9 0 0 1-1.5-7.8 28.7 28.7 0 0 1 .4-6.7l.1-.3v-.3l.1-.3a7 7 0 0 1 .2-.9l.1-.3.1-.3v-.2l.1-.2.1-.2.1-.4.2-.4a27.5 27.5 0 0 1 2.1-4.7 31.2 31.2 0 0 1 1.3-2l.1-.2a14.3 14.3 0 0 1 .8-1l1-1.2.1-.3.4-.4.3-.3a4.2 4.2 0 0 1 .3-.3l2-1.9.3-.3.3-.2a10.2 10.2 0 0 1 .7-.6l.4-.2.2-.2.4-.3a27.4 27.4 0 0 1 1.4-1 23 23 0 0 0-2.4 1.3 16.9 16.9 0 0 0-1.6 1.2l-.2.2a27.1 27.1 0 0 0-1.6 1.3l-.3.2-.3.3-.3.3a73.1 73.1 0 0 0-1.5 1.6l-.4.4v.2l.2-.6.2-.3a23.2 23.2 0 0 1 1-1.3c1.2-1.7 2.8-3.1 4.6-4.3a34.6 34.6 0 0 1 8.6-4.2l1-.4 2-.8-.8.3-.5.1-1.7.5-3.1 1.1c-2 .8-4 1.7-5.8 2.9a19.4 19.4 0 0 0-6.6 7.2l-.6 1.5v.1l-.7 1-1 1.9-.5.9-.4 1a29.4 29.4 0 0 0-1 2.7l-.2.3v.2a23.2 23.2 0 0 0-1 4.7 31.4 31.4 0 0 0 .2 7.8l.1.5v.1a23.4 23.4 0 0 0 .7 2.8l-.2-.3a8.4 8.4 0 0 1-1.1-2.9l-.4-1.3-.2-.7-.2-.7c-.4-1.8-.7-3.7-.5-5.5.1-1.9.6-3.7 1-5.5l-.6 1.6-.1.4a13.7 13.7 0 0 0-.5 1.5V118.4l-.1.2a15.8 15.8 0 0 0-.3 4l.5 2.9.8 2.7.1.2a23.7 23.7 0 0 0 1 2.4l1.2 1.5c.9 2.7 2.2 5.1 3.6 7.4l2 3.5a45.8 45.8 0 0 0 5 6.6l1.6 1.4.8.6.2.2h.2a.7.7 0 0 0 .2.1h.2V152.4a2 2 0 0 1-.2.2v.1a3.9 3.9 0 0 1-.5.7 2 2 0 0 1-.1.2 2.6 2.6 0 0 1-.4.3v.1a1.4 1.4 0 0 1-.2.2 3.6 3.6 0 0 1-.4.2l.1.1.1.1a1.3 1.3 0 0 0 .3.1h.1a2.3 2.3 0 0 0 .6.3 3.5 3.5 0 0 0 1.2 0h.1a2 2 0 0 0 .2-.1 1.8 1.8 0 0 0 .3-.2h.2a1.3 1.3 0 0 0 .3-.5 1.2 1.2 0 0 0 0-.2l.1-.2v-.2h.1v-.6h.2l.2.1.2.2.3.2.7.4.4.2.5.3.6.2.6.2 1.1.4.6.2 1.2.3.5.2h.3l.3.1.7.1.6.1 1.2.2 1.2.1h1.2l1.3.1h2.4l.6-.1H274.2l1.2-.2h.3l1-.2 1.1-.2a38.7 38.7 0 0 0 7.1-2.2l.4-.1a18.5 18.5 0 0 0 2.2-.7 9 9 0 0 0 .8-.3h.2a20.5 20.5 0 0 0 5.7-3.8 21 21 0 0 0 4.5-6.2l.5-.8.4-.7.4-.8.4-.7c0-.2.2-.3.3-.5l.3-.6a76.7 76.7 0 0 0-.1 0l-.4.5a66.7 66.7 0 0 0-.8 1.2l-.4.7-.6 1-.8 1.2a27 27 0 0 0-.9 1.4 24.9 24.9 0 0 1-4 4.6l-.2.1a21.3 21.3 0 0 1-1.6 1.2l-.5.4-.2.1-.7.4-.4.2-.7.4-.4.2a13 13 0 0 1-1.4.6l-.3.1-.4.2.4-.2.4-.3.4-.3a22.7 22.7 0 0 0 1-.7l.4-.4 1.9-1.6v-.1a55.1 55.1 0 0 0 1-1l.5-.4.5-.6.4-.4.5-.6.4-.5a43.5 43.5 0 0 0 4.2-5.8l.3-.5.1-.2.2-.3v-.1l.3-.4.2-.1.8-.4a6.6 6.6 0 0 0 .6-.4 8 8 0 0 0 2.9-4v-.2Zm-19-6a10 10 0 0 0 .6-.3l.3-.2h.1l.3-.2.2-.2a16.5 16.5 0 0 0 1.5-1l.2-.1a13 13 0 0 0 .8-.7l.1-.1.1-.1h.1l.2-.3s.2 0 .2-.2a11.8 11.8 0 0 0 .6-.5l.8-.9.3-.3.1-.2.2-.2.2-.2v-.1h.1a24 24 0 0 0 .7-.9l.2-.3.3-.5.2-.2a22.5 22.5 0 0 0 .8-1.4 31.8 31.8 0 0 1-.1 1.4v.3a4.9 4.9 0 0 1-.1.5 24.6 24.6 0 0 1-.4 2.4l-.1.4V123.8l-.1.2a15.8 15.8 0 0 1-.3 1.2l-.2.6v.5l-.1.1-.1.3v.2l-.2.3v.4l-.2.2v.2l-.3.6-.1.5-.2.5-.2.5v-.2a22.8 22.8 0 0 0 .3-1.3 32.6 32.6 0 0 1-1.7 4.1v.1l-.2.4v.2a14.8 14.8 0 0 1-.9 1.5l-.2.3a22.4 22.4 0 0 1-.6 1h-.1v-.1l.1-.1.1-.2.1-.3v-.2h.1a9.8 9.8 0 0 0 .2-.5 18.9 18.9 0 0 0 .3-1l.1-.2a34.3 34.3 0 0 0 1-4.4 62.6 62.6 0 0 0 .3-3.4v.4c-.2.2-.2.5-.3.7l-.2.7a45.5 45.5 0 0 0-.4 1.5l-.6 2.2-.6 2.1v.2l-.1.3a19.3 19.3 0 0 1-.4 1.2 26.7 26.7 0 0 1-.4.8v.3l-.1.1-.1.2a15 15 0 0 1-1.9 3l-1 1a16.9 16.9 0 0 1-1.6 1.1 16.4 16.4 0 0 1-1 .7l-.3.1-.3.2-.3.1a19.1 19.1 0 0 1-.7.4 1.5 1.5 0 0 1-.2.1l-.3.2h-.2l-1 .6-.6.2-.5.2a15.9 15.9 0 0 0 1.4-1.1h.1v-.1l.2-.1a6.9 6.9 0 0 0 .7-.7v-.1l.2-.2h.1l.4-.5.2-.3.1-.1.2-.2a21.7 21.7 0 0 0 2.1-3.5 54.3 54.3 0 0 0 1.4-2.9l.3-.7v-.1l.4-.8.4-.9a21.7 21.7 0 0 0 .3-.8l-.2.3v.1a20.6 20.6 0 0 0-.5.6l-.2.4-.3.5a75 75 0 0 0-1.1 2l-1.1 2a67 67 0 0 1-1.2 1.8l-.1.3-.2.3-.6.8a15.7 15.7 0 0 1-.5.8h-.1c0 .2-.1.2-.2.3l-.9 1v.1a19 19 0 0 1-.5.5l-.2.2-.7.7-.4.3-.2.2-.4.4h-.1l-.4.2-.4.1-1.8.8-.4.1-.3.1h-.2l-.2.1-.4.1a24.1 24.1 0 0 0 .9-.6l.2-.2.2-.1.1-.2.8-.6.6-.6a24.7 24.7 0 0 0 .8-.7l.5-.5.5-.5.2-.2v-.2c.1 0 .2 0 .3-.2a37 37 0 0 0 3.9-5.4l.1-.2.2-.4.1-.2.2-.3.1-.3a27 27 0 0 0 .5-.9l.1-.4.2-.3v-.1a11 11 0 0 0 .5-1.3l.4-.9V130.8l.1-.1v-.1l.1-.3a17.5 17.5 0 0 0 .4-1.4v-.2l.1-.3.1-.4v-.2h.1l.7-.2ZM257.2 151h-.4l-.1.1h-.7a11.7 11.7 0 0 1-.2-.4l-.2-.4v-.2l-.2-.2a15.2 15.2 0 0 1-1.2-4.6v-.1a27 27 0 0 1 .6-.6 4 4 0 0 1 .3-.3l.2-.2.5-.3v-.1h.1a45 45 0 0 1 .5-.4v-.1l.2-.1 1-.7h.1v-.1l.2-.1h.1l.3-.3h.2a15.6 15.6 0 0 1 .7-.5l.4-.2c.2 0 .3-.2.5-.3l.4-.2a4.9 4.9 0 0 0-.4 0h-.2l-.1.1a4 4 0 0 0-.4 0l-.1.1-.3.1h-.2l-.4.2a4 4 0 0 0-.3.1l-1.7 1h-.1l-.2.2-.3.2-.2.2a3.5 3.5 0 0 0-.3.3 6.6 6.6 0 0 0-.6.5 7.3 7.3 0 0 0-.6.8 19.3 19.3 0 0 1 0-2.3V140.9l.1-.2v-.5h.1V139.8l.1-.3.2-1 .2-.8v-.3l.1-.3.1-.3a7 7 0 0 0 .1-.4v-.1l.1-.2.7-.5.3-.2.1-.1.1-.1.3-.2.6-.4.4-.3a21.3 21.3 0 0 1 3-1.4l.2-.1h.2v-.1l.5-.2h.2l.4-.1h.1v-.1l.4-.1h.2l.4-.1a16.2 16.2 0 0 1 3.2-.5v.1l-.2.4v.4l-.2.2v.3l-.2.4v.4l-.1.1-.1.5-.2.6v.3a14.3 14.3 0 0 0-.4 1.5v.4a52.5 52.5 0 0 0-.3 1.7v.1a35 35 0 0 0-.2 1 59.7 59.7 0 0 0-.4 3l-.2 1.9.1 2a3.6 3.6 0 0 0 .4 1v.1h.1a2.5 2.5 0 0 0 .3.5l.2.1-.2.1h-.1l-.3.2a31.2 31.2 0 0 1-7.3 2Zm1.3 1.4h-.2l-.3-.1h.5l.4-.2h.4a27.1 27.1 0 0 0 1.8-.5 37.3 37.3 0 0 0 3-1h.2l.6-.3 1.8-.9.5-.2.5-.2.4-.3.5-.2.2-.2.2-.1a14.6 14.6 0 0 0 1.8-1.2l.2-.1.2-.2h.1a4.5 4.5 0 0 0 .6 0h.1a9.7 9.7 0 0 0 1.2-.4l1-.3.8-.2.4-.2a78.8 78.8 0 0 0 2.1-.8h.4l.1-.1.2-.1a18 18 0 0 0 1.4-.6h.1l.1-.1.7-.3.3-.2.3-.1.3-.2.2-.2.6-.3a18.4 18.4 0 0 0 1.6-1.1l.3-.2.2-.2.2-.1-.3.2-.2.3-.3.3a7 7 0 0 1-.3.3 27.3 27.3 0 0 1-1.2 1.2l-.3.3a31.7 31.7 0 0 1-6 4.5l-.1.1-.4.2a14.5 14.5 0 0 1-.5.3l-.4.2h-.1l-.3.2h-.2a6 6 0 0 1-.7.4l-.4.1h-.1l-.2.2-.4.1-.3.1h-.2v.1l-.9.3-.9.3h-.5l-.4.2-.4.1h-.4a35 35 0 0 1-1.5.4h-.5l-.4.1-.8.2a30.5 30.5 0 0 1-2.7.3h-.8l-1 .2h-1l-.1.1h-.4l-.4.1Zm23.8-10.8-.5.3-.5.4-.3.1-.3.2-.3.1a19.2 19.2 0 0 1-.7.4 1.4 1.4 0 0 1-.2.1l-.3.2h-.2l-1 .6-.6.2-.5.2a15.5 15.5 0 0 0 1.5-1.2l.2-.1a6.2 6.2 0 0 0 .7-.7v-.1l.2-.2h.1l.4-.5.2-.3.1-.1.2-.2a22 22 0 0 0 2.1-3.5l1-2 .4-.9.3-.7v-.1a96.7 96.7 0 0 0 .8-1.7l.2-.6.1-.2-.2.3v.1l-.4.5v.1l-.3.4-.3.5-1.1 2-1.1 2a67 67 0 0 1-1.2 1.8l-.1.3-.2.3-.6.8a12.8 12.8 0 0 1-.5.8h-.1l-.2.3-.9 1v.1l-.4.4-.1.1a17.8 17.8 0 0 1-1 1l-.3.2-.2.2-.4.4h-.1l-.2.3v.2l-.1.2a78.8 78.8 0 0 0 2.1-.8h.1a21.4 21.4 0 0 0 1.3-1.1l.3-.2a7.8 7.8 0 0 0 .9-.4l.6-.4-1 1.1.2-.1a28.7 28.7 0 0 0 1.2-.6l1.2-1.5Zm6.2-7.4.1-.4.1-.2.2-.8.1-.3a22.5 22.5 0 0 0 .7-3.3 63.3 63.3 0 0 0 .3-3.4v.4c-.2.2-.2.5-.3.7l-.2.7-.2.6-.2.9-.6 2.2-.6 2.1v.2l-.1.3a21 21 0 0 1-.4 1.2l-.3.6v.2l-.2.3v.1l-.1.2a15 15 0 0 1-1.9 3l-1 1 2-.3.2-.3a49.8 49.8 0 0 0 1.2-3.9v-.2l.3-.1.4-.5-.2.8.1-.2.1-.3v-.2a25.8 25.8 0 0 0 .3-.4l.2-.7Zm3-6-.1.4a33 33 0 0 1-1.7 4.1l.1-.1a25.9 25.9 0 0 0 1.4-2.8l.3-1.5Zm.4-.1V127.8v.1c0 .3-.2.5-.3.7l.3-.5Zm-36.6 16-.2.2a7.5 7.5 0 0 1 .2-.1Zm7.6-12.5a5.7 5.7 0 0 0-.9.2h-.4l-.1.5a9.6 9.6 0 0 0-.4.5l.5-.2h.2l.4-.1.2-.3.1-.2a48.2 48.2 0 0 1 .4-.4Zm-2.6 9.1h-.4l-.1.1a4 4 0 0 0-.4 0l-.1.1-.3.1h-.2l-.4.2h-.2l-.1.1-1.7 1h-.1l-.2.2-.3.2-.2.2a3.5 3.5 0 0 0-.3.3v.9l.5-.3v-.1h.1l.2-.2.3-.2v-.1l.2-.1 1-.7h.1v-.1l.2-.1h.1a7.2 7.2 0 0 1 .4-.3 21.3 21.3 0 0 1 .8-.5l.4-.2c.2 0 .3-.2.5-.3l.4-.2h-.2Zm6.1-8.8v.3l-.1.2.1-.5Zm-1.8 16v-.2a3.6 3.6 0 0 1-.4-1c-.1-.6-.2-1.2-.1-1.9l.2-1.9.2-1.9.1-.8v-.2a31 31 0 0 1 1.3-5.5v-.2a41.9 41.9 0 0 1 .3-.6h-.3v-.1.2l-.1.2a20.2 20.2 0 0 0-.6 2.3v.6l-.1.4-.1.5-.2 1.2v.1a24.9 24.9 0 0 0-.2 1l-.2 1.1-.2 2-.2 1.8.1 2a3.7 3.7 0 0 0 .4 1v.1h.1v-.1Zm10.7-2.8-.4.1-1.8.8-.4.1-.3.1h-.2l-.2.1a7 7 0 0 1-.4.1 15.3 15.3 0 0 0 .9-.6l.2-.2.1-.1a22.3 22.3 0 0 1-.3.1l-.7.2-.8.2-.2.2v-.1h-.2v.4l-.5.4-.2.2-1.3 1.2-.5.4.5-.2.2-.2a13.1 13.1 0 0 0 1-.6l1-.7.2-.1a9.4 9.4 0 0 1 .3-.2 3.8 3.8 0 0 0 .6 0h.1l.3-.1a13.6 13.6 0 0 0 1.9-.6l.8-.2.4-.2v-.2a5.5 5.5 0 0 1 .3-.5l-.4.2Zm5.8-2a16.4 16.4 0 0 1-1.2.6l-.3.1 1.1-1a28.2 28.2 0 0 1-1.5.7l-.3.2-1 .8-.3.3h.3v-.1l.3-.1.5-.2.6-.3.3-.1h.1l.1-.1.7-.3.3-.2.3-.1.3-.2.2-.2.6-.3-1 .5Zm3.3-2v-.1Zm-2.1.5-.5.3-.5.4-.3.1-.3.2-.3.1a24.6 24.6 0 0 1-.7.4 1.6 1.6 0 0 1-.2.1l-.3.2h-.2l-1 .6-.6.2-.5.2a15.9 15.9 0 0 0 1.4-1.1h.1v-.1l.2-.1a6.9 6.9 0 0 0 .7-.7v-.1l.2-.2h.1l.4-.5.2-.3.1-.1.2-.2a22.3 22.3 0 0 0 2.1-3.5l1-2 .4-.9.3-.7v-.1a59.7 59.7 0 0 0 .8-1.8l.2-.5.1-.2-.2.3v.1l-.4.5v.1l-.3.4-.3.5-1.1 2-1.1 2a67 67 0 0 1-1.2 1.8l-.1.3-.2.3-.6.8a15.7 15.7 0 0 1-1.7 2.2l-.4.4-.1.1-.2.2a27 27 0 0 1-1.1 1l-.2.2-.4.4h-.1l-.2.3v.2l-.1.2a78.8 78.8 0 0 0 2.1-.8h.1a22.1 22.1 0 0 0 1.3-1.1l.3-.2h.2a18.2 18.2 0 0 0 1.3-.8l-1 1.1.2-.1a26.5 26.5 0 0 0 1.2-.6l1.2-1.5Zm6.2-7.4.1-.4a10.5 10.5 0 0 0 .4-1.3 24.3 24.3 0 0 0 .7-3.3 63.3 63.3 0 0 0 .3-3.4v.4c-.2.2-.2.5-.3.7l-.2.7-.2.6-.2.9-.6 2.2-.6 2.1v.2l-.1.3a27.8 27.8 0 0 1-.4 1.2l-.3.6v.2l-.2.3v.1l-.1.2a17.6 17.6 0 0 1-1.9 3l-1 1 2-.3.2-.3a49.6 49.6 0 0 0 .8-2.5l.3-.9.1-.5v-.2l.3-.1.4-.5a30.8 30.8 0 0 0-.2.8l.1-.2a5.7 5.7 0 0 0 .2-.6l.2-.3.2-.7Zm3-6a34 34 0 0 1-1.8 4.5l.1-.1a25.6 25.6 0 0 0 1.4-2.8l.3-1.5Zm.4-.1V127.8v.1c0 .3-.2.5-.3.7l.3-.5Zm-36.6 16-.2.2.2-.2Zm7.6-12.5a5.7 5.7 0 0 0-.7.1h-.2l-.1.2v-.1h-.3l-.1.5a12.5 12.5 0 0 0-.4.5l.5-.2h.2a7.8 7.8 0 0 1 .4-.2l.2-.2.1-.2a50.7 50.7 0 0 1 .4-.4Zm-2.6 9.1h-.4l-.1.1h-.4l-.1.1a6 6 0 0 0-.3.1h-.2l-.4.2h-.2l-.1.1-1.7 1h-.1l-.2.2-.3.2-.2.2-.3.3v.9l.5-.3v-.1h.1l.2-.2.3-.2v-.1l.2-.1 1-.7h.1v-.1l.2-.1h.1l.3-.3h.2a12.6 12.6 0 0 1 .7-.5l.4-.2c.2 0 .3-.2.5-.3l.4-.2h-.2Zm6.1-8.8v.3l-.1.2.1-.5Zm-1.8 16v-.2a3.5 3.5 0 0 1-.4-1c-.1-.6-.2-1.2-.1-1.9l.2-1.9a97.4 97.4 0 0 1 .3-2.9 34 34 0 0 1 1.3-5.5v-.2a35.2 35.2 0 0 1 .3-.6h-.3v-.1.2l-.1.2a20 20 0 0 0-.6 2.3v.6l-.1.4a33.8 33.8 0 0 0-.3 1.7v.1a24.8 24.8 0 0 0-.2 1 59.7 59.7 0 0 0-.4 3l-.2 2 .1 1.9a3.7 3.7 0 0 0 .4 1v.1h.1v-.1Zm10.7-2.8-.4.1-1.8.8a17.4 17.4 0 0 1-.7.2h-.2l-.2.1-.4.1a30.6 30.6 0 0 0 .9-.6l.2-.2.1-.1-.3.1-.7.2-.8.2-.2.2v-.1h-.2v.4l-.5.4-.2.2-1.3 1.2-.5.4.5-.2.2-.2a18 18 0 0 0 2-1.3l.2-.1.2-.2h.1a4.7 4.7 0 0 0 .6 0h.1a9.7 9.7 0 0 0 1.2-.4l1-.3.8-.2.4-.2v-.2a5.5 5.5 0 0 1 .3-.5l-.4.2Zm5.8-2-.6.3-.6.3-.3.1 1.1-1a28.2 28.2 0 0 1-1.5.7l-.3.2-1 .8-.3.3h.3v-.1l.3-.1a24.3 24.3 0 0 0 1.4-.6h.1l.1-.1a25.8 25.8 0 0 0 1-.5l.3-.1.3-.2.2-.2.6-.3-1 .5Zm3.3-2v-.1Zm-2.1.5-.5.3-.5.4-.3.1-.3.2-.3.1-.3.2-.3.2h-.2v.1h-.1l-.3.2a14 14 0 0 1-1.3.6l-.5.2-.5.2a15.5 15.5 0 0 0 1.5-1.2l.2-.1a6.2 6.2 0 0 0 .7-.7v-.1a5.5 5.5 0 0 0 .3-.2l.4-.5.2-.3.1-.1.2-.2a21.2 21.2 0 0 0 2.1-3.5 53.6 53.6 0 0 0 1.7-3.6v-.1l.4-.8.4-.9.2-.6.1-.2-.2.3v.1l-.4.5v.1l-.3.4-.3.5-1.1 2-1.1 2a67.2 67.2 0 0 1-1.2 1.8l-.1.3-.2.3-.6.8a18.7 18.7 0 0 1-.5.8h-.1c0 .2-.1.2-.2.3l-.9 1v.1l-.4.4-.1.1-.2.2a25.5 25.5 0 0 1-1.7 1.6h-.1l-.2.3v.2l-.1.2 1.5-.5.6-.3h.1l.4-.3a24.8 24.8 0 0 0 1.2-1 8.8 8.8 0 0 0 .9-.4l.6-.4-1 1.1.2-.1a31 31 0 0 0 1.2-.6l1.2-1.5Zm6.2-7.4.1-.4.1-.2a29 29 0 0 0 1-4.4 62.7 62.7 0 0 0 .3-3.4v.4c-.2.2-.2.5-.3.7l-.2.7-.2.6-.2.9-.6 2.2a40 40 0 0 1-.6 2.1v.2l-.1.3a16.7 16.7 0 0 1-.4 1.2l-.3.6v.2l-.2.3v.1a49.9 49.9 0 0 1-1.5 2.7 19.6 19.6 0 0 1-1.6 1.5l2-.3.3-.3.3-.7.1-.5a75.1 75.1 0 0 0 .8-2.7v-.2a7.7 7.7 0 0 0 .7-.6l-.2.8.1-.2a5.2 5.2 0 0 0 .2-.5 15.6 15.6 0 0 0 .2-.5l.2-.6Zm3-6-.1.4a32.5 32.5 0 0 1-.7 2.3l.5-1c0-.6.2-1.1.3-1.6Zm.4-.1V127.8v.1c0 .3-.2.5-.3.7l.3-.5Zm-36.6 16-.2.2.2-.2Zm7.6-12.5a7 7 0 0 0-.9.2h-.4l-.1.5-.3.3-.1.2a14.5 14.5 0 0 1 1.1-.4l.2-.2.1-.2.4-.4Zm-2.6 9.1h-.4l-.1.1h-.4l-.1.1-.3.1h-.2l-.4.2a4 4 0 0 0-.3.1l-1.7 1h-.1l-.2.2-.3.2-.2.2-.3.3v.9l.5-.3v-.1h.1l.2-.2.3-.2v-.1l.2-.1 1-.7h.1v-.1l.2-.1h.1l.3-.3h.2a19.3 19.3 0 0 1 .7-.5l.4-.2c.2 0 .3-.2.5-.3l.4-.2h-.2Zm6.1-8.8v.3l-.1.2.1-.5Zm-1.8 16v-.2a3.5 3.5 0 0 1-.4-1c-.1-.6-.2-1.2-.1-1.9l.2-1.9a99.3 99.3 0 0 1 .3-2.9 33 33 0 0 1 1.3-5.5v-.2l.2-.5v-.1h-.2v-.1.2l-.1.2-.1.5-.2.6v.3a13.6 13.6 0 0 0-.4 1.5v.4l-.1.5-.2 1.2v.1a34.9 34.9 0 0 0-.2 1l-.2 1.1-.2 2-.2 1.8.1 2a3.6 3.6 0 0 0 .4 1v.1h.1v-.1Zm10.7-2.8-.4.1-1.8.8-.4.1-.3.1h-.2l-.2.1a30.6 30.6 0 0 0 .5-.6h.2l.1-.2-.3.1-.7.2-.8.2-.2.2v-.1h-.2v.4l-.5.4-.2.2-1.3 1.2-.5.4.5-.2.2-.2a18 18 0 0 0 2-1.3 16.3 16.3 0 0 0 .4-.3h.1a4.5 4.5 0 0 0 .6 0h.1l.3-.1a14.2 14.2 0 0 0 1.9-.6l.8-.2.4-.2v-.2l.1-.2.2-.3-.4.2Zm5.8-2a19.4 19.4 0 0 1-1.5.7l1.1-1a36.6 36.6 0 0 1-1.5.7l-.3.2a24 24 0 0 1-1 1l.3-.1a24.3 24.3 0 0 0 1.4-.6h.1l.1-.1.7-.3.3-.2.3-.1.3-.2.2-.2.6-.3-1 .5Zm3.3-2v-.1Zm-2.1.5-.5.3-.5.4-.3.1-.3.2-.3.1a19.1 19.1 0 0 1-.7.4l-.2.1-.3.2h-.2l-1 .6-.6.2-.5.2a16.2 16.2 0 0 0 1.5-1.2l.2-.1a6.9 6.9 0 0 0 .7-.7v-.1l.2-.2h.1l.4-.5.2-.3.1-.1.2-.2a21.4 21.4 0 0 0 2.1-3.5l1-2 .4-.9.3-.7v-.1l.4-.8.4-.9.2-.6.1-.2-.2.3v.1l-.4.5v.1l-.3.4-.3.5a75 75 0 0 0-1.1 2l-1.1 2a78 78 0 0 1-1.2 1.8l-.1.3-.2.3-.6.8a15.7 15.7 0 0 1-.5.8h-.1c0 .2-.1.2-.2.3l-.9 1v.1a23.6 23.6 0 0 1-.5.5l-.2.2-.8.7-.3.3-.2.2-.4.4h-.1l-.2.3v.2l-.1.2a81.3 81.3 0 0 0 2.1-.8h.1a26.2 26.2 0 0 0 1.3-1.1l.3-.2h.2a19.2 19.2 0 0 0 1.3-.8l-1 1.1.2-.1a31 31 0 0 0 1.2-.6l1.2-1.5Zm6.2-7.4.1-.4.1-.2a30 30 0 0 0 1-4.4 62.6 62.6 0 0 0 .3-3.4v.4c-.2.2-.2.5-.3.7l-.2.7-.2.6-.2.9-.6 2.2-.6 2.1v.2l-.1.3a15.7 15.7 0 0 1-.4 1.2 26.7 26.7 0 0 1-.4.8v.3l-.1.1-.1.2a15 15 0 0 1-1.9 3l-1 1 2-.3.2-.3.3-.7.1-.5a81.3 81.3 0 0 0 .8-2.7v-.2a7.6 7.6 0 0 0 .7-.6 31.8 31.8 0 0 0-.2.8l.1-.2a4.7 4.7 0 0 0 .2-.5l.2-.4.2-.7Zm3-6a15 15 0 0 1-.6 1.9c-.4.9-.7 1.8-1.2 2.6h.1a26.1 26.1 0 0 0 1.4-2.9l.3-1.5Zm.4-.1V127.8v.1c0 .3-.2.5-.3.7l.3-.5Zm-36.6 16-.2.2.2-.2Zm7.6-12.5a6.8 6.8 0 0 0-.7.1h-.2l-.1.2v-.1h-.3l-.1.5-.3.3-.1.2.5-.2h.2l.4-.1.2-.3.1-.2.4-.4Zm-2.6 9.1h-.4a9.4 9.4 0 0 1-.5.2h-.1a3 3 0 0 1-.3.1h-.2a9.5 9.5 0 0 0-2.4 1.2l-.1.2h-.2v.1l-.3.2-.2.2-.3.3v.9l.5-.3v-.1h.1l.2-.2.3-.2v-.1l.2-.1 1-.7h.1v-.1l.2-.1h.1a6.7 6.7 0 0 1 .4-.3l.5-.3.3-.2a20.4 20.4 0 0 0 .9-.5l.4-.2h-.2Zm6.1-8.8v.3l-.1.2.1-.5Zm-1.8 16v-.2a3.5 3.5 0 0 1-.4-1c-.1-.6-.2-1.2-.1-1.9l.2-1.9.2-1.9.1-.8v-.2a34 34 0 0 1 1.3-5.5v-.2l.2-.5v-.1h-.2a1.7 1.7 0 0 0 0-.1v.2l-.1.2-.1.5-.2.6v.3a14.3 14.3 0 0 0-.4 1.5v.4a52.5 52.5 0 0 0-.3 1.7v.1a25 25 0 0 0-.2 1l-.2 1.1-.2 2-.2 1.8.1 2a3.6 3.6 0 0 0 .4 1v.1h.1v-.1Zm10.7-2.8-.4.1-1.8.8a17.5 17.5 0 0 1-.7.2h-.2l-.2.1-.4.1a18.7 18.7 0 0 0 .9-.6l.2-.2.1-.1-.3.1-.7.2-.8.2-.2.2v-.1h-.2v.4l-.5.4-.2.2-1.3 1.2-.5.4.5-.2.2-.2a13 13 0 0 0 1-.6l1-.7.2-.1.2-.2a2.2 2.2 0 0 0 .4 0h.4a9.7 9.7 0 0 0 1.2-.4l1-.3.8-.2.4-.2v-.2l.1-.2.2-.3-.4.2Zm5.8-2a15.7 15.7 0 0 1-1.2.6l-.3.1 1.1-1a30.7 30.7 0 0 1-1.5.7l-.3.2a24.8 24.8 0 0 1-1.3 1.1h.3v-.1l.3-.1a18 18 0 0 0 1.4-.6h.1l.1-.1.7-.3.3-.2.3-.1a58.7 58.7 0 0 0 1.1-.7l-1 .5Zm3.3-2v-.1ZM268 119.4Zm13.9 14a34 34 0 0 1-5.6 8.6l.3-.3a38 38 0 0 0 3.9-5.4l.1-.2.2-.4.1-.2a10.6 10.6 0 0 0 .6-1.1l.2-.4.1-.4.2-.3-.1.1Zm3.2-1.9v.1l-.4.5v.1l-.3.4-.3.5-1.1 2-1.1 2a67.2 67.2 0 0 1-1.3 2.1l-.2.3-.6.8a18.7 18.7 0 0 1-.5.8h-.1c0 .2-.1.2-.2.3l-.9 1v.1a16.1 16.1 0 0 0 1.5-1v.3h-.1a13.8 13.8 0 0 1-1.3 1.4h.1v-.1l.2-.1a6.9 6.9 0 0 0 .7-.8l.2-.2h.1l.4-.5.2-.3.1-.1.2-.2a21.4 21.4 0 0 0 2.1-3.5l1-2 .4-.9.3-.7v-.1l.4-.8.4-.9.2-.6.1-.2-.2.3Zm2.6-6.2-.2.1v.2l.2-.1v-.2Zm.7 8.8.1-.4.1-.2a30 30 0 0 0 1-4.4 62.6 62.6 0 0 0 .3-3.4v.4c-.2.2-.2.5-.3.7l-.2.7-.2.6-.2.9-.6 2.2-.6 2.1v.2l-.1.3a15.7 15.7 0 0 1-.4 1.2 26.7 26.7 0 0 1-.4.8v.3l-.1.1-.1.2a15 15 0 0 1-1.9 3l-1 1a16.8 16.8 0 0 1-1.6 1.1l-.5.3-.5.4-.3.1-.3.3-1 1.1.2-.1a28.7 28.7 0 0 0 2.4-1.1l.4-.3.3-.2a13.5 13.5 0 0 0 .8-.6l.3-.2.2-.2.2-.1-.3.2-.2.3-.3.3.3-.2a11 11 0 0 0 2.1-1.7l.3-.7.1-.5a68.1 68.1 0 0 0 .8-2.7v-.2a7.6 7.6 0 0 0 .7-.6l-.2.8.1-.2.1-.3v-.2h.1a11 11 0 0 0 .2-.5l.2-.6Zm3-6a15 15 0 0 1-.6 1.9c-.4.9-.7 1.8-1.2 2.6h.1a26.1 26.1 0 0 0 1.4-2.9l.3-1.5Zm.9-1.7v-.3c.3-.7.5-1.5.6-2.3v.1a14.1 14.1 0 0 1-.5 2 15 15 0 0 1-.1.4l-.1.3v-.2Zm-.5 1.3v.2-.2Zm-8 13.5a17 17 0 0 1-4 2.4l-.3.1a34 34 0 0 0 1.4-1.4l-.3.2-.3.1a25.8 25.8 0 0 1-.7.4l-.2.1-.3.2a11.8 11.8 0 0 1-.3.3l-1 .8a30.1 30.1 0 0 1-2.4 1v-.2l.2-.4-.4.2-.2.4-.1.3.4-.2a67 67 0 0 0 2.1-.8h.4v-.1l.3-.1a24.3 24.3 0 0 0 1.4-.6h.1l.1-.1.7-.3.3-.2.3-.1.3-.2.2-.2.6-.3a15.2 15.2 0 0 0 1.6-1.1l.3-.2.4-.5-.6.5Zm-23.6-.6h-.4l-.1.1h-.4l-.1.1-.3.1h-.2l-.4.2h-.2l-.1.1-1.7 1h-.1l-.2.2-.3.2-.2.2-.3.3a35.6 35.6 0 0 0 0 .9 18.2 18.2 0 0 0-.5.4v.1a11 11 0 0 1 .5-.5l.5-.3v-.1h.1l.2-.2.3-.2v-.1l.2-.1 1-.7h.1v-.1a4.5 4.5 0 0 1 .3-.1 6.5 6.5 0 0 1 .4-.3 16.9 16.9 0 0 1 .8-.5l.4-.2c.2 0 .3-.2.5-.3l.4-.2h-.2Zm6.2-9-.3-.1h-.3l-.3-.1H265a7.9 7.9 0 0 0-1 0H263a7 7 0 0 0-.7.2H262l-.3.2a15.1 15.1 0 0 0-1.7.5l.2-.2h-.2l-.6.2v.2l-.1.1-.5.3-.4.3h-.1l-.6.4v.2l-.2.5v.1l-1 .6v.2l.3-.2.6-.4.4-.3h.1a21.3 21.3 0 0 1 2.8-1.4l.3-.1h.2v-.1l.5-.2h.2l.4-.1h.1v-.1h.4l.2-.1.4-.1a16.2 16.2 0 0 1 3.2-.5Zm-1.9 16.3v-.3a3.6 3.6 0 0 1-.4-1c-.1-.6-.2-1.2-.1-1.9l.2-1.9.2-1.9.1-.8v-.2a31 31 0 0 1 1.3-5.5v-.2l.2-.5v-.1h-.2v-.1l.3-1v.2l-.1.3-.2.4a1.8 1.8 0 0 0 0 .3l-.1.2-.1.5-.2.6a23 23 0 0 0-.4 1.8v.4a52.4 52.4 0 0 0-.3 1.7v.1a19.3 19.3 0 0 0-.2 1l-.2 1.1-.2 2-.2 1.8.1 2 .4 1v.1h.1v-.1Z"/>
  </g>
</svg>
