<svg width="129" height="50" viewBox="0 0 129 50" fill="none" xmlns="http://www.w3.org/2000/svg">
<g clip-path="url(#clip0_1248_126588)">
<path d="M0 2.04083V14H24V1H1.00293C0.736933 1 0 1 0 1C0 1 0 1.76479 0 2.04083Z" fill="url(#paint0_linear_1248_126588)"/>
<path d="M24 18.5H0V31.5H24V18.5Z" fill="#84AFF1"/>
<path d="M24 36H0V49H24V36Z" fill="#84AFF1"/>
<path d="M3 27.3182H4.56818V24.7727C4.56818 24.392 4.76705 24.1591 5.09091 24.1591C5.41477 24.1591 5.625 24.392 5.625 24.7727V27.3182H7.125V24.7727C7.125 24.392 7.32386 24.1591 7.64773 24.1591C7.97159 24.1591 8.18182 24.392 8.18182 24.7727V27.3182H9.75V24.375C9.75 23.4801 9.17614 22.8977 8.34091 22.8977C7.69318 22.8977 7.17045 23.25 7.02273 23.7841H6.97727C6.88636 23.25 6.39773 22.8977 5.78409 22.8977C5.17898 22.8977 4.71591 23.2386 4.53409 23.7841H4.48864V22.9545H3V27.3182Z" fill="#24292E"/>
<path d="M10.5234 28.9545H12.0916V26.6023H12.1143C12.2962 27.0455 12.7166 27.375 13.3303 27.375C14.2621 27.375 15.0462 26.6477 15.0462 25.1364C15.0462 23.5568 14.2053 22.8977 13.3416 22.8977C12.6939 22.8977 12.2848 23.2727 12.1143 23.7159H12.0803V22.9545H10.5234V28.9545ZM12.0575 25.1364C12.0575 24.4886 12.3189 24.1023 12.7507 24.1023C13.1825 24.1023 13.4325 24.4886 13.4325 25.1364C13.4325 25.7841 13.1825 26.1705 12.7507 26.1705C12.3189 26.1705 12.0575 25.7727 12.0575 25.1364Z" fill="#24292E"/>
<path d="M17.2713 24.8636C17.2741 24.4318 17.5241 24.1705 17.9077 24.1705C18.3082 24.1705 18.5355 24.4318 18.5327 24.8636V27.3182H20.1009V24.5341C20.1037 23.5795 19.5014 22.8977 18.5781 22.8977C17.9332 22.8977 17.456 23.2273 17.2599 23.7841H17.2145V21.5H15.7031V27.3182H17.2713V24.8636Z" fill="#24292E"/>
<path d="M3 44.8182H4.56818V42.2727C4.56818 41.892 4.76705 41.6591 5.09091 41.6591C5.41477 41.6591 5.625 41.892 5.625 42.2727V44.8182H7.125V42.2727C7.125 41.892 7.32386 41.6591 7.64773 41.6591C7.97159 41.6591 8.18182 41.892 8.18182 42.2727V44.8182H9.75V41.875C9.75 40.9801 9.17614 40.3977 8.34091 40.3977C7.69318 40.3977 7.17045 40.75 7.02273 41.2841H6.97727C6.88636 40.75 6.39773 40.3977 5.78409 40.3977C5.17898 40.3977 4.71591 40.7386 4.53409 41.2841H4.48864V40.4545H3V44.8182Z" fill="#24292E"/>
<path d="M10.5234 46.4545H12.0916V44.1023H12.1143C12.2962 44.5455 12.7166 44.875 13.3303 44.875C14.2621 44.875 15.0462 44.1477 15.0462 42.6364C15.0462 41.0568 14.2053 40.3977 13.3416 40.3977C12.6939 40.3977 12.2848 40.7727 12.1143 41.2159H12.0803V40.4545H10.5234V46.4545ZM12.0575 42.6364C12.0575 41.9886 12.3189 41.6023 12.7507 41.6023C13.1825 41.6023 13.4325 41.9886 13.4325 42.6364C13.4325 43.2841 13.1825 43.6705 12.7507 43.6705C12.3189 43.6705 12.0575 43.2727 12.0575 42.6364Z" fill="#24292E"/>
<path d="M17.2713 42.3636C17.2741 41.9318 17.5241 41.6705 17.9077 41.6705C18.3082 41.6705 18.5355 41.9318 18.5327 42.3636V44.8182H20.1009V42.0341C20.1037 41.0795 19.5014 40.3977 18.5781 40.3977C17.9332 40.3977 17.456 40.7273 17.2599 41.2841H17.2145V39H15.7031V44.8182H17.2713V42.3636Z" fill="#24292E"/>
</g>
<g clip-path="url(#clip1_1248_126588)">
<path d="M28 2.04083V14H43V1H28.6268C28.4606 1 28 1 28 1C28 1 28 1.76479 28 2.04083Z" fill="url(#paint1_linear_1248_126588)"/>
<path d="M43 18.5H28V31.5H43V18.5Z" fill="#84AFF1"/>
<path d="M43 36H28V49H43V36Z" fill="#84AFF1"/>
<path d="M36.5 22H35.0716L33.5 22.9199V24.1738L34.9253 23.3535H34.9627V28H36.5V22Z" fill="#24292E"/>
<path d="M33.0873 45.5H37.5V44.3468H35.0841V44.3092L35.7972 43.6561C37.0896 42.5376 37.4272 41.9682 37.4272 41.289C37.4272 40.2225 36.5511 39.5 35.1976 39.5C33.879 39.5 32.9971 40.2543 33 41.4595H34.3651C34.3651 40.9249 34.697 40.6156 35.1918 40.6156C35.6779 40.6156 36.0301 40.9133 36.0301 41.4017C36.0301 41.8439 35.7506 42.1445 35.2616 42.5809L33.0873 44.4711V45.5Z" fill="#24292E"/>
</g>
<rect x="27.5" y="0.5" width="16" height="49" stroke="white"/>
<path d="M56.9067 31C57.6011 31 62.9327 27 62.9327 25C62.9327 23 57.7357 19 56.9067 19C56.0778 19 55.4023 19.5 55.4023 20.4756C55.4023 21.4512 58.9067 23.9206 58.9067 23.9206C58.9067 23.9206 51.2539 23.25 51 23.9206C50.7461 24.5911 50.7461 25.4089 51 26.0794C51.2539 26.75 58.9067 26.0794 58.9067 26.0794C58.9067 26.0794 55.4023 28.75 55.4023 29.5301C55.4023 30.3103 56.2124 31 56.9067 31Z" fill="#24292E"/>
<g clip-path="url(#clip2_1248_126588)">
<path d="M71 2.04083V14H95V1H72.0029C71.7369 1 71 1 71 1C71 1 71 1.76479 71 2.04083Z" fill="url(#paint2_linear_1248_126588)"/>
<path d="M95 18.5H71V31.5H95V18.5Z" fill="#84AFF1"/>
<path d="M95 36H71V49H95V36Z" fill="#84AFF1"/>
<path d="M75 27.3182H76.5682V24.7727C76.5682 24.392 76.767 24.1591 77.0909 24.1591C77.4148 24.1591 77.625 24.392 77.625 24.7727V27.3182H79.125V24.7727C79.125 24.392 79.3239 24.1591 79.6477 24.1591C79.9716 24.1591 80.1818 24.392 80.1818 24.7727V27.3182H81.75V24.375C81.75 23.4801 81.1761 22.8977 80.3409 22.8977C79.6932 22.8977 79.1705 23.25 79.0227 23.7841H78.9773C78.8864 23.25 78.3977 22.8977 77.7841 22.8977C77.179 22.8977 76.7159 23.2386 76.5341 23.7841H76.4886V22.9545H75V27.3182Z" fill="#24292E"/>
<path d="M82.5234 28.9545H84.0916V26.6023H84.1143C84.2962 27.0455 84.7166 27.375 85.3303 27.375C86.2621 27.375 87.0462 26.6477 87.0462 25.1364C87.0462 23.5568 86.2053 22.8977 85.3416 22.8977C84.6939 22.8977 84.2848 23.2727 84.1143 23.7159H84.0803V22.9545H82.5234V28.9545ZM84.0575 25.1364C84.0575 24.4886 84.3189 24.1023 84.7507 24.1023C85.1825 24.1023 85.4325 24.4886 85.4325 25.1364C85.4325 25.7841 85.1825 26.1705 84.7507 26.1705C84.3189 26.1705 84.0575 25.7727 84.0575 25.1364Z" fill="#24292E"/>
<path d="M89.2713 24.8636C89.2741 24.4318 89.5241 24.1705 89.9077 24.1705C90.3082 24.1705 90.5355 24.4318 90.5327 24.8636V27.3182H92.1009V24.5341C92.1037 23.5795 91.5014 22.8977 90.5781 22.8977C89.9332 22.8977 89.456 23.2273 89.2599 23.7841H89.2145V21.5H87.7031V27.3182H89.2713V24.8636Z" fill="#24292E"/>
<path d="M74 44.8182H75.5682V42.2727C75.5682 41.892 75.767 41.6591 76.0909 41.6591C76.4148 41.6591 76.625 41.892 76.625 42.2727V44.8182H78.125V42.2727C78.125 41.892 78.3239 41.6591 78.6477 41.6591C78.9716 41.6591 79.1818 41.892 79.1818 42.2727V44.8182H80.75V41.875C80.75 40.9801 80.1761 40.3977 79.3409 40.3977C78.6932 40.3977 78.1705 40.75 78.0227 41.2841H77.9773C77.8864 40.75 77.3977 40.3977 76.7841 40.3977C76.179 40.3977 75.7159 40.7386 75.5341 41.2841H75.4886V40.4545H74V44.8182Z" fill="#24292E"/>
<path d="M81.5234 46.4545H83.0916V44.1023H83.1143C83.2962 44.5455 83.7166 44.875 84.3303 44.875C85.2621 44.875 86.0462 44.1477 86.0462 42.6364C86.0462 41.0568 85.2053 40.3977 84.3416 40.3977C83.6939 40.3977 83.2848 40.7727 83.1143 41.2159H83.0803V40.4545H81.5234V46.4545ZM83.0575 42.6364C83.0575 41.9886 83.3189 41.6023 83.7507 41.6023C84.1825 41.6023 84.4325 41.9886 84.4325 42.6364C84.4325 43.2841 84.1825 43.6705 83.7507 43.6705C83.3189 43.6705 83.0575 43.2727 83.0575 42.6364Z" fill="#24292E"/>
<path d="M88.2713 42.3636C88.2741 41.9318 88.5241 41.6705 88.9077 41.6705C89.3082 41.6705 89.5355 41.9318 89.5327 42.3636V44.8182H91.1009V42.0341C91.1037 41.0795 90.5014 40.3977 89.5781 40.3977C88.9332 40.3977 88.456 40.7273 88.2599 41.2841H88.2145V39H86.7031V44.8182H88.2713V42.3636Z" fill="#24292E"/>
</g>
<g clip-path="url(#clip3_1248_126588)">
<path d="M99 2.04083V14H129V1H100.254C99.9212 1 99 1 99 1C99 1 99 1.76479 99 2.04083Z" fill="url(#paint3_linear_1248_126588)"/>
<path d="M129 18.5H99V31.5H129V18.5Z" fill="#84AFF1"/>
<path d="M129 36H99V49H129V36Z" fill="#84AFF1"/>
<path d="M109 27.3182H110.568V24.7727C110.568 24.392 110.767 24.1591 111.091 24.1591C111.415 24.1591 111.625 24.392 111.625 24.7727V27.3182H113.125V24.7727C113.125 24.392 113.324 24.1591 113.648 24.1591C113.972 24.1591 114.182 24.392 114.182 24.7727V27.3182H115.75V24.375C115.75 23.4801 115.176 22.8977 114.341 22.8977C113.693 22.8977 113.17 23.25 113.023 23.7841H112.977C112.886 23.25 112.398 22.8977 111.784 22.8977C111.179 22.8977 110.716 23.2386 110.534 23.7841H110.489V22.9545H109V27.3182Z" fill="#24292E"/>
<path d="M116.523 28.9545H118.092V26.6023H118.114C118.296 27.0455 118.717 27.375 119.33 27.375C120.262 27.375 121.046 26.6477 121.046 25.1364C121.046 23.5568 120.205 22.8977 119.342 22.8977C118.694 22.8977 118.285 23.2727 118.114 23.7159H118.08V22.9545H116.523V28.9545ZM118.058 25.1364C118.058 24.4886 118.319 24.1023 118.751 24.1023C119.183 24.1023 119.433 24.4886 119.433 25.1364C119.433 25.7841 119.183 26.1705 118.751 26.1705C118.319 26.1705 118.058 25.7727 118.058 25.1364Z" fill="#24292E"/>
<path d="M123.271 24.8636C123.274 24.4318 123.524 24.1705 123.908 24.1705C124.308 24.1705 124.536 24.4318 124.533 24.8636V27.3182H126.101V24.5341C126.104 23.5795 125.501 22.8977 124.578 22.8977C123.933 22.8977 123.456 23.2273 123.26 23.7841H123.214V21.5H121.703V27.3182H123.271V24.8636Z" fill="#24292E"/>
<path d="M109 44.8182H110.568V42.2727C110.568 41.892 110.767 41.6591 111.091 41.6591C111.415 41.6591 111.625 41.892 111.625 42.2727V44.8182H113.125V42.2727C113.125 41.892 113.324 41.6591 113.648 41.6591C113.972 41.6591 114.182 41.892 114.182 42.2727V44.8182H115.75V41.875C115.75 40.9801 115.176 40.3977 114.341 40.3977C113.693 40.3977 113.17 40.75 113.023 41.2841H112.977C112.886 40.75 112.398 40.3977 111.784 40.3977C111.179 40.3977 110.716 40.7386 110.534 41.2841H110.489V40.4545H109V44.8182Z" fill="#24292E"/>
<path d="M116.523 46.4545H118.092V44.1023H118.114C118.296 44.5455 118.717 44.875 119.33 44.875C120.262 44.875 121.046 44.1477 121.046 42.6364C121.046 41.0568 120.205 40.3977 119.342 40.3977C118.694 40.3977 118.285 40.7727 118.114 41.2159H118.08V40.4545H116.523V46.4545ZM118.058 42.6364C118.058 41.9886 118.319 41.6023 118.751 41.6023C119.183 41.6023 119.433 41.9886 119.433 42.6364C119.433 43.2841 119.183 43.6705 118.751 43.6705C118.319 43.6705 118.058 43.2727 118.058 42.6364Z" fill="#24292E"/>
<path d="M123.271 42.3636C123.274 41.9318 123.524 41.6705 123.908 41.6705C124.308 41.6705 124.536 41.9318 124.533 42.3636V44.8182H126.101V42.0341C126.104 41.0795 125.501 40.3977 124.578 40.3977C123.933 40.3977 123.456 40.7273 123.26 41.2841H123.214V39H121.703V44.8182H123.271V42.3636Z" fill="#24292E"/>
<path d="M106 21.5H104.572L103 22.4199V23.6738L104.425 22.8535H104.463V27.5H106V21.5Z" fill="#24292E"/>
<path d="M102.087 45H106.5V43.8468H104.084V43.8092L104.797 43.1561C106.09 42.0376 106.427 41.4682 106.427 40.789C106.427 39.7225 105.551 39 104.198 39C102.879 39 101.997 39.7543 102 40.9595H103.365C103.365 40.4249 103.697 40.1156 104.192 40.1156C104.678 40.1156 105.03 40.4133 105.03 40.9017C105.03 41.3439 104.751 41.6445 104.262 42.0809L102.087 43.9711V45Z" fill="#24292E"/>
</g>
<defs>
<linearGradient id="paint0_linear_1248_126588" x1="0" y1="7.5052" x2="24" y2="7.5052" gradientUnits="userSpaceOnUse">
<stop stop-color="#F2CC0C"/>
<stop offset="1" stop-color="#FF9830"/>
</linearGradient>
<linearGradient id="paint1_linear_1248_126588" x1="28" y1="7.5052" x2="43" y2="7.5052" gradientUnits="userSpaceOnUse">
<stop stop-color="#F2CC0C"/>
<stop offset="1" stop-color="#FF9830"/>
</linearGradient>
<linearGradient id="paint2_linear_1248_126588" x1="71" y1="7.5052" x2="95" y2="7.5052" gradientUnits="userSpaceOnUse">
<stop stop-color="#F2CC0C"/>
<stop offset="1" stop-color="#FF9830"/>
</linearGradient>
<linearGradient id="paint3_linear_1248_126588" x1="99" y1="7.5052" x2="129" y2="7.5052" gradientUnits="userSpaceOnUse">
<stop stop-color="#F2CC0C"/>
<stop offset="1" stop-color="#FF9830"/>
</linearGradient>
<clipPath id="clip0_1248_126588">
<rect width="24" height="48" fill="white" transform="translate(0 1)"/>
</clipPath>
<clipPath id="clip1_1248_126588">
<rect x="28" y="1" width="15" height="48" fill="white"/>
</clipPath>
<clipPath id="clip2_1248_126588">
<rect width="24" height="48" fill="white" transform="translate(71 1)"/>
</clipPath>
<clipPath id="clip3_1248_126588">
<rect width="30" height="48" fill="white" transform="translate(99 1)"/>
</clipPath>
</defs>
</svg>
