<svg width="158" height="49" viewBox="0 0 158 49" fill="none" xmlns="http://www.w3.org/2000/svg">
<path d="M19 14H34V2.04083C34 1.76479 33.934 1.50005 33.8164 1.30485C33.6989 1.10966 33.5394 1 33.3732 1H19V14Z" fill="url(#paint0_linear_1248_126159)"/>
<path d="M34 18.5H19V31.5H34V18.5Z" fill="#84AFF1"/>
<path d="M34 36H19V49H34V36Z" fill="#84AFF1"/>
<path d="M0 2.03583V13.995H15V0.994995H0.626828C0.460583 0.994995 0.301147 1.10465 0.183594 1.29985C0.0660407 1.49504 0 1.75978 0 2.03583Z" fill="url(#paint1_linear_1248_126159)"/>
<path d="M15 18.495H0V31.495H15V18.495Z" fill="#84AFF1"/>
<path d="M15 35.995H0V48.995H15V35.995Z" fill="#84AFF1"/>
<path d="M46.3343 31H49.674V26.674H54V23.3343H49.674V19H46.3343V23.3343H42V26.674H46.3343V31Z" fill="#24292E"/>
<path d="M82.675 2.5H75.325C74.9073 2.5 74.5067 2.66594 74.2113 2.96131C73.9159 3.25668 73.75 3.65728 73.75 4.075V4.68925C73.7499 4.90604 73.7946 5.12052 73.8813 5.31925V5.35075C73.9554 5.51926 74.0605 5.6724 74.191 5.80225L77.425 9.01525V12.475C77.4248 12.5642 77.4474 12.652 77.4906 12.7301C77.5337 12.8082 77.5961 12.874 77.6717 12.9212C77.7553 12.973 77.8517 13.0003 77.95 13C78.0322 12.9995 78.1131 12.9797 78.1862 12.9422L80.2862 11.8922C80.3728 11.8486 80.4456 11.7819 80.4966 11.6994C80.5476 11.6169 80.5747 11.5219 80.575 11.425V9.01525L83.788 5.80225C83.9185 5.6724 84.0236 5.51926 84.0977 5.35075V5.31925C84.1916 5.12208 84.2435 4.90753 84.25 4.68925V4.075C84.25 3.65728 84.0841 3.25668 83.7887 2.96131C83.4933 2.66594 83.0927 2.5 82.675 2.5ZM79.6772 8.42725C79.6286 8.47631 79.5901 8.53448 79.564 8.59845C79.5378 8.66241 79.5246 8.73091 79.525 8.8V11.0995L78.475 11.6245V8.8C78.4754 8.73091 78.4622 8.66241 78.436 8.59845C78.4099 8.53448 78.3714 8.47631 78.3227 8.42725L75.5402 5.65H82.4597L79.6772 8.42725ZM83.2 4.6H74.8V4.075C74.8 3.93576 74.8553 3.80223 74.9538 3.70377C75.0522 3.60531 75.1858 3.55 75.325 3.55H82.675C82.8142 3.55 82.9478 3.60531 83.0462 3.70377C83.1447 3.80223 83.2 3.93576 83.2 4.075V4.6Z" fill="#24292E" fill-opacity="0.75"/>
<g clip-path="url(#clip0_1248_126159)">
<path d="M62 18.7908V30.75H76.9563V17.75H62.625C62.4592 17.75 62.3003 17.8597 62.1831 18.0549C62.0658 18.25 62 18.5148 62 18.7908Z" fill="url(#paint2_linear_1248_126159)"/>
<path d="M77 35.25H62V48.25H77V35.25Z" fill="#3865AB"/>
</g>
<g clip-path="url(#clip1_1248_126159)">
<path d="M81 30.75H96V18.7908C96 18.5148 95.934 18.25 95.8164 18.0549C95.6989 17.8597 95.5394 17.75 95.3732 17.75H81V30.75Z" fill="url(#paint3_linear_1248_126159)"/>
<path d="M96 35.25H81V48.25H96V35.25Z" fill="#3865AB"/>
</g>
<path d="M109.907 31C110.601 31 115.933 27 115.933 25C115.933 23 110.736 19 109.907 19C109.078 19 108.402 19.5 108.402 20.4756C108.402 21.4512 111.907 23.9206 111.907 23.9206C111.907 23.9206 104.254 23.25 104 23.9206C103.746 24.5911 103.746 25.4089 104 26.0794C104.254 26.75 111.907 26.0794 111.907 26.0794C111.907 26.0794 108.402 28.75 108.402 29.5301C108.402 30.3103 109.212 31 109.907 31Z" fill="#24292E"/>
<path d="M143 14H158V2.04083C158 1.76479 157.934 1.50005 157.816 1.30485C157.699 1.10966 157.539 1 157.373 1H143V14Z" fill="url(#paint4_linear_1248_126159)"/>
<path d="M158 18.5H143V31.5H158V18.5Z" fill="#84AFF1"/>
<path d="M158 36H143V49H158V36Z" fill="#84AFF1"/>
<path d="M124 2.03583V13.995H139V0.994995H124.627C124.461 0.994995 124.301 1.10465 124.184 1.29985C124.066 1.49504 124 1.75978 124 2.03583Z" fill="url(#paint5_linear_1248_126159)"/>
<path d="M139 18.495H124V31.495H139V18.495Z" fill="#84AFF1"/>
<path d="M139 35.995H124V48.995H139V35.995Z" fill="#84AFF1"/>
<defs>
<linearGradient id="paint0_linear_1248_126159" x1="19" y1="7.5052" x2="34" y2="7.5052" gradientUnits="userSpaceOnUse">
<stop stop-color="#F2CC0C"/>
<stop offset="1" stop-color="#FF9830"/>
</linearGradient>
<linearGradient id="paint1_linear_1248_126159" x1="0" y1="7.5002" x2="15" y2="7.5002" gradientUnits="userSpaceOnUse">
<stop stop-color="#F2CC0C"/>
<stop offset="1" stop-color="#FF9830"/>
</linearGradient>
<linearGradient id="paint2_linear_1248_126159" x1="62" y1="24.2552" x2="76.9563" y2="24.2552" gradientUnits="userSpaceOnUse">
<stop stop-color="#F2CC0C"/>
<stop offset="1" stop-color="#FF9830"/>
</linearGradient>
<linearGradient id="paint3_linear_1248_126159" x1="81" y1="24.2552" x2="96" y2="24.2552" gradientUnits="userSpaceOnUse">
<stop stop-color="#F2CC0C"/>
<stop offset="1" stop-color="#FF9830"/>
</linearGradient>
<linearGradient id="paint4_linear_1248_126159" x1="143" y1="7.5052" x2="158" y2="7.5052" gradientUnits="userSpaceOnUse">
<stop stop-color="#F2CC0C"/>
<stop offset="1" stop-color="#FF9830"/>
</linearGradient>
<linearGradient id="paint5_linear_1248_126159" x1="124" y1="7.5002" x2="139" y2="7.5002" gradientUnits="userSpaceOnUse">
<stop stop-color="#F2CC0C"/>
<stop offset="1" stop-color="#FF9830"/>
</linearGradient>
<clipPath id="clip0_1248_126159">
<rect width="15" height="30.5" fill="white" transform="translate(62 17.75)"/>
</clipPath>
<clipPath id="clip1_1248_126159">
<rect width="15" height="30.5" fill="white" transform="translate(81 17.75)"/>
</clipPath>
</defs>
</svg>
