<svg width="136" height="48" viewBox="0 0 136 48" fill="none" xmlns="http://www.w3.org/2000/svg">
<path d="M0 1.04083V13H15V0H0.626828C0.460583 0 0.301147 0.109659 0.183594 0.304853C0.0660407 0.500047 0 0.764787 0 1.04083Z" fill="url(#paint0_linear_1248_126213)"/>
<path d="M15 17.5H0V30.5H15V17.5Z" fill="#84AFF1"/>
<path d="M15 35H0V48H15V35Z" fill="#84AFF1"/>
<path d="M8.5 21H7.07158L5.5 21.9199V23.1738L6.92531 22.3535H6.96266V27H8.5V21Z" fill="#24292E"/>
<path d="M5.33733 44.5H9.75V43.3468H7.33409V43.3092L8.04722 42.6561C9.33959 41.5376 9.67723 40.9682 9.67723 40.289C9.67723 39.2225 8.8011 38.5 7.44761 38.5C6.12905 38.5 5.2471 39.2543 5.25001 40.4595H6.61514C6.61514 39.9249 6.94696 39.6156 7.44179 39.6156C7.92788 39.6156 8.28008 39.9133 8.28008 40.4017C8.28008 40.8439 8.00065 41.1445 7.51165 41.5809L5.33733 43.4711V44.5Z" fill="#24292E"/>
<path d="M6.77442 9.5C7.52635 9.5 8.04638 9.23767 8.34153 8.74147H8.3837V9.41783H10V6.1182C10 5.09102 8.98454 4.5 7.61068 4.5C6.15952 4.5 5.33732 5.1574 5.20028 6.04235L6.78496 6.09292C6.85875 5.78319 7.14336 5.59355 7.59663 5.59355C8.01827 5.59355 8.28531 5.77686 8.28531 6.1024V6.1182C8.28531 6.4153 7.92692 6.47851 7.00633 6.5512C5.91356 6.63338 5 6.99684 5 8.07143C5 9.03224 5.74139 9.5 6.77442 9.5ZM7.30499 8.48862C6.90794 8.48862 6.62684 8.31795 6.62684 7.99558C6.62684 7.68268 6.90091 7.49305 7.38932 7.42668C7.70907 7.38559 8.1026 7.32238 8.29585 7.23072V7.69216C8.29585 8.16625 7.85313 8.48862 7.30499 8.48862Z" fill="#24292E"/>
<g clip-path="url(#clip0_1248_126213)">
<path d="M19 13H34V1.04083C34 0.764787 33.934 0.500047 33.8164 0.304853C33.6989 0.109659 33.5394 0 33.3732 0L19 0V13Z" fill="url(#paint1_linear_1248_126213)"/>
<path d="M34 17.5H19V30.5H34V17.5Z" fill="#84AFF1"/>
<path d="M34 35H19V48H34V35Z" fill="#84AFF1"/>
<path d="M24 9.68623H25.5663V8.96449H25.6149C25.8155 9.37609 26.2621 9.75 27.0129 9.75C28.1133 9.75 29 8.97898 29 7.46304C29 5.89203 28.0615 5.17609 27.0227 5.17609C26.2362 5.17609 25.8058 5.58768 25.6149 5.99638H25.5825V3.75H24V9.68623ZM25.5502 7.46015C25.5502 6.73261 25.8867 6.28333 26.466 6.28333C27.0518 6.28333 27.3754 6.7442 27.3754 7.46015C27.3754 8.17899 27.0518 8.64565 26.466 8.64565C25.8867 8.64565 25.5502 8.18188 25.5502 7.46015Z" fill="#24292E"/>
<path d="M26.4792 27C27.8085 27 28.7528 26.2757 28.75 25.2605C28.7528 24.5418 28.2958 24.0285 27.4208 23.923V23.8774C28.0771 23.7804 28.5423 23.327 28.5395 22.6711C28.5423 21.7186 27.706 21 26.4903 21C25.2663 21 24.3746 21.73 24.3635 22.7681H25.6734C25.6845 22.3688 26.0334 22.1008 26.4903 22.1008C26.9251 22.1008 27.2214 22.3717 27.2186 22.7624C27.2214 23.1673 26.8725 23.4468 26.3685 23.4468H25.8174V24.4506H26.3685C26.9417 24.4506 27.3155 24.7414 27.31 25.1521C27.3155 25.5656 26.9721 25.8536 26.4848 25.8536C26.0001 25.8536 25.6429 25.5884 25.6291 25.2034H24.25C24.2611 26.2586 25.1832 27 26.4792 27Z" fill="#24292E"/>
<path d="M24 43.4453V42.4463L26.5893 38.5H28.2308V42.4287H29V43.4453H28.2308V44.5H26.977V43.4453H24ZM27.0012 42.4287V39.8828H26.9528L25.3204 42.3818V42.4287H27.0012Z" fill="#24292E"/>
</g>
<g clip-path="url(#clip1_1248_126213)">
<path d="M47.675 18.75H40.325C39.9073 18.75 39.5067 18.9159 39.2113 19.2113C38.9159 19.5067 38.75 19.9073 38.75 20.325V20.9392C38.7499 21.156 38.7946 21.3705 38.8813 21.5692V21.6007C38.9554 21.7693 39.0605 21.9224 39.191 22.0522L42.425 25.2652V28.725C42.4248 28.8142 42.4474 28.902 42.4906 28.9801C42.5337 29.0582 42.5961 29.124 42.6717 29.1712C42.7553 29.223 42.8517 29.2503 42.95 29.25C43.0322 29.2495 43.1131 29.2297 43.1862 29.1922L45.2862 28.1422C45.3728 28.0986 45.4456 28.0319 45.4966 27.9494C45.5476 27.8669 45.5747 27.7719 45.575 27.675V25.2652L48.788 22.0522C48.9185 21.9224 49.0236 21.7693 49.0977 21.6007V21.5692C49.1916 21.3721 49.2435 21.1575 49.25 20.9392V20.325C49.25 19.9073 49.0841 19.5067 48.7887 19.2113C48.4933 18.9159 48.0927 18.75 47.675 18.75ZM44.6772 24.6772C44.6286 24.7263 44.5901 24.7845 44.564 24.8484C44.5378 24.9124 44.5246 24.9809 44.525 25.05V27.3495L43.475 27.8745V25.05C43.4754 24.9809 43.4622 24.9124 43.436 24.8484C43.4099 24.7845 43.3714 24.7263 43.3227 24.6772L40.5402 21.9H47.4597L44.6772 24.6772ZM48.2 20.85H39.8V20.325C39.8 20.1858 39.8553 20.0522 39.9538 19.9538C40.0522 19.8553 40.1858 19.8 40.325 19.8H47.675C47.8142 19.8 47.9478 19.8553 48.0462 19.9538C48.1447 20.0522 48.2 20.1858 48.2 20.325V20.85Z" fill="#24292E" fill-opacity="0.75"/>
</g>
<path d="M52.8087 27C51.7696 27 51 26.4879 51 25.477C51 24.3364 51.9682 23.9972 53.0463 23.9041C53.9932 23.8176 54.3656 23.7744 54.3656 23.4452V23.4252C54.3656 23.0062 54.0712 22.7635 53.557 22.7635C53.0144 22.7635 52.6917 23.0129 52.5888 23.3521L51.1915 23.2456C51.4007 22.3145 52.259 21.7292 53.5641 21.7292C54.777 21.7292 55.8764 22.2414 55.8764 23.4585V26.9036H54.4436V26.1953H54.401C54.1351 26.6708 53.6137 27 52.8087 27ZM53.2414 26.0224C53.9045 26.0224 54.3762 25.6133 54.3762 25.0779V24.5359C54.1954 24.649 53.6563 24.7221 53.3265 24.7654C52.7945 24.8352 52.4434 25.0314 52.4434 25.4304C52.4434 25.8195 52.7768 26.0224 53.2414 26.0224Z" fill="#24292E" fill-opacity="0.75"/>
<path d="M57.3889 26.3727V25.1922H62.2866V26.3727H57.3889ZM57.3889 24.1646V22.9841H62.2866V24.1646H57.3889Z" fill="#24292E" fill-opacity="0.75"/>
<path d="M63.0676 27V26.0983L65.5304 24.1474C66.1588 23.6301 66.4966 23.3064 66.4966 22.8353C66.4966 22.315 66.0439 21.9913 65.4358 21.9913C64.8041 21.9913 64.3851 22.3381 64.3885 22.9046H63C62.9966 21.7428 63.9933 21 65.446 21C66.9291 21 67.9088 21.7254 67.9088 22.7514C67.9088 23.4249 67.527 23.9798 66.1047 25.0896L65.0946 25.9364V25.9769H68V27H63.0676Z" fill="#24292E" fill-opacity="0.75"/>
<path d="M83.9067 30C84.6011 30 89.9327 26 89.9327 24C89.9327 22 84.7357 18 83.9067 18C83.0778 18 82.4023 18.5 82.4023 19.4756C82.4023 20.4512 85.9067 22.9206 85.9067 22.9206C85.9067 22.9206 78.2539 22.25 78 22.9206C77.7461 23.5911 77.7461 24.4089 78 25.0794C78.2539 25.75 85.9067 25.0794 85.9067 25.0794C85.9067 25.0794 82.4023 27.75 82.4023 28.5301C82.4023 29.3103 83.2124 30 83.9067 30Z" fill="#24292E"/>
<path d="M98 9.79083V21.75H113V8.75H98.6268C98.4606 8.75 98.3011 8.85966 98.1836 9.05485C98.066 9.25005 98 9.51479 98 9.79083Z" fill="url(#paint2_linear_1248_126213)"/>
<path d="M113 26.25H98V39.25H113V26.25Z" fill="#84AFF1"/>
<path d="M106.5 29.75H105.072L103.5 30.6699V31.9238L104.925 31.1035H104.963V35.75H106.5V29.75Z" fill="#24292E"/>
<path d="M104.774 18.25C105.526 18.25 106.046 17.9877 106.342 17.4915H106.384V18.1678H108V14.8682C108 13.841 106.985 13.25 105.611 13.25C104.16 13.25 103.337 13.9074 103.2 14.7924L104.785 14.8429C104.859 14.5332 105.143 14.3436 105.597 14.3436C106.018 14.3436 106.285 14.5269 106.285 14.8524V14.8682C106.285 15.1653 105.927 15.2285 105.006 15.3012C103.914 15.3834 103 15.7468 103 16.8214C103 17.7822 103.741 18.25 104.774 18.25ZM105.305 17.2386C104.908 17.2386 104.627 17.068 104.627 16.7456C104.627 16.4327 104.901 16.243 105.389 16.1767C105.709 16.1356 106.103 16.0724 106.296 15.9807V16.4422C106.296 16.9162 105.853 17.2386 105.305 17.2386Z" fill="#24292E"/>
<g clip-path="url(#clip2_1248_126213)">
<path d="M117 21.75H132V9.79083C132 9.51479 131.934 9.25005 131.816 9.05485C131.699 8.85966 131.539 8.75 131.373 8.75H117V21.75Z" fill="url(#paint3_linear_1248_126213)"/>
<path d="M132 26.25H117V39.25H132V26.25Z" fill="#84AFF1"/>
<path d="M122 18.4362H123.566V17.7145H123.615C123.816 18.1261 124.262 18.5 125.013 18.5C126.113 18.5 127 17.729 127 16.213C127 14.642 126.061 13.9261 125.023 13.9261C124.236 13.9261 123.806 14.3377 123.615 14.7464H123.583V12.5H122V18.4362ZM123.55 16.2101C123.55 15.4826 123.887 15.0333 124.466 15.0333C125.052 15.0333 125.375 15.4942 125.375 16.2101C125.375 16.929 125.052 17.3957 124.466 17.3957C123.887 17.3957 123.55 16.9319 123.55 16.2101Z" fill="#24292E"/>
<path d="M124.479 35.75C125.808 35.75 126.753 35.0257 126.75 34.0105C126.753 33.2918 126.296 32.7785 125.421 32.673V32.6274C126.077 32.5304 126.542 32.077 126.54 31.4211C126.542 30.4686 125.706 29.75 124.49 29.75C123.266 29.75 122.375 30.48 122.364 31.5181H123.673C123.684 31.1188 124.033 30.8508 124.49 30.8508C124.925 30.8508 125.221 31.1217 125.219 31.5124C125.221 31.9173 124.872 32.1968 124.368 32.1968H123.817V33.2006H124.368C124.942 33.2006 125.316 33.4914 125.31 33.9021C125.316 34.3156 124.972 34.6036 124.485 34.6036C124 34.6036 123.643 34.3384 123.629 33.9534H122.25C122.261 35.0086 123.183 35.75 124.479 35.75Z" fill="#24292E"/>
</g>
<defs>
<linearGradient id="paint0_linear_1248_126213" x1="0" y1="6.5052" x2="15" y2="6.5052" gradientUnits="userSpaceOnUse">
<stop stop-color="#F2CC0C"/>
<stop offset="1" stop-color="#FF9830"/>
</linearGradient>
<linearGradient id="paint1_linear_1248_126213" x1="19" y1="6.5052" x2="34" y2="6.5052" gradientUnits="userSpaceOnUse">
<stop stop-color="#F2CC0C"/>
<stop offset="1" stop-color="#FF9830"/>
</linearGradient>
<linearGradient id="paint2_linear_1248_126213" x1="98" y1="15.2552" x2="113" y2="15.2552" gradientUnits="userSpaceOnUse">
<stop stop-color="#F2CC0C"/>
<stop offset="1" stop-color="#FF9830"/>
</linearGradient>
<linearGradient id="paint3_linear_1248_126213" x1="117" y1="15.2552" x2="132" y2="15.2552" gradientUnits="userSpaceOnUse">
<stop stop-color="#F2CC0C"/>
<stop offset="1" stop-color="#FF9830"/>
</linearGradient>
<clipPath id="clip0_1248_126213">
<rect width="15" height="48" fill="white" transform="translate(19)"/>
</clipPath>
<clipPath id="clip1_1248_126213">
<rect width="12" height="12" fill="white" transform="translate(38 18)"/>
</clipPath>
<clipPath id="clip2_1248_126213">
<rect width="15" height="30.5" fill="white" transform="translate(117 8.75)"/>
</clipPath>
</defs>
</svg>
