<svg width="122" height="48" viewBox="0 0 122 48" fill="none" xmlns="http://www.w3.org/2000/svg">
<g clip-path="url(#clip0_1706_105947)">
<path d="M0 1.04083V13H54V0H2.25658C1.6581 0 0 0 0 0C0 0 0 0.764787 0 1.04083Z" fill="url(#paint0_linear_1706_105947)"/>
<path d="M54 18H0V31H54V18Z" fill="#84AFF1"/>
<path d="M4.28977 28.6364C3.95739 28.6364 3.64773 28.5824 3.4375 28.4972L3.74432 27.4886C4.15341 27.6222 4.45455 27.6165 4.58807 27.2898L4.64205 27.1591L3.09091 22.6364H4.54545L5.34943 25.75H5.39489L6.21023 22.6364H7.6733L6.02841 27.4176C5.78693 28.1307 5.28977 28.6364 4.28977 28.6364ZM9.0554 28.6364C8.72301 28.6364 8.41335 28.5824 8.20312 28.4972L8.50994 27.4886C8.91903 27.6222 9.22017 27.6165 9.35369 27.2898L9.40767 27.1591L7.85653 22.6364H9.31108L10.1151 25.75H10.1605L10.9759 22.6364H12.4389L10.794 27.4176C10.5526 28.1307 10.0554 28.6364 9.0554 28.6364ZM13.821 28.6364C13.4886 28.6364 13.179 28.5824 12.9688 28.4972L13.2756 27.4886C13.6847 27.6222 13.9858 27.6165 14.1193 27.2898L14.1733 27.1591L12.6222 22.6364H14.0767L14.8807 25.75H14.9261L15.7415 22.6364H17.2045L15.5597 27.4176C15.3182 28.1307 14.821 28.6364 13.821 28.6364ZM18.5866 28.6364C18.2543 28.6364 17.9446 28.5824 17.7344 28.4972L18.0412 27.4886C18.4503 27.6222 18.7514 27.6165 18.8849 27.2898L18.9389 27.1591L17.3878 22.6364H18.8423L19.6463 25.75H19.6918L20.5071 22.6364H21.9702L20.3253 27.4176C20.0838 28.1307 19.5866 28.6364 18.5866 28.6364ZM25.2955 24.1108V25.1818H22.6023V24.1108H25.2955ZM26.2763 27V22.6364H27.5973V23.4375H27.6456C27.8274 22.9062 28.282 22.5795 28.8786 22.5795C29.4837 22.5795 29.9524 22.9148 30.0689 23.4375H30.1143C30.2763 22.9176 30.7848 22.5795 31.4297 22.5795C32.2536 22.5795 32.8217 23.1392 32.8217 24.0625V27H31.4325V24.3807C31.4325 23.946 31.1825 23.7102 30.8303 23.7102C30.4467 23.7102 30.2166 23.9773 30.2166 24.3949V27H28.8814V24.3665C28.8814 23.9631 28.6428 23.7102 28.282 23.7102C27.9183 23.7102 27.6655 23.9858 27.6655 24.4176V27H26.2763ZM33.6825 27V22.6364H35.0036V23.4375H35.0518C35.2337 22.9062 35.6882 22.5795 36.2848 22.5795C36.8899 22.5795 37.3587 22.9148 37.4751 23.4375H37.5206C37.6825 22.9176 38.1911 22.5795 38.8359 22.5795C39.6598 22.5795 40.228 23.1392 40.228 24.0625V27H38.8388V24.3807C38.8388 23.946 38.5888 23.7102 38.2365 23.7102C37.853 23.7102 37.6229 23.9773 37.6229 24.3949V27H36.2876V24.3665C36.2876 23.9631 36.049 23.7102 35.6882 23.7102C35.3246 23.7102 35.0717 23.9858 35.0717 24.4176V27H33.6825ZM43.8814 24.1108V25.1818H41.1882V24.1108H43.8814ZM46.456 27.0625C45.4929 27.0625 44.7116 26.3068 44.7116 24.821C44.7116 23.2812 45.5384 22.5795 46.4503 22.5795C47.1378 22.5795 47.5185 22.983 47.6832 23.3835H47.7116V21.1818H49.1009V27H47.7259V26.2926H47.6832C47.5071 26.696 47.1151 27.0625 46.456 27.0625ZM46.9389 25.9801C47.4446 25.9801 47.7429 25.5256 47.7429 24.8182C47.7429 24.1051 47.4474 23.6648 46.9389 23.6648C46.4219 23.6648 46.1378 24.1165 46.1378 24.8182C46.1378 25.5227 46.4247 25.9801 46.9389 25.9801Z" fill="#24292E"/>
<path d="M54 35H0V48H54V35Z" fill="#84AFF1"/>
<path d="M5.28977 45.6364C4.95739 45.6364 4.64773 45.5824 4.4375 45.4972L4.74432 44.4886C5.15341 44.6222 5.45455 44.6165 5.58807 44.2898L5.64205 44.1591L4.09091 39.6364H5.54545L6.34943 42.75H6.39489L7.21023 39.6364H8.6733L7.02841 44.4176C6.78693 45.1307 6.28977 45.6364 5.28977 45.6364ZM10.0554 45.6364C9.72301 45.6364 9.41335 45.5824 9.20312 45.4972L9.50994 44.4886C9.91903 44.6222 10.2202 44.6165 10.3537 44.2898L10.4077 44.1591L8.85653 39.6364H10.3111L11.1151 42.75H11.1605L11.9759 39.6364H13.4389L11.794 44.4176C11.5526 45.1307 11.0554 45.6364 10.0554 45.6364ZM14.821 45.6364C14.4886 45.6364 14.179 45.5824 13.9688 45.4972L14.2756 44.4886C14.6847 44.6222 14.9858 44.6165 15.1193 44.2898L15.1733 44.1591L13.6222 39.6364H15.0767L15.8807 42.75H15.9261L16.7415 39.6364H18.2045L16.5597 44.4176C16.3182 45.1307 15.821 45.6364 14.821 45.6364ZM19.5866 45.6364C19.2543 45.6364 18.9446 45.5824 18.7344 45.4972L19.0412 44.4886C19.4503 44.6222 19.7514 44.6165 19.8849 44.2898L19.9389 44.1591L18.3878 39.6364H19.8423L20.6463 42.75H20.6918L21.5071 39.6364H22.9702L21.3253 44.4176C21.0838 45.1307 20.5866 45.6364 19.5866 45.6364ZM26.2955 41.1108V42.1818H23.6023V41.1108H26.2955ZM27.2763 44V39.6364H28.5973V40.4375H28.6456C28.8274 39.9062 29.282 39.5795 29.8786 39.5795C30.4837 39.5795 30.9524 39.9148 31.0689 40.4375H31.1143C31.2763 39.9176 31.7848 39.5795 32.4297 39.5795C33.2536 39.5795 33.8217 40.1392 33.8217 41.0625V44H32.4325V41.3807C32.4325 40.946 32.1825 40.7102 31.8303 40.7102C31.4467 40.7102 31.2166 40.9773 31.2166 41.3949V44H29.8814V41.3665C29.8814 40.9631 29.6428 40.7102 29.282 40.7102C28.9183 40.7102 28.6655 40.9858 28.6655 41.4176V44H27.2763ZM34.6825 44V39.6364H36.0036V40.4375H36.0518C36.2337 39.9062 36.6882 39.5795 37.2848 39.5795C37.8899 39.5795 38.3587 39.9148 38.4751 40.4375H38.5206C38.6825 39.9176 39.1911 39.5795 39.8359 39.5795C40.6598 39.5795 41.228 40.1392 41.228 41.0625V44H39.8388V41.3807C39.8388 40.946 39.5888 40.7102 39.2365 40.7102C38.853 40.7102 38.6229 40.9773 38.6229 41.3949V44H37.2876V41.3665C37.2876 40.9631 37.049 40.7102 36.6882 40.7102C36.3246 40.7102 36.0717 40.9858 36.0717 41.4176V44H34.6825ZM44.8814 41.1108V42.1818H42.1882V41.1108H44.8814ZM47.456 44.0625C46.4929 44.0625 45.7116 43.3068 45.7116 41.821C45.7116 40.2812 46.5384 39.5795 47.4503 39.5795C48.1378 39.5795 48.5185 39.983 48.6832 40.3835H48.7116V38.1818H50.1009V44H48.7259V43.2926H48.6832C48.5071 43.696 48.1151 44.0625 47.456 44.0625ZM47.9389 42.9801C48.4446 42.9801 48.7429 42.5256 48.7429 41.8182C48.7429 41.1051 48.4474 40.6648 47.9389 40.6648C47.4219 40.6648 47.1378 41.1165 47.1378 41.8182C47.1378 42.5227 47.4247 42.9801 47.9389 42.9801Z" fill="#24292E"/>
<path d="M27 3C26.3078 3 25.6311 3.20527 25.0555 3.58986C24.4799 3.97444 24.0313 4.52107 23.7664 5.16061C23.5015 5.80015 23.4322 6.50388 23.5673 7.18282C23.7023 7.86175 24.0356 8.48539 24.5251 8.97487C25.0146 9.46436 25.6383 9.7977 26.3172 9.93275C26.9961 10.0678 27.6999 9.99848 28.3394 9.73358C28.9789 9.46867 29.5256 9.02007 29.9101 8.44449C30.2947 7.86892 30.5 7.19223 30.5 6.5C30.5 6.04037 30.4095 5.58525 30.2336 5.16061C30.0577 4.73597 29.7999 4.35013 29.4749 4.02513C29.1499 3.70012 28.764 3.44231 28.3394 3.26642C27.9148 3.09053 27.4596 3 27 3V3ZM27 9.3C26.4462 9.3 25.9049 9.13578 25.4444 8.82811C24.9839 8.52045 24.6251 8.08315 24.4131 7.57151C24.2012 7.05988 24.1458 6.49689 24.2538 5.95375C24.3618 5.4106 24.6285 4.91169 25.0201 4.5201C25.4117 4.12851 25.9106 3.86184 26.4537 3.7538C26.9969 3.64576 27.5599 3.70121 28.0715 3.91314C28.5831 4.12506 29.0204 4.48395 29.3281 4.9444C29.6358 5.40486 29.8 5.94621 29.8 6.5C29.8 7.24261 29.505 7.9548 28.9799 8.4799C28.4548 9.005 27.7426 9.3 27 9.3V9.3ZM27 4.4C26.9072 4.4 26.8182 4.43687 26.7525 4.50251C26.6869 4.56815 26.65 4.65717 26.65 4.75V6.15H25.95C25.8572 6.15 25.7682 6.18687 25.7025 6.25251C25.6369 6.31815 25.6 6.40717 25.6 6.5C25.6 6.59283 25.6369 6.68185 25.7025 6.74749C25.7682 6.81312 25.8572 6.85 25.95 6.85H27C27.0928 6.85 27.1819 6.81312 27.2475 6.74749C27.3131 6.68185 27.35 6.59283 27.35 6.5V4.75C27.35 4.65717 27.3131 4.56815 27.2475 4.50251C27.1819 4.43687 27.0928 4.4 27 4.4Z" fill="white"/>
</g>
<path d="M67.9067 30C68.6011 30 73.9327 26 73.9327 24C73.9327 22 68.7357 18 67.9067 18C67.0778 18 66.4023 18.5 66.4023 19.4756C66.4023 20.4512 69.9067 22.9206 69.9067 22.9206C69.9067 22.9206 62.2539 22.25 62 22.9206C61.7461 23.5911 61.7461 24.4089 62 25.0794C62.2539 25.75 69.9067 25.0794 69.9067 25.0794C69.9067 25.0794 66.4023 27.75 66.4023 28.5301C66.4023 29.3103 67.2124 30 67.9067 30Z" fill="#24292E"/>
<path d="M82 1.04083V13H122V0H83.6715H82V1.04083Z" fill="url(#paint1_linear_1706_105947)"/>
<path d="M122 18H82V31H122V18Z" fill="#84AFF1"/>
<path d="M88.4403 27.5V23.1364H89.7614V23.9375H89.8097C89.9915 23.4062 90.446 23.0795 91.0426 23.0795C91.6477 23.0795 92.1165 23.4148 92.233 23.9375H92.2784C92.4403 23.4176 92.9489 23.0795 93.5938 23.0795C94.4176 23.0795 94.9858 23.6392 94.9858 24.5625V27.5H93.5966V24.8807C93.5966 24.446 93.3466 24.2102 92.9943 24.2102C92.6108 24.2102 92.3807 24.4773 92.3807 24.8949V27.5H91.0455V24.8665C91.0455 24.4631 90.8068 24.2102 90.446 24.2102C90.0824 24.2102 89.8295 24.4858 89.8295 24.9176V27.5H88.4403ZM95.8466 27.5V23.1364H97.1676V23.9375H97.2159C97.3977 23.4062 97.8523 23.0795 98.4489 23.0795C99.054 23.0795 99.5227 23.4148 99.6392 23.9375H99.6847C99.8466 23.4176 100.355 23.0795 101 23.0795C101.824 23.0795 102.392 23.6392 102.392 24.5625V27.5H101.003V24.8807C101.003 24.446 100.753 24.2102 100.401 24.2102C100.017 24.2102 99.7869 24.4773 99.7869 24.8949V27.5H98.4517V24.8665C98.4517 24.4631 98.2131 24.2102 97.8523 24.2102C97.4886 24.2102 97.2358 24.4858 97.2358 24.9176V27.5H95.8466ZM106.045 24.6108V25.6818H103.352V24.6108H106.045ZM108.62 27.5625C107.657 27.5625 106.876 26.8068 106.876 25.321C106.876 23.7812 107.702 23.0795 108.614 23.0795C109.302 23.0795 109.683 23.483 109.847 23.8835H109.876V21.6818H111.265V27.5H109.89V26.7926H109.847C109.671 27.196 109.279 27.5625 108.62 27.5625ZM109.103 26.4801C109.609 26.4801 109.907 26.0256 109.907 25.3182C109.907 24.6051 109.612 24.1648 109.103 24.1648C108.586 24.1648 108.302 24.6165 108.302 25.3182C108.302 26.0227 108.589 26.4801 109.103 26.4801ZM113.737 27.5625C112.774 27.5625 111.993 26.8068 111.993 25.321C111.993 23.7812 112.82 23.0795 113.732 23.0795C114.419 23.0795 114.8 23.483 114.964 23.8835H114.993V21.6818H116.382V27.5H115.007V26.7926H114.964C114.788 27.196 114.396 27.5625 113.737 27.5625ZM114.22 26.4801C114.726 26.4801 115.024 26.0256 115.024 25.3182C115.024 24.6051 114.729 24.1648 114.22 24.1648C113.703 24.1648 113.419 24.6165 113.419 25.3182C113.419 26.0227 113.706 26.4801 114.22 26.4801Z" fill="#24292E"/>
<path d="M122 35H82V48H122V35Z" fill="#84AFF1"/>
<path d="M102 3C101.308 3 100.631 3.20527 100.056 3.58986C99.4799 3.97444 99.0313 4.52107 98.7664 5.16061C98.5015 5.80015 98.4322 6.50388 98.5673 7.18282C98.7023 7.86175 99.0356 8.48539 99.5251 8.97487C100.015 9.46436 100.638 9.7977 101.317 9.93275C101.996 10.0678 102.7 9.99848 103.339 9.73358C103.979 9.46867 104.526 9.02007 104.91 8.44449C105.295 7.86892 105.5 7.19223 105.5 6.5C105.5 6.04037 105.409 5.58525 105.234 5.16061C105.058 4.73597 104.8 4.35013 104.475 4.02513C104.15 3.70012 103.764 3.44231 103.339 3.26642C102.915 3.09053 102.46 3 102 3V3ZM102 9.3C101.446 9.3 100.905 9.13578 100.444 8.82811C99.9839 8.52045 99.6251 8.08315 99.4131 7.57151C99.2012 7.05988 99.1458 6.49689 99.2538 5.95375C99.3618 5.4106 99.6285 4.91169 100.02 4.5201C100.412 4.12851 100.911 3.86184 101.454 3.7538C101.997 3.64576 102.56 3.70121 103.072 3.91314C103.583 4.12506 104.02 4.48395 104.328 4.9444C104.636 5.40486 104.8 5.94621 104.8 6.5C104.8 7.24261 104.505 7.9548 103.98 8.4799C103.455 9.005 102.743 9.3 102 9.3V9.3ZM102 4.4C101.907 4.4 101.818 4.43687 101.753 4.50251C101.687 4.56815 101.65 4.65717 101.65 4.75V6.15H100.95C100.857 6.15 100.768 6.18687 100.703 6.25251C100.637 6.31815 100.6 6.40717 100.6 6.5C100.6 6.59283 100.637 6.68185 100.703 6.74749C100.768 6.81312 100.857 6.85 100.95 6.85H102C102.093 6.85 102.182 6.81312 102.247 6.74749C102.313 6.68185 102.35 6.59283 102.35 6.5V4.75C102.35 4.65717 102.313 4.56815 102.247 4.50251C102.182 4.43687 102.093 4.4 102 4.4Z" fill="white"/>
<path d="M93.2898 45.6364C92.9574 45.6364 92.6477 45.5824 92.4375 45.4972L92.7443 44.4886C93.1534 44.6222 93.4545 44.6165 93.5881 44.2898L93.642 44.1591L92.0909 39.6364H93.5455L94.3494 42.75H94.3949L95.2102 39.6364H96.6733L95.0284 44.4176C94.7869 45.1307 94.2898 45.6364 93.2898 45.6364ZM98.0554 45.6364C97.723 45.6364 97.4134 45.5824 97.2031 45.4972L97.5099 44.4886C97.919 44.6222 98.2202 44.6165 98.3537 44.2898L98.4077 44.1591L96.8565 39.6364H98.3111L99.1151 42.75H99.1605L99.9759 39.6364H101.439L99.794 44.4176C99.5526 45.1307 99.0554 45.6364 98.0554 45.6364ZM102.821 45.6364C102.489 45.6364 102.179 45.5824 101.969 45.4972L102.276 44.4886C102.685 44.6222 102.986 44.6165 103.119 44.2898L103.173 44.1591L101.622 39.6364H103.077L103.881 42.75H103.926L104.741 39.6364H106.205L104.56 44.4176C104.318 45.1307 103.821 45.6364 102.821 45.6364ZM107.587 45.6364C107.254 45.6364 106.945 45.5824 106.734 45.4972L107.041 44.4886C107.45 44.6222 107.751 44.6165 107.885 44.2898L107.939 44.1591L106.388 39.6364H107.842L108.646 42.75H108.692L109.507 39.6364H110.97L109.325 44.4176C109.084 45.1307 108.587 45.6364 107.587 45.6364Z" fill="#24292E"/>
<defs>
<linearGradient id="paint0_linear_1706_105947" x1="0" y1="6.5052" x2="54" y2="6.5052" gradientUnits="userSpaceOnUse">
<stop stop-color="#F2CC0C"/>
<stop offset="1" stop-color="#FF9830"/>
</linearGradient>
<linearGradient id="paint1_linear_1706_105947" x1="82" y1="6.5052" x2="122" y2="6.5052" gradientUnits="userSpaceOnUse">
<stop stop-color="#F2CC0C"/>
<stop offset="1" stop-color="#FF9830"/>
</linearGradient>
<clipPath id="clip0_1706_105947">
<rect width="54" height="48" fill="white"/>
</clipPath>
</defs>
</svg>
