<svg width="78" height="51" viewBox="0 0 78 51" fill="none" xmlns="http://www.w3.org/2000/svg">
<g clip-path="url(#clip0_1248_126371)">
<path d="M2 0.800642V10H26V1.05456e-06H3.00292L2.0002 0L2 0.800642Z" fill="url(#paint0_linear_1248_126371)"/>
<path d="M26 13H2V22.5H26V13Z" fill="#84AFF1"/>
<path d="M26 25.75H2V35.25H26V25.75Z" fill="#84AFF1"/>
<path d="M26 38.5H2V48H26V38.5Z" fill="#84AFF1"/>
<path d="M15.5 14.75H14.0716L12.5 15.6699V16.9238L13.9253 16.1035H13.9627V20.75H15.5V14.75Z" fill="#24292E"/>
<path d="M12.0873 33.5H16.5V32.3468H14.0841V32.3092L14.7972 31.6561C16.0896 30.5376 16.4272 29.9682 16.4272 29.289C16.4272 28.2225 15.5511 27.5 14.1976 27.5C12.879 27.5 11.9971 28.2543 12 29.4595H13.3651C13.3651 28.9249 13.697 28.6156 14.1918 28.6156C14.6779 28.6156 15.0301 28.9133 15.0301 29.4017C15.0301 29.8439 14.7506 30.1445 14.2616 30.5809L12.0873 32.4711V33.5Z" fill="#24292E"/>
<path d="M12.0873 46.5H16.5V45.3468H14.0841V45.3092L14.7972 44.6561C16.0896 43.5376 16.4272 42.9682 16.4272 42.289C16.4272 41.2225 15.5511 40.5 14.1976 40.5C12.879 40.5 11.9971 41.2543 12 42.4595H13.3651C13.3651 41.9249 13.697 41.6156 14.1918 41.6156C14.6779 41.6156 15.0301 41.9133 15.0301 42.4017C15.0301 42.8439 14.7506 43.1445 14.2616 43.5809L12.0873 45.4711V46.5Z" fill="#24292E"/>
</g>
<path d="M39.9067 30C40.6011 30 45.9327 26 45.9327 24C45.9327 22 40.7357 18 39.9067 18C39.0778 18 38.4023 18.5 38.4023 19.4756C38.4023 20.4512 41.9067 22.9206 41.9067 22.9206C41.9067 22.9206 34.2539 22.25 34 22.9206C33.7461 23.5911 33.7461 24.4089 34 25.0794C34.2539 25.75 41.9067 25.0794 41.9067 25.0794C41.9067 25.0794 38.4023 27.75 38.4023 28.5301C38.4023 29.3103 39.2124 30 39.9067 30Z" fill="#24292E"/>
<g clip-path="url(#clip1_1248_126371)">
<path d="M54 0.800642V10H78V1.13097e-06H55.0029C54.7369 1.13097e-06 54.0001 0 54.0001 0C54.0001 0 54 0.588299 54 0.800642Z" fill="url(#paint1_linear_1248_126371)"/>
<path d="M78 13H54V29H78V13Z" fill="#84AFF1"/>
<path d="M78 32H54V48H78V32Z" fill="#84AFF1"/>
<path d="M67.5 18H66.0716L64.5 18.9199V20.1738L65.9253 19.3535H65.9627V24H67.5V18Z" fill="#24292E"/>
<path d="M64.0873 43H68.5V41.8468H66.0841V41.8092L66.7972 41.1561C68.0896 40.0376 68.4272 39.4682 68.4272 38.789C68.4272 37.7225 67.5511 37 66.1976 37C64.879 37 63.9971 37.7543 64 38.9595H65.3651C65.3651 38.4249 65.697 38.1156 66.1918 38.1156C66.6779 38.1156 67.0301 38.4133 67.0301 38.9017C67.0301 39.3439 66.7506 39.6445 66.2616 40.0809L64.0873 41.9711V43Z" fill="#24292E"/>
</g>
<path fill-rule="evenodd" clip-rule="evenodd" d="M26 25.7421H2V48H26V25.7421ZM0 23.6179V50H28V23.6179L0 23.6179Z" fill="white"/>
<defs>
<linearGradient id="paint0_linear_1248_126371" x1="2.00781" y1="5.004" x2="26.0078" y2="5.004" gradientUnits="userSpaceOnUse">
<stop stop-color="#F2CC0C"/>
<stop offset="1" stop-color="#FF9830"/>
</linearGradient>
<linearGradient id="paint1_linear_1248_126371" x1="54.001" y1="5.004" x2="78.001" y2="5.004" gradientUnits="userSpaceOnUse">
<stop stop-color="#F2CC0C"/>
<stop offset="1" stop-color="#FF9830"/>
</linearGradient>
<clipPath id="clip0_1248_126371">
<rect width="24" height="48" fill="white" transform="translate(2)"/>
</clipPath>
<clipPath id="clip1_1248_126371">
<rect width="24" height="48" fill="white" transform="translate(54)"/>
</clipPath>
</defs>
</svg>
