<svg width="124" height="48" viewBox="0 0 124 48" fill="none" xmlns="http://www.w3.org/2000/svg">
<g clip-path="url(#clip0_1248_125902)">
<path d="M0 0.611699V7.64012H14.394V0H0.601504C0.441975 0 0.28898 0.0644467 0.176176 0.179162C0.0633725 0.293878 0 0.449466 0 0.611699Z" fill="url(#paint0_linear_1248_125902)"/>
<path d="M33.606 7.64012H48V0.611699C48 0.449466 47.9366 0.293878 47.8238 0.179162C47.711 0.0644467 47.558 0 47.3985 0L33.606 0V7.64012Z" fill="url(#paint1_linear_1248_125902)"/>
<path d="M31.194 0H16.8V7.64012H31.194V0Z" fill="url(#paint2_linear_1248_125902)"/>
<path d="M31.194 10.0869H16.8V17.727H31.194V10.0869Z" fill="#84AFF1"/>
<path d="M14.394 10.0869H0V17.727H14.394V10.0869Z" fill="#84AFF1"/>
<path d="M48 10.0869H33.606V17.727H48V10.0869Z" fill="#84AFF1"/>
<path d="M48 20.1799H33.606V27.8262H48V20.1799Z" fill="#3865AB"/>
<path d="M31.194 20.1799H16.8V27.8262H31.194V20.1799Z" fill="#3865AB"/>
<path d="M14.394 20.1799H0V27.8262H14.394V20.1799Z" fill="#3865AB"/>
<path d="M31.194 30.2668H16.8V37.907H31.194V30.2668Z" fill="#84AFF1"/>
<path d="M48 30.2668H33.606V37.907H48V30.2668Z" fill="#84AFF1"/>
<path d="M14.394 30.2668H0V37.907H14.394V30.2668Z" fill="#84AFF1"/>
<path d="M31.194 40.3599H16.8V48H31.194V40.3599Z" fill="#3865AB"/>
<path d="M48 47.3883V40.3721H33.606V48H47.3985C47.558 48 47.711 47.9356 47.8238 47.8209C47.9366 47.7061 48 47.5505 48 47.3883Z" fill="#3865AB"/>
<path d="M14.394 48V40.3721H0V47.3883C0 47.5505 0.0633725 47.7061 0.176176 47.8209C0.28898 47.9356 0.441975 48 0.601504 48H14.394Z" fill="#3865AB"/>
</g>
<path d="M61.9067 30.4C62.6011 30.4 67.9327 26.1333 67.9327 24C67.9327 21.8666 62.7357 17.6 61.9067 17.6C61.0778 17.6 60.4023 18.1333 60.4023 19.1739C60.4023 20.2146 63.9067 22.8486 63.9067 22.8486C63.9067 22.8486 56.2539 22.1333 56 22.8486C55.7461 23.5639 55.7461 24.4361 56 25.1514C56.2539 25.8666 63.9067 25.1514 63.9067 25.1514C63.9067 25.1514 60.4023 28 60.4023 28.8321C60.4023 29.6643 61.2124 30.4 61.9067 30.4Z" fill="#24292E"/>
<g clip-path="url(#clip1_1248_125902)">
<path d="M81.4059 0H76.5993C76.2683 0 76 0.268327 76 0.599326V5.40592C76 5.73692 76.2683 6.00524 76.5993 6.00524H81.4059C81.7369 6.00524 82.0052 5.73692 82.0052 5.40592V0.599326C82.0052 0.268327 81.7369 0 81.4059 0Z" fill="#3865AB"/>
<path d="M98.205 0H93.3984C93.0674 0 92.7991 0.268327 92.7991 0.599326V5.40592C92.7991 5.73692 93.0674 6.00524 93.3984 6.00524H98.205C98.536 6.00524 98.8043 5.73692 98.8043 5.40592V0.599326C98.8043 0.268327 98.536 0 98.205 0Z" fill="#84AFF1"/>
<path d="M106.608 0H101.801C101.47 0 101.202 0.268327 101.202 0.599326V5.40592C101.202 5.73692 101.47 6.00524 101.801 6.00524H106.608C106.939 6.00524 107.207 5.73692 107.207 5.40592V0.599326C107.207 0.268327 106.939 0 106.608 0Z" fill="#3865AB"/>
<path d="M115.004 0H110.198C109.867 0 109.598 0.268327 109.598 0.599326V5.40592C109.598 5.73692 109.867 6.00524 110.198 6.00524H115.004C115.335 6.00524 115.603 5.73692 115.603 5.40592V0.599326C115.603 0.268327 115.335 0 115.004 0Z" fill="#3865AB"/>
<path d="M123.407 8.40253H118.6C118.269 8.40253 118.001 8.67085 118.001 9.00185V13.8084C118.001 14.1394 118.269 14.4078 118.6 14.4078H123.407C123.738 14.4078 124.006 14.1394 124.006 13.8084V9.00185C124.006 8.67085 123.738 8.40253 123.407 8.40253Z" fill="#3865AB"/>
<path d="M98.205 16.7991H93.3984C93.0674 16.7991 92.7991 17.0674 92.7991 17.3984V22.205C92.7991 22.536 93.0674 22.8043 93.3984 22.8043H98.205C98.536 22.8043 98.8043 22.536 98.8043 22.205V17.3984C98.8043 17.0674 98.536 16.7991 98.205 16.7991Z" fill="#84AFF1"/>
<path d="M106.608 16.7991H101.801C101.47 16.7991 101.202 17.0674 101.202 17.3984V22.205C101.202 22.536 101.47 22.8043 101.801 22.8043H106.608C106.939 22.8043 107.207 22.536 107.207 22.205V17.3984C107.207 17.0674 106.939 16.7991 106.608 16.7991Z" fill="#3865AB"/>
<path d="M115.004 16.7991H110.198C109.867 16.7991 109.598 17.0674 109.598 17.3984V22.205C109.598 22.536 109.867 22.8043 110.198 22.8043H115.004C115.335 22.8043 115.603 22.536 115.603 22.205V17.3984C115.603 17.0674 115.335 16.7991 115.004 16.7991Z" fill="#84AFF1"/>
<path d="M123.407 16.7991H118.6C118.269 16.7991 118.001 17.0674 118.001 17.3984V22.205C118.001 22.536 118.269 22.8043 118.6 22.8043H123.407C123.738 22.8043 124.006 22.536 124.006 22.205V17.3984C124.006 17.0674 123.738 16.7991 123.407 16.7991Z" fill="#3865AB"/>
<path d="M81.4059 25.2017H76.5993C76.2683 25.2017 76 25.47 76 25.801V30.6076C76 30.9386 76.2683 31.2069 76.5993 31.2069H81.4059C81.7369 31.2069 82.0052 30.9386 82.0052 30.6076V25.801C82.0052 25.47 81.7369 25.2017 81.4059 25.2017Z" fill="#3865AB"/>
<path d="M106.608 25.2017H101.801C101.47 25.2017 101.202 25.47 101.202 25.801V30.6076C101.202 30.9386 101.47 31.2069 101.801 31.2069H106.608C106.939 31.2069 107.207 30.9386 107.207 30.6076V25.801C107.207 25.47 106.939 25.2017 106.608 25.2017Z" fill="#84AFF1"/>
<path d="M115.004 25.2017H110.198C109.867 25.2017 109.598 25.47 109.598 25.801V30.6076C109.598 30.9386 109.867 31.2069 110.198 31.2069H115.004C115.335 31.2069 115.603 30.9386 115.603 30.6076V25.801C115.603 25.47 115.335 25.2017 115.004 25.2017Z" fill="#3865AB"/>
<path d="M123.407 25.2017H118.6C118.269 25.2017 118.001 25.47 118.001 25.801V30.6076C118.001 30.9386 118.269 31.2069 118.6 31.2069H123.407C123.738 31.2069 124.006 30.9386 124.006 30.6076V25.801C124.006 25.47 123.738 25.2017 123.407 25.2017Z" fill="#84AFF1"/>
<path d="M89.8085 33.5982H85.0019C84.6709 33.5982 84.4026 33.8665 84.4026 34.1975V39.0041C84.4026 39.3351 84.6709 39.6035 85.0019 39.6035H89.8085C90.1395 39.6035 90.4078 39.3351 90.4078 39.0041V34.1975C90.4078 33.8665 90.1395 33.5982 89.8085 33.5982Z" fill="#3865AB"/>
<path d="M89.8085 42.0007H85.0019C84.6709 42.0007 84.4026 42.2691 84.4026 42.6001V47.4066C84.4026 47.7376 84.6709 48.006 85.0019 48.006H89.8085C90.1395 48.006 90.4078 47.7376 90.4078 47.4066V42.6001C90.4078 42.2691 90.1395 42.0007 89.8085 42.0007Z" fill="#3865AB"/>
<path d="M98.205 42.0007H93.3984C93.0674 42.0007 92.7991 42.2691 92.7991 42.6001V47.4066C92.7991 47.7376 93.0674 48.006 93.3984 48.006H98.205C98.536 48.006 98.8043 47.7376 98.8043 47.4066V42.6001C98.8043 42.2691 98.536 42.0007 98.205 42.0007Z" fill="#84AFF1"/>
<path d="M106.608 42.0007H101.801C101.47 42.0007 101.202 42.2691 101.202 42.6001V47.4066C101.202 47.7376 101.47 48.006 101.801 48.006H106.608C106.939 48.006 107.207 47.7376 107.207 47.4066V42.6001C107.207 42.2691 106.939 42.0007 106.608 42.0007Z" fill="#84AFF1"/>
<path d="M89.8085 0H85.0019C84.6709 0 84.4026 0.268327 84.4026 0.599326V5.40592C84.4026 5.73692 84.6709 6.00524 85.0019 6.00524H89.8085C90.1395 6.00524 90.4078 5.73692 90.4078 5.40592V0.599326C90.4078 0.268327 90.1395 0 89.8085 0Z" fill="#3865AB"/>
<path d="M82.0052 22.205V17.3984C82.0052 17.0674 81.7369 16.7991 81.4059 16.7991H76.5993C76.2683 16.7991 76 17.0674 76 17.3984V22.205C76 22.536 76.2683 22.8043 76.5993 22.8043H81.4059C81.7369 22.8043 82.0052 22.536 82.0052 22.205Z" fill="#84AFF1"/>
<path d="M124.006 39.0041V34.1975C124.006 33.8665 123.738 33.5982 123.407 33.5982H118.6C118.269 33.5982 118.001 33.8665 118.001 34.1975V39.0041C118.001 39.3351 118.269 39.6034 118.6 39.6034H123.407C123.738 39.6034 124.006 39.3351 124.006 39.0041Z" fill="#3865AB"/>
<path d="M124 5.40592V0.599326C124 0.268327 123.732 0 123.401 0L118.594 0C118.263 0 117.995 0.268327 117.995 0.599326V5.40592C117.995 5.73692 118.263 6.00524 118.594 6.00524H123.401C123.732 6.00524 124 5.73692 124 5.40592Z" fill="#3865AB"/>
<path d="M81.3939 14.3838H76.5993C76.4404 14.3838 76.2879 14.3207 76.1755 14.2083C76.0631 14.0959 76 13.9434 76 13.7845V8.98989C76 8.83094 76.0631 8.6785 76.1755 8.5661C76.2879 8.45371 76.4404 8.39056 76.5993 8.39056H81.3939C81.5529 8.39056 81.7053 8.45371 81.8177 8.5661C81.9301 8.6785 81.9933 8.83094 81.9933 8.98989V13.7845C81.9933 13.9434 81.9301 14.0959 81.8177 14.2083C81.7053 14.3207 81.5529 14.3838 81.3939 14.3838ZM90.3838 13.7845V8.98989C90.3838 8.83094 90.3207 8.6785 90.2083 8.5661C90.0959 8.45371 89.9434 8.39056 89.7845 8.39056H84.9899C84.8309 8.39056 84.6785 8.45371 84.5661 8.5661C84.4537 8.6785 84.3906 8.83094 84.3906 8.98989V13.7845C84.3906 13.9434 84.4537 14.0959 84.5661 14.2083C84.6785 14.3207 84.8309 14.3838 84.9899 14.3838H89.7845C89.9434 14.3838 90.0959 14.3207 90.2083 14.2083C90.3207 14.0959 90.3838 13.9434 90.3838 13.7845ZM98.7744 13.7845V8.98989C98.7744 8.83094 98.7112 8.6785 98.5988 8.5661C98.4864 8.45371 98.334 8.39056 98.1751 8.39056H93.3804C93.2215 8.39056 93.0691 8.45371 92.9567 8.5661C92.8443 8.6785 92.7811 8.83094 92.7811 8.98989V13.7845C92.7811 13.9434 92.8443 14.0959 92.9567 14.2083C93.0691 14.3207 93.2215 14.3838 93.3804 14.3838H98.1751C98.2562 14.3879 98.3374 14.3754 98.4136 14.3471C98.4898 14.3188 98.5595 14.2753 98.6183 14.2192C98.6772 14.1632 98.7241 14.0957 98.756 14.021C98.788 13.9462 98.8044 13.8658 98.8043 13.7845H98.7744ZM115.556 13.7845V8.98989C115.556 8.83094 115.492 8.6785 115.38 8.5661C115.268 8.45371 115.115 8.39056 114.956 8.39056H110.162C110.003 8.39056 109.85 8.45371 109.738 8.5661C109.625 8.6785 109.562 8.83094 109.562 8.98989V13.7845C109.562 13.9434 109.625 14.0959 109.738 14.2083C109.85 14.3207 110.003 14.3838 110.162 14.3838H114.956C115.039 14.3905 115.122 14.3799 115.2 14.3527C115.279 14.3256 115.35 14.2825 115.411 14.2262C115.472 14.1699 115.521 14.1015 115.554 14.0255C115.587 13.9495 115.604 13.8674 115.603 13.7845H115.556ZM106.566 14.3838H101.771C101.612 14.3838 101.46 14.3207 101.347 14.2083C101.235 14.0959 101.172 13.9434 101.172 13.7845V8.98989C101.172 8.83094 101.235 8.6785 101.347 8.5661C101.46 8.45371 101.612 8.39056 101.771 8.39056H106.566C106.725 8.39056 106.877 8.45371 106.989 8.5661C107.102 8.6785 107.165 8.83094 107.165 8.98989V13.7845C107.165 13.9374 107.107 14.0846 107.002 14.1961C106.898 14.3075 106.754 14.3746 106.602 14.3838H106.566Z" fill="url(#paint3_linear_1248_125902)"/>
<path d="M89.8085 16.7991H85.0019C84.6709 16.7991 84.4026 17.0674 84.4026 17.3984V22.205C84.4026 22.536 84.6709 22.8043 85.0019 22.8043H89.8085C90.1395 22.8043 90.4078 22.536 90.4078 22.205V17.3984C90.4078 17.0674 90.1395 16.7991 89.8085 16.7991Z" fill="#3865AB"/>
<path d="M98.205 33.5982H93.3984C93.0674 33.5982 92.7991 33.8665 92.7991 34.1975V39.0041C92.7991 39.3351 93.0674 39.6035 93.3984 39.6035H98.205C98.536 39.6035 98.8043 39.3351 98.8043 39.0041V34.1975C98.8043 33.8665 98.536 33.5982 98.205 33.5982Z" fill="#84AFF1"/>
<path d="M98.205 31.2009H93.3804C93.2215 31.2009 93.0691 31.1378 92.9567 31.0254C92.8443 30.913 92.7811 30.7605 92.7811 30.6016V25.807C92.7811 25.648 92.8443 25.4956 92.9567 25.3832C93.0691 25.2708 93.2215 25.2076 93.3804 25.2076H98.1751C98.334 25.2076 98.4864 25.2708 98.5988 25.3832C98.7112 25.4956 98.7744 25.648 98.7744 25.807V30.6016C98.7746 30.7555 98.7156 30.9035 98.6096 31.0151C98.5036 31.1267 98.3587 31.1932 98.205 31.2009ZM89.8145 31.2009H84.9899C84.8309 31.2009 84.6785 31.1378 84.5661 31.0254C84.4537 30.913 84.3906 30.7605 84.3906 30.6016V25.807C84.3906 25.648 84.4537 25.4956 84.5661 25.3832C84.6785 25.2708 84.8309 25.2076 84.9899 25.2076H89.7845C89.9434 25.2076 90.0959 25.2708 90.2083 25.3832C90.3207 25.4956 90.3838 25.648 90.3838 25.807V30.6016C90.3838 30.7605 90.3207 30.913 90.2083 31.0254C90.0959 31.1378 89.9434 31.2009 89.7845 31.2009H89.8145ZM82.0232 38.9921V34.1975C82.0232 34.0386 81.9601 33.8861 81.8477 33.7737C81.7353 33.6613 81.5829 33.5982 81.4239 33.5982H76.5993C76.4404 33.5982 76.2879 33.6613 76.1755 33.7737C76.0631 33.8861 76 34.0386 76 34.1975V38.9921C76 39.1511 76.0631 39.3035 76.1755 39.4159C76.2879 39.5283 76.4404 39.5915 76.5993 39.5915H81.3939C81.5508 39.5915 81.7015 39.53 81.8135 39.4202C81.9256 39.3104 81.9901 39.161 81.9933 39.0041L82.0232 38.9921ZM107.195 38.9921V34.1975C107.195 34.0386 107.132 33.8861 107.019 33.7737C106.907 33.6613 106.755 33.5982 106.596 33.5982H101.801C101.642 33.5982 101.49 33.6613 101.377 33.7737C101.265 33.8861 101.202 34.0386 101.202 34.1975V38.9921C101.202 39.1511 101.265 39.3035 101.377 39.4159C101.49 39.5283 101.642 39.5915 101.801 39.5915H106.596C106.754 39.5931 106.906 39.5323 107.019 39.4223C107.132 39.3123 107.198 39.162 107.201 39.0041L107.195 38.9921ZM115.585 38.9921V34.1975C115.585 34.0386 115.522 33.8861 115.41 33.7737C115.298 33.6613 115.145 33.5982 114.986 33.5982H110.192C110.033 33.5982 109.88 33.6613 109.768 33.7737C109.655 33.8861 109.592 34.0386 109.592 34.1975V38.9921C109.592 39.1511 109.655 39.3035 109.768 39.4159C109.88 39.5283 110.033 39.5915 110.192 39.5915H114.986C115.065 39.5939 115.144 39.5805 115.218 39.5522C115.292 39.5239 115.36 39.4812 115.417 39.4266C115.475 39.372 115.521 39.3065 115.553 39.234C115.585 39.1615 115.602 39.0833 115.603 39.0041L115.585 38.9921Z" fill="url(#paint4_linear_1248_125902)"/>
<path d="M81.4059 42.0007H76.5993C76.2683 42.0007 76 42.2691 76 42.6001V47.4066C76 47.7376 76.2683 48.006 76.5993 48.006H81.4059C81.7369 48.006 82.0052 47.7376 82.0052 47.4066V42.6001C82.0052 42.2691 81.7369 42.0007 81.4059 42.0007Z" fill="#3865AB"/>
<path d="M115.004 42.0007H110.198C109.867 42.0007 109.598 42.2691 109.598 42.6001V47.4066C109.598 47.7376 109.867 48.006 110.198 48.006H115.004C115.335 48.006 115.603 47.7376 115.603 47.4066V42.6001C115.603 42.2691 115.335 42.0007 115.004 42.0007Z" fill="#3865AB"/>
<path d="M123.407 42.0007H118.6C118.269 42.0007 118.001 42.2691 118.001 42.6001V47.4066C118.001 47.7376 118.269 48.006 118.6 48.006H123.407C123.738 48.006 124.006 47.7376 124.006 47.4066V42.6001C124.006 42.2691 123.738 42.0007 123.407 42.0007Z" fill="#84AFF1"/>
</g>
<defs>
<linearGradient id="paint0_linear_1248_125902" x1="0" y1="3.82312" x2="14.394" y2="3.82312" gradientUnits="userSpaceOnUse">
<stop stop-color="#F2CC0C"/>
<stop offset="1" stop-color="#FF9830"/>
</linearGradient>
<linearGradient id="paint1_linear_1248_125902" x1="33.606" y1="3.82312" x2="48" y2="3.82312" gradientUnits="userSpaceOnUse">
<stop stop-color="#F2CC0C"/>
<stop offset="1" stop-color="#FF9830"/>
</linearGradient>
<linearGradient id="paint2_linear_1248_125902" x1="16.8" y1="3.82312" x2="31.2" y2="3.82312" gradientUnits="userSpaceOnUse">
<stop stop-color="#F2CC0C"/>
<stop offset="1" stop-color="#FF9830"/>
</linearGradient>
<linearGradient id="paint3_linear_1248_125902" x1="76" y1="11.3992" x2="115.603" y2="11.3992" gradientUnits="userSpaceOnUse">
<stop stop-color="#F2CC0C"/>
<stop offset="1" stop-color="#FF9830"/>
</linearGradient>
<linearGradient id="paint4_linear_1248_125902" x1="76" y1="32.3996" x2="115.603" y2="32.3996" gradientUnits="userSpaceOnUse">
<stop stop-color="#F2CC0C"/>
<stop offset="1" stop-color="#FF9830"/>
</linearGradient>
<clipPath id="clip0_1248_125902">
<rect width="48" height="48" fill="white"/>
</clipPath>
<clipPath id="clip1_1248_125902">
<rect width="48" height="48" fill="white" transform="translate(76)"/>
</clipPath>
</defs>
</svg>
