<svg width="148" height="58" viewBox="0 0 148 58" fill="none" xmlns="http://www.w3.org/2000/svg">
<g clip-path="url(#clip0_1248_126408)">
<path d="M0 1.04083V13H15V0H0.626828C0.460583 0 0.301147 0.109659 0.183594 0.304853C0.0660407 0.500047 0 0.764787 0 1.04083Z" fill="url(#paint0_linear_1248_126408)"/>
<path d="M15 17.5H0V30.5H15V17.5Z" fill="#84AFF1"/>
<path d="M15 35H0V48H15V35Z" fill="#84AFF1"/>
<path d="M8.5 21H7.07158L5.5 21.9199V23.1738L6.92531 22.3535H6.96266V27H8.5V21Z" fill="#24292E"/>
<path d="M5.33733 44.5H9.75V43.3468H7.33409V43.3092L8.04722 42.6561C9.33959 41.5376 9.67723 40.9682 9.67723 40.289C9.67723 39.2225 8.8011 38.5 7.44761 38.5C6.12905 38.5 5.2471 39.2543 5.25001 40.4595H6.61514C6.61514 39.9249 6.94696 39.6156 7.44179 39.6156C7.92788 39.6156 8.28008 39.9133 8.28008 40.4017C8.28008 40.8439 8.00065 41.1445 7.51165 41.5809L5.33733 43.4711V44.5Z" fill="#24292E"/>
<path d="M6.77442 9.5C7.52635 9.5 8.04638 9.23767 8.34153 8.74147H8.3837V9.41783H10V6.1182C10 5.09102 8.98454 4.5 7.61068 4.5C6.15952 4.5 5.33732 5.1574 5.20028 6.04235L6.78496 6.09292C6.85875 5.78319 7.14336 5.59355 7.59663 5.59355C8.01827 5.59355 8.28531 5.77686 8.28531 6.1024V6.1182C8.28531 6.4153 7.92692 6.47851 7.00633 6.5512C5.91356 6.63338 5 6.99684 5 8.07143C5 9.03224 5.74139 9.5 6.77442 9.5ZM7.30499 8.48862C6.90794 8.48862 6.62684 8.31795 6.62684 7.99558C6.62684 7.68268 6.90091 7.49305 7.38932 7.42668C7.70907 7.38559 8.1026 7.32238 8.29585 7.23072V7.69216C8.29585 8.16625 7.85313 8.48862 7.30499 8.48862Z" fill="#24292E"/>
</g>
<g clip-path="url(#clip1_1248_126408)">
<path d="M19 13H34V1.04083C34 0.764787 33.934 0.500047 33.8164 0.304853C33.6989 0.109659 33.5394 0 33.3732 0L19 0V13Z" fill="url(#paint1_linear_1248_126408)"/>
<path d="M34 17.5H19V30.5H34V17.5Z" fill="#84AFF1"/>
<path d="M34 35H19V48H34V35Z" fill="#84AFF1"/>
<path d="M24 9.68623H25.5663V8.96449H25.6149C25.8155 9.37609 26.2621 9.75 27.0129 9.75C28.1133 9.75 29 8.97898 29 7.46304C29 5.89203 28.0615 5.17609 27.0227 5.17609C26.2362 5.17609 25.8058 5.58768 25.6149 5.99638H25.5825V3.75H24V9.68623ZM25.5502 7.46015C25.5502 6.73261 25.8867 6.28333 26.466 6.28333C27.0518 6.28333 27.3754 6.7442 27.3754 7.46015C27.3754 8.17899 27.0518 8.64565 26.466 8.64565C25.8867 8.64565 25.5502 8.18188 25.5502 7.46015Z" fill="#24292E"/>
</g>
<path d="M6.18549 52H5V56.9302H6.18549V52Z" fill="#24292E"/>
<path d="M7.98978 56.9928C8.50858 56.9928 8.86737 56.793 9.07102 56.415H9.10011V56.9302H10.2153V54.4169C10.2153 53.6346 9.51466 53.1844 8.56676 53.1844C7.56552 53.1844 6.99823 53.6851 6.90369 54.3592L7.99705 54.3977C8.04796 54.1618 8.24433 54.0173 8.55706 54.0173C8.84798 54.0173 9.03223 54.157 9.03223 54.4049V54.4169C9.03223 54.6432 8.78495 54.6914 8.14978 54.7468C7.39582 54.8093 6.7655 55.0862 6.7655 55.9047C6.7655 56.6365 7.27703 56.9928 7.98978 56.9928ZM8.35585 56.2224C8.0819 56.2224 7.88795 56.0924 7.88795 55.8469C7.88795 55.6086 8.07705 55.4641 8.41403 55.4136C8.63464 55.3823 8.90616 55.3341 9.0395 55.2643V55.6158C9.0395 55.9769 8.73404 56.2224 8.35585 56.2224Z" fill="#24292E"/>
<path d="M10.9402 56.9302H12.1135V56.3308H12.1499C12.3002 56.6726 12.6347 56.9831 13.1972 56.9831C14.0214 56.9831 14.6857 56.3428 14.6857 55.0838C14.6857 53.779 13.9827 53.1844 13.2045 53.1844C12.6153 53.1844 12.2929 53.5262 12.1499 53.8657H12.1256V52H10.9402V56.9302ZM12.1014 55.0814C12.1014 54.4771 12.3535 54.104 12.7875 54.104C13.2263 54.104 13.4687 54.4868 13.4687 55.0814C13.4687 55.6784 13.2263 56.066 12.7875 56.066C12.3535 56.066 12.1014 55.6808 12.1014 55.0814Z" fill="#24292E"/>
<path d="M17.0476 57C18.0246 57 18.667 56.5306 18.8028 55.8036L17.7143 55.7723C17.6221 56.0178 17.3797 56.1502 17.0694 56.1502C16.6136 56.1502 16.3324 55.8493 16.3324 55.3967V55.3654H18.8149V55.0717C18.8149 53.8536 18.0682 53.1844 17.0112 53.1844C15.8863 53.1844 15.1639 53.9499 15.1639 55.0958C15.1639 56.2802 15.8766 57 17.0476 57ZM16.3324 54.6818C16.3494 54.3134 16.6427 54.0342 17.0355 54.0342C17.4258 54.0342 17.707 54.3038 17.7118 54.6818H16.3324Z" fill="#24292E"/>
<path d="M20.6059 52H19.4204V56.9302H20.6059V52Z" fill="#24292E"/>
<path d="M21.5932 56.2537H25.0623V55.2884H21.5932V56.2537ZM21.5932 54.5975H25.0623V53.6322H21.5932V54.5975Z" fill="#24292E"/>
<path d="M28.3333 52H27.2206L25.9963 52.7559V53.7862L27.1066 53.1122H27.1357V56.9302H28.3333V52Z" fill="#24292E"/>
<path d="M46.3343 35H49.674V30.674H54V27.3343H49.674V23H46.3343V27.3343H42V30.674H46.3343V35Z" fill="#24292E"/>
<g clip-path="url(#clip2_1248_126408)">
<path d="M77 27H62V40H77V27Z" fill="#3865AB"/>
<path d="M62 10.5408V22.5H77V9.5H62.6268C62.4606 9.5 62.3011 9.60966 62.1836 9.80485C62.066 10 62 10.2648 62 10.5408Z" fill="url(#paint2_linear_1248_126408)"/>
<path d="M69.4792 36.5C70.8085 36.5 71.7528 35.7757 71.75 34.7605C71.7528 34.0418 71.2958 33.5285 70.4208 33.423V33.3774C71.0771 33.2804 71.5423 32.827 71.5395 32.1711C71.5423 31.2186 70.706 30.5 69.4903 30.5C68.2663 30.5 67.3746 31.23 67.3635 32.2681H68.6734C68.6845 31.8688 69.0334 31.6008 69.4903 31.6008C69.9251 31.6008 70.2214 31.8717 70.2186 32.2624C70.2214 32.6673 69.8725 32.9468 69.3685 32.9468H68.8174V33.9506H69.3685C69.9417 33.9506 70.3155 34.2414 70.31 34.6521C70.3155 35.0656 69.9721 35.3536 69.4848 35.3536C69.0001 35.3536 68.6429 35.0884 68.6291 34.7034H67.25C67.2611 35.7586 68.1832 36.5 69.4792 36.5Z" fill="white"/>
<path d="M67 19.4362H68.5663V18.7145H68.6149C68.8155 19.1261 69.2621 19.5 70.0129 19.5C71.1133 19.5 72 18.729 72 17.213C72 15.642 71.0615 14.9261 70.0227 14.9261C69.2362 14.9261 68.8058 15.3377 68.6149 15.7464H68.5825V13.5H67V19.4362ZM68.5502 17.2101C68.5502 16.4826 68.8867 16.0333 69.466 16.0333C70.0518 16.0333 70.3754 16.4942 70.3754 17.2101C70.3754 17.929 70.0518 18.3957 69.466 18.3957C68.8867 18.3957 68.5502 17.9319 68.5502 17.2101Z" fill="#24292E"/>
</g>
<g clip-path="url(#clip3_1248_126408)">
<path d="M96 27H81V40H96V27Z" fill="#3865AB"/>
<path d="M81 22.5H96V10.5408C96 10.2648 95.934 10 95.8164 9.80485C95.6989 9.60966 95.5394 9.5 95.3732 9.5H81V22.5Z" fill="url(#paint3_linear_1248_126408)"/>
<path d="M88.6058 19.5C90.0564 19.5 90.9563 18.7082 91 17.5095H89.4654C89.405 18.0237 89.0759 18.3044 88.6259 18.3044C88.0484 18.3044 87.6723 17.847 87.6723 16.9858C87.6723 16.1309 88.0517 15.6735 88.6259 15.6735C89.096 15.6735 89.4016 15.9732 89.4654 16.4685H91C90.9631 15.276 90.0363 14.5 88.6024 14.5C86.9805 14.5 86 15.5158 86 17.0016C86 18.4811 86.9738 19.5 88.6058 19.5Z" fill="#24292E"/>
</g>
<path d="M68.1855 43.75H67V48.6802H68.1855V43.75Z" fill="#24292E"/>
<path d="M69.9898 48.7428C70.5086 48.7428 70.8674 48.543 71.071 48.165H71.1001V48.6802H72.2153V46.1669C72.2153 45.3846 71.5147 44.9344 70.5668 44.9344C69.5655 44.9344 68.9982 45.4351 68.9037 46.1092L69.997 46.1477C70.048 45.9118 70.2443 45.7673 70.5571 45.7673C70.848 45.7673 71.0322 45.907 71.0322 46.1549V46.1669C71.0322 46.3932 70.7849 46.4414 70.1498 46.4968C69.3958 46.5593 68.7655 46.8362 68.7655 47.6547C68.7655 48.3865 69.277 48.7428 69.9898 48.7428ZM70.3558 47.9724C70.0819 47.9724 69.888 47.8424 69.888 47.5969C69.888 47.3586 70.077 47.2141 70.414 47.1636C70.6346 47.1323 70.9062 47.0841 71.0395 47.0143V47.3658C71.0395 47.7269 70.734 47.9724 70.3558 47.9724Z" fill="#24292E"/>
<path d="M72.9402 48.6802H74.1135V48.0808H74.1499C74.3002 48.4226 74.6347 48.7331 75.1972 48.7331C76.0214 48.7331 76.6857 48.0928 76.6857 46.8338C76.6857 45.529 75.9827 44.9344 75.2045 44.9344C74.6153 44.9344 74.2929 45.2762 74.1499 45.6157H74.1256V43.75H72.9402V48.6802ZM74.1014 46.8314C74.1014 46.2271 74.3535 45.854 74.7875 45.854C75.2263 45.854 75.4687 46.2368 75.4687 46.8314C75.4687 47.4284 75.2263 47.816 74.7875 47.816C74.3535 47.816 74.1014 47.4308 74.1014 46.8314Z" fill="#24292E"/>
<path d="M79.0476 48.75C80.0246 48.75 80.667 48.2806 80.8028 47.5536L79.7143 47.5223C79.6221 47.7678 79.3797 47.9002 79.0694 47.9002C78.6136 47.9002 78.3324 47.5993 78.3324 47.1467V47.1154H80.8149V46.8217C80.8149 45.6036 80.0682 44.9344 79.0112 44.9344C77.8863 44.9344 77.1639 45.6999 77.1639 46.8458C77.1639 48.0302 77.8766 48.75 79.0476 48.75ZM78.3324 46.4318C78.3494 46.0634 78.6427 45.7842 79.0355 45.7842C79.4258 45.7842 79.707 46.0538 79.7118 46.4318H78.3324Z" fill="#24292E"/>
<path d="M82.6059 43.75H81.4204V48.6802H82.6059V43.75Z" fill="#24292E"/>
<path d="M83.5932 48.0037H87.0623V47.0384H83.5932V48.0037ZM83.5932 46.3475H87.0623V45.3822H83.5932V46.3475Z" fill="#24292E"/>
<path d="M90.3333 43.75H89.2206L87.9963 44.5059V45.5362L89.1066 44.8622H89.1357V48.6802H90.3333V43.75Z" fill="#24292E"/>
<path d="M109.907 35C110.601 35 115.933 31 115.933 29C115.933 27 110.736 23 109.907 23C109.078 23 108.402 23.5 108.402 24.4756C108.402 25.4512 111.907 27.9206 111.907 27.9206C111.907 27.9206 104.254 27.25 104 27.9206C103.746 28.5911 103.746 29.4089 104 30.0794C104.254 30.75 111.907 30.0794 111.907 30.0794C111.907 30.0794 108.402 32.75 108.402 33.5301C108.402 34.3103 109.212 35 109.907 35Z" fill="#24292E"/>
<g clip-path="url(#clip4_1248_126408)">
<path d="M124 5.80064V15H148V5H125.003L124 5L124 5.80064Z" fill="url(#paint4_linear_1248_126408)"/>
<path d="M134.774 12.5C135.526 12.5 136.046 12.2377 136.342 11.7415H136.384V12.4178H138V9.1182C138 8.09102 136.985 7.5 135.611 7.5C134.16 7.5 133.337 8.1574 133.2 9.04235L134.785 9.09292C134.859 8.78319 135.143 8.59355 135.597 8.59355C136.018 8.59355 136.285 8.77686 136.285 9.1024V9.1182C136.285 9.4153 135.927 9.47851 135.006 9.5512C133.914 9.63338 133 9.99684 133 11.0714C133 12.0322 133.741 12.5 134.774 12.5ZM135.305 11.4886C134.908 11.4886 134.627 11.318 134.627 10.9956C134.627 10.6827 134.901 10.493 135.389 10.4267C135.709 10.3856 136.103 10.3224 136.296 10.2307V10.6922C136.296 11.1662 135.853 11.4886 135.305 11.4886Z" fill="#24292E"/>
<path d="M148 18H124V27.5H148V18Z" fill="#84AFF1"/>
<path d="M148 30.75H124V40.25H148V30.75Z" fill="#84AFF1"/>
<path d="M148 43.5H124V53H148V43.5Z" fill="#3865AB"/>
<path d="M137 19.75H135.572L134 20.6699V21.9238L135.425 21.1035H135.463V25.75H137V19.75Z" fill="#24292E"/>
<path d="M134.087 38.5H138.5V37.3468H136.084V37.3092L136.797 36.6561C138.09 35.5376 138.427 34.9682 138.427 34.289C138.427 33.2225 137.551 32.5 136.198 32.5C134.879 32.5 133.997 33.2543 134 34.4595H135.365C135.365 33.9249 135.697 33.6156 136.192 33.6156C136.678 33.6156 137.03 33.9133 137.03 34.4017C137.03 34.8439 136.751 35.1445 136.262 35.5809L134.087 37.4711V38.5Z" fill="#24292E"/>
<path d="M135.979 51.25C137.308 51.25 138.253 50.5257 138.25 49.5105C138.253 48.7918 137.796 48.2785 136.921 48.173V48.1274C137.577 48.0304 138.042 47.577 138.04 46.9211C138.042 45.9686 137.206 45.25 135.99 45.25C134.766 45.25 133.875 45.98 133.864 47.0181H135.173C135.184 46.6188 135.533 46.3508 135.99 46.3508C136.425 46.3508 136.721 46.6217 136.719 47.0124C136.721 47.4173 136.372 47.6968 135.868 47.6968H135.317V48.7006H135.868C136.442 48.7006 136.816 48.9914 136.81 49.4021C136.816 49.8156 136.472 50.1036 135.985 50.1036C135.5 50.1036 135.143 49.8384 135.129 49.4534H133.75C133.761 50.5086 134.683 51.25 135.979 51.25Z" fill="white"/>
</g>
<defs>
<linearGradient id="paint0_linear_1248_126408" x1="0" y1="6.5052" x2="15" y2="6.5052" gradientUnits="userSpaceOnUse">
<stop stop-color="#F2CC0C"/>
<stop offset="1" stop-color="#FF9830"/>
</linearGradient>
<linearGradient id="paint1_linear_1248_126408" x1="19" y1="6.5052" x2="34" y2="6.5052" gradientUnits="userSpaceOnUse">
<stop stop-color="#F2CC0C"/>
<stop offset="1" stop-color="#FF9830"/>
</linearGradient>
<linearGradient id="paint2_linear_1248_126408" x1="62" y1="16.0052" x2="77" y2="16.0052" gradientUnits="userSpaceOnUse">
<stop stop-color="#F2CC0C"/>
<stop offset="1" stop-color="#FF9830"/>
</linearGradient>
<linearGradient id="paint3_linear_1248_126408" x1="81" y1="16.0052" x2="96" y2="16.0052" gradientUnits="userSpaceOnUse">
<stop stop-color="#F2CC0C"/>
<stop offset="1" stop-color="#FF9830"/>
</linearGradient>
<linearGradient id="paint4_linear_1248_126408" x1="124.008" y1="10.004" x2="148.008" y2="10.004" gradientUnits="userSpaceOnUse">
<stop stop-color="#F2CC0C"/>
<stop offset="1" stop-color="#FF9830"/>
</linearGradient>
<clipPath id="clip0_1248_126408">
<rect width="15" height="48" fill="white"/>
</clipPath>
<clipPath id="clip1_1248_126408">
<rect width="15" height="48" fill="white" transform="translate(19)"/>
</clipPath>
<clipPath id="clip2_1248_126408">
<rect width="15" height="30.5" fill="white" transform="translate(62 9.5)"/>
</clipPath>
<clipPath id="clip3_1248_126408">
<rect width="15" height="30.5" fill="white" transform="translate(81 9.5)"/>
</clipPath>
<clipPath id="clip4_1248_126408">
<rect width="24" height="48" fill="white" transform="translate(124 5)"/>
</clipPath>
</defs>
</svg>
