<svg width="125" height="58" viewBox="0 0 125 58" fill="none" xmlns="http://www.w3.org/2000/svg">
<g clip-path="url(#clip0_1248_126711)">
<path d="M0 1.04083V13H15V0H0.626828C0.460583 0 0.301147 0.109659 0.183594 0.304853C0.0660407 0.500047 0 0.764787 0 1.04083Z" fill="url(#paint0_linear_1248_126711)"/>
<path d="M15 17.5H0V30.5H15V17.5Z" fill="#84AFF1"/>
<path d="M15 35H0V48H15V35Z" fill="#84AFF1"/>
<path d="M8.5 21H7.07158L5.5 21.9199V23.1738L6.92531 22.3535H6.96266V27H8.5V21Z" fill="#24292E"/>
<path d="M5.33733 44.5H9.75V43.3468H7.33409V43.3092L8.04722 42.6561C9.33959 41.5376 9.67723 40.9682 9.67723 40.289C9.67723 39.2225 8.8011 38.5 7.44761 38.5C6.12905 38.5 5.2471 39.2543 5.25001 40.4595H6.61514C6.61514 39.9249 6.94696 39.6156 7.44179 39.6156C7.92788 39.6156 8.28008 39.9133 8.28008 40.4017C8.28008 40.8439 8.00065 41.1445 7.51165 41.5809L5.33733 43.4711V44.5Z" fill="#24292E"/>
<path d="M6.77442 9.5C7.52635 9.5 8.04638 9.23767 8.34153 8.74147H8.3837V9.41783H10V6.1182C10 5.09102 8.98454 4.5 7.61068 4.5C6.15952 4.5 5.33732 5.1574 5.20028 6.04235L6.78496 6.09292C6.85875 5.78319 7.14336 5.59355 7.59663 5.59355C8.01827 5.59355 8.28531 5.77686 8.28531 6.1024V6.1182C8.28531 6.4153 7.92692 6.47851 7.00633 6.5512C5.91356 6.63338 5 6.99684 5 8.07143C5 9.03224 5.74139 9.5 6.77442 9.5ZM7.30499 8.48862C6.90794 8.48862 6.62684 8.31795 6.62684 7.99558C6.62684 7.68268 6.90091 7.49305 7.38932 7.42668C7.70907 7.38559 8.1026 7.32238 8.29585 7.23072V7.69216C8.29585 8.16625 7.85313 8.48862 7.30499 8.48862Z" fill="#24292E"/>
</g>
<g clip-path="url(#clip1_1248_126711)">
<path d="M19 13H34V1.04083C34 0.764787 33.934 0.500047 33.8164 0.304853C33.6989 0.109659 33.5394 0 33.3732 0L19 0V13Z" fill="url(#paint1_linear_1248_126711)"/>
<path d="M34 17.5H19V30.5H34V17.5Z" fill="#84AFF1"/>
<path d="M34 35H19V48H34V35Z" fill="#84AFF1"/>
<path d="M24 9.68623H25.5663V8.96449H25.6149C25.8155 9.37609 26.2621 9.75 27.0129 9.75C28.1133 9.75 29 8.97898 29 7.46304C29 5.89203 28.0615 5.17609 27.0227 5.17609C26.2362 5.17609 25.8058 5.58768 25.6149 5.99638H25.5825V3.75H24V9.68623ZM25.5502 7.46015C25.5502 6.73261 25.8867 6.28333 26.466 6.28333C27.0518 6.28333 27.3754 6.7442 27.3754 7.46015C27.3754 8.17899 27.0518 8.64565 26.466 8.64565C25.8867 8.64565 25.5502 8.18188 25.5502 7.46015Z" fill="#24292E"/>
</g>
<path d="M47.9067 30C48.6011 30 53.9327 26 53.9327 24C53.9327 22 48.7357 18 47.9067 18C47.0778 18 46.4023 18.5 46.4023 19.4756C46.4023 20.4512 49.9067 22.9206 49.9067 22.9206C49.9067 22.9206 42.2539 22.25 42 22.9206C41.7461 23.5911 41.7461 24.4089 42 25.0794C42.2539 25.75 49.9067 25.0794 49.9067 25.0794C49.9067 25.0794 46.4023 27.75 46.4023 28.5301C46.4023 29.3103 47.2124 30 47.9067 30Z" fill="#24292E"/>
<g clip-path="url(#clip2_1248_126711)">
<path d="M62 1.04083V13H77V0H62.6268C62.4606 0 62.3011 0.109659 62.1836 0.304853C62.066 0.500047 62 0.764787 62 1.04083Z" fill="url(#paint2_linear_1248_126711)"/>
<path d="M77 17.5H62V30.5H77V17.5Z" fill="#84AFF1"/>
<path d="M77 35H62V48H77V35Z" fill="#84AFF1"/>
<path d="M70.5 21H69.0716L67.5 21.9199V23.1738L68.9253 22.3535H68.9627V27H70.5V21Z" fill="#24292E"/>
<path d="M67.3373 44.5H71.75V43.3468H69.3341V43.3092L70.0472 42.6561C71.3396 41.5376 71.6772 40.9682 71.6772 40.289C71.6772 39.2225 70.8011 38.5 69.4476 38.5C68.129 38.5 67.2471 39.2543 67.25 40.4595H68.6151C68.6151 39.9249 68.947 39.6156 69.4418 39.6156C69.9279 39.6156 70.2801 39.9133 70.2801 40.4017C70.2801 40.8439 70.0006 41.1445 69.5116 41.5809L67.3373 43.4711V44.5Z" fill="#24292E"/>
<path d="M68.7744 9.5C69.5264 9.5 70.0464 9.23767 70.3415 8.74147H70.3837V9.41783H72V6.1182C72 5.09102 70.9845 4.5 69.6107 4.5C68.1595 4.5 67.3373 5.1574 67.2003 6.04235L68.785 6.09292C68.8587 5.78319 69.1434 5.59355 69.5966 5.59355C70.0183 5.59355 70.2853 5.77686 70.2853 6.1024V6.1182C70.2853 6.4153 69.9269 6.47851 69.0063 6.5512C67.9136 6.63338 67 6.99684 67 8.07143C67 9.03224 67.7414 9.5 68.7744 9.5ZM69.305 8.48862C68.9079 8.48862 68.6268 8.31795 68.6268 7.99558C68.6268 7.68268 68.9009 7.49305 69.3893 7.42668C69.7091 7.38559 70.1026 7.32238 70.2959 7.23072V7.69216C70.2959 8.16625 69.8531 8.48862 69.305 8.48862Z" fill="#24292E"/>
</g>
<g clip-path="url(#clip3_1248_126711)">
<path d="M96 17.5H81V30.5H96V17.5Z" fill="#84AFF1"/>
<path d="M96 35H81V48H96V35Z" fill="#84AFF1"/>
<path d="M81 1.04083V13H96V0H81.6268C81.4606 0 81 0 81 0C81 0 81 0.764787 81 1.04083Z" fill="url(#paint3_linear_1248_126711)"/>
<path d="M86 9.68623H87.5663V8.96449H87.6149C87.8155 9.37609 88.2621 9.75 89.0129 9.75C90.1133 9.75 91 8.97898 91 7.46304C91 5.89203 90.0615 5.17609 89.0227 5.17609C88.2362 5.17609 87.8058 5.58768 87.6149 5.99638H87.5825V3.75H86V9.68623ZM87.5502 7.46015C87.5502 6.73261 87.8867 6.28333 88.466 6.28333C89.0518 6.28333 89.3754 6.7442 89.3754 7.46015C89.3754 8.17899 89.0518 8.64565 88.466 8.64565C87.8867 8.64565 87.5502 8.18188 87.5502 7.46015Z" fill="#24292E"/>
</g>
<g clip-path="url(#clip4_1248_126711)">
<path d="M100 13H124V1.04083C124 0.764787 123.894 0.500047 123.706 0.304853C123.518 0.109659 123.263 0 122.997 0L100 0V13Z" fill="url(#paint4_linear_1248_126711)"/>
<path d="M105.185 4H104V8.93019H105.185V4Z" fill="#24292E"/>
<path d="M106.99 8.99278C107.509 8.99278 107.867 8.79297 108.071 8.41502H108.1V8.93019H109.215V6.41695C109.215 5.63457 108.515 5.1844 107.567 5.1844C106.566 5.1844 105.998 5.68512 105.904 6.35917L106.997 6.39769C107.048 6.16177 107.244 6.01733 107.557 6.01733C107.848 6.01733 108.032 6.15696 108.032 6.40491V6.41695C108.032 6.64324 107.785 6.69138 107.15 6.74675C106.396 6.80934 105.766 7.08618 105.766 7.90467C105.766 8.63649 106.277 8.99278 106.99 8.99278ZM107.356 8.22244C107.082 8.22244 106.888 8.09244 106.888 7.84689C106.888 7.60857 107.077 7.46413 107.414 7.41358C107.635 7.38228 107.906 7.33414 108.039 7.26432V7.61579C108.039 7.97689 107.734 8.22244 107.356 8.22244Z" fill="#24292E"/>
<path d="M109.94 8.93019H111.114V8.33077H111.15C111.3 8.6726 111.635 8.98315 112.197 8.98315C113.021 8.98315 113.686 8.3428 113.686 7.08377C113.686 5.77901 112.983 5.1844 112.204 5.1844C111.615 5.1844 111.293 5.52624 111.15 5.86567H111.126V4H109.94V8.93019ZM111.101 7.08137C111.101 6.47713 111.354 6.104 111.787 6.104C112.226 6.104 112.469 6.48676 112.469 7.08137C112.469 7.67838 112.226 8.06596 111.787 8.06596C111.354 8.06596 111.101 7.68079 111.101 7.08137Z" fill="#24292E"/>
<path d="M116.048 9C117.025 9 117.667 8.53057 117.803 7.80356L116.714 7.77227C116.622 8.01781 116.38 8.15022 116.069 8.15022C115.614 8.15022 115.332 7.8493 115.332 7.39673V7.36543H117.815V7.07174C117.815 5.85363 117.068 5.1844 116.011 5.1844C114.886 5.1844 114.164 5.94993 114.164 7.09581C114.164 8.28021 114.877 9 116.048 9ZM115.332 6.68175C115.349 6.31343 115.643 6.03418 116.035 6.03418C116.426 6.03418 116.707 6.3038 116.712 6.68175H115.332Z" fill="#24292E"/>
<path d="M119.606 4H118.42V8.93019H119.606V4Z" fill="#24292E"/>
<path d="M124 17.5H100V30.5H124V17.5Z" fill="#84AFF1"/>
<path d="M124 35H100V48H124V35Z" fill="#84AFF1"/>
<path d="M113.5 21H112.072L110.5 21.9199V23.1738L111.925 22.3535H111.963V27H113.5V21Z" fill="#24292E"/>
<path d="M113.5 39H112.072L110.5 39.9199V41.1738L111.925 40.3535H111.963V45H113.5V39Z" fill="#24292E"/>
</g>
<path d="M9.18549 51H8V55.9302H9.18549V51Z" fill="#24292E"/>
<path d="M10.9898 55.9928C11.5086 55.9928 11.8674 55.793 12.071 55.415H12.1001V55.9302H13.2153V53.4169C13.2153 52.6346 12.5147 52.1844 11.5668 52.1844C10.5655 52.1844 9.99823 52.6851 9.90369 53.3592L10.997 53.3977C11.048 53.1618 11.2443 53.0173 11.5571 53.0173C11.848 53.0173 12.0322 53.157 12.0322 53.4049V53.4169C12.0322 53.6432 11.7849 53.6914 11.1498 53.7468C10.3958 53.8093 9.7655 54.0862 9.7655 54.9047C9.7655 55.6365 10.277 55.9928 10.9898 55.9928ZM11.3558 55.2224C11.0819 55.2224 10.888 55.0924 10.888 54.8469C10.888 54.6086 11.077 54.4641 11.414 54.4136C11.6346 54.3823 11.9062 54.3341 12.0395 54.2643V54.6158C12.0395 54.9769 11.734 55.2224 11.3558 55.2224Z" fill="#24292E"/>
<path d="M13.9402 55.9302H15.1135V55.3308H15.1499C15.3002 55.6726 15.6347 55.9831 16.1972 55.9831C17.0214 55.9831 17.6857 55.3428 17.6857 54.0838C17.6857 52.779 16.9827 52.1844 16.2045 52.1844C15.6153 52.1844 15.2929 52.5262 15.1499 52.8657H15.1256V51H13.9402V55.9302ZM15.1014 54.0814C15.1014 53.4771 15.3535 53.104 15.7875 53.104C16.2263 53.104 16.4687 53.4868 16.4687 54.0814C16.4687 54.6784 16.2263 55.066 15.7875 55.066C15.3535 55.066 15.1014 54.6808 15.1014 54.0814Z" fill="#24292E"/>
<path d="M20.0476 56C21.0246 56 21.667 55.5306 21.8028 54.8036L20.7143 54.7723C20.6221 55.0178 20.3797 55.1502 20.0694 55.1502C19.6136 55.1502 19.3324 54.8493 19.3324 54.3967V54.3654H21.8149V54.0717C21.8149 52.8536 21.0682 52.1844 20.0112 52.1844C18.8863 52.1844 18.1639 52.9499 18.1639 54.0958C18.1639 55.2802 18.8766 56 20.0476 56ZM19.3324 53.6818C19.3494 53.3134 19.6427 53.0342 20.0355 53.0342C20.4258 53.0342 20.707 53.3038 20.7118 53.6818H19.3324Z" fill="#24292E"/>
<path d="M23.6059 51H22.4204V55.9302H23.6059V51Z" fill="#24292E"/>
<path d="M24.5932 55.2537H28.0623V54.2884H24.5932V55.2537ZM24.5932 53.5975H28.0623V52.6322H24.5932V53.5975Z" fill="#24292E"/>
<path d="M31.3333 51H30.2206L28.9963 51.7559V52.7862L30.1066 52.1122H30.1357V55.9302H31.3333V51Z" fill="#24292E"/>
<defs>
<linearGradient id="paint0_linear_1248_126711" x1="0" y1="6.5052" x2="15" y2="6.5052" gradientUnits="userSpaceOnUse">
<stop stop-color="#F2CC0C"/>
<stop offset="1" stop-color="#FF9830"/>
</linearGradient>
<linearGradient id="paint1_linear_1248_126711" x1="19" y1="6.5052" x2="34" y2="6.5052" gradientUnits="userSpaceOnUse">
<stop stop-color="#F2CC0C"/>
<stop offset="1" stop-color="#FF9830"/>
</linearGradient>
<linearGradient id="paint2_linear_1248_126711" x1="62" y1="6.5052" x2="77" y2="6.5052" gradientUnits="userSpaceOnUse">
<stop stop-color="#F2CC0C"/>
<stop offset="1" stop-color="#FF9830"/>
</linearGradient>
<linearGradient id="paint3_linear_1248_126711" x1="81" y1="6.5052" x2="96" y2="6.5052" gradientUnits="userSpaceOnUse">
<stop stop-color="#F2CC0C"/>
<stop offset="1" stop-color="#FF9830"/>
</linearGradient>
<linearGradient id="paint4_linear_1248_126711" x1="100" y1="6.5052" x2="124" y2="6.5052" gradientUnits="userSpaceOnUse">
<stop stop-color="#F2CC0C"/>
<stop offset="1" stop-color="#FF9830"/>
</linearGradient>
<clipPath id="clip0_1248_126711">
<rect width="15" height="48" fill="white"/>
</clipPath>
<clipPath id="clip1_1248_126711">
<rect width="15" height="48" fill="white" transform="translate(19)"/>
</clipPath>
<clipPath id="clip2_1248_126711">
<rect width="15" height="48" fill="white" transform="translate(62)"/>
</clipPath>
<clipPath id="clip3_1248_126711">
<rect width="15" height="48" fill="white" transform="translate(81)"/>
</clipPath>
<clipPath id="clip4_1248_126711">
<rect width="24" height="48" fill="white" transform="translate(100)"/>
</clipPath>
</defs>
</svg>
