<svg width="154" height="48" viewBox="0 0 154 48" fill="none" xmlns="http://www.w3.org/2000/svg">
<path d="M15 2.57189C15.0002 2.53241 14.9927 2.49327 14.9777 2.45672C14.9628 2.42018 14.9408 2.38693 14.913 2.3589L13.641 1.087C13.613 1.0592 13.5797 1.0372 13.5432 1.02227C13.5066 1.00734 13.4675 0.999777 13.428 1.00001C13.3885 0.999777 13.3494 1.00734 13.3128 1.02227C13.2763 1.0372 13.243 1.0592 13.215 1.087L12.366 1.93594L9.087 5.21469C9.0592 5.24272 9.0372 5.27596 9.02227 5.31251C9.00734 5.34906 8.99978 5.3882 9.00001 5.42767V6.69958C9.00001 6.77914 9.03161 6.85544 9.08787 6.9117C9.14413 6.96795 9.22044 6.99956 9.3 6.99956H10.572C10.614 7.00184 10.656 6.99528 10.6952 6.98029C10.7345 6.9653 10.7702 6.94223 10.8 6.91256L14.061 3.63381L14.913 2.79987C14.9404 2.7708 14.9627 2.73733 14.979 2.70088C14.9819 2.67697 14.9819 2.65279 14.979 2.62888C14.9804 2.61492 14.9804 2.60085 14.979 2.58689L15 2.57189ZM10.449 6.3996H9.6V5.55067L12.579 2.57189L13.428 3.42082L10.449 6.3996ZM13.851 2.99786L13.002 2.14892L13.428 1.72595L14.274 2.57189L13.851 2.99786Z" fill="white"/>
<g clip-path="url(#clip0_1248_126295)">
<path d="M0 11.3611V27H24V10H1.00293C0.736933 10 0.481835 10.1434 0.29375 10.3987C0.105665 10.6539 0 11.0001 0 11.3611Z" fill="url(#paint0_linear_1248_126295)"/>
<path d="M24 31H0V48H24V31Z" fill="#84AFF1"/>
<path d="M10.7744 21.5C11.5264 21.5 12.0464 21.2377 12.3415 20.7415H12.3837V21.4178H14V18.1182C14 17.091 12.9845 16.5 11.6107 16.5C10.1595 16.5 9.33732 17.1574 9.20028 18.0424L10.785 18.0929C10.8587 17.7832 11.1434 17.5936 11.5966 17.5936C12.0183 17.5936 12.2853 17.7769 12.2853 18.1024V18.1182C12.2853 18.4153 11.9269 18.4785 11.0063 18.5512C9.91356 18.6334 9 18.9968 9 20.0714C9 21.0322 9.74139 21.5 10.7744 21.5ZM11.305 20.4886C10.9079 20.4886 10.6268 20.318 10.6268 19.9956C10.6268 19.6827 10.9009 19.493 11.3893 19.4267C11.7091 19.3856 12.1026 19.3224 12.2959 19.2307V19.6922C12.2959 20.1662 11.8531 20.4886 11.305 20.4886Z" fill="#24292E"/>
<path d="M13 36.5H11.5716L10 37.4199V38.6738L11.4253 37.8535H11.4627V42.5H13V36.5Z" fill="#24292E"/>
</g>
<path d="M35.7976 2.10148C35.7643 2.06962 35.725 2.04465 35.6821 2.02799C35.5969 1.993 35.5013 1.993 35.4161 2.02799C35.3732 2.04465 35.3339 2.06962 35.3007 2.10148L34.6008 2.80134C34.5349 2.86723 34.4979 2.9566 34.4979 3.04979C34.4979 3.14297 34.5349 3.23234 34.6008 3.29823C34.6667 3.36413 34.7561 3.40115 34.8493 3.40115C34.9424 3.40115 35.0318 3.36413 35.0977 3.29823L35.1992 3.19326V5.84921C35.1992 5.94202 35.2361 6.03103 35.3017 6.09665C35.3673 6.16227 35.4563 6.19914 35.5491 6.19914C35.6419 6.19914 35.7309 6.16227 35.7965 6.09665C35.8622 6.03103 35.899 5.94202 35.899 5.84921V3.19326L36.0005 3.29823C36.033 3.33103 36.0718 3.35707 36.1144 3.37483C36.157 3.3926 36.2028 3.40174 36.249 3.40174C36.2952 3.40174 36.3409 3.3926 36.3835 3.37483C36.4262 3.35707 36.4649 3.33103 36.4974 3.29823C36.5302 3.2657 36.5562 3.227 36.574 3.18436C36.5918 3.14172 36.6009 3.09598 36.6009 3.04979C36.6009 3.00359 36.5918 2.95785 36.574 2.91521C36.5562 2.87257 36.5302 2.83387 36.4974 2.80134L35.7976 2.10148ZM37.6487 2.69986H41.148C41.2408 2.69986 41.3298 2.66299 41.3954 2.59737C41.461 2.53174 41.4979 2.44274 41.4979 2.34993C41.4979 2.25712 41.461 2.16812 41.3954 2.10249C41.3298 2.03687 41.2408 2 41.148 2H37.6487C37.5559 2 37.4669 2.03687 37.4012 2.10249C37.3356 2.16812 37.2988 2.25712 37.2988 2.34993C37.2988 2.44274 37.3356 2.53174 37.4012 2.59737C37.4669 2.66299 37.5559 2.69986 37.6487 2.69986V2.69986ZM41.148 5.49928H37.6487C37.5559 5.49928 37.4669 5.53615 37.4012 5.60178C37.3356 5.6674 37.2988 5.75641 37.2988 5.84921C37.2988 5.94202 37.3356 6.03103 37.4012 6.09665C37.4669 6.16227 37.5559 6.19914 37.6487 6.19914H41.148C41.2408 6.19914 41.3298 6.16227 41.3954 6.09665C41.461 6.03103 41.4979 5.94202 41.4979 5.84921C41.4979 5.75641 41.461 5.6674 41.3954 5.60178C41.3298 5.53615 41.2408 5.49928 41.148 5.49928ZM41.148 3.74964H37.6487C37.5559 3.74964 37.4669 3.78651 37.4012 3.85213C37.3356 3.91776 37.2988 4.00676 37.2988 4.09957C37.2988 4.19238 37.3356 4.28138 37.4012 4.34701C37.4669 4.41263 37.5559 4.4495 37.6487 4.4495H41.148C41.2408 4.4495 41.3298 4.41263 41.3954 4.34701C41.461 4.28138 41.4979 4.19238 41.4979 4.09957C41.4979 4.00676 41.461 3.91776 41.3954 3.85213C41.3298 3.78651 41.2408 3.74964 41.148 3.74964Z" fill="white"/>
<g clip-path="url(#clip1_1248_126295)">
<path d="M26 27H50V11.3611V10H48.9971H26V27Z" fill="url(#paint1_linear_1248_126295)"/>
<path d="M50 31H26V48H50V31Z" fill="#84AFF1"/>
<path d="M35.5 21.4362H37.0663V20.7145H37.1149C37.3155 21.1261 37.7621 21.5 38.5129 21.5C39.6133 21.5 40.5 20.729 40.5 19.213C40.5 17.642 39.5615 16.9261 38.5227 16.9261C37.7362 16.9261 37.3058 17.3377 37.1149 17.7464H37.0825V15.5H35.5V21.4362ZM37.0502 19.2101C37.0502 18.4826 37.3867 18.0333 37.966 18.0333C38.5518 18.0333 38.8754 18.4942 38.8754 19.2101C38.8754 19.929 38.5518 20.3957 37.966 20.3957C37.3867 20.3957 37.0502 19.9319 37.0502 19.2101Z" fill="#24292E"/>
<path d="M35.5873 42.5H40V41.3468H37.5841V41.3092L38.2972 40.6561C39.5896 39.5376 39.9272 38.9682 39.9272 38.289C39.9272 37.2225 39.0511 36.5 37.6976 36.5C36.379 36.5 35.4971 37.2543 35.5 38.4595H36.8651C36.8651 37.9249 37.197 37.6156 37.6918 37.6156C38.1779 37.6156 38.5301 37.9133 38.5301 38.4017C38.5301 38.8439 38.2506 39.1445 37.7616 39.5809L35.5873 41.4711V42.5Z" fill="#24292E"/>
</g>
<path d="M63.6798 2.22255C63.785 2.20642 63.8912 2.19841 63.9976 2.19856C64.9512 2.19856 65.8477 2.88522 66.3695 3.99767C66.2897 4.16696 66.1995 4.33119 66.0996 4.48943C66.0679 4.53854 66.0512 4.59587 66.0516 4.65434C66.0523 4.71978 66.0743 4.78321 66.1144 4.83494C66.1545 4.88667 66.2104 4.92387 66.2736 4.94086C66.3368 4.95784 66.4038 4.95369 66.4645 4.92903C66.5251 4.90437 66.576 4.86055 66.6093 4.80427C66.7491 4.58476 66.8704 4.35409 66.9722 4.11461C66.9883 4.0772 66.9966 4.0369 66.9966 3.99617C66.9966 3.95544 66.9883 3.91514 66.9722 3.87773C66.3665 2.47142 65.227 1.59886 63.9976 1.59886C63.8569 1.59815 63.7164 1.61019 63.5778 1.63484C63.5385 1.64153 63.5008 1.65592 63.467 1.67717C63.4332 1.69842 63.4039 1.72613 63.3807 1.75871C63.3576 1.79128 63.3412 1.82809 63.3323 1.86704C63.3234 1.90598 63.3223 1.94629 63.329 1.98566C63.3357 2.02504 63.35 2.06271 63.3713 2.09653C63.3926 2.13035 63.4203 2.15965 63.4528 2.18276C63.4854 2.20587 63.5222 2.22234 63.5612 2.23122C63.6001 2.24011 63.6404 2.24123 63.6798 2.23454V2.22255ZM61.5119 1.08611C61.4839 1.05815 61.4507 1.03597 61.4142 1.02084C61.3777 1.00571 61.3385 0.997925 61.299 0.997925C61.2594 0.997925 61.2203 1.00571 61.1838 1.02084C61.1472 1.03597 61.114 1.05815 61.0861 1.08611C61.0296 1.14257 60.9979 1.21915 60.9979 1.299C60.9979 1.37885 61.0296 1.45543 61.0861 1.5119L62.0156 2.43844C61.5915 2.8467 61.254 3.33619 61.0231 3.87773C61.0066 3.91556 60.9981 3.95639 60.9981 3.99767C60.9981 4.03895 61.0066 4.07978 61.0231 4.11761C61.6288 5.52391 62.7682 6.39648 63.9976 6.39648C64.5365 6.39276 65.0626 6.23231 65.5119 5.93471L66.4834 6.90923C66.5113 6.93733 66.5444 6.95964 66.581 6.97486C66.6175 6.99009 66.6567 6.99792 66.6963 6.99792C66.7359 6.99792 66.7751 6.99009 66.8116 6.97486C66.8482 6.95964 66.8813 6.93733 66.9092 6.90923C66.9373 6.88135 66.9596 6.84819 66.9748 6.81165C66.9901 6.77511 66.9979 6.73592 66.9979 6.69633C66.9979 6.65675 66.9901 6.61756 66.9748 6.58102C66.9596 6.54448 66.9373 6.51131 66.9092 6.48344L61.5119 1.08611ZM63.4189 3.84175L64.1536 4.57638C64.1029 4.59092 64.0504 4.59799 63.9976 4.59737C63.8386 4.59737 63.6861 4.53419 63.5736 4.42172C63.4611 4.30926 63.3979 4.15672 63.3979 3.99767C63.3973 3.94495 63.4044 3.89242 63.4189 3.84175ZM63.9976 5.79678C63.0441 5.79678 62.1476 5.11012 61.6288 3.99767C61.8225 3.57 62.0975 3.18404 62.4384 2.86123L62.9691 3.39797C62.8445 3.62549 62.797 3.88731 62.8337 4.14413C62.8704 4.40096 62.9895 4.63895 63.1729 4.8224C63.3564 5.00586 63.5943 5.12488 63.8512 5.16162C64.108 5.19835 64.3698 5.15082 64.5973 5.02616L65.0741 5.49693C64.7476 5.6891 64.3765 5.79247 63.9976 5.79678Z" fill="white"/>
<g clip-path="url(#clip2_1248_126295)">
<path d="M52 27H76V11.3611C76 11.0001 75.8943 10.6539 75.7063 10.3987C75.5182 10.1434 75.2631 10 74.9971 10H52V27Z" fill="url(#paint2_linear_1248_126295)"/>
<path d="M76 31H52V48H76V31Z" fill="#84AFF1"/>
<path d="M64.1058 21.5C65.5564 21.5 66.4563 20.7082 66.5 19.5095H64.9654C64.905 20.0237 64.5759 20.3044 64.1259 20.3044C63.5484 20.3044 63.1723 19.847 63.1723 18.9858C63.1723 18.1309 63.5517 17.6735 64.1259 17.6735C64.596 17.6735 64.9016 17.9732 64.9654 18.4685H66.5C66.4631 17.276 65.5363 16.5 64.1024 16.5C62.4805 16.5 61.5 17.5158 61.5 19.0016C61.5 20.4811 62.4738 21.5 64.1058 21.5Z" fill="#24292E"/>
<path d="M63.9769 42.5C65.4538 42.5 66.5031 41.7757 66.5 40.7605C66.5031 40.0418 65.9954 39.5285 65.0231 39.423V39.3774C65.7523 39.2804 66.2692 38.827 66.2661 38.1711C66.2692 37.2186 65.34 36.5 63.9892 36.5C62.6292 36.5 61.6385 37.23 61.6262 38.2681H63.0815C63.0938 37.8688 63.4815 37.6008 63.9892 37.6008C64.4723 37.6008 64.8015 37.8717 64.7985 38.2624C64.8015 38.6673 64.4138 38.9468 63.8538 38.9468H63.2415V39.9506H63.8538C64.4908 39.9506 64.9061 40.2414 64.9 40.6521C64.9061 41.0656 64.5246 41.3536 63.9831 41.3536C63.4446 41.3536 63.0477 41.0884 63.0323 40.7034H61.5C61.5123 41.7586 62.5369 42.5 63.9769 42.5Z" fill="#24292E"/>
</g>
<path d="M89.9067 30C90.6011 30 95.9327 26 95.9327 24C95.9327 22 90.7357 18 89.9067 18C89.0778 18 88.4023 18.5 88.4023 19.4756C88.4023 20.4512 91.9067 22.9206 91.9067 22.9206C91.9067 22.9206 84.2539 22.25 84 22.9206C83.7461 23.5911 83.7461 24.4089 84 25.0794C84.2539 25.75 91.9067 25.0794 91.9067 25.0794C91.9067 25.0794 88.4023 27.75 88.4023 28.5301C88.4023 29.3103 89.2124 30 89.9067 30Z" fill="#24292E"/>
<g clip-path="url(#clip3_1248_126295)">
<path d="M130 27H154V11.3611C154 11.0001 153.894 10.6539 153.706 10.3987C153.518 10.1434 153.263 10 152.997 10H130V27Z" fill="url(#paint3_linear_1248_126295)"/>
<path d="M154 31H130V48H154V31Z" fill="#84AFF1"/>
<path d="M143 36.5H141.572L140 37.4199V38.6738L141.425 37.8535H141.463V42.5H143V36.5Z" fill="#24292E"/>
<path d="M140.987 21.5C141.738 21.5 142.184 21.1261 142.385 20.7145H142.434V21.4362H144V15.5H142.417V17.7464H142.385C142.197 17.3377 141.764 16.9261 140.981 16.9261C139.942 16.9261 139 17.642 139 19.213C139 20.729 139.89 21.5 140.987 21.5ZM141.537 20.3957C140.951 20.3957 140.625 19.929 140.625 19.2101C140.625 18.4942 140.948 18.0333 141.537 18.0333C142.117 18.0333 142.453 18.4826 142.453 19.2101C142.453 19.9319 142.113 20.3957 141.537 20.3957Z" fill="#24292E"/>
</g>
<g clip-path="url(#clip4_1248_126295)">
<path d="M128 31H104V48H128V31Z" fill="#84AFF1"/>
<path d="M104 11.3611V27H128V10H105.003C104.737 10 104.482 10.1434 104.294 10.3987C104.106 10.6539 104 11.0001 104 11.3611Z" fill="url(#paint4_linear_1248_126295)"/>
<path d="M113.5 21.4362H115.066V20.7145H115.115C115.316 21.1261 115.762 21.5 116.513 21.5C117.613 21.5 118.5 20.729 118.5 19.213C118.5 17.642 117.561 16.9261 116.523 16.9261C115.736 16.9261 115.306 17.3377 115.115 17.7464H115.083V15.5H113.5V21.4362ZM115.05 19.2101C115.05 18.4826 115.387 18.0333 115.966 18.0333C116.552 18.0333 116.875 18.4942 116.875 19.2101C116.875 19.929 116.552 20.3957 115.966 20.3957C115.387 20.3957 115.05 19.9319 115.05 19.2101Z" fill="#24292E"/>
<path d="M113.587 42.5H118V41.3468H115.584V41.3092L116.297 40.6561C117.59 39.5376 117.927 38.9682 117.927 38.289C117.927 37.2225 117.051 36.5 115.698 36.5C114.379 36.5 113.497 37.2543 113.5 38.4595H114.865C114.865 37.9249 115.197 37.6156 115.692 37.6156C116.178 37.6156 116.53 37.9133 116.53 38.4017C116.53 38.8439 116.251 39.1445 115.762 39.5809L113.587 41.4711V42.5Z" fill="#24292E"/>
</g>
<defs>
<linearGradient id="paint0_linear_1248_126295" x1="0" y1="18.5068" x2="24" y2="18.5068" gradientUnits="userSpaceOnUse">
<stop stop-color="#F2CC0C"/>
<stop offset="1" stop-color="#FF9830"/>
</linearGradient>
<linearGradient id="paint1_linear_1248_126295" x1="26" y1="18.5068" x2="50" y2="18.5068" gradientUnits="userSpaceOnUse">
<stop stop-color="#F2CC0C"/>
<stop offset="1" stop-color="#FF9830"/>
</linearGradient>
<linearGradient id="paint2_linear_1248_126295" x1="52" y1="18.5068" x2="76" y2="18.5068" gradientUnits="userSpaceOnUse">
<stop stop-color="#F2CC0C"/>
<stop offset="1" stop-color="#FF9830"/>
</linearGradient>
<linearGradient id="paint3_linear_1248_126295" x1="130" y1="18.5068" x2="154" y2="18.5068" gradientUnits="userSpaceOnUse">
<stop stop-color="#F2CC0C"/>
<stop offset="1" stop-color="#FF9830"/>
</linearGradient>
<linearGradient id="paint4_linear_1248_126295" x1="104" y1="18.5068" x2="128" y2="18.5068" gradientUnits="userSpaceOnUse">
<stop stop-color="#F2CC0C"/>
<stop offset="1" stop-color="#FF9830"/>
</linearGradient>
<clipPath id="clip0_1248_126295">
<rect width="24" height="38" fill="white" transform="translate(0 10)"/>
</clipPath>
<clipPath id="clip1_1248_126295">
<rect width="24" height="38" fill="white" transform="translate(26 10)"/>
</clipPath>
<clipPath id="clip2_1248_126295">
<rect width="24" height="38" fill="white" transform="translate(52 10)"/>
</clipPath>
<clipPath id="clip3_1248_126295">
<rect width="24" height="38" fill="white" transform="translate(130 10)"/>
</clipPath>
<clipPath id="clip4_1248_126295">
<rect width="24" height="38" fill="white" transform="translate(104 10)"/>
</clipPath>
</defs>
</svg>
