<svg width="101" height="48" viewBox="0 0 101 48" fill="none" xmlns="http://www.w3.org/2000/svg">
<path d="M0 1.04083V13H15V0H0.626828C0.460583 0 0.301147 0.109659 0.183594 0.304853C0.0660407 0.500047 0 0.764787 0 1.04083Z" fill="url(#paint0_linear_1248_126643)"/>
<path d="M15 17.5H0V30.5H15V17.5Z" fill="#84AFF1"/>
<path d="M15 35H0V48H15V35Z" fill="#84AFF1"/>
<path d="M8.5 21H7.07158L5.5 21.9199V23.1738L6.92531 22.3535H6.96266V27H8.5V21Z" fill="#24292E"/>
<path d="M5.33733 44.5H9.75V43.3468H7.33409V43.3092L8.04722 42.6561C9.33959 41.5376 9.67723 40.9682 9.67723 40.289C9.67723 39.2225 8.8011 38.5 7.44761 38.5C6.12905 38.5 5.2471 39.2543 5.25001 40.4595H6.61514C6.61514 39.9249 6.94696 39.6156 7.44179 39.6156C7.92788 39.6156 8.28008 39.9133 8.28008 40.4017C8.28008 40.8439 8.00065 41.1445 7.51165 41.5809L5.33733 43.4711V44.5Z" fill="#24292E"/>
<path d="M6.77442 9.5C7.52635 9.5 8.04638 9.23767 8.34153 8.74147H8.3837V9.41783H10V6.1182C10 5.09102 8.98454 4.5 7.61068 4.5C6.15952 4.5 5.33732 5.1574 5.20028 6.04235L6.78496 6.09292C6.85875 5.78319 7.14336 5.59355 7.59663 5.59355C8.01827 5.59355 8.28531 5.77686 8.28531 6.1024V6.1182C8.28531 6.4153 7.92692 6.47851 7.00633 6.5512C5.91356 6.63338 5 6.99684 5 8.07143C5 9.03224 5.74139 9.5 6.77442 9.5ZM7.30499 8.48862C6.90794 8.48862 6.62684 8.31795 6.62684 7.99558C6.62684 7.68268 6.90091 7.49305 7.38932 7.42668C7.70907 7.38559 8.1026 7.32238 8.29585 7.23072V7.69216C8.29585 8.16625 7.85313 8.48862 7.30499 8.48862Z" fill="#24292E"/>
<path d="M28.9067 30C29.6011 30 34.9327 26 34.9327 24C34.9327 22 29.7357 18 28.9067 18C28.0778 18 27.4023 18.5 27.4023 19.4756C27.4023 20.4512 30.9067 22.9206 30.9067 22.9206C30.9067 22.9206 23.2539 22.25 23 22.9206C22.7461 23.5911 22.7461 24.4089 23 25.0794C23.2539 25.75 30.9067 25.0794 30.9067 25.0794C30.9067 25.0794 27.4023 27.75 27.4023 28.5301C27.4023 29.3103 28.2124 30 28.9067 30Z" fill="#24292E"/>
<path d="M43 10.0408V22H58V9H43.6268C43.4606 9 43.3011 9.10966 43.1836 9.30485C43.066 9.50005 43 9.76479 43 10.0408Z" fill="url(#paint1_linear_1248_126643)"/>
<path d="M58 26.5H43V39.5H58V26.5Z" fill="#84AFF1"/>
<path d="M51.5 30H50.0716L48.5 30.9199V32.1738L49.9253 31.3535H49.9627V36H51.5V30Z" fill="#24292E"/>
<path d="M49.7744 18.5C50.5264 18.5 51.0464 18.2377 51.3415 17.7415H51.3837V18.4178H53V15.1182C53 14.091 51.9845 13.5 50.6107 13.5C49.1595 13.5 48.3373 14.1574 48.2003 15.0424L49.785 15.0929C49.8587 14.7832 50.1434 14.5936 50.5966 14.5936C51.0183 14.5936 51.2853 14.7769 51.2853 15.1024V15.1182C51.2853 15.4153 50.9269 15.4785 50.0063 15.5512C48.9136 15.6334 48 15.9968 48 17.0714C48 18.0322 48.7414 18.5 49.7744 18.5ZM50.305 17.4886C49.9079 17.4886 49.6268 17.318 49.6268 16.9956C49.6268 16.6827 49.9009 16.493 50.3893 16.4267C50.7091 16.3856 51.1026 16.3224 51.2959 16.2307V16.6922C51.2959 17.1662 50.8531 17.4886 50.305 17.4886Z" fill="#24292E"/>
<path d="M70.3343 30H73.674V25.674H78V22.3343H73.674V18H70.3343V22.3343H66V25.674H70.3343V30Z" fill="#24292E"/>
<path d="M86 10.0408V22H101V9H86.6268C86.4606 9 86.3011 9.10966 86.1836 9.30485C86.066 9.50005 86 9.76479 86 10.0408Z" fill="url(#paint2_linear_1248_126643)"/>
<path d="M101 26.5H86V39.5H101V26.5Z" fill="#84AFF1"/>
<path d="M92.7744 18.5C93.5264 18.5 94.0464 18.2377 94.3415 17.7415H94.3837V18.4178H96V15.1182C96 14.091 94.9845 13.5 93.6107 13.5C92.1595 13.5 91.3373 14.1574 91.2003 15.0424L92.785 15.0929C92.8587 14.7832 93.1434 14.5936 93.5966 14.5936C94.0183 14.5936 94.2853 14.7769 94.2853 15.1024V15.1182C94.2853 15.4153 93.9269 15.4785 93.0063 15.5512C91.9136 15.6334 91 15.9968 91 17.0714C91 18.0322 91.7414 18.5 92.7744 18.5ZM93.305 17.4886C92.9079 17.4886 92.6268 17.318 92.6268 16.9956C92.6268 16.6827 92.9009 16.493 93.3893 16.4267C93.7091 16.3856 94.1026 16.3224 94.2959 16.2307V16.6922C94.2959 17.1662 93.8531 17.4886 93.305 17.4886Z" fill="#24292E"/>
<path d="M91.0873 36H95.5V34.8468H93.0841V34.8092L93.7972 34.1561C95.0896 33.0376 95.4272 32.4682 95.4272 31.789C95.4272 30.7225 94.5511 30 93.1976 30C91.879 30 90.9971 30.7543 91 31.9595H92.3651C92.3651 31.4249 92.697 31.1156 93.1918 31.1156C93.6779 31.1156 94.0301 31.4133 94.0301 31.9017C94.0301 32.3439 93.7506 32.6445 93.2616 33.0809L91.0873 34.9711V36Z" fill="#24292E"/>
<defs>
<linearGradient id="paint0_linear_1248_126643" x1="0" y1="6.5052" x2="15" y2="6.5052" gradientUnits="userSpaceOnUse">
<stop stop-color="#F2CC0C"/>
<stop offset="1" stop-color="#FF9830"/>
</linearGradient>
<linearGradient id="paint1_linear_1248_126643" x1="43" y1="15.5052" x2="58" y2="15.5052" gradientUnits="userSpaceOnUse">
<stop stop-color="#F2CC0C"/>
<stop offset="1" stop-color="#FF9830"/>
</linearGradient>
<linearGradient id="paint2_linear_1248_126643" x1="86" y1="15.5052" x2="101" y2="15.5052" gradientUnits="userSpaceOnUse">
<stop stop-color="#F2CC0C"/>
<stop offset="1" stop-color="#FF9830"/>
</linearGradient>
</defs>
</svg>
