<svg width="119" height="48" viewBox="0 0 119 48" fill="none" xmlns="http://www.w3.org/2000/svg">
<path d="M42.3704 20.6776C42.308 20.6218 42.2344 20.5781 42.1539 20.549C41.9941 20.4877 41.815 20.4877 41.6552 20.549C41.5747 20.5781 41.5011 20.6218 41.4387 20.6776L40.1265 21.9023C40.0029 22.0177 39.9335 22.174 39.9335 22.3371C39.9335 22.5002 40.0029 22.6566 40.1265 22.7719C40.25 22.8872 40.4176 22.952 40.5923 22.952C40.7671 22.952 40.9346 22.8872 41.0582 22.7719L41.2484 22.5882V27.2361C41.2484 27.3985 41.3176 27.5543 41.4406 27.6691C41.5637 27.784 41.7306 27.8485 41.9046 27.8485C42.0786 27.8485 42.2455 27.784 42.3685 27.6691C42.4916 27.5543 42.5607 27.3985 42.5607 27.2361V22.5882L42.751 22.7719C42.8119 22.8293 42.8845 22.8749 42.9645 22.906C43.0444 22.937 43.1302 22.953 43.2168 22.953C43.3034 22.953 43.3892 22.937 43.4691 22.906C43.5491 22.8749 43.6216 22.8293 43.6826 22.7719C43.7441 22.715 43.7929 22.6473 43.8263 22.5726C43.8596 22.498 43.8767 22.418 43.8767 22.3371C43.8767 22.2563 43.8596 22.1762 43.8263 22.1016C43.7929 22.027 43.7441 21.9593 43.6826 21.9023L42.3704 20.6776ZM45.8413 21.7247H52.4024C52.5764 21.7247 52.7433 21.6602 52.8664 21.5454C52.9894 21.4305 53.0585 21.2748 53.0585 21.1124C53.0585 20.95 52.9894 20.7942 52.8664 20.6794C52.7433 20.5645 52.5764 20.5 52.4024 20.5H45.8413C45.6672 20.5 45.5004 20.5645 45.3773 20.6794C45.2543 20.7942 45.1851 20.95 45.1851 21.1124C45.1851 21.2748 45.2543 21.4305 45.3773 21.5454C45.5004 21.6602 45.6672 21.7247 45.8413 21.7247V21.7247ZM52.4024 26.6237H45.8413C45.6672 26.6237 45.5004 26.6883 45.3773 26.8031C45.2543 26.9179 45.1851 27.0737 45.1851 27.2361C45.1851 27.3985 45.2543 27.5543 45.3773 27.6691C45.5004 27.784 45.6672 27.8485 45.8413 27.8485H52.4024C52.5764 27.8485 52.7433 27.784 52.8664 27.6691C52.9894 27.5543 53.0585 27.3985 53.0585 27.2361C53.0585 27.0737 52.9894 26.9179 52.8664 26.8031C52.7433 26.6883 52.5764 26.6237 52.4024 26.6237ZM52.4024 23.5619H45.8413C45.6672 23.5619 45.5004 23.6264 45.3773 23.7412C45.2543 23.8561 45.1851 24.0118 45.1851 24.1742C45.1851 24.3367 45.2543 24.4924 45.3773 24.6073C45.5004 24.7221 45.6672 24.7866 45.8413 24.7866H52.4024C52.5764 24.7866 52.7433 24.7221 52.8664 24.6073C52.9894 24.4924 53.0585 24.3367 53.0585 24.1742C53.0585 24.0118 52.9894 23.8561 52.8664 23.7412C52.7433 23.6264 52.5764 23.5619 52.4024 23.5619Z" fill="#26262A"/>
<path d="M66.9067 30C67.6011 30 72.9327 26 72.9327 24C72.9327 22 67.7357 18 66.9067 18C66.0778 18 65.4023 18.5 65.4023 19.4756C65.4023 20.4512 68.9067 22.9206 68.9067 22.9206C68.9067 22.9206 61.2539 22.25 61 22.9206C60.7461 23.5911 60.7461 24.4089 61 25.0794C61.2539 25.75 68.9067 25.0794 68.9067 25.0794C68.9067 25.0794 65.4023 27.75 65.4023 28.5301C65.4023 29.3103 66.2124 30 66.9067 30Z" fill="#24292E"/>
<g clip-path="url(#clip0_1248_126251)">
<path d="M81 1.05495V13.1763H95.9563V0H81.625C81.4592 0 81.3003 0.111146 81.1831 0.308988C81.0658 0.506829 81 0.77516 81 1.05495Z" fill="url(#paint0_linear_1248_126251)"/>
<path d="M95.9563 17.3962H81V30.5725H95.9563V17.3962Z" fill="#84AFF1"/>
<path d="M95.9563 34.8132H81V48.0001H95.9563V34.8132Z" fill="#84AFF1"/>
<path d="M81 1.04083V13H96V0H81.6268C81.4606 0 81.3011 0.109659 81.1836 0.304853C81.066 0.500047 81 0.764787 81 1.04083Z" fill="url(#paint1_linear_1248_126251)"/>
<path d="M96 17.5H81V30.5H96V17.5Z" fill="#84AFF1"/>
<path d="M96 35H81V48H96V35Z" fill="#84AFF1"/>
<path d="M88.58 10.25H89.0225V9.63828C90.2662 9.57764 90.9946 8.9791 91 8.00879C90.9946 7.14658 90.3984 6.61924 89.3085 6.38457L89.0225 6.32129V5.19541C89.4056 5.25078 89.616 5.46699 89.6457 5.79395H90.9245C90.9137 4.84209 90.1826 4.18027 89.0225 4.10908V3.5H88.58V4.10908C87.4362 4.18555 86.6349 4.83418 86.643 5.77813C86.6403 6.59814 87.2284 7.05957 88.1835 7.27314L88.58 7.36279V8.55195C88.1079 8.49658 87.8058 8.23291 87.7788 7.77676H86.5C86.5162 8.97119 87.3174 9.575 88.58 9.63828V10.25ZM89.0225 8.54932V7.4709C89.446 7.59746 89.6403 7.75039 89.6457 8.00615C89.6403 8.28565 89.4164 8.49131 89.0225 8.54932ZM88.58 6.21582C88.2266 6.11035 88.0162 5.95215 88.0243 5.68848C88.027 5.44063 88.2104 5.24814 88.58 5.19541V6.21582Z" fill="#24292E"/>
</g>
<g clip-path="url(#clip1_1248_126251)">
<path d="M114.956 17.3962H100V30.5725H114.956V17.3962Z" fill="#84AFF1"/>
<path d="M114.956 34.8132H100V48.0001H114.956V34.8132Z" fill="#84AFF1"/>
<path d="M115 17.5001H100V30.5001H115V17.5001Z" fill="#84AFF1"/>
<path d="M115 35.0001H100V48.0001H115V35.0001Z" fill="#84AFF1"/>
<path d="M100 13.0001H115V1.04089C115 0.764848 114.934 0.500108 114.816 0.304914C114.699 0.10972 114.539 6.10352e-05 114.373 6.10352e-05L100 6.10352e-05V13.0001Z" fill="url(#paint2_linear_1248_126251)"/>
<path d="M107.58 10.25H108.022V9.63828C109.266 9.57764 109.995 8.9791 110 8.00879C109.995 7.14658 109.398 6.61924 108.308 6.38457L108.022 6.32129V5.19541C108.406 5.25078 108.616 5.46699 108.646 5.79395H109.924C109.914 4.84209 109.183 4.18027 108.022 4.10908V3.5H107.58V4.10908C106.436 4.18555 105.635 4.83418 105.643 5.77813C105.64 6.59814 106.228 7.05957 107.183 7.27314L107.58 7.36279V8.55195C107.108 8.49658 106.806 8.23291 106.779 7.77676H105.5C105.516 8.97119 106.317 9.575 107.58 9.63828V10.25ZM108.022 8.54932V7.4709C108.446 7.59746 108.64 7.75039 108.646 8.00615C108.64 8.28565 108.416 8.49131 108.022 8.54932ZM107.58 6.21582C107.227 6.11035 107.016 5.95215 107.024 5.68848C107.027 5.44063 107.21 5.24814 107.58 5.19541V6.21582Z" fill="#24292E"/>
</g>
<g clip-path="url(#clip2_1248_126251)">
<path d="M0 1.04083V13H15V0H0.626828C0.460583 0 0.301147 0.109659 0.183594 0.304853C0.0660407 0.500047 0 0.764787 0 1.04083Z" fill="url(#paint3_linear_1248_126251)"/>
<path d="M15 17.5H0V30.5H15V17.5Z" fill="#84AFF1"/>
<path d="M15 35H0V48H15V35Z" fill="#84AFF1"/>
<path d="M6.77442 9.5C7.52635 9.5 8.04638 9.23767 8.34153 8.74147H8.3837V9.41783H10V6.1182C10 5.09102 8.98454 4.5 7.61068 4.5C6.15952 4.5 5.33732 5.1574 5.20028 6.04235L6.78496 6.09292C6.85875 5.78319 7.14336 5.59355 7.59663 5.59355C8.01827 5.59355 8.28531 5.77686 8.28531 6.1024V6.1182C8.28531 6.4153 7.92692 6.47851 7.00633 6.5512C5.91356 6.63338 5 6.99684 5 8.07143C5 9.03224 5.74139 9.5 6.77442 9.5ZM7.30499 8.48862C6.90794 8.48862 6.62684 8.31795 6.62684 7.99558C6.62684 7.68268 6.90091 7.49305 7.38932 7.42668C7.70907 7.38559 8.1026 7.32238 8.29585 7.23072V7.69216C8.29585 8.16625 7.85313 8.48862 7.30499 8.48862Z" fill="#24292E"/>
</g>
<g clip-path="url(#clip3_1248_126251)">
<path d="M19 13H34V1.04083C34 0.764787 33.934 0.500047 33.8164 0.304853C33.6989 0.109659 33.5394 0 33.3732 0L19 0V13Z" fill="url(#paint4_linear_1248_126251)"/>
<path d="M34 17.5H19V30.5H34V17.5Z" fill="#84AFF1"/>
<path d="M34 35H19V48H34V35Z" fill="#84AFF1"/>
<path d="M24.5 9.43623H26.0663V8.71449H26.1149C26.3155 9.12609 26.7621 9.5 27.5129 9.5C28.6133 9.5 29.5 8.72898 29.5 7.21304C29.5 5.64203 28.5615 4.92609 27.5227 4.92609C26.7362 4.92609 26.3058 5.33768 26.1149 5.74638H26.0825V3.5H24.5V9.43623ZM26.0502 7.21015C26.0502 6.48261 26.3867 6.03333 26.966 6.03333C27.5518 6.03333 27.8754 6.4942 27.8754 7.21015C27.8754 7.92899 27.5518 8.39565 26.966 8.39565C26.3867 8.39565 26.0502 7.93188 26.0502 7.21015Z" fill="#24292E"/>
</g>
<defs>
<linearGradient id="paint0_linear_1248_126251" x1="81" y1="6.59344" x2="95.9563" y2="6.59344" gradientUnits="userSpaceOnUse">
<stop stop-color="#F2CC0C"/>
<stop offset="1" stop-color="#FF9830"/>
</linearGradient>
<linearGradient id="paint1_linear_1248_126251" x1="81" y1="6.5052" x2="96" y2="6.5052" gradientUnits="userSpaceOnUse">
<stop stop-color="#F2CC0C"/>
<stop offset="1" stop-color="#FF9830"/>
</linearGradient>
<linearGradient id="paint2_linear_1248_126251" x1="100" y1="6.50527" x2="115" y2="6.50527" gradientUnits="userSpaceOnUse">
<stop stop-color="#F2CC0C"/>
<stop offset="1" stop-color="#FF9830"/>
</linearGradient>
<linearGradient id="paint3_linear_1248_126251" x1="0" y1="6.5052" x2="15" y2="6.5052" gradientUnits="userSpaceOnUse">
<stop stop-color="#F2CC0C"/>
<stop offset="1" stop-color="#FF9830"/>
</linearGradient>
<linearGradient id="paint4_linear_1248_126251" x1="19" y1="6.5052" x2="34" y2="6.5052" gradientUnits="userSpaceOnUse">
<stop stop-color="#F2CC0C"/>
<stop offset="1" stop-color="#FF9830"/>
</linearGradient>
<clipPath id="clip0_1248_126251">
<rect width="15" height="48" fill="white" transform="translate(81)"/>
</clipPath>
<clipPath id="clip1_1248_126251">
<rect width="15" height="48" fill="white" transform="translate(100)"/>
</clipPath>
<clipPath id="clip2_1248_126251">
<rect width="15" height="48" fill="white"/>
</clipPath>
<clipPath id="clip3_1248_126251">
<rect width="15" height="48" fill="white" transform="translate(19)"/>
</clipPath>
</defs>
</svg>
