<svg width="138" height="59" viewBox="0 0 138 59" fill="none" xmlns="http://www.w3.org/2000/svg">
<path d="M0 1.04083V13H15V0H0.626828C0.460583 0 0.301147 0.109659 0.183594 0.304853C0.0660407 0.500047 0 0.764787 0 1.04083Z" fill="url(#paint0_linear_1248_126445)"/>
<path d="M15 17.5H0V30.5H15V17.5Z" fill="#84AFF1"/>
<path d="M15 35H0V48H15V35Z" fill="#84AFF1"/>
<path d="M8.5 21H7.07158L5.5 21.9199V23.1738L6.92531 22.3535H6.96266V27H8.5V21Z" fill="#24292E"/>
<path d="M5.33733 44.5H9.75V43.3468H7.33409V43.3092L8.04722 42.6561C9.33959 41.5376 9.67723 40.9682 9.67723 40.289C9.67723 39.2225 8.8011 38.5 7.44761 38.5C6.12905 38.5 5.2471 39.2543 5.25001 40.4595H6.61514C6.61514 39.9249 6.94696 39.6156 7.44179 39.6156C7.92788 39.6156 8.28008 39.9133 8.28008 40.4017C8.28008 40.8439 8.00065 41.1445 7.51165 41.5809L5.33733 43.4711V44.5Z" fill="#24292E"/>
<path d="M6.68848 53.3679H7.69842C7.6899 52.5518 7.04004 52 6.02583 52C5.02868 52 4.31064 52.5433 4.31703 53.3551C4.3149 54.0178 4.77939 54.3906 5.53365 54.5632L5.98961 54.6697C6.46902 54.7805 6.68422 54.9105 6.68848 55.1555C6.68422 55.4219 6.43493 55.6072 6.01092 55.6072C5.5443 55.6072 5.23748 55.3899 5.21404 54.9702H4.2041C4.21689 55.9908 4.9264 56.4787 6.0237 56.4787C7.11035 56.4787 7.75382 55.9865 7.75808 55.1577C7.75382 54.4609 7.28294 54.0348 6.42214 53.8452L6.04714 53.7599C5.65083 53.6747 5.39941 53.5426 5.40794 53.2827C5.41007 53.044 5.61461 52.8714 6.0237 52.8714C6.43493 52.8714 6.66078 53.0568 6.68848 53.3679Z" fill="#24292E"/>
<path d="M10.3 52.0597H9.322L8.24601 52.7287V53.6406L9.22186 53.044H9.24743V56.4233H10.3V52.0597Z" fill="#24292E"/>
<path d="M6.77442 9.5C7.52635 9.5 8.04638 9.23767 8.34153 8.74147H8.3837V9.41783H10V6.1182C10 5.09102 8.98454 4.5 7.61068 4.5C6.15952 4.5 5.33732 5.1574 5.20028 6.04235L6.78496 6.09292C6.85875 5.78319 7.14336 5.59355 7.59663 5.59355C8.01827 5.59355 8.28531 5.77686 8.28531 6.1024V6.1182C8.28531 6.4153 7.92692 6.47851 7.00633 6.5512C5.91356 6.63338 5 6.99684 5 8.07143C5 9.03224 5.74139 9.5 6.77442 9.5ZM7.30499 8.48862C6.90794 8.48862 6.62684 8.31795 6.62684 7.99558C6.62684 7.68268 6.90091 7.49305 7.38932 7.42668C7.70907 7.38559 8.1026 7.32238 8.29585 7.23072V7.69216C8.29585 8.16625 7.85313 8.48862 7.30499 8.48862Z" fill="#24292E"/>
<path d="M27.3343 35.5H30.674V31.174H35V27.8343H30.674V23.5H27.3343V27.8343H23V31.174H27.3343V35.5Z" fill="#24292E"/>
<path d="M58 27H43V40H58V27Z" fill="#3865AB"/>
<path d="M43 10.5408V22.5H58V9.5H43.6268L43 9.50004L43 10.5408Z" fill="url(#paint1_linear_1248_126445)"/>
<path d="M50.4792 36.5C51.8085 36.5 52.7528 35.7757 52.75 34.7605C52.7528 34.0418 52.2958 33.5285 51.4208 33.423V33.3774C52.0771 33.2804 52.5423 32.827 52.5395 32.1711C52.5423 31.2186 51.706 30.5 50.4903 30.5C49.2663 30.5 48.3746 31.23 48.3635 32.2681H49.6734C49.6845 31.8688 50.0334 31.6008 50.4903 31.6008C50.9251 31.6008 51.2214 31.8717 51.2186 32.2624C51.2214 32.6673 50.8725 32.9468 50.3685 32.9468H49.8174V33.9506H50.3685C50.9417 33.9506 51.3155 34.2414 51.31 34.6521C51.3155 35.0656 50.9721 35.3536 50.4848 35.3536C50.0001 35.3536 49.6429 35.0884 49.6291 34.7034H48.25C48.2611 35.7586 49.1832 36.5 50.4792 36.5Z" fill="white"/>
<path d="M49.4844 45.3679H50.4943C50.4858 44.5518 49.8359 44 48.8217 44C47.8246 44 47.1065 44.5433 47.1129 45.3551C47.1108 46.0178 47.5753 46.3906 48.3295 46.5632L48.7855 46.6697C49.2649 46.7805 49.4801 46.9105 49.4844 47.1555C49.4801 47.4219 49.2308 47.6072 48.8068 47.6072C48.3402 47.6072 48.0334 47.3899 48.0099 46.9702H47C47.0128 47.9908 47.7223 48.4787 48.8196 48.4787C49.9062 48.4787 50.5497 47.9865 50.554 47.1577C50.5497 46.4609 50.0788 46.0348 49.218 45.8452L48.843 45.7599C48.4467 45.6747 48.1953 45.5426 48.2038 45.2827C48.206 45.044 48.4105 44.8714 48.8196 44.8714C49.2308 44.8714 49.4567 45.0568 49.4844 45.3679Z" fill="#24292E"/>
<path d="M51.0781 48.4233H54.3082V47.5732H52.5398V47.5455L53.0618 47.0639C54.0078 46.2393 54.255 45.8196 54.255 45.3189C54.255 44.5327 53.6136 44 52.6229 44C51.6577 44 51.0121 44.5561 51.0142 45.4446H52.0135C52.0135 45.0504 52.2564 44.8224 52.6186 44.8224C52.9744 44.8224 53.2322 45.0419 53.2322 45.402C53.2322 45.728 53.0277 45.9496 52.6697 46.2713L51.0781 47.6648V48.4233Z" fill="#24292E"/>
<path d="M49.7744 18.5C50.5264 18.5 51.0464 18.2377 51.3415 17.7415H51.3837V18.4178H53V15.1182C53 14.091 51.9845 13.5 50.6107 13.5C49.1595 13.5 48.3373 14.1574 48.2003 15.0424L49.785 15.0929C49.8587 14.7832 50.1434 14.5936 50.5966 14.5936C51.0183 14.5936 51.2853 14.7769 51.2853 15.1024V15.1182C51.2853 15.4153 50.9269 15.4785 50.0063 15.5512C48.9136 15.6334 48 15.9968 48 17.0714C48 18.0322 48.7414 18.5 49.7744 18.5ZM50.305 17.4886C49.9079 17.4886 49.6268 17.318 49.6268 16.9956C49.6268 16.6827 49.9009 16.493 50.3893 16.4267C50.7091 16.3856 51.1026 16.3224 51.2959 16.2307V16.6922C51.2959 17.1662 50.8531 17.4886 50.305 17.4886Z" fill="#24292E"/>
<path d="M71.9067 35.5C72.6011 35.5 77.9327 31.5 77.9327 29.5C77.9327 27.5 72.7357 23.5 71.9067 23.5C71.0778 23.5 70.4023 24 70.4023 24.9756C70.4023 25.9512 73.9067 28.4206 73.9067 28.4206C73.9067 28.4206 66.2539 27.75 66 28.4206C65.7461 29.0911 65.7461 29.9089 66 30.5794C66.2539 31.25 73.9067 30.5794 73.9067 30.5794C73.9067 30.5794 70.4023 33.25 70.4023 34.0301C70.4023 34.8103 71.2124 35.5 71.9067 35.5Z" fill="#24292E"/>
<g clip-path="url(#clip0_1248_126445)">
<path d="M110 18.5H86V28H110V18.5Z" fill="#84AFF1"/>
<path d="M110 31.25H86V40.75H110V31.25Z" fill="#84AFF1"/>
<path d="M110 44H86V53.5H110V44Z" fill="#3865AB"/>
<path d="M86 6.30064V15.5H110V5.5H87.0029C86.7369 5.5 86.4818 5.58435 86.2937 5.7345C86.1057 5.88465 86 6.0883 86 6.30064Z" fill="url(#paint2_linear_1248_126445)"/>
<path d="M97.4453 22.3744H98.4394C98.431 21.5545 97.7913 21 96.7931 21C95.8116 21 95.1049 21.5459 95.1111 22.3616C95.1091 23.0274 95.5662 23.402 96.3086 23.5754L96.7574 23.6824C97.2293 23.7938 97.4411 23.9244 97.4453 24.1706C97.4411 24.4382 97.1957 24.6244 96.7784 24.6244C96.3191 24.6244 96.0171 24.406 95.9941 23.9843H95C95.0126 25.0098 95.7109 25.5 96.791 25.5C97.8605 25.5 98.4939 25.0055 98.4981 24.1727C98.4939 23.4726 98.0304 23.0445 97.1832 22.8539L96.8141 22.7683C96.424 22.6827 96.1765 22.55 96.1849 22.2888C96.187 22.049 96.3883 21.8756 96.791 21.8756C97.1957 21.8756 97.418 22.0618 97.4453 22.3744Z" fill="#24292E"/>
<path d="M101 21.0599H100.037L98.9783 21.7322V22.6484L99.9388 22.049H99.964V25.4443H101V21.0599Z" fill="#24292E"/>
<path d="M97.4453 35.1244H98.4394C98.431 34.3045 97.7913 33.75 96.7931 33.75C95.8116 33.75 95.1049 34.2959 95.1111 35.1116C95.1091 35.7774 95.5662 36.152 96.3086 36.3254L96.7574 36.4324C97.2293 36.5438 97.4411 36.6744 97.4453 36.9206C97.4411 37.1882 97.1957 37.3744 96.7784 37.3744C96.3191 37.3744 96.0171 37.156 95.9941 36.7343H95C95.0126 37.7598 95.7109 38.25 96.791 38.25C97.8605 38.25 98.4939 37.7555 98.4981 36.9227C98.4939 36.2226 98.0304 35.7945 97.1832 35.6039L96.8141 35.5183C96.424 35.4327 96.1765 35.3 96.1849 35.0388C96.187 34.799 96.3883 34.6256 96.791 34.6256C97.1957 34.6256 97.418 34.8118 97.4453 35.1244Z" fill="#24292E"/>
<path d="M101 33.8099H100.037L98.9783 34.4822V35.3984L99.9388 34.799H99.964V38.1943H101V33.8099Z" fill="#24292E"/>
<path d="M96.9962 47.8744H98.0109C98.0024 47.0545 97.3494 46.5 96.3304 46.5C95.3285 46.5 94.607 47.0459 94.6135 47.8616C94.6113 48.5274 95.078 48.902 95.8359 49.0754L96.294 49.1824C96.7757 49.2938 96.9919 49.4244 96.9962 49.6706C96.9919 49.9382 96.7414 50.1244 96.3154 50.1244C95.8466 50.1244 95.5383 49.906 95.5147 49.4843H94.5C94.5128 50.5098 95.2257 51 96.3283 51C97.4201 51 98.0666 50.5055 98.0709 49.6727C98.0666 48.9726 97.5935 48.5445 96.7286 48.3539L96.3518 48.2683C95.9536 48.1827 95.701 48.05 95.7096 47.7888C95.7117 47.549 95.9172 47.3756 96.3283 47.3756C96.7414 47.3756 96.9684 47.5618 96.9962 47.8744Z" fill="white"/>
<path d="M98.5975 50.9443H101.843V50.0902H100.066V50.0623L100.591 49.5785C101.541 48.75 101.789 48.3283 101.789 47.8252C101.789 47.0352 101.145 46.5 100.15 46.5C99.1798 46.5 98.5312 47.0588 98.5333 47.9515H99.5373C99.5373 47.5554 99.7814 47.3264 100.145 47.3264C100.503 47.3264 100.762 47.5469 100.762 47.9087C100.762 48.2362 100.556 48.4588 100.197 48.7821L98.5975 50.1822V50.9443Z" fill="white"/>
</g>
<g clip-path="url(#clip1_1248_126445)">
<path d="M114 15.5H138V6.30064C138 6.0883 137.894 5.88465 137.706 5.7345C137.518 5.58435 137.263 5.5 136.997 5.5H114V15.5Z" fill="url(#paint3_linear_1248_126445)"/>
<path d="M138 18.5H114V28H138V18.5Z" fill="#84AFF1"/>
<path d="M138 31.25H114V40.75H138V31.25Z" fill="#84AFF1"/>
<path d="M138 44H114V53.5H138V44Z" fill="#3865AB"/>
<path d="M127 20.25H125.572L124 21.1699V22.4238L125.425 21.6035H125.463V26.25H127V20.25Z" fill="#24292E"/>
<path d="M123.837 39H128.25V37.8468H125.834V37.8092L126.547 37.1561C127.84 36.0376 128.177 35.4682 128.177 34.789C128.177 33.7225 127.301 33 125.948 33C124.629 33 123.747 33.7543 123.75 34.9595H125.115C125.115 34.4249 125.447 34.1156 125.942 34.1156C126.428 34.1156 126.78 34.4133 126.78 34.9017C126.78 35.3439 126.501 35.6445 126.012 36.0809L123.837 37.9711V39Z" fill="#24292E"/>
<path d="M125.979 51.75C127.308 51.75 128.253 51.0257 128.25 50.0105C128.253 49.2918 127.796 48.7785 126.921 48.673V48.6274C127.577 48.5304 128.042 48.077 128.04 47.4211C128.042 46.4686 127.206 45.75 125.99 45.75C124.766 45.75 123.875 46.48 123.864 47.5181H125.173C125.184 47.1188 125.533 46.8508 125.99 46.8508C126.425 46.8508 126.721 47.1217 126.719 47.5124C126.721 47.9173 126.372 48.1968 125.868 48.1968H125.317V49.2006H125.868C126.442 49.2006 126.816 49.4914 126.81 49.9021C126.816 50.3156 126.472 50.6036 125.985 50.6036C125.5 50.6036 125.143 50.3384 125.129 49.9534H123.75C123.761 51.0086 124.683 51.75 125.979 51.75Z" fill="white"/>
<path d="M124.774 13C125.526 13 126.046 12.7377 126.342 12.2415H126.384V12.9178H128V9.6182C128 8.59102 126.985 8 125.611 8C124.16 8 123.337 8.6574 123.2 9.54235L124.785 9.59292C124.859 9.28319 125.143 9.09355 125.597 9.09355C126.018 9.09355 126.285 9.27686 126.285 9.6024V9.6182C126.285 9.9153 125.927 9.97851 125.006 10.0512C123.914 10.1334 123 10.4968 123 11.5714C123 12.5322 123.741 13 124.774 13ZM125.305 11.9886C124.908 11.9886 124.627 11.818 124.627 11.4956C124.627 11.1827 124.901 10.993 125.389 10.9267C125.709 10.8856 126.103 10.8224 126.296 10.7307V11.1922C126.296 11.6662 125.853 11.9886 125.305 11.9886Z" fill="#24292E"/>
</g>
<defs>
<linearGradient id="paint0_linear_1248_126445" x1="0" y1="6.5052" x2="15" y2="6.5052" gradientUnits="userSpaceOnUse">
<stop stop-color="#F2CC0C"/>
<stop offset="1" stop-color="#FF9830"/>
</linearGradient>
<linearGradient id="paint1_linear_1248_126445" x1="43" y1="16.0052" x2="58" y2="16.0052" gradientUnits="userSpaceOnUse">
<stop stop-color="#F2CC0C"/>
<stop offset="1" stop-color="#FF9830"/>
</linearGradient>
<linearGradient id="paint2_linear_1248_126445" x1="86" y1="10.504" x2="110" y2="10.504" gradientUnits="userSpaceOnUse">
<stop stop-color="#F2CC0C"/>
<stop offset="1" stop-color="#FF9830"/>
</linearGradient>
<linearGradient id="paint3_linear_1248_126445" x1="114" y1="10.504" x2="138" y2="10.504" gradientUnits="userSpaceOnUse">
<stop stop-color="#F2CC0C"/>
<stop offset="1" stop-color="#FF9830"/>
</linearGradient>
<clipPath id="clip0_1248_126445">
<rect width="24" height="48" fill="white" transform="translate(86 5.5)"/>
</clipPath>
<clipPath id="clip1_1248_126445">
<rect width="24" height="48" fill="white" transform="translate(114 5.5)"/>
</clipPath>
</defs>
</svg>
