<svg width="124" height="48" viewBox="0 0 124 48" fill="none" xmlns="http://www.w3.org/2000/svg">
<g clip-path="url(#clip0_1648_105907)">
<path d="M76 0.611699V7.64012H90.394V0H76.6015C76.442 0 76.289 0.0644467 76.1762 0.179162C76.0634 0.293878 76 0.449466 76 0.611699Z" fill="url(#paint0_linear_1648_105907)"/>
<path d="M109.606 7.64012H124V0.611699C124 0.449466 123.937 0.293878 123.824 0.179162C123.711 0.0644467 123.558 0 123.399 0L109.606 0V7.64012Z" fill="url(#paint1_linear_1648_105907)"/>
<path d="M107.194 0H92.8V7.64012H107.194V0Z" fill="url(#paint2_linear_1648_105907)"/>
<path d="M107.194 10.0869H92.8V17.727H107.194V10.0869Z" fill="#84AFF1"/>
<path d="M90.394 10.0869H76V17.727H90.394V10.0869Z" fill="#84AFF1"/>
<path d="M124 10.0869H109.606V17.727H124V10.0869Z" fill="#84AFF1"/>
<path d="M124 20.1799H109.606V27.8262H124V20.1799Z" fill="#3865AB"/>
<path d="M107.194 20.1799H92.8V27.8262H107.194V20.1799Z" fill="#3865AB"/>
<path d="M90.394 20.1799H76V27.8262H90.394V20.1799Z" fill="#3865AB"/>
<path d="M107.194 30.2668H92.8V37.907H107.194V30.2668Z" fill="#84AFF1"/>
<path d="M124 30.2668H109.606V37.907H124V30.2668Z" fill="#84AFF1"/>
<path d="M90.394 30.2668H76V37.907H90.394V30.2668Z" fill="#84AFF1"/>
<path d="M107.194 40.3599H92.8V48H107.194V40.3599Z" fill="#3865AB"/>
<path d="M124 47.3883V40.3721H109.606V48H123.399C123.558 48 123.711 47.9355 123.824 47.8208C123.937 47.7061 124 47.5505 124 47.3883Z" fill="#3865AB"/>
<path d="M90.394 48V40.3721H76V47.3883C76 47.5505 76.0634 47.7061 76.1762 47.8208C76.289 47.9355 76.442 48 76.6015 48H90.394Z" fill="#3865AB"/>
</g>
<path d="M61.9067 30.4001C62.6011 30.4001 67.9327 26.1334 67.9327 24.0001C67.9327 21.8668 62.7357 17.6001 61.9067 17.6001C61.0778 17.6001 60.4023 18.1334 60.4023 19.1741C60.4023 20.2147 63.9067 22.8487 63.9067 22.8487C63.9067 22.8487 56.2539 22.1334 56 22.8487C55.7461 23.564 55.7461 24.4362 56 25.1515C56.2539 25.8668 63.9067 25.1515 63.9067 25.1515C63.9067 25.1515 60.4023 28.0001 60.4023 28.8323C60.4023 29.6644 61.2124 30.4001 61.9067 30.4001Z" fill="#24292E"/>
<g clip-path="url(#clip1_1648_105907)">
<path d="M20.5657 14.8473C20.3886 14.8474 20.2136 14.8094 20.0525 14.736L10.963 10.6159L1.68804 14.1483C1.38138 14.2648 1.04102 14.2546 0.741842 14.12C0.442666 13.9854 0.209179 13.7375 0.0927449 13.4307C-0.0236892 13.1238 -0.0135325 12.7833 0.120981 12.484C0.255494 12.1847 0.503345 11.9511 0.81001 11.8346L10.5796 8.12275C10.8825 7.9973 11.2228 7.9973 11.5257 8.12275L20.2813 12.0882L29.5562 2.19003C29.7339 2.01998 29.9583 1.90678 30.2006 1.86491C30.4429 1.82304 30.6922 1.85438 30.9166 1.95495L40.2843 6.01939L49.0832 0.204206C49.2187 0.111618 49.3713 0.0469507 49.5321 0.0139747C49.6929 -0.0190012 49.8586 -0.0196266 50.0197 0.0121352C50.1807 0.043897 50.3338 0.10741 50.47 0.198973C50.6063 0.290536 50.7229 0.408317 50.8132 0.545449C50.9035 0.682581 50.9656 0.836322 50.9959 0.997709C51.0262 1.1591 51.024 1.3249 50.9896 1.48546C50.9552 1.64602 50.8892 1.79812 50.7954 1.93289C50.7017 2.06766 50.582 2.18241 50.4435 2.27045L41.0881 8.45682C40.916 8.56985 40.7184 8.63811 40.5133 8.6554C40.3081 8.67268 40.1019 8.63845 39.9133 8.5558L30.7434 4.57178L21.4685 14.47C21.3516 14.591 21.2112 14.6869 21.056 14.7518C20.9008 14.8167 20.7339 14.8492 20.5657 14.8473Z" fill="url(#paint3_linear_1648_105907)"/>
<path d="M49.7633 10.9624L40.408 20.8606L30.4343 13.4369L20.5657 20.8606L11.0063 19.0047L1.23666 27.047H1.30468V47.994H49.8932L49.7633 10.9624Z" fill="url(#paint4_linear_1648_105907)"/>
<path d="M1.30468 28.2841H1.23666C0.982542 28.2834 0.73483 28.2043 0.527227 28.0577C0.319623 27.911 0.162208 27.704 0.0763958 27.4647C-0.00941619 27.2254 -0.0194578 26.9654 0.047637 26.7202C0.114732 26.475 0.255705 26.2564 0.451379 26.0942L10.221 18.0519C10.3615 17.9361 10.5258 17.8528 10.7021 17.8079C10.8785 17.763 11.0626 17.7576 11.2413 17.7921L20.2627 19.5428L29.6799 12.447C29.894 12.2864 30.1543 12.1996 30.4219 12.1996C30.6895 12.1996 30.9499 12.2864 31.1639 12.447L40.2534 19.2149L48.8482 10.1148C48.9578 9.9891 49.0917 9.88688 49.2418 9.81428C49.3919 9.74167 49.5551 9.70018 49.7216 9.6923C49.8882 9.68442 50.0546 9.7103 50.2108 9.76841C50.3671 9.82651 50.51 9.91562 50.631 10.0304C50.752 10.1452 50.8485 10.2832 50.9148 10.4363C50.9811 10.5893 51.0157 10.7542 51.0167 10.921C51.0177 11.0878 50.9849 11.2531 50.9204 11.4069C50.8559 11.5607 50.761 11.6999 50.6414 11.816L41.3046 21.7142C41.0967 21.9331 40.816 22.0685 40.5153 22.0947C40.2146 22.1209 39.9147 22.0362 39.6722 21.8565L30.4405 14.9835L21.3077 21.8503C21.1699 21.9547 21.0117 22.0289 20.8435 22.0684C20.6752 22.1078 20.5005 22.1115 20.3307 22.0792L11.3402 20.3347L2.31256 27.7583C2.19883 27.9202 2.04795 28.0524 1.87258 28.1439C1.69721 28.2354 1.50246 28.2835 1.30468 28.2841Z" fill="#84AFF1"/>
</g>
<defs>
<linearGradient id="paint0_linear_1648_105907" x1="76" y1="3.82312" x2="90.394" y2="3.82312" gradientUnits="userSpaceOnUse">
<stop stop-color="#F2CC0C"/>
<stop offset="1" stop-color="#FF9830"/>
</linearGradient>
<linearGradient id="paint1_linear_1648_105907" x1="109.606" y1="3.82312" x2="124" y2="3.82312" gradientUnits="userSpaceOnUse">
<stop stop-color="#F2CC0C"/>
<stop offset="1" stop-color="#FF9830"/>
</linearGradient>
<linearGradient id="paint2_linear_1648_105907" x1="92.8" y1="3.82312" x2="107.2" y2="3.82312" gradientUnits="userSpaceOnUse">
<stop stop-color="#F2CC0C"/>
<stop offset="1" stop-color="#FF9830"/>
</linearGradient>
<linearGradient id="paint3_linear_1648_105907" x1="-4.82403e-06" y1="7.42369" x2="51" y2="7.42369" gradientUnits="userSpaceOnUse">
<stop stop-color="#F2CC0C"/>
<stop offset="1" stop-color="#FF9830"/>
</linearGradient>
<linearGradient id="paint4_linear_1648_105907" x1="25.4382" y1="48.2414" x2="25.9148" y2="8.49405" gradientUnits="userSpaceOnUse">
<stop stop-color="#1F60C4" stop-opacity="0"/>
<stop offset="1" stop-color="#3865AB"/>
</linearGradient>
<clipPath id="clip0_1648_105907">
<rect width="48" height="48" fill="white" transform="translate(76)"/>
</clipPath>
<clipPath id="clip1_1648_105907">
<rect width="51" height="48" fill="white"/>
</clipPath>
</defs>
</svg>
