<svg xmlns="http://www.w3.org/2000/svg" xmlns:xlink="http://www.w3.org/1999/xlink" viewBox="0 0 79.32 79.35"><defs><style>.cls-1{fill:#3865ab;}.cls-2{fill:#84aff1;}.cls-3{fill:url(#linear-gradient);}</style><linearGradient id="linear-gradient" x1="16.1" y1="25.29" x2="48.05" y2="61.07" gradientUnits="userSpaceOnUse"><stop offset="0" stop-color="#f2cc0c"/><stop offset="1" stop-color="#ff9830"/></linearGradient></defs><g id="Layer_2" data-name="Layer 2"><g id="Layer_1-2" data-name="Layer 1"><path class="cls-1" d="M55.59,76.05,45.65,44.92a1,1,0,0,1,1-1.3l15.82.08,16.85.09A38.93,38.93,0,0,1,55.59,76.05Z"/><path class="cls-2" d="M79.32,35.79l-19.14-.1-15.41-.08a1,1,0,0,1-1-1L44,.06A39.77,39.77,0,0,1,79.32,35.79Z"/><path class="cls-3" d="M21.52,74.9A39.75,39.75,0,0,1,27.66,1.72,37.69,37.69,0,0,1,36,0l-.2,39.56a.41.41,0,0,0,0,.11,2.73,2.73,0,0,0,0,.41,1,1,0,0,0,0,.17.28.28,0,0,0,0,.09v0a3.39,3.39,0,0,0,.11.43L48,78.48A39.44,39.44,0,0,1,21.52,74.9Z"/></g></g></svg>