<svg xmlns="http://www.w3.org/2000/svg" xmlns:xlink="http://www.w3.org/1999/xlink" id="Layer_1" width="100" height="100" x="0" style="enable-background:new 0 0 100 100" y="0" version="1.1" viewBox="0 0 100 100" xml:space="preserve"><style type="text/css">.st0{fill:url(#SVGID_1_)}.st1{fill:#c9202f}.st2{fill:url(#SVGID_2_)}</style><g><linearGradient id="SVGID_1_" x1="34.361" x2="106.992" y1="59.931" y2="-19.086" gradientUnits="userSpaceOnUse"><stop offset="0" style="stop-color:#fff33b"/><stop offset=".059" style="stop-color:#ffe029"/><stop offset=".13" style="stop-color:#ffd218"/><stop offset=".203" style="stop-color:#fec90f"/><stop offset=".281" style="stop-color:#fdc70c"/><stop offset=".668" style="stop-color:#f3903f"/><stop offset=".888" style="stop-color:#ed683c"/><stop offset="1" style="stop-color:#e93e3a"/></linearGradient><path d="M51.8,0.1v47.4l45.1-14.7C89.8,13.4,72.4,0.8,51.8,0.1z" class="st0"/><path d="M98,36.3L52.9,50.9l17.7,24.3l10.2,14C97.1,76.6,103.7,56.1,98,36.3z" class="st1"/><linearGradient id="SVGID_2_" x1=".015" x2="77.842" y1="50.001" y2="50.001" gradientUnits="userSpaceOnUse"><stop offset="0" style="stop-color:#04a64d"/><stop offset="1" style="stop-color:#007e39"/></linearGradient><path d="M48.2,50.6V0.1C21.4,1,0,23,0,50C0,77.5,22.4,99.9,50,99.9c10.5,0,19.4-2.7,27.9-8.5L48.2,50.6z" class="st2"/></g></svg>