<?xml version="1.0" encoding="utf-8"?>
<!-- Generator: Adobe Illustrator 19.2.1, SVG Export Plug-In . SVG Version: 6.00 Build 0)  -->
<svg version="1.1" id="Layer_1" xmlns="http://www.w3.org/2000/svg" xmlns:xlink="http://www.w3.org/1999/xlink" x="0px" y="0px"
	 viewBox="0 0 78.8 79.9" style="enable-background:new 0 0 78.8 79.9;" xml:space="preserve">
<style type="text/css">
	.st0{fill:url(#symbol_1_);}
</style>
<g id="influxdb_logo">
	
		<linearGradient id="symbol_1_" gradientUnits="userSpaceOnUse" x1="41.5273" y1="41.85" x2="319.2919" y2="41.85" gradientTransform="matrix(1 0 0 -1 0 81.8)">
		<stop  offset="0" style="stop-color:#4591ED"/>
		<stop  offset="1" style="stop-color:#00C9FF"/>
	</linearGradient>
	<path id="symbol_2_" class="st0" d="M78.7,48.2L71.1,15c-0.4-1.8-2.1-3.6-3.9-4.1L32.3,0.2c-0.5-0.1-1-0.2-1.5-0.2
		c-1.5,0-3.1,0.6-4,1.5l-25,23.2c-1.3,1.2-2.1,3.6-1.7,5.4l8.1,35.5c0.4,1.8,2.1,3.6,3.9,4.1l32.6,10c0.5,0.1,1,0.2,1.5,0.2
		c1.5,0,3.1-0.6,4-1.5l26.7-24.8C78.4,52.4,79.1,50,78.7,48.2z M35.9,8l23.9,7.3c0.9,0.3,0.9,0.7,0,0.9l-12.6,2.9
		c-1,0.2-2.3-0.2-2.9-0.9l-8.8-9.5C34.8,8.1,35,7.8,35.9,8z M50.8,50.9c0.2,1-0.4,1.5-1.3,1.2l-25.8-7.9c-0.9-0.3-1.1-1.1-0.4-1.7
		l19.8-18.4c0.7-0.7,1.5-0.4,1.7,0.5L50.8,50.9z M8.3,27.5L29.3,8c0.7-0.7,1.8-0.6,2.5,0.1l10.5,11.3c0.7,0.7,0.6,1.8-0.1,2.5
		l-21,19.5c-0.7,0.7-1.8,0.6-2.5-0.1L8.2,30C7.6,29.3,7.6,28.2,8.3,27.5z M13.4,58.5L7.8,34.2c-0.2-1,0.1-1.1,0.8-0.4l8.8,9.5
		c0.7,0.7,1,2.1,0.7,3l-3.8,12.3C14.1,59.4,13.6,59.4,13.4,58.5z M44.1,72.6l-27.3-8.4c-0.9-0.3-1.5-1.3-1.2-2.2l4.5-14.8
		c0.3-0.9,1.3-1.5,2.2-1.2l27.3,8.4c0.9,0.3,1.5,1.3,1.2,2.2l-4.5,14.8C46,72.4,45,72.9,44.1,72.6z M68.4,52.7l-18.3,17
		c-0.7,0.7-1.1,0.4-0.8-0.5l3.8-12.3c0.3-0.9,1.3-1.9,2.3-2.1L68,51.9C68.9,51.7,69.1,52.1,68.4,52.7z M70.4,49.1l-15.1,3.4
		c-1,0.2-1.9-0.4-2.1-1.3l-6.4-27.9c-0.2-1,0.4-1.9,1.3-2.1l15.1-3.4c1-0.2,1.9,0.4,2.1,1.3L71.7,47C71.9,47.9,71.3,48.9,70.4,49.1z
		"/>
</g>
</svg>
