<svg xmlns="http://www.w3.org/2000/svg" xmlns:xlink="http://www.w3.org/1999/xlink" viewBox="0 0 82.48 77.59">
<defs><style>.cls-1{fill:url(#linear-gradient);}.cls-2{fill:url(#linear-gradient-2);}.cls-3{fill:#84aff1;}</style>
<linearGradient id="linear-gradient" y1="12" x2="82.48" y2="12" gradientUnits="userSpaceOnUse"><stop offset="0" stop-color="#f2cc0c"/><stop offset="1" stop-color="#ff9830"/></linearGradient><linearGradient id="linear-gradient-2" x1="41.14" y1="77.98" x2="41.91" y2="13.73" gradientUnits="userSpaceOnUse"><stop offset="0" stop-color="#1f60c4" stop-opacity="0"/><stop offset="1" stop-color="#3865ab"/></linearGradient>
</defs>
<g id="Icons">
    <path class="cls-1" d="M33.26,24a2,2,0,0,1-.83-.18l-14.7-6.66-15,5.71a2,2,0,1,1-1.42-3.74l15.8-6a2,2,0,0,1,1.53,0l14.16,6.41,15-16A2,2,0,0,1,50,3.16L65.15,9.73,79.38.33a2,2,0,1,1,2.2,3.34l-15.13,10a2,2,0,0,1-1.9.16L49.72,7.39l-15,16A2,2,0,0,1,33.26,24Z"/>
    <path class="cls-3" d="M2.11,45.72H2A2,2,0,0,1,.73,42.18l15.8-13a2,2,0,0,1,1.65-.42l14.59,2.83L48,20.12a2,2,0,0,1,2.4,0l14.7,10.94L79,16.35a2,2,0,1,1,2.9,2.75L66.8,35.1a2,2,0,0,1-2.64.23L49.23,24.22,34.46,35.32a2,2,0,0,1-1.58.37L18.34,32.87l-14.6,12A2,2,0,0,1,2.11,45.72Z"/>
</g>
</svg>