<svg width="177" height="48" viewBox="0 0 177 48" fill="none" xmlns="http://www.w3.org/2000/svg">
<g clip-path="url(#clip0_1144_161898)">
<path d="M0 1.04083V13H15V0H0.626828C0.460583 0 0.301147 0.109659 0.183594 0.304853C0.0660407 0.500047 0 0.764787 0 1.04083Z" fill="url(#paint0_linear_1144_161898)"/>
<path d="M15 17.5H0V30.5H15V17.5Z" fill="#84AFF1"/>
<path d="M15 35H0V48H15V35Z" fill="#84AFF1"/>
<path d="M8.5 21H7.07158L5.5 21.9199V23.1738L6.92531 22.3535H6.96266V27H8.5V21Z" fill="#24292E"/>
<path d="M5.33733 44.5H9.75V43.3468H7.33409V43.3092L8.04722 42.6561C9.33959 41.5376 9.67723 40.9682 9.67723 40.289C9.67723 39.2225 8.8011 38.5 7.44761 38.5C6.12905 38.5 5.2471 39.2543 5.25001 40.4595H6.61514C6.61514 39.9249 6.94696 39.6156 7.44179 39.6156C7.92788 39.6156 8.28008 39.9133 8.28008 40.4017C8.28008 40.8439 8.00065 41.1445 7.51165 41.5809L5.33733 43.4711V44.5Z" fill="#24292E"/>
<path d="M6.77442 9.5C7.52635 9.5 8.04638 9.23767 8.34153 8.74147H8.3837V9.41783H10V6.1182C10 5.09102 8.98454 4.5 7.61068 4.5C6.15952 4.5 5.33732 5.1574 5.20028 6.04235L6.78496 6.09292C6.85875 5.78319 7.14336 5.59355 7.59663 5.59355C8.01827 5.59355 8.28531 5.77686 8.28531 6.1024V6.1182C8.28531 6.4153 7.92692 6.47851 7.00633 6.5512C5.91356 6.63338 5 6.99684 5 8.07143C5 9.03224 5.74139 9.5 6.77442 9.5ZM7.30499 8.48862C6.90794 8.48862 6.62684 8.31795 6.62684 7.99558C6.62684 7.68268 6.90091 7.49305 7.38932 7.42668C7.70907 7.38559 8.1026 7.32238 8.29585 7.23072V7.69216C8.29585 8.16625 7.85313 8.48862 7.30499 8.48862Z" fill="#24292E"/>
</g>
<g clip-path="url(#clip1_1144_161898)">
<path d="M19 13H34V1.04083C34 0.764787 33.934 0.500047 33.8164 0.304853C33.6989 0.109659 33.5394 0 33.3732 0L19 0V13Z" fill="url(#paint1_linear_1144_161898)"/>
<path d="M34 17.5H19V30.5H34V17.5Z" fill="#84AFF1"/>
<path d="M34 35H19V48H34V35Z" fill="#84AFF1"/>
<path d="M24 9.68623H25.5663V8.96449H25.6149C25.8155 9.37609 26.2621 9.75 27.0129 9.75C28.1133 9.75 29 8.97898 29 7.46304C29 5.89203 28.0615 5.17609 27.0227 5.17609C26.2362 5.17609 25.8058 5.58768 25.6149 5.99638H25.5825V3.75H24V9.68623ZM25.5502 7.46015C25.5502 6.73261 25.8867 6.28333 26.466 6.28333C27.0518 6.28333 27.3754 6.7442 27.3754 7.46015C27.3754 8.17899 27.0518 8.64565 26.466 8.64565C25.8867 8.64565 25.5502 8.18188 25.5502 7.46015Z" fill="#24292E"/>
</g>
<path d="M46.3343 30H49.674V25.674H54V22.3343H49.674V18H46.3343V22.3343H42V25.674H46.3343V30Z" fill="#CCCCDC"/>
<g clip-path="url(#clip2_1144_161898)">
<path d="M77 26.25H62V39.25H77V26.25Z" fill="#3865AB"/>
<path d="M62 9.79083V21.75H77V8.75H62.6268C62.4606 8.75 62.3011 8.85966 62.1836 9.05485C62.066 9.25005 62 9.51479 62 9.79083Z" fill="url(#paint2_linear_1144_161898)"/>
<path d="M69.4792 35.75C70.8085 35.75 71.7528 35.0257 71.75 34.0105C71.7528 33.2918 71.2958 32.7785 70.4208 32.673V32.6274C71.0771 32.5304 71.5423 32.077 71.5395 31.4211C71.5423 30.4686 70.706 29.75 69.4903 29.75C68.2663 29.75 67.3746 30.48 67.3635 31.5181H68.6734C68.6845 31.1188 69.0334 30.8508 69.4903 30.8508C69.9251 30.8508 70.2214 31.1217 70.2186 31.5124C70.2214 31.9173 69.8725 32.1968 69.3685 32.1968H68.8174V33.2006H69.3685C69.9417 33.2006 70.3155 33.4914 70.31 33.9021C70.3155 34.3156 69.9721 34.6036 69.4848 34.6036C69.0001 34.6036 68.6429 34.3384 68.6291 33.9534H67.25C67.2611 35.0086 68.1832 35.75 69.4792 35.75Z" fill="white"/>
<path d="M67 18.4362H68.5663V17.7145H68.6149C68.8155 18.1261 69.2621 18.5 70.0129 18.5C71.1133 18.5 72 17.729 72 16.213C72 14.642 71.0615 13.9261 70.0227 13.9261C69.2362 13.9261 68.8058 14.3377 68.6149 14.7464H68.5825V12.5H67V18.4362ZM68.5502 16.2101C68.5502 15.4826 68.8867 15.0333 69.466 15.0333C70.0518 15.0333 70.3754 15.4942 70.3754 16.2101C70.3754 16.929 70.0518 17.3957 69.466 17.3957C68.8867 17.3957 68.5502 16.9319 68.5502 16.2101Z" fill="#24292E"/>
</g>
<g clip-path="url(#clip3_1144_161898)">
<path d="M96 26.25H81V39.25H96V26.25Z" fill="#3865AB"/>
<path d="M81 21.75H96V9.79083C96 9.51479 95.934 9.25005 95.8164 9.05485C95.6989 8.85966 95.5394 8.75 95.3732 8.75H81V21.75Z" fill="url(#paint3_linear_1144_161898)"/>
<path d="M88.6058 18.5C90.0564 18.5 90.9563 17.7082 91 16.5095H89.4654C89.405 17.0237 89.0759 17.3044 88.6259 17.3044C88.0484 17.3044 87.6723 16.847 87.6723 15.9858C87.6723 15.1309 88.0517 14.6735 88.6259 14.6735C89.096 14.6735 89.4016 14.9732 89.4654 15.4685H91C90.9631 14.276 90.0363 13.5 88.6024 13.5C86.9805 13.5 86 14.5158 86 16.0016C86 17.4811 86.9738 18.5 88.6058 18.5Z" fill="#24292E"/>
</g>
<path d="M109.907 30C110.601 30 115.933 26 115.933 24C115.933 22 110.736 18 109.907 18C109.078 18 108.402 18.5 108.402 19.4756C108.402 20.4512 111.907 22.9206 111.907 22.9206C111.907 22.9206 104.254 22.25 104 22.9206C103.746 23.5911 103.746 24.4089 104 25.0794C104.254 25.75 111.907 25.0794 111.907 25.0794C111.907 25.0794 108.402 27.75 108.402 28.5301C108.402 29.3103 109.212 30 109.907 30Z" fill="#CCCCDC"/>
<path d="M124 0.720576V9H139V0H124.627C124.461 0 124.301 0.0759177 124.184 0.211052C124.066 0.346186 124 0.529468 124 0.720576Z" fill="url(#paint4_linear_1144_161898)"/>
<path d="M139 13H124V22H139V13Z" fill="#84AFF1"/>
<path d="M139 26H124V35H139V26Z" fill="#84AFF1"/>
<path d="M139 39H124V48H139V39Z" fill="#CCCCDC" fill-opacity="0.4"/>
<path d="M124.5 39.5H138.5V47.5H124.5V39.5Z" stroke="#CCCCDC" stroke-opacity="0.25"/>
<path d="M132.5 15H131.31L130 15.7666V16.8115L131.188 16.1279H131.219V20H132.5V15Z" fill="#24292E"/>
<path d="M130.072 33H133.724V32.039H131.724V32.0077L132.315 31.4634C133.384 30.5313 133.663 30.0568 133.663 29.4908C133.663 28.6021 132.938 28 131.818 28C130.727 28 129.998 28.6286 130 29.6329H131.13C131.13 29.1874 131.404 28.9297 131.814 28.9297C132.216 28.9297 132.507 29.1777 132.507 29.5848C132.507 29.9533 132.276 30.2038 131.871 30.5674L130.072 32.1426V33Z" fill="#24292E"/>
<path d="M129 7.68623H130.566V6.96449H130.615C130.816 7.37609 131.262 7.75 132.013 7.75C133.113 7.75 134 6.97898 134 5.46304C134 3.89203 133.061 3.17609 132.023 3.17609C131.236 3.17609 130.806 3.58768 130.615 3.99638H130.583V1.75H129V7.68623ZM130.55 5.46015C130.55 4.73261 130.887 4.28333 131.466 4.28333C132.052 4.28333 132.375 4.7442 132.375 5.46015C132.375 6.17899 132.052 6.64565 131.466 6.64565C130.887 6.64565 130.55 6.18188 130.55 5.46015Z" fill="#24292E"/>
<path d="M143 0.720576V9H158V0H143.627C143.461 0 143.301 0.0759177 143.184 0.211052C143.066 0.346186 143 0.529468 143 0.720576Z" fill="url(#paint5_linear_1144_161898)"/>
<path d="M158 13H143V22H158V13Z" fill="#84AFF1"/>
<path d="M158 26H143V35H158V26Z" fill="#84AFF1"/>
<path d="M158 39H143V48H158V39Z" fill="#3865AB"/>
<path d="M150.913 46C152.054 46 152.864 45.3964 152.862 44.5504C152.864 43.9515 152.472 43.5238 151.721 43.4358V43.3978C152.284 43.317 152.683 42.9392 152.681 42.3926C152.683 41.5989 151.966 41 150.923 41C149.872 41 149.107 41.6084 149.097 42.4734H150.221C150.231 42.1407 150.53 41.9173 150.923 41.9173C151.296 41.9173 151.55 42.1431 151.548 42.4686C151.55 42.8061 151.25 43.039 150.818 43.039H150.345V43.8755H150.818C151.31 43.8755 151.631 44.1179 151.626 44.4601C151.631 44.8047 151.336 45.0447 150.918 45.0447C150.502 45.0447 150.195 44.8237 150.183 44.5029H149C149.01 45.3821 149.801 46 150.913 46Z" fill="white"/>
<path d="M149.774 7.5C150.526 7.5 151.046 7.23767 151.342 6.74147H151.384V7.41783H153V4.1182C153 3.09102 151.985 2.5 150.611 2.5C149.16 2.5 148.337 3.1574 148.2 4.04235L149.785 4.09292C149.859 3.78319 150.143 3.59355 150.597 3.59355C151.018 3.59355 151.285 3.77686 151.285 4.1024V4.1182C151.285 4.4153 150.927 4.47851 150.006 4.5512C148.914 4.63338 148 4.99684 148 6.07143C148 7.03224 148.741 7.5 149.774 7.5ZM150.305 6.48862C149.908 6.48862 149.627 6.31795 149.627 5.99558C149.627 5.68268 149.901 5.49305 150.389 5.42668C150.709 5.38559 151.103 5.32238 151.296 5.23072V5.69216C151.296 6.16625 150.853 6.48862 150.305 6.48862Z" fill="#24292E"/>
<path d="M162 9H177V0.720576C177 0.529468 176.934 0.346186 176.816 0.211052C176.699 0.0759177 176.539 0 176.373 0L162 0V9Z" fill="url(#paint6_linear_1144_161898)"/>
<path d="M177 39H162V48H177V39Z" fill="#3865AB"/>
<path d="M177 26H162V35H177V26Z" fill="#CCCCDC" fill-opacity="0.4"/>
<path d="M162.5 26.5H176.5V34.5H162.5V26.5Z" stroke="#CCCCDC" stroke-opacity="0.25"/>
<path d="M177 13H162V22H177V13Z" fill="#CCCCDC" fill-opacity="0.4"/>
<path d="M162.5 13.5H176.5V21.5H162.5V13.5Z" stroke="#CCCCDC" stroke-opacity="0.25"/>
<path d="M169.606 7.5C171.056 7.5 171.956 6.7082 172 5.50946H170.465C170.405 6.02366 170.076 6.30442 169.626 6.30442C169.048 6.30442 168.672 5.847 168.672 4.9858C168.672 4.13092 169.052 3.6735 169.626 3.6735C170.096 3.6735 170.402 3.97319 170.465 4.46845H172C171.963 3.27602 171.036 2.5 169.602 2.5C167.981 2.5 167 3.51577 167 5.00158C167 6.48107 167.974 7.5 169.606 7.5Z" fill="#24292E"/>
<defs>
<linearGradient id="paint0_linear_1144_161898" x1="0" y1="6.5052" x2="15" y2="6.5052" gradientUnits="userSpaceOnUse">
<stop stop-color="#F2CC0C"/>
<stop offset="1" stop-color="#FF9830"/>
</linearGradient>
<linearGradient id="paint1_linear_1144_161898" x1="19" y1="6.5052" x2="34" y2="6.5052" gradientUnits="userSpaceOnUse">
<stop stop-color="#F2CC0C"/>
<stop offset="1" stop-color="#FF9830"/>
</linearGradient>
<linearGradient id="paint2_linear_1144_161898" x1="62" y1="15.2552" x2="77" y2="15.2552" gradientUnits="userSpaceOnUse">
<stop stop-color="#F2CC0C"/>
<stop offset="1" stop-color="#FF9830"/>
</linearGradient>
<linearGradient id="paint3_linear_1144_161898" x1="81" y1="15.2552" x2="96" y2="15.2552" gradientUnits="userSpaceOnUse">
<stop stop-color="#F2CC0C"/>
<stop offset="1" stop-color="#FF9830"/>
</linearGradient>
<linearGradient id="paint4_linear_1144_161898" x1="124" y1="4.5036" x2="139" y2="4.5036" gradientUnits="userSpaceOnUse">
<stop stop-color="#F2CC0C"/>
<stop offset="1" stop-color="#FF9830"/>
</linearGradient>
<linearGradient id="paint5_linear_1144_161898" x1="143" y1="4.5036" x2="158" y2="4.5036" gradientUnits="userSpaceOnUse">
<stop stop-color="#F2CC0C"/>
<stop offset="1" stop-color="#FF9830"/>
</linearGradient>
<linearGradient id="paint6_linear_1144_161898" x1="162" y1="4.5036" x2="177" y2="4.5036" gradientUnits="userSpaceOnUse">
<stop stop-color="#F2CC0C"/>
<stop offset="1" stop-color="#FF9830"/>
</linearGradient>
<clipPath id="clip0_1144_161898">
<rect width="15" height="48" fill="white"/>
</clipPath>
<clipPath id="clip1_1144_161898">
<rect width="15" height="48" fill="white" transform="translate(19)"/>
</clipPath>
<clipPath id="clip2_1144_161898">
<rect width="15" height="30.5" fill="white" transform="translate(62 8.75)"/>
</clipPath>
<clipPath id="clip3_1144_161898">
<rect width="15" height="30.5" fill="white" transform="translate(81 8.75)"/>
</clipPath>
</defs>
</svg>
