<svg xmlns="http://www.w3.org/2000/svg" xmlns:xlink="http://www.w3.org/1999/xlink" viewBox="0 0 80.52 80.64"><defs><style>.cls-1{fill:url(#linear-gradient);}.cls-2{fill:url(#linear-gradient-2);}.cls-3{fill:url(#linear-gradient-3);}.cls-4{fill:#3865ab;}</style><linearGradient id="linear-gradient" y1="8.46" x2="18.98" y2="8.46" gradientUnits="userSpaceOnUse"><stop offset="0" stop-color="#f2cc0c"/><stop offset="1" stop-color="#ff9830"/></linearGradient><linearGradient id="linear-gradient-2" y1="50.94" x2="18.98" y2="50.94" xlink:href="#linear-gradient"/><linearGradient id="linear-gradient-3" y1="72.18" x2="18.98" y2="72.18" xlink:href="#linear-gradient"/></defs><g id="Layer_2" data-name="Layer 2"><g id="Layer_1-2" data-name="Layer 1"><path class="cls-1" d="M17.24,1.15C15.16-.93,10.67-.26,9.5,3.72,8.33,0,3.14-.84,1.18,1.8a5.94,5.94,0,0,0,.58,7.77l7.06,7.06a.94.94,0,0,0,1.34,0h0l7.07-7.06a6,6,0,0,0,0-8.41Z"/><path class="cls-2" d="M17.24,43.64c-2.08-2.08-6.57-1.42-7.74,2.56-1.17-3.72-6.36-4.55-8.32-1.92a5.94,5.94,0,0,0,.58,7.77l7.06,7.07a1,1,0,0,0,1.34,0h0l7.07-7.07a6,6,0,0,0,0-8.41Z"/><path class="cls-3" d="M17.24,64.88c-2.08-2.08-6.57-1.42-7.74,2.56-1.17-3.71-6.36-4.55-8.32-1.92a5.94,5.94,0,0,0,.58,7.77l7.06,7.07a1,1,0,0,0,1.34,0h0l7.07-7.07a6,6,0,0,0,0-8.41Z"/><path class="cls-4" d="M17.24,22.07h0c-2-2-6.22-1.43-7.57,2.17L9,25.91l2.9.69a.79.79,0,0,1,.53,1.1l-1.89,4a.76.76,0,0,1-.71.45.78.78,0,0,1-.33-.07.8.8,0,0,1-.38-1l1.48-3.12-2.84-.68a.77.77,0,0,1-.51-.4.78.78,0,0,1,0-.65l1.27-3.24c-1.95-2.18-5.71-2.39-7.31-.23a5.94,5.94,0,0,0,.58,7.77l7.06,7.07a1,1,0,0,0,1.34,0h0l7.07-7.07A6,6,0,0,0,17.24,22.07Z"/><path class="cls-4" d="M30,34V25.4H76.52V34H30m-4,4H79.52a1,1,0,0,0,1-1V22.4a1,1,0,0,0-1-1H26V38Z"/><path class="cls-4" d="M30,76.48v-8.6H76.52v8.6H30m-4,4H79.52a1,1,0,0,0,1-1V64.88a1,1,0,0,0-1-1H26v16.6Z"/><path class="cls-4" d="M30,55.56V47H76.52v8.59H30m-4,4H79.52a1,1,0,0,0,1-1V44a1,1,0,0,0-1-1H26V59.56Z"/><path class="cls-4" d="M30,12.76V4.16H76.52v8.6H30m-4,4H79.52a1,1,0,0,0,1-1V1.16a1,1,0,0,0-1-1H26v16.6Z"/></g></g></svg>