<svg xmlns="http://www.w3.org/2000/svg" xmlns:xlink="http://www.w3.org/1999/xlink" viewBox="0 0 81 80.91"><defs><style>.cls-1{fill:#3865ab;}.cls-2{fill:url(#linear-gradient);}.cls-3{fill:url(#linear-gradient-2);}.cls-4{fill:#84aff1;}.cls-5{fill:url(#linear-gradient-3);}.cls-6{fill:url(#linear-gradient-4);}.cls-7{fill:url(#linear-gradient-5);}.cls-8{fill:url(#linear-gradient-6);}</style><linearGradient id="linear-gradient" x1="8" y1="4" x2="70" y2="4" gradientUnits="userSpaceOnUse"><stop offset="0" stop-color="#f2cc0c"/><stop offset="1" stop-color="#ff9830"/></linearGradient><linearGradient id="linear-gradient-2" x1="30" y1="18.58" x2="51" y2="18.58" xlink:href="#linear-gradient"/><linearGradient id="linear-gradient-3" x1="0" y1="33.16" x2="37" y2="33.16" xlink:href="#linear-gradient"/><linearGradient id="linear-gradient-4" x1="20" y1="47.74" x2="45" y2="47.74" xlink:href="#linear-gradient"/><linearGradient id="linear-gradient-5" x1="49" y1="62.33" x2="60" y2="62.33" xlink:href="#linear-gradient"/><linearGradient id="linear-gradient-6" x1="13" y1="76.91" x2="73.5" y2="76.91" xlink:href="#linear-gradient"/></defs><g id="Layer_2" data-name="Layer 2"><g id="Layer_1-2" data-name="Layer 1"><rect class="cls-1" width="81" height="8" rx="1"/><rect class="cls-1" y="72.91" width="81" height="8" rx="1"/><rect class="cls-1" y="58.33" width="81" height="8" rx="1"/><rect class="cls-1" y="43.74" width="81" height="8" rx="1"/><rect class="cls-1" y="29.16" width="81" height="8" rx="1"/><rect class="cls-1" y="14.58" width="81" height="8" rx="1"/><path class="cls-2" d="M39,8H8V0H39ZM70,0H59V8H70Z"/><rect class="cls-3" x="30" y="14.58" width="21" height="8"/><rect class="cls-4" x="57.93" y="14.58" width="6" height="8"/><rect class="cls-4" x="11.17" y="14.58" width="6" height="8"/><path class="cls-5" d="M37,37.16H1a1,1,0,0,1-1-1v-6a1,1,0,0,1,1-1H37Z"/><rect class="cls-4" x="62.5" y="29.16" width="11" height="8"/><rect class="cls-6" x="20" y="43.74" width="25" height="8"/><path class="cls-4" d="M80,51.74H52v-8H80a1,1,0,0,1,1,1v6A1,1,0,0,1,80,51.74Z"/><rect class="cls-7" x="49" y="58.33" width="11" height="8"/><path class="cls-4" d="M30,66.33H1a1,1,0,0,1-1-1v-6a1,1,0,0,1,1-1H30Z"/><path class="cls-8" d="M24,80.91H13v-8H24Zm49.5-8h-33v8h33Z"/></g></g></svg>