<svg xmlns="http://www.w3.org/2000/svg" xmlns:xlink="http://www.w3.org/1999/xlink" viewBox="0 0 78.59 78.59"><defs><style>.cls-1{fill:#84aff1;}.cls-2{fill:#3865ab;}.cls-3{fill:url(#New_Gradient_Swatch_1);}</style><linearGradient id="New_Gradient_Swatch_1" x1="35.98" y1="47.25" x2="62.65" y2="47.25" gradientUnits="userSpaceOnUse"><stop offset="0" stop-color="#f2cc0c"/><stop offset="1" stop-color="#ff9830"/></linearGradient></defs><g id="Layer_2" data-name="Layer 2"><g id="Icons"><path class="cls-1" d="M78.06,68.37a7.51,7.51,0,0,0-4.23-4.24c-.23-.09-.46-.17-.7-.24l0-4.91L77,59l-5.89-7.77-5.75,7.88,3.78,0,0,4.86a7.57,7.57,0,0,0-.95.32,7.49,7.49,0,1,0,10.41,6.9A7.26,7.26,0,0,0,78.06,68.37Z"/><path class="cls-1" d="M24.12,44.42,13.65,48c-.11-.15-.22-.31-.34-.45L29.12,25.22l3.12,2.18L32,17.66l-9.25,3.06,3.14,2.2L10.05,45.26a7.48,7.48,0,1,0,4.93,7c0-.15,0-.31,0-.46l10.5-3.63,1.26,3.58,5.44-8.09L22.84,40.8Z"/><circle class="cls-2" cx="71.1" cy="39.86" r="7.49"/><path class="cls-2" d="M63.54,32.12,62.2,22.46l-2.73,2.69-13.67-14A7.5,7.5,0,1,0,43,14L56.62,28l-2.71,2.67Z"/><path class="cls-2" d="M59.62,71.1l-7.81-5.82V69.1H23.7a7.49,7.49,0,1,0,0,4H51.81v3.82Z"/><path class="cls-3" d="M62.65,62l-.8-9.71L59,54.8,49.7,44.12a7.48,7.48,0,1,0-6,3.34,7.35,7.35,0,0,0,2.93-.72L56,57.44,53.11,60Z"/></g></g></svg>