<svg width="922" height="121" viewBox="0 0 922 121" fill="none" xmlns="http://www.w3.org/2000/svg">
<path opacity="0.2" d="M1 80.6642L3.97158 82.4067L7.4186 76.6809L20.8204 74.6616L26.3773 70.7061L31.6072 62.7397L37.3424 57.5117L39.8088 50.5411L47.0297 55.9074L48.6046 45.811L53.8346 48.7984L60.1047 55.769L68.6628 57.7883L71.8721 59.2544L77.4884 56.2669L81.3514 50.9007L85.7494 56.5159L110.384 72.6977L114.395 65.7271L124.261 57.5117L125.895 55.5201L130.442 59.6416L131.006 63.7078L137.276 55.769H142.744L147.826 60.2502L154.63 60.7481L168.716 71.6742L178.849 82.4067L181.256 86.4176L187.14 82.4067L193.558 83.6515L200.006 89.1008L205.444 82.6557L209.605 79.6683L216.855 72.9466L222.026 68.8251L225.384 75.4085L234.09 81.4386L235.279 77.1788L241.282 70.2082L245.323 74.302L246.779 82.6557L257.952 91.0647L260.835 80.5534L262.855 78.4512L268.174 81.6599L270.819 89.0731L276.168 82.6834L280.209 83.4025L295.186 101.078L301.605 106.555L303.328 101.687L315.749 99.529L319.672 98.5885L327.547 110.04L331.915 113L339.581 100.082L339.997 92.7244L347.07 85.8921L353.904 80.5534L357.233 73.6935L370.07 72.6977L376.607 82.1579L382.105 77.6768L385.581 82.3791L390.722 80.9684L395.447 85.5878L405.075 73.6935L410.721 70.4295L417.14 79.3364L420.765 71.3147L439.605 85.1453L451.253 72.0892L459.514 58.5905L465.576 69.4614L471.044 63.2376L477.046 56.516C477.046 56.516 481.242 56.1237 482.069 56.2947C482.895 56.4656 484.773 59.9183 484.773 59.9183L489.854 44.0961L500.879 35.9637L504.86 34.387L511.041 44.8153L517.401 43.3216L520.907 32.8657L528.187 27.6654L534.249 31.5932L535.468 25.3971L544.412 31.8145C545.975 33.0873 549.791 29.3804 549.791 29.3804L560.488 29.2697L574.395 45.8111L586.163 32.8657L588.184 28.4952L594.453 36.3233L602.09 35.5765L603.338 25.895L611.302 33.8615L618.018 30.2932L623.07 22.963L626.279 16.4349L627.884 11.7049L634.956 13.9454L644.465 23.1289L650.468 28.0526L655.43 22.9353L664.553 26.3929L670.258 19.3117L679.203 11.7049L682.026 3.71079L696.052 1.9958L698.072 1L707.047 3.71079L716.674 19.8096L723.034 30.0995L733.523 45.8111L740.09 38.3426L758.395 50.7901L762.496 50.0709L769.093 36.8765L781.395 56.267L788.913 76.3214L796.075 68.7422L799.581 74.4681L810.695 79.6684L822.997 87.5241L834.349 96.4863L844.512 96.9013L845.908 98.7546L849.86 91.8669L858.389 86.4177L865.134 95.0756L871.791 89.737L881.953 74.3021L887.57 66.0037L897.733 65.9761L900.674 73.6935L903.349 74.4681L909.5 79.9173L921 78.6726" stroke="#E2A52E" stroke-width="1.5" stroke-linecap="round" stroke-linejoin="round"/>
<path opacity="0.2" d="M3.97103 84.4427L1 82.678V121H921V80.661L909.5 81.9216L903.348 76.403L900.674 75.6186L897.732 67.803L887.569 67.831L881.953 76.2349L871.79 91.8663L865.134 97.2728L858.388 88.5047L849.86 94.0233L845.908 100.999L844.511 99.1217L834.348 98.7015L822.997 89.6252L810.695 81.6695L799.581 76.403L796.074 70.6043L788.913 78.2799L781.395 57.9703L769.093 38.3331L762.496 51.6954L758.395 52.4237L740.09 39.8178L733.523 47.3814L723.033 31.4699L716.674 21.049L707.046 4.74529L698.072 2L696.051 3.00847L682.025 4.74529L679.202 12.8411L670.258 20.5447L664.552 27.7161L655.43 24.2145L650.467 29.3969L644.465 24.4105L634.956 15.1102L627.883 12.8411L626.279 17.6314L623.069 24.2425L618.018 31.666L611.302 35.2797L603.338 27.2119L602.09 37.0165L594.453 37.7728L588.183 29.8451L586.162 34.2712L574.395 47.3814L560.488 30.6295L549.79 30.7415C549.79 30.7415 545.974 34.4957 544.412 33.2067L535.467 26.7076L534.249 32.9826L528.187 29.0047L520.906 34.2712L517.4 44.8602L511.041 46.3729L504.86 35.8119L500.878 37.4087L489.854 45.6445L484.772 61.6681C484.772 61.6681 482.895 58.1715 482.068 57.9984C481.241 57.8252 477.046 58.2225 477.046 58.2225L471.043 65.0297L465.576 71.3326L459.514 60.3234L451.253 73.9939L439.604 87.2161L420.764 73.2095L417.139 81.3333L410.72 72.3131L405.074 75.6186L395.447 87.6643L390.722 82.9861L385.581 84.4148L382.104 79.6525L376.607 84.1907L370.069 74.6102L357.232 75.6186L353.904 82.5658L347.069 87.9724L339.997 94.8917L339.581 102.343L331.914 115.425L327.546 112.428L319.671 100.83L315.749 101.783L303.328 103.968L301.604 108.898L295.186 103.352L280.209 85.4512L276.167 84.7229L270.819 91.1939L268.174 83.6864L262.855 80.4369L260.834 82.5658L257.952 93.2109L246.779 84.6949L245.322 76.2349L241.281 72.0889L235.279 79.1482L234.09 83.4623L225.383 77.3554L222.025 70.6883L216.855 74.8622L209.604 81.6694L205.444 84.6949L200.006 91.2219L193.558 85.7033L187.139 84.4427L181.255 88.5046L178.848 84.4427L168.715 73.5736L154.63 62.5084L147.825 62.0042L142.744 57.466H137.276L131.006 65.5058L130.441 61.3879L125.895 57.2139L124.26 59.2309L114.395 67.5508L110.383 74.6101L85.7488 58.2224L81.3509 52.5357L77.4878 57.9703L71.8716 60.9957L68.6622 59.511L60.1041 57.466L53.8341 50.4067L48.6041 47.3813L47.0292 57.6061L39.8082 52.1716L37.3418 59.2309L31.6067 64.5254L26.3767 72.5932L20.8199 76.599L7.41806 78.644L3.97103 84.4427Z" fill="#E2A52E" fill-opacity="0.1"/>
</svg>
