<svg width="199" height="142" viewBox="0 0 199 142" fill="none" xmlns="http://www.w3.org/2000/svg">
<g clip-path="url(#clip0_240_25309)">
<path d="M129.922 89.4884C133.711 87.1243 140.352 83.9954 143.411 89.4884C146.47 94.9815 132.981 106.142 123.003 108.436" fill="#F99F10"/>
<path d="M129.922 89.4884C133.711 87.1243 140.352 83.9954 143.411 89.4884C146.47 94.9815 132.981 106.142 123.003 108.436" stroke="#3A1103" stroke-width="0.576088" stroke-miterlimit="10" stroke-linecap="round"/>
<path d="M55.3827 32.6803C43.2145 24.1973 27.5697 22.2504 24.8579 25.3446C22.6329 27.813 31.0463 41.3371 29.6904 45.3004C28.3345 49.2638 16.4097 46.6911 15.0886 51.7322C14.4628 54.0963 23.6063 59.8675 23.363 63.2051C23.1196 66.5426 16.062 65.604 15.5405 69.915C15.1929 72.8353 21.6594 73.3916 21.4161 76.8682C21.1727 80.3449 16.514 79.6843 16.7226 83.0566C16.7226 85.7684 21.9723 83.9606 23.3282 88.5497C24.6841 93.1389 55.3827 32.6107 55.3827 32.6107V32.6803Z" fill="#EF6122"/>
<path d="M1.00833 113.86C1.39076 102.665 9.17841 100.162 14.9149 102.074C15.9324 102.492 16.8503 103.119 17.6088 103.916C18.3673 104.712 18.9493 105.66 19.3167 106.697C19.6842 107.734 19.8288 108.836 19.7413 109.933C19.6538 111.029 19.336 112.095 18.8087 113.06C16.5489 117.023 13.1765 115.32 14.4281 112.539C15.6797 109.757 15.5406 106.176 11.1253 107.358C5.63225 108.784 7.3358 123.49 18.8434 120.604C26.7006 118.657 26.1096 110.174 25.4838 98.1453C24.0539 84.0316 25.8002 69.7769 30.5945 56.4257C40.7462 26.6658 101.831 17.0355 122.065 44.4661C148.383 80.1016 119.214 114.903 114.903 119.214C100.996 130.026 103.256 139.795 93.2781 140.421C83.3002 141.047 84.5865 131.417 78.3286 130.895H77.2161C69.8456 131.451 68.4202 140.63 57.3297 140.456C48.3253 140.456 52.3234 132.425 46.3088 128.635C45.1895 128.106 44.0262 127.676 42.8322 127.349C41.9498 127.166 41.055 127.05 40.1552 127.001H38.2083C33.5107 127.462 28.8593 128.311 24.3018 129.539C9.76944 132.633 0.695432 123.316 1.00833 113.86Z" fill="#FAC20C" stroke="#3A1103" stroke-width="0.576088" stroke-miterlimit="10"/>
<path d="M40.8853 40.2594C47.8787 35.5659 55.9354 32.6968 64.3213 31.9135C72.7072 31.1302 81.1558 32.4575 88.8975 35.7746C91.9917 37.791 96.3723 35.3922 93.9039 29.2733C85.6643 8.58735 64.3873 -1.84254 58.6856 1.70362C52.2886 5.66698 60.3196 23.2587 56.1477 27.3959C52.6711 30.8725 50.4808 28.1955 44.7791 26.2834C39.6337 24.5451 40.8853 40.2594 40.8853 40.2594Z" fill="#EF6122"/>
<path d="M71.9662 80.4492H128.844C132.126 80.4492 135.274 79.1452 137.596 76.8241C139.917 74.503 141.221 71.3549 141.221 68.0724C141.221 64.7898 139.917 61.6417 137.596 59.3206C135.274 56.9995 132.126 55.6956 128.844 55.6956H71.9662C68.6836 55.6956 65.5355 56.9995 63.2144 59.3206C60.8933 61.6417 59.5894 64.7898 59.5894 68.0724C59.5894 71.3549 60.8933 74.503 63.2144 76.8241C65.5355 79.1452 68.6836 80.4492 71.9662 80.4492Z" fill="#5545EF" stroke="#231735" stroke-width="0.576088" stroke-miterlimit="10"/>
<path d="M85.0733 76.2774H128.253C130.429 76.2774 132.516 75.4129 134.055 73.8742C135.593 72.3355 136.458 70.2486 136.458 68.0725C136.458 65.8965 135.593 63.8095 134.055 62.2708C132.516 60.7321 130.429 59.8677 128.253 59.8677H85.0733C82.8972 59.8677 80.8103 60.7321 79.2716 62.2708C77.7328 63.8095 76.8684 65.8965 76.8684 68.0725C76.8684 70.2486 77.7328 72.3355 79.2716 73.8742C80.8103 75.4129 82.8972 76.2774 85.0733 76.2774Z" fill="#19052D"/>
<path d="M67.0642 110.452C61.7102 115.32 55.6261 117.128 52.219 112.956C48.8119 108.784 51.8366 103.012 56.7734 98.5276" fill="#F99F10"/>
<path d="M67.0642 110.452C61.7102 115.32 55.6261 117.128 52.219 112.956C48.8119 108.784 51.8366 103.012 56.7734 98.5276" stroke="#3A1103" stroke-width="0.576088" stroke-miterlimit="10" stroke-linecap="round"/>
<path d="M48.2209 28.578C37.791 23.6412 27.5697 21.0337 24.8579 25.3447C22.1462 29.6558 31.8112 39.8423 29.6905 45.3006C27.5697 50.7589 15.7839 45.9959 15.0886 51.6976C14.4976 56.2867 23.6064 59.8677 23.363 63.2052C23.1196 66.5428 15.9925 65.1869 15.471 69.4979C15.1234 72.4183 21.6594 73.4613 21.3813 76.9379C21.1032 80.4146 16.6879 79.754 16.6879 83.0916C16.6879 85.8381 24.6841 86.0815 24.8927 91.7484" stroke="#3A1103" stroke-width="0.576088" stroke-miterlimit="10"/>
<path d="M88.8973 35.7744C91.9915 37.7908 96.3721 35.392 93.9037 29.2383C85.6641 8.58716 65.0476 -1.8775 58.6854 1.70343C52.3232 5.28436 60.3194 23.2585 56.1475 27.3957C55.0718 28.4251 53.694 29.082 52.217 29.2698C50.74 29.4575 49.2417 29.1662 47.9426 28.4387" stroke="#3A1103" stroke-width="0.576088" stroke-miterlimit="10"/>
<path d="M89.0017 35.7745C77.9112 29.2037 58.2683 28.8213 40.8503 41.8934" stroke="#3A1103" stroke-width="0.576088" stroke-miterlimit="10"/>
<path d="M82.257 92.6869C82.0832 87.3676 83.8215 84.0301 89.4884 86.1508C95.8307 88.1758 102.479 89.0702 109.131 88.7931C113.547 88.4454 115.667 87.9239 115.667 90.0447C115.667 92.1654 111.774 93.5213 111.426 98.5276C111.078 103.534 106.489 107.011 94.8772 105.307C83.2653 103.604 82.4309 98.3538 82.257 92.6869Z" fill="black"/>
<path d="M98.945 90.6009C104.82 91.0181 108.158 90.6009 108.228 90.9486C108.297 91.2962 108.645 95.2596 105.446 95.3987C104.656 95.5363 103.843 95.3687 103.172 94.9298C102.501 94.4909 102.021 93.8135 101.831 93.0346C101.831 93.0346 101.831 95.3291 98.7016 95.1901C97.8556 95.1007 97.0608 94.7414 96.4347 94.1654C95.8086 93.5894 95.3845 92.8272 95.225 91.9916C95.225 91.9916 94.8773 93.8689 92.0265 93.4518C89.1757 93.0346 89.5233 89.0364 89.7319 88.7583C92.8032 89.6292 95.9438 90.234 99.1188 90.5661L98.945 90.6009Z" fill="white"/>
<path d="M114.729 68.6634C117.129 68.6634 119.074 71.3875 119.074 74.7476C119.074 71.3875 121.02 68.6634 123.42 68.6634C121.02 68.6634 119.074 65.9398 119.074 62.5793C119.074 65.9398 117.129 68.6634 114.729 68.6634Z" fill="white"/>
<path d="M90.3924 68.6634C92.7923 68.6634 94.738 71.3875 94.738 74.7476C94.738 71.3875 96.6838 68.6634 99.084 68.6634C96.6838 68.6634 94.738 65.9398 94.738 62.5793C94.738 65.9398 92.7923 68.6634 90.3924 68.6634Z" fill="white"/>
</g>
<path d="M199 44.0427C199 43.2599 198.366 42.6252 197.583 42.6252H176.179C175.396 42.6252 174.761 43.2599 174.761 44.0427V65.4467C174.761 66.2295 175.396 66.8642 176.179 66.8642H197.583C198.366 66.8642 199 66.2295 199 65.4467V44.0427Z" fill="url(#paint0_linear_240_25309)"/>
<path d="M199 14.4175C199 13.6346 198.366 13 197.583 13H176.179C175.396 13 174.761 13.6346 174.761 14.4175V35.8214C174.761 36.6043 175.396 37.2389 176.179 37.2389H197.583C198.366 37.2389 199 36.6043 199 35.8214V14.4175Z" fill="url(#paint1_linear_240_25309)"/>
<path d="M169.375 44.0427C169.375 43.2599 168.74 42.6252 167.958 42.6252H146.554C145.771 42.6252 145.136 43.2599 145.136 44.0427V65.4467C145.136 66.2295 145.771 66.8642 146.554 66.8642H167.958C168.74 66.8642 169.375 66.2295 169.375 65.4467V44.0427Z" fill="url(#paint2_linear_240_25309)"/>
<path d="M169.375 14.4175C169.375 13.6346 168.74 13 167.958 13H146.554C145.771 13 145.136 13.6346 145.136 14.4175V35.8214C145.136 36.6043 145.771 37.2389 146.554 37.2389H167.958C168.74 37.2389 169.375 36.6043 169.375 35.8214V14.4175Z" fill="url(#paint3_linear_240_25309)"/>
<path d="M141.159 22.9224C138.702 21.9292 136.786 19.5442 135.922 16.5653C135.059 19.5442 133.142 21.9292 130.685 22.9224C133.142 23.9157 135.059 26.3009 135.922 29.2797C136.786 26.3009 138.702 23.9157 141.159 22.9224Z" fill="white" stroke="#FAC20C"/>
<path d="M126 39.9321C136.567 39.9321 145.135 51.3559 145.135 65.4468C145.135 51.3559 153.703 39.9321 164.272 39.9321C153.703 39.9321 145.135 28.5101 145.135 14.4175C145.135 28.5101 136.567 39.9321 126 39.9321Z" fill="white"/>
<path fill-rule="evenodd" clip-rule="evenodd" d="M132.585 38.3812C137.584 35.9382 141.606 30.7934 143.656 24.2729C144.609 21.2408 145.135 17.9112 145.135 14.4175C145.135 17.9112 145.662 21.2408 146.615 24.2729C148.665 30.7934 152.687 35.9382 157.686 38.3812C159.74 39.3845 161.958 39.9321 164.272 39.9321C161.958 39.9321 159.74 40.4798 157.686 41.4832C152.687 43.9265 148.665 49.0717 146.615 55.5921C145.662 58.6241 145.135 61.9535 145.135 65.4468C145.135 61.9535 144.609 58.6241 143.656 55.592C141.606 49.0717 137.584 43.9265 132.585 41.4833C130.532 40.4798 128.314 39.9321 126 39.9321C128.314 39.9321 130.532 39.3845 132.585 38.3812ZM135.621 39.9323C137.97 38.4609 140.056 36.4835 141.798 34.1605C143.096 32.4308 144.217 30.4943 145.135 28.3972C146.053 30.4943 147.175 32.4309 148.472 34.1606C150.215 36.4836 152.301 38.4609 154.65 39.9323C152.301 41.4038 150.215 43.3813 148.472 45.7044C147.175 47.4341 146.053 49.3707 145.135 51.4678C144.217 49.3707 143.096 47.4342 141.798 45.7044C140.056 43.3813 137.97 41.4038 135.621 39.9323Z" fill="#FAC20C"/>
<defs>
<linearGradient id="paint0_linear_240_25309" x1="186.881" y1="48.9375" x2="186.881" y2="66.8642" gradientUnits="userSpaceOnUse">
<stop stop-color="#F55F3E"/>
<stop offset="1" stop-color="#FF8833"/>
</linearGradient>
<linearGradient id="paint1_linear_240_25309" x1="186.881" y1="19.3122" x2="186.881" y2="37.2389" gradientUnits="userSpaceOnUse">
<stop stop-color="#F55F3E"/>
<stop offset="1" stop-color="#FF8833"/>
</linearGradient>
<linearGradient id="paint2_linear_240_25309" x1="157.256" y1="48.9375" x2="157.256" y2="66.8642" gradientUnits="userSpaceOnUse">
<stop stop-color="#F55F3E"/>
<stop offset="1" stop-color="#FF8833"/>
</linearGradient>
<linearGradient id="paint3_linear_240_25309" x1="157.256" y1="19.3122" x2="157.256" y2="37.2389" gradientUnits="userSpaceOnUse">
<stop stop-color="#F55F3E"/>
<stop offset="1" stop-color="#FF8833"/>
</linearGradient>
<clipPath id="clip0_240_25309">
<rect width="144.836" height="141.603" fill="white"/>
</clipPath>
</defs>
</svg>
