<svg xmlns="http://www.w3.org/2000/svg" xmlns:xlink="http://www.w3.org/1999/xlink" id="Layer_1" width="100" height="100" x="0" style="enable-background:new 0 0 100 100" y="0" version="1.1" viewBox="0 0 100 100" xml:space="preserve"><g><g><linearGradient id="SVGID_1_" x1="15.811" x2="15.811" y1="25" y2="-2.536" gradientUnits="userSpaceOnUse"><stop offset="0" style="stop-color:#fff33b"/><stop offset=".059" style="stop-color:#ffe029"/><stop offset=".13" style="stop-color:#ffd218"/><stop offset=".203" style="stop-color:#fec90f"/><stop offset=".281" style="stop-color:#fdc70c"/><stop offset=".668" style="stop-color:#f3903f"/><stop offset=".888" style="stop-color:#ed683c"/><stop offset="1" style="stop-color:#e93e3a"/></linearGradient><rect style="fill:url(#SVGID_1_)" width="31.623" height="15.049" x="0"/><linearGradient id="SVGID_2_" x1="50" x2="50" y1="25" y2="-2.536" gradientUnits="userSpaceOnUse"><stop offset="0" style="stop-color:#fff33b"/><stop offset=".059" style="stop-color:#ffe029"/><stop offset=".13" style="stop-color:#ffd218"/><stop offset=".203" style="stop-color:#fec90f"/><stop offset=".281" style="stop-color:#fdc70c"/><stop offset=".668" style="stop-color:#f3903f"/><stop offset=".888" style="stop-color:#ed683c"/><stop offset="1" style="stop-color:#e93e3a"/></linearGradient><rect style="fill:url(#SVGID_2_)" width="31.623" height="15.049" x="34.188"/><linearGradient id="SVGID_3_" x1="84.189" x2="84.189" y1="25" y2="-2.536" gradientUnits="userSpaceOnUse"><stop offset="0" style="stop-color:#fff33b"/><stop offset=".059" style="stop-color:#ffe029"/><stop offset=".13" style="stop-color:#ffd218"/><stop offset=".203" style="stop-color:#fec90f"/><stop offset=".281" style="stop-color:#fdc70c"/><stop offset=".668" style="stop-color:#f3903f"/><stop offset=".888" style="stop-color:#ed683c"/><stop offset="1" style="stop-color:#e93e3a"/></linearGradient><rect style="fill:url(#SVGID_3_)" width="31.623" height="15.049" x="68.377"/></g><g><rect style="fill:#898989" width="31.623" height="15.049" x="0" y="16.99"/><rect style="fill:#898989" width="31.623" height="15.049" x="34.188" y="16.99"/><rect style="fill:#898989" width="31.623" height="15.049" x="68.377" y="16.99"/></g><g><rect style="fill:#6d6e71" width="31.623" height="15.049" x="0" y="33.981"/><rect style="fill:#6d6e71" width="31.623" height="15.049" x="34.188" y="33.981"/><rect style="fill:#6d6e71" width="31.623" height="15.049" x="68.377" y="33.981"/></g><g><rect style="fill:#898989" width="31.623" height="15.049" x="0" y="50.971"/><rect style="fill:#898989" width="31.623" height="15.049" x="34.188" y="50.971"/><rect style="fill:#898989" width="31.623" height="15.049" x="68.377" y="50.971"/></g><g><rect style="fill:#6d6e71" width="31.623" height="15.049" x="0" y="67.961"/><rect style="fill:#6d6e71" width="31.623" height="15.049" x="34.188" y="67.961"/><rect style="fill:#6d6e71" width="31.623" height="15.049" x="68.377" y="67.961"/></g><g><rect style="fill:#898989" width="31.623" height="15.049" x="0" y="84.951"/><rect style="fill:#898989" width="31.623" height="15.049" x="34.188" y="84.951"/><rect style="fill:#898989" width="31.623" height="15.049" x="68.377" y="84.951"/></g></g></svg>