<svg width="140" height="48" viewBox="0 0 140 48" fill="none" xmlns="http://www.w3.org/2000/svg">
  <path d="M0 1.04083V13H15V0H0.626828C0.460583 0 0.301147 0.109659 0.183594 0.304853C0.0660407 0.500047 0 0.764787 0 1.04083Z" fill="url(#paint0_linear_1248_126620)"/>
  <path d="M15 17.5H0V30.5H15V17.5Z" fill="#84AFF1"/>
  <path d="M15 35H0V48H15V35Z" fill="#84AFF1"/>
  <path d="M8.5 21H7.07158L5.5 21.9199V23.1738L6.92531 22.3535H6.96266V27H8.5V21Z" fill="#24292E"/>
  <path d="M5.33733 44.5H9.75V43.3468H7.33409V43.3092L8.04722 42.6561C9.33959 41.5376 9.67723 40.9682 9.67723 40.289C9.67723 39.2225 8.8011 38.5 7.44761 38.5C6.12905 38.5 5.2471 39.2543 5.25001 40.4595H6.61514C6.61514 39.9249 6.94696 39.6156 7.44179 39.6156C7.92788 39.6156 8.28008 39.9133 8.28008 40.4017C8.28008 40.8439 8.00065 41.1445 7.51165 41.5809L5.33733 43.4711V44.5Z" fill="#24292E"/>
  <path d="M9.65 9.3H9.3V3.35C9.3 3.25717 9.26313 3.16815 9.19749 3.10251C9.13185 3.03687 9.04283 3 8.95 3H7.725C7.66392 3.00037 7.604 3.01672 7.5512 3.04742C7.49839 3.07812 7.45454 3.1221 7.424 3.175L3.8505 9.3H3.35C3.25717 9.3 3.16815 9.33687 3.10251 9.40251C3.03687 9.46815 3 9.55717 3 9.65C3 9.74283 3.03687 9.83185 3.10251 9.89749C3.16815 9.96313 3.25717 10 3.35 10H4.75C4.84283 10 4.93185 9.96313 4.99749 9.89749C5.06313 9.83185 5.1 9.74283 5.1 9.65C5.1 9.55717 5.06313 9.46815 4.99749 9.40251C4.93185 9.33687 4.84283 9.3 4.75 9.3H4.659L5.884 7.2H8.6V9.3H8.25C8.15717 9.3 8.06815 9.33687 8.00251 9.40251C7.93687 9.46815 7.9 9.55717 7.9 9.65C7.9 9.74283 7.93687 9.83185 8.00251 9.89749C8.06815 9.96313 8.15717 10 8.25 10H9.65C9.74283 10 9.83185 9.96313 9.89749 9.89749C9.96313 9.83185 10 9.74283 10 9.65C10 9.55717 9.96313 9.46815 9.89749 9.40251C9.83185 9.33687 9.74283 9.3 9.65 9.3ZM8.6 6.5H6.2935L7.9245 3.7H8.6V6.5Z" fill="white"/>
  <path d="M23 15.5H22.5V16V32V32.5H23H50H50.5V32V16V15.5H50H23Z" stroke="#24292E"/>
  <path d="M63.9067 30C64.6011 30 69.9327 26 69.9327 24C69.9327 22 64.7357 18 63.9067 18C63.0778 18 62.4023 18.5 62.4023 19.4756C62.4023 20.4512 65.9067 22.9206 65.9067 22.9206C65.9067 22.9206 58.2539 22.25 58 22.9206C57.7461 23.5911 57.7461 24.4089 58 25.0794C58.2539 25.75 65.9067 25.0794 65.9067 25.0794C65.9067 25.0794 62.4023 27.75 62.4023 28.5301C62.4023 29.3103 63.2124 30 63.9067 30Z" fill="#24292E"/>
  <path d="M78 1.04083V13H93V0H78.6268C78.4606 0 78.3011 0.109659 78.1836 0.304853C78.066 0.500047 78 0.764787 78 1.04083Z" fill="url(#paint1_linear_1248_126620)"/>
  <path d="M93 17.5H78V30.5H93V17.5Z" fill="#84AFF1"/>
  <path d="M93 35H78V48H93V35Z" fill="#84AFF1"/>
  <path d="M86.5 21H85.0716L83.5 21.9199V23.1738L84.9253 22.3535H84.9627V27H86.5V21Z" fill="#24292E"/>
  <path d="M83.3373 44.5H87.75V43.3468H85.3341V43.3092L86.0472 42.6561C87.3396 41.5376 87.6772 40.9682 87.6772 40.289C87.6772 39.2225 86.8011 38.5 85.4476 38.5C84.129 38.5 83.2471 39.2543 83.25 40.4595H84.6151C84.6151 39.9249 84.947 39.6156 85.4418 39.6156C85.9279 39.6156 86.2801 39.9133 86.2801 40.4017C86.2801 40.8439 86.0006 41.1445 85.5116 41.5809L83.3373 43.4711V44.5Z" fill="#24292E"/>
  <g clip-path="url(#clip0_1248_126620)">
  <path d="M83.1733 5.06818H83.3523V5.24716C83.3523 5.3421 83.39 5.43314 83.4571 5.50027C83.5242 5.5674 83.6153 5.60511 83.7102 5.60511C83.8052 5.60511 83.8962 5.5674 83.9633 5.50027C84.0305 5.43314 84.0682 5.3421 84.0682 5.24716V5.06818H84.2472C84.3421 5.06818 84.4331 5.03047 84.5003 4.96334C84.5674 4.89621 84.6051 4.80516 84.6051 4.71023C84.6051 4.61529 84.5674 4.52425 84.5003 4.45712C84.4331 4.38999 84.3421 4.35227 84.2472 4.35227H84.0682V4.1733C84.0682 4.07836 84.0305 3.98731 83.9633 3.92018C83.8962 3.85305 83.8052 3.81534 83.7102 3.81534C83.6153 3.81534 83.5242 3.85305 83.4571 3.92018C83.39 3.98731 83.3523 4.07836 83.3523 4.1733V4.35227H83.1733C83.0784 4.35227 82.9873 4.38999 82.9202 4.45712C82.8531 4.52425 82.8153 4.61529 82.8153 4.71023C82.8153 4.80516 82.8531 4.89621 82.9202 4.96334C82.9873 5.03047 83.0784 5.06818 83.1733 5.06818ZM82.9514 9.04864C83.0184 9.11531 83.1092 9.15273 83.2037 9.15273C83.2983 9.15273 83.389 9.11531 83.4561 9.04864L83.7102 8.79449L83.9644 9.04864C84.0314 9.11531 84.1222 9.15273 84.2167 9.15273C84.3113 9.15273 84.402 9.11531 84.4691 9.04864C84.5358 8.98157 84.5732 8.89085 84.5732 8.79628C84.5732 8.70171 84.5358 8.61099 84.4691 8.54392L84.2149 8.28977L84.4691 8.03563C84.5277 7.96715 84.5584 7.87906 84.5549 7.78898C84.5514 7.69889 84.5141 7.61343 84.4503 7.54968C84.3866 7.48593 84.3011 7.44858 84.211 7.4451C84.1209 7.44162 84.0329 7.47227 83.9644 7.53091L83.7102 7.78506L83.4561 7.53091C83.3876 7.47227 83.2995 7.44162 83.2094 7.4451C83.1193 7.44858 83.0339 7.48593 82.9701 7.54968C82.9064 7.61343 82.869 7.69889 82.8656 7.78898C82.8621 7.87906 82.8927 7.96715 82.9514 8.03563L83.2055 8.28977L82.9514 8.54392C82.8847 8.61099 82.8473 8.70171 82.8473 8.79628C82.8473 8.89085 82.8847 8.98157 82.9514 9.04864V9.04864ZM88.3636 2.5625H82.6364C82.3516 2.5625 82.0784 2.67564 81.877 2.87703C81.6756 3.07842 81.5625 3.35156 81.5625 3.63636V9.36364C81.5625 9.64844 81.6756 9.92159 81.877 10.123C82.0784 10.3244 82.3516 10.4375 82.6364 10.4375H88.3636C88.6484 10.4375 88.9216 10.3244 89.123 10.123C89.3244 9.92159 89.4375 9.64844 89.4375 9.36364V3.63636C89.4375 3.35156 89.3244 3.07842 89.123 2.87703C88.9216 2.67564 88.6484 2.5625 88.3636 2.5625V2.5625ZM85.142 9.72159H82.6364C82.5414 9.72159 82.4504 9.68388 82.3833 9.61675C82.3161 9.54962 82.2784 9.45857 82.2784 9.36364V6.85796H85.142V9.72159ZM85.142 6.14205H82.2784V3.63636C82.2784 3.54143 82.3161 3.45038 82.3833 3.38325C82.4504 3.31612 82.5414 3.27841 82.6364 3.27841H85.142V6.14205ZM88.7216 9.36364C88.7216 9.45857 88.6839 9.54962 88.6167 9.61675C88.5496 9.68388 88.4586 9.72159 88.3636 9.72159H85.858V6.85796H88.7216V9.36364ZM88.7216 6.14205H85.858V3.27841H88.3636C88.4586 3.27841 88.5496 3.31612 88.6167 3.38325C88.6839 3.45038 88.7216 3.54143 88.7216 3.63636V6.14205ZM86.7528 8.1108H87.8267C87.9216 8.1108 88.0127 8.07308 88.0798 8.00595C88.1469 7.93882 88.1847 7.84778 88.1847 7.75284C88.1847 7.65791 88.1469 7.56686 88.0798 7.49973C88.0127 7.4326 87.9216 7.39489 87.8267 7.39489H86.7528C86.6579 7.39489 86.5669 7.4326 86.4997 7.49973C86.4326 7.56686 86.3949 7.65791 86.3949 7.75284C86.3949 7.84778 86.4326 7.93882 86.4997 8.00595C86.5669 8.07308 86.6579 8.1108 86.7528 8.1108V8.1108ZM87.8267 4.35227H86.7528C86.6579 4.35227 86.5669 4.38999 86.4997 4.45712C86.4326 4.52425 86.3949 4.61529 86.3949 4.71023C86.3949 4.80516 86.4326 4.89621 86.4997 4.96334C86.5669 5.03047 86.6579 5.06818 86.7528 5.06818H87.8267C87.9216 5.06818 88.0127 5.03047 88.0798 4.96334C88.1469 4.89621 88.1847 4.80516 88.1847 4.71023C88.1847 4.61529 88.1469 4.52425 88.0798 4.45712C88.0127 4.38999 87.9216 4.35227 87.8267 4.35227ZM86.7528 9.18466H87.8267C87.9216 9.18466 88.0127 9.14695 88.0798 9.07982C88.1469 9.01269 88.1847 8.92164 88.1847 8.82671C88.1847 8.73177 88.1469 8.64072 88.0798 8.57359C88.0127 8.50646 87.9216 8.46875 87.8267 8.46875H86.7528C86.6579 8.46875 86.5669 8.50646 86.4997 8.57359C86.4326 8.64072 86.3949 8.73177 86.3949 8.82671C86.3949 8.92164 86.4326 9.01269 86.4997 9.07982C86.5669 9.14695 86.6579 9.18466 86.7528 9.18466V9.18466Z" fill="white"/>
  </g>
  <defs>
  <linearGradient id="paint0_linear_1248_126620" x1="0" y1="6.5052" x2="15" y2="6.5052" gradientUnits="userSpaceOnUse">
  <stop stop-color="#F2CC0C"/>
  <stop offset="1" stop-color="#FF9830"/>
  </linearGradient>
  <linearGradient id="paint1_linear_1248_126620" x1="78" y1="6.5052" x2="93" y2="6.5052" gradientUnits="userSpaceOnUse">
  <stop stop-color="#F2CC0C"/>
  <stop offset="1" stop-color="#FF9830"/>
  </linearGradient>
  <clipPath id="clip0_1248_126620">
  <rect width="9" height="9" fill="white" transform="translate(81 2)"/>
  </clipPath>
  </defs>
  </svg>
  