<svg width="158" height="48" viewBox="0 0 158 48" fill="none" xmlns="http://www.w3.org/2000/svg">
<path d="M19 13H34V1.04083C34 0.764787 33.934 0.500047 33.8164 0.304853C33.6989 0.109659 33.5394 0 33.3732 0L19 0V13Z" fill="#CCCCDC" fill-opacity="0.04"/>
<path d="M34 17.5H19V30.5H34V17.5Z" fill="#CCCCDC" fill-opacity="0.12"/>
<path d="M34 35H19V48H34V35Z" fill="#CCCCDC" fill-opacity="0.12"/>
<path d="M0 1.03583V12.995H15V-0.00500488H0.626828C0.460583 -0.00500488 0.301147 0.104654 0.183594 0.299848C0.0660407 0.495042 0 0.759782 0 1.03583Z" fill="#CCCCDC" fill-opacity="0.04"/>
<path d="M15 17.495H0V30.495H15V17.495Z" fill="#CCCCDC" fill-opacity="0.12"/>
<path d="M15 34.995H0V47.995H15V34.995Z" fill="#CCCCDC" fill-opacity="0.12"/>
<path d="M46.3343 30H49.674V25.674H54V22.3343H49.674V18H46.3343V22.3343H42V25.674H46.3343V30Z" fill="#CCCCDC" fill-opacity="0.4"/>
<path d="M82.675 1.5H75.325C74.9073 1.5 74.5067 1.66594 74.2113 1.96131C73.9159 2.25668 73.75 2.65728 73.75 3.075V3.68925C73.7499 3.90604 73.7946 4.12052 73.8813 4.31925V4.35075C73.9554 4.51926 74.0605 4.6724 74.191 4.80225L77.425 8.01525V11.475C77.4248 11.5642 77.4474 11.652 77.4906 11.7301C77.5337 11.8082 77.5961 11.874 77.6718 11.9212C77.7553 11.973 77.8517 12.0003 77.95 12C78.0322 11.9995 78.1131 11.9797 78.1862 11.9422L80.2862 10.8922C80.3728 10.8486 80.4456 10.7819 80.4966 10.6994C80.5476 10.6169 80.5747 10.5219 80.575 10.425V8.01525L83.788 4.80225C83.9185 4.6724 84.0236 4.51926 84.0977 4.35075V4.31925C84.1916 4.12208 84.2435 3.90753 84.25 3.68925V3.075C84.25 2.65728 84.0841 2.25668 83.7887 1.96131C83.4933 1.66594 83.0927 1.5 82.675 1.5ZM79.6772 7.42725C79.6286 7.47631 79.5901 7.53448 79.564 7.59845C79.5378 7.66241 79.5246 7.73091 79.525 7.8V10.0995L78.475 10.6245V7.8C78.4754 7.73091 78.4622 7.66241 78.436 7.59845C78.4099 7.53448 78.3714 7.47631 78.3227 7.42725L75.5402 4.65H82.4597L79.6772 7.42725ZM83.2 3.6H74.8V3.075C74.8 2.93576 74.8553 2.80223 74.9538 2.70377C75.0522 2.60531 75.1858 2.55 75.325 2.55H82.675C82.8142 2.55 82.9478 2.60531 83.0462 2.70377C83.1447 2.80223 83.2 2.93576 83.2 3.075V3.6Z" fill="#CCCCDC" fill-opacity="0.4"/>
<g clip-path="url(#clip0_1764_105605)">
<path d="M62 17.7908V29.75H76.9563V16.75H62.625C62.4592 16.75 62.3003 16.8597 62.1831 17.0549C62.0658 17.25 62 17.5148 62 17.7908Z" fill="#CCCCDC" fill-opacity="0.04"/>
<path d="M77 34.25H62V47.25H77V34.25Z" fill="#CCCCDC" fill-opacity="0.04"/>
</g>
<g clip-path="url(#clip1_1764_105605)">
<path d="M81 29.75H96V17.7908C96 17.5148 95.934 17.25 95.8164 17.0549C95.6989 16.8597 95.5394 16.75 95.3732 16.75H81V29.75Z" fill="#CCCCDC" fill-opacity="0.04"/>
<path d="M96 34.25H81V47.25H96V34.25Z" fill="#CCCCDC" fill-opacity="0.04"/>
</g>
<path d="M109.907 30C110.601 30 115.933 26 115.933 24C115.933 22 110.736 18 109.907 18C109.078 18 108.402 18.5 108.402 19.4756C108.402 20.4512 111.907 22.9206 111.907 22.9206C111.907 22.9206 104.254 22.25 104 22.9206C103.746 23.5911 103.746 24.4089 104 25.0794C104.254 25.75 111.907 25.0794 111.907 25.0794C111.907 25.0794 108.402 27.75 108.402 28.5301C108.402 29.3103 109.212 30 109.907 30Z" fill="#CCCCDC" fill-opacity="0.4"/>
<path d="M143 13H158V1.04083C158 0.764787 157.934 0.500047 157.816 0.304853C157.699 0.109659 157.539 0 157.373 0L143 0V13Z" fill="#CCCCDC" fill-opacity="0.04"/>
<path d="M158 17.5H143V30.5H158V17.5Z" fill="#CCCCDC" fill-opacity="0.12"/>
<path d="M158 35H143V48H158V35Z" fill="#CCCCDC" fill-opacity="0.12"/>
<path d="M124 1.03583V12.995H139V-0.00500488H124.627C124.461 -0.00500488 124.301 0.104654 124.184 0.299848C124.066 0.495042 124 0.759782 124 1.03583Z" fill="#CCCCDC" fill-opacity="0.04"/>
<path d="M139 17.495H124V30.495H139V17.495Z" fill="#CCCCDC" fill-opacity="0.12"/>
<path d="M139 34.995H124V47.995H139V34.995Z" fill="#CCCCDC" fill-opacity="0.12"/>
<defs>
<clipPath id="clip0_1764_105605">
<rect width="15" height="30.5" fill="white" transform="translate(62 16.75)"/>
</clipPath>
<clipPath id="clip1_1764_105605">
<rect width="15" height="30.5" fill="white" transform="translate(81 16.75)"/>
</clipPath>
</defs>
</svg>
