<svg width="188" height="48" viewBox="0 0 188 48" fill="none" xmlns="http://www.w3.org/2000/svg">
<g clip-path="url(#clip0_1764_105505)">
<path d="M0 0.800641V10H24V1.05456e-06H1.00292L0.000198677 0L0 0.800641Z" fill="#CCCCDC" fill-opacity="0.04"/>
<path d="M24 13H0V22.5H24V13Z" fill="#CCCCDC" fill-opacity="0.12"/>
<path d="M24 25.75H0V35.25H24V25.75Z" fill="#CCCCDC" fill-opacity="0.12"/>
<path d="M24 38.5H0V48H24V38.5Z" fill="#CCCCDC" fill-opacity="0.12"/>
<path d="M13 14.6179H11.5716L10 15.5378V16.7917L11.4253 15.9714H11.4627V20.6179H13V14.6179Z" fill="#CCCCDC" fill-opacity="0.4"/>
<path d="M9.83733 33.5H14.25V32.3468H11.8341V32.3092L12.5472 31.6561C13.8396 30.5376 14.1772 29.9682 14.1772 29.289C14.1772 28.2225 13.3011 27.5 11.9476 27.5C10.629 27.5 9.7471 28.2543 9.75001 29.4595H11.1151C11.1151 28.9249 11.447 28.6156 11.9418 28.6156C12.4279 28.6156 12.7801 28.9133 12.7801 29.4017C12.7801 29.8439 12.5006 30.1445 12.0116 30.5809L9.83733 32.4711V33.5Z" fill="#CCCCDC" fill-opacity="0.4"/>
<path d="M9.83733 46.25H14.25V45.0968H11.8341V45.0592L12.5472 44.4061C13.8396 43.2876 14.1772 42.7182 14.1772 42.039C14.1772 40.9725 13.3011 40.25 11.9476 40.25C10.629 40.25 9.7471 41.0043 9.75001 42.2095H11.1151C11.1151 41.6749 11.447 41.3656 11.9418 41.3656C12.4279 41.3656 12.7801 41.6633 12.7801 42.1517C12.7801 42.5939 12.5006 42.8945 12.0116 43.3309L9.83733 45.2211V46.25Z" fill="#CCCCDC" fill-opacity="0.4"/>
</g>
<g clip-path="url(#clip1_1764_105505)">
<path d="M28 0.800641V10H52V1.05456e-06H29.0029L28.0002 0L28 0.800641Z" fill="#CCCCDC" fill-opacity="0.04"/>
<path d="M52 13H28V22.5H52V13Z" fill="#CCCCDC" fill-opacity="0.12"/>
<path d="M52 25.75H28V35.25H52V25.75Z" fill="#CCCCDC" fill-opacity="0.12"/>
<path d="M52 38.5H28V48H52V38.5Z" fill="#CCCCDC" fill-opacity="0.12"/>
<path d="M40.1058 46.25C41.5564 46.25 42.4563 45.4582 42.5 44.2595H40.9654C40.905 44.7737 40.5759 45.0544 40.1259 45.0544C39.5484 45.0544 39.1723 44.597 39.1723 43.7358C39.1723 42.8809 39.5517 42.4235 40.1259 42.4235C40.596 42.4235 40.9016 42.7232 40.9654 43.2185H42.5C42.4631 42.026 41.5363 41.25 40.1024 41.25C38.4805 41.25 37.5 42.2658 37.5 43.7516C37.5 45.2311 38.4738 46.25 40.1058 46.25Z" fill="#CCCCDC" fill-opacity="0.4"/>
</g>
<g clip-path="url(#clip2_1764_105505)">
<path d="M56 0.800641V10H80V1.05456e-06H57.0029L56.0002 0L56 0.800641Z" fill="#CCCCDC" fill-opacity="0.04"/>
<path d="M80 13H56V22.5H80V13Z" fill="#CCCCDC" fill-opacity="0.12"/>
<path d="M80 25.75H56V35.25H80V25.75Z" fill="#CCCCDC" fill-opacity="0.12"/>
<path d="M80 38.5H56V48H80V38.5Z" fill="#CCCCDC" fill-opacity="0.12"/>
<path d="M67.5383 20.75C68.2141 20.75 68.616 20.3761 68.7966 19.9645H68.8403V20.6862H70.25V14.75H68.8257V16.9964H68.7966C68.6277 16.5877 68.2374 16.1761 67.5325 16.1761C66.5976 16.1761 65.75 16.892 65.75 18.463C65.75 19.979 66.551 20.75 67.5383 20.75ZM68.0335 19.6457C67.5063 19.6457 67.2121 19.179 67.2121 18.4601C67.2121 17.7442 67.5034 17.2833 68.0335 17.2833C68.5549 17.2833 68.8578 17.7326 68.8578 18.4601C68.8578 19.1819 68.5519 19.6457 68.0335 19.6457Z" fill="#CCCCDC" fill-opacity="0.4"/>
<path d="M68.0797 33C69.4177 33 70.2975 32.3849 70.4834 31.4322L68.9927 31.3912C68.8665 31.7129 68.5345 31.8864 68.1096 31.8864C67.4854 31.8864 67.1003 31.4921 67.1003 30.8991V30.858H70.5V30.4732C70.5 28.877 69.4774 28 68.0299 28C66.4894 28 65.5 29.0032 65.5 30.5047C65.5 32.0568 66.4761 33 68.0797 33ZM67.1003 29.9621C67.1235 29.4795 67.5252 29.1136 68.0631 29.1136C68.5976 29.1136 68.9827 29.4669 68.9894 29.9621H67.1003Z" fill="#CCCCDC" fill-opacity="0.4"/>
<path d="M69.2936 41.9515H68.4651V41.7108C68.4651 41.4646 68.5669 41.3134 68.8893 41.3134C69.0193 41.3134 69.1777 41.3414 69.2795 41.3722L69.5 40.3703C69.336 40.3256 68.9599 40.25 68.5782 40.25C67.6932 40.25 67.0853 40.7369 67.0853 41.7332V41.9515H66.5V42.959H67.0853V46.25H68.4651V42.959H69.2936V41.9515Z" fill="#CCCCDC" fill-opacity="0.4"/>
</g>
<path d="M93.9067 30C94.6011 30 99.9327 26 99.9327 24C99.9327 22 94.7357 18 93.9067 18C93.0777 18 92.4023 18.5 92.4023 19.4756C92.4023 20.4512 95.9067 22.9206 95.9067 22.9206C95.9067 22.9206 88.2539 22.25 88 22.9206C87.7461 23.5911 87.7461 24.4089 88 25.0794C88.2539 25.75 95.9067 25.0794 95.9067 25.0794C95.9067 25.0794 92.4023 27.75 92.4023 28.5301C92.4023 29.3103 93.2123 30 93.9067 30Z" fill="#CCCCDC" fill-opacity="0.4"/>
<g clip-path="url(#clip3_1764_105505)">
<path d="M108 0.800641V10H132V1.05456e-06H109.003L108 0L108 0.800641Z" fill="#CCCCDC" fill-opacity="0.04"/>
<path d="M132 13H108V22.5H132V13Z" fill="#CCCCDC" fill-opacity="0.12"/>
<path d="M132 25.75H108V35.25H132V25.75Z" fill="#CCCCDC" fill-opacity="0.12"/>
<path d="M132 38.5H108V48H132V38.5Z" fill="#CCCCDC" fill-opacity="0.12"/>
<path d="M120.106 46.25C121.556 46.25 122.456 45.4582 122.5 44.2595H120.965C120.905 44.7737 120.576 45.0544 120.126 45.0544C119.548 45.0544 119.172 44.597 119.172 43.7358C119.172 42.8809 119.552 42.4235 120.126 42.4235C120.596 42.4235 120.902 42.7232 120.965 43.2185H122.5C122.463 42.026 121.536 41.25 120.102 41.25C118.481 41.25 117.5 42.2658 117.5 43.7516C117.5 45.2311 118.474 46.25 120.106 46.25Z" fill="#CCCCDC" fill-opacity="0.4"/>
<path d="M117.75 33.4362H119.16V32.7145H119.203C119.384 33.1261 119.786 33.5 120.462 33.5C121.452 33.5 122.25 32.729 122.25 31.213C122.25 29.642 121.405 28.9261 120.47 28.9261C119.763 28.9261 119.375 29.3377 119.203 29.7464H119.174V27.5H117.75V33.4362ZM119.145 31.2101C119.145 30.4826 119.448 30.0333 119.969 30.0333C120.497 30.0333 120.788 30.4942 120.788 31.2101C120.788 31.929 120.497 32.3957 119.969 32.3957C119.448 32.3957 119.145 31.9319 119.145 31.2101Z" fill="#CCCCDC" fill-opacity="0.4"/>
<path d="M119.346 20.25C120.022 20.25 120.49 19.9877 120.756 19.4915H120.794V20.1678H122.247V16.8682C122.247 15.841 121.334 15.25 120.098 15.25C118.793 15.25 118.053 15.9074 117.93 16.7924L119.356 16.8429C119.422 16.5332 119.678 16.3436 120.086 16.3436C120.465 16.3436 120.705 16.5269 120.705 16.8524V16.8682C120.705 17.1653 120.383 17.2285 119.555 17.3012C118.572 17.3834 117.75 17.7468 117.75 18.8214C117.75 19.7822 118.417 20.25 119.346 20.25ZM119.823 19.2386C119.466 19.2386 119.213 19.068 119.213 18.7456C119.213 18.4327 119.46 18.243 119.899 18.1767C120.187 18.1356 120.541 18.0724 120.715 17.9807V18.4422C120.715 18.9162 120.316 19.2386 119.823 19.2386Z" fill="#CCCCDC" fill-opacity="0.4"/>
</g>
<g clip-path="url(#clip4_1764_105505)">
<path d="M136 0.800641V10H160V1.05456e-06H137.003L136 0L136 0.800641Z" fill="#CCCCDC" fill-opacity="0.04"/>
<path d="M160 13H136V22.5H160V13Z" fill="#CCCCDC" fill-opacity="0.12"/>
<path d="M160 25.75H136V35.25H160V25.75Z" fill="#CCCCDC" fill-opacity="0.12"/>
<path d="M160 38.5H136V48H160V38.5Z" fill="#CCCCDC" fill-opacity="0.12"/>
<path d="M149.5 2H148.072L146.5 2.91992V4.17383L147.925 3.35352H147.963V8H149.5V2Z" fill="#CCCCDC" fill-opacity="0.4"/>
<path d="M147.538 21C148.214 21 148.616 20.6261 148.797 20.2145H148.84V20.9362H150.25V15H148.826V17.2464H148.797C148.628 16.8377 148.237 16.4261 147.533 16.4261C146.598 16.4261 145.75 17.142 145.75 18.713C145.75 20.229 146.551 21 147.538 21ZM148.033 19.8957C147.506 19.8957 147.212 19.429 147.212 18.7101C147.212 17.9942 147.503 17.5333 148.033 17.5333C148.555 17.5333 148.858 17.9826 148.858 18.7101C148.858 19.4319 148.552 19.8957 148.033 19.8957Z" fill="#CCCCDC" fill-opacity="0.4"/>
</g>
<g clip-path="url(#clip5_1764_105505)">
<path d="M164 0.800641V10H188V1.05456e-06H165.003L164 0L164 0.800641Z" fill="#CCCCDC" fill-opacity="0.04"/>
<path d="M188 13H164V22.5H188V13Z" fill="#CCCCDC" fill-opacity="0.12"/>
<path d="M188 25.75H164V35.25H188V25.75Z" fill="#CCCCDC" fill-opacity="0.12"/>
<path d="M188 38.5H164V48H188V38.5Z" fill="#CCCCDC" fill-opacity="0.12"/>
<path d="M173.837 8H178.25V6.84682H175.834V6.80925L176.547 6.15607C177.84 5.03757 178.177 4.46821 178.177 3.78902C178.177 2.72254 177.301 2 175.948 2C174.629 2 173.747 2.75434 173.75 3.95954H175.115C175.115 3.42486 175.447 3.11561 175.942 3.11561C176.428 3.11561 176.78 3.41329 176.78 3.90173C176.78 4.34393 176.501 4.64451 176.012 5.08093L173.837 6.9711V8Z" fill="#CCCCDC" fill-opacity="0.4"/>
<path d="M176.08 33C177.418 33 178.297 32.3849 178.483 31.4322L176.993 31.3912C176.867 31.7129 176.535 31.8864 176.11 31.8864C175.485 31.8864 175.1 31.4921 175.1 30.8991V30.858H178.5V30.4732C178.5 28.877 177.477 28 176.03 28C174.489 28 173.5 29.0032 173.5 30.5047C173.5 32.0568 174.476 33 176.08 33ZM175.1 29.9621C175.124 29.4795 175.525 29.1136 176.063 29.1136C176.598 29.1136 176.983 29.4669 176.989 29.9621H175.1Z" fill="#CCCCDC" fill-opacity="0.4"/>
<path d="M177.294 41.7015H176.465V41.4608C176.465 41.2146 176.567 41.0634 176.889 41.0634C177.019 41.0634 177.178 41.0914 177.279 41.1222L177.5 40.1203C177.336 40.0756 176.96 40 176.578 40C175.693 40 175.085 40.4869 175.085 41.4832V41.7015H174.5V42.709H175.085V46H176.465V42.709H177.294V41.7015Z" fill="#CCCCDC" fill-opacity="0.4"/>
</g>
<defs>
<clipPath id="clip0_1764_105505">
<rect width="24" height="48" fill="white"/>
</clipPath>
<clipPath id="clip1_1764_105505">
<rect width="24" height="48" fill="white" transform="translate(28)"/>
</clipPath>
<clipPath id="clip2_1764_105505">
<rect width="24" height="48" fill="white" transform="translate(56)"/>
</clipPath>
<clipPath id="clip3_1764_105505">
<rect width="24" height="48" fill="white" transform="translate(108)"/>
</clipPath>
<clipPath id="clip4_1764_105505">
<rect width="24" height="48" fill="white" transform="translate(136)"/>
</clipPath>
<clipPath id="clip5_1764_105505">
<rect width="24" height="48" fill="white" transform="translate(164)"/>
</clipPath>
</defs>
</svg>
