<svg xmlns="http://www.w3.org/2000/svg" xmlns:xlink="http://www.w3.org/1999/xlink" viewBox="0 0 78.69 80.31"><defs><style>.cls-1{fill:url(#linear-gradient);}.cls-2{fill:#3865ab;}</style><linearGradient id="linear-gradient" y1="43.57" x2="78.69" y2="43.57" gradientUnits="userSpaceOnUse"><stop offset="0" stop-color="#f2cc0c"/><stop offset="1" stop-color="#ff9830"/></linearGradient></defs><g id="Layer_2" data-name="Layer 2"><g id="Icons"><path class="cls-1" d="M23.16,80.31h-4a1,1,0,0,1-1-1V48.21a1,1,0,0,1,1-1h4a1,1,0,0,1,1,1v31.1A1,1,0,0,1,23.16,80.31Zm-9.07-12h-4a1,1,0,0,0-1,1v10a1,1,0,0,0,1,1h4a1,1,0,0,0,1-1v-10A1,1,0,0,0,14.09,68.32ZM32.23,16.61h-4a1,1,0,0,0-1,1v61.7a1,1,0,0,0,1,1h4a1,1,0,0,0,1-1V17.61A1,1,0,0,0,32.23,16.61ZM41.3,6.82h-4a1,1,0,0,0-1,1V79.31a1,1,0,0,0,1,1h4a1,1,0,0,0,1-1V7.82A1,1,0,0,0,41.3,6.82Zm9.07,9.79h-4a1,1,0,0,0-1,1v61.7a1,1,0,0,0,1,1h4a1,1,0,0,0,1-1V17.61A1,1,0,0,0,50.37,16.61Zm9.07,30.6h-4a1,1,0,0,0-1,1v31.1a1,1,0,0,0,1,1h4a1,1,0,0,0,1-1V48.21A1,1,0,0,0,59.44,47.21Zm9.07,21.11h-4a1,1,0,0,0-1,1v10a1,1,0,0,0,1,1h4a1,1,0,0,0,1-1v-10A1,1,0,0,0,68.51,68.32Zm9.18,4.81h-4a1,1,0,0,0-1,1v5.18a1,1,0,0,0,1,1h4a1,1,0,0,0,1-1V74.13A1,1,0,0,0,77.69,73.13ZM5,73.13H1a1,1,0,0,0-1,1v5.18a1,1,0,0,0,1,1H5a1,1,0,0,0,1-1V74.13A1,1,0,0,0,5,73.13Z"/><path class="cls-2" d="M0,70.31v-4a6.87,6.87,0,0,0,2.29-.37L3.6,69.72A11,11,0,0,1,0,70.31Z"/><path class="cls-2" d="M8.54,66.35l-3-2.69A19.14,19.14,0,0,0,8.5,59.07l3.61,1.72A22.79,22.79,0,0,1,8.54,66.35Zm61.55-.07a23.07,23.07,0,0,1-3.55-5.56L70.16,59a19.22,19.22,0,0,0,2.9,4.6Zm-56-10.39L10.28,54.6c.57-1.66,1.12-3.51,1.69-5.67l3.87,1C15.24,52.2,14.67,54.15,14.07,55.89Zm50.52-.07c-.59-1.74-1.17-3.69-1.76-5.94l3.87-1c.57,2.16,1.12,4,1.68,5.67ZM17.06,45l-3.89-.91c.45-1.93.88-3.9,1.32-5.89l3.91.87C18,41.07,17.51,43.06,17.06,45Zm44.55-.08C61.16,43,60.72,41,60.27,39l3.91-.87c.44,2,.88,4,1.32,5.89ZM19.5,34.15l-3.9-.89c.52-2.3,1-4.19,1.42-5.94l3.88,1C20.46,30,20,31.88,19.5,34.15Zm39.67-.08c-.53-2.32-1-4.17-1.4-5.84l3.88-1c.43,1.7.89,3.59,1.42,5.94Zm-37-10.55-3.83-1.14c.65-2.19,1.3-4.11,2-5.89l3.73,1.44C23.45,19.61,22.83,21.44,22.21,23.52Zm34.24-.09c-.62-2.07-1.23-3.89-1.89-5.58l3.73-1.45c.69,1.79,1.35,3.72,2,5.89ZM26.06,13.52,22.5,11.69A30.32,30.32,0,0,1,26,6.26L29.1,8.82A26.32,26.32,0,0,0,26.06,13.52Zm26.53-.07a26.42,26.42,0,0,0-3.05-4.69L52.6,6.19a29.61,29.61,0,0,1,3.54,5.41ZM32.36,5.83,30.15,2.5A15.82,15.82,0,0,1,36.49,0l.63,4A11.6,11.6,0,0,0,32.36,5.83Zm13.9,0A11.66,11.66,0,0,0,41.5,4L42.1,0a15.84,15.84,0,0,1,6.36,2.44Z"/><path class="cls-2" d="M78.69,70.31a11,11,0,0,1-3.6-.59l1.3-3.78a7.25,7.25,0,0,0,2.3.37Z"/></g></g></svg>