<?xml version="1.0" encoding="utf-8"?>
<!-- Generator: Adobe Illustrator 23.0.1, SVG Export Plug-In . SVG Version: 6.00 Build 0)  -->
<svg version="1.1" id="Layer_1" xmlns="http://www.w3.org/2000/svg" xmlns:xlink="http://www.w3.org/1999/xlink" x="0px" y="0px"
	 width="218.21px" height="187.4px" viewBox="0 0 218.21 187.4" style="enable-background:new 0 0 218.21 187.4;"
	 xml:space="preserve">
<style type="text/css">
	.st0{fill:url(#SVGID_1_);}
	.st1{fill:url(#SVGID_2_);}
	.st2{fill:url(#SVGID_3_);}
	.st3{fill:url(#SVGID_4_);}
	.st4{fill:url(#SVGID_5_);}
	.st5{fill:url(#SVGID_6_);}
	.st6{fill:url(#SVGID_7_);}
	.st7{fill:url(#SVGID_8_);}
	.st8{fill:url(#SVGID_9_);}
</style>
<linearGradient id="SVGID_1_" gradientUnits="userSpaceOnUse" x1="68.7753" y1="8.4663" x2="68.7753" y2="59.7143">
	<stop  offset="0" style="stop-color:#FAA91F"/>
	<stop  offset="1" style="stop-color:#F37324"/>
</linearGradient>
<path class="st0" d="M7.61,50.71V12.52c0-2.66,1.95-4.82,4.36-4.82h113.62c2.41,0,4.36,2.16,4.36,4.82v38.19
	c0,2.66-1.95,4.82-4.36,4.82H11.97C9.56,55.53,7.61,53.37,7.61,50.71z"/>
<g>
	<linearGradient id="SVGID_2_" gradientUnits="userSpaceOnUse" x1="152.8987" y1="19.9183" x2="152.3315" y2="39.7688">
		<stop  offset="0" style="stop-color:#FAA91F"/>
		<stop  offset="1" style="stop-color:#F37324"/>
	</linearGradient>
	<path class="st1" d="M153.89,28.04c0.95,0,1.78,0.18,2.47,0.55c0.7,0.36,1.28,0.86,1.75,1.49c0.47,0.63,0.81,1.37,1.05,2.23
		c0.23,0.86,0.35,1.79,0.35,2.78c0,1.24-0.17,2.33-0.52,3.29c-0.34,0.96-0.83,1.77-1.46,2.43c-0.63,0.66-1.37,1.16-2.22,1.5
		c-0.85,0.34-1.78,0.52-2.79,0.52c-1.03,0-1.98-0.17-2.85-0.5c-0.87-0.33-1.62-0.83-2.25-1.49c-0.63-0.66-1.12-1.46-1.47-2.41
		c-0.35-0.95-0.53-2.03-0.53-3.25c0-1.32,0.17-2.5,0.52-3.55c0.34-1.05,0.78-2.07,1.31-3.04l4.1-7.71h5.56l-4.16,7.35l0.03,0.03
		c0.1-0.06,0.27-0.11,0.5-0.15C153.5,28.06,153.71,28.04,153.89,28.04z M154.83,35.02c0-1.05-0.21-1.91-0.62-2.57
		c-0.41-0.66-0.99-0.99-1.72-0.99c-0.69,0-1.26,0.33-1.72,1c-0.46,0.67-0.68,1.52-0.68,2.55c0,1.03,0.22,1.88,0.67,2.55
		c0.44,0.67,1.01,1,1.7,1c0.71,0,1.28-0.33,1.72-1C154.62,36.9,154.83,36.05,154.83,35.02z"/>
	<linearGradient id="SVGID_3_" gradientUnits="userSpaceOnUse" x1="167.1879" y1="20.3265" x2="166.6207" y2="40.1771">
		<stop  offset="0" style="stop-color:#FAA91F"/>
		<stop  offset="1" style="stop-color:#F37324"/>
	</linearGradient>
	<path class="st2" d="M173.57,26.79c0,0.71-0.09,1.37-0.27,1.97c-0.18,0.61-0.43,1.18-0.73,1.73c-0.3,0.55-0.65,1.07-1.03,1.58
		c-0.38,0.51-0.78,0.99-1.18,1.46l-4.01,4.65h6.95v4.19h-12.72v-4.31l6.53-7.5c0.53-0.61,0.94-1.23,1.24-1.87
		c0.3-0.64,0.46-1.25,0.46-1.84c0-0.63-0.15-1.16-0.44-1.61c-0.29-0.45-0.75-0.67-1.38-0.67c-0.59,0-1.07,0.24-1.46,0.71
		c-0.38,0.48-0.62,1.17-0.7,2.08l-4.56-0.43c0.24-2.19,0.99-3.82,2.23-4.9c1.24-1.08,2.79-1.62,4.63-1.62
		c0.99,0,1.88,0.15,2.67,0.46c0.79,0.3,1.46,0.73,2.02,1.28c0.56,0.55,0.99,1.21,1.29,2C173.41,24.94,173.57,25.82,173.57,26.79z"/>
</g>
<linearGradient id="SVGID_4_" gradientUnits="userSpaceOnUse" x1="90.8472" y1="69.5294" x2="90.8472" y2="118.2775">
	<stop  offset="0" style="stop-color:#E81E25"/>
	<stop  offset="1" style="stop-color:#A91D39"/>
</linearGradient>
<path class="st3" d="M7.61,115.16V71.24c0-1.08,0.87-1.95,1.95-1.95h162.57c1.08,0,1.95,0.87,1.95,1.95v43.92
	c0,1.08-0.87,1.95-1.95,1.95H9.56C8.48,117.11,7.61,116.23,7.61,115.16z"/>
<g>
	<linearGradient id="SVGID_5_" gradientUnits="userSpaceOnUse" x1="195.8516" y1="81.1631" x2="196.9859" y2="100.4465">
		<stop  offset="0" style="stop-color:#E81E25"/>
		<stop  offset="1" style="stop-color:#A91D39"/>
	</linearGradient>
	<path class="st4" d="M196.03,103.72h-5.28l6.35-17.22h-7.38v-4.28h12.66v3.64L196.03,103.72z"/>
	<linearGradient id="SVGID_6_" gradientUnits="userSpaceOnUse" x1="208.6078" y1="80.4128" x2="209.7422" y2="99.6962">
		<stop  offset="0" style="stop-color:#E81E25"/>
		<stop  offset="1" style="stop-color:#A91D39"/>
	</linearGradient>
	<path class="st5" d="M210.98,89.39c0.95,0,1.78,0.18,2.47,0.55c0.7,0.36,1.28,0.86,1.75,1.49c0.47,0.63,0.81,1.37,1.05,2.23
		c0.23,0.86,0.35,1.79,0.35,2.78c0,1.24-0.17,2.33-0.52,3.29c-0.34,0.96-0.83,1.77-1.46,2.43c-0.63,0.66-1.37,1.16-2.22,1.5
		c-0.85,0.34-1.78,0.52-2.79,0.52c-1.03,0-1.99-0.17-2.85-0.5c-0.87-0.33-1.62-0.83-2.25-1.49c-0.63-0.66-1.12-1.46-1.47-2.41
		c-0.35-0.95-0.53-2.03-0.53-3.25c0-1.32,0.17-2.5,0.52-3.55c0.34-1.05,0.78-2.07,1.31-3.04l4.1-7.71h5.56l-4.16,7.35l0.03,0.03
		c0.1-0.06,0.27-0.11,0.5-0.15C210.59,89.41,210.8,89.39,210.98,89.39z M211.92,96.37c0-1.05-0.21-1.91-0.62-2.57
		c-0.41-0.66-0.99-0.99-1.72-0.99c-0.69,0-1.26,0.33-1.72,1c-0.46,0.67-0.68,1.52-0.68,2.55s0.22,1.88,0.67,2.55
		c0.44,0.67,1.01,1,1.7,1c0.71,0,1.28-0.33,1.72-1C211.7,98.25,211.92,97.4,211.92,96.37z"/>
</g>
<linearGradient id="SVGID_7_" gradientUnits="userSpaceOnUse" x1="49.8893" y1="131.8424" x2="49.8893" y2="178.0907">
	<stop  offset="0" style="stop-color:#04A64D"/>
	<stop  offset="1" style="stop-color:#007E39"/>
</linearGradient>
<path class="st6" d="M7.61,176.74v-43.92c0-1.08,0.87-1.95,1.95-1.95h80.66c1.08,0,1.95,0.87,1.95,1.95v43.92
	c0,1.08-0.87,1.95-1.95,1.95H9.56C8.48,178.69,7.61,177.81,7.61,176.74z"/>
<g>
	<linearGradient id="SVGID_8_" gradientUnits="userSpaceOnUse" x1="112.038" y1="145.9514" x2="118.2768" y2="172.6079">
		<stop  offset="0" style="stop-color:#04A64D"/>
		<stop  offset="1" style="stop-color:#007E39"/>
	</linearGradient>
	<path class="st7" d="M119.69,161.21v4.31h-4.31v-4.31h-7.87v-4.13l6.29-13.06h5.89v13.18h2.19v4.01H119.69z M115.47,148.77h-0.06
		l-3.68,8.44h3.74V148.77z"/>
	<linearGradient id="SVGID_9_" gradientUnits="userSpaceOnUse" x1="126.6068" y1="142.5417" x2="132.8455" y2="169.1982">
		<stop  offset="0" style="stop-color:#04A64D"/>
		<stop  offset="1" style="stop-color:#007E39"/>
	</linearGradient>
	<path class="st8" d="M136.52,159.24c0,1.09-0.18,2.06-0.53,2.88c-0.35,0.83-0.84,1.53-1.44,2.11c-0.61,0.58-1.32,1.01-2.14,1.31
		c-0.82,0.29-1.71,0.44-2.66,0.44c-1.76,0-3.27-0.45-4.52-1.35c-1.26-0.9-2.09-2.27-2.49-4.11l4.28-1.09
		c0.16,0.71,0.45,1.29,0.85,1.73c0.4,0.45,0.96,0.67,1.67,0.67c0.38,0,0.72-0.08,1-0.24c0.28-0.16,0.52-0.37,0.71-0.64
		s0.33-0.56,0.43-0.9c0.09-0.33,0.14-0.67,0.14-1.02c0-0.93-0.27-1.62-0.8-2.07c-0.54-0.45-1.25-0.67-2.14-0.67h-1.09v-3.58h1.21
		c0.81,0,1.43-0.24,1.87-0.71c0.43-0.48,0.65-1.14,0.65-1.99c0-0.55-0.16-1.06-0.47-1.55c-0.31-0.49-0.82-0.73-1.5-0.73
		c-0.59,0-1.04,0.19-1.37,0.58c-0.32,0.39-0.57,0.87-0.73,1.46l-4.16-1.03c0.24-0.93,0.59-1.72,1.05-2.37s0.97-1.18,1.55-1.59
		c0.58-0.42,1.21-0.72,1.9-0.91c0.69-0.19,1.39-0.29,2.1-0.29c0.79,0,1.55,0.12,2.29,0.36c0.74,0.24,1.4,0.61,1.99,1.09
		c0.59,0.49,1.06,1.09,1.41,1.82c0.35,0.73,0.53,1.58,0.53,2.55c0,1.26-0.27,2.31-0.8,3.17c-0.54,0.86-1.25,1.43-2.14,1.72v0.09
		c1.03,0.28,1.85,0.87,2.46,1.76C136.22,157.04,136.52,158.07,136.52,159.24z"/>
</g>
</svg>
