<?xml version="1.0" encoding="utf-8"?>
<!-- Generator: Adobe Illustrator 23.0.1, SVG Export Plug-In . SVG Version: 6.00 Build 0)  -->
<svg version="1.1" id="Layer_1" xmlns="http://www.w3.org/2000/svg" xmlns:xlink="http://www.w3.org/1999/xlink" x="0px" y="0px"
	 width="218.21px" height="187.4px" viewBox="0 0 218.21 187.4" style="enable-background:new 0 0 218.21 187.4;"
	 xml:space="preserve">
<style type="text/css">
	.st0{fill:url(#SVGID_1_);}
	.st1{fill:url(#SVGID_2_);}
	.st2{fill:url(#SVGID_3_);}
	.st3{fill:url(#SVGID_4_);}
	.st4{fill:url(#SVGID_5_);}
	.st5{fill:url(#SVGID_6_);}
	.st6{fill:url(#SVGID_7_);}
	.st7{fill:url(#SVGID_8_);}
	.st8{fill:url(#SVGID_9_);}
</style>
<g>
	<linearGradient id="SVGID_1_" gradientUnits="userSpaceOnUse" x1="70.7769" y1="9.2763" x2="70.7769" y2="60.5244">
		<stop  offset="0" style="stop-color:#FAA91F"/>
		<stop  offset="1" style="stop-color:#F37324"/>
	</linearGradient>
	<path class="st0" d="M9.61,51.52V13.33c0-2.66,1.95-4.82,4.36-4.82h113.62c2.41,0,4.36,2.16,4.36,4.82v38.19
		c0,2.66-1.95,4.82-4.36,4.82H13.97C11.56,56.34,9.61,54.18,9.61,51.52z"/>
	<g>
		<linearGradient id="SVGID_2_" gradientUnits="userSpaceOnUse" x1="147.9986" y1="22.2026" x2="147.4979" y2="39.7287">
			<stop  offset="0" style="stop-color:#FAA91F"/>
			<stop  offset="1" style="stop-color:#F37324"/>
		</linearGradient>
		<path class="st1" d="M148.88,29.37c0.84,0,1.57,0.16,2.18,0.48c0.62,0.32,1.13,0.76,1.54,1.31c0.41,0.55,0.72,1.21,0.92,1.97
			c0.21,0.76,0.31,1.58,0.31,2.45c0,1.09-0.15,2.06-0.46,2.91c-0.3,0.85-0.73,1.56-1.29,2.14c-0.55,0.58-1.21,1.02-1.96,1.33
			c-0.75,0.3-1.57,0.46-2.47,0.46c-0.91,0-1.75-0.15-2.52-0.44c-0.77-0.29-1.43-0.73-1.98-1.31c-0.55-0.58-0.99-1.29-1.3-2.13
			c-0.31-0.84-0.47-1.8-0.47-2.87c0-1.16,0.15-2.21,0.46-3.14c0.3-0.93,0.69-1.82,1.15-2.68l3.62-6.81h4.91l-3.67,6.49l0.03,0.03
			c0.09-0.05,0.24-0.1,0.44-0.13C148.53,29.39,148.71,29.37,148.88,29.37z M149.71,35.54c0-0.93-0.18-1.68-0.55-2.27
			c-0.37-0.58-0.87-0.87-1.51-0.87c-0.61,0-1.11,0.29-1.51,0.88c-0.4,0.59-0.6,1.34-0.6,2.25c0,0.91,0.2,1.66,0.59,2.25
			c0.39,0.59,0.89,0.88,1.5,0.88c0.62,0,1.13-0.3,1.51-0.88C149.51,37.2,149.71,36.45,149.71,35.54z"/>
		<linearGradient id="SVGID_3_" gradientUnits="userSpaceOnUse" x1="160.6146" y1="22.563" x2="160.1138" y2="40.0891">
			<stop  offset="0" style="stop-color:#FAA91F"/>
			<stop  offset="1" style="stop-color:#F37324"/>
		</linearGradient>
		<path class="st2" d="M166.25,28.27c0,0.63-0.08,1.21-0.24,1.74c-0.16,0.54-0.38,1.05-0.64,1.53c-0.27,0.48-0.57,0.95-0.91,1.39
			c-0.34,0.45-0.69,0.88-1.05,1.29l-3.54,4.1H166v3.7h-11.23v-3.81l5.76-6.62c0.46-0.54,0.83-1.09,1.1-1.65
			c0.27-0.56,0.4-1.1,0.4-1.62c0-0.55-0.13-1.03-0.39-1.42c-0.26-0.39-0.67-0.59-1.22-0.59c-0.52,0-0.95,0.21-1.29,0.63
			c-0.34,0.42-0.54,1.03-0.62,1.84l-4.02-0.38c0.21-1.93,0.87-3.37,1.97-4.33c1.1-0.96,2.46-1.43,4.09-1.43
			c0.88,0,1.66,0.13,2.36,0.4c0.7,0.27,1.29,0.64,1.78,1.13c0.49,0.48,0.87,1.07,1.14,1.77C166.11,26.63,166.25,27.41,166.25,28.27z
			"/>
	</g>
	<g>
		<linearGradient id="SVGID_4_" gradientUnits="userSpaceOnUse" x1="92.8488" y1="69.7917" x2="92.8488" y2="118.5398">
			<stop  offset="0" style="stop-color:#E81E25"/>
			<stop  offset="1" style="stop-color:#A91D39"/>
		</linearGradient>
		<path class="st3" d="M9.61,115.42V71.5c0-1.08,0.87-1.95,1.95-1.95h162.57c1.08,0,1.95,0.87,1.95,1.95v43.92
			c0,1.08-0.87,1.95-1.95,1.95H11.56C10.48,117.37,9.61,116.5,9.61,115.42z"/>
		<g>
			<linearGradient id="SVGID_5_" gradientUnits="userSpaceOnUse" x1="191.2941" y1="82.9582" x2="192.2956" y2="99.9836">
				<stop  offset="0" style="stop-color:#E81E25"/>
				<stop  offset="1" style="stop-color:#A91D39"/>
			</linearGradient>
			<path class="st4" d="M191.45,102.87h-4.67l5.6-15.2h-6.52v-3.78h11.18v3.22L191.45,102.87z"/>
			<linearGradient id="SVGID_6_" gradientUnits="userSpaceOnUse" x1="202.5566" y1="82.2957" x2="203.5581" y2="99.3211">
				<stop  offset="0" style="stop-color:#E81E25"/>
				<stop  offset="1" style="stop-color:#A91D39"/>
			</linearGradient>
			<path class="st5" d="M204.65,90.22c0.84,0,1.57,0.16,2.18,0.48c0.62,0.32,1.13,0.76,1.54,1.31s0.72,1.21,0.92,1.97
				c0.21,0.76,0.31,1.58,0.31,2.45c0,1.09-0.15,2.06-0.46,2.91s-0.73,1.56-1.29,2.14c-0.55,0.58-1.21,1.02-1.96,1.33
				s-1.57,0.46-2.47,0.46c-0.91,0-1.75-0.15-2.52-0.44c-0.77-0.29-1.43-0.73-1.98-1.31c-0.55-0.58-0.99-1.29-1.3-2.13
				c-0.31-0.84-0.47-1.8-0.47-2.87c0-1.16,0.15-2.21,0.46-3.14c0.3-0.93,0.69-1.82,1.15-2.68l3.62-6.81h4.91l-3.67,6.49l0.03,0.03
				c0.09-0.05,0.24-0.1,0.44-0.13C204.31,90.24,204.49,90.22,204.65,90.22z M205.48,96.39c0-0.93-0.18-1.68-0.55-2.27
				c-0.37-0.58-0.87-0.87-1.51-0.87c-0.61,0-1.11,0.29-1.51,0.88c-0.4,0.59-0.6,1.34-0.6,2.25c0,0.91,0.2,1.66,0.59,2.25
				c0.39,0.59,0.89,0.88,1.5,0.88c0.62,0,1.13-0.3,1.51-0.88C205.29,98.05,205.48,97.3,205.48,96.39z"/>
		</g>
	</g>
	<linearGradient id="SVGID_7_" gradientUnits="userSpaceOnUse" x1="51.8909" y1="131.557" x2="51.8909" y2="177.8052">
		<stop  offset="0" style="stop-color:#04A64D"/>
		<stop  offset="1" style="stop-color:#007E39"/>
	</linearGradient>
	<path class="st6" d="M9.61,176.45v-43.92c0-1.08,0.87-1.95,1.95-1.95h80.66c1.08,0,1.95,0.87,1.95,1.95v43.92
		c0,1.08-0.87,1.95-1.95,1.95H11.56C10.48,178.4,9.61,177.53,9.61,176.45z"/>
	<g>
		<linearGradient id="SVGID_8_" gradientUnits="userSpaceOnUse" x1="107.5046" y1="148.5825" x2="113.0128" y2="172.1175">
			<stop  offset="0" style="stop-color:#04A64D"/>
			<stop  offset="1" style="stop-color:#007E39"/>
		</linearGradient>
		<path class="st7" d="M114.26,162.06v3.81h-3.81v-3.81h-6.94v-3.65l5.55-11.53h5.2v11.64h1.93v3.54H114.26z M110.53,151.07h-0.05
			l-3.24,7.45h3.3V151.07z"/>
		<linearGradient id="SVGID_9_" gradientUnits="userSpaceOnUse" x1="120.3674" y1="145.572" x2="125.8756" y2="169.1071">
			<stop  offset="0" style="stop-color:#04A64D"/>
			<stop  offset="1" style="stop-color:#007E39"/>
		</linearGradient>
		<path class="st8" d="M129.12,160.32c0,0.97-0.16,1.81-0.47,2.55c-0.31,0.73-0.74,1.35-1.27,1.86c-0.54,0.51-1.17,0.89-1.89,1.15
			c-0.72,0.26-1.51,0.39-2.35,0.39c-1.56,0-2.89-0.4-3.99-1.19c-1.11-0.8-1.84-2.01-2.2-3.63l3.78-0.97
			c0.14,0.63,0.39,1.14,0.75,1.53c0.36,0.39,0.85,0.59,1.47,0.59c0.34,0,0.63-0.07,0.89-0.21c0.25-0.14,0.46-0.33,0.63-0.56
			c0.17-0.23,0.3-0.5,0.38-0.79c0.08-0.29,0.12-0.59,0.12-0.9c0-0.82-0.24-1.43-0.71-1.82c-0.47-0.39-1.1-0.59-1.89-0.59h-0.97
			v-3.16h1.07c0.72,0,1.26-0.21,1.65-0.63c0.38-0.42,0.58-1.01,0.58-1.76c0-0.48-0.14-0.94-0.42-1.37
			c-0.28-0.43-0.72-0.64-1.33-0.64c-0.52,0-0.92,0.17-1.21,0.51c-0.29,0.34-0.5,0.77-0.64,1.29l-3.67-0.91
			c0.21-0.82,0.52-1.52,0.92-2.09c0.4-0.57,0.86-1.04,1.37-1.41c0.51-0.37,1.07-0.63,1.68-0.8c0.61-0.17,1.22-0.25,1.85-0.25
			c0.7,0,1.37,0.11,2.02,0.32c0.65,0.21,1.24,0.54,1.76,0.97c0.52,0.43,0.93,0.97,1.25,1.61c0.31,0.64,0.47,1.39,0.47,2.25
			c0,1.11-0.24,2.04-0.71,2.8c-0.47,0.76-1.1,1.26-1.89,1.51v0.08c0.91,0.25,1.64,0.77,2.17,1.56
			C128.86,158.37,129.12,159.28,129.12,160.32z"/>
	</g>
</g>
</svg>
