<svg xmlns="http://www.w3.org/2000/svg" xmlns:xlink="http://www.w3.org/1999/xlink" viewBox="0 0 84.67 80.32"><defs><style>.cls-1{fill:#3865ab;}.cls-2{fill:#84aff1;}.cls-3{fill:url(#linear-gradient);}</style><linearGradient id="linear-gradient" y1="50.78" x2="84.67" y2="50.78" gradientUnits="userSpaceOnUse"><stop offset="0" stop-color="#f2cc0c"/><stop offset="1" stop-color="#ff9830"/></linearGradient></defs><g id="Layer_2" data-name="Layer 2"><g id="Layer_1-2" data-name="Layer 1"><rect class="cls-1" width="32.51" height="16.6" rx="1"/><rect class="cls-1" x="38.51" width="5.16" height="16.6" rx="1"/><rect class="cls-2" x="65.51" y="21.24" width="5.16" height="16.6" rx="1"/><rect class="cls-2" y="21.24" width="59.51" height="16.6" rx="1"/><path class="cls-3" d="M83.67,59.08H80.51a1,1,0,0,1-1-1V43.48a1,1,0,0,1,1-1h3.16a1,1,0,0,1,1,1v14.6A1,1,0,0,1,83.67,59.08Zm-10.16-1V43.48a1,1,0,0,0-1-1H1a1,1,0,0,0-1,1v14.6a1,1,0,0,0,1,1H72.51A1,1,0,0,0,73.51,58.08Z"/><rect class="cls-1" y="63.73" width="50.51" height="16.6" rx="1"/><rect class="cls-1" x="56.51" y="63.73" width="5.16" height="16.6" rx="1"/></g></g></svg>