<svg width="102" height="48" viewBox="0 0 102 48" fill="none" xmlns="http://www.w3.org/2000/svg">
<g clip-path="url(#clip0_1144_162492)">
<path d="M0 1.04083V13H40V0H1.67154C1.22822 0 0 0 0 0C0 0 0 0.764787 0 1.04083Z" fill="url(#paint0_linear_1144_162492)"/>
<path d="M40 17.5H0V30.5H40V17.5Z" fill="#84AFF1"/>
<path d="M40 35H0V48H40V35Z" fill="#84AFF1"/>
<path d="M13.75 5.45455H12.1023L11.3977 8.34091H11.3523L10.6477 5.45455H9L10.4659 9.81818H12.2841L13.75 5.45455Z" fill="#24292E"/>
<path d="M15.2947 9.88636C15.8629 9.88636 16.2919 9.69318 16.5561 9.20455H16.5902V9.81818H18.0561V6.82955C18.0561 6.02273 17.2919 5.39773 16.0447 5.39773C14.7408 5.39773 14.0987 6.07955 14.0447 6.875H15.4879C15.5249 6.60511 15.7237 6.47727 16.022 6.47727C16.2947 6.47727 16.4879 6.60227 16.4879 6.82955V6.84091C16.4879 7.09375 16.2095 7.1733 15.4766 7.22727C14.576 7.29261 13.8743 7.65625 13.8743 8.61364C13.8743 9.48295 14.4595 9.88636 15.2947 9.88636ZM15.8061 8.89773C15.5391 8.89773 15.3516 8.76705 15.3516 8.52273C15.3516 8.2983 15.5107 8.125 15.8743 8.06818C16.1243 8.02841 16.3345 7.97727 16.4993 7.90909V8.27273C16.4993 8.67045 16.1612 8.89773 15.8061 8.89773Z" fill="#24292E"/>
<path d="M20.3736 4H18.8054V9.81818H20.3736V4Z" fill="#24292E"/>
<path d="M24.0021 7.90909C24.005 8.34091 23.755 8.60227 23.3658 8.60227C22.9709 8.60227 22.7436 8.34091 22.7408 7.90909V5.45455H21.1726V8.23864C21.1754 9.19318 21.7777 9.875 22.6953 9.875C23.3459 9.875 23.8459 9.54545 24.0362 8.98864H24.0817V9.81818H25.5703V5.45455H24.0021V7.90909Z" fill="#24292E"/>
<path d="M28.4588 9.89773C29.669 9.89773 30.4474 9.31818 30.5952 8.40909H29.1634C29.0724 8.65625 28.8139 8.79545 28.4929 8.79545C28.027 8.79545 27.7543 8.48864 27.7543 8.06818V8H30.5952V7.63636C30.5952 6.24716 29.7429 5.39773 28.4247 5.39773C27.0724 5.39773 26.2088 6.29545 26.2088 7.64773C26.2088 9.05966 27.0611 9.89773 28.4588 9.89773ZM27.7543 7.13636C27.7628 6.75852 28.0753 6.5 28.4588 6.5C28.848 6.5 29.1435 6.76136 29.152 7.13636H27.7543Z" fill="#24292E"/>
<path d="M6.18182 27.7955V26.6591C5.5 26.6591 5.40909 26.429 5.40909 25.9545V25.3295C5.40909 24.9063 5.19318 24.483 4.25 24.2955V24.1591C5.19318 23.9716 5.40909 23.5483 5.40909 23.125V22.5C5.40909 22.0256 5.5 21.7955 6.18182 21.7955V20.6591C5.01136 20.6591 3.88636 20.6591 3.88636 22.2955V22.7386C3.88636 23.2955 3.66477 23.5455 3 23.5455V24.9091C3.66477 24.9091 3.88636 25.1591 3.88636 25.7159V26.1591C3.88636 27.7955 5.01136 27.7955 6.18182 27.7955Z" fill="#24292E"/>
<path d="M7.92116 26.5455C8.48935 26.5455 8.91832 26.3523 9.18253 25.8636H9.21662V26.4773H10.6825V23.4886C10.6825 22.6818 9.91832 22.0568 8.67116 22.0568C7.36719 22.0568 6.72514 22.7386 6.67116 23.5341H8.11435C8.15128 23.2642 8.35014 23.1364 8.64844 23.1364C8.92116 23.1364 9.11435 23.2614 9.11435 23.4886V23.5C9.11435 23.7528 8.83594 23.8324 8.10298 23.8864C7.20241 23.9517 6.50071 24.3153 6.50071 25.2727C6.50071 26.142 7.08594 26.5455 7.92116 26.5455ZM8.43253 25.5568C8.16548 25.5568 7.97798 25.4261 7.97798 25.1818C7.97798 24.9574 8.13707 24.7841 8.50071 24.7273C8.75071 24.6875 8.96094 24.6364 9.12571 24.5682V24.9318C9.12571 25.3295 8.78764 25.5568 8.43253 25.5568Z" fill="#24292E"/>
<path d="M12.2841 26.5682C12.7017 26.5682 13.0739 26.2159 13.0795 25.7727C13.0739 25.3409 12.7017 24.9886 12.2841 24.9886C11.8438 24.9886 11.483 25.3409 11.4886 25.7727C11.483 26.2159 11.8438 26.5682 12.2841 26.5682ZM12.2841 23.6364C12.7017 23.6364 13.0739 23.2841 13.0795 22.8409C13.0739 22.4091 12.7017 22.0568 12.2841 22.0568C11.8438 22.0568 11.483 22.4091 11.4886 22.8409C11.483 23.2841 11.8438 23.6364 12.2841 23.6364Z" fill="#24292E"/>
<path d="M16.7727 20.6591H15.3182L13.8864 21.5341V22.875L15.1591 22.1136H15.1932V26.4773H16.7727V20.6591Z" fill="#24292E"/>
<path d="M19.2202 25.6818H18.0384V26C18.0384 26.7727 17.777 27.5824 17.6861 27.8977H18.652C18.7884 27.5824 19.1378 26.821 19.1974 26L19.2202 25.6818Z" fill="#24292E"/>
<path d="M21.3622 26.4773H22.919V25.7614H22.9531C23.1349 26.2045 23.5554 26.5341 24.169 26.5341C25.1009 26.5341 25.8849 25.8068 25.8849 24.2955C25.8849 22.7159 25.044 22.0568 24.1804 22.0568C23.5327 22.0568 23.1236 22.4318 22.9531 22.875H22.9304V20.6591H21.3622V26.4773ZM22.8963 24.2955C22.8963 23.6477 23.1577 23.2614 23.5895 23.2614C24.0213 23.2614 24.2713 23.6477 24.2713 24.2955C24.2713 24.9432 24.0213 25.3295 23.5895 25.3295C23.1577 25.3295 22.8963 24.9318 22.8963 24.2955Z" fill="#24292E"/>
<path d="M27.3935 26.5682C27.8111 26.5682 28.1832 26.2159 28.1889 25.7727C28.1832 25.3409 27.8111 24.9886 27.3935 24.9886C26.9531 24.9886 26.5923 25.3409 26.598 25.7727C26.5923 26.2159 26.9531 26.5682 27.3935 26.5682ZM27.3935 23.6364C27.8111 23.6364 28.1832 23.2841 28.1889 22.8409C28.1832 22.4091 27.8111 22.0568 27.3935 22.0568C26.9531 22.0568 26.5923 22.4091 26.598 22.8409C26.5923 23.2841 26.9531 23.6364 27.3935 23.6364Z" fill="#24292E"/>
<path d="M29.0298 26.4773H33.4957V25.2159H31.223V25.1818L31.7685 24.7273C33.0952 23.6222 33.4332 23.0483 33.4332 22.375C33.4332 21.2898 32.544 20.5795 31.1491 20.5795C29.794 20.5795 28.9134 21.3324 28.9162 22.5568H30.4162C30.4134 22.0682 30.7116 21.7955 31.1491 21.7955C31.5838 21.7955 31.8935 22.0653 31.8935 22.5114C31.8935 22.9233 31.6293 23.1903 31.2003 23.5455L29.0298 25.3409V26.4773Z" fill="#24292E"/>
<path d="M33.9403 20V21.1364C34.6222 21.1364 34.7131 21.3665 34.7131 21.8409V22.4659C34.7131 22.8892 34.929 23.3125 35.8722 23.5V23.6364C34.929 23.8239 34.7131 24.2472 34.7131 24.6705V25.2955C34.7131 25.7699 34.6222 26 33.9403 26V27.1364C35.1108 27.1364 36.2358 27.1364 36.2358 25.5V25.0568C36.2358 24.5 36.4574 24.25 37.1222 24.25V22.8864C36.4574 22.8864 36.2358 22.6364 36.2358 22.0795V21.6364C36.2358 20 35.1108 20 33.9403 20Z" fill="#24292E"/>
<path d="M13.1818 45.1364V44C12.5 44 12.4091 43.7699 12.4091 43.2955V42.6705C12.4091 42.2472 12.1932 41.8239 11.25 41.6364V41.5C12.1932 41.3125 12.4091 40.8892 12.4091 40.4659V39.8409C12.4091 39.3665 12.5 39.1364 13.1818 39.1364V38C12.0114 38 10.8864 38 10.8864 39.6364V40.0795C10.8864 40.6364 10.6648 40.8864 10 40.8864V42.25C10.6648 42.25 10.8864 42.5 10.8864 43.0568V43.5C10.8864 45.1364 12.0114 45.1364 13.1818 45.1364Z" fill="#24292E"/>
<path d="M14.9212 44.0117C15.4893 44.0117 15.9183 43.8185 16.1825 43.3298H16.2166V43.9435H17.6825V40.9548C17.6825 40.148 16.9183 39.523 15.6712 39.523C14.3672 39.523 13.7251 40.2048 13.6712 41.0003H15.1143C15.1513 40.7304 15.3501 40.6026 15.6484 40.6026C15.9212 40.6026 16.1143 40.7276 16.1143 40.9548V40.9662C16.1143 41.219 15.8359 41.2986 15.103 41.3526C14.2024 41.4179 13.5007 41.7815 13.5007 42.7389C13.5007 43.6082 14.0859 44.0117 14.9212 44.0117ZM15.4325 43.023C15.1655 43.023 14.978 42.8923 14.978 42.648C14.978 42.4236 15.1371 42.2503 15.5007 42.1935C15.7507 42.1537 15.9609 42.1026 16.1257 42.0344V42.398C16.1257 42.7957 15.7876 43.023 15.4325 43.023Z" fill="#24292E"/>
<path d="M19.2955 43.9321C19.7131 43.9321 20.0852 43.5798 20.0909 43.1367C20.0852 42.7048 19.7131 42.3526 19.2955 42.3526C18.8551 42.3526 18.4943 42.7048 18.5 43.1367C18.4943 43.5798 18.8551 43.9321 19.2955 43.9321ZM19.2955 41.0003C19.7131 41.0003 20.0852 40.648 20.0909 40.2048C20.0852 39.773 19.7131 39.4207 19.2955 39.4207C18.8551 39.4207 18.4943 39.773 18.5 40.2048C18.4943 40.648 18.8551 41.0003 19.2955 41.0003Z" fill="#24292E"/>
<path d="M23.1932 44.6139C24.6165 44.6139 25.6193 43.8895 25.6136 42.8639C25.6193 42.1509 25.142 41.648 24.2045 41.5457V41.5003C24.8977 41.4264 25.4034 40.9804 25.3977 40.3298C25.4034 39.3497 24.4943 38.6367 23.2045 38.6367C21.8864 38.6367 20.9489 39.3895 20.9432 40.4548H22.4545C22.4602 40.1026 22.7699 39.8526 23.2045 39.8526C23.6023 39.8526 23.8807 40.094 23.875 40.4321C23.8807 40.7844 23.5511 41.0344 23.0795 41.0344H22.4886V42.1253H23.0795C23.5909 42.1253 23.9489 42.3753 23.9432 42.7276C23.9489 43.0884 23.642 43.3412 23.2045 43.3412C22.75 43.3412 22.4261 43.0997 22.4205 42.7617H20.8295C20.8352 43.8469 21.8153 44.6139 23.1932 44.6139Z" fill="#24292E"/>
<path d="M26 38.0003V39.1366C26.6818 39.1366 26.7727 39.3667 26.7727 39.8412V40.4662C26.7727 40.8895 26.9886 41.3128 27.9318 41.5003V41.6366C26.9886 41.8241 26.7727 42.2474 26.7727 42.6707V43.2957C26.7727 43.7702 26.6818 44.0003 26 44.0003V45.1366C27.1705 45.1366 28.2955 45.1366 28.2955 43.5003V43.0571C28.2955 42.5003 28.517 42.2503 29.1818 42.2503V40.8866C28.517 40.8866 28.2955 40.6366 28.2955 40.0798V39.6366C28.2955 38.0003 27.1705 38.0003 26 38.0003Z" fill="#24292E"/>
</g>
<path d="M53.9067 30C54.6011 30 59.9327 26 59.9327 24C59.9327 22 54.7357 18 53.9067 18C53.0777 18 52.4023 18.5 52.4023 19.4756C52.4023 20.4512 55.9067 22.9206 55.9067 22.9206C55.9067 22.9206 48.2539 22.25 48 22.9206C47.7461 23.5911 47.7461 24.4089 48 25.0794C48.2539 25.75 55.9067 25.0794 55.9067 25.0794C55.9067 25.0794 52.4023 27.75 52.4023 28.5301C52.4023 29.3103 53.2123 30 53.9067 30Z" fill="#CCCCDC"/>
<path d="M68 1.04083V13H83V0H68.6268C68.4606 0 68.3011 0.109659 68.1836 0.304853C68.066 0.500047 68 0.764787 68 1.04083Z" fill="url(#paint1_linear_1144_162492)"/>
<path d="M83 17.5H68V30.5H83V17.5Z" fill="#84AFF1"/>
<path d="M83 35H68V48H83V35Z" fill="#84AFF1"/>
<path d="M76.5 21H75.0716L73.5 21.9199V23.1738L74.9253 22.3535H74.9627V27H76.5V21Z" fill="#24292E"/>
<path d="M74.7744 9.5C75.5264 9.5 76.0464 9.23767 76.3415 8.74147H76.3837V9.41783H78V6.1182C78 5.09102 76.9845 4.5 75.6107 4.5C74.1595 4.5 73.3373 5.1574 73.2003 6.04235L74.785 6.09292C74.8587 5.78319 75.1434 5.59355 75.5966 5.59355C76.0183 5.59355 76.2853 5.77686 76.2853 6.1024V6.1182C76.2853 6.4153 75.9269 6.47851 75.0063 6.5512C73.9136 6.63338 73 6.99684 73 8.07143C73 9.03224 73.7414 9.5 74.7744 9.5ZM75.305 8.48862C74.9079 8.48862 74.6268 8.31795 74.6268 7.99558C74.6268 7.68268 74.9009 7.49305 75.3893 7.42668C75.7091 7.38559 76.1026 7.32238 76.2959 7.23072V7.69216C76.2959 8.16625 75.8531 8.48862 75.305 8.48862Z" fill="#24292E"/>
<path d="M75.4792 44.5C76.8085 44.5 77.7528 43.7757 77.75 42.7605C77.7528 42.0418 77.2958 41.5285 76.4208 41.423V41.3774C77.0771 41.2804 77.5423 40.827 77.5395 40.1711C77.5423 39.2186 76.706 38.5 75.4903 38.5C74.2663 38.5 73.3746 39.23 73.3635 40.2681H74.6734C74.6845 39.8688 75.0334 39.6008 75.4903 39.6008C75.9251 39.6008 76.2214 39.8717 76.2186 40.2624C76.2214 40.6673 75.8725 40.9468 75.3685 40.9468H74.8174V41.9506H75.3685C75.9417 41.9506 76.3155 42.2414 76.31 42.6521C76.3155 43.0656 75.9721 43.3536 75.4848 43.3536C75.0001 43.3536 74.6429 43.0884 74.6291 42.7034H73.25C73.2611 43.7586 74.1832 44.5 75.4792 44.5Z" fill="#24292E"/>
<g clip-path="url(#clip1_1144_162492)">
<path d="M87 13H102V1.04083C102 0.764787 101.934 0.500047 101.816 0.304853C101.699 0.109659 101.539 0 101.373 0L87 0V13Z" fill="url(#paint2_linear_1144_162492)"/>
<path d="M102 17.5H87V30.5H102V17.5Z" fill="#84AFF1"/>
<path d="M102 35H87V48H102V35Z" fill="#84AFF1"/>
<path d="M92 9.68623H93.5663V8.96449H93.6149C93.8155 9.37609 94.2621 9.75 95.0129 9.75C96.1133 9.75 97 8.97898 97 7.46304C97 5.89203 96.0615 5.17609 95.0227 5.17609C94.2362 5.17609 93.8058 5.58768 93.6149 5.99638H93.5825V3.75H92V9.68623ZM93.5502 7.46015C93.5502 6.73261 93.8867 6.28333 94.466 6.28333C95.0518 6.28333 95.3754 6.7442 95.3754 7.46015C95.3754 8.17899 95.0518 8.64565 94.466 8.64565C93.8867 8.64565 93.5502 8.18188 93.5502 7.46015Z" fill="#24292E"/>
<path d="M92 43.4453V42.4463L94.5893 38.5H96.2308V42.4287H97V43.4453H96.2308V44.5H94.977V43.4453H92ZM95.0012 42.4287V39.8828H94.9528L93.3204 42.3818V42.4287H95.0012Z" fill="#24292E"/>
<path d="M92.3373 27H96.75V25.8468H94.3341V25.8092L95.0472 25.1561C96.3396 24.0376 96.6772 23.4682 96.6772 22.789C96.6772 21.7225 95.8011 21 94.4476 21C93.129 21 92.2471 21.7543 92.25 22.9595H93.6151C93.6151 22.4249 93.947 22.1156 94.4418 22.1156C94.9279 22.1156 95.2801 22.4133 95.2801 22.9017C95.2801 23.3439 95.0006 23.6445 94.5116 24.0809L92.3373 25.9711V27Z" fill="#24292E"/>
</g>
<defs>
<linearGradient id="paint0_linear_1144_162492" x1="0" y1="6.5052" x2="40" y2="6.5052" gradientUnits="userSpaceOnUse">
<stop stop-color="#F2CC0C"/>
<stop offset="1" stop-color="#FF9830"/>
</linearGradient>
<linearGradient id="paint1_linear_1144_162492" x1="68" y1="6.5052" x2="83" y2="6.5052" gradientUnits="userSpaceOnUse">
<stop stop-color="#F2CC0C"/>
<stop offset="1" stop-color="#FF9830"/>
</linearGradient>
<linearGradient id="paint2_linear_1144_162492" x1="87" y1="6.5052" x2="102" y2="6.5052" gradientUnits="userSpaceOnUse">
<stop stop-color="#F2CC0C"/>
<stop offset="1" stop-color="#FF9830"/>
</linearGradient>
<clipPath id="clip0_1144_162492">
<rect width="40" height="48" fill="white"/>
</clipPath>
<clipPath id="clip1_1144_162492">
<rect width="15" height="48" fill="white" transform="translate(87)"/>
</clipPath>
</defs>
</svg>
