<svg width="77" height="48" viewBox="0 0 77 48" fill="none" xmlns="http://www.w3.org/2000/svg">
<g clip-path="url(#clip0_1144_162003)">
<path d="M19 23H34V13.8006C34 13.5883 33.934 13.3847 33.8164 13.2345C33.6989 13.0844 33.5394 13 33.3732 13H19V23Z" fill="url(#paint0_linear_1144_162003)"/>
<path d="M43 26H19V35.5H43V26Z" fill="#84AFF1"/>
<path d="M34 26H19V35.5H34V26Z" fill="#84AFF1"/>
<path d="M34 39H19V48.5H34V39Z" fill="#84AFF1"/>
<path d="M24 20.9362H25.5663V20.2145H25.6149C25.8155 20.6261 26.2621 21 27.0129 21C28.1133 21 29 20.229 29 18.713C29 17.142 28.0615 16.4261 27.0227 16.4261C26.2362 16.4261 25.8058 16.8377 25.6149 17.2464H25.5825V15H24V20.9362ZM25.5502 18.7101C25.5502 17.9826 25.8867 17.5333 26.466 17.5333C27.0518 17.5333 27.3754 17.9942 27.3754 18.7101C27.3754 19.429 27.0518 19.8957 26.466 19.8957C25.8867 19.8957 25.5502 19.4319 25.5502 18.7101Z" fill="#24292E"/>
</g>
<g clip-path="url(#clip1_1144_162003)">
<path d="M0 13.8006V23H15V13H0.626828C0.460583 13 0.301147 13.0844 0.183594 13.2345C0.0660407 13.3847 0 13.5883 0 13.8006Z" fill="url(#paint1_linear_1144_162003)"/>
<path d="M24 26H0V35.5H24V26Z" fill="#84AFF1"/>
<path d="M15 26H0V35.5H15V26Z" fill="#84AFF1"/>
<path d="M15 39H0V48.5H15V39Z" fill="#84AFF1"/>
<path d="M8.5 28H7.07158L5.5 28.9199V30.1738L6.92531 29.3535H6.96266V34H8.5V28Z" fill="#24292E"/>
<path d="M5.33733 46.5H9.75V45.3468H7.33409V45.3092L8.04722 44.6561C9.33959 43.5376 9.67723 42.9682 9.67723 42.289C9.67723 41.2225 8.8011 40.5 7.44761 40.5C6.12905 40.5 5.2471 41.2543 5.25001 42.4595H6.61514C6.61514 41.9249 6.94696 41.6156 7.44179 41.6156C7.92788 41.6156 8.28008 41.9133 8.28008 42.4017C8.28008 42.8439 8.00065 43.1445 7.51165 43.5809L5.33733 45.4711V46.5Z" fill="#24292E"/>
<path d="M6.77442 20.5C7.52635 20.5 8.04638 20.2377 8.34153 19.7415H8.3837V20.4178H10V17.1182C10 16.091 8.98454 15.5 7.61068 15.5C6.15952 15.5 5.33732 16.1574 5.20028 17.0424L6.78496 17.0929C6.85875 16.7832 7.14336 16.5936 7.59663 16.5936C8.01827 16.5936 8.28531 16.7769 8.28531 17.1024V17.1182C8.28531 17.4153 7.92692 17.4785 7.00633 17.5512C5.91356 17.6334 5 17.9968 5 19.0714C5 20.0322 5.74139 20.5 6.77442 20.5ZM7.30499 19.4886C6.90794 19.4886 6.62684 19.318 6.62684 18.9956C6.62684 18.6827 6.90091 18.493 7.38932 18.4267C7.70907 18.3856 8.1026 18.3224 8.29585 18.2307V18.6922C8.29585 19.1662 7.85313 19.4886 7.30499 19.4886Z" fill="#24292E"/>
</g>
<path d="M47.9067 36.5C48.6011 36.5 53.9327 32.5 53.9327 30.5C53.9327 28.5 48.7357 24.5 47.9067 24.5C47.0777 24.5 46.4023 25 46.4023 25.9756C46.4023 26.9512 49.9067 29.4206 49.9067 29.4206C49.9067 29.4206 42.2539 28.75 42 29.4206C41.7461 30.0911 41.7461 30.9089 42 31.5794C42.2539 32.25 49.9067 31.5794 49.9067 31.5794C49.9067 31.5794 46.4023 34.25 46.4023 35.0301C46.4023 35.8103 47.2123 36.5 47.9067 36.5Z" fill="#CCCCDC"/>
<g clip-path="url(#clip2_1144_162003)">
<path d="M62 13.8006V23H77V13H62.6268C62.4606 13 62.3011 13.0844 62.1836 13.2345C62.066 13.3847 62 13.5883 62 13.8006Z" fill="url(#paint2_linear_1144_162003)"/>
<path d="M86 26H62V35.5H86V26Z" fill="#84AFF1"/>
<path d="M77 26H62V35.5H77V26Z" fill="#84AFF1"/>
<path d="M77 39H62V48.5H77V39Z" fill="#84AFF1"/>
<path d="M70.5 28H69.0716L67.5 28.9199V30.1738L68.9253 29.3535H68.9627V34H70.5V28Z" fill="#24292E"/>
<path d="M67.3373 46.5H71.75V45.3468H69.3341V45.3092L70.0472 44.6561C71.3396 43.5376 71.6772 42.9682 71.6772 42.289C71.6772 41.2225 70.8011 40.5 69.4476 40.5C68.129 40.5 67.2471 41.2543 67.25 42.4595H68.6151C68.6151 41.9249 68.947 41.6156 69.4418 41.6156C69.9279 41.6156 70.2801 41.9133 70.2801 42.4017C70.2801 42.8439 70.0006 43.1445 69.5116 43.5809L67.3373 45.4711V46.5Z" fill="#24292E"/>
<path d="M68.7744 20.5C69.5264 20.5 70.0464 20.2377 70.3415 19.7415H70.3837V20.4178H72V17.1182C72 16.091 70.9845 15.5 69.6107 15.5C68.1595 15.5 67.3373 16.1574 67.2003 17.0424L68.785 17.0929C68.8587 16.7832 69.1434 16.5936 69.5966 16.5936C70.0183 16.5936 70.2853 16.7769 70.2853 17.1024V17.1182C70.2853 17.4153 69.9269 17.4785 69.0063 17.5512C67.9136 17.6334 67 17.9968 67 19.0714C67 20.0322 67.7414 20.5 68.7744 20.5ZM69.305 19.4886C68.9079 19.4886 68.6268 19.318 68.6268 18.9956C68.6268 18.6827 68.9009 18.493 69.3893 18.4267C69.7091 18.3856 70.1026 18.3224 70.2959 18.2307V18.6922C70.2959 19.1662 69.8531 19.4886 69.305 19.4886Z" fill="#24292E"/>
</g>
<g clip-path="url(#clip3_1144_162003)">
<path d="M29.675 0.75H22.325C21.9073 0.75 21.5067 0.915937 21.2113 1.21131C20.9159 1.50668 20.75 1.90728 20.75 2.325V2.93925C20.7499 3.15604 20.7946 3.37052 20.8813 3.56925V3.60075C20.9554 3.76926 21.0605 3.9224 21.191 4.05225L24.425 7.26525V10.725C24.4248 10.8142 24.4474 10.902 24.4906 10.9801C24.5337 11.0582 24.5961 11.124 24.6717 11.1712C24.7553 11.223 24.8517 11.2503 24.95 11.25C25.0322 11.2495 25.1131 11.2297 25.1862 11.1922L27.2862 10.1422C27.3728 10.0986 27.4456 10.0319 27.4966 9.9494C27.5476 9.86693 27.5747 9.77195 27.575 9.675V7.26525L30.788 4.05225C30.9185 3.9224 31.0236 3.76926 31.0977 3.60075V3.56925C31.1916 3.37208 31.2435 3.15753 31.25 2.93925V2.325C31.25 1.90728 31.0841 1.50668 30.7887 1.21131C30.4933 0.915937 30.0927 0.75 29.675 0.75ZM26.6772 6.67725C26.6286 6.72631 26.5901 6.78448 26.564 6.84845C26.5378 6.91241 26.5246 6.98091 26.525 7.05V9.3495L25.475 9.8745V7.05C25.4754 6.98091 25.4622 6.91241 25.436 6.84845C25.4099 6.78448 25.3714 6.72631 25.3227 6.67725L22.5402 3.9H29.4597L26.6772 6.67725ZM30.2 2.85H21.8V2.325C21.8 2.18576 21.8553 2.05223 21.9538 1.95377C22.0522 1.85531 22.1858 1.8 22.325 1.8H29.675C29.8142 1.8 29.9478 1.85531 30.0462 1.95377C30.1447 2.05223 30.2 2.18576 30.2 2.325V2.85Z" fill="#CCCCDC" fill-opacity="0.65"/>
</g>
<defs>
<linearGradient id="paint0_linear_1144_162003" x1="19" y1="18.004" x2="34" y2="18.004" gradientUnits="userSpaceOnUse">
<stop stop-color="#F2CC0C"/>
<stop offset="1" stop-color="#FF9830"/>
</linearGradient>
<linearGradient id="paint1_linear_1144_162003" x1="0" y1="18.004" x2="15" y2="18.004" gradientUnits="userSpaceOnUse">
<stop stop-color="#F2CC0C"/>
<stop offset="1" stop-color="#FF9830"/>
</linearGradient>
<linearGradient id="paint2_linear_1144_162003" x1="62" y1="18.004" x2="77" y2="18.004" gradientUnits="userSpaceOnUse">
<stop stop-color="#F2CC0C"/>
<stop offset="1" stop-color="#FF9830"/>
</linearGradient>
<clipPath id="clip0_1144_162003">
<rect width="15" height="35" fill="white" transform="translate(19 13)"/>
</clipPath>
<clipPath id="clip1_1144_162003">
<rect width="15" height="35" fill="white" transform="translate(0 13)"/>
</clipPath>
<clipPath id="clip2_1144_162003">
<rect width="15" height="35" fill="white" transform="translate(62 13)"/>
</clipPath>
<clipPath id="clip3_1144_162003">
<rect width="12" height="12" fill="white" transform="translate(20)"/>
</clipPath>
</defs>
</svg>
