<svg width="77" height="50" viewBox="0 0 77 50" fill="none" xmlns="http://www.w3.org/2000/svg">
<g clip-path="url(#clip0_1144_162268)">
<path d="M2 0.800642V10H26V1.05456e-06H3.00292L2.0002 0L2 0.800642Z" fill="url(#paint0_linear_1144_162268)"/>
<path d="M26 13H2V22.5H26V13Z" fill="#84AFF1"/>
<path d="M26 25.75H2V35.25H26V25.75Z" fill="#84AFF1"/>
<path d="M26 38.5H2V48H26V38.5Z" fill="#84AFF1"/>
<path d="M15.5 14.75H14.0716L12.5 15.6699V16.9238L13.9253 16.1035H13.9627V20.75H15.5V14.75Z" fill="#24292E"/>
<path d="M12.0873 33.5H16.5V32.3468H14.0841V32.3092L14.7972 31.6561C16.0896 30.5376 16.4272 29.9682 16.4272 29.289C16.4272 28.2225 15.5511 27.5 14.1976 27.5C12.879 27.5 11.9971 28.2543 12 29.4595H13.3651C13.3651 28.9249 13.697 28.6156 14.1918 28.6156C14.6779 28.6156 15.0301 28.9133 15.0301 29.4017C15.0301 29.8439 14.7506 30.1445 14.2616 30.5809L12.0873 32.4711V33.5Z" fill="#24292E"/>
<path d="M12.0873 46.5H16.5V45.3468H14.0841V45.3092L14.7972 44.6561C16.0896 43.5376 16.4272 42.9682 16.4272 42.289C16.4272 41.2225 15.5511 40.5 14.1976 40.5C12.879 40.5 11.9971 41.2543 12 42.4595H13.3651C13.3651 41.9249 13.697 41.6156 14.1918 41.6156C14.6779 41.6156 15.0301 41.9133 15.0301 42.4017C15.0301 42.8439 14.7506 43.1445 14.2616 43.5809L12.0873 45.4711V46.5Z" fill="#24292E"/>
</g>
<path d="M38.9067 30C39.6011 30 44.9327 26 44.9327 24C44.9327 22 39.7357 18 38.9067 18C38.0777 18 37.4023 18.5 37.4023 19.4756C37.4023 20.4512 40.9067 22.9206 40.9067 22.9206C40.9067 22.9206 33.2539 22.25 33 22.9206C32.7461 23.5911 32.7461 24.4089 33 25.0794C33.2539 25.75 40.9067 25.0794 40.9067 25.0794C40.9067 25.0794 37.4023 27.75 37.4023 28.5301C37.4023 29.3103 38.2123 30 38.9067 30Z" fill="#CCCCDC"/>
<g clip-path="url(#clip1_1144_162268)">
<path d="M63.7933 7.6179C64.5533 7.6179 65.0788 7.32315 65.3771 6.76562H65.4197V7.52557H67.0533V3.81818C67.0533 2.66406 66.027 2 64.6385 2C63.1719 2 62.3409 2.73864 62.2024 3.73295L63.804 3.78977C63.8786 3.44176 64.1662 3.22869 64.6243 3.22869C65.0504 3.22869 65.3203 3.43466 65.3203 3.80043V3.81818C65.3203 4.15199 64.9581 4.22301 64.0277 4.30469C62.9233 4.39702 62 4.8054 62 6.01278C62 7.09233 62.7493 7.6179 63.7933 7.6179ZM64.3295 6.48153C63.9283 6.48153 63.6442 6.28977 63.6442 5.92756C63.6442 5.57599 63.9212 5.36293 64.4148 5.28835C64.7379 5.24219 65.1357 5.17116 65.331 5.06818V5.58665C65.331 6.11932 64.8835 6.48153 64.3295 6.48153Z" fill="#24292E"/>
<path d="M53 0.800642V10H77V1.13097e-06H54.0029C53.7369 1.13097e-06 53.0001 0 53.0001 0C53.0001 0 53 0.588299 53 0.800642Z" fill="url(#paint1_linear_1144_162268)"/>
<path d="M77 13H53V29H77V13Z" fill="#84AFF1"/>
<path d="M77 32H53V48H77V32Z" fill="#84AFF1"/>
<path d="M67 17H65.0954L63 18.2266V19.8984L64.9004 18.8047H64.9502V25H67V17Z" fill="#24292E"/>
<path d="M61.6524 38.202H61.2683C61.0645 38.202 60.8691 38.1207 60.725 37.9759C60.5809 37.8311 60.5 37.6347 60.5 37.43C60.5 37.2253 60.5809 37.0289 60.725 36.8841C60.8691 36.7393 61.0645 36.658 61.2683 36.658H61.6524V36.272C61.6524 36.0673 61.7334 35.8709 61.8775 35.7261C62.0216 35.5813 62.217 35.5 62.4207 35.5C62.6245 35.5 62.8199 35.5813 62.964 35.7261C63.1081 35.8709 63.189 36.0673 63.189 36.272V36.658H63.5732C63.7769 36.658 63.9724 36.7393 64.1164 36.8841C64.2605 37.0289 64.3415 37.2253 64.3415 37.43C64.3415 37.6347 64.2605 37.8311 64.1164 37.9759C63.9724 38.1207 63.7769 38.202 63.5732 38.202H63.189V38.588C63.189 38.7927 63.1081 38.9891 62.964 39.1339C62.8199 39.2787 62.6245 39.36 62.4207 39.36C62.217 39.36 62.0216 39.2787 61.8775 39.1339C61.7334 38.9891 61.6524 38.7927 61.6524 38.588V38.202Z" fill="#24292E"/>
<path d="M68.7317 42.184H66.4268C66.2231 42.184 66.0276 42.1027 65.8836 41.9579C65.7395 41.8131 65.6585 41.6167 65.6585 41.412C65.6585 41.2073 65.7395 41.0109 65.8836 40.8661C66.0276 40.7213 66.2231 40.64 66.4268 40.64H68.7317C68.9355 40.64 69.1309 40.7213 69.275 40.8661C69.4191 41.0109 69.5 41.2073 69.5 41.412C69.5 41.6167 69.4191 41.8131 69.275 41.9579C69.1309 42.1027 68.9355 42.184 68.7317 42.184Z" fill="#24292E"/>
<path d="M66.4268 36.658H68.7317C68.9355 36.658 69.1309 36.7393 69.275 36.8841C69.4191 37.0289 69.5 37.2253 69.5 37.43C69.5 37.6347 69.4191 37.8311 69.275 37.9759C69.1309 38.1207 68.9355 38.202 68.7317 38.202H66.4268C66.2231 38.202 66.0276 38.1207 65.8836 37.9759C65.7395 37.8311 65.6585 37.6347 65.6585 37.43C65.6585 37.2253 65.7395 37.0289 65.8836 36.8841C66.0276 36.7393 66.2231 36.658 66.4268 36.658Z" fill="#24292E"/>
<path d="M68.7317 44.5H66.4268C66.2231 44.5 66.0276 44.4187 65.8836 44.2739C65.7395 44.1291 65.6585 43.9328 65.6585 43.728C65.6585 43.5233 65.7395 43.3269 65.8836 43.1821C66.0276 43.0373 66.2231 42.956 66.4268 42.956H68.7317C68.9355 42.956 69.1309 43.0373 69.275 43.1821C69.4191 43.3269 69.5 43.5233 69.5 43.728C69.5 43.9328 69.4191 44.1291 69.275 44.2739C69.1309 44.4187 68.9355 44.5 68.7317 44.5Z" fill="#24292E"/>
<path d="M61.2651 44.5C61.0621 44.5 60.8674 44.4193 60.7234 44.2755C60.5803 44.1309 60.5 43.9352 60.5 43.7312C60.5 43.5273 60.5803 43.3316 60.7234 43.187L61.2689 42.6389L60.7234 42.0907C60.5975 41.9431 60.5318 41.7531 60.5392 41.5588C60.5467 41.3645 60.6269 41.1802 60.7637 41.0427C60.9005 40.9052 61.084 40.8247 61.2773 40.8172C61.4707 40.8097 61.6597 40.8758 61.8067 41.0022L62.3522 41.5503L62.8977 41.0022C63.0447 40.8758 63.2337 40.8097 63.4271 40.8172C63.6204 40.8247 63.8039 40.9052 63.9407 41.0427C64.0775 41.1802 64.1577 41.3645 64.1652 41.5588C64.1726 41.7531 64.1069 41.9431 63.981 42.0907L63.4355 42.6389L63.981 43.187C64.1241 43.3316 64.2044 43.5273 64.2044 43.7312C64.2044 43.9352 64.1241 44.1309 63.981 44.2755C63.837 44.4193 63.6423 44.5 63.4393 44.5C63.2364 44.5 63.0416 44.4193 62.8977 44.2755L62.3522 43.7274L61.8067 44.2755C61.6628 44.4193 61.468 44.5 61.2651 44.5Z" fill="#24292E"/>
</g>
<path fill-rule="evenodd" clip-rule="evenodd" d="M26 25.75H2V47.9532H26V25.75ZM0 23.7887V50H28V23.7887L0 23.7887Z" fill="white"/>
<defs>
<linearGradient id="paint0_linear_1144_162268" x1="2.00781" y1="5.004" x2="26.0078" y2="5.004" gradientUnits="userSpaceOnUse">
<stop stop-color="#F2CC0C"/>
<stop offset="1" stop-color="#FF9830"/>
</linearGradient>
<linearGradient id="paint1_linear_1144_162268" x1="53.001" y1="5.004" x2="77.001" y2="5.004" gradientUnits="userSpaceOnUse">
<stop stop-color="#F2CC0C"/>
<stop offset="1" stop-color="#FF9830"/>
</linearGradient>
<clipPath id="clip0_1144_162268">
<rect width="24" height="48" fill="white" transform="translate(2)"/>
</clipPath>
<clipPath id="clip1_1144_162268">
<rect width="24" height="48" fill="white" transform="translate(53)"/>
</clipPath>
</defs>
</svg>
