<svg width="95" height="48" viewBox="0 0 95 48" fill="none" xmlns="http://www.w3.org/2000/svg">
<g clip-path="url(#clip0_1834_14939)">
<path d="M0 0.611699V7.64012H14.394V0H0.601504C0.441975 0 0.28898 0.0644467 0.176176 0.179162C0.0633725 0.293878 0 0.449466 0 0.611699Z" fill="url(#paint0_linear_1834_14939)"/>
<path d="M33.606 7.64012H48V0.611699C48 0.449466 47.9366 0.293878 47.8238 0.179162C47.711 0.0644467 47.558 0 47.3985 0L33.606 0V7.64012Z" fill="url(#paint1_linear_1834_14939)"/>
<path d="M31.194 0H16.8V7.64012H31.194V0Z" fill="url(#paint2_linear_1834_14939)"/>
<path d="M31.194 10.0869H16.8V17.727H31.194V10.0869Z" fill="#84AFF1"/>
<path d="M14.394 10.0869H0V17.727H14.394V10.0869Z" fill="#84AFF1"/>
<path d="M48 10.0869H33.606V17.727H48V10.0869Z" fill="#84AFF1"/>
<path d="M48 20.1799H33.606V27.8262H48V20.1799Z" fill="#3865AB"/>
<path d="M31.194 20.1799H16.8V27.8262H31.194V20.1799Z" fill="#3865AB"/>
<path d="M14.394 20.1799H0V27.8262H14.394V20.1799Z" fill="#3865AB"/>
<path d="M31.194 30.2668H16.8V37.907H31.194V30.2668Z" fill="#84AFF1"/>
<path d="M48 30.2668H33.606V37.907H48V30.2668Z" fill="#84AFF1"/>
<path d="M14.394 30.2668H0V37.907H14.394V30.2668Z" fill="#84AFF1"/>
<path d="M31.194 40.3599H16.8V48H31.194V40.3599Z" fill="#3865AB"/>
<path d="M48 47.3883V40.3721H33.606V48H47.3985C47.558 48 47.711 47.9355 47.8238 47.8208C47.9366 47.7061 48 47.5505 48 47.3883Z" fill="#3865AB"/>
<path d="M14.394 48V40.3721H0V47.3883C0 47.5505 0.0633725 47.7061 0.176176 47.8208C0.28898 47.9355 0.441975 48 0.601504 48H14.394Z" fill="#3865AB"/>
</g>
<path d="M61.9067 30.4001C62.6011 30.4001 67.9327 26.1334 67.9327 24.0001C67.9327 21.8668 62.7357 17.6001 61.9067 17.6001C61.0777 17.6001 60.4023 18.1334 60.4023 19.1741C60.4023 20.2147 63.9067 22.8487 63.9067 22.8487C63.9067 22.8487 56.2539 22.1334 56 22.8487C55.7461 23.564 55.7461 24.4362 56 25.1515C56.2539 25.8668 63.9067 25.1515 63.9067 25.1515C63.9067 25.1515 60.4023 28.0001 60.4023 28.8323C60.4023 29.6644 61.2123 30.4001 61.9067 30.4001Z" fill="#CCCCDC"/>
<path d="M93.9457 25.1875C93.9457 26.9347 93.4911 28.3835 92.4542 29.6477H90.5366C91.3178 28.7102 91.9002 26.8637 91.9002 25.1875C91.9002 23.5114 91.3178 21.6648 90.5366 20.7273H92.4542C93.4911 21.9915 93.9457 23.4404 93.9457 25.1875Z" fill="white"/>
<path d="M86.6153 22.5457L87.4107 24.236L88.2488 22.5457H90.1948L88.7317 25.2729L90.2658 28.0002H88.334L87.4107 26.2672L86.5158 28.0002H84.5556L86.1039 25.2729L84.655 22.5457H86.6153Z" fill="white"/>
<path d="M80.8757 25.1875C80.8757 23.4404 81.3303 21.9915 82.3672 20.7273H84.2848C83.5036 21.6648 82.9212 23.5114 82.9212 25.1875C82.9212 26.8637 83.5036 28.7102 84.2848 29.6477H82.3672C81.3303 28.3835 80.8757 26.9347 80.8757 25.1875Z" fill="white"/>
<path d="M79.7642 22.5456V23.966H78.7699V28.0001H76.8097V23.966H76.1136V22.5456H76.8097V22.3893C76.8097 21.0399 77.5767 20.3865 78.7699 20.3865C79.2671 20.3865 79.7926 20.4859 80.0199 20.5427L79.7358 21.949C79.5938 21.9064 79.3807 21.878 79.2386 21.878C78.8693 21.878 78.7699 22.0484 78.7699 22.3041V22.5456H79.7642Z" fill="white"/>
<defs>
<linearGradient id="paint0_linear_1834_14939" x1="0" y1="3.82312" x2="14.394" y2="3.82312" gradientUnits="userSpaceOnUse">
<stop stop-color="#F2CC0C"/>
<stop offset="1" stop-color="#FF9830"/>
</linearGradient>
<linearGradient id="paint1_linear_1834_14939" x1="33.606" y1="3.82312" x2="48" y2="3.82312" gradientUnits="userSpaceOnUse">
<stop stop-color="#F2CC0C"/>
<stop offset="1" stop-color="#FF9830"/>
</linearGradient>
<linearGradient id="paint2_linear_1834_14939" x1="16.8" y1="3.82312" x2="31.2" y2="3.82312" gradientUnits="userSpaceOnUse">
<stop stop-color="#F2CC0C"/>
<stop offset="1" stop-color="#FF9830"/>
</linearGradient>
<clipPath id="clip0_1834_14939">
<rect width="48" height="48" fill="white"/>
</clipPath>
</defs>
</svg>
