<svg width="77" height="48" viewBox="0 0 77 48" fill="none" xmlns="http://www.w3.org/2000/svg">
<path d="M23.3704 20.6776C23.308 20.6218 23.2344 20.5781 23.1539 20.549C22.9941 20.4877 22.815 20.4877 22.6552 20.549C22.5747 20.5781 22.5011 20.6218 22.4387 20.6776L21.1265 21.9023C21.0029 22.0177 20.9335 22.174 20.9335 22.3371C20.9335 22.5002 21.0029 22.6566 21.1265 22.7719C21.25 22.8872 21.4176 22.952 21.5923 22.952C21.7671 22.952 21.9346 22.8872 22.0582 22.7719L22.2484 22.5882V27.2361C22.2484 27.3985 22.3176 27.5543 22.4406 27.6691C22.5637 27.784 22.7306 27.8485 22.9046 27.8485C23.0786 27.8485 23.2455 27.784 23.3685 27.6691C23.4916 27.5543 23.5607 27.3985 23.5607 27.2361V22.5882L23.751 22.7719C23.8119 22.8293 23.8845 22.8749 23.9645 22.906C24.0444 22.937 24.1302 22.953 24.2168 22.953C24.3034 22.953 24.3892 22.937 24.4691 22.906C24.5491 22.8749 24.6216 22.8293 24.6826 22.7719C24.7441 22.715 24.7929 22.6473 24.8263 22.5726C24.8596 22.498 24.8767 22.418 24.8767 22.3371C24.8767 22.2563 24.8596 22.1762 24.8263 22.1016C24.7929 22.027 24.7441 21.9593 24.6826 21.9023L23.3704 20.6776ZM26.8413 21.7247H33.4024C33.5764 21.7247 33.7433 21.6602 33.8664 21.5454C33.9894 21.4305 34.0585 21.2748 34.0585 21.1124C34.0585 20.95 33.9894 20.7942 33.8664 20.6794C33.7433 20.5645 33.5764 20.5 33.4024 20.5H26.8413C26.6672 20.5 26.5004 20.5645 26.3773 20.6794C26.2543 20.7942 26.1851 20.95 26.1851 21.1124C26.1851 21.2748 26.2543 21.4305 26.3773 21.5454C26.5004 21.6602 26.6672 21.7247 26.8413 21.7247ZM33.4024 26.6237H26.8413C26.6672 26.6237 26.5004 26.6883 26.3773 26.8031C26.2543 26.918 26.1851 27.0737 26.1851 27.2361C26.1851 27.3985 26.2543 27.5543 26.3773 27.6691C26.5004 27.784 26.6672 27.8485 26.8413 27.8485H33.4024C33.5764 27.8485 33.7433 27.784 33.8664 27.6691C33.9894 27.5543 34.0585 27.3985 34.0585 27.2361C34.0585 27.0737 33.9894 26.918 33.8664 26.8031C33.7433 26.6883 33.5764 26.6237 33.4024 26.6237ZM33.4024 23.5619H26.8413C26.6672 23.5619 26.5004 23.6264 26.3773 23.7412C26.2543 23.8561 26.1851 24.0118 26.1851 24.1742C26.1851 24.3367 26.2543 24.4924 26.3773 24.6073C26.5004 24.7221 26.6672 24.7866 26.8413 24.7866H33.4024C33.5764 24.7866 33.7433 24.7221 33.8664 24.6073C33.9894 24.4924 34.0585 24.3367 34.0585 24.1742C34.0585 24.0118 33.9894 23.8561 33.8664 23.7412C33.7433 23.6264 33.5764 23.5619 33.4024 23.5619Z" fill="white"/>
<path d="M47.9067 30C48.6011 30 53.9327 26 53.9327 24C53.9327 22 48.7357 18 47.9067 18C47.0777 18 46.4023 18.5 46.4023 19.4756C46.4023 20.4512 49.9067 22.9206 49.9067 22.9206C49.9067 22.9206 42.2539 22.25 42 22.9206C41.7461 23.5911 41.7461 24.4089 42 25.0794C42.2539 25.75 49.9067 25.0794 49.9067 25.0794C49.9067 25.0794 46.4023 27.75 46.4023 28.5301C46.4023 29.3103 47.2123 30 47.9067 30Z" fill="#CCCCDC"/>
<g clip-path="url(#clip0_1144_161700)">
<path d="M0 1.04083V13H15V0H0.626828C0.460583 0 0.301147 0.109659 0.183594 0.304853C0.0660407 0.500047 0 0.764787 0 1.04083Z" fill="url(#paint0_linear_1144_161700)"/>
<path d="M15 17.5H0V30.5H15V17.5Z" fill="#84AFF1"/>
<path d="M15 35H0V48H15V35Z" fill="#84AFF1"/>
<path d="M8.5 21H7.07158L5.5 21.9199V23.1738L6.92531 22.3535H6.96266V27H8.5V21Z" fill="#24292E"/>
<path d="M5.33733 44.5H9.75V43.3468H7.33409V43.3092L8.04722 42.6561C9.33959 41.5376 9.67723 40.9682 9.67723 40.289C9.67723 39.2225 8.8011 38.5 7.44761 38.5C6.12905 38.5 5.2471 39.2543 5.25001 40.4595H6.61514C6.61514 39.9249 6.94696 39.6156 7.44179 39.6156C7.92788 39.6156 8.28008 39.9133 8.28008 40.4017C8.28008 40.8439 8.00065 41.1445 7.51165 41.5809L5.33733 43.4711V44.5Z" fill="#24292E"/>
</g>
<g clip-path="url(#clip1_1144_161700)">
<path d="M77 17.5H62V30.5H77V17.5Z" fill="#84AFF1"/>
<path d="M77 35H62V48H77V35Z" fill="#84AFF1"/>
<path d="M62 13H77V1.04083C77 0.764787 76.934 0.500047 76.8164 0.304853C76.6989 0.109659 76.5394 0 76.3732 0L62 0V13Z" fill="url(#paint1_linear_1144_161700)"/>
<path d="M70.5 38.5H69.0716L67.5 39.4199V40.6738L68.9253 39.8535H68.9627V44.5H70.5V38.5Z" fill="#24292E"/>
<path d="M67.3373 27H71.75V25.8468H69.3341V25.8092L70.0472 25.1561C71.3396 24.0376 71.6772 23.4682 71.6772 22.789C71.6772 21.7225 70.8011 21 69.4476 21C68.129 21 67.2471 21.7543 67.25 22.9595H68.6151C68.6151 22.4249 68.947 22.1156 69.4418 22.1156C69.9279 22.1156 70.2801 22.4133 70.2801 22.9017C70.2801 23.3439 70.0006 23.6445 69.5116 24.0809L67.3373 25.9711V27Z" fill="#24292E"/>
</g>
<defs>
<linearGradient id="paint0_linear_1144_161700" x1="0" y1="6.5052" x2="15" y2="6.5052" gradientUnits="userSpaceOnUse">
<stop stop-color="#F2CC0C"/>
<stop offset="1" stop-color="#FF9830"/>
</linearGradient>
<linearGradient id="paint1_linear_1144_161700" x1="62" y1="6.5052" x2="77" y2="6.5052" gradientUnits="userSpaceOnUse">
<stop stop-color="#F2CC0C"/>
<stop offset="1" stop-color="#FF9830"/>
</linearGradient>
<clipPath id="clip0_1144_161700">
<rect width="15" height="48" fill="white"/>
</clipPath>
<clipPath id="clip1_1144_161700">
<rect width="15" height="48" fill="white" transform="translate(62)"/>
</clipPath>
</defs>
</svg>
