<svg width="48" height="48" viewBox="0 0 48 48" fill="none" xmlns="http://www.w3.org/2000/svg">
<path d="M10.7436 30.2214C10.4012 30.2214 10.0827 30.3965 9.89924 30.6856L1.15566 44.4642C0.96022 44.7722 0.947975 45.1622 1.1237 45.4818C1.29943 45.8014 1.63525 46 2 46H24H46C46.3648 46 46.7006 45.8014 46.8763 45.4818C47.052 45.1622 47.0398 44.7722 46.8443 44.4642L38.1008 30.6856C37.9173 30.3965 37.5988 30.2214 37.2564 30.2214H24H10.7436Z" fill="url(#paint0_linear_1144_162218)" stroke="#CCCCDC" stroke-width="2" stroke-linejoin="round"/>
<path fill-rule="evenodd" clip-rule="evenodd" d="M17.25 26.7682C17.25 30.6622 21.6037 35.6872 24 38.0189C26.3962 35.6988 30.75 30.6622 30.75 26.7682C30.75 24.9129 30.0388 23.1336 28.773 21.8218C27.5071 20.5099 25.7902 19.7729 24 19.7729C22.2098 19.7729 20.4929 20.5099 19.227 21.8218C17.9612 23.1336 17.25 24.9129 17.25 26.7682ZM22.7501 28.7068C23.1201 28.963 23.5551 29.0997 24.0001 29.0997C24.5969 29.0997 25.1692 28.8541 25.5911 28.4168C26.0131 27.9795 26.2501 27.3864 26.2501 26.768C26.2501 26.3068 26.1182 25.856 25.8709 25.4725C25.6237 25.0891 25.2723 24.7902 24.8612 24.6137C24.45 24.4372 23.9976 24.3911 23.5612 24.481C23.1247 24.571 22.7238 24.7931 22.4091 25.1192C22.0945 25.4453 21.8802 25.8608 21.7934 26.3131C21.7065 26.7654 21.7511 27.2342 21.9214 27.6603C22.0917 28.0864 22.3801 28.4506 22.7501 28.7068Z" fill="#E02F44"/>
<path d="M24 17.4426C21.6131 17.4426 19.3239 18.4252 17.636 20.1744C15.9482 21.9236 15 24.2959 15 26.7696C15 33.0654 22.9313 40.1773 23.2688 40.4804C23.4725 40.661 23.7319 40.7603 24 40.7603C24.2681 40.7603 24.5275 40.661 24.7312 40.4804C25.125 40.1773 33 33.0654 33 26.7696C33 24.2959 32.0518 21.9236 30.364 20.1744C28.6761 18.4252 26.3869 17.4426 24 17.4426ZM24 38.0204C21.6037 35.6886 17.25 30.6637 17.25 26.7696C17.25 24.9144 17.9612 23.1351 19.227 21.8232C20.4929 20.5113 22.2098 19.7743 24 19.7743C25.7902 19.7743 27.5071 20.5113 28.773 21.8232C30.0388 23.1351 30.75 24.9144 30.75 26.7696C30.75 30.6637 26.3963 35.7003 24 38.0204Z" fill="#22252B"/>
<defs>
<linearGradient id="paint0_linear_1144_162218" x1="46" y1="38.2709" x2="3.41025" y2="38.2709" gradientUnits="userSpaceOnUse">
<stop stop-color="#FF9830"/>
<stop offset="1" stop-color="#F2CC0C"/>
</linearGradient>
</defs>
</svg>
