<svg width="22" height="22" viewBox="0 0 214 214" fill="none" xmlns="http://www.w3.org/2000/svg">
  <path d="M210.43 145.18L162.18 97.0002C163.189 92.0643 163.688 87.038 163.67 82.0002C163.655 68.2406 160.172 54.7067 153.544 42.6487C146.916 30.5907 137.356 20.3974 125.748 13.0105C114.139 5.62356 100.856 1.2812 87.126 0.384517C73.3956 -0.512163 59.6607 2.06576 47.19 7.88015C45.6184 8.59799 44.2443 9.68604 43.1853 11.0511C42.1262 12.4162 41.4138 14.0176 41.1091 15.7183C40.8044 17.4189 40.9164 19.168 41.4355 20.8159C41.9547 22.4638 42.8655 23.9613 44.09 25.1802L90.54 71.5102L71.32 90.7302L25 44.2902C23.7685 43.0915 22.2691 42.2034 20.6261 41.6995C18.9831 41.1956 17.2437 41.0902 15.5519 41.3922C13.8601 41.6942 12.2645 42.3949 10.8974 43.4362C9.53019 44.4775 8.43072 45.8294 7.68998 47.3802C1.85341 59.8978 -0.721932 73.6884 0.203603 87.4688C1.12914 101.249 5.52547 114.572 12.9835 126.196C20.4416 137.821 30.719 147.37 42.8594 153.955C54.9999 160.541 68.6088 163.948 82.42 163.86C87.458 163.883 92.4849 163.384 97.42 162.37L145.57 210.63C147.566 212.637 150.277 213.771 153.108 213.782C155.938 213.794 158.658 212.681 160.67 210.69L160.73 210.63C162.74 208.635 163.875 205.924 163.886 203.093C163.897 200.261 162.784 197.541 160.79 195.53L160.73 195.47L108.42 143.15C107.111 141.852 105.488 140.915 103.709 140.43C101.931 139.945 100.057 139.927 98.27 140.38C93.1151 141.758 87.8057 142.474 82.47 142.51C66.4153 142.651 50.962 136.409 39.5093 125.157C28.0566 113.905 21.5426 98.5648 21.4 82.5102V82.0802C21.3861 78.5056 21.6737 74.9363 22.26 71.4102L64.11 113.41C66.1034 115.421 68.8139 116.558 71.6455 116.571C74.4771 116.585 77.198 115.473 79.21 113.48L79.27 113.41L113.27 79.1402C115.193 77.1489 116.268 74.4886 116.268 71.7202C116.268 68.9517 115.193 66.2914 113.27 64.3002L71.64 22.4002C75.1671 21.8226 78.7359 21.5383 82.31 21.5501C98.347 21.574 113.719 27.9621 125.049 39.3114C136.38 50.6607 142.743 66.0431 142.74 82.0802C142.708 87.4162 141.993 92.7262 140.61 97.8801C140.163 99.6628 140.183 101.531 140.668 103.303C141.153 105.076 142.087 106.694 143.38 108L195.7 160.31C197.715 162.297 200.434 163.407 203.264 163.397C206.095 163.387 208.806 162.259 210.807 160.257C212.808 158.256 213.937 155.545 213.947 152.715C213.957 149.885 212.847 147.165 210.86 145.15L210.43 145.18Z" fill="#5794F2"/>
  <path d="M191.25 45.5C203.814 45.5 214 35.3145 214 22.75C214 10.1855 203.814 0 191.25 0C178.686 0 168.5 10.1855 168.5 22.75C168.5 35.3145 178.686 45.5 191.25 45.5Z" fill="#FADE2A"/>
  <path d="M22.75 214C35.3145 214 45.5 203.814 45.5 191.25C45.5 178.686 35.3145 168.5 22.75 168.5C10.1855 168.5 0 178.686 0 191.25C0 203.814 10.1855 214 22.75 214Z" fill="#1F60C4"/>
</svg>
