<svg width="25" height="25" viewBox="0 0 25 25" fill="none" xmlns="http://www.w3.org/2000/svg">
  <g clip-path="url(#clip0)">
    <path fill-rule="evenodd" clip-rule="evenodd" d="M12.136 0.045828L17.6027 1.86806C17.7837 1.92918 17.9409 2.04563 18.052 2.20095C18.1632 2.35627 18.2228 2.5426 18.2223 2.73361V13.2116L16.4001 13.7583V3.38962L12.7556 2.17783V13.011L15.6657 13.9786L12.6237 14.8912L11.8445 14.6236L6.65113 16.3548C6.46759 16.4146 6.26978 16.4146 6.08624 16.3548L0.61956 14.5325C0.438594 14.4714 0.281414 14.355 0.170237 14.1996C0.0590605 14.0443 -0.000490023 13.858 3.03723e-06 13.667V0.911386C0.000671449 0.766838 0.0357229 0.624523 0.102262 0.496198C0.168801 0.367873 0.264917 0.257221 0.382671 0.173384C0.49949 0.0887175 0.634746 0.0330034 0.777306 0.0108274C0.919867 -0.0113486 1.06566 0.00064727 1.20267 0.045828L6.3778 1.8225L11.5529 0.045828H11.6167H11.7351H11.9447C11.9871 0.0415655 12.0298 0.0415655 12.0723 0.045828H12.136ZM1.82223 13.011L5.46669 14.2228V3.38962L1.82223 2.17783V13.011ZM7.28891 14.2228L10.9334 13.011V2.17783L7.28891 3.38962V14.2228Z" fill="#5794F2"/>
    <path d="M23.4468 11.5628C23.1985 11.3097 22.8835 11.1321 22.5384 11.0505C22.1933 10.9688 21.8322 10.9865 21.4967 11.1014L12.2987 14.175C11.9277 14.2964 11.6036 14.5299 11.371 14.8433C11.1385 15.1567 11.009 15.5345 11.0005 15.9246C10.9919 16.3147 11.1047 16.6978 11.3233 17.0211C11.5418 17.3444 11.8554 17.5919 12.2207 17.7294L15.6269 19.029C15.7044 19.0587 15.7751 19.104 15.8343 19.1621C15.8936 19.2202 15.9403 19.2899 15.9714 19.3669L17.2715 22.7783C17.4038 23.1383 17.6439 23.4488 17.9592 23.6674C18.2744 23.886 18.6494 24.0021 19.0331 24H19.0786C19.4693 23.9929 19.8479 23.8637 20.1615 23.6307C20.4751 23.3976 20.7078 23.0723 20.8272 22.7004L23.9018 13.4927C24.0137 13.1606 24.0303 12.8039 23.9499 12.4628C23.8695 12.1218 23.6952 11.81 23.4468 11.5628ZM22.6993 13.0833L19.5921 22.2975C19.556 22.4141 19.4836 22.5161 19.3853 22.5886C19.2871 22.6611 19.1682 22.7003 19.0461 22.7004C18.9247 22.7024 18.8056 22.6674 18.7045 22.6C18.6035 22.5327 18.5254 22.4363 18.4805 22.3235L17.1805 18.912C17.0862 18.6642 16.9408 18.4389 16.7538 18.2508C16.5668 18.0627 16.3423 17.9161 16.0949 17.8204L12.6822 16.5208C12.5671 16.4786 12.4681 16.4013 12.3993 16.2999C12.3305 16.1985 12.2953 16.078 12.2987 15.9554C12.2988 15.8334 12.338 15.7145 12.4105 15.6163C12.483 15.5181 12.585 15.4457 12.7017 15.4096L21.9192 12.3361C22.0251 12.2929 22.1411 12.2814 22.2534 12.3028C22.3656 12.3242 22.4693 12.3777 22.5518 12.4567C22.6343 12.5358 22.6921 12.637 22.7183 12.7482C22.7445 12.8594 22.7379 12.9758 22.6993 13.0833Z" fill="#F05A28" stroke="#F05A28"/>
  </g>
  <defs>
    <clipPath id="clip0">
      <path d="M0 0H25V25H0V0Z" fill="white"/>
    </clipPath>
  </defs>
</svg>
