<svg width="22" height="22" viewBox="0 0 214 214" fill="none" xmlns="http://www.w3.org/2000/svg">
  <path d="M115.09 76.5299C114.779 75.9131 114.303 75.3943 113.715 75.0307C113.128 74.6672 112.451 74.4731 111.76 74.4699H93.0599V51.9999C93.0993 51.1946 92.8781 50.3981 92.4291 49.7285C91.9801 49.0589 91.3273 48.5518 90.5674 48.2824C89.8075 48.013 88.9811 47.9957 88.2106 48.233C87.4401 48.4704 86.7666 48.9497 86.2899 49.5999L56.3599 90.7799C55.9898 91.358 55.7746 92.0216 55.7351 92.7069C55.6957 93.3922 55.8332 94.0761 56.1346 94.6929C56.4359 95.3097 56.8909 95.8385 57.4558 96.2285C58.0207 96.6186 58.6764 96.8566 59.3599 96.9199H78.0999V119.36C78.0996 120.148 78.3491 120.917 78.8126 121.554C79.2762 122.192 79.9299 122.667 80.6799 122.91C81.0554 123.029 81.4461 123.093 81.8399 123.1C82.4242 123.094 82.9992 122.953 83.5197 122.687C84.0403 122.422 84.4922 122.039 84.8399 121.57L114.76 80.4199C115.168 79.8648 115.415 79.2078 115.473 78.5214C115.531 77.835 115.399 77.1458 115.09 76.5299Z" fill="#FA6400"/>
  <path d="M139.1 0H32.1C23.5865 0 15.4218 3.38195 9.40187 9.40187C3.38195 15.4218 0 23.5865 0 32.1L0 139.1C0 147.613 3.38195 155.778 9.40187 161.798C15.4218 167.818 23.5865 171.2 32.1 171.2H139.1C147.613 171.2 155.778 167.818 161.798 161.798C167.818 155.778 171.2 147.613 171.2 139.1V32.1C171.2 23.5865 167.818 15.4218 161.798 9.40187C155.778 3.38195 147.613 0 139.1 0V0ZM149.8 139.1C149.8 141.938 148.673 144.659 146.666 146.666C144.659 148.673 141.938 149.8 139.1 149.8H32.1C29.2622 149.8 26.5406 148.673 24.534 146.666C22.5273 144.659 21.4 141.938 21.4 139.1V32.1C21.4 30.6949 21.6768 29.3035 22.2145 28.0053C22.7522 26.7071 23.5404 25.5275 24.534 24.534C26.5406 22.5273 29.2622 21.4 32.1 21.4H139.1C141.938 21.4 144.659 22.5273 146.666 24.534C148.673 26.5406 149.8 29.2622 149.8 32.1V139.1Z" fill="#5794F2"/>
  <path d="M203.3 42.7998C201.895 42.7998 200.504 43.0766 199.205 43.6143C197.907 44.152 196.728 44.9402 195.734 45.9338C194.74 46.9273 193.952 48.1069 193.415 49.4051C192.877 50.7033 192.6 52.0947 192.6 53.4998V160.5C192.6 169.013 189.218 177.178 183.198 183.198C177.178 189.218 169.013 192.6 160.5 192.6H53.5C50.6622 192.6 47.9406 193.727 45.934 195.734C43.9274 197.74 42.8 200.462 42.8 203.3C42.8 206.138 43.9274 208.859 45.934 210.866C47.9406 212.872 50.6622 214 53.5 214H160.5C174.689 214 188.297 208.363 198.33 198.33C208.363 188.297 214 174.689 214 160.5V53.4998C214 52.0947 213.723 50.7033 213.186 49.4051C212.648 48.1069 211.86 46.9273 210.866 45.9338C209.872 44.9402 208.693 44.152 207.395 43.6143C206.097 43.0766 204.705 42.7998 203.3 42.7998Z" fill="#1F60C4"/>
</svg>
