<svg width="22" height="22" viewBox="0 0 156 214" fill="none" xmlns="http://www.w3.org/2000/svg">
  <g clip-path="url(#clip0)">
    <path d="M145.91 194.55H136.18V178.33C136.154 172.76 135.17 167.236 133.27 162C133.16 161.71 133.05 161.45 132.92 161.18C131.343 156.894 129.165 152.853 126.45 149.18L112.84 131C109.06 125.94 107.012 119.796 107 113.48V103.66C107.015 95.9176 110.084 88.4936 115.54 83.0001L121.94 76.6101C129.368 69.1423 134.139 59.4423 135.52 49.0001C135.52 48.8701 135.6 48.7501 135.6 48.6201V48.4801C135.938 46.4088 136.142 44.3178 136.21 42.2201V19.4501H145.94C147.243 19.4919 148.542 19.2713 149.758 18.8014C150.975 18.3315 152.084 17.6218 153.021 16.7147C153.958 15.8075 154.702 14.7213 155.211 13.5206C155.72 12.3198 155.982 11.0291 155.982 9.72512C155.982 8.4211 155.72 7.13039 155.211 5.92968C154.702 4.72896 153.958 3.64275 153.021 2.73557C152.084 1.82839 150.975 1.11876 149.758 0.648845C148.542 0.17893 147.243 -0.0416819 145.94 0.000117487H9.73C8.42665 -0.0416819 7.12821 0.17893 5.9118 0.648845C4.6954 1.11876 3.58587 1.82839 2.64913 2.73557C1.71239 3.64275 0.967559 4.72896 0.458895 5.92968C-0.0497699 7.13039 -0.31189 8.4211 -0.31189 9.72512C-0.31189 11.0291 -0.0497699 12.3198 0.458895 13.5206C0.967559 14.7213 1.71239 15.8075 2.64913 16.7147C3.58587 17.6218 4.6954 18.3315 5.9118 18.8014C7.12821 19.2713 8.42665 19.4919 9.73 19.4501H19.45V42.2401C19.5213 44.338 19.7284 46.429 20.07 48.5001V48.6401C20.07 48.7701 20.14 48.8901 20.15 49.0201C21.5226 59.4586 26.2828 69.1581 33.7 76.6301L40.09 83.0001C45.5403 88.4901 48.6115 95.9042 48.64 103.64V113.46C48.6257 119.782 46.5782 125.932 42.8 131L29.18 149.16C26.471 152.837 24.293 156.876 22.71 161.16C22.59 161.43 22.47 161.69 22.37 161.98C20.4731 167.214 19.4856 172.733 19.45 178.3V194.52H9.73C8.42665 194.478 7.12821 194.699 5.9118 195.169C4.6954 195.639 3.58587 196.348 2.64913 197.256C1.71239 198.163 0.967559 199.249 0.458895 200.45C-0.0497699 201.65 -0.31189 202.941 -0.31189 204.245C-0.31189 205.549 -0.0497699 206.84 0.458895 208.041C0.967559 209.241 1.71239 210.327 2.64913 211.235C3.58587 212.142 4.6954 212.851 5.9118 213.321C7.12821 213.791 8.42665 214.012 9.73 213.97H145.91C147.213 214.012 148.512 213.791 149.728 213.321C150.945 212.851 152.054 212.142 152.991 211.235C153.928 210.327 154.672 209.241 155.181 208.041C155.69 206.84 155.952 205.549 155.952 204.245C155.952 202.941 155.69 201.65 155.181 200.45C154.672 199.249 153.928 198.163 152.991 197.256C152.054 196.348 150.945 195.639 149.728 195.169C148.512 194.699 147.213 194.478 145.91 194.52V194.55ZM38.91 38.9101V19.4501H116.73V38.9101H38.91ZM47.45 62.9101C46.0785 61.5327 44.852 60.0181 43.79 58.3901H111.85C110.781 60.0161 109.552 61.5304 108.18 62.9101L101.79 69.3001C94.2228 76.8391 89.3725 86.677 88 97.2701H67.68C66.2985 86.6626 61.434 76.814 53.85 69.2701L47.45 62.9101ZM58.37 142.69C64.009 135.143 67.3525 126.129 68 116.73H87.65C88.3003 126.118 91.64 135.12 97.27 142.66L107 155.66H48.63L58.37 142.69ZM116.73 194.58H38.91V178.33C38.9366 177.246 39.0234 176.164 39.17 175.09H116.46C116.61 176.164 116.7 177.246 116.73 178.33V194.58Z" fill="#5794F2"/>
    <path d="M101.79 69.2703L108.18 62.8804C109.552 61.5006 110.781 59.9863 111.85 58.3604H43.79C44.8521 59.9883 46.0785 61.503 47.45 62.8804L53.85 69.2703C61.434 76.8143 66.2985 86.6628 67.68 97.2703H88C89.3662 86.6665 94.217 76.8172 101.79 69.2703Z" fill="#1F60C4"/>
    <path d="M38.91 178.33V194.55H116.73V178.33C116.7 177.246 116.61 176.164 116.46 175.09H39.17C39.0234 176.165 38.9366 177.246 38.91 178.33Z" fill="#FADE2A"/>
  </g>
  <defs>
    <clipPath id="clip0">
      <path d="M0 0H155.64V214H0V0Z" fill="white"/>
    </clipPath>
  </defs>
</svg>
