<?xml version="1.0" encoding="utf-8"?>
<!-- Generator: Adobe Illustrator 19.0.1, SVG Export Plug-In . SVG Version: 6.00 Build 0)  -->
<!DOCTYPE svg PUBLIC "-//W3C//DTD SVG 1.1//EN" "http://www.w3.org/Graphics/SVG/1.1/DTD/svg11.dtd">
<svg version="1.1" id="Layer_1" xmlns="http://www.w3.org/2000/svg" xmlns:xlink="http://www.w3.org/1999/xlink" x="0px" y="0px"
	 width="64px" height="64px" viewBox="-479 353 64 64" style="enable-background:new -479 353 64 64;" xml:space="preserve">
<style type="text/css">
	.st0{fill:#52545C;}
</style>
<g>
	<path class="st0" d="M-470.4,410h34.4c4.7,0,8.6-3.8,8.6-8.6v-17.3l-4.2,4.2v13.1c0,2.4-1.9,4.3-4.3,4.3h-34.4
		c-2.4,0-4.3-1.9-4.3-4.3V376c0-2.4,1.9-4.3,4.3-4.3h32.1l4.2-4.2h-36.3c-4.7,0-8.6,3.8-8.6,8.6v25.5
		C-479,406.2-475.2,410-470.4,410z"/>
	
		<rect x="-438.3" y="364.5" transform="matrix(-0.7071 -0.7071 0.7071 -0.7071 -1008.7032 339.9824)" class="st0" width="8.7" height="28.8"/>
	<path class="st0" d="M-425.5,364.3l6.2,6.2l1.4-1.4l1.6-1.6c1.7-1.7,1.7-4.5,0-6.2c-1.7-1.7-4.5-1.7-6.2,0l-1.6,1.6L-425.5,364.3z"
		/>
	<polygon class="st0" points="-444.8,393.9 -442.3,393.5 -448.5,387.3 -448.9,389.8 -449.8,394.8 	"/>
</g>
</svg>
