<svg xmlns="http://www.w3.org/2000/svg" enable-background="new 0 0 24 24" viewBox="0 0 24 24"><path d="M19.6,3.6c-0.2-0.2-0.5-0.3-0.8-0.2c-2.2,0.5-4.4,0-6.2-1.3c-0.3-0.2-0.8-0.2-1.1,0C9.6,3.4,7.4,3.9,5.2,3.4C4.7,3.3,4.1,3.7,4,4.2c0,0.1,0,0.1,0,0.2v7.5c0,2.9,1.4,5.6,3.8,7.3l3.7,2.6c0.3,0.2,0.8,0.2,1.2,0l3.7-2.6c2.4-1.7,3.8-4.4,3.8-7.3V4.4C20,4.1,19.9,3.8,19.6,3.6z M14,13h-1v1c0,0.6-0.4,1-1,1s-1-0.4-1-1v-1h-1c-0.6,0-1-0.4-1-1s0.4-1,1-1h1v-1c0-0.6,0.4-1,1-1s1,0.4,1,1v1h1c0.6,0,1,0.4,1,1S14.6,13,14,13z"/></svg>