<svg xmlns="http://www.w3.org/2000/svg" enable-background="new 0 0 24 24" viewBox="0 0 24 24"><path d="M18,9h-2c-0.6,0-1,0.4-1,1s0.4,1,1,1h2c0.6,0,1,0.4,1,1v7c0,0.6-0.4,1-1,1H6c-0.6,0-1-0.4-1-1v-7c0-0.6,0.4-1,1-1h2c0.6,0,1-0.4,1-1S8.6,9,8,9H6c-1.7,0-3,1.3-3,3v7c0,1.7,1.3,3,3,3h12c1.7,0,3-1.3,3-3v-7C21,10.3,19.7,9,18,9z M9.7,6.7L11,5.4V17c0,0.6,0.4,1,1,1h0c0.6,0,1-0.4,1-1V5.4l1.3,1.3C14.5,6.9,14.7,7,15,7c0.3,0,0.5-0.1,0.7-0.3c0.4-0.4,0.4-1,0-1.4l-3-3c0,0,0,0,0,0c-0.4-0.4-1-0.4-1.4,0l-3,3c-0.4,0.4-0.4,1,0,1.4C8.7,7.1,9.3,7.1,9.7,6.7z"/></svg>