<svg xmlns="http://www.w3.org/2000/svg" xmlns:xlink="http://www.w3.org/1999/xlink" viewBox="0 0 85.58 85.59"><defs><style>.cls-1{fill:#3865ab;}.cls-2{fill:#84aff1;}.cls-3{fill:url(#linear-gradient);}</style><linearGradient id="linear-gradient" x1="18.52" y1="47.29" x2="83.59" y2="47.29" gradientUnits="userSpaceOnUse"><stop offset="0" stop-color="#f2cc0c"/><stop offset="1" stop-color="#ff9830"/></linearGradient></defs><g id="Layer_2" data-name="Layer 2"><g id="Icons"><path class="cls-1" d="M83.58,78.59H7V2A2,2,0,0,0,3,2V78.59H2a2,2,0,0,0,0,4H3v1a2,2,0,0,0,4,0v-1H83.58a2,2,0,1,0,0-4Z"/><circle class="cls-2" cx="13.43" cy="68.2" r="2.34"/><path class="cls-3" d="M23.42,69.87a2.34,2.34,0,1,1-2.34-2.34A2.34,2.34,0,0,1,23.42,69.87Zm6-6.89a2.34,2.34,0,1,0,2.34,2.34A2.34,2.34,0,0,0,29.39,63ZM20.85,48.79a2.34,2.34,0,1,0,2.34,2.34A2.33,2.33,0,0,0,20.85,48.79Zm15.43,3.4a2.34,2.34,0,1,0,2.33,2.34A2.34,2.34,0,0,0,36.28,52.19ZM43.92,58a2.34,2.34,0,1,0,2.34,2.34A2.34,2.34,0,0,0,43.92,58Zm10.15-6.29a2.34,2.34,0,1,0,2.34,2.34A2.34,2.34,0,0,0,54.07,51.72Zm8.59-14.66A2.34,2.34,0,1,0,65,39.4,2.34,2.34,0,0,0,62.66,37.06ZM81.25,22.38a2.34,2.34,0,1,0,2.34,2.34A2.34,2.34,0,0,0,81.25,22.38Z"/><circle class="cls-2" cx="26.69" cy="56.59" r="2.34"/><circle class="cls-2" cx="36.16" cy="43.03" r="2.34"/><circle class="cls-2" cx="43.66" cy="52.15" r="2.34"/><circle class="cls-2" cx="54.37" cy="42.4" r="2.34"/><circle class="cls-2" cx="44.59" cy="20.16" r="2.34"/><circle class="cls-2" cx="79.25" cy="45.71" r="2.34"/><circle class="cls-2" cx="79.25" cy="4.34" r="2.34"/><circle class="cls-2" cx="73.25" cy="16.98" r="2.34"/><circle class="cls-2" cx="60.71" cy="4.34" r="2.34"/><circle class="cls-2" cx="59.66" cy="27.08" r="2.34"/><circle class="cls-2" cx="16.36" cy="59.58" r="2.34"/></g></g></svg>