<?xml version="1.0" encoding="utf-8"?>
<!-- Generator: Adobe Illustrator 20.1.0, SVG Export Plug-In . SVG Version: 6.00 Build 0)  -->
<svg version="1.1" id="Layer_1" xmlns="http://www.w3.org/2000/svg" xmlns:xlink="http://www.w3.org/1999/xlink" x="0px" y="0px"
	 width="100px" height="100px" viewBox="0 0 100 100" style="enable-background:new 0 0 100 100;" xml:space="preserve">
<style type="text/css">
	.st0{fill:#1F1F1F;}
	.st1{fill:none;}
	.st2{opacity:0.5;fill:#4D4D4D;}
	.st3{fill:#898989;}
	.st4{fill:url(#SVGID_1_);}
	.st5{fill:url(#SVGID_2_);}
	.st6{fill:url(#SVGID_3_);}
	.st7{fill:url(#SVGID_4_);}
	.st8{fill:url(#SVGID_5_);}
	.st9{fill:url(#SVGID_6_);}
	.st10{fill:url(#SVGID_7_);}
	.st11{fill:url(#SVGID_8_);}
	.st12{fill:url(#SVGID_9_);}
	.st13{fill:url(#SVGID_10_);}
	.st14{fill:url(#SVGID_11_);}
	.st15{fill:url(#SVGID_12_);}
	.st16{fill:url(#SVGID_13_);}
	.st17{fill:url(#SVGID_14_);}
	.st18{fill:url(#SVGID_15_);}
	.st19{fill:url(#SVGID_16_);}
</style>
<g>
	<rect class="st0" width="100" height="100"/>
	<polygon class="st1" points="27.5,5.1 27.3,5.1 5,27.4 5,27.7 5,28 27.9,5.1 	"/>
	<polygon class="st1" points="75.5,5.1 75.3,5.1 5,75.4 5,75.7 5,76 75.9,5.1 	"/>
	<polygon class="st1" points="87.5,5.1 87.3,5.1 5,87.4 5,87.7 5,88 87.9,5.1 	"/>
	<polygon class="st1" points="95,5.7 95,5.4 5.3,95.1 5.5,95.1 5.9,95.1 95,6 	"/>
	<polygon class="st1" points="93.5,5.1 93.3,5.1 5,93.4 5,93.7 5,94 93.9,5.1 	"/>
	<polygon class="st1" points="5.5,5.1 5.3,5.1 5,5.4 5,5.7 5,6 5.9,5.1 	"/>
	<polygon class="st1" points="91.5,5.1 91.3,5.1 5,91.4 5,91.7 5,92 91.9,5.1 	"/>
	<polygon class="st1" points="79.5,5.1 79.3,5.1 5,79.4 5,79.7 5,80 79.9,5.1 	"/>
	<polygon class="st1" points="85.5,5.1 85.3,5.1 5,85.4 5,85.7 5,86 85.9,5.1 	"/>
	<polygon class="st1" points="77.5,5.1 77.3,5.1 5,77.4 5,77.7 5,78 77.9,5.1 	"/>
	<polygon class="st1" points="9.5,5.1 9.3,5.1 5,9.4 5,9.7 5,10 9.9,5.1 	"/>
	<polygon class="st1" points="83.5,5.1 83.3,5.1 5,83.4 5,83.7 5,84 83.9,5.1 	"/>
	<polygon class="st1" points="81.5,5.1 81.3,5.1 5,81.4 5,81.7 5,82 81.9,5.1 	"/>
	<polygon class="st1" points="7.5,5.1 7.3,5.1 5,7.4 5,7.7 5,8 7.9,5.1 	"/>
	<polygon class="st1" points="95,7.7 95,7.4 7.3,95.1 7.5,95.1 7.9,95.1 95,8 	"/>
	<polygon class="st1" points="95,29.7 95,29.4 29.3,95.1 29.5,95.1 29.9,95.1 95,30 	"/>
	<polygon class="st1" points="95,27.7 95,27.4 27.3,95.1 27.5,95.1 27.9,95.1 95,28 	"/>
	<polygon class="st1" points="95,23.7 95,23.4 23.3,95.1 23.5,95.1 23.9,95.1 95,24 	"/>
	<polygon class="st1" points="95,25.7 95,25.4 25.3,95.1 25.5,95.1 25.9,95.1 95,26 	"/>
	<polygon class="st1" points="95,31.7 95,31.4 31.3,95.1 31.5,95.1 31.9,95.1 95,32 	"/>
	<polygon class="st1" points="95,35.7 95,35.4 35.3,95.1 35.5,95.1 35.9,95.1 95,36 	"/>
	<polygon class="st1" points="95,33.7 95,33.4 33.3,95.1 33.5,95.1 33.9,95.1 95,34 	"/>
	<polygon class="st1" points="95,19.7 95,19.4 19.3,95.1 19.5,95.1 19.9,95.1 95,20 	"/>
	<polygon class="st1" points="95,15.7 95,15.4 15.3,95.1 15.5,95.1 15.9,95.1 95,16 	"/>
	<polygon class="st1" points="95,13.7 95,13.4 13.3,95.1 13.5,95.1 13.9,95.1 95,14 	"/>
	<polygon class="st1" points="95,11.7 95,11.4 11.3,95.1 11.5,95.1 11.9,95.1 95,12 	"/>
	<polygon class="st1" points="95,9.7 95,9.4 9.3,95.1 9.5,95.1 9.9,95.1 95,10 	"/>
	<polygon class="st1" points="95,21.7 95,21.4 21.3,95.1 21.5,95.1 21.9,95.1 95,22 	"/>
	<polygon class="st1" points="95,17.7 95,17.4 17.3,95.1 17.5,95.1 17.9,95.1 95,18 	"/>
	<polygon class="st1" points="15.5,5.1 15.3,5.1 5,15.4 5,15.7 5,16 15.9,5.1 	"/>
	<polygon class="st1" points="39.5,5.1 39.3,5.1 5,39.4 5,39.7 5,40 39.9,5.1 	"/>
	<polygon class="st1" points="19.5,5.1 19.3,5.1 5,19.4 5,19.7 5,20 19.9,5.1 	"/>
	<polygon class="st1" points="41.5,5.1 41.3,5.1 5,41.4 5,41.7 5,42 41.9,5.1 	"/>
	<polygon class="st1" points="43.5,5.1 43.3,5.1 5,43.4 5,43.7 5,44 43.9,5.1 	"/>
	<polygon class="st1" points="17.5,5.1 17.3,5.1 5,17.4 5,17.7 5,18 17.9,5.1 	"/>
	<polygon class="st1" points="45.5,5.1 45.3,5.1 5,45.4 5,45.7 5,46 45.9,5.1 	"/>
	<polygon class="st1" points="95,37.7 95,37.4 37.3,95.1 37.5,95.1 37.9,95.1 95,38 	"/>
	<polygon class="st1" points="37.5,5.1 37.3,5.1 5,37.4 5,37.7 5,38 37.9,5.1 	"/>
	<polygon class="st1" points="25.5,5.1 25.3,5.1 5,25.4 5,25.7 5,26 25.9,5.1 	"/>
	<polygon class="st1" points="29.5,5.1 29.3,5.1 5,29.4 5,29.7 5,30 29.9,5.1 	"/>
	<polygon class="st1" points="31.5,5.1 31.3,5.1 5,31.4 5,31.7 5,32 31.9,5.1 	"/>
	<polygon class="st1" points="33.5,5.1 33.3,5.1 5,33.4 5,33.7 5,34 33.9,5.1 	"/>
	<polygon class="st1" points="21.5,5.1 21.3,5.1 5,21.4 5,21.7 5,22 21.9,5.1 	"/>
	<polygon class="st1" points="35.5,5.1 35.3,5.1 5,35.4 5,35.7 5,36 35.9,5.1 	"/>
	<polygon class="st1" points="23.5,5.1 23.3,5.1 5,23.4 5,23.7 5,24 23.9,5.1 	"/>
	<polygon class="st1" points="73.5,5.1 73.3,5.1 5,73.4 5,73.7 5,74 73.9,5.1 	"/>
	<polygon class="st1" points="67.5,5.1 67.3,5.1 5,67.4 5,67.7 5,68 67.9,5.1 	"/>
	<polygon class="st1" points="69.5,5.1 69.3,5.1 5,69.4 5,69.7 5,70 69.9,5.1 	"/>
	<polygon class="st1" points="63.5,5.1 63.3,5.1 5,63.4 5,63.7 5,64 63.9,5.1 	"/>
	<polygon class="st1" points="65.5,5.1 65.3,5.1 5,65.4 5,65.7 5,66 65.9,5.1 	"/>
	<polygon class="st1" points="11.5,5.1 11.3,5.1 5,11.4 5,11.7 5,12 11.9,5.1 	"/>
	<polygon class="st1" points="13.5,5.1 13.3,5.1 5,13.4 5,13.7 5,14 13.9,5.1 	"/>
	<polygon class="st1" points="71.5,5.1 71.3,5.1 5,71.4 5,71.7 5,72 71.9,5.1 	"/>
	<polygon class="st1" points="61.5,5.1 61.3,5.1 5,61.4 5,61.7 5,62 61.9,5.1 	"/>
	<polygon class="st1" points="53.5,5.1 53.3,5.1 5,53.4 5,53.7 5,54 53.9,5.1 	"/>
	<polygon class="st1" points="47.5,5.1 47.3,5.1 5,47.4 5,47.7 5,48 47.9,5.1 	"/>
	<polygon class="st1" points="49.5,5.1 49.3,5.1 5,49.4 5,49.7 5,50 49.9,5.1 	"/>
	<polygon class="st1" points="51.5,5.1 51.3,5.1 5,51.4 5,51.7 5,52 51.9,5.1 	"/>
	<polygon class="st1" points="59.5,5.1 59.3,5.1 5,59.4 5,59.7 5,60 59.9,5.1 	"/>
	<polygon class="st1" points="55.5,5.1 55.3,5.1 5,55.4 5,55.7 5,56 55.9,5.1 	"/>
	<polygon class="st1" points="57.5,5.1 57.3,5.1 5,57.4 5,57.7 5,58 57.9,5.1 	"/>
	<polygon class="st1" points="89.5,5.1 89.3,5.1 5,89.4 5,89.7 5,90 89.9,5.1 	"/>
	<polygon class="st1" points="95,63.7 95,63.4 63.3,95.1 63.5,95.1 63.9,95.1 95,64 	"/>
	<polygon class="st1" points="95,65.7 95,65.4 65.3,95.1 65.5,95.1 65.9,95.1 95,66 	"/>
	<polygon class="st1" points="95,51.7 95,51.4 51.3,95.1 51.5,95.1 51.9,95.1 95,52 	"/>
	<polygon class="st1" points="95,61.7 95,61.4 61.3,95.1 61.5,95.1 61.9,95.1 95,62 	"/>
	<polygon class="st1" points="95,69.7 95,69.4 69.3,95.1 69.5,95.1 69.9,95.1 95,70 	"/>
	<polygon class="st1" points="95,55.7 95,55.4 55.3,95.1 55.5,95.1 55.9,95.1 95,56 	"/>
	<polygon class="st1" points="95,71.7 95,71.4 71.3,95.1 71.5,95.1 71.9,95.1 95,72 	"/>
	<polygon class="st1" points="95,59.7 95,59.4 59.3,95.1 59.5,95.1 59.9,95.1 95,60 	"/>
	<polygon class="st1" points="95,53.7 95,53.4 53.3,95.1 53.5,95.1 53.9,95.1 95,54 	"/>
	<polygon class="st1" points="95,57.7 95,57.4 57.3,95.1 57.5,95.1 57.9,95.1 95,58 	"/>
	<polygon class="st1" points="95,67.7 95,67.4 67.3,95.1 67.5,95.1 67.9,95.1 95,68 	"/>
	<polygon class="st1" points="95,83.7 95,83.4 83.3,95.1 83.5,95.1 83.9,95.1 95,84 	"/>
	<polygon class="st1" points="95,85.7 95,85.4 85.3,95.1 85.5,95.1 85.9,95.1 95,86 	"/>
	<polygon class="st1" points="95,73.7 95,73.4 73.3,95.1 73.5,95.1 73.9,95.1 95,74 	"/>
	<polygon class="st1" points="95,89.7 95,89.4 89.3,95.1 89.5,95.1 89.9,95.1 95,90 	"/>
	<polygon class="st1" points="95,91.7 95,91.4 91.3,95.1 91.5,95.1 91.9,95.1 95,92 	"/>
	<polygon class="st1" points="95,93.7 95,93.4 93.3,95.1 93.5,95.1 93.9,95.1 95,94 	"/>
	<polygon class="st1" points="95,77.7 95,77.4 77.3,95.1 77.5,95.1 77.9,95.1 95,78 	"/>
	<polygon class="st1" points="95,75.7 95,75.4 75.3,95.1 75.5,95.1 75.9,95.1 95,76 	"/>
	<polygon class="st1" points="95,81.7 95,81.4 81.3,95.1 81.5,95.1 81.9,95.1 95,82 	"/>
	<polygon class="st1" points="95,79.7 95,79.4 79.3,95.1 79.5,95.1 79.9,95.1 95,80 	"/>
	<polygon class="st1" points="95,87.7 95,87.4 87.3,95.1 87.5,95.1 87.9,95.1 95,88 	"/>
	<polygon class="st1" points="95,43.7 95,43.4 43.3,95.1 43.5,95.1 43.9,95.1 95,44 	"/>
	<polygon class="st1" points="95,41.7 95,41.4 41.3,95.1 41.5,95.1 41.9,95.1 95,42 	"/>
	<polygon class="st1" points="95,47.7 95,47.4 47.3,95.1 47.5,95.1 47.9,95.1 95,48 	"/>
	<polygon class="st1" points="95,39.7 95,39.4 39.3,95.1 39.5,95.1 39.9,95.1 95,40 	"/>
	<polygon class="st1" points="95,45.7 95,45.4 45.3,95.1 45.5,95.1 45.9,95.1 95,46 	"/>
	<polygon class="st1" points="95,49.7 95,49.4 49.3,95.1 49.5,95.1 49.9,95.1 95,50 	"/>
	<polygon class="st2" points="5,5.1 5,5.4 5.3,5.1 	"/>
	<polygon class="st2" points="6.9,5.1 5.9,5.1 5,6 5,7.1 5,7.4 7.3,5.1 	"/>
	<polygon class="st2" points="8.9,5.1 7.9,5.1 5,8 5,9.1 5,9.4 9.3,5.1 	"/>
	<polygon class="st2" points="10.9,5.1 9.9,5.1 5,10 5,11.1 5,11.4 11.3,5.1 	"/>
	<polygon class="st2" points="12.9,5.1 11.9,5.1 5,12 5,13.1 5,13.4 13.3,5.1 	"/>
	<polygon class="st2" points="14.9,5.1 13.9,5.1 5,14 5,15.1 5,15.4 15.3,5.1 	"/>
	<polygon class="st2" points="16.9,5.1 15.9,5.1 5,16 5,17.1 5,17.4 17.3,5.1 	"/>
	<polygon class="st2" points="18.9,5.1 17.9,5.1 5,18 5,19.1 5,19.4 19.3,5.1 	"/>
	<polygon class="st2" points="20.9,5.1 19.9,5.1 5,20 5,21.1 5,21.4 21.3,5.1 	"/>
	<polygon class="st2" points="22.9,5.1 21.9,5.1 5,22 5,23.1 5,23.4 23.3,5.1 	"/>
	<polygon class="st2" points="24.9,5.1 23.9,5.1 5,24 5,25.1 5,25.4 25.3,5.1 	"/>
	<polygon class="st2" points="26.9,5.1 25.9,5.1 5,26 5,27.1 5,27.4 27.3,5.1 	"/>
	<polygon class="st2" points="28.9,5.1 27.9,5.1 5,28 5,29.1 5,29.4 29.3,5.1 	"/>
	<polygon class="st2" points="30.9,5.1 29.9,5.1 5,30 5,31.1 5,31.4 31.3,5.1 	"/>
	<polygon class="st2" points="32.9,5.1 31.9,5.1 5,32 5,33.1 5,33.4 33.3,5.1 	"/>
	<polygon class="st2" points="34.9,5.1 33.9,5.1 5,34 5,35.1 5,35.4 35.3,5.1 	"/>
	<polygon class="st2" points="36.9,5.1 35.9,5.1 5,36 5,37.1 5,37.4 37.3,5.1 	"/>
	<polygon class="st2" points="38.9,5.1 37.9,5.1 5,38 5,39.1 5,39.4 39.3,5.1 	"/>
	<polygon class="st2" points="40.9,5.1 39.9,5.1 5,40 5,41.1 5,41.4 41.3,5.1 	"/>
	<polygon class="st2" points="42.9,5.1 41.9,5.1 5,42 5,43.1 5,43.4 43.3,5.1 	"/>
	<polygon class="st2" points="44.9,5.1 43.9,5.1 5,44 5,45.1 5,45.4 45.3,5.1 	"/>
	<polygon class="st2" points="46.9,5.1 45.9,5.1 5,46 5,47.1 5,47.4 47.3,5.1 	"/>
	<polygon class="st2" points="48.9,5.1 47.9,5.1 5,48 5,49.1 5,49.4 49.3,5.1 	"/>
	<polygon class="st2" points="50.9,5.1 49.9,5.1 5,50 5,51.1 5,51.4 51.3,5.1 	"/>
	<polygon class="st2" points="52.9,5.1 51.9,5.1 5,52 5,53.1 5,53.4 53.3,5.1 	"/>
	<polygon class="st2" points="54.9,5.1 53.9,5.1 5,54 5,55.1 5,55.4 55.3,5.1 	"/>
	<polygon class="st2" points="56.9,5.1 55.9,5.1 5,56 5,57.1 5,57.4 57.3,5.1 	"/>
	<polygon class="st2" points="58.9,5.1 57.9,5.1 5,58 5,59.1 5,59.4 59.3,5.1 	"/>
	<polygon class="st2" points="60.9,5.1 59.9,5.1 5,60 5,61.1 5,61.4 61.3,5.1 	"/>
	<polygon class="st2" points="62.9,5.1 61.9,5.1 5,62 5,63.1 5,63.4 63.3,5.1 	"/>
	<polygon class="st2" points="64.9,5.1 63.9,5.1 5,64 5,65.1 5,65.4 65.3,5.1 	"/>
	<polygon class="st2" points="66.9,5.1 65.9,5.1 5,66 5,67.1 5,67.4 67.3,5.1 	"/>
	<polygon class="st2" points="68.9,5.1 67.9,5.1 5,68 5,69.1 5,69.4 69.3,5.1 	"/>
	<polygon class="st2" points="70.9,5.1 69.9,5.1 5,70 5,71.1 5,71.4 71.3,5.1 	"/>
	<polygon class="st2" points="72.9,5.1 71.9,5.1 5,72 5,73.1 5,73.4 73.3,5.1 	"/>
	<polygon class="st2" points="74.9,5.1 73.9,5.1 5,74 5,75.1 5,75.4 75.3,5.1 	"/>
	<polygon class="st2" points="76.9,5.1 75.9,5.1 5,76 5,77.1 5,77.4 77.3,5.1 	"/>
	<polygon class="st2" points="78.9,5.1 77.9,5.1 5,78 5,79.1 5,79.4 79.3,5.1 	"/>
	<polygon class="st2" points="80.9,5.1 79.9,5.1 5,80 5,81.1 5,81.4 81.3,5.1 	"/>
	<polygon class="st2" points="82.9,5.1 81.9,5.1 5,82 5,83.1 5,83.4 83.3,5.1 	"/>
	<polygon class="st2" points="84.9,5.1 83.9,5.1 5,84 5,85.1 5,85.4 85.3,5.1 	"/>
	<polygon class="st2" points="86.9,5.1 85.9,5.1 5,86 5,87.1 5,87.4 87.3,5.1 	"/>
	<polygon class="st2" points="88.9,5.1 87.9,5.1 5,88 5,89.1 5,89.4 89.3,5.1 	"/>
	<polygon class="st2" points="90.9,5.1 89.9,5.1 5,90 5,91.1 5,91.4 91.3,5.1 	"/>
	<polygon class="st2" points="92.9,5.1 91.9,5.1 5,92 5,93.1 5,93.4 93.3,5.1 	"/>
	<polygon class="st2" points="95,5.1 94.9,5.1 93.9,5.1 5,94 5,95.1 5,95.1 5.3,95.1 95,5.4 	"/>
	<polygon class="st2" points="95,7.1 95,6 5.9,95.1 6.9,95.1 7.3,95.1 95,7.4 	"/>
	<polygon class="st2" points="95,9.1 95,8 7.9,95.1 8.9,95.1 9.3,95.1 95,9.4 	"/>
	<polygon class="st2" points="95,11.1 95,10 9.9,95.1 10.9,95.1 11.3,95.1 95,11.4 	"/>
	<polygon class="st2" points="95,13.1 95,12 11.9,95.1 12.9,95.1 13.3,95.1 95,13.4 	"/>
	<polygon class="st2" points="95,15.1 95,14 13.9,95.1 14.9,95.1 15.3,95.1 95,15.4 	"/>
	<polygon class="st2" points="95,17.1 95,16 15.9,95.1 16.9,95.1 17.3,95.1 95,17.4 	"/>
	<polygon class="st2" points="95,19.1 95,18 17.9,95.1 18.9,95.1 19.3,95.1 95,19.4 	"/>
	<polygon class="st2" points="95,21.1 95,20 19.9,95.1 20.9,95.1 21.3,95.1 95,21.4 	"/>
	<polygon class="st2" points="95,23.1 95,22 21.9,95.1 22.9,95.1 23.3,95.1 95,23.4 	"/>
	<polygon class="st2" points="95,25.1 95,24 23.9,95.1 24.9,95.1 25.3,95.1 95,25.4 	"/>
	<polygon class="st2" points="95,27.1 95,26 25.9,95.1 26.9,95.1 27.3,95.1 95,27.4 	"/>
	<polygon class="st2" points="95,29.1 95,28 27.9,95.1 28.9,95.1 29.3,95.1 95,29.4 	"/>
	<polygon class="st2" points="95,31.1 95,30 29.9,95.1 30.9,95.1 31.3,95.1 95,31.4 	"/>
	<polygon class="st2" points="95,33.1 95,32 31.9,95.1 32.9,95.1 33.3,95.1 95,33.4 	"/>
	<polygon class="st2" points="95,35.1 95,34 33.9,95.1 34.9,95.1 35.3,95.1 95,35.4 	"/>
	<polygon class="st2" points="95,37.1 95,36 35.9,95.1 36.9,95.1 37.3,95.1 95,37.4 	"/>
	<polygon class="st2" points="95,39.1 95,38 37.9,95.1 38.9,95.1 39.3,95.1 95,39.4 	"/>
	<polygon class="st2" points="95,41.1 95,40 39.9,95.1 40.9,95.1 41.3,95.1 95,41.4 	"/>
	<polygon class="st2" points="95,43.1 95,42 41.9,95.1 42.9,95.1 43.3,95.1 95,43.4 	"/>
	<polygon class="st2" points="95,45.1 95,44 43.9,95.1 44.9,95.1 45.3,95.1 95,45.4 	"/>
	<polygon class="st2" points="95,47.1 95,46 45.9,95.1 46.9,95.1 47.3,95.1 95,47.4 	"/>
	<polygon class="st2" points="95,49.1 95,48 47.9,95.1 48.9,95.1 49.3,95.1 95,49.4 	"/>
	<polygon class="st2" points="95,51.1 95,50 49.9,95.1 50.9,95.1 51.3,95.1 95,51.4 	"/>
	<polygon class="st2" points="95,53.1 95,52 51.9,95.1 52.9,95.1 53.3,95.1 95,53.4 	"/>
	<polygon class="st2" points="95,55.1 95,54 53.9,95.1 54.9,95.1 55.3,95.1 95,55.4 	"/>
	<polygon class="st2" points="95,57.1 95,56 55.9,95.1 56.9,95.1 57.3,95.1 95,57.4 	"/>
	<polygon class="st2" points="95,59.1 95,58 57.9,95.1 58.9,95.1 59.3,95.1 95,59.4 	"/>
	<polygon class="st2" points="95,61.1 95,60 59.9,95.1 60.9,95.1 61.3,95.1 95,61.4 	"/>
	<polygon class="st2" points="95,63.1 95,62 61.9,95.1 62.9,95.1 63.3,95.1 95,63.4 	"/>
	<polygon class="st2" points="95,65.1 95,64 63.9,95.1 64.9,95.1 65.3,95.1 95,65.4 	"/>
	<polygon class="st2" points="95,67.1 95,66 65.9,95.1 66.9,95.1 67.3,95.1 95,67.4 	"/>
	<polygon class="st2" points="95,69.1 95,68 67.9,95.1 68.9,95.1 69.3,95.1 95,69.4 	"/>
	<polygon class="st2" points="95,71.1 95,70 69.9,95.1 70.9,95.1 71.3,95.1 95,71.4 	"/>
	<polygon class="st2" points="95,73.1 95,72 71.9,95.1 72.9,95.1 73.3,95.1 95,73.4 	"/>
	<polygon class="st2" points="95,75.1 95,74 73.9,95.1 74.9,95.1 75.3,95.1 95,75.4 	"/>
	<polygon class="st2" points="95,77.1 95,76 75.9,95.1 76.9,95.1 77.3,95.1 95,77.4 	"/>
	<polygon class="st2" points="95,79.1 95,78 77.9,95.1 78.9,95.1 79.3,95.1 95,79.4 	"/>
	<polygon class="st2" points="95,81.1 95,80 79.9,95.1 80.9,95.1 81.3,95.1 95,81.4 	"/>
	<polygon class="st2" points="95,83.1 95,82 81.9,95.1 82.9,95.1 83.3,95.1 95,83.4 	"/>
	<polygon class="st2" points="95,85.1 95,84 83.9,95.1 84.9,95.1 85.3,95.1 95,85.4 	"/>
	<polygon class="st2" points="95,87.1 95,86 85.9,95.1 86.9,95.1 87.3,95.1 95,87.4 	"/>
	<polygon class="st2" points="95,89.1 95,88 87.9,95.1 88.9,95.1 89.3,95.1 95,89.4 	"/>
	<polygon class="st2" points="95,91.1 95,90 89.9,95.1 90.9,95.1 91.3,95.1 95,91.4 	"/>
	<polygon class="st2" points="95,93.1 95,92 91.9,95.1 92.9,95.1 93.3,95.1 95,93.4 	"/>
	<polygon class="st2" points="95,95.1 95,95.1 95,94 93.9,95.1 94.9,95.1 	"/>
	<path class="st3" d="M96,95v-0.6v-0.4v-1v-0.4v-0.2v-0.4v-1v-0.4v-0.2v-0.4v-1v-0.4v-0.2v-0.4v-1v-0.4v-0.2v-0.4v-1v-0.4v-0.2v-0.4
		v-1v-0.4v-0.2v-0.4v-1v-0.4v-0.2v-0.4v-1v-0.4v-0.2v-0.4v-1v-0.4v-0.2v-0.4v-1v-0.4v-0.2v-0.4v-1v-0.4v-0.2v-0.4v-1v-0.4v-0.2v-0.4
		v-1v-0.4v-0.2v-0.4v-1v-0.4v-0.2v-0.4v-1v-0.4v-0.2v-0.4v-1v-0.4v-0.2v-0.4v-1v-0.4v-0.2v-0.4v-1v-0.4v-0.2v-0.4v-1v-0.4v-0.2v-0.4
		v-1v-0.4v-0.2v-0.4v-1v-0.4v-0.2v-0.4v-1v-0.4v-0.2v-0.4v-1v-0.4v-0.2v-0.4v-1v-0.4v-0.2v-0.4v-1v-0.4v-0.2v-0.4v-1v-0.4v-0.2v-0.4
		v-1v-0.4v-0.2v-0.4v-1v-0.4v-0.2v-0.4v-1v-0.4v-0.2v-0.4v-1v-0.4v-0.2v-0.4v-1v-0.4v-0.2v-0.4v-1v-0.4v-0.2v-0.4v-1v-0.4v-0.2v-0.4
		v-1v-0.4v-0.2v-0.4v-1v-0.4v-0.2v-0.4v-1v-0.4v-0.2v-0.4v-1v-0.4v-0.2v-0.4v-1v-0.4v-0.2v-0.4v-1v-0.4v-0.2v-0.4v-1v-0.4v-0.2v-0.4
		v-1v-0.4v-0.2v-0.4v-1v-0.4v-0.2v-0.4V9V8.7V8.4V8.1V7V6.7V6.4V6.1V5V4.7V4.4V4.1h-0.1h-1h-0.4h-0.2h-0.4h-1h-0.4h-0.2h-0.4h-1
		h-0.4h-0.2h-0.4h-1h-0.4h-0.2h-0.4h-1h-0.4h-0.2h-0.4h-1h-0.4h-0.2h-0.4h-1h-0.4h-0.2h-0.4h-1h-0.4h-0.2h-0.4h-1h-0.4h-0.2h-0.4h-1
		h-0.4h-0.2h-0.4h-1h-0.4h-0.2h-0.4h-1h-0.4h-0.2h-0.4h-1h-0.4h-0.2h-0.4h-1h-0.4h-0.2h-0.4h-1h-0.4h-0.2h-0.4h-1h-0.4h-0.2h-0.4h-1
		h-0.4h-0.2h-0.4h-1h-0.4h-0.2h-0.4h-1h-0.4h-0.2h-0.4h-1h-0.4h-0.2h-0.4h-1h-0.4h-0.2h-0.4h-1h-0.4h-0.2h-0.4h-1h-0.4h-0.2h-0.4h-1
		h-0.4h-0.2h-0.4h-1h-0.4h-0.2h-0.4h-1h-0.4h-0.2h-0.4h-1h-0.4h-0.2h-0.4h-1h-0.4h-0.2h-0.4h-1h-0.4h-0.2h-0.4h-1h-0.4h-0.2h-0.4h-1
		h-0.4h-0.2h-0.4h-1h-0.4h-0.2h-0.4h-1h-0.4h-0.2h-0.4h-1h-0.4h-0.2h-0.4h-1h-0.4h-0.2h-0.4h-1h-0.4h-0.2h-0.4h-1h-0.4h-0.2h-0.4h-1
		h-0.4h-0.2h-0.4h-1h-0.4h-0.2h-0.4h-1h-0.4h-0.2h-0.4h-1h-0.4h-0.2h-0.4h-1h-0.4h-0.2h-0.4h-1h-0.4h-0.2H9.9h-1H8.5H8.3H7.9h-1H6.5
		H6.3H4.9H4.3H4v0.3V5v1.4v0.2V7v1v0.4v0.2V9v1v0.4v0.2V11v1v0.4v0.2V13v1v0.4v0.2V15v1v0.4v0.2V17v1v0.4v0.2V19v1v0.4v0.2V21v1v0.4
		v0.2V23v1v0.4v0.2V25v1v0.4v0.2V27v1v0.4v0.2V29v1v0.4v0.2V31v1v0.4v0.2V33v1v0.4v0.2V35v1v0.4v0.2V37v1v0.4v0.2V39v1v0.4v0.2V41v1
		v0.4v0.2V43v1v0.4v0.2V45v1v0.4v0.2V47v1v0.4v0.2V49v1v0.4v0.2V51v1v0.4v0.2V53v1v0.4v0.2V55v1v0.4v0.2V57v1v0.4v0.2V59v1v0.4v0.2
		V61v1v0.4v0.2V63v1v0.4v0.2V65v1v0.4v0.2V67v1v0.4v0.2V69v1v0.4v0.2V71v1v0.4v0.2V73v1v0.4v0.2V75v1v0.4v0.2V77v1v0.4v0.2V79v1v0.4
		v0.2V81v1v0.4v0.2V83v1v0.4v0.2V85v1v0.4v0.2V87v1v0.4v0.2V89v1v0.4v0.2V91v1v0.4v0.2V93v1v0.4v0.2V95v1v0.1h0.3h0.2h0.4h1h0.4h0.2
		h0.4h1h0.4h0.2h0.4h1h0.4h0.2h0.4h1h0.4h0.2h0.4h1h0.4h0.2h0.4h1h0.4h0.2h0.4h1h0.4h0.2h0.4h1h0.4h0.2h0.4h1h0.4h0.2h0.4h1h0.4h0.2
		h0.4h1h0.4h0.2h0.4h1h0.4h0.2h0.4h1h0.4h0.2h0.4h1h0.4h0.2h0.4h1h0.4h0.2h0.4h1h0.4h0.2h0.4h1h0.4h0.2h0.4h1h0.4h0.2h0.4h1h0.4h0.2
		h0.4h1h0.4h0.2h0.4h1h0.4h0.2h0.4h1h0.4h0.2h0.4h1h0.4h0.2h0.4h1h0.4h0.2h0.4h1h0.4h0.2h0.4h1h0.4h0.2h0.4h1h0.4h0.2h0.4h1h0.4h0.2
		h0.4h1h0.4h0.2h0.4h1h0.4h0.2h0.4h1h0.4h0.2h0.4h1h0.4h0.2h0.4h1h0.4h0.2h0.4h1h0.4h0.2h0.4h1h0.4h0.2h0.4h1h0.4h0.2h0.4h1h0.4h0.2
		h0.4h1h0.4h0.2h0.4h1h0.4h0.2h0.4h1h0.4h0.2h0.4h1h0.4h0.2h0.4h1h0.4h0.2h0.4h1h0.4h0.2h0.4h1h0.4h0.2h0.4h1h0.4h0.6H96V95z
		 M93.9,95.1h-0.4h-0.2h-0.4h-1h-0.4h-0.2h-0.4h-1h-0.4h-0.2h-0.4h-1h-0.4h-0.2h-0.4h-1h-0.4h-0.2h-0.4h-1h-0.4h-0.2h-0.4h-1h-0.4
		h-0.2h-0.4h-1h-0.4h-0.2h-0.4h-1h-0.4h-0.2h-0.4h-1h-0.4h-0.2h-0.4h-1h-0.4h-0.2h-0.4h-1h-0.4h-0.2h-0.4h-1h-0.4h-0.2h-0.4h-1h-0.4
		h-0.2h-0.4h-1h-0.4h-0.2h-0.4h-1h-0.4h-0.2h-0.4h-1h-0.4h-0.2h-0.4h-1h-0.4h-0.2h-0.4h-1h-0.4h-0.2h-0.4h-1h-0.4h-0.2h-0.4h-1h-0.4
		h-0.2h-0.4h-1h-0.4h-0.2h-0.4h-1h-0.4h-0.2h-0.4h-1h-0.4h-0.2h-0.4h-1h-0.4h-0.2h-0.4h-1h-0.4h-0.2h-0.4h-1h-0.4h-0.2h-0.4h-1h-0.4
		h-0.2h-0.4h-1h-0.4h-0.2h-0.4h-1h-0.4h-0.2h-0.4h-1h-0.4h-0.2h-0.4h-1h-0.4h-0.2h-0.4h-1h-0.4h-0.2h-0.4h-1h-0.4h-0.2h-0.4h-1h-0.4
		h-0.2h-0.4h-1h-0.4h-0.2h-0.4h-1h-0.4h-0.2h-0.4h-1h-0.4h-0.2h-0.4h-1h-0.4h-0.2h-0.4h-1h-0.4h-0.2h-0.4h-1h-0.4h-0.2h-0.4h-1h-0.4
		h-0.2h-0.4h-1H9.5H9.3H8.9h-1H7.5H7.3H6.9h-1H5.5H5.3H5v-0.1v-1v-0.4v-0.2v-0.4v-1v-0.4v-0.2v-0.4v-1v-0.4v-0.2v-0.4v-1v-0.4v-0.2
		v-0.4v-1v-0.4v-0.2v-0.4v-1v-0.4v-0.2v-0.4v-1v-0.4v-0.2v-0.4v-1v-0.4v-0.2v-0.4v-1v-0.4v-0.2v-0.4v-1v-0.4v-0.2v-0.4v-1v-0.4v-0.2
		v-0.4v-1v-0.4v-0.2v-0.4v-1v-0.4v-0.2v-0.4v-1v-0.4v-0.2v-0.4v-1v-0.4v-0.2v-0.4v-1v-0.4v-0.2v-0.4v-1v-0.4v-0.2v-0.4v-1v-0.4v-0.2
		v-0.4v-1v-0.4v-0.2v-0.4v-1v-0.4v-0.2v-0.4v-1v-0.4v-0.2v-0.4v-1v-0.4v-0.2v-0.4v-1v-0.4v-0.2v-0.4v-1v-0.4v-0.2v-0.4v-1v-0.4v-0.2
		v-0.4v-1v-0.4v-0.2v-0.4v-1v-0.4v-0.2v-0.4v-1v-0.4v-0.2v-0.4v-1v-0.4v-0.2v-0.4v-1v-0.4v-0.2v-0.4v-1v-0.4v-0.2v-0.4v-1v-0.4v-0.2
		v-0.4v-1v-0.4v-0.2v-0.4v-1v-0.4v-0.2v-0.4v-1v-0.4v-0.2v-0.4v-1v-0.4v-0.2v-0.4v-1v-0.4v-0.2v-0.4v-1v-0.4v-0.2v-0.4v-1v-0.4v-0.2
		v-0.4v-1v-0.4v-0.2v-0.4v-1v-0.4v-0.2v-0.4v-1v-0.4v-0.2v-0.4v-1V9.7V9.4V9.1V8V7.7V7.4V7.1V6V5.7V5.4V5.1h0.3h0.2h0.4h1h0.4h0.2
		h0.4h1h0.4h0.2h0.4h1h0.4h0.2h0.4h1h0.4h0.2h0.4h1h0.4h0.2h0.4h1h0.4h0.2h0.4h1h0.4h0.2h0.4h1h0.4h0.2h0.4h1h0.4h0.2h0.4h1h0.4h0.2
		h0.4h1h0.4h0.2h0.4h1h0.4h0.2h0.4h1h0.4h0.2h0.4h1h0.4h0.2h0.4h1h0.4h0.2h0.4h1h0.4h0.2h0.4h1h0.4h0.2h0.4h1h0.4h0.2h0.4h1h0.4h0.2
		h0.4h1h0.4h0.2h0.4h1h0.4h0.2h0.4h1h0.4h0.2h0.4h1h0.4h0.2h0.4h1h0.4h0.2h0.4h1h0.4h0.2h0.4h1h0.4h0.2h0.4h1h0.4h0.2h0.4h1h0.4h0.2
		h0.4h1h0.4h0.2h0.4h1h0.4h0.2h0.4h1h0.4h0.2h0.4h1h0.4h0.2h0.4h1h0.4h0.2h0.4h1h0.4h0.2h0.4h1h0.4h0.2h0.4h1h0.4h0.2h0.4h1h0.4h0.2
		h0.4h1h0.4h0.2h0.4h1h0.4h0.2h0.4h1h0.4h0.2h0.4h1h0.4h0.2h0.4h1h0.4h0.2h0.4h1h0.4h0.2h0.4h1h0.4h0.2h0.4h1H95v0.3v0.2V6v1v0.4
		v0.2V8v1v0.4v0.2V10v1v0.4v0.2V12v1v0.4v0.2V14v1v0.4v0.2V16v1v0.4v0.2V18v1v0.4v0.2V20v1v0.4v0.2V22v1v0.4v0.2V24v1v0.4v0.2V26v1
		v0.4v0.2V28v1v0.4v0.2V30v1v0.4v0.2V32v1v0.4v0.2V34v1v0.4v0.2V36v1v0.4v0.2V38v1v0.4v0.2V40v1v0.4v0.2V42v1v0.4v0.2V44v1v0.4v0.2
		V46v1v0.4v0.2V48v1v0.4v0.2V50v1v0.4v0.2V52v1v0.4v0.2V54v1v0.4v0.2V56v1v0.4v0.2V58v1v0.4v0.2V60v1v0.4v0.2V62v1v0.4v0.2V64v1v0.4
		v0.2V66v1v0.4v0.2V68v1v0.4v0.2V70v1v0.4v0.2V72v1v0.4v0.2V74v1v0.4v0.2V76v1v0.4v0.2V78v1v0.4v0.2V80v1v0.4v0.2V82v1v0.4v0.2V84v1
		v0.4v0.2V86v1v0.4v0.2V88v1v0.4v0.2V90v1v0.4v0.2V92v1v0.4v0.2V94v1v0.1h-0.1H93.9z"/>
	<g>
		<linearGradient id="SVGID_1_" gradientUnits="userSpaceOnUse" x1="17.4475" y1="26.9745" x2="17.4475" y2="-9.6175">
			<stop  offset="0" style="stop-color:#EB2127"/>
			<stop  offset="0.1593" style="stop-color:#DB2527"/>
			<stop  offset="0.5086" style="stop-color:#C22B28"/>
			<stop  offset="0.8013" style="stop-color:#B32C28"/>
			<stop  offset="1" style="stop-color:#AD2C27"/>
		</linearGradient>
		<rect x="7.4" y="7.3" class="st4" width="20.1" height="20.1"/>
	</g>
	<linearGradient id="SVGID_2_" gradientUnits="userSpaceOnUse" x1="39.2057" y1="25.8788" x2="39.2057" y2="-6.0125">
		<stop  offset="0" style="stop-color:#04A64D"/>
		<stop  offset="1.304281e-02" style="stop-color:#03A44D"/>
		<stop  offset="0.3271" style="stop-color:#008E42"/>
		<stop  offset="0.6074" style="stop-color:#007D39"/>
		<stop  offset="0.8413" style="stop-color:#007333"/>
		<stop  offset="1" style="stop-color:#006F31"/>
	</linearGradient>
	<rect x="29.1" y="7.3" class="st5" width="20.1" height="20.1"/>
	<linearGradient id="SVGID_3_" gradientUnits="userSpaceOnUse" x1="60.964" y1="26.0979" x2="60.964" y2="-3.9383">
		<stop  offset="0" style="stop-color:#FFF33B"/>
		<stop  offset="5.948725e-02" style="stop-color:#FFE029"/>
		<stop  offset="0.1303" style="stop-color:#FFD218"/>
		<stop  offset="0.2032" style="stop-color:#FEC90F"/>
		<stop  offset="0.2809" style="stop-color:#FDC70C"/>
		<stop  offset="0.6685" style="stop-color:#F3903F"/>
		<stop  offset="0.8876" style="stop-color:#ED683C"/>
		<stop  offset="1" style="stop-color:#E93E3A"/>
	</linearGradient>
	<rect x="50.9" y="7.3" class="st6" width="20.1" height="20.1"/>
	<linearGradient id="SVGID_4_" gradientUnits="userSpaceOnUse" x1="82.7222" y1="26.3171" x2="82.7222" y2="-10.4484">
		<stop  offset="0" style="stop-color:#04A64D"/>
		<stop  offset="1.304281e-02" style="stop-color:#03A44D"/>
		<stop  offset="0.3271" style="stop-color:#008E42"/>
		<stop  offset="0.6074" style="stop-color:#007D39"/>
		<stop  offset="0.8413" style="stop-color:#007333"/>
		<stop  offset="1" style="stop-color:#006F31"/>
	</linearGradient>
	<rect x="72.7" y="7.3" class="st7" width="20.1" height="20.1"/>
	<linearGradient id="SVGID_5_" gradientUnits="userSpaceOnUse" x1="17.4475" y1="48.0129" x2="17.4475" y2="14.2546">
		<stop  offset="0" style="stop-color:#04A64D"/>
		<stop  offset="1.304281e-02" style="stop-color:#03A44D"/>
		<stop  offset="0.3271" style="stop-color:#008E42"/>
		<stop  offset="0.6074" style="stop-color:#007D39"/>
		<stop  offset="0.8413" style="stop-color:#007333"/>
		<stop  offset="1" style="stop-color:#006F31"/>
	</linearGradient>
	<rect x="7.4" y="29.2" class="st8" width="20.1" height="20.1"/>
	<linearGradient id="SVGID_6_" gradientUnits="userSpaceOnUse" x1="39.2057" y1="48.0129" x2="39.2057" y2="14.2546">
		<stop  offset="0" style="stop-color:#04A64D"/>
		<stop  offset="1.304281e-02" style="stop-color:#03A44D"/>
		<stop  offset="0.3271" style="stop-color:#008E42"/>
		<stop  offset="0.6074" style="stop-color:#007D39"/>
		<stop  offset="0.8413" style="stop-color:#007333"/>
		<stop  offset="1" style="stop-color:#006F31"/>
	</linearGradient>
	<rect x="29.1" y="29.2" class="st9" width="20.1" height="20.1"/>
	<linearGradient id="SVGID_7_" gradientUnits="userSpaceOnUse" x1="60.964" y1="48.0129" x2="60.964" y2="14.2546">
		<stop  offset="0" style="stop-color:#04A64D"/>
		<stop  offset="1.304281e-02" style="stop-color:#03A44D"/>
		<stop  offset="0.3271" style="stop-color:#008E42"/>
		<stop  offset="0.6074" style="stop-color:#007D39"/>
		<stop  offset="0.8413" style="stop-color:#007333"/>
		<stop  offset="1" style="stop-color:#006F31"/>
	</linearGradient>
	<rect x="50.9" y="29.2" class="st10" width="20.1" height="20.1"/>
	<g>
		<linearGradient id="SVGID_8_" gradientUnits="userSpaceOnUse" x1="82.7222" y1="48.6703" x2="82.7222" y2="21.4878">
			<stop  offset="0" style="stop-color:#EB2127"/>
			<stop  offset="0.1593" style="stop-color:#DB2527"/>
			<stop  offset="0.5086" style="stop-color:#C22B28"/>
			<stop  offset="0.8013" style="stop-color:#B32C28"/>
			<stop  offset="1" style="stop-color:#AD2C27"/>
		</linearGradient>
		<rect x="72.7" y="29.2" class="st11" width="20.1" height="20.1"/>
	</g>
	<linearGradient id="SVGID_9_" gradientUnits="userSpaceOnUse" x1="17.4475" y1="70.8044" x2="17.4475" y2="35.7837">
		<stop  offset="0" style="stop-color:#04A64D"/>
		<stop  offset="1.304281e-02" style="stop-color:#03A44D"/>
		<stop  offset="0.3271" style="stop-color:#008E42"/>
		<stop  offset="0.6074" style="stop-color:#007D39"/>
		<stop  offset="0.8413" style="stop-color:#007333"/>
		<stop  offset="1" style="stop-color:#006F31"/>
	</linearGradient>
	<rect x="7.4" y="51.1" class="st12" width="20.1" height="20.1"/>
	<linearGradient id="SVGID_10_" gradientUnits="userSpaceOnUse" x1="39.2057" y1="69.9278" x2="39.2057" y2="39.4826">
		<stop  offset="0" style="stop-color:#FFF33B"/>
		<stop  offset="5.948725e-02" style="stop-color:#FFE029"/>
		<stop  offset="0.1303" style="stop-color:#FFD218"/>
		<stop  offset="0.2032" style="stop-color:#FEC90F"/>
		<stop  offset="0.2809" style="stop-color:#FDC70C"/>
		<stop  offset="0.6685" style="stop-color:#F3903F"/>
		<stop  offset="0.8876" style="stop-color:#ED683C"/>
		<stop  offset="1" style="stop-color:#E93E3A"/>
	</linearGradient>
	<rect x="29.1" y="51.1" class="st13" width="20.1" height="20.1"/>
	<linearGradient id="SVGID_11_" gradientUnits="userSpaceOnUse" x1="60.964" y1="70.8044" x2="60.964" y2="35.7837">
		<stop  offset="0" style="stop-color:#04A64D"/>
		<stop  offset="1.304281e-02" style="stop-color:#03A44D"/>
		<stop  offset="0.3271" style="stop-color:#008E42"/>
		<stop  offset="0.6074" style="stop-color:#007D39"/>
		<stop  offset="0.8413" style="stop-color:#007333"/>
		<stop  offset="1" style="stop-color:#006F31"/>
	</linearGradient>
	<rect x="50.9" y="51.1" class="st14" width="20.1" height="20.1"/>
	<linearGradient id="SVGID_12_" gradientUnits="userSpaceOnUse" x1="82.7222" y1="70.8044" x2="82.7222" y2="35.7837">
		<stop  offset="0" style="stop-color:#04A64D"/>
		<stop  offset="1.304281e-02" style="stop-color:#03A44D"/>
		<stop  offset="0.3271" style="stop-color:#008E42"/>
		<stop  offset="0.6074" style="stop-color:#007D39"/>
		<stop  offset="0.8413" style="stop-color:#007333"/>
		<stop  offset="1" style="stop-color:#006F31"/>
	</linearGradient>
	<rect x="72.7" y="51.1" class="st15" width="20.1" height="20.1"/>
	<linearGradient id="SVGID_13_" gradientUnits="userSpaceOnUse" x1="17.4475" y1="92.7193" x2="17.4475" y2="60.5282">
		<stop  offset="0" style="stop-color:#04A64D"/>
		<stop  offset="1.304281e-02" style="stop-color:#03A44D"/>
		<stop  offset="0.3271" style="stop-color:#008E42"/>
		<stop  offset="0.6074" style="stop-color:#007D39"/>
		<stop  offset="0.8413" style="stop-color:#007333"/>
		<stop  offset="1" style="stop-color:#006F31"/>
	</linearGradient>
	<rect x="7.4" y="73" class="st16" width="20.1" height="20.1"/>
	<linearGradient id="SVGID_14_" gradientUnits="userSpaceOnUse" x1="39.2057" y1="91.8427" x2="39.2057" y2="59.2196">
		<stop  offset="0" style="stop-color:#FFF33B"/>
		<stop  offset="5.948725e-02" style="stop-color:#FFE029"/>
		<stop  offset="0.1303" style="stop-color:#FFD218"/>
		<stop  offset="0.2032" style="stop-color:#FEC90F"/>
		<stop  offset="0.2809" style="stop-color:#FDC70C"/>
		<stop  offset="0.6685" style="stop-color:#F3903F"/>
		<stop  offset="0.8876" style="stop-color:#ED683C"/>
		<stop  offset="1" style="stop-color:#E93E3A"/>
	</linearGradient>
	<rect x="29.1" y="73" class="st17" width="20.1" height="20.1"/>
	<g>
		<linearGradient id="SVGID_15_" gradientUnits="userSpaceOnUse" x1="60.964" y1="92.9385" x2="60.964" y2="58.7505">
			<stop  offset="0" style="stop-color:#EB2127"/>
			<stop  offset="0.1593" style="stop-color:#DB2527"/>
			<stop  offset="0.5086" style="stop-color:#C22B28"/>
			<stop  offset="0.8013" style="stop-color:#B32C28"/>
			<stop  offset="1" style="stop-color:#AD2C27"/>
		</linearGradient>
		<rect x="50.9" y="73" class="st18" width="20.1" height="20.1"/>
	</g>
	<linearGradient id="SVGID_16_" gradientUnits="userSpaceOnUse" x1="82.7222" y1="92.7193" x2="82.7222" y2="60.5282">
		<stop  offset="0" style="stop-color:#04A64D"/>
		<stop  offset="1.304281e-02" style="stop-color:#03A44D"/>
		<stop  offset="0.3271" style="stop-color:#008E42"/>
		<stop  offset="0.6074" style="stop-color:#007D39"/>
		<stop  offset="0.8413" style="stop-color:#007333"/>
		<stop  offset="1" style="stop-color:#006F31"/>
	</linearGradient>
	<rect x="72.7" y="73" class="st19" width="20.1" height="20.1"/>
</g>
</svg>
