<?xml version="1.0" standalone="no"?>
<!DOCTYPE svg PUBLIC "-//W3C//DTD SVG 1.1//EN" "http://www.w3.org/Graphics/SVG/1.1/DTD/svg11.dtd" >
<svg xmlns="http://www.w3.org/2000/svg">
<metadata>
Created by FontForge 20120731 at Fri Jul 14 16:43:07 2017
 By admin
</metadata>
<defs>
<font id="iconfont" horiz-adv-x="1024" >
  <font-face 
    font-family="iconfont"
    font-weight="500"
    font-stretch="normal"
    units-per-em="1024"
    panose-1="2 0 6 3 0 0 0 0 0 0"
    ascent="896"
    descent="-128"
    x-height="792"
    bbox="0 -212.308 2748.07 896"
    underline-thickness="0"
    underline-position="0"
    unicode-range="U+0078-ED80"
  />
<missing-glyph 
 />
    <glyph glyph-name=".notdef" 
 />
    <glyph glyph-name=".notdef" 
 />
    <glyph glyph-name=".null" horiz-adv-x="0" 
 />
    <glyph glyph-name="nonmarkingreturn" horiz-adv-x="341" 
 />
    <glyph glyph-name="x" unicode="x" horiz-adv-x="1001" 
d="M281 543q-27 -1 -53 -1h-83q-18 0 -36.5 -6t-32.5 -18.5t-23 -32t-9 -45.5v-76h912v41q0 16 -0.5 30t-0.5 18q0 13 -5 29t-17 29.5t-31.5 22.5t-49.5 9h-133v-97h-438v97zM955 310v-52q0 -23 0.5 -52t0.5 -58t-10.5 -47.5t-26 -30t-33 -16t-31.5 -4.5q-14 -1 -29.5 -0.5
t-29.5 0.5h-32l-45 128h-439l-44 -128h-29h-34q-20 0 -45 1q-25 0 -41 9.5t-25.5 23t-13.5 29.5t-4 30v167h911zM163 247q-12 0 -21 -8.5t-9 -21.5t9 -21.5t21 -8.5q13 0 22 8.5t9 21.5t-9 21.5t-22 8.5zM316 123q-8 -26 -14 -48q-5 -19 -10.5 -37t-7.5 -25t-3 -15t1 -14.5
t9.5 -10.5t21.5 -4h37h67h81h80h64h36q23 0 34 12t2 38q-5 13 -9.5 30.5t-9.5 34.5q-5 19 -11 39h-368zM336 498v228q0 11 2.5 23t10 21.5t20.5 15.5t34 6h188q31 0 51.5 -14.5t20.5 -52.5v-227h-327z" />
    <glyph glyph-name="macos" unicode="&#xe600;" 
d="M513 44q-199 0 -386 58l20 60q178 -54 366 -54q25 0 49 1q2 34 5.5 66t5.5 46l3 15h-192q0 223 125 447h-509v-766h566q-6 63 -6 128q-24 -1 -47 -1v0zM192 556h64v-128h-64v128zM1024 683h-427q-4 -6 -6 -10q-58 -97 -91 -196q-27 -83 -36 -165h205l-18 -91
q-8 -40 -13 -107q124 12 241 48l20 -60q-128 -40 -263 -52v-14q0 -61 7 -119h381v766v0zM832 428h-64v128h64v-128zM587 -212h78q-8 32 -14 67q-5 30 -8 62h-77q7 -67 21 -129zM688 812h-96q-46 -62 -83 -129h88q42 69 91 129z" />
    <glyph glyph-name="linux" unicode="&#xe726;" 
d="M379 577q-6 0 -9 -5.5t-5 -5.5q-3 -1 -3 3q0 6 11 8h6zM429 569q-3 0 -7 4t-10 2q14 7 18 -1q2 -3 -1 -5zM228 325q-2 1 -3.5 -1.5t-2.5 -7t-3 -7.5t-6 -8t0 -7q2 0 7 4.5t7 10.5q0 1 1 3.5t1.5 3.5t0.5 2.5v2.5v2v1l-2 1v0zM717 120q0 10 -32 24q2 9 4 16t3 14.5t2 12.5
t0.5 13t-0.5 11t-2 12.5t-2.5 11.5t-3 14.5t-3.5 15.5q-5 27 -26.5 58.5t-41.5 42.5q14 -11 33 -47q50 -93 31 -159q-6 -23 -29 -24q-17 -2 -21.5 11t-5 47.5t-6.5 61.5q-5 22 -11 39t-11 26t-9 14t-7.5 8.5t-4.5 3.5q-8 36 -17.5 59.5t-16.5 32t-13.5 18.5t-8.5 23
q-3 12 3 30.5t3 28.5t-26 14q-8 2 -25 10.5t-20 9.5q-5 0 -6.5 14.5t4.5 29t20 15.5q22 2 30 -17t2 -33q-6 -11 -1 -15.5t17 -0.5q7 3 7 21v21q-3 17 -7.5 28.5t-12 17.5t-13.5 8.5t-15 4.5q-61 -5 -51 -77q0 -8 -1 -8q-5 5 -16.5 6t-19 -0.5t-8.5 2.5q0 33 -9.5 52
t-25.5 19q-16 1 -24 -15.5t-9 -34.5q-1 -8 1.5 -20.5t7.5 -21.5t9 -8q6 2 9 8q2 5 -4 5q-4 0 -9 8t-5 19q-1 13 5 21.5t20 7.5q9 0 15 -12t5.5 -22t-0.5 -13q-13 -8 -18 -16q-5 -7 -16 -13.5t-12 -7.5q-7 -8 -8.5 -15.5t4.5 -9.5q8 -5 14 -11.5t9 -11t11 -7.5t20 -4
q27 -1 58 9q2 1 14 4t19.5 6t16.5 7.5t12 9.5q5 8 12 5q2 -2 3 -5t-1.5 -6.5t-9.5 -5.5q-11 -4 -32 -12.5t-26 -11.5q-25 -11 -40 -13q-14 -3 -45 1q-6 1 -5.5 -1t9.5 -11q15 -13 39 -12q9 0 20 3.5t20.5 8t19 10t17.5 10t14 7t10 1.5t5 -7q0 -1 -0.5 -2.5t-2.5 -2.5
t-3.5 -2.5t-5 -3t-5.5 -2.5t-5.5 -3t-5.5 -2q-16 -8 -38.5 -25.5t-38 -24.5t-27.5 -1q-12 7 -36 42q-13 18 -15 13v-6q0 -14 -8.5 -32t-17 -32t-12 -33.5t6.5 -35.5q-13 -4 -35.5 -52t-27.5 -80q-1 -10 -0.5 -39.5t-3.5 -33.5q-4 -14 -16 -2q-19 18 -21 54q-1 16 2 32
q3 11 0 10l-2 -3q-21 -37 5 -95q3 -7 14.5 -16t13.5 -11q12 -13 60 -51.5t53 -44.5q9 -8 10 -21t-8 -24.5t-26 -13.5q4 -9 16 -25.5t16 -30.5t4 -41q27 14 4 53q-2 5 -5.5 9.5t-5.5 6.5t-1 3q1 3 7 5.5t12 -1.5q26 -29 94 -20q76 8 102 50q13 21 19 17q7 -4 6 -30
q-1 -14 -13 -53q-6 -13 -4 -21t14 -9q2 11 8.5 44t7.5 52q1 12 -4 42t-4 55t13 40q9 11 29 11q1 21 20 30t41.5 6t34.5 -13v0zM358 593q1 9 -2 16.5t-6 8.5q-5 1 -5 -4q1 -3 2 -3q6 0 4 -9q-1 -11 5 -11q2 0 2 2v0zM597 480q-1 5 -3.5 7t-7.5 2.5t-8 3.5q-3 1 -5.5 4t-4 4.5
t-3.5 4t-2.5 2.5t-1.5 -1q-8 -9 4 -25t22 -18q5 0 8 5t2 11v0zM495 602q0 6 -2.5 11t-6 7t-5.5 2q-8 -1 -4 -4l2 -1q8 -3 11 -18q0 -2 4 1zM526 735q0 1 -1.5 2.5t-5 4t-5.5 3.5q-8 9 -13 9q-6 -1 -7 -4.5t-0.5 -7.5t-0.5 -7q0 -2 -3 -6t-3.5 -5.5t1.5 -4.5q2 -2 4.5 0
t6.5 5t8 5q1 1 5.5 1t8.5 1t5 4v0zM849 -31q12 -7 18 -14.5t6.5 -14t-1.5 -12.5t-8.5 -12.5t-13.5 -11.5t-17.5 -10.5t-18 -9t-18 -9t-15.5 -7.5q-22 -11 -49 -32t-43 -37q-10 -9 -39 -11t-51 9q-10 5 -16.5 13t-9.5 14.5t-12.5 11.5t-26.5 5q-25 1 -75 1q-10 0 -32 -1
t-33 -2q-25 0 -45.5 -8t-31 -17t-25 -16.5t-30.5 -6.5t-63 18t-84 24q-10 3 -28.5 6t-29 5t-22.5 5.5t-19 8t-10 11.5q-5 13 4.5 37.5t10.5 31.5q0 9 -3 22.5t-5.5 24t-2.5 21t6 15.5q8 7 32.5 8t34.5 7q17 10 24 20t7 29q12 -42 -19 -60q-18 -12 -47 -9q-19 2 -25 -6
q-7 -8 3 -32q1 -4 4.5 -10.5t5 -10t2.5 -10t1 -12.5q0 -9 -10 -28.5t-8 -27.5q2 -9 21 -14q12 -4 48.5 -11t56.5 -12q14 -3 42.5 -12t47 -13t32.5 -3q24 4 36.5 16.5t13 27.5t-4.5 33.5t-10.5 29.5t-11.5 21q-69 108 -97 138q-38 42 -64 23q-7 -5 -9 8q-1 10 -1 22
q1 17 6 30t13.5 26.5t12.5 24.5q5 12 15.5 41t16.5 44.5t17 35t23 30.5q62 82 70 112q-7 64 -9 177q-1 51 14 86t60 60q23 12 60 12q30 1 60.5 -7.5t50.5 -23.5q33 -24 52.5 -69.5t16.5 -84.5q-2 -54 18 -122q19 -65 76 -125q31 -34 56.5 -93.5t33.5 -108.5q5 -28 3.5 -48.5
t-7 -32t-11.5 -12.5t-13.5 -10.5t-15.5 -20.5t-23 -19.5t-35 -7.5q-10 0 -18 2.5t-13 8t-7.5 9t-6.5 11.5t-5 11q-13 21 -23.5 17t-16 -28t3.5 -55q12 -40 1 -112q-6 -37 10 -57t42 -18.5t49 19.5q33 28 50.5 38t59.5 25q30 10 43.5 20.5t10.5 19.5t-14 16.5t-29 13.5
q-19 6 -28.5 27.5t-8.5 41.5t9 27q0 -18 4 -32.5t8.5 -23t12 -16t12 -11t12 -7.5t9.5 -5v0z" />
    <glyph glyph-name="postgresql" unicode="&#xe64c;" 
d="M702 747q-6 -1 -22 -3.5t-25 -4.5q1 0 2 -1q9 -6 28.5 -16.5t27.5 -16.5q41 -29 74 -75t43 -95q2 -9 2 -19.5t-1.5 -23.5t-3 -21t-4 -23t-3.5 -17q-4 -21 4 -61.5t4 -63.5q-1 -7 -7 -24.5t-9 -30.5t0 -15v2q6 6 11 14.5t10 20t9 17.5q57 97 88 236q18 81 1 122
q-7 18 -36 41q-39 31 -83 44.5t-110 13.5zM526 737l-25 -2q-27 -7 -47 -13q-51 -22 -81.5 -79.5t-33.5 -130.5q33 16 52 21q20 6 35.5 6t27 -3t20.5 -11.5t14 -17t10 -24t7 -26.5t6 -30q9 -53 -2 -93q-5 -23 -22 -62q-14 -38 -22 -61h1q10 2 25 -3q7 -3 12 -6t8.5 -8t6 -8.5
t4 -11t2.5 -11.5t1.5 -14t0.5 -14v-16.5v-16.5q0 -11 -0.5 -36.5t-0.5 -39.5t1 -37.5t3 -37.5t6.5 -32t11.5 -29t17.5 -20t23.5 -13q24 -7 66 6q27 9 44 26t24.5 44t11 51.5t7 61.5t7.5 60q1 7 2.5 39t8.5 43q3 6 8 10t13 8t12 7q-30 47 -42 66.5t-32.5 60.5t-31.5 77
q-19 67 11.5 98t101.5 26q-34 88 -101.5 142t-171.5 54zM248 735q-8 -1 -24 -2.5t-23 -2.5q-73 -18 -98 -76q-15 -34 -17.5 -82.5t4.5 -96t21 -99t27 -89.5t27 -71q8 -18 13.5 -29t16 -29.5t22 -29.5t23.5 -14q8 -2 16 1.5t10 5.5l9 9q56 63 80 91l-4 4q-16 20 -25 32.5
t-16.5 38t-2.5 53.5q0 7 2 26t3 29q0 20 -1 52.5t-1 47.5q12 80 26.5 118.5t52.5 87.5v1q-14 3 -41 9.5t-51 10.5t-49 4zM845 173q-8 2 -20.5 7.5t-19.5 6.5q-1 0 -5 -2.5t-5 -3l-4 -2t-3.5 -2.5t-2.5 -3t-2.5 -3.5l-1.5 -4.5t-1 -5.5t-0.5 -6t-0.5 -8.5q37 -14 87 -1t67 35
q-6 -1 -27.5 -4.5t-30 -4t-30.5 1.5zM471 184q-6 -7 -21.5 -23t-23.5 -25q-8 -5 -19.5 -9t-31 -8t-23.5 -5q0 -1 0.5 -1.5l0.5 -0.5q77 -27 128 16q10 8 14 20.5t-1.5 23.5t-22.5 12zM792 427q2 14 5.5 43t4.5 43q-19 0 -35.5 0.5t-31 -4.5t-21.5 -15q-7 -15 -6.5 -34
t5.5 -36q16 -50 60 -125q9 -19 15 -31l1 0.5l1 0.5q1 4 5.5 24t4.5 26v29q-4 43 -8 79zM749 463q-16 4 -24 14q0 4 4 10q1 0 5 2t8.5 3.5t11.5 1.5q13 -2 19 -11q-2 -4 -5 -7l-4.5 -4.5t-6.5 -4t-8 -4.5zM458 502q-11 8 -41 8q-4 -1 -13 -3.5t-15.5 -4.5t-12.5 -3
q-7 -4 -20 -11t-18 -10q0 -9 0.5 -26t1 -28.5t0.5 -26.5q-9 -63 -5 -84q7 -41 34 -68t69 -28q2 5 16 51q3 6 9.5 20.5t11 26t6.5 22.5q10 33 2.5 92.5t-25.5 72.5zM457 466q-7 -18 -28.5 -12.5t-22.5 24.5q1 0 1 1v1l10 5q25 1 41 -10q0 -1 -0.5 -4.5t-0.5 -4.5z" />
    <glyph glyph-name="clound" unicode="&#xe60a;" 
d="M692 395.5q-16 9.5 -34.5 4.5t-27.5 -21l-103 -138l-64 50q-17 9 -35 4t-27.5 -21.5t-4.5 -34.5t21 -28l95 -72q17 -10 35 -5t28 22l0.5 1l0.5 1q8 6 13 15l120 160q9 16 4 34.5t-21 28zM1006 200q0 -120 -85 -205t-205 -85q-81 0 -132.5 12.5t-88.5 54.5
q-32 -42 -80.5 -54.5t-125.5 -12.5q-107 0 -183 76t-76 183t76 183t183 76q5 0 19 -1v1v0q0 101 78.5 172.5t189.5 71.5q102 0 177.5 -60.5t88.5 -151.5q74 -35 119 -105.5t45 -154.5v0zM757 394q5 17 5 34q0 62 -57.5 107.5t-128.5 45.5t-128.5 -48t-57.5 -110
q0 -2 -0.5 -11.5t-1 -17.5t1 -21t5.5 -25q-36 5 -69.5 1t-57.5 -11l-24 -8q-54 -15 -88.5 -59.5t-34.5 -101.5q0 -69 49.5 -118.5t118.5 -49.5q29 0 53 3t37.5 5.5t38 16t32 18t41.5 26.5q4 -2 29.5 -16.5t31.5 -17.5t29 -13t38.5 -12.5t41.5 -6t55 -3.5q83 0 141 58t58 141
q0 71 -45 125.5t-113 68.5v0z" />
    <glyph glyph-name="rabbitmq" unicode="&#xe6ea;" 
d="M822 372h-225q-9 0 -14.5 6t-5.5 14v234q0 13 -9.5 22t-22.5 9h-80q-13 0 -22 -9t-9 -22v-232q0 -10 -6.5 -16t-15.5 -6l-74 -1q-9 0 -15.5 6.5t-6.5 15.5l1 233q0 13 -9 22t-22 9h-81q-13 0 -22 -9t-9 -22v-656q0 -11 8.5 -19t19.5 -8h620q12 0 20 8t8 19v374
q0 12 -8.5 20t-19.5 8v0zM716 125q0 -15 -10.5 -25.5t-25.5 -10.5h-64q-15 0 -25.5 10.5t-10.5 25.5v64q0 15 10.5 25.5t25.5 10.5h64q15 0 25.5 -10.5t10.5 -25.5v-64v0z" />
    <glyph glyph-name="zookeeper" unicode="&#xe6f0;" 
d="M246 205q13 -2 35 -4.5t82.5 -12t113.5 -20.5t112.5 -28t93.5 -35q97 -52 149 -51q37 1 3 36q-12 11 -32 26q-44 34 -109.5 63t-142 48t-158.5 15t-147 -37zM731 506q-68 28 -152 37.5t-146 4t-111 -17.5q-35 -9 -76.5 -26t-85 -40.5t-73.5 -55t-33 -64.5q-6 -69 72 -113
l-1 3.5t-1 4.5l-6 17l15 10q59 38 135 62q92 29 191 29h4l14 12l-72 6l3 20l125 -15l-30 -25q22 -1 47 -4q12 10 30 16q22 8 46.5 -2t36.5 -33q3 -5 4 -9q16 -5 32 -12q14 15 33 15q24 0 43 -21q21 -23 23 -52q1 0 3.5 -2t4.5 -3q20 -17 37.5 -34.5t23 -25.5t7.5 -11l5 -9
l-3 -10q-1 -4 -3 -8q71 41 86 100q16 64 -50.5 137.5t-177.5 118.5zM795 226q-9 -26 -37 -27q-21 0 -38.5 14.5t-27 34t-4.5 42.5q-9 4 -16 6q-1 -38 -35 -47q-25 -6 -50 2.5t-40 27.5q-19 23 -11 50q-29 3 -59 4l-44 -37l79 -9l-4 -20l-133 13l61 53q-166 -6 -290 -87
q2 -7 5.5 -18t8.5 -32t4 -27q6 4 36 14l-5 22l41 21q79 40 183 40q109 0 219 -39.5t179 -91.5q4 -2 9 -7q24 24 28 37l-0.5 1t-2 2.5t-3.5 4.5t-5 6.5t-6.5 7.5t-8 8.5l-9.5 9.5t-11 10.5t-13 10.5zM643 289q-6 -13 -19.5 -18t-33.5 2q-17 8 -23 23t-1 26q6 18 24 24
q6 3 21 0t22 -11q20 -23 10 -46zM766 228q-11 -8 -25 -3.5t-22 17.5q-13 21 -5 44q2 2 4 5.5t9.5 8t15.5 2.5q13 -2 21 -12.5t11 -20.5q6 -27 -9 -41z" />
    <glyph glyph-name="windows" unicode="&#xe640;" 
d="M0 413h421v412l-421 -49v-363zM481 832v-419h543v483zM0 -10l421 -48v411h-421v-363zM481 -65l543 -63v481h-543v-418z" />
    <glyph glyph-name="nginx" unicode="&#xe729;" horiz-adv-x="1025" 
d="M69 465l103 -121v122q0 12 6.5 18t17.5 6q12 0 18.5 -6t6.5 -18v-162q0 -27 -29 -27q-7 0 -13 2t-11 5.5t-9 8t-9 9.5l-100 119v-120q0 -12 -7 -18t-18 -6t-18 6.5t-7 17.5v158q0 11 3 16q3 7 11 11t17 4q8 0 13 -2t9 -5t8 -8zM642 465l103 -121v122q0 12 6.5 18t18.5 6
q11 0 17.5 -6t6.5 -18v-162q0 -27 -28 -27q-8 0 -13.5 2t-10.5 5.5t-9.5 8t-8.5 9.5l-100 119v-120q0 -12 -7.5 -18t-18.5 -6t-18 6.5t-7 17.5v158q0 11 3 16q4 7 12 11t17 4q7 0 12 -2t9 -5t8 -8zM828 321l60 67l-50 59q-7 9 -10.5 15.5t-3.5 12t6.5 10.5t16.5 5
q11 0 17.5 -5.5t17.5 -19.5l39 -49l43 49q5 7 8 11q4 5 7.5 8t7.5 4.5t10 1.5q10 0 16.5 -5t6.5 -11q0 -10 -14 -26l-52 -60l56 -67q8 -9 11 -15t3 -11t-3 -9t-8.5 -6.5t-12.5 -2.5t-12.5 2.5t-8.5 6.5t-12 14l-47 57l-49 -59q-6 -7 -8.5 -9.5l-5.5 -5.5t-8 -4.5t-11 -1.5
q-10 0 -16.5 5t-6.5 13q0 11 13 26zM550 422v42q0 13 -7.5 19.5t-19.5 6.5t-19.5 -6.5t-7.5 -19.5v-42h54zM496 389v-86q0 -13 7.5 -19.5t19.5 -6.5t19.5 6.5t7.5 19.5v86h-54zM340 405q-8 -1 -13 -6.5t-5 -13.5t6 -14t15 -6h74l-25 -45h-77l-31 67l34 63h75l10 -21h45
l-30 62h-125l-55 -103l51 -109h127l70 126h-146z" />
    <glyph glyph-name="hadoop29" unicode="&#xe70a;" 
d="M518 704v0v0q5 0 6 -1t1 -5q0 -7 -7 -7q-28 -14 -42 -27.5t-28 -42.5l-6 -7q-5 0 -6 1t-1 6v0q0 19 13 32v0q-5 0 -5.5 0.5t-0.5 5.5v0q0 19 12 32q3 3 6.5 4.5t9 4t10.5 4.5v0q6 0 6 -6q3 0 14 3t18 3v0v0zM653 698v0q46 0 102 -45q12 -9 33 -27t31 -24q26 -13 32 -26
q16 -16 26 -45q6 0 19 13q2 2 10 13.5t16 18.5h32h12q13 -6 26 -19q32 -64 32 -179q-11 -103 -83 -148q-43 -25 -122 -12q0 -4 -3 -10t-3 -10q-5 -23 -25.5 -37t-45.5 -14t-32 7q-12 6 -25 19q-10 9 -19 19v0q12 -26 12 -38q13 -26 13 -45v-45q7 -13 7 -32t-13 -32h-39h-51
h-19q-6 0 -13 6q-13 -12 -25 -19q-7 -6 -13 -6l-7 -7q-6 -6 -6 -12q-1 -2 -4.5 -6t-6 -5.5t-8.5 -1.5q-15 -10 -31.5 -10t-26.5 10q-13 6 -38 45q0 2 -3.5 7.5t-8.5 14t-7 16.5q0 2 -1.5 7.5t-1.5 10.5t3 8q0 6 12 19h7h-51v0v-19q0 -4 -3.5 -10t-3.5 -10q-3 -2 -4.5 -5.5
t-3.5 -9t-5 -10.5v-39q0 -8 -6.5 -13.5t-12.5 -5.5q-10 -10 -32 0q-14 0 -30 4t-21 9q-2 1 -19.5 6.5t-25.5 12.5q-13 13 -13 19v26q0 3 2 6t3 5l2 2q-26 0 -39 6q-25 13 -38 26q-12 6 -20 15.5t-11 16t-7 19.5v19q0 3 1.5 4.5t5 4t5.5 4.5l32 32q4 6 7 16t6 16q0 13 -6 26
v76q-7 -6 -19 -6q-17 9 -26 26q0 2 -3 10t-3 15v0q-13 7 -13 32q0 23 19 32q3 6 7.5 10.5t10.5 9t8 6.5q4 2 10 5.5t9 5.5t6 2v0q5 0 6 -1t1 -6v0q0 -3 -3.5 -9.5t-3.5 -9.5q13 -6 13 -19v-26l-6 -6h-7q0 3 -1.5 4.5t-3.5 1.5h-1v-13q0 -6 -13 -19v0h6q13 7 39 32
q20 41 51 64q38 33 80 50t106 27q2 6 7 10.5t12.5 10.5t12.5 11q19 19 44 19q18 22 26 31.5t25.5 23t38.5 22.5q51 26 109 26v0zM653 666v0q-49 0 -109 -26q-32 -16 -51 -45h51v0q5 0 5.5 -0.5t0.5 -5.5q0 -7 -6 -7q-13 0 -35.5 -3t-34.5 -3q-20 0 -26 -6q-6 0 -19 -13
q-20 -20 -50.5 -57t-45.5 -52q-7 -7 -13 -15.5t-8.5 -13.5t-8.5 -17.5t-9 -17.5q-6 -6 -6 -19q0 -7 13 -19q4 -12 14 -27t11 -18q7 10 25 31t27 33h6v0v0q-19 -32 -45 -83q-2 -8 -5.5 -15.5t-5.5 -12.5t-2 -11q13 -19 38.5 -32t45.5 7q1 0 11.5 6.5t13.5 8.5t12.5 7t14 7
l13.5 6t15 5.5t13.5 2.5t14.5 1q18 44 7 122q-10 47 0 102l6 7q5 0 6 -1t1 -6v0q0 -25 12 -102q20 -78 -6 -147l-6 -7q-21 0 -39 -6t-44.5 -19.5t-38.5 -18.5q-26 -17 -58 -7q-18 5 -30 14.5t-27 30.5v6v0q0 7 1 13t2.5 8.5t4.5 8.5t5 9q-29 38 -39 57q-19 20 -19 39t13 38
q3 5 15 29t23 35q26 26 32 39q-69 -9 -128 -58q-41 -33 -64 -102q-9 -18 -11 -37t-2 -59q5 -39 22.5 -83t41.5 -77v-7v0q-2 -8 -4.5 -24t-5.5 -27t-9 -19v-7l7 -6q3 -4 14.5 -7t17.5 -6q2 0 16.5 -3t21.5 -3h19q5 0 6 0.5t1 5.5v32v0q12 19 19 32q13 5 16 10t3 16v64v0
q0 5 1 5.5t5 0.5q7 0 7 -6q0 -3 3 -14t3 -18q51 -10 103 0v6q0 13 12 26l7 6q5 0 5.5 -0.5t0.5 -5.5v0v-26v-25v-13v0q0 -5 -0.5 -6t-5.5 -1q-7 0 -7 7l-6 6q-26 -13 -38 -25l-7 -7v-13q3 -4 6.5 -10t5 -9t1.5 -6q6 -13 26 -32q15 -15 32 -7q12 13 19 26v0q6 6 13 6
q12 13 19 13q13 13 19 13q6 6 13 6l6 7l7 6q6 13 19 26t13 25q6 7 6 20q15 38 26 89q-39 26 -52 39v6q0 5 1 5.5t6 0.5h6q29 -21 71 -32v0v0l1 -1l1 -1l1 -1l1 -1l1 -1l1 -1l1 -1l1 -1l1 -1l1 -1l1 -1l1 -1l1 -1l2 -2l1 -1l1 -1l1 -1l1 -1l1 -1l1 -1l1 -1l2 -2l1 -1l19 -19
h-6q-6 6 -6 19q0 6 3 19t3 19q3 6 3 12.5t-1.5 14t-1.5 12.5v0v0v0l-6 -7q0 -3 -2 -6t-5.5 -9t-5.5 -10l-7 -7q-4 0 -5 1t-1 6v0q0 12 6 19q0 13 6.5 19t19.5 6t19 7v0q5 0 6 -1t1 -6v-6q-4 0 -10 -3t-10 -3v0q4 -2 9 -5l7.5 -4.5t7 -2.5t8.5 -1q39 -13 60 -18.5t53.5 -4.5
t59.5 16q28 19 47 53t24 69q8 58 -20 154q0 6 -6 6q-11 -43 -51 -51h-19q-7 0 -13 6v-6q10 -32 0 -64q-2 -7 -4.5 -18.5t-6 -21t-8.5 -18.5h-7q-5 0 -5.5 1t-0.5 6v0q0 1 3 20.5t3 30.5v25q-6 0 -6 -6q-3 0 -4.5 -1.5t-1.5 -3.5l-1 -1q-1 -6 -4 -17t-6 -18.5t-9 -16.5l-6 -6
q-5 0 -6 1t-1 5v0q7 7 7 26t6 32v0q-3 0 -4.5 -1.5t-3.5 -5t-4.5 -6t-7.5 -14t-12 -18.5h-6q-5 0 -6 1t-1 6v6q4 6 7 19t6 19q9 18 32 26h13h-26v0q-4 0 -5 1t-1 5q0 7 6 7h7q0 2 -1.5 4t-1.5 4t3 5v0v0h-13l-6 6q0 6 6 6q3 0 12.5 3.5t13.5 3.5v0v0v0v0q3 0 9.5 3t9.5 3h6
q-3 3 -4.5 6.5t-3.5 9t-5 10.5q-2 2 -10 7t-15 12q-7 0 -7 6h-25v0q-5 0 -6 1t-1 6q0 6 7 6h6q-6 7 -19 16.5t-19 15.5q-48 39 -96 39v0zM672 563v0q5 0 5.5 -0.5t0.5 -5.5q0 -7 -6 -7q-22 -8 -30.5 -21t-14.5 -36l-6 -7q-7 0 -7 7q0 32 7 45q7 14 51 25v0v0zM531 563v0
q5 0 6 -0.5t1 -5.5q0 -7 -7 -7q-25 -12 -45 -19q-1 -2 -4 -6.5l-4 -6t-3 -5t-3 -5.5t-2 -5.5t-1.5 -6.5t-1 -7t-0.5 -9l-6 -6q-7 0 -7 6q-6 13 -6 32q-3 -6 -6.5 -16t-6.5 -16q-2 -8 -10.5 -23t-8.5 -22l-6 -6q-5 0 -6 0.5t-1 5.5v0q0 13 13 51q9 35 26 52q12 12 19 12h19
q7 4 25 7t26 6v0v0zM954 550v0q-7 -6 -16.5 -19t-15.5 -19q-3 -3 -6.5 -4.5t-4.5 -1.5h-2h6q3 0 4.5 1.5t1.5 2.5l1 2q2 2 11 10t13.5 14t7.5 14v0zM730 506v0v0q4 0 5 -1t1 -6v-6q-6 -7 -13 -7v0l2 -1l1 -1l1 -1l1 -1l1 -1v-1l1 -1h1l1 -1l1 -1v-1l1 -1l2 -1v0v-7
q3 0 12.5 3.5t13.5 3.5v0q4 0 5 -1t1 -6q0 -6 -6 -6q-40 -8 -84 -51h-6q-5 0 -5.5 0.5t-0.5 5.5v0q0 3 1.5 6l2.5 5l2 2v0l-1 1l-2 1l-1 1l-1 1l-1 1v1l-1 1l-1 1h-1v1l-1 1l-1 1l-2 2v0v6q-3 -3 -9.5 -6.5t-9.5 -6.5v0q-5 0 -5.5 1t-0.5 6v6q9 10 19 19q2 2 6 7.5t7 8.5
t6 3q6 7 26 7q8 2 15 5.5t10.5 5.5t6.5 2v0v0v0zM64 480q5 0 5.5 -1t0.5 -5v-7q-25 -25 -34.5 -44.5t-9.5 -51.5l-7 -6q-6 0 -6 6v32v0q-7 0 -13 7v0v32l6.5 6.5t8 6t11.5 6.5h6q6 0 6 -7q0 6 4.5 11.5t8.5 8t13 6.5v0v0zM851 474h7v0h-7zM90 429v0q-13 -13 -13 -19
q-7 0 -7 -13t7 -19v0q13 12 13 25v26v0zM122 352q-10 0 0 0q-8 0 -16 -3t-10 -3q-6 0 -13 6v0v0q0 -6 13 -6t26 6q-10 0 0 0v0v0zM781 198q0 -6 -13 -6v0q5 -4 9 -1.5t4 7.5zM128 179v0v0q-5 -4 -11 -11.5t-10.5 -12.5t-10.5 -8l-6 -6v-7q0 -5 3 -11.5t8.5 -14.5t7.5 -12
q6 -6 32 -19q3 0 9.5 -3.5t9.5 -3.5q6 0 13 7q0 6 6 13q-28 21 -51 89v0zM653 147q-3 -6 -6.5 -19t-6.5 -19q-1 -3 -4.5 -10.5t-6 -12.5t-6.5 -11.5t-9 -10.5q-6 -13 -25 -32h13h25h26h13q6 6 6 13v5.5t-0.5 3t-1 2t-2 3t-2.5 5.5v0v45q-3 5 -5 10t-4 13t-4 15v0v0z" />
    <glyph glyph-name="ubuntu" unicode="&#xe606;" 
d="M603 642q-52 0 -100 -21l-84 146q87 43 184 43q39 0 77 -7q-1 -7 -1 -14q0 -61 44 -105t105 -44q48 0 87 28q90 -103 101 -238l-169 -5q-11 92 -80.5 154.5t-163.5 62.5v0zM828 682q-44 0 -75 31.5t-31 75.5t31 75.5t75 31.5t75.5 -31.5t31.5 -75.5t-31.5 -75.5
t-75.5 -31.5v0zM357 396q0 -57 25 -107t68 -85l-83 -147q-112 78 -156 207q30 21 47.5 53.5t17.5 69.5q0 39 -19 72.5t-51 53.5q40 137 157 220l89 -143q-44 -35 -69.5 -85.5t-25.5 -108.5v0zM127 281q-44 0 -75.5 31t-31.5 75t31.5 75.5t75.5 31.5t75.5 -31.5t31.5 -75.5
t-31.5 -75t-75.5 -31v0zM603 151q94 0 164 63t80 156l169 -3q-11 -147 -113 -255q-33 17 -69 17q-58 0 -101 -40t-47 -98q-41 -8 -83 -8q-95 0 -181 42l84 146q46 -20 97 -20v0zM834 86q44 0 75.5 -31t31.5 -75t-31.5 -75.5t-75.5 -31.5t-75.5 31.5t-31.5 75.5t31.5 75
t75.5 31v0z" />
    <glyph glyph-name="centos" unicode="&#xe69a;" 
d="M192 709h149l-65 -65l196 -196v-16h-16l-196 196l-68 -68v149v0zM192 709zM686 709h145v-144l-66 66l-199 -199h-16v16l199 198zM686 709zM550 354h16l197 -196l68 68v-149h-149l65 65l-197 197v15zM550 354zM456 354h16v-15l-199 -199l63 -63h-144v145l66 -66zM456 354z
M192 521l68 68l157 -157h-225v89zM192 521zM417 354l-159 -159l-66 66v93h225zM417 354zM62 391l102 102v-89h281l11 -11l-11 -11h-281v-93zM62 391zM606 432l159 159l66 -66v-93h-225zM606 432zM831 266l-68 -69l-157 157h225v-88zM831 266zM566 393l12 11h281v93l102 -102
l-102 -102v89h-281zM566 393zM550 299l157 -157l-65 -65h-92v222zM550 299zM500 327l11 11l11 -11v-278h92l-105 -105l-105 105h96v278zM500 327zM313 140l159 159v-222h-96zM313 140zM550 486l157 157l-65 65h-92v-222zM550 486zM500 459l11 -12l11 12v277h92l-105 105
l-105 -105h96v-277zM500 459zM313 645l159 -159v222h-96zM313 645z" />
    <glyph glyph-name="cloud1" unicode="&#xe61a;" 
d="M789 458q-22 97 -99.5 162t-177.5 65q-78 0 -143.5 -41.5t-97.5 -106.5q-91 -11 -148 -74.5t-57 -153.5q0 -91 65.5 -155t160.5 -64h482q74 0 129 55t55 129q0 73 -49.5 126t-119.5 58zM512 179l-193 193h119v134h148v-134h119z" />
    <glyph glyph-name="zanwutu" unicode="&#xe609;" 
d="M257 686q-3 0 -10.5 2.5t-12 3t-13.5 -4.5q-1 -1 -2 -3t1.5 -5t12.5 -2q14 2 22 -18q2 -5 8 -4.5t7 8.5q0 19 19 31q1 4 -0.5 7t-5.5 3t-9 -4q-3 -2 -9 -7.5t-6.5 -6t-1.5 -0.5zM166 625q-1 0 -6 1.5t-7.5 2t-8.5 -2.5q0 -1 -1 -2t1 -3t7 -1q9 1 14 -11q1 -3 4.5 -3
t4.5 5q0 12 11 19q1 3 0 4.5t-3.5 1.5t-5.5 -2q-1 -1 -5 -4.5t-4 -4t-1 -0.5zM761 771q-9 -11 -2 -16l94 -77q3 -2 8 0t7 5v0q3 3 4 8.5t-2 7.5l-93 77q-7 6 -16 -5v0zM246 232q-34 64 -34 138q0 122 85.5 209t206.5 87t207 -87t86 -209q0 -71 -32 -134l-30 15q28 56 28 119
q0 108 -76 184.5t-183 76.5t-182.5 -76.5t-75.5 -184.5q0 -65 30 -122zM246 232q1 -7 6 -11.5t12 -4.5t12.5 5.5t5.5 12.5q0 8 -6 14zM735 251q-6 -5 -6 -13q0 -14 18 -14q15 0 18 12zM787 732l-1 -282q-10 32 -14 39q-7 16 -15 30l1 237zM786 444zM786 732zM786 732z
M600 360q-8 -8 -1 -15v0q7 -7 15 1l39 38q8 8 0 15v0q-7 8 -15 0zM614 399q-8 8 -15 0v0q-7 -7 0 -15l39 -38q8 -8 15 -1v0q8 7 0 15zM364 360q-7 -8 0 -15v0q7 -7 15 1l39 38q8 8 0 16v0q-7 7 -15 -1zM379 399q-8 8 -15 0v0q-7 -7 0 -15l39 -38q8 -8 15 -1v0q8 7 0 15z
M88 202q0 -1 -1 -3t-2.5 -7.5t0 -8t5.5 -4t14 3.5l4.5 4.5t9.5 6t13 -2.5q1 -1 3.5 -3t10.5 -6t15.5 -6.5t18.5 -2.5t20 4q2 1 4 2.5t8.5 4.5t12 4.5t12.5 0.5t12 -6q1 -1 2.5 -2t7 -3t11.5 -3t15 0.5t18 5.5l2.5 2.5t7.5 4.5t12 4t14.5 -1t16.5 -8q5 -2 13 -4.5t27.5 -2
t34.5 10.5q2 3 6 6t17.5 2.5t28.5 -12.5q4 -3 11 -5t25.5 -1t34.5 12q23 12 54 -9q27 -9 50 10q2 2 5.5 4.5t13.5 3t18 -7.5l5 -2.5t12 -5t18 -5t21.5 0t23.5 7.5q3 3 9 6.5t20.5 4t25.5 -12.5q3 -2 8.5 -4.5t23.5 -2t37 10.5q15 10 22 -3q2 0 4.5 0.5t7 3t6 5t-2.5 8
t-15 12.5q-24 5 -51 -11q-1 -2 -4.5 -3t-18.5 3t-34 17q-20 7 -56 -16q-2 -2 -7 -4t-23 2t-40 19q-19 5 -31 -5q-1 -1 -3 -2.5t-8.5 -5t-12 -5.5t-12.5 -1.5t-11 4.5q-4 3 -11 6.5t-29 3t-45 -13.5q-21 -11 -52 15q-3 1 -8.5 3t-22.5 -1t-35 -16q-2 -2 -6 -4t-18.5 0.5
t-32.5 14.5q-25 11 -59 -11q-11 -14 -36 6q-3 2 -8 4t-21 0t-33 -13q-2 -2 -5.5 -3.5t-16.5 2t-27 14.5q-1 1 -8.5 3.5t-21 0t-24.5 -13.5zM168 129q0 -2 -1 -4t-2 -7t0.5 -7.5t4.5 -4.5t12 3q1 3 3 5t8 6t11 -3q1 -1 3 -2.5t8.5 -5.5t13 -6.5t15 -2.5t16.5 4q1 1 3 2.5
t7.5 4.5t10 4.5t10.5 0.5t10 -6q1 -1 2.5 -2t6 -3t9 -3t12 0.5t15.5 5.5q0 1 1.5 2.5t6.5 4.5t10 4t12 -1t14 -8q4 -2 10.5 -4.5t23 -2t28.5 10.5q1 3 4.5 6t15 2.5t23.5 -13.5q4 -2 9.5 -4.5t21 -1t28.5 12.5q19 12 45 -9q23 -10 42 10q1 2 4 4.5t11 3t15 -7.5q2 -1 4.5 -3
t10 -5.5t15 -5t17.5 0.5t20 8q2 3 7 6.5t17 4t21 -12.5q3 -2 7.5 -4.5t19.5 -2t30 10.5q13 10 19 -3q1 0 3 0.5t6 2.5t5 5t-2 8.5t-12 12.5q-20 5 -42 -11q-1 -2 -4 -3t-15.5 2.5t-28.5 17.5q-16 6 -46 -17l-6 -3t-19 2t-34 19q-15 5 -25 -5q-1 -1 -3 -2.5t-7 -5t-9.5 -5.5
t-10.5 -1.5t-9 4.5q-4 3 -9.5 6t-24 3t-37.5 -13q-18 -11 -43 14q-3 2 -7 4t-18.5 -1t-29.5 -17q-1 -1 -4.5 -3t-15.5 0.5t-27 14.5q-21 11 -49 -12q-9 -13 -30 7q-2 2 -6.5 4t-17.5 0t-27 -13q-2 -2 -5 -3.5t-13.5 1.5t-22.5 15v0q-3 2 -8 3.5t-16.5 -0.5t-20.5 -13z" />
    <glyph glyph-name="Kafka" unicode="&#xe65a;" 
d="M807 286q-43 0 -77.5 -23t-50.5 -61l-239 117q12 32 12 65v14l244 119q42 -55 110 -55q57 0 97.5 41t40.5 98t-40.5 97.5t-97.5 40.5t-97.5 -40.5t-40.5 -97.5q0 -27 9 -51l-232 -115q-16 55 -60 92.5t-102 42.5v120q34 7 56 33.5t22 61.5q0 40 -28 68t-68 28t-68.5 -28
t-28.5 -68q0 -35 22 -61.5t56 -33.5v-120q-71 -7 -120 -60.5t-49 -126t49 -125.5t120 -60v-121q-34 -6 -56 -32.5t-22 -61.5q0 -40 28.5 -68.5t68.5 -28.5t68 28.5t28 68.5q0 35 -22 61.5t-56 32.5v121q44 4 81 27.5t60 60.5l245 -120q-1 -12 -1 -17q0 -58 41 -98.5
t98 -40.5t97.5 40.5t40.5 98.5q0 56 -40.5 96.5t-97.5 40.5z" />
    <glyph glyph-name="kafka" unicode="&#xe6a2;" horiz-adv-x="1025" 
d="M503 -128l-308 164v489l308 -164l327 164v-489zM371.5 34q-9.5 0 -16 -6t-6.5 -15t6.5 -15t16 -6t16 6t6.5 15t-6.5 15t-16 6zM423.5 6q-9.5 0 -16 -6t-6.5 -14.5t7 -14.5t16 -6t15.5 6t6.5 14.5t-6.5 14.5t-16 6zM476 -22q-9 0 -15.5 -6t-6.5 -14.5t6.5 -14.5t15.5 -6
t15.5 6t6.5 14.5t-6.5 14.5t-15.5 6zM195 605v73l308 -164l327 164v-73l-327 -164zM195 732l308 164l327 -162l-327 -166zM321 300h-24l-67 -67v67h-17v-134h17v46l22 22l48 -68h23l-58 80zM375 300l-52 -134h19l15 41h56l15 -41h20l-54 134h-19zM362 221l15 39q4 14 7 26
q3 -11 9 -28l14 -37h-45v0zM463 166h18v61h63v16h-63v41h73v16h-91v-134v0zM684 300h-24l-66 -67v67h-18v-134h18v46l21 22l48 -68h23l-58 80zM757 300h-19l-52 -134h19l15 41h56l15 -41h21zM725 221l15 39q4 14 7 26q3 -12 9 -28l14 -37h-45v0z" />
    <glyph glyph-name="spark" unicode="&#xe6a6;" 
d="M492 293.5q2 7.5 -1 16.5q-2 6 -10 20.5t-8 19.5t4 9q5 4 12 3t15 -10q7 -9 7.5 -16.5t-5.5 -14.5l9 -9q6 6 8 14t-1 17t-10 17q-6 7 -14.5 11t-16 3t-13.5 -6q-5 -5 -7 -11t0 -14q2 -6 8 -19q7 -12 9 -16q2 -6 1 -10.5t-4.5 -7.5t-8 -3.5t-10.5 2.5t-10 8q-6 7 -8.5 14
t-1 12.5t6.5 11.5l-9 8q-7 -7 -9.5 -16t0.5 -18.5t12 -19.5q7 -8 16 -12t17 -2.5t14 6.5t8 12.5zM557 230.5q12 -0.5 21 8.5q6 5 8.5 11t2.5 12q-1 6 -5 13q-3 5 -9 12l-25 28l-75 -66l9 -10l30 27l17 -19q14 -16 26 -16.5zM550 297l16 -19q6 -6 8 -10t1 -9.5t-6 -9.5
q-6 -6 -13.5 -5t-15.5 10l-17 20zM629 225l-100 -38l10 -10l29 12l28 -32l-15 -28l10 -12l48 97zM615 194l-14 -26l-22 25l29 11q10 4 18 9q-4 -7 -11 -19zM668 92q0 3 -1 9q11 -10 21 -10t17 7q7 5 9 12.5t-0.5 14.5t-11.5 17l-29 33l-75 -66l9 -9l33 29l10 -12q4 -3 5 -5
q1 -3 1.5 -6.5t-0.5 -9.5q-1 -7 -4 -16l-6 -24l11 -12l8 31q3 8 3 17zM649 136l25 22l20 -23q8 -9 8 -15.5t-6 -11.5q-3 -3 -8 -4t-10 2t-10 9zM781 54l-70 4l37 33l-9 10l-75 -66l9 -10l26 23l23 -2l-14 -60l11 -13l16 72l58 -5zM979 422l-1 -278q21 -11 33.5 -30.5
t12.5 -42.5q0 -34 -25.5 -58.5t-62 -24.5t-62 24.5t-25.5 58.5q0 28 19 51l-101 111l-26 -31l-30 16l34 40l-142 155l-325 -45l-25 -138l101 -102l-24 -21l-84 84l-18 -97q22 -20 22 -46.5t-20 -45.5t-48 -19t-48 19t-20 46q0 20 11.5 36t29.5 23l-67 204h-1
q-36 0 -61.5 24.5t-25.5 58.5t25.5 58.5t61.5 24.5q8 0 17 -2l157 221q-5 12 -5 24q0 27 19.5 46t47.5 19q23 0 41 -13t24 -33l298 -19q9 24 31 38.5t50 14.5q36 0 61.5 -24.5t25.5 -58.5q0 -26 -16 -48l91 -102q9 3 17 3q28 0 48 -19t20 -46q0 -38 -35 -56zM764 280
l132 155q-6 6 -11 17l-247 -34zM577 442l-103 112l-177 -75l-14 -78zM264 465l-96 -40q7 -16 7 -31q0 -2 -0.5 -4.5t-0.5 -3.5l78 11zM246 364l-83 -11q-7 -11 -15 -18l79 -79zM188 112q1 -1 12 -4l20 109l-100 100zM282 670l-147 -207q7 -4 15 -11l121 51l28 157
q-10 4 -17 10zM304 517l148 62l-85 92q-17 -13 -38 -14zM679 689l-289 18q-1 -2 -5 -12l95 -104l201 84q-2 8 -2 14zM814 620q-21 -13 -47 -13q-48 0 -74 38l-190 -79l109 -120l267 37q2 25 21 42zM925 417l-138 -162l104 -113q21 12 46 12q1 0 4.5 -0.5l3.5 -0.5l1 261
q-10 0 -21 3z" />
    <glyph glyph-name="image-icon_nginx" unicode="&#xe64f;" 
d="M0 896h1024v-1024h-1024v1024zM332 139q-5 0 -8.5 -3.5t-3.5 -8.5v-66l-74 74q-4 4 -9 4t-9 -3.5t-4 -8.5v-96q0 -5 4 -8.5t9 -3.5t8.5 3.5t3.5 8.5v65l74 -74q4 -3 9 -3t9 3.5t4 8.5v96q0 5 -4 8.5t-9 3.5v0zM472 84h-51q-5 0 -9 -3.5t-4 -9t4 -9t9 -3.5h31l-8 -15h-39
l-20 34l20 36h42l10 -20h25l-16 38l-4 7h-72l-3 -6l-27 -49l-3 -6l3 -6l27 -47l3 -6h70l3 7l20 40l9 18h-20v0zM517 139q-5 0 -9 -4t-4 -9v-32h25v32q0 6 -3.5 9.5t-8.5 3.5zM657 138q-2 1 -5 1q-5 0 -9 -4l-74 -74v65q0 6 -3.5 9.5t-8.5 3.5t-9 -3.5t-4 -9.5v-95
q0 -5 4 -8.5t9 -3.5t9 3l74 74v-65q0 -5 3.5 -9t8.5 -4t9 4t4 9v95q0 9 -8 12zM757 79l39 39q4 3 4 8t-4 9t-9 4t-9 -4l-38 -39l-39 39q-4 4 -9.5 4t-9 -3.5t-3.5 -9t4 -8.5l39 -39l-39 -39q-4 -4 -4 -9t4 -8.5t9 -3.5t9 3l39 39l38 -39q4 -3 9 -3t9 3.5t4 8.5t-4 9l-39 39
v0zM504 84v-52v-1q0 -5 4 -8.5t9 -3.5t8.5 3.5t3.5 8.5v1v52h-25zM699 521h-200h-1q-20 0 -34.5 -14.5t-14.5 -35t14.5 -35t34.5 -14.5h1l121 1l-30 -60h-155l-77 136l78 140h165l38 -79h99l-62 150l-14 27h-285l-13 -25l-105 -190l-13 -24l13 -24l105 -184l14 -25h274
l13 28l78 157l35 71h-79v0z" />
    <glyph glyph-name="amy-db-mysql" unicode="&#xed80;" horiz-adv-x="1969" 
d="M1401 724l-11 24q-2 2 -8 8.5t-8 11.5h-1v1q9 3 19 3h1q2 -2 7 -5.5t7 -6.5q1 -1 2.5 -4.5t3.5 -5.5q0 -17 -11 -25zM1909 218q-9 6 -29.5 15t-30.5 15q-9 6 -32 23q-13 10 -26 30q-1 2 -3 7.5t-5 8.5q1 4 4 6t9 4t8 2q36 15 96 14q0 4 -6 9.5t-16.5 12t-11.5 6.5
q-39 27 -50 34q-5 3 -18.5 7.5t-15.5 5.5q-4 2 -16.5 5.5t-21.5 7.5t-13 9q-14 18 -35 66q-5 11 -16.5 35t-17.5 37q-2 4 -6 15.5t-8 18.5q-56 106 -155 169q-37 23 -71 33q-8 3 -25 3.5t-24 2.5h-10q-6 1 -14.5 8.5t-9.5 8.5q-19 12 -49 25q-24 10 -32 4q-5 -2 -6 -7
q-5 -6 2 -20q3 -7 7.5 -13t10.5 -13.5t9 -11.5q20 -28 25 -38q7 -15 16 -44t15 -42q8 -18 18 -32l8.5 -8.5t9.5 -13.5q3 -2 1 -11t-4 -15t-5.5 -15.5t-4.5 -11.5q-9 -31 -7.5 -68t12.5 -64l1.5 -3.5t2 -4.5l2 -4t2 -4.5t2 -4t3 -3.5t3 -3t3.5 -3l4 -2t4 -1q1 0 2 1
q8 60 14 74q3 8 12.5 19.5t11.5 14.5q2 -2 3.5 -5t2.5 -7t2 -6q15 -36 21 -47q28 -52 56 -91q10 -13 26 -29q1 -1 5.5 -4t5.5 -6h1v-1q-9 3 -21.5 15.5t-14.5 13.5q-43 33 -64 67l-21 40v1q-1 -1 -1.5 -3t-1 -5t-0.5 -5q-2 -7 -4 -23.5t-6 -25.5t-14 -13q-27 -11 -52 29
q-20 31 -24 77.5t9 88.5q0 1 3.5 16t7.5 21q0 4 -2 6.5t-5.5 5.5t-4.5 5q-8 10 -18 30q-5 8 -26 66q-2 4 -4 13t-4 13q-4 8 -25 37q-2 3 -7.5 9.5t-9 11.5t-9 13.5t-7 14.5t-2.5 15.5t3 15.5q7 18 23 23.5t36 -0.5t34.5 -12.5t29.5 -15.5q2 -2 10 -8.5t12 -8.5l38 -2
q48 -12 63 -21q66 -38 110.5 -80t82.5 -104q5 -8 9 -17t8.5 -21t7.5 -19q19 -43 41 -85q2 -4 5.5 -12.5t7 -14.5t7.5 -11q2 -2 5.5 -4t7.5 -3t6 -2q5 -3 24 -11t29 -14q37 -24 81 -61q5 -4 13 -14.5t12 -14.5v-5q-23 -6 -24 -6q-8 -3 -24.5 -4.5t-25.5 -3.5q-26 -7 -34 -8
l2 -1q2 -8 12 -16t25 -16.5t19 -11.5q32 -23 52 -50l15 -14q2 -3 4 -8.5t4 -7.5v-1q-4 1 -9.5 6t-6.5 6q-30 22 -33 24zM1292 271h123q9 0 18 -1q82 -11 82 -70v-153q0 -44 -39 -60l64 -57h-75l-52 46l-52 -3h-69q-20 0 -38 6q-62 16 -62 68v153q0 59 82 70q9 1 18 1v0z
M1262 50q0 -1 2 -6q5 -28 46 -28h59l-54 49h75l47 -43q14 7 17 21v6v147v6q-6 26 -46 26h-98q-22 0 -35 -8.5t-13 -23.5v-146zM962 228q-18 -1 -24.5 -5t-8.5 -14q-1 -2 -1 -5v-30q0 -3 1 -5q4 -25 42 -25h78q31 0 56 -10q46 -17 46 -47v-47q0 -34 -42 -53q-26 -13 -60 -13
h-186v43h179q1 0 3 0.5t4 0.5q18 1 27 9q9 7 9 15v38v0q0 7 -5 11q-9 11 -35 13h-7h-67q-6 0 -19 1q-41 4 -65 20.5t-24 39.5v37q0 25 13.5 40t42.5 24q18 5 52 5h182v-42h-185q-1 0 -3 -0.5t-3 -0.5v0zM710 -116h-205v44h205q8 0 14 2t10 3.5t6.5 4.5t4 4.5t2 5t0.5 5v4
v3.5v16h-138q-46 1 -75.5 18.5t-29.5 42.5v15.5v36v41.5v36v15h65v-140q-1 -5 1 -10t11 -10.5t26 -5.5h141v167h65v-228q0 -20 -11 -34.5t-28.5 -21.5t-33 -10t-30.5 -4v0zM385 229l-101 -222q-8 -20 -21.5 -28t-37.5 -8t-37.5 8t-22.5 28l-100 222v-255h-65v254q0 34 31 43
q73 23 97 -31l95 -219l99 219q24 54 97 31q31 -9 31 -43v-254h-65v255zM1620 49q0 -17 12.5 -24.5t40.5 -7.5h170v-43h-169q-9 0 -19 1q-99 8 -99 74v223h64v-223v0zM1921.5 66q19.5 0 33.5 -13.5t14 -34t-14 -34t-33.5 -13.5t-33.5 13.5t-14 34t14 34t33.5 13.5zM1921 -19
q16 0 27 10.5t11 26.5t-11 27t-26.5 11t-26.5 -10.5t-11 -27t11 -27t26 -10.5v0zM1944 30q0 -13 -15 -15l16 -24h-11l-14 24h-9v-24h-9v55h22q20 0 20 -16zM1911 38v-16h10q13 0 13 9q0 7 -12 7h-11z" />
    <glyph glyph-name="spark1" unicode="&#xe60b;" horiz-adv-x="1448" 
d="M309 368l47 38q-1 2 -3 5t-8.5 11t-15 14t-22 10.5t-29.5 4.5q-47 0 -80 -39q-19 -22 -19 -65q6 -20 14 -31t70 -76q12 -31 -2 -42q-19 -15 -40 -15q-4 1 -10 4t-15.5 13.5t-9.5 25.5l-57 -31q1 -2 2 -6.5t6.5 -15t13.5 -19t23.5 -15.5t36 -7t37 4t25.5 9t15 10.5t8 8.5
l2 4q28 27 28 67v3.5t-1 10.5t-4.5 16.5t-12.5 22t-22 26.5q-5 4 -13 11t-21.5 23.5t-13.5 27.5q1 4 2.5 8t9.5 10.5t20.5 4.5t22 -10t12.5 -15zM480 370q-4 1 -11 0.5t-26 -5t-34.5 -13t-32 -29.5t-24.5 -50q-8 -32 -15 -84t-10.5 -84.5t-3.5 -35.5h50l10 85q3 -2 8 -5
t22 -8.5t34.5 -6.5t42.5 6.5t48 26.5q10 9 17 18.5t11 16t7 15t4.5 12t3.5 12t3 11.5q2 16 -1.5 35t-14 38t-33.5 31.5t-55 13.5zM459 185q-25 0 -43.5 18t-18.5 45q0 26 24.5 48.5t49.5 22.5t43.5 -18.5t18.5 -44.5q0 -27 -24 -49t-50 -22zM827 140h-47l11 96q-1 1 0 9
t-2 21t-8 25t-17.5 21t-30.5 9t-32.5 -7t-22.5 -17t-13 -20.5t-6 -17.5l-2 -7v-6t2 -14.5t6 -19t13.5 -17t22.5 -10.5q21 -5 38.5 1t25.5 15l7 8l-11 -61q-2 -2 -7 -4.5t-19.5 -6t-29 -3.5t-34.5 7.5t-39 24.5q-3 2 -7.5 7.5t-11.5 26t-7 44.5q-1 6 0 15.5t13 34t34.5 44
t47 27.5t37.5 7l13 -2h7t16.5 -4.5t23.5 -12t24 -23.5t21 -38q1 -10 1 -19.5t-0.5 -17.5t-0.5 -9q0 -3 -4 -29.5t-8 -51.5zM983 364l-6 -48h-33q-14 -3 -18 -17l-22 -158h-49l19 158q-2 23 22 46q17 18 35 19h52zM1016 403l-35 -262h55l17 120l84 -120h64l-104 144l64 70
l-10 54l-91 -100l15 136zM1168 407l82 -23l-49 97l75 91l-112 -27l-54 90l-22 -112l-111 -38l81 -35l-55 -38l-66 28q-4 2 -10 5.5t-16 15t-10 24t9 22.5t19 13l9 3l110 34l18 107q1 5 3 12t12 18.5t23 11.5q10 0 19 -6t14 -12.5t12.5 -20t10.5 -17.5l30 -51l109 29
q4 1 9.5 1.5t18 -0.5t19.5 -5.5t5.5 -18t-16.5 -35.5l-77 -90l46 -90q1 -1 2 -3.5t3 -10t2.5 -14t-1.5 -14.5t-8 -13t-17.5 -7.5t-28.5 -0.5l-79 26z" />
    <glyph glyph-name="debian" unicode="&#xe643;" 
d="M881 503q-5 52 -19 100l11 -4q-25 58 -59.5 105t-73.5 69q-4 3 -11 2t-11.5 0.5t-0.5 8.5q2 4 -2.5 6.5t-14 1.5t-17 -2t-16.5 -2q-11 -2 -28.5 13t-37.5 18q-12 1 -23 -6.5t-16 -5.5q-6 2 -12 6.5t-9 6.5t-10.5 1.5t-19.5 -6.5q-5 -3 -6 -0.5t-1.5 6.5t-8.5 4t-26 -6
l-4 11q-40 -15 -72.5 -32.5t-48.5 -26.5t-27 -10q-3 0 -10 -7t-19.5 -20.5t-17.5 -18.5q-4 -4 -10 -11t-9.5 -11t-10 -8t-13.5 -5l-15 -61q-14 -9 -27 -31.5t-16 -53.5q-8 18 4 46q-7 -3 -10 -4.5t-9 -7.5t-8.5 -14t-2.5 -23t4 -35q5 -26 3.5 -87t5.5 -91q2 -9 2.5 -24.5
t2.5 -20.5q32 -70 57.5 -116t62 -92t76 -72t94.5 -41.5t123 -13.5l4 8q-8 2 -38.5 11t-59.5 16q-8 2 -18 18t-17 20q-4 2 -16 4t-16 5q-2 1 -2.5 6t-2.5 6.5t-13 -0.5q-3 -1 -6 1.5t-6 7t-5 6.5q-1 1 -4.5 11t-15.5 10q-6 1 -9.5 3.5t-5 7.5t-2 9t-1 10.5t-0.5 8.5
q-5 0 -11 -4q-19 17 -21 28q-6 26 -9 26h-3q-1 0 -1 2q-12 28 -17 37l23 -8h4l4 12l-23 7q-6 21 -12 43h27q-2 -5 -3 -7v-1q-3 1 -8 0v-12l19 8v12q-13 6 -43 19l8 -8v-4h-31q-9 6 -12 12.5t-3 18t-1 15.5h9q2 -1 3 2l4 10l-16 -8l12 31l-12 -12q-7 10 -11 21.5t-4.5 27.5
t0 26t2.5 30.5t3 27.5q4 56 33 89q3 3 4 7.5t1 8t-0.5 9t0.5 7.5l27 23h15q2 -2 3 -5q2 -4 1 -6q-2 -3 -4 -8l8 -4q6 7 8 19q-1 2 -3 4l-2.5 2.5t-2.5 1.5l-2 1l-3 1t-4.5 1t-5.5 1q18 25 39.5 38t57.5 12l4 12l-16 -8l-4 11q10 7 17.5 11.5t15 7t10.5 3t12 1t11.5 1
t5.5 8.5t6 9q106 37 194 0t129 -129q2 -5 4 -15.5t3 -14.5q8 -25 4.5 -75t4.5 -60q-3 -14 -11 -17.5t-15.5 -4t-8.5 -5.5q-6 -29 -13 -43t-23 -26q-2 -2 -6.5 -6t-9.5 -7.5t-11 -6.5q3 3 7 8t5.5 7.5t3.5 7.5t4 12q-46 -48 -100.5 -53t-97.5 34t-55 111q-8 46 31 82
q23 22 45.5 33.5t38 14.5t35.5 -2.5t30 -10.5t30 -17l-8 27q-10 8 -13.5 12.5t-3.5 7.5t4 12t6 18v4l-16 11q1 -5 8 -15l-2 -8q-1 -3 -2.5 -4.5t-3.5 -2.5q-9 -6 -17.5 -6.5t-21.5 2.5l4 11l-12 12q0 -4 -1 -6.5t1 -9.5q-90 -7 -135 -61.5t-20 -164.5q0 -2 2 -16.5t5 -22.5
l-7 -8l-4 24h-12l-4 -12q3 -6 0 -1q13 -23 35 -45l11 -11q17 -12 27.5 -19t30 -17t36 -13.5t38.5 -2.5t44 9h8v4l-90 11l-4 8q38 -6 64.5 -7t54.5 7.5t46.5 18t41.5 23.5q2 3 4.5 6.5t3.5 5l2 3t2.5 1t3 -2.5t3.5 -5q9 8 9 19t3 20q2 4 17.5 13t21.5 17l35 119h-16
q0 2 5 12.5t3.5 17.5t-12.5 13q-1 0 3 1q5 1 5 2q-2 30 -19 58q12 -8 20 -22.5t15 -37t11 -32.5v-8h4zM461 311l-8 23l55 -50zM192 646l-19 3v-34q1 0 3 2q9 5 11.5 9.5t4.5 19.5zM694 492q-2 -3 -5 -7t-4 -5.5t-2.5 -5.5t-2.5 -8.5t-1 -12.5l11 -7q11 9 12 21.5t-8 24.5z
M823 346q19 8 30.5 34t0.5 50zM671 415l-2 -2q-10 -7 -13 -12t-4 -21l11 -7l16 7q10 28 4 43q-3 -5 -5 -10q-1 -5 -5 0q-1 0 -2 2zM613 346q6 4 8.5 7t3.5 6.5t3 5.5v4q-6 0 -16 -1t-19 -1t-19 2q-4 4 -11.5 16.5t-16.5 17.5q6 -11 8.5 -21.5t5.5 -16.5t14 -15q8 -3 14 -3.5
t11.5 -0.5h9.5q6 0 -1 0h5zM247 376h-12l-8 -7l2 -2q3 -3 4 -3.5t2 2.5q2 4 4 7l12 -20l4 16zM262 326l4 8l-3 3q-1 2 -2 1q-1 -2 -6 -4l-12 16l4 -16v-8h15z" />
    <glyph glyph-name="mongo-db" unicode="&#xe653;" 
d="M634 661q-10 16 -11 18q-15 19 -43 49.5t-45 53.5t-29 51q-6 -24 -20 -40t-35 -34t-35 -36q-51 -67 -86 -169t-22 -200q15 -116 85 -211q34 -45 77 -80q24 -19 30 -38.5t6 -82.5l23 -7h3q0 8 -2 31t-1.5 40t5.5 30q7 18 40.5 44.5t40.5 35.5q53 66 74 126t25.5 118
t-7 111t-29 97.5t-44.5 92.5z" />
    <glyph glyph-name="Fedora" unicode="&#xe655;" 
d="M737 675q-1 -22 -17.5 -38t-38.5 -16q-1 0 -7 1v-5q-15 4 -31 4v0q-36 0 -64.5 -22t-37.5 -57q-2 -4 -2 -8h-2v-125h120q-3 -1 -7 -2v-1h-8q15 -6 23.5 -18.5t8.5 -28.5q0 -33 -30 -46q76 7 128 63.5t52 134.5q0 50 -23.5 93.5t-63.5 70.5zM662 410v1h3q-1 0 -3 -1z
M512 834q-120 0 -222 -58t-163 -158t-65 -219v-3v-337q0 -52 36.5 -88.5t88.5 -36.5h313h4h8q92 0 175 35.5t143.5 96t96 143.5t35.5 175t-35.5 175t-96 143.5t-143.5 96t-175 35.5zM637 309h-7h-6h-87v-87q0 -3 -1 -8q1 -10 1 -17q0 -88 -62 -150.5t-150 -62.5h-4
q-13 0 -26 2q-8 -2 -14 -2q-24 0 -41 18q-57 24 -92.5 77t-35.5 118q0 88 62.5 150t150.5 62h7h5q3 0 6 -1q4 1 7 1h75v87v8v17q0 88 62 150.5t150 62.5h4q13 0 26 -2q7 2 14 2q24 0 40 -18q58 -24 93 -77t35 -118q0 -88 -62 -150t-150 -62zM350 309h-46l8 2v1h7
q-14 6 -23 18.5t-9 28.5q0 33 30 46q-76 -7 -128 -63.5t-52 -134.5q0 -50 23.5 -93.5t64.5 -70.5q1 21 15 36t35 17v10q21 -9 43 -9q37 0 65.5 22t37.5 57l2 8h2v125h-75zM300 307h-4q2 0 4 1v-1z" />
    <glyph glyph-name="docker" unicode="&#xe71e;" 
d="M206 159q-22 0 -39 15.5t-17 37.5t16 37.5t39.5 15.5t40 -15.5t16.5 -37.5t-17 -37.5t-39 -15.5zM889 447q-8 59 -66 104l-14 10l-11 -13q-15 -17 -22 -44.5t-5 -53.5q5 -39 24 -66q-5 -2 -17 -7.5t-17 -8.5q-33 -10 -72 -10h-685l-2 -16q-2 -16 -2 -31q0 -26 7.5 -61.5
t18.5 -58.5l10 -19v-3q47 -76 126 -114.5t176 -38.5q185 0 322.5 81.5t205.5 244.5q113 -5 151 71l7 13l-12 8q-53 32 -122 14zM547 490h-103v-103h103v103v0zM547 620h-103v-104h103v104v0zM547 752h-103v-103h103v103v0zM674 490h-103v-103h103v103v0zM290 490h-103v-103
h103v103v0zM419 490h-102v-103h103v103h-1zM162 490h-102v-103h103v103h-1zM419 620h-102v-104h103v104h-1zM289 620h-102v-104h103v104h-1z" />
    <glyph glyph-name="redis" unicode="&#xe629;" 
d="M585 118q-44 -23 -75 -24.5t-66 16.5q-21 10 -132 57t-211.5 89l-100.5 42v-120q0 -14 41 -34q28 -13 204 -86t199 -84q35 -18 66 -16.5t75 24.5q31 16 201 89t197 87q21 11 30.5 20t9.5 16v119v0l-96 -41.5t-205.5 -90.5t-136.5 -63v0zM585 287q-44 -23 -75 -24.5
t-66 16.5q-21 10 -132 57t-211.5 89l-100.5 42v-120q0 -14 41 -34q28 -13 204 -86t199 -84q35 -18 66 -16.5t75 24.5q31 16 201 89t197 87q21 11 30.5 20t9.5 16v119v0q-1 0 -96.5 -42t-205 -90.5t-136.5 -62.5v0zM1023 640q1 14 -41 29q-26 10 -193 76t-195 76
q-40 14 -65.5 13.5t-73.5 -17.5q-55 -20 -415 -161q-21 -8 -30.5 -15.5t-9.5 -15.5v0v-118q397 -167 444 -190q35 -17 66 -15.5t76 24.5q27 14 136.5 63t205 91.5l95.5 42.5v117v0zM891 637l-156 -62l-140 56l155 61zM604 579l-72 -106l-165 69l237 37v0zM479 738l-23 43
l72 -28l67 22l-18 -44l68 -26l-88 -9l-20 -48l-32 54l-103 9l77 27v0zM302.5 679q52.5 0 89.5 -14.5t37 -35t-37 -35t-89.5 -14.5t-89.5 14.5t-37 35.5q0 20 37 34.5t89.5 14.5z" />
    <glyph glyph-name="tomcat" unicode="&#xe62b;" 
d="M1011 40l-3 -16h-115l-2 1q-148 78 -274 125.5t-253 58.5v0q-30 4 -66 4t-51 -6h-1q-48 -12 -77 -47q-17 -21 -25 -46.5t-4 -48.5l4 -23h-132v20q0 18 45 85t100 129q11 12 16 18l12 13q56 58 140.5 109t169.5 78l11 4l3 -12l1 -2q5 -13 13 -29.5t30.5 -52t48 -64.5
t65.5 -59t83 -44l13 -4l23 16l6 -7q83 -87 114 -123q60 -1 89 -34q20 -23 16 -43zM979 69q-24 26 -75 26h-2h-6l-3 4q-21 26 -110 120l-17 -11l-22 7q-43 14 -83.5 42.5t-67 57.5t-50 64.5t-34 55t-17.5 35.5q-80 -26 -160 -75t-131 -103l-12 -13q-6 -6 -16 -17
q-52 -58 -92.5 -118.5t-46.5 -79.5h84q-4 26 5.5 56t28.5 54q34 41 88 54q19 6 58 6q33 0 68 -3q129 -12 256 -60t276 -125h92q0 10 -11 23zM899 413l-6 -12q-4 -9 -9 -18v0l-8 -12q-44 -72 -111 -120l-5 -3l-5 2q-96 31 -173 139q-39 54 -59 101v1q-13 52 -16 110v4l1 1
q-1 35 4.5 72.5t17.5 57.5l5 8l9 -4q78 -37 97 -86q44 7 91 7q40 0 77 -5q12 26 42.5 50t55.5 33l9 4l5 -9q8 -16 13 -60.5t5 -66.5v-11q-1 -98 -40 -183zM917 618q-3 63 -12 97q-25 -13 -49 -34t-30 -40l-3 -9l-9 1q-39 6 -82 6q-50 0 -97 -8l-10 -2l-2 10q-10 41 -79 77
q-18 -44 -15 -115l1 -24q4 -41 14 -80q4 -9 11 -23.5t27.5 -46.5t43 -59t58 -55t73.5 -41q61 45 101 110l7 12q5 8 9 16l6 12q39 86 37 185v11v0zM373 507q-61 0 -77 24q-4 7 -5 18q-17 2 -31 2q-56 0 -87 -38q-31 -39 -24 -93q6 -40 34 -86l4 -8l-6 -6q-2 -1 -4 -3v-1
l-17 -18l-8 12q-34 55 -41 105q-10 70 32 122t115 53h2q15 0 41 -4q6 8 14 12q7 3 16 3q24 0 58.5 -18t55.5 -47l7 -11l-12 -5q-28 -13 -67 -13zM331 580q-4 0 -6 -1q-5 -3 -9 -10l-3 -6v-6q-2 -10 1 -14q4 -5 20 -9.5t39 -4.5q25 0 45 6q-18 19 -44 32t-43 13zM297 203
q35 0 69 -4h3l10 -1l1 -7q6 -21 18 -36q9 3 19 3q19 0 33 -9q18 -12 18 -33v-19h-94l-3 2q-59 42 -107 84l-19 17l25 2q12 1 27 1zM381 119h66q-1 7 -9 12t-21 5q-10 0 -19 -3l-7 -3l-5 6q-16 18 -24 42q-33 4 -63 4q37 -32 82 -63z" />
    <glyph glyph-name="icon" unicode="&#xe708;" 
d="M239 255h-43l34 155q4 17 3 21q-1 3 -10 3h-21l-39 -179h-43l74 337h42l-18 -84h18q42 0 42 -54q0 -20 -5 -47zM386 255h-86q-31 0 -31 48q0 16 4 35q9 43 27 62q15 16 40 16h37q3 15 2 17q-2 5 -16 5h-60l15 70h67q21 0 30 -13q10 -14 10 -41q0 -21 -6 -48zM335 349
q-8 0 -12 -3t-7 -15q0 -2 -1 -4v-2q2 -3 7 -3h35l6 27h-28zM533 255h-63q-25 0 -37 27q-8 18 -8 45q0 25 7 58q13 56 35 88q24 35 54 35h24l18 84h44zM521 435q-19 0 -29 -13q-10 -14 -18 -52q-6 -26 -4 -34q3 -11 21 -11h14l24 110h-8zM620 250q-31 0 -43 37q-5 17 -5 40
q0 26 7 59q15 71 46 103q22 23 47 23t38 -26q11 -20 11 -51q0 -25 -7 -58q-13 -57 -37 -91q-26 -36 -57 -36zM662 440q-10 0 -21 -15q-13 -18 -20 -49q-3 -15 -3 -28q0 -26 12.5 -26t24.5 19q11 19 16 44q4 18 4 31q0 24 -13 24zM769 250q-31 0 -43 37q-5 17 -5 40
q0 26 7 59q15 71 46 103q22 23 47 23t39 -26q10 -20 10 -51q0 -25 -7 -58q-13 -57 -37 -91q-26 -36 -57 -36zM811 440q-10 0 -21 -15q-13 -18 -20 -49q-3 -15 -3 -28q0 -26 12.5 -26t24.5 19q11 19 16 44q4 18 4 31q0 24 -13 24zM1009 374q-26 -119 -88 -119h-24l-18 -83
h-43l74 336h63q28 0 39 -35q5 -16 5 -38q0 -26 -8 -61zM953 436h-16l-24 -111h3q23 0 35 17q9 13 17 45q6 29 4 38q-2 11 -19 11zM518 -122q-83 0 -163 27q-132 43 -222 142.5t-117 232.5q-28 135 17.5 262.5t153.5 219.5q108 91 241.5 115t263.5 -25q12 -5 17.5 -17
t1 -24.5t-17 -18t-24.5 -0.5q-113 43 -229.5 22t-211.5 -101q-94 -80 -133.5 -191.5t-15.5 -229.5q23 -115 101.5 -202t194.5 -125q115 -37 230 -13.5t203 103.5q10 8 23.5 7.5t22 -10t8 -23t-10.5 -22.5q-69 -63 -155 -96t-178 -33z" />
    <glyph glyph-name="mysql" unicode="&#xe601;" horiz-adv-x="1969" 
d="M1401 724l-11 24q-2 2 -8 8.5t-8 11.5h-1v1q9 3 19 3h1q2 -2 7 -5.5t7 -6.5q1 -1 2.5 -4.5t3.5 -5.5q0 -17 -11 -25zM1909 218q-9 6 -29.5 15t-30.5 15q-9 6 -32 23q-13 10 -26 30q-1 2 -3 7.5t-5 8.5q1 4 4 6t9 4t8 2q36 15 96 14q0 4 -6 9.5t-16.5 12t-11.5 6.5
q-39 27 -50 34q-5 3 -18.5 7.5t-15.5 5.5q-4 2 -16.5 5.5t-21.5 7.5t-13 9q-14 18 -35 66q-5 11 -16.5 35t-17.5 37q-2 4 -6 15.5t-8 18.5q-56 106 -155 169q-37 23 -71 33q-8 3 -25 3.5t-24 2.5h-10q-6 1 -14.5 8.5t-9.5 8.5q-19 12 -49 25q-24 10 -32 4q-5 -2 -6 -7
q-5 -6 2 -20q3 -7 7.5 -13t10.5 -13.5t9 -11.5q20 -28 25 -38q7 -15 16 -44t15 -42q8 -18 18 -32l8.5 -8.5t9.5 -13.5q3 -2 1 -11t-4 -15t-5.5 -15.5t-4.5 -11.5q-9 -31 -7.5 -68t12.5 -64l1.5 -3.5t2 -4.5l2 -4t2 -4.5t2 -4t3 -3.5t3 -3t3.5 -3l4 -2t4 -1q1 0 2 1
q8 60 14 74q3 8 12.5 19.5t11.5 14.5q2 -2 3.5 -5t2.5 -7t2 -6q15 -36 21 -47q28 -52 56 -91q10 -13 26 -29q1 -1 5.5 -4t5.5 -6h1v-1q-9 3 -21.5 15.5t-14.5 13.5q-43 33 -64 67l-21 40v1q-1 -1 -1.5 -3t-1 -5t-0.5 -5q-2 -7 -4 -23.5t-6 -25.5t-14 -13q-27 -11 -52 29
q-20 31 -24 77.5t9 88.5q0 1 3.5 16t7.5 21q0 4 -2 6.5t-5.5 5.5t-4.5 5q-8 10 -18 30q-5 8 -26 66q-2 4 -4 13t-4 13q-4 8 -25 37q-2 3 -7.5 9.5t-9 11.5t-9 13.5t-7 14.5t-2.5 15.5t3 15.5q7 18 23 23.5t36 -0.5t34.5 -12.5t29.5 -15.5q2 -2 10 -8.5t12 -8.5l38 -2
q48 -12 63 -21q66 -38 110.5 -80t82.5 -104q5 -8 9 -17t8.5 -21t7.5 -19q106 -238 281 -420q-162 224 -220 297q2 -2 5.5 -4t7.5 -3t6 -2q5 -3 24 -11t29 -14q37 -24 81 -61q5 -4 13 -14.5t12 -14.5v-5q-23 -6 -24 -6q-8 -3 -24.5 -4.5t-25.5 -3.5q-26 -7 -34 -8l2 -1
q2 -8 12 -16t25 -16.5t19 -11.5q32 -23 52 -50l15 -14q2 -3 4 -8.5t4 -7.5v-1q-4 1 -9.5 6t-6.5 6q-30 22 -33 24zM1292 271h123q9 0 18 -1q82 -11 82 -70v-153q0 -44 -39 -60l64 -57h-75l-52 46l-52 -3h-69q-21 0 -40 6q-60 16 -60 68v153q0 59 82 70q9 1 18 1v0zM1262 50
q0 -1 2 -6q5 -28 46 -28h59l-54 49h75l47 -43q14 7 17 21v6v147v6q-6 26 -46 26h-98q-22 0 -35 -8.5t-13 -23.5v-146zM962 228q-18 -1 -24.5 -5t-8.5 -14q-1 -2 -1 -5v-30q0 -3 1 -5q4 -25 42 -25h78q31 0 56 -10q46 -17 46 -47v-47q0 -34 -42 -53q-26 -13 -60 -13h-186v43
h179q1 0 3 0.5t4 0.5q18 1 27 9q9 7 9 15v38v0q0 7 -5 11q-9 11 -35 13h-7h-67q-6 0 -19 1q-41 4 -65 20.5t-24 39.5v37q0 25 13.5 40t42.5 24q18 5 52 5h182v-42h-185q-1 0 -3 -0.5t-3 -0.5v0zM710 -116h-205v44h205q8 0 14 2t10 3.5t6.5 4.5t4 4.5t2 5t0.5 5v4v3.5v16
h-138q-46 1 -75.5 18.5t-29.5 42.5v15.5v36v41.5v36v15h65v-140q-1 -5 1 -10t11 -10.5t26 -5.5h141v167h65v-228q0 -20 -11 -34.5t-28.5 -21.5t-33 -10t-30.5 -4v0zM385 229l-101 -222q-8 -20 -21.5 -28t-37.5 -8t-37.5 8t-22.5 28l-100 222v-255h-65v254q0 34 31 43
q73 23 97 -31l95 -219l99 219q24 54 97 31q31 -9 31 -43v-254h-65v255zM1620 49q0 -17 12.5 -24.5t40.5 -7.5h170v-43h-169q-11 0 -23 1q-95 7 -95 74v223h64v-223v0zM1921.5 66q19.5 0 33.5 -13.5t14 -34t-14 -34t-33.5 -13.5t-33.5 13.5t-14 34t14 34t33.5 13.5zM1921 -19
q16 0 27 10.5t11 26.5t-11 27t-26.5 11t-26.5 -10.5t-11 -27t11 -27t26 -10.5v0zM1944 30q0 -13 -15 -15l16 -24h-11l-14 24h-9v-24h-9v55h22q20 0 20 -16zM1911 38v-16h10q13 0 13 9q0 7 -12 7h-11z" />
    <glyph glyph-name="ApacheStorm" unicode="&#xe656;" 
d="M176 529q32 32 227 210q19 16 49.5 30.5t71 23.5t89.5 -0.5t92 -39.5q11 -8 22.5 -19.5t25.5 -29.5t21 -38.5t9.5 -47t-8.5 -54.5q66 9 112 -25.5t46 -103.5q0 -33 -14 -60t-34.5 -41.5t-40.5 -22t-36 -7.5h-178l-78 -67h241l-339 -266h-77l260 208h-232l200 166h194
q3 1 8.5 2.5t19 8t24 16t19 28t8.5 40.5t-9 38.5t-21.5 23.5t-25 10.5t-21.5 4.5h-9h-99q2 2 6 7t12 20.5t13 30.5t5.5 35.5t-6.5 39t-27 38t-52 34.5q-45 20 -86 21.5t-72.5 -13.5t-53.5 -30.5t-41.5 -35t-22.5 -21.5q119 14 186.5 -21t66.5 -125q0 -25 -7.5 -47.5t-20 -38
t-26.5 -28t-30.5 -21t-28 -14t-22.5 -9l-11 -3.5h-384l207 162h77l-160 -127h162h11.5t27.5 2t39 6t41.5 13t39 22t27.5 34t11 48q0 63 -54.5 88t-145 9.5t-198.5 -64.5z" />
    <glyph glyph-name="ApacheZooKeeper" unicode="&#xe657;" 
d="M893 790q-11 10 -21 0l-382 -391q-10 -11 0 -21l22 -22q11 -11 21 0l382 391q10 10 0 21zM368 285l-61 61q-11 10 -21 0l-157 -155q-8 -9 -16.5 -50t-7.5 -87.5t18 -62t64 -17t88 6.5t49 17l156 155q11 10 0 20l-61 61q-87 -82 -110 -59t59 110zM376 278l-1 2l112 130
l58 -58l-130 -110h-3l-47 -38q-39 -28 -47 -19q-13 14 58 93zM473 360q-11 -11 0 -22q7 -7 16.5 -3t9.5 14t-9.5 14t-16.5 -3z" />
    <glyph glyph-name="mongo-db1" unicode="&#xe603;" 
d="M634 661q-10 16 -11 18q-15 19 -43 49.5t-45 53.5t-29 51q-6 -24 -20 -40t-35 -34t-35 -36q-51 -67 -86 -169t-22 -200q15 -116 85 -211q34 -45 77 -80q24 -19 30 -38.5t6 -82.5l23 -7h3q0 8 -2 31t-1.5 40t5.5 30q7 18 40.5 44.5t40.5 35.5q53 66 74 126t25.5 118
t-7 111t-29 97.5t-44.5 92.5z" />
    <glyph glyph-name="Apacheyumao" unicode="&#xe602;" horiz-adv-x="2893" 
d="M517 751q-7 -21 -6 -37q0 -34 4 -44q0 -1 1 -5.5t1.5 -7t2.5 -1.5q0 2 4 7.5t3 9.5q-1 5 -2.5 13.5t-2.5 13.5q3 -1 14 -11q3 -7 9 1l3 3l7.5 7.5t8.5 7.5q-8 -17 -15 -40q11 -27 10 -66q0 -34 -3 -50l-1.5 -11.5t-2.5 -17.5q-4 19 -15 85q-2 -11 -2.5 -22t0 -26
t-0.5 -22q1 -2 1 -4.5t1 -5.5q-1 0 -2.5 2.5t-3.5 5.5t-3 4q-6 7 -49 55q-20 19 -46 33q16 -1 26 -4q-24 40 -19 66q2 16 19 29q1 -2 1 -8t1 -9q7 -39 30 -63q0 -1 3 -4q5 -9 3 -1q-11 41 -2 75q8 25 23 42zM458 719zM534 528zM508 488q-2 -2 -1 -3l-5 -3q-10 -11 -26 -26
q48 26 49 26l-11 -22q18 11 23 17q-27 -42 -40 -66q-20 -42 -27 -71l-3 -12t-3 -13q-12 42 -7 72q0 9 5 20q-45 -27 -58 -46q-5 -7 -17 -31q-10 23 -6 38q4 14 15 29q-27 -12 -52 -9q71 44 79 49l39 25q24 14 26 15q-10 -4 -26 -14.5t-23 -13.5q-21 -12 -39 -14
q-34 -7 -64 -30q-13 -10 -22 -21q8 38 47 61q14 10 45 20q-26 4 -47 21q44 -9 91 -6q29 1 56 8q-7 -2 -7 -3t4 0q1 1 2.5 2t2.5 1zM359 486zM344 388zM537 477zM145 696q105 -47 313 -141q195 -81 407 -143t431.5 -104.5t421 -70t438.5 -49.5q22 -3 188 -22t253 -34
q-120 11 -305.5 25.5t-315 24.5t-303 29t-312 42.5t-297 62.5t-299.5 90q-84 25 -133.5 41t-126.5 44.5t-131 55.5t-116 66t-113 83zM702 683q11 -1 16 -4q1 -2 1 -3v-3q-3 -6 -22 -26h-1q-44 -61 -57 -140q-13 1 -16 6q-3 6 -1 17q0 7 5 22.5t5 22.5q2 5 10 29.5t13 36.5
q16 38 47 43v-1zM756 679q24 -2 30 -15q1 -5 -2 -10q-5 -7 -16 -11q-1 0 -1 -0.5t-1 -0.5q-61 -58 -76 -154q-19 0 -29 6q-8 5 -10 16q-3 16 12 52q11 28 20.5 46.5t27.5 39t39 29.5l3 1zM645 676h9q5 0 7 -1q1 0 2 -1q0 -4 -5 -10q-1 -3 -5 -8t-6 -8q-5 -9 -6 -16
q-17 -38 -31 -114q-10 2 -13 7t-3 17q1 9 1.5 26.5t1 28.5t3.5 25.5t8 24.5q6 15 17 23q8 6 20 7v-1zM832 662q13 -1 18 -3q8 -3 10 -6q1 0 1 -2l-2 -2q-3 -4 -15 -8q-1 0 -1 -0.5t-1 -0.5q-17 -15 -31.5 -37.5t-21.5 -40.5t-17.5 -47.5t-16.5 -43.5q-29 -7 -44 13
q-15 21 2 50q0 1 1 1q17 49 42 81q33 41 76 46v0zM918 637q5 -1 7 -3l2 -1q-1 0 -1 -1q-4 -1 -10 -3h-1q-48 -22 -76.5 -70t-39.5 -106q-17 0 -25 4q-6 5 -5 14q0 6 2.5 13.5t7 18.5t6.5 16q25 62 30 72q23 39 55 51q20 5 48 -5zM980 634q23 0 31 -10l2 -3v-2q-4 -4 -15 -6
h-1q-81 -44 -130 -181q-21 0 -32 5q-12 5 -17 16q-9 20 9 54q23 53 63.5 89.5t89.5 36.5v1zM1043 614q24 -1 34 -9q2 -2 2 -2.5t-1 -1.5q-3 -4 -16 -9h-2q-20 -16 -37.5 -40.5t-26 -43t-23 -53t-20.5 -47.5q-3 1 -27 6.5t-33 9.5q-11 6 -13 15q9 29 29.5 64.5t41.5 58.5
q42 48 92 52v0zM1102 594q13 1 37 -8q11 -4 15 -7q1 -1 1 -2t-1 -2q-24 -11 -43.5 -27.5t-35.5 -41.5t-25.5 -43t-22.5 -49q-1 -1 -5.5 -9.5t-6.5 -13.5q-20 -1 -31 4q-9 4 -11 13q15 72 56 135q29 46 73 51v0zM1187 569l9 -1q12 -2 22 -6q4 -1 7 -3l2 -1q-2 -1 -7 -2v0
q-18 -6 -34.5 -18t-26.5 -22t-23.5 -31t-18.5 -30.5t-17.5 -35.5t-15.5 -31q-6 -11 -20 -12q-12 -1 -22 7q-11 7 -12 17q-1 11 15 35q1 2 19.5 33.5t31.5 47.5q37 47 84 53h1h6v0zM1244 549h13q12 -2 20 -5q1 0 2.5 -1t2.5 -2l1 -1q0 -1 -1 -2t-4 -3q-6 -4 -17 -8h-2
q-86 -61 -125 -165q-20 -1 -31 4q-8 4 -8 12q-1 15 20 47q31 60 54 85q35 36 75 38v1zM1323 537v-3v3zM1322 534q16 -3 21 -6h1q-3 -3 -9 -6q-2 -1 -9 -4t-11 -5v0q-14 -10 -26.5 -23.5t-21 -23.5t-20.5 -30l-16.5 -27.5t-17.5 -32t-15 -28.5q-22 0 -33 3q-11 4 -15 12
q-4 7 0 18q4 12 16 26v1q32 51 65 84t76 42h7h8v0zM1400 506q2 -2 2 -2.5t-1 -0.5q-3 -4 -18 -4h-1q-92 -37 -139 -161q-19 -1 -25 3q-3 1 -4 5q-1 2 0 7t4 12t8.5 16.5t8.5 14.5q34 57 48 75q31 39 71 46h2q21 1 44 -11zM1425 495q12 0 22 -2q9 -2 13 -5h1l-1 -1
q-5 -3 -21 -5q-92 -31 -134 -157q-20 -2 -32 2q-9 4 -12 12q-6 16 16 46q26 47 64 78t84 32zM1545 469q-63 -6 -112 -50t-64 -106q-24 -2 -35 2q-10 4 -12 13q-4 18 20 52q25 44 59.5 72.5t74.5 28.5q21 0 33 -1t15.5 -2t10 -4.5t10.5 -4.5v0zM1570 462q4 0 7 -0.5t4 -0.5
q-22 -7 -29 -9q-17 -6 -32 -16.5t-24.5 -18.5t-22.5 -28t-17 -26.5t-18 -32t-15 -27.5q-21 -3 -29 2q-9 3 -11 12q-3 16 17 46h1q25 45 71.5 71.5t97.5 26.5v1zM1622 457q19 0 42 -3q11 -2 18 -4q1 0 2 -0.5l1 -0.5q-67 -17 -122.5 -56.5t-85.5 -98.5q-22 -2 -30 1
q-7 3 -7 11q0 7 5 19q1 0 16 25q26 47 68.5 76.5t92.5 30.5v0zM563 450q10 -2 12 -6q3 -5 0 -15q0 -3 -3.5 -12.5t-4.5 -16.5t0 -13q-5 -49 5 -83q-26 6 -37 31q-13 44 28 114v1zM1829 424q-3 -3 -18 -2h-1q-38 -11 -73 -36.5t-72.5 -60.5t-61.5 -51q-25 0 -34 2q-4 1 -7 3
l-1 2q2 5 9 12q9 7 25 18q15 12 43 36.5t45 39t44 31t52 24.5q38 0 50 -18zM1743 442h2q-1 -2 -3 -3q-1 0 -18 -10q-13 -7 -18 -12q-26 -20 -80 -66.5t-84 -67.5q-21 -2 -32 1q-12 3 -14 10q-3 7 3 17q6 11 19 24q38 47 94.5 76t116.5 31q10 1 14 0v0zM589 442q16 0 24 -5
q7 -4 9 -13q2 -10 -4 -48q-3 -58 18 -117q-34 3 -50 37q-14 32 -11 74q3 35 14 72v0zM637 426q18 -1 25 -5q9 -4 12 -12q4 -12 -1 -47v0q-1 -70 30 -125v0h1q1 -3 0 -7l-1 -4q-7 -2 -19 2q-31 11 -42 48q-4 13 -11 69q0 60 6 81v0zM1854 417q18 -1 24 -2q5 -1 5 -2h1v0v0v0
l-1 -1l-4 -2q-8 -4 -23 -9q-39 -18 -96.5 -69.5t-84.5 -67.5q-28 0 -39 2q-5 1 -8 3q-1 1 -1 3q0 5 9 13q2 3 27 22h1q4 4 23 21t26 23t24 19.5t28 19.5t27 13.5t31 10.5t31 3zM688 410q36 -1 47 -21q8 -14 8 -65q0 -26 0.5 -40.5t7 -40t20.5 -41.5q-37 3 -59 39
q-22 32 -28 81q-6 34 4 87v1zM1932 406q11 -2 20 -5q8 -2 11 -6v-1v0v0h-1q-5 -3 -20 -3h-1q-35 -11 -66.5 -34.5t-66 -56t-56.5 -47.5q-25 1 -36 2q-13 2 -17 5q-1 1 -1 2v1q2 3 3 4q7 9 25 19q10 9 35.5 31.5t40.5 34t38 26.5t45.5 21.5t46.5 6.5v0zM752 390q17 0 24 -4
q8 -5 11 -16q4 -10 2 -51q0 -31 1 -47t7 -42t18 -44q-30 8 -44 35q-16 28 -18 68q-1 18 -1 50.5v50.5zM1986 387q13 1 43 -7q3 -1 4 -1q-2 -1 -9 -2h-1q-34 -10 -66.5 -34.5t-51.5 -45.5t-48 -58q-10 2 -36 4t-36 5q-7 1 -10 3q-2 2 -2 4t6 7q8 7 18 13q1 0 1 1q3 3 20 18.5
t22 20t20.5 17.5t23.5 18t22.5 14t25.5 12.5t25.5 7t28.5 3.5v0zM800 374q15 0 21 -5q6 -4 8 -15q1 -6 -0.5 -23t-1.5 -25q7 -81 66 -147q-36 -1 -62 26t-27 64v1q-3 22 -3 61.5t-1 62.5v0zM2047 370q3 0 14.5 -1.5t17.5 -2.5q9 -1 13 -3l-2 -1q-27 -14 -52.5 -36t-55 -52
t-45.5 -45q-19 0 -33 2q-18 3 -24 7q-3 2 -4 4q-1 3 1 6q3 10 22 24q24 28 42.5 45.5t48 34t57.5 18.5v0zM2119 360q15 -1 21 -4q2 -1 2 -2l-1 -1q-2 -4 -10 -9q-8 -4 -20 -9l-1 -1q-15 -11 -31 -26t-25.5 -26t-27 -31.5t-24.5 -28.5q-23 0 -31 1q-11 2 -14 5q-1 1 0 3
q0 2 2 5q5 8 20 19l30.5 30.5t35 33.5t32.5 23t42 18zM842 359q35 0 45 -22q6 -13 10 -56q18 -100 77 -149q-39 -3 -70 27q-27 26 -47 74q-26 64 -15 127v-1zM2170 346q35 2 72 -33q-49 -1 -93 -28t-75 -70q-22 -2 -35 0q-12 3 -15.5 7.5t2.5 12.5q4 9 21 24q32 36 60 58.5
t63 28.5v0zM903 339q9 -3 30 -8t31 -8q15 -6 20 -16q5 -8 7 -50q2 -96 44 -137q-40 0 -70 35q-27 31 -44 82q-17 53 -18 102zM995 314q31 1 44 -18q11 -16 11 -52v0q16 -96 64 -137q-35 -4 -64.5 15t-37.5 53v1q-7 20 -10 41t-4.5 54.5t-2.5 42.5v0zM2257 303q13 0 37 -6
q6 -1 12 -4q-75 -22 -139 -87q-8 2 -30 3q-19 0 -33 2q-1 0 -11 3q-3 2 -3 4q-2 1 2 5q2 4 13 13q69 72 152 67v0zM1063 299q26 -1 38 -19q8 -12 14 -55v0q23 -92 70 -130q-44 -3 -74 31q-32 33 -43 84v0q-8 33 -13 88h8v1zM2364 289q14 -1 20 -3q10 -2 13 -4l1 -1v0v0
l-1 -1q-4 -3 -19 -6v0q-73 -35 -136 -77q-15 -1 -35 1q-15 2 -20 6q-2 2 -2 3q0 3 2 5q5 8 24 19q83 61 153 58v0zM1129 284q9 -1 11 -2q9 -4 17 -15q3 -6 6 -14t6 -20.5t5 -18.5v0q33 -88 79 -128q-47 -2 -79 34q-31 34 -44 89q-12 45 -16 75q8 1 15 0v0zM2461 283
q8 0 15.5 -4t9.5 -8t-1 -7q-4 -4 -14 -5h-1q-26 -11 -73 -36.5t-69 -34.5q-54 5 -61 6q-5 2 -6 2v1q0 1 1 1q5 6 28 16q4 3 22 13.5t24.5 14t22.5 12t25.5 12t24 8t27 6.5t25.5 3zM1171 271q35 2 52 -15q16 -16 22 -53q11 -35 17.5 -51t22.5 -41.5t36 -38.5q-41 -1 -74 33
q-31 31 -51 85q-17 43 -25 81zM2523 262h1q11 -1 17 -3q5 -1 7 -3q-5 -1 -17 -1h-1q-61 -14 -142 -74q-23 0 -32 2q-4 0 -5 1v0q1 4 11 10q4 1 13 5.5t14 6.5q12 6 34 17.5t40 20.5t35 14h1l1 0.5t2 0.5q5 1 6 2q11 3 15 2v-1zM1253 257q5 0 9 -2q7 -3 12 -13q4 -7 8 -23.5
t6 -22.5q30 -83 95 -123q-39 -8 -70 19q-29 26 -45 72q-15 43 -27 93h12v0zM1302 249q21 -1 32 -15q12 -15 19 -51v-1q22 -72 94 -116q-63 2 -108 58q-40 52 -53 124q8 1 16 1v0zM2561 247q11 -1 19 -4q6 -2 8 -3q-1 0 -1 -0.5t-1 -0.5q-5 -2 -19 -3h-2q-14 -5 -29.5 -13
t-25.5 -15t-27 -19t-25 -17q-21 -1 -35 1q-6 1 -9 3q-3 1 -3 3v4q2 3 5 5q8 7 27 16v1q70 43 118 42zM1364 237q17 -1 28 -11q10 -12 18 -43v0q18 -44 52 -77.5t78 -53.5q-64 -3 -118 43q-55 50 -68 123v0q-2 6 -5 19q7 1 15 0v0zM2602 231q2 0 8 -2t17 -8q10 -5 12 -9h1
q-34 3 -65.5 -9.5t-46.5 -39.5q-21 0 -33 2q-14 2 -16 5q-1 1 -1 2t3 5q6 6 25 16q1 1 8.5 5.5t9 5t8 4.5t9 5.5t8.5 4.5t9 4t8.5 3t9.5 3t9 2t10 1h1q2 1 6 0zM1422 227q18 -1 29 -14q6 -7 26 -48q35 -74 103 -111q-62 13 -110 61.5t-62 111.5q8 1 14 0zM1479 219
q19 0 33 -14q7 -7 29 -48v-1q51 -72 146 -115q-63 -3 -118.5 33t-82.5 96q-12 24 -23 49q11 1 16 0zM1525 209q67 2 103 -48v0q4 -4 19.5 -21t21 -23t18.5 -20t21.5 -22t20 -19t22.5 -20q-68 9 -126.5 53t-93.5 107q-6 11 -6 13zM2632 202q12 1 36 -7q11 -3 15 -7h1
q-58 0 -88 -36q-19 -2 -33 1q-13 3 -18 9q-3 5 2 12q8 9 25 17q26 12 59 11h1zM1603 200q52 3 93 -48v-1q4 -4 31 -32.5t38 -39t34 -27t44 -25.5q-29 -16 -61 0q-24 13 -59 48q-13 13 -54 57.5t-66 67.5zM1672 192q63 3 98 -49h1q25 -29 39.5 -44t40 -37t49.5 -35
q-54 2 -100 38q-12 9 -25.5 21.5t-20.5 19.5t-24.5 25.5t-20.5 21.5q-27 30 -37 39zM1762 184q20 -1 36 -10q22 -13 43 -40v-1q36 -42 68 -69t70 -39q-40 -10 -77 12q-29 17 -75 61q-15 14 -40.5 43.5t-39.5 42.5q2 0 5 0.5t5.5 0.5t4.5 -1zM2686 177q9 0 17 -2q10 -4 12 -5
v-1q-4 -1 -18 0v0q-8 -2 -16 -4.5t-18 -7.5t-14 -6q-22 -8 -39 -1q29 28 77 27h-1zM1815 177q9 -2 29 -3t29 -2q36 -6 47 -34v0q21 -27 35 -43t37.5 -35.5t46.5 -30.5q-56 -4 -103 29q-45 30 -92 88v0q-24 25 -29 31zM1913 167q50 -3 54 -4q32 -7 46 -33v-1q57 -68 95 -99
q-68 -8 -120 46q-38 37 -75 91zM2014 162q8 0 11 -1q13 -3 22 -10q15 -11 37 -42q41 -53 80 -78q-25 -9 -51 8q-15 11 -46 44q-12 13 -33.5 39.5t-32.5 38.5q8 1 13 1zM2735 151v-2q0 -2 -5 -3.5t-15 -3t-12 -1.5q-18 -3 -29 -3q-15 0 -19 3q0 1 5 4q36 14 53 16
q18 1 23 -10h-1zM2080 157h6q11 -2 22 -11q6 -4 12 -10t14.5 -16.5t11.5 -13.5q57 -55 119 -67q-31 -20 -65 -12q-39 8 -64 41h-1q-30 27 -73 88q11 2 18 1zM2123 150q35 0 54 -4q30 -8 45 -34h1q44 -40 91 -62q-55 -5 -105 23t-86 77zM2223 144q48 -2 79 -35h1
q50 -38 90 -63q-49 -5 -99 27q-29 18 -84 71h13zM2283 138q68 1 110 -37q41 -30 88 -59q-20 -13 -48 -4q-8 4 -17.5 9t-20.5 11t-16 9q-38 25 -96 71zM2743 130h-3q-4 -1 -13 -1t-13 1q-1 0 -2.5 0.5t-2.5 0.5q3 1 12 3l4 2q14 0 18 -6zM2374 134h8q12 -3 23 -10
q6 -4 13 -10t15.5 -13.5t13.5 -11.5q40 -30 80 -45q-29 -1 -58 18q-11 6 -33.5 22.5t-33.5 22.5q-25 17 -38 26q3 1 9 1h1zM2353 130q4 -1 19 -10q1 0 3 -2q-7 4 -22 12zM2432 128q50 -2 82 -41q30 -25 61 -37q-34 -6 -69 14q-11 6 -23 14t-27 19.5t-22 15.5q-2 2 -7.5 7
t-8.5 8h14zM2511 126q11 -2 20 -8q5 -4 11 -9t13 -12l12 -12q28 -18 64 -22q-26 -13 -51 -5q-34 13 -88 66q13 2 19 2zM2548 119q44 0 99 -36q3 -2 14 -6q2 0 5.5 -1t6 -1.5t4.5 -1.5h0.5h0.5q0 -1 -2 -1h-2q-35 -6 -70 7t-56 40zM2748 106q-1 -4 -6.5 -4.5t-13.5 1.5
t-15.5 4.5l-15 5t-9.5 3.5q8 3 21.5 2t26.5 -5t12 -7zM2633 106q20 -3 72 -25q-1 0 -4.5 -0.5t-5.5 -0.5q-12 1 -18 3q-7 1 -11 4h-1q-7 3 -32 19zM2692 102q14 0 25 -2q2 -1 9 -3l4 -2q0 -2 -1 -2q-3 -3 -8 -6q-12 3 -34 15h2h3zM1447 73l12 -6q-4 1 -10 5q-1 1 -1.5 1
h-0.5zM1459 67l8 -4zM441 223h15l18 -54l18 54h15v-79h-10v69l-18 -54h-10l-18 54v-69h-10v79zM372 223h60v-9h-25v-70h-10v70h-25v9z" />
    <glyph glyph-name="hbase" unicode="&#xe6fe;" 
d="M588 349q-54 74 -139 53q-15 -4 -44.5 -6t-34.5 -3q-3 0 -38 -9q12 -35 13 -36q0 -1 21 -30q-13 1 -35 1t-37.5 0.5t-29.5 2.5q-74 12 -208 39q-41 8 -52 37.5t10 66.5q13 23 32 45t33 35t43.5 32.5t40 25.5t46.5 27q20 7 59 22.5t59 23.5q173 35 207 43q14 4 38 32
q10 12 42.5 52t51.5 61q44 46 100 21q-11 -18 -21 -36q-4 -6 -13 -20t-15 -25t-11 -21q-19 -43 -11.5 -67.5t46.5 -49.5q129 -82 193 -182q45 -69 57.5 -148.5t6.5 -176.5q-4 -28 -1 -60.5t16 -59.5q19 -42 5 -85t-52 -65q0 23 -20.5 53t-24.5 45q-3 9 -1 25.5t0 23.5
q10 -12 21.5 -35.5t21.5 -40t20 -18.5q24 36 17 81.5t-45 73.5q-1 -20 -12 -45q-8 -19 -13 -21t-19 10q0 11 12 31.5t13 34.5q-48 3 -80.5 -3t-56.5 -26q2 -1 7.5 -4t7 -3.5t7.5 -3t10.5 -4t13 -4.5t17.5 -5t22 -5.5t28 -6.5q6 -1 7.5 -2t-0.5 -4q-8 2 -33 3t-33 3
q-14 3 -39.5 8t-32.5 7q1 23 25.5 43t56 25.5t61.5 -6.5q3 68 -46.5 129t-119.5 75q-19 3 -54.5 6t-50.5 5q-6 0 -66 16zM849 327l6 8q5 -4 16.5 -12t19.5 -15t15 -14t14 -16.5t15.5 -23t13.5 -20.5q-6 80 -70 132.5t-137 38.5q-21 -4 -43.5 -11t-51.5 -17t-42 -14
q31 -8 88 -15t79 -12q42 -8 73.5 -35.5t60.5 -70.5q7 5 9 7zM331 325q-19 48 -30 55t-54 -1q-25 -3 -55 -1q-24 1 -51.5 3t-60.5 5t-51 4l-1 -9q39 -8 142 -27t161 -29zM391 475q2 22 -35.5 29t-67.5 -5q-23 -9 -37.5 -22.5t-18.5 -38.5q3 -16 31.5 -18.5t66 12t61.5 43.5z
M539 211q-79 18 -144.5 67t-86.5 106l-3 8l9 1q14 1 54 7q88 12 133 10q6 0 11 -1q19 -5 56 -31q1 0 1.5 -1l0.5 -1l-15 23l162 -155l-7 -5q-8 -5 -13 -8q-16 -11 -25 -14q-56 -22 -133 -6zM323 381q23 -53 84 -97t134.5 -60t125.5 5q8 3 23 13l2.5 1.5t4.5 2.5l-106 101
l-1 1q-8 4 -29 19q-35 26 -52 29q-5 1 -8 1q-43 2 -131 -10q-41 -5 -47 -6zM333 669q-21 -9 -64 -25.5t-65 -25.5q-1 30 28.5 62.5t68.5 44.5q1 0 40 6q-3 -24 -8 -62z" />
    <glyph glyph-name="kafka1" unicode="&#xe604;" horiz-adv-x="1956" 
d="M209 758q-34 -19 -47 -54t0.5 -70t48.5 -54q16 -9 20 -15.5t4 -25.5q0 -17 -2.5 -22.5t-9.5 -5.5q-13 0 -40.5 -21t-39.5 -39q-27 -47 -13 -104q8 -26 35 -54.5t50 -33.5q14 -3 17 -7.5t3 -24.5q0 -18 -3 -24t-12 -8q-42 -13 -58.5 -63.5t9.5 -87.5q12 -19 38.5 -33.5
t46.5 -14.5q41 0 72 31t31 71q0 33 -18.5 61t-45.5 36q-9 2 -12 8t-3 24t3 24t12 8q17 4 41 21q18 12 24.5 13t22.5 -6q15 -8 18 -14t3 -27q0 -62 50 -92t103 0q32 18 44 52.5t1 69t-42 53.5q-22 13 -54 12.5t-56 -13.5q-17 -9 -23.5 -10t-20.5 6q-13 7 -15.5 15.5
t-2.5 44.5t2.5 44.5t16.5 15.5q13 7 19.5 6t23.5 -10q22 -12 53 -13.5t51 9.5q23 12 38 37t15 51q0 40 -24 68.5t-58 33.5t-72 -12q-49 -27 -49 -92q0 -21 -3 -27t-19 -14t-22 -7t-21 13q-25 18 -40 21q-12 3 -15.5 8.5t-3.5 24.5q0 18 3 24t12 8q42 13 58 61.5t-9 85.5
q-26 38 -61.5 48t-73.5 -10zM293.5 696q14.5 -18 10.5 -34t-15.5 -27.5t-30 -11t-33.5 15t-15.5 27.5t12.5 30q15 18 36 18t35.5 -18zM548 544q12 -28 -8 -49.5t-49 -11.5q-20 7 -28 23.5t-1 35.5q12 28 43 29t43 -27zM304 430q43 -43 5 -88q-20 -24 -49 -25.5t-50 18.5
t-21 52q0 23 22 44t47 21q24 0 46 -22zM538 273q16 -15 16 -25q0 -27 -22.5 -43t-44.5 -6q-12 5 -21 20t-9 29q0 11 17.5 26t30.5 15q18 0 33 -16zM290 130q15 -15 15.5 -28t-12.5 -30q-14 -18 -35.5 -18t-35.5 18q-13 17 -13 30t17 28.5t32 15.5q17 0 32 -16zM760 533
q-3 -6 -3 -150v-146h52v38q2 41 2 49q0 16 10 5q9 -9 33 -43q25 -36 33.5 -42.5t29.5 -6.5q29 0 29 5.5t-43 59.5l-9 12q-26 34 -25.5 45t30.5 42l11 11q33 36 34 41q1 2 -2.5 3t-10 2t-13.5 1q-21 0 -30.5 -5.5t-33.5 -33.5q-35 -39 -39 -39t-6 72q-1 74 -3 78
q-3 4 -22.5 5t-23.5 -3zM1297 533q-11 -3 -21.5 -19.5t-11.5 -32.5q-2 -16 -16 -23q-15 -5 -15.5 -22t13.5 -21q9 -2 11 -14.5t2 -64.5q2 -80 2 -86q1 -10 29 -11l28 -2v176h16q11 0 13.5 4t2.5 19t-2.5 19t-13.5 4q-10 0 -13 3.5t-3 12.5q0 16 16 21q9 2 12.5 7t3.5 15
q0 13 -3.5 16t-17.5 3q-25 -2 -32 -4zM1394 533q-5 -4 -5 -150v-146h52v107l38 -53l37 -53l32 -1h32l-16 22q-70 93 -70 99q0 5 43 51l45 47l-31 2q-21 1 -30.5 -4t-37.5 -35l-38 -40l-4 77l-3 78l-19 2q-20 2 -25 -3zM1034 456q-33 -12 -54 -43.5t-21 -68.5q0 -31 21 -64
t49 -43q20 -8 50 -6t48 13q20 10 21 3q0 -10 26 -10h26v222h-26q-17 0 -21.5 -2.5t-4.5 -10.5q0 -10 -2.5 -10t-15.5 10q-18 14 -45 16.5t-51 -6.5zM1129 393q20 -21 20 -45.5t-20 -46.5q-12 -14 -21 -17.5t-29 -3.5q-62 0 -62 66q0 22 12 39.5t28.5 24.5t36.5 3t35 -20z
M1669 459q-43 -13 -64 -56t-11 -89.5t49 -68.5q25 -14 60.5 -14.5t52.5 13.5q28 21 22 3q-2 -6 3 -8t22 -2h30v222h-26q-17 0 -21.5 -2.5t-4.5 -10.5q0 -6 -2 -9.5t-5 -3.5q-6 0 -6 6t-27 16t-41 10q-15 0 -31 -6zM1756 394q13 -11 17 -20t4 -24q0 -33 -20 -53.5t-48 -19
t-48 25.5q-16 19 -17.5 40t9 36.5t26.5 25.5t37.5 8t39.5 -19z" />
  </font>
</defs>
</svg>
