<?xml version="1.0" encoding="utf-8"?>
<!-- Generator: Adobe Illustrator 20.1.0, SVG Export Plug-In . SVG Version: 6.00 Build 0)  -->
<svg version="1.1" id="Layer_1" xmlns="http://www.w3.org/2000/svg" xmlns:xlink="http://www.w3.org/1999/xlink" x="0px" y="0px"
	 width="64px" height="64px" viewBox="0 0 64 64" style="enable-background:new 0 0 64 64;" xml:space="preserve">
<style type="text/css">
	.st0{fill:#F2F2F2;}
</style>
<path class="st0" d="M57.3,41.8V35c0-3.5-2.8-6.3-6.3-6.3H34.7v-6.5c3.9-1.2,6.7-4.8,6.7-9v0c0-5.2-4.2-9.4-9.4-9.4
	s-9.4,4.2-9.4,9.4v0c0,4.3,2.8,7.9,6.7,9v6.5H13.1c-3.5,0-6.3,2.8-6.3,6.3v6.8C2.8,43,0,46.6,0,50.9v0c0,5.2,4.2,9.4,9.4,9.4
	s9.4-4.2,9.4-9.4v0c0-4.3-2.8-7.9-6.7-9v-5.7c0-1.1,0.9-2,2-2h15.2v7.7c-3.9,1.2-6.7,4.8-6.7,9v0c0,5.2,4.2,9.4,9.4,9.4
	s9.4-4.2,9.4-9.4v0c0-4.3-2.8-7.9-6.7-9v-7.7h15.2c1.1,0,2,0.9,2,2v5.7c-3.9,1.2-6.7,4.8-6.7,9v0c0,5.2,4.2,9.4,9.4,9.4
	s9.4-4.2,9.4-9.4v0C64,46.6,61.2,43,57.3,41.8z"/>
</svg>
