<?xml version="1.0" encoding="utf-8"?>
<!-- Generator: Adobe Illustrator 20.1.0, SVG Export Plug-In . SVG Version: 6.00 Build 0)  -->
<svg version="1.1" id="Layer_1" xmlns="http://www.w3.org/2000/svg" xmlns:xlink="http://www.w3.org/1999/xlink" x="0px" y="0px"
	 width="64px" height="64px" viewBox="0 0 64 64" style="enable-background:new 0 0 64 64;" xml:space="preserve">
<style type="text/css">
	.st0{fill:#E3E2E2;}
</style>
<g>
	<path class="st0" d="M62.5,55.1L43.9,36.6C49.8,27.4,48.7,15,40.7,7C31.4-2.3,16.3-2.3,7,7s-9.3,24.4,0,33.7c8,8,20.4,9.1,29.6,3.3
		l18.5,18.5c2,2,5.3,2,7.4,0C64.5,60.5,64.5,57.2,62.5,55.1z M23.8,40.2c-4.4,0-8.5-1.7-11.6-4.8c-3.1-3.1-4.8-7.2-4.8-11.6
		s1.7-8.5,4.8-11.6c3.1-3.1,7.2-4.8,11.6-4.8c4.4,0,8.5,1.7,11.6,4.8c6.4,6.4,6.4,16.8,0,23.2C32.3,38.5,28.2,40.2,23.8,40.2z"/>
</g>
<path class="st0" d="M33.3,27H14.4c-0.3,0-0.5-0.2-0.5-0.5v-5.1c0-0.3,0.2-0.5,0.5-0.5h18.9c0.3,0,0.5,0.2,0.5,0.5v5.1
	C33.8,26.7,33.6,27,33.3,27z"/>
</svg>
