<?xml version="1.0" encoding="utf-8"?>
<!-- Generator: Adobe Illustrator 20.1.0, SVG Export Plug-In . SVG Version: 6.00 Build 0)  -->
<svg version="1.1" id="Layer_1" xmlns="http://www.w3.org/2000/svg" xmlns:xlink="http://www.w3.org/1999/xlink" x="0px" y="0px"
	 width="64px" height="64px" viewBox="0 0 64 64" style="enable-background:new 0 0 64 64;" xml:space="preserve">
<style type="text/css">
	.st0{fill:#E3E2E2;}
	.st1{fill:url(#SVGID_1_);}
</style>
<g>
	<path class="st0" d="M36.4,38.5h4.1v-4.1c0-1.7,0.8-3.2,2.1-4.2V17.9l-6.5,6.5v9c0,0.9-0.8,1.7-1.7,1.7h-7l0,4.2L23,35.1H8.2
		c-0.9,0-1.7-0.7-1.7-1.7V14c0-0.9,0.8-1.7,1.7-1.7h23.2l6.5-6.5H8.2C3.7,5.8,0,9.4,0,14v19.4c0,4.5,3.7,8.2,8.2,8.2h12.2l10.6,10
		v-7.8C31,40.9,33.4,38.5,36.4,38.5z"/>
	<rect x="24.6" y="13.1" transform="matrix(0.7071 -0.7071 0.7071 0.7071 -1.2036 29.9862)" class="st0" width="22" height="6.7"/>
	<path class="st0" d="M47.6,9.2l0.2-0.2l1.3-1.3c1.3-1.3,1.3-3.4,0-4.7c-1.3-1.3-3.4-1.3-4.7,0l-1.3,1.3l-0.2,0.2L42,5.3l4.7,4.7
		L47.6,9.2z"/>
	<polygon class="st0" points="24.2,24.3 24.1,24.7 23.5,28.5 27.3,27.9 27.7,27.8 29.2,27.6 24.5,22.9 	"/>
	<linearGradient id="SVGID_1_" gradientUnits="userSpaceOnUse" x1="49.7973" y1="81.1627" x2="49.7973" y2="20.6088">
		<stop  offset="0" style="stop-color:#FFF23A"/>
		<stop  offset="4.010540e-02" style="stop-color:#FEE62D"/>
		<stop  offset="0.1171" style="stop-color:#FED41A"/>
		<stop  offset="0.1964" style="stop-color:#FDC90F"/>
		<stop  offset="0.2809" style="stop-color:#FDC60B"/>
		<stop  offset="0.6685" style="stop-color:#F28F3F"/>
		<stop  offset="0.8876" style="stop-color:#ED693C"/>
		<stop  offset="1" style="stop-color:#E83E39"/>
	</linearGradient>
	<path class="st1" d="M63.2,43.1h-4.8h-0.4h-3.6v-8.7c0-0.4-0.3-0.8-0.8-0.8h-7.9c-0.4,0-0.8,0.3-0.8,0.8v8.7h-8.7
		c-0.4,0-0.8,0.3-0.8,0.8v7.9c0,0.4,0.3,0.8,0.8,0.8h8.7v3v1.2v4.4c0,0.4,0.3,0.8,0.8,0.8h7.9c0.4,0,0.8-0.3,0.8-0.8v-8.7h8.7
		c0.4,0,0.8-0.3,0.8-0.8v-7.9C64,43.4,63.7,43.1,63.2,43.1z"/>
</g>
</svg>
