<?xml version="1.0" encoding="utf-8"?>
<!-- Generator: Adobe Illustrator 20.1.0, SVG Export Plug-In . SVG Version: 6.00 Build 0)  -->
<svg version="1.1" id="Layer_1" xmlns="http://www.w3.org/2000/svg" xmlns:xlink="http://www.w3.org/1999/xlink" x="0px" y="0px"
	 width="64px" height="64px" viewBox="0 0 64 64" style="enable-background:new 0 0 64 64;" xml:space="preserve">
<style type="text/css">
	.st0{fill:#E3E3E3;}
</style>
<g>
	<path class="st0" d="M49.4,45.1L62,16.6l-5.8-2.6l0.8-3l-8.6-2.4v-5H43l-0.2-1.4l-9,1.4h-1.1L24.2,0l-0.8,1.8l-6.2-1.7l-1,3.6H7.2
		v4.1L2,8.6l4.6,29.9l-1,3.6l-2.3,5.2l0.8,0.3L3.5,50l3.7,1v4.4h35.7l-19,0.2l16.9,4.7l-18-4.7L9.3,55.8l0.6,4l15.9-2.5L41.1,64
		l1.4-3.2l0.7,0.2l1.4-5l0.2-0.5h3.6v-1.7l2.3-0.3L49.4,45.1z M48.4,31.2v-12l0.1-0.3c0.2-0.6,0.1-1.2-0.1-1.7v-5.5l5,1.4L48.4,31.2
		z M58.1,18.1l-8.2,18.7l5.5-19.9L58.1,18.1z M19.3,3.7L19.3,3.7L19.3,3.7L19.3,3.7z M10.1,6.6h35.4V43H10.1V6.6z M7.2,10.7V23
		L5.4,11L7.2,10.7z"/>
	<polygon class="st0" points="19.3,3.7 19.3,3.7 19.3,3.7 	"/>
	<path class="st0" d="M14.4,21.9c0,0.9,0.7,1.7,1.7,1.7h8.4c0.9,0,1.7-0.7,1.7-1.7v-8.4c0-0.9-0.7-1.7-1.7-1.7h-8.4
		c-0.9,0-1.7,0.7-1.7,1.7V21.9z"/>
	<path class="st0" d="M39.6,26.6h-8.4c-0.9,0-1.7,0.7-1.7,1.7v8.4c0,0.9,0.7,1.7,1.7,1.7h8.4c0.9,0,1.7-0.7,1.7-1.7v-8.4
		C41.2,27.4,40.5,26.6,39.6,26.6z"/>
	<path class="st0" d="M31.2,11.8c-0.9,0-1.7,0.7-1.7,1.7v8.4c0,0.9,0.7,1.7,1.7,1.7h8.4c0.9,0,1.7-0.7,1.7-1.7v-8.4
		c0-0.9-0.7-1.7-1.7-1.7H31.2z"/>
	<path class="st0" d="M16.1,26.6c-0.9,0-1.7,0.7-1.7,1.7v8.4c0,0.9,0.7,1.7,1.7,1.7h8.4c0.9,0,1.7-0.7,1.7-1.7v-8.4
		c0-0.9-0.7-1.7-1.7-1.7H16.1z"/>
</g>
</svg>
