<?xml version="1.0" encoding="utf-8"?>
<!-- Generator: Adobe Illustrator 20.1.0, SVG Export Plug-In . SVG Version: 6.00 Build 0)  -->
<svg version="1.1" id="Layer_1" xmlns="http://www.w3.org/2000/svg" xmlns:xlink="http://www.w3.org/1999/xlink" x="0px" y="0px"
	 width="64px" height="64px" viewBox="0 0 64 64" style="enable-background:new 0 0 64 64;" xml:space="preserve">
<style type="text/css">
	.st0{fill:#E3E3E3;}
</style>
<g>
	<path class="st0" d="M63.8,55.9h-2.1c-0.1,0-0.2-0.1-0.2-0.2V20.3c0-0.1-0.1-0.2-0.2-0.2l-20.5-3.1c0,0-0.1,0-0.1,0l-4.7,1.3
		c-0.1,0-0.2,0.1-0.2,0.2l-1.3,16.4c0,0.2-0.3,0.2-0.3,0V6.7c0-0.1-0.1-0.2-0.2-0.2L13.4,3.4c0,0-0.1,0-0.1,0L5.2,6
		C5.1,6,5.1,6.1,5.1,6.2L3.2,55.7c0,0.1-0.1,0.2-0.2,0.2H0.2C0.1,55.9,0,56,0,56.1v4.3c0,0.1,0.1,0.2,0.2,0.2h4.8h13.2
		c0.1,0,0.2-0.1,0.2-0.2v-4.5V9.1c0-0.1,0.1-0.3,0.3-0.2L29,10.3c0.1,0,0.2,0.1,0.2,0.2v50.1h0.2h2.9h1.8h1.2h0.4h9.8
		c0.1,0,0.2-0.1,0.2-0.2v-4.5V22.7c0-0.1,0.1-0.3,0.3-0.2l10.2,1.4c0.1,0,0.2,0.1,0.2,0.2v36.5h0.2h4.7h2.4c0.1,0,0.2-0.1,0.2-0.2
		v-4.3C64,56,63.9,55.9,63.8,55.9z"/>
	<path class="st0" d="M26.6,17.6l-5.5-0.9c-0.3,0-0.6,0.2-0.6,0.6v2.4c0,0.3,0.2,0.5,0.5,0.6l5.5,0.9c0.3,0,0.6-0.2,0.6-0.6v-2.4
		C27.1,17.9,26.9,17.6,26.6,17.6z"/>
	<path class="st0" d="M26.6,23.2l-5.5-0.9c-0.3,0-0.6,0.2-0.6,0.6v2.4c0,0.3,0.2,0.5,0.5,0.6l5.5,0.9c0.3,0,0.6-0.2,0.6-0.6v-2.4
		C27.1,23.5,26.9,23.2,26.6,23.2z"/>
	<path class="st0" d="M26.6,28.7l-5.5-0.9c-0.3,0-0.6,0.2-0.6,0.6v2.4c0,0.3,0.2,0.5,0.5,0.6l5.5,0.9c0.3,0,0.6-0.2,0.6-0.6v-2.4
		C27.1,29,26.9,28.8,26.6,28.7z"/>
	<path class="st0" d="M26.6,34.3l-5.5-0.9c-0.3,0-0.6,0.2-0.6,0.6v2.4c0,0.3,0.2,0.5,0.5,0.6l5.5,0.9c0.3,0,0.6-0.2,0.6-0.6v-2.4
		C27.1,34.6,26.9,34.3,26.6,34.3z"/>
	<path class="st0" d="M26.6,39.9L21.1,39c-0.3,0-0.6,0.2-0.6,0.6v2.4c0,0.3,0.2,0.5,0.5,0.6l5.5,0.9c0.3,0,0.6-0.2,0.6-0.6v-2.4
		C27.1,40.1,26.9,39.9,26.6,39.9z"/>
	<path class="st0" d="M26.6,45.4l-5.5-0.9c-0.3,0-0.6,0.2-0.6,0.6v2.4c0,0.3,0.2,0.5,0.5,0.6l5.5,0.9c0.3,0,0.6-0.2,0.6-0.6V46
		C27.1,45.7,26.9,45.5,26.6,45.4z"/>
	<path class="st0" d="M26.6,12.1l-5.5-0.9c-0.3,0-0.6,0.2-0.6,0.6v2.4c0,0.3,0.2,0.5,0.5,0.6l5.5,0.9c0.3,0,0.6-0.2,0.6-0.6v-2.4
		C27.1,12.3,26.9,12.1,26.6,12.1z"/>
	<path class="st0" d="M53.9,30.6l-5.6-0.9c-0.3,0-0.5,0.2-0.5,0.5v2.4c0,0.2,0.2,0.4,0.4,0.5l5.6,0.9c0.3,0,0.5-0.2,0.5-0.5V31
		C54.4,30.8,54.2,30.6,53.9,30.6z"/>
	<path class="st0" d="M53.9,35.9L48.4,35c-0.3,0-0.5,0.2-0.5,0.5v2.4c0,0.2,0.2,0.4,0.4,0.5l5.6,0.9c0.3,0,0.5-0.2,0.5-0.5v-2.4
		C54.4,36.1,54.2,35.9,53.9,35.9z"/>
	<path class="st0" d="M53.9,41.2l-5.6-0.9c-0.3,0-0.5,0.2-0.5,0.5v2.4c0,0.2,0.2,0.4,0.4,0.5l5.6,0.9c0.3,0,0.5-0.2,0.5-0.5v-2.4
		C54.4,41.4,54.2,41.2,53.9,41.2z"/>
	<path class="st0" d="M53.9,46.5l-5.6-0.9c-0.3,0-0.5,0.2-0.5,0.5v2.4c0,0.2,0.2,0.4,0.4,0.5l5.6,0.9c0.3,0,0.5-0.2,0.5-0.5V47
		C54.4,46.7,54.2,46.5,53.9,46.5z"/>
	<path class="st0" d="M53.9,25.3l-5.6-0.9c-0.3,0-0.5,0.2-0.5,0.5v2.4c0,0.2,0.2,0.4,0.4,0.5l5.6,0.9c0.3,0,0.5-0.2,0.5-0.5v-2.4
		C54.4,25.5,54.2,25.3,53.9,25.3z"/>
</g>
</svg>
