<?xml version="1.0" encoding="utf-8"?>
<!-- Generator: Adobe Illustrator 20.1.0, SVG Export Plug-In . SVG Version: 6.00 Build 0)  -->
<svg version="1.1" id="Layer_1" xmlns="http://www.w3.org/2000/svg" xmlns:xlink="http://www.w3.org/1999/xlink" x="0px" y="0px"
	 width="64px" height="64px" viewBox="0 0 64 64" style="enable-background:new 0 0 64 64;" xml:space="preserve">
<style type="text/css">
	.st0{fill:none;}
	.st1{fill:#E3E3E3;}
</style>
<path class="st0" d="M32.1,49.1c-1.9,0-3.5-1.6-3.5-3.5s1.6-3.5,3.5-3.5c1.9,0,3.5,1.6,3.5,3.5S34.1,49.1,32.1,49.1z M34.4,36.2v3.4
	h-4.5v-7.9h2.4v0c3,0,5.4-2.4,5.4-5.3s-2.4-5.3-5.4-5.3c-2.1,0-3.9,1.1-4.9,2.9L23.1,22c1.7-3.4,5.2-5.6,9.1-5.6
	c5.6,0,10.2,4.5,10.2,10C42.4,31.2,39,35.2,34.4,36.2z"/>
<path class="st1" d="M32.2,16.4c-3.9,0-7.4,2.1-9.1,5.6l4.3,2.1c0.9-1.8,2.8-2.9,4.9-2.9c3,0,5.4,2.4,5.4,5.3s-2.4,5.3-5.4,5.3v0
	h-2.4v7.9h4.5v-3.4c4.6-1,8-5,8-9.8C42.4,20.9,37.9,16.4,32.2,16.4z"/>
<circle class="st1" cx="32.1" cy="45.6" r="3.5"/>
<path class="st1" d="M32,0C14.4,0,0,14.4,0,32s14.4,32,32,32s32-14.4,32-32S49.6,0,32,0z M32,58.9c-14.8,0-26.9-12-26.9-26.9
	S17.2,5.1,32,5.1s26.9,12,26.9,26.9S46.8,58.9,32,58.9z"/>
</svg>
