<?xml version="1.0" encoding="utf-8"?>
<!-- Generator: Adobe Illustrator 20.1.0, SVG Export Plug-In . SVG Version: 6.00 Build 0)  -->
<svg version="1.1" id="Layer_1" xmlns="http://www.w3.org/2000/svg" xmlns:xlink="http://www.w3.org/1999/xlink" x="0px" y="0px"
	 width="64px" height="64px" viewBox="0 0 64 64" style="enable-background:new 0 0 64 64;" xml:space="preserve">
<style type="text/css">
	.st0{fill:#E2E2E2;}
	.st1{fill:url(#SVGID_1_);}
</style>
<g>
	<path class="st0" d="M28.9,46.2c-0.1,0-0.2,0-0.3,0c-12.6,0-23.3-3.7-28.2-9.3C0.1,37.7,0,38.5,0,39.2c0,7.4,13.1,13.7,28.6,13.7
		c0.1,0,0.2,0,0.3,0c0-0.1,0-0.3,0-0.5V46.2z"/>
	<path class="st0" d="M52.3,28.2h0.8c1.3,0,2.5,0.4,3.5,1.2c0.4-0.9,0.6-1.7,0.6-2.7c0-0.8-0.1-1.5-0.4-2.2
		C55.6,25.9,54.1,27.1,52.3,28.2z"/>
	<path class="st0" d="M39,38.3L39,38.3v-4.4c0-0.3,0-0.7,0.1-1c-3.3,0.6-6.8,0.9-10.5,0.9c-12.6,0-23.3-3.7-28.2-9.3
		C0.1,25.3,0,26,0,26.8c0,7.4,13.1,13.7,28.6,13.7c0.5,0,1,0,1.5,0c1-1.3,2.6-2.1,4.4-2.1H39z"/>
	<path class="st0" d="M28.6,28c15.5,0,28.6-6.3,28.6-13.7S44.1,0.7,28.6,0.7C13.1,0.7,0,6.9,0,14.3S13.1,28,28.6,28z"/>
	<linearGradient id="SVGID_1_" gradientUnits="userSpaceOnUse" x1="48.8766" y1="83.909" x2="48.8766" y2="19.4296">
		<stop  offset="0" style="stop-color:#FFF23A"/>
		<stop  offset="4.010540e-02" style="stop-color:#FEE62D"/>
		<stop  offset="0.1171" style="stop-color:#FED41A"/>
		<stop  offset="0.1964" style="stop-color:#FDC90F"/>
		<stop  offset="0.2809" style="stop-color:#FDC60B"/>
		<stop  offset="0.6685" style="stop-color:#F28F3F"/>
		<stop  offset="0.8876" style="stop-color:#ED693C"/>
		<stop  offset="1" style="stop-color:#E83E39"/>
	</linearGradient>
	<path class="st1" d="M63.2,43.2h-5.1h-0.4h-1.8h-2v-3.6v-5.7c0-0.2-0.1-0.5-0.3-0.6c-0.1-0.1-0.3-0.2-0.5-0.2h-8.4
		c-0.4,0-0.8,0.4-0.8,0.8v4.4v4.9h-9.3c-0.4,0-0.8,0.4-0.8,0.8v2v6.4c0,0.1,0,0.2,0,0.2c0.1,0.3,0.4,0.6,0.8,0.6h9.3v3.2v1.3v4.7
		c0,0.4,0.4,0.8,0.8,0.8h8.4c0.4,0,0.8-0.4,0.8-0.8v-9.3h9.3c0.4,0,0.8-0.4,0.8-0.8V44C64,43.5,63.6,43.2,63.2,43.2z"/>
</g>
</svg>
