<?xml version="1.0" encoding="utf-8"?>
<!-- Generator: Adobe Illustrator 20.1.0, SVG Export Plug-In . SVG Version: 6.00 Build 0)  -->
<svg version="1.1" id="Layer_1" xmlns="http://www.w3.org/2000/svg" xmlns:xlink="http://www.w3.org/1999/xlink" x="0px" y="0px"
	 width="64px" height="64px" viewBox="0 0 64 64" style="enable-background:new 0 0 64 64;" xml:space="preserve">
<style type="text/css">
	.st0{fill:#E3E3E3;}
	.st1{fill:url(#SVGID_1_);}
	.st2{fill:url(#SVGID_2_);}
	.st3{fill:url(#SVGID_3_);}
	.st4{fill:url(#SVGID_4_);}
	.st5{fill:url(#SVGID_5_);}
	.st6{fill:url(#SVGID_6_);}
</style>
<g>
	<g>
		<path class="st0" d="M32,59.4c3.3,0,6-2.7,6-6H26C26,56.7,28.7,59.4,32,59.4z"/>
	</g>
</g>
<g>
	<path class="st0" d="M47.7,43.8v-7.6c0-9.4-4.9-17.2-11.6-19.6c0-2.3-1.8-4.1-4.1-4.1c-2.3,0-4.1,1.8-4.1,4.1
		c-6.7,2.3-11.6,10.2-11.6,19.6v7.6c-1.8,0-3.3,1.5-3.3,3.3c0,1.8,1.5,3.3,3.3,3.3v0h0h31.4h0v0c1.8,0,3.3-1.5,3.3-3.3
		C51,45.3,49.6,43.9,47.7,43.8z"/>
</g>
<g>
	<linearGradient id="SVGID_1_" gradientUnits="userSpaceOnUse" x1="52.0976" y1="33.7801" x2="52.0976" y2="-1.9525">
		<stop  offset="0" style="stop-color:#FFF33B"/>
		<stop  offset="5.948725e-02" style="stop-color:#FFE029"/>
		<stop  offset="0.1303" style="stop-color:#FFD218"/>
		<stop  offset="0.2032" style="stop-color:#FEC90F"/>
		<stop  offset="0.2809" style="stop-color:#FDC70C"/>
		<stop  offset="0.6685" style="stop-color:#F3903F"/>
		<stop  offset="0.8876" style="stop-color:#ED683C"/>
		<stop  offset="1" style="stop-color:#E93E3A"/>
	</linearGradient>
	<path class="st1" d="M56.4,24.4c-0.7,0-1.3-0.4-1.5-1c-1.8-4.3-4.6-8.2-8.1-11.3c-0.7-0.6-0.8-1.7-0.2-2.4c0.6-0.7,1.7-0.8,2.4-0.2
		c3.9,3.4,7.1,7.8,9,12.6c0.4,0.9-0.1,1.8-0.9,2.2C56.8,24.4,56.6,24.4,56.4,24.4z"/>
</g>
<g>
	<linearGradient id="SVGID_2_" gradientUnits="userSpaceOnUse" x1="46.9877" y1="33.7801" x2="46.9877" y2="-1.9525">
		<stop  offset="0" style="stop-color:#FFF33B"/>
		<stop  offset="5.948725e-02" style="stop-color:#FFE029"/>
		<stop  offset="0.1303" style="stop-color:#FFD218"/>
		<stop  offset="0.2032" style="stop-color:#FEC90F"/>
		<stop  offset="0.2809" style="stop-color:#FDC70C"/>
		<stop  offset="0.6685" style="stop-color:#F3903F"/>
		<stop  offset="0.8876" style="stop-color:#ED683C"/>
		<stop  offset="1" style="stop-color:#E93E3A"/>
	</linearGradient>
	<path class="st2" d="M50.3,26.9c-0.7,0-1.3-0.4-1.5-1c-1.4-3.3-3.5-6.3-6.2-8.6c-0.7-0.6-0.8-1.7-0.2-2.4c0.6-0.7,1.7-0.8,2.4-0.2
		c3.1,2.7,5.5,6.1,7.1,9.9c0.4,0.9-0.1,1.8-0.9,2.2C50.7,26.8,50.5,26.9,50.3,26.9z"/>
</g>
<g>
	<linearGradient id="SVGID_3_" gradientUnits="userSpaceOnUse" x1="57.4685" y1="33.7801" x2="57.4685" y2="-1.9525">
		<stop  offset="0" style="stop-color:#FFF33B"/>
		<stop  offset="5.948725e-02" style="stop-color:#FFE029"/>
		<stop  offset="0.1303" style="stop-color:#FFD218"/>
		<stop  offset="0.2032" style="stop-color:#FEC90F"/>
		<stop  offset="0.2809" style="stop-color:#FDC70C"/>
		<stop  offset="0.6685" style="stop-color:#F3903F"/>
		<stop  offset="0.8876" style="stop-color:#ED683C"/>
		<stop  offset="1" style="stop-color:#E93E3A"/>
	</linearGradient>
	<path class="st3" d="M62.3,21.4c-0.7,0-1.3-0.4-1.5-1c-2-4.9-5.2-9.4-9.3-12.9c-0.7-0.6-0.8-1.7-0.2-2.4C52,4.5,53,4.4,53.7,5
		c4.4,3.8,7.9,8.7,10.2,14.1c0.4,0.9-0.1,1.8-0.9,2.2C62.8,21.4,62.5,21.4,62.3,21.4z"/>
</g>
<g>
	<linearGradient id="SVGID_4_" gradientUnits="userSpaceOnUse" x1="11.902" y1="33.7801" x2="11.902" y2="-1.9525">
		<stop  offset="0" style="stop-color:#FFF33B"/>
		<stop  offset="5.948725e-02" style="stop-color:#FFE029"/>
		<stop  offset="0.1303" style="stop-color:#FFD218"/>
		<stop  offset="0.2032" style="stop-color:#FEC90F"/>
		<stop  offset="0.2809" style="stop-color:#FDC70C"/>
		<stop  offset="0.6685" style="stop-color:#F3903F"/>
		<stop  offset="0.8876" style="stop-color:#ED683C"/>
		<stop  offset="1" style="stop-color:#E93E3A"/>
	</linearGradient>
	<path class="st4" d="M7.6,24.4c-0.2,0-0.4,0-0.6-0.1c-0.9-0.4-1.3-1.3-0.9-2.2c2-4.8,5.1-9.2,9-12.6c0.7-0.6,1.8-0.5,2.4,0.2
		c0.6,0.7,0.5,1.8-0.2,2.4c-3.5,3.1-6.4,7-8.1,11.3C8.9,24,8.3,24.4,7.6,24.4z"/>
</g>
<g>
	<linearGradient id="SVGID_5_" gradientUnits="userSpaceOnUse" x1="17.0123" y1="33.7801" x2="17.0123" y2="-1.9525">
		<stop  offset="0" style="stop-color:#FFF33B"/>
		<stop  offset="5.948725e-02" style="stop-color:#FFE029"/>
		<stop  offset="0.1303" style="stop-color:#FFD218"/>
		<stop  offset="0.2032" style="stop-color:#FEC90F"/>
		<stop  offset="0.2809" style="stop-color:#FDC70C"/>
		<stop  offset="0.6685" style="stop-color:#F3903F"/>
		<stop  offset="0.8876" style="stop-color:#ED683C"/>
		<stop  offset="1" style="stop-color:#E93E3A"/>
	</linearGradient>
	<path class="st5" d="M13.7,26.9c-0.2,0-0.4,0-0.6-0.1c-0.9-0.4-1.3-1.3-0.9-2.2c1.5-3.8,4-7.2,7.1-9.9c0.7-0.6,1.8-0.5,2.4,0.2
		c0.6,0.7,0.5,1.8-0.2,2.4c-2.7,2.3-4.8,5.3-6.2,8.6C15,26.5,14.4,26.9,13.7,26.9z"/>
</g>
<g>
	<linearGradient id="SVGID_6_" gradientUnits="userSpaceOnUse" x1="6.5315" y1="33.7801" x2="6.5315" y2="-1.9525">
		<stop  offset="0" style="stop-color:#FFF33B"/>
		<stop  offset="5.948725e-02" style="stop-color:#FFE029"/>
		<stop  offset="0.1303" style="stop-color:#FFD218"/>
		<stop  offset="0.2032" style="stop-color:#FEC90F"/>
		<stop  offset="0.2809" style="stop-color:#FDC70C"/>
		<stop  offset="0.6685" style="stop-color:#F3903F"/>
		<stop  offset="0.8876" style="stop-color:#ED683C"/>
		<stop  offset="1" style="stop-color:#E93E3A"/>
	</linearGradient>
	<path class="st6" d="M1.7,21.4c-0.2,0-0.4,0-0.6-0.1C0.2,21-0.2,20,0.1,19.1C2.3,13.7,5.9,8.8,10.3,5C11,4.4,12,4.5,12.7,5.2
		c0.6,0.7,0.5,1.8-0.2,2.4c-4,3.5-7.2,8-9.3,12.9C3,21,2.3,21.4,1.7,21.4z"/>
</g>
</svg>
