<svg xmlns="http://www.w3.org/2000/svg" data-name="Layer 1" viewBox="0 0 24 24"><path d="M11,9a1,1,0,0,0,2,0,1,1,0,0,1,1-1h1a1,1,0,0,1,1,1v1a1,1,0,0,1-1,1H14a3,3,0,0,0-3,3v3a1,1,0,0,0,1,1h5a1,1,0,0,0,0-2H13V14a1,1,0,0,1,1-1h1a3,3,0,0,0,3-3V9a3,3,0,0,0-3-3H14A3,3,0,0,0,11,9Zm7-4h1V6a1,1,0,0,0,2,0V5h1a1,1,0,0,0,0-2H21V2a1,1,0,0,0-2,0V3H18a1,1,0,0,0,0,2ZM7,7V17a1,1,0,0,0,2,0V7A1,1,0,0,0,7,7ZM21.6,9a1,1,0,0,0-.78,1.18,9,9,0,1,1-7-7,1,1,0,1,0,.4-2A10.8,10.8,0,0,0,12,1,11,11,0,1,0,23,12a10.8,10.8,0,0,0-.22-2.2A1,1,0,0,0,21.6,9Z"/></svg>