<svg xmlns="http://www.w3.org/2000/svg" data-name="Layer 1" viewBox="0 0 24 24"><path d="M10.94,6.08A6.93,6.93,0,0,1,12,6c3.18,0,6.17,2.29,7.91,6a15.23,15.23,0,0,1-.9,1.64,1,1,0,0,0-.16.55,1,1,0,0,0,1.86.5,15.77,15.77,0,0,0,1.21-2.3,1,1,0,0,0,0-.79C19.9,6.91,16.1,4,12,4a7.77,7.77,0,0,0-1.4.12,1,1,0,1,0,.34,2ZM3.71,2.29A1,1,0,0,0,2.29,3.71L5.39,6.8a14.62,14.62,0,0,0-3.31,4.8,1,1,0,0,0,0,.8C4.1,17.09,7.9,20,12,20a9.26,9.26,0,0,0,5.05-1.54l3.24,3.25a1,1,0,0,0,1.42,0,1,1,0,0,0,0-1.42Zm6.36,9.19,2.45,2.45A1.81,1.81,0,0,1,12,14a2,2,0,0,1-2-2A1.81,1.81,0,0,1,10.07,11.48ZM12,18c-3.18,0-6.17-2.29-7.9-6A12.09,12.09,0,0,1,6.8,8.21L8.57,10A4,4,0,0,0,14,15.43L15.59,17A7.24,7.24,0,0,1,12,18Z"/></svg>