<svg xmlns="http://www.w3.org/2000/svg" viewBox="0 0 24 24"><path d="M21.71,2.3a1,1,0,0,0-1.41,0L16.92,5.6,15.7,4.4a1,1,0,0,0-1.4,1.43l1.92,1.88a1,1,0,0,0,1.4,0l4.08-4A1,1,0,0,0,21.71,2.3ZM19,9a1,1,0,0,0-1,1v4.39l-1.48-1.48a2.77,2.77,0,0,0-3.93,0l-.7.7L9.41,11.12a2.79,2.79,0,0,0-3.93,0L4,12.6V7A1,1,0,0,1,5,6h6a1,1,0,0,0,0-2H5A3,3,0,0,0,2,7V19a3,3,0,0,0,3,3H17a3,3,0,0,0,3-3V10A1,1,0,0,0,19,9ZM5,20a1,1,0,0,1-1-1V15.43l2.9-2.9a.79.79,0,0,1,1.09,0l3.17,3.17,0,0L15.45,20Zm13-1a.89.89,0,0,1-.18.53L13.31,15l.7-.7a.78.78,0,0,1,1.1,0L18,17.22Z"/></svg>