<svg xmlns="http://www.w3.org/2000/svg" data-name="Layer 1" viewBox="0 0 24 24"><path d="M19.05566,2h-14a3.00328,3.00328,0,0,0-3,3V19a3.00328,3.00328,0,0,0,3,3h14a3.00328,3.00328,0,0,0,3-3V5A3.00328,3.00328,0,0,0,19.05566,2Zm-14,2h14a1.001,1.001,0,0,1,1,1v8H17.59082a1.99687,1.99687,0,0,0-1.66406.89062L14.52051,16H9.59082L8.18457,13.89062A1.99687,1.99687,0,0,0,6.52051,13H4.05566V5A1.001,1.001,0,0,1,5.05566,4Zm14,16h-14a1.001,1.001,0,0,1-1-1V15H6.52051l1.40625,2.10938A1.99687,1.99687,0,0,0,9.59082,18h4.92969a1.99687,1.99687,0,0,0,1.66406-.89062L17.59082,15h2.46484v4A1.001,1.001,0,0,1,19.05566,20Z"/></svg>