<svg xmlns="http://www.w3.org/2000/svg" viewBox="0 0 24 24"><path d="M6.21,13.29a.93.93,0,0,0-.33-.21,1,1,0,0,0-.76,0,.9.9,0,0,0-.54.54,1,1,0,1,0,1.84,0A1,1,0,0,0,6.21,13.29ZM13.5,11h1a1,1,0,0,0,0-2h-1a1,1,0,0,0,0,2Zm-4,0h1a1,1,0,0,0,0-2h-1a1,1,0,0,0,0,2Zm-3-2h-1a1,1,0,0,0,0,2h1a1,1,0,0,0,0-2ZM20,5H4A3,3,0,0,0,1,8v8a3,3,0,0,0,3,3H20a3,3,0,0,0,3-3V8A3,3,0,0,0,20,5Zm1,11a1,1,0,0,1-1,1H4a1,1,0,0,1-1-1V8A1,1,0,0,1,4,7H20a1,1,0,0,1,1,1Zm-6-3H9a1,1,0,0,0,0,2h6a1,1,0,0,0,0-2Zm3.5-4h-1a1,1,0,0,0,0,2h1a1,1,0,0,0,0-2Zm.71,4.29a1,1,0,0,0-.33-.21,1,1,0,0,0-.76,0,.93.93,0,0,0-.33.21,1,1,0,0,0-.21.33A1,1,0,1,0,19.5,14a.84.84,0,0,0-.08-.38A1,1,0,0,0,19.21,13.29Z"/></svg>