<svg xmlns="http://www.w3.org/2000/svg" viewBox="0 0 24 24"><path d="M3.71,16.29a1,1,0,0,0-.33-.21,1,1,0,0,0-.76,0,1,1,0,0,0-.33.21,1,1,0,0,0-.21.33,1,1,0,0,0,.21,1.09,1.15,1.15,0,0,0,.33.21.94.94,0,0,0,.76,0,1.15,1.15,0,0,0,.33-.21,1,1,0,0,0,.21-1.09A1,1,0,0,0,3.71,16.29ZM7,8H21a1,1,0,0,0,0-2H7A1,1,0,0,0,7,8ZM3.71,11.29a1,1,0,0,0-1.09-.21,1.15,1.15,0,0,0-.33.21,1,1,0,0,0-.21.33.94.94,0,0,0,0,.76,1.15,1.15,0,0,0,.21.33,1.15,1.15,0,0,0,.33.21.94.94,0,0,0,.76,0,1.15,1.15,0,0,0,.33-.21,1.15,1.15,0,0,0,.21-.33.94.94,0,0,0,0-.76A1,1,0,0,0,3.71,11.29ZM21,11H7a1,1,0,0,0,0,2H21a1,1,0,0,0,0-2ZM3.71,6.29a1,1,0,0,0-.33-.21,1,1,0,0,0-1.09.21,1.15,1.15,0,0,0-.21.33.94.94,0,0,0,0,.76,1.15,1.15,0,0,0,.21.33,1.15,1.15,0,0,0,.33.21,1,1,0,0,0,1.09-.21,1.15,1.15,0,0,0,.21-.33.94.94,0,0,0,0-.76A1.15,1.15,0,0,0,3.71,6.29ZM21,16H7a1,1,0,0,0,0,2H21a1,1,0,0,0,0-2Z"/></svg>