<svg xmlns="http://www.w3.org/2000/svg" data-name="Layer 1" viewBox="0 0 24 24"><path d="M12,12a1,1,0,1,0,1,1A1,1,0,0,0,12,12Zm9.71-2.36a0,0,0,0,1,0,0,10,10,0,0,0-19.4,0,0,0,0,0,1,0,0,9.75,9.75,0,0,0,0,4.72,0,0,0,0,1,0,0A10,10,0,0,0,9.61,21.7h0a9.67,9.67,0,0,0,4.7,0h0a10,10,0,0,0,7.31-7.31,0,0,0,0,1,0,0,9.75,9.75,0,0,0,0-4.72ZM12,4a8,8,0,0,1,7.41,5H4.59A8,8,0,0,1,12,4ZM4,12a8.26,8.26,0,0,1,.07-1H6v2H4.07A8.26,8.26,0,0,1,4,12Zm5,7.41A8,8,0,0,1,4.59,15H7a2,2,0,0,1,2,2Zm4,.52A8.26,8.26,0,0,1,12,20a8.26,8.26,0,0,1-1-.07V18h2ZM13.14,16H10.86A4,4,0,0,0,8,13.14V11h8v2.14A4,4,0,0,0,13.14,16ZM15,19.41V17a2,2,0,0,1,2-2h2.41A8,8,0,0,1,15,19.41ZM19.93,13H18V11h1.93A8.26,8.26,0,0,1,20,12,8.26,8.26,0,0,1,19.93,13Z"/></svg>