<svg width="30" height="30" viewBox="0 0 30 30" fill="none" xmlns="http://www.w3.org/2000/svg">
<g clip-path="url(#clip0_142_15002)">
<path fill-rule="evenodd" clip-rule="evenodd" d="M9.36906 21.2144H15.6866C15.896 21.2144 16.0969 21.2976 16.245 21.4457C16.3931 21.5938 16.4763 21.7946 16.4763 22.0041C16.4763 22.2135 16.3931 22.4144 16.245 22.5625C16.0969 22.7106 15.896 22.7938 15.6866 22.7938H9.36906C8.74075 22.7938 8.13817 22.5442 7.69388 22.0999C7.2496 21.6556 7 21.053 7 20.4247V9.36906C7 8.74075 7.2496 8.13817 7.69388 7.69388C8.13817 7.2496 8.74075 7 9.36906 7H14.1546L14.3757 7.07897H14.4468C14.528 7.11694 14.6026 7.16759 14.6679 7.22901L19.406 11.9671C19.5156 12.0782 19.5898 12.2192 19.6193 12.3724C19.6488 12.5256 19.6323 12.6841 19.5718 12.8279C19.5126 12.9721 19.412 13.0956 19.2827 13.1827C19.1534 13.2698 19.0012 13.3167 18.8453 13.3175H15.6866C15.0583 13.3175 14.4557 13.0679 14.0114 12.6236C13.5671 12.1793 13.3175 11.5768 13.3175 10.9484V8.57938H9.36906C9.15963 8.57938 8.95877 8.66258 8.81067 8.81067C8.66258 8.95877 8.57938 9.15963 8.57938 9.36906V20.4247C8.57938 20.6341 8.66258 20.835 8.81067 20.9831C8.95877 21.1312 9.15963 21.2144 9.36906 21.2144ZM16.9422 11.7381L14.8969 9.69284V10.9484C14.8969 11.1579 14.9801 11.3587 15.1282 11.5068C15.2763 11.6549 15.4771 11.7381 15.6866 11.7381H16.9422ZM10.3476 19.2739C10.3124 19.1914 10.2914 19.1041 10.2854 19.0158V15.3653C10.2818 15.1861 10.3496 15.0156 10.4738 14.8914C10.598 14.7672 10.7685 14.6994 10.9477 14.703C11.1269 14.7066 11.3002 14.7812 11.4294 14.9104C11.5587 15.0396 11.6333 15.2129 11.6368 15.3921L11.6368 18.2969H12.9227C13.0115 18.2983 13.1247 18.3282 13.2075 18.3636C13.2716 18.391 13.3164 18.4391 13.3631 18.4892H13.3631C13.3768 18.5039 13.3907 18.5187 13.4052 18.5332C13.4693 18.5973 13.5205 18.6729 13.556 18.7557C13.5914 18.8386 13.6104 18.9269 13.6118 19.0158C13.6139 19.1046 13.5985 19.1923 13.5663 19.2738C13.5341 19.3553 13.4858 19.4289 13.4242 19.4905C13.3627 19.552 13.289 19.6003 13.2075 19.6325C13.1261 19.6647 13.0115 19.707 12.9227 19.7049H10.9745C10.8858 19.7025 10.7978 19.6813 10.7164 19.6427C10.5516 19.5712 10.4191 19.4387 10.3476 19.2739ZM15.7063 19.793C16.982 19.793 18.0162 18.6439 18.0162 17.2265C18.0162 15.809 16.982 14.66 15.7063 14.66C14.4306 14.66 13.3965 15.809 13.3965 17.2265C13.3965 18.6439 14.4306 19.793 15.7063 19.793ZM15.736 18.5453C16.3738 18.5453 16.8909 17.9407 16.8909 17.1949C16.8909 16.4491 16.3738 15.8445 15.736 15.8445C15.0981 15.8445 14.581 16.4491 14.581 17.1949C14.581 17.9407 15.0981 18.5453 15.736 18.5453ZM18.3715 17.2265C18.3715 15.809 19.4056 14.66 20.6813 14.66C21.1833 14.66 21.7779 14.9067 22.0267 15.14C22.1561 15.2614 22.3112 15.447 22.3397 15.6306C22.366 15.8001 22.2757 15.9677 22.162 16.0814C22.0708 16.1726 21.938 16.2579 21.8066 16.2591C21.5968 16.2611 21.3907 16.13 21.3646 16.0814C21.1787 15.932 20.9535 15.8445 20.7109 15.8445C20.0731 15.8445 19.556 16.4491 19.556 17.1949C19.556 17.9407 20.0731 18.5452 20.7109 18.5452C21.0485 18.5452 21.3522 18.3759 21.5634 18.106L21.6882 17.8582H21.2144C21.1414 17.8571 21.0483 17.8326 20.9802 17.8034C20.9276 17.7809 20.8907 17.7413 20.8523 17.7002C20.8411 17.6882 20.8297 17.676 20.8177 17.664C20.7651 17.6113 20.723 17.5492 20.6938 17.4811C20.6647 17.413 20.6491 17.3404 20.6479 17.2674C20.6462 17.1943 20.6589 17.1222 20.6853 17.0553C20.7118 16.9883 20.7515 16.9278 20.8021 16.8772C20.8527 16.8265 20.9132 16.7869 20.9802 16.7604C21.0472 16.7339 21.1414 16.6991 21.2144 16.7009H22.4247C22.4977 16.7028 22.57 16.7203 22.6369 16.752C22.7723 16.8108 22.8813 16.9197 22.94 17.0552C22.94 17.0552 22.9629 17.1198 22.9912 17.266C23.0154 17.3912 22.9852 17.5411 22.9549 17.6909C22.9499 17.7159 22.9448 17.741 22.94 17.7659C22.717 18.9243 21.7905 19.793 20.6813 19.793C19.4056 19.793 18.3715 18.6439 18.3715 17.2265Z" fill="#CCCCDC" fill-opacity="0.65"/>
</g>
<defs>
<clipPath id="clip0_142_15002">
<rect width="16" height="16" fill="white" transform="translate(7 7)"/>
</clipPath>
</defs>
</svg>
