<svg width="30" height="30" viewBox="0 0 30 30" fill="none" xmlns="http://www.w3.org/2000/svg">
<path d="M18.3332 11.0401C17.8708 11.0404 17.4229 11.2009 17.0655 11.4942C16.7081 11.7876 16.4635 12.1957 16.3731 12.6492C16.2827 13.1026 16.3522 13.5733 16.5698 13.9813C16.7874 14.3892 17.1396 14.7092 17.5665 14.8867C17.465 15.13 17.2937 15.3378 17.0742 15.4837C16.8546 15.6297 16.5968 15.7073 16.3332 15.7067H13.6665C13.1965 15.7087 12.7358 15.8377 12.3332 16.0801V12.2534C12.778 12.0962 13.1529 11.7867 13.3916 11.3798C13.6303 10.9728 13.7175 10.4946 13.6377 10.0296C13.5579 9.5646 13.3163 9.14277 12.9556 8.83868C12.5949 8.53458 12.1383 8.3678 11.6665 8.3678C11.1947 8.3678 10.7381 8.53458 10.3774 8.83868C10.0167 9.14277 9.77509 9.5646 9.69531 10.0296C9.61553 10.4946 9.7027 10.9728 9.94142 11.3798C10.1801 11.7867 10.555 12.0962 10.9998 12.2534V17.8267C10.5605 17.9847 10.1903 18.2915 9.95334 18.6938C9.7164 19.0961 9.62768 19.5686 9.70254 20.0294C9.7774 20.4903 10.0111 20.9104 10.3632 21.217C10.7153 21.5236 11.1636 21.6974 11.6304 21.7082C12.0971 21.719 12.553 21.5662 12.9189 21.2762C13.2848 20.9862 13.5377 20.5773 13.6338 20.1204C13.7299 19.6636 13.6632 19.1874 13.4451 18.7746C13.227 18.3618 12.8714 18.0382 12.4398 17.8601C12.5409 17.6178 12.7112 17.4108 12.9294 17.2649C13.1476 17.1191 13.404 17.0408 13.6665 17.0401H16.3332C16.9431 17.04 17.5345 16.8308 18.0088 16.4474C18.4832 16.0641 18.8118 15.5297 18.9398 14.9334C19.3856 14.782 19.7636 14.4782 20.0073 14.0754C20.2511 13.6727 20.345 13.1969 20.2726 12.7318C20.2001 12.2667 19.9659 11.842 19.6111 11.5326C19.2564 11.2231 18.8038 11.0487 18.3332 11.0401V11.0401ZM11.6665 9.70675C11.7984 9.70675 11.9273 9.74585 12.0369 9.8191C12.1465 9.89236 12.232 9.99648 12.2824 10.1183C12.3329 10.2401 12.3461 10.3742 12.3204 10.5035C12.2946 10.6328 12.2311 10.7516 12.1379 10.8448C12.0447 10.9381 11.9259 11.0015 11.7966 11.0273C11.6672 11.053 11.5332 11.0398 11.4114 10.9893C11.2896 10.9389 11.1854 10.8534 11.1122 10.7438C11.0389 10.6342 10.9998 10.5053 10.9998 10.3734C10.9998 10.1966 11.0701 10.027 11.1951 9.90201C11.3201 9.77699 11.4897 9.70675 11.6665 9.70675ZM11.6665 20.3734C11.5347 20.3734 11.4058 20.3343 11.2961 20.2611C11.1865 20.1878 11.101 20.0837 11.0506 19.9619C11.0001 19.8401 10.9869 19.706 11.0127 19.5767C11.0384 19.4474 11.1019 19.3286 11.1951 19.2353C11.2883 19.1421 11.4071 19.0786 11.5364 19.0529C11.6658 19.0272 11.7998 19.0404 11.9216 19.0908C12.0434 19.1413 12.1476 19.2267 12.2208 19.3364C12.2941 19.446 12.3332 19.5749 12.3332 19.7067C12.3332 19.8836 12.2629 20.0531 12.1379 20.1782C12.0129 20.3032 11.8433 20.3734 11.6665 20.3734ZM18.3332 13.7067C18.2013 13.7067 18.0724 13.6677 17.9628 13.5944C17.8532 13.5211 17.7677 13.417 17.7173 13.2952C17.6668 13.1734 17.6536 13.0393 17.6793 12.91C17.705 12.7807 17.7685 12.6619 17.8618 12.5687C17.955 12.4754 18.0738 12.4119 18.2031 12.3862C18.3324 12.3605 18.4665 12.3737 18.5883 12.4242C18.7101 12.4746 18.8142 12.5601 18.8875 12.6697C18.9607 12.7793 18.9998 12.9082 18.9998 13.0401C18.9998 13.2169 18.9296 13.3865 18.8046 13.5115C18.6796 13.6365 18.51 13.7067 18.3332 13.7067Z" fill="#CCCCDC" fill-opacity="0.65"/>
</svg>
