      <svg xmlns="http://www.w3.org/2000/svg" version="1.1" width="100" height="100" style="display: block;"><polygon stroke-linejoin="round" stroke-miterlimit="1" stroke-width="1" points="92,-23 86,-1 88,0" style="fill:#122d47;stroke:#122d47;"></polygon><polygon stroke-linejoin="round" stroke-miterlimit="1" stroke-width="1" points="97,33 92,13 80,15" style="fill:#122d47;stroke:#122d47;"></polygon><polygon stroke-linejoin="round" stroke-miterlimit="1" stroke-width="1" points="99,102 87,90 76,96" style="fill:#122d47;stroke:#122d47;"></polygon><polygon stroke-linejoin="round" stroke-miterlimit="1" stroke-width="1" points="99,102 76,96 76,114" style="fill:#122d47;stroke:#122d47;"></polygon><polygon stroke-linejoin="round" stroke-miterlimit="1" stroke-width="1" points="99,60 83,46 76,62" style="fill:#122d47;stroke:#122d47;"></polygon><polygon stroke-linejoin="round" stroke-miterlimit="1" stroke-width="1" points="99,82 92,74 85,85" style="fill:#122d47;stroke:#122d47;"></polygon><polygon stroke-linejoin="round" stroke-miterlimit="1" stroke-width="1" points="99,82 85,85 87,90" style="fill:#234cd7;stroke:#234cd7;"></polygon><polygon stroke-linejoin="round" stroke-miterlimit="1" stroke-width="1" points="99,82 87,90 99,102" style="fill:#122d47;stroke:#122d47;"></polygon><polygon stroke-linejoin="round" stroke-miterlimit="1" stroke-width="1" points="99,-27 71,-27 92,-23" style="fill:#2753f6;stroke:#2753f6;"></polygon><polygon stroke-linejoin="round" stroke-miterlimit="1" stroke-width="1" points="99,49 97,33 85,43" style="fill:#122d47;stroke:#122d47;"></polygon><polygon stroke-linejoin="round" stroke-miterlimit="1" stroke-width="1" points="99,49 83,46 99,60" style="fill:#1f44b2;stroke:#1f44b2;"></polygon><polygon stroke-linejoin="round" stroke-miterlimit="1" stroke-width="1" points="99,49 85,43 83,46" style="fill:#122d47;stroke:#122d47;"></polygon><polygon stroke-linejoin="round" stroke-miterlimit="1" stroke-width="1" points="99,61 99,60 76,62" style="fill:#2856ff;stroke:#2856ff;"></polygon><polygon stroke-linejoin="round" stroke-miterlimit="1" stroke-width="1" points="99,61 76,62 92,74" style="fill:#122d47;stroke:#122d47;"></polygon><polygon stroke-linejoin="round" stroke-miterlimit="1" stroke-width="1" points="99,61 92,74 99,82" style="fill:#122d47;stroke:#122d47;"></polygon><polygon stroke-linejoin="round" stroke-miterlimit="1" stroke-width="1" points="99,122 94,124 99,124" style="fill:#122d47;stroke:#122d47;"></polygon><polygon stroke-linejoin="round" stroke-miterlimit="1" stroke-width="1" points="99,110 82,124 94,124" style="fill:#1a3b88;stroke:#1a3b88;"></polygon><polygon stroke-linejoin="round" stroke-miterlimit="1" stroke-width="1" points="99,110 76,114 82,124" style="fill:#254fe7;stroke:#254fe7;"></polygon><polygon stroke-linejoin="round" stroke-miterlimit="1" stroke-width="1" points="99,110 99,102 76,114" style="fill:#132e4d;stroke:#132e4d;"></polygon><polygon stroke-linejoin="round" stroke-miterlimit="1" stroke-width="1" points="99,110 94,124 99,122" style="fill:#122d47;stroke:#122d47;"></polygon><polygon stroke-linejoin="round" stroke-miterlimit="1" stroke-width="1" points="99,-3 99,-27 92,-23" style="fill:#1a3c90;stroke:#1a3c90;"></polygon><polygon stroke-linejoin="round" stroke-miterlimit="1" stroke-width="1" points="99,-3 92,-23 88,0" style="fill:#122d47;stroke:#122d47;"></polygon><polygon stroke-linejoin="round" stroke-miterlimit="1" stroke-width="1" points="99,-3 88,0 92,13" style="fill:#183778;stroke:#183778;"></polygon><polygon stroke-linejoin="round" stroke-miterlimit="1" stroke-width="1" points="99,-3 92,13 97,33" style="fill:#132e4d;stroke:#132e4d;"></polygon><polygon stroke-linejoin="round" stroke-miterlimit="1" stroke-width="1" points="99,-3 97,33 99,49" style="fill:#14315c;stroke:#14315c;"></polygon><polygon stroke-linejoin="round" stroke-miterlimit="1" stroke-width="1" points="97,33 80,15 85,43" style="fill:#122d47;stroke:#122d47;"></polygon><polygon stroke-linejoin="round" stroke-miterlimit="1" stroke-width="1" points="92,-23 71,-27 86,-1" style="fill:#122d47;stroke:#122d47;"></polygon><polygon stroke-linejoin="round" stroke-miterlimit="1" stroke-width="1" points="85,43 80,15 69,40" style="fill:#1b3e97;stroke:#1b3e97;"></polygon><polygon stroke-linejoin="round" stroke-miterlimit="1" stroke-width="1" points="92,13 88,0 86,-1" style="fill:#122d47;stroke:#122d47;"></polygon><polygon stroke-linejoin="round" stroke-miterlimit="1" stroke-width="1" points="92,13 86,-1 80,15" style="fill:#122d47;stroke:#122d47;"></polygon><polygon stroke-linejoin="round" stroke-miterlimit="1" stroke-width="1" points="92,74 72,83 85,85" style="fill:#122d47;stroke:#122d47;"></polygon><polygon stroke-linejoin="round" stroke-miterlimit="1" stroke-width="1" points="92,74 76,62 72,83" style="fill:#1e44b1;stroke:#1e44b1;"></polygon><polygon stroke-linejoin="round" stroke-miterlimit="1" stroke-width="1" points="82,124 76,114 80,124" style="fill:#122d47;stroke:#122d47;"></polygon><polygon stroke-linejoin="round" stroke-miterlimit="1" stroke-width="1" points="86,-1 71,-27 56,4" style="fill:#15325f;stroke:#15325f;"></polygon><polygon stroke-linejoin="round" stroke-miterlimit="1" stroke-width="1" points="87,90 85,85 76,96" style="fill:#2047c2;stroke:#2047c2;"></polygon><polygon stroke-linejoin="round" stroke-miterlimit="1" stroke-width="1" points="86,-1 56,4 80,15" style="fill:#122d47;stroke:#122d47;"></polygon><polygon stroke-linejoin="round" stroke-miterlimit="1" stroke-width="1" points="85,85 72,83 76,96" style="fill:#122d47;stroke:#122d47;"></polygon><polygon stroke-linejoin="round" stroke-miterlimit="1" stroke-width="1" points="85,43 69,40 83,46" style="fill:#122d47;stroke:#122d47;"></polygon><polygon stroke-linejoin="round" stroke-miterlimit="1" stroke-width="1" points="83,46 69,40 76,62" style="fill:#122d47;stroke:#122d47;"></polygon><polygon stroke-linejoin="round" stroke-miterlimit="1" stroke-width="1" points="71,-27 62,-27 56,4" style="fill:#224bd1;stroke:#224bd1;"></polygon><polygon stroke-linejoin="round" stroke-miterlimit="1" stroke-width="1" points="76,62 69,40 65,42" style="fill:#122d47;stroke:#122d47;"></polygon><polygon stroke-linejoin="round" stroke-miterlimit="1" stroke-width="1" points="76,62 65,42 67,63" style="fill:#122d47;stroke:#122d47;"></polygon><polygon stroke-linejoin="round" stroke-miterlimit="1" stroke-width="1" points="76,62 67,63 72,83" style="fill:#244ee0;stroke:#244ee0;"></polygon><polygon stroke-linejoin="round" stroke-miterlimit="1" stroke-width="1" points="76,96 68,97 76,114" style="fill:#122d47;stroke:#122d47;"></polygon><polygon stroke-linejoin="round" stroke-miterlimit="1" stroke-width="1" points="80,15 60,40 69,40" style="fill:#122d47;stroke:#122d47;"></polygon><polygon stroke-linejoin="round" stroke-miterlimit="1" stroke-width="1" points="80,15 54,5 60,40" style="fill:#132e4e;stroke:#132e4e;"></polygon><polygon stroke-linejoin="round" stroke-miterlimit="1" stroke-width="1" points="80,15 56,4 54,5" style="fill:#15315e;stroke:#15315e;"></polygon><polygon stroke-linejoin="round" stroke-miterlimit="1" stroke-width="1" points="80,124 76,114 65,124" style="fill:#1f45b6;stroke:#1f45b6;"></polygon><polygon stroke-linejoin="round" stroke-miterlimit="1" stroke-width="1" points="67,63 65,42 58,55" style="fill:#122d47;stroke:#122d47;"></polygon><polygon stroke-linejoin="round" stroke-miterlimit="1" stroke-width="1" points="76,114 64,124 65,124" style="fill:#122d47;stroke:#122d47;"></polygon><polygon stroke-linejoin="round" stroke-miterlimit="1" stroke-width="1" points="76,114 68,97 50,102" style="fill:#153364;stroke:#153364;"></polygon><polygon stroke-linejoin="round" stroke-miterlimit="1" stroke-width="1" points="76,114 50,102 64,124" style="fill:#122d47;stroke:#122d47;"></polygon><polygon stroke-linejoin="round" stroke-miterlimit="1" stroke-width="1" points="76,96 72,83 65,86" style="fill:#122d47;stroke:#122d47;"></polygon><polygon stroke-linejoin="round" stroke-miterlimit="1" stroke-width="1" points="76,96 65,86 68,97" style="fill:#122d47;stroke:#122d47;"></polygon><polygon stroke-linejoin="round" stroke-miterlimit="1" stroke-width="1" points="62,-27 58,-27 56,4" style="fill:#122d47;stroke:#122d47;"></polygon><polygon stroke-linejoin="round" stroke-miterlimit="1" stroke-width="1" points="58,-27 47,-3 56,4" style="fill:#122d47;stroke:#122d47;"></polygon><polygon stroke-linejoin="round" stroke-miterlimit="1" stroke-width="1" points="60,40 54,5 41,33" style="fill:#1f45b6;stroke:#1f45b6;"></polygon><polygon stroke-linejoin="round" stroke-miterlimit="1" stroke-width="1" points="65,124 64,124 51,124" style="fill:#2957ff;stroke:#2957ff;"></polygon><polygon stroke-linejoin="round" stroke-miterlimit="1" stroke-width="1" points="72,83 67,63 65,86" style="fill:#224ad0;stroke:#224ad0;"></polygon><polygon stroke-linejoin="round" stroke-miterlimit="1" stroke-width="1" points="67,63 43,65 65,86" style="fill:#1b3d95;stroke:#1b3d95;"></polygon><polygon stroke-linejoin="round" stroke-miterlimit="1" stroke-width="1" points="54,-27 43,-7 47,-3" style="fill:#2047c2;stroke:#2047c2;"></polygon><polygon stroke-linejoin="round" stroke-miterlimit="1" stroke-width="1" points="58,-27 54,-27 47,-3" style="fill:#2550ea;stroke:#2550ea;"></polygon><polygon stroke-linejoin="round" stroke-miterlimit="1" stroke-width="1" points="64,124 50,102 51,124" style="fill:#2149c8;stroke:#2149c8;"></polygon><polygon stroke-linejoin="round" stroke-miterlimit="1" stroke-width="1" points="65,86 43,65 41,84" style="fill:#173672;stroke:#173672;"></polygon><polygon stroke-linejoin="round" stroke-miterlimit="1" stroke-width="1" points="69,40 60,40 65,42" style="fill:#122d47;stroke:#122d47;"></polygon><polygon stroke-linejoin="round" stroke-miterlimit="1" stroke-width="1" points="67,63 58,55 43,65" style="fill:#122d47;stroke:#122d47;"></polygon><polygon stroke-linejoin="round" stroke-miterlimit="1" stroke-width="1" points="68,97 65,86 50,102" style="fill:#1d41a5;stroke:#1d41a5;"></polygon><polygon stroke-linejoin="round" stroke-miterlimit="1" stroke-width="1" points="54,5 38,11 41,33" style="fill:#1b3d92;stroke:#1b3d92;"></polygon><polygon stroke-linejoin="round" stroke-miterlimit="1" stroke-width="1" points="65,42 60,40 53,51" style="fill:#122d47;stroke:#122d47;"></polygon><polygon stroke-linejoin="round" stroke-miterlimit="1" stroke-width="1" points="65,42 53,51 58,55" style="fill:#122d47;stroke:#122d47;"></polygon><polygon stroke-linejoin="round" stroke-miterlimit="1" stroke-width="1" points="65,86 41,84 50,102" style="fill:#1c3f9c;stroke:#1c3f9c;"></polygon><polygon stroke-linejoin="round" stroke-miterlimit="1" stroke-width="1" points="54,-27 51,-27 43,-7" style="fill:#16356d;stroke:#16356d;"></polygon><polygon stroke-linejoin="round" stroke-miterlimit="1" stroke-width="1" points="51,-27 40,-16 43,-7" style="fill:#2652f2;stroke:#2652f2;"></polygon><polygon stroke-linejoin="round" stroke-miterlimit="1" stroke-width="1" points="50,102 41,84 38,90" style="fill:#122d47;stroke:#122d47;"></polygon><polygon stroke-linejoin="round" stroke-miterlimit="1" stroke-width="1" points="60,40 41,33 53,51" style="fill:#1f45b5;stroke:#1f45b5;"></polygon><polygon stroke-linejoin="round" stroke-miterlimit="1" stroke-width="1" points="51,-27 40,-20 40,-16" style="fill:#2957ff;stroke:#2957ff;"></polygon><polygon stroke-linejoin="round" stroke-miterlimit="1" stroke-width="1" points="58,55 53,51 43,65" style="fill:#122d47;stroke:#122d47;"></polygon><polygon stroke-linejoin="round" stroke-miterlimit="1" stroke-width="1" points="41,33 38,11 34,16" style="fill:#122d47;stroke:#122d47;"></polygon><polygon stroke-linejoin="round" stroke-miterlimit="1" stroke-width="1" points="51,124 50,102 40,124" style="fill:#2148c5;stroke:#2148c5;"></polygon><polygon stroke-linejoin="round" stroke-miterlimit="1" stroke-width="1" points="51,-27 45,-27 40,-20" style="fill:#122d47;stroke:#122d47;"></polygon><polygon stroke-linejoin="round" stroke-miterlimit="1" stroke-width="1" points="56,4 47,-3 54,5" style="fill:#1e42ab;stroke:#1e42ab;"></polygon><polygon stroke-linejoin="round" stroke-miterlimit="1" stroke-width="1" points="53,51 39,53 43,65" style="fill:#224ace;stroke:#224ace;"></polygon><polygon stroke-linejoin="round" stroke-miterlimit="1" stroke-width="1" points="53,51 41,33 39,53" style="fill:#122d47;stroke:#122d47;"></polygon><polygon stroke-linejoin="round" stroke-miterlimit="1" stroke-width="1" points="50,102 38,90 38,91" style="fill:#244ee0;stroke:#244ee0;"></polygon><polygon stroke-linejoin="round" stroke-miterlimit="1" stroke-width="1" points="54,5 47,-3 38,11" style="fill:#224acd;stroke:#224acd;"></polygon><polygon stroke-linejoin="round" stroke-miterlimit="1" stroke-width="1" points="50,102 31,100 40,124" style="fill:#122d47;stroke:#122d47;"></polygon><polygon stroke-linejoin="round" stroke-miterlimit="1" stroke-width="1" points="50,102 38,91 31,100" style="fill:#224bd3;stroke:#224bd3;"></polygon><polygon stroke-linejoin="round" stroke-miterlimit="1" stroke-width="1" points="40,124 31,100 22,111" style="fill:#14315c;stroke:#14315c;"></polygon><polygon stroke-linejoin="round" stroke-miterlimit="1" stroke-width="1" points="47,-3 43,-7 27,2" style="fill:#1a3b89;stroke:#1a3b89;"></polygon><polygon stroke-linejoin="round" stroke-miterlimit="1" stroke-width="1" points="47,-3 27,2 38,11" style="fill:#16356e;stroke:#16356e;"></polygon><polygon stroke-linejoin="round" stroke-miterlimit="1" stroke-width="1" points="41,33 34,16 27,25" style="fill:#122d47;stroke:#122d47;"></polygon><polygon stroke-linejoin="round" stroke-miterlimit="1" stroke-width="1" points="41,84 26,65 24,80" style="fill:#2551ed;stroke:#2551ed;"></polygon><polygon stroke-linejoin="round" stroke-miterlimit="1" stroke-width="1" points="43,65 26,65 41,84" style="fill:#122d47;stroke:#122d47;"></polygon><polygon stroke-linejoin="round" stroke-miterlimit="1" stroke-width="1" points="45,-27 38,-27 40,-20" style="fill:#122d47;stroke:#122d47;"></polygon><polygon stroke-linejoin="round" stroke-miterlimit="1" stroke-width="1" points="43,65 39,53 26,65" style="fill:#122d47;stroke:#122d47;"></polygon><polygon stroke-linejoin="round" stroke-miterlimit="1" stroke-width="1" points="43,-7 40,-16 27,2" style="fill:#122d47;stroke:#122d47;"></polygon><polygon stroke-linejoin="round" stroke-miterlimit="1" stroke-width="1" points="40,-16 24,-19 27,2" style="fill:#1f45b8;stroke:#1f45b8;"></polygon><polygon stroke-linejoin="round" stroke-miterlimit="1" stroke-width="1" points="40,124 22,111 21,124" style="fill:#122d47;stroke:#122d47;"></polygon><polygon stroke-linejoin="round" stroke-miterlimit="1" stroke-width="1" points="41,33 19,29 39,53" style="fill:#183777;stroke:#183777;"></polygon><polygon stroke-linejoin="round" stroke-miterlimit="1" stroke-width="1" points="41,33 27,25 19,29" style="fill:#1f44b3;stroke:#1f44b3;"></polygon><polygon stroke-linejoin="round" stroke-miterlimit="1" stroke-width="1" points="41,84 24,80 36,89" style="fill:#122d47;stroke:#122d47;"></polygon><polygon stroke-linejoin="round" stroke-miterlimit="1" stroke-width="1" points="41,84 36,89 38,90" style="fill:#122d47;stroke:#122d47;"></polygon><polygon stroke-linejoin="round" stroke-miterlimit="1" stroke-width="1" points="40,-20 24,-19 40,-16" style="fill:#122d47;stroke:#122d47;"></polygon><polygon stroke-linejoin="round" stroke-miterlimit="1" stroke-width="1" points="40,-20 38,-27 24,-19" style="fill:#2856ff;stroke:#2856ff;"></polygon><polygon stroke-linejoin="round" stroke-miterlimit="1" stroke-width="1" points="27,2 24,-19 22,-18" style="fill:#122d47;stroke:#122d47;"></polygon><polygon stroke-linejoin="round" stroke-miterlimit="1" stroke-width="1" points="38,11 27,2 34,16" style="fill:#2856ff;stroke:#2856ff;"></polygon><polygon stroke-linejoin="round" stroke-miterlimit="1" stroke-width="1" points="38,-27 24,-27 24,-19" style="fill:#122d47;stroke:#122d47;"></polygon><polygon stroke-linejoin="round" stroke-miterlimit="1" stroke-width="1" points="39,53 4,49 26,65" style="fill:#1f45b8;stroke:#1f45b8;"></polygon><polygon stroke-linejoin="round" stroke-miterlimit="1" stroke-width="1" points="39,53 19,29 4,49" style="fill:#122d47;stroke:#122d47;"></polygon><polygon stroke-linejoin="round" stroke-miterlimit="1" stroke-width="1" points="38,91 36,89 31,100" style="fill:#122d47;stroke:#122d47;"></polygon><polygon stroke-linejoin="round" stroke-miterlimit="1" stroke-width="1" points="38,90 36,89 38,91" style="fill:#2148c3;stroke:#2148c3;"></polygon><polygon stroke-linejoin="round" stroke-miterlimit="1" stroke-width="1" points="36,89 24,80 31,100" style="fill:#1f44b3;stroke:#1f44b3;"></polygon><polygon stroke-linejoin="round" stroke-miterlimit="1" stroke-width="1" points="34,16 27,2 20,17" style="fill:#224bd1;stroke:#224bd1;"></polygon><polygon stroke-linejoin="round" stroke-miterlimit="1" stroke-width="1" points="34,16 20,17 27,25" style="fill:#122d48;stroke:#122d48;"></polygon><polygon stroke-linejoin="round" stroke-miterlimit="1" stroke-width="1" points="24,80 7,100 11,104" style="fill:#1b3d93;stroke:#1b3d93;"></polygon><polygon stroke-linejoin="round" stroke-miterlimit="1" stroke-width="1" points="26,65 4,49 4,55" style="fill:#122d47;stroke:#122d47;"></polygon><polygon stroke-linejoin="round" stroke-miterlimit="1" stroke-width="1" points="27,2 22,-18 17,3" style="fill:#122d47;stroke:#122d47;"></polygon><polygon stroke-linejoin="round" stroke-miterlimit="1" stroke-width="1" points="31,100 24,80 11,104" style="fill:#234cda;stroke:#234cda;"></polygon><polygon stroke-linejoin="round" stroke-miterlimit="1" stroke-width="1" points="31,100 11,104 22,111" style="fill:#122d47;stroke:#122d47;"></polygon><polygon stroke-linejoin="round" stroke-miterlimit="1" stroke-width="1" points="22,-18 6,-13 17,3" style="fill:#2753f9;stroke:#2753f9;"></polygon><polygon stroke-linejoin="round" stroke-miterlimit="1" stroke-width="1" points="24,80 6,81 7,100" style="fill:#122d47;stroke:#122d47;"></polygon><polygon stroke-linejoin="round" stroke-miterlimit="1" stroke-width="1" points="26,65 4,70 24,80" style="fill:#122d47;stroke:#122d47;"></polygon><polygon stroke-linejoin="round" stroke-miterlimit="1" stroke-width="1" points="27,25 20,17 19,29" style="fill:#244edf;stroke:#244edf;"></polygon><polygon stroke-linejoin="round" stroke-miterlimit="1" stroke-width="1" points="27,2 17,3 20,17" style="fill:#18387d;stroke:#18387d;"></polygon><polygon stroke-linejoin="round" stroke-miterlimit="1" stroke-width="1" points="22,-18 12,-19 6,-13" style="fill:#224bd3;stroke:#224bd3;"></polygon><polygon stroke-linejoin="round" stroke-miterlimit="1" stroke-width="1" points="24,80 4,70 6,81" style="fill:#122d47;stroke:#122d47;"></polygon><polygon stroke-linejoin="round" stroke-miterlimit="1" stroke-width="1" points="26,65 4,55 4,70" style="fill:#122d47;stroke:#122d47;"></polygon><polygon stroke-linejoin="round" stroke-miterlimit="1" stroke-width="1" points="20,17 17,3 11,15" style="fill:#122d47;stroke:#122d47;"></polygon><polygon stroke-linejoin="round" stroke-miterlimit="1" stroke-width="1" points="22,111 15,124 21,124" style="fill:#122d47;stroke:#122d47;"></polygon><polygon stroke-linejoin="round" stroke-miterlimit="1" stroke-width="1" points="24,-27 12,-19 22,-18" style="fill:#122d47;stroke:#122d47;"></polygon><polygon stroke-linejoin="round" stroke-miterlimit="1" stroke-width="1" points="24,-27 4,-27 12,-19" style="fill:#122d47;stroke:#122d47;"></polygon><polygon stroke-linejoin="round" stroke-miterlimit="1" stroke-width="1" points="24,-19 24,-27 22,-18" style="fill:#2958ff;stroke:#2958ff;"></polygon><polygon stroke-linejoin="round" stroke-miterlimit="1" stroke-width="1" points="22,111 7,112 15,124" style="fill:#122d47;stroke:#122d47;"></polygon><polygon stroke-linejoin="round" stroke-miterlimit="1" stroke-width="1" points="20,17 11,15 19,29" style="fill:#122d47;stroke:#122d47;"></polygon><polygon stroke-linejoin="round" stroke-miterlimit="1" stroke-width="1" points="22,111 11,104 7,112" style="fill:#122d47;stroke:#122d47;"></polygon><polygon stroke-linejoin="round" stroke-miterlimit="1" stroke-width="1" points="17,3 6,-13 4,0" style="fill:#122d47;stroke:#122d47;"></polygon><polygon stroke-linejoin="round" stroke-miterlimit="1" stroke-width="1" points="19,29 11,15 4,24" style="fill:#122d47;stroke:#122d47;"></polygon><polygon stroke-linejoin="round" stroke-miterlimit="1" stroke-width="1" points="19,29 4,24 4,49" style="fill:#17356f;stroke:#17356f;"></polygon><polygon stroke-linejoin="round" stroke-miterlimit="1" stroke-width="1" points="11,15 4,21 4,24" style="fill:#2753f7;stroke:#2753f7;"></polygon><polygon stroke-linejoin="round" stroke-miterlimit="1" stroke-width="1" points="15,124 7,112 5,123" style="fill:#122d47;stroke:#122d47;"></polygon><polygon stroke-linejoin="round" stroke-miterlimit="1" stroke-width="1" points="17,3 4,0 11,15" style="fill:#122d47;stroke:#122d47;"></polygon><polygon stroke-linejoin="round" stroke-miterlimit="1" stroke-width="1" points="12,-19 4,-27 4,-22" style="fill:#122d47;stroke:#122d47;"></polygon><polygon stroke-linejoin="round" stroke-miterlimit="1" stroke-width="1" points="15,124 5,123 4,124" style="fill:#2047c2;stroke:#2047c2;"></polygon><polygon stroke-linejoin="round" stroke-miterlimit="1" stroke-width="1" points="11,104 4,105 7,112" style="fill:#122d48;stroke:#122d48;"></polygon><polygon stroke-linejoin="round" stroke-miterlimit="1" stroke-width="1" points="11,15 4,0 4,21" style="fill:#122d47;stroke:#122d47;"></polygon><polygon stroke-linejoin="round" stroke-miterlimit="1" stroke-width="1" points="12,-19 4,-22 6,-13" style="fill:#132f51;stroke:#132f51;"></polygon><polygon stroke-linejoin="round" stroke-miterlimit="1" stroke-width="1" points="11,104 7,100 4,105" style="fill:#1e43af;stroke:#1e43af;"></polygon><polygon stroke-linejoin="round" stroke-miterlimit="1" stroke-width="1" points="7,100 6,81 4,105" style="fill:#122d47;stroke:#122d47;"></polygon><polygon stroke-linejoin="round" stroke-miterlimit="1" stroke-width="1" points="6,81 4,70 4,105" style="fill:#122d47;stroke:#122d47;"></polygon><polygon stroke-linejoin="round" stroke-miterlimit="1" stroke-width="1" points="7,112 4,124 5,123" style="fill:#122d47;stroke:#122d47;"></polygon><polygon stroke-linejoin="round" stroke-miterlimit="1" stroke-width="1" points="7,112 4,105 4,124" style="fill:#224bd2;stroke:#224bd2;"></polygon><polygon stroke-linejoin="round" stroke-miterlimit="1" stroke-width="1" points="6,-13 4,-22 4,0" style="fill:#2855ff;stroke:#2855ff;"></polygon></svg>