<svg width="46" height="48" xmlns="http://www.w3.org/2000/svg"><g fill="none" fill-rule="evenodd"><path d="M0 20.425C0 9.146 9.154 0 20.445 0c11.29 0 20.444 9.144 20.444 20.425 0 1.756-.222 3.46-.639 5.086a9.033 9.033 0 0 0-.312-.124 3.149 3.149 0 0 0-5.365-1.955 3.149 3.149 0 0 0-.911 1.955 8.9 8.9 0 0 0-3.982 2.986H10.836v3.482h17.26A8.882 8.882 0 0 0 27.9 33.7v2.46a5.449 5.449 0 0 0-2.284 4.032c-1.652.43-3.385.66-5.171.66C9.154 40.851 0 31.705 0 20.425zM14.628 33.44c0 2.645 2.604 4.788 5.817 4.788 3.212 0 5.817-2.144 5.817-4.788H14.628zm-3.737-6.858h19.092c2.448-2.521 3.086-5.139 3.085-5.138l-4.384.854s-.932.229-2.282.482a7.897 7.897 0 0 0 1.89-5.1c0-2.841-.692-4.343-1.835-6.326-.708-1.228-1.743-3.784-.841-5.827-2.045 1.622-2.599 6.32-2.718 9.54-.16-.695-.237-1.57-.314-2.454-.096-1.089-.192-2.192-.448-2.993a40.253 40.253 0 0 0-1.063-2.877c-.775-1.93-1.239-3.084-.46-4.368-1.238.074-2.477 2.256-2.477 4.134 0 1.814-.49 4.772-1.664 6.392-.08-3.498-1.26-5.736-2.364-5.825.62 1.581-.039 3.368-.764 5.332-.6 1.628-1.245 3.377-1.245 5.232 0 1.865.728 3.69 1.953 5.125-1.276-.233-2.15-.435-2.15-.435-1.696-.381-4.089-.911-4.081-.87.45 1.27.913 2.516 2.88 4.902a7.116 7.116 0 0 0 .19.22z" fill="#DA4E31"/><path d="M43.7 37.356v-3.654a6.89 6.89 0 0 0-1.632-4.445 6.901 6.901 0 0 0-4.118-2.345V25.66a1.149 1.149 0 0 0-1.963-.813 1.149 1.149 0 0 0-.337.813v1.252a6.901 6.901 0 0 0-4.118 2.345 6.89 6.89 0 0 0-1.632 4.445v3.654a3.45 3.45 0 0 0-2.3 3.24v2.298a1.149 1.149 0 0 0 1.15 1.149h3.611a4.596 4.596 0 0 0 4.439 3.39 4.602 4.602 0 0 0 4.439-3.39h3.611a1.15 1.15 0 0 0 1.15-1.15v-2.297a3.444 3.444 0 0 0-2.3-3.24zm-11.5-3.654a4.594 4.594 0 0 1 4.6-4.596 4.594 4.594 0 0 1 4.6 4.596v3.447h-9.2v-3.447zm4.6 11.49a2.302 2.302 0 0 1-1.978-1.15h3.956a2.3 2.3 0 0 1-1.978 1.15zm6.9-3.447H29.9v-1.15a1.149 1.149 0 0 1 1.15-1.148h11.5a1.15 1.15 0 0 1 1.15 1.149v1.149z" fill="#747474" fill-rule="nonzero"/></g></svg>