<?xml version="1.0" encoding="UTF-8"?>
<svg id="Layer_1" data-name="Layer 1" xmlns="http://www.w3.org/2000/svg" xmlns:xlink="http://www.w3.org/1999/xlink" viewBox="0 0 620.942944 557.873797">
  <defs>
    <linearGradient id="linear-gradient" x1="213.035444" y1="10.294367" x2="213.035444" y2="78.269666" gradientTransform="translate(525.147597 558.098103) rotate(-180)" gradientUnits="userSpaceOnUse">
      <stop offset="0" stop-color="#f49314"/>
      <stop offset=".59" stop-color="#f49314" stop-opacity=".4"/>
      <stop offset="1" stop-color="#f49314" stop-opacity="0"/>
    </linearGradient>
  </defs>
  <path d="M221.554482,59.480219S74.913455,348.325468,68.432019,326.491943c-7.139149-14.796273-8.636251-10.007437-9.048244-23.010492-.70324-22.195198,9.284021-15.524801,9.284021-28.640145,0-11.43389-7.209716-18.208353-4.349972-33.785866,4.036-21.984785,14.815381-16.446186,15.988653-32.382083,1.173272-15.935881-5.378618-21.224818-2.878605-41.057448,3.855184-30.583211,26.786739-24.62862,32.346541-39.431973,7.021798-18.69602,7.943453-44.885938,21.902264-59.537224,27.957507-29.344436,50.714307-25.304625,89.860728-9.16648,0-.000011,.017077-.000011,.017077-.000011Z" fill="#ef6122"/>
  <path d="M517.154569,411.147749c32.376294,23.194115,60.594892,27.025039,68.583513,3.756767,7.990937-23.270605-21.479144-46.85177-38.12848-51.739485" fill="#f99f10"/>
  <path d="M97.632725,445.988412c-42.493821-46.614504-42.291678-164.863657-5.000648-273.991522C141.023544,30.373589,432.508688-15.65428,529.291623,115.341308c125.684577,170.160415-12.914445,336.342564-34.232553,357.589475-129.734062,100.317004-328.300581,48.924027-397.443466-26.942371h.01712Z" fill="#fac20c"/>
  <path d="M129.831942,555.677297H471.337429" fill="none" stroke="#e8e6f4" stroke-linecap="round" stroke-miterlimit="10" stroke-width="4.393"/>
  <path d="M71.816904,270.123783s133.130427,250.539948,115.80197,240.28241c-50.520607-4.424412-80.655668-10.712073-118.740132-6.453989-52.701983,5.892415-64.744208-19.64876-67.799934-32.970649-2.93098-12.778036,.650349-20.171031,4.298898-23.853219,9.594903-9.683365,12.693389-4.91151,7.578682,3.991869-3.980147,6.928404,5.114707,26.520703,33.583104,8.623477,38.177956-24.001334,15.106413-106.823563,25.277412-189.619899h0Z" fill="#fac20c"/>
  <path d="M512.750944,449.633683l-158.499184-21.996022s-280.075437,73.308437-238.585194,75.672058c87.860074,7.403063,49.372746,48.175005,100.887275,48.110215,69.191598-.087023,56.94299-23.792965,100.069673-22.874064,35.683226,.760303,23.41119,22.979166,87.172845,22.874064,51.944437-3.095455,101.668979-90.119599,108.954585-101.786251-3.731639-.515281,0,0,0,0Z" fill="#fac20c"/>
  <path d="M502.237935,444.636669l-147.986175-16.999008s-280.075437,73.308437-238.585194,75.672058c83.076851,4.724467,51.262007,48.172869,100.887275,48.110215,74.865869-.094521,51.885763-22.782829,100.069673-22.874064,38.92532-.073704,26.316893,24.828634,87.172845,22.874064,52.009768-1.670449,97.375142-83.244706,108.954585-101.786251,.000024,0-10.513009-4.997014-10.513009-4.997014Z" fill="url(#linear-gradient)" isolation="isolate" opacity=".5"/>
  <path d="M290.261664,169.300071c-32.632139,0-59.087533,26.455416-59.087533,59.087555v.019945c0,32.632139,26.455394,59.087555,59.087533,59.087555h271.593725c32.632139,0,59.087555-26.455394,59.087555-59.087533v-.019945c0-32.632139-26.45257-59.081862-59.087555-59.081862H290.261664v-.005714Z" fill="#7ea9ed"/>
  <path d="M306.838342,228.410439c0,24.966045,20.238803,45.20487,45.204848,45.20487h207.758983c24.966045,0,45.20487-20.238825,45.20487-45.20487,0-24.966045-20.238825-45.20487-45.20487-45.20487h-207.758983c-24.966045,0-45.204848,20.238825-45.204848,45.20487Z" fill="#02021c"/>
  <path d="M505.515361,273.211115c14.212804,0,25.734518-11.521714,25.734518-25.734518,0-14.212091-11.521714-25.733805-25.734518-25.733805-14.212804,0-25.734518,11.521714-25.734518,25.733805,0,14.212804,11.521714,25.734518,25.734518,25.734518Z" fill="#2a93f2"/>
  <path d="M431.608762,273.229794c14.212118,0,25.733832-11.521714,25.733832-25.734518,0-14.212118-11.521714-25.733805-25.733832-25.733805-14.212804,0-25.734465,11.521688-25.734465,25.733805,0,14.212804,11.521661,25.734518,25.734465,25.734518Z" fill="#2a93f2"/>
  <path d="M392.613136,273.065189h152.152343v-15.898296h-152.152343v15.898296Z" fill="#02021c"/>
  <circle cx="499.862032" cy="237.079203" r="10.987896" fill="#fff"/>
  <path d="M526.588272,249.215773c0,2.21539-1.795929,4.011319-4.011319,4.011319-2.21539,0-4.011319-1.795929-4.011319-4.011319s1.795929-4.011319,4.011319-4.011319,4.011319,1.795929,4.011319,4.011319Z" fill="#fff"/>
  <circle cx="437.261774" cy="237.079203" r="10.987896" fill="#fff"/>
  <circle cx="414.546853" cy="249.215773" r="4.011319" fill="#fff"/>
  <path d="M148.367869,98.123938s18.323942-57.318968,42.939713-49.060546c27.255623,9.141211,30.101566,11.70787,43.362989,3.507104,10.249652-6.33831,18.53126-33.313769,53.799246-47.264578,19.196096-7.593319,84.290345-18.4324,117.40448,58.552915,11.741195,29.251882-3.20778,39.586418-16.97277,28.503271-15.944197-12.837778-141.40709-64.460345-240.533701,5.76468l.000043-.002846Z" fill="#ef6122"/>
  <path d="M174.791665,401.398662s-10.012494-10.965526-2.77244-18.160885c7.240054-7.195359,18.294756-.060706,18.294756-.060706l10.33069-5.283495s64.295328,60.453362,68.450353,70.746879c4.159622,10.295227,4.623278,23.413329,4.623278,23.413329,0,0-17.726813,9.777341-29.217096,2.842109-11.490283-6.935232-72.445053-66.148843-72.445053-66.148843l2.735513-7.348388Z" fill="#02021c"/>
  <path d="M215.304552,360.571794c-17.355666,15.843736-31.660173,34.238842-18.800404,48.138082,12.857686,13.897125,36.208587,10.980381,55.050966-6.146409" fill="#f99f10"/>
  <path d="M337.976259,353.310348c-.863691-26.62023,7.967504-43.387764,36.301613-32.766854,28.335178,10.62087,70.054004,14.296852,92.168822,12.530027,22.134578-1.766865,32.750261-4.436903,32.750261,6.203728s-5.567562,24.744688-13.537566,39.577752c-12.926091,24.056891-23.233776,36.113459-81.650207,27.259414-58.41647-8.855075-66.089792-32.547029-66.032922-52.804067Z"/>
  <path d="M338.02401,356.000326c.674563,19.621945,10.135131,41.64788,65.985161,50.114072,29.403196,4.456531,46.611767,3.610763,58.107148-1.39171,.317554-1.117088,.592872-2.267373,.789974-3.478493,4.8377-29.713798-99.300684-68.505083-124.882284-45.243869Z" fill="#ea8bb1" isolation="isolate"/>
  <circle cx="296.791704" cy="319.770051" r="11.280969" transform="translate(-47.38919 51.669859) rotate(-9.217483)" fill="#e83878" isolation="isolate" opacity=".69"/>
  <circle cx="532.926307" cy="314.914073" r="11.280969" transform="translate(-43.562236 89.431741) rotate(-9.217481)" fill="#e83878" isolation="isolate" opacity=".69"/>
</svg>