<?xml version="1.0" encoding="UTF-8"?>
<svg id="Layer_1" data-name="Layer 1" xmlns="http://www.w3.org/2000/svg" xmlns:xlink="http://www.w3.org/1999/xlink" viewBox="0 0 560.833202 591.761296">
  <defs>
    <linearGradient id="linear-gradient" x1="296.293657" y1="6.10891" x2="296.293657" y2="61.97072" gradientTransform="translate(0 591.523796) scale(1 -1)" gradientUnits="userSpaceOnUse">
      <stop offset="0" stop-color="#f49314"/>
      <stop offset=".59" stop-color="#f49314" stop-opacity=".4"/>
      <stop offset="1" stop-color="#f49314" stop-opacity="0"/>
    </linearGradient>
  </defs>
  <path d="M219.89969,165.456675c-47.811685-33.332899-96.816838-31.999101-107.581279-20.036666-8.724377,9.695328,12.079658,53.973615,6.737381,69.488232-5.328503,15.516913-52.099731,5.477781-57.216926,25.206953-2.423084,9.375382,33.454631,31.993887,32.492291,45.087716-.964636,13.091533-28.668181,9.39145-30.700802,26.334674-1.368871,11.391934,23.913886,13.906891,22.949233,27.480742-.96234,13.573868-19.216995,11.091049-18.420036,24.244613,.647681,10.668467,20.601953,3.640382,25.944211,21.580361,5.328486,17.937701,125.809701-219.386642,125.809701-219.386642,0,0-.013773,0-.013773,.000018Z" fill="#ef6122"/>
  <path d="M118.093434,483.020702c56.810395,62.334103,219.956224,104.562362,326.548929,22.138466,17.517432-17.457679,131.393145-153.997859,28.126145-293.801715-79.518495-107.630832-319.008686-69.81236-358.767898,46.546164-30.641102,89.660977-30.806465,186.818582,4.10891,225.117051h-.016086v.000035Z" fill="#fac20c"/>
  <path d="M425.15669,589.523796H144.565908" fill="none" stroke="#e8e6f4" stroke-linecap="round" stroke-miterlimit="10" stroke-width="4.475"/>
  <path d="M94.632025,352.787433c-9.028569,73.498643,19.683227,154.027719-26.532192,159.039268-46.215437,5.009236-52.701485-49.120821-31.465624-55.4714,21.233566-6.350544,26.185379,12.113124,22.542719,22.542719-3.176428,6.786934,4.017037,9.692336,10.849899,2.227861,7.583911-8.29131,6.786934-34.733925-15.454916-42.228259-22.22806-7.494334-53.094244,.24115-54.538901,44.125393-1.233367,37.124855,32.161546,74.189992,89.451963,62.543116,57.292713-11.649188,55.99735-25.448121,103.508167,2.664252,14.235323,8.426832-98.361113-195.442915-98.361113-195.442915v-.000035Z" fill="#fac20c"/>
  <path d="M444.642364,505.159168c-54.566447,42.347695-45.719346,80.662249-84.814826,83.204787-39.097758,2.544816-33.636081-39.412434-62.740634-37.501527-29.088468,1.910907-34.552493,38.135435-78.195551,37.501527-43.64078-.631595-10.45714-52.820921-67.674067-56.371727-31.226752-1.943044,171.317738-45.328901,171.317738-45.328901l122.093532,18.495805h.013808v.000035Z" fill="#fac20c"/>
  <path d="M444.642364,505.159168c-54.566447,42.347695-45.719346,80.662249-84.814826,83.204787-39.097758,2.544816-33.636081-39.412434-62.740634-37.501527-29.088468,1.910907-34.552493,38.135435-78.195551,37.501527-43.64078-.631595-10.45714-52.820921-67.674067-56.371727-31.226752-1.943044,171.317738-45.328901,171.317738-45.328901l122.093532,18.495805h.013808v.000035Z" fill="url(#linear-gradient)" isolation="isolate" opacity=".5"/>
  <path d="M159.795761,197.211689c81.445453-57.699244,176.239675-26.185379,188.355113-18.181164,12.113124,8.00651,29.283708-1.504376,19.637317-25.537689-32.324632-80.480811-102.008102-101.219431-123.953683-92.903557-15.998289,6.062257-7.754138,69.984175-24.157604,86.192427-13.167337,13.001965-22.138466,3.070774-44.529611-4.439637-20.227593-6.786925-15.351566,54.869637-15.351566,54.869637l.000035-.000018Z" fill="#ef6122"/>
  <path d="M403.096271,348.56827c-16.403466,17.276247-39.818965,19.414531-60.873359,3.130501" fill="none" stroke="#c15833" stroke-linecap="round" stroke-miterlimit="10" stroke-width="4.475"/>
  <path d="M297.645077,365.061313c4.554412,0,8.246522-3.69211,8.246522-8.246522s-3.69211-8.246522-8.246522-8.246522c-4.554412,.076014-8.184876,3.82977-8.108862,8.384181,.074227,4.447277,3.661585,8.034635,8.108862,8.108862Zm151.586253-20.670853c4.554412,0,8.246557-3.69211,8.246557-8.246522s-3.692145-8.246522-8.246557-8.246522c-4.554412,.076032-8.184876,3.829752-8.108827,8.384181,.074227,4.447277,3.661515,8.034635,8.108827,8.108862Z" fill="#e83878" isolation="isolate" opacity=".3"/>
  <path d="M274.918613,335.754632l221.361841-28.160595c26.598779-3.383129,45.418443-27.689755,42.033019-54.286256v-.016086c-3.385424-26.596501-27.689755-45.416165-54.288534-42.030723l-221.361876,28.1583c-26.598779,3.385424-45.416165,27.689755-42.033019,54.286256l.002313,.016086c3.383146,26.598797,27.687442,45.416165,54.286256,42.033019Z" fill="#2d2dea"/>
  <path d="M323.844229,318.051195l169.335653-21.54132c20.34703-2.588448,34.745385-21.183029,32.156973-41.532337-2.588483-20.349307-21.183012-34.745403-41.532355-32.15466l-169.335618,21.54132c-20.349307,2.588448-34.74542,21.180734-32.156973,41.530041,2.588448,20.349307,21.183012,34.745403,41.532355,32.156955h-.000035Z" fill="#02021c"/>
  <path d="M515.428567,426.481317c20.257452-.571877,27.269416,23.252396,23.521127,39.309084-4.377641,18.736991-17.877983,27.163788-38.222699,28.156004" fill="#f99f10"/>
  <path d="M333.745579,519.755077l106.291837,49.646788c6.233736,2.917142,13.663936,.665905,17.230337-5.220527l94.959603-156.209635c3.869336-6.368978,1.842988-14.668804-4.525955-18.538141-.419919-.255133-.853435-.487102-1.298657-.694923l-106.289489-49.646788c-6.235068-2.915828-13.665408-.663838-17.23258,5.22284l-94.959603,156.209635c-3.86839,6.369574-1.840781,14.669085,4.528793,18.537475,.419008,.254468,.851578,.48591,1.295783,.693311l-.00007-.000035Z" fill="#ef6122"/>
  <path d="M407.967707,422.011821l75.200572,35.124371,28.969067-47.660112-75.184521-35.124371-28.985118,47.660112Z" fill="#faece5"/>
  <path d="M542.654386,400.01112c-1.352768,2.227861-.78089,4.800223,1.265504,5.748808,2.046394,.94855,4.800223-.059718,6.155304-2.287579,1.352768-2.227861,.78089-4.800223-1.265504-5.748808-2.046394-.94855-4.800223,.059718-6.155304,2.287579Z" fill="#264584"/>
  <path d="M544.879934,404.209607l13.243106,6.185163,2.710162-4.469496-13.243106-6.185163-2.710162,4.469496Z" fill="#2c5098"/>
  <path d="M530.557347,419.935533c-1.355081,2.227861-.783203,4.800223,1.263191,5.748808,2.046394,.94855,4.800223-.059718,6.155304-2.287579,1.355081-2.225548,.783203-4.800223-1.263191-5.748808-2.046394-.946272-4.802536,.061996-6.155304,2.287579Z" fill="#264584"/>
  <path d="M532.769158,424.134019l13.243106,6.185163,2.707849-4.469496-13.227055-6.185163-2.72397,4.469496h.00007Z" fill="#2c5098"/>
  <path d="M518.439632,439.859945c-1.352768,2.227861-.78089,4.802536,1.265504,5.748808,2.046394,.94855,4.800223-.059718,6.155304-2.285266,1.352768-2.227861,.78089-4.802536-1.265504-5.748808-2.046394-.94855-4.800223,.059718-6.155304,2.285266Zm-12.110846,19.92669c-1.355081,2.225548-.783203,4.800223,1.263191,5.748808,2.046394,.946272,4.802536-.061996,6.155304-2.287579,1.355081-2.227861,.783203-4.800223-1.263191-5.748808-2.046394-.94855-4.800223,.059718-6.155304,2.287579Zm-12.099281,19.908326c-1.352768,2.227861-.78089,4.802536,1.265504,5.748808,2.046394,.94855,4.800223-.059718,6.155304-2.287579,1.352768-2.225548,.78089-4.800223-1.265504-5.748808-2.046394-.946272-4.800223,.061996-6.155304,2.287579Z" fill="#264584"/>
  <path d="M496.441244,483.893448l13.243106,6.185163,2.710162-4.469496-13.229368-6.185163-2.72397,4.469496h.00007Z" fill="#2c5098"/>
  <path d="M482.114032,499.621687c-1.355081,2.225548-.783203,4.800223,1.263191,5.746495,2.046394,.94855,4.802536-.059718,6.155304-2.285266,1.355081-2.227861,.783203-4.802536-1.263191-5.748808-2.046394-.94855-4.800223,.059718-6.155304,2.287579Z" fill="#264584"/>
  <path d="M484.325842,503.820173l13.243106,6.185163,2.72397-4.469496-13.243106-6.185163-2.72397,4.469496Z" fill="#2c5098"/>
  <path d="M470.003255,519.546099c-1.355081,2.225548-.783203,4.800223,1.263191,5.748808,2.046394,.946272,4.800223-.061996,6.155304-2.287579,1.355081-2.227861,.783203-4.800223-1.265504-5.748808-2.046394-.94855-4.800223,.059718-6.152991,2.287579Z" fill="#264584"/>
  <path d="M472.228804,523.728499l13.227055,6.185163,2.72397-4.469496-13.243106-6.185163-2.707849,4.469496h-.00007Z" fill="#2c5098"/>
  <path d="M457.880914,539.454425c-1.355081,2.227861-.783203,4.802536,1.265504,5.748808,2.046394,.94855,4.800223-.059718,6.152991-2.287579,1.355081-2.225548,.783203-4.800223-1.263191-5.748808-2.046394-.946272-4.800223,.061996-6.155304,2.287579Z" fill="#264584"/>
  <path d="M460.106462,543.652877l13.243106,6.185163,2.710162-4.469496-13.243106-6.185163-2.710162,4.469496Z" fill="#2c5098"/>
  <path d="M445.783875,559.381115c-1.355081,2.225548-.783203,4.800223,1.263191,5.748808,2.046394,.946272,4.800223-.061996,6.155304-2.287579,1.355081-2.227861,.783203-4.802536-1.263191-5.748808-2.048707-.94855-4.802536,.059718-6.155304,2.287579Z" fill="#264584"/>
  <path d="M447.995686,563.579602l13.243106,6.185163,2.707849-4.469496-13.227055-6.185163-2.72397,4.469496h.00007Z" fill="#2c5098"/>
  <path d="M534.96716,437.046398c-17.23258-19.54774-39.66967-3.279761-42.87594,13.107619-3.203957,16.38738,13.966592,26.095802,19.354813,27.329169" fill="#f99f10"/>
  <path d="M282.098306,423.998497c27.960764,4.832395,46.516323,23.358059,43.101039,44.185111-3.417596,20.827017-29.36179,20.843103-55.184305,16.449411" fill="#f99f10"/>
  <g>
    <path d="M144.997771,155.536307l-.008655,.013061c8.494124,2.318618,16.987909,4.635421,25.485518,7.036295,37.166168,2.573734,74.253905,5.235025,111.407391,7.811332,28.319694,4.121651,51.125819-1.416122,79.445513,2.705529,18.664991-.785629,38.832777,.947956,57.482011,.093881,5.081295-.239146,12.88984,7.156094,17.887452,6.922621C486.558615-47.218088,133.623565-49.037748,144.997796,155.536288l-.000025,.000019Z" fill="#d3d3ea" fill-rule="evenodd"/>
    <g>
      <path d="M73.995936,189.309375l.013089,.00865c5.195132-2.577346,10.391666-5.15686,15.604731-7.654895l30.844767-5.975369c9.269414,.434412,18.544476,.952525,27.88307,1.38422,1.793803,4.232327,3.583078,8.395828,5.452008,12.543167-15.503825,3.664057-27.674619,14.027041-38.584768,26.356968-11.309356,12.750272-32.907802,35.353546-50.242368,15.378271-7.934931-9.05879-8.352749-24.972403,1.503559-35.917773,2.425897-2.140741,4.936577-4.183472,7.526022-6.123261l-.000111,.000022Z" fill="#232333" fill-rule="evenodd"/>
      <path d="M436.698811,180.118661C461.14895,68.596913,389.71473,11.03541,310.526186,5.879684c2.158777,1.264398,56.251071,33.452708,51.765666,153.568262-.331213,8.20779-1.618521,6.815596-1.181837,13.743965" fill="#595984" fill-rule="evenodd"/>
      <path d="M299.092956,.011682c-2.268442-.178856-4.164782,1.717881-4.278224,4.187975-.11381,2.468284,1.681667,4.562385,3.866943,4.675164l14.914478,.7068c2.270252,.178489,4.164428-1.719695,4.278224-4.187976,.031554-2.464792-1.695111-4.572855-3.948831-4.669861L299.082084,.013888c.000014-.000002,.010872-.002206,.010872-.002206Z" fill="#595984" fill-rule="evenodd"/>
      <path d="M348.813835,159.298072l18.37078,13.950869c-61.926478,85.341411-139.561181,64.307533-216.910508,26.402935-24.917977-12.220922-51.690128-4.626668-88.144121,7.190519,21.312896-18.835126,50.422001-39.534835,76.502583-47.331907,73.726815-17.275597,138.57201-12.399586,210.18162-.210603l-.000353-.001813Z" fill="#232333" fill-rule="evenodd"/>
      <path d="M362.296617,159.471502l2.871194,5.714246c-66.06363,80.319506-121.330883,63.302798-202.003138,27.938807-25.713571-10.604098-54.793389-14.03987-91.181659-2.307662,22.293809-16.611569,47.021368-27.406949,73.01696-35.269727,73.812147-17.208062,145.668703-8.345776,217.281402,3.914225-.000014,.000003,.015241,.010112,.015241,.010112Z" fill="#595984" fill-rule="evenodd"/>
      <path d="M197.953592,75.016346l-.021717,.004406c-.171756,1.429949-.20291,2.735219,.45904,4.538969-.000605,.012759-.000918,.025534-.000916,.038306-.000096,.448981,.363795,.813033,.81278,.813132,.477256,.140715,.844064-.207076,.971715-.562896,.269549-1.059539,.656528-2.237166,1.173619-3.535453,.270555-.822197,.646918-1.64324,1.034563-2.585343l.377792-.702561,.377792-.702561,.377792-.702561c-.001401-.118487,.007649-.250407,.127283-.357633,.119635-.107222,.130888-.22828,.250142-.346738,1.014122-1.98922,2.384466-3.969648,3.990701-5.948923,.865663-1.039089,1.727666-2.086865,2.711425-3.008518,.247923-.227517,.484606-.464065,.732557-.691587,.249746-.227887,.484634-.464071,.73438-.691957,.36821-.229297,.603098-.465481,.852844-.693368,.11743-.118088,.247923-.227517,.367177-.345974,.11743-.118088,.24795-.227522,.365381-.34561,2.203411-1.842156,4.872429-3.424347,7.765324-4.767284,2.895058-1.341491,6.135382-2.319423,9.485758-2.810661,1.676467-.304324,3.351776-.37275,5.135085-.438583l2.614962,.084042,.713176,.021204,.118491-.001419,.118858,.000394,.356589,.010604,.83164,.019794,.23773,.01021,.118858,.000394,.356589,.010604,.473256,.009555c.237349-.001025,.593515,.128436,.833068,.138276,.356193,.008796,.591691,.128806,.831245,.138646,.23773,.01021,.474684,.128036,.712414,.138246l.356589,.010604,.357989,.129091c.237729,.010207,.474684,.128036,.712781,.140056,.239158,.008032,.476113,.125862,.71421,.137882,.237362,.008397,.475079,.009185,.712414,.138246,.357621,.127278,.823623,.268388,1.298675,.398238,.228272,.1309,.463798,.130245,.702956,.258937,.226449,.13127,.463798,.130245,.701132,.259307,.823991,.270198,1.764282,.6582,2.585701,1.036382,.120695,.009446,.34494,.129854,.584465,.260356,.120696,.00945,.346764,.129485,.584098,.258546,.346368,.248336,.821052,.376372,1.16742,.624708,.820657,.495224,1.632632,1.003522,2.336253,1.497982,.813403,.62678,1.50505,1.127441,2.20791,1.738943,.703567,.61513,1.395934,1.230645,2.08788,1.96502,2.651565,2.699022,4.817733,6.099815,6.368109,9.838582,.780441,1.802335,1.430742,3.845992,1.96364,5.887076,.218959,1.079189,.423061,2.029431,.631163,3.11083,.087815,.962523,.29555,2.042112,.382589,3.112252,.089243,1.081005,.176678,2.032293,.144858,3.102038l-.021204,.713162-.01022,.237732,.001428,.118482-.011011,.475435-.01022,.237732-.000395,.118852,.001061,.116672-.010616,.356584-.000395,.118852,.001428,.118482-.000763,.117042-.010616,.356584c-.300578,2.012237-.601551,4.02267-1.256881,6.033355-.632014,1.992751-1.44715,3.922734-2.434916,5.765238-1.048379,1.811019-2.254171,3.526193-3.603451,5.125674-2.717252,3.258548-6.248301,5.888517-9.997671,7.795481-1.887395,.930113-3.8639,1.667164-5.899461,2.19992-2.042908,.533262-4.202429,.946902-6.341959,1.003941-.476223,.096622-1.072337,.076172-1.547416,.066988l-.117035-.000764-.239553-.009837-.473623-.011364-.356588-.0106-.118491,.001416-.237729-.010207c-.952307-.149902-2.012219-.300596-2.96273-.450862-2.011824-.419448-3.894991-1.078032-5.657735-1.960894-3.644754-1.777339-6.652907-4.486968-8.936505-7.769671-1.105747-1.66287-2.011915-3.450109-2.699802-5.324844-.336023-.959298-.661187-1.920793-.867861-2.88371-.109304-.47365-.205926-.949872-.315978-1.436567s-.206674-.962917-.197486-1.437983c.011378-.473626-.085611-.951658-.076056-1.424914l.019803-.831649,.010616-.356584,.01022-.237732,.010616-.356584,.010616-.356584,.010249-.358393,.010616-.356584c.010957-.354761,.032825-.832407,.160504-1.308888,.289298-1.770514,.937672-3.415937,1.820143-5.059838,1.770344-3.158813,4.467153-5.821249,7.611251-7.394251,1.574445-.909531,3.260736-1.453394,4.935775-1.75554,.834267-.088201,1.796768-.176019,2.627007-.274715l.356588,.0106,.118858,.000394,.237729,.010207,.356955,.01241,.239186,.008027,1.1868,.032572c.807425,.015434,1.60712,.160635,2.368441,.43005,.834511,.266186,1.537466,.52512,2.240028,.902911,.70256,.377785,1.405121,.755576,1.990252,1.251456,.582955,.364353,1.168058,.860238,1.741935,1.477171,2.196559,2.212563,3.647866,5.109865,4.042103,7.982203-.010616,.356584,.097655,.713556,.087039,1.07014l-.012016,.238097,.001428,.118482-.000395,.118852-.020808,.59431c-.021202,.713169-.041671,1.309294-.17991,2.021692-.280166,1.416116-.796861,2.595559-1.423366,3.763336-.656372,1.097562-1.491731,2.077593-2.471504,2.899509-.951646,.792534-2.01396,1.441859-3.153257,1.927407-1.091238,.447641-2.292287,.762961-3.362787,.848189l-.356588-.0106-.237729-.010207-.118858-.000394-.473256-.009555-.356588-.0106-.356588-.0106-.356588-.0106c-.239527-.009849-.476481-.127679-.71421-.137885-.474656-.128042-.940658-.269152-1.415709-.398998-.476861-.138907-.95334-.266579-1.297912-.515276-.107576-.121447-.228272-.130897-.346735-.250142-.464463-.365768-1.070403-.267337-1.436178,.197127-.045192,.040978-.086578,.085974-.123634,.134442-.337749,.441813-.25337,1.073776,.188436,1.411526,.118857,.000387,.228639,.132707,.346735,.250142,.465239,.378808,.93007,.746386,1.514168,1.004932s1.179041,.505464,1.763139,.76401c.345334,.131655,.583065,.141869,.941053,.270956,.118491-.001416,.355825,.127642,.474317,.126227,.118463,.119246,.236953,.117823,.475051,.129846l.239553,.009837,.117035,.000764,.118491-.001416,.475079,.009185,.238098,.012023,.237729,.010207,.475446,.010994c1.425958,.040605,2.865741-.02717,4.419745-.461237,1.614234-.446582,3.156456-1.121338,4.579978-2.003844,1.458145-1.027331,2.914494-2.174954,4.03792-3.690523,1.22884-1.395561,2.111707-3.158313,2.76924-5.15814,.270949-.941052,.540498-2.000591,.689353-3.069572l.020837-.714972,.009555-.473256,.010616-.356584,.051865-1.547014c-.057963-2.206291-.472725-4.38864-1.2282-6.462365-.774291-2.199502-1.921645-4.249209-3.391774-6.059207-1.482716-1.955832-3.345319-3.563114-5.444605-4.933844-2.21413-1.370054-4.561734-2.394416-7.167509-2.953524-.703351-.140085-1.298037-.162709-2.012247-.300591l-.473256-.009555-.475446-.010994-.23773-.01021c.118872,.00982-.118491,.001419-.118491,.001419l-.118858-.000394-.473256-.009555c-1.307454-.032598-2.626202,.046438-3.934065,.123265-2.624379,.166724-5.273622,.917271-7.801137,1.914598-2.526114,1.115814-4.945753,2.468309-7.147341,4.310092-2.237832,1.870999-4.190914,4.058253-5.797676,6.492759-1.617248,2.454706-2.76924,5.15814-3.576689,8.110277-.25673,.713814-.408453,1.536413-.548148,2.250991l-.1393,.595726-.020808,.59431-.020808,.59431-.020441,.59612-.020441,.59612-.011378,.473626-.01022,.237732-.000395,.118852-.01022,.237732-.020441,.59612c-.032458,.834217,.064802,1.545968,.043599,2.25913-.010588,.356578,.098716,.830228,.088467,1.188621-.000763,.117042-.11743,.118088-.11743,.118088l-.118858-.000394-.11743,.118088c-.855049,.682499-4.881589,3.899404-6.160069,10.644117,0,0,4.515201,4.543637,11.064228,4.383755,.106815,.238496,.345577,.486036,.454215,.724162,1.591625,2.548333,3.659092,4.988815,5.855651,7.201378,1.066598,1.010109,2.190489,1.95792,3.366142,2.838717l-.012016,.238097-.01022,.237732-.000395,.118852c-.041673,1.309287,.01037,7.382491,5.659715,13.622762,0,0,8.105604-.581267,12.950209-7.106892l.475446,.010994,.473623,.011364,.239186,.008027,.356588,.0106,2.26017,.073078c3.10203-.144864,6.203027-.406405,9.20883-1.146343,.960732-.208122,2.042513-.41441,3.004008-.739574,1.277471,1.111396,7.563176,5.944355,17.442137,5.889351,0,0,3.915409-7.61153,.984347-16.873023,.85181-.810049,1.597444-1.623057,2.330396-2.4335,1.738185-2.090883,3.344817-4.189005,4.726115-6.524203,0,0,10.364997-.40058,19.474636-10.249932,0,0-2.772654-10.803737-13.326378-16.118701,.020074-.477274-.086006-.832806-.077186-1.309681-.382984-2.9934-.892079-5.855632-1.643668-8.621536-.206008-.727394-.42139-1.556569-.64008-2.281389,1.233235-1.383256,6.939476-8.958466,6.350569-21.115846,0,0-9.950995-5.661605-21.50047-1.723369,0,0-.120695-.009446-.238125,.108642-1.048533-.744976-2.215558-1.488536-3.385155-2.244771-1.169992-.637384-2.467509-1.271515-3.635296-1.898033-.584098-.258546-1.29828-.517089-1.882378-.775635-.583037-.141874-1.296852-.398608-1.882773-.656784l-1.41571-.399002c-.095194-.357741-.096622-.476223-.096622-.476223,0,0-1.445758-7.423068-9.495363-12.902982,0,0-7.476478,3.21743-10.33999,11.348913-.184539,.08961-.391165,.123673-.594714,.098039-1.198449,.207336-2.388216,.401597-3.467806,.609327-1.080353,.32477-2.161739,.532864-3.242092,.857633-1.068732,.205527-2.160338,.651351-3.121833,.976515-.23773-.01021-.486333,.11187-.723369,.21652-1.395962-1.109982-5.020643-3.364599-10.973556-3.18427,0,0-3.614733,5.246731-2.255251,11.48262-1.073461,.909001-2.060143,1.915783-2.947319,3.00736-2.181542,2.406628-4.061425,5.070358-5.597999,7.932181-1.391914,2.691781-2.414843,5.167301-3.082625,7.525521-.66815,2.356407-1.074931,4.365686-1.256243,6.268888l-.000326,.000095Z" fill="#ef6122"/>
    </g>
  </g>
</svg>