<?xml version="1.0" encoding="UTF-8"?>
<svg id="Layer_1" data-name="Layer 1" xmlns="http://www.w3.org/2000/svg" xmlns:xlink="http://www.w3.org/1999/xlink" viewBox="0 0 395.219597 582.958238">
  <defs>
    <linearGradient id="linear-gradient" x1="93.696455" y1="103.881567" x2="93.696455" y2="149.647223" gradientTransform="translate(280.989882 576.488942) rotate(-180)" gradientUnits="userSpaceOnUse">
      <stop offset="0" stop-color="#f49314"/>
      <stop offset=".59" stop-color="#f49314" stop-opacity=".4"/>
      <stop offset="1" stop-color="#f49314" stop-opacity="0"/>
    </linearGradient>
  </defs>
  <path d="M126.323761,143.834331S27.594917,338.304858,23.231167,323.605024c-4.806567-9.961871-5.814519-6.737696-6.091901-15.492249-.47347-14.943337,6.250643-10.452366,6.250643-19.28252,0-7.469038-4.883433-12.099211-2.928701-22.746974,2.717314-14.801672,9.974735-11.072706,10.764663-21.80185,.789927-10.729134-3.621256-14.29001-1.938075-27.642704,2.595576-20.590725,18.034679-16.581684,21.77792-26.548322,4.727558-12.587449-2.444404-35.084369,6.429672-45.422519,13.864692-16.152136,29.638998-28.14915,68.816876-.833549,0-.000007,.011497-.000007,.011497-.000007Z" fill="#ef6122"/>
  <circle cx="122.938662" cy="139.349874" r="4.825273" fill="#fff"/>
  <path d="M319.590246,388.2703c21.797953,15.615876,40.796657,18.195118,46.175147,2.529315,5.380049-15.667375-14.46124-31.54384-25.67072-34.834587" fill="#f99f10"/>
  <path d="M42.891095,404.058282c-28.609769-31.384097-28.473672-110.997575-3.366781-184.469974,32.580471-95.350566,228.828357-126.339699,293.989299-38.144442,84.619518,114.563718-8.694894,226.448993-23.047714,240.753877-87.345911,67.540321-221.034576,32.939026-267.58633-18.139461h.011527Z" fill="#fac20c"/>
  <path d="M64.569827,477.908399h229.925028" fill="none" stroke="#e8e6f4" stroke-linecap="round" stroke-miterlimit="10" stroke-width="4.393"/>
  <path d="M23.910482,285.955357s91.232201,168.379497,79.565489,161.473415c-34.013954-2.978819-54.302954-7.212106-79.94404-4.34527-35.482607,3.96718-3.381879-43.444427-1.771431-54.748417,3.627516-25.4621-2.592486-63.774442,2.149923-102.379698l.000059-.000029Z" fill="#fac20c"/>
  <path d="M322.377287,406.51253l-106.712574-14.809238s-188.566085,49.356291-160.631994,50.947644c59.153456,4.984252,33.241135,32.434733,67.924266,32.391112,46.584552-.05859,38.337945-16.019063,67.3738-15.400396,24.024407,.511888,15.762026,15.471158,58.690767,15.400396,34.972575-2.084074,68.450563-60.674725,73.355735-68.529519-2.512396-.346923,0,0,0,0Z" fill="#fac20c"/>
  <path d="M315.299205,403.148196l-99.634491-11.444904s-188.566085,49.356291-160.631994,50.947644c55.933061,3.180837,34.513116,32.433295,67.924266,32.391112,50.404862-.063638,34.933071-15.338971,67.3738-15.400396,26.207208-.049623,17.718346,16.716348,58.690767,15.400396,35.01656-1.124661,65.559656-56.046072,73.355735-68.529519,.000016,0-7.078082-3.364334-7.078082-3.364334Z" fill="url(#linear-gradient)" isolation="isolate" opacity=".5"/>
  <path d="M122.115878,346.549929c-11.68503,10.667095-21.31581,23.051948-12.657728,32.409874,8.65668,9.356503,24.378116,7.392749,37.064104-4.138186" fill="#f99f10"/>
  <path d="M347.031829,315.809989c0-6.11436-4.956689-11.071073-11.071097-11.071073h0c-6.114408,0-11.071097,4.956713-11.071097,11.071073,0,6.114408,4.956689,11.071121,11.071097,11.071121,6.114408,0,11.071097-4.956713,11.071097-11.071121Zm-158.132316,3.269377c0-6.58367-5.337146-11.920816-11.920868-11.920816s-11.920868,5.337146-11.920868,11.920816c0,6.583722,5.337146,11.920868,11.920868,11.920868s11.920868-5.337146,11.920868-11.920868Z" fill="#e83878" isolation="isolate" opacity=".69"/>
  <path d="M172.582171,217.772624c-21.970205,0-39.781799,17.811609-39.781799,39.781814v.013428c0,21.970205,17.811594,39.781814,39.781799,39.781814h182.855612c21.970205,0,39.781814-17.811594,39.781814-39.781799v-.013428c0-21.970205-17.809693-39.777981-39.781814-39.777981H172.582171v-.003847Z" fill="#efb729"/>
  <path d="M183.742733,257.569797c0,16.808862,13.626157,30.435034,30.435019,30.435034h139.877665c16.808862,0,30.435034-13.626171,30.435034-30.435034s-13.626171-30.435034-30.435034-30.435034H214.177752c-16.808862,0-30.435019,13.626171-30.435019,30.435034Z" fill="#02021c"/>
  <path d="M317.505794,287.732699c9.569039,0,17.326251-7.757212,17.326251-17.326251,0-9.568559-7.757212-17.325771-17.326251-17.325771-9.569039,0-17.326251,7.757212-17.326251,17.325771,0,9.569039,7.757212,17.326251,17.326251,17.326251Z" fill="#2a93f2"/>
  <path d="M267.746778,287.745276c9.568577,0,17.325789-7.757212,17.325789-17.326251,0-9.568577-7.757212-17.325771-17.325789-17.325771-9.569039,0-17.326215,7.757194-17.326215,17.325771,0,9.569039,7.757176,17.326251,17.326215,17.326251Z" fill="#2a93f2"/>
  <path d="M241.492236,287.634452h102.439443v-10.703829h-102.439443v10.703829Z" fill="#02021c"/>
  <circle cx="313.699583" cy="263.406206" r="7.397809" fill="#fff"/>
  <path d="M331.69353,271.577381c0,1.491553-1.209143,2.700696-2.700696,2.700696s-2.700696-1.209143-2.700696-2.700696,1.209143-2.700696,2.700696-2.700696,2.700696,1.209143,2.700696,2.700696Z" fill="#fff"/>
  <circle cx="271.552776" cy="263.406206" r="7.397809" fill="#fff"/>
  <circle cx="256.259526" cy="271.577381" r="2.700696" fill="#fff"/>
  <path d="M77.04949,169.851946s-3.995628-50.520548,12.577406-44.960409c18.350364,6.154493,24.255597,12.598606,36.489824,3.639011,10.150556-7.433643,9.077162-47.110698,32.822001-56.503344,12.924134-5.112346,69.659073,7.069317,96.146414,73.018277,7.904981,19.694383-6.82427,28.389141-16.09181,20.927202-10.734732-8.643277-95.204998-43.399147-161.943864,3.88118l.000029-.001916Z" fill="#ef6122"/>
  <path d="M202.659527,337.840518c-.581497-17.922573,5.364273-29.211632,24.440747-22.060904,19.077194,7.150702,51.259979,10.137904,66.149198,8.948356,14.902523-1.189575,22.049733-2.987229,22.049733,4.176777s-13.105563,11.327506-14.307723,28.616832c-1.189575,17.289352-16.68618,28.616858-56.016146,22.655705-39.329993-5.961847-41.721008-23.84528-42.315809-42.336765Z"/>
  <path d="M277.686802,332.701296c.043025-.86174,.719976-1.550567,1.580756-1.609769,4.563751-.313881,13.369369-.335185,17.00991-.210489,.994891,.034077,1.745249,.902843,1.623554,1.89085-.476789,3.870916-3.155022,12.48699-11.012778,11.880152-9.689918-.746403-9.439322-7.186235-9.439322-7.186235l.237881-4.76451Z" fill="#fff"/>
  <path d="M280.140171,361.401108c1.672779,11.267938-15.955783,19.655876-32.447834,16.150014-16.492051-3.505862-27.922598-18.8302-25.419607-27.594692,4.267731-14.943919,55.879312-1.947473,57.867441,11.444678Z" fill="#ea8bb1" isolation="isolate"/>
  <g>
    <path d="M26.462049,370.002001c2.29524-.943381,5.045745-.380966,8.138998,1.308414,20.851537,11.473293,56.858461,74.912713,68.25308,77.605935,13.087122,3.104954,50.753641-61.308644,58.07876-67.669235,7.325119-6.34469,39.245501,46.472523,44.991638,53.807259,2.78338,3.546414,8.253663,8.019206,14.357375,10.910879,6.511206,3.074189,13.721694,4.367739,19.126123,.837258,10.467217-6.84768,61.220858-48.921699,68.545978-52.346057,7.325119-3.423322,39.766551,35.227376,39.766551,35.227376,0,0,9.946185-17.621671,19.354292-18.21485,9.425152-.609112,7.846152,15.277549,7.846152,15.277549-18.833259,173.625138-136.554944,147.471811-204.043015,148.456674-50.315409,.73426-94.443579-24.21577-128.920332-65.605352-9.782761-11.732204-20.113556-30.469076-21.040991-33.131534-21.454342-61.629085-12.248053-99.128577,5.545392-106.464317Z" fill="#f99f10"/>
    <path d="M87.154964,488.512469v-7.146909s-7.350096,3.375555-7.350096,3.375555l-14.207514-6.641814-10.533037,8.151852,9.158374-1.510038,5.833539,3.771353s-3.828841,8.173063-5.659844,14.430737c-1.830968,6.257674,11.510427,23.579015,11.510427,23.579015l-4.083113-23.579015,6.699658-12.338142,8.63282-2.092595h-.001212Z" fill="#f9e6c5"/>
    <path d="M26.459832,370.004074c2.29524-.943381,5.045745-.380966,8.138998,1.308414,2.328219,1.277649,4.867547,3.225941,7.520361,5.645388-55.332152,27.833877,10.57052,161.229236,93.907452,194.091939C18.639588,544.71624-3.580251,412.765854,8.795908,389.770232c5.62553-10.452561,12.104164-17.474387,17.663924-19.766159Z" fill="#fff"/>
    <path d="M195.279109,523.176136c14.666139-34.085578,21.991224-60.380095,25.002791-80.558101,6.511206,3.074189,13.721694,4.367739,19.126123,.837258,10.467217-6.84768,61.220858-48.921699,68.545978-52.346057,7.325119-3.423322,39.766551,35.227376,39.766551,35.227376,0,0,9.946185-17.621671,19.354292-18.21485,9.425152-.609112,7.846152,15.277549,7.846152,15.277549-3.346421,30.850887-9.256757,56.781217-18.569176,77.944474-31.411569,71.385435-128.007704,79.259443-185.42501,76.130018-50.249618-2.738764-98.403792-32.006015-132.899249-73.400411-9.773128-11.727711-7.902397-16.22354-12.007651-30.525546,0,0,28.210863,38.285757,47.130032,50.938553,39.488093,26.408919,96.308298,58.681635,122.129168-1.310264Z" fill="#ef6122"/>
    <path d="M200.868595,428.209869s-23.37046,45.324345-20.703996,63.910576c2.66532,18.586231,33.260992-3.586732,33.260992-3.586732,22.323856-38.476666-12.556996-60.323844-12.556996-60.323844Z" fill="#ef6122"/>
    <path d="M39.477671,372.203795c4.122813,.734309,65.204064,78.393322,65.204064,78.393322l-16.102084,13.682632,4.198922,30.936031,22.892539,7.21485,3.923067,4.524802,5.494117,10.394093-12.811303-10.607375s-23.552088-3.454087-24.729223-4.554498c-1.177135-1.100444-9.679389-33.749204-9.548858-36.794733,.130531-3.045529,4.970815-10.037512,4.970815-10.037512l-58.913078-78.336002c1.256604-14.995289,11.300427-5.546681,15.421023-4.815611Z" fill="#f9bb62"/>
    <path d="M169.313407,581.218956c-35.554972-3.527949-72.677697-15.614758-102.619391-37.338029C30.125163,517.349526-1.960845,445.501155,1.569129,403.776749c1.859301-21.976993,12.761718-33.758315,22.918881-37.947275,13.316452-5.48622,29.465061,14.703444,54.481466,48.614989,8.825776,11.963523,20.879908,28.301165,24.952837,30.004341,.863833-.166616,5.1672-1.692554,16.384728-15.59909,7.739437-9.597153,16.128204-21.776128,22.869849-31.562145,7.713317-11.200554,11.85889-17.148345,14.427733-19.37786,1.567654-1.359354,3.640423-1.953602,5.823319-1.685138,8.261596,1.035708,19.869644,16.419347,39.754045,46.343052,2.977514,4.478104,5.546357,8.346059,6.679219,9.790292,5.134255,6.546313,19.61648,15.368807,26.7475,10.699702,4.397593-2.876808,17.174808-12.999231,29.530915-22.790559,21.768753-17.245983,35.297457-27.862911,39.628052-29.888665,2.85263-1.334937,10.209516-4.772054,41.378443,31.300028,4.296543-6.049671,11.552413-14.251394,19.597219-14.765006,3.328264-.201623,6.281927,.816047,8.529517,2.969135,5.41011,5.179543,4.708592,15.304071,4.51335,17.282091l-.004538,.040318c-4.761215,114.701921-88.085862,166.157413-210.46826,154.013997Zm198.972677-164.960952c-.154382-.146441-.280392-.274844-.876339-.236631-4.35443,.278017-11.727216,9.348832-15.373321,15.787954l-3.513287,6.221598-4.648436-5.533954c-12.628532-15.041954-29.077971-31.630055-34.485829-33.545444-5.024163,2.998831-23.350021,17.517653-36.933217,28.278885-13.104166,10.381366-25.479569,20.187559-30.244922,23.306308-13.282365,8.691986-32.949976-3.507132-40.223999-12.77957-1.355368-1.72863-3.765308-5.354611-7.100362-10.372849-6.241033-9.393393-24.522618-36.903997-31.767125-41.565686-2.446245,2.93199-7.152567,9.765874-11.729502,16.409793-25.758783,37.396397-39.067268,53.638538-49.739947,51.118279-6.765478-1.606607-15.186012-12.666031-30.71827-33.720545-8.896168-12.059024-18.096528-24.527674-26.532962-33.672778-12.117701-13.136119-15.929567-11.78635-15.965872-11.770417-15.648788,5.733441-23.854393,41.003577-6.66046,84.469879,36.44551,92.134334,100.594004,105.447456,147.379111,111.993772,119.660472,16.74326,200.999948-46.197833,200.91118-144.340461,.305352-3.125129-.15097-8.489294-1.776442-10.048134Z" fill="#42303d"/>
    <path d="M99.815331,447.776625s-13.182457,11.247252-14.754649,16.138156c-1.572158,4.89194,6.572522,33.749172,6.572522,33.749172l22.935668,6.114407,8.427358,9.048535-4.358968-10.760195-22.848267-8.070147s-6.278515-25.677989-3.400909-29.015331c2.877607-3.337342,18.170315-13.451281,18.170315-13.451281l-10.743072-3.753316Z" fill="#42303d"/>
    <path d="M88.027942,483.762728s-6.453319,2.161573-8.023225,2.487357c-1.569941,.325784-14.475435-5.949928-14.475435-5.949928l-10.463788,5.949928s8.19692-9.945185,10.81343-9.781775c2.615401,.16341,14.475435,4.56512,14.475435,4.56512l6.352303-3.078431c3.212456,1.975883,1.32128,5.80773,1.32128,5.80773Z" fill="#42303d"/>
    <path d="M75.906847,483.724515s-8.109518,12.96105-8.63282,18.097069c-.523302,5.136019,8.63282,24.70067,8.63282,24.70067,0,0-12.556996-16.630523-13.341395-23.722282-.785542-7.091759,6.966401-20.605637,6.966401-20.605637,.804803-1.472893,6.374993,1.53018,6.374993,1.53018Z" fill="#42303d"/>
    <ellipse cx="41.407438" cy="447.776625" rx="11.282274" ry="34.663893" fill="#fff"/>
    <ellipse cx="251.540729" cy="504.728119" rx="51.75384" ry="27.368404" transform="translate(-271.541717 293.996139) rotate(-41.566953)" fill="#f99f10"/>
    <ellipse cx="320.752587" cy="508.231732" rx="21.860584" ry="12.112812" transform="translate(-277.479345 565.679711) rotate(-63.22864)" fill="#f99f10"/>
  </g>
  <g>
    <path d="M316.359033,138.905629c-2.121351,.64463-5.739828,.207554-10.111901-.79597l-.017218,.002181c-2.23083-.505454-4.642523-1.166595-7.153917-1.905034-13.004352-3.832796-28.62021-9.913736-33.41518-9.306334-7.54337,.955555-6.802685,49.216162-24.480292,55.144677-17.66133,5.908978-63.402626-27.893995-75.022471-28.713751-11.603728-.84055-21.996598,56.512307-31.04802,63.80218-2.665522,2.146041-7.857211,1.031537-13.850854-1.612446-6.523431-2.862853-14.012955-7.555342-20.264787-11.813902-7.584218-5.163824-13.340051-9.736227-13.340051-9.736227,0,0-47.981661,57.512242-62.337203,53.187461-14.372762-4.322619-18.979894-23.724949-19.508196-32.844847C.607392,125.750739,38.89661,45.307801,107.067604,16.542669c12.138866-5.119498,25.217985-8.603417,39.18046-10.211002,6.106755-.702386,12.388075-1.032235,18.820767-1.005345,103.707371,.688095,160.10538,130.921526,151.290202,133.579306Z" fill="#f99f10"/>
    <ellipse cx="217.79352" cy="54.803937" rx="19.522079" ry="45.627949" transform="translate(53.531887 207.956165) rotate(-57.119725)" fill="#f9bb62"/>
    <ellipse cx="165.860901" cy="45.34256" rx="5.497224" ry="12.847886" transform="translate(37.738455 160.017863) rotate(-57.119725)" fill="#f9e6c5"/>
    <ellipse cx="180.780659" cy="62.06114" rx="3.128335" ry="4.27065" transform="translate(30.518118 180.189885) rotate(-57.119725)" fill="#f9e6c5"/>
    <path d="M133.333357,88.023849s-11.642445,41.385516-5.956866,52.945599c5.685579,11.560083,26.379435,20.450942,26.379435,20.450942l6.32817-11.435897-23.155876-15.411639c-.001046,.001371-5.94632-40.878428-3.594864-46.549006Z" fill="#f9bb62"/>
    <polygon points="176.282615 106.509446 165.50336 123.860672 171.10255 136.58193 160.083053 149.985884 177.273124 147.090209 178.561571 139.091491 170.323502 125.551784 176.282615 106.509446" fill="#f9bb62"/>
    <path d="M170.432841,148.804697c-3.887372-.795178-27.118588-21.36641-27.118588-21.36641l-9.982096-39.414286,.572526,46.933117,28.307098,21.333262,8.22106-7.485685Z" fill="#ef6122"/>
    <polygon points="178.078498 156.484735 187.440651 139.501604 179.477746 122.090469 176.282615 106.509446 170.650468 122.079669 178.561571 139.091491 172.29867 146.024375 178.078498 156.484735" fill="#ef6122"/>
    <path d="M316.359033,138.905629c-3.208881,.962248-9.822504-.492947-17.283191-2.700042C253.023381,16.677181,147.907045,13.069097,107.067413,16.541464c12.138866-5.119498,25.217985-8.603417,39.18046-10.211002,6.106755-.702386,12.388075-1.032235,18.820767-1.005345,103.707562,.6893,160.105571,130.922731,151.290393,133.580511Z" fill="#fff"/>
    <path d="M319.805233,140.00397c-2.23083-.505454-18.217999-3.059963-20.72939-3.798383-13.004352-3.832796-28.62021-9.913736-33.41518-9.306334-7.54337,.955555-6.802685,49.216162-24.480292,55.144677-17.66133,5.908978-63.402626-27.893995-75.022471-28.713751-11.603728-.84055-21.996598,56.512307-31.04802,63.80218-2.665522,2.146041-7.857211,1.031537-13.850854-1.612446-6.523431-2.862853-14.012955-7.555342-20.264787-11.813902,2.0129-7.436087,5.787402-11.99809,12.605086-7.936105,18.677774,11.155698,18.216661-6.0505,22.000386-19.728058,3.781392-13.695975,16.000248-25.667023,25.429536-29.135699,9.425907-3.485742,69.572063,18.211643,73.271464,16.596544,3.699439-1.615104,14.701839-48.497069,23.756766-54.211279,9.054927-5.71421,58.306454,19.636215,58.306454,19.636215l3.441302,11.076342Z" fill="#ef6122"/>
    <path d="M146.24791,6.330453l-5.376425,6.053775s-48.591508,29.795514-45.157012,99.597886c1.961374,39.79588,14.84479,78.028366,25.544399,103.53658-14.451403-6.353324-33.604876-21.550125-33.604876-21.550125,0,0-47.981661,57.512242-62.337203,53.187461-14.372762-4.322619-18.979856-23.724954-19.508196-32.844847C-.314861,109.981732,53.925878,16.915068,146.24791,6.330453Z" fill="#ef6122"/>
    <path d="M28.657884,252.630026c-1.976498,.250372-3.54697,.02843-4.87925-.373547C6.833739,247.159418,1.162303,226.207161,.485154,214.63081l.000157,.001238C-3.409849,148.321223,16.282255,87.192699,54.511706,46.916559,83.908481,15.94325,122.157596-.279316,165.107714,.003639c52.103094,.341167,90.712879,31.932788,113.927217,58.374701,26.489503,30.173334,41.529664,63.002182,43.353846,75.687113,1.030419,7.167964-2.371596,9.307406-4.490204,9.9442-6.084001,1.838483-16.455594-1.283749-32.798654-6.638122-5.993595-1.963328-13.905495-4.557893-17.470448-5.085427-1.165412,2.660382-2.52289,9.059303-3.553469,13.908149-3.441459,16.211899-7.723316,36.388056-21.202165,40.896737-13.295898,4.454291-35.596855-7.579999-55.285373-18.186798-8.359956-4.504801-17.788148-9.584901-21.366016-10.204461-3.95368,2.683889-10.299704,21.580404-13.741606,31.833921-5.550633,16.529025-9.196832,26.855873-14.032792,30.748055-9.887871,7.952833-34.083156-7.776758-50.042378-19.969951-4.536056,5.254178-13.167405,15.012339-22.757461,24.63592-20.157301,20.218904-30.655226,25.879853-36.990326,26.68235ZM145.253301,11.827914c-31.886951,4.039273-60.294093,18.493074-83.011836,42.427086C26.033846,92.400454,7.402842,150.627014,11.126296,214.004726l.000157,.001238c.386488,6.600126,3.965945,24.505343,15.722568,28.041601,.252099,.047988,6.718383,1.059747,31.637352-24.022329,13.305293-13.39127,24.960276-27.329059,25.075018-27.468491l3.329777-3.991122,4.074394,3.228043c17.078532,13.536346,36.485181,24.491072,40.902156,23.08855,2.675062-2.425761,7.378488-16.434607,10.503989-25.74509,8.30575-24.741032,13.924045-39.848647,24.173684-39.128819,5.211528,.373913,12.921084,4.407836,26.098378,11.508298,15.109949,8.140738,37.960072,20.428927,46.846219,17.463675,7.697905-2.574963,11.585421-20.885291,14.156941-33.001778,2.845057-13.407534,4.563649-21.500721,11.349858-22.360363,4.306987-.545587,11.348607,1.665904,23.419442,5.621946,6.4341,2.108612,17.307127,5.669369,23.140608,6.506521-2.468139-10.758744-16.699928-42.007742-42.635279-70.695156-21.452082-23.730257-56.888953-52.082045-103.884827-52.389526-6.724544-.042392-13.324167,.347763-19.783429,1.165989Z" fill="#42303d"/>
    <path d="M170.432841,148.804697s-25.778912-10.790698-29.60809-13.758811c-3.830535-2.969199-7.491241-47.020826-7.491241-47.020826,0,0-4.552694,45.860131,.558842,52.888286,5.111536,7.028156,25.509147,17.938533,25.509147,17.938533l11.031341-10.047182Z" fill="#42303d"/>
    <path d="M163.73703,149.41186s7.27342-7.828964,9.698697-11.398279c2.426515-3.569472-1.930298-10.693232-3.113466-12.461659-1.183165-1.768409,3.970086-12.590894,3.970086-12.590894l-.144912,12.490997s4.480552,11.136994,6.114215,13.425329c1.632306,2.287249-7.090093,14.521008-7.090093,14.521008l-9.434528-3.986501Z" fill="#42303d"/>
    <path d="M47.777668,139.936263c3.358981,7.962035-.520202,43.058856-7.487928,45.315276-6.966333,2.257481-14.224278-15.868656-15.694041-25.657339-1.468565-9.788854,15.787762-37.183589,23.181968-19.657937Z" fill="#f9bb62"/>
    <path d="M55.867384,130.782487c-10.366138,3.940793-6.529827-18.303297-3.246274-25.626836,3.283553-7.323539,15.029614-14.567593,14.720482-1.864714-.310252,12.704269-6.704599,25.678434-11.474208,27.49155Z" fill="#f9bb62"/>
    <path d="M75.622466,56.575133c3.619016-5.089314,14.087882-19.054196,15.705004-12.35145,1.617123,6.702751-20.229238,18.714401-15.705004,12.35145Z" fill="#dbc593"/>
    <polygon points="86.891247 186.566852 78.569949 178.295513 84.952903 199.97442 86.891247 186.566852" fill="#42303d"/>
    <polygon points="257.786427 128.240176 262.032127 113.358877 273.171575 124.612748 257.786427 128.240176" fill="#42303d"/>
  </g>
</svg>