<?xml version="1.0" encoding="UTF-8"?>
<svg id="Layer_1" data-name="Layer 1" xmlns="http://www.w3.org/2000/svg" xmlns:xlink="http://www.w3.org/1999/xlink" viewBox="0 0 565.24897 580.017264">
  <defs>
    <radialGradient id="radial-gradient" cx="-36.196727" cy="744.518279" fx="-36.196727" fy="744.518279" r="2.191929" gradientTransform="translate(-416.335589 -1109.432564) rotate(-179.990005) scale(21.7146 -2.28575)" gradientUnits="userSpaceOnUse">
      <stop offset="0" stop-color="#aa6800"/>
      <stop offset=".03" stop-color="#ad6e0b"/>
      <stop offset=".31" stop-color="#caa160"/>
      <stop offset=".56" stop-color="#e0c9a4"/>
      <stop offset=".76" stop-color="#f1e6d5"/>
      <stop offset=".91" stop-color="#fbf8f3"/>
      <stop offset="1" stop-color="#fff"/>
    </radialGradient>
    <radialGradient id="radial-gradient-2" cx="-32.294037" cy="744.507675" fx="-32.294037" fy="744.507675" r="2.191929" gradientTransform="translate(-487.623616 -1109.323798) rotate(-180) scale(21.7146 -2.28575)" xlink:href="#radial-gradient"/>
    <linearGradient id="linear-gradient" x1="306.311385" y1="27.987487" x2="306.311385" y2="92.47624" gradientTransform="translate(0 582.017264) scale(1 -1)" gradientUnits="userSpaceOnUse">
      <stop offset="0" stop-color="#b76c13"/>
      <stop offset=".46" stop-color="#c88416" stop-opacity=".53"/>
      <stop offset="1" stop-color="#dba01b" stop-opacity="0"/>
    </linearGradient>
    <linearGradient id="linear-gradient-2" x1="249.292235" y1="173.963224" x2="252.878269" y2="199.621963" gradientTransform="translate(0 582.017264) scale(1 -1)" gradientUnits="userSpaceOnUse">
      <stop offset="0" stop-color="#dba01b"/>
      <stop offset=".54" stop-color="#dba01b" stop-opacity=".45"/>
      <stop offset="1" stop-color="#dba01b" stop-opacity="0"/>
    </linearGradient>
  </defs>
  <path d="M520.82729,387.449732c7.239961-15.998881,16.193972-26.539846,26.680153-21.055642,10.488388,5.488585-3.528974,27.870369-12.24846,30.448066-8.721694,2.577731-17.384188-2.875803-14.431693-9.398979v.006555Z" fill="#dba01b"/>
  <path d="M531.013191,395.871146c13.140603-9.758492,25.207183-14.306738,31.274454-5.085291,6.067271,9.221447-15.490331,21.117049-23.760502,19.27363-8.272378-1.84342-12.866612-10.214364-7.509537-14.188338h-.004415Z" fill="#dba01b"/>
  <path d="M532.696604,407.856619c14.118235-.7409,24.974866,1.762313,24.930984,11.292802-.046022,9.534904-21.237589,7.78791-26.31191,2.505387-5.069906-5.280383-4.375095-13.500116,1.380926-13.798189Z" fill="#dba01b"/>
  <path d="M488.952276,398.60885c8.517806-13.118696,36.489048-32.48437,54.528648-19.571736,18.03077,12.912668,9.786955,76.833705-77.995425,47.023458" fill="#dba01b"/>
  <path d="M444.052784,557.063413c7.702455,30.605865-312.693971,30.605865-304.967434-.004381-7.700247-30.60155,312.693971-30.60155,304.967434,.004381Z" fill="#ffd74d"/>
  <path d="M309.488093,558.450895c-2.46592,6.157108,99.945351,6.172493,97.475083,.015352,2.46592-6.157141-99.945418-6.172493-97.475083-.015352Z" fill="url(#radial-gradient)" isolation="isolate" opacity=".4"/>
  <path d="M153.232081,558.350054c-2.46592,6.157141,99.945351,6.157141,97.475083,0,2.46592-6.159315-99.947626-6.159315-97.475083,0Z" fill="url(#radial-gradient-2)" isolation="isolate" opacity=".4"/>
  <path d="M458.876801,472.856062c-56.117743,43.549236-47.023458,82.955761-87.229983,85.568544-40.210939,2.612749-34.601814-40.530986-64.523838-38.571374-29.922024,1.959578-35.533357,39.224545-80.419671,38.571374-44.886314-.653204-10.760172-54.320412-69.598092-57.976548-32.118368-1.99463,176.202579-46.622305,176.202579-46.622305l125.575629,19.030309h-.006622Z" fill="#ffd74d"/>
  <path d="M227.742281,123.479248c-49.180269-34.282428-112.095212-41.969297-123.164493-29.669071-8.973744,9.97065,24.928844,64.574451,19.444607,80.530587-5.48417,15.956371-53.590449,5.636116-58.835747,25.927229-2.492209,9.641648,34.402308,32.909404,33.405009,46.374435-.997332,13.465015-29.477056,9.653254-31.576941,27.092243-1.413804,11.718054,24.600034,14.295751,23.602703,28.256154-.997332,13.960403-19.769001,11.408994-18.949235,24.92881,.661967,10.968408,21.191568,3.743798,26.675771,22.191073,5.484237,18.447275,129.398327-225.631461,129.398327-225.631461Z" fill="#dba01b"/>
  <path d="M123.020681,450.088511c58.428071,64.109541,226.21365,107.542585,335.851772,22.767552,18.013244-17.951904,135.138962-158.388774,28.920311-302.171434C406.016248,59.988495,159.689469,98.879013,118.803452,218.553506c-31.506805,92.21818-31.684371,192.143831,4.217229,231.535005Z" fill="#ffd74d"/>
  <path d="M123.020681,450.088511c58.428071,64.109541,226.21365,107.542585,335.851772,22.767552,18.013244-17.951904,135.138962-158.388774,28.920311-302.171434C406.016248,59.988495,159.689469,98.879013,118.803452,218.553506c-31.506805,92.21818-31.684371,192.143831,4.217229,231.535005Z" fill="#ffd74d" isolation="isolate" opacity=".5"/>
  <path d="M97.331304,316.148494c-9.287202,75.599642,20.240258,158.419478-27.289542,163.568317-47.527593,5.151013-54.202012-50.51738-32.357241-57.053734,21.844771-6.538528,26.925648,12.4677,23.188405,23.186231-3.272542,6.990051,4.125219,9.971076,11.150355,2.290562,7.792291-8.522221,6.976907-35.715271-15.891485-43.428696-22.868392-7.706803-54.598751,.247702-56.098043,45.377338-1.264734,38.18778,33.078407,76.29666,92.00185,64.326539,58.916854-11.97671,57.590712-26.1804,106.457591,2.744293,14.644277,8.664702-101.161889-201.004293-101.161889-201.004293v-.006555Z" fill="#ffd74d"/>
  <path d="M165.905776,156.141175c83.771179-59.338576,181.257166-26.924552,193.718277-18.700872,12.467733,8.228722,30.121497-1.55452,20.194269-26.261281C346.579908,28.40499,257.076856-4.844425,237.711183,.563793c-16.952398,4.734713,6.65472,87.048045-10.22316,103.718325-13.546105,13.378657-22.771967,3.159887-45.793776-4.572804-20.801384-6.983044-15.788471,56.426827-15.788471,56.426827v.005034Z" fill="#dba01b"/>
  <path d="M458.876801,472.856062c-56.117743,43.549236-47.023458,82.955761-87.229983,85.568544-40.210939,2.612749-34.601814-40.530986-64.523838-38.571374-29.922024,1.959578-35.533357,39.224545-80.419671,38.571374-44.886314-.653204-10.760172-54.320412-69.598092-57.976548-32.118368-1.99463,176.202579-46.622305,176.202579-46.622305l125.575629,19.030309h-.006622Z" fill="url(#linear-gradient)" isolation="isolate" opacity=".5"/>
  <path d="M96.325209,191.485812c.103014,1.254232-.828562,2.355447-2.082359,2.459565-2.85607,.237167-7.088684,1.341242-10.948674,2.691481-1.906967,.667653-3.660517,1.374554-5.045825,2.027524-1.481733,.70033-2.257684,1.211705-2.470302,1.424105-.89211,.888816-2.33441,.887076-3.224312-.003947-.887729-.891023-.885555-2.333757,.004381-3.222573,.835118-.833379,2.28618-1.629699,3.746006-2.319058,1.560632-.736719,3.467633-1.5017,5.486378-2.207498,3.989327-1.396913,8.64935-2.647416,12.075343-2.931926,1.253797-.104118,2.354143,.828111,2.459365,2.082326Z" fill="#ffee52" fill-rule="evenodd" isolation="isolate" opacity=".15"/>
  <path d="M78.213299,266.900229c.646615,1.080629,.295898,2.479081-.78254,3.127887-.79127,.473447-1.464207,1.356795-1.970549,2.314676-.238906,.453731-.414264,.870186-.526042,1.168292-.056992,.149053-.096459,.265228-.120573,.339746-.010937,.035085-.019733,.061374-.024115,.074535l-.002174,.010954c-.348509,1.205568-1.606688,1.902603-2.814429,1.558458-1.209949-.344128-1.911382-1.60448-1.567255-2.814429l2.191929,.6225-2.191929-.6225,.002207-.006572,.002174-.006572,.004381-.017543,.015352-.05042c.013144-.04164,.028496-.096442,.050437-.162197,.043814-.13151,.107396-.313441,.188503-.534838,.164388-.436188,.414264-1.0324,.762774-1.689969,.67073-1.266941,1.828068-2.998567,3.656136-4.094532,1.078439-.646615,2.479064-.295898,3.125713,.782524Z" fill="#ffee52" fill-rule="evenodd" isolation="isolate" opacity=".15"/>
  <path d="M79.241301,325.260337c.543601-.878966,.433998-2.045067-.328776-2.807874-.889936-.889903-2.332236-.889903-3.222138,0-.982013,.982013-1.074057,2.369495-.982013,3.274749,.105222,1.054324,.506342,2.191929,1.216538,3.259397,.697018,1.047735,2.110822,1.332697,3.158557,.635678,1.047769-.694844,1.332697-2.110822,.637852-3.15859-.333157-.501927-.453731-.935958-.477846-1.188008-.002174-.004381-.002174-.01097-.002174-.015352Z" fill="#ffee52" fill-rule="evenodd" isolation="isolate" opacity=".15"/>
  <path d="M52.736507,411.539044c.528249-1.141986,1.880679-1.641739,3.024839-1.11349,8.912404,4.114248,13.388306,10.525647,15.288718,16.553452,.942513,2.98758,1.247208,5.863383,1.168309,8.300807-.074552,2.387021-.523901,4.521957-1.247208,5.968638-.56116,1.124461-1.931116,1.582573-3.055576,1.019239-1.126635-.561127-1.582573-1.931082-1.021413-3.055543,.324395-.650996,.705781-2.069181,.769363-4.079163,.063548-1.957404-.184121-4.318103-.960073-6.784023-1.538725-4.874848-5.172954-10.238512-12.853468-13.785044-1.141986-.528249-1.641773-1.882886-1.11349-3.024873Z" fill="#ffee52" fill-rule="evenodd" isolation="isolate" opacity=".4"/>
  <path d="M23.051214,484.486437c.990743-.775951,2.424246-.600593,3.200198,.390183,4.357569,5.569692,12.954308,11.507627,24.238347,15.268951,11.233636,3.743832,24.950751,5.269412,39.428433,2.220425,1.231856-.258639,2.439598,.530456,2.698271,1.760139,.260813,1.231856-.528282,2.441805-1.760139,2.700445-15.347884,3.230901-29.886939,1.615451-41.808831-2.358524-11.869314-3.956416-21.327493-10.317411-26.386462-16.783595-.775951-.990743-.600593-2.422072,.390183-3.198024Z" fill="#ffee52" fill-rule="evenodd" isolation="isolate" opacity=".4"/>
  <path d="M344.341957,335.400216c2.27521-1.67465,5.477615-1.188042,7.150058,1.087168,7.599441,10.326208,16.956746,16.397827,26.770056,18.644574,9.822006,2.248921,20.492342,.756218,30.873301-4.734575,2.498831-1.319552,5.593807-.366068,6.913326,2.130555,1.321726,2.49659,.366102,5.5916-2.130522,6.911152-12.309867,6.512206-25.476826,8.515632-37.940077,5.663944-12.469941-2.85607-23.84385-10.486181-32.723343-22.55276-1.67465-2.27521-1.188008-5.475441,1.087202-7.150058Z" fill="#dba01b" fill-rule="evenodd"/>
  <path d="M477.854566,343.054408c4.686345,0,8.482754-3.798617,8.482754-8.482754s-3.796409-8.482754-8.482754-8.482754c-4.684205,0-8.480614,3.798617-8.480614,8.482754s3.796409,8.482754,8.480614,8.482754Z" fill="#dba01b" isolation="isolate" opacity=".5"/>
  <path d="M455.740151,180.421397c2.575557-2.2772-1.630769-11.238887-9.394564-20.016687-7.761655-8.777582-16.143602-14.047413-18.716885-11.770447-2.575557,2.2772,1.630769,11.238686,9.394564,20.016486,7.761655,8.777783,16.143602,14.04763,18.716885,11.770648Z" fill="#ffee52"/>
  <path d="M281.308682,346.077073c4.686345,0,8.482754-3.798583,8.482754-8.482754,0-4.684138-3.796409-8.48058-8.482754-8.48058-4.684205,0-8.480614,3.796443-8.480614,8.48058,0,4.684171,3.796409,8.482754,8.480614,8.482754Z" fill="#dba01b" isolation="isolate" opacity=".5"/>
  <path d="M285.819635,316.159464h229.488366c27.581059,0,49.940969-22.357702,49.940969-49.936537,0-27.581042-22.35991-49.938059-49.940969-49.938059h-229.488366c-27.581059,0-49.940902,22.357016-49.940902,49.938059,0,27.578835,22.359843,49.936537,49.940902,49.936537Z" fill="#dba01b"/>
  <path d="M338.026984,304.437012h175.560412c21.097316,0,38.200891-17.103608,38.200891-38.203132,0-21.097316-17.103575-38.200941-38.200891-38.200941h-175.560412c-21.097316,0-38.200891,17.103625-38.200891,38.200941,0,21.099524,17.103575,38.203132,38.200891,38.203132Z" fill="#b76c13"/>
  <g opacity=".5">
    <path d="M321.701501,247.407409c0-.418663,.339746-.7606,.758426-.7606h205.12289c.418679,0,.758426,.341937,.758426,.7606s-.339746,.758409-.758426,.758409h-205.12289c-.418679,0-.758426-.339746-.758426-.758409Z" fill="#ffd74d" fill-rule="evenodd"/>
    <path d="M321.701501,266.898038c0-.418663,.339746-.7606,.758426-.7606h205.12289c.418679,0,.758426,.341937,.758426,.7606s-.339746,.7606-.758426,.7606h-205.12289c-.418679,0-.758426-.341937-.758426-.7606Z" fill="#ffd74d" fill-rule="evenodd"/>
    <path d="M321.701501,286.388683c0-.418679,.339746-.758426,.758426-.758426h205.12289c.418679,0,.758426,.339746,.758426,.758426,0,.420853-.339746,.7606-.758426,.7606h-205.12289c-.418679,0-.758426-.339746-.758426-.7606Z" fill="#ffd74d" fill-rule="evenodd"/>
    <path d="M441.479502,236.180346c.418612,0,.760566,.339746,.760566,.7606v59.914185c0,.420853-.341954,.7606-.760566,.7606-.418679,0-.760633-.339746-.760633-.7606v-59.914185c0-.420853,.341954-.7606,.760633-.7606Z" fill="#ffd74d" fill-rule="evenodd"/>
    <path d="M474.389073,236.180346c.418679,0,.758426,.339746,.758426,.7606v59.914185c0,.420853-.339746,.7606-.758426,.7606-.42082,0-.760566-.339746-.760566-.7606v-59.914185c0-.420853,.339746-.7606,.760566-.7606Z" fill="#ffd74d" fill-rule="evenodd"/>
    <path d="M507.305266,236.180346c.420887,0,.760633,.339746,.760633,.7606v59.914185c0,.420853-.339746,.7606-.760633,.7606-.418612,0-.758359-.339746-.758359-.7606v-59.914185c0-.420853,.339746-.7606,.758359-.7606Z" fill="#ffd74d" fill-rule="evenodd"/>
    <path d="M342.73527,236.180346c.42082,0,.760633,.339746,.760633,.7606v59.914185c0,.420853-.339813,.7606-.760633,.7606-.418679,0-.758426-.339746-.758426-.7606v-59.914185c0-.420853,.339746-.7606,.758426-.7606Z" fill="#ffd74d" fill-rule="evenodd"/>
    <path d="M375.649256,236.180346c.418679,0,.758426,.339746,.758426,.7606v59.914185c0,.420853-.339746,.7606-.758426,.7606-.42082,0-.760566-.339746-.760566-.7606v-59.914185c0-.420853,.339746-.7606,.760566-.7606Z" fill="#ffd74d" fill-rule="evenodd"/>
    <path d="M408.565449,236.180346c.420887,0,.760633,.339746,.760633,.7606v59.914185c0,.420853-.339746,.7606-.760633,.7606-.418612,0-.758359-.339746-.758359-.7606v-59.914185c0-.420853,.339746-.7606,.758359-.7606Z" fill="#ffd74d" fill-rule="evenodd"/>
  </g>
  <path d="M456.645405,253.573297c-2.086707-2.084517-5.470993-2.084517-7.555559,0l-34.57111,34.57111c-4.061637,4.061637-10.652743,4.061637-14.716587,0l-20.441905-20.444129c-2.086774-2.084517-5.471059-2.084517-7.555626,0l-1.661473,1.661489c-4.061637,4.063828-10.652743,4.063828-14.71438,0l-14.79338-14.791139c-2.0845-2.084517-5.468852-2.084517-7.553352,0l-18.909802,18.907578c-.988535,.988569-2.590875,.988569-3.57941,0-.988535-.988552-.988535-2.590858,0-3.57941l18.907595-18.909785,1.735991,1.736007-1.735991-1.736007c4.063845-4.061637,10.65495-4.061637,14.716587,0l14.791172,14.79333c2.0845,2.084533,5.471059,2.084533,7.555559,0l1.659265-1.661473c4.063845-4.063845,10.655017-4.063845,14.716654,0l20.444112,20.441922c2.0845,2.084533,5.468852,2.084533,7.553352,0l34.57111-34.571094c4.063845-4.061654,10.65495-4.061654,14.716654,0l10.473003,10.473036c2.0845,2.084517,5.468852,2.084517,7.553419,0,4.063778-4.063845,10.65495-4.063845,14.716587,0l12.301104,12.298914c2.0845,2.086707,5.468852,2.086707,7.553419,0l22.980136-22.980186c.988602-.988569,2.593082-.988569,3.581618,0,.988602,.990743,.988602,2.593049,0,3.581601l-22.980202,22.980186c-4.063778,4.061654-10.65495,4.061654-14.716587,0l-12.298897-12.301104c-2.086707-2.084517-5.471059-2.084517-7.555559,0-4.063845,4.063845-10.65281,4.063845-14.716654,0l-10.470862-10.470846Z" fill="#ffd74d" fill-rule="evenodd"/>
  <path d="M298.530656,232.684216c-8.625235,9.874651-12.781124,22.798255-12.781124,34.867009,0,12.073152,4.026519,24.192326,12.230934,33.269117,8.167156,9.032911,20.615089,15.207577,37.815189,15.207577h21.978422c1.258178,0,2.277417,1.019272,2.277417,2.279625,0,1.258178-1.019239,2.277417-2.277417,2.277417h-21.978422c-18.381553,0-32.096427-6.64375-41.195127-16.709077-9.063648-10.023687-13.408039-23.280482-13.408039-36.32466,0-13.048543,4.478109-27.07251,13.905584-37.865559,9.473497-10.844791,23.841642-18.307871,43.316886-18.307871,1.258178,0,2.277417,1.020125,2.277417,2.278722,0,1.258396-1.019239,2.278739-2.277417,2.278739-18.201746,0-31.30295,6.924731-39.884304,16.748961Z" fill="#ffd74d" fill-rule="evenodd" isolation="isolate" opacity=".3"/>
  <path d="M313.041215,50.44308c-.927195-1.412917-2.102093-2.911758-3.570647-4.390434-1.48394-1.458287-3.265953-2.906716-5.379016-4.177595-.824181-.501513-1.700939-.972339-2.632482-1.412917-.263021-4.41564-3.752595-7.180542-3.752595-7.180542-4.120837,1.068346-6.218515,3.362418-6.952792,4.344841-.181947-.010301-.35948-.030465-.541427-.040549-.773744-.050633-1.569429-.071019-2.369461-.055675-.800033,.015126-1.611036,.055675-2.426454,.121435-.815418,.076057-1.639599,.177327-2.459365,.314101-.146829,.020168-.289309,.050633-.43179,.080881-3.539944-4.896768-9.348609-5.529797-9.348609-5.529797-4.515368,5.302058-4.008993,10.507668-4.008993,10.507668,0,0,.008763,.116393,.035052,.308846-.289309,.187407-.567715,.374819-.85047,.57231-.394531,.268293-.764981,.562013-1.155164,.850687-.374798,.303804-.754011,.59752-1.124461,.916446-.734277,.62799-1.453237,1.301567-2.130522,2.020521-.659759,.698787-1.286675,1.433081-1.889442,2.197845-.127162-.010301-.223621-.025423-.223621-.025423-8.754538-.349396-14.567551,5.382937-14.567551,5.382937,1.990315,8.26423,7.38679,12.122903,8.430177,12.796484-.024081,.562009-.030704,1.11898-.024081,1.681206,.008763,2.015262,.190643,4.025695,.556745,6.056305,.05037,.288674,.105155,.577348,.166562,.871072-6.095767,5.798088-5.935761,13.586232-5.935761,13.586232,8.215386,4.759994,15.374206,2.89159,15.374206,2.89159,.006555-.010301,.015318-.015343,.01097-.020385,1.398452,1.25072,2.910888,2.390298,4.510953,3.382805,.668589,.415151,1.367815,.800058,2.067041,1.164571-.223621,6.800896,3.934475,11.064641,3.934475,11.064641,6.790578-1.939419,10.199079-6.456551,10.887334-7.469218,.745248,0,1.479525-.020385,2.218218-.071023,2.226981-.151896,4.436435-.541845,6.577994-1.134319,.530456-.146636,1.063053-.308842,1.595717-.480906l.256465-.086149,.168769-.060713,.328776-.11661,.324428-.121435h.008763c4.583331,3.347294,10.345907,2.162337,10.345907,2.162337,2.639038-5.327266,1.565014-9.403595,1.28226-10.269625l-.021941-.055671-.0394-.126694c-.019733-.060722-.046089-.116393-.07017-.18719,.646648-.835569,1.245001-1.696558,1.775457-2.587798,1.135431-1.898865,2.001219-3.934508,2.599638-6.005663,.054785-.192449,.105222-.389941,.155592-.58744,4.563598-1.205116,6.759942-5.16506,6.759942-5.16506-2.211662-4.279079-5.585044-5.61594-6.2733-5.859027,0,0-.030704-.010076-.07017-.02016-.041607-.015343-.06134-.025427-.06134-.025427-.035052-.005042-.076726-.020168-.116192-.030252-.065755-.283632-.127095-.557188-.197266-.835561-.127162-.496254-.269576-.987465-.425235-1.473635l-.118333-.359475-.0592-.182369-.030704-.096225-.041674-.126477-.116125-.29898-.155659-.400025c-.056992-.136557-.103014-.263251-.162214-.379643-.05037-.121652-.107362-.243083-.162147-.364735l-.173184-.35948-.177532-.359475c-.232384-.471043-.495405-.926748-.769396-1.38749-1.10252-1.79782-2.485653-3.392885-4.061637-4.71462-1.573777-1.326555-3.347093-2.374955-5.194861-3.144543-1.858738-.774844-3.80738-1.240632-5.758228-1.428039-1.948575-.192454-3.897216-.086145-5.755954,.278594-.927195,.177106-1.839072,.425235-2.71583,.718951l-.328776,.11661-.08114,.02521s-.12054,.040549-.111777,.035507l-.135858,.050633-.313458,.126477c-.116192,.045591-.243288,.096225-.355132,.1519-.440553,.187407-.870203,.394983-1.280052,.622943-1.665887,.896282-3.141065,2.061071-4.340043,3.392889-1.194564,1.331814-2.132729,2.820575-2.781518,4.370049-.646648,1.554516-1.021446,3.15484-1.128876,4.724482-.105222,1.569863,.050437,3.099165,.416472,4.522166,.085488,.354438,.19071,.708875,.313458,1.043145,.030704,.086141,.054785,.172064,.089836,.258205l.103014,.278598c.07017,.156938,.131577,.32901,.20168,.486165,.304695,.683448,.648789,1.311433,1.058705,1.908949,.811003,1.174881,1.817131,2.157304,2.921858,2.906724,1.093757,.754462,2.283973,1.286223,3.474189,1.615451,1.190216,.334052,2.380432,.455696,3.509307,.410109,1.128809-.040553,2.196277-.248129,3.169494-.562013,.12054-.040545,.243288-.081099,.35948-.126694,.065755-.02016,.127162-.050629,.192918-.070797,.065755-.020385,.127095-.050638,.192851-.071015,.100874-.040553,.19071-.091191,.298139-.131736,.024081-.010084,.054785-.02521,.085488-.035294l.092044-.045587c.0592-.030469,.116192-.05568,.177532-.086149,.124955-.055671,.221414-.116393,.333191-.177323,.107429-.060722,.212584-.111351,.320013-.182148,.212584-.121652,.398946-.253171,.587449-.389949,.374798-.268289,.718959-.562005,1.032417-.86603,.309043-.308842,.583034-.622726,.830736-.936828,.070103-.090965,.135858-.182148,.201614-.283415,.254258-.369781,.157866-.86603-.221347-1.098816-.324428-.207793-.760633-.14182-1.028002,.136552-.065822,.065981-.133718,.136778-.203888,.202542-.236732,.222919-.49099,.435536-.773744,.643112-.284961,.197491-.583034,.379857-.903047,.552146-.160007,.080881-.322221,.156938-.495405,.232777-.085488,.035511-.170977,.076065-.25205,.101267-.092111,.030469-.177599,.065981-.258673,.091191-.081074,.025419-.173184,.055671-.254258,.076057-.105222,.02521-.212651,.060713-.317806,.085923h-.01097s-.01097,.005259-.015385,.005259h-.019733l-.076659,.020168c-.050437,.010084-.100874,.02521-.14034,.030469-.103014,.025202-.192851,.035286-.293657,.060713-.795685,.146862-1.630836,.182148-2.472542,.091183-.85047-.081099-1.705287-.304017-2.52726-.653413-.819766-.349396-1.593577-.840603-2.277417-1.458287-.683908-.61791-1.262593-1.357029-1.696591-2.19259-.219139-.415368-.401087-.86603-.526042-1.316693-.030704-.126694-.072311-.243087-.103014-.374815l-.008763-.02521-.015385-.045596-.019666-.096225c-.01097-.065755-.030704-.121435-.041674-.187407-.054785-.253171-.092044-.506333-.13151-.764546-.278406-2.040685,.107429-4.243572,1.185801-6.167869,.271851-.481128,.576478-.946912,.924988-1.382448,.350717-.440578,.734344-.850691,1.144194-1.230552,.420887-.379639,.87241-.723993,1.359052-1.027793,.48002-.304022,.990743-.572314,1.518992-.795233,.267369-.111351,.54136-.207575,.815351-.298758l.186362-.060717,.227969-.065759,.142481-.035507c.019666-.006798,.028496-.010084,.024081-.010084l.056992-.020164,.232317-.055897c.607182-.146858,1.220919-.258209,1.847835-.313884,1.247208-.126473,2.511942-.081103,3.752595,.14182,2.481238,.450658,4.857255,1.635614,6.648098,3.418091,.907462,.886198,1.668028,1.904129,2.244506,3.023108,.146896,.283636,.273991,.567272,.394598,.860993l.092044,.222697,.081074,.222919c.035118,.075843,.054785,.146862,.08114,.222701,.024081,.076061,.059133,.1519,.070103,.212617l.065755,.197491,.061407,.222919c.039466,.151904,.105222,.389949,.146829,.541845,.08114,.339312,.155659,.668322,.221414,1.012675,.065755,.33427,.111777,.673581,.157799,1.012884,.039466,.344354,.07017,.678406,.092044,1.017717,.039466,.678623,.035118,1.372364-.021874,2.061071-.096459,1.372364-.383628,2.739476-.835151,4.066245-.900906,2.638427-2.516357,5.079137-4.633701,6.978011-1.06312,.94187-2.242366,1.767346-3.502752,2.410458-.633471,.329227-1.297578,.61265-1.966167,.855729l-.127095,.050638-.105222,.035511-.216999,.070797-.330983,.106526-.135925,.045378-.035052,.010301h-.01097l-.065755,.02016c-.363828,.111351-.734277,.212617-1.109075,.298766-1.488355,.369773-3.002999,.587432-4.515368,.643112-1.521199,.060713-3.040258-.02521-4.528546-.268297-2.983199-.491207-5.85248-1.564813-8.349037-3.164929-1.251623-.795007-2.41555-1.711675-3.45887-2.729384-1.047735-1.017935-1.97493-2.147211-2.786-3.33721-.800033-1.205124-1.47297-2.47623-2.005567-3.80804l-.100874-.253171-.030637-.060713-.019733-.05568-.035118-.111568-.081074-.222701-.019733-.055671-.026289-.076065-.050437-.156938-.111777-.308842-.019733-.060722s0-.010301-.01097-.025419l-.0394-.126477c-.056992-.162206-.100874-.329227-.157866-.506559-.192851-.683657-.35948-1.38749-.49099-2.111483-.135858-.719168-.23894-1.453471-.320013-2.192807-.078933-.734294-.12054-1.473413-.140273-2.202665-.041674-1.468593,.030704-2.926884,.221347-4.349885,.374865-2.84096,1.205601-5.509631,2.492276-7.849079,.320013-.587436,.657552-1.159529,1.038972-1.706416,.368242-.541845,.769329-1.073606,1.194564-1.584985,.414264-.506555,.865855-.997766,1.337111-1.463551,.227969-.238045,.475605-.4557,.714544-.683661,.124955-.111351,.247702-.217659,.374798-.32901,.124955-.111568,.247702-.217877,.379213-.324185,.499753-.430494,1.043387-.825481,1.589162-1.210166,.138133-.096225,.278406-.187407,.416472-.283632,.135925-.096229,.282754-.177327,.418679-.273556,.278339-.18719,.572063-.359475,.857025-.531539,.140273-.091187,.293724-.172285,.433998-.253388,.142481-.080881,.293724-.167026,.440553-.248125,.153451-.085927,.300347-.156946,.45159-.242869l.223554-.11661,.221414-.106309c.153384-.076057,.30028-.1519,.455871-.227961,.168769-.090965,.344161-.156942,.512931-.242865,.140273-.060935,.374798-.172285,.510723-.238041,.111777-.045596,.216999-.096229,.328776-.14182l.216999-.096225,.111777-.045591,.127162-.050633c.177532-.065759,.348509-.136778,.532664-.207575l.263021-.101271h.015318s.035052-.015343,.030704-.015343l.024081-.01008,.111777-.045591,.45159-.172068c.60056-.212835,1.203327-.41033,1.817064-.592478,1.220919-.344354,2.439631-.602562,3.656136-.764764,2.430868-.32901,4.820063-.318926,7.08437-.015126,2.257684,.288678,4.379443,.860771,6.303936,1.605149,.122747,.045596,.23894,.096229,.35948,.14182,.116192,.050633,.23894,.096225,.350717,.146858,.236732,.096225,.464701,.202533,.697018,.3038,.234592,.101488,.45159,.207797,.675145,.319148,.221347,.111351,.444968,.217655,.653204,.33427,.859232,.4557,1.67465,.926526,2.430802,1.428039,1.519059,.997549,2.829815,2.076197,3.934542,3.139501,.065755,.065759,.140273,.126694,.206028,.202533,.065755,.065759,.13151,.131736,.203888,.202533,.13151,.131736,.263021,.258213,.383561,.394987,.122747,.131736,.254258,.263251,.37045,.389945,.12054,.131736,.23894,.263251,.348509,.389945,.455938,.521459,.876758,1.012671,1.236238,1.493798,.598419,.764764,1.089409,1.483719,1.488355,2.111704,.162147,.248125,.486575,.344354,.769329,.227743,.293724-.121435,.447175-.440361,.361687-.734077-.304695-.769806-.598419-1.625535-1.008269-2.582752-.512931-1.184956-1.185868-2.521813-2.113063-3.944597l.021941,.005042Z" fill="#b76c13"/>
  <path d="M285.295801,396.316114c-4.927492,30.864538-25.075673,51.565115-48.06029,48.101864-22.991106-3.463252-23.374734-32.054754-18.887795-60.558626" fill="url(#linear-gradient-2)"/>
  <path d="M254.707395,427.239818c3.068687,14.550025,1.295438,26.307562-11.529568,28.039172-12.827146,1.731609-13.596475-20.639204-7.231131-26.899359,6.358788-6.257948,17.509143-7.068951,18.760699-1.139812Z" fill="#dba01b"/>
  <path d="M280.662033,412.823511c-6.759875,21.836009-1.821479,30.849219-13.515401,36.394797-11.696197,5.545578-19.089542-16.630177-14.852513-24.352332,4.23917-7.722155,30.095142-17.627509,28.367914-12.042465Z" fill="#dba01b"/>
  <path d="M235.604742,438.295922c-5.479822,9.013211-12.811827,13.616275-22.462857,6.37414-9.653304-7.239961,1.468555-18.6029,9.067996-17.640653,7.601581,.960073,15.628464,7.595026,13.394861,11.266513Z" fill="#dba01b"/>
</svg>