<?xml version="1.0" encoding="UTF-8"?>
<svg id="Layer_1" data-name="Layer 1" xmlns="http://www.w3.org/2000/svg" xmlns:xlink="http://www.w3.org/1999/xlink" viewBox="0 0 618.649179 591.187153">
  <defs>
    <linearGradient id="linear-gradient" x1="330.75586" y1="6.906941" x2="330.75586" y2="69.266092" gradientTransform="translate(0 594.677768) scale(1 -1)" gradientUnits="userSpaceOnUse">
      <stop offset="0" stop-color="#f49314"/>
      <stop offset=".59" stop-color="#f49314" stop-opacity=".4"/>
      <stop offset="1" stop-color="#f49314" stop-opacity="0"/>
    </linearGradient>
  </defs>
  <path d="M245.476436,118.96687c-53.372709-37.209881-108.077698-35.720947-120.094162-22.36715-9.739117,10.823001,13.484654,60.251338,7.521013,77.570475-5.948267,17.3217-58.159502,6.114907-63.871882,28.138798-2.704915,10.465841,37.345772,35.715127,36.271501,50.331912-1.076833,14.614222-32.002605,10.483779-34.271642,29.397686-1.528086,12.716941,26.695333,15.524415,25.61848,30.677054-1.074271,15.152658-21.452143,12.381059-20.562489,27.064527,.723014,11.909326,22.998186,4.063799,28.961808,24.090394,5.948247,20.024052,140.442749-244.903715,140.442749-244.903715,0,0-.015375,0-.015375,.00002Z" fill="#ef6122"/>
  <path d="M131.828996,473.467077c63.418067,69.584243,245.539545,116.724112,364.530152,24.713412,19.554901-19.488198,146.675609-171.9095,31.397524-327.974077C438.989304,50.056933,171.643777,92.274109,127.260132,222.166405c-34.204998,100.089532-34.389595,208.547632,4.586821,251.300633h-.017957v.000039Z" fill="#fac20c"/>
  <path d="M105.638767,328.086251c-10.07869,82.047341,21.972602,171.942832-29.618177,177.537279-51.590799,5.591865-58.831246-54.834111-35.125422-61.923332,23.703262-7.089182,29.231026,13.522014,25.164684,25.164684-3.545882,7.576329,4.484262,10.819661,12.111861,2.486986,8.466003-9.25568,7.576329-38.773862-17.252493-47.139869-24.813427-8.366007-59.269687,.269199-60.882374,49.25766-1.376821,41.442883,35.902287,82.819101,99.856208,69.817567,63.956484-13.004117,62.510456-28.408016,115.547302,2.974133,15.891047,9.406965-109.80159-218.17507-109.80159-218.17507v-.000039Z" fill="#fac20c"/>
  <path d="M496.359148,498.180489c-60.913124,47.273196-51.037008,90.044154-94.679721,92.882416-43.645256,2.840806-37.548326-43.996533-70.038058-41.863366-32.471776,2.133167-38.571327,42.571005-87.290551,41.863366-48.716681-.705057-11.673421-58.964574-75.545303-62.928377-34.858766-2.169042,191.24387-50.601149,191.24387-50.601149l136.294349,20.64707h.015414v.000039Z" fill="#fac20c"/>
  <path d="M496.359148,498.180489c-60.913124,47.273196-51.037008,90.044154-94.679721,92.882416-43.645256,2.840806-37.548326-43.996533-70.038058-41.863366-32.471776,2.133167-38.571327,42.571005-87.290551,41.863366-48.716681-.705057-11.673421-58.964574-75.545303-62.928377-34.858766-2.169042,191.24387-50.601149,191.24387-50.601149l136.294349,20.64707h.015414v.000039Z" fill="url(#linear-gradient)" isolation="isolate" opacity=".5"/>
  <path d="M178.381761,154.415341c90.918453-64.410299,196.738283-29.231026,210.262878-20.295833,13.522014,8.937755,32.689724-1.679351,21.921352-28.508002C374.48165,15.769894,296.693228-7.380855,272.195135,1.902246c-17.859065,6.767364-8.656029,78.124102-26.967398,96.217552-14.698843,14.514236-24.713412,3.427939-49.708894-4.956015-22.580284-7.576319-17.137122,61.251578-17.137122,61.251578l.000039-.00002Z" fill="#ef6122"/>
  <path d="M449.980789,323.376352c-18.311369,19.285664-44.450348,21.672654-67.953599,3.494613" fill="none" stroke="#c15833" stroke-linecap="round" stroke-miterlimit="10" stroke-width="4.475"/>
  <path d="M332.264465,341.787717c5.08414,0,9.205682-4.121543,9.205682-9.205682s-4.121543-9.205682-9.205682-9.205682c-5.08414,.084856-9.136867,4.275214-9.052011,9.359354,.08286,4.964544,4.087467,8.969151,9.052011,9.052011Zm169.217397-23.0751c5.08414,0,9.205722-4.121543,9.205722-9.205682s-4.121582-9.205682-9.205722-9.205682c-5.08414,.084875-9.136867,4.275194-9.051972,9.359354,.08286,4.964544,4.087389,8.969151,9.051972,9.052011Z" fill="#e83878" isolation="isolate" opacity=".3"/>
  <path d="M306.894664,309.072348l247.108651-31.435981c29.692509-3.776624,50.701106-30.910377,46.92192-60.600343v-.017957c-3.779186-29.689966-30.910377-50.698563-60.602886-46.919357l-247.10869,31.433419c-29.692509,3.779186-50.698563,30.910377-46.92192,60.600343l.002582,.017957c3.776643,29.692529,30.907795,50.698563,60.600343,46.92192Z" fill="#2d2dea"/>
  <path d="M361.510866,289.309807l189.031247-24.046812c22.713612-2.889512,38.786655-23.646848,35.897181-46.363003-2.889552-22.716155-23.646829-38.786674-46.363023-35.894599l-189.031208,24.046812c-22.716155,2.889512-38.786694,23.644286-35.897181,46.360441,2.889512,22.716155,23.646829,38.786674,46.363023,35.897162h-.000039Z" fill="#02021c"/>
  <path d="M575.378563,410.351541c22.613616-.638393,30.441148,25.956905,26.256893,43.881162-4.886808,20.916308-19.957388,30.323234-42.668419,31.430856" fill="#f99f10"/>
  <path d="M372.56385,514.474063l118.654744,55.421255c6.958788,3.256438,15.253202,.743357,19.234414-5.827732l106.004447-174.378529c4.319383-7.10976,2.057348-16.374947-5.052373-20.69433-.46876-.284808-.952699-.543757-1.449705-.77575l-118.652123-55.421255c-6.960275-3.254971-15.254845-.741049-19.236918,5.830314l-106.004447,174.378529c-4.318326,7.110425-2.054884,16.37526,5.055542,20.693586,.467743,.284065,.950626,.542427,1.446497,.773951l-.000078-.000039Z" fill="#ef6122"/>
  <path d="M314.909433,407.579942c31.212908,5.394456,51.926681,26.074858,48.114163,49.324324-3.8151,23.249427-32.776888,23.267384-61.602845,18.362658" fill="#f99f10"/>
  <path d="M406.079639,278.205514c13.135453-7.617355,17.608761-24.440834,9.991388-37.576273-.00093-.001637-.001883-.003226-.002813-.004863-7.617374-13.135439-24.440856-17.608714-37.576309-9.991359-.001586,.00092-.003208,.001868-.004793,.002788-13.135453,7.617355-17.608761,24.440834-9.991388,37.576273,.00093,.001637,.001883,.003226,.002813,.004863,7.617374,13.135439,24.440856,17.608714,37.576309,9.991359,.001586-.00092,.003208-.001868,.004793-.002788Z" fill="#2a93f2"/>
  <path d="M364.826361,287.565047l58.777095-6.485788,1.121451-29.258613-63.075457,6.960084,3.176933,28.78427-.000022,.000047Z" fill="#02021c"/>
  <path d="M549.858435,260.548948c13.135453-7.617355,17.608761-24.440834,9.991388-37.576273-.00093-.001637-.001883-.003226-.002813-.004863-7.617374-13.135439-24.440856-17.608714-37.576309-9.991359-.001586,.00092-.003208,.001868-.004793,.002788-13.135453,7.617355-17.608761,24.440834-9.991388,37.576273,.00093,.001637,.001883,.003226,.002813,.004863,7.617374,13.135439,24.440856,17.608714,37.576309,9.991359,.001586-.00092,.003208-.001868,.004793-.002788Z" fill="#2a93f2"/>
  <path d="M508.605157,269.908481l54.95906-9.957183,5.669051-28.203612-63.805022,9.376478,3.176933,28.78427-.000022,.000047Z" fill="#02021c"/>
  <path d="M480.082421,268.073072l-7.24391-72.908175c-.870443-8.760499-7.123424-14.959771-13.966485-13.845319-6.84306,1.114482-11.684176,9.120435-10.812962,17.881929l7.24391,72.90816c.870443,8.76148,7.122652,14.959786,13.965713,13.845319,6.84306-1.114467,11.684176-9.120435,10.813733-17.881929v.000015Z" fill="#2d2dea"/>
  <g>
    <g opacity=".8">
      <path d="M377.432826,494.280433l100.085416-165.274594c2.475644-4.088119,8.007673-5.77216,12.35577-3.762367l112.888278,52.179635c4.32622,1.999681,5.840439,6.928949,3.382454,11.010774l-99.370526,165.018545c-2.475151,4.110332-8.009685,5.829758-12.362077,3.839484l-113.572264-51.934654c-4.374482-2.000376-5.900032-6.960073-3.40705-11.076823Z" fill="#333353"/>
    </g>
    <path d="M428.012649,429.517188l53.323639-88.089246c2.475276-4.089091,8.006653-5.774891,12.354313-3.766295l58.960706,27.239537c4.335845,2.003138,5.852155,6.938127,3.387141,11.023562l-53.10239,88.010227c-2.474387,4.100972-8.007028,5.806731-12.357869,3.808959l-59.164795-27.166647c-4.362721-2.003227-5.88545-6.955432-3.400745-11.060098Z" fill="#333353"/>
    <path d="M391.416252,489.973471l22.531635-37.221666c2.486662-4.1079,8.040466-5.813639,12.404412-3.810851l59.181396,27.160699c4.352061,1.997334,5.872345,6.942811,3.396011,11.047009l-22.438019,37.188066c-2.48054,4.111169-8.025323,5.827775-12.384987,3.833175l-59.284865-27.123561c-4.371583-2.000053-5.896475-6.957981-3.405582-11.07287Z" fill="#333353"/>
    <path d="M473.394376,527.496202l89.512479-148.399685c5.779244-9.959143,18.598222-.413902,25.049672,2.115795,4.328807,1.999586,5.843714,6.930711,3.383543,11.014415l-89.370623,148.348753c-5.807891,10.019823-18.688382,.488838-25.177273-2.026994-4.355776-1.99252-5.877388-6.941458-3.397799-11.052285Z" fill="#333353"/>
    <g opacity=".8">
      <path d="M449.15593,434.483105c1.025764-1.520087,2.276659-4.955412,4.780683-3.735639-.000112-.00024,42.229744,19.408693,42.229744,19.408693,2.937483,1.296221-1.070601,7.858828-3.921117,6.496538-.443794-1.357976-47.452354-19.044744-43.08931-22.169592Z" fill="#ef6122"/>
      <path d="M450.005626,437.246809c-2.54204-1.099141-.061593-3.971435,.835334-5.549412,1.831514-3.419447,9.244893,2.524514,11.265267,2.804653l-3.929085,6.498948s-8.171524-3.754193-8.171517-3.75419Z" fill="#fbc55a"/>
      <path d="M455.92373,439.965728l3.929577-6.499124,10.139897,4.660319-3.927364,6.498333-10.142109-4.659527Z" fill="#2a93f2"/>
    </g>
    <g opacity=".8">
      <path d="M468.279972,426.665485c1.014372-1.523747,2.281248-4.948839,4.775586-3.732671-.000089-.000229,29.82323,13.717266,29.82323,13.717266,2.930116,1.293898-1.065363,7.858-3.91928,6.493147-.743697-1.376005-34.488972-13.286253-30.679536-16.477742Z" fill="#ef6122"/>
      <path d="M469.12916,429.427815c-2.539694-1.099011-.061985-3.969239,.833891-5.54617,1.829364-3.417309,9.237153,2.525363,11.255632,2.805681l-3.924528,6.494593c-.000054-.000025-8.164747-3.753991-8.164995-3.754105Z" fill="#fbc55a"/>
      <path d="M477.294155,433.18192l3.924528-6.494593,5.627655,2.588489-3.923301,6.494154-5.628882-2.58805Z" fill="#2a93f2"/>
    </g>
    <g opacity=".8">
      <path d="M508.623158,362.314481c1.011637-1.519513,2.274733-4.936665,4.763538-3.718736-.000089-.000229,29.756896,13.739773,29.756896,13.739773,2.923589,1.296205-1.060993,7.842654-3.908578,6.475737-.742292-1.374765-34.411628-13.316774-30.611856-16.496774Z" fill="#ef6122"/>
      <path d="M509.471026,365.073318c-2.534026-1.101047-.062792-3.962418,.830613-5.535207,1.824272-3.408508,9.216189,2.535335,11.230022,2.818305l-3.913807,6.47717-8.146828-3.760269Z" fill="#fbc55a"/>
      <path d="M517.617854,368.833587l3.913807-6.47717,5.615138,2.592736-3.912585,6.476734-5.61636-2.5923Z" fill="#2a93f2"/>
    </g>
    <g opacity=".8">
      <path d="M463.745027,407.977206c1.024746-1.518411,2.274261-4.95064,4.776227-3.730079-.000112-.00024,42.194979,19.422801,42.194979,19.422801,2.935062,1.297239-1.068997,7.852892-3.917172,6.489683-.443527-1.357353-47.413041-19.062445-43.054034-22.182406Z" fill="#ef6122"/>
      <path d="M464.594234,410.739609c-2.539939-1.100036-.061884-3.96882,.834131-5.545167,1.829654-3.416096,9.238085,2.529258,11.256775,2.810458l-3.925128,6.492085-8.165778-3.757376Z" fill="#fbc55a"/>
      <path d="M468.255682,412.424376l3.92611-6.492436,5.629283,2.591245-3.924883,6.491997-5.630511-2.590806Z" fill="#2a93f2"/>
    </g>
    <g opacity=".8">
      <path d="M495.232187,405.878751c1.003397-1.52614,2.283884-4.940156,4.768146-3.726919-.000069-.00022,18.548189,8.544436,18.548189,8.544436,2.529751,1.096384,.065616,3.965319-.83027,5.538503-1.476123,4.052048-19.678137-7.605372-21.63806-7.594765-1.086766-.501623-1.466626-1.737467-.848006-2.761255Z" fill="#ef6122"/>
      <path d="M496.080606,408.639022c-2.536242-1.099299-.062533-3.965698,.831811-5.540758,1.826203-3.413313,9.224365,2.527735,11.240006,2.808816l-3.917882,6.486775-8.153935-3.754833Z" fill="#fbc55a"/>
      <path d="M500.86054,410.84015l3.918617-6.487038,3.373265,1.553968-3.917882,6.486775-3.374-1.553705Z" fill="#2a93f2"/>
    </g>
    <g opacity=".8">
      <path d="M510.905055,379.94088c1.002338-1.524458,2.281336-4.935319,4.763441-3.721357-.000069-.00022,18.532042,8.550203,18.532042,8.550203,2.527543,1.097218,.065926,3.96263-.828995,5.534168-1.474396,4.04833-19.660869-7.612497-21.618999-7.603128-1.08582-.50196-1.465448-1.737191-.847489-2.759886Z" fill="#ef6122"/>
      <path d="M511.752956,382.699783c-2.534027-1.100135-.062846-3.963005,.830533-5.536419,1.824215-3.409815,9.216172,2.531789,11.229998,2.813942l-3.913697,6.479846-8.146834-3.757369Z" fill="#fbc55a"/>
      <path d="M516.528727,384.902397l3.914431-6.480108,3.370329,1.555016-3.913697,6.479846-3.371062-1.554754Z" fill="#2a93f2"/>
    </g>
    <g opacity=".8">
      <path d="M479.446881,382.018109c1.023666-1.516721,2.271718-4.945799,4.771509-3.724507-.000111-.000239,42.158222,19.435929,42.158222,19.435929,2.932502,1.29819-1.067287,7.846811-3.912987,6.482751-.443248-1.356696-47.371472-19.079101-43.016744-22.194173Z" fill="#ef6122"/>
      <path d="M480.295569,384.779141c-2.537719-1.100873-.062198-3.966123,.83285-5.540821,1.827662-3.412592,9.229872,2.533318,11.246742,2.815592l-3.920932,6.485145-8.15866-3.759917Z" fill="#fbc55a"/>
      <path d="M488.454229,388.539058l3.920932-6.485145,3.374731,1.555845-3.920197,6.484883-3.375466-1.555583Z" fill="#2a93f2"/>
    </g>
    <path d="M462.061378,483.338972c-3.114059-10.130764-14.840648-15.510989-26.198064-12.014917-27.338994,8.382304-14.590295,45.416536,11.28622,36.704787" fill="none" stroke="#5c5c74" stroke-linecap="round" stroke-width="4"/>
    <path d="M446.992748,508.040191c-20.580565,7.131962-36.843304-17.954464-19.408723-32.0949" fill="none" isolation="isolate" opacity=".8" stroke="#fbc55a" stroke-linecap="round" stroke-width="2"/>
    <path d="M430.071528,497.023749c1.742448-1.241098,11.441118-23.151032,14.905297-20.488319,4.519791,.87724-10.827975,20.469786-10.953657,22.297769-.622248,1.027531-2.010192,1.455848-3.101152,.956304-1.091011-.499567-1.471798-1.737866-.850488-2.765754Z" fill="#5b5b74"/>
    <path d="M437.971992,500.641725c1.741762-1.241067,11.435906-23.148608,14.898962-20.486593,4.518204,.876714-10.823111,20.467705-10.948662,22.295428-.621975,1.027433-2.009399,1.455809-3.099989,.956434-1.090642-.499398-1.471349-1.73748-.850311-2.76527Z" fill="#5b5b74"/>
    <path d="M495.605165,536.47583l-.985026-.450888-.56051,.930085,.985057,.450877,.560479-.930074Zm4.763207-7.904196l.984723,.450963,.202811-.336564-.072694-.363084-1.11484,.248686Zm-1.955443-9.792982l-.592603-.843285-.659085,.407437,.136741,.684267,1.114947-.248419Zm8.497979-5.251782l.59237,.843122,.256482-.158764,.143472-.248503-.992324-.435855Zm6.993524-12.025208l.992351,.437384,.287791-.496306-.272577-.468821-1.007565,.527743Zm-6.045831-10.412061l-.275249-.983464-1.380276,.396951,.647089,1.114978s1.008432-.528458,1.008436-.528465Zm18.771129-5.281592l.275099,.982989,.838068-.240843,.017908-.788005-1.131076,.04586Zm.025392-13.499382l-.760156-.717682-.361063,.31986-.009831,.443313s1.131046-.045485,1.13105-.045492Zm11.186209-10.104101l.759724,.717567,.565112-.500428-.265491-.635991-1.059345,.418853Zm-7.927763-19.040728l-.335703-.963255c-.617556,.207688-.950099,.846609-.723994,1.381635l1.059712-.418373-.000015-.000007Zm18.968608-6.464335l.335488,.962786,.677573-.231263,.104721-.64412-1.117774-.087416-.000009,.000014Zm2.086463-12.843055l-.520074-.883301-.511916,.270579-.085083,.524038,1.117082,.08867-.000009,.000014Zm12.543133-6.641062l.519795,.883033,.674297-.357416-.069841-.685057-1.124251,.159441Zm-1.615197-15.751668l-1.030883-.362024-.120649,.254182,.027242,.266825,1.124299-.158996-.000009,.000014Zm4.564023-9.543448l1.030559,.362165c.052315-.078623,.097989-.242982,.092826-.330746l-1.123393-.031405,.000009-.000014Zm-69.870447,145.00647l4.762946-7.904102-1.969488-.901944-4.763467,7.90429,1.97001,.901756Zm4.893062-8.603751l-1.9554-9.7927-2.229815,.49683,1.955487,9.793263,2.229728-.497393Zm-2.477693-8.701023l8.49776-5.251933-1.185732-1.6867-8.496648,5.251157s1.184618,1.68748,1.18462,1.687476Zm8.897713-5.6592l6.993551-12.02368-1.985304-.873858-6.993913,12.025361s1.985662,.872173,1.985666,.872176Zm7.00878-12.988799l-6.045035-10.412754-2.016823,1.05688,6.046098,10.41231,2.01576-1.056437Zm-6.778148-8.900855l18.260177-5.249568-.550222-1.96601-18.260467,5.248645,.550512,1.966934Zm19.636064-6.311493l.463668-13.526735-2.71491,.119625-.463949,13.527646,2.71519-.120536Zm-.593842-12.719621l11.42498-10.119849-1.520455-1.435616-11.425817,10.119651,1.521292,1.435813Zm11.724605-11.256276l-7.926466-19.039769-2.120338,.836273,7.92708,19.040777,2.119725-.837281Zm-8.651392-17.658618l18.968395-6.4648-.670431-1.926516-18.969374,6.464789,.671419,1.926513-.000009,.000014Zm19.75068-7.340169l2.085711-12.841806-2.234104-.177335-2.08666,12.843385,2.235053,.175756Zm1.48874-12.047191l12.542862-6.641317-1.039591-1.766058-12.543404,6.640807,1.040133,1.766568Zm13.147303-7.683798l-1.615766-15.750297-2.247966,.317073,1.615181,15.752121,2.248551-.318898Zm-1.710139-15.229751l4.565287-9.543753-2.060185-.723877-4.565288,9.54315,2.060178,.724494,.000009-.000014Zm4.658121-9.874512l1.139256-11.247216-2.246587-.063423-1.138969,11.246887,2.2463,.063751Zm-70.40289,144.059009l-1.015492-.464859-1.120937,1.860113,1.015555,.464836,1.120873-1.86009Z" fill="#fbc55a" isolation="isolate" opacity=".8"/>
  </g>
  <path d="M597.189709,422.145457c-19.236918-21.821357-44.283688-3.661233-47.862882,14.632179-3.576612,18.293412,15.591059,29.13103,21.60599,30.507851" fill="#f99f10"/>
</svg>