<?xml version="1.0" encoding="UTF-8"?>
<svg id="Layer_1" data-name="Layer 1" xmlns="http://www.w3.org/2000/svg" viewBox="0 0 441.431714 597.029342">
  <path d="M417.827709,441.963258c-51.309203,157.408958-256.607349,207.710328-360.049025,70.30616C-40.616005,376.818999,3.517392,157.00477,122.012258,46.893496c116.320778-104.411126,236.315444,8.80012,282.515603,123.428377,35.825894,85.104979,45.306212,183.949085,13.299848,271.641385Z" fill="#f99f10"/>
  <ellipse cx="283.144734" cy="73.005985" rx="18.967885" ry="44.332658" transform="translate(28.211381 216.218415) rotate(-43.783941)" fill="#f9bb62"/>
  <ellipse cx="236.167377" cy="52.422485" rx="5.341168" ry="12.483159" transform="translate(29.39209 177.989707) rotate(-43.783941)" fill="#f9bb62"/>
  <ellipse cx="246.525908" cy="71.572098" rx="3.039527" ry="4.149414" transform="translate(19.021836 190.481667) rotate(-43.783941)" fill="#f9bb62"/>
  <path d="M430.049106,255.154655c-3.951092-32.77687-51.902316-212.833578-192.480004-249.582885-13.211805-3.453782-26.710431,1.160023-39.092287,4.406221,190.278559,18.029189,304.603132,376.385663,139.307515,520.627647-29.379506,25.637451-68.997043,42.449653-106.830117,48.172178,43.834068-1.476406,91.619841-20.817885,127.158144-50.071139,13.035269-10.71684,27.204561-21.577086,36.147788-34.556293,1.83658-2.66626,3.576027-5.372784,5.196591-8.104804,37.498174-63.241528,40.763973-146.510878,30.59237-230.890924Z" fill="#f7f3ed"/>
  <path d="M196.751905,471.39366C172.131002,428.366451,84.029941,203.861027,234.561687,2.874113,59.184818,1.87399-14.248601,269.984681,7.757699,386.768122c33.983404,180.343754,152.822163,210.261252,218.051862,208.508912,68.464752-1.839247,157.280173-58.996925,184.347766-125.113749-56.71268,68.595746-160.56793,93.568574-213.405422,1.230375Z" fill="#ef6122"/>
  <ellipse cx="392.714441" cy="418.271993" rx="39.32377" ry="11.964739" transform="translate(-27.806453 808.577349) rotate(-89.670884)" fill="#f7f3ed"/>
  <path d="M336.538425,424.933856c11.716327-.822831,23.924523,20.874274,18.867274,46.624-5.05725,25.74973-15.123888,50.355284-37.181193,46.624-11.580656-1.959021-17.114534-19.384402-12.057284-45.134133,5.057249-25.749726,18.654876-47.291036,30.371203-48.113867Z" fill="#f9bb62"/>
  <path d="M278.796003,479.415126c2.970363-2.996545,11.744507,.363386,15.513412,8.825205,3.768907,8.461825,4.826474,17.80656,1.856112,20.803106-2.970363,2.996545-12.154714-.419296-15.923621-8.881121s-4.416265-17.750645-1.445902-20.74719Z" fill="#f9bb62"/>
  <ellipse cx="297.734031" cy="457.595176" rx="6.180019" ry="4.028165" transform="translate(-247.774911 479.016968) rotate(-59.198797)" fill="#f9bb62"/>
  <path d="M218.555104,10.000014c44.900879,0,82.458344,26.902889,106.058441,49.471664,30.498108,29.165337,56.83667,68.903442,74.163879,111.894333l.028687,.070999,.029663,.070663c18.122437,43.050232,29.151123,89.381348,31.893677,133.984467,2.947083,47.930756-3.288696,93.412994-18.534363,135.183319l-.059753,.163788-.054016,.165771c-14.307007,43.891876-41.452332,81.043121-78.501434,107.437469-34.927795,24.883057-77.126099,38.586853-118.821777,38.586853-60.189056,0-114.020004-27.456726-151.584106-77.311157-23.27066-32.055817-39.154083-69.84726-47.211678-112.329498-7.627327-40.21344-7.979439-82.830017-1.046555-126.665771,6.675446-42.208008,20.280342-84.504227,39.343895-122.31601,19.6185-38.912811,44.178253-72.229187,72.994232-99.021786,29.139069-26.134722,59.854797-39.38455,91.298981-39.385105h.002228m-.002472-10.000014c-31.836456,.000619-65.086517,12.418998-98.044418,42.00246C-.095676,154.073684-45.014675,377.800338,55.131443,515.661666c42.16066,56.003113,100.938858,81.367676,159.626663,81.367676,87.866211,0,175.520996-56.871094,206.830902-152.925201,32.576111-89.253113,22.927002-189.856567-13.53656-276.476349C374.120076,83.437591,301.078907-.001606,218.552632,0h0Z" fill="#42303d"/>
  <ellipse cx="386.328395" cy="181.811514" rx="10.658886" ry="16.671904" transform="translate(-40.639767 180.010413) rotate(-24.960635)" fill="#f7f3ed"/>
  <ellipse cx="207.059654" cy="326.247646" rx="5.047971" ry="6.891245" transform="translate(-168.172005 233.984821) rotate(-43.783941)" fill="#f9bb62"/>
  <ellipse cx="241.844932" cy="281.427793" rx="28.32287" ry="56.429733" transform="translate(-113.197219 173.559146) rotate(-32.426097)" fill="#f9bb62"/>
  <g>
    <ellipse cx="149.551169" cy="512.282297" rx="30.07941" ry="56.650939" transform="translate(-316.954734 253.108712) rotate(-44.670884)" fill="#f99f10"/>
    <ellipse cx="76.368448" cy="474.510342" rx="13.005538" ry="24.494174" transform="translate(-184.277272 70.708394) rotate(-23.698526)" fill="#f99f10"/>
    <ellipse cx="66.564008" cy="206.807705" rx="56.429733" ry="28.32287" transform="translate(-150.610549 212.758011) rotate(-73.727927)" fill="#f99f10"/>
    <ellipse cx="119.215054" cy="175.769698" rx="18.710126" ry="11.466459" transform="translate(-75.176874 261.320817) rotate(-79.607188)" fill="#f99f10"/>
    <ellipse cx="115.766542" cy="223.996285" rx="8.40161" ry="6.154344" transform="translate(-126.690317 154.779962) rotate(-46.736089)" fill="#f99f10"/>
    <ellipse cx="35.089107" cy="346.287243" rx="10.306524" ry="23.854447" transform="translate(-205.505406 94.77108) rotate(-37.942613)" fill="#f99f10"/>
    <ellipse cx="35.111679" cy="380.782972" rx="4.483774" ry="6.12103" transform="translate(-253.716638 130.170312) rotate(-43.783941)" fill="#f99f10"/>
    <path d="M180.698799,33.258408c-.226512,8.393198-17.756061,37.884961-24.826723,37.082412-7.069857-.80105-6.210028-19.752501-3.578409-29.002863,2.632747-9.250033,28.903209-26.554487,28.405132-8.079549Z" fill="#f99f10"/>
    <ellipse cx="194.76852" cy="28.254597" rx="8.40161" ry="6.154344" transform="translate(40.706877 150.721363) rotate(-46.736089)" fill="#f99f10"/>
  </g>
  <path d="M235.43852,335.785382c1.333014,6.22874-6.320701,31.105706-11.677291,31.777649-5.355728,.672905-8.108756-13.453561-7.821689-20.744121,.287958-7.290518,16.564396-24.744013,19.49898-11.033528Z" fill="#f9bb62"/>
</svg>