<?xml version="1.0" encoding="UTF-8"?><svg id="Layer_1" xmlns="http://www.w3.org/2000/svg" xmlns:xlink="http://www.w3.org/1999/xlink" viewBox="0 0 135.99 147.89"><defs><style>.cls-1{fill:url(#linear-gradient);}</style><linearGradient id="linear-gradient" x1="68" y1="5703" x2="68" y2="5568" gradientTransform="translate(0 -5522)" gradientUnits="userSpaceOnUse"><stop offset="0" stop-color="#fff100"/><stop offset="1" stop-color="#f05a28"/></linearGradient></defs><path class="cls-1" d="M135.81,65.2c-.16-2.54-.64-5.41-1.43-8.43-.8-3.18-2.07-6.52-3.82-10.18-1.75-3.5-4.13-7.31-7.16-10.97-1.11-1.43-2.54-2.86-3.82-4.13,2.07-8.27-2.54-15.42-2.54-15.42-7.95-.48-13.04,2.54-14.95,3.82-.32-.16-.64-.32-.95-.32-1.27-.64-2.7-1.11-4.13-1.43s-2.86-.8-4.45-1.27c-1.43-.32-3.02-.64-4.61-.95-.32,0-.48-.16-.8-.16C83.65,4.61,73.63,0,73.63,0c-11.13,7-13.2,16.86-13.2,16.86,0,0,0,.16-.16,.64l-1.91,.48c-.8,.32-1.75,.64-2.54,.95-.8,.32-1.75,.64-2.54,.95-1.59,.64-3.34,1.59-4.93,2.39-1.59,.95-3.18,1.91-4.61,2.86-.16-.16-.32-.16-.32-.16-15.42-5.88-29.1,1.27-29.1,1.27-.95,16.38,6.36,26.72,7.79,28.62-.32,.95-.64,2.07-.95,3.02-1.11,3.66-1.91,7.47-2.54,11.45-.16,.48-.16,1.11-.16,1.75C4.3,78.08,0,92.39,0,92.39c11.93,13.68,25.6,14.47,25.6,14.47h0c1.75,3.18,3.82,6.04,6.04,8.91,.95,1.11,1.91,2.23,3.02,3.34-4.29,12.4,.64,22.58,.64,22.58,13.2,.48,21.94-5.72,23.69-7.16,1.27,.48,2.7,.8,3.98,1.27,3.98,1.11,8.27,1.59,12.4,1.91h5.25c6.2,8.91,17.17,10.18,17.17,10.18,7.79-8.27,8.27-16.38,8.27-18.13h0v-.48h0v-.32c1.59-1.11,3.18-2.39,4.61-3.66,3.18-2.86,5.88-6.04,8.11-9.54,.16-.32,.48-.64,.64-.95,8.75,.48,14.95-5.41,14.95-5.41-1.43-9.22-6.68-13.68-7.79-14.47h-.32s-.16,0-.16-.16c0-.48,.16-1.11,.16-1.59,0-.95,.16-1.91,.16-3.02v-3.82c0-.32,0-.48-.16-.8l-.16-.8-.16-.8c-.16-.95-.32-2.07-.64-3.02-.95-3.98-2.54-7.63-4.45-11.13-2.07-3.34-4.61-6.36-7.47-8.91-2.86-2.54-6.04-4.61-9.38-6.04s-6.84-2.54-10.34-2.86c-1.75-.16-3.5-.32-5.25-.32h-.8s-.32,0-.16,0h-1.75c-.95,0-1.75,.16-2.7,.32-3.5,.64-6.84,1.91-9.7,3.66-2.86,1.75-5.41,3.98-7.47,6.36-2.07,2.39-3.66,5.25-4.77,7.95s-1.75,5.72-1.91,8.59v4.13c.16,1.43,.32,2.86,.8,4.13,.8,2.7,1.91,5.09,3.5,7.16s3.34,3.66,5.25,5.09c1.91,1.27,3.98,2.23,6.04,2.86s3.98,.8,6.04,.8h2.7c.32,0,.48-.16,.64-.16s.48-.16,.64-.16c.48-.16,.8-.16,1.27-.32l2.39-.95c.8-.32,1.43-.8,2.07-1.27,.16-.16,.32-.32,.48-.32,.64-.48,.8-1.43,.32-2.07-.48-.64-1.27-.8-1.91-.32-.16,0-.32,.16-.48,.32-.48,.32-1.11,.48-1.75,.8l-1.91,.48c-.32,0-.64,.16-.95,.16h-2.07s-.16,0,0,0h-.95c-1.43-.16-3.02-.64-4.45-1.27-1.43-.64-2.86-1.59-4.13-2.7-1.27-1.11-2.39-2.54-3.18-3.98-.8-1.43-1.43-3.18-1.75-5.09-.16-.95-.16-1.91-.16-2.7v-.8h0v-.64c0-.48,.16-.95,.16-1.43,.64-3.98,2.7-7.79,5.72-10.65,.8-.8,1.59-1.43,2.39-1.91,.8-.64,1.75-1.11,2.7-1.59,.95-.48,1.91-.8,3.02-1.11,1.11-.32,2.07-.48,3.18-.48h2.7c.16,0,0,0,0,0h.64c1.11,.16,2.39,.32,3.5,.48,2.23,.48,4.45,1.27,6.68,2.54,4.13,2.39,7.63,5.88,9.86,10.18,1.11,2.23,1.91,4.45,2.23,6.84,.16,.64,.16,1.27,.16,1.75v3.82c0,.64-.16,1.27-.16,1.91-.16,.64-.16,1.27-.32,1.91l-.48,1.91c-.32,1.27-.8,2.54-1.27,3.82-.95,2.39-2.23,4.77-3.82,7-3.18,4.29-7.47,7.79-12.24,10.02-2.39,1.11-5.09,1.91-7.63,2.39-1.27,.16-2.7,.32-3.98,.32h-1.91c.16,0,0,0,0,0h-.16c-.8,0-1.43,0-2.07-.16-2.86-.16-5.72-.64-8.43-1.43s-5.41-1.91-7.95-3.18c-5.09-2.7-9.54-6.36-13.04-10.81-1.75-2.23-3.34-4.61-4.61-7.16-1.27-2.54-2.23-5.09-3.02-7.79-.8-2.7-1.27-5.41-1.43-8.27v-3.18h0v-1.27c0-1.43,.16-2.7,.32-4.13,.16-1.43,.48-2.86,.64-4.29s.64-2.86,.95-4.13c.8-2.7,1.75-5.41,2.86-7.79,2.39-4.93,5.41-9.38,8.91-12.88,.95-.95,1.91-1.75,2.86-2.54,.95-.8,1.91-1.59,3.02-2.23,1.11-.64,2.07-1.27,3.18-1.91,.48-.32,1.11-.64,1.59-.8,.32-.16,.64-.32,.8-.32s.64-.32,.8-.32c1.11-.48,2.39-.95,3.5-1.27,.32-.16,.64-.16,.95-.32s.64-.16,.95-.32l1.91-.48c.32,0,.64-.16,.95-.16s.64-.16,.95-.16,.64-.16,.95-.16h.95c.32,0,.64-.16,.95-.16s.64,0,1.11-.16c.32,0,.8-.16,1.11-.16h3.18s.16,0,0,0h4.77c2.39,.16,4.77,.32,7,.8,4.45,.8,8.75,2.23,12.56,4.13,3.82,1.91,7.31,4.13,10.34,6.68l.48,.48,.48,.48c.32,.32,.64,.64,1.11,.95s.64,.64,.95,.95l.95,.95c1.27,1.43,2.39,2.7,3.5,4.13,2.07,2.7,3.82,5.57,5.25,8.11,.16,.16,.16,.32,.32,.48s.16,.32,.32,.48l.48,.95,.48,.95c.16,.32,.32,.64,.32,.95,.48,1.27,.95,2.39,1.27,3.5,.64,1.75,1.11,3.34,1.43,4.77,.16,.48,.64,.95,1.27,.8,.64,0,1.11-.48,1.11-1.11,.32-1.91,.16-3.66,0-5.72Z"/></svg>