<svg xmlns="http://www.w3.org/2000/svg" xmlns:xlink="http://www.w3.org/1999/xlink" id="Layer_1" x="0" y="0" version="1.1" viewBox="0 0 80 80" xml:space="preserve" style="enable-background:new 0 0 80 80"><style type="text/css">.st0{clip-path:url(#SVGID_2_);fill:#f0bf1a}.st1{clip-path:url(#SVGID_4_);fill:#3ebeb0}.st2{clip-path:url(#SVGID_6_);fill:#07a5de}.st3{clip-path:url(#SVGID_8_);fill:#231f20}.st4{fill:#d7a229}.st5{fill:#019b8f}.st6{fill:none}</style><g><g><g><g><g><defs><circle id="SVGID_1_" cx="40" cy="40" r="32"/></defs><clipPath id="SVGID_2_"><use xlink:href="#SVGID_1_" style="overflow:visible"/></clipPath><path d="M53.7,26H10c-1.1,0-2-0.9-2-2V10c0-1.1,0.9-2,2-2h57c1.1,0,2,0.9,2,2v0.7C68.9,19.1,62.1,26,53.7,26z" class="st0"/></g></g><g><g><defs><circle id="SVGID_3_" cx="40" cy="40" r="32"/></defs><clipPath id="SVGID_4_"><use xlink:href="#SVGID_3_" style="overflow:visible"/></clipPath><path d="M69.1,72H8.2l0,0V54l0,0h45.7c8.4,0,15.2,6.8,15.2,15.2V72L69.1,72z" class="st1"/></g></g><g><g><defs><circle id="SVGID_5_" cx="40" cy="40" r="32"/></defs><clipPath id="SVGID_6_"><use xlink:href="#SVGID_5_" style="overflow:visible"/></clipPath><path d="M50.1,49H4.8V31h45.3c5,0,9,4,9,9l0,0C59.1,45,55,49,50.1,49z" class="st2"/></g></g><g><g><defs><circle id="SVGID_7_" cx="40" cy="40" r="32"/></defs><clipPath id="SVGID_8_"><use xlink:href="#SVGID_7_" style="overflow:visible"/></clipPath><path d="M36,31H6.4v18H36c0.7-2.7,1.1-5.7,1.1-9S36.7,33.7,36,31z" class="st3"/></g></g></g><path d="M23.9,12.3c-5.4,3.2-9.9,8-12.7,13.7h23.6C32.4,20.5,28.6,15.9,23.9,12.3z" class="st4"/><path d="M24.9,68.2c4.6-3.7,8.3-8.6,10.6-14.2H11.2C14.2,60,19,65,24.9,68.2z" class="st5"/></g></g><rect width="80" height="80" class="st6"/></svg>