<!--LOGZ.IO GRAFANA CHANGE :: Add datasource logos-->
<svg width="44" height="12" viewBox="0 0 44 12" fill="none" xmlns="http://www.w3.org/2000/svg">
  <path d="M5.32617 6.80273C5.32617 6.42773 5.19336 6.13867 4.92773 5.93555C4.66602 5.73242 4.19141 5.52734 3.50391 5.32031C2.81641 5.11328 2.26953 4.88281 1.86328 4.62891C1.08594 4.14062 0.697266 3.50391 0.697266 2.71875C0.697266 2.03125 0.976562 1.46484 1.53516 1.01953C2.09766 0.574219 2.82617 0.351562 3.7207 0.351562C4.31445 0.351562 4.84375 0.460938 5.30859 0.679688C5.77344 0.898437 6.13867 1.21094 6.4043 1.61719C6.66992 2.01953 6.80273 2.4668 6.80273 2.95898H5.32617C5.32617 2.51367 5.18555 2.16602 4.9043 1.91602C4.62695 1.66211 4.22852 1.53516 3.70898 1.53516C3.22461 1.53516 2.84766 1.63867 2.57812 1.8457C2.3125 2.05273 2.17969 2.3418 2.17969 2.71289C2.17969 3.02539 2.32422 3.28711 2.61328 3.49805C2.90234 3.70508 3.37891 3.9082 4.04297 4.10742C4.70703 4.30273 5.24023 4.52734 5.64258 4.78125C6.04492 5.03125 6.33984 5.32031 6.52734 5.64844C6.71484 5.97266 6.80859 6.35352 6.80859 6.79102C6.80859 7.50195 6.53516 8.06836 5.98828 8.49023C5.44531 8.9082 4.70703 9.11719 3.77344 9.11719C3.15625 9.11719 2.58789 9.00391 2.06836 8.77734C1.55273 8.54688 1.15039 8.23047 0.861328 7.82812C0.576172 7.42578 0.433594 6.95703 0.433594 6.42188H1.91602C1.91602 6.90625 2.07617 7.28125 2.39648 7.54688C2.7168 7.8125 3.17578 7.94531 3.77344 7.94531C4.28906 7.94531 4.67578 7.8418 4.93359 7.63477C5.19531 7.42383 5.32617 7.14648 5.32617 6.80273ZM10.7637 9.11719C9.86133 9.11719 9.12891 8.83398 8.56641 8.26758C8.00781 7.69727 7.72852 6.93945 7.72852 5.99414V5.81836C7.72852 5.18555 7.84961 4.62109 8.0918 4.125C8.33789 3.625 8.68164 3.23633 9.12305 2.95898C9.56445 2.68164 10.0566 2.54297 10.5996 2.54297C11.4629 2.54297 12.1289 2.81836 12.5977 3.36914C13.0703 3.91992 13.3066 4.69922 13.3066 5.70703V6.28125H9.16406C9.20703 6.80469 9.38086 7.21875 9.68555 7.52344C9.99414 7.82812 10.3809 7.98047 10.8457 7.98047C11.498 7.98047 12.0293 7.7168 12.4395 7.18945L13.207 7.92188C12.9531 8.30078 12.6133 8.5957 12.1875 8.80664C11.7656 9.01367 11.291 9.11719 10.7637 9.11719ZM10.5938 3.68555C10.2031 3.68555 9.88672 3.82227 9.64453 4.0957C9.40625 4.36914 9.25391 4.75 9.1875 5.23828H11.9004V5.13281C11.8691 4.65625 11.7422 4.29688 11.5195 4.05469C11.2969 3.80859 10.9883 3.68555 10.5938 3.68555ZM17.0215 7.98047C17.377 7.98047 17.6719 7.87695 17.9062 7.66992C18.1406 7.46289 18.2656 7.20703 18.2812 6.90234H19.623C19.6074 7.29688 19.4844 7.66602 19.2539 8.00977C19.0234 8.34961 18.7109 8.61914 18.3164 8.81836C17.9219 9.01758 17.4961 9.11719 17.0391 9.11719C16.1523 9.11719 15.4492 8.83008 14.9297 8.25586C14.4102 7.68164 14.1504 6.88867 14.1504 5.87695V5.73047C14.1504 4.76562 14.4082 3.99414 14.9238 3.41602C15.4395 2.83398 16.1426 2.54297 17.0332 2.54297C17.7871 2.54297 18.4004 2.76367 18.873 3.20508C19.3496 3.64258 19.5996 4.21875 19.623 4.93359H18.2812C18.2656 4.57031 18.1406 4.27148 17.9062 4.03711C17.6758 3.80273 17.3809 3.68555 17.0215 3.68555C16.5605 3.68555 16.2051 3.85352 15.9551 4.18945C15.7051 4.52148 15.5781 5.02734 15.5742 5.70703V5.93555C15.5742 6.62305 15.6973 7.13672 15.9434 7.47656C16.1934 7.8125 16.5527 7.98047 17.0215 7.98047ZM24.5391 8.37891C24.1211 8.87109 23.5273 9.11719 22.7578 9.11719C22.0703 9.11719 21.5488 8.91602 21.1934 8.51367C20.8418 8.11133 20.666 7.5293 20.666 6.76758V2.66016H22.0898V6.75C22.0898 7.55469 22.4238 7.95703 23.0918 7.95703C23.7832 7.95703 24.25 7.70898 24.4922 7.21289V2.66016H25.916V9H24.5742L24.5391 8.37891ZM30.6855 3.96094C30.498 3.92969 30.3047 3.91406 30.1055 3.91406C29.4531 3.91406 29.0137 4.16406 28.7871 4.66406V9H27.3633V2.66016H28.7227L28.7578 3.36914C29.1016 2.81836 29.5781 2.54297 30.1875 2.54297C30.3906 2.54297 30.5586 2.57031 30.6914 2.625L30.6855 3.96094ZM33.0996 9H31.6758V2.66016H33.0996V9ZM31.5879 1.01367C31.5879 0.794922 31.6562 0.613281 31.793 0.46875C31.9336 0.324219 32.1328 0.251953 32.3906 0.251953C32.6484 0.251953 32.8477 0.324219 32.9883 0.46875C33.1289 0.613281 33.1992 0.794922 33.1992 1.01367C33.1992 1.22852 33.1289 1.4082 32.9883 1.55273C32.8477 1.69336 32.6484 1.76367 32.3906 1.76367C32.1328 1.76367 31.9336 1.69336 31.793 1.55273C31.6562 1.4082 31.5879 1.22852 31.5879 1.01367ZM36.4395 1.11914V2.66016H37.5586V3.71484H36.4395V7.25391C36.4395 7.49609 36.4863 7.67188 36.5801 7.78125C36.6777 7.88672 36.8496 7.93945 37.0957 7.93945C37.2598 7.93945 37.4258 7.91992 37.5938 7.88086V8.98242C37.2695 9.07227 36.957 9.11719 36.6562 9.11719C35.5625 9.11719 35.0156 8.51367 35.0156 7.30664V3.71484H33.9727V2.66016H35.0156V1.11914H36.4395ZM40.8691 6.96094L42.1582 2.66016H43.6758L41.1562 9.96094C40.7695 11.0273 40.1133 11.5605 39.1875 11.5605C38.9805 11.5605 38.752 11.5254 38.502 11.4551V10.3535L38.7715 10.3711C39.1309 10.3711 39.4004 10.3047 39.5801 10.1719C39.7637 10.043 39.9082 9.82422 40.0137 9.51562L40.2188 8.9707L37.9922 2.66016H39.5273L40.8691 6.96094Z" fill="#FF9270"/>
  <path d="M5.32617 6.80273C5.32617 6.42773 5.19336 6.13867 4.92773 5.93555C4.66602 5.73242 4.19141 5.52734 3.50391 5.32031C2.81641 5.11328 2.26953 4.88281 1.86328 4.62891C1.08594 4.14062 0.697266 3.50391 0.697266 2.71875C0.697266 2.03125 0.976562 1.46484 1.53516 1.01953C2.09766 0.574219 2.82617 0.351562 3.7207 0.351562C4.31445 0.351562 4.84375 0.460938 5.30859 0.679688C5.77344 0.898437 6.13867 1.21094 6.4043 1.61719C6.66992 2.01953 6.80273 2.4668 6.80273 2.95898H5.32617C5.32617 2.51367 5.18555 2.16602 4.9043 1.91602C4.62695 1.66211 4.22852 1.53516 3.70898 1.53516C3.22461 1.53516 2.84766 1.63867 2.57812 1.8457C2.3125 2.05273 2.17969 2.3418 2.17969 2.71289C2.17969 3.02539 2.32422 3.28711 2.61328 3.49805C2.90234 3.70508 3.37891 3.9082 4.04297 4.10742C4.70703 4.30273 5.24023 4.52734 5.64258 4.78125C6.04492 5.03125 6.33984 5.32031 6.52734 5.64844C6.71484 5.97266 6.80859 6.35352 6.80859 6.79102C6.80859 7.50195 6.53516 8.06836 5.98828 8.49023C5.44531 8.9082 4.70703 9.11719 3.77344 9.11719C3.15625 9.11719 2.58789 9.00391 2.06836 8.77734C1.55273 8.54688 1.15039 8.23047 0.861328 7.82812C0.576172 7.42578 0.433594 6.95703 0.433594 6.42188H1.91602C1.91602 6.90625 2.07617 7.28125 2.39648 7.54688C2.7168 7.8125 3.17578 7.94531 3.77344 7.94531C4.28906 7.94531 4.67578 7.8418 4.93359 7.63477C5.19531 7.42383 5.32617 7.14648 5.32617 6.80273ZM10.7637 9.11719C9.86133 9.11719 9.12891 8.83398 8.56641 8.26758C8.00781 7.69727 7.72852 6.93945 7.72852 5.99414V5.81836C7.72852 5.18555 7.84961 4.62109 8.0918 4.125C8.33789 3.625 8.68164 3.23633 9.12305 2.95898C9.56445 2.68164 10.0566 2.54297 10.5996 2.54297C11.4629 2.54297 12.1289 2.81836 12.5977 3.36914C13.0703 3.91992 13.3066 4.69922 13.3066 5.70703V6.28125H9.16406C9.20703 6.80469 9.38086 7.21875 9.68555 7.52344C9.99414 7.82812 10.3809 7.98047 10.8457 7.98047C11.498 7.98047 12.0293 7.7168 12.4395 7.18945L13.207 7.92188C12.9531 8.30078 12.6133 8.5957 12.1875 8.80664C11.7656 9.01367 11.291 9.11719 10.7637 9.11719ZM10.5938 3.68555C10.2031 3.68555 9.88672 3.82227 9.64453 4.0957C9.40625 4.36914 9.25391 4.75 9.1875 5.23828H11.9004V5.13281C11.8691 4.65625 11.7422 4.29688 11.5195 4.05469C11.2969 3.80859 10.9883 3.68555 10.5938 3.68555ZM17.0215 7.98047C17.377 7.98047 17.6719 7.87695 17.9062 7.66992C18.1406 7.46289 18.2656 7.20703 18.2812 6.90234H19.623C19.6074 7.29688 19.4844 7.66602 19.2539 8.00977C19.0234 8.34961 18.7109 8.61914 18.3164 8.81836C17.9219 9.01758 17.4961 9.11719 17.0391 9.11719C16.1523 9.11719 15.4492 8.83008 14.9297 8.25586C14.4102 7.68164 14.1504 6.88867 14.1504 5.87695V5.73047C14.1504 4.76562 14.4082 3.99414 14.9238 3.41602C15.4395 2.83398 16.1426 2.54297 17.0332 2.54297C17.7871 2.54297 18.4004 2.76367 18.873 3.20508C19.3496 3.64258 19.5996 4.21875 19.623 4.93359H18.2812C18.2656 4.57031 18.1406 4.27148 17.9062 4.03711C17.6758 3.80273 17.3809 3.68555 17.0215 3.68555C16.5605 3.68555 16.2051 3.85352 15.9551 4.18945C15.7051 4.52148 15.5781 5.02734 15.5742 5.70703V5.93555C15.5742 6.62305 15.6973 7.13672 15.9434 7.47656C16.1934 7.8125 16.5527 7.98047 17.0215 7.98047ZM24.5391 8.37891C24.1211 8.87109 23.5273 9.11719 22.7578 9.11719C22.0703 9.11719 21.5488 8.91602 21.1934 8.51367C20.8418 8.11133 20.666 7.5293 20.666 6.76758V2.66016H22.0898V6.75C22.0898 7.55469 22.4238 7.95703 23.0918 7.95703C23.7832 7.95703 24.25 7.70898 24.4922 7.21289V2.66016H25.916V9H24.5742L24.5391 8.37891ZM30.6855 3.96094C30.498 3.92969 30.3047 3.91406 30.1055 3.91406C29.4531 3.91406 29.0137 4.16406 28.7871 4.66406V9H27.3633V2.66016H28.7227L28.7578 3.36914C29.1016 2.81836 29.5781 2.54297 30.1875 2.54297C30.3906 2.54297 30.5586 2.57031 30.6914 2.625L30.6855 3.96094ZM33.0996 9H31.6758V2.66016H33.0996V9ZM31.5879 1.01367C31.5879 0.794922 31.6562 0.613281 31.793 0.46875C31.9336 0.324219 32.1328 0.251953 32.3906 0.251953C32.6484 0.251953 32.8477 0.324219 32.9883 0.46875C33.1289 0.613281 33.1992 0.794922 33.1992 1.01367C33.1992 1.22852 33.1289 1.4082 32.9883 1.55273C32.8477 1.69336 32.6484 1.76367 32.3906 1.76367C32.1328 1.76367 31.9336 1.69336 31.793 1.55273C31.6562 1.4082 31.5879 1.22852 31.5879 1.01367ZM36.4395 1.11914V2.66016H37.5586V3.71484H36.4395V7.25391C36.4395 7.49609 36.4863 7.67188 36.5801 7.78125C36.6777 7.88672 36.8496 7.93945 37.0957 7.93945C37.2598 7.93945 37.4258 7.91992 37.5938 7.88086V8.98242C37.2695 9.07227 36.957 9.11719 36.6562 9.11719C35.5625 9.11719 35.0156 8.51367 35.0156 7.30664V3.71484H33.9727V2.66016H35.0156V1.11914H36.4395ZM40.8691 6.96094L42.1582 2.66016H43.6758L41.1562 9.96094C40.7695 11.0273 40.1133 11.5605 39.1875 11.5605C38.9805 11.5605 38.752 11.5254 38.502 11.4551V10.3535L38.7715 10.3711C39.1309 10.3711 39.4004 10.3047 39.5801 10.1719C39.7637 10.043 39.9082 9.82422 40.0137 9.51562L40.2188 8.9707L37.9922 2.66016H39.5273L40.8691 6.96094Z" fill="#EAAEFF"/>
  <path d="M5.32617 6.80273C5.32617 6.42773 5.19336 6.13867 4.92773 5.93555C4.66602 5.73242 4.19141 5.52734 3.50391 5.32031C2.81641 5.11328 2.26953 4.88281 1.86328 4.62891C1.08594 4.14062 0.697266 3.50391 0.697266 2.71875C0.697266 2.03125 0.976562 1.46484 1.53516 1.01953C2.09766 0.574219 2.82617 0.351562 3.7207 0.351562C4.31445 0.351562 4.84375 0.460938 5.30859 0.679688C5.77344 0.898437 6.13867 1.21094 6.4043 1.61719C6.66992 2.01953 6.80273 2.4668 6.80273 2.95898H5.32617C5.32617 2.51367 5.18555 2.16602 4.9043 1.91602C4.62695 1.66211 4.22852 1.53516 3.70898 1.53516C3.22461 1.53516 2.84766 1.63867 2.57812 1.8457C2.3125 2.05273 2.17969 2.3418 2.17969 2.71289C2.17969 3.02539 2.32422 3.28711 2.61328 3.49805C2.90234 3.70508 3.37891 3.9082 4.04297 4.10742C4.70703 4.30273 5.24023 4.52734 5.64258 4.78125C6.04492 5.03125 6.33984 5.32031 6.52734 5.64844C6.71484 5.97266 6.80859 6.35352 6.80859 6.79102C6.80859 7.50195 6.53516 8.06836 5.98828 8.49023C5.44531 8.9082 4.70703 9.11719 3.77344 9.11719C3.15625 9.11719 2.58789 9.00391 2.06836 8.77734C1.55273 8.54688 1.15039 8.23047 0.861328 7.82812C0.576172 7.42578 0.433594 6.95703 0.433594 6.42188H1.91602C1.91602 6.90625 2.07617 7.28125 2.39648 7.54688C2.7168 7.8125 3.17578 7.94531 3.77344 7.94531C4.28906 7.94531 4.67578 7.8418 4.93359 7.63477C5.19531 7.42383 5.32617 7.14648 5.32617 6.80273ZM10.7637 9.11719C9.86133 9.11719 9.12891 8.83398 8.56641 8.26758C8.00781 7.69727 7.72852 6.93945 7.72852 5.99414V5.81836C7.72852 5.18555 7.84961 4.62109 8.0918 4.125C8.33789 3.625 8.68164 3.23633 9.12305 2.95898C9.56445 2.68164 10.0566 2.54297 10.5996 2.54297C11.4629 2.54297 12.1289 2.81836 12.5977 3.36914C13.0703 3.91992 13.3066 4.69922 13.3066 5.70703V6.28125H9.16406C9.20703 6.80469 9.38086 7.21875 9.68555 7.52344C9.99414 7.82812 10.3809 7.98047 10.8457 7.98047C11.498 7.98047 12.0293 7.7168 12.4395 7.18945L13.207 7.92188C12.9531 8.30078 12.6133 8.5957 12.1875 8.80664C11.7656 9.01367 11.291 9.11719 10.7637 9.11719ZM10.5938 3.68555C10.2031 3.68555 9.88672 3.82227 9.64453 4.0957C9.40625 4.36914 9.25391 4.75 9.1875 5.23828H11.9004V5.13281C11.8691 4.65625 11.7422 4.29688 11.5195 4.05469C11.2969 3.80859 10.9883 3.68555 10.5938 3.68555ZM17.0215 7.98047C17.377 7.98047 17.6719 7.87695 17.9062 7.66992C18.1406 7.46289 18.2656 7.20703 18.2812 6.90234H19.623C19.6074 7.29688 19.4844 7.66602 19.2539 8.00977C19.0234 8.34961 18.7109 8.61914 18.3164 8.81836C17.9219 9.01758 17.4961 9.11719 17.0391 9.11719C16.1523 9.11719 15.4492 8.83008 14.9297 8.25586C14.4102 7.68164 14.1504 6.88867 14.1504 5.87695V5.73047C14.1504 4.76562 14.4082 3.99414 14.9238 3.41602C15.4395 2.83398 16.1426 2.54297 17.0332 2.54297C17.7871 2.54297 18.4004 2.76367 18.873 3.20508C19.3496 3.64258 19.5996 4.21875 19.623 4.93359H18.2812C18.2656 4.57031 18.1406 4.27148 17.9062 4.03711C17.6758 3.80273 17.3809 3.68555 17.0215 3.68555C16.5605 3.68555 16.2051 3.85352 15.9551 4.18945C15.7051 4.52148 15.5781 5.02734 15.5742 5.70703V5.93555C15.5742 6.62305 15.6973 7.13672 15.9434 7.47656C16.1934 7.8125 16.5527 7.98047 17.0215 7.98047ZM24.5391 8.37891C24.1211 8.87109 23.5273 9.11719 22.7578 9.11719C22.0703 9.11719 21.5488 8.91602 21.1934 8.51367C20.8418 8.11133 20.666 7.5293 20.666 6.76758V2.66016H22.0898V6.75C22.0898 7.55469 22.4238 7.95703 23.0918 7.95703C23.7832 7.95703 24.25 7.70898 24.4922 7.21289V2.66016H25.916V9H24.5742L24.5391 8.37891ZM30.6855 3.96094C30.498 3.92969 30.3047 3.91406 30.1055 3.91406C29.4531 3.91406 29.0137 4.16406 28.7871 4.66406V9H27.3633V2.66016H28.7227L28.7578 3.36914C29.1016 2.81836 29.5781 2.54297 30.1875 2.54297C30.3906 2.54297 30.5586 2.57031 30.6914 2.625L30.6855 3.96094ZM33.0996 9H31.6758V2.66016H33.0996V9ZM31.5879 1.01367C31.5879 0.794922 31.6562 0.613281 31.793 0.46875C31.9336 0.324219 32.1328 0.251953 32.3906 0.251953C32.6484 0.251953 32.8477 0.324219 32.9883 0.46875C33.1289 0.613281 33.1992 0.794922 33.1992 1.01367C33.1992 1.22852 33.1289 1.4082 32.9883 1.55273C32.8477 1.69336 32.6484 1.76367 32.3906 1.76367C32.1328 1.76367 31.9336 1.69336 31.793 1.55273C31.6562 1.4082 31.5879 1.22852 31.5879 1.01367ZM36.4395 1.11914V2.66016H37.5586V3.71484H36.4395V7.25391C36.4395 7.49609 36.4863 7.67188 36.5801 7.78125C36.6777 7.88672 36.8496 7.93945 37.0957 7.93945C37.2598 7.93945 37.4258 7.91992 37.5938 7.88086V8.98242C37.2695 9.07227 36.957 9.11719 36.6562 9.11719C35.5625 9.11719 35.0156 8.51367 35.0156 7.30664V3.71484H33.9727V2.66016H35.0156V1.11914H36.4395ZM40.8691 6.96094L42.1582 2.66016H43.6758L41.1562 9.96094C40.7695 11.0273 40.1133 11.5605 39.1875 11.5605C38.9805 11.5605 38.752 11.5254 38.502 11.4551V10.3535L38.7715 10.3711C39.1309 10.3711 39.4004 10.3047 39.5801 10.1719C39.7637 10.043 39.9082 9.82422 40.0137 9.51562L40.2188 8.9707L37.9922 2.66016H39.5273L40.8691 6.96094Z" fill="#CDBBFF"/>
</svg>
