<!--LOGZ.IO GRAFANA CHANGE :: Add datasource logos-->
<svg width="44" height="12" viewBox="0 0 44 12" fill="none" xmlns="http://www.w3.org/2000/svg">
  <path d="M3.78906 0.468753L6.25 7.00781L8.70508 0.468753H10.6211V9H9.14453V6.1875L9.29102 2.42578L6.77148 9H5.71094L3.19727 2.43164L3.34375 6.1875V9H1.86719V0.468753H3.78906ZM15.0332 9.1172C14.1309 9.1172 13.3984 8.834 12.8359 8.2676C12.2773 7.69727 11.998 6.93945 11.998 5.99414V5.81836C11.998 5.18555 12.1191 4.62109 12.3613 4.125C12.6074 3.625 12.9512 3.23633 13.3926 2.95898C13.834 2.68164 14.3262 2.54297 14.8691 2.54297C15.7324 2.54297 16.3984 2.81836 16.8672 3.36914C17.3398 3.91992 17.5762 4.69922 17.5762 5.70703V6.28125H13.4336C13.4766 6.80469 13.6504 7.21875 13.9551 7.52344C14.2637 7.82812 14.6504 7.98047 15.1152 7.98047C15.7676 7.98047 16.2988 7.7168 16.709 7.18945L17.4766 7.92188C17.2227 8.3008 16.8828 8.5957 16.457 8.8066C16.0352 9.0137 15.5605 9.1172 15.0332 9.1172ZM14.8633 3.68555C14.4727 3.68555 14.1562 3.82227 13.9141 4.0957C13.6758 4.36914 13.5234 4.75 13.457 5.23828H16.1699V5.13281C16.1387 4.65625 16.0117 4.29688 15.7891 4.05469C15.5664 3.80859 15.2578 3.68555 14.8633 3.68555ZM20.4707 1.11914V2.66016H21.5898V3.71484H20.4707V7.25391C20.4707 7.49609 20.5176 7.67188 20.6113 7.78125C20.709 7.88672 20.8809 7.93945 21.127 7.93945C21.291 7.93945 21.457 7.91992 21.625 7.88086V8.9824C21.3008 9.0723 20.9883 9.1172 20.6875 9.1172C19.5938 9.1172 19.0469 8.5137 19.0469 7.30664V3.71484H18.0039V2.66016H19.0469V1.11914H20.4707ZM26.002 3.96094C25.8145 3.92969 25.6211 3.91406 25.4219 3.91406C24.7695 3.91406 24.3301 4.16406 24.1035 4.66406V9H22.6797V2.66016H24.0391L24.0742 3.36914C24.418 2.81836 24.8945 2.54297 25.5039 2.54297C25.707 2.54297 25.875 2.57031 26.0078 2.625L26.002 3.96094ZM28.416 9H26.9922V2.66016H28.416V9ZM26.9043 1.01367C26.9043 0.794923 26.9727 0.613283 27.1094 0.468753C27.25 0.324223 27.4492 0.251953 27.707 0.251953C27.9648 0.251953 28.1641 0.324223 28.3047 0.468753C28.4453 0.613283 28.5156 0.794923 28.5156 1.01367C28.5156 1.22852 28.4453 1.4082 28.3047 1.55273C28.1641 1.69336 27.9648 1.76367 27.707 1.76367C27.4492 1.76367 27.25 1.69336 27.1094 1.55273C26.9727 1.4082 26.9043 1.22852 26.9043 1.01367ZM32.5762 7.98047C32.9316 7.98047 33.2266 7.87695 33.4609 7.66992C33.6953 7.46289 33.8203 7.20703 33.8359 6.90234H35.1777C35.1621 7.29688 35.0391 7.66602 34.8086 8.0098C34.5781 8.3496 34.2656 8.6191 33.8711 8.8184C33.4766 9.0176 33.0508 9.1172 32.5938 9.1172C31.707 9.1172 31.0039 8.8301 30.4844 8.2559C29.9648 7.68164 29.7051 6.88867 29.7051 5.87695V5.73047C29.7051 4.76562 29.9629 3.99414 30.4785 3.41602C30.9941 2.83398 31.6973 2.54297 32.5879 2.54297C33.3418 2.54297 33.9551 2.76367 34.4277 3.20508C34.9043 3.64258 35.1543 4.21875 35.1777 4.93359H33.8359C33.8203 4.57031 33.6953 4.27148 33.4609 4.03711C33.2305 3.80273 32.9355 3.68555 32.5762 3.68555C32.1152 3.68555 31.7598 3.85352 31.5098 4.18945C31.2598 4.52148 31.1328 5.02734 31.1289 5.70703V5.93555C31.1289 6.62305 31.252 7.13672 31.498 7.47656C31.748 7.8125 32.1074 7.98047 32.5762 7.98047ZM39.8066 7.27734C39.8066 7.02344 39.7012 6.83008 39.4902 6.69727C39.2832 6.56445 38.9375 6.44727 38.4531 6.3457C37.9688 6.24414 37.5645 6.11523 37.2402 5.95898C36.5293 5.61523 36.1738 5.11719 36.1738 4.46484C36.1738 3.91797 36.4043 3.46094 36.8652 3.09375C37.3262 2.72656 37.9121 2.54297 38.623 2.54297C39.3809 2.54297 39.9922 2.73047 40.457 3.10547C40.9258 3.48047 41.1602 3.9668 41.1602 4.56445H39.7363C39.7363 4.29102 39.6348 4.06445 39.4316 3.88477C39.2285 3.70117 38.959 3.60938 38.623 3.60938C38.3105 3.60938 38.0547 3.68164 37.8555 3.82617C37.6602 3.9707 37.5625 4.16406 37.5625 4.40625C37.5625 4.625 37.6543 4.79492 37.8379 4.91602C38.0215 5.03711 38.3926 5.16016 38.9512 5.28516C39.5098 5.40625 39.9473 5.55273 40.2637 5.72461C40.584 5.89258 40.8203 6.0957 40.9727 6.33398C41.1289 6.57227 41.207 6.86133 41.207 7.20117C41.207 7.77148 40.9707 8.2344 40.498 8.5898C40.0254 8.9414 39.4062 9.1172 38.6406 9.1172C38.1211 9.1172 37.6582 9.0234 37.252 8.8359C36.8457 8.6484 36.5293 8.3906 36.3027 8.0625C36.0762 7.73438 35.9629 7.38086 35.9629 7.00195H37.3457C37.3652 7.33789 37.4922 7.59766 37.7266 7.78125C37.9609 7.96094 38.2715 8.0508 38.6582 8.0508C39.0332 8.0508 39.3184 7.98047 39.5137 7.83984C39.709 7.69531 39.8066 7.50781 39.8066 7.27734Z" fill="#F7C15C"/>
</svg>
