<!--LOGZ.IO GRAFANA CHANGE :: Add datasource logos-->
<svg xmlns="http://www.w3.org/2000/svg" width="50" height="16" fill="none">
  <rect id="backgroundrect" width="100%" height="100%" x="0" y="0" fill="none" stroke="none" class="" style=""/>
  <g class="currentLayer" style="">
    <title>Layer 1</title>
    <path
      d="M7.03125,4.202521625576019 H4.37109 V11.53846162557602 H2.90039 V4.202521625576019 H0.263672 V3.0072116255760193 H7.03125 V4.202521625576019 z"
      fill="#8C99AA" id="svg_1" class="selected"/>
    <path
      d="M9.5332,11.53846162557602 H8.10938 V5.19862162557602 H9.5332 V11.53846162557602 zM8.02148,3.552131625576019 C8.02148,3.3333816255760196 8.08984,3.1517416255760193 8.22656,3.0072116255760193 C8.36719,2.8626816255760192 8.56641,2.790411625576019 8.82422,2.790411625576019 C9.08203,2.790411625576019 9.28125,2.8626816255760192 9.42188,3.0072116255760193 C9.5625,3.1517416255760193 9.63281,3.3333816255760196 9.63281,3.552131625576019 C9.63281,3.7669816255760193 9.5625,3.946661625576019 9.42188,4.091191625576019 C9.28125,4.2318216255760195 9.08203,4.30213162557602 8.82422,4.30213162557602 C8.56641,4.30213162557602 8.36719,4.2318216255760195 8.22656,4.091191625576019 C8.08984,3.946661625576019 8.02148,3.7669816255760193 8.02148,3.552131625576019 z"
      fill="#8C99AA" id="svg_2" class="selected"/>
    <path
      d="M12.4277,5.19862162557602 L12.4688,5.860731625576019 C12.9141,5.34119162557602 13.5234,5.08143162557602 14.2969,5.08143162557602 C15.1445,5.08143162557602 15.7246,5.405651625576019 16.0371,6.054081625576019 C16.498,5.405651625576019 17.1465,5.08143162557602 17.9824,5.08143162557602 C18.6816,5.08143162557602 19.2012,5.27479162557602 19.541,5.661511625576019 C19.8848,6.048231625576019 20.0605,6.618541625576019 20.0684,7.37244162557602 V11.53846162557602 H18.6445 V7.413461625576019 C18.6445,7.01112162557602 18.5566,6.71619162557602 18.3809,6.52869162557602 C18.2051,6.34119162557602 17.9141,6.24744162557602 17.5078,6.24744162557602 C17.1836,6.24744162557602 16.918,6.335341625576019 16.7109,6.51112162557602 C16.5078,6.682991625576019 16.3652,6.909551625576019 16.2832,7.19080162557602 L16.2891,11.53846162557602 H14.8652 V7.3665816255760195 C14.8457,6.620491625576019 14.4648,6.24744162557602 13.7227,6.24744162557602 C13.1523,6.24744162557602 12.748,6.47987162557602 12.5098,6.944711625576019 V11.53846162557602 H11.0859 V5.19862162557602 H12.4277 z"
      fill="#8C99AA" id="svg_3" class="selected"/>
    <path
      d="M24.3223,11.65566162557602 C23.4199,11.65566162557602 22.6875,11.37244162557602 22.125,10.80604162557602 C21.5664,10.235731625576019 21.2871,9.47791162557602 21.2871,8.532601625576019 V8.35682162557602 C21.2871,7.724011625576019 21.4082,7.15955162557602 21.6504,6.663461625576019 C21.8965,6.163461625576019 22.2402,5.774791625576019 22.6816,5.49744162557602 C23.123,5.220101625576019 23.6152,5.08143162557602 24.1582,5.08143162557602 C25.0215,5.08143162557602 25.6875,5.3568216255760195 26.1562,5.907601625576019 C26.6289,6.45838162557602 26.8652,7.23768162557602 26.8652,8.245491625576019 V8.81971162557602 H22.7227 C22.7656,9.34315162557602 22.9395,9.75721162557602 23.2441,10.06190162557602 C23.5527,10.36658162557602 23.9395,10.51893162557602 24.4043,10.51893162557602 C25.0566,10.51893162557602 25.5879,10.255261625576019 25.998,9.72791162557602 L26.7656,10.460341625576019 C26.5117,10.839241625576019 26.1719,11.13416162557602 25.7461,11.345101625576019 C25.3242,11.55216162557602 24.8496,11.65566162557602 24.3223,11.65566162557602 zM24.1523,6.224011625576019 C23.7617,6.224011625576019 23.4453,6.360731625576019 23.2031,6.634161625576019 C22.9648,6.907601625576019 22.8125,7.288461625576019 22.7461,7.776741625576019 H25.459 V7.671271625576019 C25.4277,7.194711625576019 25.3008,6.835341625576019 25.0781,6.593151625576019 C24.8555,6.347051625576019 24.5469,6.224011625576019 24.1523,6.224011625576019 z"
      fill="#8C99AA" id="svg_4" class="selected"/>
    <path d="M29.4902,11.53846162557602 H28.0664 V2.5384616255760193 H29.4902 V11.53846162557602 z" fill="#8C99AA"
          id="svg_5" class="selected"/>
    <path
      d="M33.8379,11.65566162557602 C32.9355,11.65566162557602 32.2031,11.37244162557602 31.6406,10.80604162557602 C31.082,10.235731625576019 30.8027,9.47791162557602 30.8027,8.532601625576019 V8.35682162557602 C30.8027,7.724011625576019 30.9238,7.15955162557602 31.166,6.663461625576019 C31.4121,6.163461625576019 31.7559,5.774791625576019 32.1973,5.49744162557602 C32.6387,5.220101625576019 33.1309,5.08143162557602 33.6738,5.08143162557602 C34.5371,5.08143162557602 35.2031,5.3568216255760195 35.6719,5.907601625576019 C36.1445,6.45838162557602 36.3809,7.23768162557602 36.3809,8.245491625576019 V8.81971162557602 H32.2383 C32.2812,9.34315162557602 32.4551,9.75721162557602 32.7598,10.06190162557602 C33.0684,10.36658162557602 33.4551,10.51893162557602 33.9199,10.51893162557602 C34.5723,10.51893162557602 35.1035,10.255261625576019 35.5137,9.72791162557602 L36.2812,10.460341625576019 C36.0273,10.839241625576019 35.6875,11.13416162557602 35.2617,11.345101625576019 C34.8398,11.55216162557602 34.3652,11.65566162557602 33.8379,11.65566162557602 zM33.668,6.224011625576019 C33.2773,6.224011625576019 32.9609,6.360731625576019 32.7188,6.634161625576019 C32.4805,6.907601625576019 32.3281,7.288461625576019 32.2617,7.776741625576019 H34.9746 V7.671271625576019 C34.9434,7.194711625576019 34.8164,6.835341625576019 34.5938,6.593151625576019 C34.3711,6.347051625576019 34.0625,6.224011625576019 33.668,6.224011625576019 z"
      fill="#8C99AA" id="svg_6" class="selected"/>
    <path
      d="M41.0449,9.81580162557602 C41.0449,9.56190162557602 40.9395,9.368541625576018 40.7285,9.235731625576019 C40.5215,9.10291162557602 40.1758,8.985731625576019 39.6914,8.88416162557602 C39.207,8.782601625576019 38.8027,8.65369162557602 38.4785,8.49744162557602 C37.7676,8.15369162557602 37.4121,7.655651625576019 37.4121,7.003301625576019 C37.4121,6.45643162557602 37.6426,5.999401625576019 38.1035,5.632211625576019 C38.5645,5.265021625576019 39.1504,5.08143162557602 39.8613,5.08143162557602 C40.6191,5.08143162557602 41.2305,5.26893162557602 41.6953,5.64393162557602 C42.1641,6.01893162557602 42.3984,6.5052616255760185 42.3984,7.102911625576019 H40.9746 C40.9746,6.829481625576019 40.873,6.602911625576019 40.6699,6.423231625576021 C40.4668,6.23963162557602 40.1973,6.147841625576019 39.8613,6.147841625576019 C39.5488,6.147841625576019 39.293,6.220101625576019 39.0938,6.36463162557602 C38.8984,6.509161625576019 38.8008,6.702521625576019 38.8008,6.944711625576019 C38.8008,7.163461625576019 38.8926,7.33338162557602 39.0762,7.454481625576019 C39.2598,7.5755716255760195 39.6309,7.69862162557602 40.1895,7.82362162557602 C40.748,7.944711625576019 41.1855,8.09119162557602 41.502,8.26307162557602 C41.8223,8.431041625576018 42.0586,8.63416162557602 42.2109,8.87244162557602 C42.3672,9.110731625576019 42.4453,9.399791625576018 42.4453,9.739631625576019 C42.4453,10.30994162557602 42.209,10.772841625576019 41.7363,11.12830162557602 C41.2637,11.479871625576019 40.6445,11.65566162557602 39.8789,11.65566162557602 C39.3594,11.65566162557602 38.8965,11.56186162557602 38.4902,11.37440162557602 C38.084,11.18690162557602 37.7676,10.92908162557602 37.541,10.60096162557602 C37.3145,10.272841625576019 37.2012,9.91932162557602 37.2012,9.54041162557602 H38.584 C38.6035,9.876351625576019 38.7305,10.136121625576019 38.9648,10.31971162557602 C39.1992,10.49940162557602 39.5098,10.589241625576019 39.8965,10.589241625576019 C40.2715,10.589241625576019 40.5566,10.51893162557602 40.752,10.37830162557602 C40.9473,10.233771625576018 41.0449,10.046271625576018 41.0449,9.81580162557602 z"
      fill="#8C99AA" id="svg_7" class="selected"/>
    <path
      d="M47.2441,9.81580162557602 C47.2441,9.56190162557602 47.1387,9.368541625576018 46.9277,9.235731625576019 C46.7207,9.10291162557602 46.375,8.985731625576019 45.8906,8.88416162557602 C45.4062,8.782601625576019 45.002,8.65369162557602 44.6777,8.49744162557602 C43.9668,8.15369162557602 43.6113,7.655651625576019 43.6113,7.003301625576019 C43.6113,6.45643162557602 43.8418,5.999401625576019 44.3027,5.632211625576019 C44.7637,5.265021625576019 45.3496,5.08143162557602 46.0605,5.08143162557602 C46.8184,5.08143162557602 47.4297,5.26893162557602 47.8945,5.64393162557602 C48.3633,6.01893162557602 48.5977,6.5052616255760185 48.5977,7.102911625576019 H47.1738 C47.1738,6.829481625576019 47.0723,6.602911625576019 46.8691,6.423231625576021 C46.666,6.23963162557602 46.3965,6.147841625576019 46.0605,6.147841625576019 C45.748,6.147841625576019 45.4922,6.220101625576019 45.293,6.36463162557602 C45.0977,6.509161625576019 45,6.702521625576019 45,6.944711625576019 C45,7.163461625576019 45.0918,7.33338162557602 45.2754,7.454481625576019 C45.459,7.5755716255760195 45.8301,7.69862162557602 46.3887,7.82362162557602 C46.9473,7.944711625576019 47.3848,8.09119162557602 47.7012,8.26307162557602 C48.0215,8.431041625576018 48.2578,8.63416162557602 48.4102,8.87244162557602 C48.5664,9.110731625576019 48.6445,9.399791625576018 48.6445,9.739631625576019 C48.6445,10.30994162557602 48.4082,10.772841625576019 47.9355,11.12830162557602 C47.4629,11.479871625576019 46.8438,11.65566162557602 46.0781,11.65566162557602 C45.5586,11.65566162557602 45.0957,11.56186162557602 44.6895,11.37440162557602 C44.2832,11.18690162557602 43.9668,10.92908162557602 43.7402,10.60096162557602 C43.5137,10.272841625576019 43.4004,9.91932162557602 43.4004,9.54041162557602 H44.7832 C44.8027,9.876351625576019 44.9297,10.136121625576019 45.1641,10.31971162557602 C45.3984,10.49940162557602 45.709,10.589241625576019 46.0957,10.589241625576019 C46.4707,10.589241625576019 46.7559,10.51893162557602 46.9512,10.37830162557602 C47.1465,10.233771625576018 47.2441,10.046271625576018 47.2441,9.81580162557602 z"
      fill="#8C99AA" id="svg_8" class="selected"/>
  </g>
</svg>
