<!--LOGZ.IO GRAFANA CHANGE :: Add datasource logos-->
<svg xmlns="http://www.w3.org/2000/svg" width="44" height="15" fill="none" style="">
  <rect id="backgroundrect" width="100%" height="100%" x="0" y="0" fill="none" stroke="none" class="" style=""/>
  <g class="currentLayer" style="">
    <title>Layer 1</title>
    <path
      d="M8.56971162557602,3.4070910837173463 H5.909551625576019 V10.583741083717346 H4.438851625576019 V3.4070910837173463 H1.8021336255760192 V2.237731083717346 H8.56971162557602 V3.4070910837173463 z"
      fill="#89B074" id="svg_1" class=""/>
    <path
      d="M12.48966162557602,5.654091083717346 C12.30216162557602,5.623521083717346 12.108761625576019,5.6082410837173455 11.90956162557602,5.6082410837173455 C11.25721162557602,5.6082410837173455 10.817761625576019,5.852811083717346 10.59119162557602,6.341951083717346 V10.583741083717346 H9.16737162557602 V4.381551083717346 H10.526741625576019 L10.56190162557602,5.075141083717346 C10.90565162557602,4.536321083717346 11.38221162557602,4.266911083717346 11.991561625576018,4.266911083717346 C12.19466162557602,4.266911083717346 12.362661625576019,4.293661083717346 12.49546162557602,4.347161083717346 L12.48966162557602,5.654091083717346 z"
      fill="#89B074" id="svg_2" class=""/>
    <path
      d="M17.001361625576017,10.583741083717346 C16.938861625576017,10.465281083717347 16.88416162557602,10.272301083717347 16.83726162557602,10.004801083717346 C16.38416162557602,10.467191083717346 15.82946162557602,10.698391083717347 15.17326162557602,10.698391083717347 C14.536461625576019,10.698391083717347 14.01696162557602,10.520691083717347 13.61466162557602,10.165301083717345 C13.21226162557602,9.809901083717346 13.011161625576019,9.370441083717346 13.011161625576019,8.846901083717345 C13.011161625576019,8.185791083717346 13.261161625576019,7.679451083717346 13.761161625576019,7.327881083717347 C14.265061625576019,6.972491083717347 14.983761625576019,6.794791083717346 15.917361625576019,6.794791083717346 H16.79046162557602 V6.387811083717346 C16.79046162557602,6.066811083717346 16.69866162557602,5.810771083717346 16.515061625576017,5.619701083717346 C16.33146162557602,5.424811083717346 16.05216162557602,5.3273610837173475 15.67716162557602,5.3273610837173475 C15.35296162557602,5.3273610837173475 15.08726162557602,5.407611083717346 14.880261625576019,5.568111083717346 C14.67326162557602,5.724791083717348 14.56966162557602,5.9254110837173455 14.56966162557602,6.169991083717347 H13.14586162557602 C13.14586162557602,5.829881083717346 13.261161625576019,5.512701083717346 13.491561625576018,5.218451083717346 C13.72206162557602,4.920381083717347 14.03456162557602,4.687271083717347 14.42906162557602,4.519131083717346 C14.827561625576019,4.350981083717347 15.27086162557602,4.266911083717346 15.75916162557602,4.266911083717346 C16.501361625576017,4.266911083717346 17.09316162557602,4.450341083717346 17.534561625576018,4.817201083717348 C17.97596162557602,5.180231083717346 18.20256162557602,5.692311083717346 18.214261625576018,6.353411083717346 V9.150701083717346 C18.214261625576018,9.708631083717346 18.29436162557602,10.153831083717346 18.45446162557602,10.486301083717347 V10.583741083717346 H17.001361625576017 zM15.43686162557602,9.580621083717347 C15.71816162557602,9.580621083717347 15.98186162557602,9.513741083717346 16.22796162557602,9.379991083717346 C16.47796162557602,9.246241083717345 16.66546162557602,9.066631083717347 16.79046162557602,8.841171083717345 V7.671811083717346 H16.02286162557602 C15.49546162557602,7.671811083717346 15.098961625576019,7.761611083717346 14.83336162557602,7.9412210837173465 C14.567761625576019,8.120831083717345 14.434961625576019,8.374951083717345 14.434961625576019,8.703601083717347 C14.434961625576019,8.971101083717347 14.52476162557602,9.185101083717345 14.70446162557602,9.345601083717346 C14.88806162557602,9.502281083717346 15.13226162557602,9.580621083717347 15.43686162557602,9.580621083717347 z"
      fill="#89B074" id="svg_3" class=""/>
    <path
      d="M22.30996162557602,9.586351083717346 C22.665461625576018,9.586351083717346 22.96036162557602,9.485081083717347 23.194661625576018,9.282541083717346 C23.42906162557602,9.080011083717347 23.55406162557602,8.829701083717346 23.569661625576018,8.531631083717347 H24.91146162557602 C24.895861625576018,8.917601083717347 24.77286162557602,9.278721083717347 24.54236162557602,9.615011083717347 C24.311861625576018,9.947471083717346 23.999361625576018,10.211151083717347 23.60486162557602,10.406051083717346 C23.21036162557602,10.600941083717347 22.784561625576018,10.698391083717347 22.32756162557602,10.698391083717347 C21.44076162557602,10.698391083717347 20.73766162557602,10.417511083717347 20.21816162557602,9.855761083717347 C19.69866162557602,9.294011083717347 19.43886162557602,8.518261083717347 19.43886162557602,7.528511083717346 V7.385201083717346 C19.43886162557602,6.441311083717349 19.69666162557602,5.686571083717347 20.21226162557602,5.121001083717346 C20.727961625576018,4.551611083717345 21.43106162557602,4.266911083717346 22.32166162557602,4.266911083717346 C23.075561625576018,4.266911083717346 23.68886162557602,4.482821083717346 24.16146162557602,4.9146410837173455 C24.638061625576018,5.342651083717346 24.888061625576018,5.9063110837173465 24.91146162557602,6.605631083717347 H23.569661625576018 C23.55406162557602,6.250241083717346 23.42906162557602,5.9579010837173465 23.194661625576018,5.728611083717347 C22.964261625576018,5.499321083717346 22.66936162557602,5.384681083717347 22.30996162557602,5.384681083717347 C21.84896162557602,5.384681083717347 21.49356162557602,5.5490010837173465 21.24356162557602,5.877651083717346 C20.99356162557602,6.202471083717346 20.86656162557602,6.6973410837173475 20.86266162557602,7.362271083717349 V7.585831083717347 C20.86266162557602,8.258401083717345 20.985761625576018,8.760921083717346 21.23186162557602,9.093381083717347 C21.48186162557602,9.422031083717346 21.84116162557602,9.586351083717346 22.30996162557602,9.586351083717346 z"
      fill="#89B074" id="svg_4" class=""/>
    <path
      d="M27.50136162557602,10.583741083717346 H26.07756162557602 V4.381551083717346 H27.50136162557602 V10.583741083717346 zM25.98966162557602,2.7708210837173457 C25.98966162557602,2.556821083717346 26.05796162557602,2.3791210837173464 26.194661625576018,2.237731083717346 C26.33536162557602,2.096341083717346 26.534561625576018,2.025641083717346 26.79236162557602,2.025641083717346 C27.05016162557602,2.025641083717346 27.249361625576018,2.096341083717346 27.39006162557602,2.237731083717346 C27.53066162557602,2.3791210837173464 27.60096162557602,2.556821083717346 27.60096162557602,2.7708210837173457 C27.60096162557602,2.981001083717346 27.53066162557602,3.1567810837173464 27.39006162557602,3.298181083717347 C27.249361625576018,3.4357510837173457 27.05016162557602,3.5045410837173456 26.79236162557602,3.5045410837173456 C26.534561625576018,3.5045410837173456 26.33536162557602,3.4357510837173457 26.194661625576018,3.298181083717347 C26.05796162557602,3.1567810837173464 25.98966162557602,2.981001083717346 25.98966162557602,2.7708210837173457 z"
      fill="#89B074" id="svg_5" class=""/>
    <path
      d="M30.37826162557602,4.381551083717346 L30.41936162557602,5.098071083717346 C30.888061625576018,4.543971083717346 31.50326162557602,4.266911083717346 32.265061625576024,4.266911083717346 C33.58536162557602,4.266911083717346 34.25726162557602,5.006361083717346 34.280661625576016,6.485251083717346 V10.583741083717346 H32.856861625576016 V6.565501083717346 C32.856861625576016,6.171901083717346 32.76896162557602,5.881471083717346 32.593161625576016,5.694221083717347 C32.42126162557602,5.503151083717346 32.138061625576015,5.407611083717346 31.74356162557602,5.407611083717346 C31.16936162557602,5.407611083717346 30.74156162557602,5.661741083717346 30.46036162557602,6.169991083717347 V10.583741083717346 H29.03646162557602 V4.381551083717346 H30.37826162557602 z"
      fill="#89B074" id="svg_6" class=""/>
    <path
      d="M35.48766162557602,7.436791083717345 C35.48766162557602,6.473791083717346 35.718161625576016,5.705681083717346 36.17906162557602,5.132471083717347 C36.64396162557602,4.5554310837173455 37.25916162557602,4.266911083717346 38.02476162557602,4.266911083717346 C38.74746162557602,4.266911083717346 39.315761625576016,4.513391083717346 39.72986162557602,5.006361083717346 L39.794361625576016,4.381551083717346 H41.07756162557602 V10.394581083717346 C41.07756162557602,11.208541083717346 40.81776162557602,11.850541083717346 40.29826162557602,12.320541083717346 C39.78256162557602,12.790641083717347 39.08536162557602,13.025641083717346 38.20646162557602,13.025641083717346 C37.74156162557602,13.025641083717346 37.28646162557602,12.930141083717347 36.84116162557602,12.739041083717346 C36.39976162557602,12.551741083717346 36.06386162557602,12.305341083717346 35.83336162557602,11.999541083717347 L36.50726162557602,11.162741083717346 C36.94466162557602,11.670941083717347 37.48376162557602,11.925041083717346 38.12436162557602,11.925041083717346 C38.59706162557602,11.925041083717346 38.97006162557602,11.798941083717347 39.24356162557602,11.546741083717347 C39.516961625576016,11.298341083717347 39.65366162557602,10.931491083717347 39.65366162557602,10.446171083717346 V10.027721083717346 C39.24356162557602,10.474831083717346 38.69666162557602,10.698391083717347 38.01306162557602,10.698391083717347 C37.27086162557602,10.698391083717347 36.66346162557602,10.409871083717347 36.190761625576016,9.832831083717346 C35.72206162557602,9.255791083717346 35.48766162557602,8.457111083717347 35.48766162557602,7.436791083717345 zM36.905661625576016,7.557171083717346 C36.905661625576016,8.180061083717348 37.03456162557602,8.671111083717346 37.29236162557602,9.030331083717346 C37.55406162557602,9.385721083717346 37.91546162557602,9.563421083717346 38.37636162557602,9.563421083717346 C38.95056162557602,9.563421083717346 39.37636162557602,9.322671083717346 39.65366162557602,8.841171083717345 V6.112661083717346 C39.38416162557602,5.6426310837173475 38.96226162557602,5.407611083717346 38.38806162557602,5.407611083717346 C37.919361625576016,5.407611083717346 37.55406162557602,5.589131083717346 37.29236162557602,5.952161083717346 C37.03456162557602,6.315201083717346 36.905661625576016,6.850201083717346 36.905661625576016,7.557171083717346 z"
      fill="#89B074" id="svg_7" class=""/>
  </g>
</svg>
