<svg viewBox="0 0 15 15" fill="black" xmlns="http://www.w3.org/2000/svg">
<path fill-rule="evenodd" clip-rule="evenodd" d="M1.92009 1.43307C1.70105 1.43307 1.4906 1.64169 1.4906 1.86641C1.4906 1.94501 1.46966 2.01873 1.43307 2.08229V13.1331C1.43307 13.3578 1.64353 13.5664 1.86257 13.5664H13.1369C13.356 13.5664 13.5664 13.3578 13.5664 13.1331V1.86641C13.5664 1.64169 13.356 1.43307 13.1369 1.43307H1.92009ZM0.65095 1.60921C0.597816 1.68115 0.566406 1.77011 0.566406 1.86641V13.1331C0.566406 13.8328 1.16126 14.4331 1.86257 14.4331H13.1369C13.8382 14.4331 14.4331 13.8328 14.4331 13.1331V1.86641C14.4331 1.16667 13.8382 0.566406 13.1369 0.566406H1.92009C1.3066 0.566406 0.774569 1.02576 0.65095 1.60921Z" fill="inherit"/>
<path fill-rule="evenodd" clip-rule="evenodd" d="M3.10938 3.59935C3.10938 3.36003 3.30338 3.16602 3.54271 3.16602H6.48938C6.7287 3.16602 6.92271 3.36003 6.92271 3.59935V6.54602C6.92271 6.78534 6.7287 6.97935 6.48938 6.97935H3.54271C3.30338 6.97935 3.10938 6.78534 3.10938 6.54602V3.59935ZM3.97604 4.03268V6.11268H6.05604V4.03268H3.97604Z" fill="inherit"/>
<path fill-rule="evenodd" clip-rule="evenodd" d="M3.10938 8.51146C3.10938 8.27213 3.30338 8.07812 3.54271 8.07812H6.48938C6.7287 8.07812 6.92271 8.27213 6.92271 8.51146V11.4581C6.92271 11.6974 6.7287 11.8915 6.48938 11.8915H3.54271C3.30338 11.8915 3.10938 11.6974 3.10938 11.4581V8.51146ZM3.97604 8.94479V11.0248H6.05604V8.94479H3.97604Z" fill="inherit"/>
<path fill-rule="evenodd" clip-rule="evenodd" d="M8.13672 3.59935C8.13672 3.36003 8.33073 3.16602 8.57005 3.16602H11.5167C11.756 3.16602 11.9501 3.36003 11.9501 3.59935V6.54602C11.9501 6.78534 11.756 6.97935 11.5167 6.97935H8.57005C8.33073 6.97935 8.13672 6.78534 8.13672 6.54602V3.59935ZM9.00339 4.03268V6.11268H11.0834V4.03268H9.00339Z" fill="inherit"/>
<path fill-rule="evenodd" clip-rule="evenodd" d="M8.13672 8.51146C8.13672 8.27213 8.33073 8.07812 8.57005 8.07812H11.5167C11.756 8.07812 11.9501 8.27213 11.9501 8.51146V11.4581C11.9501 11.6974 11.756 11.8915 11.5167 11.8915H8.57005C8.33073 11.8915 8.13672 11.6974 8.13672 11.4581V8.51146ZM9.00339 8.94479V11.0248H11.0834V8.94479H9.00339Z" fill="inherit"/>
</svg>
