<svg viewBox="0 0 15 12" fill="black" xmlns="http://www.w3.org/2000/svg">
<path fill-rule="evenodd" clip-rule="evenodd" d="M2 4.45081C2 3.62394 2.69242 3 3.50281 3C4.27653 3 5.00562 3.53584 5.00562 4.39617C5.00562 5.22304 4.3132 5.84698 3.50281 5.84698C2.80424 5.84698 2 5.32631 2 4.45081ZM3.50281 3.93452C3.16259 3.93452 2.93452 4.18485 2.93452 4.45081C2.93452 4.66815 3.16583 4.91246 3.50281 4.91246C3.84303 4.91246 4.0711 4.66214 4.0711 4.39617C4.0711 4.16367 3.8797 3.93452 3.50281 3.93452Z" fill="inherit"/>
<path fill-rule="evenodd" clip-rule="evenodd" d="M7 3.45C7 3.20147 7.20147 3 7.45 3H11.5913C11.8398 3 12.0413 3.20147 12.0413 3.45C12.0413 3.69853 11.8398 3.9 11.5913 3.9H7.45C7.20147 3.9 7 3.69853 7 3.45Z" fill="inherit"/>
<path fill-rule="evenodd" clip-rule="evenodd" d="M7 5.25078C7 5.00225 7.20147 4.80078 7.45 4.80078H11.5913C11.8398 4.80078 12.0413 5.00225 12.0413 5.25078C12.0413 5.49931 11.8398 5.70078 11.5913 5.70078H7.45C7.20147 5.70078 7 5.49931 7 5.25078Z" fill="inherit"/>
<path fill-rule="evenodd" clip-rule="evenodd" d="M13.2066 6.15027C13.3817 6.33986 13.3699 6.63548 13.1803 6.81055L11.1092 8.72301C11.0733 8.75616 11.0324 8.78347 10.9881 8.80395C10.9706 8.812 10.9541 8.82063 10.93 8.83342C10.9282 8.83443 10.9261 8.83551 10.924 8.83666C10.903 8.84789 10.87 8.86552 10.8358 8.88129C10.7455 8.92296 10.6326 8.95948 10.4876 8.95948C10.2456 8.95948 10.0113 8.85713 9.86606 8.72301L8.88009 7.81256C8.86722 7.80589 8.85576 7.7998 8.84596 7.79458C8.84105 7.79196 8.8367 7.78965 8.83282 7.78759L6.78426 9.67924C6.59466 9.85431 6.29904 9.84254 6.12397 9.65295C5.9489 9.46336 5.96068 9.16774 6.15027 8.99267L8.22137 7.0802C8.36661 6.94609 8.60093 6.84374 8.84293 6.84374C8.98787 6.84374 9.10085 6.88026 9.19109 6.92192C9.22526 6.9377 9.25827 6.95533 9.27928 6.96656C9.28144 6.96771 9.28346 6.96879 9.28535 6.96979C9.30936 6.98259 9.32594 6.99122 9.34337 6.99927C9.38773 7.01975 9.42861 7.04706 9.4645 7.0802L10.4775 8.01563C10.4814 8.01357 10.4857 8.01126 10.4907 8.00864C10.5005 8.00342 10.5119 7.99732 10.5248 7.99066L12.5463 6.12397C12.7359 5.9489 13.0315 5.96068 13.2066 6.15027Z" fill="inherit"/>
<path fill-rule="evenodd" clip-rule="evenodd" d="M13.8 1H1.2C1.08954 1 1 1.08954 1 1.2V10.8C1 10.9105 1.08954 11 1.2 11H13.8C13.9105 11 14 10.9105 14 10.8V1.2C14 1.08954 13.9105 1 13.8 1ZM1.2 0C0.537258 0 0 0.537258 0 1.2V10.8C0 11.4627 0.537258 12 1.2 12H13.8C14.4627 12 15 11.4627 15 10.8V1.2C15 0.537258 14.4627 0 13.8 0H1.2Z" fill="inherit"/>
</svg>
