<?xml version="1.0" encoding="UTF-8" standalone="no"?>
<!-- Created with Inkscape (http://www.inkscape.org/) -->

<svg
   version="1.1"
   id="svg2"
   xml:space="preserve"
   width="32"
   height="21.333332"
   viewBox="0 0 32 21.333332"
   sodipodi:docname="expand.eps"
   xmlns:inkscape="http://www.inkscape.org/namespaces/inkscape"
   xmlns:sodipodi="http://sodipodi.sourceforge.net/DTD/sodipodi-0.dtd"
   xmlns="http://www.w3.org/2000/svg"
   xmlns:svg="http://www.w3.org/2000/svg"><defs
     id="defs6" /><sodipodi:namedview
     id="namedview4"
     pagecolor="#ffffff"
     bordercolor="#666666"
     borderopacity="1.0"
     inkscape:pageshadow="2"
     inkscape:pageopacity="0.0"
     inkscape:pagecheckerboard="0" /><g
     id="g8"
     inkscape:groupmode="layer"
     inkscape:label="ink_ext_XXXXXX"
     transform="matrix(1.3333333,0,0,-1.3333333,0,21.333333)"><g
       id="g10"
       transform="scale(0.1)"><path
         d="M 210,150 H 30.3906 c -11.0468,0 -20,-8.953 -20,-20 V 30.3633 c 0,-11.0469 8.9532,-20 20,-20 H 210 c 11.047,0 20,8.9531 20,20 V 130 c 0,11.047 -8.953,20 -20,20 z"
         style="fill:none;stroke:#8b8a96;stroke-width:10;stroke-linecap:round;stroke-linejoin:round;stroke-miterlimit:10;stroke-dasharray:20, 20;stroke-dashoffset:0;stroke-opacity:1"
         id="path12" /><path
         d="M 75.8555,149.637 H 30 c -11.0469,0 -20,-8.953 -20,-20 L 10,30 C 10,18.9531 18.9531,10 30,10 h 45.8555 c 11.0429,0 20,8.9531 20,20 v 99.637 c 0,11.047 -8.9571,20 -20,20 z"
         style="fill:none;stroke:#8b8a96;stroke-width:10;stroke-linecap:round;stroke-linejoin:round;stroke-miterlimit:10;stroke-dasharray:none;stroke-opacity:1"
         id="path14" /><path
         d="m 145.387,110.82 c 0,0 33.957,-24.9567 33.894,-29.9958 -0.062,-5.0351 -7.117,-7.4336 -7.117,-7.4336 0,0 -28.125,-20.4765 -28.125,-19.7812"
         style="fill:none;stroke:#8b8a96;stroke-width:20;stroke-linecap:round;stroke-linejoin:round;stroke-miterlimit:10;stroke-dasharray:none;stroke-opacity:1"
         id="path16" /><path
         d="M 95.8555,117.629 51.2031,149.637"
         style="fill:none;stroke:#8b8a96;stroke-width:10;stroke-linecap:round;stroke-linejoin:round;stroke-miterlimit:10;stroke-dasharray:none;stroke-opacity:1"
         id="path18" /><path
         d="M 95.8555,89.3633 19.1523,143.117"
         style="fill:none;stroke:#8b8a96;stroke-width:10;stroke-linecap:round;stroke-linejoin:round;stroke-miterlimit:10;stroke-dasharray:none;stroke-opacity:1"
         id="path20" /><path
         d="M 93.6563,61.2383 10.1953,122.766"
         style="fill:none;stroke:#8b8a96;stroke-width:10;stroke-linecap:round;stroke-linejoin:round;stroke-miterlimit:10;stroke-dasharray:none;stroke-opacity:1"
         id="path22" /><path
         d="M 93.8359,32.5508 13.7188,92.2227"
         style="fill:none;stroke:#8b8a96;stroke-width:10;stroke-linecap:round;stroke-linejoin:round;stroke-miterlimit:10;stroke-dasharray:none;stroke-opacity:1"
         id="path24" /><path
         d="M 84.0195,12.3867 10.1953,67.2109"
         style="fill:none;stroke:#8b8a96;stroke-width:10;stroke-linecap:round;stroke-linejoin:round;stroke-miterlimit:10;stroke-dasharray:none;stroke-opacity:1"
         id="path26" /><path
         d="M 45.0078,11.625 14.6563,36.7695"
         style="fill:none;stroke:#8b8a96;stroke-width:10;stroke-linecap:round;stroke-linejoin:round;stroke-miterlimit:10;stroke-dasharray:none;stroke-opacity:1"
         id="path28" /></g></g></svg>
