<?xml version="1.0" encoding="UTF-8" standalone="no"?>
<!-- Created with Inkscape (http://www.inkscape.org/) -->

<svg
   version="1.1"
   id="svg2"
   xml:space="preserve"
   width="32"
   height="21.333332"
   viewBox="0 0 32 21.333332"
   sodipodi:docname="collapse.eps"
   xmlns:inkscape="http://www.inkscape.org/namespaces/inkscape"
   xmlns:sodipodi="http://sodipodi.sourceforge.net/DTD/sodipodi-0.dtd"
   xmlns="http://www.w3.org/2000/svg"
   xmlns:svg="http://www.w3.org/2000/svg"><defs
     id="defs6" /><sodipodi:namedview
     id="namedview4"
     pagecolor="#ffffff"
     bordercolor="#666666"
     borderopacity="1.0"
     inkscape:pageshadow="2"
     inkscape:pageopacity="0.0"
     inkscape:pagecheckerboard="0" /><g
     id="g8"
     inkscape:groupmode="layer"
     inkscape:label="ink_ext_XXXXXX"
     transform="matrix(1.3333333,0,0,-1.3333333,0,21.333333)"><g
       id="g10"
       transform="scale(0.1)"><path
         d="m 14.3906,10 h 220 v 140 h -220 z"
         style="fill:none;stroke:#8b8a96;stroke-width:10;stroke-linecap:round;stroke-linejoin:round;stroke-miterlimit:10;stroke-dasharray:20, 20;stroke-dashoffset:0;stroke-opacity:1"
         id="path12" /><path
         d="M 14,10 H 99.8555 V 149.637 H 14 Z"
         style="fill:none;fill-opacity:1;fill-rule:nonzero;stroke:none"
         id="path14" /><path
         d="M 14,10 H 99.8555 V 149.637 H 14 Z"
         style="fill:none;stroke:#8b8a96;stroke-width:10;stroke-linecap:round;stroke-linejoin:round;stroke-miterlimit:10;stroke-dasharray:none;stroke-opacity:1"
         id="path16" /><path
         d="m 184,28 c 6,0 10,4 10,10 0,3 -1,5 -3,7 l -35,35 35,35 c 4,4 4,10 0,14 -4,4 -10,4 -14,0 L 135,87 c -4,-4 -4,-10 0,-14 l 42,-42 c 2,-2 5,-3 7,-3 z"
         style="fill:#8b8c97;fill-opacity:1;fill-rule:nonzero;stroke:none"
         id="path18" /></g></g></svg>
