<svg xmlns="http://www.w3.org/2000/svg" xml:space="preserve" style="fill-rule:evenodd;clip-rule:evenodd;stroke-linejoin:round;stroke-miterlimit:2" viewBox="0 0 24 24"><path d="M21 2H3c-.549 0-1 .451-1 1v18c0 .549.451 1 1 1h18c.549 0 1-.451 1-1V3c0-.549-.451-1-1-1ZM8 20H4V4h4v16Zm12 0H10V4h10v16Z" style="fill-rule:nonzero"/><path d="M 14.4 12 L 17.9 8.5 C 18.3 8.1 18.3 7.5 17.9 7.1 C 17.5 6.7 16.9 6.7 16.5 7.1 L 12.3 11.3 C 11.9 11.7 11.9 12.3 12.3 12.7 L 16.5 16.9 C 16.7 17.1 16.9 17.2 17.2 17.2 C 17.5 17.2 17.7 17.1 17.9 16.9 C 18.3 16.5 18.3 15.9 17.9 15.5 L 14.4 12 Z" style="fill-rule:nonzero" transform="matrix(-1, 0, 0, -1, 30.199999, 24.000001)"/></svg>