<svg viewBox="0 0 16 16" xmlns="http://www.w3.org/2000/svg">
    <path fill-rule="evenodd" clip-rule="evenodd" d="M10.5806 1C11.561 1 12.3548 1.80122 12.3548 2.7907C12.3548 3.78017 11.561 4.58139 10.5806 4.58139C10.4912 4.58139 10.4193 4.65389 10.4193 4.74419V6.94694C10.4193 7.00798 10.4546 7.06395 10.5088 7.09192L12.0184 7.85502C12.6207 8.15771 13 8.77834 13 9.45623V9.95349C13 10.583 12.4947 11.093 11.871 11.093H8.48387V14.5116C8.48387 14.7812 8.26714 15 8 15C7.73286 15 7.51613 14.7812 7.51613 14.5116V11.093H4.12903C3.50529 11.093 3 10.583 3 9.95349V9.45623C3 8.77837 3.37929 8.15771 3.98161 7.85502L5.49119 7.09192C5.54538 7.06394 5.58066 7.00798 5.58066 6.94694V4.74419C5.58066 4.65389 5.50883 4.58139 5.41937 4.58139C4.43901 4.58139 3.64517 3.78017 3.64517 2.7907C3.64517 1.80122 4.43901 1 5.41937 1H10.5806ZM5.41934 1.97674C4.97454 1.97674 4.61289 2.34175 4.61289 2.7907C4.61289 3.23964 4.97454 3.60465 5.41934 3.60465C6.04308 3.60465 6.54837 4.11464 6.54837 4.74419V6.94694C6.54837 7.37807 6.30644 7.77235 5.92337 7.96565L4.41379 8.72744C4.14036 8.86607 3.96773 9.14842 3.96773 9.45619V9.95345C3.96773 10.0438 4.03956 10.1163 4.12902 10.1163H11.871C11.9604 10.1163 12.0323 10.0438 12.0323 9.95345V9.45619C12.0323 9.14842 11.8596 8.86608 11.5862 8.72744L10.0766 7.96565C9.69354 7.77234 9.4516 7.37807 9.4516 6.94694V4.74419C9.4516 4.11464 9.95689 3.60465 10.5806 3.60465C11.0254 3.60465 11.3871 3.23964 11.3871 2.7907C11.3871 2.34175 11.0254 1.97674 10.5806 1.97674H5.41934Z" />
</svg>
