<svg viewBox="0 0 16 16" xmlns="http://www.w3.org/2000/svg">
    <path d="M12.3548 2.7907C12.3548 1.80122 11.561 1 10.5806 1H5.41937C4.43901 1 3.64517 1.80122 3.64517 2.7907C3.64517 3.78017 4.43901 4.58139 5.41937 4.58139C5.50883 4.58139 5.58066 4.65389 5.58066 4.74419V6.94694C5.58066 7.00798 5.54538 7.06394 5.49119 7.09192L3.98161 7.85502C3.37929 8.15771 3 8.77837 3 9.45623V9.95349C3 10.583 3.50529 11.093 4.12903 11.093H7.51613V14.5116C7.51613 14.7812 7.73286 15 8 15C8.26714 15 8.48387 14.7812 8.48387 14.5116V11.093H11.871C12.4947 11.093 13 10.583 13 9.95349V9.45623C13 8.77834 12.6207 8.15771 12.0184 7.85502L10.5088 7.09192C10.4546 7.06395 10.4193 7.00798 10.4193 6.94694V4.74419C10.4193 4.65389 10.4912 4.58139 10.5806 4.58139C11.561 4.58139 12.3548 3.78017 12.3548 2.7907Z" />
</svg>
