<svg viewBox="0 0 13 15" fill="black" xmlns="http://www.w3.org/2000/svg">
<path fill-rule="evenodd" clip-rule="evenodd" d="M5 3.45081C5 2.62394 5.69242 2 6.50281 2C7.27653 2 8.00562 2.53584 8.00562 3.39617C8.00562 4.22304 7.3132 4.84698 6.50281 4.84698C5.80424 4.84698 5 4.32631 5 3.45081ZM6.50281 2.93452C6.16259 2.93452 5.93452 3.18485 5.93452 3.45081C5.93452 3.66815 6.16583 3.91246 6.50281 3.91246C6.84303 3.91246 7.0711 3.66214 7.0711 3.39617C7.0711 3.16367 6.8797 2.93452 6.50281 2.93452Z" fill="inherit"/>
<path fill-rule="evenodd" clip-rule="evenodd" d="M4 6.29766C4 6.04913 4.20147 5.84766 4.45 5.84766H8.59132C8.83985 5.84766 9.04132 6.04913 9.04132 6.29766C9.04132 6.54618 8.83985 6.74766 8.59132 6.74766H4.45C4.20147 6.74766 4 6.54618 4 6.29766Z" fill="inherit"/>
<path fill-rule="evenodd" clip-rule="evenodd" d="M4 8.09844C4 7.84991 4.20147 7.64844 4.45 7.64844H8.59132C8.83985 7.64844 9.04132 7.84991 9.04132 8.09844C9.04132 8.34697 8.83985 8.54844 8.59132 8.54844H4.45C4.20147 8.54844 4 8.34697 4 8.09844Z" fill="inherit"/>
<path fill-rule="evenodd" clip-rule="evenodd" d="M10.2066 9.69714C10.3817 9.88674 10.3699 10.1824 10.1803 10.3574L8.1092 12.2699C8.0733 12.303 8.03243 12.3303 7.98807 12.3508C7.97063 12.3589 7.95406 12.3675 7.93004 12.3803C7.92816 12.3813 7.92613 12.3824 7.92398 12.3835C7.90296 12.3948 7.86996 12.4124 7.83578 12.4282C7.74555 12.4698 7.63256 12.5064 7.48763 12.5064C7.24563 12.5064 7.01131 12.404 6.86606 12.2699L5.88009 11.3594C5.86722 11.3528 5.85576 11.3467 5.84596 11.3415C5.84105 11.3388 5.8367 11.3365 5.83282 11.3345L3.78426 13.2261C3.59466 13.4012 3.29904 13.3894 3.12397 13.1998C2.9489 13.0102 2.96068 12.7146 3.15027 12.5395L5.22137 10.6271C5.36661 10.493 5.60093 10.3906 5.84293 10.3906C5.98787 10.3906 6.10085 10.4271 6.19109 10.4688C6.22526 10.4846 6.25827 10.5022 6.27928 10.5134C6.28144 10.5146 6.28346 10.5157 6.28535 10.5167C6.30936 10.5295 6.32594 10.5381 6.34337 10.5461C6.38773 10.5666 6.42861 10.5939 6.4645 10.6271L7.47752 11.5625C7.4814 11.5604 7.48575 11.5581 7.49066 11.5555C7.50045 11.5503 7.51192 11.5442 7.52479 11.5375L9.54631 9.67085C9.7359 9.49578 10.0315 9.50755 10.2066 9.69714Z" fill="inherit"/>
<path fill-rule="evenodd" clip-rule="evenodd" d="M11.7419 0.9375H1.25806C1.14226 0.9375 1.04839 1.02145 1.04839 1.125V13.875C1.04839 13.9786 1.14226 14.0625 1.25806 14.0625H11.7419C11.8577 14.0625 11.9516 13.9786 11.9516 13.875V1.125C11.9516 1.02145 11.8577 0.9375 11.7419 0.9375ZM1.25806 0C0.563255 0 0 0.503679 0 1.125V13.875C0 14.4963 0.563255 15 1.25806 15H11.7419C12.4367 15 13 14.4963 13 13.875V1.125C13 0.50368 12.4367 0 11.7419 0H1.25806Z" fill="inherit"/>
</svg>
