<svg xmlns="http://www.w3.org/2000/svg" width="18" height="18" viewBox="0 0 18 18" fill="none">
  <rect width="18" height="18" rx="6" fill="#3D71D9" fill-opacity="0.15"/>
  <path d="M2.625 11.25H3.5625V8.625L5.475 11.25H6.375V6.75H5.4375V9.375L3.5625 6.75H2.625V11.25ZM7.125 11.25H10.125V10.3125H8.25V9.4875H10.125V8.55H8.25V7.6875H10.125V6.75H7.125V11.25ZM11.625 11.25H14.625C14.8375 11.25 15.0156 11.1781 15.1594 11.0344C15.3031 10.8906 15.375 10.7125 15.375 10.5V6.75H14.4375V10.125H13.6125V7.5H12.675V10.125H11.8125V6.75H10.875V10.5C10.875 10.7125 10.9469 10.8906 11.0906 11.0344C11.2344 11.1781 11.4125 11.25 11.625 11.25Z" fill="#5794F2"/>
</svg>

