<svg width="48" height="48" viewBox="0 0 48 48" fill="none" xmlns="http://www.w3.org/2000/svg">
  <path fill-rule="evenodd" clip-rule="evenodd"
        d="M22.1366 26.3493C22.2989 26.3563 22.4617 26.3599 22.6246 26.3599C25.5884 26.3599 28.4307 25.1898 30.5264 23.107C32.6221 21.0243 33.7994 18.1995 33.7994 15.254C33.7994 13.0575 33.144 10.9103 31.9161 9.08396C30.6882 7.25762 28.943 5.83415 26.9011 4.99358C24.8591 4.15301 22.6123 3.93307 20.4446 4.36159C18.2769 4.79012 16.2857 5.84784 14.7229 7.40102C13.1601 8.9542 12.0958 10.9331 11.6646 13.0874C11.2334 15.2417 11.4547 17.4747 12.3005 19.5041C13.0324 21.2601 14.2035 22.7954 15.6963 23.9678C13.3809 24.89 11.2531 26.2738 9.45503 28.0608C5.96223 31.532 4 36.24 4 41.1491C4 41.64 4.19622 42.1108 4.5455 42.458C4.89478 42.8051 5.36851 43.0001 5.86246 43.0001C6.35642 43.0001 6.83015 42.8051 7.17943 42.458C7.5287 42.1108 7.72493 41.64 7.72493 41.1491C7.72493 37.2219 9.29471 33.4554 12.089 30.6784C14.768 28.016 18.3621 26.4721 22.1366 26.3493ZM22.6246 7.70207C21.1512 7.70207 19.7109 8.1363 18.4857 8.94985C17.2606 9.7634 16.3057 10.9197 15.7419 12.2726C15.178 13.6255 15.0305 15.1142 15.3179 16.5504C15.6054 17.9866 16.3149 19.3058 17.3568 20.3413C18.3987 21.3768 19.7261 22.0819 21.1713 22.3676C22.6164 22.6533 24.1143 22.5066 25.4756 21.9463C26.8369 21.3859 28.0004 20.4369 28.819 19.2193C29.6376 18.0018 30.0745 16.5703 30.0745 15.106C30.0745 13.1423 29.2896 11.2591 27.8925 9.87062C26.4954 8.48212 24.6005 7.70207 22.6246 7.70207ZM27.6623 31.9803C27.6777 31.9637 27.6935 31.9473 27.7096 31.9312L31.9298 27.7169C31.9879 27.6363 32.0527 27.5599 32.1239 27.4888C32.1934 27.42 32.2679 27.3573 32.3464 27.301L39.3873 20.2701C39.7436 19.9668 40.2019 19.8084 40.6706 19.8264C41.1393 19.8443 41.584 20.0375 41.9157 20.3671C42.2474 20.6968 42.4417 21.1387 42.4598 21.6045C42.4779 22.0704 42.3185 22.5258 42.0133 22.8799L40.0948 24.7866L42.4413 27.1187C42.7882 27.4655 42.9829 27.9346 42.9829 28.4236C42.9829 28.9126 42.7882 29.3817 42.4413 29.7285C42.0944 30.0705 41.6262 30.2633 41.1376 30.2653C40.8924 30.2667 40.6495 30.22 40.4225 30.1279C40.1956 30.0358 39.9892 29.9001 39.8152 29.7285L37.4687 27.3965L36.0629 28.7936L38.2886 31.0056C38.6355 31.3524 38.8302 31.8215 38.8302 32.3105C38.8302 32.7995 38.6355 33.2687 38.2886 33.6155C37.951 33.9486 37.4978 34.1407 37.0222 34.1523C36.7708 34.1586 36.5208 34.1143 36.2871 34.0221C36.0535 33.9298 35.841 33.7915 35.6626 33.6155L33.4369 31.4035L30.2798 34.5411L30.2747 34.5461C30.6807 35.3453 30.8944 36.2308 30.8944 37.1325C30.8895 38.656 30.2771 40.1154 29.1913 41.191C28.1056 42.2665 26.6351 42.8705 25.1022 42.8705C23.961 42.8668 22.8466 42.5272 21.8996 41.8945C20.9526 41.2617 20.2154 40.3643 19.7813 39.3155C19.3472 38.2667 19.2355 37.1136 19.4604 36.0017C19.6852 34.8899 20.2366 33.8692 21.0448 33.0686C21.853 32.2679 22.8818 31.7233 24.0012 31.5034C25.1207 31.2835 26.2806 31.3982 27.3345 31.833C27.4455 31.8788 27.5548 31.9279 27.6623 31.9803ZM23.9691 35.4485C24.3035 35.2225 24.6978 35.1 25.1022 35.0964V35.0779C25.3736 35.0779 25.6425 35.131 25.8933 35.2343C26.1441 35.3375 26.372 35.4889 26.564 35.6796C26.756 35.8704 26.9082 36.0969 27.0121 36.3462C27.116 36.5955 27.1695 36.8626 27.1695 37.1325C27.1695 37.5344 27.0498 37.9273 26.8255 38.2617C26.6012 38.5961 26.2823 38.8571 25.909 39.0117C25.5358 39.1663 25.1248 39.2077 24.7279 39.1306C24.331 39.0536 23.9659 38.8615 23.6787 38.5786C23.3915 38.2957 23.1949 37.9346 23.1137 37.5409C23.0326 37.1472 23.0705 36.7384 23.2227 36.366C23.3749 35.9937 23.6346 35.6744 23.9691 35.4485Z"
        fill="inherit" />
</svg>
