<svg xmlns="http://www.w3.org/2000/svg" width="24" height="24" viewBox="0 0 24 24"><path d="M5 6H1c-.6 0-1-.4-1-1V1c0-.6.4-1 1-1h4c.6 0 1 .4 1 1v4c0 .6-.4 1-1 1zM2 4h2V2H2v2zm21 2h-4c-.6 0-1-.4-1-1V1c0-.6.4-1 1-1h4c.6 0 1 .4 1 1v4c0 .6-.4 1-1 1zm-3-2h2V2h-2v2zM5 24H1c-.6 0-1-.4-1-1v-4c0-.6.4-1 1-1h4c.6 0 1 .4 1 1v4c0 .6-.4 1-1 1zm-3-2h2v-2H2v2zm21 2h-4c-.6 0-1-.4-1-1v-4c0-.6.4-1 1-1h4c.6 0 1 .4 1 1v4c0 .6-.4 1-1 1zm-3-2h2v-2h-2v2z"/><path d="M3 20c-.6 0-1-.4-1-1V5c0-.6.4-1 1-1s1 .4 1 1v14c0 .6-.4 1-1 1zm16 2H5c-.6 0-1-.4-1-1s.4-1 1-1h14c.6 0 1 .4 1 1s-.4 1-1 1zm2-2c-.6 0-1-.4-1-1V5c0-.6.4-1 1-1s1 .4 1 1v14c0 .6-.4 1-1 1zM19 4H5c-.6 0-1-.4-1-1s.4-1 1-1h14c.6 0 1 .4 1 1s-.4 1-1 1z"/></svg>