<svg width="20" height="24" viewBox="0 0 20 24" fill="none" xmlns="http://www.w3.org/2000/svg">
<path d="M16.6229 22.46L16.6228 22.46L12.2775 17.9491L12.0686 17.7321L11.7791 17.8154C10.7858 18.1014 9.70738 17.8171 8.96356 17.0449C8.29498 16.3509 7.98996 15.3571 8.15432 14.3725L9.57262 15.8449L9.81251 16.0939L10.1302 15.9574L11.3036 15.453L11.4947 15.3708L11.5712 15.1773L12.0524 13.9592L12.1706 13.6602L11.9475 13.4286L10.4891 11.9145C11.4208 11.7366 12.3773 12.0424 13.0562 12.7472C13.6093 13.3214 13.9109 14.0997 13.9109 14.8937C13.9109 15.1695 13.8752 15.445 13.8041 15.7117L13.7314 15.9843L13.9271 16.1875L18.2678 20.6937L18.269 20.6949C18.7357 21.176 18.7374 21.9725 18.2678 22.46C18.0406 22.6959 17.7416 22.8112 17.4453 22.8112C17.1452 22.8112 16.8506 22.6964 16.6229 22.46ZM10.467 11.8916C10.467 11.8916 10.467 11.8917 10.4671 11.8917L10.467 11.8916Z" stroke="#9FA7B3"/>
<path d="M0.5 16.483V14.463C1.1519 14.8234 1.92689 15.1073 2.75551 15.3208C3.8471 15.602 5.06395 15.7692 6.28092 15.8188C6.44146 16.7166 6.84116 17.5595 7.44981 18.2498L7.22145 18.5317C7.16169 18.5327 7.10539 18.5335 7.04965 18.5335C5.02232 18.5335 3.32387 18.2041 2.14993 17.7442C1.56097 17.5134 1.12594 17.2583 0.847488 17.0138C0.560595 16.7618 0.5 16.5773 0.5 16.483Z" stroke="#9FA7B3"/>
<path d="M0.5 2.54572C0.5 2.45163 0.560443 2.26748 0.847206 2.01598C1.12558 1.77184 1.56055 1.51732 2.14955 1.28711C3.32354 0.828254 5.02211 0.5 7.04965 0.5C9.07955 0.5 10.7793 0.828273 11.9538 1.28714C12.5431 1.51735 12.9782 1.77188 13.2567 2.01602C13.5435 2.26751 13.6039 2.45165 13.6039 2.54572C13.6039 2.6398 13.5435 2.82395 13.2567 3.07543C12.9782 3.31958 12.5431 3.57411 11.9538 3.80433C10.7793 4.26319 9.07955 4.59146 7.04965 4.59146C5.02211 4.59146 3.32354 4.26321 2.14955 3.80435C1.56055 3.57414 1.12558 3.31961 0.847209 3.07547C0.560447 2.82397 0.5 2.63982 0.5 2.54572Z" stroke="#9FA7B3"/>
<path d="M7.04965 6.54319C8.46465 6.54319 9.91226 6.38242 11.1962 6.0672C12.0833 5.84941 12.9131 5.55282 13.6039 5.17063V7.18995C13.6039 7.28585 13.5427 7.47097 13.2562 7.72277C12.9779 7.96741 12.5429 8.22231 11.9537 8.45277C10.7792 8.91215 9.07957 9.24043 7.04965 9.24043C5.02209 9.24043 3.32361 8.91217 2.14974 8.4528C1.56082 8.22234 1.12595 7.96745 0.847629 7.72281C0.561161 7.471 0.5 7.28587 0.5 7.18995V5.17063C1.1907 5.55282 2.02041 5.8494 2.9071 6.06719C4.19042 6.3824 5.6369 6.54319 7.04965 6.54319Z" stroke="#9FA7B3"/>
<path d="M0.5 11.8389V9.81664C1.19071 10.2 2.02034 10.4973 2.90688 10.7154C4.19034 11.0313 5.6369 11.1921 7.04965 11.1921C7.60415 11.1921 8.16367 11.1674 8.71639 11.1184C8.68633 11.1879 8.66009 11.2598 8.63795 11.3336L8.63759 11.3348C8.52919 11.6997 8.52824 12.0819 8.62828 12.4367C8.46592 12.3905 8.29604 12.3667 8.12224 12.3667C7.94113 12.3667 7.76419 12.394 7.57914 12.4498L7.57913 12.4498L7.57393 12.4514C6.92134 12.6559 6.44223 13.2043 6.29867 13.8675C4.54957 13.7962 3.08895 13.4785 2.05822 13.06C1.49891 12.833 1.08796 12.585 0.825821 12.3489C0.556471 12.1062 0.5 11.9297 0.5 11.8389ZM12.7213 10.2327C13.034 10.1073 13.3299 9.96873 13.6039 9.81664V10.6763L13.5952 10.687C13.319 10.5044 13.0263 10.3523 12.7213 10.2327Z" stroke="#9FA7B3"/>
</svg>
