<svg width="24" height="24" viewBox="0 0 24 24" fill="none" xmlns="http://www.w3.org/2000/svg">
<path d="M20.0374 14.0366V10.9633C20.3008 10.9067 20.5575 10.8133 20.7941 10.6767H20.7974C22.015 9.97178 22.4468 8.40818 21.7375 7.16665C20.8439 5.62697 18.7047 5.46883 17.5975 6.74331L14.9375 5.20998C15.4943 3.53956 14.2292 1.83331 12.5008 1.83331C10.7456 1.83331 9.51027 3.5584 10.0608 5.20998L7.40414 6.74664C6.22781 5.41796 4.12698 5.67417 3.26083 7.16665C2.43127 8.61735 3.16266 10.565 4.96745 10.9667V14.0366C1.99789 14.6307 2.38358 19.12 5.48747 19.12C6.19572 19.12 6.90226 18.821 7.4008 18.2566L10.0608 19.7933C9.50807 21.4302 10.7395 23.1666 12.5008 23.1666C14.1589 23.1666 15.4973 21.5746 14.9375 19.7933L17.5975 18.2566C18.7585 19.5683 20.8627 19.3371 21.7375 17.84C21.7375 17.8366 21.7375 17.8366 21.7408 17.8333C22.5815 16.3502 21.8005 14.4161 20.0374 14.0366ZM17.2208 17.7033V17.7066L14.6475 19.19C13.6513 17.617 11.3413 17.7338 10.3508 19.19L7.78081 17.7066C8.00773 17.2523 8.10701 16.6689 8.01417 16.11C7.94874 16.0445 7.70491 14.0696 5.63412 13.9867V11.0166C7.23211 11.0166 8.66579 9.06995 7.78081 7.29999L10.3541 5.81334C10.3653 5.83566 10.5285 6.05628 10.5541 6.07335C11.2403 6.87945 12.3026 7.1337 13.2108 6.86664C13.2208 6.86664 13.2308 6.85997 13.2408 6.85997C13.756 6.68831 14.1361 6.41265 14.1675 6.34996C14.3508 6.1933 14.5142 6.01662 14.6475 5.81334L17.2208 7.29665C16.5381 8.74759 17.131 10.6994 19.3708 11.0166V13.9867C17.5823 14.0716 16.4079 15.917 17.2208 17.7033Z" fill="#9FA7B3"/>
<path d="M12.6675 8.3366C12.3676 8.16244 12.411 8.36201 8.97752 10.2766C8.67982 10.4495 8.87184 10.487 8.81085 14.4399C8.81085 14.5566 8.87416 14.6666 8.97752 14.7266C12.23 16.5287 12.3544 16.8544 12.6675 16.6666L16.0242 14.7266C16.3253 14.5517 16.1302 14.4894 16.1909 10.5633C16.1909 10.2177 16.0143 10.3409 12.6675 8.3366Z" fill="#9FA7B3"/>
</svg>
