<svg width="24" height="24" viewBox="0 0 24 24" fill="none" xmlns="http://www.w3.org/2000/svg">
<path d="M0.18457 8.37744V10.4499C0.18457 10.9085 2.44648 11.2822 5.22974 11.2822C8.01817 11.2822 10.2749 10.9085 10.2749 10.4499V8.37744C9.48365 8.71492 8.0034 8.97449 5.22974 8.97449C2.45608 8.97449 0.975832 8.71492 0.18457 8.37744ZM8.84082 9.36772C9.09559 9.36772 9.30199 9.57412 9.30199 9.82889C9.30223 9.88962 9.29048 9.94981 9.26742 10.006C9.24436 10.0622 9.21043 10.1133 9.16759 10.1563C9.12475 10.1994 9.07383 10.2335 9.01775 10.2569C8.96168 10.2802 8.90155 10.2922 8.84082 10.2923C8.7799 10.2925 8.71953 10.2807 8.6632 10.2575C8.60687 10.2343 8.55569 10.2002 8.51261 10.1571C8.46953 10.114 8.43541 10.0628 8.41221 10.0065C8.38901 9.95018 8.37719 9.88981 8.37743 9.82889C8.37748 9.76815 8.38951 9.70802 8.41285 9.65195C8.43618 9.59588 8.47035 9.54496 8.5134 9.50212C8.55645 9.45927 8.60753 9.42535 8.66371 9.40228C8.7199 9.37922 8.78008 9.36748 8.84082 9.36772Z" fill="#9FA7B3"/>
<path d="M0.18457 11.498V13.5705C0.18457 14.0291 2.44648 14.4028 5.22974 14.4028C8.01817 14.4028 10.2749 14.0291 10.2749 13.5705V11.498C9.48365 11.8352 8.0034 12.0951 5.22974 12.0951C2.45608 12.0951 0.975832 11.8355 0.18457 11.498ZM8.84082 12.4857C9.09559 12.4857 9.30199 12.6944 9.30199 12.9491C9.30223 13.0099 9.29048 13.07 9.26742 13.1262C9.24436 13.1824 9.21043 13.2335 9.16759 13.2765C9.12475 13.3196 9.07383 13.3538 9.01775 13.3771C8.96168 13.4004 8.90155 13.4125 8.84082 13.4125C8.72112 13.4077 8.60792 13.3568 8.52492 13.2704C8.44192 13.1841 8.39557 13.0689 8.39557 12.9491C8.39557 12.8293 8.44192 12.7142 8.52492 12.6278C8.60792 12.5414 8.72112 12.4905 8.84082 12.4857Z" fill="#9FA7B3"/>
<path d="M0.18457 14.6995V16.7768C0.18457 17.2076 2.22383 17.5676 4.81214 17.6012L5.64734 17.6009C8.23971 17.5658 10.2753 17.2076 10.2753 16.7768V14.6995C9.48402 15.0366 8.00377 15.2965 5.23011 15.2965C2.45645 15.2965 0.975832 15.0366 0.18457 14.6995ZM8.84082 15.6872C9.09559 15.6872 9.30199 15.8984 9.30199 16.1505C9.30277 16.2737 9.25466 16.3922 9.16821 16.48C9.08175 16.5678 8.96401 16.6177 8.84082 16.6187C8.71955 16.6153 8.6044 16.5647 8.51984 16.4778C8.43527 16.3908 8.38796 16.2743 8.38796 16.1529C8.38796 16.0316 8.43527 15.9151 8.51984 15.8281C8.6044 15.7411 8.71955 15.6906 8.84082 15.6872Z" fill="#9FA7B3"/>
<path d="M5.22982 8.05011C7.99682 8.05011 10.2399 7.68097 10.2399 7.22562C10.2399 6.77026 7.99682 6.40112 5.22982 6.40112C2.46282 6.40112 0.219727 6.77026 0.219727 7.22562C0.219727 7.68097 2.46282 8.05011 5.22982 8.05011Z" fill="#9FA7B3"/>
<path d="M12.9833 18.0969V14.3403C12.8682 14.3719 12.7493 14.3875 12.63 14.3865C12.51 14.3865 12.3896 14.3725 12.2766 14.3403V18.0969C12.2773 18.3657 12.3844 18.6233 12.5744 18.8133C12.7645 19.0034 13.0221 19.1105 13.2909 19.1112H14.6161V18.4045H13.2909C13.2093 18.4044 13.1312 18.3719 13.0735 18.3143C13.0159 18.2566 12.9834 18.1784 12.9833 18.0969Z" fill="#9FA7B3"/>
<path d="M12.2766 5.90515V9.65801C12.3896 9.62958 12.51 9.61555 12.63 9.61555C12.75 9.61555 12.8703 9.62958 12.9833 9.6617V5.90515C12.9833 5.73567 13.121 5.59758 13.2909 5.59758H14.6161V4.89087H13.2909C13.0221 4.89155 12.7645 4.99863 12.5744 5.1887C12.3844 5.37876 12.2773 5.63635 12.2766 5.90515Z" fill="#9FA7B3"/>
<path d="M13.3366 12.9725V11.0289C13.3366 10.8346 13.2587 10.6578 13.128 10.5304C13.0628 10.4646 12.9852 10.4123 12.8997 10.3765C12.8143 10.3407 12.7226 10.3221 12.6299 10.3218C12.4427 10.3224 12.2633 10.397 12.1309 10.5294C11.9985 10.6618 11.9238 10.8412 11.9232 11.0285V11.2936H11.6581C11.5653 11.2931 11.4734 11.3113 11.3878 11.3472C11.3023 11.383 11.2248 11.4358 11.16 11.5022C11.0942 11.5675 11.042 11.645 11.0062 11.7305C10.9704 11.816 10.9518 11.9076 10.9514 12.0003C10.952 12.1876 11.0266 12.367 11.1591 12.4994C11.2915 12.6318 11.4709 12.7064 11.6581 12.707H11.9232V12.9721C11.9232 13.1663 12.0011 13.3432 12.1318 13.4706C12.2592 13.5976 12.4357 13.6792 12.6299 13.6792C12.8172 13.6786 12.9966 13.604 13.129 13.4716C13.2614 13.3392 13.3361 13.1597 13.3366 12.9725Z" fill="#9FA7B3"/>
<path d="M23.8153 1.54706V6.70152C23.8153 6.90829 23.6455 7.07813 23.4387 7.07813H20.3741V7.7169H20.8688C21.0018 7.7169 21.1088 7.82398 21.1088 7.95321V7.9569C21.1088 8.08613 21.0018 8.18952 20.8688 8.18952H18.2695C18.1365 8.18952 18.0295 8.08613 18.0295 7.9569V7.95321C18.0295 7.82398 18.1365 7.7169 18.2695 7.7169H18.7642V7.07813H15.7033C15.4928 7.07813 15.323 6.90829 15.323 6.70152V1.54706C15.323 1.33659 15.4928 1.16675 15.7033 1.16675H23.4387C23.6455 1.16675 23.8153 1.33659 23.8153 1.54706Z" fill="#9FA7B3"/>
<path d="M23.8153 16.1906V21.3451C23.8153 21.5518 23.6455 21.7217 23.435 21.7217H20.3741V22.3605H20.8688C21.0018 22.3605 21.1088 22.4675 21.1088 22.5968V22.6005C21.1088 22.7297 21.0018 22.8331 20.8688 22.8331H18.2695C18.1365 22.8331 18.0295 22.7297 18.0295 22.6005V22.5968C18.0295 22.4675 18.1365 22.3605 18.2695 22.3605H18.7642V21.7217H15.7033C15.4928 21.7217 15.323 21.5518 15.323 21.3451V16.1906C15.323 15.9801 15.4928 15.8103 15.7033 15.8103H23.435C23.6455 15.8103 23.8153 15.9801 23.8153 16.1906Z" fill="#9FA7B3"/>
</svg>
