<?xml version="1.0" encoding="UTF-8" standalone="no"?><!DOCTYPE svg PUBLIC "-//W3C//DTD SVG 1.1//EN" "http://www.w3.org/Graphics/SVG/1.1/DTD/svg11.dtd"><svg width="100%" height="100%" viewBox="0 0 64 64" version="1.1" xmlns="http://www.w3.org/2000/svg" xmlns:xlink="http://www.w3.org/1999/xlink" xml:space="preserve" xmlns:serif="http://www.serif.com/" style="fill-rule:evenodd;clip-rule:evenodd;stroke-linejoin:round;stroke-miterlimit:2;"><g><path d="M64.001,32c0,-17.646 -14.356,-32.001 -32.001,-32.001c-17.646,-0 -32.001,14.355 -32.001,32.001c-0,17.646 14.355,32.001 32.001,32.001c17.646,0 32.001,-14.355 32.001,-32.001Zm-62.592,0c0,-16.868 13.723,-30.591 30.591,-30.591c16.868,0 30.591,13.723 30.591,30.591c-0,16.868 -13.723,30.591 -30.591,30.591c-16.868,-0 -30.591,-13.723 -30.591,-30.591l0,0Z" style="fill:#3b697e;fill-rule:nonzero;"/><circle cx="49.3" cy="32.725" r="5.296" style="fill:#3b697e;"/><circle cx="31.875" cy="52.94" r="5.296" style="fill:#3b697e;"/><path d="M31.148,33.103l3.295,-8.185l2.988,8.538l2.684,-0c0.226,2.71 1.641,5.186 3.861,6.757l-8.659,8.659l0.665,0.665l8.808,-8.808c1.378,0.774 2.932,1.18 4.512,1.18c5.056,0 9.216,-4.16 9.216,-9.215c0,-5.056 -4.16,-9.216 -9.216,-9.216c-1.464,-0 -2.907,0.349 -4.209,1.017l-9.039,-8.587c0.797,-0.953 1.234,-2.156 1.234,-3.399c0,-2.906 -2.391,-5.297 -5.297,-5.297c-2.906,-0 -5.297,2.391 -5.297,5.297c-0,2.906 2.391,5.297 5.297,5.297c1.242,0 2.445,-0.436 3.397,-1.233l8.86,8.417c-2.542,1.666 -4.102,4.486 -4.162,7.525l-1.987,0l-3.594,-10.267l-3.992,9.915l-4.457,-0l-3.788,8.766l-3.341,-8.353l-0.01,0.004l0,-0.09l-3.378,-0c-0.124,-2.816 -2.474,-5.064 -5.292,-5.064c-2.907,-0 -5.298,2.391 -5.298,5.298c-0,2.906 2.391,5.298 5.298,5.298c2.64,-0 4.898,-1.975 5.25,-4.592l2.759,0l3.978,9.947l4.44,-10.274l4.474,-0Zm18.152,-8.685c-0,-0 -0,-0 -0,-0c4.54,-0 8.276,3.736 8.276,8.276c-0,4.54 -3.736,8.276 -8.276,8.276c-4.54,0 -8.276,-3.736 -8.276,-8.276c-0,0 -0,0 -0,-0c0.005,-4.538 3.737,-8.271 8.276,-8.276Z" style="fill:#3b697e;fill-rule:nonzero;"/></g></svg>