<svg clip-rule="evenodd" fill-rule="evenodd" stroke-linejoin="round" stroke-miterlimit="2" viewBox="0 0 64 64" xmlns="http://www.w3.org/2000/svg"><g fill="#3b697e"><path d="m64.001 32c0-17.646-14.356-32.001-32.001-32.001-17.646 0-32.001 14.355-32.001 32.001s14.355 32.001 32.001 32.001 32.001-14.355 32.001-32.001zm-62.592 0c0-16.868 13.723-30.591 30.591-30.591s30.591 13.723 30.591 30.591-13.723 30.591-30.591 30.591-30.591-13.723-30.591-30.591z" fill-rule="nonzero"/><circle cx="49.3" cy="32.725" r="5.296"/><circle cx="31.875" cy="52.94" r="5.296"/><path d="m31.148 33.103 3.295-8.185 2.988 8.538h2.684c.226 2.71 1.641 5.186 3.861 6.757l-8.659 8.659.665.665 8.808-8.808c1.378.774 2.932 1.18 4.512 1.18 5.056 0 9.216-4.16 9.216-9.215 0-5.056-4.16-9.216-9.216-9.216-1.464 0-2.907.349-4.209 1.017l-9.039-8.587c.797-.953 1.234-2.156 1.234-3.399 0-2.906-2.391-5.297-5.297-5.297s-5.297 2.391-5.297 5.297 2.391 5.297 5.297 5.297c1.242 0 2.445-.436 3.397-1.233l8.86 8.417c-2.542 1.666-4.102 4.486-4.162 7.525h-1.987l-3.594-10.267-3.992 9.915h-4.457l-3.788 8.766-3.341-8.353-.01.004v-.09h-3.378c-.124-2.816-2.474-5.064-5.292-5.064-2.907 0-5.298 2.391-5.298 5.298 0 2.906 2.391 5.298 5.298 5.298 2.64 0 4.898-1.975 5.25-4.592h2.759l3.978 9.947 4.44-10.274zm18.152-8.685c4.54 0 8.276 3.736 8.276 8.276s-3.736 8.276-8.276 8.276-8.276-3.736-8.276-8.276c.005-4.538 3.737-8.271 8.276-8.276z" fill-rule="nonzero"/></g></svg>