<?xml version="1.0" encoding="UTF-8" standalone="no"?><!DOCTYPE svg PUBLIC "-//W3C//DTD SVG 1.1//EN" "http://www.w3.org/Graphics/SVG/1.1/DTD/svg11.dtd"><svg width="100%" height="100%" viewBox="0 0 16 16" version="1.1" xmlns="http://www.w3.org/2000/svg" xmlns:xlink="http://www.w3.org/1999/xlink" xml:space="preserve" xmlns:serif="http://www.serif.com/" style="fill-rule:evenodd;clip-rule:evenodd;stroke-linejoin:round;stroke-miterlimit:2;"><path d="M1.941,13.102l2.194,-0l1.538,-2.953l-1.065,-2.043l-2.667,4.996Zm11.935,-5.079l-1.2,2.303l1.406,2.742l1.2,-2.313l-1.406,-2.732Zm-0.364,-0.705l-2.562,-4.971l-1.263,2.228l2.623,5.049l1.202,-2.306Zm-3.991,3.039l1.429,2.743l2.436,-0l-2.648,-5.083l-1.217,2.34Zm-5.276,-2.952l-1.195,-2.305l-1.525,2.933l1.172,2.269l1.548,-2.897Zm-3.077,1.327l-1.09,2.152l1.2,2.179l1.063,-2.057l-1.173,-2.274Zm8.113,-3.494l-1.27,2.243l1.146,2.179l1.219,-2.34l-1.095,-2.082Zm-4.792,-2.98l-1.096,2.133l4.264,8.154l1.137,-2.182l-2.155,-4.135l-2.15,-3.97Z" style="fill:url(#_Linear1);fill-rule:nonzero;"/><defs><linearGradient id="_Linear1" x1="0" y1="0" x2="1" y2="0" gradientUnits="userSpaceOnUse" gradientTransform="matrix(8.80688e-16,14.3827,-14.3827,8.80688e-16,7.68261,2.43042)"><stop offset="0" style="stop-color:#f2c144;stop-opacity:1"/><stop offset="0.24" style="stop-color:#f1a03b;stop-opacity:1"/><stop offset="0.57" style="stop-color:#f17a31;stop-opacity:1"/><stop offset="0.84" style="stop-color:#f0632a;stop-opacity:1"/><stop offset="1" style="stop-color:#f05a28;stop-opacity:1"/></linearGradient></defs></svg>