<svg clip-rule="evenodd" fill-rule="evenodd" stroke-linejoin="round" stroke-miterlimit="2" viewBox="0 0 16 16" xmlns="http://www.w3.org/2000/svg" xmlns:xlink="http://www.w3.org/1999/xlink"><linearGradient id="a" gradientTransform="matrix(0 14.3827 -14.3827 0 7.68261 2.43042)" gradientUnits="userSpaceOnUse" x1="0" x2="1" y1="0" y2="0"><stop offset="0" stop-color="#f2c144"/><stop offset=".24" stop-color="#f1a03b"/><stop offset=".57" stop-color="#f17a31"/><stop offset=".84" stop-color="#f0632a"/><stop offset="1" stop-color="#f05a28"/></linearGradient><path d="m1.941 13.102h2.194l1.538-2.953-1.065-2.043zm11.935-5.079-1.2 2.303 1.406 2.742 1.2-2.313zm-.364-.705-2.562-4.971-1.263 2.228 2.623 5.049zm-3.991 3.039 1.429 2.743h2.436l-2.648-5.083zm-5.276-2.952-1.195-2.305-1.525 2.933 1.172 2.269zm-3.077 1.327-1.09 2.152 1.2 2.179 1.063-2.057zm8.113-3.494-1.27 2.243 1.146 2.179 1.219-2.34zm-4.792-2.98-1.096 2.133 4.264 8.154 1.137-2.182-2.155-4.135z" fill="url(#a)" fill-rule="nonzero"/></svg>