<svg clip-rule="evenodd" fill-rule="evenodd" stroke-linejoin="round" stroke-miterlimit="2" viewBox="0 0 2490 2500" xmlns="http://www.w3.org/2000/svg"><path d="m1245.01 6.624c-687.571 0-1245.01 557.371-1245.01 1244.97 0 687.571 557.439 1244.98 1245.01 1244.98 687.57 0 1244.99-557.41 1244.99-1244.98 0-687.609-557.439-1244.97-1244.99-1244.97zm0 2330.1c-195.621 0-354.232-130.677-354.232-291.836h708.463c0 161.13-158.601 291.836-354.231 291.836zm585.082-388.479h-1170.22v-212.205h1170.24v212.195h-.019v.01zm-4.202-321.415h-1162.68c-3.872-4.454-7.82-8.851-11.555-13.374-119.783-145.451-148-221.376-175.39-298.761-.467-2.548 145.247 29.764 248.572 53.01 0 0 53.166 12.304 130.9 26.476-74.632-87.481-118.956-198.694-118.956-312.378 0-249.565 191.419-467.644 122.361-643.909 67.21 5.467 139.089 141.843 143.953 355.069 71.451-98.745 101.35-279.056 101.35-389.608 0-114.472 75.43-247.443 150.879-251.986-67.259 110.844 17.41 205.863 92.694 441.586 28.227 88.541 24.628 237.552 46.415 332.046 7.237-196.263 40.978-482.632 165.488-581.493-54.926 124.5 8.131 280.3 51.259 355.194 69.584 120.843 111.758 212.39 111.758 385.542 0 116.096-42.865 225.394-115.162 310.841 82.209-15.426 138.982-29.335 138.982-29.335l266.995-52.086c.019-.019-38.78 159.526-187.859 313.166z" fill="#da4e31" fill-rule="nonzero"/><path d="m1705.72 1975.04c0-87.988-71.434-159.422-159.422-159.422h-1355.28c-87.987 0-159.422 71.434-159.422 159.422v318.844c0 87.987 71.435 159.422 159.422 159.422h1355.28c87.988 0 159.422-71.435 159.422-159.422z"/><circle cx="413.575" cy="2134.47" fill="#f00" r="185.331"/><g fill="#fff" fill-rule="nonzero"><path d="m706.84 2277.33v-285.718h121.42c30.534 0 52.719 2.566 66.557 7.698 13.837 5.133 24.914 14.26 33.23 27.383 8.315 13.123 12.473 28.13 12.473 45.021 0 21.439-6.302 39.142-18.905 53.109-12.603 13.968-31.443 22.771-56.52 26.409 12.474 7.276 22.771 15.267 30.891 23.972 8.121 8.705 19.068 24.167 32.84 46.385l34.887 55.741h-68.994l-41.707-62.172c-14.812-22.218-24.947-36.218-30.404-42s-11.239-9.745-17.346-11.889-15.787-3.216-29.039-3.216h-11.694v119.277zm57.689-164.882h42.682c27.675 0 44.956-1.17 51.842-3.509 6.887-2.338 12.279-6.366 16.177-12.083s5.847-12.863 5.847-21.439c0-9.615-2.566-17.378-7.699-23.29-5.132-5.912-12.376-9.647-21.731-11.206-4.677-.65-18.71-.975-42.097-.975h-45.021z"/><path d="m994.896 2277.33v-285.718h211.852v48.334h-154.163v63.341h143.444v48.14h-143.444v77.763h159.62v48.14z"/><path d="m1443.94 2172.28 55.935 17.735c-8.576 31.184-22.836 54.344-42.78 69.481s-45.248 22.705-75.912 22.705c-37.94 0-69.123-12.961-93.55-38.882s-36.641-61.359-36.641-106.316c0-47.554 12.279-84.487 36.836-110.798s56.845-39.466 96.863-39.466c34.952 0 63.341 10.329 85.17 30.988 12.993 12.214 22.738 29.754 29.234 52.622l-57.104 13.643c-3.379-14.812-10.427-26.506-21.147-35.082-10.719-8.575-23.744-12.863-39.076-12.863-21.179 0-38.362 7.601-51.55 22.803s-19.782 39.824-19.782 73.866c0 36.12 6.496 61.847 19.489 77.179 12.993 15.331 29.884 22.997 50.673 22.997 15.332 0 28.52-4.872 39.564-14.617s18.97-25.076 23.778-45.995z"/></g></svg>