<svg xmlns="http://www.w3.org/2000/svg" xmlns:xlink="http://www.w3.org/1999/xlink" viewBox="0 0 81 79.04"><defs><style>.cls-1{fill:url(#linear-gradient);}.cls-2{fill:#3865ab;}.cls-3{fill:#84aff1;}</style><linearGradient id="linear-gradient" y1="14.91" x2="81" y2="14.91" gradientUnits="userSpaceOnUse"><stop offset="0" stop-color="#f2cc0c"/><stop offset="1" stop-color="#ff9830"/></linearGradient></defs><g id="Layer_2" data-name="Layer 2"><g id="Layer_1-2" data-name="Layer 1"><path class="cls-1" d="M13.12.4v29h-7V8.71H5.85a5,5,0,0,1-2,1.45A8.94,8.94,0,0,1,0,10.87V5.34a6.39,6.39,0,0,0,3.13-.76,6.36,6.36,0,0,0,2.2-1.92A4.07,4.07,0,0,0,6.15.4Zm6.43,29v-5L30.13,15.1a22.8,22.8,0,0,0,2.76-2.87,4.67,4.67,0,0,0,1-2.91A3.6,3.6,0,0,0,32.72,6.5a4.23,4.23,0,0,0-2.93-1,4,4,0,0,0-2.91,1.08A4.08,4.08,0,0,0,25.77,9.6H19.12a9.6,9.6,0,0,1,1.33-5.11A8.79,8.79,0,0,1,24.2,1.17,12.74,12.74,0,0,1,29.82,0a13.77,13.77,0,0,1,5.74,1.11,8.81,8.81,0,0,1,3.77,3.07,8,8,0,0,1,1.34,4.59A8.48,8.48,0,0,1,40,12.05a13.83,13.83,0,0,1-2.4,3.6,52.32,52.32,0,0,1-4.86,4.72l-3.47,3.2v.19H41v5.65ZM49,29.82a3.59,3.59,0,0,1-2.62-1.08,3.67,3.67,0,0,1,0-5.18A3.62,3.62,0,0,1,49,22.5a3.58,3.58,0,0,1,2.56,1.06,3.55,3.55,0,0,1,0,5.18A3.56,3.56,0,0,1,49,29.82Zm7.86-5.23V19.12L68.7.4h8.83V19.07H81v5.52H77.53v4.82h-6.7V24.59ZM71,19.07V7.82h-.22l-7,11v.23Z"/><polygon class="cls-2" points="53.24 61.55 27.32 43.53 0 54.29 0 79.04 81 79.04 81 47.84 53.24 61.55"/><path class="cls-3" d="M53.24,63.55a2,2,0,0,1-1.14-.35l-25-17.4L2.77,55.86a2,2,0,1,1-1.53-3.7L26.55,41.68a2,2,0,0,1,1.91.21L53.38,59.22,78.06,46.15a2,2,0,1,1,1.88,3.53L54.17,63.32A1.91,1.91,0,0,1,53.24,63.55Z"/></g></g></svg>