<?xml version="1.0" encoding="utf-8"?>
<!-- Generator: Adobe Illustrator 19.0.1, SVG Export Plug-In . SVG Version: 6.00 Build 0)  -->
<!DOCTYPE svg PUBLIC "-//W3C//DTD SVG 1.1//EN" "http://www.w3.org/Graphics/SVG/1.1/DTD/svg11.dtd">
<svg version="1.1" id="Layer_1" xmlns="http://www.w3.org/2000/svg" xmlns:xlink="http://www.w3.org/1999/xlink" x="0px" y="0px"
	 width="100px" height="100px" viewBox="0 0 100 100" style="enable-background:new 0 0 100 100;" xml:space="preserve">
<style type="text/css">
	.st0{opacity:0.26;fill:url(#SVGID_1_);}
	.st1{fill:url(#SVGID_2_);}
	.st2{fill:url(#SVGID_3_);}
	.st3{fill:url(#SVGID_4_);}
	.st4{fill:url(#SVGID_5_);}
	.st5{fill:none;stroke:url(#SVGID_6_);stroke-miterlimit:10;}
</style>
<g>
	<linearGradient id="SVGID_1_" gradientUnits="userSpaceOnUse" x1="50" y1="65.6698" x2="50" y2="93.5681">
		<stop  offset="0" style="stop-color:#FFF23A"/>
		<stop  offset="4.010540e-02" style="stop-color:#FEE62D"/>
		<stop  offset="0.1171" style="stop-color:#FED41A"/>
		<stop  offset="0.1964" style="stop-color:#FDC90F"/>
		<stop  offset="0.2809" style="stop-color:#FDC60B"/>
		<stop  offset="0.6685" style="stop-color:#F28F3F"/>
		<stop  offset="0.8876" style="stop-color:#ED693C"/>
		<stop  offset="1" style="stop-color:#E83E39"/>
	</linearGradient>
	<path class="st0" d="M97.6,83.8H2.4c-1.3,0-2.4-1.1-2.4-2.4v-1.8l17-1l19.2-4.3l16.3-1.6l16.5,0l15.8-4.7l15.1-3v16.3
		C100,82.8,98.9,83.8,97.6,83.8z"/>
	<g>
		<linearGradient id="SVGID_2_" gradientUnits="userSpaceOnUse" x1="19.098" y1="76.0776" x2="19.098" y2="27.8027">
			<stop  offset="0" style="stop-color:#FFF23A"/>
			<stop  offset="4.010540e-02" style="stop-color:#FEE62D"/>
			<stop  offset="0.1171" style="stop-color:#FED41A"/>
			<stop  offset="0.1964" style="stop-color:#FDC90F"/>
			<stop  offset="0.2809" style="stop-color:#FDC60B"/>
			<stop  offset="0.6685" style="stop-color:#F28F3F"/>
			<stop  offset="0.8876" style="stop-color:#ED693C"/>
			<stop  offset="1" style="stop-color:#E83E39"/>
		</linearGradient>
		<path class="st1" d="M19.6,64.3V38.9l-5.2,3.9l-3.5-6l9.4-6.9h6.8v34.4H19.6z"/>
		<linearGradient id="SVGID_3_" gradientUnits="userSpaceOnUse" x1="42.412" y1="76.0776" x2="42.412" y2="27.8027">
			<stop  offset="0" style="stop-color:#FFF23A"/>
			<stop  offset="4.010540e-02" style="stop-color:#FEE62D"/>
			<stop  offset="0.1171" style="stop-color:#FED41A"/>
			<stop  offset="0.1964" style="stop-color:#FDC90F"/>
			<stop  offset="0.2809" style="stop-color:#FDC60B"/>
			<stop  offset="0.6685" style="stop-color:#F28F3F"/>
			<stop  offset="0.8876" style="stop-color:#ED693C"/>
			<stop  offset="1" style="stop-color:#E83E39"/>
		</linearGradient>
		<path class="st2" d="M53.1,39.4c0,1.1-0.1,2.2-0.4,3.2c-0.3,1-0.7,1.9-1.2,2.8c-0.5,0.9-1,1.7-1.7,2.5c-0.6,0.8-1.2,1.6-1.9,2.3
			l-6.4,7.4h11.1v6.7H32.3v-6.9l10.5-12c0.8-1,1.5-2,2-3c0.5-1,0.7-2,0.7-2.9c0-1-0.2-1.9-0.7-2.6c-0.5-0.7-1.2-1.1-2.2-1.1
			c-0.9,0-1.7,0.4-2.3,1.1c-0.6,0.8-1,1.9-1.1,3.3l-7.3-0.7c0.4-3.5,1.6-6.1,3.6-7.9c2-1.7,4.5-2.6,7.4-2.6c1.6,0,3,0.2,4.3,0.7
			c1.3,0.5,2.3,1.2,3.2,2c0.9,0.9,1.6,1.9,2.1,3.2C52.8,36.4,53.1,37.8,53.1,39.4z"/>
		<linearGradient id="SVGID_4_" gradientUnits="userSpaceOnUse" x1="60.3739" y1="76.0776" x2="60.3739" y2="27.8027">
			<stop  offset="0" style="stop-color:#FFF23A"/>
			<stop  offset="4.010540e-02" style="stop-color:#FEE62D"/>
			<stop  offset="0.1171" style="stop-color:#FED41A"/>
			<stop  offset="0.1964" style="stop-color:#FDC90F"/>
			<stop  offset="0.2809" style="stop-color:#FDC60B"/>
			<stop  offset="0.6685" style="stop-color:#F28F3F"/>
			<stop  offset="0.8876" style="stop-color:#ED693C"/>
			<stop  offset="1" style="stop-color:#E83E39"/>
		</linearGradient>
		<path class="st3" d="M64.5,60.4c0,1.2-0.4,2.3-1.2,3.1c-0.8,0.8-1.8,1.3-3,1.3c-1.2,0-2.2-0.4-3-1.3c-0.8-0.8-1.1-1.9-1.1-3.1
			c0-1.2,0.4-2.2,1.1-3.1c0.8-0.9,1.8-1.3,3-1.3c1.2,0,2.2,0.4,3,1.3C64.1,58.1,64.5,59.2,64.5,60.4z"/>
		<linearGradient id="SVGID_5_" gradientUnits="userSpaceOnUse" x1="77.5234" y1="76.0776" x2="77.5234" y2="27.8027">
			<stop  offset="0" style="stop-color:#FFF23A"/>
			<stop  offset="4.010540e-02" style="stop-color:#FEE62D"/>
			<stop  offset="0.1171" style="stop-color:#FED41A"/>
			<stop  offset="0.1964" style="stop-color:#FDC90F"/>
			<stop  offset="0.2809" style="stop-color:#FDC60B"/>
			<stop  offset="0.6685" style="stop-color:#F28F3F"/>
			<stop  offset="0.8876" style="stop-color:#ED693C"/>
			<stop  offset="1" style="stop-color:#E83E39"/>
		</linearGradient>
		<path class="st4" d="M85.5,57.4v6.9h-6.9v-6.9H66v-6.6l10.1-20.9h9.4V51H89v6.4H85.5z M78.8,37.5L78.8,37.5l-6,13.5h6V37.5z"/>
	</g>
	<linearGradient id="SVGID_6_" gradientUnits="userSpaceOnUse" x1="-2.852199e-02" y1="72.3985" x2="100.0976" y2="72.3985">
		<stop  offset="0" style="stop-color:#F28F3F"/>
		<stop  offset="1" style="stop-color:#F28F3F"/>
	</linearGradient>
	<polyline class="st5" points="0,79.7 17,78.7 36.2,74.4 52.5,72.8 69,72.9 84.9,68.1 100,65.1 	"/>
</g>
</svg>
