<svg xmlns="http://www.w3.org/2000/svg" xmlns:xlink="http://www.w3.org/1999/xlink" id="Layer_1" width="100" height="100" x="0" style="enable-background:new 0 0 100 100" y="0" version="1.1" viewBox="0 0 100 100" xml:space="preserve"><style type="text/css">.st0{opacity:.26;fill:url(#SVGID_1_)}.st1{fill:url(#SVGID_2_)}.st2{fill:url(#SVGID_3_)}.st3{fill:url(#SVGID_4_)}.st4{fill:url(#SVGID_5_)}.st5{fill:none;stroke:url(#SVGID_6_);stroke-miterlimit:10}</style><g><linearGradient id="SVGID_1_" x1="50" x2="50" y1="65.67" y2="93.568" gradientUnits="userSpaceOnUse"><stop offset="0" style="stop-color:#fff23a"/><stop offset=".04" style="stop-color:#fee62d"/><stop offset=".117" style="stop-color:#fed41a"/><stop offset=".196" style="stop-color:#fdc90f"/><stop offset=".281" style="stop-color:#fdc60b"/><stop offset=".668" style="stop-color:#f28f3f"/><stop offset=".888" style="stop-color:#ed693c"/><stop offset="1" style="stop-color:#e83e39"/></linearGradient><path d="M97.6,83.8H2.4c-1.3,0-2.4-1.1-2.4-2.4v-1.8l17-1l19.2-4.3l16.3-1.6l16.5,0l15.8-4.7l15.1-3v16.3 C100,82.8,98.9,83.8,97.6,83.8z" class="st0"/><g><linearGradient id="SVGID_2_" x1="19.098" x2="19.098" y1="76.078" y2="27.803" gradientUnits="userSpaceOnUse"><stop offset="0" style="stop-color:#fff23a"/><stop offset=".04" style="stop-color:#fee62d"/><stop offset=".117" style="stop-color:#fed41a"/><stop offset=".196" style="stop-color:#fdc90f"/><stop offset=".281" style="stop-color:#fdc60b"/><stop offset=".668" style="stop-color:#f28f3f"/><stop offset=".888" style="stop-color:#ed693c"/><stop offset="1" style="stop-color:#e83e39"/></linearGradient><path d="M19.6,64.3V38.9l-5.2,3.9l-3.5-6l9.4-6.9h6.8v34.4H19.6z" class="st1"/><linearGradient id="SVGID_3_" x1="42.412" x2="42.412" y1="76.078" y2="27.803" gradientUnits="userSpaceOnUse"><stop offset="0" style="stop-color:#fff23a"/><stop offset=".04" style="stop-color:#fee62d"/><stop offset=".117" style="stop-color:#fed41a"/><stop offset=".196" style="stop-color:#fdc90f"/><stop offset=".281" style="stop-color:#fdc60b"/><stop offset=".668" style="stop-color:#f28f3f"/><stop offset=".888" style="stop-color:#ed693c"/><stop offset="1" style="stop-color:#e83e39"/></linearGradient><path d="M53.1,39.4c0,1.1-0.1,2.2-0.4,3.2c-0.3,1-0.7,1.9-1.2,2.8c-0.5,0.9-1,1.7-1.7,2.5c-0.6,0.8-1.2,1.6-1.9,2.3 l-6.4,7.4h11.1v6.7H32.3v-6.9l10.5-12c0.8-1,1.5-2,2-3c0.5-1,0.7-2,0.7-2.9c0-1-0.2-1.9-0.7-2.6c-0.5-0.7-1.2-1.1-2.2-1.1 c-0.9,0-1.7,0.4-2.3,1.1c-0.6,0.8-1,1.9-1.1,3.3l-7.3-0.7c0.4-3.5,1.6-6.1,3.6-7.9c2-1.7,4.5-2.6,7.4-2.6c1.6,0,3,0.2,4.3,0.7 c1.3,0.5,2.3,1.2,3.2,2c0.9,0.9,1.6,1.9,2.1,3.2C52.8,36.4,53.1,37.8,53.1,39.4z" class="st2"/><linearGradient id="SVGID_4_" x1="60.374" x2="60.374" y1="76.078" y2="27.803" gradientUnits="userSpaceOnUse"><stop offset="0" style="stop-color:#fff23a"/><stop offset=".04" style="stop-color:#fee62d"/><stop offset=".117" style="stop-color:#fed41a"/><stop offset=".196" style="stop-color:#fdc90f"/><stop offset=".281" style="stop-color:#fdc60b"/><stop offset=".668" style="stop-color:#f28f3f"/><stop offset=".888" style="stop-color:#ed693c"/><stop offset="1" style="stop-color:#e83e39"/></linearGradient><path d="M64.5,60.4c0,1.2-0.4,2.3-1.2,3.1c-0.8,0.8-1.8,1.3-3,1.3c-1.2,0-2.2-0.4-3-1.3c-0.8-0.8-1.1-1.9-1.1-3.1 c0-1.2,0.4-2.2,1.1-3.1c0.8-0.9,1.8-1.3,3-1.3c1.2,0,2.2,0.4,3,1.3C64.1,58.1,64.5,59.2,64.5,60.4z" class="st3"/><linearGradient id="SVGID_5_" x1="77.523" x2="77.523" y1="76.078" y2="27.803" gradientUnits="userSpaceOnUse"><stop offset="0" style="stop-color:#fff23a"/><stop offset=".04" style="stop-color:#fee62d"/><stop offset=".117" style="stop-color:#fed41a"/><stop offset=".196" style="stop-color:#fdc90f"/><stop offset=".281" style="stop-color:#fdc60b"/><stop offset=".668" style="stop-color:#f28f3f"/><stop offset=".888" style="stop-color:#ed693c"/><stop offset="1" style="stop-color:#e83e39"/></linearGradient><path d="M85.5,57.4v6.9h-6.9v-6.9H66v-6.6l10.1-20.9h9.4V51H89v6.4H85.5z M78.8,37.5L78.8,37.5l-6,13.5h6V37.5z" class="st4"/></g><linearGradient id="SVGID_6_" x1="-.029" x2="100.098" y1="72.398" y2="72.398" gradientUnits="userSpaceOnUse"><stop offset="0" style="stop-color:#f28f3f"/><stop offset="1" style="stop-color:#f28f3f"/></linearGradient><polyline points="0 79.7 17 78.7 36.2 74.4 52.5 72.8 69 72.9 84.9 68.1 100 65.1" class="st5"/></g></svg>