<?xml version="1.0" encoding="utf-8"?>
<!-- Generator: Adobe Illustrator 20.1.0, SVG Export Plug-In . SVG Version: 6.00 Build 0)  -->
<svg version="1.1" id="Layer_1" xmlns="http://www.w3.org/2000/svg" xmlns:xlink="http://www.w3.org/1999/xlink" x="0px" y="0px"
	 width="64px" height="64px" viewBox="0 0 64 64" style="enable-background:new 0 0 64 64;" xml:space="preserve">
<style type="text/css">
	.st0{fill:#E3E3E3;}
	.st1{fill:url(#SVGID_1_);}
</style>
<g>
	<path class="st0" d="M7.8,28.6H25c3.1,0,5.7-2.6,5.7-5.7V5.7C30.7,2.6,28.1,0,25,0H7.8C4.6,0,2.1,2.6,2.1,5.7v17.2
		C2.1,26.1,4.6,28.6,7.8,28.6z"/>
	<path class="st0" d="M56.2,0H39c-3.1,0-5.7,2.6-5.7,5.7v17.2c0,3.1,2.6,5.7,5.7,5.7h17.2c3.1,0,5.7-2.6,5.7-5.7V5.7
		C61.9,2.6,59.4,0,56.2,0z"/>
	<path class="st0" d="M21,52.5h-4.3c-2.2,0-4.1-1.3-4.9-3.3c-0.8-2-0.4-4.3,1.2-5.8l12.8-12.8c-0.2,0-0.5-0.1-0.8-0.1H7.8
		c-3.1,0-5.7,2.6-5.7,5.7v17.2c0,3.1,2.6,5.7,5.7,5.7H21v-3.1V52.5z"/>
	<path class="st0" d="M56.2,30.5H39c-0.3,0-0.5,0-0.8,0.1l3.3,3.3l2.8,2.8l6.8,6.8c1.5,1.5,2,3.8,1.2,5.8c-0.8,2-2.8,3.3-4.9,3.3H43
		v6.6h13.2c3.1,0,5.7-2.6,5.7-5.7V36.2C61.9,33,59.4,30.5,56.2,30.5z"/>
	<linearGradient id="SVGID_1_" gradientUnits="userSpaceOnUse" x1="32" y1="87.7672" x2="32" y2="19.0301">
		<stop  offset="0" style="stop-color:#FFF33B"/>
		<stop  offset="5.948725e-02" style="stop-color:#FFE029"/>
		<stop  offset="0.1303" style="stop-color:#FFD218"/>
		<stop  offset="0.2032" style="stop-color:#FEC90F"/>
		<stop  offset="0.2809" style="stop-color:#FDC70C"/>
		<stop  offset="0.6685" style="stop-color:#F3903F"/>
		<stop  offset="0.8876" style="stop-color:#ED683C"/>
		<stop  offset="1" style="stop-color:#E93E3A"/>
	</linearGradient>
	<path class="st1" d="M48.3,46.2l-6.8-6.8l-2.8-2.8l-4-4l-0.1-0.1L33,30.9c-0.3-0.3-0.6-0.4-1-0.4c-0.3,0-0.7,0.1-1,0.4l-1.7,1.7
		l-0.1,0.1L15.7,46.2c-0.9,0.9-0.2,2.3,1,2.3h7c0.7,0,1.4,0.6,1.4,1.4v0.5v5.6v3.1v0.1v3.4c0,0.7,0.6,1.4,1.4,1.4h11.3
		c0.7,0,1.4-0.6,1.4-1.4v-3.4v-0.1v-9.2c0-0.7,0.6-1.4,1.4-1.4h7C48.5,48.5,49.1,47,48.3,46.2z"/>
</g>
</svg>
