<?xml version="1.0" encoding="utf-8"?>
<!-- Generator: Adobe Illustrator 19.0.1, SVG Export Plug-In . SVG Version: 6.00 Build 0)  -->
<!DOCTYPE svg PUBLIC "-//W3C//DTD SVG 1.1//EN" "http://www.w3.org/Graphics/SVG/1.1/DTD/svg11.dtd">
<svg version="1.1" id="Layer_1" xmlns="http://www.w3.org/2000/svg" xmlns:xlink="http://www.w3.org/1999/xlink" x="0px" y="0px"
	 width="64px" height="64px" viewBox="-479 353 64 64" style="enable-background:new -479 353 64 64;" xml:space="preserve">
<style type="text/css">
	.st0{fill:#E2E2E2;}
</style>
<path class="st0" d="M-415.1,384c-0.4-0.7-9.5-16.6-31.6-16.6c0,0-0.1,0-0.1,0c0,0,0,0,0,0c0,0-0.1,0-0.1,0
	c-22,0.1-31.3,15.9-31.6,16.6c-0.3,0.6-0.3,1.3,0,1.9c0.4,0.7,9.6,16.5,31.6,16.6c0,0,0.1,0,0.1,0c0,0,0,0,0,0c0,0,0.1,0,0.1,0
	c22.2,0,31.2-16,31.6-16.6C-414.8,385.3-414.8,384.6-415.1,384z M-446.9,399.3c-7.9,0-14.3-6.4-14.3-14.3c0-7.9,6.4-14.3,14.3-14.3
	c7.9,0,14.3,6.4,14.3,14.3C-432.6,392.9-439,399.3-446.9,399.3z"/>
<g>
	<path class="st0" d="M-446.9,378.3c-0.9,0-1.8,0.2-2.6,0.5c1.2,0.4,2,1.5,2,2.9c0,1.7-1.4,3-3,3c-1.2,0-2.2-0.7-2.7-1.7
		c-0.2,0.6-0.3,1.3-0.3,2c0,3.7,3,6.7,6.7,6.7c3.7,0,6.7-3,6.7-6.7S-443.2,378.3-446.9,378.3z"/>
</g>
</svg>
