<?xml version="1.0" encoding="utf-8"?>
<!-- Generator: Adobe Illustrator 20.1.0, SVG Export Plug-In . SVG Version: 6.00 Build 0)  -->
<svg version="1.1" id="Layer_1" xmlns="http://www.w3.org/2000/svg" xmlns:xlink="http://www.w3.org/1999/xlink" x="0px" y="0px"
	 width="64px" height="64px" viewBox="0 0 64 64" style="enable-background:new 0 0 64 64;" xml:space="preserve">
<style type="text/css">
	.st0{fill:#E3E2E2;}
	.st1{fill:url(#SVGID_1_);}
</style>
<g>
	<path class="st0" d="M22.9,0.6H5.7C2.6,0.6,0,3.2,0,6.4v17.2c0,3.2,2.6,5.7,5.7,5.7h17.2c3.2,0,5.7-2.6,5.7-5.7V6.4
		C28.7,3.2,26.1,0.6,22.9,0.6z"/>
	<path class="st0" d="M37,29.3h17.2c3.2,0,5.7-2.6,5.7-5.7V6.4c0-3.2-2.6-5.7-5.7-5.7H37c-3.2,0-5.7,2.6-5.7,5.7v17.2
		C31.3,26.7,33.8,29.3,37,29.3z"/>
	<path class="st0" d="M22.9,31.2H5.7c-3.2,0-5.7,2.6-5.7,5.7v17.2c0,3.2,2.6,5.7,5.7,5.7h17.2c3.2,0,5.7-2.6,5.7-5.7V36.9
		C28.7,33.7,26.1,31.2,22.9,31.2z"/>
	<path class="st0" d="M43.1,58.8h-4.5c-2.3,0-4.2-1.9-4.2-4.2v-7.3c0-2.3,1.9-4.2,4.2-4.2h4.5v-4.5c0-2.3,1.9-4.2,4.2-4.2h7.3
		c2.3,0,4.2,1.9,4.2,4.2v4.5h0.1h1v-6.2c0-3.2-2.6-5.7-5.7-5.7H37c-3.2,0-5.7,2.6-5.7,5.7v17.2c0,3.2,2.6,5.7,5.7,5.7h6.1v-0.6V58.8
		z"/>
	<linearGradient id="SVGID_1_" gradientUnits="userSpaceOnUse" x1="50.9085" y1="76.5403" x2="50.9085" y2="16.4935">
		<stop  offset="0" style="stop-color:#FBEE41"/>
		<stop  offset="4.010540e-02" style="stop-color:#FBE334"/>
		<stop  offset="0.1171" style="stop-color:#FCD321"/>
		<stop  offset="0.1964" style="stop-color:#FCC916"/>
		<stop  offset="0.2809" style="stop-color:#FCC612"/>
		<stop  offset="0.6685" style="stop-color:#F18F40"/>
		<stop  offset="0.8876" style="stop-color:#EC683B"/>
		<stop  offset="1" style="stop-color:#E63F39"/>
	</linearGradient>
	<path class="st1" d="M63.3,46.6h-2.8h-0.6h-1h-0.3h-3.3v-8c0-0.4-0.3-0.7-0.7-0.7h-7.3c-0.4,0-0.7,0.3-0.7,0.7v8h-8
		c-0.4,0-0.7,0.3-0.7,0.7v7.3c0,0.4,0.3,0.7,0.7,0.7h8v2.8v1.1v0.6v0.7v2.8c0,0.4,0.3,0.7,0.7,0.7h7.3c0.4,0,0.7-0.3,0.7-0.7v-2.9
		v-0.7v-4.5h4.5h0.7h2.8c0.4,0,0.7-0.3,0.7-0.7v-7.3C64,46.9,63.7,46.6,63.3,46.6z"/>
</g>
</svg>
