<?xml version="1.0" encoding="utf-8"?>
<!-- Generator: Adobe Illustrator 20.1.0, SVG Export Plug-In . SVG Version: 6.00 Build 0)  -->
<svg version="1.1" id="Layer_1" xmlns="http://www.w3.org/2000/svg" xmlns:xlink="http://www.w3.org/1999/xlink" x="0px" y="0px"
	 width="64px" height="64px" viewBox="0 0 64 64" style="enable-background:new 0 0 64 64;" xml:space="preserve">
<style type="text/css">
	.st0{fill:#E3E3E3;}
</style>
<g>
	<path class="st0" d="M42.8,36c-0.1-0.1-0.2-0.1-0.4-0.2c-1.4-0.8-1.1-3-0.8-4.3c1-1.1,2.1-2.9,2.5-5.9c0.1-0.8,0.4-1.5,0.9-2.2
		c0.9-1.2,1.4-2.9,1.4-4.6c0-1.3-0.3-2.4-0.9-3.3c-0.1-0.2-0.3-0.4-0.4-0.6c0.7-1.8,1.5-4.6,0.8-7.5C44.6,2.3,37.8,0,32,0
		c-5.3,0-9.2,1.8-10.8,4.9c-1.4,0.7-2.2,1.7-2.6,2.5c-1.3,2.5-0.4,5.5,0.4,7.6c-0.2,0.2-0.4,0.4-0.5,0.7c-0.6,0.9-0.9,2.1-0.9,3.4
		c0,1.6,0.5,3.3,1.4,4.5c0.5,0.6,0.8,1.4,0.9,2.2c0.4,3,1.5,4.8,2.6,5.9c0.3,1.3,0.6,3.4-0.8,4.2c-0.1,0.1-0.2,0.1-0.3,0.2
		C5.2,42.8,5.1,45.7,5.1,46.8v8.7c0,4.7,3.8,8.5,8.5,8.5h18.1h13h5.6c4.7,0,8.5-3.8,8.5-8.5v-8.7C58.9,45.7,58.8,42.8,42.8,36z"/>
</g>
</svg>
