<?xml version="1.0" encoding="utf-8"?>
<!-- Generator: Adobe Illustrator 19.0.1, SVG Export Plug-In . SVG Version: 6.00 Build 0)  -->
<!DOCTYPE svg PUBLIC "-//W3C//DTD SVG 1.1//EN" "http://www.w3.org/Graphics/SVG/1.1/DTD/svg11.dtd">
<svg version="1.1" id="Layer_1" xmlns="http://www.w3.org/2000/svg" xmlns:xlink="http://www.w3.org/1999/xlink" x="0px" y="0px"
	 width="121px" height="100px" viewBox="0 0 121 100" style="enable-background:new 0 0 100 100;" xml:space="preserve">
<style type="text/css">
	.st0{fill:#161719;}
	.st1{fill:#E3E2E2;}
</style>
<path class="st0" d="M94.3,50C94.3,25.6,74.4,5.7,50,5.7S5.7,25.6,5.7,50S25.6,94.3,50,94.3S94.3,74.4,94.3,50z"/>
<path class="st1" d="M50,0C22.4,0,0,22.4,0,50s22.4,50,50,50c27.6,0,50-22.4,50-50S77.6,0,50,0z M5.7,50C5.7,25.6,25.6,5.7,50,5.7
	S94.3,25.6,94.3,50S74.4,94.3,50,94.3S5.7,74.4,5.7,50z"/>
<g>
	<path class="st1" d="M77.6,66.3H25.2V30.9c0-1.5-1.2-2.8-2.8-2.8s-2.8,1.2-2.8,2.8v38.1c0,1.5,1.2,2.8,2.8,2.8h55.2
		c1.5,0,2.8-1.2,2.8-2.8S79.1,66.3,77.6,66.3z"/>
	<g>
		<polygon class="st1" points="77.5,63.6 77.8,49.5 62.7,28.8 46.8,50 35.6,39.2 27.9,43.6 27.9,63.6 		"/>
	</g>
</g>
</svg>
