<svg xmlns="http://www.w3.org/2000/svg" xmlns:xlink="http://www.w3.org/1999/xlink" id="Layer_1" width="100" height="100" x="0" style="enable-background:new 0 0 100 100" y="0" version="1.1" viewBox="0 0 100 100" xml:space="preserve"><style type="text/css">.st0{fill:#e2e2e2}</style><g><path d="M50,84.1c-22.1,0-40.7-6.5-49.3-16.2C0.2,69.1,0,70.4,0,71.7c0,13,22.9,23.9,50,23.9s50-11,50-23.9 c0-1.3-0.2-2.6-0.7-3.9C90.7,77.5,72.1,84.1,50,84.1z" class="st0"/><path d="M50,62.3c-22.1,0-40.7-6.5-49.3-16.2C0.2,47.4,0,48.7,0,50c0,13,22.9,23.9,50,23.9s50-11,50-23.9 c0-1.3-0.2-2.6-0.7-3.9C90.7,55.8,72.1,62.3,50,62.3z" class="st0"/><path d="M0,28.3c0,13,22.9,23.9,50,23.9s50-11,50-23.9S77.1,4.3,50,4.3S0,15.3,0,28.3z" class="st0"/></g></svg>