<?xml version="1.0" encoding="utf-8"?>
<!-- Generator: Adobe Illustrator 20.1.0, SVG Export Plug-In . SVG Version: 6.00 Build 0)  -->
<svg version="1.1" id="Layer_1" xmlns="http://www.w3.org/2000/svg" xmlns:xlink="http://www.w3.org/1999/xlink" x="0px" y="0px"
	 width="64px" height="64px" viewBox="0 0 64 64" style="enable-background:new 0 0 64 64;" xml:space="preserve">
<style type="text/css">
	.st0{fill:#E3E3E3;}
</style>
<g>
	<path class="st0" d="M24.5,31H6.1C2.7,31,0,28.3,0,24.9V6.5c0-3.4,2.7-6.1,6.1-6.1h18.4c3.4,0,6.1,2.7,6.1,6.1v18.4
		C30.6,28.3,27.9,31,24.5,31z"/>
	<path class="st0" d="M57.9,31H39.5c-3.4,0-6.1-2.7-6.1-6.1V6.5c0-3.4,2.7-6.1,6.1-6.1h18.4c3.4,0,6.1,2.7,6.1,6.1v18.4
		C64,28.3,61.3,31,57.9,31z"/>
	<path class="st0" d="M24.5,63.6H6.1c-3.4,0-6.1-2.7-6.1-6.1V39.1C0,35.7,2.7,33,6.1,33h18.4c3.4,0,6.1,2.7,6.1,6.1v18.4
		C30.6,60.9,27.9,63.6,24.5,63.6z"/>
	<path class="st0" d="M57.9,63.6H39.5c-3.4,0-6.1-2.7-6.1-6.1V39.1c0-3.4,2.7-6.1,6.1-6.1h18.4c3.4,0,6.1,2.7,6.1,6.1v18.4
		C64,60.9,61.3,63.6,57.9,63.6z"/>
</g>
</svg>
