<?xml version="1.0" encoding="utf-8"?>
<!-- Generator: Adobe Illustrator 20.1.0, SVG Export Plug-In . SVG Version: 6.00 Build 0)  -->
<svg version="1.1" id="Layer_1" xmlns="http://www.w3.org/2000/svg" xmlns:xlink="http://www.w3.org/1999/xlink" x="0px" y="0px"
	 width="18px" height="18px" viewBox="0 0 18 18" style="enable-background:new 0 0 18 18;" xml:space="preserve">
<style type="text/css">
	.st0{fill:#D8D9DA;}
</style>
<g>
	<g>
		<path class="st0" d="M6.9,8.7H1.7C0.8,8.7,0,7.9,0,7V1.8c0-0.9,0.8-1.7,1.7-1.7h5.2c0.9,0,1.7,0.8,1.7,1.7V7
			C8.6,7.9,7.8,8.7,6.9,8.7z"/>
	</g>
	<g>
		<path class="st0" d="M16.3,8.7h-5.2c-0.9,0-1.7-0.8-1.7-1.7V1.8c0-0.9,0.8-1.7,1.7-1.7h5.2c0.9,0,1.7,0.8,1.7,1.7V7
			C18,7.9,17.2,8.7,16.3,8.7z"/>
	</g>
	<g>
		<path class="st0" d="M6.9,17.9H1.7c-0.9,0-1.7-0.8-1.7-1.7V11c0-0.9,0.8-1.7,1.7-1.7h5.2c0.9,0,1.7,0.8,1.7,1.7v5.2
			C8.6,17.1,7.8,17.9,6.9,17.9z"/>
	</g>
	<g>
		<path class="st0" d="M16.3,17.9h-5.2c-0.9,0-1.7-0.8-1.7-1.7V11c0-0.9,0.8-1.7,1.7-1.7h5.2c0.9,0,1.7,0.8,1.7,1.7v5.2
			C18,17.1,17.2,17.9,16.3,17.9z"/>
	</g>
</g>
</svg>
