<svg xmlns="http://www.w3.org/2000/svg" xmlns:xlink="http://www.w3.org/1999/xlink" id="Layer_1" width="64" height="64" x="0" style="enable-background:new 0 0 64 64" y="0" version="1.1" viewBox="0 0 64 64" xml:space="preserve"><style type="text/css">.st0{fill:#e3e3e3}.st1{fill:url(#SVGID_1_)}</style><g><path d="M23.5,22.7l7-17.3c-0.5-2.8-3-5-6-5H6.1C2.7,0.4,0,3.1,0,6.5v18.4C0,28.3,2.7,31,6.1,31H9l-7.4-6.5L23.5,22.7z" class="st0"/><path d="M62.5,24.5L55,31h2.9c3.4,0,6.1-2.7,6.1-6.1V6.5c0-3.4-2.7-6.1-6.1-6.1H39.5c-3,0-5.5,2.2-6,5l7,17.3 L62.5,24.5z" class="st0"/><path d="M18.3,39.1l-7-6.1H6.1C2.7,33,0,35.7,0,39.1v18.4c0,3.4,2.7,6.1,6.1,6.1h18.4c3.4,0,6.1-2.7,6.1-6.1v-7.3 L13.1,61.2L18.3,39.1z" class="st0"/><path d="M50.9,61.2L33.4,50.2v7.3c0,3.4,2.7,6.1,6.1,6.1h18.4c3.4,0,6.1-2.7,6.1-6.1V39.1c0-3.4-2.7-6.1-6.1-6.1h-5.1 l-7,6.1L50.9,61.2z" class="st0"/><linearGradient id="SVGID_1_" x1="32" x2="32" y1="63.389" y2="7.057" gradientUnits="userSpaceOnUse"><stop offset="0" style="stop-color:#fff33b"/><stop offset=".059" style="stop-color:#ffe029"/><stop offset=".13" style="stop-color:#ffd218"/><stop offset=".203" style="stop-color:#fec90f"/><stop offset=".281" style="stop-color:#fdc70c"/><stop offset=".668" style="stop-color:#f3903f"/><stop offset=".888" style="stop-color:#ed683c"/><stop offset="1" style="stop-color:#e93e3a"/></linearGradient><polygon points="52.1 27.9 37.6 26.7 32 13 26.4 26.7 11.9 27.9 23 37.6 19.6 52.1 32 44.3 44.4 52.1 41 37.6" class="st1"/></g></svg>