<?xml version="1.0" encoding="utf-8"?>
<!-- Generator: Adobe Illustrator 20.1.0, SVG Export Plug-In . SVG Version: 6.00 Build 0)  -->
<svg version="1.1" id="Layer_1" xmlns="http://www.w3.org/2000/svg" xmlns:xlink="http://www.w3.org/1999/xlink" x="0px" y="0px"
	 width="64px" height="64px" viewBox="0 0 64 64" style="enable-background:new 0 0 64 64;" xml:space="preserve">
<style type="text/css">
	.st0{fill:#E3E3E3;}
</style>
<g>
	<path class="st0" d="M34.5,64c4.5,0,8.1-3.6,8.1-8.1H26.4C26.4,60.4,30,64,34.5,64z"/>
	<path class="st0" d="M40,6.6c0-3-2.5-5.5-5.5-5.5c-3,0-5.5,2.5-5.5,5.5c-9,3.1-15.6,13.7-15.6,26.2v5L43.2,8.1
		C42.1,7.5,41.1,7,40,6.6z"/>
	<path class="st0" d="M55.5,52.1L55.5,52.1L55.5,52.1c2.5,0,4.5-2,4.5-4.5s-2-4.5-4.4-4.5V32.8c0-4.5-0.9-8.8-2.4-12.5L21.4,52.1
		H55.5z"/>
	<path class="st0" d="M59,0c-0.9,0-1.7,0.3-2.4,1l-54,54c-1.3,1.3-1.3,3.4,0,4.8c0.7,0.7,1.5,1,2.4,1s1.7-0.3,2.4-1l54-54
		c1.3-1.3,1.3-3.4,0-4.8C60.7,0.3,59.9,0,59,0z"/>
</g>
</svg>
