<?xml version="1.0" encoding="utf-8"?>
<!-- Generator: Adobe Illustrator 20.1.0, SVG Export Plug-In . SVG Version: 6.00 Build 0)  -->
<svg version="1.1" id="Layer_1" xmlns="http://www.w3.org/2000/svg" xmlns:xlink="http://www.w3.org/1999/xlink" x="0px" y="0px"
	 width="64px" height="64px" viewBox="0 0 64 64" style="enable-background:new 0 0 64 64;" xml:space="preserve">
<style type="text/css">
	.st0{fill:#E3E2E2;}
	.st1{fill:url(#SVGID_1_);}
</style>
<g>
	<path class="st0" d="M20.7,0.6H5.2C2.3,0.6,0,2.9,0,5.8v15.6c0,2.8,2.3,5.2,5.2,5.2h15.6c2.8,0,5.2-2.3,5.2-5.2V5.8
		C25.9,2.9,23.6,0.6,20.7,0.6z"/>
	<path class="st0" d="M33.4,26.5H49c2.8,0,5.2-2.3,5.2-5.2V5.8c0-2.8-2.3-5.2-5.2-5.2H33.4c-2.8,0-5.2,2.3-5.2,5.2v15.6
		C28.2,24.2,30.6,26.5,33.4,26.5z"/>
	<path class="st0" d="M20.7,28.2H5.2c-2.8,0-5.2,2.3-5.2,5.2v15.6c0,2.8,2.3,5.2,5.2,5.2h15.6c2.8,0,5.2-2.3,5.2-5.2V33.3
		C25.9,30.5,23.6,28.2,20.7,28.2z"/>
	<path class="st0" d="M35.1,39.2h4.1v-4.1c0-3.2,2.6-5.8,5.8-5.8h7.1c-0.9-0.7-2-1.1-3.2-1.1H33.4c-2.8,0-5.2,2.3-5.2,5.2v15.6
		c0,1.2,0.4,2.3,1.1,3.1v-7C29.3,41.8,31.9,39.2,35.1,39.2z"/>
	<linearGradient id="SVGID_1_" gradientUnits="userSpaceOnUse" x1="49.157" y1="90.4824" x2="49.157" y2="15.655">
		<stop  offset="0" style="stop-color:#FFF23A"/>
		<stop  offset="4.010540e-02" style="stop-color:#FEE62D"/>
		<stop  offset="0.1171" style="stop-color:#FED41A"/>
		<stop  offset="0.1964" style="stop-color:#FDC90F"/>
		<stop  offset="0.2809" style="stop-color:#FDC60B"/>
		<stop  offset="0.6685" style="stop-color:#F28F3F"/>
		<stop  offset="0.8876" style="stop-color:#ED693C"/>
		<stop  offset="1" style="stop-color:#E83E39"/>
	</linearGradient>
	<path class="st1" d="M63.2,44.2h-5h-0.4h-3.7h0v-0.7v-8.4c0-0.4-0.4-0.8-0.8-0.8H45c-0.4,0-0.8,0.4-0.8,0.8v9.1h-9.1
		c-0.4,0-0.8,0.4-0.8,0.8v8.3c0,0.2,0.1,0.4,0.3,0.6c0.1,0.1,0.3,0.2,0.5,0.2c0,0,0,0,0.1,0h9.1v3.2v1.3v4.6c0,0.4,0.4,0.8,0.8,0.8
		h8.3c0.4,0,0.8-0.4,0.8-0.8v-9.1h9.1c0.4,0,0.8-0.4,0.8-0.8V45C64,44.6,63.6,44.2,63.2,44.2z"/>
</g>
</svg>
