<svg xmlns="http://www.w3.org/2000/svg" xmlns:xlink="http://www.w3.org/1999/xlink" id="Layer_1" width="64" height="64" x="0" style="enable-background:new 0 0 64 64" y="0" version="1.1" viewBox="0 0 64 64" xml:space="preserve"><style type="text/css">.st0{fill:#e2e1e1}.st1{fill:url(#SVGID_1_)}.st2{fill:url(#SVGID_2_)}</style><g><path d="M35.4,30.2c-1.5,2.6-2.7,3.9-3.8,3.9c-0.3,0-0.6-0.2-0.9-0.5c-0.3-0.3-0.5-0.8-0.7-1.5L27.6,25 c2.1-3.2,3.2-4.9,3.5-5.2c0.3-0.3,0.5-0.4,0.8-0.4c0.2,0,0.4,0.2,0.6,0.7c0.5,1.2,1.3,1.8,2.4,1.8c0.8,0,1.5-0.3,2-0.8 c0.5-0.5,0.8-1.3,0.8-2.1c0-0.9-0.3-1.6-0.9-2.2c-0.6-0.6-1.4-0.8-2.3-0.8c-1.1,0-2.2,0.4-3.3,1.3c-1.1,0.9-2.5,2.8-4.3,5.7 c-0.8-2.5-1.3-3.9-1.5-4.3c-0.4-1-1-1.7-1.5-2.1c-0.6-0.4-1.3-0.6-2.2-0.6c-1.2,0-2.4,0.5-3.5,1.5c-1.1,1-2.1,2.6-2.9,4.8l1.4,0.9 c1-2.4,1.9-3.6,2.8-3.6c0.5,0,0.9,0.7,1.4,2l2.5,7.3c-1,1.8-1.9,3.1-2.6,4c-0.7,0.9-1.2,1.4-1.6,1.4c-0.2,0-0.5-0.3-0.7-0.9 c-0.3-0.8-0.6-1.3-1-1.6c-0.4-0.3-0.9-0.4-1.5-0.4c-0.8,0-1.4,0.3-2,0.8c-0.5,0.6-0.8,1.2-0.8,2.1c0,0.9,0.3,1.7,1,2.3 c0.7,0.6,1.6,0.9,2.7,0.9c1.3,0,2.4-0.4,3.4-1.3c1-0.9,2.3-2.6,3.9-5.1c1,2.9,1.7,4.6,2.1,5.1c0.7,0.8,1.7,1.3,2.9,1.3 c1.3,0,2.7-0.5,4-1.6c1.4-1,2.7-2.6,3.9-4.8L35.4,30.2z" class="st0"/><path d="M12.7,42.7C12.6,42.7,12.6,42.7,12.7,42.7c-0.5-0.2-0.9-0.4-1.2-0.7c-0.3-0.3-0.4-0.7-0.4-1.2v-9.4 c0-1.4-0.4-2.5-1.1-3.2c-0.7-0.8-1.9-1.3-3.6-1.5v-0.2c1.6-0.2,2.8-0.7,3.6-1.5c0.7-0.8,1.1-1.9,1.1-3.4v-9.3 c0-0.5,0.1-0.9,0.4-1.2c0.2-0.3,0.6-0.5,1-0.6c0.1,0,0.1,0,0.2,0c1.3-0.3,2.2-1.4,2.2-2.7V7.7c0-1.6-1.4-2.9-3-2.7 c-1.2,0.1-2.1,0.3-2.9,0.5c-1.4,0.4-2.5,1.1-3.1,2c-0.6,0.9-1,2.2-1,4v8.9c0,1-0.4,1.9-1.3,2.4c-0.4,0.2-0.8,0.4-1.2,0.6 C0.9,23.8,0,25,0,26.4v0.4c0,1.4,0.9,2.6,2.3,3c0.4,0.1,0.8,0.3,1.2,0.6c0.9,0.6,1.3,1.4,1.3,2.4v8.8c0,1.8,0.3,3.2,0.9,4.1 c0.6,0.9,1.7,1.6,3.1,2c0.8,0.2,1.8,0.4,2.9,0.5c1.6,0.1,3.1-1.1,3.1-2.8C14.8,44.2,13.9,43.1,12.7,42.7z" class="st0"/><path d="M43.2,34.6c0-2.6,2.1-4.7,4.7-4.7H49c1.3-0.5,2.2-1.6,2.2-3v-0.4c0-1.4-1-2.6-2.3-3.1 c-0.5-0.1-0.8-0.3-1.2-0.6c-0.8-0.6-1.3-1.4-1.3-2.4v-8.9c0-1.8-0.3-3.1-1-4c-0.6-0.9-1.7-1.5-3.1-2c-0.8-0.2-1.8-0.4-2.9-0.5 c-1.6-0.1-3,1.1-3,2.8v0.1c0,1.3,0.9,2.4,2.2,2.7c0.1,0,0.1,0,0.2,0c0.4,0.1,0.7,0.3,1,0.6c0.3,0.3,0.4,0.7,0.4,1.2v9.3 c0,1.5,0.4,2.6,1.1,3.4c0.7,0.8,1.9,1.3,3.6,1.5v0.2c-1.7,0.3-2.8,0.8-3.6,1.5c-0.7,0.8-1.1,1.8-1.1,3.2v6.7h3V34.6z" class="st0"/><linearGradient id="SVGID_1_" x1="39.248" x2="39.248" y1="75.026" y2="17.393" gradientUnits="userSpaceOnUse"><stop offset="0" style="stop-color:#fff23a"/><stop offset=".04" style="stop-color:#fee62d"/><stop offset=".117" style="stop-color:#fed41a"/><stop offset=".196" style="stop-color:#fdc90f"/><stop offset=".281" style="stop-color:#fdc60b"/><stop offset=".668" style="stop-color:#f28f3f"/><stop offset=".888" style="stop-color:#ed693c"/><stop offset="1" style="stop-color:#e83e39"/></linearGradient><path d="M39.5,42.3c-0.2,0-0.4,0.1-0.5,0.3c0.1-0.1,0.3-0.1,0.4-0.2C39.4,42.4,39.4,42.3,39.5,42.3z" class="st1"/><linearGradient id="SVGID_2_" x1="51.433" x2="51.433" y1="76.208" y2="22.627" gradientUnits="userSpaceOnUse"><stop offset="0" style="stop-color:#fff23a"/><stop offset=".04" style="stop-color:#fee62d"/><stop offset=".117" style="stop-color:#fed41a"/><stop offset=".196" style="stop-color:#fdc90f"/><stop offset=".281" style="stop-color:#fdc60b"/><stop offset=".668" style="stop-color:#f28f3f"/><stop offset=".888" style="stop-color:#ed693c"/><stop offset="1" style="stop-color:#e83e39"/></linearGradient><path d="M63.3,42.3h-4.2h-0.3h-3.2v-7.7c0-0.4-0.3-0.7-0.7-0.7h-7c-0.4,0-0.7,0.3-0.7,0.7v7.7h-0.8h-6.9c0,0,0,0-0.1,0 c0,0-0.1,0.1-0.1,0.1c-0.1,0.1-0.2,0.1-0.4,0.2c-0.1,0.1-0.1,0.2-0.1,0.4v5.2V50c0,0.4,0.3,0.7,0.7,0.7h7.7v2.7v1.1v3.9 c0,0.4,0.3,0.7,0.7,0.7h7c0.4,0,0.7-0.3,0.7-0.7v-7.7h7.7c0.4,0,0.7-0.3,0.7-0.7v-7C64,42.6,63.7,42.3,63.3,42.3z" class="st2"/></g></svg>