<svg clip-rule="evenodd" fill-rule="evenodd" height="11in" image-rendering="optimizeQuality" shape-rendering="geometricPrecision" text-rendering="geometricPrecision" viewBox="-32.346 -3.059 12.599 15.73667352" width="816" xmlns="http://www.w3.org/2000/svg"><path d="m-28.05-1.665h4.065c-.14.121-2.041 1.451-2.061 1.451-.005 0-1.955-1.377-2.005-1.45zm-1.871-.592c.054.232.123.492.194.722.126.408.053.304.39.527.372.246.72.493 1.092.74.218.146 2.153 1.486 2.199 1.486.041 0 3.258-2.184 3.588-2.406 0-.27.191-.751.191-1.05 0-.13-1.293-.507-1.512-.55-.305-.058-.552-.11-.866-.164-.154-.026-.31-.043-.451-.064-.043-.007-.49-.043-.492-.043h-.478c-.708 0-1.466.143-2.062.267-.492.102-1.42.338-1.793.535zm8.666 2.56v.304l-2.86 1.876-.003-.291 2.863-1.89zm.334-1.39.01.3-2.862 1.874-.003-.29zm-1.079-1.19-.208 1.244-2.347 1.507-.421 2.794 2.703-.569 1.748-1.35.778-3.816-.077-.006zm-8.838 2.617 2.861 1.874.026.168-.004.134c-.076-.02-1.283-.842-1.45-.955-.157-.104-1.433-.891-1.433-.973zm-.324-1.394 2.856 1.882.007.294-2.863-1.89zm4.066 4.353-.42-2.788c-.244-.128-.57-.361-.813-.523-.259-.172-.55-.368-.816-.52-.134-.077-.275-.175-.406-.262-.136-.091-.305-.135-.34-.328-.038-.204-.06-.361-.092-.577-.026-.17-.096-.387-.11-.556l-2.253-.193c.025.3.19.816.244 1.131.057.34.135.83.226 1.149.088.305.187.822.237 1.138.037.239.03.37.194.493.135.1.253.194.39.297.262.198.518.396.774.6.387.307.339.345.915.46.376.075.748.164 1.132.242.33.067.837.212 1.138.237zm-1.545.861-.006 1.105.028 3.221.855.712c.065-.279.649-1.559.649-1.66v-.096h2.137c0 .13.565 1.56.65 1.737l.012.015.842-.722.024-3.818v-.494l-1.528-.65v2.959h-2.137l-.004-2.969-1.522.661zm1.787-.94-.013 2.962h1.66l-.005-3.094.33-2.347c-.156.036-1.126.744-1.164.744-.146 0-.938-.694-1.136-.743l.328 2.479zm6.028-1.276-.017-.012-1.452 1.03.009.49-.913.596-.027 4.253.005.057 2.04-1.68zm-9.243 5.397c.194.176.415.33.601.506.141.133.442.389.597.492l-.024-3.074.004-1.26-.908-.584-.008-.466c0-.068-1.3-.97-1.45-1.05 0 .211.017.341.036.517.017.15.003.388.028.526.056.306.033.713.07 1.037.037.312.03.716.08 1.028.035.226.089.762.092.996.001.125.004.412.021.532.023.152.152.204.26.295.196.166.414.335.6.505zm2.508 1.892 3.06.003a6.481 6.481 0 0 0 -.28-.79c-.05-.105-.235-.756-.311-.756l-1.847.002z" fill="#010101"/></svg>