<?xml version="1.0" encoding="utf-8"?>
<!-- Generator: Adobe Illustrator 20.1.0, SVG Export Plug-In . SVG Version: 6.00 Build 0)  -->
<svg version="1.1" id="Layer_1" xmlns="http://www.w3.org/2000/svg" xmlns:xlink="http://www.w3.org/1999/xlink" x="0px" y="0px"
	 width="64px" height="64px" viewBox="0 0 64 64" style="enable-background:new 0 0 64 64;" xml:space="preserve">
<style type="text/css">
	.st0{fill:#66C9DC;}
	.st1{fill:#E3E2E2;}
	.st2{fill:#5CB947;}
	.st3{fill:url(#SVGID_1_);}
</style>
<g>
	<ellipse transform="matrix(0.7071 -0.7071 0.7071 0.7071 -11.1241 28.2303)" class="st0" cx="28.5" cy="27.5" rx="0" ry="0"/>
	<path class="st1" d="M41.4,29.9h2.1l0.3-0.3l8.7-8.7c4.8-4.8,4.8-12.5,0-17.3s-12.5-4.8-17.3,0l-8.7,8.7c2.7-0.2,5.5,0.3,8,1.5
		l5.4-5.4c2.1-2.1,5.6-2.1,7.7,0c2.1,2.1,2.1,5.6,0,7.7l-5.4,5.4l-3.1,3.1l-2.9,2.9c-0.9,0.9-2.1,1.4-3.3,1.6
		c-1.6,0.2-3.2-0.4-4.4-1.6c0,0,0,0,0,0c0,0,0,0,0,0c-0.5-0.5-1.4-0.5-2,0l-3.7,3.7c0.3,0.4,0.6,0.7,0.9,1.1
		c0.3,0.3,0.7,0.6,1.1,0.9c1.1,0.9,2.4,1.6,3.7,2c2.4,0.8,5,0.8,7.3,0.1C35.9,32.4,38.4,29.9,41.4,29.9z"/>
	<ellipse transform="matrix(0.7071 -0.7071 0.7071 0.7071 -8.2494 29.4211)" class="st2" cx="31.4" cy="24.7" rx="0" ry="0"/>
	<path class="st1" d="M30.4,39.9c-1.7-0.2-3.4-0.7-5-1.4L20,43.8c-2.1,2.1-5.6,2.1-7.7,0c-2.1-2.1-2.1-5.6,0-7.7l5.4-5.4l3.1-3.1
		l2.9-2.9c0.9-0.9,2.1-1.4,3.3-1.6c1.6-0.2,3.2,0.4,4.4,1.6c0,0,0,0,0,0c0,0,0,0,0,0c0.5,0.5,1.4,0.5,2,0l3.7-3.7
		c-0.3-0.4-0.6-0.7-0.9-1.1c-0.3-0.3-0.7-0.6-1.1-0.9c-1.1-0.9-2.4-1.6-3.7-2c-3.2-1.1-6.7-0.8-9.7,0.9c-1,0.5-1.9,1.2-2.8,2.1
		l-2.7,2.7l-8.7,8.7c-4.8,4.8-4.8,12.5,0,17.3s12.5,4.8,17.3,0l1.3-1.3v-2.1C26.1,42.6,27.9,40.4,30.4,39.9z"/>
	<linearGradient id="SVGID_1_" gradientUnits="userSpaceOnUse" x1="45.4774" y1="83.5867" x2="45.4774" y2="21.015">
		<stop  offset="0" style="stop-color:#FFF23A"/>
		<stop  offset="4.010540e-02" style="stop-color:#FEE62D"/>
		<stop  offset="0.1171" style="stop-color:#FED41A"/>
		<stop  offset="0.1964" style="stop-color:#FDC90F"/>
		<stop  offset="0.2809" style="stop-color:#FDC60B"/>
		<stop  offset="0.6685" style="stop-color:#F28F3F"/>
		<stop  offset="0.8876" style="stop-color:#ED693C"/>
		<stop  offset="1" style="stop-color:#E83E39"/>
	</linearGradient>
	<path class="st3" d="M59.4,44.5h-5H54h-3.7v-9c0-0.4-0.4-0.8-0.8-0.8h-8.2c-0.4,0-0.8,0.4-0.8,0.8v9h-9c-0.4,0-0.8,0.4-0.8,0.8v8.2
		c0,0.4,0.4,0.8,0.8,0.8h9v3.1v1.3v4.6c0,0.4,0.4,0.8,0.8,0.8h8.2c0.4,0,0.8-0.4,0.8-0.8v-9h9c0.4,0,0.8-0.4,0.8-0.8v-8.2
		C60.2,44.8,59.8,44.5,59.4,44.5z"/>
</g>
</svg>
