<?xml version="1.0" encoding="utf-8"?>
<!-- Generator: Adobe Illustrator 20.1.0, SVG Export Plug-In . SVG Version: 6.00 Build 0)  -->
<svg version="1.1" id="Layer_1" xmlns="http://www.w3.org/2000/svg" xmlns:xlink="http://www.w3.org/1999/xlink" x="0px" y="0px"
	 width="64px" height="64px" viewBox="0 0 64 64" style="enable-background:new 0 0 64 64;" xml:space="preserve">
<style type="text/css">
	.st0{fill:#E3E3E3;}
</style>
<path class="st0" d="M63.2,32l-7-7V11.8c0-2.9-2.4-5.3-5.3-5.3h0c-2.9,0-5.3,2.4-5.3,5.3v2.6L34,2.8c-1.1-1.1-2.8-1.1-3.9,0L0.8,32
	c-1.7,1.7-0.5,4.7,2,4.7h5v0v7.6v14.8c0,1.5,1.2,2.8,2.8,2.8h13.2V44.4h16.5V62h13.2c1.5,0,2.8-1.2,2.8-2.8V36.8h0v0h5
	C63.7,36.8,64.9,33.8,63.2,32z"/>
</svg>
