<?xml version="1.0" encoding="utf-8"?>
<!-- Generator: Adobe Illustrator 20.1.0, SVG Export Plug-In . SVG Version: 6.00 Build 0)  -->
<svg version="1.1" id="Layer_1" xmlns="http://www.w3.org/2000/svg" xmlns:xlink="http://www.w3.org/1999/xlink" x="0px" y="0px"
	 width="64px" height="64px" viewBox="0 0 64 64" style="enable-background:new 0 0 64 64;" xml:space="preserve">
<style type="text/css">
	.st0{fill:#E3E2E2;}
</style>
<g>
	<path class="st0" d="M64,36.1v-8.1l-8.7-2.5c-0.5-1.8-1.3-3.6-2.2-5.2l4.4-7.9l-5.7-5.7l-7.9,4.4c-1.6-0.9-3.4-1.7-5.2-2.2L36.1,0
		h-8.1l-2.5,8.7c-1.8,0.5-3.6,1.3-5.2,2.2l-7.9-4.4l-5.7,5.7l4.4,7.9c-0.9,1.6-1.7,3.4-2.2,5.2L0,27.9v8.1l8.7,2.5
		c0.5,1.8,1.3,3.6,2.2,5.2l-4.4,7.9l5.7,5.7l7.9-4.4c1.6,0.9,3.4,1.7,5.2,2.2l2.5,8.7h8.1l2.5-8.7c1.8-0.5,3.6-1.3,5.2-2.2l7.9,4.4
		l5.7-5.7l-4.4-7.9c0.9-1.6,1.7-3.4,2.2-5.2L64,36.1z M32,37.8c-3.2,0-5.8-2.6-5.8-5.8c0-3.2,2.6-5.8,5.8-5.8s5.8,2.6,5.8,5.8
		C37.8,35.2,35.2,37.8,32,37.8z"/>
</g>
</svg>
