<svg width="16" height="16" viewBox="0 0 16 16" fill="none" xmlns="http://www.w3.org/2000/svg">
<path fill-rule="evenodd" clip-rule="evenodd" d="M14.6354 4.57143H10.3333V0.357143C10.4609 0.437501 10.5703 0.517857 10.6615 0.607143L14.3802 4.25C14.4714 4.33929 14.5534 4.44643 14.6354 4.57143ZM9.16667 0V4.85714C9.16667 4.931 9.17621 5.00269 9.19417 5.07107C9.17333 5.06406 9.15228 5.05724 9.13099 5.05066C9.02621 5.01732 8.91844 4.98702 8.80767 4.95975C8.69691 4.93248 8.58614 4.91126 8.47238 4.89308C8.4619 4.89157 8.45217 4.89005 8.44244 4.88854C8.43271 4.88702 8.42298 4.88551 8.4125 4.88399C8.15804 4.05975 7.42758 3.71429 7.42758 3.71429C6.6103 4.23854 6.45762 4.97187 6.45762 4.97187C6.45762 4.97187 6.45463 4.98702 6.44864 5.01429C6.42618 5.02036 6.40373 5.02717 6.38128 5.03399C6.35883 5.04081 6.33637 5.04763 6.31392 5.05369C6.25105 5.07187 6.18819 5.09611 6.12831 5.12036C6.06544 5.1446 6.00557 5.16884 5.9427 5.19611C5.81996 5.25066 5.69722 5.31126 5.57747 5.37793C5.46072 5.4446 5.34696 5.51732 5.23619 5.59308L5.20625 5.58096C4.07463 5.1446 3.07174 5.66884 3.07174 5.66884C2.97894 6.88702 3.52379 7.65369 3.63157 7.79308C3.60462 7.86884 3.58067 7.9446 3.55672 8.02036C3.4729 8.29611 3.41003 8.57793 3.37111 8.87187C3.36513 8.91429 3.35914 8.95672 3.35615 8.99914C2.30835 9.52339 2 10.5931 2 10.5931C2.87117 11.6082 3.88902 11.6719 3.88902 11.6719L3.89202 11.6688C4.02075 11.9022 4.17043 12.1234 4.33808 12.3325C4.40993 12.4204 4.48178 12.5022 4.55961 12.584C4.24228 13.5052 4.60452 14.2688 4.60452 14.2688C5.57448 14.3052 6.21214 13.8385 6.34685 13.7325C6.44265 13.7658 6.54144 13.7961 6.64023 13.8204C6.9396 13.8991 7.24496 13.9446 7.55032 13.9567C7.62516 13.9597 7.703 13.9628 7.77784 13.9597H7.81376H7.83771H7.88561L7.93351 13.9567V13.9597C8.39155 14.6204 9.19386 14.7143 9.19386 14.7143C9.76566 14.1052 9.79859 13.4991 9.79859 13.3688V13.3597V13.3416V13.3143C9.91833 13.2294 10.0321 13.1385 10.1399 13.0385C10.3674 12.8294 10.568 12.5901 10.7356 12.3325L10.7805 12.2597C11.4272 12.2961 11.8852 11.8537 11.8852 11.8537C11.7774 11.1719 11.3942 10.8385 11.3134 10.7749C11.3134 10.7749 11.3104 10.7719 11.3044 10.7688C11.2984 10.7658 11.2984 10.7628 11.2984 10.7628C11.2954 10.7597 11.2894 10.7567 11.2835 10.7537L11.2924 10.6294C11.2984 10.5567 11.2984 10.481 11.2984 10.4082V10.3537V10.3264V10.3113V10.2931L11.2954 10.2476L11.2924 10.187C11.2924 10.1658 11.2894 10.1476 11.2865 10.1294C11.285 10.1204 11.2842 10.1105 11.2835 10.1007C11.2827 10.0908 11.282 10.081 11.2805 10.0719L11.2745 10.0143L11.2655 9.95672C11.2535 9.88096 11.2416 9.80823 11.2236 9.73248C11.1547 9.43854 11.041 9.15975 10.8943 8.90823C10.7446 8.65672 10.559 8.43551 10.3464 8.24763C10.1369 8.05975 9.90037 7.90823 9.65489 7.79611C9.40641 7.68399 9.14895 7.61126 8.8915 7.57793C8.76277 7.55975 8.63404 7.55369 8.50531 7.55672H8.45741H8.44544H8.43047H8.40951L8.36161 7.55975C8.35222 7.55975 8.34283 7.56058 8.33387 7.56137C8.32569 7.56209 8.31786 7.56278 8.31072 7.56278C8.24486 7.56884 8.179 7.57793 8.11613 7.59005C7.85867 7.63854 7.61618 7.73248 7.40363 7.86278C7.19107 7.99308 7.00547 8.15369 6.85578 8.33551C6.7061 8.51732 6.58934 8.72036 6.50851 8.92945C6.42768 9.13854 6.38278 9.35672 6.3708 9.56581C6.36781 9.61732 6.36781 9.67187 6.36781 9.72339V9.76278L6.3708 9.8052C6.3723 9.81732 6.37305 9.8302 6.3738 9.84308C6.37454 9.85596 6.37529 9.86884 6.37679 9.88096C6.38577 9.98702 6.40673 10.0901 6.43367 10.187C6.49055 10.384 6.58036 10.5628 6.69113 10.7143C6.80189 10.8658 6.93661 10.9901 7.07731 11.0901C7.21802 11.187 7.3707 11.2567 7.52038 11.3022C7.67007 11.3476 7.81975 11.3658 7.96046 11.3658H8.01135H8.03829C8.04727 11.3658 8.05625 11.3658 8.06524 11.3628C8.07272 11.3628 8.0802 11.362 8.08769 11.3613C8.09517 11.3605 8.10266 11.3597 8.11014 11.3597C8.11313 11.3597 8.11912 11.3597 8.12212 11.3567L8.13708 11.3537C8.14157 11.3537 8.14607 11.3529 8.15056 11.3522C8.15505 11.3514 8.15954 11.3507 8.16403 11.3507C8.173 11.3491 8.18123 11.3476 8.18945 11.3461C8.19769 11.3446 8.20593 11.3431 8.21492 11.3416C8.23288 11.3385 8.24785 11.3355 8.26282 11.3294C8.28586 11.3252 8.30743 11.318 8.32857 11.3109C8.33764 11.3079 8.34663 11.3049 8.35562 11.3022C8.4155 11.281 8.47537 11.2567 8.52627 11.2294C8.56756 11.2085 8.60533 11.1841 8.64229 11.1602C8.65356 11.1529 8.66476 11.1456 8.67595 11.1385C8.67944 11.1359 8.68318 11.1332 8.68703 11.1305C8.6964 11.1239 8.70638 11.1168 8.71487 11.1082C8.76277 11.0688 8.77175 10.9961 8.73283 10.9476C8.6999 10.9052 8.64003 10.8931 8.59213 10.9204L8.5562 10.9385C8.51429 10.9597 8.47238 10.9779 8.42747 10.9931C8.38257 11.0082 8.33467 11.0204 8.28677 11.0294C8.26282 11.0325 8.23887 11.0355 8.21193 11.0385C8.20627 11.0385 8.20062 11.0392 8.19465 11.0399C8.18798 11.0407 8.18091 11.0416 8.17301 11.0416H8.13708H8.10116H8.10115C8.08618 11.0416 8.07122 11.0416 8.05625 11.0385H8.05326H8.04727H8.03829C8.0323 11.0385 8.02332 11.0385 8.01734 11.0355C8.00985 11.034 8.00312 11.0332 7.99638 11.0325C7.98964 11.0317 7.98291 11.031 7.97542 11.0294C7.86466 11.0143 7.75389 10.981 7.64911 10.9325C7.54134 10.884 7.43955 10.8173 7.34675 10.7325C7.25394 10.6476 7.17311 10.5476 7.11024 10.4325C7.04738 10.3173 7.00247 10.1901 6.98152 10.0567C6.97253 9.99005 6.96655 9.92036 6.96954 9.85369C6.96954 9.8446 6.97029 9.83551 6.97104 9.82642C6.97179 9.81732 6.97254 9.80823 6.97254 9.79914V9.79611V9.79005V9.7749C6.97254 9.77035 6.97328 9.76581 6.97403 9.76126C6.97478 9.75672 6.97553 9.75217 6.97553 9.74763C6.97852 9.71127 6.98451 9.67491 6.99049 9.63855L6.9905 9.63854C7.04139 9.34763 7.18509 9.06278 7.40662 8.84763C7.4635 8.79308 7.52338 8.7446 7.58624 8.69914C7.64911 8.65369 7.71797 8.6143 7.78981 8.58096C7.86166 8.54763 7.93351 8.52036 8.01135 8.49914C8.08619 8.47793 8.16403 8.46581 8.24486 8.45672L8.24489 8.45672C8.2838 8.45369 8.32271 8.45066 8.3646 8.45066H8.39155H8.42448H8.44544H8.44843H8.45741L8.49034 8.45369C8.57716 8.45975 8.66098 8.47187 8.7448 8.49308C8.91245 8.52945 9.07711 8.59308 9.22978 8.67793C9.53514 8.85066 9.79559 9.11732 9.95426 9.43854C10.0351 9.59914 10.092 9.77187 10.1189 9.95066L10.1189 9.9507C10.1249 9.99614 10.1309 10.0416 10.1339 10.087L10.1369 10.1204L10.1399 10.1537V10.187V10.2204V10.2507V10.284C10.1399 10.2946 10.1391 10.309 10.1384 10.3234C10.1376 10.3378 10.1369 10.3522 10.1369 10.3628C10.1339 10.4113 10.1279 10.4628 10.1219 10.5113C10.1159 10.5597 10.1069 10.6082 10.098 10.6567C10.089 10.7052 10.077 10.7537 10.065 10.7991C10.0411 10.8931 10.0111 10.987 9.97521 11.081C9.90337 11.2628 9.80757 11.4385 9.69381 11.5991C9.46329 11.9204 9.14895 12.181 8.78971 12.3476C8.61009 12.4294 8.42149 12.4901 8.22689 12.5204C8.1311 12.5385 8.0323 12.5476 7.93351 12.5507H7.91555H7.90058H7.86765H7.81975H7.7958H7.79281H7.78383C7.72994 12.5507 7.67905 12.5476 7.62516 12.5416C7.4156 12.5264 7.20904 12.487 7.00547 12.4294C6.80489 12.3719 6.6103 12.2901 6.42469 12.1931C6.05646 11.9931 5.72416 11.7204 5.4667 11.3901C5.33798 11.2264 5.22421 11.0476 5.13141 10.8628C5.0386 10.6779 4.96376 10.481 4.90988 10.284C4.85599 10.084 4.82306 9.88096 4.80809 9.6749L4.8051 9.63551V9.62642V9.61732V9.59914V9.56581V9.55672V9.5446V9.52036V9.47187V9.46278V9.45975V9.44157V9.36581C4.80809 9.26581 4.81707 9.15975 4.82905 9.05672C4.84102 8.95369 4.85898 8.84763 4.87994 8.7446C4.90089 8.64157 4.92484 8.53854 4.95478 8.43551C5.01166 8.23248 5.08351 8.03551 5.16733 7.85066C5.33798 7.48096 5.55951 7.15066 5.82595 6.88702C5.89181 6.82035 5.96066 6.75975 6.03251 6.69914C6.10436 6.64157 6.1792 6.58702 6.25704 6.53551C6.33188 6.48399 6.41271 6.43854 6.49354 6.39611C6.53246 6.3749 6.57437 6.35369 6.61628 6.33551L6.67915 6.30823L6.74202 6.28096C6.82584 6.2446 6.91266 6.21429 7.00247 6.18702C7.00622 6.18594 7.01007 6.18485 7.01397 6.18375C7.0319 6.1787 7.05113 6.17327 7.06833 6.16581C7.07881 6.16278 7.09004 6.15975 7.10126 6.15672C7.11249 6.15369 7.12372 6.15066 7.13419 6.14763L7.1342 6.14763C7.1791 6.13551 7.22401 6.12338 7.26891 6.11429C7.28031 6.111 7.2926 6.1086 7.30529 6.10612C7.31592 6.10404 7.32685 6.10191 7.33777 6.09914C7.34974 6.09611 7.36097 6.09384 7.37219 6.09157C7.38342 6.08929 7.39465 6.08702 7.40662 6.08399C7.4186 6.08248 7.42982 6.0802 7.44105 6.07793C7.45228 6.07566 7.4635 6.07339 7.47548 6.07187L7.50841 6.06581L7.54433 6.05975C7.55631 6.05823 7.56753 6.05672 7.57876 6.0552C7.58999 6.05369 7.60121 6.05217 7.61319 6.05066C7.62666 6.04914 7.63938 6.04763 7.6521 6.04611C7.66483 6.0446 7.67755 6.04308 7.69102 6.04157C7.7015 6.04005 7.71572 6.03854 7.72994 6.03702C7.74416 6.03551 7.75838 6.03399 7.76886 6.03248C7.77634 6.03096 7.78458 6.0302 7.79281 6.02945C7.80104 6.02869 7.80927 6.02793 7.81676 6.02642L7.84969 6.02339L7.86466 6.02036H7.88262C7.89609 6.01884 7.90881 6.01808 7.92154 6.01732C7.93426 6.01657 7.94698 6.01581 7.96046 6.01429L7.99937 6.01126H8.00237H8.01135H8.02931C8.03979 6.01126 8.05101 6.01051 8.06224 6.00975C8.07347 6.00899 8.08469 6.00823 8.09517 6.00823C8.18199 6.0052 8.2718 6.0052 8.35862 6.00823C8.53225 6.01429 8.70289 6.03551 8.86755 6.06581C9.19985 6.12945 9.51119 6.23551 9.79559 6.37793C10.08 6.51732 10.3315 6.69005 10.553 6.87793C10.5605 6.88399 10.5672 6.89005 10.574 6.89611C10.5807 6.90217 10.5874 6.90823 10.5949 6.91429C10.6009 6.92036 10.6076 6.92642 10.6144 6.93248C10.6211 6.93854 10.6278 6.9446 10.6338 6.95066C10.6473 6.96278 10.66 6.9749 10.6727 6.98702C10.6855 6.99914 10.6982 7.01126 10.7117 7.02339C10.7386 7.04762 10.7625 7.07186 10.7865 7.09609L10.7865 7.09611C10.8105 7.12036 10.8344 7.1446 10.8584 7.17187C10.9512 7.27187 11.038 7.37187 11.1158 7.4749C11.2715 7.67793 11.3972 7.88399 11.496 8.07793L11.514 8.11429L11.5319 8.15066L11.532 8.15069C11.5439 8.17492 11.5559 8.19915 11.5649 8.22339C11.5709 8.23551 11.5761 8.24687 11.5813 8.25823C11.5866 8.2696 11.5918 8.28096 11.5978 8.29308C11.6023 8.3052 11.6075 8.31657 11.6128 8.32793C11.618 8.33929 11.6232 8.35066 11.6277 8.36278C11.6333 8.37684 11.6389 8.39084 11.6444 8.40475C11.6746 8.48074 11.7038 8.55423 11.7265 8.62339C11.7714 8.75672 11.8044 8.8749 11.8313 8.97793C11.8403 9.02036 11.8792 9.04763 11.9211 9.04157C11.966 9.03854 11.999 9.00217 11.999 8.95672C12.002 8.84763 11.999 8.71732 11.984 8.56884C11.966 8.38399 11.9361 8.17187 11.8762 7.93551C11.8163 7.70217 11.7265 7.4446 11.5948 7.17793C11.4631 6.91126 11.2924 6.63551 11.0709 6.36581C10.9841 6.25975 10.8883 6.15672 10.7865 6.05672C10.8159 5.93848 10.8271 5.82327 10.826 5.71429H15V15.1429C15 15.6161 14.6081 16 14.125 16H1.875C1.39193 16 1 15.6161 1 15.1429V0.857143C1 0.383929 1.39193 0 1.875 0H9.16667Z" fill="#E9EDF2"/>
</svg>
