<svg xmlns="http://www.w3.org/2000/svg" xmlns:xlink="http://www.w3.org/1999/xlink" id="Layer_1" width="117.8" height="64" x="0" style="enable-background:new 0 0 117.8 64" y="0" version="1.1" viewBox="0 0 117.8 64" xml:space="preserve"><style type="text/css">.st0{fill:#e3e2e2}.st1{fill:url(#SVGID_1_)}</style><g><path d="M15.2,22.7H1.9c-1.1,0-1.9,0.9-1.9,1.9v37.5C0,63.2,0.9,64,1.9,64h13.3c1.1,0,1.9-0.9,1.9-1.9V24.6 C17.1,23.5,16.3,22.7,15.2,22.7z" class="st0"/><path d="M36.3,10.2H23c-1.1,0-1.9,0.9-1.9,1.9v50c0,1.1,0.9,1.9,1.9,1.9h13.3c1.1,0,1.9-0.9,1.9-1.9v-50 C38.2,11.1,37.3,10.2,36.3,10.2z" class="st0"/><path d="M57.3,32H44c-1.1,0-1.9,0.9-1.9,1.9v28.1c0,1.1,0.9,1.9,1.9,1.9h13.3c1.1,0,1.9-0.9,1.9-1.9V34 C59.2,32.9,58.4,32,57.3,32z" class="st0"/><path d="M70.1,38V26.1c0-3.4,2.7-6.1,6.1-6.1h4.1V2c0-1.1-0.9-1.9-1.9-1.9H65.1C64,0,63.1,0.9,63.1,2v60.1 c0,1.1,0.9,1.9,1.9,1.9h13.3c1.1,0,1.9-0.9,1.9-1.9V44.1h-4.1C72.9,44.1,70.1,41.3,70.1,38z" class="st0"/><linearGradient id="SVGID_1_" x1="96.443" x2="96.443" y1="83.701" y2="-9.483" gradientUnits="userSpaceOnUse"><stop offset="0" style="stop-color:#fff23a"/><stop offset=".04" style="stop-color:#fee62d"/><stop offset=".117" style="stop-color:#fed41a"/><stop offset=".196" style="stop-color:#fdc90f"/><stop offset=".281" style="stop-color:#fdc60b"/><stop offset=".668" style="stop-color:#f28f3f"/><stop offset=".888" style="stop-color:#ed693c"/><stop offset="1" style="stop-color:#e83e39"/></linearGradient><path d="M116.7,24.9h-7.2h-0.5h-5.4V11.8c0-0.6-0.5-1.1-1.1-1.1H90.5c-0.6,0-1.1,0.5-1.1,1.1v13.1h-9.1h-4.1 c-0.6,0-1.1,0.5-1.1,1.1V38c0,0.6,0.5,1.1,1.1,1.1h4.1h9.1v4.6v1.9v6.7c0,0.6,0.5,1.1,1.1,1.1h11.9c0.6,0,1.1-0.5,1.1-1.1V39.1 h13.1c0.6,0,1.1-0.5,1.1-1.1V26.1C117.8,25.5,117.3,24.9,116.7,24.9z" class="st1"/></g></svg>