<svg xmlns="http://www.w3.org/2000/svg" xmlns:xlink="http://www.w3.org/1999/xlink" id="Layer_1" width="121" height="100" x="0" style="enable-background:new 0 0 121 100" y="0" version="1.1" viewBox="0 0 121 100" xml:space="preserve"><style type="text/css">.st0{fill:url(#SVGID_1_)}.st1{fill:#161719}.st2{fill:url(#SVGID_2_)}.st3{fill:url(#SVGID_3_)}</style><g><g><linearGradient id="SVGID_1_" x1="60.5" x2="60.5" y1="130.775" y2="18.667" gradientUnits="userSpaceOnUse"><stop offset="0" style="stop-color:#fff100"/><stop offset="1" style="stop-color:#f05a28"/></linearGradient><path d="M120.8,50L87.2,16.4C78.1,6.3,64.9,0,50.2,0c-27.6,0-50,22.4-50,50s22.4,50,50,50c14.4,0,27.5-6.1,36.6-15.9 c0.1-0.1,0.1-0.1,0.2-0.2L120.8,50z" class="st0"/></g><path d="M94.1,50c0-24.4-19.9-44.3-44.3-44.3S5.6,25.6,5.6,50s19.9,44.3,44.3,44.3S94.1,74.4,94.1,50z" class="st1"/><g><linearGradient id="SVGID_2_" x1="50.695" x2="50.695" y1="113.832" y2="21.799" gradientUnits="userSpaceOnUse"><stop offset="0" style="stop-color:#fff100"/><stop offset="1" style="stop-color:#f05a28"/></linearGradient><path d="M78.3,65.9H25.9V30.5c0-1.5-1.2-2.8-2.8-2.8c-1.5,0-2.8,1.2-2.8,2.8v38.1c0,1.5,1.2,2.8,2.8,2.8h55.2 c1.5,0,2.8-1.2,2.8-2.8S79.8,65.9,78.3,65.9z" class="st2"/><g><linearGradient id="SVGID_3_" x1="53.553" x2="53.553" y1="113.832" y2="21.799" gradientUnits="userSpaceOnUse"><stop offset="0" style="stop-color:#fff100"/><stop offset="1" style="stop-color:#f05a28"/></linearGradient><polygon points="78.2 63.1 78.5 49 63.4 28.3 47.5 49.5 36.3 38.7 28.6 43.1 28.6 63.1" class="st3"/></g></g></g></svg>