<?xml version="1.0" encoding="utf-8"?>
<!-- Generator: Adobe Illustrator 20.1.0, SVG Export Plug-In . SVG Version: 6.00 Build 0)  -->
<svg version="1.1" id="Layer_1" xmlns="http://www.w3.org/2000/svg" xmlns:xlink="http://www.w3.org/1999/xlink" x="0px" y="0px"
	 width="64px" height="64px" viewBox="0 0 64 64" style="enable-background:new 0 0 64 64;" xml:space="preserve">
<style type="text/css">
	.st0{fill:#E3E3E3;}
	.st1{fill:#F2F2F3;}
	.st2{fill:url(#SVGID_1_);}
</style>
<g>
	<path class="st0" d="M14.8,19.2h46.3v-0.8c0-3.3-2.7-5.9-5.9-5.9H29.8l-1.3-3.2l0-0.1c-0.5-1-1.5-1.7-2.6-1.7H13
		c-1.1,0-2.2,0.7-2.7,1.7l-1.2,3.2H5.9c-3.3,0-5.9,2.7-5.9,5.9V49c0,1.9,0.2,1.7,0.5,2.4l1-3l8-25.2C10.1,20.8,12.3,19.2,14.8,19.2z
		"/>
	<polygon class="st1" points="0,52.9 1.6,47.9 0,47.9 	"/>
	<path class="st0" d="M60.6,22.8H16.8c-1.8,0-3.4,1.2-4,2.9L4.2,53.3H11h31.3c-1-0.6-1.7-1.7-1.7-3v-4.8c0-1.9,1.6-3.5,3.5-3.5h2.2
		v-2.2c0-1.9,1.6-3.5,3.5-3.5h4.8c1.9,0,3.5,1.6,3.5,3.5V42h0.2l5.5-14.7C64.6,25.1,63,22.8,60.6,22.8z"/>
	<linearGradient id="SVGID_1_" gradientUnits="userSpaceOnUse" x1="52.1271" y1="62.3127" x2="52.1271" y2="34.3987">
		<stop  offset="0" style="stop-color:#FFF33B"/>
		<stop  offset="5.948725e-02" style="stop-color:#FFE029"/>
		<stop  offset="0.1303" style="stop-color:#FFD218"/>
		<stop  offset="0.2032" style="stop-color:#FEC90F"/>
		<stop  offset="0.2809" style="stop-color:#FDC70C"/>
		<stop  offset="0.6685" style="stop-color:#F3903F"/>
		<stop  offset="0.8876" style="stop-color:#ED683C"/>
		<stop  offset="1" style="stop-color:#E93E3A"/>
	</linearGradient>
	<path class="st2" d="M60.2,45.1h-3.1H55v-5.2c0-0.3-0.2-0.5-0.5-0.5h-4.8c-0.3,0-0.5,0.2-0.5,0.5v5.2H44c-0.3,0-0.5,0.2-0.5,0.5
		v4.8c0,0.3,0.2,0.5,0.5,0.5h5.2v2.6V56c0,0.3,0.2,0.5,0.5,0.5h4.8c0.3,0,0.5-0.2,0.5-0.5v-5.2h5.2c0.3,0,0.5-0.2,0.5-0.5v-4.8
		C60.7,45.3,60.5,45.1,60.2,45.1z"/>
</g>
</svg>
