<svg xmlns="http://www.w3.org/2000/svg" xmlns:xlink="http://www.w3.org/1999/xlink" id="Layer_1" width="64" height="64" x="0" style="enable-background:new 0 0 64 64" y="0" version="1.1" viewBox="0 0 64 64" xml:space="preserve"><style type="text/css">.st0{fill:#e3e2e2}.st1{fill:url(#SVGID_1_)}</style><g><path d="M20.7,0.6H5.2C2.3,0.6,0,2.9,0,5.8v15.6c0,2.8,2.3,5.2,5.2,5.2h15.6c2.8,0,5.2-2.3,5.2-5.2V5.8 C25.9,2.9,23.6,0.6,20.7,0.6z" class="st0"/><path d="M33.4,26.5H49c2.8,0,5.2-2.3,5.2-5.2V5.8c0-2.8-2.3-5.2-5.2-5.2H33.4c-2.8,0-5.2,2.3-5.2,5.2v15.6 C28.2,24.2,30.6,26.5,33.4,26.5z" class="st0"/><path d="M20.7,28.2H5.2c-2.8,0-5.2,2.3-5.2,5.2v15.6c0,2.8,2.3,5.2,5.2,5.2h15.6c2.8,0,5.2-2.3,5.2-5.2V33.3 C25.9,30.5,23.6,28.2,20.7,28.2z" class="st0"/><path d="M35.1,39.2h4.1v-4.1c0-3.2,2.6-5.8,5.8-5.8h7.1c-0.9-0.7-2-1.1-3.2-1.1H33.4c-2.8,0-5.2,2.3-5.2,5.2v15.6 c0,1.2,0.4,2.3,1.1,3.1v-7C29.3,41.8,31.9,39.2,35.1,39.2z" class="st0"/><linearGradient id="SVGID_1_" x1="49.157" x2="49.157" y1="90.482" y2="15.655" gradientUnits="userSpaceOnUse"><stop offset="0" style="stop-color:#fff23a"/><stop offset=".04" style="stop-color:#fee62d"/><stop offset=".117" style="stop-color:#fed41a"/><stop offset=".196" style="stop-color:#fdc90f"/><stop offset=".281" style="stop-color:#fdc60b"/><stop offset=".668" style="stop-color:#f28f3f"/><stop offset=".888" style="stop-color:#ed693c"/><stop offset="1" style="stop-color:#e83e39"/></linearGradient><path d="M63.2,44.2h-5h-0.4h-3.7h0v-0.7v-8.4c0-0.4-0.4-0.8-0.8-0.8H45c-0.4,0-0.8,0.4-0.8,0.8v9.1h-9.1 c-0.4,0-0.8,0.4-0.8,0.8v8.3c0,0.2,0.1,0.4,0.3,0.6c0.1,0.1,0.3,0.2,0.5,0.2c0,0,0,0,0.1,0h9.1v3.2v1.3v4.6c0,0.4,0.4,0.8,0.8,0.8 h8.3c0.4,0,0.8-0.4,0.8-0.8v-9.1h9.1c0.4,0,0.8-0.4,0.8-0.8V45C64,44.6,63.6,44.2,63.2,44.2z" class="st1"/></g></svg>