<?xml version="1.0" encoding="utf-8"?>
<!-- Generator: Adobe Illustrator 20.1.0, SVG Export Plug-In . SVG Version: 6.00 Build 0)  -->
<svg version="1.1" id="Layer_1" xmlns="http://www.w3.org/2000/svg" xmlns:xlink="http://www.w3.org/1999/xlink" x="0px" y="0px"
	 width="64px" height="64px" viewBox="0 0 64 64" style="enable-background:new 0 0 64 64;" xml:space="preserve">
<style type="text/css">
	.st0{fill:#E3E2E2;}
</style>
<circle class="st0" cx="6" cy="12" r="6"/>
<path class="st0" d="M59,17.6H20.2c-2.8,0-5-2.2-5-5v0c0-2.8,2.2-5,5-5H59c2.8,0,5,2.2,5,5v0C64,15.3,61.8,17.6,59,17.6z"/>
<circle class="st0" cx="6" cy="30.5" r="6"/>
<path class="st0" d="M59,36.1H20.2c-2.8,0-5-2.2-5-5v0c0-2.8,2.2-5,5-5H59c2.8,0,5,2.2,5,5v0C64,33.9,61.8,36.1,59,36.1z"/>
<circle class="st0" cx="6" cy="49.1" r="6"/>
<path class="st0" d="M59,54.7H20.2c-2.8,0-5-2.2-5-5v0c0-2.8,2.2-5,5-5H59c2.8,0,5,2.2,5,5v0C64,52.5,61.8,54.7,59,54.7z"/>
</svg>
