<?xml version="1.0" encoding="utf-8"?>
<!-- Generator: Adobe Illustrator 20.1.0, SVG Export Plug-In . SVG Version: 6.00 Build 0)  -->
<svg version="1.1" id="Layer_1" xmlns="http://www.w3.org/2000/svg" xmlns:xlink="http://www.w3.org/1999/xlink" x="0px" y="0px"
	 width="64px" height="64px" viewBox="0 0 64 64" style="enable-background:new 0 0 64 64;" xml:space="preserve">
<style type="text/css">
	.st0{fill:none;}
	.st1{fill:#E3E2E2;}
</style>
<g>
	<path class="st0" d="M49.3,8.6h-4v0H14.7c-1.2,0-2.2,1-2.2,2.2v25.6c0,1.2,1,2.2,2.2,2.2h19.5l5.9,5.5l0-5.5h9.2
		c1.2,0,2.2-1,2.2-2.2v0V24.5V10.8C51.5,9.6,50.5,8.6,49.3,8.6z"/>
	<g>
		<path class="st1" d="M49.3,0H27.5l0,0H14.7C8.8,0,4,4.8,4,10.8v25.6c0,5.9,4.8,10.8,10.8,10.8h16.1L48.6,64l0-16.9h0.6
			c5.9,0,10.8-4.8,10.8-10.8v0V15.9v-5.2C60,4.8,55.2,0,49.3,0z M51.5,36.4L51.5,36.4c0,1.2-1,2.2-2.2,2.2h-9.2l0,5.5l-5.9-5.5H14.7
			c-1.2,0-2.2-1-2.2-2.2V10.8c0-1.2,1-2.2,2.2-2.2h30.5v0h4c1.2,0,2.2,1,2.2,2.2v13.7V36.4z"/>
	</g>
</g>
</svg>
