<svg xmlns="http://www.w3.org/2000/svg" xmlns:xlink="http://www.w3.org/1999/xlink" id="Layer_1" width="64" height="64" x="0" style="enable-background:new 0 0 64 64" y="0" version="1.1" viewBox="0 0 64 64" xml:space="preserve"><style type="text/css">.st0{fill:#e3e2e2}</style><circle cx="6" cy="12" r="6" class="st0"/><path d="M59,17.6H20.2c-2.8,0-5-2.2-5-5v0c0-2.8,2.2-5,5-5H59c2.8,0,5,2.2,5,5v0C64,15.3,61.8,17.6,59,17.6z" class="st0"/><circle cx="6" cy="30.5" r="6" class="st0"/><path d="M59,36.1H20.2c-2.8,0-5-2.2-5-5v0c0-2.8,2.2-5,5-5H59c2.8,0,5,2.2,5,5v0C64,33.9,61.8,36.1,59,36.1z" class="st0"/><circle cx="6" cy="49.1" r="6" class="st0"/><path d="M59,54.7H20.2c-2.8,0-5-2.2-5-5v0c0-2.8,2.2-5,5-5H59c2.8,0,5,2.2,5,5v0C64,52.5,61.8,54.7,59,54.7z" class="st0"/></svg>