<svg xmlns="http://www.w3.org/2000/svg" xmlns:xlink="http://www.w3.org/1999/xlink" id="Layer_1" width="64" height="64" x="0" style="enable-background:new 0 0 64 64" y="0" version="1.1" viewBox="0 0 64 64" xml:space="preserve"><style type="text/css">.st0{fill:#e3e2e2}.st1{fill:url(#SVGID_1_)}</style><g><path d="M13.6,16.1h42.5v-0.8c0-3-2.4-5.4-5.4-5.4H27.3L26.1,7l0-0.1c-0.4-0.9-1.4-1.5-2.4-1.5H11.9 c-1,0-2,0.6-2.4,1.5L8.3,9.9H5.4c-3,0-5.4,2.4-5.4,5.4v27.1v1V47l0.4-1.3c0,0,0,0,0,0l0.9-2.8l7.3-23.1 C9.3,17.6,11.3,16.1,13.6,16.1z" class="st0"/><path d="M29.3,39.6c0-3.2,2.6-5.8,5.8-5.8h4.1v-4.1c0-3.2,2.6-5.8,5.8-5.8h8.3c2.2,0,4.1,1.2,5,3l1.2-3.3 c0.8-2.1-0.8-4.4-3-4.4H15.1c-1.7,0-3.3,1.1-3.8,2.8L3.1,48.5H9h20.3c0-0.2,0-0.4,0-0.6V39.6z" class="st0"/><linearGradient id="SVGID_1_" x1="49.157" x2="49.157" y1="79.048" y2="10.375" gradientUnits="userSpaceOnUse"><stop offset="0" style="stop-color:#fff23a"/><stop offset=".04" style="stop-color:#fee62d"/><stop offset=".117" style="stop-color:#fed41a"/><stop offset=".196" style="stop-color:#fdc90f"/><stop offset=".281" style="stop-color:#fdc60b"/><stop offset=".668" style="stop-color:#f28f3f"/><stop offset=".888" style="stop-color:#ed693c"/><stop offset="1" style="stop-color:#e83e39"/></linearGradient><path d="M63.2,38.8h-5h-0.4h-3.7v-0.7v-8.4c0-0.4-0.4-0.8-0.8-0.8H45c-0.4,0-0.8,0.4-0.8,0.8v9.1h-9.1 c-0.4,0-0.8,0.4-0.8,0.8v8.3c0,0.2,0.1,0.4,0.3,0.6c0.1,0.1,0.3,0.2,0.5,0.2h9.1v3.2v1.3v4.6c0,0.4,0.4,0.8,0.8,0.8h8.3 c0.4,0,0.8-0.4,0.8-0.8v-9.1h9.1c0.4,0,0.8-0.4,0.8-0.8v-8.3C64,39.2,63.6,38.8,63.2,38.8z" class="st1"/></g></svg>