<?xml version="1.0" encoding="utf-8"?>
<!-- Generator: Adobe Illustrator 19.0.1, SVG Export Plug-In . SVG Version: 6.00 Build 0)  -->
<!DOCTYPE svg PUBLIC "-//W3C//DTD SVG 1.1//EN" "http://www.w3.org/Graphics/SVG/1.1/DTD/svg11.dtd">
<svg version="1.1" id="Layer_1" xmlns="http://www.w3.org/2000/svg" xmlns:xlink="http://www.w3.org/1999/xlink" x="0px" y="0px"
	 width="121px" height="100px" viewBox="0 0 121 100" style="enable-background:new 0 0 100 100;" xml:space="preserve">
<style type="text/css">
	.st0{fill:#161719;}
	.st1{fill:#E3E2E2;}
</style>
<g>
	<path class="st0" d="M94.3,50C94.3,25.6,74.4,5.7,50,5.7S5.7,25.6,5.7,50S25.6,94.3,50,94.3S94.3,74.4,94.3,50z M49.1,73.7
		c-13.9,0-25.7-5.6-25.7-12.3c0-0.7,0.1-1.3,0.4-2c4.4,5,14,8.3,25.3,8.3s20.9-3.4,25.3-8.3c0.2,0.6,0.4,1.3,0.4,2
		C74.8,68,63.1,73.7,49.1,73.7z M49.1,62.5c-13.9,0-25.7-5.6-25.7-12.3c0-0.7,0.1-1.3,0.4-2c4.4,5,14,8.3,25.3,8.3
		s20.9-3.4,25.3-8.3c0.2,0.6,0.4,1.3,0.4,2C74.8,56.9,63.1,62.5,49.1,62.5z M49.1,51.3c-13.9,0-25.7-5.6-25.7-12.3
		c0-6.7,11.8-12.3,25.7-12.3S74.8,32.4,74.8,39C74.8,45.7,63.1,51.3,49.1,51.3z"/>
	<path class="st1" d="M49.1,67.7c-11.4,0-20.9-3.4-25.3-8.3c-0.2,0.6-0.4,1.3-0.4,2c0,6.7,11.8,12.3,25.7,12.3S74.8,68,74.8,61.4
		c0-0.7-0.1-1.3-0.4-2C70.1,64.4,60.5,67.7,49.1,67.7z"/>
	<path class="st1" d="M49.1,56.5c-11.4,0-20.9-3.4-25.3-8.3c-0.2,0.6-0.4,1.3-0.4,2c0,6.7,11.8,12.3,25.7,12.3s25.7-5.6,25.7-12.3
		c0-0.7-0.1-1.3-0.4-2C70.1,53.2,60.5,56.5,49.1,56.5z"/>
	<path class="st1" d="M49.1,26.7c-13.9,0-25.7,5.6-25.7,12.3c0,6.7,11.8,12.3,25.7,12.3S74.8,45.7,74.8,39
		C74.8,32.4,63.1,26.7,49.1,26.7z"/>
	<path class="st1" d="M50,0C22.4,0,0,22.4,0,50s22.4,50,50,50c27.6,0,50-22.4,50-50S77.6,0,50,0z M5.7,50C5.7,25.6,25.6,5.7,50,5.7
		S94.3,25.6,94.3,50S74.4,94.3,50,94.3S5.7,74.4,5.7,50z"/>
</g>
</svg>
