<svg viewBox="0 0 48 48" fill="none" xmlns="http://www.w3.org/2000/svg">
  <path d="M37.3333 24C27.0252 24 18.6675 34.7456 18.6675 48C18.6675 34.7456 10.3098 24 0 24C10.3098 24 18.6675 13.256 18.6675 0C18.6675 13.256 27.0252 24 37.3333 24Z" fill="currentColor" />
  <path d="M48 10.6667C42.1096 10.6667 37.3338 15.4425 37.3338 21.3333C37.3338 15.4425 32.558 10.6667 26.6667 10.6667C32.558 10.6667 37.3338 5.89157 37.3338 0C37.3338 5.89157 42.1096 10.6667 48 10.6667Z" fill="currentColor" />
  <path d="M48 34.6667C43.5822 34.6667 40.0004 38.2485 40.0004 42.6667C40.0004 38.2485 36.4185 34.6667 32 34.6667C36.4185 34.6667 40.0004 31.0853 40.0004 26.6667C40.0004 31.0853 43.5822 34.6667 48 34.6667Z" fill="currentColor" />
</svg>
