<?xml version="1.0" encoding="UTF-8"?>
<svg id="Layer_2" xmlns="http://www.w3.org/2000/svg" xmlns:xlink="http://www.w3.org/1999/xlink" viewBox="-50 -50 524.55 535.34">
  <defs>
    <style>.application-observability-1{fill:currentColor;stroke-width:0px;}</style>
  </defs>
  <g id="Layer_1-2">
    <path class="application-observability-1" d="m424.19,427.44L268.02,3.84c-.85-2.31-3.05-3.84-5.51-3.84h-99.87c-2.46,0-4.65,1.53-5.5,3.83L.37,427.43c-1.42,3.83,1.42,7.91,5.5,7.91h93.43c2.55,0,4.82-1.65,5.59-4.09l29.62-92.92c.78-2.43,3.04-4.09,5.59-4.09h144.35c2.54,0,4.8,1.64,5.58,4.05l30.22,92.99c.79,2.42,3.04,4.05,5.58,4.05h92.84c4.08,0,6.92-4.07,5.51-7.9Zm-252.11-178.19c0,4.68-3.81,8.48-8.48,8.48h-13.86c-4.68,0-8.48-3.81-8.48-8.48v-93.63c0-4.68,3.81-8.49,8.48-8.49h13.86c4.68,0,8.48,3.81,8.48,8.49v93.63Zm55.61,0c0,4.68-3.81,8.48-8.48,8.48h-13.86c-4.68,0-8.48-3.81-8.48-8.48V90.2c0-4.68,3.81-8.48,8.48-8.48h13.86c4.68,0,8.48,3.81,8.48,8.48v159.05Zm55.61,0c0,4.68-3.81,8.48-8.49,8.48h-13.86c-4.68,0-8.49-3.81-8.49-8.48v-64.14c0-4.68,3.81-8.48,8.49-8.48h13.86c4.68,0,8.49,3.81,8.49,8.48v64.14Z"/>
  </g>
</svg>
