<svg xmlns="http://www.w3.org/2000/svg" data-name="Layer 1" viewBox="0 0 24 24"><path d="M19.088,4.95453c-.00732-.00781-.00952-.01819-.01715-.02582s-.01819-.00995-.02606-.01733a9.97886,9.97886,0,0,0-14.08948,0c-.00787.00738-.01837.00964-.02606.01733s-.00983.018-.01715.02582a10,10,0,1,0,14.1759,0ZM12,20a7.9847,7.9847,0,0,1-6.235-3H9.78027a2.9636,2.9636,0,0,0,4.43946,0h4.01532A7.9847,7.9847,0,0,1,12,20Zm-1-5a1,1,0,1,1,1,1A1.001,1.001,0,0,1,11,15Zm8.41022.00208L19.3999,15H15a2.99507,2.99507,0,0,0-2-2.81573V9a1,1,0,0,0-2,0v3.18427A2.99507,2.99507,0,0,0,9,15H4.6001l-.01032.00208A7.93083,7.93083,0,0,1,4.06946,13H5a1,1,0,0,0,0-2H4.06946A7.95128,7.95128,0,0,1,5.68854,7.10211l.65472.65473A.99989.99989,0,1,0,7.75732,6.34277l-.65466-.65466A7.95231,7.95231,0,0,1,11,4.06946V5a1,1,0,0,0,2,0V4.06946a7.95231,7.95231,0,0,1,3.89734,1.61865l-.65466.65466a.99989.99989,0,1,0,1.41406,1.41407l.65472-.65473A7.95128,7.95128,0,0,1,19.93054,11H19a1,1,0,0,0,0,2h.93054A7.93083,7.93083,0,0,1,19.41022,15.00208Z"/></svg>