<svg xmlns="http://www.w3.org/2000/svg" data-name="Layer 1" viewBox="0 0 24 24"><path d="M10.13831,10.62982h-.00013a1.05288,1.05288,0,1,0,.00013,0Zm3.75427,0a1.14582,1.14582,0,1,0,1.04907,1.14166A1.09586,1.09586,0,0,0,13.89258,10.62982Zm4.99878-8.6297H5.10864A2.11364,2.11364,0,0,0,3,4.119V18.02527A2.11368,2.11368,0,0,0,5.10864,20.1441H16.77258l-.54516-1.90289,1.31653,1.224,1.24462,1.152L21,22.57153V4.119A2.11364,2.11364,0,0,0,18.89136,2.00012ZM14.92114,15.43323v.00006s-.37036-.44232-.67895-.83319a3.2459,3.2459,0,0,0,1.86181-1.224,5.87837,5.87837,0,0,1-1.18286.60681,6.76974,6.76974,0,0,1-1.49145.44232,7.206,7.206,0,0,1-2.66394-.01025,8.64456,8.64456,0,0,1-1.51209-.44226,6.03735,6.03735,0,0,1-.75085-.34973c-.03089-.02063-.06165-.03089-.09253-.05146a.14171.14171,0,0,1-.04114-.03082c-.18506-.10284-.28809-.17487-.28809-.17487A3.19975,3.19975,0,0,0,9.8811,14.57953c-.30847.39093-.68908.8537-.68908.8537a3.72892,3.72892,0,0,1-3.13709-1.56342A13.775,13.775,0,0,1,7.536,7.87323a5.08641,5.08641,0,0,1,2.89026-1.08l.10278.12348A6.93762,6.93762,0,0,0,7.824,8.2641s.22632-.12341.60682-.29828a7.722,7.722,0,0,1,2.335-.64795,1.00465,1.00465,0,0,1,.17492-.02063,8.702,8.702,0,0,1,2.07764-.02051,8.384,8.384,0,0,1,3.096.98737,6.84576,6.84576,0,0,0-2.561-1.30628l.14392-.16449a5.08575,5.08575,0,0,1,2.89026,1.08,13.77368,13.77368,0,0,1,1.4812,5.99652A3.75972,3.75972,0,0,1,14.92114,15.43323Z"/></svg>