<svg xmlns="http://www.w3.org/2000/svg" viewBox="0 0 24 24"><path d="M12,14a1,1,0,0,0-1,1v2a1,1,0,0,0,2,0V15A1,1,0,0,0,12,14Zm.38-2.92A1,1,0,0,0,11.8,11l-.18.06-.18.09-.15.12A1,1,0,0,0,11,12a1,1,0,0,0,.29.71,1,1,0,0,0,.33.21A.84.84,0,0,0,12,13a1,1,0,0,0,.71-.29A1,1,0,0,0,13,12a1,1,0,0,0-.29-.71A1.15,1.15,0,0,0,12.38,11.08ZM20,8.94a1.31,1.31,0,0,0-.06-.27l0-.09a1.07,1.07,0,0,0-.19-.28h0l-6-6h0a1.07,1.07,0,0,0-.28-.19l-.1,0A1.1,1.1,0,0,0,13.06,2H7A3,3,0,0,0,4,5V19a3,3,0,0,0,3,3H17a3,3,0,0,0,3-3V9S20,9,20,8.94ZM14,5.41,16.59,8H15a1,1,0,0,1-1-1ZM18,19a1,1,0,0,1-1,1H7a1,1,0,0,1-1-1V5A1,1,0,0,1,7,4h5V7a3,3,0,0,0,3,3h3Z"/></svg>