<svg width="48" height="48" viewBox="0 0 48 48" xmlns="http://www.w3.org/2000/svg">
<path fill-rule="evenodd" clip-rule="evenodd" d="M18.0224 1.24719C18.0224 0.558387 18.5298 0 19.1557 0H27.8443C28.4632 0 28.9676 0.546396 28.9774 1.2274L29.0279 4.72811L30.0489 4.25504C30.6257 3.98774 31.2902 4.28569 31.5331 4.92051C31.776 5.55534 31.5053 6.28666 30.9284 6.55395L29.0667 7.41661L29.1496 13.1614L30.4266 12.5696C31.0035 12.3024 31.668 12.6003 31.9109 13.2351C32.1538 13.8699 31.883 14.6013 31.3062 14.8686L29.1884 15.8499L29.2663 21.2566L30.0388 20.889C30.6133 20.6156 31.2804 20.9065 31.5288 21.5387C31.7773 22.1709 31.513 22.9051 30.9385 23.1785L29.3053 23.9557L29.3552 27.4184C29.3586 27.6512 29.3027 27.8803 29.1939 28.0799L24.6607 36.3945C24.4559 36.7701 24.087 37 23.6889 37C23.2908 37 22.9219 36.7701 22.7171 36.3945L18.6897 29.0076L16.9612 29.8301C16.3867 30.1035 15.7196 29.8126 15.4712 29.1804C15.2227 28.5482 15.487 27.814 16.0615 27.5407L18.0224 26.6075V21.0238L16.9511 21.5202C16.3743 21.7875 15.7098 21.4896 15.4669 20.8548C15.224 20.2199 15.4947 19.4886 16.0716 19.2213L18.0224 18.3174V12.5342L16.5734 13.2056C15.9965 13.4729 15.332 13.175 15.0891 12.5402C14.8462 11.9053 15.117 11.174 15.6938 10.9067L18.0224 9.82772V1.24719ZM20.289 11.4839V17.2671L26.8978 14.2048L26.8149 8.46004L20.289 11.4839ZM26.7761 5.77153L20.289 8.77746V2.49438H26.7288L26.7761 5.77153ZM26.9365 16.8933L20.289 19.9736V25.5288L27.0149 22.328L26.9365 16.8933ZM27.0538 25.0271L20.7884 28.0088L23.6889 33.3287L27.0838 27.1019L27.0538 25.0271Z"/>
<path fill-rule="evenodd" clip-rule="evenodd" d="M13 31.237C6.42418 32.6107 2 35.1781 2 38.1186C2 42.5062 11.8497 46.0631 24 46.0631C36.1503 46.0631 46 42.5062 46 38.1186C46 34.9994 41.0217 32.3 33.7778 31V34.0514C35.5614 34.3952 37.1645 34.827 38.5374 35.3227C40.3384 35.9731 41.5842 36.6769 42.3232 37.3079C42.8555 37.7624 42.9732 38.038 42.9966 38.1187C42.9732 38.1993 42.8556 38.4749 42.3232 38.9294C41.5842 39.5603 40.3384 40.2642 38.5374 40.9146C34.9607 42.2061 29.8213 43.0631 24 43.0631C18.1787 43.0631 13.0393 42.2061 9.46258 40.9146C7.66161 40.2642 6.4158 39.5603 5.67679 38.9294C5.14443 38.4749 5.0268 38.1993 5.00338 38.1186C5.0268 38.038 5.14443 37.7624 5.67679 37.3079C6.4158 36.6769 7.66161 35.9731 9.46258 35.3227C10.5141 34.943 11.7007 34.6009 13 34.307V31.237ZM43.0005 38.1034C43.0019 38.097 43.0021 38.0937 43.0019 38.0937C43.0017 38.0937 43.0014 38.0953 43.001 38.0984C43.0008 38.0997 43.0007 38.1014 43.0005 38.1034ZM43.0019 38.1436C43.0021 38.1436 43.0019 38.1403 43.0005 38.1339C43.0007 38.1361 43.0009 38.1379 43.001 38.1394C43.0014 38.1422 43.0018 38.1436 43.0019 38.1436Z"/>
</svg>
