<svg xmlns="http://www.w3.org/2000/svg" viewBox="0 0 24 24"><path d="M20.71,16.71l-2.42-2.42a1,1,0,0,0-1.42,0l-3.58,3.58a1,1,0,0,0-.29.71V21a1,1,0,0,0,1,1h2.42a1,1,0,0,0,.71-.29l3.58-3.58A1,1,0,0,0,20.71,16.71ZM16,20H15V19l2.58-2.58,1,1Zm-6,0H6a1,1,0,0,1-1-1V5A1,1,0,0,1,6,4h5V7a3,3,0,0,0,3,3h3v1a1,1,0,0,0,2,0V9s0,0,0-.06a1.31,1.31,0,0,0-.06-.27l0-.09a1.07,1.07,0,0,0-.19-.28h0l-6-6h0a1.07,1.07,0,0,0-.28-.19.32.32,0,0,0-.09,0L12.06,2H6A3,3,0,0,0,3,5V19a3,3,0,0,0,3,3h4a1,1,0,0,0,0-2ZM13,5.41,15.59,8H14a1,1,0,0,1-1-1ZM8,14h6a1,1,0,0,0,0-2H8a1,1,0,0,0,0,2Zm0-4H9A1,1,0,0,0,9,8H8a1,1,0,0,0,0,2Zm2,6H8a1,1,0,0,0,0,2h2a1,1,0,0,0,0-2Z"/></svg>