<svg viewBox="0 0 24 24" xmlns="http://www.w3.org/2000/svg">
<path d="M14.8406 5.99829L10.6399 1.79753C10.4922 1.6518 10.3046 1.55309 10.1009 1.51384C9.89719 1.47459 9.6864 1.49656 9.49515 1.57699C9.39055 1.61996 9.29415 1.6793 9.20933 1.75226C9.19038 1.76846 9.17197 1.78537 9.15415 1.80296L4.95338 6.00373C4.85547 6.10165 4.77779 6.21789 4.7248 6.34583C4.67181 6.47376 4.64453 6.61088 4.64453 6.74936C4.64453 7.02903 4.75563 7.29724 4.95338 7.495C5.15114 7.69275 5.41935 7.80385 5.69902 7.80385C5.97869 7.80385 6.2469 7.69275 6.44465 7.495L8.84959 5.07956V12.7513C8.84959 13.0298 8.96023 13.2969 9.15718 13.4939C9.35413 13.6908 9.62125 13.8015 9.89978 13.8015C10.1783 13.8015 10.4454 13.6908 10.6424 13.4939C10.8393 13.2969 10.95 13.0298 10.95 12.7513V5.0797L13.3494 7.48956C13.5471 7.68731 13.8153 7.79841 14.095 7.79841C14.3747 7.79841 14.6429 7.68731 14.8406 7.48956C15.0384 7.2918 15.1495 7.02359 15.1495 6.74392C15.1495 6.60545 15.1222 6.46833 15.0692 6.34039C15.0162 6.21245 14.9385 6.09621 14.8406 5.99829Z"/>
<path d="M13.2237 22.0248L9.15291 17.954C9.05499 17.8561 8.97732 17.7399 8.92432 17.6119C8.87133 17.484 8.84406 17.3469 8.84406 17.2084C8.84406 16.9287 8.95515 16.6605 9.15291 16.4628C9.35066 16.265 9.61887 16.1539 9.89853 16.1539C10.1782 16.1539 10.4464 16.265 10.6442 16.4628L13.0491 18.8782L13.0504 18.8797V11.2494C13.0504 10.9709 13.161 10.7037 13.3579 10.5068C13.5549 10.3098 13.822 10.1992 14.1005 10.1992C14.3791 10.1992 14.6462 10.3098 14.8431 10.5068C15.0401 10.7037 15.1507 10.9709 15.1507 11.2494V18.9211L17.5557 16.5057C17.6533 16.4072 17.7694 16.3291 17.8974 16.2758C18.0254 16.2225 18.1627 16.195 18.3013 16.195C18.4399 16.195 18.5772 16.2225 18.7052 16.2758C18.8332 16.3291 18.9493 16.4072 19.0469 16.5057C19.1454 16.6033 19.2235 16.7194 19.2768 16.8474C19.3301 16.9754 19.3576 17.1127 19.3576 17.2513C19.3576 17.3899 19.3301 17.5272 19.2768 17.6552C19.2235 17.7831 19.1454 17.8993 19.0469 17.9969L14.8462 22.1977C14.6985 22.3434 14.511 22.4421 14.3072 22.4814C14.1035 22.5206 13.8927 22.4986 13.7015 22.4182C13.5097 22.3394 13.3455 22.2056 13.2296 22.0337C13.2277 22.0308 13.2257 22.0278 13.2237 22.0248Z"/>
</svg>
