<svg xmlns="http://www.w3.org/2000/svg" viewBox="0 0 85.12 92.46"><defs><linearGradient id="a" gradientUnits="userSpaceOnUse" x1="42.56" y1="113.26" x2="42.56" y2="28.78"><stop offset="0" stop-color="#FFF200"/><stop offset="1" stop-color="#F15A29"/></linearGradient></defs><path fill="url(#a)" d="M85.01 40.8a33.05 33.05 0 00-3.32-11.69 34.33 34.33 0 00-6.89-9.42c1.3-5.17-1.59-9.65-1.59-9.65-4.98-.31-8.14 1.54-9.31 2.39l-.59-.25a39.35 39.35 0 00-8.21-2.26l-.51-.07C52.41 2.9 46.18 0 46.18 0c-6.95 4.41-8.27 10.57-8.27 10.57l-.07.36-1.15.34c-.53.16-1.06.36-1.59.55-.53.21-1.06.41-1.58.64a31.81 31.81 0 00-6 3.35l-.24-.11c-9.62-3.68-18.17.75-18.17.75-.78 10.24 3.84 16.68 4.76 17.86a44.72 44.72 0 00-2.34 10.15C2.63 48.84 0 57.84 0 57.84c7.42 8.53 16.07 9.06 16.07 9.06l.02-.02a38.29 38.29 0 005.68 7.68c-2.71 7.74.38 14.18.38 14.18a23.03 23.03 0 0014.83-4.52 37.7 37.7 0 0012.19 1.93h.31l.21-.01.41-.01.4-.02.01.01c3.89 5.55 10.74 6.34 10.74 6.34 4.87-5.13 5.15-10.22 5.15-11.33v-.07-.15l-.01-.23a30.34 30.34 0 008.37-8.86c5.51.32 9.39-3.41 9.39-3.41-.91-5.74-4.18-8.54-4.87-9.07l-.07-.05a.61.61 0 01-.06-.05l-.12-.08.08-1.04c.04-.62.06-1.24.06-1.85v-.81-.16l-.02-.38-.03-.52a7.25 7.25 0 00-.09-.98l-.06-.48-.07-.47a23.94 23.94 0 00-7.83-14.37 23.17 23.17 0 00-15.69-5.81l-.41.01H54.73l-.17.01-.4.03-.45.04a18.4 18.4 0 00-12.4 6.49 18.02 18.02 0 00-4.14 10.35 14.54 14.54 0 00-.02 1.65l.01.35.05.63a13.93 13.93 0 005.97 10.16 13.6 13.6 0 003.76 1.79c1.27.38 2.54.54 3.74.53l.44-.01.24-.01.24-.01.38-.04.11-.01.12-.02.23-.03.43-.08.42-.09a10.46 10.46 0 002.26-.83c.45-.23.87-.5 1.26-.77l.33-.25a.96.96 0 00.15-1.35.94.94 0 00-1.19-.23l-.3.16c-.35.17-.71.32-1.09.45a9.54 9.54 0 01-1.83.37l-.32.02-.32.01-.31-.01-.39-.02h-.05l-.09.02-.17-.02-.35-.04a9.98 9.98 0 01-5.36-2.51 9.71 9.71 0 01-3.21-7.39l.02-.47v-.09l.01-.12.02-.23a12.18 12.18 0 016.94-9.8 12.02 12.02 0 014.87-1.07h.23l.27.01.17.01h.1l.27.02a15.57 15.57 0 016.3 1.89 15.18 15.18 0 016.17 6.4 14.52 14.52 0 011.53 5.45l.02.29.01.29.01.29v.52l-.01.28-.03.67a24.8 24.8 0 01-.31 2.46 19.65 19.65 0 01-11.12 14.22 19.46 19.46 0 01-7.28 1.72l-.15.01h-1.02-.09a25.45 25.45 0 01-6.61-1.02 26.1 26.1 0 01-18.72-23.19l-.02-.32-.01-.08V49.57l-.01-.28v-.37l-.01-.4v-.08-.19l.01-.63a29.56 29.56 0 01.65-5.24 34.3 34.3 0 012.46-7.51 27.12 27.12 0 015.61-8.09 22.83 22.83 0 015.69-4.12c.34-.19.7-.35 1.05-.52l.53-.24.54-.23c.72-.3 1.46-.56 2.21-.8l.56-.17.57-.16c.38-.11.76-.2 1.14-.29l.58-.13.58-.12.58-.11.29-.05.29-.04.59-.09.66-.09.65-.08.41-.04.28-.03.14-.01.16-.01.66-.04.33-.02H51.17l.14-.01.56-.03a30.82 30.82 0 016.58.48 30.5 30.5 0 017.89 2.62 31.8 31.8 0 016.44 4.2l.35.3.34.3.66.61.64.62.61.63a33.4 33.4 0 015.43 7.62l.16.3.15.3.29.6c.09.2.19.39.27.59l.25.58a34.09 34.09 0 011.73 5.16c.09.35.42.58.78.55a.72.72 0 00.66-.71c.04-.95.01-2.05-.09-3.3z"/></svg>