<svg fill="black" xmlns="http://www.w3.org/2000/svg">
<path fill-rule="evenodd" clip-rule="evenodd" d="M1.92086 1.43071C1.70007 1.43071 1.48823 1.64074 1.48823 1.86718V1.86937H1.48822L1.43071 13.1338C1.43071 13.1341 1.43071 13.1344 1.43071 13.1347C1.43126 13.3608 1.64284 13.5703 1.86334 13.5703H13.1377C13.3585 13.5703 13.5703 13.3603 13.5703 13.1338V1.86718C13.5703 1.64074 13.3585 1.43071 13.1377 1.43071H1.92086ZM0.627835 1.86596C0.628524 1.16847 1.2217 0.570312 1.92086 0.570312H13.1377C13.8372 0.570312 14.4307 1.16916 14.4307 1.86718V13.1338C14.4307 13.8319 13.8372 14.4307 13.1377 14.4307H1.86334C1.16378 14.4307 0.570312 13.8319 0.570312 13.1338L0.570318 13.1316L0.627835 1.86718C0.627835 1.86677 0.627835 1.86636 0.627835 1.86596Z" fill="inherit"/>
<path fill-rule="evenodd" clip-rule="evenodd" d="M2.59961 2.99961C2.59961 2.7787 2.7787 2.59961 2.99961 2.59961H11.9996C12.2205 2.59961 12.3996 2.7787 12.3996 2.99961V4.59961C12.3996 4.82052 12.2205 4.99961 11.9996 4.99961H2.99961C2.7787 4.99961 2.59961 4.82052 2.59961 4.59961V2.99961ZM3.39961 3.39961V4.19961H11.5996V3.39961H3.39961Z" fill="inherit"/>
<path fill-rule="evenodd" clip-rule="evenodd" d="M2.59961 6.59922C2.59961 6.3783 2.7787 6.19922 2.99961 6.19922H11.9996C12.2205 6.19922 12.3996 6.3783 12.3996 6.59922V8.19922C12.3996 8.42013 12.2205 8.59922 11.9996 8.59922H2.99961C2.7787 8.59922 2.59961 8.42013 2.59961 8.19922V6.59922ZM3.39961 6.99922V7.79922H11.5996V6.99922H3.39961Z" fill="inherit"/>
<path fill-rule="evenodd" clip-rule="evenodd" d="M2.59961 10.1988C2.59961 9.97791 2.7787 9.79883 2.99961 9.79883H11.9996C12.2205 9.79883 12.3996 9.97791 12.3996 10.1988V11.7988C12.3996 12.0197 12.2205 12.1988 11.9996 12.1988H2.99961C2.7787 12.1988 2.59961 12.0197 2.59961 11.7988V10.1988ZM3.39961 10.5988V11.3988H11.5996V10.5988H3.39961Z" fill="inherit"/>
</svg>
