<svg xmlns="http://www.w3.org/2000/svg"><path d="M14.3 8.7H9.4a.7.7 0 00-.7.7v4.9a.7.7 0 00.7.7h4.9a.7.7 0 00.7-.7V9.4a.7.7 0 00-.7-.7zm-.7 4.9h-3.5v-3.5h3.5v3.5zM6.6 1H1.7a.7.7 0 00-.7.7v4.9a.7.7 0 00.7.7h4.9a.7.7 0 00.7-.7V1.7a.7.7 0 00-.7-.7zm-.7 4.9H2.4V2.4h3.5v3.5zm8 1.08a.42.42 0 01-.12-.08l-1.63-1.5a.31.31 0 01-.08-.22c0-.08.04-.16.1-.22.06-.06.14-.09.23-.1.09 0 .18.03.24.09l1.03.94V3.62c0-.26-.12-.5-.31-.69a1.1 1.1 0 00-.74-.28H9.35a.36.36 0 01-.25-.1.31.31 0 01-.1-.23c0-.08.04-.16.1-.22.07-.07.16-.1.25-.1h3.28c.46 0 .9.17 1.24.48.33.3.51.71.51 1.14V5.9l1.02-.94a.37.37 0 01.5 0c.03.03.06.06.07.1a.31.31 0 01-.08.35l-1.61 1.5a.35.35 0 01-.12.08.38.38 0 01-.26 0zM2.1 9.02l.12.08 1.63 1.5c.06.06.09.14.08.22 0 .08-.04.16-.1.22a.37.37 0 01-.48.02l-1.02-.95v2.27c0 .26.12.5.31.69.2.18.47.28.74.28h3.27c.1 0 .18.04.25.1.06.06.1.14.1.23s-.04.16-.1.22a.36.36 0 01-.25.1H3.37c-.46 0-.9-.17-1.24-.48s-.5-.71-.5-1.14V10.1l-1.03.94a.37.37 0 01-.5 0 .32.32 0 01-.07-.1.31.31 0 01.08-.35l1.61-1.5a.35.35 0 01.12-.08.38.38 0 01.26 0z" fill="currentColor"/></svg>