<svg xmlns="http://www.w3.org/2000/svg" xml:space="preserve" style="fill-rule:evenodd;clip-rule:evenodd;stroke-linejoin:round;stroke-miterlimit:2" viewBox="0 0 24 24"><path d="M21 2H3c-.549 0-1 .451-1 1v18c0 .549.451 1 1 1h18c.549 0 1-.451 1-1V3c0-.549-.451-1-1-1Zm-7 18H4V4h10v16Zm6 0h-4V4h4v16Z" style="fill-rule:nonzero"/><path d="m11.3 12 3.5-3.5c.4-.4.4-1 0-1.4-.4-.4-1-.4-1.4 0l-4.2 4.2c-.4.4-.4 1 0 1.4l4.2 4.2c.2.2.4.3.7.3.3 0 .5-.1.7-.3.4-.4.4-1 0-1.4L11.3 12Z" style="fill-rule:nonzero" transform="rotate(-180 10.55 12)"/></svg>