<svg xmlns="http://www.w3.org/2000/svg" fill="none" viewBox="0 0 30 30">
  <path fill="currentColor" d="M15 0a15 15 0 1 0 0 30 15 15 0 0 0 0-30Zm0 28c-2.4 0-4.3-1.5-4.3-3.4h8.6c0 1.9-2 3.5-4.3 3.5Zm7-4.6H8v-2.6h14v2.6Zm0-3.9H8l-.1-.1a10.2 10.2 0 0 1-2.2-3.6 65.3 65.3 0 0 1 4.6 1A6.5 6.5 0 0 1 9 13c0-3 2.3-5.7 1.5-7.8.8 0 1.6 1.7 1.7 4.3a9.2 9.2 0 0 0 1.2-4.7c0-1.4 1-3 1.8-3-.8 1.3.2 2.4 1.1 5.3.4 1 .3 2.8.6 4 0-2.4.5-5.9 2-7-.7 1.5 0 3.3.6 4.2a8.1 8.1 0 0 1 1.4 4.7 6 6 0 0 1-1.4 3.7l1.6-.3 3.3-.7s-.5 2-2.3 3.8Z"/>
</svg>
