<svg xmlns="http://www.w3.org/2000/svg" width="123" height="29" viewBox="0 0 123 29" fill="none">
  <path d="M61.0971 12.8217C61.7915 12.8217 67.1231 8.82172 67.1231 6.82172C67.1231 4.82172 61.9261 0.821716 61.0971 0.821716C60.2681 0.821716 59.5927 1.32172 59.5927 2.29732C59.5927 3.27292 63.0971 5.74232 63.0971 5.74232C63.0971 5.74232 55.4443 5.07172 55.1904 5.74232C54.9365 6.41282 54.9365 7.23062 55.1904 7.90112C55.4443 8.57172 63.0971 7.90112 63.0971 7.90112C63.0971 7.90112 59.5927 10.5717 59.5927 11.3518C59.5927 12.132 60.4027 12.8217 61.0971 12.8217Z" fill="#CCCCDC"/>
  <path d="M0 1.04083V13H15V0H0.626828C0.460583 0 0.301147 0.109659 0.183594 0.304853C0.0660407 0.500047 0 0.764787 0 1.04083Z" fill="url(#paint0_linear_228_705)"/>
  <path d="M6.77442 9.5C7.52635 9.5 8.04638 9.23767 8.34153 8.74147H8.3837V9.41783H10V6.1182C10 5.09102 8.98454 4.5 7.61068 4.5C6.15952 4.5 5.33732 5.1574 5.20028 6.04235L6.78496 6.09292C6.85875 5.78319 7.14336 5.59355 7.59663 5.59355C8.01827 5.59355 8.28531 5.77686 8.28531 6.1024V6.1182C8.28531 6.4153 7.92692 6.47851 7.00633 6.5512C5.91356 6.63338 5 6.99684 5 8.07143C5 9.03224 5.74139 9.5 6.77442 9.5ZM7.30499 8.48862C6.90794 8.48862 6.62684 8.31795 6.62684 7.99558C6.62684 7.68268 6.90091 7.49305 7.38932 7.42668C7.70907 7.38559 8.1026 7.32238 8.29585 7.23072V7.69216C8.29585 8.16625 7.85313 8.48862 7.30499 8.48862Z" fill="#24292E"/>
  <path d="M6.77442 28.5C7.52635 28.5 8.04638 28.2377 8.34153 27.7415H8.3837V28.4178H10V25.1182C10 24.091 8.98454 23.5 7.61068 23.5C6.15952 23.5 5.33732 24.1574 5.20028 25.0423L6.78496 25.0929C6.85875 24.7832 7.14336 24.5936 7.59663 24.5936C8.01827 24.5936 8.28531 24.7769 8.28531 25.1024V25.1182C8.28531 25.4153 7.92692 25.4785 7.00633 25.5512C5.91356 25.6334 5 25.9968 5 27.0714C5 28.0322 5.74139 28.5 6.77442 28.5ZM7.30499 27.4886C6.90794 27.4886 6.62684 27.318 6.62684 26.9956C6.62684 26.6827 6.90091 26.4931 7.38932 26.4267C7.70907 26.3856 8.1026 26.3224 8.29585 26.2307V26.6922C8.29585 27.1663 7.85313 27.4886 7.30499 27.4886Z" fill="#24292E"/>
  <path d="M96.4958 0H73V13H96.4958V0Z" fill="#84AFF1"/>
  <path d="M85 4.00494H83.5716L82 4.92484V6.17874L83.4253 5.35844H83.4627V10.0049H85V4.00494Z" fill="#24292E"/>
  <path d="M122.486 0H98.9897V13H122.486V0Z" fill="#3865AB"/>
  <path d="M110.738 9.99999C109.195 9.99718 108.232 8.87148 108.238 6.97186C108.243 5.06942 109.195 4 110.738 4C112.278 4 113.241 5.07505 113.238 6.97186C113.235 8.87992 112.278 10.0028 110.738 9.99999ZM110.738 8.72795C111.269 8.72795 111.648 8.1848 111.645 6.97186C111.642 5.78705 111.269 5.26079 110.738 5.26079C110.207 5.26079 109.836 5.78705 109.831 6.97186C109.825 8.1848 110.207 8.72795 110.738 8.72795Z" fill="white"/>
  <path d="M40.5 9.99999C38.9569 9.99718 37.9945 8.87148 38 6.97186C38.0056 5.06942 38.9569 4 40.5 4C42.0404 4 43.0028 5.07505 43 6.97186C42.9972 8.87992 42.0404 10.0028 40.5 9.99999ZM40.5 8.72795C41.031 8.72795 41.4098 8.1848 41.4071 6.97186C41.4043 5.78705 41.031 5.26079 40.5 5.26079C39.969 5.26079 39.5985 5.78705 39.5929 6.97186C39.5874 8.1848 39.969 8.72795 40.5 8.72795Z" fill="white"/>
  <path d="M35.5 10C34.0581 10 33 9.28137 33 8.3346C33 7.61312 33.6076 7.03422 34.3837 6.92015V6.87452C33.7064 6.76046 33.2209 6.23574 33.2209 5.58555C33.2209 4.67015 34.186 4 35.5 4C36.814 4 37.7791 4.673 37.7791 5.58555C37.7791 6.23859 37.282 6.76046 36.6163 6.87452V6.92015C37.3808 7.03422 38 7.61312 38 8.3346C38 9.28137 36.9419 10 35.5 10ZM35.5 8.90494C35.9564 8.90494 36.2907 8.60551 36.2907 8.19772C36.2907 7.79563 35.9564 7.5019 35.5 7.5019C35.0436 7.5019 34.7093 7.79278 34.7093 8.19772C34.7093 8.60266 35.0436 8.90494 35.5 8.90494ZM35.5 6.40684C35.9041 6.40684 36.1977 6.13593 36.1977 5.76806C36.1977 5.40589 35.9041 5.14068 35.5 5.14068C35.0959 5.14068 34.8023 5.40304 34.8023 5.76806C34.8023 6.13308 35.0959 6.40684 35.5 6.40684Z" fill="white"/>
  <path d="M21.5 0.5H48.5V12.5H21.5V0.5Z" stroke="#CCCCDC"/>
  <path d="M30.3579 6.64705L27.8579 4.14705C27.8113 4.10043 27.7559 4.06345 27.695 4.03822C27.6341 4.01299 27.5688 4 27.5029 4C27.3697 4 27.2421 4.05289 27.1479 4.14705C27.1013 4.19367 27.0643 4.24901 27.0391 4.30992C27.0138 4.37083 27.0009 4.43612 27.0009 4.50205C27.0009 4.6352 27.0537 4.76289 27.1479 4.85705L29.2979 7.00205L27.1479 9.14705C27.101 9.19353 27.0638 9.24883 27.0385 9.30976C27.0131 9.37069 27 9.43604 27 9.50205C27 9.56805 27.0131 9.6334 27.0385 9.69433C27.0638 9.75526 27.101 9.81056 27.1479 9.85705C27.1944 9.90391 27.2497 9.94111 27.3106 9.96649C27.3715 9.99188 27.4369 10.0049 27.5029 10.0049C27.5689 10.0049 27.6343 9.99188 27.6952 9.96649C27.7561 9.94111 27.8114 9.90391 27.8579 9.85705L30.3579 7.35705C30.4048 7.31056 30.442 7.25526 30.4673 7.19433C30.4927 7.1334 30.5058 7.06805 30.5058 7.00205C30.5058 6.93604 30.4927 6.87069 30.4673 6.80976C30.442 6.74883 30.4048 6.69353 30.3579 6.64705Z" fill="white"/>
  <defs>
    <linearGradient id="paint0_linear_228_705" x1="0" y1="6.5052" x2="15" y2="6.5052" gradientUnits="userSpaceOnUse">
      <stop stop-color="#F2CC0C"/>
      <stop offset="1" stop-color="#FF9830"/>
    </linearGradient>
  </defs>
</svg>