<svg xmlns="http://www.w3.org/2000/svg" width="176" height="31" viewBox="0 0 176 31" fill="none">
  <path d="M0 1.04083V13H15V0H0.626828C0.460583 0 0.301147 0.109659 0.183594 0.304853C0.0660407 0.500047 0 0.764787 0 1.04083Z" fill="url(#paint0_linear_228_602)"/>
  <path d="M140 1.04083V13H155V0H140.627C140.461 0 140.301 0.109659 140.184 0.304853C140.066 0.500047 140 0.764787 140 1.04083Z" fill="url(#paint1_linear_228_602)"/>
  <path d="M161 1.04083V13H176V0H161.627C161.461 0 161.301 0.109659 161.184 0.304853C161.066 0.500047 161 0.764787 161 1.04083Z" fill="url(#paint2_linear_228_602)"/>
  <path d="M21 1.04083V13H36V0H21.6268C21.4606 0 21.3011 0.109659 21.1836 0.304853C21.066 0.500047 21 0.764787 21 1.04083Z" fill="url(#paint3_linear_228_602)"/>
  <path d="M42 1.04083V13H57V0H42.6268C42.4606 0 42.3011 0.109659 42.1836 0.304853C42.066 0.500047 42 0.764787 42 1.04083Z" fill="url(#paint4_linear_228_602)"/>
  <path d="M63 1.04083V13H78V0H63.6268C63.4606 0 63.3011 0.109659 63.1836 0.304853C63.066 0.500047 63 0.764787 63 1.04083Z" fill="url(#paint5_linear_228_602)"/>
  <path d="M15 17.5H0V30.5H15V17.5Z" fill="#84AFF1"/>
  <path d="M155 17.5H140V30.5H155V17.5Z" fill="#3865AB"/>
  <path d="M176 17.5H161V30.5H176V17.5Z" fill="#3865AB"/>
  <path d="M36 17.5H21V30.5H36V17.5Z" fill="#84AFF1"/>
  <path d="M57 17.5H42V30.5H57V17.5Z" fill="#84AFF1"/>
  <path d="M78 17.5H63V30.5H78V17.5Z" fill="#84AFF1"/>
  <path d="M8.5 21H7.07158L5.5 21.9199V23.1738L6.92531 22.3535H6.96266V27H8.5V21Z" fill="#24292E"/>
  <path d="M148.5 21H147.072L145.5 21.9199V23.1738L146.925 22.3535H146.963V27H148.5V21Z" fill="white"/>
  <path d="M26.0873 27H30.5V25.8468H28.0841V25.8092L28.7972 25.1561C30.0896 24.0376 30.4272 23.4682 30.4272 22.789C30.4272 21.7225 29.5511 21 28.1976 21C26.879 21 25.9971 21.7543 26 22.9595H27.3651C27.3651 22.4249 27.697 22.1156 28.1918 22.1156C28.6779 22.1156 29.0301 22.4133 29.0301 22.9017C29.0301 23.3439 28.7506 23.6445 28.2616 24.0809L26.0873 25.9711V27Z" fill="#24292E"/>
  <path d="M6.77442 9.5C7.52635 9.5 8.04638 9.23767 8.34153 8.74147H8.3837V9.41783H10V6.1182C10 5.09102 8.98454 4.5 7.61068 4.5C6.15952 4.5 5.33732 5.1574 5.20028 6.04235L6.78496 6.09292C6.85875 5.78319 7.14336 5.59355 7.59663 5.59355C8.01827 5.59355 8.28531 5.77686 8.28531 6.1024V6.1182C8.28531 6.4153 7.92692 6.47851 7.00633 6.5512C5.91356 6.63338 5 6.99684 5 8.07143C5 9.03224 5.74139 9.5 6.77442 9.5ZM7.30499 8.48862C6.90794 8.48862 6.62684 8.31795 6.62684 7.99558C6.62684 7.68268 6.90091 7.49305 7.38932 7.42668C7.70907 7.38559 8.1026 7.32238 8.29585 7.23072V7.69216C8.29585 8.16625 7.85313 8.48862 7.30499 8.48862Z" fill="#24292E"/>
  <path d="M146.774 9.5C147.526 9.5 148.046 9.23767 148.342 8.74147H148.384V9.41783H150V6.1182C150 5.09102 148.985 4.5 147.611 4.5C146.16 4.5 145.337 5.1574 145.2 6.04235L146.785 6.09292C146.859 5.78319 147.143 5.59355 147.597 5.59355C148.018 5.59355 148.285 5.77686 148.285 6.1024V6.1182C148.285 6.4153 147.927 6.47851 147.006 6.5512C145.914 6.63338 145 6.99684 145 8.07143C145 9.03224 145.741 9.5 146.774 9.5ZM147.305 8.48862C146.908 8.48862 146.627 8.31795 146.627 7.99558C146.627 7.68268 146.901 7.49305 147.389 7.42668C147.709 7.38559 148.103 7.32238 148.296 7.23072V7.69216C148.296 8.16625 147.853 8.48862 147.305 8.48862Z" fill="#24292E"/>
  <path d="M167.774 9.5C168.526 9.5 169.046 9.23767 169.342 8.74147H169.384V9.41783H171V6.1182C171 5.09102 169.985 4.5 168.611 4.5C167.16 4.5 166.337 5.1574 166.2 6.04235L167.785 6.09292C167.859 5.78319 168.143 5.59355 168.597 5.59355C169.018 5.59355 169.285 5.77686 169.285 6.1024V6.1182C169.285 6.4153 168.927 6.47851 168.006 6.5512C166.914 6.63338 166 6.99684 166 8.07143C166 9.03224 166.741 9.5 167.774 9.5ZM168.305 8.48862C167.908 8.48862 167.627 8.31795 167.627 7.99558C167.627 7.68268 167.901 7.49305 168.389 7.42668C168.709 7.38559 169.103 7.32238 169.296 7.23072V7.69216C169.296 8.16625 168.853 8.48862 168.305 8.48862Z" fill="#24292E"/>
  <path d="M27.7744 9.5C28.5263 9.5 29.0464 9.23767 29.3415 8.74147H29.3837V9.41783H31V6.1182C31 5.09102 29.9845 4.5 28.6107 4.5C27.1595 4.5 26.3373 5.1574 26.2003 6.04235L27.785 6.09292C27.8587 5.78319 28.1434 5.59355 28.5966 5.59355C29.0183 5.59355 29.2853 5.77686 29.2853 6.1024V6.1182C29.2853 6.4153 28.9269 6.47851 28.0063 6.5512C26.9136 6.63338 26 6.99684 26 8.07143C26 9.03224 26.7414 9.5 27.7744 9.5ZM28.305 8.48862C27.9079 8.48862 27.6268 8.31795 27.6268 7.99558C27.6268 7.68268 27.9009 7.49305 28.3893 7.42668C28.7091 7.38559 29.1026 7.32238 29.2958 7.23072V7.69216C29.2958 8.16625 28.8531 8.48862 28.305 8.48862Z" fill="#24292E"/>
  <path d="M48.7744 9.5C49.5263 9.5 50.0464 9.23767 50.3415 8.74147H50.3837V9.41783H52V6.1182C52 5.09102 50.9845 4.5 49.6107 4.5C48.1595 4.5 47.3373 5.1574 47.2003 6.04235L48.785 6.09292C48.8587 5.78319 49.1434 5.59355 49.5966 5.59355C50.0183 5.59355 50.2853 5.77686 50.2853 6.1024V6.1182C50.2853 6.4153 49.9269 6.47851 49.0063 6.5512C47.9136 6.63338 47 6.99684 47 8.07143C47 9.03224 47.7414 9.5 48.7744 9.5ZM49.305 8.48862C48.9079 8.48862 48.6268 8.31795 48.6268 7.99558C48.6268 7.68268 48.9009 7.49305 49.3893 7.42668C49.7091 7.38559 50.1026 7.32238 50.2958 7.23072V7.69216C50.2958 8.16625 49.8531 8.48862 49.305 8.48862Z" fill="#24292E"/>
  <path d="M69.7744 9.5C70.5263 9.5 71.0464 9.23767 71.3415 8.74147H71.3837V9.41783H73V6.1182C73 5.09102 71.9845 4.5 70.6107 4.5C69.1595 4.5 68.3373 5.1574 68.2003 6.04235L69.785 6.09292C69.8587 5.78319 70.1434 5.59355 70.5966 5.59355C71.0183 5.59355 71.2853 5.77686 71.2853 6.1024V6.1182C71.2853 6.4153 70.9269 6.47851 70.0063 6.5512C68.9136 6.63338 68 6.99684 68 8.07143C68 9.03224 68.7414 9.5 69.7744 9.5ZM70.305 8.48862C69.9079 8.48862 69.6268 8.31795 69.6268 7.99558C69.6268 7.68268 69.9009 7.49305 70.3893 7.42668C70.7091 7.38559 71.1026 7.32238 71.2958 7.23072V7.69216C71.2958 8.16625 70.8531 8.48862 70.305 8.48862Z" fill="#24292E"/>
  <path d="M128.097 21C128.792 21 134.123 17 134.123 15C134.123 13 128.926 9 128.097 9C127.268 9 126.593 9.5 126.593 10.4756C126.593 11.4512 130.097 13.9206 130.097 13.9206C130.097 13.9206 122.444 13.25 122.19 13.9206C121.937 14.5911 121.937 15.4089 122.19 16.0794C122.444 16.75 130.097 16.0794 130.097 16.0794C130.097 16.0794 126.593 18.75 126.593 19.5301C126.593 20.3103 127.403 21 128.097 21Z" fill="#CCCCDC"/>
  <path d="M49.2292 27C50.5585 27 51.5028 26.2757 51.5 25.2605C51.5028 24.5418 51.0458 24.0285 50.1708 23.923V23.8774C50.8271 23.7804 51.2923 23.327 51.2895 22.6711C51.2923 21.7186 50.456 21 49.2403 21C48.0163 21 47.1246 21.73 47.1135 22.7681H48.4234C48.4345 22.3688 48.7834 22.1008 49.2403 22.1008C49.6751 22.1008 49.9714 22.3717 49.9686 22.7624C49.9714 23.1673 49.6225 23.4468 49.1185 23.4468H48.5674V24.4506H49.1185C49.6917 24.4506 50.0655 24.7414 50.06 25.1521C50.0655 25.5656 49.7221 25.8536 49.2348 25.8536C48.7501 25.8536 48.3929 25.5884 48.3791 25.2034H47C47.0111 26.2586 47.9332 27 49.2292 27Z" fill="#24292E"/>
  <path d="M168.229 27C169.559 27 170.503 26.2757 170.5 25.2605C170.503 24.5418 170.046 24.0285 169.171 23.923V23.8774C169.827 23.7804 170.292 23.327 170.289 22.6711C170.292 21.7186 169.456 21 168.24 21C167.016 21 166.125 21.73 166.114 22.7681H167.423C167.435 22.3688 167.783 22.1008 168.24 22.1008C168.675 22.1008 168.971 22.3717 168.969 22.7624C168.971 23.1673 168.622 23.4468 168.118 23.4468H167.567V24.4506H168.118C168.692 24.4506 169.065 24.7414 169.06 25.1521C169.065 25.5656 168.722 25.8536 168.235 25.8536C167.75 25.8536 167.393 25.5884 167.379 25.2034H166C166.011 26.2586 166.933 27 168.229 27Z" fill="white"/>
  <path d="M99.8892 18.8139C98.1059 18.8107 96.9936 17.5323 97 15.375C97.0064 13.2145 98.1059 12 99.8892 12C101.669 12 102.782 13.2209 102.778 15.375C102.775 17.5419 101.669 18.8171 99.8892 18.8139ZM99.8892 17.3693C100.503 17.3693 100.941 16.7525 100.938 15.375C100.934 14.0295 100.503 13.4318 99.8892 13.4318C99.2756 13.4318 98.8473 14.0295 98.8409 15.375C98.8345 16.7525 99.2756 17.3693 99.8892 17.3693Z" fill="white"/>
  <path d="M96.2472 12V18.5455H94.4702V13.6364H94.4318L93 14.4929V12.9844L94.6108 12H96.2472Z" fill="white"/>
  <path d="M86.5 7H86V7.5V23.5V24H86.5H113.5H114V23.5V7.5V7H113.5H86.5Z" stroke="#CCCCDC"/>
  <path d="M107.375 16.1111C107.343 15.4166 106.724 15 105.706 15C104.699 15 104.078 15.3846 104.083 16.0683C104.078 16.5854 104.438 16.9166 105.156 17.0342L105.779 17.1367C106.054 17.1837 106.178 17.2521 106.183 17.376C106.178 17.5128 106.011 17.5897 105.779 17.5897C105.493 17.5897 105.291 17.4743 105.256 17.2649H104C104.069 17.938 104.692 18.3846 105.77 18.3846C106.744 18.3846 107.462 17.9423 107.466 17.2393C107.462 16.7542 107.113 16.4722 106.393 16.3504L105.678 16.2307C105.41 16.1859 105.334 16.0961 105.339 16C105.334 15.8632 105.515 15.7863 105.733 15.7863C105.983 15.7863 106.192 15.9102 106.21 16.1111H107.375Z" fill="white"/>
  <path d="M68 25.9453V24.9463L70.5893 21H72.2308V24.9287H73V25.9453H72.2308V27H70.977V25.9453H68ZM71.0012 24.9287V22.3828H70.9528L69.3204 24.8818V24.9287H71.0012Z" fill="#24292E"/>
  <defs>
    <linearGradient id="paint0_linear_228_602" x1="0" y1="6.5052" x2="15" y2="6.5052" gradientUnits="userSpaceOnUse">
      <stop stop-color="#F2CC0C"/>
      <stop offset="1" stop-color="#FF9830"/>
    </linearGradient>
    <linearGradient id="paint1_linear_228_602" x1="140" y1="6.5052" x2="155" y2="6.5052" gradientUnits="userSpaceOnUse">
      <stop stop-color="#F2CC0C"/>
      <stop offset="1" stop-color="#FF9830"/>
    </linearGradient>
    <linearGradient id="paint2_linear_228_602" x1="161" y1="6.5052" x2="176" y2="6.5052" gradientUnits="userSpaceOnUse">
      <stop stop-color="#F2CC0C"/>
      <stop offset="1" stop-color="#FF9830"/>
    </linearGradient>
    <linearGradient id="paint3_linear_228_602" x1="21" y1="6.5052" x2="36" y2="6.5052" gradientUnits="userSpaceOnUse">
      <stop stop-color="#F2CC0C"/>
      <stop offset="1" stop-color="#FF9830"/>
    </linearGradient>
    <linearGradient id="paint4_linear_228_602" x1="42" y1="6.5052" x2="57" y2="6.5052" gradientUnits="userSpaceOnUse">
      <stop stop-color="#F2CC0C"/>
      <stop offset="1" stop-color="#FF9830"/>
    </linearGradient>
    <linearGradient id="paint5_linear_228_602" x1="63" y1="6.5052" x2="78" y2="6.5052" gradientUnits="userSpaceOnUse">
      <stop stop-color="#F2CC0C"/>
      <stop offset="1" stop-color="#FF9830"/>
    </linearGradient>
  </defs>
</svg>