<svg width="120" height="48" viewBox="0 0 120 48" fill="none" xmlns="http://www.w3.org/2000/svg">
<!-- Input data table -->
<path d="M0 1.04083V13H28V0H1.16951C0.859756 0 0.56261 0.109659 0.337073 0.304853C0.111537 0.500047 0 0.764787 0 1.04083Z" fill="url(#paint0_linear_sql)"/>
<path d="M28 17H0V30H28V17Z" fill="#84AFF1"/>
<path d="M28 34H0V48H28V34Z" fill="#84AFF1"/>
<!-- a1 text -->
<path d="M13.7744 9.5C14.5264 9.5 15.0464 9.23767 15.3415 8.74147H15.3837V9.41783H17V6.1182C17 5.09102 15.9845 4.5 14.6107 4.5C13.1595 4.5 12.3373 5.1574 12.2003 6.04235L13.785 6.09292C13.8587 5.78319 14.1434 5.59355 14.5966 5.59355C15.0183 5.59355 15.2853 5.77686 15.2853 6.1024V6.1182C15.2853 6.4153 14.9269 6.47851 14.0063 6.5512C12.9136 6.63338 12 6.99684 12 8.07143C12 9.03224 12.7414 9.5 13.7744 9.5ZM14.305 8.48862C13.9079 8.48862 13.6268 8.31795 13.6268 7.99558C13.6268 7.68268 13.9009 7.49305 14.3893 7.42668C14.7091 7.38559 15.1026 7.32238 15.2959 7.23072V7.69216C15.2959 8.16625 14.8531 8.48862 14.305 8.48862Z" fill="#24292E"/>
<!-- 1 text -->
<path d="M14.5 21H13.0716L11.5 21.9199V23.1738L12.9253 22.3535H12.9627V27H14.5V21Z" fill="#24292E"/>
<!-- 2 text -->
<path d="M10.3373 44.5H14.75V43.3468H12.3341V43.3092L13.0472 42.6561C14.3396 41.5376 14.6772 40.9682 14.6772 40.289C14.6772 39.2225 13.8011 38.5 12.4476 38.5C11.129 38.5 10.2471 39.2543 10.25 40.4595H11.6151C11.6151 39.9249 11.947 39.6156 12.4418 39.6156C12.9279 39.6156 13.2801 39.9133 13.2801 40.4017C13.2801 40.8439 13.0007 41.1445 12.5116 41.5809L10.3373 43.4711V44.5Z" fill="#24292E"/>

<!-- SQL symbol in middle -->
<g transform="translate(32, 16)">
  <!-- Database cylinder icon -->
  <ellipse cx="14" cy="5" rx="10" ry="3.5" fill="#F2CC0C" fill-opacity="0.3" stroke="#FF9830" stroke-width="1.5"/>
  <path d="M4 5 V10 C4 11.933 8.477 13.5 14 13.5 C19.523 13.5 24 11.933 24 10 V5" fill="#F2CC0C" fill-opacity="0.2" stroke="#FF9830" stroke-width="1.5"/>
  <line x1="4" y1="8" x2="4" y2="10" stroke="#FF9830" stroke-width="1.5"/>
  <line x1="24" y1="8" x2="24" y2="10" stroke="#FF9830" stroke-width="1.5"/>
  <!-- SQL text -->
  <text x="14" y="23" font-family="Arial, sans-serif" font-size="7" font-weight="600" fill="#24292E" text-anchor="middle">SQL</text>
</g>

<!-- Output data table -->
<path d="M92 1.04083V13H120V0H93.1695C92.8598 0 92.5626 0.109659 92.3371 0.304853C92.1115 0.500047 92 0.764787 92 1.04083Z" fill="url(#paint1_linear_sql)"/>
<path d="M120 17H92V30H120V17Z" fill="#84AFF1"/>
<path d="M120 34H92V48H120V34Z" fill="#84AFF1"/>
<!-- b1 text -->
<path d="M103 9.68623H104.566V8.96449H104.615C104.816 9.37609 105.262 9.75 106.013 9.75C107.113 9.75 108 8.97898 108 7.46304C108 5.89203 107.061 5.17609 106.023 5.17609C105.236 5.17609 104.806 5.58768 104.615 5.99638H104.583V3.75H103V9.68623ZM104.55 7.46015C104.55 6.73261 104.887 6.28333 105.466 6.28333C106.052 6.28333 106.375 6.7442 106.375 7.46015C106.375 8.17899 106.052 8.64565 105.466 8.64565C104.887 8.64565 104.55 8.18188 104.55 7.46015Z" fill="#24292E"/>
<!-- 1 text -->
<path d="M106.5 21H105.072L103.5 21.9199V23.1738L104.925 22.3535H104.963V27H106.5V21Z" fill="#24292E"/>
<!-- 2 text -->
<path d="M102.337 44.5H106.75V43.3468H104.334V43.3092L105.047 42.6561C106.34 41.5376 106.677 40.9682 106.677 40.289C106.677 39.2225 105.801 38.5 104.448 38.5C103.129 38.5 102.247 39.2543 102.25 40.4595H103.615C103.615 39.9249 103.947 39.6156 104.442 39.6156C104.928 39.6156 105.28 39.9133 105.28 40.4017C105.28 40.8439 105.001 41.1445 104.512 41.5809L102.337 43.4711V44.5Z" fill="#24292E"/>

<!-- Arrow indicating transformation -->
<path d="M71.9067 30C72.6011 30 77.9327 26 77.9327 24C77.9327 22 72.7357 18 71.9067 18C71.0778 18 70.4023 18.5 70.4023 19.4756C70.4023 20.4512 73.9067 22.9206 73.9067 22.9206C73.9067 22.9206 66.2539 22.25 66 22.9206C65.7461 23.5911 65.7461 24.4089 66 25.0794C66.2539 25.75 73.9067 25.0794 73.9067 25.0794C73.9067 25.0794 70.4023 27.75 70.4023 28.5301C70.4023 29.3103 71.2124 30 71.9067 30Z" fill="#24292E"/>

<defs>
<linearGradient id="paint0_linear_sql" x1="0" y1="6.5" x2="28" y2="6.5" gradientUnits="userSpaceOnUse">
<stop stop-color="#F2CC0C"/>
<stop offset="1" stop-color="#FF9830"/>
</linearGradient>
<linearGradient id="paint1_linear_sql" x1="92" y1="6.5" x2="120" y2="6.5" gradientUnits="userSpaceOnUse">
<stop stop-color="#F2CC0C"/>
<stop offset="1" stop-color="#FF9830"/>
</linearGradient>
</defs>
</svg>

