<svg xmlns="http://www.w3.org/2000/svg" enable-background="new 0 0 24 24" viewBox="0 0 24 24"><path d="M3,7h18c0.6,0,1-0.4,1-1s-0.4-1-1-1H3C2.4,5,2,5.4,2,6S2.4,7,3,7z M3,11h10c0.6,0,1-0.4,1-1s-0.4-1-1-1H3c-0.6,0-1,0.4-1,1S2.4,11,3,11z M21,17H3c-0.6,0-1,0.4-1,1s0.4,1,1,1h18c0.6,0,1-0.4,1-1S21.6,17,21,17z M3,15h10c0.6,0,1-0.4,1-1s-0.4-1-1-1H3c-0.6,0-1,0.4-1,1S2.4,15,3,15z M21.8,9.7c-0.4-0.4-1-0.5-1.4-0.1l-2,1.7c0,0-0.1,0.1-0.1,0.1c-0.4,0.4-0.3,1.1,0.1,1.4l2,1.7c0.2,0.1,0.4,0.2,0.6,0.2c0.3,0,0.6-0.1,0.8-0.4c0.4-0.4,0.3-1.1-0.1-1.4L20.6,12l1.1-0.9C22.1,10.7,22.1,10.1,21.8,9.7z"/></svg>