<svg xmlns="http://www.w3.org/2000/svg" enable-background="new 0 0 24 24" viewBox="0 0 24 24"><path d="M19,4h-1V3c0-0.6-0.4-1-1-1s-1,0.4-1,1v1H8V3c0-0.6-0.4-1-1-1S6,2.4,6,3v1H5C3.3,4,2,5.3,2,7v1h20V7C22,5.3,20.7,4,19,4z M2,19c0,1.7,1.3,3,3,3h14c1.7,0,3-1.3,3-3v-9H2V19z M17,12c0.6,0,1,0.4,1,1s-0.4,1-1,1s-1-0.4-1-1S16.4,12,17,12z M17,16c0.6,0,1,0.4,1,1s-0.4,1-1,1s-1-0.4-1-1S16.4,16,17,16z M12,12c0.6,0,1,0.4,1,1s-0.4,1-1,1s-1-0.4-1-1S11.4,12,12,12z M12,16c0.6,0,1,0.4,1,1s-0.4,1-1,1s-1-0.4-1-1S11.4,16,12,16z M7,12c0.6,0,1,0.4,1,1s-0.4,1-1,1s-1-0.4-1-1S6.4,12,7,12z M7,16c0.6,0,1,0.4,1,1s-0.4,1-1,1s-1-0.4-1-1S6.4,16,7,16z"/></svg>