<?xml version="1.0" encoding="utf-8"?>
<!-- Generator: Adobe Illustrator 20.1.0, SVG Export Plug-In . SVG Version: 6.00 Build 0)  -->
<svg version="1.1" id="Layer_1" xmlns="http://www.w3.org/2000/svg" xmlns:xlink="http://www.w3.org/1999/xlink" x="0px" y="0px"
	 width="100px" height="100px" viewBox="0 0 100 100" enable-background="new 0 0 100 100" xml:space="preserve">
<g>
	<rect x="-0.2" y="-0.2" fill="#231F20" width="100.4" height="100.4"/>
	<rect x="50.7" y="0.9" fill="#CEE7C8" width="6.9" height="6.7"/>
	<rect x="50.7" y="9.2" fill="#1A83BD" width="6.9" height="6.7"/>
	<rect x="50.7" y="17.6" fill="#1A83BD" width="6.9" height="6.7"/>
	<rect x="50.7" y="25.9" fill="#1A83BD" width="6.9" height="6.7"/>
	<rect x="50.7" y="59.2" fill="#39A4CB" width="6.9" height="6.7"/>
	<rect x="50.7" y="67.5" fill="#0062A7" width="6.9" height="6.7"/>
	<rect x="50.7" y="75.8" fill="#0062A7" width="6.9" height="6.7"/>
	<rect x="50.7" y="92.5" fill="#1A83BD" width="6.9" height="6.7"/>
	<rect x="50.7" y="34.2" fill="#E3F1DC" width="6.9" height="6.7"/>
	<rect x="50.7" y="42.5" fill="#1A83BD" width="6.9" height="6.7"/>
	<rect x="0.8" y="0.9" fill="#60C0CB" width="6.9" height="6.7"/>
	<rect x="0.8" y="9.2" fill="#8CD0BC" width="6.9" height="6.7"/>
	<rect x="0.8" y="25.9" fill="#8CD0BC" width="6.9" height="6.7"/>
	<rect x="0.8" y="59.2" fill="#39A4CB" width="6.9" height="6.7"/>
	<rect x="0.8" y="67.5" fill="#B2DBB9" width="6.9" height="6.7"/>
	<rect x="0.8" y="75.8" fill="#8CD0BC" width="6.9" height="6.7"/>
	<rect x="0.8" y="84.2" fill="#8CD0BC" width="6.9" height="6.7"/>
	<rect x="0.8" y="92.5" fill="#3787A6" width="6.9" height="6.7"/>
	<rect x="0.8" y="34.2" fill="#39A4CB" width="6.9" height="6.7"/>
	<rect x="0.8" y="42.5" fill="#F7FAEF" width="6.9" height="6.7"/>
	<rect x="0.8" y="50.9" fill="#39A4CB" width="6.9" height="6.7"/>
	<rect x="9.1" y="0.9" fill="#8CD0BC" width="6.9" height="6.7"/>
	<rect x="9.1" y="9.2" fill="#1A83BD" width="6.9" height="6.7"/>
	<rect x="9.1" y="17.6" fill="#39A4CB" width="6.9" height="6.7"/>
	<rect x="9.1" y="25.9" fill="#1A83BD" width="6.9" height="6.7"/>
	<rect x="9.1" y="59.2" fill="#8CD0BC" width="6.9" height="6.7"/>
	<rect x="9.1" y="67.5" fill="#39A4CB" width="6.9" height="6.7"/>
	<rect x="9.1" y="75.8" fill="#39A4CB" width="6.9" height="6.7"/>
	<rect x="9.1" y="84.2" fill="#39A4CB" width="6.9" height="6.7"/>
	<rect x="9.1" y="92.5" fill="#1A83BD" width="6.9" height="6.7"/>
	<rect x="9.1" y="34.2" fill="#B2DBB9" width="6.9" height="6.7"/>
	<rect x="9.1" y="42.5" fill="#CEE7C8" width="6.9" height="6.7"/>
	<rect x="9.1" y="50.9" fill="#0062A7" width="6.9" height="6.7"/>
	<rect x="17.4" y="0.9" fill="#8CD0BC" width="6.9" height="6.7"/>
	<rect x="17.4" y="9.2" fill="#1A83BD" width="6.9" height="6.7"/>
	<rect x="17.4" y="17.6" fill="#39A4CB" width="6.9" height="6.7"/>
	<rect x="17.4" y="25.9" fill="#8CD0BC" width="6.9" height="6.7"/>
	<rect x="17.4" y="59.2" fill="#8CD0BC" width="6.9" height="6.7"/>
	<rect x="17.4" y="67.5" fill="#39A4CB" width="6.9" height="6.7"/>
	<rect x="17.4" y="75.8" fill="#60C0CB" width="6.9" height="6.7"/>
	<rect x="17.4" y="92.5" fill="#1A83BD" width="6.9" height="6.7"/>
	<rect x="17.4" y="34.2" fill="#60C0CB" width="6.9" height="6.7"/>
	<rect x="17.4" y="42.5" fill="#CEE7C8" width="6.9" height="6.7"/>
	<rect x="17.4" y="50.9" fill="#0062A7" width="6.9" height="6.7"/>
	<rect x="25.8" y="0.9" fill="#60C0CB" width="6.9" height="6.7"/>
	<rect x="25.8" y="9.2" fill="#60C0CB" width="6.9" height="6.7"/>
	<rect x="25.8" y="17.6" fill="#0062A7" width="6.9" height="6.7"/>
	<rect x="25.8" y="25.9" fill="#8CD0BC" width="6.9" height="6.7"/>
	<rect x="25.8" y="59.2" fill="#60C0CB" width="6.9" height="6.7"/>
	<rect x="25.8" y="67.5" fill="#0062A7" width="6.9" height="6.7"/>
	<rect x="25.8" y="75.8" fill="#8CD0BC" width="6.9" height="6.7"/>
	<rect x="25.8" y="84.2" fill="#60C0CB" width="6.9" height="6.7"/>
	<rect x="25.8" y="92.5" fill="#1A83BD" width="6.9" height="6.7"/>
	<rect x="25.8" y="34.2" fill="#1A83BD" width="6.9" height="6.7"/>
	<rect x="25.8" y="42.5" fill="#60C0CB" width="6.9" height="6.7"/>
	<rect x="25.8" y="50.9" fill="#8CD0BC" width="6.9" height="6.7"/>
	<rect x="34.1" y="0.9" fill="#1A83BD" width="6.9" height="6.7"/>
	<rect x="34.1" y="9.2" fill="#8CD0BC" width="6.9" height="6.7"/>
	<rect x="34.1" y="17.6" fill="#1A83BD" width="6.9" height="6.7"/>
	<rect x="34.1" y="25.9" fill="#60C0CB" width="6.9" height="6.7"/>
	<rect x="34.1" y="59.2" fill="#39A4CB" width="6.9" height="6.7"/>
	<rect x="34.1" y="67.5" fill="#1A83BD" width="6.9" height="6.7"/>
	<rect x="34.1" y="75.8" fill="#0062A7" width="6.9" height="6.7"/>
	<rect x="34.1" y="34.2" fill="#60C0CB" width="6.9" height="6.7"/>
	<rect x="34.1" y="42.5" fill="#0062A7" width="6.9" height="6.7"/>
	<rect x="34.1" y="50.9" fill="#1A83BD" width="6.9" height="6.7"/>
	<rect x="42.4" y="0.9" fill="#39A4CB" width="6.9" height="6.7"/>
	<rect x="42.4" y="9.2" fill="#1A83BD" width="6.9" height="6.7"/>
	<rect x="42.4" y="17.6" fill="#39A4CB" width="6.9" height="6.7"/>
	<rect x="42.4" y="25.9" fill="#39A4CB" width="6.9" height="6.7"/>
	<rect x="42.4" y="59.2" fill="#39A4CB" width="6.9" height="6.7"/>
	<rect x="42.4" y="67.5" fill="#60C0CB" width="6.9" height="6.7"/>
	<rect x="42.4" y="75.8" fill="#B2DBB9" width="6.9" height="6.7"/>
	<rect x="42.4" y="84.2" fill="#60C0CB" width="6.9" height="6.7"/>
	<rect x="42.4" y="92.5" fill="#0062A7" width="6.9" height="6.7"/>
	<rect x="33.9" y="92.5" fill="#0062A7" width="6.9" height="6.7"/>
	<rect x="42.4" y="42.5" fill="#60C0CB" width="6.9" height="6.7"/>
	<rect x="42.4" y="50.9" fill="#CEE7C8" width="6.9" height="6.7"/>
	<rect x="59" y="0.9" fill="#1A83BD" width="6.9" height="6.7"/>
	<rect x="59" y="9.2" fill="#60C0CB" width="6.9" height="6.7"/>
	<rect x="59" y="17.6" fill="#60C0CB" width="6.9" height="6.7"/>
	<rect x="59" y="25.9" fill="#8CD0BC" width="6.9" height="6.7"/>
	<rect x="59" y="59.2" fill="#0062A7" width="6.9" height="6.7"/>
	<rect x="59" y="67.5" fill="#0062A7" width="6.9" height="6.7"/>
	<rect x="59" y="84.2" fill="#0062A7" width="6.9" height="6.7"/>
	<rect x="59" y="92.5" fill="#1A83BD" width="6.9" height="6.7"/>
	<rect x="59" y="34.2" fill="#B2DBB9" width="6.9" height="6.7"/>
	<rect x="59" y="42.5" fill="#1A83BD" width="6.9" height="6.7"/>
	<rect x="59" y="50.9" fill="#0062A7" width="6.9" height="6.7"/>
	<rect x="67.3" y="0.9" fill="#8CD0BC" width="6.9" height="6.7"/>
	<rect x="67.3" y="9.2" fill="#39A4CB" width="6.9" height="6.7"/>
	<rect x="67.3" y="25.9" fill="#39A4CB" width="6.9" height="6.7"/>
	<rect x="67.3" y="59.2" fill="#60C0CB" width="6.9" height="6.7"/>
	<rect x="67.3" y="67.5" fill="#1A83BD" width="6.9" height="6.7"/>
	<rect x="67.3" y="75.8" fill="#39A4CB" width="6.9" height="6.7"/>
	<rect x="67.3" y="84.2" fill="#1A83BD" width="6.9" height="6.7"/>
	<rect x="67.3" y="92.5" fill="#39A4CB" width="6.9" height="6.7"/>
	<rect x="67.3" y="34.2" fill="#60C0CB" width="6.9" height="6.7"/>
	<rect x="67.3" y="50.9" fill="#60C0CB" width="6.9" height="6.7"/>
	<rect x="75.7" y="0.9" fill="#0062A7" width="6.9" height="6.7"/>
	<rect x="75.7" y="9.2" fill="#E3F1DC" width="6.9" height="6.7"/>
	<rect x="75.7" y="17.6" fill="#60C0CB" width="6.9" height="6.7"/>
	<rect x="75.7" y="25.9" fill="#39A4CB" width="6.9" height="6.7"/>
	<rect x="75.7" y="59.2" fill="#39A4CB" width="6.9" height="6.7"/>
	<rect x="75.7" y="67.5" fill="#1A83BD" width="6.9" height="6.7"/>
	<rect x="75.7" y="75.8" fill="#1A83BD" width="6.9" height="6.7"/>
	<rect x="75.7" y="92.5" fill="#39A4CB" width="6.9" height="6.7"/>
	<rect x="75.7" y="34.2" fill="#0062A7" width="6.9" height="6.7"/>
	<rect x="75.7" y="42.5" fill="#1A83BD" width="6.9" height="6.7"/>
	<rect x="75.7" y="50.9" fill="#60C0CB" width="6.9" height="6.7"/>
	<rect x="84" y="0.9" fill="#1A83BD" width="6.9" height="6.7"/>
	<rect x="84" y="9.2" fill="#B2DBB9" width="6.9" height="6.7"/>
	<rect x="84" y="17.6" fill="#1A83BD" width="6.9" height="6.7"/>
	<rect x="84" y="25.9" fill="#1A83BD" width="6.9" height="6.7"/>
	<rect x="84" y="59.2" fill="#39A4CB" width="6.9" height="6.7"/>
	<rect x="84" y="67.5" fill="#39A4CB" width="6.9" height="6.7"/>
	<rect x="84" y="84.2" fill="#60C0CB" width="6.9" height="6.7"/>
	<rect x="84" y="92.5" fill="#1A83BD" width="6.9" height="6.7"/>
	<rect x="84" y="34.2" fill="#8CD0BC" width="6.9" height="6.7"/>
	<rect x="84" y="42.5" fill="#0062A7" width="6.9" height="6.7"/>
	<rect x="84" y="50.9" fill="#1A83BD" width="6.9" height="6.7"/>
	<rect x="92.3" y="9.2" fill="#39A4CB" width="6.9" height="6.7"/>
	<rect x="92.3" y="17.6" fill="#60C0CB" width="6.9" height="6.7"/>
	<rect x="92.3" y="25.9" fill="#1A83BD" width="6.9" height="6.7"/>
	<rect x="92.3" y="59.2" fill="#39A4CB" width="6.9" height="6.7"/>
	<rect x="92.3" y="67.5" fill="#60C0CB" width="6.9" height="6.7"/>
	<rect x="92.3" y="75.8" fill="#0062A7" width="6.9" height="6.7"/>
	<rect x="92.3" y="84.2" fill="#1A83BD" width="6.9" height="6.7"/>
	<rect x="92.3" y="92.5" fill="#1A83BD" width="6.9" height="6.7"/>
	<rect x="92.3" y="34.2" fill="#1A83BD" width="6.9" height="6.7"/>
	<rect x="92.3" y="42.5" fill="#1A83BD" width="6.9" height="6.7"/>
	<rect x="92.3" y="50.9" fill="#0062A7" width="6.9" height="6.7"/>
</g>
</svg>
