<?xml version="1.0" encoding="utf-8"?>
<!-- Generator: Adobe Illustrator 20.1.0, SVG Export Plug-In . SVG Version: 6.00 Build 0)  -->
<svg version="1.1" id="Layer_1" xmlns="http://www.w3.org/2000/svg" xmlns:xlink="http://www.w3.org/1999/xlink" x="0px" y="0px"
	 width="100px" height="100px" viewBox="0 0 100 100" enable-background="new 0 0 100 100" xml:space="preserve">
<g>
	<path d="M-0.2-0.2v100.4h100.4V-0.2H-0.2z M13.7,1.4H24v10H13.7V1.4z M13.7,13.9H24v10H13.7V13.9z M13.7,26.3H24v10H13.7V26.3z
		 M13.7,38.8H24v10H13.7V38.8z M11.7,98.5H1.3v-10h10.4V98.5z M11.7,86.1H1.3v-10h10.4V86.1z M11.7,73.6H1.3v-10h10.4V73.6z
		 M11.7,61.2H1.3v-10h10.4V61.2z M11.7,48.8H1.3v-10h10.4V48.8z M11.7,36.3H1.3v-10h10.4V36.3z M11.7,23.9H1.3v-10h10.4V23.9z
		 M11.7,11.4H1.3v-10h10.4V11.4z M24,98.5H13.7v-10H24V98.5z M24,86.1H13.7v-10H24V86.1z M24,73.6H13.7v-10H24V73.6z M24.1,61.2
		H13.8v-10h10.4V61.2z M36.5,98.5H26.1v-10h10.4V98.5z M36.5,86.1H26.1v-10h10.4V86.1z M36.5,73.6H26.1v-10h10.4V73.6z M36.5,61.2
		H26.1v-10h10.4V61.2z M36.5,48.8H26.1v-10h10.4V48.8z M36.5,36.3H26.1v-10h10.4V36.3z M36.5,23.9H26.1v-10h10.4V23.9z M36.5,11.4
		H26.1v-10h10.4V11.4z M48.9,98.5H38.5v-10h10.4V98.5z M48.9,86.1H38.5v-10h10.4V86.1z M48.9,73.6H38.5v-10h10.4V73.6z M48.9,61.2
		H38.5v-10h10.4V61.2z M48.9,48.8H38.5v-10h10.4V48.8z M48.9,36.3H38.5v-10h10.4V36.3z M48.9,23.9H38.5v-10h10.4V23.9z M48.9,11.4
		H38.5v-10h10.4V11.4z M50.9,26.3h10.4v10H50.9V26.3z M51,63.6h10.4v10H51V63.6z M61.3,98.5H51v-10h10.4V98.5z M61.3,86.1H51v-10
		h10.4V86.1z M61.3,61.2H51v-10h10.4V61.2z M61.3,48.8H51v-10h10.4V48.8z M61.3,23.9H51v-10h10.4V23.9z M61.3,11.4H51v-10h10.4V11.4
		z M73.8,98.5H63.4v-10h10.4V98.5z M73.8,86.1H63.4v-10h10.4V86.1z M73.8,73.6H63.4v-10h10.4V73.6z M73.8,61.2H63.4v-10h10.4V61.2z
		 M73.8,48.8H63.4v-10h10.4V48.8z M73.8,36.3H63.4v-10h10.4V36.3z M73.8,23.9H63.4v-10h10.4V23.9z M73.8,11.4H63.4v-10h10.4V11.4z
		 M86.2,98.5H75.8v-10h10.4V98.5z M86.2,86.1H75.8v-10h10.4V86.1z M86.2,73.6H75.8v-10h10.4V73.6z M86.2,61.2H75.8v-10h10.4V61.2z
		 M86.2,48.8H75.8v-10h10.4V48.8z M86.2,36.3H75.8v-10h10.4V36.3z M86.2,23.9H75.8v-10h10.4V23.9z M86.2,11.4H75.8v-10h10.4V11.4z
		 M98.6,98.5H88.3v-10h10.4V98.5z M98.6,86.1H88.3v-10h10.4V86.1z M98.6,73.6H88.3v-10h10.4V73.6z M98.6,61.2H88.3v-10h10.4V61.2z
		 M98.6,48.8H88.3v-10h10.4V48.8z M98.6,36.3H88.3v-10h10.4V36.3z M98.6,23.9H88.3v-10h10.4V23.9z M98.6,11.4H88.3v-10h10.4V11.4z"
		/>
	<rect x="26.1" y="1.4" fill="#0062A7" width="10.4" height="10"/>
	<rect x="26.1" y="13.9" fill="#1A83BD" width="10.4" height="10"/>
	<rect x="26.1" y="26.3" fill="#B2DBB9" width="10.4" height="10"/>
	<rect x="26.1" y="38.8" fill="#B2DBB9" width="10.4" height="10"/>
	<rect x="26.1" y="88.5" fill="#0062A7" width="10.4" height="10"/>
	<rect x="26.1" y="51.2" fill="#E3F1DC" width="10.4" height="10"/>
	<rect x="13.8" y="51.2" fill="#E3F1DC" width="10.4" height="10"/>
	<rect x="26.1" y="63.6" fill="#60C0CB" width="10.4" height="10"/>
	<rect x="26.1" y="76.1" fill="#1A83BD" width="10.4" height="10"/>
	<rect x="1.3" y="1.4" fill="#1A83BD" width="10.4" height="10"/>
	<rect x="1.3" y="13.9" fill="#39A4CB" width="10.4" height="10"/>
	<rect x="1.3" y="26.3" fill="#39A4CB" width="10.4" height="10"/>
	<rect x="1.3" y="38.8" fill="#60C0CB" width="10.4" height="10"/>
	<rect x="1.3" y="88.5" fill="#0062A7" width="10.4" height="10"/>
	<rect x="1.3" y="51.2" fill="#8CD0BC" width="10.4" height="10"/>
	<rect x="1.3" y="63.6" fill="#0062A7" width="10.4" height="10"/>
	<rect x="1.3" y="76.1" fill="#1A83BD" width="10.4" height="10"/>
	<rect x="13.7" y="1.4" fill="#1A83BD" width="10.4" height="10"/>
	<rect x="13.7" y="13.9" fill="#1A83BD" width="10.4" height="10"/>
	<rect x="13.7" y="26.3" fill="#39A4CB" width="10.4" height="10"/>
	<rect x="13.7" y="38.8" fill="#60C0CB" width="10.4" height="10"/>
	<rect x="13.7" y="88.5" fill="#1A83BD" width="10.4" height="10"/>
	<rect x="13.7" y="63.6" fill="#60C0CB" width="10.4" height="10"/>
	<rect x="13.7" y="76.1" fill="#60C0CB" width="10.4" height="10"/>
	<rect x="38.5" y="1.4" fill="#1A83BD" width="10.4" height="10"/>
	<rect x="38.5" y="13.9" fill="#60C0CB" width="10.4" height="10"/>
	<rect x="38.5" y="26.3" fill="#8CD0BC" width="10.4" height="10"/>
	<rect x="38.5" y="38.8" fill="#8CD0BC" width="10.4" height="10"/>
	<rect x="38.5" y="88.5" fill="#0062A7" width="10.4" height="10"/>
	<rect x="38.5" y="51.2" fill="#B2DBB9" width="10.4" height="10"/>
	<rect x="38.5" y="63.6" fill="#8CD0BC" width="10.4" height="10"/>
	<rect x="38.5" y="76.1" fill="#0062A7" width="10.4" height="10"/>
	<rect x="51" y="1.4" fill="#0062A7" width="10.4" height="10"/>
	<rect x="51" y="13.9" fill="#39A4CB" width="10.4" height="10"/>
	<rect x="51" y="38.8" fill="#8CD0BC" width="10.4" height="10"/>
	<rect x="51" y="88.5" fill="#1A83BD" width="10.4" height="10"/>
	<rect x="51" y="51.2" fill="#E3F1DC" width="10.4" height="10"/>
	<rect x="51" y="76.1" fill="#8CD0BC" width="10.4" height="10"/>
	<rect x="63.4" y="1.4" fill="#0062A7" width="10.4" height="10"/>
	<rect x="63.4" y="13.9" fill="#39A4CB" width="10.4" height="10"/>
	<rect x="63.4" y="26.3" fill="#60C0CB" width="10.4" height="10"/>
	<rect x="50.9" y="26.3" fill="#60C0CB" width="10.4" height="10"/>
	<rect x="63.4" y="38.8" fill="#B2DBB9" width="10.4" height="10"/>
	<rect x="63.4" y="88.5" fill="#0062A7" width="10.4" height="10"/>
	<rect x="63.4" y="51.2" fill="#E3F1DC" width="10.4" height="10"/>
	<rect x="63.4" y="63.6" fill="#39A4CB" width="10.4" height="10"/>
	<rect x="63.4" y="76.1" fill="#39A4CB" width="10.4" height="10"/>
	<rect x="75.8" y="1.4" fill="#1A83BD" width="10.4" height="10"/>
	<rect x="75.8" y="13.9" fill="#39A4CB" width="10.4" height="10"/>
	<rect x="75.8" y="26.3" fill="#60C0CB" width="10.4" height="10"/>
	<rect x="75.8" y="38.8" fill="#8CD0BC" width="10.4" height="10"/>
	<rect x="75.8" y="88.5" fill="#0062A7" width="10.4" height="10"/>
	<rect x="75.8" y="51.2" fill="#E3F1DC" width="10.4" height="10"/>
	<rect x="51" y="63.6" fill="#8CD0BC" width="10.4" height="10"/>
	<rect x="75.8" y="63.6" fill="#60C0CB" width="10.4" height="10"/>
	<rect x="75.8" y="76.1" fill="#1A83BD" width="10.4" height="10"/>
	<rect x="88.3" y="13.9" fill="#39A4CB" width="10.4" height="10"/>
	<rect x="88.3" y="26.3" fill="#39A4CB" width="10.4" height="10"/>
	<rect x="88.3" y="38.8" fill="#1A83BD" width="10.4" height="10"/>
	<rect x="88.3" y="88.5" fill="#1A83BD" width="10.4" height="10"/>
	<rect x="88.3" y="51.2" fill="#8CD0BC" width="10.4" height="10"/>
	<rect x="88.3" y="63.6" fill="#1A83BD" width="10.4" height="10"/>
	<rect x="88.3" y="76.1" fill="#0062A7" width="10.4" height="10"/>
	<rect x="88.3" y="1.4" fill="#0062A7" width="10.4" height="10"/>
</g>
</svg>
