<svg viewBox="0 0 269 196" fill="none" xmlns="http://www.w3.org/2000/svg">
  <path d="M190.886 173.235C237.118 175.202 274.318 140.851 259.601 84.308C249.806 46.8174 221.186 14.007 191.104 10.9849C161.022 7.9629 79.5466 4.64546 31.9694 53.4698C-15.6077 102.294 18.1404 168.354 54.3243 184.766C90.5082 201.179 144.653 171.267 190.886 173.235Z" fill="#9087E9" fill-opacity="0.3"/>
  <path opacity="0.3" d="M127.931 164.331C156.997 164.331 180.56 161.565 180.56 158.152C180.56 154.739 156.997 151.973 127.931 151.973C98.8654 151.973 75.3027 154.739 75.3027 158.152C75.3027 161.565 98.8654 164.331 127.931 164.331Z" fill="black"/>
  <path d="M151.419 40.8042C164.809 31.4686 181.942 29.3738 184.956 32.7236C187.401 35.4389 178.166 50.3077 179.663 54.6536C181.156 58.9994 194.255 56.1885 195.689 61.7124C196.368 64.339 186.319 70.6724 186.589 74.3394C186.86 78.0065 194.618 76.9708 195.188 81.7155C195.57 84.9067 188.49 85.6112 188.759 89.4112C189.029 93.2135 194.14 92.5184 193.919 96.2018C193.737 99.19 188.147 97.2212 186.652 102.246C185.159 107.271 151.414 40.7995 151.414 40.7995H151.419V40.8042Z" fill="#EE6224"/>
  <path d="M211.16 129.971C210.751 117.68 202.174 114.953 195.943 117.052C189.717 119.152 190.062 126.388 191.635 129.113C194.147 133.458 197.835 131.583 196.456 128.539C195.437 125.618 195.246 121.564 200.072 122.854C206.07 124.459 204.203 140.587 191.574 137.417C182.924 135.248 183.603 126.087 184.291 112.73C186.134 99.8065 184.14 82.8616 178.644 66.7774C167.507 34.1869 100.427 23.5963 78.1592 53.7398C49.2311 92.8969 81.1311 131.144 86.0368 136.029C101.321 147.889 98.8412 158.622 109.793 159.333C120.2 160.012 119.343 149.438 126.227 148.845C126.631 148.845 127.037 148.845 127.44 148.836C135.521 149.431 137.079 159.508 149.265 159.331C159.196 159.188 154.775 150.513 161.41 146.354C162.8 145.696 164.006 145.232 165.119 144.928C165.996 144.744 166.968 144.609 168.069 144.541C168.321 144.525 169.852 144.532 170.3 144.532C174.24 144.604 176.605 145.535 185.511 147.347C201.558 150.609 211.505 140.368 211.16 129.969V129.971Z" fill="#F9C213" stroke="#38170F" stroke-width="2.19422" stroke-miterlimit="10"/>
  <path d="M167.355 49.1243C144.544 32.9631 117.995 41.7902 114.601 44.0319C111.207 46.2737 106.399 43.6097 109.1 36.8798C118.153 14.3387 141.513 2.87331 147.802 6.75497C154.833 11.0962 145.99 30.4601 150.583 34.9996C154.271 38.641 156.783 35.8604 163.056 33.7563C168.72 31.8551 167.355 49.1243 167.355 49.1243Z" fill="#EE6224"/>
  <path d="M133.194 93.2719H70.6951C63.1861 93.2719 57.0977 87.1834 57.0977 79.6744V79.6697C57.0977 72.1607 63.1861 66.0723 70.6951 66.0723H133.194C140.703 66.0723 146.791 72.1607 146.791 79.6697V79.6744C146.791 87.1834 140.703 93.2719 133.194 93.2719Z" fill="#5545EF" stroke="#231735" stroke-width="2.19422" stroke-miterlimit="10"/>
  <path d="M118.785 88.6966H71.3585C66.3782 88.6966 62.3379 84.6586 62.3379 79.6759C62.3379 74.6932 66.3758 70.6553 71.3585 70.6553H118.785C123.768 70.6553 127.806 74.6932 127.806 79.6759C127.806 84.6586 123.768 88.6966 118.785 88.6966Z" fill="#1C0F2D"/>
  <path d="M159.273 36.2856C170.771 30.8737 181.987 28.0045 184.959 32.7236C188.171 37.8276 177.221 48.6678 179.666 54.6535C181.95 60.2497 194.852 55.4467 195.692 61.7124C196.361 66.7277 186.321 70.6724 186.592 74.3394C186.863 78.0064 194.719 76.5112 195.291 81.2606C195.673 84.4518 188.493 85.6111 188.766 89.4135C189.037 93.2158 193.926 92.516 193.926 96.204C193.926 99.2039 185.162 99.4629 184.915 105.705" stroke="#38170F" stroke-width="2.19422" stroke-miterlimit="10"/>
  <path d="M114.601 44.0325C111.207 46.2743 106.399 43.6103 109.1 36.8804C118.153 14.3393 140.823 2.83194 147.802 6.75559C155.127 10.8728 145.99 30.4608 150.583 35.0002C153.149 37.5382 156.522 37.4286 159.611 36.1293" stroke="#38170F" stroke-width="2.19422" stroke-miterlimit="10"/>
  <path d="M114.467 44.133C126.669 36.8992 148.245 36.5166 167.385 50.8302" stroke="#38170F" stroke-width="2.19422" stroke-miterlimit="10"/>
  <path d="M69.666 86.4961H79.6408" stroke="#5BBA47" stroke-width="2.19422" stroke-linecap="round" stroke-linejoin="round"/>
  <path d="M69.666 82.2236H79.6408" stroke="#5BBA47" stroke-width="2.19422" stroke-linecap="round" stroke-linejoin="round"/>
  <path d="M69.666 77.9531H79.6408" stroke="#5BBA47" stroke-width="2.19422" stroke-linecap="round" stroke-linejoin="round"/>
  <path d="M110.295 86.4961H120.27" stroke="#5BBA47" stroke-width="2.19422" stroke-linecap="round" stroke-linejoin="round"/>
  <path d="M110.295 82.2236H120.27" stroke="#5BBA47" stroke-width="2.19422" stroke-linecap="round" stroke-linejoin="round"/>
  <path d="M110.295 77.9531H120.27" stroke="#5BBA47" stroke-width="2.19422" stroke-linecap="round" stroke-linejoin="round"/>
  <path d="M96.752 86.4951H106.729" stroke="#5BBA47" stroke-width="2.19422" stroke-linecap="round" stroke-linejoin="round"/>
  <path d="M96.752 82.2246H106.729" stroke="#5BBA47" stroke-width="2.19422" stroke-linecap="round" stroke-linejoin="round"/>
  <path d="M83.2129 86.4961H93.1876" stroke="#5BBA47" stroke-width="2.19422" stroke-linecap="round" stroke-linejoin="round"/>
  <path d="M83.2129 82.2246H93.1876" stroke="#5BBA47" stroke-width="2.19422" stroke-linecap="round" stroke-linejoin="round"/>
  <path d="M83.2129 77.9521H93.1876" stroke="#5BBA47" stroke-width="2.19422" stroke-linecap="round" stroke-linejoin="round"/>
  <path d="M83.2129 73.6816H93.1876" stroke="#5BBA47" stroke-width="2.19422" stroke-linecap="round" stroke-linejoin="round"/>
  <path d="M143.089 23.8493C143.072 23.5039 143.016 23.1376 142.915 22.7062C142.815 22.2747 142.651 21.8188 142.423 21.3205C142.194 20.8435 141.88 20.3217 141.479 19.8403C141.333 19.6434 141.164 19.4474 140.973 19.2717C141.272 18.1572 140.664 17.1785 140.664 17.1785C139.59 17.0952 138.916 17.4714 138.654 17.6602C138.612 17.6387 138.569 17.6148 138.525 17.6147C138.354 17.5477 138.161 17.4579 137.97 17.4117C137.777 17.3437 137.584 17.297 137.392 17.229C137.198 17.1823 136.985 17.1371 136.77 17.0893C136.727 17.0892 136.706 17.0881 136.664 17.0667C136.216 15.5735 134.893 14.9283 134.893 14.9283C133.393 15.8495 133.068 17.1778 133.068 17.1778C133.068 17.1778 133.067 17.1991 133.046 17.263C132.959 17.2821 132.874 17.3038 132.787 17.3228C132.679 17.3647 132.548 17.4051 132.442 17.4256C132.334 17.4675 132.203 17.5078 132.095 17.5497C131.879 17.6528 131.639 17.7563 131.422 17.8614C131.205 17.9879 130.987 18.1123 130.792 18.2377C130.771 18.2153 130.749 18.2163 130.749 18.2163C128.697 17.4063 126.851 18.3439 126.851 18.3439C126.641 20.5349 127.607 21.9517 127.818 22.2122C127.772 22.3411 127.726 22.4893 127.683 22.6187C127.524 23.112 127.407 23.6246 127.312 24.1622C127.31 24.2481 127.288 24.3115 127.287 24.3978C125.336 25.2676 124.743 27.1956 124.743 27.1956C126.304 29.0521 128.173 29.2131 128.173 29.2131C128.402 29.6469 128.674 30.0396 128.97 30.4319C129.096 30.5846 129.224 30.7378 129.371 30.8915C128.762 32.5391 129.404 33.9475 129.404 33.9475C131.188 34.0417 132.365 33.2224 132.605 33.0325C132.776 33.0995 132.969 33.1461 133.142 33.1918C133.678 33.351 134.236 33.425 134.795 33.4777C134.924 33.48 135.075 33.4814 135.204 33.4837L135.268 33.4849L135.311 33.485L135.397 33.4873L135.483 33.4895C136.302 34.7094 137.762 34.8836 137.762 34.8836C138.835 33.805 138.896 32.7081 138.9 32.4714L138.901 32.4501L138.901 32.4069L138.901 32.3638C139.12 32.216 139.337 32.0484 139.533 31.8798C139.949 31.4989 140.343 31.0758 140.653 30.6291C140.674 30.587 140.719 30.5444 140.741 30.5023C141.922 30.587 142.777 29.8049 142.777 29.8049C142.603 28.5754 141.903 27.9602 141.755 27.8298L141.735 27.8074L141.713 27.8064C141.713 27.8064 141.692 27.8053 141.693 27.784C141.694 27.7195 141.718 27.6347 141.719 27.5702C141.721 27.4412 141.745 27.3133 141.746 27.1625L141.748 27.0548L141.748 27.0116L141.749 26.9903L141.749 26.9471L141.751 26.8613L141.753 26.7536L141.754 26.646L141.755 26.5383L141.756 26.4306L141.736 26.3219C141.717 26.1918 141.697 26.042 141.657 25.9108C141.536 25.3707 141.351 24.8725 141.08 24.4153C140.809 23.958 140.47 23.5443 140.088 23.1929C139.706 22.8416 139.281 22.5764 138.834 22.3534C138.386 22.1517 137.914 21.9936 137.441 21.9411C137.206 21.9162 136.968 21.8907 136.732 21.8851L136.646 21.8828L136.625 21.8818C136.625 21.8818 136.582 21.8817 136.603 21.8807L136.56 21.8806L136.474 21.8783L136.389 21.8761C136.258 21.8951 136.151 21.8938 136.023 21.9133C135.547 21.9919 135.115 22.1569 134.703 22.3855C134.312 22.6151 133.962 22.8895 133.677 23.2301C133.392 23.5488 133.171 23.9099 133.013 24.2955C132.855 24.6811 132.762 25.0659 132.736 25.4523L132.732 25.7321L132.731 25.7966L132.729 25.8824L132.726 26.0114C132.744 26.206 132.784 26.3996 132.825 26.5719C132.926 26.9388 133.071 27.2647 133.281 27.5273C133.471 27.8106 133.724 28.0301 133.978 28.2283C134.234 28.4052 134.511 28.5379 134.789 28.6295C135.066 28.7211 135.325 28.7456 135.583 28.7503L135.669 28.7525L135.712 28.7526L135.755 28.7527L135.841 28.755L135.862 28.756L135.884 28.7571L135.927 28.7572C135.97 28.7573 135.991 28.7584 136.014 28.7381C136.035 28.7392 136.079 28.718 136.101 28.719C136.166 28.6989 136.209 28.699 136.273 28.6783C136.381 28.6364 136.49 28.5971 136.598 28.5552C136.706 28.5133 136.793 28.451 136.88 28.3867C136.902 28.3665 136.923 28.3437 136.945 28.3447C137.032 28.2825 137.056 28.1525 136.97 28.066C136.907 27.979 136.799 27.9559 136.712 28.0181C136.689 28.0384 136.668 28.0393 136.647 28.0601C136.583 28.1021 136.496 28.1212 136.408 28.1423C136.321 28.1614 136.236 28.183 136.149 28.2021C136.106 28.202 136.062 28.2212 136.019 28.2211L135.955 28.2199L135.89 28.2188L135.826 28.2176L135.74 28.2153L135.718 28.2143L135.675 28.2142L135.611 28.213C135.418 28.1882 135.204 28.1211 135.011 28.0312C134.82 27.9419 134.626 27.8089 134.458 27.6561C134.289 27.5033 134.14 27.3059 134.036 27.1111C133.933 26.895 133.85 26.6775 133.811 26.4194C133.792 26.2893 133.793 26.1816 133.796 26.0526L133.797 25.945L133.798 25.9236L133.799 25.9023L133.799 25.8591C133.801 25.7946 133.823 25.7312 133.824 25.6667C133.92 25.151 134.207 24.6402 134.622 24.2593C134.731 24.1529 134.841 24.0684 134.95 24.0072C135.06 23.9226 135.19 23.8605 135.32 23.7983C135.45 23.7362 135.579 23.6954 135.732 23.6541C135.861 23.6133 136.013 23.5933 136.163 23.5967L136.378 23.6013L136.421 23.6014L136.486 23.6026L136.529 23.6027L136.55 23.6038L136.615 23.605C136.764 23.6297 136.937 23.654 137.087 23.6767C137.387 23.746 137.687 23.8585 137.964 24.0364C138.518 24.347 138.983 24.851 139.275 25.4368C139.421 25.7413 139.524 26.0438 139.561 26.3664C139.58 26.4533 139.58 26.5396 139.579 26.6041L139.577 26.6686L139.576 26.7331L139.575 26.7976L139.574 26.8621L139.574 26.9052L139.573 26.9697L139.569 27.1201C139.567 27.2059 139.545 27.2912 139.543 27.377C139.541 27.4628 139.519 27.5481 139.495 27.6349C139.471 27.7217 139.45 27.8069 139.426 27.8917C139.381 28.0637 139.314 28.2347 139.245 28.4052C139.11 28.7253 138.932 29.0454 138.712 29.344C138.271 29.9173 137.705 30.3811 137.031 30.671C136.705 30.8155 136.359 30.9182 135.993 30.9768C135.819 30.9956 135.627 31.014 135.454 31.0328L135.41 31.0327L135.389 31.0317L135.325 31.0305L135.239 31.0283L135.196 31.0282L135.174 31.0271C135.088 31.0248 134.981 31.0236 134.895 31.002C134.51 30.9737 134.123 30.8803 133.758 30.7666C133.394 30.653 133.032 30.4967 132.712 30.3187C132.051 29.9423 131.436 29.4369 130.972 28.8253C130.741 28.5206 130.532 28.1935 130.365 27.8685C130.198 27.5218 130.076 27.1756 129.975 26.8066C129.873 26.4397 129.836 26.0719 129.799 25.7062L129.8 25.6417L129.801 25.6203L129.802 25.599L129.804 25.5777L129.805 25.5132L129.806 25.4919L129.807 25.4705L129.807 25.4274L129.809 25.3415L129.81 25.3202L129.81 25.277L129.813 25.148C129.816 24.9545 129.84 24.7834 129.865 24.589C129.89 24.3966 129.937 24.2032 129.961 24.0301C130.008 23.8367 130.053 23.6666 130.102 23.4738C130.215 23.1094 130.35 22.7461 130.507 22.427C130.818 21.765 131.239 21.1693 131.741 20.7043C131.872 20.5776 132.002 20.4723 132.135 20.3675C132.267 20.2627 132.396 20.1787 132.548 20.0724C132.68 19.9889 132.831 19.904 132.983 19.8216C133.048 19.7796 133.135 19.7605 133.199 19.7185C133.244 19.6973 133.285 19.6776 133.307 19.6766C133.351 19.6554 133.393 19.6357 133.415 19.6347C133.566 19.5736 133.74 19.5116 133.891 19.4698C133.935 19.4486 133.978 19.4507 134.02 19.429C134.064 19.4077 134.107 19.4099 134.149 19.3881C134.236 19.3691 134.321 19.3474 134.387 19.3273C134.431 19.306 134.474 19.3082 134.517 19.3083C134.56 19.3084 134.604 19.2892 134.647 19.2893C134.69 19.2894 134.734 19.2702 134.777 19.2703L134.842 19.2502L134.907 19.2513C134.95 19.2515 134.994 19.2323 135.037 19.2324C135.08 19.2325 135.124 19.2133 135.188 19.2145C135.232 19.2146 135.297 19.1944 135.34 19.1965L135.426 19.1988L135.49 19.2L135.511 19.201L135.555 19.2011L135.705 19.2045L135.769 19.2057L135.791 19.2068L135.812 19.2079L135.941 19.2102L136.414 19.2174C136.736 19.2446 137.038 19.2713 137.338 19.3406C137.939 19.4578 138.516 19.6619 139.027 19.9293C139.538 20.1966 140.007 20.505 140.389 20.8564C140.409 20.8788 140.432 20.8997 140.452 20.9221C140.473 20.9445 140.495 20.9654 140.516 20.9878C140.559 21.031 140.599 21.0758 140.664 21.1202C140.707 21.1634 140.747 21.2082 140.79 21.2515C140.833 21.2948 140.874 21.3396 140.917 21.3828C141.087 21.5575 141.233 21.7544 141.381 21.9492C141.654 22.3207 141.885 22.6899 142.051 23.058C142.071 23.0804 142.072 23.1023 142.093 23.1226C142.114 23.143 142.114 23.1669 142.113 23.1882C142.134 23.2324 142.154 23.2741 142.175 23.3184C142.197 23.3626 142.216 23.4043 142.237 23.4485C142.259 23.4928 142.278 23.5345 142.3 23.5787C142.362 23.752 142.423 23.9035 142.465 24.0545C142.547 24.2934 142.607 24.5094 142.646 24.703C142.666 24.7685 142.73 24.8342 142.817 24.8131C142.903 24.8153 142.969 24.752 142.971 24.6662C143.106 24.346 143.111 24.1099 143.093 23.8503L143.089 23.8493Z" fill="#FAC20C" fill-opacity="0.5"/>
  <path d="M49.6318 167.102C49.9857 160.328 54.1058 159.882 54.2811 159.867C54.3754 159.859 54.4713 159.869 54.5622 159.897L56.3717 160.469C56.9357 159.222 58.1448 155.804 56.7554 151.74C55.8193 149.002 55.8523 146.884 56.8497 145.446C57.9926 143.8 59.9476 143.738 60.0303 143.737C60.0931 143.737 60.1543 143.742 60.2139 143.757L64.5407 144.792L58.5119 118.195C57.422 114.096 57.6453 111.126 59.1752 109.371C60.7332 107.585 63.0438 107.765 63.3647 107.8L115.736 110.486C116.313 110.486 116.836 110.636 117.283 110.841C120.402 112.274 122.152 117.48 122.761 119.651C123.963 123.949 124.233 128.535 123.465 131.624C123.285 132.352 122.734 134.565 121.214 134.602C121.064 134.605 120.901 134.59 120.728 134.542L112.549 133.175C113.369 138.274 114.489 143.705 115.514 148.678C118.339 162.368 119.578 168.976 116.891 169.571C116.548 169.648 116.196 169.646 115.835 169.578C115.311 169.648 113.192 169.904 110.395 169.904C107.994 169.904 105.094 169.712 102.274 169.054C104.362 174.479 105.587 177.89 104.61 179.519C104.314 180.014 103.832 180.315 103.217 180.389C103.063 180.407 102.911 180.415 102.759 180.415C102.159 180.61 99.552 181.384 95.9248 181.384C94.4842 181.384 92.8815 181.261 91.1812 180.932C90.8554 184.842 90.9017 188.757 90.9033 188.825C90.9066 189.061 90.7958 189.286 90.6056 189.424C90.4799 189.515 90.3311 189.562 90.1806 189.562C90.1012 189.562 90.0234 189.549 89.9457 189.522L49.7095 175.687C49.4052 175.582 49.205 175.287 49.2216 174.962C49.2216 174.962 49.3026 173.325 49.6284 167.101L49.6318 167.102Z" fill="white"/>
  <path d="M49.6318 167.102C49.9857 160.328 54.1058 159.882 54.2811 159.867C54.3754 159.859 54.4713 159.869 54.5622 159.897L56.3717 160.469C56.9357 159.222 58.1448 155.804 56.7554 151.74C55.8193 149.002 55.8523 146.884 56.8497 145.446C57.9926 143.8 59.9476 143.738 60.0303 143.737C60.0931 143.737 60.1543 143.742 60.2139 143.757L64.5407 144.792L58.5119 118.195C57.422 114.096 57.6453 111.126 59.1752 109.371C60.7332 107.585 63.0438 107.765 63.3647 107.8L115.736 110.486C116.313 110.486 116.836 110.636 117.283 110.841C120.402 112.274 122.152 117.48 122.761 119.651C123.963 123.949 124.233 128.535 123.465 131.624C123.285 132.352 122.734 134.565 121.214 134.602C121.064 134.605 120.903 134.59 120.728 134.542L112.549 133.175C113.369 138.274 114.489 143.705 115.514 148.678C118.339 162.368 119.578 168.976 116.891 169.571C116.548 169.648 116.196 169.646 115.835 169.578C115.311 169.648 113.192 169.904 110.395 169.904C107.994 169.904 105.094 169.712 102.274 169.054C104.362 174.479 105.587 177.89 104.61 179.519C104.314 180.014 103.832 180.315 103.217 180.389C103.063 180.407 102.911 180.415 102.759 180.415C102.159 180.61 99.552 181.384 95.9248 181.384C94.4842 181.384 92.8815 181.261 91.1812 180.932C90.8554 184.842 90.9017 188.757 90.9033 188.825C90.9066 189.061 90.7958 189.286 90.6056 189.424C90.4799 189.515 90.3311 189.562 90.1806 189.562C90.1012 189.562 90.0234 189.549 89.9457 189.522L49.7095 175.687C49.4052 175.582 49.205 175.287 49.2216 174.962C49.2216 174.962 49.3026 173.325 49.6284 167.101L49.6318 167.102ZM121.116 133.132L121.193 133.145C121.302 133.117 121.69 132.758 122.061 131.272C122.772 128.414 122.506 124.113 121.366 120.047C120.232 115.991 118.435 112.97 116.679 112.164C116.373 112.023 116.065 111.953 115.756 111.953C114.767 111.953 113.765 112.671 112.766 114.101C111.669 115.67 111.284 118.461 111.358 121.969L115.781 122.622C116.059 122.664 116.287 122.862 116.368 123.133C116.376 123.159 117.162 125.774 118.22 128.351C119.902 132.441 120.868 133.042 121.115 133.132H121.116ZM118.798 132.745C118.244 131.895 117.61 130.668 116.887 128.908C116.05 126.875 115.395 124.865 115.122 123.995L111.416 123.447C111.548 125.942 111.874 128.732 112.314 131.661L118.798 132.743V132.745ZM115.974 168.128C116.004 168.133 116.034 168.14 116.062 168.148C116.246 168.183 116.419 168.186 116.58 168.15C116.588 168.148 117.329 167.837 116.667 162.752C116.199 159.158 115.179 154.21 114.097 148.972C111.161 134.746 107.835 118.622 111.581 113.264C112.003 112.661 112.422 112.177 112.832 111.793L63.2655 109.251C63.2489 109.251 63.2291 109.248 63.2125 109.246C63.1943 109.245 61.375 109.04 60.2519 110.342C59.0842 111.695 58.9668 114.285 59.9112 117.834C59.9129 117.843 59.9162 117.853 59.9178 117.861L66.1086 145.17L100.554 153.415C102.905 153.662 105.606 157.045 108.713 160.94C111.138 163.979 114.095 167.679 115.973 168.13L115.974 168.128ZM113.449 168.339C111.616 166.895 109.636 164.414 107.587 161.849C104.969 158.569 102.003 154.854 100.285 154.854H100.281C100.071 154.854 99.7868 154.907 99.466 155.314C97.9708 157.209 99.8116 162.582 101.641 167.395C105.92 168.584 110.695 168.52 113.449 168.341V168.339ZM103.052 178.946C103.268 178.921 103.333 178.842 103.374 178.771C104.038 177.662 102.374 173.336 100.905 169.52C98.5695 163.448 96.153 157.171 98.333 154.41C98.3413 154.4 98.3495 154.391 98.3561 154.381L59.9873 145.196C59.6912 145.226 58.6409 145.396 58.029 146.29C57.3293 147.313 57.3624 149.033 58.1249 151.268C59.6251 155.66 58.4491 159.339 57.7643 160.91L93.4951 172.203C94.5652 172.484 95.6684 173.632 97.0015 175.021C98.7845 176.877 101.001 179.19 103.052 178.944V178.946ZM100.003 179.574C98.5133 178.693 97.1504 177.271 95.9612 176.031C95.0168 175.047 93.8706 173.852 93.2106 173.629C93.1742 173.624 93.1379 173.616 93.1015 173.604L93.08 173.597C93.0403 173.592 93.0022 173.591 92.9675 173.596C92.8219 173.614 92.6797 173.835 92.6086 173.965C91.9751 175.105 91.5765 177.208 91.3268 179.481C94.8547 180.182 97.979 179.923 100.005 179.574H100.003ZM89.4578 187.82C89.4677 184.839 89.6496 176.311 91.345 173.257C91.378 173.197 91.4128 173.139 91.4492 173.082L54.2943 161.339C53.732 161.463 51.3354 162.283 51.079 167.18C50.8524 171.493 50.7449 173.602 50.7002 174.49L89.4594 187.818L89.4578 187.82Z" fill="#38170F" stroke="#38170F" stroke-width="0.627339"/>
  <g clip-path="url(#clip0_54475_3665)">
    <path d="M91.666 170.086C91.4553 170.019 91.2538 169.925 91.0675 169.806C90.9494 169.73 90.8328 169.653 90.7264 169.563C89.7327 168.728 89.4848 167.28 90.132 166.154C90.6999 165.165 91.8217 164.622 92.9187 164.805C94.378 165.047 95.3632 166.348 95.2032 167.822C95.0308 169.409 93.4721 170.511 91.9009 170.157C91.882 170.153 91.7816 170.123 91.6658 170.086L91.666 170.086ZM93.8977 168.374C94.102 168.281 94.1917 168.039 94.0976 167.835C93.9237 167.458 93.7482 167.077 93.5745 166.7C93.4807 166.497 93.2403 166.408 93.0367 166.502L90.7559 167.553C90.5519 167.647 90.4633 167.888 90.5571 168.092L90.5666 168.112C90.6604 168.315 90.9011 168.405 91.1045 168.311C91.6151 168.075 92.1306 167.837 92.6491 167.598C92.8534 167.504 93.0955 167.594 93.1889 167.799C93.2465 167.925 93.3035 168.05 93.3599 168.174C93.453 168.378 93.6937 168.467 93.8976 168.374L93.8977 168.374Z" fill="#70D839"/>
  </g>
  <g clip-path="url(#clip1_54475_3665)">
    <path d="M89.666 162.086C89.4553 162.019 89.2538 161.925 89.0675 161.806C88.9494 161.73 88.8328 161.653 88.7264 161.563C87.7327 160.728 87.4848 159.28 88.132 158.154C88.6999 157.165 89.8217 156.622 90.9187 156.805C92.378 157.047 93.3632 158.348 93.2032 159.822C93.0308 161.409 91.4721 162.511 89.9009 162.157C89.882 162.153 89.7816 162.123 89.6658 162.086L89.666 162.086ZM91.8977 160.374C92.102 160.281 92.1917 160.039 92.0976 159.835C91.9237 159.458 91.7482 159.077 91.5745 158.7C91.4807 158.497 91.2403 158.408 91.0367 158.502L88.7559 159.553C88.5519 159.647 88.4633 159.888 88.5571 160.092L88.5666 160.112C88.6604 160.315 88.9011 160.405 89.1045 160.311C89.6151 160.075 90.1306 159.837 90.6491 159.598C90.8534 159.504 91.0955 159.594 91.1889 159.799C91.2465 159.925 91.3035 160.05 91.3599 160.174C91.453 160.378 91.6937 160.467 91.8976 160.374L91.8977 160.374Z" fill="#70D839"/>
  </g>
  <path d="M69.3945 118.617L99.808 120.725" stroke="black" stroke-opacity="0.1" stroke-width="1.88202" stroke-linecap="round"/>
  <path d="M69.3945 124.037L99.808 126.145" stroke="black" stroke-opacity="0.1" stroke-width="1.88202" stroke-linecap="round"/>
  <path d="M69.3945 129.458L99.808 132.168" stroke="black" stroke-opacity="0.1" stroke-width="1.88202" stroke-linecap="round"/>
  <path d="M69.3945 134.878L99.808 137.889" stroke="black" stroke-opacity="0.1" stroke-width="1.88202" stroke-linecap="round"/>
  <path d="M69.3945 140.298L99.2057 144.815" stroke="black" stroke-opacity="0.1" stroke-width="1.88202" stroke-linecap="round"/>
  <path d="M56.002 167.098L75.9746 174M61.9198 157.176L86.502 164.5M62.6595 152L83.002 158.039" stroke="black" stroke-opacity="0.1" stroke-width="1.88202" stroke-linecap="round"/>
  <path d="M53.6501 112.828C47.3284 114.211 46.9948 122.133 49.3952 126.82C52.1968 132.288 55.7286 134.343 62.1086 133.081L60.1887 126.946" fill="#F9A01B"/>
  <path d="M53.5078 112.866C57.4245 111.842 62.1249 114.284 63.1467 119.516C64.1684 124.749 60.3451 127.695 58.6258 128.089L54.6369 129.864L50.207 121.079L53.5078 112.866Z" fill="#F9A01B"/>
  <path d="M53.6501 112.829C47.3284 114.212 46.9948 122.134 49.3952 126.821" stroke="#38170F" stroke-width="2.19422" stroke-miterlimit="10" stroke-linecap="round"/>
  <path d="M53.5078 112.866C57.4245 111.842 62.1249 114.284 63.1466 119.516C63.8488 123.114 62.2625 125.631 60.6436 126.979" stroke="#38170F" stroke-width="2.19422" stroke-miterlimit="10" stroke-linecap="round"/>
  <path d="M49.3945 126.82C52.1961 132.288 55.7279 134.343 62.1079 133.081" stroke="#38170F" stroke-width="2.19422" stroke-miterlimit="10" stroke-linecap="round"/>
  <path d="M133.07 112.597C128.188 113.08 118.759 118.083 119.757 124.967C120.753 131.851 128.794 132.271 139.009 127.528" fill="#F9A01B"/>
  <path d="M133.07 112.597C128.188 113.08 118.759 118.083 119.757 124.967C120.753 131.851 128.794 132.271 139.009 127.528" stroke="#38170F" stroke-width="2.19422" stroke-miterlimit="10" stroke-linecap="round"/>
  <path d="M98.1195 102.247C102.94 105.085 108.425 104.247 112.237 99.5356" stroke="black" stroke-width="2.40181" stroke-miterlimit="10" stroke-linecap="round"/>
  <g clip-path="url(#clip2_54475_3665)">
    <path d="M103.399 148.569C103.211 148.556 103.026 148.514 102.85 148.445C102.738 148.402 102.627 148.356 102.522 148.296C101.545 147.739 101.082 146.429 101.423 145.212C101.722 144.145 102.562 143.368 103.51 143.284C104.771 143.171 105.824 144.17 105.951 145.6C106.088 147.141 104.982 148.548 103.608 148.582C103.591 148.583 103.502 148.577 103.399 148.57L103.399 148.569ZM104.959 146.428C105.113 146.292 105.145 146.043 105.031 145.872C104.819 145.556 104.605 145.237 104.393 144.922C104.279 144.751 104.062 144.724 103.909 144.86L102.191 146.389C102.037 146.525 102.006 146.774 102.121 146.944L102.132 146.961C102.246 147.132 102.463 147.16 102.616 147.023C103.001 146.681 103.389 146.335 103.779 145.987C103.933 145.85 104.151 145.879 104.265 146.05C104.336 146.156 104.406 146.261 104.475 146.365C104.588 146.536 104.805 146.564 104.959 146.428L104.959 146.428Z" fill="#70D839"/>
  </g>
  <g clip-path="url(#clip3_54475_3665)">
    <path d="M103.399 140.57C103.211 140.557 103.026 140.515 102.85 140.446C102.738 140.403 102.627 140.357 102.522 140.297C101.545 139.74 101.082 138.43 101.423 137.213C101.722 136.146 102.562 135.369 103.51 135.284C104.771 135.172 105.824 136.171 105.951 137.601C106.088 139.142 104.982 140.549 103.608 140.583C103.591 140.583 103.502 140.578 103.399 140.571L103.399 140.57ZM104.959 138.429C105.113 138.293 105.145 138.044 105.031 137.873C104.819 137.557 104.605 137.238 104.393 136.923C104.279 136.752 104.062 136.725 103.909 136.861L102.191 138.39C102.037 138.526 102.006 138.775 102.121 138.945L102.132 138.962C102.246 139.133 102.463 139.161 102.616 139.024C103.001 138.682 103.389 138.336 103.779 137.988C103.933 137.851 104.151 137.88 104.265 138.051C104.336 138.157 104.406 138.262 104.475 138.366C104.588 138.537 104.805 138.565 104.959 138.429L104.959 138.429Z" fill="#70D839"/>
  </g>
  <g clip-path="url(#clip4_54475_3665)">
    <path d="M103.399 134.57C103.211 134.557 103.026 134.515 102.85 134.446C102.738 134.403 102.627 134.357 102.522 134.297C101.545 133.74 101.082 132.43 101.423 131.213C101.722 130.146 102.562 129.369 103.51 129.284C104.771 129.172 105.824 130.171 105.951 131.601C106.088 133.142 104.982 134.549 103.608 134.583C103.591 134.583 103.502 134.578 103.399 134.571L103.399 134.57ZM104.959 132.429C105.113 132.293 105.145 132.044 105.031 131.873C104.819 131.557 104.605 131.238 104.393 130.923C104.279 130.752 104.062 130.725 103.909 130.861L102.191 132.39C102.037 132.526 102.006 132.775 102.121 132.945L102.132 132.962C102.246 133.133 102.463 133.161 102.616 133.024C103.001 132.682 103.389 132.336 103.779 131.988C103.933 131.851 104.151 131.88 104.265 132.051C104.336 132.157 104.406 132.262 104.475 132.366C104.588 132.537 104.805 132.565 104.959 132.429L104.959 132.429Z" fill="#70D839"/>
  </g>
  <g clip-path="url(#clip5_54475_3665)">
    <path d="M103.399 124.569C103.211 124.556 103.026 124.514 102.85 124.445C102.738 124.402 102.627 124.356 102.522 124.296C101.545 123.739 101.082 122.429 101.423 121.212C101.722 120.145 102.562 119.368 103.51 119.284C104.771 119.171 105.824 120.17 105.951 121.6C106.088 123.141 104.982 124.548 103.608 124.582C103.591 124.583 103.502 124.577 103.399 124.57L103.399 124.569ZM104.959 122.428C105.113 122.292 105.145 122.043 105.031 121.872C104.819 121.556 104.605 121.237 104.393 120.922C104.279 120.751 104.062 120.724 103.909 120.86L102.191 122.389C102.037 122.525 102.006 122.774 102.121 122.944L102.132 122.961C102.246 123.132 102.463 123.16 102.616 123.023C103.001 122.681 103.389 122.335 103.779 121.987C103.933 121.85 104.151 121.879 104.265 122.05C104.336 122.156 104.406 122.261 104.475 122.365C104.588 122.536 104.805 122.564 104.959 122.428L104.959 122.428Z" fill="#70D839"/>
  </g>
  <path d="M210.502 25L206.002 31L203.002 28" stroke="#645DB5" stroke-width="2" stroke-linecap="round" stroke-linejoin="round"/>
  <path d="M222.008 64L218.027 69.308C217.896 69.4818 217.697 69.5904 217.48 69.6058C217.263 69.6211 217.05 69.5417 216.897 69.388L214.508 67" stroke="#7B76B8" stroke-width="2" stroke-linecap="round" stroke-linejoin="round"/>
  <path fill-rule="evenodd" clip-rule="evenodd" d="M216.988 55.6082C217.297 55.2237 217.764 55 218.258 55C218.751 55 219.218 55.2237 219.528 55.6082L221.04 57.4892C221.388 57.9229 221.933 58.1491 222.486 58.0892L224.886 57.8282C225.378 57.7736 225.868 57.9456 226.218 58.2957C226.568 58.6458 226.74 59.1361 226.686 59.6282L226.425 62.0282C226.365 62.581 226.591 63.1262 227.025 63.4742L228.906 64.9862C229.29 65.2956 229.514 65.7626 229.514 66.2562C229.514 66.7498 229.29 67.2168 228.906 67.5262L227.019 69.0312C226.585 69.3798 226.359 69.9252 226.419 70.4782L226.68 72.8782C226.735 73.3705 226.563 73.861 226.213 74.2112C225.863 74.5614 225.372 74.7333 224.88 74.6782L222.48 74.4172C221.927 74.3571 221.382 74.5834 221.034 75.0172L219.528 76.8912C219.219 77.2762 218.752 77.5001 218.258 77.5001C217.764 77.5001 217.297 77.2762 216.988 76.8912L215.477 75.0112C215.128 74.5775 214.583 74.3514 214.03 74.4112L211.63 74.6722C211.137 74.7277 210.647 74.556 210.296 74.2056C209.946 73.8553 209.774 73.3645 209.83 72.8722L210.091 70.4722C210.151 69.9191 209.924 69.3737 209.491 69.0252L207.611 67.5142C207.226 67.205 207.002 66.738 207.002 66.2442C207.002 65.7505 207.226 65.2834 207.611 64.9742L209.491 63.4622C209.925 63.1143 210.151 62.5691 210.091 62.0162L209.83 59.6162C209.775 59.124 209.947 58.6335 210.297 58.2833C210.647 57.933 211.138 57.7612 211.63 57.8162L214.03 58.0772C214.583 58.1369 215.128 57.9108 215.477 57.4772L216.988 55.6082Z" stroke="#7B76B8" stroke-width="2" stroke-linecap="round" stroke-linejoin="round"/>
  <g opacity="0.6">
    <path d="M223.002 119.615H228.234" stroke="#7F73F2" stroke-width="3.1107" stroke-miterlimit="10" stroke-linecap="round"/>
    <path d="M225.621 117V122.232" stroke="#7F73F2" stroke-width="3.1107" stroke-miterlimit="10" stroke-linecap="round"/>
    <path d="M19.8157 85C21.9185 85 23.6294 86.7109 23.6294 88.8137C23.6294 90.9165 21.9185 92.6274 19.8157 92.6274C17.7128 92.6274 16.002 90.9165 16.002 88.8137C16.002 86.7109 17.7128 85 19.8157 85ZM19.8157 90.0829C20.5187 90.0829 21.0849 89.5105 21.0849 88.8137C21.0849 88.1169 20.5125 87.5445 19.8157 87.5445C19.1189 87.5445 18.5466 88.1169 18.5466 88.8137C18.5466 89.5105 19.1189 90.0829 19.8157 90.0829Z" fill="#5545EF"/>
    <path d="M198.123 37.6028C197.868 37.6028 197.57 37.5592 197.315 37.4348C197.06 37.3477 196.805 37.1797 196.637 36.9682C196.425 36.8002 196.257 36.5452 196.17 36.2901C196.039 36.035 196.002 35.7799 196.002 35.4813C196.002 34.9276 196.213 34.3739 196.637 33.9944C196.805 33.7829 197.06 33.6149 197.315 33.5278C197.825 33.3163 198.422 33.3163 198.932 33.5278C199.187 33.6149 199.442 33.7829 199.61 33.9944C200.033 34.3739 200.251 34.9276 200.251 35.4813C200.251 35.7799 200.208 36.035 200.083 36.2901C199.996 36.5452 199.828 36.8002 199.617 36.9682C199.449 37.1797 199.194 37.3539 198.938 37.4348C198.683 37.5592 198.428 37.6028 198.13 37.6028H198.123Z" fill="#7F73F2"/>
    <path d="M35.1978 93H29.3398C28.602 93 28.002 93.6045 28.002 94.3423V100.2C28.002 100.942 28.6064 101.538 29.3442 101.538H35.2022C35.94 101.538 36.54 100.938 36.54 100.196V94.3378C36.54 93.6 35.9355 93 35.1978 93ZM34.54 99.538H30.002V95.0045H34.54V99.538Z" fill="#7C6FFD"/>
  </g>
  <path d="M250.324 57.5928V65.3011" stroke="#5545EF" stroke-width="3.1107" stroke-miterlimit="10" stroke-linecap="round"/>
  <path d="M254.177 61.4443H246.475" stroke="#5545EF" stroke-width="3.1107" stroke-miterlimit="10" stroke-linecap="round"/>
  <defs>
    <clipPath id="clip0_54475_3665">
      <rect width="5.45219" height="5.4418" fill="white" transform="translate(94.1172 170.993) rotate(-159.744)"/>
    </clipPath>
    <clipPath id="clip1_54475_3665">
      <rect width="5.45219" height="5.4418" fill="white" transform="translate(92.1172 162.993) rotate(-159.744)"/>
    </clipPath>
    <clipPath id="clip2_54475_3665">
      <rect width="4.64054" height="5.31007" fill="white" transform="translate(105.605 148.853) rotate(-172.756)"/>
    </clipPath>
    <clipPath id="clip3_54475_3665">
      <rect width="4.64054" height="5.31007" fill="white" transform="translate(105.605 140.854) rotate(-172.756)"/>
    </clipPath>
    <clipPath id="clip4_54475_3665">
      <rect width="4.64054" height="5.31007" fill="white" transform="translate(105.605 134.854) rotate(-172.756)"/>
    </clipPath>
    <clipPath id="clip5_54475_3665">
      <rect width="4.64054" height="5.31007" fill="white" transform="translate(105.605 124.853) rotate(-172.756)"/>
    </clipPath>
  </defs>
</svg>
