<svg xmlns="http://www.w3.org/2000/svg" xmlns:xlink="http://www.w3.org/1999/xlink" version="1.1" x="0px" y="0px" viewBox="0 0 100 125"
  enable-background="new 0 0 100 100" xml:space="preserve">
    <defs xmlns="http://www.w3.org/2000/svg">
    <linearGradient xmlns="http://www.w3.org/2000/svg" id="linear-gradient" x1="50" y1="101.02" x2="50" y2="4.05" gradientTransform="matrix(1, 0, 0, -1, 0, 102)" gradientUnits="userSpaceOnUse"><stop offset="0" stop-color="#70b0df"/><stop offset="0.5" stop-color="#1b81c5"/><stop offset="1" stop-color="#4a98ce"/></linearGradient>
  </defs>
  <style>.c1{fill:url(#linear-gradient);}</style>
  <g><g><path class="c1" d="M75.505,25.432c-0.56-0.578-1.327-0.906-2.132-0.913c-0.008,0-0.015,0-0.022,0    c-0.796,0-1.56,0.316-2.123,0.88l-0.302,0.302c-1.156,1.158-1.171,3.029-0.033,4.206c5.274,5.451,8.18,12.63,8.18,20.214    c0,7.585-2.905,14.764-8.18,20.214c-1.141,1.178-1.124,3.054,0.037,4.211l0.303,0.302c0.562,0.561,1.324,0.875,2.118,0.875    c0.009,0,0.018,0,0.026,0c0.803-0.007,1.569-0.336,2.128-0.912C81.95,68.158,85.5,59.39,85.5,50.121    C85.5,40.853,81.95,32.085,75.505,25.432z"/><path class="c1" d="M20.928,50.121c0-7.583,2.905-14.762,8.18-20.214c1.14-1.177,1.124-3.051-0.036-4.209l-0.303-0.302    c-0.563-0.562-1.325-0.877-2.12-0.877c-0.008,0-0.017,0-0.025,0c-0.804,0.007-1.571,0.335-2.13,0.913    C18.049,32.085,14.5,40.853,14.5,50.121c0,9.269,3.549,18.037,9.995,24.689c0.56,0.578,1.327,0.906,2.131,0.913    c0.008,0,0.016,0,0.024,0c0.795,0,1.559-0.315,2.121-0.879l0.303-0.303c1.158-1.158,1.174-3.03,0.035-4.207    C23.833,64.884,20.928,57.705,20.928,50.121z"/><path class="c1" d="M65.611,36.945c-0.561-0.579-1.33-0.907-2.136-0.913c-0.006,0-0.013,0-0.019,0    c-0.799,0-1.565,0.319-2.128,0.886l-0.147,0.148c-1.151,1.159-1.164,3.026-0.028,4.201c2.311,2.387,3.583,5.532,3.583,8.854    c0,3.323-1.272,6.468-3.582,8.854c-1.137,1.175-1.125,3.042,0.027,4.201l0.147,0.148c0.562,0.567,1.329,0.886,2.128,0.886    c0.006,0,0.013,0,0.019,0c0.806-0.005,1.575-0.334,2.136-0.912c3.44-3.551,5.335-8.23,5.335-13.177    C70.946,45.175,69.052,40.496,65.611,36.945z"/><path class="c1" d="M38.812,37.06l-0.148-0.148c-0.562-0.563-1.326-0.879-2.121-0.879c-0.008,0-0.016,0-0.024,0    c-0.804,0.006-1.571,0.335-2.131,0.913c-3.439,3.55-5.333,8.229-5.333,13.176c0,4.947,1.894,9.627,5.334,13.177    c0.559,0.577,1.327,0.905,2.131,0.912c0.008,0,0.016,0,0.023,0c0.795,0,1.559-0.315,2.121-0.879l0.148-0.148    c1.158-1.158,1.173-3.03,0.035-4.208c-2.31-2.387-3.583-5.53-3.583-8.854c0-3.322,1.272-6.467,3.583-8.854    C39.986,40.09,39.971,38.217,38.812,37.06z"/></g><circle class="c1" cx="50" cy="50.009" r="6.5"/></g></svg>