<?xml version="1.0" encoding="utf-8"?>
<svg viewBox="0 0 25 25" fill="none" xmlns="http://www.w3.org/2000/svg">
  <path fill-rule="evenodd" clip-rule="evenodd" d="M10.8514 8.69401C16.0985 8.69401 20.3521 6.903 20.3521 4.69369C20.3521 2.48437 16.0985 0.693359 10.8514 0.693359C5.60423 0.693359 1.35059 2.48437 1.35059 4.69369C1.35059 6.903 5.60423 8.69401 10.8514 8.69401Z" stroke="white" stroke-width="1.00008" stroke-linecap="round" stroke-linejoin="round"/>
  <path d="M10.8514 12.6917C5.60493 12.6917 1.35059 10.9016 1.35059 8.69141" stroke="white" stroke-width="1.00008" stroke-linecap="round" stroke-linejoin="round"/>
  <path d="M9.35124 17.1446C4.81787 16.8446 1.35059 15.1895 1.35059 13.1953" stroke="white" stroke-width="1.00008" stroke-linecap="round" stroke-linejoin="round"/>
  <path d="M9.85128 21.6728C5.07489 21.4618 1.35059 19.7606 1.35059 17.6935V4.69141" stroke="white" stroke-width="1.00008" stroke-linecap="round" stroke-linejoin="round"/>
  <path d="M20.3525 4.69336V9.19373" stroke="white" stroke-width="1.00008" stroke-linecap="round" stroke-linejoin="round"/>
  <path class="cls-1" d="M 14.666 15.622 L 14.666 20.868 L 12 20.868 L 12 15.622 L 14.666 15.622 Z M 17.334 13 C 18.795 12.989 19.987 14.163 19.999 15.622 L 19.999 20.868 L 17.334 20.868 L 17.334 15.622 L 14.666 15.622 L 14.666 13 L 17.334 13 Z M 24 13 L 24 20.868 C 22.539 20.883 21.344 19.708 21.334 18.246 L 21.334 13 L 24 13 Z" style="fill: rgb(255, 255, 255);"/>
</svg>