<svg width="25" height="25" viewBox="0 0 25 25" fill="none" xmlns="http://www.w3.org/2000/svg">
<path fill-rule="evenodd" clip-rule="evenodd" d="M10.8514 8.69401C16.0985 8.69401 20.3521 6.903 20.3521 4.69369C20.3521 2.48437 16.0985 0.693359 10.8514 0.693359C5.60423 0.693359 1.35059 2.48437 1.35059 4.69369C1.35059 6.903 5.60423 8.69401 10.8514 8.69401Z" stroke="white" stroke-width="1.00008" stroke-linecap="round" stroke-linejoin="round"/>
<path d="M10.8514 12.6917C5.60493 12.6917 1.35059 10.9016 1.35059 8.69141" stroke="white" stroke-width="1.00008" stroke-linecap="round" stroke-linejoin="round"/>
<path d="M9.35124 17.1446C4.81787 16.8446 1.35059 15.1895 1.35059 13.1953" stroke="white" stroke-width="1.00008" stroke-linecap="round" stroke-linejoin="round"/>
<path d="M9.85128 21.6728C5.07489 21.4618 1.35059 19.7606 1.35059 17.6935V4.69141" stroke="white" stroke-width="1.00008" stroke-linecap="round" stroke-linejoin="round"/>
<path d="M20.3525 4.69336V9.19373" stroke="white" stroke-width="1.00008" stroke-linecap="round" stroke-linejoin="round"/>
<path d="M24.3346 16.9455C24.3116 16.738 24.2885 16.4844 24.1963 16.2077C24.1272 15.9311 24.0119 15.6314 23.8505 15.3087C23.6891 14.9859 23.4817 14.6631 23.2281 14.3404C23.1359 14.2251 23.0206 14.0868 22.8823 13.9715C23.0667 13.2338 22.6517 12.6114 22.6517 12.6114C21.9601 12.5653 21.499 12.8188 21.3377 12.9572C21.3146 12.9572 21.2915 12.9341 21.2454 12.9111C21.1302 12.865 21.0149 12.8188 20.8766 12.7727C20.7383 12.7266 20.623 12.7036 20.4847 12.6575C20.3463 12.6344 20.208 12.6114 20.0928 12.5883C20.0697 12.5883 20.0466 12.5883 20.0236 12.5883C19.7239 11.62 18.8478 11.2051 18.8478 11.2051C17.8796 11.8275 17.6952 12.6805 17.6952 12.6805C17.6952 12.6805 17.6952 12.7036 17.6952 12.7266C17.6491 12.7497 17.5799 12.7497 17.5338 12.7727C17.4646 12.7958 17.3955 12.8188 17.3032 12.8419C17.2341 12.865 17.1649 12.888 17.0727 12.9341C16.9344 13.0033 16.773 13.0724 16.6347 13.1416C16.4964 13.2108 16.358 13.303 16.2197 13.3952C16.1967 13.3952 16.1967 13.3721 16.1967 13.3721C14.8365 12.865 13.6377 13.4874 13.6377 13.4874C13.5224 14.9167 14.1679 15.8389 14.3063 16.0003C14.2832 16.0925 14.2371 16.1847 14.214 16.2769C14.1218 16.5997 14.0296 16.9455 13.9835 17.2913C13.9835 17.3374 13.9604 17.3835 13.9604 17.4296C12.7155 18.0521 12.3467 19.32 12.3467 19.32C13.3841 20.5188 14.606 20.588 14.606 20.588C14.7673 20.8646 14.9287 21.1182 15.1362 21.3718C15.2284 21.464 15.3206 21.5793 15.3898 21.6715C15.0209 22.755 15.4359 23.6541 15.4359 23.6541C16.5886 23.7002 17.3493 23.1469 17.5107 23.0086C17.626 23.0547 17.7413 23.0778 17.8565 23.1239C18.2023 23.2161 18.5712 23.2622 18.9401 23.2853C19.0323 23.2853 19.1245 23.2853 19.2167 23.2853H19.2628H19.2859H19.332H19.3781C19.9314 24.0691 20.8766 24.1844 20.8766 24.1844C21.5682 23.4697 21.5912 22.755 21.5912 22.5936C21.5912 22.5706 21.5912 22.5706 21.5912 22.5706V22.5475C21.7296 22.4553 21.8679 22.3401 22.0062 22.2248C22.2829 21.9712 22.5134 21.6946 22.7209 21.3949C22.7439 21.3718 22.767 21.3487 22.767 21.3026C23.5508 21.3487 24.0811 20.8185 24.0811 20.8185C23.9427 20.0116 23.4817 19.6197 23.3894 19.5505C23.3894 19.5505 23.3894 19.5505 23.3664 19.5505C23.3664 19.5044 23.3664 19.4583 23.3664 19.4122C23.3664 19.32 23.3664 19.2278 23.3664 19.1586V19.0434V19.0203V18.9973C23.3664 18.9742 23.3664 18.9742 23.3664 18.9742V18.9281V18.8589C23.3664 18.8359 23.3664 18.8128 23.3664 18.7898C23.3664 18.7667 23.3664 18.7437 23.3664 18.7206V18.6515V18.5823C23.3433 18.4901 23.3433 18.3979 23.3203 18.3287C23.2281 17.9829 23.1128 17.6601 22.9284 17.3604C22.7439 17.0607 22.5365 16.8071 22.2829 16.5766C22.0293 16.3461 21.7526 16.1847 21.4529 16.0464C21.1532 15.9081 20.8535 15.8389 20.5308 15.7928C20.3694 15.7697 20.2311 15.7697 20.0697 15.7697H20.0236H20.0005H19.9775H19.9544H19.9083C19.8853 15.7697 19.8622 15.7697 19.8392 15.7697C19.77 15.7697 19.6778 15.7928 19.6086 15.7928C19.3089 15.8389 19.0092 15.9542 18.7556 16.1155C18.502 16.2769 18.2715 16.4613 18.0871 16.6688C17.9026 16.8763 17.7643 17.1299 17.6721 17.3835C17.5799 17.6371 17.5338 17.8907 17.5107 18.1443C17.5107 18.2134 17.5107 18.2595 17.5107 18.3287C17.5107 18.3518 17.5107 18.3518 17.5107 18.3748V18.4209C17.5107 18.444 17.5107 18.4901 17.5107 18.5131C17.5338 18.6284 17.5568 18.7667 17.5799 18.882C17.6491 19.1125 17.7643 19.32 17.8796 19.5044C18.0179 19.6889 18.1793 19.8272 18.3407 19.9425C18.502 20.0577 18.6865 20.1499 18.8709 20.1961C19.0553 20.2422 19.2167 20.2652 19.4011 20.2652C19.4242 20.2652 19.4472 20.2652 19.4703 20.2652H19.4934H19.5164C19.5395 20.2652 19.5625 20.2652 19.5625 20.2652C19.5625 20.2652 19.5625 20.2652 19.5856 20.2652H19.6086H19.6317C19.6547 20.2652 19.6778 20.2652 19.7008 20.2652C19.7239 20.2652 19.7469 20.2652 19.77 20.2422C19.8161 20.2422 19.8392 20.2191 19.8853 20.2191C19.9544 20.1961 20.0236 20.173 20.0928 20.1269C20.1619 20.1038 20.208 20.0577 20.2772 20.0116C20.3002 20.0116 20.3002 19.9886 20.3233 19.9655C20.3925 19.9194 20.3925 19.8272 20.3463 19.7811C20.3002 19.735 20.2311 19.7119 20.185 19.758C20.1619 19.758 20.1619 19.7811 20.1389 19.7811C20.0928 19.8041 20.0466 19.8272 19.9775 19.8502C19.9314 19.8733 19.8622 19.8733 19.8161 19.8964C19.7931 19.8964 19.7469 19.8964 19.7239 19.8964C19.7008 19.8964 19.7008 19.8964 19.6778 19.8964C19.6547 19.8964 19.6547 19.8964 19.6317 19.8964C19.6086 19.8964 19.6086 19.8964 19.5856 19.8964C19.5625 19.8964 19.5395 19.8964 19.5395 19.8964H19.5164H19.4934C19.4703 19.8964 19.4703 19.8964 19.4472 19.8964C19.3089 19.8733 19.1937 19.8502 19.0553 19.7811C18.917 19.735 18.8017 19.6428 18.6865 19.5505C18.5712 19.4583 18.479 19.32 18.4098 19.2047C18.3407 19.0895 18.2715 18.9281 18.2484 18.7667C18.2254 18.6976 18.2254 18.6053 18.2254 18.5362C18.2254 18.5131 18.2254 18.4901 18.2254 18.467V18.444V18.4209C18.2254 18.3748 18.2254 18.3287 18.2484 18.2826C18.3176 17.9368 18.479 17.614 18.7556 17.3374C18.8248 17.2682 18.894 17.2221 18.9631 17.153C19.0323 17.1068 19.1245 17.0607 19.1937 17.0146C19.2859 16.9685 19.3781 16.9455 19.4472 16.9224C19.5395 16.8994 19.6317 16.8763 19.7239 16.8763C19.77 16.8763 19.8161 16.8763 19.8622 16.8763C19.8853 16.8763 19.8853 16.8763 19.8853 16.8763H19.9314H19.9544H20.0005C20.0928 16.8763 20.208 16.8994 20.3002 16.9224C20.5077 16.9685 20.6921 17.0377 20.8766 17.153C21.2454 17.3604 21.5451 17.6832 21.7526 18.0521C21.8448 18.2365 21.914 18.444 21.9601 18.6515C21.9601 18.6976 21.9832 18.7667 21.9832 18.8128V18.8589V18.905C21.9832 18.9281 21.9832 18.9281 21.9832 18.9511C21.9832 18.9742 21.9832 18.9742 21.9832 18.9973V19.0434V19.0895C21.9832 19.1125 21.9832 19.1586 21.9832 19.1817C21.9832 19.2508 21.9832 19.297 21.9601 19.3661C21.9601 19.4122 21.9371 19.4814 21.9371 19.5275C21.9371 19.5736 21.914 19.6428 21.8909 19.6889C21.8679 19.8041 21.8218 19.9194 21.7757 20.0116C21.6835 20.2191 21.5682 20.4266 21.4299 20.6341C21.1532 21.0029 20.7844 21.3257 20.3463 21.5101C20.1389 21.6023 19.9083 21.6715 19.6778 21.7176C19.5625 21.7407 19.4472 21.7407 19.332 21.7637H19.3089H19.2859H19.2398H19.1937H19.1706C19.1014 21.7637 19.0553 21.7637 18.9862 21.7637C18.7326 21.7407 18.479 21.6946 18.2484 21.6254C18.0179 21.5562 17.7643 21.464 17.5568 21.3487C17.1188 21.1182 16.7269 20.7955 16.4041 20.4035C16.2428 20.2191 16.1044 20.0116 16.0122 19.7811C15.897 19.5505 15.8048 19.32 15.7356 19.0895C15.6664 18.8589 15.6203 18.6053 15.6203 18.3748V18.3287V18.3056V18.2595V18.1212V18.0982V18.0521V18.029C15.6203 18.0059 15.6203 17.9598 15.6203 17.9368C15.6203 17.8215 15.6434 17.6832 15.6434 17.5679C15.6664 17.4527 15.6895 17.3143 15.7125 17.1991C15.7356 17.0838 15.7586 16.9455 15.8047 16.8302C15.8739 16.5997 15.9661 16.3691 16.0583 16.1386C16.2658 15.7006 16.5194 15.3087 16.8422 15.009C16.9113 14.9398 17.0035 14.8476 17.0958 14.7784C17.188 14.7093 17.2802 14.6401 17.3724 14.594C17.4646 14.5248 17.5568 14.4787 17.649 14.4326C17.6952 14.4096 17.7413 14.3865 17.7874 14.3634C17.8104 14.3634 17.8335 14.3404 17.8565 14.3404C17.8796 14.3404 17.9026 14.3173 17.9257 14.3173C18.0179 14.2712 18.1332 14.2482 18.2254 14.2021C18.2484 14.2021 18.2715 14.179 18.2946 14.179C18.3176 14.179 18.3407 14.156 18.3637 14.156C18.4098 14.1329 18.479 14.1329 18.5251 14.1099C18.5482 14.1099 18.5712 14.0868 18.6173 14.0868C18.6404 14.0868 18.6634 14.0868 18.7095 14.0637C18.7326 14.0637 18.7556 14.0637 18.8017 14.0407H18.8478H18.894C18.917 14.0407 18.9401 14.0407 18.9862 14.0176C19.0092 14.0176 19.0553 14.0176 19.0784 13.9946C19.1014 13.9946 19.1475 13.9946 19.1706 13.9946C19.1937 13.9946 19.2167 13.9946 19.2398 13.9946H19.2859H19.3089H19.332C19.355 13.9946 19.4011 13.9946 19.4242 13.9946H19.4703H19.4934C19.5164 13.9946 19.5395 13.9946 19.5625 13.9946C19.6778 13.9946 19.77 13.9946 19.8853 13.9946C20.0928 13.9946 20.3002 14.0176 20.5077 14.0637C20.8996 14.1329 21.2685 14.2712 21.6143 14.4326C21.9601 14.594 22.2598 14.8015 22.5134 15.032C22.5365 15.0551 22.5365 15.0551 22.5595 15.0781C22.5826 15.1012 22.5826 15.1012 22.6056 15.1242C22.6287 15.1473 22.6748 15.1703 22.6978 15.2164C22.7209 15.2625 22.767 15.2625 22.79 15.3087C22.8131 15.3548 22.8592 15.3778 22.8823 15.4009C22.9975 15.5161 23.0897 15.6314 23.182 15.7697C23.3664 16.0003 23.5278 16.2539 23.643 16.4844C23.643 16.5074 23.6661 16.5074 23.6661 16.5305C23.6661 16.5536 23.6891 16.5536 23.6891 16.5766C23.7122 16.5997 23.7122 16.6227 23.7352 16.6688C23.7583 16.6919 23.7583 16.7149 23.7814 16.761C23.8044 16.7841 23.8044 16.8071 23.8275 16.8533C23.8736 16.9685 23.9197 17.0607 23.9427 17.153C23.9888 17.3143 24.035 17.4527 24.058 17.5679C24.0811 17.614 24.1272 17.6601 24.1733 17.6371C24.2194 17.6371 24.2655 17.591 24.2655 17.5449C24.3577 17.2682 24.3577 17.1068 24.3346 16.9455Z" fill="white"/>
</svg>
