<svg xmlns="http://www.w3.org/2000/svg" xmlns:xlink="http://www.w3.org/1999/xlink" viewBox="0 0 80.9 80.9"><defs><style>.cls-1{fill:#84aff1;}.cls-2{fill:#3865ab;}.cls-3{fill:#fff;}.cls-4{fill:url(#linear-gradient);}</style><linearGradient id="linear-gradient" x1="15.08" y1="38.4" x2="52.47" y2="38.4" gradientTransform="translate(6.17 2.56)" gradientUnits="userSpaceOnUse"><stop offset="0" stop-color="#f2cc0c"/><stop offset="1" stop-color="#ff9830"/></linearGradient></defs><g id="Layer_2" data-name="Layer 2"><g id="Layer_1-2" data-name="Layer 1"><path class="cls-1" d="M40.45,80.9A40.45,40.45,0,1,1,80.9,40.45,40.5,40.5,0,0,1,40.45,80.9Zm0-76.9A36.45,36.45,0,1,0,76.9,40.45,36.49,36.49,0,0,0,40.45,4Z"/><path class="cls-2" d="M40.45,8.13A32.31,32.31,0,0,0,16.23,61.84l12.9-12.9L32,51.77l-12.9,12.9A32.32,32.32,0,1,0,40.45,8.13Z"/><path class="cls-3" d="M38.43,23.71H52.34a1,1,0,0,1,1,1v3.41a1,1,0,0,1-1,1H38.43a0,0,0,0,1,0,0V23.71A0,0,0,0,1,38.43,23.71Z" transform="translate(-5.24 40.18) rotate(-45)"/><path class="cls-3" d="M47,32.31H60.94a1,1,0,0,1,1,1v3.41a1,1,0,0,1-1,1H47a0,0,0,0,1,0,0V32.31A0,0,0,0,1,47,32.31Z" transform="translate(-8.8 48.78) rotate(-45)"/><path class="cls-4" d="M35.83,22.26l-5.29,5.29C25.16,32.93,23,39.74,26.79,46L21.25,51.5l8.15,8.15,5.54-5.54c6.22,3.82,13,1.63,18.41-3.76l5.29-5.28Z"/></g></g></svg>