<?xml version="1.0" encoding="UTF-8"?>
<svg xmlns="http://www.w3.org/2000/svg" xmlns:xlink="http://www.w3.org/1999/xlink" width="144px" height="144px" viewBox="0 0 144 144" version="1.1">
<g id="surface736507">
<path style=" stroke:none;fill-rule:nonzero;fill:rgb(90.196078%,49.411765%,13.333333%);fill-opacity:1;" d="M 93 42 L 132 42 L 132 30 C 132 23.371094 126.628906 18 120 18 L 93 18 Z M 93 42 "/>
<path style=" stroke:none;fill-rule:nonzero;fill:rgb(92.54902%,94.117647%,94.509804%);fill-opacity:1;" d="M 120 18 L 42 18 C 35.371094 18 30 23.371094 30 30 L 30 114 C 30 120.628906 35.371094 126 42 126 L 96 126 C 102.628906 126 108 120.628906 108 114 L 108 30 C 108 23.371094 113.371094 18 120 18 Z M 120 18 "/>
<path style=" stroke:none;fill-rule:nonzero;fill:rgb(90.196078%,49.411765%,13.333333%);fill-opacity:1;" d="M 96 126 L 24 126 C 17.371094 126 12 120.628906 12 114 L 12 105 L 84 105 L 84 114 C 84 120.628906 89.371094 126 96 126 Z M 48 42 L 90 42 L 90 48 L 48 48 Z M 48 57 L 78 57 L 78 63 L 48 63 Z M 48 72 L 90 72 L 90 78 L 48 78 Z M 48 87 L 78 87 L 78 93 L 48 93 Z M 48 87 "/>
</g>
</svg>
