<svg xmlns="http://www.w3.org/2000/svg" width="100" height="48" viewBox="0 0 100 48" fill="none">
  <path d="M0 1.04083V13H15V0H0.626828C0.460583 0 0.301147 0.109659 0.183594 0.304853C0.0660407 0.500047 0 0.764787 0 1.04083Z" fill="url(#paint0_linear_228_374)"/>
  <path d="M15 17.5H0V30.5H15V17.5Z" fill="#84AFF1"/>
  <path d="M15 35H0V48H15V35Z" fill="#84AFF1"/>
  <path d="M6.77442 9.5C7.52635 9.5 8.04638 9.23767 8.34153 8.74147H8.3837V9.41783H10V6.1182C10 5.09102 8.98454 4.5 7.61068 4.5C6.15952 4.5 5.33732 5.1574 5.20028 6.04235L6.78496 6.09292C6.85875 5.78319 7.14336 5.59355 7.59663 5.59355C8.01827 5.59355 8.28531 5.77686 8.28531 6.1024V6.1182C8.28531 6.4153 7.92692 6.47851 7.00633 6.5512C5.91356 6.63338 5 6.99684 5 8.07143C5 9.03224 5.74139 9.5 6.77442 9.5ZM7.30499 8.48862C6.90794 8.48862 6.62684 8.31795 6.62684 7.99558C6.62684 7.68268 6.90091 7.49305 7.38932 7.42668C7.70907 7.38559 8.1026 7.32238 8.29585 7.23072V7.69216C8.29585 8.16625 7.85313 8.48862 7.30499 8.48862Z" fill="#24292E"/>
  <mask id="mask0_228_374" style="mask-type:luminance" maskUnits="userSpaceOnUse" x="42" y="0" width="15" height="48">
    <path d="M57 0H42V48H57V0Z" fill="white"/>
  </mask>
  <g mask="url(#mask0_228_374)">
    <path d="M42 13H57V1.04083C57 0.764787 56.934 0.500047 56.8164 0.304853C56.6989 0.109659 56.5394 0 56.3732 0H42V13Z" fill="url(#paint1_linear_228_374)"/>
    <path d="M57 17.5H42V30.5H57V17.5Z" fill="#84AFF1"/>
    <path d="M57 35H42V48H57V35Z" fill="#84AFF1"/>
    <path d="M47 9.68623H48.5663V8.96449H48.6149C48.8155 9.37609 49.2621 9.75 50.0129 9.75C51.1133 9.75 52 8.97898 52 7.46304C52 5.89203 51.0615 5.17609 50.0227 5.17609C49.2362 5.17609 48.8058 5.58768 48.6149 5.99638H48.5825V3.75H47V9.68623ZM48.5502 7.46015C48.5502 6.73261 48.8867 6.28333 49.466 6.28333C50.0518 6.28333 50.3754 6.7442 50.3754 7.46015C50.3754 8.17899 50.0518 8.64565 49.466 8.64565C48.8867 8.64565 48.5502 8.18188 48.5502 7.46015Z" fill="#24292E"/>
  </g>
  <mask id="mask1_228_374" style="mask-type:luminance" maskUnits="userSpaceOnUse" x="85" y="0" width="15" height="48">
    <path d="M100 0H85V48H100V0Z" fill="white"/>
  </mask>
  <g mask="url(#mask1_228_374)">
    <path d="M85 13H100V1.04083C100 0.764787 99.934 0.500047 99.8164 0.304853C99.6989 0.109659 99.5394 0 99.3732 0H85V13Z" fill="url(#paint2_linear_228_374)"/>
    <path d="M100 17.5H85V30.5H100V17.5Z" fill="#84AFF1"/>
    <path d="M100 35H85V48H100V35Z" fill="#84AFF1"/>
    <path d="M92.606 9.5C94.056 9.5 94.956 8.7082 95 7.50946H93.465C93.405 8.0237 93.076 8.3044 92.626 8.3044C92.048 8.3044 91.672 7.847 91.672 6.9858C91.672 6.13092 92.052 5.6735 92.626 5.6735C93.096 5.6735 93.402 5.97319 93.465 6.46845H95C94.963 5.27602 94.036 4.5 92.602 4.5C90.981 4.5 90 5.51577 90 7.00158C90 8.4811 90.974 9.5 92.606 9.5Z" fill="#24292E"/>
  </g>
  <path d="M71.0971 30C71.7915 30 77.1231 26 77.1231 24C77.1231 22 71.9261 18 71.0971 18C70.2681 18 69.5927 18.5 69.5927 19.4756C69.5927 20.4512 73.0971 22.9206 73.0971 22.9206C73.0971 22.9206 65.4443 22.25 65.1904 22.9206C64.9365 23.5911 64.9365 24.4089 65.1904 25.0794C65.4443 25.75 73.0971 25.0794 73.0971 25.0794C73.0971 25.0794 69.5927 27.75 69.5927 28.5301C69.5927 29.3103 70.4027 30 71.0971 30Z" fill="#CCCCDC"/>
  <path d="M25.4546 21.8182H25.7273V22.0909C25.7273 22.2356 25.7847 22.3743 25.887 22.4766C25.9893 22.5789 26.1281 22.6363 26.2727 22.6363C26.4174 22.6363 26.5561 22.5789 26.6584 22.4766C26.7607 22.3743 26.8182 22.2356 26.8182 22.0909V21.8182H27.0909C27.2356 21.8182 27.3743 21.7607 27.4766 21.6584C27.5789 21.5561 27.6363 21.4174 27.6363 21.2727C27.6363 21.1281 27.5789 20.9893 27.4766 20.887C27.3743 20.7847 27.2356 20.7273 27.0909 20.7273H26.8182V20.4546C26.8182 20.3099 26.7607 20.1711 26.6584 20.0689C26.5561 19.9666 26.4174 19.9091 26.2727 19.9091C26.1281 19.9091 25.9893 19.9666 25.887 20.0689C25.7847 20.1711 25.7273 20.3099 25.7273 20.4546V20.7273H25.4546C25.3099 20.7273 25.1711 20.7847 25.0689 20.887C24.9666 20.9893 24.9091 21.1281 24.9091 21.2727C24.9091 21.4174 24.9666 21.5561 25.0689 21.6584C25.1711 21.7607 25.3099 21.8182 25.4546 21.8182ZM25.1163 27.8837C25.2186 27.9853 25.3568 28.0422 25.5009 28.0422C25.645 28.0422 25.7833 27.9853 25.8854 27.8837L26.2727 27.4963L26.66 27.8837C26.7622 27.9853 26.9005 28.0422 27.0446 28.0422C27.1886 28.0422 27.3269 27.9853 27.4291 27.8837C27.5307 27.7814 27.5877 27.6432 27.5877 27.4991C27.5877 27.355 27.5307 27.2167 27.4291 27.1146L27.0418 26.7273L27.4291 26.34C27.5185 26.2357 27.5651 26.1014 27.5598 25.9642C27.5545 25.8269 27.4977 25.6966 27.4005 25.5995C27.3034 25.5023 27.1731 25.4455 27.0358 25.4402C26.8986 25.4349 26.7643 25.4815 26.66 25.5709L26.2727 25.9582L25.8854 25.5709C25.7811 25.4815 25.6469 25.4349 25.5096 25.4402C25.3723 25.4455 25.2421 25.5023 25.145 25.5995C25.0478 25.6966 24.9909 25.8269 24.9856 25.9642C24.9803 26.1014 25.027 26.2357 25.1163 26.34L25.5037 26.7273L25.1163 27.1146C25.0148 27.2167 24.9578 27.355 24.9578 27.4991C24.9578 27.6432 25.0148 27.7814 25.1163 27.8837ZM33.3637 18H24.6363C24.2024 18 23.7862 18.1724 23.4793 18.4793C23.1724 18.7862 23 19.2024 23 19.6363V28.3637C23 28.7977 23.1724 29.2138 23.4793 29.5207C23.7862 29.8276 24.2024 30 24.6363 30H33.3637C33.7976 30 34.2138 29.8276 34.5207 29.5207C34.8276 29.2138 35 28.7977 35 28.3637V19.6363C35 19.2024 34.8276 18.7862 34.5207 18.4793C34.2138 18.1724 33.7976 18 33.3637 18ZM28.4546 28.9091H24.6363C24.4917 28.9091 24.353 28.8516 24.2507 28.7493C24.1484 28.647 24.0909 28.5083 24.0909 28.3637V24.5454H28.4546V28.9091ZM28.4546 23.4546H24.0909V19.6363C24.0909 19.4917 24.1484 19.353 24.2507 19.2507C24.353 19.1484 24.4917 19.0909 24.6363 19.0909H28.4546V23.4546ZM33.9091 28.3637C33.9091 28.5083 33.8516 28.647 33.7493 28.7493C33.647 28.8516 33.5083 28.9091 33.3637 28.9091H29.5454V24.5454H33.9091V28.3637ZM33.9091 23.4546H29.5454V19.0909H33.3637C33.5083 19.0909 33.647 19.1484 33.7493 19.2507C33.8516 19.353 33.9091 19.4917 33.9091 19.6363V23.4546ZM30.9091 26.4546H32.5454C32.6901 26.4546 32.8289 26.3971 32.9311 26.2948C33.0334 26.1925 33.0909 26.0538 33.0909 25.9091C33.0909 25.7645 33.0334 25.6257 32.9311 25.5234C32.8289 25.4211 32.6901 25.3637 32.5454 25.3637H30.9091C30.7644 25.3637 30.6257 25.4211 30.5234 25.5234C30.4211 25.6257 30.3637 25.7645 30.3637 25.9091C30.3637 26.0538 30.4211 26.1925 30.5234 26.2948C30.6257 26.3971 30.7644 26.4546 30.9091 26.4546ZM32.5454 20.7273H30.9091C30.7644 20.7273 30.6257 20.7847 30.5234 20.887C30.4211 20.9893 30.3637 21.1281 30.3637 21.2727C30.3637 21.4174 30.4211 21.5561 30.5234 21.6584C30.6257 21.7607 30.7644 21.8182 30.9091 21.8182H32.5454C32.6901 21.8182 32.8289 21.7607 32.9311 21.6584C33.0334 21.5561 33.0909 21.4174 33.0909 21.2727C33.0909 21.1281 33.0334 20.9893 32.9311 20.887C32.8289 20.7847 32.6901 20.7273 32.5454 20.7273ZM30.9091 28.0909H32.5454C32.6901 28.0909 32.8289 28.0334 32.9311 27.9311C33.0334 27.8289 33.0909 27.6901 33.0909 27.5454C33.0909 27.4008 33.0334 27.2621 32.9311 27.1598C32.8289 27.0575 32.6901 27 32.5454 27H30.9091C30.7644 27 30.6257 27.0575 30.5234 27.1598C30.4211 27.2621 30.3637 27.4008 30.3637 27.5454C30.3637 27.6901 30.4211 27.8289 30.5234 27.9311C30.6257 28.0334 30.7644 28.0909 30.9091 28.0909Z" fill="#CCCCDC"/>
  <defs>
    <linearGradient id="paint0_linear_228_374" x1="0" y1="6.5052" x2="15" y2="6.5052" gradientUnits="userSpaceOnUse">
      <stop stop-color="#F2CC0C"/>
      <stop offset="1" stop-color="#FF9830"/>
    </linearGradient>
    <linearGradient id="paint1_linear_228_374" x1="42" y1="6.5052" x2="57" y2="6.5052" gradientUnits="userSpaceOnUse">
      <stop stop-color="#F2CC0C"/>
      <stop offset="1" stop-color="#FF9830"/>
    </linearGradient>
    <linearGradient id="paint2_linear_228_374" x1="85" y1="6.5052" x2="100" y2="6.5052" gradientUnits="userSpaceOnUse">
      <stop stop-color="#F2CC0C"/>
      <stop offset="1" stop-color="#FF9830"/>
    </linearGradient>
  </defs>
</svg>