<svg xmlns="http://www.w3.org/2000/svg" width="97" height="32" viewBox="0 0 97 32" fill="none">
  <path d="M61.0971 22C61.7915 22 67.1231 18 67.1231 16C67.1231 14 61.9261 10 61.0971 10C60.2681 10 59.5927 10.5 59.5927 11.4756C59.5927 12.4512 63.0971 14.9206 63.0971 14.9206C63.0971 14.9206 55.4443 14.25 55.1904 14.9206C54.9365 15.5911 54.9365 16.4089 55.1904 17.0794C55.4443 17.75 63.0971 17.0794 63.0971 17.0794C63.0971 17.0794 59.5927 19.75 59.5927 20.5301C59.5927 21.3103 60.4027 22 61.0971 22Z" fill="#CCCCDC"/>
  <path d="M0 1.04083V13H15V0H0.626828C0.460583 0 0.301147 0.109659 0.183594 0.304853C0.0660407 0.500047 0 0.764787 0 1.04083Z" fill="url(#paint0_linear_228_672)"/>
  <path d="M0 20.0408V32H15V19H0.626828C0.460583 19 0.301147 19.1097 0.183594 19.3049C0.0660407 19.5 0 19.7648 0 20.0408Z" fill="url(#paint1_linear_228_672)"/>
  <path d="M6.77442 9.5C7.52635 9.5 8.04638 9.23767 8.34153 8.74147H8.3837V9.41783H10V6.1182C10 5.09102 8.98454 4.5 7.61068 4.5C6.15952 4.5 5.33732 5.1574 5.20028 6.04235L6.78496 6.09292C6.85875 5.78319 7.14336 5.59355 7.59663 5.59355C8.01827 5.59355 8.28531 5.77686 8.28531 6.1024V6.1182C8.28531 6.4153 7.92692 6.47851 7.00633 6.5512C5.91356 6.63338 5 6.99684 5 8.07143C5 9.03224 5.74139 9.5 6.77442 9.5ZM7.30499 8.48862C6.90794 8.48862 6.62684 8.31795 6.62684 7.99558C6.62684 7.68268 6.90091 7.49305 7.38932 7.42668C7.70907 7.38559 8.1026 7.32238 8.29585 7.23072V7.69216C8.29585 8.16625 7.85313 8.48862 7.30499 8.48862Z" fill="#24292E"/>
  <path d="M6.77442 28.5C7.52635 28.5 8.04638 28.2377 8.34153 27.7415H8.3837V28.4178H10V25.1182C10 24.091 8.98454 23.5 7.61068 23.5C6.15952 23.5 5.33732 24.1574 5.20028 25.0423L6.78496 25.0929C6.85875 24.7832 7.14336 24.5936 7.59663 24.5936C8.01827 24.5936 8.28531 24.7769 8.28531 25.1024V25.1182C8.28531 25.4153 7.92692 25.4785 7.00633 25.5512C5.91356 25.6334 5 25.9968 5 27.0714C5 28.0322 5.74139 28.5 6.77442 28.5ZM7.30499 27.4886C6.90794 27.4886 6.62684 27.318 6.62684 26.9956C6.62684 26.6827 6.90091 26.4931 7.38932 26.4267C7.70907 26.3856 8.1026 26.3224 8.29585 26.2307V26.6922C8.29585 27.1663 7.85313 27.4886 7.30499 27.4886Z" fill="#24292E"/>
  <path d="M96.4958 0H73V13H96.4958V0Z" fill="#84AFF1"/>
  <path d="M96.4958 19H73V32H96.4958V19Z" fill="#3865AB"/>
  <path d="M75.5137 28.3082V23.3991H77.1884V24.3324H77.2395C77.4441 23.7187 77.965 23.3352 78.6458 23.3352C79.3361 23.3352 79.8858 23.7315 79.9881 24.3324H80.0392C80.2054 23.7315 80.7935 23.3352 81.5222 23.3352C82.4618 23.3352 83.1074 23.9904 83.1074 24.9971V28.3082H81.3432V25.4446C81.3432 25.0163 81.1067 24.7542 80.7424 24.7542C80.378 24.7542 80.1543 25.0163 80.1543 25.4446V28.3082H78.4668V25.4446C78.4668 25.0163 78.2303 24.7542 77.8659 24.7542C77.5016 24.7542 77.2779 25.0163 77.2779 25.4446V28.3082H75.5137Z" fill="white"/>
  <path d="M81.2163 9.52609V4.617H82.9805V9.52609H81.2163ZM82.0984 4.10564C81.619 4.10564 81.2291 3.74449 81.2291 3.30024C81.2291 2.85599 81.619 2.49484 82.0984 2.49484C82.5778 2.49484 82.9677 2.85599 82.9677 3.30024C82.9677 3.74449 82.5778 4.10564 82.0984 4.10564Z" fill="#24292E"/>
  <path d="M90.8167 6.76474V9.52611H89.0525V2.98065H90.7528V5.55025H90.8039C91.0244 4.92383 91.5614 4.5531 92.2869 4.5531C93.3256 4.5531 94.0031 5.32014 93.9999 6.394V9.52611H92.2357V6.76474C92.2389 6.27895 91.9832 5.98491 91.5326 5.98491C91.1011 5.98491 90.8199 6.27895 90.8167 6.76474Z" fill="#24292E"/>
  <path d="M77.2779 6.76474V9.52611H75.5137V2.98065H77.214V5.55025H77.2651C77.4856 4.92383 78.0225 4.5531 78.748 4.5531C79.7868 4.5531 80.4643 5.32014 80.4611 6.394V9.52611H78.6969V6.76474C78.7001 6.27895 78.4444 5.98491 77.9938 5.98491C77.5623 5.98491 77.2811 6.27895 77.2779 6.76474Z" fill="#24292E"/>
  <path d="M85.9081 11.5101C84.4316 11.5101 83.5718 10.8326 83.5047 9.88655H85.205C85.2561 10.1998 85.5534 10.3212 85.9592 10.3212C86.4163 10.3212 86.7519 10.1326 86.7519 9.55416V8.72319H86.7007C86.509 9.22177 85.9848 9.50302 85.32 9.50302C84.2717 9.50302 83.3896 8.81268 83.3896 7.1124C83.3896 5.33541 84.3357 4.59393 85.3073 4.59393C86.036 4.59393 86.4962 5.01581 86.6879 5.51439H86.7263V4.65785H88.4905V9.55416C88.4905 10.8006 87.4614 11.5101 85.9081 11.5101ZM85.972 8.25018C86.4578 8.25018 86.7519 7.82831 86.7519 7.1124C86.7519 6.38371 86.4578 5.94905 85.972 5.94905C85.4862 5.94905 85.205 6.38371 85.205 7.1124C85.205 7.84109 85.4862 8.25018 85.972 8.25018Z" fill="#24292E"/>
  <path d="M86.0872 28.5C84.5147 28.5 83.5559 27.5572 83.5559 25.9688C83.5559 24.4474 84.5275 23.4375 86.0488 23.4375C87.5318 23.4375 88.4906 24.3931 88.4906 25.956V26.3651H85.2945V26.4418C85.2945 26.9148 85.6014 27.2599 86.1255 27.2599C86.4867 27.2599 86.7775 27.1033 86.8798 26.8253H88.4906C88.3244 27.848 87.4487 28.5 86.0872 28.5ZM85.2945 25.3935H86.867C86.8574 24.9716 86.525 24.6776 86.0872 24.6776C85.6557 24.6776 85.3041 24.9684 85.2945 25.3935Z" fill="white"/>
  <path d="M90.9126 28.5C89.8643 28.5 88.9822 27.6818 88.9822 25.9815C88.9822 24.2045 89.9282 23.4631 90.8998 23.4631C91.6285 23.4631 92.0887 23.8849 92.2805 24.3835H92.306V21.8906H94.0702V28.4361H92.3188V27.6307H92.2805C92.0759 28.1293 91.6029 28.5 90.9126 28.5ZM91.5646 27.1449C92.0504 27.1449 92.3444 26.6974 92.3444 25.9815C92.3444 25.2528 92.0504 24.8182 91.5646 24.8182C91.0788 24.8182 90.7975 25.2528 90.7975 25.9815C90.7975 26.7102 91.0788 27.1449 91.5646 27.1449Z" fill="white"/>
  <path d="M40.5 9.99999C38.9569 9.99718 37.9945 8.87148 38 6.97186C38.0056 5.06942 38.9569 4 40.5 4C42.0404 4 43.0028 5.07505 43 6.97186C42.9972 8.87992 42.0404 10.0028 40.5 9.99999ZM40.5 8.72795C41.031 8.72795 41.4098 8.1848 41.4071 6.97186C41.4043 5.78705 41.031 5.26079 40.5 5.26079C39.969 5.26079 39.5985 5.78705 39.5929 6.97186C39.5874 8.1848 39.969 8.72795 40.5 8.72795Z" fill="white"/>
  <path d="M40.5 29C38.9569 28.9972 37.9945 27.8715 38 25.9719C38.0056 24.0694 38.9569 23 40.5 23C42.0404 23 43.0028 24.075 43 25.9719C42.9972 27.8799 42.0404 29.0028 40.5 29ZM40.5 27.728C41.031 27.728 41.4098 27.1848 41.4071 25.9719C41.4043 24.7871 41.031 24.2608 40.5 24.2608C39.969 24.2608 39.5985 24.7871 39.5929 25.9719C39.5874 27.1848 39.969 27.728 40.5 27.728Z" fill="white"/>
  <path d="M35.5 10C34.0581 10 33 9.28137 33 8.3346C33 7.61312 33.6076 7.03422 34.3837 6.92015V6.87452C33.7064 6.76046 33.2209 6.23574 33.2209 5.58555C33.2209 4.67015 34.186 4 35.5 4C36.814 4 37.7791 4.673 37.7791 5.58555C37.7791 6.23859 37.282 6.76046 36.6163 6.87452V6.92015C37.3808 7.03422 38 7.61312 38 8.3346C38 9.28137 36.9419 10 35.5 10ZM35.5 8.90494C35.9564 8.90494 36.2907 8.60551 36.2907 8.19772C36.2907 7.79563 35.9564 7.5019 35.5 7.5019C35.0436 7.5019 34.7093 7.79278 34.7093 8.19772C34.7093 8.60266 35.0436 8.90494 35.5 8.90494ZM35.5 6.40684C35.9041 6.40684 36.1977 6.13593 36.1977 5.76806C36.1977 5.40589 35.9041 5.14068 35.5 5.14068C35.0959 5.14068 34.8023 5.40304 34.8023 5.76806C34.8023 6.13308 35.0959 6.40684 35.5 6.40684Z" fill="white"/>
  <path d="M34.9853 29C33.8313 29 33.0073 28.2197 33 27.1156H34.3203C34.3301 27.526 34.6259 27.7861 34.9853 27.7861C35.401 27.7861 35.6919 27.448 35.6895 26.9306C35.6919 26.4133 35.401 26.0751 34.9853 26.0751C34.6968 26.0751 34.4352 26.2486 34.3203 26.5376L33.1271 26.2601L33.3227 23H36.687V24.2832H34.4377L34.3399 25.5896H34.3692C34.5257 25.2312 34.9364 24.9653 35.445 24.9653C36.3374 24.9653 37.0024 25.7601 37 26.8844C37.0024 28.1243 36.2054 29 34.9853 29Z" fill="white"/>
  <path d="M21.5 0.5H48.5V12.5H21.5V0.5Z" stroke="#CCCCDC"/>
  <path d="M21.5 19.5H48.5V31.5H21.5V19.5Z" stroke="#CCCCDC"/>
  <path d="M30.3579 6.64705L27.8579 4.14705C27.8113 4.10043 27.7559 4.06345 27.695 4.03822C27.6341 4.01299 27.5688 4 27.5029 4C27.3697 4 27.2421 4.05289 27.1479 4.14705C27.1013 4.19367 27.0643 4.24901 27.0391 4.30992C27.0138 4.37083 27.0009 4.43612 27.0009 4.50205C27.0009 4.6352 27.0537 4.76289 27.1479 4.85705L29.2979 7.00205L27.1479 9.14705C27.101 9.19353 27.0638 9.24883 27.0385 9.30976C27.0131 9.37069 27 9.43604 27 9.50205C27 9.56805 27.0131 9.6334 27.0385 9.69433C27.0638 9.75526 27.101 9.81056 27.1479 9.85705C27.1944 9.90391 27.2497 9.94111 27.3106 9.96649C27.3715 9.99188 27.4369 10.0049 27.5029 10.0049C27.5689 10.0049 27.6343 9.99188 27.6952 9.96649C27.7561 9.94111 27.8114 9.90391 27.8579 9.85705L30.3579 7.35705C30.4048 7.31056 30.442 7.25526 30.4673 7.19433C30.4927 7.1334 30.5058 7.06805 30.5058 7.00205C30.5058 6.93604 30.4927 6.87069 30.4673 6.80976C30.442 6.74883 30.4048 6.69353 30.3579 6.64705Z" fill="white"/>
  <path d="M30.3579 25.647L27.8579 23.147C27.8113 23.1004 27.7559 23.0634 27.695 23.0382C27.6341 23.013 27.5688 23 27.5029 23C27.3697 23 27.2421 23.0529 27.1479 23.147C27.1013 23.1937 27.0643 23.249 27.0391 23.3099C27.0138 23.3708 27.0009 23.4361 27.0009 23.502C27.0009 23.6352 27.0537 23.7629 27.1479 23.857L29.2979 26.002L27.1479 28.147C27.101 28.1935 27.0638 28.2488 27.0385 28.3098C27.0131 28.3707 27 28.436 27 28.502C27 28.5681 27.0131 28.6334 27.0385 28.6943C27.0638 28.7553 27.101 28.8106 27.1479 28.857C27.1944 28.9039 27.2497 28.9411 27.3106 28.9665C27.3715 28.9919 27.4369 29.0049 27.5029 29.0049C27.5689 29.0049 27.6343 28.9919 27.6952 28.9665C27.7561 28.9411 27.8114 28.9039 27.8579 28.857L30.3579 26.357C30.4048 26.3106 30.442 26.2553 30.4673 26.1943C30.4927 26.1334 30.5058 26.0681 30.5058 26.002C30.5058 25.936 30.4927 25.8707 30.4673 25.8098C30.442 25.7488 30.4048 25.6935 30.3579 25.647Z" fill="white"/>
  <defs>
    <linearGradient id="paint0_linear_228_672" x1="0" y1="6.5052" x2="15" y2="6.5052" gradientUnits="userSpaceOnUse">
      <stop stop-color="#F2CC0C"/>
      <stop offset="1" stop-color="#FF9830"/>
    </linearGradient>
    <linearGradient id="paint1_linear_228_672" x1="0" y1="25.5052" x2="15" y2="25.5052" gradientUnits="userSpaceOnUse">
      <stop stop-color="#F2CC0C"/>
      <stop offset="1" stop-color="#FF9830"/>
    </linearGradient>
  </defs>
</svg>