<svg xmlns="http://www.w3.org/2000/svg" viewBox="0 0 32 32"><path d="M31.174 18.662a.846.846 0 0 0 .843-.843v-3.658a.857.857 0 0 0-.843-.843h-2.613c-.455 0-.961-.354-1.095-.809l-.893-2.174c-.219-.404-.118-1.011.202-1.349l1.854-1.854c.32-.32.32-.86 0-1.197l-2.58-2.58c-.32-.32-.86-.32-1.197 0l-1.854 1.854c-.32.32-.928.421-1.349.202l-2.158-.893c-.439-.134-.809-.641-.809-1.095V.81a.846.846 0 0 0-.843-.843h-3.658a.846.846 0 0 0-.843.843v2.63c0 .472-.354.961-.809 1.095l-2.158.893c-.404.219-1.011.118-1.349-.202L7.168 3.372c-.32-.32-.86-.32-1.197 0l-2.58 2.58c-.32.32-.32.86 0 1.197l1.854 1.854c.32.32.421.928.202 1.349l-.893 2.158c-.134.439-.641.809-1.095.809H.829a.846.846 0 0 0-.843.843v3.658c0 .472.371.843.843.843h2.63c.472 0 .961.354 1.095.809l.893 2.174c.219.404.118 1.011-.202 1.349l-1.854 1.854c-.32.32-.32.86 0 1.197l2.58 2.58c.32.32.86.32 1.197 0l1.854-1.854c.32-.32.928-.421 1.349-.202l2.174.893c.439.134.809.641.809 1.095v2.63c0 .455.371.843.843.843h3.658a.846.846 0 0 0 .843-.843v-2.63c0-.472.354-.961.809-1.095l2.174-.893c.404-.219 1.011-.118 1.349.202l1.854 1.854c.32.32.86.32 1.197 0l2.58-2.58c.32-.32.32-.86 0-1.197l-1.854-1.854c-.32-.32-.421-.928-.202-1.349l.893-2.174c.134-.439.641-.809 1.095-.809h2.58zm-15.173 4.535c-3.725 0-6.744-3.017-6.744-6.744s3.017-6.744 6.744-6.744c3.725 0 6.744 3.017 6.744 6.744s-3.017 6.744-6.744 6.744z"/></svg>