<svg xmlns="http://www.w3.org/2000/svg" viewBox="0 0 64 64"><path d="M32,6.1667c14.2446,0,25.8333,11.5888,25.8333,25.8333s-11.5888,25.8333-25.8333,25.8333H6.1667v-25.8333c0-14.2445,11.5888-25.8333,25.8333-25.8333M32,1C14.8791,1,1,14.8791,1,32v25.8333c0,2.8534,2.3132,5.1667,5.1667,5.1667h25.8333c17.1209,0,31-13.8793,31-31S49.1209,1,32,1h0ZM33.8293,35.1288l-.84-3.1733c-.9387-3.5953-3.7847-6.38-7.4067-7.2867l-3.17-.778c-.42-.0973-.42-.7127,0-.842l1.7147-.4533c4.4947-1.166,7.988-4.728,9.088-9.23l.42-1.7167c.0973-.4207.712-.4207.8413,0l.8407,3.174c.938,3.5947,3.784,6.38,7.4067,7.2867l3.1693.7773c.42.0973.42.7127,0,.842l-3.1693.842c-3.59.94-6.372,3.7893-7.2773,7.384l-.776,3.1733c-.0973.422-.7113.422-.8407.0007M22.7413,47.2748l-.536-2.0393c-.6111-2.3107-2.4333-4.1046-4.7533-4.6793l-2.0427-.5013c-.268-.0667-.268-.4673,0-.5347l1.1047-.3c2.8773-.7708,5.1163-3.0319,5.8587-5.9167l.268-1.1027c.0667-.2673.4687-.2673.5353,0l.536,2.0387c.6111,2.3107,2.4333,4.1046,4.7533,4.6793l2.0427.5013c.2673.0667.2673.468,0,.5347l-2.042.5347c-2.3119.6075-4.1086,2.4272-4.6867,4.7467l-.5027,2.0387c-.0267.1478-.1682.246-.316.2193-.1117-.0202-.1991-.1076-.2193-.2193M36.6353,52.5402l-.3033-1.112c-.3367-1.2807-1.348-2.258-2.6287-2.5953l-1.1467-.2693c-.0838-.0147-.1397-.0946-.125-.1784.0112-.0638.0612-.1137.125-.125l.6067-.1687c1.5955-.4365,2.8321-1.6986,3.236-3.3027l.1347-.6067c.0147-.0838.0946-.1397.1784-.125.0638.0112.1137.0612.125.125l.3033,1.112c.3373,1.2807,1.348,2.258,2.6287,2.5953l1.1467.2693c.0838.0147.1397.0946.125.1784-.0112.0638-.0612.1137-.125.125l-1.1127.3033c-1.2807.3373-2.258,1.3487-2.5953,2.6293l-.2693,1.1453c-.0333.1687-.2693.1687-.3033,0"/></svg>