<svg xmlns="http://www.w3.org/2000/svg" viewBox="0 0 64 64"><path d="M25.54 38.46v18.08H7.46V38.46h18.08m1.29-3.88H6.17a2.58 2.58 0 0 0-2.58 2.58v20.67a2.58 2.58 0 0 0 2.58 2.58h20.67a2.58 2.58 0 0 0 2.58-2.58V37.17a2.59 2.59 0 0 0-2.59-2.59zM25.54 7.46v18.08H7.46V7.46h18.08m1.29-3.88H6.17a2.58 2.58 0 0 0-2.58 2.58v20.67a2.58 2.58 0 0 0 2.58 2.58h20.67a2.58 2.58 0 0 0 2.58-2.58V6.17a2.59 2.59 0 0 0-2.59-2.59zm29.71 34.88v18.08H38.46V38.46h18.08m1.29-3.88H37.17a2.58 2.58 0 0 0-2.58 2.58v20.67a2.58 2.58 0 0 0 2.58 2.58h20.67a2.58 2.58 0 0 0 2.58-2.58V37.17a2.59 2.59 0 0 0-2.59-2.59zM47.5 7.46c4.99 0 9.04 4.06 9.04 9.04s-4.06 9.04-9.04 9.04-9.04-4.06-9.04-9.04 4.05-9.04 9.04-9.04m0-3.88c-7.13 0-12.92 5.78-12.92 12.92s5.78 12.92 12.92 12.92 12.92-5.78 12.92-12.92S54.63 3.58 47.5 3.58z"/></svg>