<svg xmlns="http://www.w3.org/2000/svg" viewBox="0 0 35 32"><path d="M17.649-.016c7.271 6.358 12.909 11.243 16.929 14.654.448.368.673.817.673 1.361 0 .48-.176.897-.513 1.265s-.737.368-1.217.336h-3.107v12.604c0 .48-.176.897-.512 1.265s-.737.545-1.217.545h-6.07c-.497 0-.913-.176-1.249-.545s-.512-.785-.545-1.265v-7.8h-6.454v7.8c0 .48-.176.897-.512 1.265s-.737.545-1.217.545H6.616c-.48 0-.897-.176-1.249-.545-.368-.368-.545-.785-.545-1.265V17.6H1.779c-.496 0-.913 0-1.249-.336s-.512-.769-.545-1.265c-.016-.496.192-.961.641-1.361L17.651-.016z"/></svg>