<svg xmlns="http://www.w3.org/2000/svg" viewBox="0 0 64 64"><path d="M6.1667,6.1667H32V16.5c0,2.8419,2.3251,5.1667,5.1667,5.1667H47.5v10.6689	C48.3267,32.1034,49.2049,32,50.0833,32s1.7566,0.1034,2.5833,0.3355V15.4152c0-0.6458-0.2326-1.24-0.6458-1.7054L39.9567,1.6458	C39.4917,1.2321,38.8975,1,38.2516,1H6.1667C3.3251,1,1,3.3247,1,6.1667v51.6667C1,60.6753,3.3251,63,6.1667,63h5.1667v-5.1667	H6.1667V6.1667z M37.1667,6.1667L47.5,16.5H37.1667V6.1667z M63,57.6265V63H47.5v-5.3735c0-1.8858-0.6717-3.5906-1.8858-5.0632	c0.4133-0.0517,0.8267-0.1034,1.24-0.1552v-1.1882c-1.9375-1.2917-3.2292-3.7198-3.2292-6.5101c0-3.0999,1.6017-5.7608,3.875-6.9232	c0.8008-0.3879,1.6792-0.62,2.5833-0.62c0.9041,0,1.7825,0.2321,2.5833,0.62c2.2733,1.1624,3.875,3.8233,3.875,6.9232	c0,2.7902-1.2917,5.2184-3.2292,6.5101v1.1882C58.8924,53.0022,63,55.1207,63,57.6265z M42.3333,57.6265v0.2069V63H16.5v-5.1667	v-0.2069c0-2.5058,4.1076-4.6243,9.6875-5.2184v-1.1882c-1.9375-1.2917-3.2291-3.7198-3.2291-6.5101	c0-4.1588,2.8933-7.5431,6.4583-7.5431s6.4583,3.3843,6.4583,7.5431c0,2.7902-1.2917,5.2184-3.2292,6.5101v1.1882	c0.4133,0.0517,0.8267,0.1034,1.24,0.1552c1.0593,0.181,2.0668,0.3872,2.9709,0.6717c1.1108,0.3097,2.0666,0.6976,2.8933,1.1624	C41.3517,55.3017,42.3333,56.4382,42.3333,57.6265z"/></svg>