
<?xml version="1.0" encoding="UTF-8"?>
<svg width="57px" height="56px" viewBox="0 0 57 56" version="1.1" xmlns="http://www.w3.org/2000/svg" xmlns:xlink="http://www.w3.org/1999/xlink">
    <title>icon-helix-dashboards</title>
    <defs>
        <polygon id="path-1" points="0 0 56.0255111 0 56.0255111 55.9998756 0 55.9998756"></polygon>
    </defs>
    <g id="Dashboard" stroke-width="1" fill="currentColor" fill-rule="evenodd">
        <g id="ADE-Platform-Spec" transform="translate(-882.000000, -1539.000000)">
            <g id="product-tile-dashboards" transform="translate(684.000000, 1523.000000)">
                <g id="icon-helix-dashboards" transform="translate(198.000000, 16.000000)">
                    <g id="Group-12" transform="translate(-0.000000, 0.000000)">
                        <g id="Group-3">
                            <!-- <mask id="mask-2" fill="white"> -->
                                <!-- <use xlink:href="#path-1"></use> -->
                            <!-- </mask> -->
                            <!-- <g id="Clip-2"></g> -->
                            <path d="M53.4913244,52.1940533 C53.4913244,52.8962311 52.92168,53.4661867 52.2191911,53.4661867 L3.80874667,53.4661867 C3.10905778,53.4661867 2.53910222,52.8962311 2.53910222,52.1940533 L2.53910222,3.80600889 C2.53910222,3.10632 3.10905778,2.53916444 3.80874667,2.53916444 L52.2191911,2.53916444 C52.92168,2.53916444 53.4913244,3.10632 53.4913244,3.80600889 L53.4913244,52.1940533 Z M52.2191911,-0.000124444444 L3.80874667,-0.000124444444 C1.70968,-0.000124444444 -0.000186666667,1.70725333 -0.000186666667,3.80600889 L-0.000186666667,52.1940533 C-0.000186666667,54.2952978 1.70968,55.9998756 3.80874667,55.9998756 L52.2191911,55.9998756 C54.3207467,55.9998756 56.0256356,54.2952978 56.0256356,52.1940533 L56.0256356,3.80600889 C56.0256356,1.70725333 54.3207467,-0.000124444444 52.2191911,-0.000124444444 L52.2191911,-0.000124444444 Z" id="Fill-1" fill="currnetColor" mask="url(#mask-2)"></path>
                        </g>
                        <path d="M16.5957867,22.4473822 C13.0973422,22.4473822 10.2528533,19.6028933 10.2528533,16.10476 C10.2528533,13.0564933 12.4558311,10.6232933 15.3261422,10.0163156 L15.3261422,13.5654711 C15.3261422,15.6645378 17.0332089,17.3740933 19.1322756,17.3740933 L22.6817422,17.3740933 C22.0753867,20.2444044 19.6440533,22.4473822 16.5957867,22.4473822 M22.6817422,14.8351156 L19.1322756,14.8351156 C18.4325867,14.8351156 17.86512,14.26516 17.86512,13.5654711 L17.86512,10.0163156 C20.3116978,10.5336933 22.1646756,12.3885378 22.6817422,14.8351156 M16.5957867,7.22036 C11.6982756,7.22036 7.71387556,11.2072489 7.71387556,16.10476 C7.71387556,21.0022711 11.6982756,24.98636 16.5957867,24.98636 C21.4932978,24.98636 25.4773867,21.0022711 25.4773867,16.10476 C25.4773867,11.2072489 21.4932978,7.22036 16.5957867,7.22036" id="Fill-4" fill="currnetColor"></path>
                        <path d="M16.5957867,46.2404133 C15.3118311,46.2404133 14.1843644,45.7628578 13.1847644,45.1048578 L16.7510311,41.5389022 C17.4684533,40.81868 17.86512,39.8648133 17.86512,38.8471689 L17.86512,33.8118356 C20.7354311,34.41788 22.9384089,36.8495244 22.9384089,39.8977911 C22.9384089,43.3959244 20.09392,46.2404133 16.5957867,46.2404133 M10.2528533,39.8977911 C10.2528533,36.8495244 12.4558311,34.41788 15.3261422,33.8118356 L15.3261422,38.8471689 C15.3261422,39.1853467 15.19392,39.5036133 14.9546756,39.7425467 L11.38872,43.3085022 C10.73072,42.3089022 10.2528533,41.1817467 10.2528533,39.8977911 M16.5957867,31.01588 C11.6982756,31.01588 7.71387556,35.00028 7.71387556,39.8977911 C7.71387556,44.7953022 11.6982756,48.7797022 16.5957867,48.7797022 C21.4932978,48.7797022 25.4773867,44.7953022 25.4773867,39.8977911 C25.4773867,35.00028 21.4932978,31.01588 16.5957867,31.01588" id="Fill-6" fill="currnetColor"></path>
                        <path d="M47.0445733,11.5658044 C46.3420844,11.5658044 45.7774178,12.13576 45.7774178,12.8354489 L45.7774178,22.4475378 L43.23844,22.4475378 L43.23844,16.3360711 C43.23844,15.6363822 42.6734622,15.0667378 41.9712844,15.0667378 C41.2694178,15.0667378 40.70444,15.6363822 40.70444,16.3360711 L40.70444,22.4475378 L38.1651511,22.4475378 L38.1651511,9.33700444 C38.1651511,8.63731556 37.6004844,8.06767111 36.8983067,8.06767111 C36.1961289,8.06767111 35.6311511,8.63731556 35.6311511,9.33700444 L35.6311511,22.4475378 L33.0871956,22.4475378 L33.0871956,12.8354489 C33.0871956,12.13576 32.5222178,11.5658044 31.82004,11.5658044 C31.1178622,11.5658044 30.5503956,12.13576 30.5503956,12.8354489 L30.5503956,23.3276711 C30.5503956,23.4035822 30.6182178,23.4499378 30.6309733,23.5224267 C30.6182178,23.5946044 30.5503956,23.64096 30.5503956,23.7168711 C30.5503956,24.41656 31.1178622,24.9865156 31.82004,24.9865156 L47.0445733,24.9865156 C47.7467511,24.9865156 48.3114178,24.41656 48.3114178,23.7168711 C48.3114178,23.64096 48.2435956,23.5946044 48.23084,23.5224267 C48.2435956,23.4499378 48.3114178,23.4035822 48.3114178,23.3276711 L48.3114178,12.8354489 C48.3114178,12.13576 47.7467511,11.5658044 47.0445733,11.5658044" id="Fill-8" fill="currnetColor"></path>
                        <path d="M47.0445733,36.3234356 C46.3420844,36.3234356 45.7774178,36.89308 45.7774178,37.5927689 L45.7774178,46.2404133 L43.23844,46.2404133 L43.23844,33.9776578 C43.23844,33.2779689 42.6734622,32.7080133 41.9712844,32.7080133 C41.2694178,32.7080133 40.70444,33.2779689 40.70444,33.9776578 L40.70444,46.2404133 L38.1651511,46.2404133 L38.1651511,37.5927689 C38.1651511,36.89308 37.6004844,36.3234356 36.8983067,36.3234356 C36.1961289,36.3234356 35.6311511,36.89308 35.6311511,37.5927689 L35.6311511,46.2404133 L33.0871956,46.2404133 L33.0871956,42.4140578 C33.0871956,41.7143689 32.5222178,41.1444133 31.82004,41.1444133 C31.1178622,41.1444133 30.5503956,41.7143689 30.5503956,42.4140578 L30.5503956,47.2275689 C30.5503956,47.2829467 30.6023511,47.3156133 30.6091956,47.3688133 C30.6023511,47.4220133 30.5503956,47.4549911 30.5503956,47.5100578 C30.5503956,48.2097467 31.1178622,48.7797022 31.82004,48.7797022 L47.0445733,48.7797022 C47.7467511,48.7797022 48.3114178,48.2097467 48.3114178,47.5100578 C48.3114178,47.4549911 48.2597733,47.4220133 48.25324,47.3688133 C48.2597733,47.3156133 48.3114178,47.2829467 48.3114178,47.2275689 L48.3114178,37.5927689 C48.3114178,36.89308 47.7467511,36.3234356 47.0445733,36.3234356" id="Fill-10" fill="currnetColor"></path>
                    </g>
                </g>
            </g>
        </g>
    </g>
</svg>