<svg xmlns="http://www.w3.org/2000/svg" viewBox="0 0 64 64"><path d="M35.88 4.88v.98l-15.5 15.5L4.88 5.85v-.97h31M39.75 1H1v4.85c0 1.03.41 2.01 1.14 2.74L17.8 24.25v20.67l5.17 2.58V24.25L38.61 8.59c.73-.73 1.14-1.71 1.14-2.74V1zm5.17 29.71c7.83 0 14.21 6.37 14.21 14.21s-6.37 14.21-14.21 14.21-14.21-6.37-14.21-14.21 6.37-14.21 14.21-14.21m0-3.88c-9.99 0-18.08 8.1-18.08 18.08S34.93 63 44.92 63 63 54.9 63 44.92s-8.1-18.09-18.08-18.09zm2.35 20.67l5.32-5.17 2.87-2.79-2.22-2.17-5.11 4.96-5.33 5.17-.67.65-.67-.65-4.86-4.73-2.22 2.14 2.66 2.58 5.11 4.96 5.12-4.95z"/></svg>