<svg xmlns="http://www.w3.org/2000/svg" viewBox="0 0 22 26">
  <path
    d="M7.86 16a8.262 8.262 0 0 0 0 2H5v-2h2.86zm1.42-4H5v2h3.3c.25-.71.58-1.38.98-2zm1.76 12H2c-1.1 0-2-.9-2-2V2C0 .9.9 0 2 0h12.42c.25 0 .48.09.66.25l.09.09 4.49 4.49.09.09c.16.18.25.41.25.66V8.3a9.3 9.3 0 0 0-3-.5c-.65 0-1.28.07-1.89.2H14c-1.1 0-2-.9-2-2V2H2v20h7.28c.49.75 1.08 1.42 1.76 2zM14 6h4l-4-4v4zm3.25 11v-4h-1.5v5.5h4V17h-2.5zM24 17c0 3.14-2.07 5.8-4.92 6.69h-.02c-.65.2-1.34.31-2.06.31-1.91 0-3.63-.76-4.89-2-.54-.51-.99-1.12-1.33-1.79-.28-.53-.48-1.09-.61-1.69a4.34 4.34 0 0 1-.09-.52c-.06-.32-.08-.66-.08-1 0-.16.01-.32.03-.48 0-.18.02-.35.05-.52.06-.52.19-1.01.38-1.48.06-.18.13-.35.22-.52.35-.75.84-1.43 1.43-2 .21-.21.43-.41.67-.57.48-.38 1.01-.68 1.57-.91A6.88 6.88 0 0 1 17 10c.34 0 .68.02 1 .08.71.09 1.38.3 2 .6A6.97 6.97 0 0 1 24 17zm-1.5 0c0-1.93-1-3.62-2.5-4.6-.38-.25-.79-.46-1.22-.6a4.97 4.97 0 0 0-.78-.21 5.47 5.47 0 0 0-1-.09c-.07 0-.15 0-.22.01-.71.02-1.39.19-2 .46l-.06.03c-.32.14-.62.32-.9.52-.56.4-1.05.9-1.42 1.48a5.41 5.41 0 0 0-.9 3 5.458 5.458 0 0 0 1.28 3.52c.52.63 1.19 1.14 1.94 1.48.69.32 1.46.5 2.28.5 1.11 0 2.14-.33 3-.9 1.5-.98 2.5-2.67 2.5-4.6z">
  </path>
</svg>
