<svg xmlns="http://www.w3.org/2000/svg" viewBox="0 0 32 32"><path d="M14.772 17.215h2.442v3.657h-2.442v-3.657zm4.044-7.448c-.24-.307-.601-.534-1.081-.667-.467-.133-1.054-.2-1.735-.2-1.521 0-2.456.334-2.776 1.014s-.454 1.068-.4 1.201v2.442h6.486v-2.095c0-.12 0-.36-.013-.707-.013-.36-.174-.681-.48-.988zm12.386-.173v4.791c0 1.068-.093 2.122-.28 3.163s-.507 2.082-.934 3.123-.934 2.029-1.481 2.976a23.285 23.285 0 0 1-1.828 2.696c-.694.814-1.428 1.562-2.242 2.242s-1.668 1.281-2.576 1.828c-.921.561-1.868.974-2.856 1.241s-2.029.36-3.07.36-2.055-.133-3.056-.387-1.949-.667-2.856-1.241c-.921-.48-1.775-1.054-2.576-1.735s-1.548-1.455-2.242-2.336c-.667-.854-1.255-1.748-1.762-2.696s-.988-1.935-1.428-2.976c-.44-1.041-.747-2.082-.934-3.123s-.28-2.095-.28-3.163V9.592L15.188-.017h.747l15.268 9.609zM23.341 16c0-.681-.24-1.255-.721-1.735s-1.054-.721-1.722-.721v-2.069c-.107-1.188-.427-2.082-.988-2.696-.427-.427-.961-.761-1.588-.988S16.907 7.444 16 7.444c-.787 0-1.508.107-2.162.334-.654.214-1.201.507-1.642.881-.547.547-.854 1.054-.948 1.535s-.133.787-.133.908v2.442c-.681 0-1.255.24-1.735.721S8.659 15.319 8.659 16v6.099c0 .681.24 1.255.721 1.735s1.054.721 1.735.721h9.783c.667 0 1.241-.24 1.722-.721s.721-1.054.721-1.735V16z"/></svg>