<svg viewBox="-4.2 -3.7 439.14 439.14" xmlns="http://www.w3.org/2000/svg"><path d="m329.643 275.202a54.609 54.609 0 1 0 -54.608-54.61 54.672 54.672 0 0 0 54.608 54.61zm0-89.35a34.947 34.947 0 1 1 -34.947 34.948 34.947 34.947 0 0 1 34.947-34.948z" fill="none"/><path d="m417.343 216.014c0-111.3-90.55-201.85-201.85-201.85s-201.85 90.55-201.85 201.85 90.55 201.85 201.85 201.85 201.85-90.55 201.85-201.85zm-292.54 9.436h-18.2a35.326 35.326 0 1 1 .278-6.204h22.287v.592l.064-.025 22.046 55.117 24.993-57.842h29.413l26.339-65.423 23.712 67.75h13.11a60.813 60.813 0 0 1 27.464-49.658l-58.457-55.534a34.96 34.96 0 1 1 4.39-4.389l59.643 56.66a60.816 60.816 0 1 1 -1.999 107.117l-58.118 58.118-4.386-4.386 57.134-57.135a60.828 60.828 0 0 1 -25.476-44.59h-17.707l-19.716-56.331-21.743 54.005h-29.525l-29.292 67.79zm54.916 128.737a34.947 34.947 0 1 1 34.947 34.947 34.947 34.947 0 0 1 -34.947-34.947z" fill="none"/><g fill="#3b697e"><path d="m426.65 216.014c0-116.432-94.725-211.156-211.157-211.156s-211.155 94.724-211.155 211.156 94.722 211.156 211.155 211.156 211.157-94.724 211.157-211.156zm-413.006 0c0-111.3 90.55-201.85 201.85-201.85s201.849 90.55 201.849 201.85-90.55 201.85-201.85 201.85-201.85-90.55-201.85-201.85z"/><circle cx="329.643" cy="220.8" r="34.947"/><circle cx="214.666" cy="354.187" r="34.947"/><path d="m209.874 223.292 21.743-54.005 19.716 56.331h17.707a60.828 60.828 0 0 0 25.476 44.59l-57.134 57.135 4.386 4.386 58.118-58.118a60.81 60.81 0 1 0 1.999-107.116l-59.643-56.66a34.954 34.954 0 1 0 -4.39 4.388l58.457 55.534a60.813 60.813 0 0 0 -27.463 49.657h-13.111l-23.712-67.749-26.339 65.423h-29.413l-24.993 57.841-22.046-55.117-.064.026v-.592h-22.287a34.958 34.958 0 1 0 -.278 6.204h18.2l26.254 65.632 29.292-67.79zm119.769-57.307a54.609 54.609 0 1 1 -54.608 54.608 54.67 54.67 0 0 1 54.608-54.608z"/></g></svg>