<svg width="14" height="26" viewBox="0 0 14 26" fill="none" xmlns="http://www.w3.org/2000/svg">
<path d="M6.91383 2.50082C7.65753 2.50082 8.26043 1.94099 8.26043 1.25041C8.26043 0.559827 7.65753 0 6.91383 0C6.17012 0 5.56723 0.559827 5.56723 1.25041C5.56723 1.94099 6.17012 2.50082 6.91383 2.50082Z" fill="url(#paint0_linear_1761_13128)"/>
<path d="M7.76653 8.83258C7.62149 8.83258 7.50323 8.94239 7.50323 9.07707V14.7293C7.50323 14.864 7.62149 14.9738 7.76653 14.9738H9.54152C9.67652 14.9738 9.79032 14.8784 9.80371 14.7531L10.414 9.1009C10.4296 8.9569 10.308 8.83154 10.1518 8.83154H7.76541L7.76653 8.83258Z" fill="url(#paint1_linear_1761_13128)"/>
<path d="M3.82359 8.83301C3.66739 8.83301 3.54579 8.95837 3.56141 9.10236L4.16721 14.7545C4.1806 14.88 4.29439 14.9753 4.42939 14.9753H6.18655C6.33158 14.9753 6.44984 14.8654 6.44984 14.7308V9.07854C6.44984 8.94386 6.33158 8.83405 6.18655 8.83405L3.82359 8.83301Z" fill="url(#paint2_linear_1761_13128)"/>
<path d="M13.7109 8.83301H11.7428C11.6078 8.83301 11.494 8.92832 11.4806 9.05367L10.8704 14.7059C10.8547 14.8498 10.9764 14.9753 11.1325 14.9753H12.4992C12.6253 14.9753 12.7335 14.8923 12.7581 14.7785L13.9707 9.12618C14.0032 8.97494 13.8782 8.83405 13.712 8.83405L13.7109 8.83301Z" fill="url(#paint3_linear_1761_13128)"/>
<path d="M3.1033 14.7059L2.4975 9.05367C2.48411 8.92832 2.37031 8.83301 2.23532 8.83301H0.263956C0.0977241 8.83301 -0.02723 8.9739 0.005125 9.12515L1.21784 14.7774C1.24239 14.8923 1.3506 14.9742 1.47667 14.9742H2.84112C2.9973 14.9742 3.11892 14.8498 3.1033 14.7059Z" fill="url(#paint4_linear_1761_13128)"/>
<path d="M1.77308 4.91963H12.0561C12.2859 4.91963 12.4889 4.7808 12.5581 4.57672C12.6641 4.26179 12.4109 3.9427 12.0561 3.9427H7.30895V2.94922C7.18176 2.97511 7.05012 2.98858 6.91402 2.98858C6.7779 2.98858 6.64626 2.97407 6.51907 2.94922V3.9427H1.77308C1.41829 3.9427 1.16504 4.26179 1.27103 4.57672C1.3402 4.7808 1.54326 4.91963 1.77308 4.91963Z" fill="url(#paint5_linear_1761_13128)"/>
<path d="M11.5082 7.68505L12.0025 6.21501C12.056 6.05755 11.9288 5.89697 11.7514 5.89697H2.07091C1.89352 5.89697 1.76633 6.05755 1.81989 6.21501L2.31413 7.68505C2.34871 7.78762 2.45023 7.85702 2.56515 7.85702H11.2561C11.371 7.85702 11.4748 7.78762 11.5082 7.68505Z" fill="url(#paint6_linear_1761_13128)"/>
<path d="M10.925 15.9541H2.90006C2.60888 15.9541 2.37347 16.1728 2.37347 16.4432V24.5319C2.37347 25.3431 3.0808 25.9998 3.95436 25.9998H9.87068C10.7442 25.9998 11.4516 25.3431 11.4516 24.5319V16.4432C11.4516 16.1728 11.2162 15.9541 10.925 15.9541Z" fill="url(#paint7_linear_1761_13128)"/>
<defs>
<linearGradient id="paint0_linear_1761_13128" x1="-0.310034" y1="-7.97382" x2="23.3982" y2="27.1329" gradientUnits="userSpaceOnUse">
<stop stop-color="#FFEA00"/>
<stop offset="1" stop-color="#E95A28"/>
</linearGradient>
<linearGradient id="paint1_linear_1761_13128" x1="-4.43094" y1="-5.19439" x2="19.2773" y2="29.9123" gradientUnits="userSpaceOnUse">
<stop stop-color="#FFEA00"/>
<stop offset="1" stop-color="#E95A28"/>
</linearGradient>
<linearGradient id="paint2_linear_1761_13128" x1="-6.81976" y1="-3.57993" x2="16.8884" y2="31.5258" gradientUnits="userSpaceOnUse">
<stop stop-color="#FFEA00"/>
<stop offset="1" stop-color="#E95A28"/>
</linearGradient>
<linearGradient id="paint3_linear_1761_13128" x1="-2.16607" y1="-6.72202" x2="21.5422" y2="28.3837" gradientUnits="userSpaceOnUse">
<stop stop-color="#FFEA00"/>
<stop offset="1" stop-color="#E95A28"/>
</linearGradient>
<linearGradient id="paint4_linear_1761_13128" x1="-9.07742" y1="-2.05499" x2="14.6307" y2="33.0507" gradientUnits="userSpaceOnUse">
<stop stop-color="#FFEA00"/>
<stop offset="1" stop-color="#E95A28"/>
</linearGradient>
<linearGradient id="paint5_linear_1761_13128" x1="-1.93983" y1="-6.8738" x2="21.7683" y2="28.2329" gradientUnits="userSpaceOnUse">
<stop stop-color="#FFEA00"/>
<stop offset="1" stop-color="#E95A28"/>
</linearGradient>
<linearGradient id="paint6_linear_1761_13128" x1="-3.03433" y1="-6.1368" x2="20.6739" y2="28.9689" gradientUnits="userSpaceOnUse">
<stop stop-color="#FFEA00"/>
<stop offset="1" stop-color="#E95A28"/>
</linearGradient>
<linearGradient id="paint7_linear_1761_13128" x1="-10.2479" y1="-1.26362" x2="13.4602" y2="33.8431" gradientUnits="userSpaceOnUse">
<stop stop-color="#FFEA00"/>
<stop offset="1" stop-color="#E95A28"/>
</linearGradient>
</defs>
</svg>
