<?xml version="1.0" encoding="UTF-8" standalone="no"?><!DOCTYPE svg PUBLIC "-//W3C//DTD SVG 1.1//EN" "http://www.w3.org/Graphics/SVG/1.1/DTD/svg11.dtd"><svg width="100%" height="100%" viewBox="0 0 440 440" version="1.1" xmlns="http://www.w3.org/2000/svg" xmlns:xlink="http://www.w3.org/1999/xlink" xml:space="preserve" xmlns:serif="http://www.serif.com/" style="fill-rule:evenodd;clip-rule:evenodd;stroke-linejoin:round;stroke-miterlimit:2;"><path d="M54.404,375.588l63.152,0l44.246,-84.969l-30.624,-58.779l-76.774,143.748Zm343.478,-146.147l-34.53,66.276l40.44,78.896l34.555,-66.55l-40.465,-78.622Zm-10.492,-20.293l-73.719,-143.047l-36.358,64.127l75.497,145.272l34.58,-66.352Zm-114.835,87.469l41.116,78.921l70.113,-0l-76.222,-146.271l-35.007,67.35Zm-151.844,-84.969l-34.381,-66.326l-43.895,84.42l33.729,65.275l44.547,-83.369Zm-88.543,38.186l-31.375,61.952l34.53,62.703l30.6,-59.204l-33.755,-65.451Zm233.477,-100.538l-36.559,64.551l33.002,62.702l35.057,-67.35l-31.5,-59.903Zm-137.898,-85.744l-31.551,61.377l122.698,234.64l32.728,-62.802l-62,-118.982l-61.875,-114.233Z" style="fill:url(#_Linear1);fill-rule:nonzero;"/><defs><linearGradient id="_Linear1" x1="0" y1="0" x2="1" y2="0" gradientUnits="userSpaceOnUse" gradientTransform="matrix(2.53441e-14,413.9,-413.9,2.53441e-14,219.645,68.5)"><stop offset="0" style="stop-color:#f2c144;stop-opacity:1"/><stop offset="0.24" style="stop-color:#f1a03b;stop-opacity:1"/><stop offset="0.57" style="stop-color:#f17a31;stop-opacity:1"/><stop offset="0.84" style="stop-color:#f0632a;stop-opacity:1"/><stop offset="1" style="stop-color:#f05a28;stop-opacity:1"/></linearGradient></defs></svg>