<svg clip-rule="evenodd" fill-rule="evenodd" stroke-linejoin="round" stroke-miterlimit="2" viewBox="0 0 440 440" xmlns="http://www.w3.org/2000/svg" xmlns:xlink="http://www.w3.org/1999/xlink"><linearGradient id="a" gradientTransform="matrix(0 413.9 -413.9 0 219.645 68.5)" gradientUnits="userSpaceOnUse" x1="0" x2="1" y1="0" y2="0"><stop offset="0" stop-color="#f2c144"/><stop offset=".24" stop-color="#f1a03b"/><stop offset=".57" stop-color="#f17a31"/><stop offset=".84" stop-color="#f0632a"/><stop offset="1" stop-color="#f05a28"/></linearGradient><path d="m54.404 375.588h63.152l44.246-84.969-30.624-58.779zm343.478-146.147-34.53 66.276 40.44 78.896 34.555-66.55zm-10.492-20.293-73.719-143.047-36.358 64.127 75.497 145.272zm-114.835 87.469 41.116 78.921h70.113l-76.222-146.271zm-151.844-84.969-34.381-66.326-43.895 84.42 33.729 65.275zm-88.543 38.186-31.375 61.952 34.53 62.703 30.6-59.204zm233.477-100.538-36.559 64.551 33.002 62.702 35.057-67.35zm-137.898-85.744-31.551 61.377 122.698 234.64 32.728-62.802-62-118.982z" fill="url(#a)" fill-rule="nonzero"/><path d="m383.609 330.855c0-17.198-13.961-31.16-31.159-31.16h-264.898c-17.198 0-31.161 13.962-31.161 31.16v62.32c0 17.198 13.963 31.16 31.161 31.16h264.898c17.198 0 31.159-13.962 31.159-31.16z"/><circle cx="131.052" cy="362.017" fill="#f00" r="36.225"/><g fill="#fff" fill-rule="nonzero"><path d="m188.372 389.94v-55.846h23.732c5.968 0 10.305.501 13.009 1.504 2.706 1.003 4.87 2.787 6.496 5.353 1.625 2.565 2.438 5.498 2.438 8.799 0 4.19-1.233 7.651-3.696 10.381s-6.145 4.45-11.047 5.161c2.438 1.423 4.451 2.984 6.038 4.686 1.587 1.701 3.727 4.724 6.418 9.066l6.82 10.896h-13.485l-8.153-12.153c-2.895-4.342-4.875-7.079-5.942-8.209s-2.197-1.904-3.39-2.323c-1.194-.42-3.086-.63-5.677-.63h-2.285v23.315zm11.276-32.229h8.342c5.41 0 8.788-.228 10.133-.685 1.346-.456 2.4-1.245 3.162-2.362.761-1.117 1.143-2.514 1.143-4.19 0-1.879-.502-3.397-1.505-4.552-1.004-1.156-2.419-1.886-4.248-2.19-.914-.127-3.657-.191-8.228-.191h-8.799z"/><path d="m244.675 389.94v-55.846h41.407v9.447h-30.132v12.38h28.037v9.41h-28.037v15.199h31.199v9.41z"/><path d="m332.443 369.406 10.933 3.467c-1.677 6.094-4.464 10.621-8.362 13.581-3.898 2.958-8.844 4.437-14.838 4.437-7.415 0-13.509-2.533-18.285-7.6-4.774-5.065-7.161-11.992-7.161-20.78 0-9.294 2.4-16.513 7.2-21.656s11.111-7.714 18.932-7.714c6.832 0 12.381 2.02 16.648 6.057 2.539 2.387 4.444 5.815 5.713 10.285l-11.16 2.667c-.662-2.895-2.039-5.181-4.134-6.857-2.096-1.676-4.641-2.514-7.637-2.514-4.14 0-7.5 1.486-10.077 4.457s-3.867 7.784-3.867 14.438c0 7.059 1.27 12.088 3.81 15.085s5.841 4.494 9.904 4.494c2.997 0 5.575-.952 7.734-2.857 2.158-1.904 3.707-4.901 4.647-8.99z"/></g></svg>