<svg clip-rule="evenodd" fill-rule="evenodd" stroke-linejoin="round" stroke-miterlimit="2" viewBox="0 0 440 440" xmlns="http://www.w3.org/2000/svg" xmlns:xlink="http://www.w3.org/1999/xlink"><linearGradient id="a" gradientTransform="matrix(0 413.9 -413.9 0 219.645 68.5)" gradientUnits="userSpaceOnUse" x1="0" x2="1" y1="0" y2="0"><stop offset="0" stop-color="#f2c144"/><stop offset=".24" stop-color="#f1a03b"/><stop offset=".57" stop-color="#f17a31"/><stop offset=".84" stop-color="#f0632a"/><stop offset="1" stop-color="#f05a28"/></linearGradient><path d="m54.404 375.588h63.152l44.246-84.969-30.624-58.779zm343.478-146.147-34.53 66.276 40.44 78.896 34.555-66.55zm-10.492-20.293-73.719-143.047-36.358 64.127 75.497 145.272zm-114.835 87.469 41.116 78.921h70.113l-76.222-146.271zm-151.844-84.969-34.381-66.326-43.895 84.42 33.729 65.275zm-88.543 38.186-31.375 61.952 34.53 62.703 30.6-59.204zm233.477-100.538-36.559 64.551 33.002 62.702 35.057-67.35zm-137.898-85.744-31.551 61.377 122.698 234.64 32.728-62.802-62-118.982z" fill="url(#a)" fill-rule="nonzero"/></svg>