<?xml version="1.0" encoding="UTF-8" standalone="no"?><!DOCTYPE svg PUBLIC "-//W3C//DTD SVG 1.1//EN" "http://www.w3.org/Graphics/SVG/1.1/DTD/svg11.dtd"><svg width="100%" height="100%" viewBox="0 0 440 440" version="1.1" xmlns="http://www.w3.org/2000/svg" xmlns:xlink="http://www.w3.org/1999/xlink" xml:space="preserve" xmlns:serif="http://www.serif.com/" style="fill-rule:evenodd;clip-rule:evenodd;stroke-linejoin:round;stroke-miterlimit:2;"><path d="M54.404,375.588l63.152,0l44.246,-84.969l-30.624,-58.779l-76.774,143.748Zm343.478,-146.147l-34.53,66.276l40.44,78.896l34.555,-66.55l-40.465,-78.622Zm-10.492,-20.293l-73.719,-143.047l-36.358,64.127l75.497,145.272l34.58,-66.352Zm-114.835,87.469l41.116,78.921l70.113,-0l-76.222,-146.271l-35.007,67.35Zm-151.844,-84.969l-34.381,-66.326l-43.895,84.42l33.729,65.275l44.547,-83.369Zm-88.543,38.186l-31.375,61.952l34.53,62.703l30.6,-59.204l-33.755,-65.451Zm233.477,-100.538l-36.559,64.551l33.002,62.702l35.057,-67.35l-31.5,-59.903Zm-137.898,-85.744l-31.551,61.377l122.698,234.64l32.728,-62.802l-62,-118.982l-61.875,-114.233Z" style="fill:url(#_Linear1);fill-rule:nonzero;"/><g id="rec"><path d="M383.609,330.855c0,-17.198 -13.961,-31.16 -31.159,-31.16l-264.898,0c-17.198,0 -31.161,13.962 -31.161,31.16l0,62.32c0,17.198 13.963,31.16 31.161,31.16l264.898,0c17.198,0 31.159,-13.962 31.159,-31.16l0,-62.32Z"/><circle cx="131.052" cy="362.017" r="36.225" style="fill:#f00;"/><path d="M188.372,389.94l0,-55.846l23.732,0c5.968,0 10.305,0.501 13.009,1.504c2.706,1.003 4.87,2.787 6.496,5.353c1.625,2.565 2.438,5.498 2.438,8.799c0,4.19 -1.233,7.651 -3.696,10.381c-2.463,2.73 -6.145,4.45 -11.047,5.161c2.438,1.423 4.451,2.984 6.038,4.686c1.587,1.701 3.727,4.724 6.418,9.066l6.82,10.896l-13.485,0l-8.153,-12.153c-2.895,-4.342 -4.875,-7.079 -5.942,-8.209c-1.067,-1.13 -2.197,-1.904 -3.39,-2.323c-1.194,-0.42 -3.086,-0.63 -5.677,-0.63l-2.285,0l0,23.315l-11.276,0Zm11.276,-32.229l8.342,0c5.41,0 8.788,-0.228 10.133,-0.685c1.346,-0.456 2.4,-1.245 3.162,-2.362c0.761,-1.117 1.143,-2.514 1.143,-4.19c-0,-1.879 -0.502,-3.397 -1.505,-4.552c-1.004,-1.156 -2.419,-1.886 -4.248,-2.19c-0.914,-0.127 -3.657,-0.191 -8.228,-0.191l-8.799,0l-0,14.17Z" style="fill:#fff;fill-rule:nonzero;"/><path d="M244.675,389.94l0,-55.846l41.407,0l0,9.447l-30.132,0l0,12.38l28.037,0l0,9.41l-28.037,0l0,15.199l31.199,0l0,9.41l-42.474,0Z" style="fill:#fff;fill-rule:nonzero;"/><path d="M332.443,369.406l10.933,3.467c-1.677,6.094 -4.464,10.621 -8.362,13.581c-3.898,2.958 -8.844,4.437 -14.838,4.437c-7.415,0 -13.509,-2.533 -18.285,-7.6c-4.774,-5.065 -7.161,-11.992 -7.161,-20.78c0,-9.294 2.4,-16.513 7.2,-21.656c4.8,-5.143 11.111,-7.714 18.932,-7.714c6.832,0 12.381,2.02 16.648,6.057c2.539,2.387 4.444,5.815 5.713,10.285l-11.16,2.667c-0.662,-2.895 -2.039,-5.181 -4.134,-6.857c-2.096,-1.676 -4.641,-2.514 -7.637,-2.514c-4.14,0 -7.5,1.486 -10.077,4.457c-2.577,2.971 -3.867,7.784 -3.867,14.438c0,7.059 1.27,12.088 3.81,15.085c2.54,2.997 5.841,4.494 9.904,4.494c2.997,0 5.575,-0.952 7.734,-2.857c2.158,-1.904 3.707,-4.901 4.647,-8.99Z" style="fill:#fff;fill-rule:nonzero;"/></g><defs><linearGradient id="_Linear1" x1="0" y1="0" x2="1" y2="0" gradientUnits="userSpaceOnUse" gradientTransform="matrix(2.53441e-14,413.9,-413.9,2.53441e-14,219.645,68.5)"><stop offset="0" style="stop-color:#f2c144;stop-opacity:1"/><stop offset="0.24" style="stop-color:#f1a03b;stop-opacity:1"/><stop offset="0.57" style="stop-color:#f17a31;stop-opacity:1"/><stop offset="0.84" style="stop-color:#f0632a;stop-opacity:1"/><stop offset="1" style="stop-color:#f05a28;stop-opacity:1"/></linearGradient></defs></svg>