<svg xmlns="http://www.w3.org/2000/svg" width="159" height="579" viewBox="0 0 159 579" fill="none">
<rect x="33.1758" width="92.6484" height="34.3359" rx="17.168" fill="#6CCF8E"/>
<path d="M50.8065 22.1818L51.7411 19.4872H55.7184L56.6481 22.1818H58.2788L54.6147 12H52.8398L49.1758 22.1818H50.8065ZM52.1886 18.1946L53.69 13.8494H53.7695L55.271 18.1946H52.1886Z" fill="#202226"/>
<path d="M61.1163 12H59.6298V22.1818H61.1163V12Z" fill="#202226"/>
<path d="M66.4073 22.3359C68.0728 22.3359 69.2511 21.5156 69.5891 20.2727L68.1822 20.0192C67.9137 20.7401 67.2674 21.108 66.4222 21.108C65.1495 21.108 64.2944 20.2827 64.2546 18.8111H69.6836V18.2841C69.6836 15.5249 68.033 14.446 66.3029 14.446C64.1751 14.446 62.7731 16.0668 62.7731 18.4134C62.7731 20.7848 64.1552 22.3359 66.4073 22.3359ZM64.2596 17.6974C64.3192 16.6136 65.1048 15.674 66.3129 15.674C67.4663 15.674 68.2219 16.5291 68.2269 17.6974H64.2596Z" fill="#202226"/>
<path d="M71.3329 22.1818H72.8194V17.5185C72.8194 16.5192 73.59 15.7983 74.644 15.7983C74.9522 15.7983 75.3002 15.853 75.4196 15.8878V14.4659C75.2704 14.446 74.9771 14.4311 74.7882 14.4311C73.8933 14.4311 73.1277 14.9382 72.8493 15.7585H72.7697V14.5455H71.3329V22.1818Z" fill="#202226"/>
<path d="M80.7218 14.5455H79.1557V12.7159H77.6692V14.5455H76.5506V15.7386H77.6692V20.2479C77.6642 21.6349 78.7232 22.3061 79.8965 22.2812C80.3688 22.2763 80.687 22.1868 80.861 22.1222L80.5925 20.8942C80.4931 20.9141 80.3091 20.9588 80.0705 20.9588C79.5882 20.9588 79.1557 20.7997 79.1557 19.9396V15.7386H80.7218V14.5455Z" fill="#202226"/>
<path d="M86.0712 22.1818H87.5577V17.5185C87.5577 16.5192 88.3283 15.7983 89.3823 15.7983C89.6905 15.7983 90.0385 15.853 90.1578 15.8878V14.4659C90.0087 14.446 89.7154 14.4311 89.5265 14.4311C88.6316 14.4311 87.8659 14.9382 87.5875 15.7585H87.508V14.5455H86.0712V22.1818Z" fill="#202226"/>
<path d="M96.2816 19.0149C96.2866 20.3125 95.3221 20.929 94.4869 20.929C93.5671 20.929 92.9308 20.2628 92.9308 19.2237V14.5455H91.4442V19.4027C91.4442 21.2969 92.4833 22.2812 93.9499 22.2812C95.0984 22.2812 95.8789 21.6747 96.2319 20.8594H96.3114V22.1818H97.7731V14.5455H96.2816V19.0149Z" fill="#202226"/>
<path d="M101.257 12H99.7704V22.1818H101.257V12Z" fill="#202226"/>
<path d="M106.548 22.3359C108.213 22.3359 109.392 21.5156 109.73 20.2727L108.323 20.0192C108.054 20.7401 107.408 21.108 106.563 21.108C105.29 21.108 104.435 20.2827 104.395 18.8111H109.824V18.2841C109.824 15.5249 108.174 14.446 106.444 14.446C104.316 14.446 102.914 16.0668 102.914 18.4134C102.914 20.7848 104.296 22.3359 106.548 22.3359ZM104.4 17.6974C104.46 16.6136 105.245 15.674 106.453 15.674C107.607 15.674 108.363 16.5291 108.368 17.6974H104.4Z" fill="#202226"/>
<path fill-rule="evenodd" clip-rule="evenodd" d="M79.5 46.3359C79.9142 46.3359 80.25 46.6717 80.25 47.0859L80.25 69.2753L83.7427 65.7826C84.0356 65.4897 84.5104 65.4897 84.8033 65.7826C85.0962 66.0755 85.0962 66.5504 84.8033 66.8433L80.0304 71.6163C79.7375 71.9092 79.2626 71.9092 78.9697 71.6163L74.1967 66.8433C73.9038 66.5504 73.9038 66.0755 74.1967 65.7826C74.4896 65.4897 74.9645 65.4897 75.2574 65.7826L78.75 69.2753L78.75 47.0859C78.75 46.6717 79.0858 46.3359 79.5 46.3359Z" fill="#24292E"/>
<rect x="42.4541" y="83.8359" width="74.092" height="34.3509" rx="17.1754" fill="#F8D06B"/>
<path d="M58.4541 106.018H64.604V104.695H59.9903V95.8359H58.4541V106.018Z" fill="#202226"/>
<path d="M68.4594 106.187C69.7222 106.187 70.4331 105.545 70.7165 104.974H70.7762V106.018H72.2279V100.947C72.2279 98.7244 70.4779 98.282 69.2648 98.282C67.8827 98.282 66.61 98.8388 66.1128 100.231L67.5099 100.549C67.7286 100.007 68.2854 99.4851 69.2847 99.4851C70.2442 99.4851 70.7364 99.9872 70.7364 100.852V100.887C70.7364 101.429 70.1796 101.419 68.8074 101.578C67.3607 101.747 65.8792 102.125 65.8792 103.86C65.8792 105.362 67.0077 106.187 68.4594 106.187ZM68.7826 104.994C67.9424 104.994 67.3358 104.616 67.3358 103.88C67.3358 103.085 68.0418 102.801 68.9019 102.687C69.3841 102.622 70.5276 102.493 70.7414 102.279V103.263C70.7414 104.168 70.0205 104.994 68.7826 104.994Z" fill="#202226"/>
<path d="M74.3271 106.018H75.7789V104.83H75.9031C76.1716 105.317 76.7185 106.167 78.1105 106.167C79.96 106.167 81.3023 104.685 81.3023 102.214C81.3023 99.7386 79.9401 98.282 78.0956 98.282C76.6787 98.282 76.1666 99.147 75.9031 99.6193H75.8137V95.8359H74.3271V106.018ZM75.7838 102.2C75.7838 100.604 76.4798 99.5447 77.7774 99.5447C79.1247 99.5447 79.8009 100.683 79.8009 102.2C79.8009 103.731 79.1048 104.899 77.7774 104.899C76.4997 104.899 75.7838 103.805 75.7838 102.2Z" fill="#202226"/>
<path d="M86.2627 106.172C87.9282 106.172 89.1064 105.352 89.4445 104.109L88.0376 103.855C87.7691 104.576 87.1228 104.944 86.2776 104.944C85.0049 104.944 84.1498 104.119 84.11 102.647H89.539V102.12C89.539 99.3608 87.8884 98.282 86.1583 98.282C84.0304 98.282 82.6285 99.9027 82.6285 102.249C82.6285 104.621 84.0106 106.172 86.2627 106.172ZM84.115 101.533C84.1746 100.45 84.9601 99.5099 86.1682 99.5099C87.3216 99.5099 88.0773 100.365 88.0823 101.533H84.115Z" fill="#202226"/>
<path d="M92.6748 95.8359H91.1883V106.018H92.6748V95.8359Z" fill="#202226"/>
<path d="M100.397 100.246C100.089 99.0575 99.159 98.282 97.5084 98.282C95.7833 98.282 94.5603 99.1918 94.5603 100.544C94.5603 101.628 95.2165 102.349 96.6483 102.667L97.941 102.95C98.6768 103.114 99.0198 103.442 99.0198 103.92C99.0198 104.511 98.3884 104.974 97.414 104.974C96.5241 104.974 95.9523 104.591 95.7733 103.84L94.3366 104.059C94.5851 105.411 95.7087 106.172 97.4239 106.172C99.2684 106.172 100.546 105.192 100.546 103.81C100.546 102.732 99.86 102.065 98.458 101.742L97.2449 101.464C96.4047 101.265 96.0418 100.982 96.0468 100.464C96.0418 99.8778 96.6782 99.4602 97.5233 99.4602C98.4481 99.4602 98.8756 99.9723 99.0496 100.484L100.397 100.246Z" fill="#202226"/>
<path d="M36.3135 136.786C36.3135 136.678 36.2923 136.582 36.25 136.498C36.2077 136.41 36.1361 136.33 36.0352 136.258C35.9342 136.187 35.8008 136.122 35.6348 136.063C35.4688 136.001 35.262 135.946 35.0146 135.897C34.7119 135.835 34.4352 135.76 34.1846 135.672C33.9372 135.584 33.724 135.48 33.5449 135.36C33.3691 135.236 33.2324 135.093 33.1348 134.93C33.0371 134.764 32.9883 134.572 32.9883 134.354C32.9883 134.139 33.0387 133.939 33.1396 133.753C33.2406 133.565 33.3822 133.4 33.5645 133.26C33.7467 133.12 33.9632 133.01 34.2139 132.928C34.4678 132.847 34.7461 132.806 35.0488 132.806C35.3743 132.806 35.6673 132.848 35.9277 132.933C36.1882 133.018 36.4095 133.135 36.5918 133.285C36.7741 133.434 36.9141 133.61 37.0117 133.812C37.1126 134.011 37.1631 134.225 37.1631 134.457H36.2598C36.2598 134.343 36.2305 134.232 36.1719 134.125C36.1133 134.014 36.0319 133.916 35.9277 133.832C35.8236 133.747 35.6966 133.679 35.5469 133.626C35.4004 133.574 35.2344 133.548 35.0488 133.548C34.8568 133.548 34.6875 133.569 34.541 133.612C34.3978 133.654 34.2773 133.711 34.1797 133.783C34.0853 133.854 34.0137 133.937 33.9648 134.032C33.916 134.126 33.8916 134.224 33.8916 134.325C33.8916 134.429 33.9111 134.522 33.9502 134.603C33.9893 134.684 34.056 134.758 34.1504 134.823C34.248 134.888 34.3766 134.946 34.5361 134.999C34.6989 135.051 34.904 135.101 35.1514 135.15C35.4769 135.218 35.7682 135.298 36.0254 135.389C36.2826 135.477 36.499 135.584 36.6748 135.711C36.8506 135.835 36.984 135.98 37.0752 136.146C37.1696 136.312 37.2168 136.504 37.2168 136.722C37.2168 136.957 37.1631 137.17 37.0557 137.362C36.9515 137.554 36.805 137.718 36.6162 137.855C36.4274 137.992 36.2012 138.097 35.9375 138.172C35.6738 138.247 35.3857 138.285 35.0732 138.285C34.7152 138.285 34.3962 138.237 34.1162 138.143C33.8363 138.045 33.5986 137.918 33.4033 137.762C33.2113 137.603 33.0632 137.419 32.959 137.21C32.8581 137.002 32.8076 136.786 32.8076 136.561H33.7109C33.724 136.747 33.7728 136.903 33.8574 137.03C33.9453 137.157 34.0527 137.259 34.1797 137.337C34.3099 137.416 34.4531 137.471 34.6094 137.503C34.7656 137.536 34.9202 137.552 35.0732 137.552C35.4541 137.552 35.7552 137.482 35.9766 137.342C36.1979 137.202 36.3102 137.017 36.3135 136.786Z" fill="#24292E"/>
<path d="M41.1426 138.285C40.7715 138.285 40.4297 138.221 40.1172 138.094C39.8079 137.967 39.5426 137.79 39.3213 137.562C39.0999 137.334 38.9274 137.064 38.8037 136.751C38.68 136.439 38.6182 136.099 38.6182 135.731V135.526C38.6182 135.099 38.6865 134.719 38.8232 134.383C38.96 134.045 39.1406 133.76 39.3652 133.529C39.5931 133.294 39.8503 133.115 40.1367 132.992C40.4264 132.868 40.7227 132.806 41.0254 132.806C41.4062 132.806 41.7383 132.873 42.0215 133.006C42.3079 133.137 42.5456 133.319 42.7344 133.553C42.9232 133.784 43.0632 134.058 43.1543 134.374C43.2487 134.689 43.2959 135.031 43.2959 135.399V135.804H39.5215C39.5312 136.045 39.5768 136.271 39.6582 136.483C39.7428 136.694 39.8568 136.88 40 137.04C40.1465 137.196 40.3206 137.319 40.5225 137.411C40.7243 137.502 40.9473 137.547 41.1914 137.547C41.5137 137.547 41.8001 137.482 42.0508 137.352C42.3014 137.222 42.5098 137.049 42.6758 136.834L43.2275 137.264C43.1396 137.398 43.029 137.526 42.8955 137.65C42.7653 137.77 42.6139 137.878 42.4414 137.972C42.2689 138.067 42.0736 138.141 41.8555 138.197C41.6374 138.255 41.3997 138.285 41.1426 138.285ZM41.0254 133.548C40.8431 133.548 40.6706 133.583 40.5078 133.651C40.3451 133.716 40.1986 133.814 40.0684 133.944C39.9382 134.071 39.8275 134.229 39.7363 134.417C39.6484 134.603 39.5866 134.818 39.5508 135.062H42.3926V134.994C42.3828 134.818 42.3486 134.644 42.29 134.471C42.2347 134.299 42.1517 134.144 42.041 134.007C41.9303 133.871 41.7904 133.76 41.6211 133.675C41.4551 133.591 41.2565 133.548 41.0254 133.548Z" fill="#24292E"/>
<path d="M46.8848 136.888L46.9678 137.215L47.0557 136.888L48.5352 132.904H49.458L47.3047 138.187H46.6162L44.4434 132.904H45.3711L46.8848 136.888Z" fill="#24292E"/>
<path d="M53.1543 138.285C52.7832 138.285 52.4414 138.221 52.1289 138.094C51.8197 137.967 51.5544 137.79 51.333 137.562C51.1117 137.334 50.9391 137.064 50.8154 136.751C50.6917 136.439 50.6299 136.099 50.6299 135.731V135.526C50.6299 135.099 50.6982 134.719 50.835 134.383C50.9717 134.045 51.1523 133.76 51.377 133.529C51.6048 133.294 51.862 133.115 52.1484 132.992C52.4382 132.868 52.7344 132.806 53.0371 132.806C53.418 132.806 53.75 132.873 54.0332 133.006C54.3197 133.137 54.5573 133.319 54.7461 133.553C54.9349 133.784 55.0749 134.058 55.166 134.374C55.2604 134.689 55.3076 135.031 55.3076 135.399V135.804H51.5332C51.543 136.045 51.5885 136.271 51.6699 136.483C51.7546 136.694 51.8685 136.88 52.0117 137.04C52.1582 137.196 52.3324 137.319 52.5342 137.411C52.736 137.502 52.959 137.547 53.2031 137.547C53.5254 137.547 53.8118 137.482 54.0625 137.352C54.3132 137.222 54.5215 137.049 54.6875 136.834L55.2393 137.264C55.1514 137.398 55.0407 137.526 54.9072 137.65C54.777 137.77 54.6257 137.878 54.4531 137.972C54.2806 138.067 54.0853 138.141 53.8672 138.197C53.6491 138.255 53.4115 138.285 53.1543 138.285ZM53.0371 133.548C52.8548 133.548 52.6823 133.583 52.5195 133.651C52.3568 133.716 52.2103 133.814 52.0801 133.944C51.9499 134.071 51.8392 134.229 51.748 134.417C51.6602 134.603 51.5983 134.818 51.5625 135.062H54.4043V134.994C54.3945 134.818 54.3604 134.644 54.3018 134.471C54.2464 134.299 54.1634 134.144 54.0527 134.007C53.9421 133.871 53.8021 133.76 53.6328 133.675C53.4668 133.591 53.2682 133.548 53.0371 133.548Z" fill="#24292E"/>
<path d="M60.2881 132.806C60.3727 132.806 60.4606 132.809 60.5518 132.816C60.6429 132.819 60.7292 132.827 60.8105 132.84C60.8952 132.85 60.9717 132.863 61.04 132.879C61.1117 132.896 61.1702 132.914 61.2158 132.933L61.0938 133.817C60.918 133.778 60.7503 133.75 60.5908 133.734C60.4346 133.714 60.2702 133.705 60.0977 133.705C59.6745 133.705 59.3311 133.801 59.0674 133.993C58.807 134.185 58.6149 134.453 58.4912 134.798V138.187H57.583V132.904H58.4424L58.4863 133.744C58.7012 133.454 58.9583 133.226 59.2578 133.06C59.5605 132.891 59.904 132.806 60.2881 132.806Z" fill="#24292E"/>
<path d="M62.9736 132.904H65.6738V137.406H67.3975V138.187H62.9736V137.406H64.7705V133.69H62.9736V132.904ZM64.6533 131.517C64.6533 131.367 64.6973 131.242 64.7852 131.141C64.8763 131.037 65.013 130.985 65.1953 130.985C65.3743 130.985 65.5094 131.037 65.6006 131.141C65.6917 131.242 65.7373 131.367 65.7373 131.517C65.7373 131.664 65.6917 131.786 65.6006 131.883C65.5094 131.981 65.3743 132.03 65.1953 132.03C65.013 132.03 64.8763 131.981 64.7852 131.883C64.6973 131.786 64.6533 131.664 64.6533 131.517Z" fill="#24292E"/>
<path d="M70.9766 131.625V132.904H72.9883V133.602H70.9766V136.473C70.9766 136.678 71.0026 136.847 71.0547 136.981C71.1068 137.114 71.1784 137.222 71.2695 137.303C71.3607 137.381 71.4648 137.437 71.582 137.469C71.7025 137.502 71.8294 137.518 71.9629 137.518C72.0605 137.518 72.1615 137.513 72.2656 137.503C72.3698 137.49 72.4707 137.476 72.5684 137.459C72.6693 137.443 72.762 137.427 72.8467 137.411C72.9346 137.391 73.0062 137.375 73.0615 137.362L73.1885 138.001C73.1136 138.047 73.0225 138.088 72.915 138.124C72.8076 138.156 72.6904 138.184 72.5635 138.207C72.4365 138.233 72.3014 138.252 72.1582 138.265C72.0182 138.278 71.8783 138.285 71.7383 138.285C71.5039 138.285 71.2842 138.252 71.0791 138.187C70.8773 138.119 70.7015 138.013 70.5518 137.87C70.402 137.723 70.2832 137.536 70.1953 137.308C70.1107 137.077 70.0684 136.799 70.0684 136.473V133.602H68.6816V132.904H70.0684V131.625H70.9766Z" fill="#24292E"/>
<path d="M76.7871 136.312L77.0215 136.952L78.6328 132.904H79.6436L76.9629 139.002C76.901 139.139 76.8213 139.284 76.7236 139.437C76.6292 139.59 76.5137 139.732 76.377 139.862C76.2402 139.992 76.0807 140.101 75.8984 140.189C75.7161 140.277 75.5062 140.321 75.2686 140.321C75.2262 140.321 75.179 140.318 75.127 140.311C75.0749 140.308 75.0228 140.301 74.9707 140.292C74.9186 140.285 74.8698 140.277 74.8242 140.267C74.7786 140.257 74.7412 140.249 74.7119 140.243L74.8584 139.505C74.8812 139.505 74.9121 139.507 74.9512 139.51C74.9902 139.514 75.0309 139.517 75.0732 139.52C75.1156 139.523 75.1562 139.525 75.1953 139.525C75.2344 139.528 75.2653 139.53 75.2881 139.53C75.4118 139.53 75.5241 139.496 75.625 139.427C75.7292 139.359 75.8203 139.278 75.8984 139.183C75.9798 139.089 76.0482 138.991 76.1035 138.89C76.1621 138.789 76.2077 138.706 76.2402 138.641L76.6016 137.938L74.3262 132.904H75.3369L76.7871 136.312Z" fill="#24292E"/>
<path d="M85.2051 134.378H80.8447V133.592H85.2051V134.378ZM85.2051 136.405H80.8447V135.624H85.2051V136.405Z" fill="#24292E"/>
<path d="M87.6562 136.273L87.7637 137.03L87.8955 136.273L88.7402 132.904H89.3213L90.1611 136.273L90.3027 137.103L90.4346 136.273L91.0205 132.904H91.8213L90.6982 138.187H89.9854L89.1602 134.95L89.0234 134.129L88.8916 134.95L88.0762 138.187H87.3633L86.2402 132.904H87.041L87.6562 136.273Z" fill="#24292E"/>
<path d="M96.333 138.187C96.2972 138.119 96.2679 138.034 96.2451 137.933C96.2256 137.829 96.2109 137.722 96.2012 137.611C96.11 137.702 96.0075 137.788 95.8936 137.87C95.7829 137.951 95.6592 138.023 95.5225 138.084C95.389 138.146 95.2458 138.195 95.0928 138.231C94.9398 138.267 94.777 138.285 94.6045 138.285C94.3245 138.285 94.0706 138.244 93.8428 138.163C93.6182 138.081 93.4261 137.972 93.2666 137.835C93.1104 137.695 92.9883 137.531 92.9004 137.342C92.8158 137.15 92.7734 136.944 92.7734 136.722C92.7734 136.432 92.8304 136.179 92.9443 135.96C93.0615 135.742 93.2259 135.562 93.4375 135.418C93.6491 135.272 93.903 135.163 94.1992 135.091C94.4987 135.02 94.8324 134.984 95.2002 134.984H96.1865V134.569C96.1865 134.409 96.1572 134.266 96.0986 134.139C96.04 134.012 95.957 133.905 95.8496 133.817C95.7422 133.726 95.6104 133.656 95.4541 133.607C95.3011 133.558 95.1286 133.534 94.9365 133.534C94.7575 133.534 94.5964 133.556 94.4531 133.602C94.3132 133.648 94.1943 133.708 94.0967 133.783C93.999 133.858 93.9225 133.947 93.8672 134.051C93.8151 134.152 93.7891 134.258 93.7891 134.369H92.8809C92.8841 134.177 92.9329 133.988 93.0273 133.802C93.125 133.617 93.2633 133.451 93.4424 133.304C93.6247 133.154 93.8444 133.034 94.1016 132.943C94.362 132.852 94.6566 132.806 94.9854 132.806C95.2848 132.806 95.5632 132.844 95.8203 132.918C96.0775 132.99 96.2988 133.101 96.4844 133.25C96.6732 133.397 96.8213 133.581 96.9287 133.802C97.0361 134.024 97.0898 134.282 97.0898 134.579V137.035C97.0898 137.21 97.1061 137.398 97.1387 137.596C97.1712 137.792 97.2168 137.962 97.2754 138.109V138.187H96.333ZM94.7363 137.499C94.9121 137.499 95.0765 137.476 95.2295 137.43C95.3825 137.385 95.5208 137.324 95.6445 137.25C95.7715 137.175 95.8805 137.09 95.9717 136.996C96.0628 136.898 96.1344 136.797 96.1865 136.693V135.624H95.3467C94.8193 135.624 94.4092 135.702 94.1162 135.858C93.8232 136.014 93.6768 136.26 93.6768 136.595C93.6768 136.725 93.6979 136.846 93.7402 136.957C93.7858 137.067 93.8525 137.163 93.9404 137.245C94.0283 137.323 94.139 137.385 94.2725 137.43C94.4059 137.476 94.5605 137.499 94.7363 137.499Z" fill="#24292E"/>
<path d="M102.329 132.806C102.414 132.806 102.502 132.809 102.593 132.816C102.684 132.819 102.77 132.827 102.852 132.84C102.936 132.85 103.013 132.863 103.081 132.879C103.153 132.896 103.211 132.914 103.257 132.933L103.135 133.817C102.959 133.778 102.791 133.75 102.632 133.734C102.476 133.714 102.311 133.705 102.139 133.705C101.715 133.705 101.372 133.801 101.108 133.993C100.848 134.185 100.656 134.453 100.532 134.798V138.187H99.624V132.904H100.483L100.527 133.744C100.742 133.454 100.999 133.226 101.299 133.06C101.602 132.891 101.945 132.806 102.329 132.806Z" fill="#24292E"/>
<path d="M105.684 132.904L105.747 133.685C105.939 133.412 106.175 133.198 106.455 133.045C106.735 132.889 107.048 132.809 107.393 132.806C107.669 132.806 107.92 132.845 108.145 132.923C108.372 133.001 108.566 133.124 108.726 133.29C108.885 133.456 109.007 133.667 109.092 133.924C109.18 134.178 109.224 134.481 109.224 134.833V138.187H108.32V134.852C108.32 134.618 108.294 134.419 108.242 134.256C108.19 134.094 108.112 133.962 108.008 133.861C107.907 133.76 107.782 133.687 107.632 133.641C107.485 133.596 107.316 133.573 107.124 133.573C106.821 133.573 106.554 133.649 106.323 133.802C106.095 133.952 105.913 134.151 105.776 134.398V138.187H104.873V132.904H105.684Z" fill="#24292E"/>
<path d="M111.021 132.904H113.721V137.406H115.444V138.187H111.021V137.406H112.817V133.69H111.021V132.904ZM112.7 131.517C112.7 131.367 112.744 131.242 112.832 131.141C112.923 131.037 113.06 130.985 113.242 130.985C113.421 130.985 113.556 131.037 113.647 131.141C113.739 131.242 113.784 131.367 113.784 131.517C113.784 131.664 113.739 131.786 113.647 131.883C113.556 131.981 113.421 132.03 113.242 132.03C113.06 132.03 112.923 131.981 112.832 131.883C112.744 131.786 112.7 131.664 112.7 131.517Z" fill="#24292E"/>
<path d="M117.695 132.904L117.759 133.685C117.951 133.412 118.187 133.198 118.467 133.045C118.747 132.889 119.059 132.809 119.404 132.806C119.681 132.806 119.932 132.845 120.156 132.923C120.384 133.001 120.578 133.124 120.737 133.29C120.897 133.456 121.019 133.667 121.104 133.924C121.191 134.178 121.235 134.481 121.235 134.833V138.187H120.332V134.852C120.332 134.618 120.306 134.419 120.254 134.256C120.202 134.094 120.124 133.962 120.02 133.861C119.919 133.76 119.793 133.687 119.644 133.641C119.497 133.596 119.328 133.573 119.136 133.573C118.833 133.573 118.566 133.649 118.335 133.802C118.107 133.952 117.925 134.151 117.788 134.398V138.187H116.885V132.904H117.695Z" fill="#24292E"/>
<path d="M122.725 135.501C122.725 135.108 122.772 134.746 122.866 134.417C122.964 134.085 123.104 133.801 123.286 133.563C123.468 133.325 123.69 133.14 123.95 133.006C124.211 132.873 124.505 132.806 124.834 132.806C125.16 132.806 125.444 132.865 125.688 132.982C125.936 133.096 126.146 133.262 126.318 133.48L126.362 132.904H127.183V138.075C127.183 138.423 127.127 138.732 127.017 139.002C126.909 139.273 126.756 139.502 126.558 139.691C126.362 139.88 126.128 140.023 125.854 140.121C125.581 140.218 125.278 140.267 124.946 140.267C124.81 140.267 124.653 140.251 124.478 140.218C124.302 140.189 124.123 140.139 123.94 140.067C123.761 139.999 123.587 139.906 123.418 139.789C123.252 139.671 123.109 139.527 122.988 139.354L123.457 138.812C123.568 138.945 123.682 139.058 123.799 139.149C123.916 139.243 124.035 139.318 124.155 139.374C124.276 139.429 124.396 139.468 124.517 139.491C124.637 139.517 124.757 139.53 124.878 139.53C125.093 139.53 125.286 139.499 125.459 139.437C125.632 139.375 125.778 139.284 125.898 139.164C126.022 139.046 126.117 138.9 126.182 138.724C126.247 138.548 126.279 138.347 126.279 138.119V137.665C126.104 137.866 125.895 138.021 125.654 138.128C125.417 138.233 125.14 138.285 124.824 138.285C124.502 138.285 124.211 138.216 123.95 138.08C123.69 137.943 123.468 137.754 123.286 137.513C123.107 137.272 122.969 136.989 122.871 136.664C122.773 136.335 122.725 135.982 122.725 135.604V135.501ZM123.628 135.604C123.628 135.861 123.654 136.105 123.706 136.336C123.761 136.568 123.846 136.771 123.96 136.947C124.077 137.123 124.225 137.263 124.404 137.367C124.583 137.468 124.798 137.518 125.049 137.518C125.205 137.518 125.345 137.5 125.469 137.464C125.596 137.425 125.708 137.372 125.806 137.303C125.907 137.235 125.996 137.153 126.074 137.059C126.152 136.965 126.221 136.861 126.279 136.747V134.325C126.221 134.214 126.152 134.113 126.074 134.022C125.996 133.931 125.907 133.853 125.806 133.788C125.705 133.719 125.592 133.667 125.469 133.631C125.345 133.592 125.208 133.573 125.059 133.573C124.805 133.573 124.587 133.625 124.404 133.729C124.225 133.833 124.077 133.975 123.96 134.154C123.846 134.33 123.761 134.535 123.706 134.769C123.654 135 123.628 135.244 123.628 135.501V135.604Z" fill="#24292E"/>
<rect x="25" y="126.687" width="109" height="15" rx="3.5" stroke="#24292E" stroke-opacity="0.75"/>
<path fill-rule="evenodd" clip-rule="evenodd" d="M79 156.25C79.4142 156.25 79.75 156.586 79.75 157L79.75 213.189L83.2427 209.697C83.5356 209.404 84.0104 209.404 84.3033 209.697C84.5962 209.99 84.5962 210.464 84.3033 210.757L79.5304 215.53C79.2375 215.823 78.7626 215.823 78.4697 215.53L73.6967 210.757C73.4038 210.464 73.4038 209.99 73.6967 209.697C73.9896 209.404 74.4645 209.404 74.7574 209.697L78.25 213.189L78.25 157C78.25 156.586 78.5858 156.25 79 156.25Z" fill="#24292E"/>
<rect x="8.87868" y="308.334" width="99.8736" height="99.8736" rx="3.5" transform="rotate(-45 8.87868 308.334)" fill="url(#paint0_linear_3862_26147)" stroke="#F05A28" stroke-width="3"/>
<path d="M49.5086 295.152H47.9873V302.629H47.8928L42.7124 295.152H41.2905V305.334H42.8267V297.867H42.9212L48.0966 305.334H49.5086V295.152Z" fill="#24292E"/>
<path d="M54.8468 305.488C56.9995 305.488 58.4065 303.912 58.4065 301.551C58.4065 299.174 56.9995 297.598 54.8468 297.598C52.6941 297.598 51.2872 299.174 51.2872 301.551C51.2872 303.912 52.6941 305.488 54.8468 305.488ZM54.8518 304.24C53.4448 304.24 52.7886 303.012 52.7886 301.546C52.7886 300.084 53.4448 298.841 54.8518 298.841C56.2488 298.841 56.9051 300.084 56.9051 301.546C56.9051 303.012 56.2488 304.24 54.8518 304.24Z" fill="#24292E"/>
<path d="M63.6304 297.698H62.0643V295.868H60.5778V297.698H59.4592V298.891H60.5778V303.4C60.5728 304.787 61.6318 305.458 62.8051 305.433C63.2774 305.428 63.5956 305.339 63.7696 305.274L63.5011 304.046C63.4017 304.066 63.2177 304.111 62.9791 304.111C62.4968 304.111 62.0643 303.952 62.0643 303.092V298.891H63.6304V297.698Z" fill="#24292E"/>
<path d="M65.2747 305.334H66.7612V297.698H65.2747V305.334ZM66.0254 296.519C66.5375 296.519 66.9651 296.122 66.9651 295.634C66.9651 295.147 66.5375 294.744 66.0254 294.744C65.5084 294.744 65.0858 295.147 65.0858 295.634C65.0858 296.122 65.5084 296.519 66.0254 296.519Z" fill="#24292E"/>
<path d="M72.3953 297.698H70.7497V297.011C70.7497 296.335 71.0281 295.967 71.754 295.967C72.0622 295.967 72.2809 296.037 72.4201 296.082L72.7682 294.879C72.5593 294.799 72.1268 294.675 71.5253 294.675C70.3172 294.675 69.2582 295.381 69.2582 296.813V297.698H68.0799V298.891H69.2582V305.334H70.7497V298.891H72.3953V297.698Z" fill="#24292E"/>
<path d="M73.929 305.334H75.4155V297.698H73.929V305.334ZM74.6797 296.519C75.1918 296.519 75.6194 296.122 75.6194 295.634C75.6194 295.147 75.1918 294.744 74.6797 294.744C74.1627 294.744 73.7401 295.147 73.7401 295.634C73.7401 296.122 74.1627 296.519 74.6797 296.519Z" fill="#24292E"/>
<path d="M80.632 305.488C82.4367 305.488 83.605 304.404 83.769 302.918H82.3223C82.1334 303.743 81.4921 304.23 80.6419 304.23C79.3841 304.23 78.5737 303.181 78.5737 301.516C78.5737 299.88 79.399 298.851 80.6419 298.851C81.5865 298.851 82.1632 299.448 82.3223 300.163H83.769C83.61 298.622 82.3521 297.598 80.6171 297.598C78.4644 297.598 77.0723 299.219 77.0723 301.551C77.0723 303.852 78.4146 305.488 80.632 305.488Z" fill="#24292E"/>
<path d="M87.581 305.503C88.8438 305.503 89.5547 304.862 89.8381 304.29H89.8978V305.334H91.3495V300.263C91.3495 298.041 89.5995 297.598 88.3864 297.598C87.0043 297.598 85.7316 298.155 85.2344 299.547L86.6314 299.865C86.8502 299.323 87.407 298.801 88.4063 298.801C89.3658 298.801 89.858 299.303 89.858 300.168V300.203C89.858 300.745 89.3012 300.735 87.929 300.894C86.4823 301.063 85.0008 301.441 85.0008 303.176C85.0008 304.678 86.1293 305.503 87.581 305.503ZM87.9042 304.31C87.064 304.31 86.4574 303.932 86.4574 303.196C86.4574 302.401 87.1634 302.117 88.0235 302.003C88.5057 301.938 89.6492 301.809 89.863 301.595V302.58C89.863 303.484 89.1421 304.31 87.9042 304.31Z" fill="#24292E"/>
<path d="M96.894 297.698H95.328V295.868H93.8415V297.698H92.7229V298.891H93.8415V303.4C93.8365 304.787 94.8955 305.458 96.0688 305.433C96.5411 305.428 96.8592 305.339 97.0332 305.274L96.7648 304.046C96.6654 304.066 96.4814 304.111 96.2428 304.111C95.7605 304.111 95.328 303.952 95.328 303.092V298.891H96.894V297.698Z" fill="#24292E"/>
<path d="M98.5384 305.334H100.025V297.698H98.5384V305.334ZM99.2891 296.519C99.8012 296.519 100.229 296.122 100.229 295.634C100.229 295.147 99.8012 294.744 99.2891 294.744C98.7721 294.744 98.3495 295.147 98.3495 295.634C98.3495 296.122 98.7721 296.519 99.2891 296.519Z" fill="#24292E"/>
<path d="M105.241 305.488C107.394 305.488 108.801 303.912 108.801 301.551C108.801 299.174 107.394 297.598 105.241 297.598C103.089 297.598 101.682 299.174 101.682 301.551C101.682 303.912 103.089 305.488 105.241 305.488ZM105.246 304.24C103.839 304.24 103.183 303.012 103.183 301.546C103.183 300.084 103.839 298.841 105.246 298.841C106.643 298.841 107.3 300.084 107.3 301.546C107.3 303.012 106.643 304.24 105.246 304.24Z" fill="#24292E"/>
<path d="M111.947 300.8C111.947 299.582 112.693 298.886 113.727 298.886C114.736 298.886 115.347 299.547 115.347 300.656V305.334H116.834V300.477C116.834 298.587 115.795 297.598 114.234 297.598C113.085 297.598 112.335 298.13 111.982 298.94H111.887V297.698H110.46V305.334H111.947V300.8Z" fill="#24292E"/>
<path d="M60.0384 328.198H61.5249V324.146H61.6144C61.8829 324.633 62.4297 325.483 63.8218 325.483C65.6712 325.483 67.0135 324.002 67.0135 321.531C67.0135 319.055 65.6513 317.598 63.8069 317.598C62.39 317.598 61.8779 318.463 61.6144 318.935H61.4901V317.698H60.0384V328.198ZM61.4951 321.516C61.4951 319.92 62.1911 318.861 63.4887 318.861C64.836 318.861 65.5121 319.999 65.5121 321.516C65.5121 323.047 64.8161 324.215 63.4887 324.215C62.211 324.215 61.4951 323.122 61.4951 321.516Z" fill="#24292E"/>
<path d="M71.8956 325.488C74.0483 325.488 75.4553 323.912 75.4553 321.551C75.4553 319.174 74.0483 317.598 71.8956 317.598C69.7429 317.598 68.336 319.174 68.336 321.551C68.336 323.912 69.7429 325.488 71.8956 325.488ZM71.9006 324.24C70.4937 324.24 69.8374 323.012 69.8374 321.546C69.8374 320.084 70.4937 318.841 71.9006 318.841C73.2976 318.841 73.9539 320.084 73.9539 321.546C73.9539 323.012 73.2976 324.24 71.9006 324.24Z" fill="#24292E"/>
<path d="M78.6011 315.152H77.1146V325.334H78.6011V315.152Z" fill="#24292E"/>
<path d="M80.6009 325.334H82.0874V317.698H80.6009V325.334ZM81.3516 316.519C81.8637 316.519 82.2912 316.122 82.2912 315.634C82.2912 315.147 81.8637 314.744 81.3516 314.744C80.8346 314.744 80.412 315.147 80.412 315.634C80.412 316.122 80.8346 316.519 81.3516 316.519Z" fill="#24292E"/>
<path d="M87.3038 325.488C89.1085 325.488 90.2769 324.404 90.4409 322.918H88.9942C88.8053 323.743 88.1639 324.23 87.3138 324.23C86.056 324.23 85.2456 323.181 85.2456 321.516C85.2456 319.88 86.0709 318.851 87.3138 318.851C88.2584 318.851 88.8351 319.448 88.9942 320.163H90.4409C90.2818 318.622 89.024 317.598 87.2889 317.598C85.1362 317.598 83.7442 319.219 83.7442 321.551C83.7442 323.852 85.0865 325.488 87.3038 325.488Z" fill="#24292E"/>
<path d="M92.9702 328.198C94.1982 328.198 94.9738 327.556 95.4162 326.353L98.5633 317.698H96.9674L95.0334 323.624H94.9539L93.0199 317.698H91.429L94.2231 325.433L94.0391 325.94C93.6613 326.955 93.1293 327.039 92.314 326.815L91.956 328.033C92.135 328.113 92.5228 328.198 92.9702 328.198Z" fill="#24292E"/>
<path fill-rule="evenodd" clip-rule="evenodd" d="M35.4726 461.293L36.9734 456.64C37.1005 456.246 36.884 455.823 36.4898 455.696C36.0956 455.569 35.6729 455.785 35.5458 456.18L33.4739 462.604C33.3468 462.998 33.5633 463.421 33.9575 463.548L40.3817 465.62C40.7759 465.747 41.1985 465.53 41.3257 465.136C41.4528 464.742 41.2363 464.319 40.8421 464.192L36.0983 462.662C46.4611 456.882 57.1293 446.327 65.3371 434.049C72.0129 424.063 77.1047 412.873 79.0627 402.102L79.0627 461.023L75.5701 457.531C75.2772 457.238 74.8023 457.238 74.5094 457.531C74.2165 457.824 74.2165 458.298 74.5094 458.591L79.2824 463.364C79.5753 463.657 80.0501 463.657 80.343 463.364L85.116 458.591C85.4089 458.298 85.4089 457.824 85.116 457.531C84.8231 457.238 84.3482 457.238 84.0553 457.531L80.5627 461.023L80.5627 405.111C82.8546 414.94 87.6072 424.99 93.6633 434.049C101.871 446.327 112.539 456.882 122.902 462.662L118.158 464.192C117.764 464.319 117.548 464.742 117.675 465.136C117.802 465.53 118.225 465.747 118.619 465.62L125.043 463.548C125.437 463.421 125.654 462.998 125.526 462.604L123.455 456.18C123.327 455.785 122.905 455.569 122.511 455.696C122.116 455.823 121.9 456.246 122.027 456.64L123.528 461.293C113.462 455.648 103 445.316 94.9103 433.215C86.382 420.458 80.5627 405.845 80.5627 392.834H78.4377C78.4377 405.845 72.6184 420.458 64.0901 433.215C56.0003 445.316 45.5383 455.648 35.4726 461.293Z" fill="#24292E"/>
<rect x="14.8848" y="481.656" width="129.231" height="36" rx="18" fill="#9933CC"/>
<path d="M39.6696 496.648C39.3216 494.471 37.6163 493.198 35.4636 493.198C32.8287 493.198 30.8848 495.172 30.8848 498.428C30.8848 501.685 32.8187 503.658 35.4636 503.658C37.7008 503.658 39.3365 502.256 39.6696 500.243L38.1184 500.238C37.8549 501.54 36.7612 502.256 35.4735 502.256C33.7285 502.256 32.411 500.919 32.411 498.428C32.411 495.957 33.7235 494.6 35.4785 494.6C36.7761 494.6 37.8649 495.331 38.1184 496.648H39.6696Z" fill="white"/>
<path d="M44.6051 503.673C46.7578 503.673 48.1648 502.097 48.1648 499.736C48.1648 497.359 46.7578 495.783 44.6051 495.783C42.4524 495.783 41.0455 497.359 41.0455 499.736C41.0455 502.097 42.4524 503.673 44.6051 503.673ZM44.6101 502.425C43.2031 502.425 42.5469 501.197 42.5469 499.731C42.5469 498.269 43.2031 497.026 44.6101 497.026C46.0071 497.026 46.6634 498.269 46.6634 499.731C46.6634 501.197 46.0071 502.425 44.6101 502.425Z" fill="white"/>
<path d="M51.3105 498.985C51.3105 497.767 52.0563 497.071 53.0904 497.071C54.0996 497.071 54.7111 497.732 54.7111 498.841V503.519H56.1976V498.662C56.1976 496.773 55.1586 495.783 53.5975 495.783C52.449 495.783 51.6983 496.315 51.3453 497.126H51.2509V495.883H49.824V503.519H51.3105V498.985Z" fill="white"/>
<path d="M61.7559 495.883H60.1898V494.053H58.7033V495.883H57.5847V497.076H58.7033V501.585C58.6983 502.972 59.7573 503.643 60.9306 503.619C61.4029 503.614 61.7211 503.524 61.8951 503.46L61.6266 502.232C61.5272 502.251 61.3432 502.296 61.1046 502.296C60.6223 502.296 60.1898 502.137 60.1898 501.277V497.076H61.7559V495.883Z" fill="white"/>
<path d="M65.6225 503.688C66.8853 503.688 67.5962 503.047 67.8796 502.475H67.9393V503.519H69.391V498.448C69.391 496.226 67.641 495.783 66.4279 495.783C65.0458 495.783 63.7731 496.34 63.2759 497.732L64.6729 498.05C64.8917 497.509 65.4485 496.987 66.4478 496.987C67.4073 496.987 67.8995 497.489 67.8995 498.354V498.388C67.8995 498.93 67.3427 498.92 65.9705 499.08C64.5238 499.249 63.0423 499.626 63.0423 501.362C63.0423 502.863 64.1708 503.688 65.6225 503.688ZM65.9457 502.495C65.1055 502.495 64.4989 502.117 64.4989 501.381C64.4989 500.586 65.2049 500.303 66.065 500.188C66.5472 500.124 67.6907 499.994 67.9045 499.781V500.765C67.9045 501.67 67.1836 502.495 65.9457 502.495Z" fill="white"/>
<path d="M74.5875 503.673C76.3922 503.673 77.5605 502.589 77.7246 501.103H76.2779C76.089 501.928 75.4476 502.415 74.5975 502.415C73.3397 502.415 72.5293 501.366 72.5293 499.701C72.5293 498.065 73.3546 497.036 74.5975 497.036C75.5421 497.036 76.1188 497.633 76.2779 498.349H77.7246C77.5655 496.808 76.3077 495.783 74.5726 495.783C72.4199 495.783 71.0279 497.404 71.0279 499.736C71.0279 502.038 72.3702 503.673 74.5875 503.673Z" fill="white"/>
<path d="M82.8789 495.883H81.3129V494.053H79.8264V495.883H78.7077V497.076H79.8264V501.585C79.8214 502.972 80.8803 503.643 82.0536 503.619C82.5259 503.614 82.8441 503.524 83.0181 503.46L82.7496 502.232C82.6502 502.251 82.4663 502.296 82.2276 502.296C81.7454 502.296 81.3129 502.137 81.3129 501.277V497.076H82.8789V495.883Z" fill="white"/>
<path d="M88.2283 506.383H89.7148V502.331H89.8043C90.0728 502.818 90.6197 503.668 92.0117 503.668C93.8612 503.668 95.2035 502.187 95.2035 499.716C95.2035 497.24 93.8413 495.783 91.9968 495.783C90.5799 495.783 90.0678 496.648 89.8043 497.121H89.68V495.883H88.2283V506.383ZM89.685 499.701C89.685 498.105 90.381 497.046 91.6786 497.046C93.0259 497.046 93.7021 498.185 93.7021 499.701C93.7021 501.232 93.006 502.401 91.6786 502.401C90.4009 502.401 89.685 501.307 89.685 499.701Z" fill="white"/>
<path d="M100.086 503.673C102.238 503.673 103.645 502.097 103.645 499.736C103.645 497.359 102.238 495.783 100.086 495.783C97.9329 495.783 96.5259 497.359 96.5259 499.736C96.5259 502.097 97.9329 503.673 100.086 503.673ZM100.091 502.425C98.6836 502.425 98.0273 501.197 98.0273 499.731C98.0273 498.269 98.6836 497.026 100.091 497.026C101.488 497.026 102.144 498.269 102.144 499.731C102.144 501.197 101.488 502.425 100.091 502.425Z" fill="white"/>
<path d="M105.305 503.519H106.791V495.883H105.305V503.519ZM106.055 494.705C106.567 494.705 106.995 494.307 106.995 493.82C106.995 493.332 106.567 492.93 106.055 492.93C105.538 492.93 105.116 493.332 105.116 493.82C105.116 494.307 105.538 494.705 106.055 494.705Z" fill="white"/>
<path d="M110.277 498.985C110.277 497.767 111.023 497.071 112.057 497.071C113.066 497.071 113.678 497.732 113.678 498.841V503.519H115.164V498.662C115.164 496.773 114.125 495.783 112.564 495.783C111.416 495.783 110.665 496.315 110.312 497.126H110.218V495.883H108.791V503.519H110.277V498.985Z" fill="white"/>
<path d="M120.723 495.883H119.157V494.053H117.67V495.883H116.551V497.076H117.67V501.585C117.665 502.972 118.724 503.643 119.897 503.619C120.37 503.614 120.688 503.524 120.862 503.46L120.593 502.232C120.494 502.251 120.31 502.296 120.071 502.296C119.589 502.296 119.157 502.137 119.157 501.277V497.076H120.723V495.883Z" fill="white"/>
<path d="M127.966 497.747C127.658 496.559 126.728 495.783 125.078 495.783C123.353 495.783 122.13 496.693 122.13 498.045C122.13 499.129 122.786 499.85 124.218 500.168L125.51 500.452C126.246 500.616 126.589 500.944 126.589 501.421C126.589 502.013 125.958 502.475 124.983 502.475C124.093 502.475 123.522 502.092 123.343 501.342L121.906 501.56C122.154 502.913 123.278 503.673 124.993 503.673C126.838 503.673 128.115 502.694 128.115 501.312C128.115 500.233 127.429 499.567 126.027 499.244L124.814 498.965C123.974 498.766 123.611 498.483 123.616 497.966C123.611 497.379 124.248 496.962 125.093 496.962C126.017 496.962 126.445 497.474 126.619 497.986L127.966 497.747Z" fill="white"/>
<path d="M67.71 528.47H69.1915C69.1468 526.839 67.705 525.656 65.6369 525.656C63.5935 525.656 62.0275 526.825 62.0275 528.58C62.0275 529.996 63.0417 530.827 64.6773 531.269L65.8805 531.597C66.9692 531.886 67.8094 532.244 67.8094 533.148C67.8094 534.143 66.8599 534.799 65.5523 534.799C64.3691 534.799 63.3847 534.272 63.2952 533.163H61.754C61.8535 535.008 63.2803 536.146 65.5623 536.146C67.9536 536.146 69.3307 534.888 69.3307 533.163C69.3307 531.329 67.6951 530.618 66.4025 530.3L65.4082 530.041C64.6127 529.837 63.5538 529.464 63.5587 528.49C63.5587 527.625 64.3492 526.984 65.6021 526.984C66.7704 526.984 67.6006 527.531 67.71 528.47Z" fill="#24292E"/>
<path d="M72.5337 525.795H71.0472V535.977H72.5337V525.795Z" fill="#24292E"/>
<path d="M76.7558 536.146C78.0186 536.146 78.7295 535.505 79.0129 534.933H79.0726V535.977H80.5243V530.906C80.5243 528.684 78.7743 528.241 77.5612 528.241C76.1791 528.241 74.9064 528.798 74.4092 530.19L75.8062 530.509C76.025 529.967 76.5818 529.445 77.5811 529.445C78.5406 529.445 79.0328 529.947 79.0328 530.812V530.847C79.0328 531.388 78.476 531.379 77.1038 531.538C75.6571 531.707 74.1756 532.085 74.1756 533.82C74.1756 535.321 75.3041 536.146 76.7558 536.146ZM77.079 534.953C76.2388 534.953 75.6322 534.575 75.6322 533.839C75.6322 533.044 76.3382 532.761 77.1983 532.646C77.6805 532.582 78.824 532.452 79.0378 532.239V533.223C79.0378 534.128 78.3169 534.953 77.079 534.953Z" fill="#24292E"/>
<path d="M85.7208 536.131C87.5255 536.131 88.6938 535.048 88.8579 533.561H87.4112C87.2223 534.386 86.5809 534.874 85.7308 534.874C84.473 534.874 83.6626 533.825 83.6626 532.159C83.6626 530.523 84.4879 529.494 85.7308 529.494C86.6754 529.494 87.2521 530.091 87.4112 530.807H88.8579C88.6988 529.266 87.441 528.241 85.7059 528.241C83.5532 528.241 82.1612 529.862 82.1612 532.194C82.1612 534.496 83.5035 536.131 85.7208 536.131Z" fill="#24292E"/>
<path d="M90.4476 535.977H91.9341V533.268L92.6749 532.527L95.27 535.977H97.0946L93.7935 531.617L96.8858 528.341H95.106L92.0633 531.572H91.9341V525.795H90.4476V535.977Z" fill="#24292E"/>
<path d="M62.3823 555.977H68.8255V554.655H63.9185V551.538H68.4328V550.22H63.9185V547.118H68.7658V545.795H62.3823V555.977Z" fill="#24292E"/>
<path d="M70.6986 555.977H72.1851V551.269C72.1851 550.24 72.9059 549.524 73.7511 549.524C74.5764 549.524 75.1481 550.071 75.1481 550.901V555.977H76.6297V551.11C76.6297 550.19 77.1915 549.524 78.1609 549.524C78.9464 549.524 79.5927 549.962 79.5927 550.996V555.977H81.0792V550.857C81.0792 549.112 80.1048 548.241 78.7227 548.241C77.624 548.241 76.7987 548.768 76.4308 549.584H76.3513C76.0182 548.749 75.3172 548.241 74.298 548.241C73.2888 548.241 72.538 548.744 72.2199 549.584H72.1254V548.341H70.6986V555.977Z" fill="#24292E"/>
<path d="M85.2939 556.146C86.5567 556.146 87.2676 555.505 87.551 554.933H87.6107V555.977H89.0624V550.906C89.0624 548.684 87.3124 548.241 86.0993 548.241C84.7172 548.241 83.4445 548.798 82.9473 550.19L84.3443 550.509C84.5631 549.967 85.1199 549.445 86.1192 549.445C87.0787 549.445 87.5709 549.947 87.5709 550.812V550.847C87.5709 551.388 87.0141 551.379 85.6419 551.538C84.1952 551.707 82.7136 552.085 82.7136 553.82C82.7136 555.321 83.8422 556.146 85.2939 556.146ZM85.6171 554.953C84.7769 554.953 84.1703 554.575 84.1703 553.839C84.1703 553.044 84.8763 552.761 85.7364 552.646C86.2186 552.582 87.3621 552.452 87.5759 552.239V553.223C87.5759 554.128 86.855 554.953 85.6171 554.953Z" fill="#24292E"/>
<path d="M91.0423 555.977H92.5288V548.341H91.0423V555.977ZM91.793 547.163C92.3051 547.163 92.7326 546.765 92.7326 546.278C92.7326 545.79 92.3051 545.388 91.793 545.388C91.276 545.388 90.8534 545.79 90.8534 546.278C90.8534 546.765 91.276 547.163 91.793 547.163Z" fill="#24292E"/>
<path d="M96.0151 545.795H94.5286V555.977H96.0151V545.795Z" fill="#24292E"/>
<path d="M44.9302 575.977H46.4664V572.398H48.5545C50.916 572.398 52.0843 570.971 52.0843 569.092C52.0843 567.217 50.9259 565.795 48.5594 565.795H44.9302V575.977ZM46.4664 571.095V567.113H48.3954C49.9167 567.113 50.5381 567.938 50.5381 569.092C50.5381 570.245 49.9167 571.095 48.4153 571.095H46.4664Z" fill="#24292E"/>
<path d="M55.9199 576.146C57.1827 576.146 57.8936 575.505 58.177 574.933H58.2366V575.977H59.6883V570.906C59.6883 568.684 57.9383 568.241 56.7253 568.241C55.3432 568.241 54.0704 568.798 53.5733 570.19L54.9703 570.509C55.1891 569.967 55.7459 569.445 56.7452 569.445C57.7047 569.445 58.1969 569.947 58.1969 570.812V570.847C58.1969 571.388 57.64 571.379 56.2679 571.538C54.8212 571.707 53.3396 572.085 53.3396 573.82C53.3396 575.321 54.4682 576.146 55.9199 576.146ZM56.243 574.953C55.4028 574.953 54.7963 574.575 54.7963 573.839C54.7963 573.044 55.5023 572.761 56.3623 572.646C56.8446 572.582 57.9881 572.452 58.2018 572.239V573.223C58.2018 574.128 57.481 574.953 56.243 574.953Z" fill="#24292E"/>
<path d="M64.87 579C66.8139 579 68.3153 578.11 68.3153 576.146V568.341H66.8586V569.579H66.7492C66.4858 569.107 65.9588 568.241 64.5369 568.241C62.6924 568.241 61.3352 569.698 61.3352 572.129C61.3352 574.565 62.7223 575.863 64.5269 575.863C65.9289 575.863 66.4708 575.072 66.7393 574.585H66.8338V576.087C66.8338 577.285 66.0135 577.802 64.8849 577.802C63.647 577.802 63.1647 577.18 62.9012 576.743L61.6235 577.27C62.0262 578.205 63.0454 579 64.87 579ZM64.8551 574.63C63.5277 574.63 62.8366 573.611 62.8366 572.109C62.8366 570.643 63.5127 569.504 64.8551 569.504C66.1527 569.504 66.8487 570.563 66.8487 572.109C66.8487 573.685 66.1377 574.63 64.8551 574.63Z" fill="#24292E"/>
<path d="M73.6001 576.131C75.2656 576.131 76.4438 575.311 76.7819 574.068L75.375 573.815C75.1065 574.536 74.4602 574.903 73.615 574.903C72.3423 574.903 71.4872 574.078 71.4474 572.607H76.8764V572.08C76.8764 569.32 75.2258 568.241 73.4957 568.241C71.3679 568.241 69.9659 569.862 69.9659 572.209C69.9659 574.58 71.348 576.131 73.6001 576.131ZM71.4524 571.493C71.512 570.409 72.2975 569.469 73.5056 569.469C74.659 569.469 75.4147 570.325 75.4197 571.493H71.4524Z" fill="#24292E"/>
<path d="M78.5257 575.977H80.0122V571.314C80.0122 570.315 80.7828 569.594 81.8368 569.594C82.145 569.594 82.493 569.648 82.6124 569.683V568.261C82.4632 568.241 82.1699 568.227 81.981 568.227C81.0861 568.227 80.3204 568.734 80.042 569.554H79.9625V568.341H78.5257V575.977Z" fill="#24292E"/>
<path d="M87.3142 575.977C90.4165 575.977 92.2113 574.053 92.2113 570.871C92.2113 567.705 90.4165 565.795 87.4186 565.795H84.0181V575.977H87.3142ZM85.5543 574.635V567.138H87.3242C89.5514 567.138 90.6999 568.47 90.6999 570.871C90.6999 573.283 89.5515 574.635 87.2297 574.635H85.5543Z" fill="#24292E"/>
<path d="M98.8396 572.81C98.8446 574.108 97.8801 574.724 97.0449 574.724C96.1251 574.724 95.4888 574.058 95.4888 573.019V568.341H94.0023V573.198C94.0023 575.092 95.0413 576.077 96.5079 576.077C97.6564 576.077 98.4369 575.47 98.7899 574.655H98.8695V575.977H100.331V568.341H98.8396V572.81Z" fill="#24292E"/>
<path d="M105.893 568.341H104.327V566.511H102.841V568.341H101.722V569.534H102.841V574.043C102.836 575.43 103.894 576.102 105.068 576.077C105.54 576.072 105.858 575.982 106.032 575.918L105.764 574.69C105.664 574.71 105.48 574.754 105.242 574.754C104.76 574.754 104.327 574.595 104.327 573.735V569.534H105.893V568.341Z" fill="#24292E"/>
<path d="M108.477 578.841C109.705 578.841 110.481 578.2 110.923 576.996L114.07 568.341H112.474L110.54 574.267H110.461L108.527 568.341H106.936L109.73 576.077L109.546 576.584C109.168 577.598 108.636 577.683 107.821 577.459L107.463 578.677C107.642 578.756 108.03 578.841 108.477 578.841Z" fill="#24292E"/>
<defs>
<linearGradient id="paint0_linear_3862_26147" x1="59.4368" y1="308.334" x2="59.4368" y2="405.208" gradientUnits="userSpaceOnUse">
<stop stop-color="#F4F5F5"/>
<stop offset="1" stop-color="#DCE1E6"/>
</linearGradient>
</defs>
</svg>