<svg width="48" height="48" viewBox="0 0 48 48" fill="none" xmlns="http://www.w3.org/2000/svg">
<path d="M17.3009 29.8017H30.6991C32.0765 29.8017 32.9322 28.313 32.2435 27.1235L25.5443 15.52C24.8557 14.3304 23.1374 14.3304 22.4557 15.52L15.7565 27.1235C15.0678 28.313 15.9304 29.8017 17.3009 29.8017ZM24 0C10.7478 0 0 10.7478 0 24C0 37.2522 10.7478 48 24 48C37.2522 48 48 37.2522 48 24C48 10.7478 37.2522 0 24 0ZM24.0626 10.9774C31.2557 11.0122 37.0574 16.8696 37.0226 24.0626C36.9878 31.2557 31.1304 37.0574 23.9374 37.0226C16.7443 36.9878 10.9426 31.1304 10.9774 23.9374C11.0122 16.7443 16.8696 10.9426 24.0626 10.9774ZM6.94261 31.3809C6.79652 31.4296 6.65739 31.4504 6.5113 31.4504C5.92696 31.4504 5.37739 31.0748 5.18957 30.4904C4.53565 28.48 4.2087 26.3165 4.2087 24.0626C4.2087 22.8104 4.31304 21.5026 4.52174 20.1878C6.09391 12.2017 12.2296 6.03826 20.16 4.4313C20.9183 4.27826 21.6487 4.76522 21.8017 5.51652C21.9548 6.26783 21.4678 7.00522 20.7165 7.15826C13.8922 8.53565 8.61217 13.8435 7.26957 20.6678C7.09565 21.7878 7.00522 22.9496 7.00522 24.0557C7.00522 26.0104 7.29043 27.8887 7.85391 29.6209C8.09044 30.3513 7.69391 31.1374 6.95652 31.3739L6.94261 31.3809ZM39.1791 37.127C35.52 41.4817 30.2539 43.8748 24.3548 43.8748C18.4557 43.8748 12.8626 41.447 9.05739 37.2174C8.54261 36.647 8.5913 35.7635 9.16174 35.2557C9.73217 34.7409 10.6157 34.7896 11.1235 35.36C14.3513 38.9496 19.2904 41.0991 24.3478 41.0991C29.4052 41.0991 33.92 39.0539 37.0435 35.3391C37.5374 34.7548 38.4139 34.6713 39.0052 35.1722C39.5965 35.6661 39.6661 36.5426 39.1722 37.1339L39.1791 37.127ZM42.9426 30.4C42.7409 30.9774 42.2052 31.3322 41.6278 31.3322C41.4748 31.3322 41.3217 31.3043 41.1687 31.2557C40.4452 31.0052 40.0626 30.2122 40.313 29.4817C40.5565 28.7722 40.7791 28.0278 40.96 27.2626C41.1687 26.2122 41.28 25.0852 41.28 23.9722C41.28 15.8052 35.4574 8.73044 27.4296 7.14435C26.6783 6.99826 26.1565 6.26783 26.2957 5.51652C26.4348 4.76522 27.1304 4.26435 27.8748 4.39652C27.8887 4.39652 27.9513 4.41043 27.9652 4.41739C37.287 6.25391 44.0557 14.4835 44.0557 23.9722C44.0557 25.2661 43.9304 26.5739 43.673 27.8539C43.4574 28.7652 43.2139 29.6 42.9357 30.4H42.9426Z" fill="url(#paint0_linear_911_12416)"/>
<defs>
<linearGradient id="paint0_linear_911_12416" x1="24.3556" y1="47.7468" x2="24.3556" y2="0" gradientUnits="userSpaceOnUse">
<stop stop-color="#FAC10D"/>
<stop offset="1" stop-color="#F05A28"/>
</linearGradient>
</defs>
<script xmlns=""/></svg>