<?xml version="1.0" encoding="utf-8"?>
<!-- Svg Vector Icons : http://www.onlinewebfonts.com/icon -->
<!DOCTYPE svg PUBLIC "-//W3C//DTD SVG 1.1//EN" "http://www.w3.org/Graphics/SVG/1.1/DTD/svg11.dtd">
<svg version="1.1" xmlns="http://www.w3.org/2000/svg" xmlns:xlink="http://www.w3.org/1999/xlink" x="0px" y="0px" viewBox="0 0 1000 1000" enable-background="new 0 0 1000 1000" xml:space="preserve">
<metadata> Svg Vector Icons : http://www.onlinewebfonts.com/icon </metadata>
<g><path d="M90.8,944.5c0,22.4-18.1,40.4-40.4,40.4l0,0c-22.4,0-40.4-18.1-40.4-40.4V55.5c0-22.4,18.1-40.4,40.4-40.4l0,0c22.4,0,40.4,18.1,40.4,40.4V944.5z"/><path d="M50.4,984.9c-22.4,0-40.4-18.1-40.4-40.4l0,0c0-22.4,18.1-40.4,40.4-40.4h899.2c22.4,0,40.4,18.1,40.4,40.4l0,0c0,22.4-18.1,40.4-40.4,40.4H50.4z"/><path d="M791.2,820.6"/><path d="M177.5,161.9c0,33.5,27.1,60.6,60.6,60.6c33.5,0,60.6-27.1,60.6-60.6c0-33.5-27.1-60.6-60.6-60.6C204.6,101.3,177.5,128.4,177.5,161.9z"/><path d="M496.2,458.6c0,33.5,27.1,60.6,60.6,60.6s60.6-27.1,60.6-60.6l0,0c0-33.5-27.1-60.6-60.6-60.6S496.2,425.1,496.2,458.6z"/><path d="M283.9,343c0,33.5,27.1,60.6,60.6,60.6c33.5,0,60.6-27.1,60.6-60.6s-27.1-60.6-60.6-60.6C311.1,282.4,283.9,309.5,283.9,343z"/><path d="M471.5,161.9c0,33.5,27.1,60.6,60.6,60.6c33.5,0,60.6-27.1,60.6-60.6c0-33.5-27.1-60.6-60.6-60.6C498.6,101.3,471.5,128.4,471.5,161.9z"/><path d="M714.6,222.5c0,33.5,27.1,60.6,60.6,60.6s60.6-27.1,60.6-60.6c0-33.5-27.1-60.6-60.6-60.6S714.6,189.1,714.6,222.5z"/><path d="M790.3,760c0,33.5,27.1,60.6,60.6,60.6c33.5,0,60.6-27.1,60.6-60.6c0-33.5-27.1-60.6-60.6-60.6C817.5,699.4,790.3,726.5,790.3,760z"/><path d="M177.5,519.2c0,33.5,27.1,60.6,60.6,60.6c33.5,0,60.6-27.1,60.6-60.6c0-33.5-27.1-60.6-60.6-60.6C204.6,458.6,177.5,485.7,177.5,519.2z"/><path d="M344.5,689.9c0,33.5,27.1,60.6,60.6,60.6s60.6-27.1,60.6-60.6c0-33.5-27.1-60.6-60.6-60.6S344.5,656.5,344.5,689.9z"/></g>
</svg>