<?xml version="1.0" encoding="utf-8"?>
<!-- Generator: Adobe Illustrator 19.0.1, SVG Export Plug-In . SVG Version: 6.00 Build 0)  -->
<!DOCTYPE svg PUBLIC "-//W3C//DTD SVG 1.1//EN" "http://www.w3.org/Graphics/SVG/1.1/DTD/svg11.dtd">
<svg version="1.1" id="Layer_1" xmlns="http://www.w3.org/2000/svg" xmlns:xlink="http://www.w3.org/1999/xlink" x="0px" y="0px"
	 width="264.2px" height="318px" viewBox="-181.1 -67 264.2 318" style="enable-background:new -181.1 -67 264.2 318;"
	 xml:space="preserve">
<style type="text/css">
	.st0{fill:url(#SVGID_1_);}
	.st1{fill:url(#SVGID_2_);}
	.st2{fill:url(#SVGID_3_);}
	.st3{fill:url(#SVGID_4_);}
	.st4{fill:url(#SVGID_5_);}
	.st5{fill:url(#SVGID_6_);}
	.st6{fill:url(#SVGID_7_);}
	.st7{fill:url(#SVGID_8_);}
	.st8{fill:url(#SVGID_9_);}
	.st9{fill:url(#SVGID_10_);}
	.st10{fill:url(#SVGID_11_);}
	.st11{fill:url(#SVGID_12_);}
	.st12{fill:url(#SVGID_13_);}
	.st13{fill:url(#SVGID_14_);}
	.st14{fill:url(#SVGID_15_);}
</style>
<g>
	
		<linearGradient id="SVGID_1_" gradientUnits="userSpaceOnUse" x1="342.6804" y1="897.3058" x2="342.6804" y2="547.4434" gradientTransform="matrix(0.9805 -0.1964 0.1964 0.9805 -567.5302 -509.0906)">
		<stop  offset="0" style="stop-color:#F9EC1C"/>
		<stop  offset="1" style="stop-color:#F05A2B"/>
	</linearGradient>
	<polygon class="st0" points="-127.3,-58.2 -127.5,-59.1 -128.3,-58.9 	"/>
	
		<linearGradient id="SVGID_2_" gradientUnits="userSpaceOnUse" x1="295.8044" y1="887.3397" x2="295.8044" y2="537.4772" gradientTransform="matrix(0.9805 -0.1964 0.1964 0.9805 -567.5302 -509.0906)">
		<stop  offset="0" style="stop-color:#F9EC1C"/>
		<stop  offset="1" style="stop-color:#F05A2B"/>
	</linearGradient>
	<polygon class="st1" points="-108.3,219.3 -130.7,223.8 -126.2,246.3 -103.8,241.8 	"/>
	
		<linearGradient id="SVGID_3_" gradientUnits="userSpaceOnUse" x1="442.4363" y1="887.3397" x2="442.4363" y2="537.4772" gradientTransform="matrix(0.9805 -0.1964 0.1964 0.9805 -567.5302 -509.0906)">
		<stop  offset="0" style="stop-color:#F9EC1C"/>
		<stop  offset="1" style="stop-color:#F05A2B"/>
	</linearGradient>
	<polygon class="st2" points="-27.8,190 71.3,170.1 66.8,147.7 -32.3,167.5 	"/>
	
		<linearGradient id="SVGID_4_" gradientUnits="userSpaceOnUse" x1="367.5056" y1="887.3397" x2="367.5056" y2="537.4772" gradientTransform="matrix(0.9805 -0.1964 0.1964 0.9805 -567.5302 -509.0906)">
		<stop  offset="0" style="stop-color:#F9EC1C"/>
		<stop  offset="1" style="stop-color:#F05A2B"/>
	</linearGradient>
	<polygon class="st3" points="-67.5,174.6 -63,197 -40.5,192.5 -45,170.1 	"/>
	
		<linearGradient id="SVGID_5_" gradientUnits="userSpaceOnUse" x1="331.6549" y1="887.3397" x2="331.6549" y2="537.4772" gradientTransform="matrix(0.9805 -0.1964 0.1964 0.9805 -567.5302 -509.0906)">
		<stop  offset="0" style="stop-color:#F9EC1C"/>
		<stop  offset="1" style="stop-color:#F05A2B"/>
	</linearGradient>
	<polygon class="st4" points="-68.6,234.7 -73.1,212.3 -95.6,216.8 -91.1,239.2 	"/>
	
		<linearGradient id="SVGID_6_" gradientUnits="userSpaceOnUse" x1="295.8044" y1="887.3397" x2="295.8044" y2="537.4772" gradientTransform="matrix(0.9805 -0.1964 0.1964 0.9805 -567.5302 -509.0906)">
		<stop  offset="0" style="stop-color:#F9EC1C"/>
		<stop  offset="1" style="stop-color:#F05A2B"/>
	</linearGradient>
	<polygon class="st5" points="-133.3,211.1 -110.8,206.6 -115.3,184.2 -137.8,188.7 	"/>
	
		<linearGradient id="SVGID_7_" gradientUnits="userSpaceOnUse" x1="442.4363" y1="887.3397" x2="442.4363" y2="537.4772" gradientTransform="matrix(0.9805 -0.1964 0.1964 0.9805 -567.5302 -509.0906)">
		<stop  offset="0" style="stop-color:#F9EC1C"/>
		<stop  offset="1" style="stop-color:#F05A2B"/>
	</linearGradient>
	<polygon class="st6" points="73.8,182.8 -25.3,202.7 -20.8,225.1 78.3,205.3 	"/>
	
		<linearGradient id="SVGID_8_" gradientUnits="userSpaceOnUse" x1="367.5056" y1="887.3397" x2="367.5056" y2="537.4772" gradientTransform="matrix(0.9805 -0.1964 0.1964 0.9805 -567.5302 -509.0906)">
		<stop  offset="0" style="stop-color:#F9EC1C"/>
		<stop  offset="1" style="stop-color:#F05A2B"/>
	</linearGradient>
	<polygon class="st7" points="-60.4,209.7 -55.9,232.2 -33.5,227.7 -38,205.2 	"/>
	
		<linearGradient id="SVGID_9_" gradientUnits="userSpaceOnUse" x1="331.6549" y1="887.3397" x2="331.6549" y2="537.4772" gradientTransform="matrix(0.9805 -0.1964 0.1964 0.9805 -567.5302 -509.0906)">
		<stop  offset="0" style="stop-color:#F9EC1C"/>
		<stop  offset="1" style="stop-color:#F05A2B"/>
	</linearGradient>
	<polygon class="st8" points="-98.1,204.1 -75.7,199.6 -80.2,177.1 -102.6,181.6 	"/>
	
		<linearGradient id="SVGID_10_" gradientUnits="userSpaceOnUse" x1="289.1909" y1="880.5443" x2="289.1909" y2="548.7296" gradientTransform="matrix(0.9805 -0.1964 0.1964 0.9805 -567.5302 -509.0906)">
		<stop  offset="0" style="stop-color:#F9EC1C"/>
		<stop  offset="1" style="stop-color:#F05A2B"/>
	</linearGradient>
	<polygon class="st9" points="-140.3,176 -130.8,174.1 -166.8,-5.6 -176.3,-3.7 	"/>
	
		<linearGradient id="SVGID_11_" gradientUnits="userSpaceOnUse" x1="302.4872" y1="889.7463" x2="302.4872" y2="533.4922" gradientTransform="matrix(0.9805 -0.1964 0.1964 0.9805 -567.5302 -509.0906)">
		<stop  offset="0" style="stop-color:#F9EC1C"/>
		<stop  offset="1" style="stop-color:#F05A2B"/>
	</linearGradient>
	<polygon class="st10" points="-127.3,173.4 -117.8,171.5 -156.4,-21.4 -165.9,-19.5 	"/>
	
		<linearGradient id="SVGID_12_" gradientUnits="userSpaceOnUse" x1="325.1889" y1="908.8145" x2="325.1889" y2="501.9178" gradientTransform="matrix(0.9805 -0.1964 0.1964 0.9805 -567.5302 -509.0906)">
		<stop  offset="0" style="stop-color:#F9EC1C"/>
		<stop  offset="1" style="stop-color:#F05A2B"/>
	</linearGradient>
	<polygon class="st11" points="-105,168.9 -95.5,167 -139.7,-53.3 -149.2,-51.4 	"/>
	
		<linearGradient id="SVGID_13_" gradientUnits="userSpaceOnUse" x1="338.4852" y1="896.2529" x2="338.4852" y2="522.7181" gradientTransform="matrix(0.9805 -0.1964 0.1964 0.9805 -567.5302 -509.0906)">
		<stop  offset="0" style="stop-color:#F9EC1C"/>
		<stop  offset="1" style="stop-color:#F05A2B"/>
	</linearGradient>
	<polygon class="st12" points="-92,166.3 -82.5,164.4 -123,-37.9 -132.5,-36 	"/>
	
		<linearGradient id="SVGID_14_" gradientUnits="userSpaceOnUse" x1="360.8988" y1="870.7903" x2="360.8988" y2="564.8808" gradientTransform="matrix(0.9805 -0.1964 0.1964 0.9805 -567.5302 -509.0906)">
		<stop  offset="0" style="stop-color:#F9EC1C"/>
		<stop  offset="1" style="stop-color:#F05A2B"/>
	</linearGradient>
	<polygon class="st13" points="-70,161.9 -60.5,160 -93.7,-5.7 -103.2,-3.8 	"/>
	
		<linearGradient id="SVGID_15_" gradientUnits="userSpaceOnUse" x1="374.1951" y1="875.2039" x2="374.1951" y2="557.5726" gradientTransform="matrix(0.9805 -0.1964 0.1964 0.9805 -567.5302 -509.0906)">
		<stop  offset="0" style="stop-color:#F9EC1C"/>
		<stop  offset="1" style="stop-color:#F05A2B"/>
	</linearGradient>
	<polygon class="st14" points="-57,159.3 -47.5,157.4 -81.9,-14.6 -91.4,-12.7 	"/>
</g>
</svg>
