<svg xmlns="http://www.w3.org/2000/svg" xmlns:xlink="http://www.w3.org/1999/xlink" id="Layer_1" width="264.2" height="318" x="0" style="enable-background:new -181.1 -67 264.2 318" y="0" version="1.1" viewBox="-181.1 -67 264.2 318" xml:space="preserve"><style type="text/css">.st0{fill:url(#SVGID_1_)}.st1{fill:url(#SVGID_2_)}.st2{fill:url(#SVGID_3_)}.st3{fill:url(#SVGID_4_)}.st4{fill:url(#SVGID_5_)}.st5{fill:url(#SVGID_6_)}.st6{fill:url(#SVGID_7_)}.st7{fill:url(#SVGID_8_)}.st8{fill:url(#SVGID_9_)}.st9{fill:url(#SVGID_10_)}.st10{fill:url(#SVGID_11_)}.st11{fill:url(#SVGID_12_)}.st12{fill:url(#SVGID_13_)}.st13{fill:url(#SVGID_14_)}.st14{fill:url(#SVGID_15_)}</style><g><linearGradient id="SVGID_1_" x1="342.68" x2="342.68" y1="897.306" y2="547.443" gradientTransform="matrix(0.9805 -0.1964 0.1964 0.9805 -567.5302 -509.0906)" gradientUnits="userSpaceOnUse"><stop offset="0" style="stop-color:#f9ec1c"/><stop offset="1" style="stop-color:#f05a2b"/></linearGradient><polygon points="-127.3 -58.2 -127.5 -59.1 -128.3 -58.9" class="st0"/><linearGradient id="SVGID_2_" x1="295.804" x2="295.804" y1="887.34" y2="537.477" gradientTransform="matrix(0.9805 -0.1964 0.1964 0.9805 -567.5302 -509.0906)" gradientUnits="userSpaceOnUse"><stop offset="0" style="stop-color:#f9ec1c"/><stop offset="1" style="stop-color:#f05a2b"/></linearGradient><polygon points="-108.3 219.3 -130.7 223.8 -126.2 246.3 -103.8 241.8" class="st1"/><linearGradient id="SVGID_3_" x1="442.436" x2="442.436" y1="887.34" y2="537.477" gradientTransform="matrix(0.9805 -0.1964 0.1964 0.9805 -567.5302 -509.0906)" gradientUnits="userSpaceOnUse"><stop offset="0" style="stop-color:#f9ec1c"/><stop offset="1" style="stop-color:#f05a2b"/></linearGradient><polygon points="-27.8 190 71.3 170.1 66.8 147.7 -32.3 167.5" class="st2"/><linearGradient id="SVGID_4_" x1="367.506" x2="367.506" y1="887.34" y2="537.477" gradientTransform="matrix(0.9805 -0.1964 0.1964 0.9805 -567.5302 -509.0906)" gradientUnits="userSpaceOnUse"><stop offset="0" style="stop-color:#f9ec1c"/><stop offset="1" style="stop-color:#f05a2b"/></linearGradient><polygon points="-67.5 174.6 -63 197 -40.5 192.5 -45 170.1" class="st3"/><linearGradient id="SVGID_5_" x1="331.655" x2="331.655" y1="887.34" y2="537.477" gradientTransform="matrix(0.9805 -0.1964 0.1964 0.9805 -567.5302 -509.0906)" gradientUnits="userSpaceOnUse"><stop offset="0" style="stop-color:#f9ec1c"/><stop offset="1" style="stop-color:#f05a2b"/></linearGradient><polygon points="-68.6 234.7 -73.1 212.3 -95.6 216.8 -91.1 239.2" class="st4"/><linearGradient id="SVGID_6_" x1="295.804" x2="295.804" y1="887.34" y2="537.477" gradientTransform="matrix(0.9805 -0.1964 0.1964 0.9805 -567.5302 -509.0906)" gradientUnits="userSpaceOnUse"><stop offset="0" style="stop-color:#f9ec1c"/><stop offset="1" style="stop-color:#f05a2b"/></linearGradient><polygon points="-133.3 211.1 -110.8 206.6 -115.3 184.2 -137.8 188.7" class="st5"/><linearGradient id="SVGID_7_" x1="442.436" x2="442.436" y1="887.34" y2="537.477" gradientTransform="matrix(0.9805 -0.1964 0.1964 0.9805 -567.5302 -509.0906)" gradientUnits="userSpaceOnUse"><stop offset="0" style="stop-color:#f9ec1c"/><stop offset="1" style="stop-color:#f05a2b"/></linearGradient><polygon points="73.8 182.8 -25.3 202.7 -20.8 225.1 78.3 205.3" class="st6"/><linearGradient id="SVGID_8_" x1="367.506" x2="367.506" y1="887.34" y2="537.477" gradientTransform="matrix(0.9805 -0.1964 0.1964 0.9805 -567.5302 -509.0906)" gradientUnits="userSpaceOnUse"><stop offset="0" style="stop-color:#f9ec1c"/><stop offset="1" style="stop-color:#f05a2b"/></linearGradient><polygon points="-60.4 209.7 -55.9 232.2 -33.5 227.7 -38 205.2" class="st7"/><linearGradient id="SVGID_9_" x1="331.655" x2="331.655" y1="887.34" y2="537.477" gradientTransform="matrix(0.9805 -0.1964 0.1964 0.9805 -567.5302 -509.0906)" gradientUnits="userSpaceOnUse"><stop offset="0" style="stop-color:#f9ec1c"/><stop offset="1" style="stop-color:#f05a2b"/></linearGradient><polygon points="-98.1 204.1 -75.7 199.6 -80.2 177.1 -102.6 181.6" class="st8"/><linearGradient id="SVGID_10_" x1="289.191" x2="289.191" y1="880.544" y2="548.73" gradientTransform="matrix(0.9805 -0.1964 0.1964 0.9805 -567.5302 -509.0906)" gradientUnits="userSpaceOnUse"><stop offset="0" style="stop-color:#f9ec1c"/><stop offset="1" style="stop-color:#f05a2b"/></linearGradient><polygon points="-140.3 176 -130.8 174.1 -166.8 -5.6 -176.3 -3.7" class="st9"/><linearGradient id="SVGID_11_" x1="302.487" x2="302.487" y1="889.746" y2="533.492" gradientTransform="matrix(0.9805 -0.1964 0.1964 0.9805 -567.5302 -509.0906)" gradientUnits="userSpaceOnUse"><stop offset="0" style="stop-color:#f9ec1c"/><stop offset="1" style="stop-color:#f05a2b"/></linearGradient><polygon points="-127.3 173.4 -117.8 171.5 -156.4 -21.4 -165.9 -19.5" class="st10"/><linearGradient id="SVGID_12_" x1="325.189" x2="325.189" y1="908.814" y2="501.918" gradientTransform="matrix(0.9805 -0.1964 0.1964 0.9805 -567.5302 -509.0906)" gradientUnits="userSpaceOnUse"><stop offset="0" style="stop-color:#f9ec1c"/><stop offset="1" style="stop-color:#f05a2b"/></linearGradient><polygon points="-105 168.9 -95.5 167 -139.7 -53.3 -149.2 -51.4" class="st11"/><linearGradient id="SVGID_13_" x1="338.485" x2="338.485" y1="896.253" y2="522.718" gradientTransform="matrix(0.9805 -0.1964 0.1964 0.9805 -567.5302 -509.0906)" gradientUnits="userSpaceOnUse"><stop offset="0" style="stop-color:#f9ec1c"/><stop offset="1" style="stop-color:#f05a2b"/></linearGradient><polygon points="-92 166.3 -82.5 164.4 -123 -37.9 -132.5 -36" class="st12"/><linearGradient id="SVGID_14_" x1="360.899" x2="360.899" y1="870.79" y2="564.881" gradientTransform="matrix(0.9805 -0.1964 0.1964 0.9805 -567.5302 -509.0906)" gradientUnits="userSpaceOnUse"><stop offset="0" style="stop-color:#f9ec1c"/><stop offset="1" style="stop-color:#f05a2b"/></linearGradient><polygon points="-70 161.9 -60.5 160 -93.7 -5.7 -103.2 -3.8" class="st13"/><linearGradient id="SVGID_15_" x1="374.195" x2="374.195" y1="875.204" y2="557.573" gradientTransform="matrix(0.9805 -0.1964 0.1964 0.9805 -567.5302 -509.0906)" gradientUnits="userSpaceOnUse"><stop offset="0" style="stop-color:#f9ec1c"/><stop offset="1" style="stop-color:#f05a2b"/></linearGradient><polygon points="-57 159.3 -47.5 157.4 -81.9 -14.6 -91.4 -12.7" class="st14"/></g></svg>