<svg xmlns="http://www.w3.org/2000/svg" viewBox="0 0 24 24">
    <defs><style>.cls-1{fill:#84aff1;}.cls-2{fill:url(#linear-gradient);}.cls-3{fill:#3865ab;}</style><linearGradient id="linear-gradient" y1="40.18" x2="82.99" y2="40.18" gradientUnits="userSpaceOnUse"><stop offset="0" stop-color="#f2cc0c"/><stop offset="1" stop-color="#ff9830"/></linearGradient></defs>
    <path class="cls-3" d="M21.92,6.62a1,1,0,0,0-.54-.54A1,1,0,0,0,21,6H16a1,1,0,0,0,0,2h2.59L13,13.59l-3.29-3.3a1,1,0,0,0-1.42,0l-6,6a1,1,0,0,0,0,1.42,1,1,0,0,0,1.42,0L9,12.41l3.29,3.3a1,1,0,0,0,1.42,0L20,9.41V12a1,1,0,0,0,2,0V7A1,1,0,0,0,21.92,6.62Z" />
</svg>