<svg width="25" height="25" viewBox="0 0 25 25" fill="none" xmlns="http://www.w3.org/2000/svg">
<path d="M15.8099 19.2012H12.3096V22.7015" stroke="white" stroke-width="0.999878" stroke-linecap="round" stroke-linejoin="round"/>
<path d="M23.7271 20.4333C22.8815 22.9123 20.4237 24.4679 17.8213 24.171C15.219 23.8741 13.1746 21.805 12.9092 19.1992" stroke="white" stroke-width="0.999878" stroke-linecap="round" stroke-linejoin="round"/>
<path d="M20.8105 17.1995H24.3108V13.6992" stroke="white" stroke-width="0.999878" stroke-linecap="round" stroke-linejoin="round"/>
<path d="M12.8926 15.9657C13.7378 13.4868 16.1952 11.9311 18.7975 12.2275C21.3997 12.5238 23.4443 14.5924 23.7105 17.1978" stroke="white" stroke-width="0.999878" stroke-linecap="round" stroke-linejoin="round"/>
<path d="M10.3083 21.1987H2.3077C1.75537 21.1987 1.30762 20.751 1.30762 20.1986V4.19735C1.30762 3.64502 1.75537 3.19727 2.3077 3.19727H20.3092C20.8615 3.19727 21.3092 3.64502 21.3092 4.19735V10.6979" stroke="white" stroke-width="0.999878" stroke-linecap="round" stroke-linejoin="round"/>
<path d="M3.26367 15.7441H10.0679" stroke="white" stroke-width="1.00008" stroke-linecap="round" stroke-linejoin="round"/>
<path d="M3.26367 18.1562H10.0679" stroke="white" stroke-width="1.00008" stroke-linecap="round" stroke-linejoin="round"/>
<path fill-rule="evenodd" clip-rule="evenodd" d="M3.66469 9.97461H5.14378C5.348 9.97461 5.51355 10.1402 5.51355 10.3444V12.1932H3.29492V10.3444C3.29492 10.1402 3.46047 9.97461 3.66469 9.97461Z" stroke="white" stroke-width="1.00008" stroke-linecap="round" stroke-linejoin="round"/>
<path fill-rule="evenodd" clip-rule="evenodd" d="M7.67153 7.75781H9.15062C9.35484 7.75781 9.52039 7.92336 9.52039 8.12758V12.1951H7.30176V8.12758C7.30176 7.92336 7.46731 7.75781 7.67153 7.75781Z" stroke="white" stroke-width="1.00008" stroke-linecap="round" stroke-linejoin="round"/>
<path fill-rule="evenodd" clip-rule="evenodd" d="M11.6793 5.53711H13.1584C13.3626 5.53711 13.5282 5.70266 13.5282 5.90688V12.193H11.3096V5.90688C11.3096 5.70266 11.4751 5.53711 11.6793 5.53711Z" stroke="white" stroke-width="1.00008" stroke-linecap="round" stroke-linejoin="round"/>
</svg>
