<svg xmlns="http://www.w3.org/2000/svg" xmlns:xlink="http://www.w3.org/1999/xlink" viewBox="0 0 80.49 80.99"><defs><style>.cls-1{fill:#3865ab;}.cls-2{fill:#8ab8ff;}.cls-3{fill:url(#linear-gradient);}.cls-4{fill:url(#linear-gradient-2);}.cls-5{fill:#3a76d0;}</style><linearGradient id="linear-gradient" x1="-3918.19" y1="8047.29" x2="-3910.1" y2="8047.29" gradientTransform="translate(-3910.1 8051.33) rotate(180)" gradientUnits="userSpaceOnUse"><stop offset="0" stop-color="#f2cc0c"/><stop offset="1" stop-color="#ff9830"/></linearGradient><linearGradient id="linear-gradient-2" x1="-3918.19" y1="8010.84" x2="-3910.1" y2="8010.84" xlink:href="#linear-gradient"/></defs><g id="Layer_2" data-name="Layer 2"><g id="Layer_1-2" data-name="Layer 1"><path class="cls-1" d="M79.49,8H14.54V0H79.49a1,1,0,0,1,1,1V7A1,1,0,0,1,79.49,8Z"/><path class="cls-1" d="M59.49,26.27H14.54v-8h45a1,1,0,0,1,1,1v6A1,1,0,0,1,59.49,26.27Z"/><path class="cls-2" d="M6.92,19.38a4,4,0,0,0-1.34-.85,4.1,4.1,0,0,0-3.08,0,4,4,0,0,0-1.33.85,4,4,0,0,0-.85,1.34,4,4,0,0,0,.85,4.41A4.44,4.44,0,0,0,2.5,26a3.76,3.76,0,0,0,3.08,0,4.61,4.61,0,0,0,1.34-.85,4.19,4.19,0,0,0,0-5.75Z"/><path class="cls-1" d="M48.49,44.49H14.54v-8h34a1,1,0,0,1,1,1v6A1,1,0,0,1,48.49,44.49Z"/><path class="cls-1" d="M79.49,81H14.54V73H79.49a1,1,0,0,1,1,1v6A1,1,0,0,1,79.49,81Z"/><path class="cls-2" d="M7.77,75.4a4,4,0,0,1-.85,4.41,4.61,4.61,0,0,1-1.34.85,3.76,3.76,0,0,1-3.08,0,4.44,4.44,0,0,1-1.33-.85A4,4,0,0,1,.32,75.4a4,4,0,0,1,.85-1.34,4,4,0,0,1,1.33-.85,4.1,4.1,0,0,1,3.08,0,4,4,0,0,1,1.34.85A4,4,0,0,1,7.77,75.4Z"/><path class="cls-3" d="M6.92,1.15A4.36,4.36,0,0,0,5.58.3,4.1,4.1,0,0,0,2.5.3a4.32,4.32,0,0,0-1.33.85A4,4,0,0,0,.32,2.49a4,4,0,0,0,.85,4.42,4.87,4.87,0,0,0,1.33.85,3.84,3.84,0,0,0,3.08,0,5.07,5.07,0,0,0,1.34-.85,4.07,4.07,0,0,0,.85-4.42A4,4,0,0,0,6.92,1.15Z"/><path class="cls-4" d="M6.92,37.61a4,4,0,0,0-1.34-.85,4,4,0,0,0-3.08,0,4,4,0,0,0-1.33.85,4,4,0,0,0-.85,1.33,4,4,0,0,0,.85,4.42,4.64,4.64,0,0,0,1.33.85,3.84,3.84,0,0,0,3.08,0,4.83,4.83,0,0,0,1.34-.85,4.07,4.07,0,0,0,.85-4.42A4,4,0,0,0,6.92,37.61Z"/><path class="cls-1" d="M70.49,62.72H14.54v-8h56a1,1,0,0,1,1,1v6A1,1,0,0,1,70.49,62.72Z"/><path class="cls-5" d="M6.92,55.83A4.36,4.36,0,0,0,5.58,55,4.1,4.1,0,0,0,2.5,55a4.32,4.32,0,0,0-1.33.85,4.2,4.2,0,0,0,0,5.76,4.87,4.87,0,0,0,1.33.85,3.84,3.84,0,0,0,3.08,0,5.07,5.07,0,0,0,1.34-.85,4.07,4.07,0,0,0,.85-4.42A4,4,0,0,0,6.92,55.83Z"/></g></g></svg>