<svg width="17" height="18" viewBox="0 0 17 18" fill="none" xmlns="http://www.w3.org/2000/svg">
<path d="M6.03027 12.6328C4.88965 12.6328 4.00293 11.9844 4.00293 10.8047C4.00293 9.44141 5.16699 9.14453 6.30371 9.01172C7.38184 8.88672 7.81934 8.89453 7.81934 8.46875V8.44141C7.81934 7.76172 7.43262 7.36719 6.67871 7.36719C5.89355 7.36719 5.45605 7.77734 5.28418 8.20312L4.18652 7.95312C4.57715 6.85937 5.57715 6.42188 6.66309 6.42188C7.61621 6.42188 8.99121 6.76953 8.99121 8.51563V12.5H7.85059V11.6797H7.80371C7.58105 12.1289 7.02246 12.6328 6.03027 12.6328ZM6.28418 11.6953C7.25684 11.6953 7.82324 11.0469 7.82324 10.3359V9.5625C7.65527 9.73047 6.75684 9.83203 6.37793 9.88281C5.70215 9.97266 5.14746 10.1953 5.14746 10.8203C5.14746 11.3984 5.62402 11.6953 6.28418 11.6953ZM10.5469 12.5V6.5H11.7148V12.5H10.5469ZM11.1367 5.57422C10.7305 5.57422 10.3984 5.26172 10.3984 4.87891C10.3984 4.49609 10.7305 4.17969 11.1367 4.17969C11.5391 4.17969 11.875 4.49609 11.875 4.87891C11.875 5.26172 11.5391 5.57422 11.1367 5.57422Z" fill="white"/>
<path d="M5 0.875H12C14.5543 0.875 16.625 2.94568 16.625 5.5V12.5C16.625 15.0543 14.5543 17.125 12 17.125H0.375V5.5C0.375 2.94568 2.44568 0.875 5 0.875Z" stroke="white" stroke-width="0.75"/>
</svg>
