<?xml version="1.0" encoding="UTF-8" standalone="no"?>
<!-- Created with Inkscape (http://www.inkscape.org/) -->

<svg
   xmlns:dc="http://purl.org/dc/elements/1.1/"
   xmlns:cc="http://creativecommons.org/ns#"
   xmlns:rdf="http://www.w3.org/1999/02/22-rdf-syntax-ns#"
   xmlns:svg="http://www.w3.org/2000/svg"
   xmlns="http://www.w3.org/2000/svg"
   xmlns:xlink="http://www.w3.org/1999/xlink"
   xmlns:sodipodi="http://sodipodi.sourceforge.net/DTD/sodipodi-0.dtd"
   xmlns:inkscape="http://www.inkscape.org/namespaces/inkscape"
   width="690"
   height="560"
   id="svg3614"
   version="1.1"
   inkscape:version="0.47 r22583"
   sodipodi:docname="Microsoft SQL Server Logo.svg">
  <defs
     id="defs3616">
    <inkscape:perspective
       sodipodi:type="inkscape:persp3d"
       inkscape:vp_x="0 : 526.18109 : 1"
       inkscape:vp_y="0 : 1000 : 0"
       inkscape:vp_z="744.09448 : 526.18109 : 1"
       inkscape:persp3d-origin="372.04724 : 350.78739 : 1"
       id="perspective3622" />
    <inkscape:perspective
       id="perspective3576"
       inkscape:persp3d-origin="0.5 : 0.33333333 : 1"
       inkscape:vp_z="1 : 0.5 : 1"
       inkscape:vp_y="0 : 1000 : 0"
       inkscape:vp_x="0 : 0.5 : 1"
       sodipodi:type="inkscape:persp3d" />
    <linearGradient
       gradientTransform="matrix(0.66977913,0,0,0.66977913,488.25553,811.45513)"
       y2="-258.96371"
       x2="-23.846952"
       y1="-29.889751"
       x1="-411.5267"
       gradientUnits="userSpaceOnUse"
       id="linearGradient2851"
       xlink:href="#linearGradient3649-2"
       inkscape:collect="always" />
    <linearGradient
       id="linearGradient3649-2">
      <stop
         id="stop3651-1"
         offset="0"
         style="stop-color:#909ca9;stop-opacity:1;" />
      <stop
         id="stop3653-6"
         offset="1"
         style="stop-color:#ededee;stop-opacity:1;" />
    </linearGradient>
    <linearGradient
       gradientTransform="matrix(0.66977913,0,0,0.66977913,488.25553,811.45513)"
       y2="-889.05798"
       x2="-135.85931"
       y1="-889.05798"
       x1="-447.79681"
       gradientUnits="userSpaceOnUse"
       id="linearGradient2848"
       xlink:href="#linearGradient3672-8"
       inkscape:collect="always" />
    <linearGradient
       id="linearGradient3672-8">
      <stop
         id="stop3674-5"
         offset="0"
         style="stop-color:#939fab;stop-opacity:1;" />
      <stop
         id="stop3676-7"
         offset="1"
         style="stop-color:#dcdee1;stop-opacity:1;" />
    </linearGradient>
    <radialGradient
       r="414.15625"
       fy="-245.42754"
       fx="-1259.0977"
       cy="-245.42754"
       cx="-1259.0977"
       gradientTransform="matrix(-0.6435342,-0.09731428,0.19435637,-1.2852688,-377.15369,-44.777181)"
       gradientUnits="userSpaceOnUse"
       id="radialGradient2845"
       xlink:href="#linearGradient3629-6"
       inkscape:collect="always" />
    <linearGradient
       id="linearGradient3629-6">
      <stop
         id="stop3631-1"
         offset="0"
         style="stop-color:#ee352c;stop-opacity:1;" />
      <stop
         id="stop3633-8"
         offset="1"
         style="stop-color:#a91d22;stop-opacity:1;" />
    </linearGradient>
  </defs>
  <sodipodi:namedview
     id="base"
     pagecolor="#ffffff"
     bordercolor="#666666"
     borderopacity="1.0"
     inkscape:pageopacity="0.0"
     inkscape:pageshadow="2"
     inkscape:zoom="0.63260803"
     inkscape:cx="345"
     inkscape:cy="280"
     inkscape:document-units="px"
     inkscape:current-layer="layer1"
     showgrid="false"
     inkscape:window-width="1024"
     inkscape:window-height="749"
     inkscape:window-x="-4"
     inkscape:window-y="-4"
     inkscape:window-maximized="1"
     showguides="true"
     inkscape:guide-bbox="true" />
  <metadata
     id="metadata3619">
    <rdf:RDF>
      <cc:Work
         rdf:about="">
        <dc:format>image/svg+xml</dc:format>
        <dc:type
           rdf:resource="http://purl.org/dc/dcmitype/StillImage" />
        <dc:title />
      </cc:Work>
    </rdf:RDF>
  </metadata>
  <g
     inkscape:label="Ebene 1"
     inkscape:groupmode="layer"
     id="layer1"
     transform="translate(7.9473495,-214.03648)">
    <g
       transform="matrix(0.87205879,0,0,0.87205879,-814.02071,35.444919)"
       id="g3545">
      <g
         transform="matrix(0.93645766,0,0,0.93645766,689.44587,192.23533)"
         id="layer1-5"
         inkscape:label="Ebene 1">
        <path
           sodipodi:nodetypes="cssssccssssccccsccsccccsssscccssssccssssccccccccccccccccsssssccccccccccccccccccccccccccccccccccccccccccsccccccccccccccccccsccccccccccccccccccsccsccsccsc"
           style="fill:#000000"
           d="M 300.96875,374.78125 C 279.85942,374.48492 266.15478,381.39623 259.75,395.5 c -9.44003,20.78759 -1.02174,36.49761 29,54.03125 16.86395,9.84908 24.34375,18.33351 24.34375,27.625 0,19.17323 -23.20254,25.98095 -47.125,13.84375 -4.86138,-2.46644 -9.02904,-4.496 -9.28125,-4.5 -0.84966,5.43022 -0.46875,18.46875 -0.46875,18.46875 0,0 7.31796,3.05288 18.34375,5.25 27.36725,5.4535 52.2177,-7.3845 54.5625,-28.1875 2.18129,-19.35242 -4.92453,-29.62934 -31.625,-45.6875 -17.87665,-10.75135 -25.75819,-18.56159 -24.75,-27.8125 2.77454,-25.45862 34.20718,-21.87799 51.53125,-12.28125 l 0.0625,-17.125 c 0,0 -9.64006,-4.15094 -23.375,-4.34375 z m 105.1875,0.0937 c -1.26801,0.0113 -2.5747,0.0542 -3.875,0.125 -25.93606,1.41221 -43.44116,12.84918 -53.75,35.15625 -8.7464,20.18368 -7.77474,46.58938 0.15625,66.8125 9.15702,19.83133 24.04882,30.30555 48.78125,34.3125 5.20578,0.84341 8.77006,3.77949 18.875,15.625 l 12.46875,14.625 22.6875,0 -15.09375,-15.1875 c -8.30055,-8.34384 -15.09375,-15.64283 -15.09375,-16.2187 0,-0.57586 3.17866,-1.99263 7.0625,-3.15625 12.75499,-3.82149 23.24974,-13.6382 30.6875,-28.6875 5.94999,-12.039 6.86845,-15.75139 7.65625,-30.8125 2.34817,-44.89262 -21.25431,-72.94366 -60.5625,-72.59375 l 0,-5e-5 z m 231.99283,0.15625 c -21.10933,-0.29632 -34.84522,6.61497 -41.25,20.71875 -9.44003,20.78758 -0.99049,36.49761 29.03125,54.03125 16.86395,9.84909 24.3125,18.30226 24.3125,27.59375 0,19.17323 -23.17129,26.0122 -47.09375,13.875 -4.86138,-2.46644 -9.06029,-4.496 -9.3125,-4.5 -0.84966,5.43022 -0.4375,18.46875 -0.4375,18.46875 0,0 7.28671,3.02163 18.3125,5.21875 27.36725,5.45349 52.2177,-7.3845 54.5625,-28.1875 2.18129,-19.35241 -4.92453,-29.62934 -31.625,-45.6875 -17.87665,-10.75135 -25.75819,-18.53034 -24.75,-27.78125 2.77454,-25.45862 34.20718,-21.87799 51.53125,-12.28125 l 0.0625,-17.125 c 0,0 -9.60881,-4.15094 -23.34375,-4.34375 z m -150.80533,1.40625 0,66.03125 0,66.03125 34.84375,0 34.84375,0 0,-6.40625 0,-9.21875 -53.1875,0 0,-56.8125 0,-59.625 -8.25,0 -8.25,0 z M 404.9375,388.9062 c 27.56926,0 43.27037,16.86253 45.25,48.59375 1.6427,26.33044 -7.19318,46.22582 -24.15625,54.4375 -10.97687,5.31381 -27.01653,6.41269 -37.5,2.5625 -10.75931,-3.95148 -21.21777,-15.15385 -26,-27.84375 -5.2263,-13.86826 -4.47355,-39.49491 1.5,-51 9.5595,-18.41166 22.30365,-26.75 40.90625,-26.75 z m 558,23.09375 c -3.22107,0.051 -6.61008,0.44039 -10.09375,1.1875 -21.98085,5.76744 -34.39551,26.79498 -33.5625,48.46875 0.0137,18.18548 3.53971,27.17281 12.28125,36.65625 17.89778,14.75745 34.16644,15.86794 56.125,8.03125 3.78797,-1.62579 7.8125,-3.4375 7.8125,-3.4375 l -0.0312,-14.71875 -7.78125,4.09375 c -17.71967,7.68343 -31.08941,7.70021 -41.78125,-1.40625 -6.8562,-6.99332 -9.78811,-15.19503 -11.25,-24.75 l 33.15625,0 33.15625,0 0,-12.65625 c 0,-25.64908 -15.48378,-41.82552 -38.03125,-41.46875 l -5e-5,0 z m -242.1875,0.2188 c -3.22107,0.051 -6.57883,0.44039 -10.0625,1.1875 -21.98085,5.76744 -34.42676,26.76373 -33.59375,48.4375 0.0137,18.18548 3.57096,27.20406 12.3125,36.6875 17.89778,14.75745 34.13519,15.86794 56.09375,8.03125 3.78797,-1.62579 7.8125,-3.46875 7.8125,-3.46875 l 0,-14.6875 L 745.5,492.5 c -17.71967,7.68343 -31.08941,7.70021 -41.78125,-1.40625 -6.8562,-6.99332 -9.78811,-15.22628 -11.25,-24.78125 l 33.1875,0 33.15625,0 0,-12.625 c 0,-25.64908 -15.51503,-41.82552 -38.0625,-41.46875 z m 338.8438,0.6875 c -9.5505,0 -16.8372,3.83183 -21.6876,11.40625 l -3.8437,6.03125 -0.031,-7.78125 -0.031,-7.8125 -8.25,0 -8.25,0 0,46.78125 0,46.78125 8.25,0 8.25,0 0,-29.875 c 0,-27.33492 0.349,-30.5745 4.125,-38.0625 5.1932,-10.29848 14.2913,-15.38157 23.0312,-12.875 l 5.8438,1.6875 0,-8.15625 0,-8.125 -7.4062,0 -5e-4,0 z M 817.40625,413.125 c -9.55047,0 -16.80592,3.83183 -21.65625,11.40625 l -3.875,6.03125 -0.0312,-7.8125 -0.0312,-7.78125 -8.25,0 -8.25,0 0,46.78125 0,46.75 8.25,0 8.25,0 0,-29.875 c 0,-27.33492 0.34901,-30.5745 4.125,-38.0625 5.19322,-10.29848 14.29136,-15.38157 23.03125,-12.875 l 5.875,1.6875 0,-8.125 0,-8.125 -7.4375,0 -10e-5,0 z m 12.84375,1.67423 c 11.04575,31.14441 22.97399,62.9257 35.0625,93.66952 5.23482,0.0552 10.48369,0.0362 15.71875,0.0312 L 899.5,462.1875 l 18.78125,-47.35892 -16.28125,0 c 0,0 -7.18493,18.77679 -14.6875,39.82767 l -13.625,35.51255 -13.09375,-35.76255 -13.3125,-39.60702 -17.03125,0 z m 131.71875,11.35702 c 4.9275,0.0186 9.79065,1.58837 13.90625,4.75 8.3439,6.40984 9.75,22.1875 9.75,22.1875 l -49.53125,0 c 0,0 2.49817,-16.03893 11.5625,-22.375 4.36681,-3.05246 9.385,-4.58109 14.3125,-4.5625 z m -242.1875,0.21875 c 4.9275,0.0186 9.79065,1.58837 13.90625,4.75 8.3439,6.40984 9.75,22.15625 9.75,22.15625 l -49.5,0 c 0,0 2.49817,-16.00768 11.5625,-22.34375 4.36681,-3.05246 9.35375,-4.58109 14.28125,-4.5625 z"
           transform="translate(0,152.36218)"
           id="path2830" />
      </g>
      <g
         transform="matrix(1.3287544,0,0,1.3287544,-380.99295,208.98218)"
         id="g3073">
        <path
           id="path26"
           style="fill:#231f1f;fill-opacity:1;fill-rule:nonzero;stroke:none"
           d="m 1189.2727,326.34125 c 0,-0.48592 -0.1346,-0.82982 -0.4035,-1.04663 -0.3067,-0.25401 -0.8298,-0.37381 -1.555,-0.37381 l -1.0467,0 0,2.87073 1.2635,0 c 1.1587,0 1.7419,-0.48595 1.7419,-1.45034 m 1.6222,5.98076 -1.4278,0 -0.9196,-2.01849 c -0.4635,-1.00925 -0.9644,-1.51763 -1.5026,-1.51763 l -0.7776,0 0,3.53612 -1.1812,0 0,-8.41792 2.3774,0 c 1.0466,0 1.8391,0.23915 2.3848,0.71024 0.4561,0.40354 0.6878,0.93448 0.6878,1.58487 0,0.57567 -0.1869,1.0691 -0.5607,1.47277 -0.3738,0.4112 -0.9046,0.68034 -1.5774,0.82235 l 0,0.036 c 0.471,0.10448 0.9345,0.62052 1.398,1.54753 l 1.0989,2.24278 z m 2.6241,-4.11922 c 0,-1.66716 -0.5681,-3.05022 -1.697,-4.16413 -1.1289,-1.11391 -2.5044,-1.66711 -4.1342,-1.66711 -1.6821,0 -3.0726,0.56067 -4.1791,1.68206 -1.1139,1.12139 -1.6671,2.50445 -1.6671,4.14918 0,1.67458 0.5757,3.08007 1.7195,4.20146 1.1288,1.10644 2.5044,1.65968 4.1267,1.65968 1.6148,0 2.9904,-0.56072 4.1267,-1.68211 1.1364,-1.12139 1.7045,-2.51192 1.7045,-4.17903 m 0.7925,-0.036 c 0,1.85401 -0.643,3.40903 -1.9213,4.67246 -1.2784,1.26344 -2.8558,1.8914 -4.7323,1.8914 -1.8914,0 -3.4689,-0.613 -4.7174,-1.83906 -1.2484,-1.23354 -1.8764,-2.78855 -1.8764,-4.67247 0,-1.84658 0.6354,-3.40155 1.9064,-4.67247 1.2709,-1.26343 2.8483,-1.89891 4.7397,-1.89891 1.8541,0 3.409,0.60557 4.665,1.81668 1.2933,1.24101 1.9363,2.81092 1.9363,4.70237" />
        <path
           id="path28"
           style="fill:#231f1f;fill-opacity:1;fill-rule:nonzero;stroke:none"
           d="m 1023.0974,350.08487 -3.8501,0 0,-22.09142 c 0,-1.74192 0.1045,-3.87256 0.3139,-6.37701 l -0.09,0 c -0.3662,1.4653 -0.6952,2.52688 -0.9868,3.18479 l -11.2139,25.28364 -1.884,0 -11.24379,-25.09678 c -0.32157,-0.70272 -0.65039,-1.83159 -0.98682,-3.37165 l -0.0896,0 c 0.1198,1.31578 0.1869,3.45389 0.1869,6.42187 l 0,22.04656 -3.72303,0 0,-32.90165 5.09861,0 10.09253,22.94366 c 0.7625,1.72697 1.2634,3.04274 1.4952,3.94732 l 0.1572,0 c 0.6578,-1.80173 1.1812,-3.14736 1.5848,-4.03703 l 10.3019,-22.85395 4.8369,0" />
        <path
           id="path30"
           style="fill:#231f1f;fill-opacity:1;fill-rule:nonzero;stroke:none"
           d="m 1034.9842,326.59544 0,23.48943 -3.7604,0 0,-23.48943 3.7604,0 z m 0.6429,-8.41793 c 0,0.68781 -0.2468,1.26344 -0.7251,1.74192 -0.4785,0.47096 -1.0691,0.7102 -1.7569,0.7102 -0.6728,0 -1.2485,-0.23195 -1.7344,-0.68777 -0.4785,-0.45605 -0.7177,-1.04663 -0.7177,-1.76435 0,-0.69524 0.2391,-1.27087 0.7177,-1.7344 0.4859,-0.471 1.0616,-0.70272 1.7344,-0.70272 0.6878,0 1.2784,0.2315 1.7569,0.70272 0.4784,0.46353 0.7251,1.03916 0.7251,1.7344" />
        <path
           id="path32"
           style="fill:#231f1f;fill-opacity:1;fill-rule:nonzero;stroke:none"
           d="m 1058.4287,349.00833 c -1.8016,1.09897 -3.9547,1.65216 -6.4442,1.65216 -3.3642,0 -6.078,-1.11391 -8.1488,-3.34922 -2.0185,-2.17549 -3.0277,-4.97151 -3.0277,-8.39549 0,-3.85756 1.1064,-6.96758 3.3193,-9.33746 2.2054,-2.36983 5.1808,-3.55851 8.9113,-3.55851 2.0484,0 3.8576,0.39633 5.435,1.19615 l 0,3.85009 c -1.7419,-1.21859 -3.6109,-1.83159 -5.5995,-1.83159 -2.3848,0 -4.3285,0.82982 -5.8462,2.49697 -1.5774,1.71197 -2.3624,3.99213 -2.3624,6.84049 0,2.73616 0.7177,4.8967 2.168,6.4891 1.4429,1.59239 3.3792,2.38483 5.8163,2.38483 2.0485,0 3.9773,-0.67282 5.7789,-2.0185" />
        <path
           id="path34"
           style="fill:#231f1f;fill-opacity:1;fill-rule:nonzero;stroke:none"
           d="m 1076.371,330.40071 c -0.6579,-0.50839 -1.6148,-0.7551 -2.8708,-0.7551 -1.525,0 -2.8109,0.68781 -3.85,2.06339 -1.1812,1.54002 -1.7644,3.67813 -1.7644,6.39939 l 0,11.97648 -3.7679,0 0,-23.49691 3.7679,0 0,4.84442 0.09,0 c 0.5458,-1.71201 1.398,-3.03522 2.5493,-3.96974 1.0691,-0.85225 2.2653,-1.28587 3.596,-1.28587 0.9943,0 1.7493,0.11214 2.2502,0.32157" />
        <path
           id="path36"
           style="fill:#231f1f;fill-opacity:1;fill-rule:nonzero;stroke:none"
           d="m 1097.3336,338.38501 c 0,-3.01283 -0.6804,-5.30795 -2.041,-6.88534 -1.3157,-1.51016 -3.1548,-2.27269 -5.5322,-2.27269 -2.34,0 -4.2089,0.77001 -5.6144,2.29512 -1.4877,1.6372 -2.2278,3.95474 -2.2278,6.95262 0,2.81841 0.7102,5.01633 2.1306,6.59377 1.4279,1.58492 3.3268,2.37736 5.7116,2.37736 2.482,0 4.366,-0.79992 5.6668,-2.40726 1.2709,-1.56249 1.9064,-3.77536 1.9064,-6.65358 m 3.8575,-0.13466 c 0,3.74546 -1.0615,6.75077 -3.1698,9.01598 -2.1082,2.25773 -4.9565,3.39407 -8.53,3.39407 -3.5361,0 -6.3321,-1.13634 -8.403,-3.39407 -2.0185,-2.19045 -3.0277,-5.07614 -3.0277,-8.64965 0,-4.08936 1.1513,-7.2442 3.4464,-9.4795 2.1232,-2.07831 4.9715,-3.11746 8.53,-3.11746 3.5063,0 6.2425,1.08401 8.2012,3.25951 1.9661,2.16801 2.9529,5.15837 2.9529,8.97112" />
        <path
           id="path38"
           style="fill:#231f1f;fill-opacity:1;fill-rule:nonzero;stroke:none"
           d="m 1119.8436,343.79758 c 0,1.92878 -0.7177,3.52865 -2.1605,4.79209 -1.57,1.38305 -3.7231,2.07082 -6.4443,2.07082 -2.2353,0 -4.1716,-0.47843 -5.8237,-1.42791 l 0,-4.03699 c 1.8316,1.50268 3.865,2.25026 6.1003,2.25026 2.9829,0 4.4706,-1.09149 4.4706,-3.28194 0,-0.91953 -0.3288,-1.67463 -0.9868,-2.27268 -0.6579,-0.5981 -1.9363,-1.3083 -3.8501,-2.15307 -1.9737,-0.85976 -3.3716,-1.74191 -4.2015,-2.66145 -0.9943,-1.08401 -1.4877,-2.50445 -1.4877,-4.24632 0,-1.95873 0.77,-3.58098 2.3176,-4.87432 1.54,-1.29335 3.5286,-1.93626 5.9657,-1.93626 1.8616,0 3.5362,0.36616 5.0239,1.09896 l 0,3.7828 c -1.5475,-1.11392 -3.3193,-1.67459 -5.3229,-1.67459 -1.2559,0 -2.2577,0.30671 -3.0053,0.91953 -0.7551,0.61301 -1.1289,1.39801 -1.1289,2.3624 0,1.03916 0.3139,1.85402 0.942,2.42969 0.5682,0.53824 1.7419,1.18868 3.5361,1.95121 2.0036,0.84477 3.4464,1.70453 4.3361,2.59416 1.1438,1.13634 1.7194,2.57174 1.7194,4.31361" />
        <path
           id="path40"
           style="fill:#231f1f;fill-opacity:1;fill-rule:nonzero;stroke:none"
           d="m 1142.8321,338.38501 c 0,-3.01283 -0.6802,-5.30795 -2.0409,-6.88534 -1.3158,-1.51016 -3.1623,-2.27269 -5.5322,-2.27269 -2.3399,0 -4.209,0.77001 -5.6219,2.29512 -1.4802,1.6372 -2.2204,3.95474 -2.2204,6.95262 0,2.81841 0.7103,5.01633 2.1307,6.59377 1.4279,1.58492 3.3268,2.37736 5.7116,2.37736 2.4821,0 4.366,-0.79992 5.6668,-2.40726 1.2709,-1.56249 1.9063,-3.77536 1.9063,-6.65358 m 3.8576,-0.13466 c 0,3.74546 -1.0615,6.75077 -3.1697,9.01598 -2.1083,2.25773 -4.9566,3.39407 -8.5376,3.39407 -3.5286,0 -6.3247,-1.13634 -8.3955,-3.39407 -2.0185,-2.19045 -3.0277,-5.07614 -3.0277,-8.64965 0,-4.08936 1.1513,-7.2442 3.4464,-9.4795 2.1231,-2.07831 4.964,-3.11746 8.53,-3.11746 3.5062,0 6.235,1.08401 8.2011,3.25951 1.9662,2.16801 2.953,5.15837 2.953,8.97112" />
        <path
           id="path42"
           style="fill:#231f1f;fill-opacity:1;fill-rule:nonzero;stroke:none"
           d="m 1163.2714,318.61113 c -0.7327,-0.41119 -1.57,-0.62048 -2.5044,-0.62048 -2.6241,0 -3.9399,1.65963 -3.9399,4.97895 l 0,3.62584 5.5023,0 0,3.19221 -5.5023,0 0,20.29722 -3.7679,0 0,-20.29722 -3.9921,0 0,-3.19221 3.9921,0 0,-3.80527 c 0,-2.58664 0.8075,-4.61266 2.4073,-6.08539 1.383,-1.26344 3.0726,-1.89892 5.0762,-1.89892 1.1587,0 2.0708,0.13467 2.7287,0.4112" />
        <path
           id="path44"
           style="fill:#231f1f;fill-opacity:1;fill-rule:nonzero;stroke:none"
           d="m 1178.1186,349.8531 c -0.8896,0.50834 -2.0634,0.75506 -3.5361,0.75506 -4.0968,0 -6.1452,-2.30259 -6.1452,-6.92272 l 0,-13.90526 -4.0371,0 0,-3.19222 4.0371,0 0,-5.73405 c 1.1886,-0.38146 2.4446,-0.78496 3.7604,-1.2111 l 0,6.94515 5.9209,0 0,3.19222 -5.9209,0 0,13.26234 c 0,1.5774 0.2688,2.69131 0.8074,3.3567 0.5307,0.66534 1.4279,1.00177 2.6838,1.00177 0.927,0 1.7419,-0.25401 2.4297,-0.76253" />
      </g>
      <path
         id="path3151"
         style="fill:#231f1f;fill-opacity:1;fill-rule:nonzero;stroke:none"
         d="m 1704.1616,726.98116 c 0,-0.64567 -0.1789,-1.10263 -0.5362,-1.39071 -0.4075,-0.33752 -1.1026,-0.4967 -2.0662,-0.4967 l -1.3908,0 0,3.81449 1.6789,0 c 1.5396,0 2.3145,-0.64571 2.3145,-1.92714 m 2.1555,7.94696 -1.8972,0 -1.2219,-2.68208 c -0.6159,-1.34105 -1.2814,-2.01656 -1.9966,-2.01656 l -1.0332,0 0,4.69864 -1.5695,0 0,-11.18535 3.159,0 c 1.3906,0 2.4437,0.31777 3.1688,0.94373 0.606,0.53621 0.9139,1.2417 0.9139,2.10591 0,0.76492 -0.2484,1.42057 -0.745,1.95695 -0.4967,0.54638 -1.202,0.904 -2.096,1.0927 l 0,0.0478 c 0.6258,0.13883 1.2417,0.82452 1.8576,2.05629 l 1.4601,2.9801 z m 3.4868,-5.47344 c 0,-2.21524 -0.7548,-4.05299 -2.2549,-5.5331 -1.5,-1.48011 -3.3277,-2.21518 -5.4933,-2.21518 -2.2351,0 -4.0827,0.74499 -5.553,2.23504 -1.4801,1.49006 -2.2152,3.3278 -2.2152,5.51324 0,2.22511 0.765,4.09266 2.2848,5.58271 1.4999,1.47019 3.3278,2.20531 5.4834,2.20531 2.1457,0 3.9735,-0.74506 5.4834,-2.23511 1.51,-1.49005 2.2648,-3.33773 2.2648,-5.55291 m 1.0531,-0.0478 c 0,2.46352 -0.8544,4.52976 -2.553,6.20855 -1.6986,1.6788 -3.7946,2.51321 -6.288,2.51321 -2.5132,0 -4.6094,-0.81453 -6.2683,-2.44366 -1.6588,-1.63907 -2.4933,-3.7053 -2.4933,-6.20857 0,-2.45365 0.8443,-4.51982 2.5332,-6.20856 1.6887,-1.67879 3.7847,-2.52319 6.2979,-2.52319 2.4636,0 4.5297,0.80466 6.1986,2.41392 1.7185,1.649 2.5729,3.73503 2.5729,6.2483" />
      <g
         transform="matrix(0.65282401,0,0,0.65282401,1153.1248,109.92721)"
         inkscape:label="Ebene 1"
         id="layer1-2">
        <path
           style="fill:url(#linearGradient2851);fill-opacity:1"
           d="m 469.03913,461.90328 -132.3442,43.15889 -115.05546,50.81949 -32.23313,8.51875 c -8.17177,7.76757 -16.8442,15.65704 -26.07959,23.69344 -10.15197,8.83403 -19.69921,16.83977 -26.95861,22.62598 -8.0837,6.44323 -20.10328,18.36933 -26.2469,26.01673 -9.14014,11.37738 -16.287689,23.50961 -19.360836,32.84011 -5.528893,16.78653 -2.835108,33.78858 7.828043,49.47993 13.621163,20.04417 40.737103,40.40934 72.273323,54.27304 16.08642,7.07173 43.2321,16.18811 63.58722,21.32828 33.92184,8.56609 99.48216,17.87306 135.58835,19.25615 7.32269,0.28037 17.07093,0.25405 17.51894,-0.0419 0.79242,-0.52337 6.41334,-11.16652 12.93511,-24.4888 22.19045,-45.32961 38.24499,-87.82466 46.88454,-124.11845 5.23117,-21.97568 9.30946,-51.27956 11.9514,-86.02475 0.73997,-9.73283 1.00822,-42.19356 0.43951,-53.22651 -0.92537,-17.95348 -2.50678,-32.58669 -5.04424,-46.94733 -0.37226,-2.10481 -0.50923,-3.95573 -0.31399,-4.12333 0.36798,-0.31586 1.61798,-0.71689 17.87473,-5.44196 l -3.24421,-7.5978 z m -30.24475,17.74914 c 1.20273,0 4.40105,30.67062 5.23265,50.12878 0.17669,4.13457 0.14099,6.78152 -0.10462,6.78152 -0.78993,0 -16.94869,-9.48862 -28.40285,-16.68169 -10.00288,-6.28166 -28.98503,-18.89586 -32.00292,-21.26549 -0.95222,-0.74772 -0.85162,-0.78423 7.32578,-3.60006 13.91339,-4.79103 46.90054,-15.36306 47.95196,-15.36306 z m -67.41748,22.12364 c 0.8551,-0.002 3.18352,1.28312 8.68623,4.73032 20.64212,12.93129 48.59495,28.48887 60.57315,33.71919 3.71405,1.62171 4.13809,0.99331 -4.41633,6.80245 -18.2344,12.38245 -40.90361,24.5574 -68.73608,36.92157 -4.85087,2.15488 -8.9601,3.91402 -9.12574,3.91402 -0.1657,0 0.37575,-2.46057 1.19301,-5.48381 6.7424,-24.94123 10.54708,-50.11594 10.65364,-70.30588 0.0528,-9.98517 0.0555,-10.03807 1.00467,-10.27692 0.0445,-0.0112 0.11045,-0.0208 0.16745,-0.0209 z m -13.87696,5.29545 c 0.59745,0.60014 0.16483,22.97565 -0.56509,29.0726 -1.7512,14.62678 -4.61304,28.15457 -9.18857,43.53564 -1.09334,3.67531 -2.11824,6.8435 -2.2814,7.03268 -0.39745,0.46078 -14.07996,-12.87072 -18.6283,-18.14683 -7.77131,-9.01483 -13.91915,-17.9699 -18.39796,-26.79116 -2.27631,-4.48349 -5.90618,-13.33805 -5.56754,-13.58396 1.53714,-1.11625 54.25332,-21.49615 54.62886,-21.11897 z m -65.36622,25.76556 c 0.12304,0.0123 0.21861,0.0457 0.27206,0.10465 0.19732,0.2174 0.89409,1.84262 1.54887,3.621 3.18701,8.65635 10.35364,21.51606 16.57703,29.74238 6.79451,8.98129 15.65307,18.55091 23.06552,24.90741 2.38006,2.04101 4.60058,3.94598 4.91872,4.22798 0.63469,0.56261 0.84808,0.46722 -15.46774,6.65593 -18.90941,7.17244 -39.50324,14.35475 -63.14758,21.99806 -9.01047,2.91269 -16.63651,5.37392 -16.93289,5.48382 -0.90065,0.33395 -0.62443,-0.22068 2.00934,-4.33264 11.74846,-18.3418 29.5459,-54.22153 39.496,-79.59906 1.72589,-4.40154 3.36832,-8.80985 3.66289,-9.79552 0.43275,-1.448 0.85919,-1.94051 2.21864,-2.55353 0.75197,-0.33911 1.40989,-0.49735 1.77914,-0.46048 z m -20.03062,8.26759 c 0.26617,0.23414 -4.80586,10.9457 -9.79552,20.67943 -9.67797,18.87958 -20.34802,37.45869 -34.51459,60.13361 -2.44429,3.91242 -4.69682,7.48919 -5.00238,7.93269 -0.50313,0.73036 -0.70936,0.48967 -2.2605,-2.59539 -3.39136,-6.74515 -6.2327,-15.25552 -7.70246,-23.17017 -1.45456,-7.8331 -1.20714,-21.39417 0.5442,-29.80517 1.30111,-6.24889 1.24371,-6.11077 4.18612,-7.61874 12.72165,-6.51994 54.13081,-25.92074 54.54513,-25.55626 z m 172.53089,7.01175 0,4.24891 c -0.0214,22.31631 -2.40351,52.86892 -5.86057,75.16178 -0.60662,3.91204 -1.13193,7.13954 -1.17211,7.17919 -0.0399,0.0395 -2.85983,-0.78685 -6.25822,-1.84189 -15.01651,-4.6618 -31.29677,-11.6262 -45.98456,-19.67476 -9.7266,-5.33 -23.7947,-13.96405 -23.40034,-14.35839 0.10717,-0.10722 4.25062,-2.30294 9.20947,-4.87683 19.6404,-10.19451 38.40192,-21.18544 54.71251,-32.08661 6.11971,-4.09005 15.27646,-10.71038 17.30964,-12.49557 l 1.44418,-1.25583 z m -248.06945,29.57493 c 0.40776,-0.0196 0.30422,0.75423 -0.33489,4.43729 -0.44433,2.56146 -0.9466,7.40004 -1.13018,10.7374 -0.80454,14.62803 1.56768,25.42028 8.83264,40.18674 2.01986,4.10553 3.59993,7.52788 3.51634,7.59781 -0.72738,0.60887 -66.88032,19.96701 -87.67824,25.66091 -6.16505,1.68785 -11.55335,3.17468 -11.9932,3.30704 -0.72168,0.21724 -0.78598,0.0601 -0.5233,-1.63259 2.27799,-14.67589 13.47301,-33.93791 29.11443,-50.10785 10.39893,-10.75028 18.72529,-17.11825 32.88201,-25.20044 10.16014,-5.80048 25.93974,-14.50561 27.10515,-14.94445 0.0783,-0.0295 0.15104,-0.039 0.20924,-0.0419 z m 156.03764,27.94235 c 0.0628,-0.0752 2.51368,1.2368 5.44196,2.93028 21.36749,12.35737 51.18459,23.94792 76.60598,29.76331 l 2.30237,0.52327 -3.16049,1.75817 c -13.27957,7.36881 -57.0128,25.56519 -101.68091,42.32167 -6.52063,2.44614 -12.88327,4.84452 -14.12812,5.3373 -1.24485,0.49277 -2.2605,0.83065 -2.2605,0.73257 0,-0.0981 1.84243,-3.64405 4.1024,-7.8699 12.53953,-23.44641 25.05657,-51.93851 31.47962,-71.70823 0.65484,-2.01549 1.23473,-3.71321 1.29769,-3.78844 z m -15.90725,5.21172 c 0.0686,0.0686 -0.71258,2.16894 -1.73728,4.64659 -8.71744,21.07977 -20.13898,44.07627 -34.70286,69.9082 -3.70629,6.57395 -6.83047,11.94122 -6.94896,11.93044 -0.11862,-0.0108 -3.13302,-1.79443 -6.69779,-3.97681 -21.21318,-12.9868 -39.98213,-28.97251 -52.3056,-44.51938 l -1.75817,-2.19772 9.14664,-2.51167 c 32.62555,-8.93767 60.29345,-18.49568 87.80389,-30.34937 3.8955,-1.67848 7.13161,-2.99883 7.20013,-2.93028 z m 98.81332,34.49363 c 0.0469,0.01 0.0628,0.0426 0.0628,0.0837 0,2.22372 -5.04658,22.80235 -9.25132,37.696 -3.52706,12.49334 -6.48795,22.26528 -11.9723,39.57976 -2.42219,7.64702 -4.50166,13.88841 -4.6257,13.85606 -0.12398,-0.0323 -0.70488,-0.1439 -1.29763,-0.25117 -29.71937,-5.37841 -56.33827,-12.87864 -81.27354,-22.89807 -6.97609,-2.80315 -17.04984,-7.26544 -17.58171,-7.78618 -0.18017,-0.17646 5.84389,-3.01436 13.37469,-6.30011 45.54156,-19.87009 92.7275,-42.49814 108.86,-52.20091 1.94035,-1.16701 3.37683,-1.84667 3.70469,-1.7791 z m -228.10159,7.80711 c 0.2442,0.23133 -12.49486,18.4671 -30.28661,43.3682 -6.18387,8.65476 -13.44816,18.85582 -16.13752,22.66783 -2.68937,3.81203 -6.75754,9.84571 -9.06292,13.41652 l -4.20702,6.48848 -4.47921,-3.7675 c -5.25569,-4.41283 -14.45517,-13.78206 -18.62817,-18.98406 -8.5875,-10.7047 -14.40634,-21.97023 -16.70268,-32.31684 -1.06013,-4.77661 -1.09134,-7.21066 -0.0837,-7.51408 1.4563,-0.43858 28.17205,-6.72799 53.22654,-12.53743 13.91701,-3.22699 30.00678,-7.00436 35.77036,-8.39317 5.76372,-1.38878 10.53462,-2.48127 10.59095,-2.42795 z m 12.80952,4.89776 3.22325,3.60006 c 14.41063,16.05315 29.06627,28.03245 46.94736,38.36579 3.15707,1.82441 5.56326,3.41056 5.35824,3.53727 -0.74426,0.46 -61.83334,22.18032 -90.0853,32.02381 -15.9331,5.55138 -29.02126,10.07794 -29.09353,10.06762 -0.0723,-0.0106 -0.97479,-0.60081 -1.98837,-1.31863 l -1.84189,-1.31863 2.88835,-4.16518 c 9.37383,-13.57822 21.15136,-28.51041 46.92647,-59.52662 l 17.66542,-21.26549 z m 79.82924,57.05681 c 0.0707,-0.0882 4.53708,1.49528 9.94207,3.51634 13.0284,4.87154 23.25352,8.04885 37.08901,11.51183 16.99337,4.25336 41.55116,8.5067 56.09401,9.73272 2.23257,0.18819 3.3722,0.44297 3.014,0.66978 -0.67513,0.42754 -15.40023,5.34585 -26.226,8.74899 -17.18459,5.402 -69.70184,20.91648 -112.5229,33.23779 -7.94351,2.28564 -14.73534,4.2168 -15.09099,4.29078 -0.95912,0.19948 -4.3117,-0.68047 -4.3117,-1.13026 0,-0.21379 2.40109,-3.25252 5.31637,-6.73965 14.39308,-17.21623 28.69146,-36.44489 40.62632,-54.62886 3.2643,-4.97354 5.99921,-9.12129 6.06981,-9.20946 z m -17.68632,0.50233 c 0.12879,0.12882 -6.96618,11.48947 -19.4445,31.14473 -5.26881,8.29909 -11.24331,17.74618 -13.29096,20.99339 -2.04758,3.24725 -5.04799,8.18192 -6.65593,10.98857 l -2.93028,5.10706 -1.48604,-0.39768 c -3.5858,-0.9708 -28.87947,-9.90623 -35.56112,-12.55836 -8.28115,-3.28696 -16.91132,-7.25644 -23.27483,-10.69553 -7.95208,-4.29764 -18.03755,-10.6749 -17.24681,-10.92578 0.22766,-0.0722 13.91165,-3.81738 30.39123,-8.30944 43.83966,-11.94992 68.08908,-18.815 83.99446,-23.77716 2.97194,-0.92717 5.44784,-1.62666 5.50478,-1.5698 z m 124.51609,29.19819 c 0.0944,-0.0205 0.13817,-0.0209 0.14655,0 0.41466,1.03688 -15.8149,45.98847 -21.74693,60.23826 -1.32857,3.19176 -1.82019,3.96509 -2.51167,3.93495 -1.67907,-0.0733 -25.21156,-3.3635 -39.45414,-5.52568 -24.9328,-3.78505 -66.6954,-11.07791 -77.23391,-13.4793 l -2.44891,-0.5442 14.94451,-3.36982 c 32.03205,-7.21707 47.41561,-11.0878 63.022,-15.8654 19.68246,-6.02544 39.17203,-13.53787 58.85684,-22.68877 3.11213,-1.44671 5.76479,-2.5564 6.42566,-2.70004 z"
           id="path3639" />
        <path
           style="fill:url(#linearGradient2848);fill-opacity:1"
           d="m 332.64704,153.47532 c -2.21329,-0.2584 -37.73187,12.5384 -60.55222,21.80969 -30.92132,12.56253 -54.92967,24.5993 -69.74075,34.99596 -5.51288,3.86977 -12.44517,10.82962 -13.45838,13.50023 -0.37916,0.99939 -0.55705,2.16745 -0.56512,3.36983 l 13.43744,12.68394 31.8773,10.17227 75.93621,13.56303 86.79919,14.92352 0.87908,-7.4513 c -0.2626,-0.0414 -0.51109,-0.0842 -0.77443,-0.12558 l -11.42811,-1.80003 -2.32329,-4.08147 c -11.79701,-20.81606 -24.83366,-46.57511 -32.40057,-64.00577 -5.86027,-13.49938 -11.48771,-29.05026 -14.60955,-40.31233 -1.8541,-6.68868 -2.04712,-7.12176 -3.0768,-7.24199 z m -1.67445,5.14893 c 0.0883,-0.0159 0.13275,-0.0165 0.14651,0 0.0701,0.0839 0.47344,2.87583 0.87909,6.19546 1.70838,13.98057 4.83676,27.53945 9.73273,42.13329 3.68933,10.99713 3.74223,10.35122 -0.64885,9.12574 -10.20664,-2.84851 -55.93699,-10.69829 -89.01783,-15.27933 -5.3303,-0.73814 -9.76678,-1.39454 -9.83739,-1.46515 -0.42002,-0.42002 23.85716,-13.1396 34.61921,-18.14682 13.80301,-6.42205 51.38994,-22.07103 54.12653,-22.56319 z m -96.3854,44.77055 3.87216,1.31863 c 21.23855,7.22952 74.474,17.39861 103.89948,19.8422 3.31964,0.27568 6.11084,0.57143 6.19546,0.64885 0.0846,0.0774 -2.73544,1.58422 -6.25825,3.3489 -14.19511,7.11074 -29.8186,15.77776 -40.62629,22.54225 -3.17389,1.98653 -6.08469,3.58875 -6.46755,3.5582 -0.38286,-0.0305 -2.47593,-0.36679 -4.66753,-0.73257 l -3.99774,-0.64884 -10.04669,-9.75366 c -17.63706,-17.07029 -31.40719,-30.2763 -36.7332,-35.26806 l -5.16985,-4.8559 z m -3.93496,3.13959 14.06537,17.56077 c 7.74292,9.65889 15.50294,19.24456 17.22588,21.30735 1.72293,2.0628 3.05584,3.81094 2.97214,3.87216 -0.39911,0.29195 -20.38542,-3.5993 -30.97728,-6.02801 -10.87353,-2.49331 -15.37086,-3.68678 -22.10271,-5.83964 l -5.48382,-1.75817 0.0209,-1.36049 c 0.0697,-6.74572 8.57225,-16.69555 23.00272,-26.87488 l 1.27677,-0.87909 z m 119.78582,23.92367 c 0.42188,0.0326 0.8674,0.89008 2.11399,3.621 3.41149,7.47361 14.0307,27.72893 16.59796,31.64706 0.84547,1.29036 2.18584,1.37673 -11.90951,-0.90001 -33.87492,-5.47162 -44.83374,-7.3032 -44.83334,-7.51409 2.4e-4,-0.12853 1.01589,-0.79393 2.2605,-1.48607 10.49029,-5.8337 21.07471,-13.17639 30.49588,-21.11898 2.25261,-1.89907 4.4172,-3.70835 4.81404,-4.0396 0.16319,-0.13622 0.31985,-0.22016 0.46048,-0.20931 z"
           id="path3667" />
        <path
           sodipodi:nodetypes="cscsssccsscccsssscscccssssssssccssssssssssccsscccsssccsssssssccsssssssccscccssssccsssssssccssssssssssccsssssssssccsssssssccsscccssscccscccssscccsssssssccsssssssccscccssssssccssssssc"
           id="path2851"
           d="m 189.49624,222.43029 c 0,0 -2.19802,3.48486 -0.12559,8.66526 1.28236,3.20557 5.13312,7.05619 9.37691,11.13508 0,0 44.4523,43.36164 49.89855,49.64738 24.62938,28.42583 35.32656,56.41067 36.31462,95.04581 0.63401,24.79275 -4.14775,46.58763 -15.76078,71.91753 -20.81466,45.40038 -64.672,95.4667 -132.40696,151.13988 l 9.94207,-3.28613 c 6.39049,-4.78745 15.06889,-9.90061 35.54015,-21.09805 47.14502,-25.7875 100.08704,-49.50759 165.12146,-73.94776 93.56794,-35.16314 247.48095,-76.42006 335.05701,-89.83413 l 9.12574,-1.40238 -1.40235,-2.19768 c -8.00773,-12.44678 -13.47363,-20.12184 -20.05151,-28.25631 -19.20861,-23.75425 -42.46295,-43.13612 -70.95473,-59.08711 -39.15285,-21.91946 -89.93571,-38.95523 -154.13289,-51.71947 -12.13647,-2.41309 -38.71491,-6.96926 -60.34295,-10.33972 -45.8141,-7.13958 -75.36328,-11.96085 -108.00188,-17.64453 -11.70198,-2.03037 -29.17404,-4.96447 -40.77281,-7.47219 -6.04368,-1.30667 -17.52946,-4.02262 -26.45627,-7.0955 -7.36978,-2.90169 -17.74774,-5.70666 -19.96779,-14.16998 z m 25.7656,25.01203 c 0.0623,-0.0563 1.73198,0.4602 3.7675,1.15121 3.75137,1.27345 8.70164,2.76425 14.46301,4.37446 4.03609,1.12805 8.47385,2.31161 13.18628,3.51634 6.01455,1.53768 10.98779,2.85882 11.05135,2.93029 0.66583,0.74868 10.76717,32.98709 14.21191,45.35664 1.31478,4.7212 2.31282,8.65475 2.21865,8.74899 -0.0942,0.0942 -1.21478,-1.64411 -2.46981,-3.85123 -11.68618,-20.55124 -30.19298,-41.45042 -51.59396,-58.27079 -2.66753,-2.09661 -4.83493,-3.87661 -4.83493,-3.95591 z m 49.24966,13.60488 c 0.51479,-0.0355 2.73384,0.33597 5.3792,0.92095 17.04192,3.76871 47.4716,9.64348 67.04067,12.93511 3.26035,0.54842 5.94429,1.13903 5.94429,1.31866 0,0.17957 -1.21806,0.94995 -2.70002,1.69535 -3.28339,1.6516 -16.56913,9.60416 -21.01432,12.57932 -11.0969,7.42711 -21.07399,15.37699 -28.34003,22.60504 -2.91997,2.9047 -5.36345,5.27452 -5.44195,5.27452 -0.0785,0 -0.58901,-1.69274 -1.13025,-3.76751 -3.63262,-13.92431 -11.14339,-34.48572 -17.87474,-48.9567 -1.08323,-2.32862 -1.96747,-4.3823 -1.96747,-4.56287 0,-0.0228 0.0308,-0.0368 0.10462,-0.0415 z m 86.63178,16.47242 c 0.57031,0.19008 1.64819,3.55391 3.5582,11.11411 3.65733,14.47668 5.36011,30.73456 4.79307,45.77525 -0.1578,4.18565 -0.4225,8.07258 -0.58606,8.64431 l -0.31392,1.04653 -5.16989,-1.67445 c -10.65733,-3.40656 -28.06998,-8.53352 -42.99145,-12.66298 -8.47693,-2.34597 -15.42582,-4.44037 -15.42582,-4.64659 0,-0.61968 12.36922,-12.98581 17.68632,-17.68639 10.15647,-8.97872 37.48084,-30.23269 38.44955,-29.90979 z m 6.88613,0.9837 c 0.30843,-0.287 41.39844,6.82807 60.07081,10.40254 13.91808,2.66432 34.05452,6.88145 35.2681,7.38847 0.58585,0.24481 -1.49803,1.38042 -8.1839,4.39543 -26.44563,11.92582 -46.0374,22.56968 -65.51277,35.60298 -5.12991,3.43302 -9.39292,6.23732 -9.48153,6.23732 -0.0887,0 -0.16477,-2.86545 -0.16744,-6.36291 -0.0134,-18.99205 -3.80509,-38.1614 -10.75833,-54.35679 -0.74835,-1.7429 -1.30989,-3.23725 -1.23494,-3.30704 z m 106.24372,21.01432 c 0.31814,0.31822 -1.02959,8.42094 -2.19768,13.20724 -3.6357,14.89676 -13.26987,37.00704 -25.15858,57.78935 -2.09501,3.66215 -3.96878,6.71554 -4.18612,6.78151 -0.21741,0.0663 -2.92459,-1.3575 -6.00712,-3.16048 -11.62542,-6.79973 -24.78873,-13.23236 -39.24484,-19.19339 -4.03099,-1.66219 -7.46415,-3.14227 -7.6397,-3.30704 -0.65926,-0.61854 31.46482,-21.88711 48.49623,-32.10754 13.6223,-8.17465 35.55556,-20.39189 35.93781,-20.00965 z m 7.59784,1.19308 c 0.92509,0 19.14786,4.96815 28.57023,7.78618 23.4703,7.01942 50.54446,16.90985 68.10817,24.88645 l 7.30478,3.30704 -5.14893,1.19307 c -42.97491,9.87268 -79.80901,21.26536 -115.2857,35.66574 -2.9479,1.19656 -5.51316,2.17678 -5.69313,2.17678 -0.18003,0 0.76081,-2.27905 2.0721,-5.0652 10.66409,-22.65816 17.55183,-46.43378 19.33987,-66.62213 0.16276,-1.8376 0.4945,-3.32793 0.73261,-3.32793 z m -181.1334,41.63093 c 0.29102,-0.28747 14.16081,2.96223 21.72596,5.08617 11.37077,3.19236 35.56681,11.28879 35.58202,11.90947 0,0.12076 -2.66659,2.44523 -5.9234,5.16989 -13.08138,10.94419 -25.69962,22.3873 -40.81466,36.98434 -4.48096,4.32737 -8.28865,7.849 -8.47686,7.849 -0.18821,0 -0.27186,-0.63173 -0.16744,-1.40238 2.27631,-16.80322 1.7873,-38.37962 -1.38142,-60.34288 -0.40167,-2.78407 -0.64507,-5.15402 -0.5442,-5.25361 z m 292.06554,0.27213 c 0.20802,0.20803 -6.43495,10.59088 -10.56996,16.51421 -6.03345,8.64276 -14.77874,19.98909 -34.70293,45.04264 -10.46568,13.16002 -22.27043,28.05256 -26.24697,33.09131 -3.97649,5.03875 -7.31355,9.1676 -7.40943,9.1676 -0.0958,0 -1.37838,-1.80445 -2.84656,-3.99777 -11.23161,-16.77898 -24.55927,-31.51787 -40.45882,-44.74962 -2.96712,-2.46921 -6.31454,-5.17713 -7.43039,-6.00705 -1.11579,-0.82992 -2.02555,-1.59776 -2.03024,-1.71631 -0.0107,-0.27354 16.97,-7.55631 29.93073,-12.83049 22.56343,-9.1818 53.40235,-20.17643 76.4804,-27.25164 12.16983,-3.731 25.09935,-7.44774 25.28417,-7.26288 z m 7.66059,2.00934 c 0.36443,-0.0743 2.78649,1.09783 5.69313,2.76283 24.30567,13.9231 48.12312,31.80286 66.85233,50.19158 5.32753,5.23064 18.36133,18.78851 18.16776,18.90029 -0.0496,0.0288 -4.55114,0.38526 -10.00483,0.79537 -42.11909,3.16765 -95.9679,12.12762 -147.81188,24.59348 -3.5211,0.8466 -6.56494,1.54887 -6.76058,1.54887 -0.19569,0 3.65828,-3.86858 8.56061,-8.58155 30.44591,-29.27002 44.33563,-47.75183 60.6778,-80.77121 2.43394,-4.91772 4.49766,-9.1603 4.5838,-9.41877 0.005,-0.0161 0.0176,-0.0161 0.0419,-0.0208 z m -222.61781,22.81435 c 1.39073,0.31211 14.3752,6.35392 24.17481,11.26066 8.96171,4.48718 22.53499,11.71377 23.21207,12.34905 0.085,0.0798 -4.69643,2.57657 -10.63275,5.54658 -18.79353,9.40256 -34.89134,18.28202 -51.69857,28.54933 -4.79281,2.92787 -8.81001,5.33734 -8.9374,5.33734 -0.41928,0 -0.25405,-0.36249 2.42795,-5.27451 8.95032,-16.39245 16.17014,-35.96413 20.32364,-55.08934 0.37072,-1.70706 0.8168,-2.74944 1.13025,-2.67911 z m -13.08165,2.34422 c 0.27106,0.27106 -3.09834,12.64697 -5.23265,19.25615 -4.09356,12.67624 -11.01506,28.61129 -17.66543,40.60536 -1.56186,2.81683 -3.95826,6.94005 -5.31637,9.16761 l -2.46981,4.03957 -5.6094,-5.42099 c -6.51822,-6.3191 -11.8277,-10.2432 -18.60727,-13.73048 -2.66471,-1.37063 -4.83165,-2.63919 -4.835,-2.82566 -0.0127,-0.82436 17.05298,-16.34402 30.22378,-27.48184 9.42775,-7.97252 29.27116,-23.8507 29.51215,-23.60972 z m 79.49441,32.6936 4.87686,3.16048 c 11.18772,7.26376 24.43495,17.0353 34.53549,25.45161 5.66023,4.71652 16.66073,14.56689 18.92123,16.95379 l 1.21398,1.2768 -8.10015,2.2605 c -45.81343,12.711 -81.20818,24.02665 -122.50676,39.20298 -4.5833,1.68429 -8.54082,3.07683 -8.81181,3.07683 -0.56972,0 -1.13595,0.5237 9.1676,-8.9583 26.41535,-24.3091 49.75019,-51.09249 67.18722,-77.15018 l 3.51634,-5.27451 z m -20.88874,5.23265 c 0.23931,0.23931 -13.53845,19.53585 -21.72596,30.43309 -9.79532,13.03718 -27.24126,34.83112 -39.24484,49.01946 -5.01517,5.92788 -9.31167,10.84673 -9.54435,10.92577 -0.25525,0.0867 -0.41392,-1.36548 -0.41861,-3.66289 -0.0234,-12.10619 -3.08614,-25.04478 -8.49783,-36.00063 -2.28575,-4.62744 -2.66873,-5.74744 -2.19774,-6.17449 1.88342,-1.70754 31.02524,-18.32389 49.39621,-28.17259 12.61891,-6.76503 31.99307,-16.60777 32.23312,-16.36772 z m -126.33709,30.95632 c 0.2503,0 2.58796,1.17446 5.19079,2.61636 6.37804,3.53321 12.10807,7.42075 17.16309,11.63741 0.19504,0.16269 -2.42259,2.30096 -5.81871,4.75121 -9.47945,6.83932 -23.91439,17.73368 -32.27498,24.38418 -8.82079,7.01654 -9.11335,7.23167 -8.12107,5.71402 6.60583,-10.10288 9.92713,-15.82286 13.39558,-23.12828 3.08333,-6.49424 6.15621,-14.2034 8.35134,-20.9097 0.91191,-2.78608 1.86367,-5.0652 2.11396,-5.0652 z m 33.6564,26.41441 c 0.45539,-0.0563 1.10346,0.79175 3.80937,4.835 5.70277,8.52113 10.06986,19.88474 11.1979,29.1354 l 0.23021,1.98837 -13.66765,5.29547 c -24.53414,9.52085 -47.11769,18.90539 -62.37318,25.89112 -4.2681,1.95442 -11.80338,5.55455 -16.72358,8.01645 -4.92013,2.46184 -8.93733,4.3967 -8.93733,4.29074 0,-0.10589 3.08982,-2.42902 6.86523,-5.16982 29.9406,-21.73594 55.7553,-45.53279 75.20361,-69.32214 2.08,-2.54429 3.96918,-4.75075 4.20708,-4.89776 0.063,-0.0389 0.12331,-0.0549 0.18834,-0.063 z m -15.5305,3.85123 c 0.39604,0.39604 -11.04714,13.33711 -18.75382,21.20273 -19.2889,19.68682 -38.41143,35.12141 -62.10105,50.14971 -2.96397,1.88027 -5.67236,3.58037 -6.02801,3.78841 -0.65029,0.38037 0.21024,-0.59758 10.61178,-11.93044 6.55473,-7.14159 11.57171,-13.07014 17.26778,-20.47013 3.75116,-4.87324 4.46763,-5.55689 9.96296,-9.52339 14.80266,-10.68458 48.64666,-33.61058 49.04036,-33.21689 z"
           style="fill:url(#radialGradient2845);fill-opacity:1" />
      </g>
      <g
         transform="matrix(1.8380709,0,0,1.8380709,2496.9186,575.45866)"
         id="g3525">
        <path
           id="path168"
           style="fill:#231f1f;fill-opacity:1;fill-rule:nonzero;stroke:none"
           d="m -581.56497,29.915738 -1.97073,0 0,6.1202 -0.80331,0 0,-6.1202 -1.9765,0 0,-0.722398 4.75054,0" />
        <path
           id="path170"
           style="fill:#231f1f;fill-opacity:1;fill-rule:nonzero;stroke:none"
           d="m -573.50294,36.035938 -0.80331,0 0,-4.600273 c 0,-0.358291 0.0244,-0.80331 0.0693,-1.323426 l -0.0244,0 c -0.0752,0.306381 -0.13857,0.525896 -0.20228,0.664603 l -2.33483,5.259096 -0.39297,0 -2.34061,-5.224419 c -0.0637,-0.144487 -0.133,-0.381444 -0.20228,-0.69928 l -0.0174,0 c 0.0244,0.271565 0.0348,0.716618 0.0348,1.334985 l 0,4.588714 -0.77445,0 0,-6.848377 1.06338,0 2.09788,4.779402 c 0.16189,0.358326 0.26599,0.62996 0.31195,0.820647 l 0.0348,0 c 0.13857,-0.375629 0.24859,-0.658823 0.32936,-0.843765 l 2.14411,-4.756284 1.00559,0" />
      </g>
    </g>
  </g>
</svg>
