<?xml version="1.0" encoding="utf-8"?>
<!-- Generator: Adobe Illustrator 19.1.0, SVG Export Plug-In . SVG Version: 6.00 Build 0)  -->
<svg version="1.1" id="Layer_1" xmlns="http://www.w3.org/2000/svg" xmlns:xlink="http://www.w3.org/1999/xlink" x="0px" y="0px"
	 width="150px" height="150px" viewBox="0 0 150 150" style="enable-background:new 0 0 150 150;" xml:space="preserve">
<style type="text/css">
	.st0{fill:#666666;}
</style>
<polygon class="st0" points="44,0 150,106 150,99.9 50.1,0 "/>
<polygon class="st0" points="0,10.6 139.4,150 140.8,150 0,9.2 "/>
<polygon class="st0" points="26.6,0 150,123.4 150,119.6 30.4,0 "/>
<polygon class="st0" points="0,30.4 119.6,150 123.4,150 0,26.6 "/>
<polygon class="st0" points="9.2,0 150,140.8 150,139.4 10.6,0 "/>
<polygon class="st0" points="0,109.5 40.5,150 53.7,150 0,96.3 "/>
<polygon class="st0" points="0,129.3 20.7,150 36.3,150 0,113.7 "/>
<polygon class="st0" points="0,89.8 60.2,150 71.1,150 0,78.9 "/>
<polygon class="st0" points="0,70 80,150 88.6,150 0,61.4 "/>
<polygon class="st0" points="0,50.2 99.8,150 106,150 0,44 "/>
<polygon class="st0" points="0,150 18.9,150 0,131.1 "/>
<polygon class="st0" points="150,0 131.1,0 150,18.9 "/>
<polygon class="st0" points="129.3,0 113.6,0 150,36.4 150,20.7 "/>
<polygon class="st0" points="78.8,0 150,71.2 150,60.3 89.7,0 "/>
<polygon class="st0" points="61.4,0 150,88.6 150,80.1 69.9,0 "/>
<polygon class="st0" points="96.2,0 150,53.8 150,40.5 109.5,0 "/>
</svg>
