<svg width="47" height="47" viewBox="0 0 47 47" fill="none" xmlns="http://www.w3.org/2000/svg">
<rect width="47" height="47" rx="4" fill="#CCCCDC" fill-opacity="0.14"/>
<path d="M23.5 9C23.5 9 14 18.5 14 26C14 31.2467 18.2533 35.5 23.5 35.5C28.7467 35.5 33 31.2467 33 26C33 18.5 23.5 9Z" fill="url(#paint0_linear_asserts)"/>
<path d="M23.5 16C23.5 16 18 22.5 18 26.5C18 29.5376 20.4624 32 23.5 32C26.5376 32 29 29.5376 29 26.5C29 22.5 23.5 16Z" fill="#1A1A2E" fill-opacity="0.3"/>
<circle cx="23.5" cy="26.5" r="3.5" fill="url(#paint1_linear_asserts)"/>
<defs>
<linearGradient id="paint0_linear_asserts" x1="23.5" y1="9" x2="23.5" y2="35.5" gradientUnits="userSpaceOnUse">
<stop stop-color="#F55F3E"/>
<stop offset="1" stop-color="#FF8833"/>
</linearGradient>
<linearGradient id="paint1_linear_asserts" x1="23.5" y1="23" x2="23.5" y2="30" gradientUnits="userSpaceOnUse">
<stop stop-color="#FF8833"/>
<stop offset="1" stop-color="#F55F3E"/>
</linearGradient>
</defs>
</svg>
