<?xml version="1.0" encoding="utf-8"?>
<!-- Generator: Adobe Illustrator 22.1.0, SVG Export Plug-In . SVG Version: 6.00 Build 0)  -->
<svg version="1.1" id="Layer_1" xmlns="http://www.w3.org/2000/svg" xmlns:xlink="http://www.w3.org/1999/xlink" x="0px" y="0px"
	 viewBox="0 0 76 32" style="enable-background:new 0 0 76 32;" xml:space="preserve">
<style type="text/css">
	.st0{fill:#FE5000;}
	.st1{fill:#424143;}
</style>
<path id="Fill-1" class="st0" d="M2.71,31.86c-1.29,0-2.61-1-2.61-2.92v-4.49c0-1.78,1.16-3.81,2.69-4.71l6.27-3.71L2.79,12.3
	c-1.53-0.91-2.67-2.93-2.67-4.71V3.04c0-1.89,1.31-2.9,2.59-2.9c0.55,0,1.12,0.17,1.67,0.49l14.16,8.43
	c0.99,0.58,1.56,1.49,1.56,2.48s-0.57,1.89-1.55,2.48l-3.39,2.01l3.39,2.01c0.98,0.59,1.55,1.5,1.55,2.48s-0.57,1.89-1.55,2.48
	L4.38,31.38C3.81,31.68,3.26,31.86,2.71,31.86z M12.1,17.81l-7.73,4.58c-0.59,0.34-1.16,1.36-1.16,2.04v4.01l13.41-7.95L12.1,17.81z
	 M3.22,3.55V7.6c0,0.68,0.57,1.69,1.16,2.04l7.72,4.59l4.53-2.69L3.22,3.55z"/>
<path class="st1" d="M30.55,25.89h-3.86V5.78h3.86v7.42c0.62-0.74,1.99-1.46,3.47-1.46c4.01,0,6.29,3.28,6.29,7.23
	s-2.25,7.21-6.29,7.21c-1.48,0-2.84-0.72-3.47-1.46C30.55,24.72,30.55,25.89,30.55,25.89z M30.55,21.25
	c0.44,0.97,1.46,1.61,2.59,1.61c2.06,0,3.31-1.67,3.31-3.86c0-2.23-1.23-3.9-3.31-3.9c-1.12,0-2.18,0.68-2.59,1.61V21.25z
	 M57.11,11.77c2.84,0,4.54,1.99,4.54,5.11v9.01h-3.84v-8.24c0-1.5-0.64-2.48-1.97-2.48c-0.98,0-1.89,0.62-2.14,1.8v8.92h-3.86v-8.24
	c0-1.5-0.61-2.48-1.95-2.48c-0.98,0-1.91,0.62-2.18,1.8v8.92h-3.82V12.07h3.84v1.14c0.68-0.87,1.95-1.46,3.5-1.46
	c1.63,0,2.93,0.74,3.71,1.76C53.84,12.54,55.16,11.77,57.11,11.77 M69.84,11.77c3.47,0,5.66,2.04,6.06,4.98h-3.77
	c-0.23-1.04-1.04-1.7-2.29-1.7c-1.76,0-2.84,1.61-2.84,3.96c0,2.31,1.08,3.94,2.84,3.94c1.25,0,2.06-0.64,2.29-1.7h3.77
	c-0.4,2.97-2.59,4.98-6.06,4.98c-3.92,0-6.65-2.93-6.65-7.21C63.17,14.7,65.9,11.77,69.84,11.77"/>
</svg>
