<?xml version="1.0" encoding="UTF-8"?>
<svg width="134px" height="34px" viewBox="0 0 134 34" version="1.1" xmlns="http://www.w3.org/2000/svg" xmlns:xlink="http://www.w3.org/1999/xlink">
    <!-- Generator: Sketch 63.1 (92452) - https://sketch.com -->
    <title>BMC Helix Dashboards</title>
    <desc>Created with Sketch.</desc>
    <g id="Page-1" stroke="none" stroke-width="1" fill="none" fill-rule="evenodd">
        <g id="BMC-Dashboards-light" fill-rule="nonzero">
            <g id="bmc_helix_light">
                <path d="M2.61,31.72 C1.32,31.72 0,30.72 0,28.8 L0,24.31 C0,22.53 1.16,20.5 2.69,19.6 L8.96,15.89 L2.69,12.16 C1.16,11.25 0.02,9.23 0.02,7.45 L0.02,2.9 C0.02,1.01 1.33,0 2.61,0 C3.16,0 3.73,0.17 4.28,0.49 L18.44,8.92 C19.43,9.5 20,10.41 20,11.4 C20,12.39 19.43,13.29 18.45,13.88 L15.06,15.89 L18.45,17.9 C19.43,18.49 20,19.4 20,20.38 C20,21.36 19.43,22.27 18.45,22.86 L4.28,31.24 C3.71,31.54 3.16,31.72 2.61,31.72 Z M12,17.67 L4.27,22.25 C3.68,22.59 3.11,23.61 3.11,24.29 L3.11,28.3 L16.52,20.35 L12,17.67 Z M3.12,3.41 L3.12,7.46 C3.12,8.14 3.69,9.15 4.28,9.5 L12,14.09 L16.53,11.4 L3.12,3.41 Z" id="Fill-1" fill="#FE5000"></path>
                <path d="M30.45,25.75 L26.59,25.75 L26.59,5.64 L30.45,5.64 L30.45,13.06 C31.07,12.32 32.44,11.6 33.92,11.6 C37.93,11.6 40.21,14.88 40.21,18.83 C40.21,22.78 37.96,26.04 33.92,26.04 C32.44,26.04 31.08,25.32 30.45,24.58 C30.45,24.58 30.45,25.75 30.45,25.75 Z M30.45,21.11 C30.89,22.08 31.91,22.72 33.04,22.72 C35.1,22.72 36.35,21.05 36.35,18.86 C36.35,16.63 35.12,14.96 33.04,14.96 C31.92,14.96 30.86,15.64 30.45,16.57 L30.45,21.11 Z M57.01,11.63 C59.85,11.63 61.55,13.62 61.55,16.74 L61.55,25.75 L57.71,25.75 L57.71,17.51 C57.71,16.01 57.07,15.03 55.74,15.03 C54.76,15.03 53.85,15.65 53.6,16.83 L53.6,25.75 L49.74,25.75 L49.74,17.51 C49.74,16.01 49.13,15.03 47.79,15.03 C46.81,15.03 45.88,15.65 45.61,16.83 L45.61,25.75 L41.79,25.75 L41.79,11.93 L45.63,11.93 L45.63,13.07 C46.31,12.2 47.58,11.61 49.13,11.61 C50.76,11.61 52.06,12.35 52.84,13.37 C53.74,12.4 55.06,11.63 57.01,11.63 L57.01,11.63 Z M69.74,11.63 C73.21,11.63 75.4,13.67 75.8,16.61 L72.03,16.61 C71.8,15.57 70.99,14.91 69.74,14.91 C67.98,14.91 66.9,16.52 66.9,18.87 C66.9,21.18 67.98,22.81 69.74,22.81 C70.99,22.81 71.8,22.17 72.03,21.11 L75.8,21.11 C75.4,24.08 73.21,26.09 69.74,26.09 C65.82,26.09 63.0897828,23.16 63.0897828,18.88 C63.07,14.56 65.8,11.63 69.74,11.63 L69.74,11.63 Z" id="Shape" fill="#424143"></path>
                <path d="M84.17,13.54 C85.15,12.23 86.54,11.63 88.01,11.63 C91.13,11.63 93.14,13.6 93.14,17.5 L93.14,25.72 L89.3,25.72 L89.3,17.9 C89.3,15.72 88.37,14.74 86.86,14.74 C85.27,14.74 84.11,16.01 84.11,18.64 L84.11,25.74 L80.29,25.74 L80.29,5.6 L84.13,5.6 L84.13,13.53 L84.17,13.53 L84.17,13.54 L84.17,13.54 Z M108.89,25.71 L112.73,25.71 L112.73,5.6 L108.89,5.6 L108.89,25.71 Z M114.65,25.71 L118.49,25.71 L118.49,11.64 L114.65,11.64 L114.65,25.71 Z M114.65,9.32 L118.49,9.32 L118.49,5.66 L114.65,5.66 L114.65,9.32 Z M133.62,25.71 L129.09,25.71 L126.42,20.94 L126.36,20.94 L123.69,25.71 L119.16,25.71 L123.99,18.48 L119.46,11.63 L123.93,11.63 L126.33,15.76 L126.39,15.76 L128.79,11.63 L133.26,11.63 L128.73,18.48 L133.62,25.71 Z M100.98,14.54 L101.04,14.54 C102.4,14.54 103.48,15.52 103.77,16.96 C103.79,17.05 103.81,17.13 103.81,17.23 L98,17.23 C98.02,17.14 98.02,17.06 98.04,16.96 C98.37,15.54 99.52,14.54 100.98,14.54 L100.98,14.54 Z M107.4,16.61 C106.76,13.45 104.28,11.61 101.08,11.61 C96.91,11.61 94.49,14.72 94.49,18.73 C94.49,23.07 96.91,26.06 101.12,26.06 C104.66,26.06 106.8,24.02 107.46,21.06 L103.88,21.06 C103.46,22.56 102.46,23.16 100.98,23.16 C99.41,23.16 97.93,21.89 97.93,19.45 L107.53,19.45 C107.63,18.1 107.53,17.31 107.4,16.61 L107.4,16.61 Z" id="Shape" fill="#49A5E6"></path>
            </g>
        </g>
    </g>
</svg>