<?xml version="1.0" encoding="UTF-8"?>
<svg width="306px" height="140px" viewBox="0 0 306 140" version="1.1" xmlns="http://www.w3.org/2000/svg" xmlns:xlink="http://www.w3.org/1999/xlink">
    <!-- Generator: sketchtool 63.1 (101010) - https://sketch.com -->
    <title>BMC Helix Dashboards - Page not found</title>
    <desc>Created with sketchtool.</desc>
    <g id="Page-1" stroke="none" stroke-width="1" fill="none" fill-rule="evenodd">
        <g id="404" transform="translate(-525.000000, -212.000000)" fill="#3CB6CE" fill-rule="nonzero">
            <path d="M604.145508,348 L604.145508,319.054688 L619.360352,319.054688 L619.360352,298.366211 L604.145508,298.366211 L604.145508,214.313477 L574.458008,214.313477 L525.009766,295.954102 L525.009766,319.054688 L578.261719,319.054688 L578.261719,348 L604.145508,348 Z M578.261719,298.366211 L544.584961,298.366211 L578.261719,240.290039 L578.261719,298.366211 Z M677.993164,351.339844 C695.125326,351.339844 707.139486,345.340495 714.035645,333.341797 C720.931803,321.343099 724.379883,304.241862 724.379883,282.038086 C724.379883,259.83431 720.931803,242.702148 714.035645,230.641602 C707.139486,218.581055 695.125326,212.550781 677.993164,212.550781 C660.861003,212.550781 648.846842,218.581055 641.950684,230.641602 C635.054525,242.702148 631.606445,259.83431 631.606445,282.038086 C631.606445,304.241862 635.054525,321.343099 641.950684,333.341797 C648.846842,345.340495 660.861003,351.339844 677.993164,351.339844 Z M677.993164,329.816406 C670.138346,329.816406 664.943034,325.718913 662.407227,317.523926 C659.871419,309.328939 658.603516,297.500326 658.603516,282.038086 C658.603516,265.833659 659.871419,253.834961 662.407227,246.041992 C664.943034,238.249023 670.138346,234.352539 677.993164,234.352539 C685.847982,234.352539 690.996908,238.249023 693.439941,246.041992 C695.882975,253.834961 697.104492,265.833659 697.104492,282.038086 C697.104492,297.500326 695.882975,309.328939 693.439941,317.523926 C690.996908,325.718913 685.847982,329.816406 677.993164,329.816406 Z M815.483398,348 L815.483398,319.054688 L830.698242,319.054688 L830.698242,298.366211 L815.483398,298.366211 L815.483398,214.313477 L785.795898,214.313477 L736.347656,295.954102 L736.347656,319.054688 L789.599609,319.054688 L789.599609,348 L815.483398,348 Z M789.599609,298.366211 L755.922852,298.366211 L789.599609,240.290039 L789.599609,298.366211 Z"></path>
        </g>
    </g>
</svg>