<?xml version="1.0" encoding="UTF-8"?>
<svg width="191px" height="191px" viewBox="0 0 191 191" version="1.1" xmlns="http://www.w3.org/2000/svg" xmlns:xlink="http://www.w3.org/1999/xlink">
    <!-- Generator: sketchtool 63.1 (101010) - https://sketch.com -->
    <title>BMC Helix Dashboards - Page error</title>
    <desc>Created with sketchtool.</desc>
    <g id="Page-1" stroke="none" stroke-width="1" fill="none" fill-rule="evenodd">
        <g id="Page-with-details-on-it" transform="translate(-587.000000, -163.000000)" fill="#3CB6CE" fill-rule="nonzero">
            <path d="M635.072927,176.378621 C620.647353,184.73027 609.258741,196.118881 600.907093,210.544456 C592.175824,225.22311 587.81019,241.167166 587.81019,258.376623 C587.81019,267.740593 589.138861,276.788212 591.796204,285.519481 C594.453546,294.250749 598.18648,302.349317 602.995005,309.815185 L591.986014,349.485514 L631.656344,338.476523 C639.248751,343.285048 647.284049,347.017982 655.762238,349.675325 C664.620047,352.332667 673.667666,353.661339 682.905095,353.661339 C700.241092,353.661339 716.248418,349.295704 730.927073,340.564436 C745.352647,332.212787 756.741259,320.824176 765.092907,306.398601 C773.697636,291.719947 778,275.744256 778,258.471528 C778,241.198801 773.697636,225.22311 765.092907,210.544456 C756.741259,196.118881 745.352647,184.73027 730.927073,176.378621 C716.501499,167.797892 700.792674,163.433555 683.8006,163.285612 L683,163.282 L682.1994,163.285612 C665.207326,163.433555 649.498501,167.797892 635.072927,176.378621 Z M683.094905,333.921079 C674.363636,333.921079 666.011988,332.529138 658.03996,329.745255 C650.321012,326.961372 643.171495,323.038628 636.591409,317.977023 L619.698302,322.532468 L621.596404,315.31968 C622.861805,310.258075 623.621046,307.031302 623.874126,305.639361 C618.685981,299.059274 614.699967,291.783217 611.916084,283.811189 C609.005661,275.712621 607.55045,267.297702 607.55045,258.566434 C607.55045,244.9001 610.967033,232.182817 617.8002,220.414585 C624.506827,209.025974 633.554446,200.041625 644.943057,193.461538 C656.584749,186.501832 669.270396,183.021978 683,183.021978 C696.729604,183.021978 709.415251,186.501832 721.056943,193.461538 C732.445554,200.041625 741.493173,209.025974 748.1998,220.414585 C755.032967,232.182817 758.44955,244.9001 758.44955,258.566434 C758.44955,272.232767 755.032967,284.88678 748.1998,296.528472 C741.493173,307.917083 732.445554,316.964702 721.056943,323.671329 C709.415251,330.504496 696.761239,333.921079 683.094905,333.921079 Z M691.256743,268.056943 L691.256743,211.873127 L673.414585,211.873127 L673.414585,268.056943 L691.256743,268.056943 Z M691.256743,306.398601 L691.256743,285.899101 L673.414585,285.899101 L673.414585,306.398601 L691.256743,306.398601 Z" id="" transform="translate(682.905095, 258.471669) scale(-1, 1) translate(-682.905095, -258.471669) "></path>
        </g>
    </g>
</svg>