<?xml version="1.0" encoding="UTF-8"?>
<svg width="192px" height="191px" viewBox="0 0 192 191" version="1.1" xmlns="http://www.w3.org/2000/svg" xmlns:xlink="http://www.w3.org/1999/xlink">
    <!-- Generator: sketchtool 63.1 (101010) - https://sketch.com -->
    <title>BMC Helix Dashboards - Application error</title>
    <desc>Created with sketchtool.</desc>
    <g id="Page-1" stroke="none" stroke-width="1" fill="none" fill-rule="evenodd">
        <g id="App-failed-to-load" transform="translate(-587.000000, -163.000000)" fill="#3CB6CE" fill-rule="nonzero">
            <path d="M712.325674,207.317682 C713.464535,207.317682 714.350316,206.969697 714.983017,206.273726 C715.615718,205.577756 715.932068,204.66034 715.932068,203.521479 L715.932068,167.077922 C715.932068,165.939061 715.584083,165.021645 714.888112,164.325674 C714.192141,163.629704 713.30636,163.281718 712.230769,163.281718 C711.155178,163.281718 710.269397,163.629704 709.573427,164.325674 C708.877456,165.021645 708.529471,165.939061 708.529471,167.077922 L708.529471,203.521479 C708.529471,204.66034 708.909091,205.577756 709.668332,206.273726 C710.427572,206.969697 711.313353,207.317682 712.325674,207.317682 Z M626.911089,266.348651 C628.17649,266.348651 629.410256,266.127206 630.612388,265.684316 C631.814519,265.241425 632.82684,264.608725 633.649351,263.786214 C634.471861,262.963703 635.104562,261.983017 635.547453,260.844156 C635.990343,259.705295 636.211788,258.503164 636.211788,257.237762 C636.211788,255.972361 635.990343,254.70696 635.547453,253.441558 C635.104562,252.176157 634.440226,251.227106 633.554446,250.594406 L616.661339,232.562438 C611.220113,227.121212 608.4995,220.31968 608.4995,212.157842 C608.4995,203.996004 611.220113,196.878122 616.661339,190.804196 C619.445221,188.020313 622.608725,185.964036 626.151848,184.635365 C629.694972,183.306693 633.45954,182.642358 637.445554,182.642358 C641.431568,182.642358 645.259407,183.338328 648.929071,184.73027 C652.598735,186.122211 655.888778,188.083583 658.799201,190.614386 L678.15984,209.785215 C682.588745,213.454878 685.404262,218.073593 686.606394,223.641359 C687.808525,229.209124 687.270729,234.9667 684.993007,240.914086 L684.233766,243.001998 L684.043956,243.381618 L696.191808,257.617383 L696.761239,256.668332 C699.924742,251.606727 702.139194,246.323676 703.404595,240.819181 C704.669997,235.314685 705.017982,229.93673 704.448551,224.685315 C703.879121,219.433899 702.423909,214.372294 700.082917,209.5005 C697.741925,204.628705 694.610057,200.357975 690.687313,196.688312 L671.136863,177.327672 C666.454878,172.772228 661.171828,169.292374 655.287712,166.888112 C649.403596,164.483849 643.20313,163.281718 636.686314,163.281718 C630.169497,163.281718 623.874126,164.483849 617.8002,166.888112 C611.979354,169.292374 606.759574,172.740593 602.140859,177.232767 C597.522145,181.724942 593.979021,186.944722 591.511489,192.892108 C589.043956,198.839494 587.81019,205.071595 587.81019,211.588412 C587.81019,218.105228 589.043956,224.368964 591.511489,230.37962 C593.979021,236.390276 597.490509,241.546787 602.045954,245.849151 L620.267732,263.881119 C621.026973,264.64036 622.007659,265.241425 623.20979,265.684316 C624.411921,266.127206 625.645688,266.348651 626.911089,266.348651 Z M730.547453,214.53047 C731.559774,214.53047 732.445554,214.214119 733.204795,213.581419 L762.435564,184.350649 C763.068265,183.464868 763.384615,182.515818 763.384615,181.503497 C763.384615,180.491175 763.03663,179.668665 762.340659,179.035964 C761.644689,178.403263 760.790543,178.086913 759.778222,178.086913 C758.765901,178.086913 757.88012,178.403263 757.120879,179.035964 L727.89011,208.266733 C727.257409,209.025974 726.941059,209.911755 726.941059,210.924076 C726.941059,211.936397 727.289044,212.790543 727.985015,213.486513 C728.680986,214.182484 729.535132,214.53047 730.547453,214.53047 Z M774.393606,232.752248 C775.532468,232.752248 776.449883,232.435897 777.145854,231.803197 C777.841825,231.170496 778.18981,230.284715 778.18981,229.145854 C778.18981,228.006993 777.81019,227.121212 777.050949,226.488511 C776.418248,225.855811 775.532468,225.539461 774.393606,225.539461 L737.95005,225.539461 C736.811189,225.539461 735.925408,225.887446 735.292707,226.583417 C734.660007,227.279387 734.343656,228.165168 734.343656,229.240759 C734.343656,230.31635 734.660007,231.170496 735.292707,231.803197 C735.925408,232.435897 736.811189,232.752248 737.95005,232.752248 L774.393606,232.752248 Z M729.028971,353.661339 C735.229437,353.661339 741.334998,352.490842 747.345654,350.14985 C753.35631,347.808858 759.018981,344.297369 764.333666,339.615385 C768.762571,335.18648 772.179154,329.998335 774.583417,324.050949 C776.987679,318.103563 778.18981,311.713287 778.18981,304.88012 C778.18981,298.046953 776.987679,291.656677 774.583417,285.709291 C772.179154,279.761905 768.699301,274.51049 764.143856,269.955045 L745.922078,251.923077 C745.162837,251.163836 744.213786,250.594406 743.074925,250.214785 C741.936064,249.835165 740.670663,249.645355 739.278721,249.645355 C737.88678,249.645355 736.621379,249.80353 735.482517,250.11988 C734.343656,250.43623 733.331335,251.005661 732.445554,251.828172 C731.559774,252.650683 730.927073,253.663004 730.547453,254.865135 C730.167832,256.067266 729.978022,257.269397 729.978022,258.471528 C729.978022,259.67366 730.199467,260.907426 730.642358,262.172827 C731.085248,263.438228 731.749584,264.51382 732.635365,265.3996 L750.857143,283.241758 C753.261405,285.646021 755.222777,288.682984 756.741259,292.352647 C758.25974,296.022311 759.018981,299.818515 759.018981,303.741259 C759.018981,307.664003 758.354645,311.333666 757.025974,314.75025 C755.697303,318.166833 753.641026,321.203796 750.857143,323.861139 C748.32634,326.391941 745.226107,328.384948 741.556444,329.84016 C737.88678,331.295371 733.964036,332.022977 729.788212,332.022977 C725.612388,332.022977 721.721279,331.295371 718.114885,329.84016 C714.508492,328.384948 711.376623,326.391941 708.719281,323.861139 L690.497502,306.018981 C686.448218,301.969697 683.790876,296.939727 682.525475,290.929071 C681.260073,284.918415 681.702964,279.508825 683.854146,274.7003 L684.382,272.762 L669.998002,258.376623 L669.618382,259.325674 C666.581419,264.260739 664.461871,269.448884 663.25974,274.89011 C662.057609,280.331335 661.741259,285.646021 662.310689,290.834166 C662.88012,296.022311 664.272061,301.083916 666.486513,306.018981 C668.700966,310.954046 671.832834,315.38295 675.882118,319.305694 L693.724276,337.147852 C698.532801,342.589078 703.942391,346.701632 709.953047,349.485514 C715.963703,352.269397 722.322344,353.661339 729.028971,353.661339 Z M628.04995,291.403596 C629.188811,291.403596 630.074592,291.023976 630.707293,290.264735 C631.466533,289.632035 631.846154,288.746254 631.846154,287.607393 C631.846154,286.468531 631.498168,285.582751 630.802198,284.95005 C630.106227,284.317349 629.252081,284.000999 628.23976,284.000999 L591.606394,284.000999 C590.467532,284.000999 589.581752,284.348984 588.949051,285.044955 C588.31635,285.740926 588,286.626707 588,287.702298 C588,288.777889 588.31635,289.66367 588.949051,290.35964 C589.581752,291.055611 590.467532,291.403596 591.606394,291.403596 L628.04995,291.403596 Z M606.316683,338.856144 C607.265734,338.856144 608.11988,338.539794 608.879121,337.907093 L638.10989,308.676324 C638.742591,307.917083 639.058941,306.999667 639.058941,305.924076 C639.058941,304.848485 638.710956,303.994339 638.014985,303.361638 C637.319014,302.728938 636.464868,302.412587 635.452547,302.412587 C634.440226,302.412587 633.554446,302.728938 632.795205,303.361638 L603.564436,332.592408 C602.931735,333.351648 602.615385,334.237429 602.615385,335.24975 C602.615385,336.262071 602.995005,337.116217 603.754246,337.812188 C604.513487,338.508159 605.367632,338.856144 606.316683,338.856144 Z M653.674326,353.471528 C654.813187,353.471528 655.730603,353.123543 656.426573,352.427572 C657.122544,351.731602 657.470529,350.877456 657.470529,349.865135 L657.470529,313.421578 C657.470529,312.282717 657.090909,311.365301 656.331668,310.669331 C655.572428,309.97336 654.686647,309.625375 653.674326,309.625375 C652.535465,309.625375 651.649684,309.97336 651.016983,310.669331 C650.384282,311.365301 650.067932,312.219447 650.067932,313.231768 L650.067932,349.865135 C650.067932,350.877456 650.384282,351.731602 651.016983,352.427572 C651.649684,353.123543 652.535465,353.471528 653.674326,353.471528 Z" id=""></path>
        </g>
    </g>
</svg>