<?xml version="1.0" encoding="utf-8"?>
<!-- Generator: Adobe Illustrator 16.0.0, SVG Export Plug-In . SVG Version: 6.00 Build 0)  -->
<!DOCTYPE svg PUBLIC "-//W3C//DTD SVG 1.1//EN" "http://www.w3.org/Graphics/SVG/1.1/DTD/svg11.dtd">
<svg version="1.1" id="Ebene_1" xmlns="http://www.w3.org/2000/svg" xmlns:xlink="http://www.w3.org/1999/xlink" x="0px" y="0px"
	 width="277.962px" height="187.086px" viewBox="0 0 277.962 187.086" enable-background="new 0 0 277.962 187.086"
	 xml:space="preserve">
<g>
	<path fill="#55565A" d="M28.684,84.935c17.599-16.334,38.929-31.327,63.26-43.405c11.875-6.32,24.87-11.754,38.268-17.035
		c6.713-2.323,13.57-4.706,20.527-7.122c7.001-1.964,14.123-3.945,21.342-5.966C192.609,6.246,214.123,2.356,236.323,0H21.373
		C9.573,0,0,9.572,0,21.372v96.393C7.801,106.489,17.439,95.34,28.684,84.935"/>
	<path fill="#C4D600" d="M273.072,90.415c-13.416-0.03-26.402,0.646-38.684,1.995c-12.293,1.325-23.897,3.2-34.533,5.656
		c-10.644,2.445-20.364,5.215-28.903,8.23c-8.508,3.092-15.951,5.944-21.923,8.962c-1.51,0.716-2.929,1.418-4.278,2.063
		c-1.323,0.706-2.553,1.354-3.712,1.943c-1.161,0.634-2.248,1.207-3.222,1.725c-0.993,0.526-1.866,1.1-2.667,1.556
		c-3.165,1.867-4.868,2.846-4.868,2.846s1.538-1.433,4.385-4.182c0.734-0.656,1.514-1.432,2.416-2.212
		c0.926-0.771,1.926-1.61,2.995-2.518c1.09-0.906,2.253-1.918,3.483-2.955c1.284-0.962,2.637-1.945,4.059-3.029
		c5.704-4.328,12.855-9.025,21.257-13.789c8.391-4.68,18.088-9.193,28.821-13.343c10.74-4.13,22.546-7.637,35.145-10.381
		c12.601-2.737,25.98-4.704,39.892-5.611c1.746-0.091,3.482-0.193,5.226-0.291V47.01c-12.989,0.062-25.939,0.688-38.696,2.009
		c-16.474,1.771-32.673,4.045-48.219,7.562c-15.524,3.58-30.475,7.729-44.46,12.806c-13.954,5.178-27.004,10.939-38.796,17.255
		c-11.737,6.446-22.271,13.279-31.263,20.252c-8.981,7.027-16.474,14.1-22.283,20.609c-5.785,6.519-10.001,12.295-12.736,16.432
		c-1.375,2.064-2.348,3.752-3.033,4.846c-0.692,1.101-1.032,1.678-1.032,1.678s0.294-0.639,0.878-1.833
		c0.61-1.2,1.417-3.069,2.645-5.326c2.474-4.521,6.236-11.086,11.739-18.429c5.492-7.35,12.648-15.595,21.481-23.656
		c8.815-8.124,19.223-16.277,30.993-23.78c11.791-7.478,24.88-14.477,39.024-20.502c14.143-6.026,29.262-11.33,45.085-15.402
		c7.923-2.013,15.984-3.888,24.188-5.414c8.187-1.643,16.528-2.839,24.931-3.807c13.033-1.51,26.279-2.316,39.554-2.531v-8.406
		c0-2.306-0.382-4.529-1.063-6.623c-4.191,0.032-8.378,0.111-12.538,0.271c-31.546,0.968-62.01,4.499-90.622,10.729
		c-7.137,1.743-14.164,3.47-21.092,5.172c-6.867,2.102-13.633,4.183-20.277,6.226c-13.206,4.554-25.81,9.149-37.975,14.984
		c-1.517,0.681-3.031,1.382-4.528,2.06l-2.252,1.005l-1.117,0.512l-1.001,0.511c-2.911,1.467-5.794,2.917-8.607,4.48
		c-5.651,3.015-11.108,6.227-16.389,9.483c-10.548,6.539-20.284,13.621-29.107,21.074C18.98,101.803,8.384,113.191,0,124.737v40.984
		c0,11.799,9.572,21.365,21.372,21.365H256.59c11.8,0,21.372-9.566,21.372-21.365V90.51C276.341,90.478,274.7,90.445,273.072,90.415
		"/>
</g>
</svg>
