<?xml version="1.0" encoding="UTF-8" standalone="no"?>
<svg
   xmlns:dc="http://purl.org/dc/elements/1.1/"
   xmlns:cc="http://creativecommons.org/ns#"
   xmlns:rdf="http://www.w3.org/1999/02/22-rdf-syntax-ns#"
   xmlns:svg="http://www.w3.org/2000/svg"
   xmlns="http://www.w3.org/2000/svg"
   viewBox="0 0 770.89331 90.973335"
   height="90.973335"
   width="770.89331"
   xml:space="preserve"
   id="svg2"
   version="1.1"><metadata
     id="metadata8"><rdf:RDF><cc:Work
         rdf:about=""><dc:format>image/svg+xml</dc:format><dc:type
           rdf:resource="http://purl.org/dc/dcmitype/StillImage" /></cc:Work></rdf:RDF></metadata><defs
     id="defs6" /><g
     transform="matrix(1.3333333,0,0,-1.3333333,0,90.973333)"
     id="g10"><g
       transform="scale(0.1)"
       id="g12"><path
         id="path14"
         style="fill:#4b4e58;fill-opacity:1;fill-rule:nonzero;stroke:none"
         d="m 1217.8,506.895 h 54.93 c 34.26,0 51.39,17.128 51.39,41.937 0,36.031 -26.58,43.707 -56.12,43.707 h -50.2 z m -1.18,-167.161 h 58.47 c 31.9,0 50.21,12.403 50.21,43.711 0,29.532 -21.85,45.481 -53.16,45.481 h -55.52 z m -99.83,330.774 h 166.57 c 79.15,0 143.53,-27.168 143.53,-108.684 0,-43.117 -24.21,-80.332 -66.15,-92.73 v -1.184 c 46.66,-12.992 70.88,-46.66 70.88,-95.097 0,-76.79 -53.16,-111.047 -134.08,-111.047 h -184.29 l 3.54,408.742" /><path
         id="path16"
         style="fill:#4b4e58;fill-opacity:1;fill-rule:nonzero;stroke:none"
         d="m 1612.99,495.676 h 47.84 c 25.41,0 60.84,7.082 60.84,48.429 0,33.668 -20.67,48.434 -63.19,48.434 h -43.12 z m 1.78,-233.91 h -107.5 l 3.54,408.742 h 160.66 c 85.05,0 156.53,-22.442 156.53,-115.18 1.77,-58.473 -39.58,-103.363 -98.05,-105.73 v -1.18 c 23.62,-7.09 41.34,-32.484 56.11,-59.066 l 71.47,-127.586 h -119.91 l -58.47,113.41 c -12.41,24.808 -22.45,42.527 -46.07,42.527 h -15.95 l -2.36,-155.937" /><path
         id="path18"
         style="fill:#4b4e58;fill-opacity:1;fill-rule:nonzero;stroke:none"
         d="m 1913.1,670.508 h 106.32 l -3.55,-408.742 h -106.31 l 3.54,408.742" /><path
         id="path20"
         style="fill:#4b4e58;fill-opacity:1;fill-rule:nonzero;stroke:none"
         d="m 2121.61,352.73 c 24.81,-7.675 65.56,-17.718 94.51,-17.718 33.07,0 67.93,6.496 67.93,44.89 0,37.801 -47.85,41.348 -95.7,55.524 -47.84,14.172 -96.27,38.984 -96.27,118.133 0,88.007 88.6,128.765 165.97,128.765 45.49,0 88.01,-10.636 129.95,-26.582 l -30.12,-75.605 c -27.17,10.043 -64.39,17.129 -86.24,17.129 -50.8,0 -69.7,-18.313 -69.7,-44.297 0,-16.543 11.81,-30.719 59.07,-40.758 104.54,-23.625 132.9,-65.566 132.9,-122.859 0,-101.004 -80.93,-139.403 -171.88,-139.403 -42.53,0 -86.83,9.453 -127,23.039 l 26.58,79.742" /><path
         id="path22"
         style="fill:#4b4e58;fill-opacity:1;fill-rule:nonzero;stroke:none"
         d="m 2779.07,576 c -23.64,14.18 -59.66,21.266 -85.06,21.266 -77.38,0 -135.26,-51.387 -135.26,-129.946 0,-73.836 46.07,-132.308 123.44,-132.308 41.95,0 59.07,10.633 91.56,21.261 l 31.3,-76.195 c -28.94,-15.945 -76.2,-30.129 -135.26,-30.129 -137.63,0 -220.91,87.422 -220.91,219.735 0,127.582 85.65,212.64 234.49,212.64 55.53,0 101.01,-12.406 128.18,-29.535 L 2779.07,576" /><path
         id="path24"
         style="fill:#4b4e58;fill-opacity:1;fill-rule:nonzero;stroke:none"
         d="m 3063.21,335.012 c 61.43,0 111.05,41.343 111.05,131.125 0,89.781 -49.62,131.129 -111.05,131.129 -60.83,0 -110.45,-41.348 -110.45,-131.129 0,-89.782 49.62,-131.125 110.45,-131.125 z m 0.59,347.312 c 138.81,0 220.33,-97.461 220.33,-216.187 0,-118.727 -81.52,-216.188 -220.33,-216.188 -139.39,0 -220.9,97.461 -220.9,216.188 0,118.726 81.51,216.187 220.9,216.187" /><path
         id="path26"
         style="fill:#4b4e58;fill-opacity:1;fill-rule:nonzero;stroke:none"
         d="m 3442.47,352.73 c 24.81,-7.675 65.56,-17.718 94.51,-17.718 33.07,0 67.93,6.496 67.93,44.89 0,37.801 -47.85,41.348 -95.7,55.524 -47.84,14.172 -96.28,38.984 -96.28,118.133 0,88.007 88.61,128.765 165.98,128.765 45.49,0 88.01,-10.636 129.95,-26.582 l -30.12,-75.605 c -27.17,10.043 -64.39,17.129 -86.24,17.129 -50.8,0 -69.7,-18.313 -69.7,-44.297 0,-16.543 11.81,-30.719 59.07,-40.758 104.54,-23.625 132.9,-65.566 132.9,-122.859 0,-101.004 -80.93,-139.403 -171.88,-139.403 -42.53,0 -86.83,9.453 -127,23.039 l 26.58,79.742" /><path
         id="path28"
         style="fill:#4b4e58;fill-opacity:1;fill-rule:nonzero;stroke:none"
         d="m 3749.65,559.465 h 108.1 l 47.84,-184.289 h 1.18 l 54.93,184.289 h 105.74 L 3942.81,210.383 c -26,-69.707 -48.44,-97.461 -128.18,-97.461 -18.31,0 -36.03,0 -53.16,1.773 v 71.465 c 8.27,-1.773 16.54,-2.359 24.8,-2.359 15.95,0 32.49,2.359 43.13,15.347 7.68,9.454 18.9,30.723 20.67,41.946 l -100.42,318.371" /><path
         id="path30"
         style="fill:#4b4e58;fill-opacity:1;fill-rule:nonzero;stroke:none"
         d="m 4114.14,338.555 c 21.26,-8.274 58.47,-16.535 83.87,-16.535 14.77,0 34.26,8.847 34.26,23.625 0,12.992 -5.32,17.718 -57.29,32.484 -50.21,14.176 -80.93,37.805 -80.93,93.324 0,71.473 67.34,98.645 129.95,98.645 50.8,0 93.92,-11.817 105.73,-19.493 l -18.9,-63.792 c -20.08,5.316 -43.72,12.402 -72.65,12.402 -15.95,0 -37.8,-6.496 -37.8,-23.625 0,-12.406 5.31,-20.082 37.8,-26.582 57.88,-11.813 100.41,-30.711 100.41,-96.871 0,-76.785 -66.75,-100.996 -138.81,-100.996 -44.3,0 -94.5,12.406 -108.68,19.496 l 23.04,67.918" /><path
         id="path32"
         style="fill:#4b4e58;fill-opacity:1;fill-rule:nonzero;stroke:none"
         d="m 4359.28,559.465 h 43.71 l 2.37,101.004 h 99.22 l -2.36,-101.004 h 84.46 l -1.76,-74.426 h -84.47 c 0,-41.348 -2.95,-85.055 -2.95,-110.453 0,-25.992 6.5,-38.395 29.54,-38.395 14.17,0 25.98,7.09 37.79,14.176 l 22.45,-69.691 c -30.13,-18.324 -66.75,-29.535 -101.59,-29.535 -83.29,0 -87.42,52.558 -87.42,121.082 0,36.621 2.95,73.242 2.95,112.816 h -44.3 l 2.36,74.426" /><path
         id="path34"
         style="fill:#4b4e58;fill-opacity:1;fill-rule:nonzero;stroke:none"
         d="m 4834.8,447.828 c 0,30.719 -14.77,58.477 -49.02,58.477 -32.49,0 -57.3,-28.942 -63.8,-58.477 z m 75.61,-152.39 c -34.86,-29.532 -88.01,-44.297 -135.27,-44.297 -108.09,0 -157.12,76.781 -157.12,152.976 0,89.785 67.34,165.981 160.07,165.981 113.41,0 148.85,-80.332 148.85,-182.52 H 4720.8 c 0,-23.031 14.76,-62.023 71.47,-62.023 36.03,0 56.11,10.636 83.88,29.539 l 34.26,-59.656" /><path
         id="path36"
         style="fill:#4b4e58;fill-opacity:1;fill-rule:nonzero;stroke:none"
         d="m 4984.27,261.766 2.37,297.699 h 102.77 v -35.442 c 26.58,26.582 60.25,46.075 97.46,46.075 36.62,0 62.62,-12.407 84.46,-46.075 31.31,26.582 72.66,46.075 111.06,46.075 69.69,0 96.86,-49.028 96.86,-111.637 0,-65.566 -0.59,-131.125 -1.18,-196.695 H 5375.3 c 0.58,57.297 1.18,115.183 1.18,172.476 0,24.813 -7.69,47.25 -37.22,47.25 -18.31,0 -41.93,-14.172 -54.33,-27.168 l -2.37,-192.558 h -102.78 c 0.6,57.297 1.18,115.183 1.18,172.476 0,24.813 -7.67,47.25 -37.21,47.25 -18.31,0 -41.94,-14.172 -54.34,-27.168 l -2.36,-192.558 h -102.78" /><path
         id="path38"
         style="fill:#4b4e58;fill-opacity:1;fill-rule:nonzero;stroke:none"
         d="m 5557.27,338.555 c 21.26,-8.274 58.48,-16.535 83.88,-16.535 14.76,0 34.26,8.847 34.26,23.625 0,12.992 -5.33,17.718 -57.3,32.484 -50.2,14.176 -80.93,37.805 -80.93,93.324 0,71.473 67.35,98.645 129.95,98.645 50.8,0 93.92,-11.817 105.74,-19.493 l -18.91,-63.792 c -20.08,5.316 -43.71,12.402 -72.65,12.402 -15.94,0 -37.8,-6.496 -37.8,-23.625 0,-12.406 5.31,-20.082 37.8,-26.582 57.88,-11.813 100.41,-30.711 100.41,-96.871 0,-76.785 -66.74,-100.996 -138.8,-100.996 -44.3,0 -94.51,12.406 -108.69,19.496 l 23.04,67.918" /><path
         id="path40"
         style="fill:#4b4e58;fill-opacity:1;fill-rule:nonzero;stroke:none"
         d="m 1111.79,162.02 h 84.91 v -16.524 h -65.18 l -0.46,-53.9257 h 63.57 V 75.0508 h -63.34 l -0.91,-71.83596 h -19.97 l 1.38,158.80516" /><path
         id="path42"
         style="fill:#4b4e58;fill-opacity:1;fill-rule:nonzero;stroke:none"
         d="m 1225.16,3.21484 1.38,158.80516 h 19.73 L 1244.9,19.7344 h 67.7 V 3.21484 h -87.44" /><path
         id="path44"
         style="fill:#4b4e58;fill-opacity:1;fill-rule:nonzero;stroke:none"
         d="m 1467.05,162.02 -0.69,-98.9067 C 1465.67,12.1563 1433.09,0 1402.1,0 c -34.42,0 -61.73,15.3828 -61.73,63.5625 0,12.6289 0.23,27.3164 0.46,43.3785 l 0.46,55.079 h 19.74 l -0.46,-58.512 c -0.23,-14.9221 -0.46,-30.0705 -0.46,-44.758 0,-28.9141 15.37,-42.2266 43.37,-42.2266 23.41,0 42.92,11.4727 43.15,47.7344 l 0.68,97.7622 h 19.74" /><path
         id="path46"
         style="fill:#4b4e58;fill-opacity:1;fill-rule:nonzero;stroke:none"
         d="m 1509.05,162.02 h 19.73 L 1527.41,3.21484 h -19.74 l 1.38,158.80516" /><path
         id="path48"
         style="fill:#4b4e58;fill-opacity:1;fill-rule:nonzero;stroke:none"
         d="m 1589.14,18.3594 h 21.11 c 45.44,0 74.36,21.5703 74.36,65.1758 0,39.9338 -27.31,63.3398 -69.77,63.3398 h -24.32 z M 1570.78,162.02 h 47.74 c 61.04,0 85.83,-38.551 85.83,-77.3403 0,-53.6953 -39.71,-81.46486 -91.11,-81.46486 h -43.84 l 1.38,158.80516" /><path
         id="path50"
         style="fill:#4b4e58;fill-opacity:1;fill-rule:nonzero;stroke:none"
         d="m 1819.1,162.02 h 20.42 l 47.97,-134.0239 51.63,134.0239 h 21.34 L 1985.71,3.21484 1966.43,0 1946.24,135.859 h -0.46 L 1896.44,3.21484 h -18.82 L 1831.49,135.859 h -0.46 L 1809.23,0 1790.18,3.21484 1819.1,162.02" /><path
         id="path52"
         style="fill:#4b4e58;fill-opacity:1;fill-rule:nonzero;stroke:none"
         d="m 2074.07,144.121 h -0.45 L 2047,72.5195 h 52.09 z m -8.95,17.899 h 18.82 L 2147.06,6.42578 2127.31,0 2105.75,55.9961 H 2040.1 L 2016.93,0 1998.57,5.73047 2065.12,162.02" /><path
         id="path54"
         style="fill:#4b4e58;fill-opacity:1;fill-rule:nonzero;stroke:none"
         d="m 2170,158.113 16.52,7.121 87.9,-128.7418 h 0.45 l 0.92,125.5278 h 19.97 L 2294.38,6.42578 2277.17,0 l -87.2,129.891 h -0.47 L 2188.58,3.21484 h -19.96 L 2170,158.113" /><path
         id="path56"
         style="fill:#4b4e58;fill-opacity:1;fill-rule:nonzero;stroke:none"
         d="m 2392.84,144.121 h -0.45 l -26.62,-71.6015 h 52.09 z m -8.95,17.899 h 18.82 L 2465.83,6.42578 2446.08,0 2424.52,55.9961 h -65.65 L 2335.7,0 2317.34,5.73047 2383.89,162.02" /><path
         id="path58"
         style="fill:#4b4e58;fill-opacity:1;fill-rule:nonzero;stroke:none"
         d="m 2616.36,84.6797 -0.92,-72.9688 C 2597.31,3.21484 2578.27,0 2563.81,0 c -47.05,0 -84.23,30.7539 -84.23,82.6172 0,48.6528 37.18,82.6168 84.23,82.6168 16.75,0 34.19,-3.894 49.11,-11.242 l -7.57,-15.605 c -10.33,5.957 -25.48,10.324 -41.54,10.324 -36.95,0 -63.11,-29.375 -63.11,-66.0938 0,-36.7188 26.16,-66.0938 63.11,-66.0938 11.02,0 23.18,2.7539 31.9,6.6524 l 0.92,61.5039 h 19.73" /><path
         id="path60"
         style="fill:#4b4e58;fill-opacity:1;fill-rule:nonzero;stroke:none"
         d="m 2654.47,162.02 h 81.7 v -16.524 h -62.2 l -0.45,-53.9257 h 60.59 V 75.0508 h -60.36 l -0.46,-55.3164 h 63.79 V 3.21484 h -83.99 l 1.38,158.80516" /><path
         id="path62"
         style="fill:#4b4e58;fill-opacity:1;fill-rule:nonzero;stroke:none"
         d="m 2788.03,162.02 h 20.43 l 47.96,-134.0239 51.63,134.0239 h 21.35 L 2954.64,3.21484 2935.37,0 l -20.2,135.859 h -0.46 L 2865.38,3.21484 h -18.83 L 2800.42,135.859 h -0.45 L 2778.17,0 2759.12,3.21484 2788.03,162.02" /><path
         id="path64"
         style="fill:#4b4e58;fill-opacity:1;fill-rule:nonzero;stroke:none"
         d="m 2985.85,162.02 h 81.7 v -16.524 h -62.19 l -0.45,-53.9257 h 60.58 V 75.0508 h -60.36 l -0.46,-55.3164 h 63.8 V 3.21484 h -83.99 l 1.37,158.80516" /><path
         id="path66"
         style="fill:#4b4e58;fill-opacity:1;fill-rule:nonzero;stroke:none"
         d="m 3100.61,158.113 16.52,7.121 87.89,-128.7418 h 0.47 l 0.92,125.5278 h 19.96 L 3225,6.42578 3207.78,0 3120.57,129.891 h -0.45 L 3119.2,3.21484 h -19.97 l 1.38,154.89816" /><path
         id="path68"
         style="fill:#4b4e58;fill-opacity:1;fill-rule:nonzero;stroke:none"
         d="m 3249.32,162.02 h 120.26 v -16.524 h -50.26 L 3317.93,3.21484 h -19.72 l 1.37,142.28116 h -50.26 v 16.524" /><path
         id="path70"
         style="fill:#4b4e58;fill-opacity:1;fill-rule:nonzero;stroke:none"
         d="m 101.289,368.77 c 62.149,57.636 137.441,110.605 223.352,153.222 41.886,22.344 87.82,41.516 135.07,60.137 23.762,8.223 47.93,16.621 72.469,25.144 24.769,6.926 49.91,13.938 75.398,21.086 72.481,18.223 148.434,31.934 226.793,40.274 H 75.4961 C 33.8086,668.633 0,634.832 0,593.145 V 252.91 c 27.5586,39.793 61.6016,79.141 101.289,115.86" /><path
         id="path72"
         style="fill:#abd91c;fill-opacity:1;fill-rule:nonzero;stroke:none"
         d="m 964.137,349.414 c -47.383,0.098 -93.223,-2.297 -136.614,-7.023 -43.378,-4.696 -84.347,-11.356 -121.91,-20.067 -37.57,-8.605 -71.879,-18.379 -102.019,-28.937 -30.039,-10.907 -56.309,-21.082 -77.449,-31.66 -5.309,-2.567 -10.329,-5.008 -15.059,-7.293 -4.684,-2.469 -9.059,-4.778 -13.141,-6.922 -4.101,-2.168 -7.89,-4.164 -11.375,-5.989 -3.465,-1.925 -6.566,-3.906 -9.367,-5.546 -11.223,-6.582 -17.199,-10.11 -17.199,-10.11 0,0 5.383,5.149 15.5,14.758 2.547,2.344 5.34,5.098 8.519,7.891 3.219,2.714 6.754,5.683 10.563,8.914 3.816,3.215 7.937,6.679 12.316,10.375 4.5,3.367 9.282,6.941 14.325,10.691 20.136,15.344 45.367,31.887 75.007,48.66 29.668,16.574 63.887,32.512 101.789,47.121 37.899,14.61 79.598,26.961 124.071,36.68 44.488,9.648 91.75,16.602 140.82,19.832 6.203,0.285 12.301,0.676 18.477,1.027 v 70.821 c -45.868,-0.207 -91.555,-2.422 -136.606,-7.09 -58.168,-6.25 -115.371,-14.258 -170.265,-26.699 -54.829,-12.657 -107.594,-27.254 -156.965,-45.215 -49.27,-18.289 -95.332,-38.582 -136.95,-60.879 -41.48,-22.766 -78.652,-46.895 -110.402,-71.582 -31.711,-24.824 -58.168,-49.688 -78.66,-72.676 -20.449,-23.066 -35.348,-43.418 -44.98,-58 -4.84,-7.293 -8.266,-13.316 -10.727,-17.168 -2.414,-3.914 -3.652,-5.937 -3.652,-5.937 0,0 1.07,2.218 3.148,6.515 2.145,4.219 5,10.821 9.34,18.789 8.703,16.004 21.984,39.141 41.422,65.039 19.371,25.957 44.636,55.039 75.847,83.536 31.102,28.699 67.844,57.492 109.442,83.945 41.601,26.406 87.851,51.152 137.773,72.422 49.907,21.269 103.321,39.98 159.18,54.367 27.949,7.09 56.43,13.726 85.379,19.109 28.918,5.801 58.332,10.047 88.008,13.457 46.043,5.313 92.812,8.164 139.668,8.926 v 29.649 c 0,8.171 -1.336,16.023 -3.75,23.406 -14.809,-0.106 -29.578,-0.41 -44.278,-0.965 -111.359,-3.43 -218.937,-15.879 -319.961,-37.871 -25.172,-6.172 -49.988,-12.254 -74.449,-18.25 -24.262,-7.453 -48.137,-14.785 -71.629,-22.004 -46.582,-16.074 -91.097,-32.285 -134.027,-52.902 -5.363,-2.422 -10.703,-4.852 -16.012,-7.254 l -7.93,-3.586 -3.941,-1.785 -3.551,-1.778 C 291.594,464.941 281.426,459.824 271.477,454.336 251.516,443.66 232.273,432.305 213.621,420.801 176.383,397.734 141.992,372.773 110.875,346.406 67.0117,309.133 29.6328,269.043 0.00390625,228.223 V 83.5742 C 0.00390625,41.8945 33.8047,8.08594 75.4922,8.08594 H 905.902 c 41.692,0 75.489,33.80856 75.489,75.48826 V 349.082 c -5.746,0.117 -11.547,0.234 -17.254,0.332" /></g></g></svg>