<?xml version="1.0" encoding="utf-8"?>
<!-- Generator: Adobe Illustrator 18.1.1, SVG Export Plug-In . SVG Version: 6.00 Build 0)  -->
<svg version="1.1" id="Layer_1" xmlns="http://www.w3.org/2000/svg" xmlns:xlink="http://www.w3.org/1999/xlink" x="0px" y="0px"
	 viewBox="0 0 5 16" enable-background="new 0 0 5 16" xml:space="preserve">
<g>
	<g>
		<g>
			<path fill="#999999" d="M2.5,5C1.1,5,0,3.9,0,2.5S1.1,0,2.5,0S5,1.1,5,2.5S3.9,5,2.5,5z M2.5,1C1.7,1,1,1.7,1,2.5S1.7,4,2.5,4
				S4,3.3,4,2.5S3.3,1,2.5,1z"/>
		</g>
	</g>
	<g>
		<g>
			<path fill="#999999" d="M2.5,10.5C1.1,10.5,0,9.4,0,8s1.1-2.5,2.5-2.5S5,6.6,5,8S3.9,10.5,2.5,10.5z M2.5,6.5C1.7,6.5,1,7.2,1,8
				s0.7,1.5,1.5,1.5S4,8.8,4,8S3.3,6.5,2.5,6.5z"/>
		</g>
	</g>
	<g>
		<g>
			<path fill="#999999" d="M2.5,16C1.1,16,0,14.9,0,13.5S1.1,11,2.5,11S5,12.1,5,13.5S3.9,16,2.5,16z M2.5,12C1.7,12,1,12.7,1,13.5
				S1.7,15,2.5,15S4,14.3,4,13.5S3.3,12,2.5,12z"/>
		</g>
	</g>
</g>
</svg>
