<svg id="Layer_1" xmlns="http://www.w3.org/2000/svg" width="61" height="64" viewBox="33 -12 61 64"><style>.st0{fill:#666666;}</style><path class="st0" d="M82.2 28.1c1.3-1.3 2.1-2.9 2.3-4.5 1.3-1.4 2.1-2.9 2.3-4.5 1.2-1.4 2-2.9 2.3-4.5 1.2-1.4 2-2.9 2.3-4.5 1.7-1.9 2.6-4 2.6-6.3C94-5.1 80.6-12 63.5-12S33-5.1 33 3.8c0 2.3.9 4.4 2.5 6.4.3 1.6 1.1 3.1 2.3 4.5.3 1.6 1.1 3.1 2.3 4.5.2 1.6 1.1 3.1 2.3 4.5.2 1.6 1 3.1 2.3 4.5.1 1.6 1 3.1 2.3 4.5 0 1.6.9 3.2 2.4 4.5v.2c0 1.6.9 3.1 2.4 4.3v.5c0 1.5.9 2.9 2.4 4-.1.2-.1.5-.1.8 0 3 4 5.3 9.4 5.3s9.4-2.3 9.4-5.3c0-.3 0-.5-.1-.8 1.5-1.1 2.4-2.5 2.4-4v-.5c1.5-1.2 2.4-2.7 2.4-4.3v-.2c1.5-1.3 2.3-2.8 2.4-4.5 1.3-1.5 2.1-3 2.2-4.6zM63.5 49.6c-3.6 0-6-1.2-6.7-2.3 1.9.7 4.2 1.1 6.7 1.1s4.8-.4 6.7-1.1c-.7 1.1-3.1 2.3-6.7 2.3zm0-3.6c-4.2 0-7.5-1.3-8.7-2.8 2.4 1 5.4 1.6 8.7 1.6 3.3 0 6.4-.6 8.7-1.6-1.2 1.5-4.5 2.8-8.7 2.8zm0-3.6c-5 0-8.9-1.5-10.6-3.2 2.8 1.3 6.5 2.1 10.6 2.1s7.8-.8 10.6-2.1c-1.7 1.7-5.6 3.2-10.6 3.2zM35.4 3.8c0-7.2 12.9-13.4 28.1-13.4S91.6-3.4 91.6 3.8 78.7 17.2 63.5 17.2 35.4 11 35.4 3.8zm28.1 31.4c-6.7 0-11.8-1.8-14.4-4.1 3.7 1.8 8.8 2.9 14.4 2.9s10.7-1.1 14.4-2.9c-2.6 2.3-7.7 4.1-14.4 4.1zm0 3.6c-4.9 0-10.2-1.4-12.6-3.7 3.3 1.6 7.7 2.5 12.6 2.5s9.3-1 12.6-2.5c-2.4 2.2-7.7 3.7-12.6 3.7zm0-7.2c-7 0-13.2-1.9-16.4-4.6 4.2 2.1 9.9 3.4 16.4 3.4s12.2-1.3 16.4-3.4c-3.2 2.7-9.4 4.6-16.4 4.6zm0-12c8.6 0 16.2-1.7 21.7-4.6-4.6 3.4-12.7 5.8-21.7 5.8S46.4 18.4 41.8 15c5.5 2.8 13.1 4.6 21.7 4.6zm0 3.6c7.9 0 14.9-1.6 20-4.2-4.1 3.2-11.6 5.4-20 5.4s-15.8-2.2-20-5.4c5.1 2.6 12.1 4.2 20 4.2zm0 3.6c7.2 0 13.5-1.4 18.2-3.8-3.7 2.9-10.5 5-18.2 5S49 26 45.3 23c4.7 2.4 11.1 3.8 18.2 3.8z"/></svg>