<svg id="Layer_1" xmlns="http://www.w3.org/2000/svg" width="600" height="150" viewBox="0 0 600 150"><style>.st0{fill:#666766;}</style><circle class="st0" cx="25.1" cy="16.8" r="1"/><circle class="st0" cx="98.2" cy="28.4" r="1"/><circle class="st0" cx="83.7" cy="11.2" r="1"/><circle class="st0" cx="180.5" cy="17.5" r="1"/><circle class="st0" cx="268.5" cy="19.4" r="1"/><circle class="st0" cx="274.4" cy="9.2" r="1"/><circle class="st0" cx="377.7" cy="17.8" r="1"/><circle class="st0" cx="429" cy="31.9" r="1"/><circle class="st0" cx="493" cy="13.4" r="1"/><circle class="st0" cx="483" cy="29.4" r="1"/><circle class="st0" cx="446.4" cy="70.1" r="1"/><circle class="st0" cx="559.2" cy="18.4" r="1"/><circle class="st0" cx="583.5" cy="36.9" r="1"/><circle class="st0" cx="557.5" cy="17.3" r="1"/><circle class="st0" cx="484.3" cy="5.7" r="1"/><circle class="st0" cx="498.8" cy="22.9" r="1"/><circle class="st0" cx="402.1" cy="16.7" r="1"/><circle class="st0" cx="440.2" cy="48.8" r="1"/><circle class="st0" cx="477.9" cy="87.4" r="1"/><circle class="st0" cx="300.5" cy="15.3" r="1"/><circle class="st0" cx="204.8" cy="16.3" r="1"/><circle class="st0" cx="153.5" cy="6.2" r="1"/><circle class="st0" cx="89.6" cy="20.7" r="1"/><circle class="st0" cx="99.5" cy="4.7" r="1"/><circle class="st0" cx="8.2" cy="5.2" r="1"/><circle class="st0" cx="54.8" cy="23.1" r=".8"/><circle class="st0" cx="139.3" cy="28" r=".2"/><circle class="st0" cx="590" cy="27.5" r=".1"/><circle class="st0" cx="407.7" cy="51.1" r=".1"/><circle class="st0" cx="227.3" cy="20.8" r=".1"/><circle class="st0" cx="67.6" cy="8.4" r=".1"/><circle class="st0" cx="235.8" cy="7.6" r=".1"/><circle class="st0" cx="446.3" cy="7.6" r=".1"/><circle class="st0" cx="470.6" cy="29.4" r=".1"/><circle class="st0" cx="240.3" cy="22.2" r=".1"/><circle class="st0" cx="340.6" cy="19.4" r=".1"/><circle class="st0" cx="71.3" cy="16.8" r=".1"/><circle class="st0" cx="97.2" cy="64" r=".1"/><circle class="st0" cx="569.4" cy="22.3" r=".1"/><circle class="st0" cx="398" cy="9.2" r=".1"/><circle class="st0" cx="428.9" cy="20.7" r=".1"/><circle class="st0" cx="81.1" cy="30.4" r=".1"/><circle class="st0" cx="67.5" cy="44.1" r=".1"/><circle class="st0" cx="582.5" cy="6.7" r=".1"/><circle class="st0" cx="152.5" cy="14.4" r=".1"/><circle class="st0" cx="283.5" cy="32.9" r=".1"/><circle class="st0" cx="382.6" cy="35.9" r=".1"/><circle class="st0" cx="513.8" cy="14.6" r=".1"/><circle class="st0" cx="539" cy="33.1" r=".1"/><circle class="st0" cx="56.4" cy="13.4" r=".8"/><circle class="st0" cx="34.3" cy="7.6" r=".8"/><circle class="st0" cx="225.6" cy="27.6" r="1.5"/><circle class="st0" cx="209" cy="4.7" r="1.5"/><circle class="st0" cx="4.6" cy="15.4" r="1.5"/><circle class="st0" cx="595.3" cy="9.3" r="1.5"/><ellipse class="st0" cx="355" cy="12.7" rx="1.5" ry="1.4"/><ellipse class="st0" cx="534.3" cy="4.9" rx="1.5" ry="1.4"/><circle class="st0" cx="120.2" cy="14.7" r="1.5"/><circle class="st0" cx="34.3" cy="31.9" r="1.5"/><circle class="st0" cx="434.2" cy="21.9" r="1.5"/><circle class="st0" cx="324.2" cy="7.4" r="2.8"/><circle class="st0" cx="472.4" cy="20.3" r="2.8"/><circle class="st0" cx="459.5" cy="79.7" r="2.3"/><circle class="st0" cx="40.6" cy="15.3" r="2.8"/><circle class="st0" cx="534.1" cy="18.1" r="2.8"/><circle class="st0" cx="583.5" cy="23.3" r="2.8"/><circle class="st0" cx="183.6" cy="6.2" r="2.8"/><circle class="st0" cx="307.8" cy="83" r="1"/><circle class="st0" cx="271.7" cy="18" r="1"/><circle class="st0" cx="286.2" cy="35.3" r="1"/><circle class="st0" cx="189.5" cy="29" r="1"/><circle class="st0" cx="95.5" cy="37.3" r="1"/><circle class="st0" cx="582.3" cy="26.6" r="1"/><circle class="st0" cx="530.9" cy="12.5" r="1"/><circle class="st0" cx="467" cy="31" r="1"/><circle class="st0" cx="476.9" cy="15" r="1"/><circle class="st0" cx="400.8" cy="26" r="1"/><circle class="st0" cx="376.5" cy="7.5" r="1"/><circle class="st0" cx="402.5" cy="27.1" r="1"/><circle class="st0" cx="475.6" cy="38.8" r="1"/><circle class="st0" cx="461.1" cy="21.5" r="1"/><circle class="st0" cx="557.9" cy="27.8" r="1"/><circle class="st0" cx="546.3" cy="73.7" r="1"/><circle class="st0" cx="69.4" cy="31.1" r="1"/><circle class="st0" cx="50.8" cy="5.7" r="1"/><circle class="st0" cx="60.8" cy="22.5" r="1"/><circle class="st0" cx="165.1" cy="30.1" r="1"/><circle class="st0" cx="216.4" cy="44.3" r="1"/><circle class="st0" cx="280.3" cy="25.8" r="1"/><circle class="st0" cx="270.4" cy="41.8" r="1"/><circle class="st0" cx="352" cy="27.7" r="1"/><circle class="st0" cx="361.7" cy="42.8" r="1"/><circle class="st0" cx="390.5" cy="87.4" r="1"/><circle class="st0" cx="315.1" cy="23.4" r=".8"/><circle class="st0" cx="230.6" cy="18.5" r=".2"/><circle class="st0" cx="370" cy="17" r=".1"/><circle class="st0" cx="518.7" cy="123.6" r=".1"/><circle class="st0" cx="142.6" cy="25.6" r=".1"/><circle class="st0" cx="302.3" cy="38.1" r=".1"/><circle class="st0" cx="525.4" cy="101.5" r=".1"/><circle class="st0" cx="134.1" cy="38.9" r=".1"/><circle class="st0" cx="144.2" cy="54.9" r=".1"/><circle class="st0" cx="513.7" cy="36.8" r=".1"/><circle class="st0" cx="489.3" cy="15" r=".1"/><circle class="st0" cx="129.6" cy="24.3" r=".1"/><circle class="st0" cx="29.3" cy="27" r=".1"/><circle class="st0" cx="298.6" cy="29.6" r=".1"/><circle class="st0" cx="390.5" cy="22.1" r=".1"/><circle class="st0" cx="562" cy="35.3" r=".1"/><circle class="st0" cx="531.1" cy="23.8" r=".1"/><circle class="st0" cx="288.8" cy="16" r=".1"/><circle class="st0" cx="377.5" cy="37.8" r=".1"/><circle class="st0" cx="217.4" cy="32" r=".1"/><circle class="st0" cx="86.4" cy="13.5" r=".1"/><circle class="st0" cx="577.3" cy="8.5" r=".1"/><circle class="st0" cx="446.2" cy="29.9" r=".1"/><circle class="st0" cx="421" cy="11.4" r=".1"/><circle class="st0" cx="313.6" cy="33" r=".8"/><circle class="st0" cx="335.6" cy="38.9" r=".8"/><circle class="st0" cx="144.3" cy="18.8" r="1.5"/><circle class="st0" cx="365.3" cy="31" r="1.5"/><circle class="st0" cx="246.7" cy="48.3" r="1.5"/><ellipse class="st0" cx="15" cy="33.8" rx="1.5" ry="1.4"/><ellipse class="st0" cx="425.7" cy="40.7" rx="1.5" ry="1.4"/><circle class="st0" cx="249.8" cy="31.7" r="1.5"/><circle class="st0" cx="335.6" cy="14.5" r="1.5"/><circle class="st0" cx="525.7" cy="22.5" r="1.5"/><circle class="st0" cx="530" cy="38.3" r="2.8"/><circle class="st0" cx="492.2" cy="47.6" r="2.8"/><circle class="st0" cx="583.2" cy="95.2" r="2.8"/><circle class="st0" cx="556.9" cy="10.9" r="2.8"/><circle class="st0" cx="329.3" cy="31.1" r="2.8"/><circle class="st0" cx="456.2" cy="38.9" r="2.8"/><circle class="st0" cx="257.1" cy="20.3" r="2.8"/><circle class="st0" cx="376.5" cy="21.2" r="2.8"/><circle class="st0" cx="533.1" cy="55.5" r="1"/><circle class="st0" cx="539.1" cy="104" r="1"/><circle class="st0" cx="367.2" cy="65.9" r="1"/><circle class="st0" cx="569.7" cy="36.6" r=".1"/><circle class="st0" cx="567.7" cy="52.2" r=".1"/><circle class="st0" cx="555.2" cy="80.5" r=".1"/><circle class="st0" cx="590.8" cy="92.6" r=".1"/><circle class="st0" cx="437" cy="60.6" r=".1"/><circle class="st0" cx="425.6" cy="93.8" r=".1"/><circle class="st0" cx="557.4" cy="41" r=".1"/><circle class="st0" cx="535.8" cy="82.1" r=".1"/><circle class="st0" cx="428.4" cy="81.8" r=".1"/><circle class="st0" cx="400" cy="48.5" r=".1"/><circle class="st0" cx="513.7" cy="49.8" r=".1"/><circle class="st0" cx="506.3" cy="101.7" r=".1"/><circle class="st0" cx="209.1" cy="60.7" r=".1"/><circle class="st0" cx="593.2" cy="43.3" r="1.5"/><ellipse transform="rotate(-25.397 389.874 60.756)" class="st0" cx="389.9" cy="60.8" rx="1.5" ry="1.4"/><circle class="st0" cx="577.2" cy="72.8" r="1"/><circle class="st0" cx="440.8" cy="93.8" r="1"/><circle class="st0" cx="528.9" cy="67.3" r="1"/><circle class="st0" cx="543.2" cy="86.4" r="1"/><circle class="st0" cx="510.3" cy="48.8" r="1"/><circle class="st0" cx="320.1" cy="49.6" r="1"/><circle class="st0" cx="289.2" cy="47.3" r="1"/><circle class="st0" cx="519.7" cy="54.9" r="1"/><circle class="st0" cx="521.8" cy="36.2" r="1"/><circle class="st0" cx="386.2" cy="45.9" r="1"/><circle class="st0" cx="411.9" cy="98.7" r="1"/><circle class="st0" cx="561.9" cy="55.9" r="1"/><circle class="st0" cx="425.7" cy="72.8" r="1"/><circle class="st0" cx="511.3" cy="68.3" r=".8"/><circle class="st0" cx="493" cy="110.4" r=".8"/><circle class="st0" cx="511" cy="84.7" r=".8"/><circle class="st0" cx="340.8" cy="59.3" r=".8"/><circle class="st0" cx="567.7" cy="40.2" r=".2"/><circle class="st0" cx="374.5" cy="63.3" r=".1"/><circle class="st0" cx="494.6" cy="53.2" r=".1"/><circle class="st0" cx="501.5" cy="59.2" r=".1"/><circle class="st0" cx="516.3" cy="67.3" r=".1"/><circle class="st0" cx="358.8" cy="47.7" r=".1"/><circle class="st0" cx="382.7" cy="80.2" r=".1"/><circle class="st0" cx="330.4" cy="96.5" r=".1"/><circle class="st0" cx="329.2" cy="70.2" r=".1"/><circle class="st0" cx="364.7" cy="77.1" r=".1"/><circle class="st0" cx="464" cy="92.8" r=".1"/><circle class="st0" cx="486.6" cy="62.6" r=".8"/><circle class="st0" cx="492" cy="80.1" r=".8"/><circle class="st0" cx="464.1" cy="66.8" r=".8"/><circle class="st0" cx="567" cy="80.9" r=".8"/><circle class="st0" cx="307" cy="56.5" r=".8"/><circle class="st0" cx="364.1" cy="95.5" r=".8"/><circle class="st0" cx="430" cy="4.7" r="1.5"/><circle class="st0" cx="371.5" cy="44.7" r="1.5"/><circle class="st0" cx="544.8" cy="36.4" r="1.5"/><circle class="st0" cx="406.6" cy="50.8" r="1.5"/><circle class="st0" cx="588.1" cy="60.8" r="2.8"/><path class="st0" d="M190.9 86.2l-26.4 9.9c-2.5.9-5.3-.3-6.2-2.8l-11.3-30c-.9-2.5.3-5.3 2.8-6.2l26.4-9.9c2.5-.9 5.3.3 6.2 2.8l11.3 30c1 2.5-.3 5.3-2.8 6.2zM74.1 122c1.1-.4 1.7-1.7 1.3-2.8L68.2 100c-.4-1.1-1.7-1.7-2.8-1.3-1.1.4-1.7 1.7-1.3 2.8l7.2 19.2c.4 1.2 1.7 1.7 2.8 1.3zM126 72.6l16.6-6.3c1.6-.6 3.5.2 4.1 1.9l8.3 22.1c.6 1.6-.2 3.5-1.9 4.1l-16.6 6.3c-1.6.6-3.5-.2-4.1-1.9l-8.3-22.1c-.6-1.6.3-3.5 1.9-4.1zM100.1 85.3l18.6-7c1.9-.7 4.1.3 4.8 2.2l6.1 16.2c.7 1.9-.3 4.1-2.2 4.8l-18.6 7c-1.9.7-4.1-.3-4.8-2.2l-6.1-16.2c-.7-1.9.3-4 2.2-4.8zM72.6 101.5L95.1 93c.9-.3 1.8.1 2.1 1l3.9 10.4c.3.9-.1 1.8-1 2.1L77.6 115c-.9.3-1.8-.1-2.1-1l-3.9-10.4c-.3-.9.1-1.8 1-2.1zM131.6 103.6c-7.1 0-12.9 5.8-12.9 12.9 0 7.1 5.8 12.9 12.9 12.9 7.1 0 12.9-5.8 12.9-12.9 0-7.1-5.8-12.9-12.9-12.9zm0 21c-4.5 0-8.1-3.6-8.1-8.1s3.6-8.1 8.1-8.1 8.1 3.6 8.1 8.1-3.6 8.1-8.1 8.1z"/><path class="st0" d="M131.6 109.4c-3.9 0-7.1 3.2-7.1 7.1 0 3.9 3.2 7.1 7.1 7.1 3.9 0 7.1-3.2 7.1-7.1.1-3.9-3.1-7.1-7.1-7.1zM113.2 144.2l11.1-14c.7-1.4 2.8-.5 2.4.9l-5.7 14c-.2.6-.7.9-1.2.9h-5.3c-1.1 0-1.7-1-1.3-1.8zM150.5 144.2l-11.1-14c-.7-1.4-2.8-.5-2.4.9l5.7 14c.2.6.7.9 1.2.9h5.3c1.1 0 1.7-1 1.3-1.8zM128.3 145.4l2.9-12.9c.1-.5.8-.5.9 0l2.9 12.9c0 .3-.2.5-.4.5h-5.7c-.4 0-.6-.2-.6-.5z"/><circle class="st0" cx="63.1" cy="124.2" r="2.5"/><path class="st0" d="M61.9 145.9c-.8 0-1.5-.7-1.5-1.5v-11c0-.8.7-1.5 1.5-1.5s1.5.7 1.5 1.5v11c0 .9-.7 1.5-1.5 1.5z"/><path class="st0" d="M64.7 145.9c-.8 0-1.5-.7-1.5-1.5v-11c0-.8.7-1.5 1.5-1.5s1.5.7 1.5 1.5v11c0 .9-.6 1.5-1.5 1.5z"/><path class="st0" d="M65 126.5h-3.4c-1.3 0-2.4 1.1-2.4 2.4v6.8c0 1.3 1.1 2.4 2.4 2.4H65c1.3 0 2.4-1.1 2.4-2.4v-6.8c-.1-1.3-1.1-2.4-2.4-2.4z"/></svg>