<?xml version="1.0" encoding="utf-8"?>
<!-- Generated by IcoMoon.io -->
<!DOCTYPE svg PUBLIC "-//W3C//DTD SVG 1.1//EN" "http://www.w3.org/Graphics/SVG/1.1/DTD/svg11.dtd">
<svg version="1.1" xmlns="http://www.w3.org/2000/svg" xmlns:xlink="http://www.w3.org/1999/xlink" width="83" height="64" viewBox="0 0 83 64">
<path fill="#666666" d="M60.068 40.073c1.318-1.339 2.123-2.855 2.311-4.465 1.265-1.359 2.060-2.865 2.301-4.465 1.224-1.38 2.018-2.886 2.311-4.486 1.182-1.38 1.977-2.886 2.29-4.465 1.61-1.945 2.51-4.099 2.51-6.39 0-8.857-13.344-15.801-30.379-15.801s-30.379 6.944-30.379 15.801c0 2.29 0.899 4.444 2.51 6.39 0.324 1.59 1.108 3.085 2.29 4.465 0.282 1.6 1.077 3.106 2.311 4.486 0.241 1.6 1.046 3.106 2.301 4.465 0.188 1.61 1.004 3.127 2.311 4.465 0.125 1.631 0.952 3.148 2.332 4.476 0.042 1.642 0.889 3.158 2.343 4.455 0 0.063-0.021 0.126-0.021 0.188 0 1.61 0.878 3.085 2.384 4.298-0.021 0.157-0.042 0.314-0.042 0.471 0 1.548 0.899 2.939 2.437 4.026-0.052 0.24-0.094 0.492-0.094 0.753 0 3.001 4.005 5.271 9.318 5.271s9.318-2.259 9.318-5.271c0-0.251-0.042-0.502-0.094-0.753 1.537-1.088 2.437-2.468 2.437-4.026 0-0.157-0.021-0.314-0.042-0.471 1.506-1.213 2.384-2.688 2.384-4.298 0-0.063-0.010-0.126-0.021-0.188 1.454-1.297 2.301-2.813 2.343-4.455 1.38-1.328 2.217-2.844 2.332-4.476zM41.412 61.574c-3.556 0-6.023-1.203-6.693-2.269 1.872 0.701 4.162 1.108 6.693 1.108s4.821-0.408 6.693-1.108c-0.669 1.067-3.137 2.269-6.693 2.269zM41.412 57.966c-4.152 0-7.467-1.307-8.701-2.782 2.374 1.014 5.386 1.61 8.701 1.61s6.327-0.607 8.701-1.61c-1.234 1.474-4.549 2.782-8.701 2.782zM41.412 54.369c-5.009 0-8.889-1.474-10.604-3.221 2.834 1.286 6.515 2.060 10.604 2.060s7.77-0.774 10.604-2.060c-1.715 1.746-5.595 3.221-10.604 3.221zM13.459 15.801c0-7.247 12.8-13.365 27.953-13.365s27.953 6.118 27.953 13.365-12.8 13.365-27.953 13.365-27.953-6.118-27.953-13.365zM41.412 47.163c-6.63 0-11.765-1.809-14.369-4.11 3.733 1.83 8.763 2.939 14.369 2.939s10.635-1.108 14.369-2.939c-2.604 2.311-7.739 4.11-14.369 4.11zM41.412 50.771c-4.884 0-10.165-1.433-12.57-3.702 3.294 1.579 7.686 2.531 12.57 2.531s9.276-0.952 12.57-2.531c-2.405 2.259-7.686 3.702-12.57 3.702zM41.412 43.566c-6.933 0-13.124-1.882-16.314-4.591 4.183 2.123 9.903 3.42 16.314 3.42s12.131-1.297 16.314-3.42c-3.19 2.709-9.38 4.591-16.314 4.591zM41.412 31.592c8.554 0 16.167-1.746 21.647-4.612-4.58 3.441-12.664 5.783-21.647 5.783s-17.056-2.343-21.647-5.783c5.48 2.865 13.093 4.612 21.647 4.612zM41.412 35.2c7.843 0 14.85-1.6 19.89-4.225-4.12 3.2-11.576 5.396-19.89 5.396s-15.759-2.196-19.89-5.396c5.040 2.625 12.047 4.225 19.89 4.225zM41.412 38.797c7.122 0 13.48-1.443 18.091-3.817-3.66 2.949-10.478 4.988-18.091 4.988s-14.431-2.039-18.091-4.988c4.612 2.374 10.97 3.817 18.091 3.817z"></path>
</svg>
