<?xml version="1.0" encoding="utf-8"?>
<!-- Generator: Adobe Illustrator 18.1.1, SVG Export Plug-In . SVG Version: 6.00 Build 0)  -->
<svg version="1.1" id="Layer_1" xmlns="http://www.w3.org/2000/svg" xmlns:xlink="http://www.w3.org/1999/xlink" x="0px" y="0px"
	 viewBox="0 0 70 70" enable-background="new 0 0 70 70" xml:space="preserve">
<g>
	<polygon fill="#EC2128" points="40.2,8 40.2,8 40.1,8.4 	"/>
	<path fill="#EC2128" d="M63.9,8.9C60,5,54.8,2.8,49.3,2.8c-2.7,0-5.4,0.5-7.9,1.6L40.2,8c0,0,0,0,0,0l1.1-3.5l3.4,1.1l-0.2,0.6
		c1.5-0.4,3.1-0.6,4.7-0.6c4.8,0,9.4,1.9,12.8,5.3c3.4,3.4,5.3,7.9,5.3,12.8s-1.9,9.4-5.3,12.8l-27,27l-27-27
		c-3.4-3.4-5.3-7.9-5.3-12.8S4.6,14.2,8,10.8c3.4-3.4,7.9-5.3,12.8-5.3c2,0,4,0.3,5.8,1L26.9,5l3.5,0.7l0.1-0.4
		c-3-1.6-6.3-2.4-9.7-2.4C15.2,2.8,10,5,6.1,8.9C2.2,12.8,0,18,0,23.6s2.2,10.7,6.1,14.7L35,67.2l28.9-28.9
		c3.9-3.9,6.1-9.1,6.1-14.7S67.8,12.8,63.9,8.9z"/>
	<path fill="#EC2128" d="M36.3,20.3l6.5-1l-11.2,27l0,0l-0.1,0.2l1.9-19.7l-7.3,0.5l0-0.2l0,0l4.3-21.4l0,0L26.9,5l-0.3,1.5
		l-1.1,5.3c-1.5-0.6-3.1-0.9-4.8-0.9c-3.4,0-6.6,1.3-9,3.7c-2.4,2.4-3.7,5.6-3.7,9c0,3.4,1.3,6.6,3.7,9L35,55.8l23.2-23.2
		c2.4-2.4,3.7-5.6,3.7-9c0-3.4-1.3-6.6-3.7-9c-2.4-2.4-5.6-3.7-9-3.7c-2.5,0-4.8,0.7-6.8,2l2.2-6.8l0.2-0.6l-3.4-1.1L40.2,8
		l-0.1,0.4L36.3,20.3z"/>
</g>
</svg>
