<?xml version="1.0" encoding="utf-8"?>
<!-- Generator: Adobe Illustrator 19.1.0, SVG Export Plug-In . SVG Version: 6.00 Build 0)  -->
<svg version="1.1" baseProfile="tiny" id="Layer_1" xmlns="http://www.w3.org/2000/svg" xmlns:xlink="http://www.w3.org/1999/xlink"
	 x="0px" y="0px" width="70px" height="70px" viewBox="15 -15 70 70" xml:space="preserve">
<g>
	<path fill="#EC2128" d="M55.2-7l-0.1,0.4 M78.9-6.1c-3.9-3.9-9.1-6.1-14.6-6.1c-2.7,0-5.4,0.5-7.9,1.6L55.2-7l1.1-3.5l3.4,1.1
		l-0.2,0.6c1.5-0.4,3.1-0.6,4.7-0.6c4.8,0,9.4,1.9,12.8,5.3s5.3,7.9,5.3,12.8s-1.9,9.4-5.3,12.8l-27,27l-27-27
		c-3.4-3.4-5.3-7.9-5.3-12.8S19.6-0.8,23-4.2s7.9-5.3,12.8-5.3c2,0,4,0.3,5.8,1l0.3-1.5l3.5,0.7l0.1-0.4c-3-1.6-6.3-2.4-9.7-2.4
		c-5.6-0.1-10.8,2.1-14.7,6S15,3,15,8.6s2.2,10.7,6.1,14.7L50,52.2l28.9-28.9c3.9-3.9,6.1-9.1,6.1-14.7S82.8-2.2,78.9-6.1z"/>
	<path fill="#EC2128" d="M51.3,5.3l6.5-1l-11.2,27l-0.1,0.2l1.9-19.7l-7.3,0.5v-0.2l4.3-21.4L41.9-10l-0.3,1.5l-1.1,5.3
		c-1.5-0.6-3.1-0.9-4.8-0.9c-3.4,0-6.6,1.3-9,3.7S23,5.2,23,8.6s1.3,6.6,3.7,9L50,40.8l23.2-23.2c2.4-2.4,3.7-5.6,3.7-9
		s-1.3-6.6-3.7-9c-2.4-2.4-5.6-3.7-9-3.7c-2.5,0-4.8,0.7-6.8,2l2.2-6.8l0.2-0.6l-3.4-1.1L55.2-7l-0.1,0.4
		C55.1-6.6,51.3,5.3,51.3,5.3z"/>
</g>
</svg>
