<?xml version="1.0" encoding="UTF-8"?>
<svg viewBox="0 0 227 117" version="1.1" xmlns="http://www.w3.org/2000/svg" xmlns:xlink="http://www.w3.org/1999/xlink">
    <!-- Generator: Sketch 50.2 (55047) - http://www.bohemiancoding.com/sketch -->
    <title>FreshTracksLogoVertical</title>
    <desc>Created with Sketch.</desc>
    <defs></defs>
    <g id="FreshTracksLogoVertical" stroke="none" stroke-width="1" fill="none" fill-rule="evenodd">
        <g id="Group-Copy">
            <g id="Text" transform="translate(0.000000, 90.000000)" fill="#546E7A">
                <path d="M16.0136719,16.2714844 L6.33496094,16.2714844 L6.33496094,26 L0.70703125,26 L0.70703125,1.828125 L17.7070312,1.828125 L17.7070312,6.14453125 L6.33496094,6.14453125 L6.33496094,11.9550781 L16.0136719,11.9550781 L16.0136719,16.2714844 Z M30.0917969,12.984375 L28.0498047,12.9677734 C27.4078744,12.9677734 26.8821635,13.0756825 26.4726562,13.2915039 C26.063149,13.5073253 25.7587901,13.8144511 25.5595703,14.2128906 L25.5595703,26 L19.9482422,26 L19.9482422,8.03710938 L25.2275391,8.03710938 L25.4267578,10.6767578 C25.8030618,9.7359979 26.3011037,9.00553646 26.9208984,8.48535156 C27.5406932,7.96516667 28.2656208,7.70507812 29.0957031,7.70507812 C29.3613295,7.70507812 29.6324856,7.72444642 29.9091797,7.76318359 C30.1858738,7.80192077 30.4293609,7.84895806 30.6396484,7.90429688 L30.0917969,12.984375 Z M40.7167969,26.3486328 C38.0716014,26.3486328 35.9604571,25.518563 34.3833008,23.8583984 C32.8061445,22.1982339 32.0175781,20.1175255 32.0175781,17.6162109 L32.0175781,16.9853516 C32.0175781,14.2516139 32.7342051,12.0187261 34.1674805,10.2866211 C35.6007559,8.55451608 37.6510283,7.69401036 40.3183594,7.70507812 C42.7532674,7.70507812 44.662428,8.43553957 46.0458984,9.89648438 C47.4293689,11.3574292 48.1210938,13.3385292 48.1210938,15.8398437 L48.1210938,18.7783203 L37.8613281,18.7783203 L37.828125,18.8779297 C37.9498704,19.7965541 38.3261687,20.5519176 38.9570312,21.144043 C39.5878938,21.7361683 40.4290312,22.0322266 41.4804688,22.0322266 C42.5429741,22.0322266 43.3924122,21.9492196 44.0288086,21.7832031 C44.665205,21.6171867 45.4703727,21.3294291 46.4443359,20.9199219 L47.7724609,24.3398437 C46.9866497,24.9153675 45.9711976,25.3940411 44.7260742,25.7758789 C43.4809508,26.1577168 42.1445384,26.3486328 40.7167969,26.3486328 Z M40.3183594,12.0214844 C39.5104126,12.0214844 38.9044617,12.3092419 38.5004883,12.8847656 C38.0965149,13.4602893 37.8502609,14.2294874 37.7617188,15.1923828 L37.8115234,15.2753906 L42.6425781,15.2753906 L42.6425781,14.84375 C42.6425781,13.9361934 42.454429,13.2389347 42.078125,12.7519531 C41.701821,12.2649715 41.1152384,12.0214844 40.3183594,12.0214844 Z M59.8583984,20.953125 C59.8583984,20.5104145 59.6066106,20.1147478 59.1030273,19.7661133 C58.5994441,19.4174787 57.6836004,19.1048191 56.3554688,18.828125 C54.2636614,18.4186177 52.6865288,17.7822309 51.6240234,16.9189453 C50.5615181,16.0556597 50.0302734,14.8769606 50.0302734,13.3828125 C50.0302734,11.8001223 50.6943293,10.4581761 52.0224609,9.35693359 C53.3505926,8.25569111 55.1490772,7.70507812 57.4179688,7.70507812 C59.8086057,7.70507812 61.7122325,8.23908971 63.1289062,9.30712891 C64.54558,10.3751681 65.2207035,11.7558509 65.1542969,13.4492188 L65.1210938,13.5488281 L59.6757813,13.5488281 C59.6757813,12.8404912 59.4959328,12.3037128 59.1362305,11.9384766 C58.7765281,11.5732404 58.1982462,11.390625 57.4013672,11.390625 C56.8147757,11.390625 56.3222676,11.5511052 55.9238281,11.8720703 C55.5253886,12.1930355 55.3261719,12.6025366 55.3261719,13.1005859 C55.3261719,13.5764998 55.5558245,13.9804671 56.0151367,14.3125 C56.4744489,14.6445329 57.4013602,14.943358 58.7958984,15.2089844 C60.9873156,15.6406272 62.6114856,16.2853147 63.668457,17.1430664 C64.7254285,18.0008181 65.2539062,19.2154869 65.2539062,20.7871094 C65.2539062,22.4030029 64.5372793,23.7338815 63.1040039,24.7797852 C61.6707285,25.8256888 59.7754024,26.3486328 57.4179688,26.3486328 C54.971993,26.3486328 53.0379303,25.7288473 51.6157227,24.4892578 C50.193515,23.2496683 49.5156247,21.8662186 49.5820313,20.3388672 L49.6152344,20.2392578 L54.6953125,20.2392578 C54.717448,21.0914756 54.9747697,21.7057273 55.4672852,22.0820312 C55.9598006,22.4583352 56.6598262,22.6464844 57.5673828,22.6464844 C58.3199907,22.6464844 58.889972,22.4998387 59.2773438,22.206543 C59.6647155,21.9132472 59.8583984,21.4954454 59.8583984,20.953125 Z M73.3388672,10.2617188 C73.8811876,9.453772 74.5424766,8.82568583 75.3227539,8.37744141 C76.1030312,7.92919698 76.963537,7.70507812 77.9042969,7.70507812 C79.7636812,7.70507812 81.2246041,8.35253259 82.2871094,9.64746094 C83.3496147,10.9423893 83.8808594,12.9511583 83.8808594,15.6738281 L83.8808594,26 L78.2695312,26 L78.2695312,15.640625 C78.2695312,14.2682223 78.0620138,13.3219427 77.6469727,12.8017578 C77.2319315,12.2815729 76.5983116,12.0214844 75.7460938,12.0214844 C75.2037733,12.0214844 74.7334004,12.1017245 74.3349609,12.262207 C73.9365214,12.4226896 73.6044935,12.6468085 73.3388672,12.9345703 L73.3388672,26 L67.7275391,26 L67.7275391,0.1015625 L73.3388672,0.1015625 L73.3388672,10.2617188 Z M104.167969,6.14453125 L97.7929688,6.14453125 L97.7929688,26 L92.1650391,26 L92.1650391,6.14453125 L85.8398438,6.14453125 L85.8398438,1.828125 L104.167969,1.828125 L104.167969,6.14453125 Z M116.287109,12.984375 L114.245117,12.9677734 C113.603187,12.9677734 113.077476,13.0756825 112.667969,13.2915039 C112.258461,13.5073253 111.954103,13.8144511 111.754883,14.2128906 L111.754883,26 L106.143555,26 L106.143555,8.03710938 L111.422852,8.03710938 L111.62207,10.6767578 C111.998374,9.7359979 112.496416,9.00553646 113.116211,8.48535156 C113.736006,7.96516667 114.460933,7.70507812 115.291016,7.70507812 C115.556642,7.70507812 115.827798,7.72444642 116.104492,7.76318359 C116.381186,7.80192077 116.624673,7.84895806 116.834961,7.90429688 L116.287109,12.984375 Z M129.037109,25.9833984 C128.882161,25.6956366 128.741049,25.3746762 128.61377,25.0205078 C128.48649,24.6663394 128.378581,24.3011087 128.290039,23.9248047 C127.758786,24.6663449 127.116866,25.2556944 126.364258,25.6928711 C125.61165,26.1300478 124.698573,26.3486328 123.625,26.3486328 C121.920564,26.3486328 120.534348,25.8561247 119.466309,24.8710938 C118.398269,23.8860628 117.864258,22.5745525 117.864258,20.9365234 C117.864258,19.1546135 118.531081,17.7794645 119.864746,16.8110352 C121.198412,15.8426058 123.226549,15.3583984 125.949219,15.3583984 L127.991211,15.3583984 L127.991211,14.0800781 C127.991211,13.3164024 127.811362,12.7298198 127.45166,12.3203125 C127.091958,11.9108052 126.535811,11.7060547 125.783203,11.7060547 C125.141273,11.7060547 124.662599,11.8582342 124.347168,12.1625977 C124.031737,12.4669612 123.874023,12.940101 123.874023,13.5820312 L118.445312,13.5654297 L118.412109,13.4658203 C118.334635,11.8277913 119.015292,10.4581761 120.454102,9.35693359 C121.892911,8.25569111 123.796538,7.70507812 126.165039,7.70507812 C128.378592,7.70507812 130.17431,8.25845801 131.552246,9.36523438 C132.930183,10.4720107 133.619141,12.0546772 133.619141,14.1132812 L133.619141,20.8867188 C133.619141,21.8496142 133.699381,22.7405558 133.859863,23.5595703 C134.020346,24.3785848 134.261066,25.1920533 134.582031,26 L129.037109,25.9833984 Z M125.334961,22.3476562 C125.888349,22.3476562 126.397459,22.2369803 126.862305,22.015625 C127.327151,21.7942697 127.703449,21.5065122 127.991211,21.1523438 L127.991211,18.3466797 L125.999023,18.3466797 C125.113602,18.3466797 124.468915,18.5624978 124.064941,18.9941406 C123.660968,19.4257834 123.458984,19.9736295 123.458984,20.6376953 C123.458984,21.1468124 123.633299,21.5590805 123.981934,21.8745117 C124.330568,22.189943 124.781573,22.3476562 125.334961,22.3476562 Z M144.410156,22.0322266 C145.162764,22.0322266 145.721678,21.827476 146.086914,21.4179688 C146.45215,21.0084615 146.634766,20.4052774 146.634766,19.6083984 L151.764648,19.6083984 L151.797852,19.7080078 C151.842123,21.667002 151.164232,23.2635029 149.76416,24.4975586 C148.364088,25.7316142 146.579438,26.3486328 144.410156,26.3486328 C141.687486,26.3486328 139.58741,25.5019616 138.109863,23.8085938 C136.632317,22.1152259 135.893555,19.9183078 135.893555,17.2177734 L135.893555,16.8359375 C135.893555,14.1464709 136.62955,11.9523197 138.101562,10.253418 C139.573575,8.55451625 141.659817,7.70507812 144.360352,7.70507812 C146.640311,7.70507812 148.460931,8.34146499 149.822266,9.61425781 C151.183601,10.8870506 151.842123,12.6191297 151.797852,14.8105469 L151.764648,14.9101562 L146.634766,14.9101562 C146.634766,14.0579384 146.446616,13.3634467 146.070312,12.8266602 C145.694009,12.2898736 145.124027,12.0214844 144.360352,12.0214844 C143.297846,12.0214844 142.55355,12.4586545 142.127441,13.3330078 C141.701333,14.2073611 141.488281,15.3749927 141.488281,16.8359375 L141.488281,17.2177734 C141.488281,18.7229893 141.701333,19.9016884 142.127441,20.7539062 C142.55355,21.6061241 143.314448,22.0322266 144.410156,22.0322266 Z M160.663086,18.8613281 L159.716797,18.8613281 L159.716797,26 L154.105469,26 L154.105469,0.1015625 L159.716797,0.1015625 L159.716797,14.6279297 L160.463867,14.6279297 L164.298828,8.03710938 L170.723633,8.03710938 L165.145508,16.1552734 L171.603516,26 L165.211914,26 L160.663086,18.8613281 Z M182.045898,20.953125 C182.045898,20.5104145 181.794111,20.1147478 181.290527,19.7661133 C180.786944,19.4174787 179.8711,19.1048191 178.542969,18.828125 C176.451161,18.4186177 174.874029,17.7822309 173.811523,16.9189453 C172.749018,16.0556597 172.217773,14.8769606 172.217773,13.3828125 C172.217773,11.8001223 172.881829,10.4581761 174.209961,9.35693359 C175.538093,8.25569111 177.336577,7.70507812 179.605469,7.70507812 C181.996106,7.70507812 183.899733,8.23908971 185.316406,9.30712891 C186.73308,10.3751681 187.408203,11.7558509 187.341797,13.4492188 L187.308594,13.5488281 L181.863281,13.5488281 C181.863281,12.8404912 181.683433,12.3037128 181.32373,11.9384766 C180.964028,11.5732404 180.385746,11.390625 179.588867,11.390625 C179.002276,11.390625 178.509768,11.5511052 178.111328,11.8720703 C177.712889,12.1930355 177.513672,12.6025366 177.513672,13.1005859 C177.513672,13.5764998 177.743325,13.9804671 178.202637,14.3125 C178.661949,14.6445329 179.58886,14.943358 180.983398,15.2089844 C183.174816,15.6406272 184.798986,16.2853147 185.855957,17.1430664 C186.912928,18.0008181 187.441406,19.2154869 187.441406,20.7871094 C187.441406,22.4030029 186.724779,23.7338815 185.291504,24.7797852 C183.858229,25.8256888 181.962902,26.3486328 179.605469,26.3486328 C177.159493,26.3486328 175.22543,25.7288473 173.803223,24.4892578 C172.381015,23.2496683 171.703125,21.8662186 171.769531,20.3388672 L171.802734,20.2392578 L176.882813,20.2392578 C176.904948,21.0914756 177.16227,21.7057273 177.654785,22.0820312 C178.147301,22.4583352 178.847326,22.6464844 179.754883,22.6464844 C180.507491,22.6464844 181.077472,22.4998387 181.464844,22.206543 C181.852215,21.9132472 182.045898,21.4954454 182.045898,20.953125 Z M196.339844,26 L190.745117,26 L190.745117,21.2851562 L196.339844,21.2851562 L196.339844,26 Z M206.234375,26 L200.606445,26 L200.606445,8.03710938 L206.234375,8.03710938 L206.234375,26 Z M206.234375,3.87011719 L200.606445,3.87011719 L200.606445,0.1015625 L206.234375,0.1015625 L206.234375,3.87011719 Z M208.923828,16.8525391 C208.923828,14.1520047 209.687492,11.9523197 211.214844,10.253418 C212.742195,8.55451625 214.872708,7.70507812 217.606445,7.70507812 C220.351251,7.70507812 222.487297,8.55451625 224.014648,10.253418 C225.542,11.9523197 226.305664,14.1520047 226.305664,16.8525391 L226.305664,17.2011719 C226.305664,19.912774 225.542,22.1152259 224.014648,23.8085938 C222.487297,25.5019616 220.362318,26.3486328 217.639648,26.3486328 C214.883775,26.3486328 212.742195,25.5019616 211.214844,23.8085938 C209.687492,22.1152259 208.923828,19.912774 208.923828,17.2011719 L208.923828,16.8525391 Z M214.535156,17.2011719 C214.535156,18.7063877 214.770343,19.8878538 215.240723,20.7456055 C215.711103,21.6033572 216.510737,22.0322266 217.639648,22.0322266 C218.735357,22.0322266 219.521156,21.6005903 219.99707,20.7373047 C220.472984,19.8740191 220.710938,18.69532 220.710938,17.2011719 L220.710938,16.8525391 C220.710938,15.3915943 220.472984,14.2211958 219.99707,13.3413086 C219.521156,12.4614214 218.724289,12.0214844 217.606445,12.0214844 C216.499669,12.0214844 215.711103,12.4641883 215.240723,13.3496094 C214.770343,14.2350305 214.535156,15.402662 214.535156,16.8525391 L214.535156,17.2011719 Z" id="FreshTracks.io"></path>
            </g>
            <g id="Mountain" transform="translate(15.000000, 0.000000)">
                <polygon id="Fill-6" fill="#2196F3" points="28.3544304 72.6547549 29.8793878 80 48.1609296 80 65.8227848 54.6835443 44.884697 70.5932521"></polygon>
                <polygon id="Fill-8" fill="#2196F3" points="59.7468354 73.1130052 62.3439498 80 72.6614791 80 104.303797 34.4303797 69.4383797 61.4103124 69.2898392 66.8076481"></polygon>
                <polygon id="Fill-10" fill="#2196F3" points="102.838444 48.7419103 116.800064 23.2911392 140.759494 54.5494259 115.439382 80 97.01856 80 110.767559 61.7233346 92.1518987 65.4812604 113.525188 46.0090255"></polygon>
                <polygon id="Fill-12" fill="#2196F3" points="134.683544 74.7108621 147.42093 54.6835443 165.063291 70.50418 153.587809 75.9493671 151.322045 68.6239071"></polygon>
                <path d="M106.863628,0.377833938 C109.095884,1.99200333 111.005029,3.43417187 112.502877,4.59200243 L77.5381295,35.7251407 L0,78.9873418 L78.2665927,42.4199809 L116.204345,10.4720292 C116.589286,12.3263303 117.050619,14.6824564 117.525725,17.409167 C118.774378,15.016711 126.588414,-0.0013161882 126.582275,0.000175171096 C126.591684,-0.00870031168 109.575548,0.322403785 106.863628,0.377833938 Z" id="Fill-1" fill="#546E7A"></path>
                <path d="M119.493671,19.4725462 L139.595803,43.1282099 L154.649015,45.364528 L192.405063,77.9746835 L156.191566,36.3558111 L142.873886,32.0111543 L123.347007,10.1265823 L122.23769,12.8216832 C121.324347,15.0390671 120.408111,17.2553605 119.493671,19.4725462" id="Fill-4" fill="#546E7A"></path>
            </g>
        </g>
    </g>
</svg>