<?xml version="1.0" standalone="no"?>
<!DOCTYPE svg PUBLIC "-//W3C//DTD SVG 20010904//EN"
 "http://www.w3.org/TR/2001/REC-SVG-20010904/DTD/svg10.dtd">
<svg version="1.0" xmlns="http://www.w3.org/2000/svg"
 width="2048.000000pt" height="1365.000000pt" viewBox="0 0 2048.000000 1365.000000"
 preserveAspectRatio="xMidYMid meet">

<g transform="translate(0.000000,1365.000000) scale(0.100000,-0.100000)"
fill="#000000" stroke="none">
<path d="M7242 13583 c-1 -40 2 -73 7 -73 5 0 12 -7 15 -16 4 -12 2 -15 -9
-10 -12 4 -15 -3 -14 -37 1 -36 2 -38 9 -17 l8 25 2 -25 2 -25 8 25 c7 21 8
22 9 5 2 -16 5 -14 19 13 17 32 18 32 35 12 9 -11 17 -22 17 -25 0 -7 -64 -39
-72 -37 -5 1 -8 -3 -8 -9 0 -6 -7 -9 -15 -5 -9 3 -15 0 -15 -9 0 -23 -45 -47
-123 -66 -40 -10 -67 -18 -62 -18 20 -2 -128 -71 -151 -71 -19 0 -24 5 -24 24
0 18 -6 26 -22 28 -21 3 -21 4 4 9 15 4 25 2 22 -2 -3 -5 8 -9 25 -9 16 0 33
5 36 10 3 6 23 11 43 11 20 1 -3 6 -52 10 -68 7 -92 6 -98 -4 -5 -9 -10 -8
-20 5 -15 19 -78 35 -78 20 0 -6 -22 -9 -50 -8 -33 2 -54 -2 -61 -11 -9 -9 -8
-13 0 -13 6 0 11 -5 11 -11 0 -9 -23 -10 -77 -6 -72 5 -254 23 -324 31 l-30 3
2 -188 c1 -131 5 -189 13 -192 8 -3 7 -8 -2 -19 -9 -12 -12 -49 -11 -129 1
-106 0 -113 -22 -129 -12 -10 -56 -23 -96 -30 -60 -9 -74 -15 -71 -28 4 -19
-16 -15 548 -93 201 -27 430 -59 510 -70 80 -11 188 -26 240 -33 52 -8 137
-20 188 -27 50 -8 92 -17 92 -22 0 -5 -17 -6 -37 -3 -21 4 -81 8 -133 11 -189
9 -369 23 -378 29 -6 3 -68 8 -138 11 -71 3 -138 7 -149 9 -78 15 -227 31
-385 41 -19 1 -46 5 -59 10 -15 5 -21 4 -17 -3 3 -6 2 -13 -3 -16 -5 -4 -13
-2 -16 4 -4 6 -16 8 -28 5 -17 -5 -19 -4 -7 4 17 12 19 12 -40 16 -25 1 -47 4
-50 5 -3 1 -13 2 -22 1 -10 -1 -26 2 -36 8 -23 12 -36 3 -22 -14 8 -9 6 -14
-5 -19 -9 -3 -15 0 -15 9 0 8 -4 15 -10 15 -11 0 -13 -24 -4 -57 6 -23 50 -37
153 -48 30 -3 64 -8 75 -10 12 -2 44 -7 71 -10 28 -3 79 -9 115 -15 72 -10
211 -30 425 -60 77 -11 154 -22 170 -25 17 -2 89 -11 160 -20 125 -15 270 -42
290 -53 5 -3 30 -5 55 -4 44 2 44 2 20 -12 l-25 -15 30 -2 c18 -1 23 -3 12 -6
-15 -4 -16 -7 -5 -20 10 -13 10 -17 0 -20 -6 -3 -9 -9 -6 -15 4 -7 9 -6 14 2
9 15 52 6 74 -15 8 -8 24 -15 35 -15 12 0 20 -6 18 -12 -1 -9 13 -13 43 -14
51 0 108 -13 116 -25 5 -8 -270 -4 -366 6 -92 10 -146 13 -132 8 6 -3 12 -11
12 -19 0 -8 5 -14 11 -14 6 0 9 -6 6 -14 -6 -15 68 -28 333 -61 69 -9 206 -27
305 -41 236 -32 550 -74 600 -80 22 -2 104 -13 181 -24 78 -11 149 -17 158
-14 16 6 16 62 1 186 -3 20 0 69 5 110 6 45 7 85 1 104 -5 18 -5 36 0 41 7 7
31 224 30 273 -2 110 0 255 4 258 4 5 -25 34 -69 69 -8 7 -25 13 -38 13 -13 0
-31 1 -42 2 -17 1 -18 2 -1 14 9 7 36 15 58 19 23 4 58 11 78 16 34 9 35 10
37 61 0 29 -3 69 -8 88 -6 22 -6 38 0 44 6 6 10 23 10 39 0 17 5 27 11 25 12
-4 20 -178 9 -178 -3 0 -6 -9 -7 -20 -1 -15 4 -20 23 -20 13 0 24 5 24 10 0 6
-7 10 -15 10 -13 0 -13 5 1 41 13 30 14 46 6 63 -5 13 -7 28 -3 34 4 6 7 26 6
44 0 26 -5 33 -25 38 -21 5 -25 12 -26 48 0 27 3 41 10 39 6 -3 10 -10 8 -17
-2 -7 3 -17 10 -21 10 -7 10 -9 1 -9 -7 0 -13 -4 -13 -10 0 -15 40 -12 41 3 0
6 0 43 -1 81 -1 48 3 72 12 77 7 5 9 9 3 9 -11 0 -11 55 0 213 l7 107 -36 0
-36 0 0 -85 c0 -59 -4 -85 -12 -85 -14 0 -361 56 -433 70 -27 5 -176 29 -330
52 l-280 43 -379 2 -378 2 18 -20 c16 -18 16 -19 1 -13 -14 5 -17 -1 -19 -37
-1 -40 -2 -39 -8 16 l-7 60 -1 -72z m278 -63 c0 -5 -2 -10 -4 -10 -3 0 -8 5
-11 10 -3 6 -1 10 4 10 6 0 11 -4 11 -10z m-60 -24 c0 -3 -4 -8 -10 -11 -5 -3
-10 -1 -10 4 0 6 5 11 10 11 6 0 10 -2 10 -4z m-40 -26 c0 -5 -5 -10 -11 -10
-5 0 -7 5 -4 10 3 6 8 10 11 10 2 0 4 -4 4 -10z m-40 -21 c0 -5 -4 -9 -10 -9
-5 0 -10 7 -10 16 0 8 5 12 10 9 6 -3 10 -10 10 -16z m1687 -106 c-3 -10 -5
-2 -5 17 0 19 2 27 5 18 2 -10 2 -26 0 -35z m-2267 -57 c0 -9 -7 -12 -20 -9
-31 8 -34 23 -6 23 16 0 26 -6 26 -14z m-110 -6 c0 -5 -4 -10 -10 -10 -5 0
-10 5 -10 10 0 6 5 10 10 10 6 0 10 -4 10 -10z m-80 -190 c-8 -5 -22 -10 -30
-10 -13 0 -13 1 0 10 8 5 22 10 30 10 13 0 13 -1 0 -10z m-53 -26 c-3 -3 -12
-4 -19 -1 -8 3 -5 6 6 6 11 1 17 -2 13 -5z m-57 -19 c0 -4 -52 -29 -135 -66
-11 -5 -27 -13 -35 -17 -56 -32 -87 -42 -76 -24 6 10 93 54 171 86 61 26 75
30 75 21z"/>
<path d="M9395 13640 c3 -5 15 -10 26 -10 17 0 20 -6 17 -32 -2 -25 1 -34 15
-36 10 -2 17 3 17 12 0 10 9 16 25 16 14 0 25 -6 25 -13 0 -16 -78 -39 -83
-24 -2 6 -9 7 -15 3 -19 -12 -6 -23 48 -41 28 -9 50 -20 50 -25 0 -5 14 -8 30
-8 17 1 33 -2 37 -6 4 -3 -17 -6 -45 -5 -29 1 -52 6 -52 11 0 4 -5 8 -11 8 -5
0 -8 -4 -5 -9 6 -9 -54 -25 -62 -16 -3 3 1 5 9 6 15 1 -88 28 -109 29 -7 0
-10 -5 -6 -11 3 -6 -1 -10 -12 -9 -11 1 -26 2 -34 1 -13 -1 -13 -2 0 -11 11
-6 2 -9 -30 -7 l-45 2 2 -140 c1 -77 2 -213 2 -303 0 -135 3 -163 15 -168 18
-7 15 -59 -9 -152 -9 -35 -14 -66 -11 -69 2 -3 0 -16 -5 -30 -6 -17 -4 -41 6
-78 10 -33 15 -85 14 -137 -4 -160 11 -661 21 -673 5 -6 12 -47 15 -90 8 -108
14 -135 31 -135 10 0 14 -12 14 -39 0 -22 -3 -41 -7 -43 -5 -1 -16 -17 -25
-35 -14 -24 -18 -56 -19 -145 0 -62 -5 -153 -10 -203 -14 -129 -25 -366 -17
-371 3 -2 10 -33 13 -68 7 -64 7 -64 34 -56 14 4 59 18 99 30 40 13 75 20 78
17 3 -3 -14 -11 -37 -17 -72 -19 -163 -51 -176 -61 -10 -9 -8 -115 3 -128 1
-1 25 4 53 14 39 13 58 14 83 6 29 -9 760 -83 764 -78 2 2 11 428 19 872 3
176 8 347 10 380 3 33 7 104 10 158 3 69 9 102 20 113 20 20 23 10 30 -91 2
-44 7 -102 11 -130 3 -27 7 -309 7 -625 l2 -574 25 -6 c22 -5 25 -12 28 -58 3
-49 4 -52 35 -57 28 -4 314 -34 497 -51 36 -3 72 -12 80 -19 12 -10 35 -6 125
22 118 36 247 73 360 103 39 10 111 30 160 45 129 39 265 75 300 80 77 11 105
17 105 26 0 5 11 9 25 9 14 0 25 -4 25 -10 0 -5 -9 -10 -20 -10 -11 0 -20 -3
-20 -8 0 -4 -19 -16 -42 -26 -57 -24 -245 -86 -264 -86 -8 0 -22 -4 -32 -10
-14 -8 -154 -52 -282 -88 -19 -6 -98 -29 -175 -51 -98 -29 -159 -41 -203 -41
-46 0 -63 -3 -60 -12 3 -7 25 -14 49 -15 95 -6 86 18 92 -250 4 -131 5 -249 3
-263 -3 -25 -4 -25 -79 -22 l-76 3 0 -631 0 -631 27 5 c15 3 47 8 71 12 l43 6
-6 -323 c-3 -178 -9 -470 -12 -649 -3 -179 -7 -327 -10 -329 -2 -2 2 -11 9
-19 9 -13 9 -14 0 -8 -9 5 -11 2 -7 -8 4 -11 22 -2 72 37 78 59 200 119 292
144 54 15 107 18 320 18 246 0 258 -1 350 -27 52 -14 104 -30 114 -34 15 -6
17 -4 11 7 -4 8 2 3 15 -9 12 -13 41 -32 64 -41 85 -37 220 -159 310 -281 83
-112 98 -141 80 -158 -11 -10 -16 -7 -29 15 -15 26 -15 19 1 -24 11 -28 -13
-2 -34 36 -9 17 -20 30 -23 29 -3 -2 -35 31 -70 72 -68 80 -118 131 -162 167
-42 35 -32 17 22 -40 82 -86 129 -156 191 -282 59 -120 103 -253 116 -353 6
-49 5 -53 -12 -50 -17 3 -20 -6 -26 -97 -13 -194 -16 -231 -28 -305 -41 -265
-132 -458 -290 -620 -137 -139 -294 -218 -485 -242 -179 -23 -404 29 -576 133
-150 90 -297 244 -379 398 l-32 60 -115 -1 -114 -1 2 -171 c3 -183 -2 -220
-29 -212 -9 3 -84 15 -167 26 -277 40 -419 111 -524 264 -81 117 -111 236
-111 435 0 78 -4 141 -8 141 -4 0 -62 7 -127 15 -66 8 -129 15 -140 15 -21 0
-21 -5 -23 -332 -3 -328 -7 -398 -27 -400 -14 0 -176 21 -254 34 l-63 10 5 79
c2 44 2 79 0 79 -3 0 -14 -11 -24 -24 -57 -73 -194 -126 -323 -126 -115 0
-188 16 -284 60 -191 90 -304 276 -319 531 -3 56 -1 131 6 178 7 46 11 85 8
87 -7 7 -430 64 -475 64 -28 0 -41 -4 -37 -11 4 -5 6 -85 5 -177 -2 -92 -2
-176 -2 -187 2 -64 -11 -324 -18 -334 -5 -9 -39 -8 -139 5 l-133 18 6 250 7
251 -21 -35 -20 -35 5 33 5 32 -49 0 -50 0 -12 -42 c-37 -142 -167 -308 -286
-369 -63 -32 -73 -34 -167 -34 -121 1 -183 21 -277 93 -34 26 -70 52 -80 58
-11 6 -16 14 -11 19 4 5 0 4 -8 -1 -18 -10 -61 -6 -75 7 -5 5 -45 9 -88 9
-112 0 -154 15 -191 67 -16 24 -35 43 -42 43 -18 0 -25 -27 -14 -56 6 -14 10
-59 10 -100 0 -51 10 -113 31 -195 36 -140 34 -175 -10 -166 -15 3 -32 2 -37
-3 -5 -5 -29 -10 -54 -12 -37 -2 -45 -6 -45 -23 0 -17 10 -21 74 -29 53 -7 79
-6 93 3 10 6 23 9 28 6 11 -7 64 -144 67 -175 10 -107 13 -137 18 -147 11 -31
-7 -43 -66 -43 -35 0 -59 -4 -59 -11 0 -15 26 -39 42 -39 7 0 0 -7 -16 -15
-15 -8 -41 -15 -56 -15 -38 0 -51 -20 -44 -66 8 -54 28 -74 63 -64 25 7 29 4
44 -30 16 -37 17 -37 56 -30 23 4 41 6 41 4 0 -2 -11 -28 -24 -58 l-25 -55
-30 15 c-17 9 -31 20 -31 25 0 5 -13 3 -30 -6 -16 -9 -30 -19 -30 -24 0 -4
-11 -13 -25 -19 -24 -11 -26 -15 -21 -72 6 -75 33 -134 64 -138 18 -3 22 -10
22 -41 l0 -39 -81 2 c-103 1 -106 6 -89 125 6 47 18 96 26 108 11 18 12 23 1
30 -8 4 -19 23 -25 42 -15 42 -16 180 -2 217 9 22 7 31 -10 49 -19 20 -21 34
-19 121 2 155 1 154 65 154 57 0 77 19 22 21 -18 1 -37 0 -43 -1 -5 -1 -14 -2
-20 -3 -6 -1 -10 107 -11 308 0 171 -2 423 -3 560 -2 138 0 278 4 311 l7 61
37 -4 c20 -3 54 -11 76 -19 22 -7 49 -14 60 -14 12 0 26 -5 32 -11 6 -6 26
-14 44 -18 19 -4 44 -11 57 -15 21 -7 22 -6 22 68 0 42 -4 76 -9 76 -5 0 -87
11 -182 24 -96 14 -259 37 -364 51 -104 14 -201 27 -215 29 l-25 5 -3 -323
c-2 -177 -7 -337 -11 -356 -6 -30 -11 -35 -37 -38 l-31 -3 -7 -252 c-3 -139
-9 -299 -13 -357 l-6 -106 27 -18 c20 -13 31 -15 41 -6 8 6 53 10 121 8 l108
-3 14 29 c8 16 23 31 33 33 11 3 19 9 19 13 0 5 -9 6 -20 3 -19 -5 -19 -1 -14
153 8 235 7 255 -4 299 -5 22 -13 72 -17 110 -4 39 -10 64 -12 58 -7 -18 -30
-16 -37 3 -9 23 -8 24 13 24 26 0 51 10 51 21 0 5 -8 9 -17 9 -13 0 -14 3 -5
12 7 7 11 26 11 42 l-2 31 -7 -35 c-4 -19 -7 56 -8 168 0 157 2 200 11 188 10
-14 12 -11 14 16 5 92 16 158 24 158 11 0 77 -14 146 -32 29 -7 45 -17 49 -31
12 -39 4 -465 -11 -588 -14 -114 -17 -199 -17 -488 0 -74 -2 -141 -5 -148 -3
-8 -23 -12 -62 -11 -54 1 -101 -13 -101 -32 0 -11 58 -23 115 -24 33 -1 40 -4
40 -21 0 -21 -4 -22 -78 -24 -23 -1 -36 -5 -32 -11 3 -5 13 -10 21 -10 9 0 22
-6 30 -14 7 -8 22 -12 33 -9 27 7 30 -8 29 -217 0 -196 -9 -260 -34 -239 -8 6
-14 8 -14 3 0 -4 -5 -3 -12 4 -7 7 -19 12 -28 12 -17 0 -43 -36 -35 -50 3 -4
-1 -11 -7 -13 -7 -3 2 -6 19 -6 l33 -1 -21 -21 c-16 -16 -18 -23 -8 -35 6 -8
17 -14 24 -14 7 0 15 -7 19 -15 7 -18 29 -16 37 5 7 17 23 -88 17 -116 -3 -15
-11 -19 -42 -17 -21 1 -48 -4 -59 -12 -20 -14 -17 -15 35 -15 l57 0 6 -44 c7
-46 -2 -127 -13 -124 -4 1 -27 -2 -52 -7 -25 -5 -52 -9 -60 -10 -8 -2 -22 -5
-30 -9 -20 -8 -19 -28 -24 344 -4 263 -2 320 10 345 12 24 13 42 3 108 -6 43
-9 98 -6 122 5 34 2 48 -14 69 -19 24 -26 26 -81 23 -67 -4 -74 -10 -83 -77
-4 -25 -12 -56 -20 -69 -12 -23 -13 -22 -19 30 -12 91 -17 109 -36 119 -15 8
-21 6 -29 -9 -6 -11 -15 -194 -21 -437 -11 -475 -18 -604 -31 -604 -5 0 -9 55
-9 123 0 67 -3 310 -7 539 -5 324 -3 421 6 432 10 12 10 21 -1 43 -17 36 -39
36 -49 -1 -4 -15 -8 -110 -8 -210 -1 -258 -10 -394 -28 -400 -9 -4 -12 -13 -8
-26 3 -10 1 -28 -4 -39 -10 -18 -14 -18 -38 -6 -16 8 -40 18 -55 24 -16 6 -28
15 -28 21 0 13 -150 13 -184 0 -20 -7 -26 -17 -26 -39 0 -18 -7 -34 -17 -40
-16 -10 -15 -13 12 -38 l30 -27 3 37 c4 48 23 57 111 54 60 -2 74 -6 87 -25
17 -24 43 -29 62 -10 15 15 22 7 29 -33 6 -42 -15 -59 -73 -59 -55 0 -74 -8
-74 -30 0 -22 68 -78 101 -83 28 -5 38 -25 12 -27 -105 -6 -181 7 -189 32 -7
23 4 78 17 78 19 0 8 20 -20 34 -26 14 -30 14 -45 -3 -9 -9 -19 -32 -22 -49
-5 -25 -3 -32 10 -32 9 0 16 5 16 10 0 6 7 10 15 10 8 0 15 -4 15 -9 0 -22
-14 -41 -30 -41 -23 0 -45 -26 -30 -35 7 -4 8 -11 1 -18 -5 -7 -12 -28 -16
-48 -6 -33 -11 -37 -43 -43 -72 -12 -75 -10 -69 34 4 31 2 40 -10 40 -9 0 -13
6 -10 15 9 23 -11 28 -23 5 -6 -11 -17 -20 -25 -20 -8 0 -15 -6 -15 -12 0 -21
17 -41 28 -34 6 3 13 2 17 -4 10 -16 -45 -24 -80 -11 -38 13 -48 14 -41 2 4
-5 -5 -13 -18 -18 -23 -8 -24 -9 -10 -41 11 -26 18 -32 33 -27 14 4 23 0 30
-14 19 -35 -35 -71 -106 -71 -40 0 -39 7 -13 -122 10 -48 9 -68 -5 -122 -11
-46 -13 -71 -6 -84 18 -34 2 -61 -43 -73 -22 -6 -50 -14 -61 -18 -11 -4 -47
-9 -79 -10 -78 -3 -96 -13 -89 -48 3 -16 5 -36 5 -46 -1 -14 8 -17 44 -17 42
0 44 1 44 30 0 36 28 42 48 10 7 -12 8 -20 2 -20 -5 0 -10 -5 -10 -10 0 -7
126 -8 374 -3 299 5 382 3 419 -7 l46 -14 -25 -22 c-23 -22 -33 -23 -431 -38
-470 -18 -1108 -38 -1268 -40 l-110 -1 -3 31 c-3 29 -1 31 48 42 28 7 84 12
123 13 l72 1 -40 13 c-23 7 -44 9 -50 4 -5 -5 -29 -9 -53 -9 -39 0 -45 3 -55
30 -6 17 -17 30 -23 30 -17 0 -24 24 -24 85 l0 54 32 -10 c39 -11 51 -1 46 37
-3 25 -7 29 -32 27 -16 -1 -33 -8 -38 -15 -4 -7 -8 39 -8 103 l0 115 38 17
c50 22 69 21 77 -3 3 -11 12 -20 19 -20 9 0 15 -18 18 -50 3 -28 8 -54 12 -57
6 -7 21 9 29 31 1 4 21 -1 42 -13 60 -32 214 -25 236 11 12 18 11 86 -1 93
-23 14 -7 22 47 24 31 1 62 6 69 12 7 5 18 32 24 60 7 27 23 65 37 85 45 68
41 69 -165 66 -155 -3 -188 -6 -227 -23 -56 -25 -75 -44 -75 -75 0 -13 -4 -24
-10 -24 -5 0 -7 6 -4 13 2 7 -4 21 -15 31 -11 10 -17 23 -15 30 7 19 -23 41
-38 29 -7 -5 -26 -9 -43 -8 -29 2 -30 4 -39 67 -5 36 -6 81 -2 102 6 31 14 39
54 59 50 24 49 19 40 112 -3 29 -33 55 -63 55 -14 0 -25 53 -25 125 0 75 11
125 26 125 8 0 14 3 14 8 0 4 10 12 22 17 12 6 23 18 24 28 4 31 25 47 61 47
40 0 41 -21 2 -31 -22 -6 -23 -7 -4 -13 46 -16 91 -45 100 -65 12 -27 35 -27
42 -1 3 11 9 20 13 20 16 0 21 39 9 62 -7 13 -15 36 -19 53 -12 60 84 101 130
55 23 -23 19 -40 -11 -40 -17 0 -20 -6 -17 -32 2 -25 11 -36 45 -54 38 -22 42
-22 49 -6 4 9 8 54 9 99 2 75 1 82 -18 87 -12 3 -40 0 -64 -5 -38 -10 -47 -8
-107 22 l-65 33 -18 -21 c-16 -19 -31 -22 -113 -25 l-95 -3 -3 48 c-3 44 -1
48 25 58 21 8 38 7 67 -2 34 -11 40 -11 51 4 16 22 21 21 57 -4 17 -12 27 -27
24 -35 -4 -10 2 -14 18 -14 15 0 26 7 29 18 4 19 44 32 92 32 33 0 40 28 10
40 -19 7 -25 19 -31 56 -4 26 -15 55 -24 64 -20 20 -16 70 5 70 18 0 24 21 13
42 -12 24 -85 43 -104 27 -9 -7 -48 -13 -92 -13 -102 -2 -106 -5 -83 -65 11
-29 16 -66 15 -97 -3 -36 1 -52 13 -61 14 -11 13 -14 -11 -24 -24 -11 -30 -10
-49 9 -25 26 -25 25 -26 1071 0 278 -2 503 -5 500 -2 -2 -10 -222 -17 -489 -7
-267 -15 -566 -18 -665 l-6 -180 -55 -1 c-128 -4 -119 -1 -115 -31 2 -16 4
-29 6 -30 1 -2 2 -9 3 -15 1 -7 10 -13 21 -13 11 0 26 -4 33 -8 8 -6 20 -3 31
7 31 28 56 16 29 -13 -9 -10 -9 -12 -1 -7 6 3 15 1 19 -6 6 -9 10 -5 15 12 4
15 7 -5 7 -50 0 -62 -1 -70 -10 -47 -9 26 -38 38 -38 16 0 -8 -4 -8 -13 -1
-10 8 -16 4 -26 -19 -12 -27 -17 -29 -67 -29 -30 0 -54 5 -54 10 0 6 -6 10
-14 10 -8 0 -22 10 -30 22 -11 16 -16 18 -17 8 -1 -8 -3 -34 -5 -57 -4 -49
-19 -45 148 -49 59 -1 112 -5 118 -9 5 -3 10 -21 10 -40 0 -38 -21 -51 -69
-40 -16 3 -57 1 -91 -5 -45 -8 -65 -8 -75 0 -10 8 -46 8 -136 0 -68 -6 -138
-9 -157 -5 -50 9 -62 -6 -62 -82 0 -35 5 -84 11 -108 10 -39 15 -45 44 -51 17
-3 49 -1 71 5 21 5 132 9 246 8 l207 -2 7 -52 c7 -61 -2 -123 -18 -123 -9 0
-9 -3 0 -12 7 -7 12 -31 12 -55 0 -41 -1 -43 -30 -43 -27 0 -30 -3 -21 -17 5
-10 18 -18 28 -18 17 0 18 -13 21 -170 4 -179 -11 -746 -16 -637 -3 56 -5 62
-21 57 -10 -3 -28 3 -42 14 -19 15 -24 29 -25 68 -2 84 0 81 -56 88 -64 9 -63
9 -64 -13 -3 -52 -40 -74 -119 -69 -25 2 -30 -2 -28 -18 1 -11 4 -47 6 -80 3
-46 7 -61 20 -63 13 -3 15 3 10 32 -11 72 21 115 45 61 17 -37 15 -59 -8 -80
-11 -10 -20 -31 -20 -47 0 -16 -5 -28 -12 -28 -7 0 -53 -5 -103 -10 -144 -17
-199 -38 -145 -55 11 -4 32 -17 48 -29 58 -48 130 -67 242 -65 56 1 137 5 178
10 89 10 107 2 98 -45 -4 -16 -11 -33 -17 -37 -12 -7 -516 -13 -509 -5 3 2 83
7 179 10 96 4 177 9 180 11 7 7 -215 5 -469 -4 -124 -5 -232 -5 -240 -1 -13 8
-13 9 0 14 14 4 163 26 203 29 9 1 17 5 17 9 0 4 9 8 19 8 11 0 23 4 26 10 3
5 0 10 -7 10 -9 0 -9 3 2 10 12 8 11 10 -5 10 -12 0 -26 -5 -33 -12 -9 -9 -12
-9 -12 0 0 6 -17 14 -38 17 -63 11 -74 16 -68 31 4 11 -6 14 -45 14 -63 0 -89
13 -89 46 0 33 27 84 45 84 17 0 24 35 27 145 3 78 2 80 -24 93 -20 9 -28 21
-28 40 0 40 27 74 51 67 11 -4 27 -1 35 6 8 7 14 8 13 3 -6 -32 2 -36 49 -30
29 5 54 15 64 28 18 20 15 44 -3 33 -5 -4 -16 -2 -26 3 -11 6 -28 5 -50 -4
-30 -13 -36 -13 -49 1 -18 18 -26 19 -41 4 -7 -7 -17 0 -33 26 -19 30 -21 43
-14 78 4 23 8 98 9 167 1 134 21 263 39 257 6 -2 11 -12 11 -22 0 -30 19 -27
38 4 14 24 23 29 47 26 21 -2 33 2 43 19 25 38 3 51 -83 51 l-75 0 1 60 c2
158 2 331 1 435 -2 140 5 174 35 164 18 -5 20 -3 13 12 -4 11 -10 44 -13 74
-2 30 -10 61 -16 69 -14 18 -20 278 -16 716 2 182 2 359 1 395 -1 36 -4 203
-7 373 -3 188 -8 307 -14 307 -14 0 -12 28 2 32 9 3 13 122 17 464 2 252 8
547 13 654 11 272 14 600 6 592 -4 -4 -9 -48 -11 -97 -6 -128 2 765 9 1095 6
265 1 356 -10 180 -15 -227 -27 -490 -31 -626 -2 -83 -6 -207 -9 -275 -3 -68
-8 -270 -11 -449 -6 -371 -11 -532 -25 -815 -6 -110 -15 -393 -20 -630 -10
-395 -17 -599 -36 -950 -4 -71 -7 -141 -6 -155 0 -20 -2 -21 -9 -8 -10 18 -12
431 -5 1128 3 316 2 427 -4 345 -5 -66 -14 -340 -20 -610 -20 -938 -44 -1554
-61 -1585 -6 -12 -8 -10 -9 8 0 13 -4 31 -10 41 -5 10 -10 69 -11 130 -2 103
-3 109 -16 84 -9 -18 -16 -68 -18 -143 -1 -63 -3 -123 -4 -133 -2 -29 -21 -9
-21 23 0 16 -7 30 -16 34 -8 3 -12 10 -9 16 4 6 11 8 16 5 5 -4 9 1 9 9 0 9
-6 16 -14 16 -7 0 -30 13 -51 30 -21 17 -48 30 -61 30 -19 0 -24 -7 -31 -52
-7 -44 -12 -54 -31 -56 -12 -2 -22 -7 -22 -12 0 -4 -20 -11 -45 -14 -25 -4
-45 -11 -45 -17 0 -5 -4 -9 -10 -9 -5 0 -10 9 -10 19 0 11 -4 23 -10 26 -14 9
-12 52 3 58 7 4 6 6 -4 6 -22 1 -31 61 -34 224 -1 70 -4 130 -7 132 -3 3 -8
-65 -12 -152 -4 -86 -11 -164 -16 -172 -7 -11 -9 3 -10 44 0 60 0 60 -31 61
-16 1 -35 6 -41 12 -16 16 -17 91 -2 107 17 16 18 35 3 35 -6 0 -8 7 -5 16 3
8 2 12 -4 9 -6 -3 -10 4 -10 17 0 18 -2 20 -10 8 -5 -8 -7 -45 -5 -82 3 -41 1
-68 -5 -68 -6 0 -10 -7 -10 -15 0 -21 -61 -45 -78 -32 -10 8 -16 7 -24 -6 -5
-10 -18 -26 -30 -36 -11 -11 -17 -24 -13 -30 3 -6 -1 -21 -9 -32 -15 -22 -15
-22 -21 7 -9 39 -24 69 -48 95 -27 29 -31 96 -6 104 22 7 26 45 5 45 -8 0 -18
10 -22 23 -17 48 -4 1157 36 3167 13 653 14 786 4 801 -4 7 -3 14 2 16 11 4
11 91 -1 117 -5 11 -3 21 5 26 9 6 10 15 1 41 -11 36 -7 719 5 895 7 89 6 92
-16 99 -48 15 -51 -3 -56 -266 -2 -134 -6 -271 -8 -304 -3 -33 -7 -168 -10
-300 -3 -132 -8 -251 -10 -265 -3 -14 -7 -108 -11 -210 -9 -257 -23 -473 -35
-550 -8 -47 -7 -78 1 -113 6 -26 9 -58 5 -70 -3 -13 -8 -144 -11 -292 -3 -149
-10 -391 -15 -540 -6 -148 -17 -513 -25 -810 -15 -547 -21 -651 -36 -661 -5
-3 -9 1 -9 8 0 9 -3 9 -10 -2 -18 -28 -4 1080 30 2410 9 382 6 993 -6 1049 -4
20 -3 32 2 29 5 -4 9 57 8 145 -1 103 -5 152 -13 155 -9 3 -16 -49 -13 -98 1
-10 -19 -286 -22 -320 -2 -19 -9 -154 -15 -300 -6 -146 -13 -301 -16 -345 -6
-93 -21 -514 -35 -965 -5 -173 -14 -436 -20 -585 -5 -148 -14 -432 -20 -630
-30 -1038 -32 -1071 -67 -1139 -9 -17 -21 -36 -29 -43 -10 -11 -14 -7 -19 17
-4 17 -11 30 -17 30 -8 0 -10 201 -6 703 2 395 1 599 -3 467 -14 -435 -29
-864 -35 -972 -6 -100 -16 -134 -27 -90 -3 9 -6 -8 -7 -38 -3 -48 -4 -43 -11
35 -11 139 -10 1002 1 1575 6 283 13 1107 14 1830 3 1029 7 1332 17 1393 15
88 8 110 -33 115 -45 5 -60 -21 -53 -97 9 -99 7 -354 -5 -535 -6 -89 -15 -280
-20 -426 -6 -146 -14 -364 -19 -485 -5 -121 -12 -330 -16 -465 -11 -450 -25
-944 -30 -1050 -6 -111 -25 -556 -25 -578 0 -7 -4 -10 -10 -7 -6 4 -11 -41
-13 -117 -2 -68 -2 305 1 827 10 1821 10 2729 0 2757 -23 62 -36 9 -43 -177
-7 -175 -23 -507 -35 -745 -6 -107 -12 -235 -15 -285 -2 -49 -7 -133 -10 -185
-5 -90 -23 -628 -45 -1355 -25 -853 -54 -1560 -75 -1860 -3 -44 -10 -148 -14
-231 -5 -83 -12 -157 -17 -165 -4 -7 -8 -48 -9 -91 -1 -60 -5 -82 -20 -98 -25
-28 -42 -25 -79 14 -31 34 -80 54 -90 37 -3 -5 -15 -7 -26 -4 -13 4 -20 0 -20
-9 0 -31 -37 -51 -85 -46 l-45 6 0 -164 c0 -157 1 -163 20 -159 26 5 26 -11 0
-18 -20 -5 -20 -14 -20 -366 0 -234 4 -361 10 -361 6 0 10 -7 10 -15 0 -8 -4
-15 -10 -15 -7 0 -10 -793 -10 -2360 l0 -2360 10240 0 10240 0 0 6825 0 6825
-5546 0 c-3694 0 -5543 -3 -5539 -10z m-48 -166 c-3 -3 -12 -4 -19 -1 -8 3 -5
6 6 6 11 1 17 -2 13 -5z m6 -21 c-7 -2 -21 -2 -30 0 -10 3 -4 5 12 5 17 0 24
-2 18 -5z m2973 -1885 c-2 -227 -5 -451 -7 -498 -2 -82 -2 -83 -9 -30 -5 38
-7 5 -8 -104 -1 -88 -4 -157 -7 -154 -13 13 -22 456 -17 878 0 47 -1 133 -4
192 l-5 106 28 10 c15 6 29 11 31 11 1 1 0 -185 -2 -411z m-2646 -377 c0 -12
-20 -25 -27 -18 -7 7 6 27 18 27 5 0 9 -4 9 -9z m2637 -253 c-3 -8 -6 -5 -6 6
-1 11 2 17 5 13 3 -3 4 -12 1 -19z m0 -75 c-3 -10 -5 -2 -5 17 0 19 2 27 5 18
2 -10 2 -26 0 -35z m0 -125 c-3 -7 -5 -2 -5 12 0 14 2 19 5 13 2 -7 2 -19 0
-25z m-17 -38 c0 -5 -4 -10 -10 -10 -5 0 -10 5 -10 10 0 6 5 10 10 10 6 0 10
-4 10 -10z m20 -31 c0 -4 -6 -10 -12 -13 -9 -3 -8 -8 5 -16 21 -14 23 -73 2
-90 -8 -7 -12 -16 -9 -21 3 -5 -6 -4 -20 3 -21 9 -26 18 -26 50 0 21 4 38 9
38 5 0 11 13 14 28 3 17 12 29 21 29 9 0 16 -4 16 -8z m-2675 -29 c-27 -12
-43 -12 -25 0 8 5 22 9 30 9 10 0 8 -3 -5 -9z m-78 -26 c-3 -3 -12 -4 -19 -1
-8 3 -5 6 6 6 11 1 17 -2 13 -5z m-40 -10 c-3 -3 -12 -4 -19 -1 -8 3 -5 6 6 6
11 1 17 -2 13 -5z m-47 -14 c-8 -5 -22 -9 -30 -9 -10 0 -8 3 5 9 27 12 43 12
25 0z m2742 -18 c10 -38 -40 -65 -69 -37 -11 11 -9 17 13 34 33 26 50 27 56 3z
m-138 -48 c5 -13 2 -15 -14 -11 -11 3 -23 1 -26 -4 -7 -12 -44 -12 -44 1 0 5
15 14 33 19 45 13 44 13 51 -5z m51 6 c13 -5 14 -9 5 -9 -8 0 -24 4 -35 9 -13
5 -14 9 -5 9 8 0 24 -4 35 -9z m-2435 -24 c0 -2 -7 -7 -16 -10 -8 -3 -12 -2
-9 4 6 10 25 14 25 6z m2600 -16 c0 -5 -2 -10 -4 -10 -3 0 -8 5 -11 10 -3 6
-1 10 4 10 6 0 11 -4 11 -10z m-2836 -55 c-17 -8 -44 -16 -60 -20 -16 -3 -6 4
21 14 57 22 86 26 39 6z m2830 -100 c-4 -8 -8 -15 -10 -15 -2 0 -4 7 -4 15 0
8 4 15 10 15 5 0 7 -7 4 -15z m17 -160 c3 22 6 -11 7 -72 0 -62 -4 -115 -9
-119 -5 -3 -9 -30 -9 -60 0 -34 4 -53 10 -49 6 3 10 -3 10 -15 0 -12 -4 -18
-10 -15 -5 3 -10 -1 -10 -10 0 -9 5 -13 11 -10 7 5 9 -109 5 -387 -3 -216 -6
-494 -7 -618 -1 -157 -5 -228 -13 -233 -8 -6 -8 -10 2 -14 7 -3 12 -25 12 -59
0 -37 -4 -54 -12 -54 -10 0 -12 -22 -9 -87 2 -62 6 -82 12 -68 6 14 7 8 4 -20
-11 -85 -13 -116 -16 -320 -2 -115 1 -220 5 -232 4 -15 3 -23 -3 -23 -13 0
-15 48 -11 290 2 196 -11 240 -21 67 -4 -78 -6 -53 -7 103 0 146 2 198 9 180
6 -14 8 -36 5 -50 -2 -14 0 -41 5 -60 6 -24 7 4 4 89 -3 68 -9 129 -15 136
-13 16 -5 131 9 127 6 -1 11 2 11 8 0 5 -4 10 -10 10 -13 0 -13 77 0 82 7 2
10 32 8 78 -3 73 -3 74 -15 40 -10 -29 -12 30 -7 320 2 195 5 500 4 677 0 208
3 324 10 328 5 3 10 33 10 65 0 94 14 105 20 15 5 -66 7 -73 11 -40z m6 -267
c-2 -13 -4 -3 -4 22 0 25 2 35 4 23 2 -13 2 -33 0 -45z m-118 -1035 c-1 -384
-6 -707 -10 -718 -4 -11 -8 -14 -8 -7 -1 7 -5 10 -11 7 -6 -4 -11 6 -11 22 -2
26 -2 25 -9 -7 -4 -22 -7 9 -7 80 0 76 2 101 7 75 7 -38 7 -37 9 20 1 43 4 56
11 45 7 -10 10 7 10 58 0 70 -15 99 -23 45 -2 -16 -5 5 -6 45 -1 75 15 100 22
35 2 -21 2 5 0 57 -3 52 -9 103 -15 113 -7 14 -7 22 3 28 10 6 10 13 1 34 -14
30 -15 169 -2 235 5 27 5 46 -1 48 -12 5 -12 82 1 82 6 0 10 5 10 11 0 5 -4 7
-10 4 -5 -3 -10 0 -10 9 0 8 5 16 12 18 7 3 11 24 9 56 -1 29 2 52 6 52 5 0 7
56 5 125 -2 84 0 125 8 125 7 0 10 -205 9 -697z m-1112 395 c-2 -13 -4 -3 -4
22 0 25 2 35 4 23 2 -13 2 -33 0 -45z m-34 -358 c-9 -20 -21 136 -21 285 0
119 1 118 15 -75 7 -107 10 -201 6 -210z m51 138 c4 -77 3 -118 -4 -118 -5 0
-10 12 -11 28 0 15 -2 74 -3 131 -4 139 10 107 18 -41z m43 60 c-2 -13 -4 -3
-4 22 0 25 2 35 4 23 2 -13 2 -33 0 -45z m55 -43 c3 -50 2 -81 -3 -70 -7 19
-13 173 -5 164 2 -2 6 -44 8 -94z m-199 -54 c2 -54 1 -105 -3 -111 -7 -11 -21
138 -19 214 1 79 18 2 22 -103z m284 67 c-3 -7 -5 -2 -5 12 0 14 2 19 5 13 2
-7 2 -19 0 -25z m-128 -83 c0 -37 -3 -45 -9 -30 -12 29 -12 114 0 95 5 -8 9
-37 9 -65z m-8712 -517 c-1 -40 -3 -8 -3 72 0 80 2 112 3 73 2 -40 2 -106 0
-145z m8550 -10 c-2 -13 -4 -5 -4 17 -1 22 1 32 4 23 2 -10 2 -28 0 -40z
m-8550 -120 c-3 -8 -6 -5 -6 6 -1 11 2 17 5 13 3 -3 4 -12 1 -19z m-10 -351
c-2 -23 -3 -1 -3 48 0 50 1 68 3 42 2 -26 2 -67 0 -90z m9752 91 c-1 -41 -1
-42 -11 -15 -5 15 -7 34 -4 42 10 27 16 16 15 -27z m-42 -30 c-3 -8 -6 -5 -6
6 -1 11 2 17 5 13 3 -3 4 -12 1 -19z m110 -155 c-3 -10 -5 -2 -5 17 0 19 2 27
5 18 2 -10 2 -26 0 -35z m-70 -105 c-3 -7 -5 -2 -5 12 0 14 2 19 5 13 2 -7 2
-19 0 -25z m75 -40 c2 -20 0 -34 -4 -32 -4 3 -8 24 -7 47 1 47 6 41 11 -15z
m-72 -68 c0 -22 -4 -40 -10 -40 -5 0 -10 18 -10 40 0 22 5 40 10 40 6 0 10
-18 10 -40z m105 -10 c3 -5 1 -10 -4 -10 -6 0 -11 5 -11 10 0 6 2 10 4 10 3 0
8 -4 11 -10z m-118 -82 c-3 -7 -5 -2 -5 12 0 14 2 19 5 13 2 -7 2 -19 0 -25z
m121 -43 c-3 -3 -9 2 -12 12 -6 14 -5 15 5 6 7 -7 10 -15 7 -18z m-110 -80
c-3 -3 -9 2 -12 12 -6 14 -5 15 5 6 7 -7 10 -15 7 -18z m-11541 -97 c-3 -7 -5
-2 -5 12 0 14 2 19 5 13 2 -7 2 -19 0 -25z m13670 -233 c215 -41 400 -140 538
-287 119 -126 173 -212 220 -352 31 -91 31 -111 5 -113 -19 -2 -41 25 -46 55
-1 8 -8 21 -16 30 -29 37 -40 68 -46 124 -5 57 -22 92 -22 46 0 -21 -2 -20
-21 10 -12 17 -24 32 -28 32 -4 0 -15 15 -26 33 -34 58 -146 171 -212 215 -33
21 -30 16 23 -39 171 -179 264 -367 298 -599 6 -41 5 -46 -14 -46 -13 0 -20 7
-20 19 0 12 5 17 14 14 10 -4 12 0 8 15 -5 20 -6 20 -19 3 -7 -11 -14 -28 -15
-39 -1 -22 -3 -41 -13 -116 -7 -58 -18 -922 -16 -1239 2 -277 -4 -316 -48
-308 -14 3 -131 20 -259 38 l-233 33 3 765 3 766 -27 81 c-84 247 -273 378
-543 378 -77 0 -115 -5 -167 -23 -183 -61 -316 -213 -369 -418 -21 -84 -21
-89 -34 -970 -3 -211 -8 -390 -11 -398 -8 -19 -1 -19 -206 10 -95 14 -193 27
-216 31 l-44 6 7 646 c4 356 10 859 14 1117 l6 470 205 0 c258 0 478 -8 493
-17 15 -10 22 -9 -107 -14 -61 -2 -111 -5 -112 -7 -1 -1 -4 -39 -7 -84 l-6
-82 34 30 c117 106 287 177 475 198 117 13 462 4 557 -14z m-1662 -465 c0 -7
-6 -15 -12 -17 -8 -3 -13 4 -13 17 0 13 5 20 13 18 6 -3 12 -11 12 -18z m23
-45 c-3 -3 -9 2 -12 12 -6 14 -5 15 5 6 7 -7 10 -15 7 -18z m2402 -265 c0 -5
-5 -10 -11 -10 -5 0 -7 5 -4 10 3 6 8 10 11 10 2 0 4 -4 4 -10z m-2430 -120
c0 -5 -5 -10 -11 -10 -5 0 -7 5 -4 10 3 6 8 10 11 10 2 0 4 -4 4 -10z m-4533
-152 c7 -5 15 -25 19 -44 7 -39 -4 -214 -15 -232 -7 -12 -217 -20 -229 -8 -8
8 -6 277 3 312 l5 21 102 -19 c57 -11 108 -24 115 -30z m-6257 -578 c0 -5 -4
-10 -10 -10 -5 0 -10 5 -10 10 0 6 5 10 10 10 6 0 10 -4 10 -10z m-1549 -10
c22 -13 25 -33 5 -49 -11 -9 -24 -6 -60 17 -25 16 -43 32 -39 36 10 10 72 7
94 -4z m6650 -52 c7 -13 18 -45 25 -73 7 -27 24 -86 37 -130 14 -44 21 -84 16
-89 -14 -16 -37 13 -44 57 -4 23 -22 86 -41 140 -19 55 -31 103 -28 108 9 15
23 10 35 -13z m-4811 -63 c0 -19 -4 -35 -10 -35 -11 0 -14 53 -3 63 11 12 13
8 13 -28z m-35 -3 c7 -18 -19 -42 -45 -42 -9 0 -25 6 -36 14 -15 12 -17 17 -6
27 6 7 12 10 12 5 0 -4 10 0 21 8 24 17 45 12 54 -12z m1525 -12 c0 -5 7 -10
15 -10 21 0 19 -27 -5 -52 -11 -12 -20 -29 -20 -37 0 -11 -4 -10 -15 5 -14 18
-14 18 -15 -8 0 -21 -4 -26 -17 -22 -15 5 -15 4 -4 -4 12 -9 12 -13 2 -26 -8
-9 -10 -16 -6 -16 4 0 2 -7 -5 -15 -8 -10 -21 -13 -34 -9 -29 9 -33 14 -17 23
8 5 15 36 18 77 7 81 13 93 53 88 17 -2 30 1 30 6 0 6 5 10 10 10 6 0 10 -4
10 -10z m5795 -215 c17 -2 32 -4 35 -5 3 -2 9 -2 13 -1 14 2 32 -22 50 -68
l18 -44 -183 7 c-101 4 -190 9 -199 12 -16 4 -35 87 -24 104 5 8 221 4 290 -5z
m-1535 -35 c0 -6 -11 -8 -27 -4 -40 10 -41 14 -5 14 18 0 32 -5 32 -10z m78
-7 c-10 -2 -28 -2 -40 0 -13 2 -5 4 17 4 22 1 32 -1 23 -4z m-5838 -43 c0 -5
-4 -10 -10 -10 -5 0 -10 5 -10 10 0 6 5 10 10 10 6 0 10 -4 10 -10z m-7 -30
c8 -11 12 -31 10 -44 -5 -22 -7 -23 -36 -13 -18 5 -47 10 -65 9 -18 0 -30 4
-27 9 4 5 12 9 19 9 7 0 23 11 36 25 28 30 44 31 63 5z m-148 -50 c3 -5 -1
-10 -9 -10 -9 0 -16 5 -16 10 0 6 4 10 9 10 6 0 13 -4 16 -10z m-333 -179 c23
-1 26 -5 25 -36 l-1 -36 -105 2 c-101 2 -171 17 -171 38 0 28 54 39 160 35 36
-1 77 -3 92 -3z m55 -58 c-3 -10 -5 -2 -5 17 0 19 2 27 5 18 2 -10 2 -26 0
-35z m308 -26 c1 -16 -3 -31 -7 -33 -5 -3 -6 -9 -3 -14 3 -5 -2 -17 -12 -27
-17 -17 -20 -17 -45 -3 -42 23 -34 69 17 98 31 18 50 10 50 -21z m-155 -40 c0
-5 -7 -6 -16 -3 -9 3 -28 9 -42 13 l-27 7 25 6 c25 6 60 -7 60 -23z m136 -95
c-3 -5 24 -24 59 -41 71 -36 81 -55 35 -64 -41 -9 -42 -43 -1 -52 26 -6 31
-12 36 -48 3 -23 4 -91 1 -152 -2 -60 -5 -122 -5 -137 -1 -23 -7 -28 -35 -33
-27 -5 -39 -2 -55 14 -18 18 -25 19 -48 10 -16 -6 -52 -11 -81 -10 -54 2 -82
-12 -82 -43 0 -19 -3 -19 -52 -5 -35 9 -38 13 -38 48 0 94 14 280 20 276 4 -3
15 10 24 28 8 17 16 28 16 22 0 -5 7 -1 16 10 12 16 16 17 23 6 5 -7 13 -11
19 -7 5 3 12 -3 15 -14 3 -11 14 -20 24 -20 10 0 28 -7 40 -15 15 -10 23 -11
25 -4 2 6 27 14 56 17 49 4 52 6 52 32 0 23 -7 31 -37 43 -21 8 -51 29 -67 46
-17 17 -35 31 -40 31 -16 1 -60 39 -53 47 4 3 21 0 38 -7 27 -12 33 -11 43 2
6 9 20 18 31 21 11 2 21 5 23 6 2 0 1 -3 -2 -7z m-157 -38 c21 -5 30 -11 27
-20 -3 -7 -1 -16 4 -19 17 -11 11 -24 -19 -39 -26 -14 -32 -14 -60 0 -29 14
-43 44 -21 44 6 0 10 9 10 20 0 21 9 24 59 14z m-263 -72 c-27 -5 -46 6 -40
22 5 13 9 13 32 -2 22 -14 23 -17 8 -20z m61 -127 c13 -1 26 -4 29 -8 4 -4 13
1 21 11 12 16 13 16 6 -2 -4 -14 -3 -17 6 -12 9 6 10 -29 7 -146 -2 -84 -5
-157 -5 -161 -1 -5 -11 -5 -23 -1 -13 4 -30 8 -38 9 -8 1 -22 4 -30 7 -39 15
-53 18 -76 12 -13 -3 -24 -9 -24 -13 0 -13 57 -28 78 -20 12 5 22 5 22 0 0 -5
20 -14 45 -20 l45 -11 -2 -133 c-1 -72 -3 -108 -5 -79 -4 54 -17 68 -29 30 -6
-21 -7 -21 -20 -4 -16 22 -44 15 -44 -11 0 -10 -7 -26 -14 -36 -16 -21 -10
-57 13 -73 8 -7 22 -34 31 -60 13 -42 18 -49 38 -46 21 3 22 1 22 -78 0 -45
-4 -79 -8 -76 -4 3 -56 0 -115 -6 -141 -13 -191 -6 -206 30 -6 15 -12 98 -14
184 -4 171 3 202 55 229 30 16 39 31 27 45 -7 8 -6 15 1 19 8 5 5 12 -9 21
-10 8 -25 31 -32 51 -10 31 -9 38 5 48 20 15 20 29 0 61 -13 19 -15 39 -10 97
11 133 13 138 59 130 19 -3 47 2 67 11 22 9 48 13 70 9 19 -3 45 -7 57 -8z
m3550 -37 c-3 -8 -6 -5 -6 6 -1 11 2 17 5 13 3 -3 4 -12 1 -19z m841 -109 c10
-183 -3 -261 -47 -283 -14 -7 -40 -14 -58 -14 -31 -1 -32 1 -44 56 -7 37 -9
93 -5 162 10 151 17 178 46 194 23 12 27 11 65 -29 33 -34 40 -50 43 -86z
m-1326 -91 c-4 -17 -2 -20 11 -15 10 4 17 2 17 -4 0 -6 -12 -9 -27 -7 -35 4
-48 48 -15 48 16 0 19 -5 14 -22z m941 -31 c3 -8 21 -22 41 -31 35 -16 35 -18
20 -41 -16 -24 -48 -30 -71 -12 -15 11 -18 97 -4 97 5 0 11 -6 14 -13z m-778
-43 c14 -22 15 -28 4 -35 -8 -5 -17 -9 -21 -9 -14 0 -48 -34 -48 -48 0 -8 -5
-10 -12 -5 -7 4 -29 8 -48 9 -19 0 -50 8 -68 16 l-33 15 26 17 c15 10 41 18
58 18 18 0 41 8 52 18 42 36 68 37 90 4z m-1435 -21 c0 -7 -4 -13 -10 -13 -5
0 -10 12 -10 28 0 21 2 24 10 12 5 -8 10 -21 10 -27z m1624 17 c14 -5 26 -16
26 -25 0 -18 -37 -20 -43 -2 -3 9 -7 9 -20 -2 -15 -12 -17 -11 -17 6 0 34 12
39 54 23z m-3276 -80 c16 0 51 -6 78 -14 27 -8 68 -17 92 -20 39 -6 82 -31 82
-48 0 -5 -15 -8 -34 -8 -33 0 -62 -20 -49 -33 3 -4 19 -7 34 -7 18 0 38 -11
59 -34 20 -21 39 -32 50 -29 22 6 34 -42 14 -58 -8 -6 -11 -15 -8 -20 3 -5 1
-9 -5 -9 -5 0 -11 8 -13 17 -2 13 -8 9 -24 -18 -16 -26 -27 -35 -47 -34 -30 0
-56 31 -59 69 -2 17 -8 26 -20 26 -19 0 -24 -15 -8 -25 6 -3 10 -11 10 -17 0
-6 -8 -4 -18 5 -14 13 -21 14 -30 5 -9 -9 -21 -8 -51 0 -42 13 -56 33 -41 61
10 19 4 58 -13 79 -7 9 -13 10 -24 0 -29 -23 -43 42 -26 123 6 30 7 31 14 11
6 -16 17 -22 37 -22z m2808 -16 c10 -38 10 -64 2 -114 -6 -36 -11 -93 -12
-127 -1 -72 -20 -90 -23 -23 -2 25 -8 70 -14 100 -13 61 -15 95 -7 125 4 11 9
37 13 58 8 50 25 43 41 -19z m612 -16 l-3 -23 -13 23 c-10 18 -10 25 0 36 11
12 13 12 16 0 2 -8 2 -24 0 -36z m-460 -35 c-10 -2 -18 -12 -18 -20 0 -9 -3
-14 -6 -10 -12 11 5 37 23 36 17 -1 17 -2 1 -6z m446 -17 c-3 -8 -1 -17 5 -21
16 -9 13 -25 -4 -25 -11 0 -15 11 -15 36 0 20 4 33 10 29 5 -3 7 -12 4 -19z
m-401 -23 c5 -25 -10 -32 -19 -9 -3 8 -12 12 -20 9 -8 -3 -14 -1 -14 4 0 29
47 25 53 -4z m-33 -33 c0 -5 -4 -10 -10 -10 -5 0 -10 5 -10 10 0 6 5 10 10 10
6 0 10 -4 10 -10z m-1582 -127 c2 -9 -10 -13 -42 -13 -33 0 -46 4 -46 14 0 18
81 17 88 -1z m-1320 -131 c33 -33 34 -52 6 -63 -36 -13 -97 -1 -90 18 3 8 1
11 -4 8 -6 -4 -10 10 -10 33 l0 40 40 -9 c22 -5 48 -17 58 -27z m4102 13 c-1
-5 -16 -11 -33 -11 -18 -1 -24 0 -14 3 9 2 17 9 17 14 0 6 7 9 16 7 8 -2 15
-7 14 -13z m290 -4 c0 -11 9 -20 23 -23 12 -2 130 0 262 4 153 5 262 5 300 -2
33 -5 84 -10 113 -11 40 -2 55 -7 63 -21 7 -13 6 -19 -3 -23 -18 -5 -868 -35
-1015 -35 l-123 0 0 28 c0 41 34 57 103 48 30 -3 96 -3 147 1 84 6 92 8 101
30 10 28 29 31 29 4z m1499 -8 c49 -9 65 -29 29 -37 -20 -5 -480 -26 -557 -26
-33 0 -49 26 -29 46 23 24 455 37 557 17z m-1961 -45 c7 -7 12 -24 12 -39 0
-26 -1 -26 -91 -33 -98 -7 -121 0 -112 35 9 32 10 32 164 47 8 1 20 -3 27 -10z
m-3745 -155 c-18 -2 -48 -2 -65 0 -18 2 -4 4 32 4 36 0 50 -2 33 -4z m4392
-123 c18 -8 17 -9 -7 -9 -16 -1 -28 4 -28 9 0 12 8 12 35 0z m-421 -15 c-5
-12 -15 -14 -43 -9 -20 4 -42 7 -48 7 -7 0 -13 4 -13 9 0 4 25 8 55 8 45 0 53
-3 49 -15z m-1884 -85 c0 -5 -2 -10 -4 -10 -3 0 -8 5 -11 10 -3 6 -1 10 4 10
6 0 11 -4 11 -10z m567 -49 c174 -57 405 -143 492 -183 l43 -21 -6 -120 c-4
-66 -9 -124 -12 -129 -3 -4 -23 -8 -45 -8 -22 0 -54 -6 -72 -14 -23 -9 -48
-11 -87 -5 -72 10 -200 11 -200 1 0 -12 -76 -32 -120 -32 -29 0 -40 -4 -40
-15 0 -10 10 -15 34 -15 19 0 53 -9 77 -20 l44 -20 -37 0 c-26 0 -38 5 -38 14
0 9 -19 15 -62 19 -54 5 -65 3 -81 -14 -13 -13 -25 -18 -39 -13 -13 4 -24 1
-29 -7 -11 -18 -109 -19 -109 -2 0 9 -8 8 -27 -3 -31 -15 -91 -17 -168 -4
l-50 9 48 -2 c26 -1 47 1 47 5 0 5 -20 8 -45 8 -33 0 -45 4 -45 15 0 11 -11
15 -40 15 -43 0 -57 -23 -20 -33 12 -3 18 -11 15 -20 -6 -14 -79 -23 -243 -31
-53 -3 -76 6 -46 18 13 5 14 9 4 21 -16 19 -44 19 -59 1 -10 -11 -8 -16 5 -24
16 -9 16 -10 -3 -20 -12 -7 -32 -8 -49 -3 l-29 8 24 12 24 13 -39 14 c-21 8
-40 14 -41 14 -2 0 -3 -9 -3 -20 0 -11 5 -20 10 -20 6 0 10 -9 10 -20 0 -11
-4 -20 -10 -20 -5 0 -10 9 -10 19 0 17 -9 20 -76 23 -41 2 -81 0 -88 -4 -14
-8 -76 12 -76 24 0 4 5 10 10 13 18 11 11 23 -10 18 -11 -3 -32 2 -46 12 -24
16 -26 21 -22 71 3 30 2 54 -1 54 -9 0 -13 354 -4 366 12 16 136 33 244 34 53
0 107 3 120 5 27 4 354 26 366 24 4 -1 10 -1 13 0 3 1 72 4 155 7 82 3 151 7
153 9 11 11 238 -8 289 -24z m-1390 -243 c-4 -128 -8 -264 -8 -303 -2 -66 -2
-67 -9 -25 -6 38 -8 41 -15 23 -4 -13 -12 -23 -17 -23 -5 0 -6 -9 -3 -20 4
-11 2 -20 -4 -20 -6 0 -11 5 -11 10 0 6 -6 9 -12 8 -7 -2 -14 7 -16 20 -3 22
-42 33 -42 12 0 -5 -17 -9 -37 -9 -21 1 -30 3 -20 6 9 2 17 13 17 23 0 13 -5
17 -15 14 -8 -4 -13 -10 -10 -14 3 -4 -11 -10 -30 -12 -27 -3 -39 1 -55 19
-23 27 -47 32 -89 17 -11 -4 -12 -7 -3 -16 20 -20 14 -31 -13 -24 -14 4 -25 2
-25 -4 0 -5 14 -10 31 -10 19 0 28 -4 23 -11 -3 -6 -17 -8 -30 -5 -14 4 -24 2
-24 -4 0 -5 -18 -10 -40 -10 -29 0 -40 4 -40 15 0 8 5 15 10 15 6 0 10 4 10 8
0 5 -22 15 -50 22 -27 7 -50 17 -50 22 0 13 -75 9 -95 -6 -16 -12 -17 -16 -6
-30 12 -14 10 -16 -19 -16 -29 0 -31 2 -19 16 11 14 11 18 -4 29 -9 7 -17 20
-17 29 0 9 -7 16 -15 16 -9 0 -15 7 -13 16 2 12 -6 17 -31 20 -53 6 -72 34
-79 117 -4 40 -6 113 -4 164 2 77 6 93 20 97 20 6 276 24 437 31 61 2 178 7
260 11 83 3 152 8 154 10 2 2 7 4 9 4 3 0 2 -105 -1 -232z m-1196 109 c4 -16
4 -40 -2 -54 -5 -13 -9 -37 -9 -53 0 -31 -34 -182 -45 -200 -10 -16 -23 -12
-30 10 -3 11 -13 20 -21 20 -12 0 -15 -10 -13 -46 3 -49 -9 -65 -42 -57 -12 3
-19 14 -19 29 0 22 -3 23 -82 26 l-82 3 -8 33 c-5 17 -13 32 -19 32 -6 0 -8
-10 -4 -22 4 -17 3 -19 -3 -8 -13 20 -25 252 -14 268 12 19 195 48 298 47 l87
0 8 -28z m-416 -134 c-4 -65 -7 -127 -7 -138 0 -24 -70 -75 -76 -56 -3 9 -7 9
-18 0 -11 -9 -17 -9 -28 0 -20 17 -27 51 -10 51 8 0 14 5 14 10 0 6 -12 10
-27 10 -16 0 -39 9 -53 20 -32 25 -45 25 -82 -1 -16 -12 -32 -19 -35 -15 -3 3
-13 1 -23 -4 -13 -7 -22 -4 -34 9 -9 10 -37 27 -61 37 -30 12 -45 24 -45 36 0
24 -17 23 -32 -2 -7 -11 -21 -20 -30 -20 -12 0 -18 -8 -18 -21 0 -15 -4 -19
-16 -15 -9 3 -27 9 -40 12 -13 3 -24 10 -24 15 0 5 -9 9 -20 9 -11 0 -20 4
-20 9 0 5 -10 12 -22 16 l-23 8 23 4 c14 3 22 12 22 24 0 10 6 19 13 19 9 0 9
2 -1 9 -10 6 -9 10 7 14 12 3 21 1 21 -4 0 -5 46 -9 103 -8 59 1 91 4 77 8
-24 7 -24 7 9 14 18 4 51 7 72 7 22 0 39 4 39 9 0 5 30 11 68 15 37 3 105 12
152 20 47 7 96 14 109 15 l24 1 -8 -117z m-512 40 c-7 -2 -21 -2 -30 0 -10 3
-4 5 12 5 17 0 24 -2 18 -5z m1327 -243 c0 -5 -4 -10 -10 -10 -5 0 -10 5 -10
10 0 6 5 10 10 10 6 0 10 -4 10 -10z m220 -90 c0 -5 -18 -10 -40 -10 -22 0
-40 5 -40 10 0 6 18 10 40 10 22 0 40 -4 40 -10z m260 0 c0 -5 -4 -10 -10 -10
-5 0 -10 5 -10 10 0 6 5 10 10 10 6 0 10 -4 10 -10z m1845 0 c3 -5 -1 -10 -9
-10 -9 0 -16 5 -16 10 0 6 4 10 9 10 6 0 13 -4 16 -10z m-1422 -67 c-7 -2 -19
-2 -25 0 -7 3 -2 5 12 5 14 0 19 -2 13 -5z"/>
<path d="M12275 10120 c3 -5 10 -10 16 -10 5 0 9 5 9 10 0 6 -7 10 -16 10 -8
0 -12 -4 -9 -10z"/>
<path d="M12273 10015 c0 -27 2 -38 4 -22 2 15 2 37 0 50 -2 12 -4 0 -4 -28z"/>
<path d="M12302 9690 c0 -14 2 -19 5 -12 2 6 2 18 0 25 -3 6 -5 1 -5 -13z"/>
<path d="M12296 9578 c-3 -13 -5 -75 -4 -138 l2 -115 6 135 c3 74 5 136 4 138
-1 1 -4 -8 -8 -20z"/>
<path d="M12292 9190 c0 -14 2 -19 5 -12 2 6 2 18 0 25 -3 6 -5 1 -5 -13z"/>
<path d="M12273 8915 c0 -33 2 -45 4 -27 2 18 2 45 0 60 -2 15 -4 0 -4 -33z"/>
<path d="M12272 8550 c0 -14 2 -19 5 -12 2 6 2 18 0 25 -3 6 -5 1 -5 -13z"/>
<path d="M12160 9121 c0 -25 6 -27 13 -6 4 8 2 17 -3 20 -6 4 -10 -3 -10 -14z"/>
<path d="M12162 8980 c0 -14 2 -19 5 -12 2 6 2 18 0 25 -3 6 -5 1 -5 -13z"/>
<path d="M12173 8250 c0 -25 2 -35 4 -22 2 12 2 32 0 45 -2 12 -4 2 -4 -23z"/>
<path d="M14903 5210 c0 -25 2 -35 4 -22 2 12 2 32 0 45 -2 12 -4 2 -4 -23z"/>
<path d="M1461 4191 c-8 -14 -6 -22 8 -35 10 -9 20 -14 23 -11 3 3 15 7 26 10
12 2 29 8 38 13 15 8 14 11 -7 26 -32 22 -76 21 -88 -3z"/>
<path d="M1658 3553 c7 -3 16 -2 19 1 4 3 -2 6 -13 5 -11 0 -14 -3 -6 -6z"/>
<path d="M4035 2560 c-4 -6 3 -10 14 -10 25 0 27 6 6 13 -8 4 -17 2 -20 -3z"/>
<path d="M4480 2554 c0 -8 5 -12 10 -9 6 4 8 11 5 16 -9 14 -15 11 -15 -7z"/>
<path d="M3858 2518 c16 -8 28 -8 45 0 19 9 17 11 -23 11 -40 0 -42 -2 -22
-11z"/>
<path d="M3220 2572 c0 -23 5 -42 10 -42 7 0 8 14 4 38 -9 51 -14 53 -14 4z"/>
<path d="M1750 2710 c0 -11 4 -20 9 -20 5 0 7 9 4 20 -3 11 -7 20 -9 20 -2 0
-4 -9 -4 -20z"/>
<path d="M1333 2793 c-32 -12 -7 -23 50 -21 49 1 53 2 20 5 -24 2 -43 8 -43
14 0 10 -8 10 -27 2z"/>
<path d="M6848 13473 c12 -2 32 -2 45 0 12 2 2 4 -23 4 -25 0 -35 -2 -22 -4z"/>
<path d="M6928 13473 c6 -2 18 -2 25 0 6 3 1 5 -13 5 -14 0 -19 -2 -12 -5z"/>
<path d="M6641 13348 c-10 -18 -11 -20 0 -10 7 6 20 12 29 12 13 0 13 -2 0
-11 -12 -9 -12 -10 3 -5 10 3 21 6 25 6 7 0 -30 29 -38 30 -3 0 -11 -10 -19
-22z"/>
<path d="M9074 12873 c10 -10 46 -11 46 -1 0 4 -12 8 -27 8 -14 0 -23 -3 -19
-7z"/>
<path d="M9074 12457 c-1 -149 -4 -364 -8 -477 -3 -113 -8 -486 -11 -830 -3
-344 -7 -668 -10 -720 -2 -52 -7 -383 -10 -735 -3 -352 -10 -946 -15 -1320 -5
-374 -10 -764 -10 -867 l0 -188 30 0 30 0 1 923 c1 969 4 1306 13 1652 9 293
21 1653 19 1965 -1 148 0 190 7 190 3 0 6 153 8 340 l2 340 -22 0 -23 0 -1
-273z"/>
<path d="M5710 12629 c0 -11 43 -22 66 -17 10 2 -1 8 -24 14 -23 6 -42 7 -42
3z"/>
<path d="M5828 12603 c18 -2 45 -2 60 0 15 2 0 4 -33 4 -33 0 -45 -2 -27 -4z"/>
<path d="M5876 12441 c-3 -5 -15 -7 -26 -4 -11 3 -28 2 -37 -1 -15 -6 -15 -8
-3 -16 8 -6 30 -10 48 -10 25 0 32 4 32 20 0 21 -5 26 -14 11z"/>
<path d="M5728 12433 c6 -2 18 -2 25 0 6 3 1 5 -13 5 -14 0 -19 -2 -12 -5z"/>
<path d="M7499 12129 c-8 -5 -9 -9 -4 -10 6 0 20 -2 33 -3 12 -2 22 1 22 5 0
11 -37 17 -51 8z"/>
<path d="M7133 11993 c9 -2 23 -2 30 0 6 3 -1 5 -18 5 -16 0 -22 -2 -12 -5z"/>
<path d="M7310 11986 c-9 -12 -6 -16 23 -21 19 -4 43 -5 53 -3 17 3 17 4 0 21
-10 10 -21 15 -24 12 -4 -3 0 -10 8 -15 11 -7 8 -10 -14 -10 -21 0 -27 4 -22
15 7 19 -8 19 -24 1z"/>
<path d="M982 11430 c0 -19 2 -27 5 -17 2 9 2 25 0 35 -3 9 -5 1 -5 -18z"/>
<path d="M3782 11384 c-18 -7 -32 -18 -32 -24 0 -6 -13 -16 -30 -21 -30 -11
-40 -34 -18 -41 7 -3 9 -12 5 -22 -8 -21 -27 -12 -27 14 0 16 -9 13 -67 -22
-37 -22 -74 -48 -82 -56 -16 -15 -23 -84 -8 -75 4 3 13 0 20 -5 13 -11 42 -16
67 -12 9 1 5 5 -8 8 -41 12 -24 27 33 30 32 2 53 7 50 13 -4 5 3 9 14 9 24 0
27 -10 9 -28 -6 -6 -9 -14 -6 -18 4 -3 16 4 27 15 19 19 21 19 21 4 0 -13 3
-14 8 -6 6 9 12 7 25 -7 19 -23 22 -40 6 -40 -26 0 6 -20 34 -21 31 -1 31 -1
7 -9 l-25 -8 26 -1 c15 -1 42 -4 60 -7 26 -4 30 -3 19 5 -12 9 -10 11 10 11
14 0 50 -3 80 -7 l55 -8 -40 -6 -40 -6 40 -2 c22 -1 100 -10 173 -20 132 -18
133 -18 144 2 8 16 12 17 19 6 5 -8 3 -16 -3 -20 -6 -4 19 -10 55 -14 36 -4
70 -4 75 -1 6 3 12 3 14 -2 1 -4 111 -21 243 -36 474 -57 459 -55 620 -83 45
-8 55 -21 55 -74 0 -26 5 -51 10 -54 7 -4 9 -55 5 -143 -5 -154 -11 -446 -25
-1322 -5 -333 -12 -741 -15 -907 l-6 -303 23 0 23 0 1 218 c10 1743 20 2429
37 2450 5 7 18 10 28 7 16 -6 19 -1 19 34 l0 41 53 0 c28 0 106 -7 172 -15
133 -17 187 -19 168 -7 -17 11 -25 71 -14 107 6 19 10 23 10 11 1 -11 4 -17 7
-13 3 3 0 21 -7 41 -10 27 -10 38 0 49 9 11 9 16 0 19 -13 4 -2 118 12 118 5
0 9 12 9 27 0 14 -3 23 -7 20 -3 -4 -14 0 -24 9 -18 16 -32 18 -614 73 -176
17 -363 35 -415 41 -52 5 -120 12 -150 15 -73 6 -254 24 -310 31 -24 3 -92 9
-150 15 -58 5 -157 14 -220 20 -181 17 -215 17 -248 3z m64 -39 c9 -8 11 -15
5 -15 -6 0 -7 -8 -4 -17 6 -17 6 -17 -10 -1 -16 16 -24 48 -11 48 3 0 12 -7
20 -15z m-67 -91 c5 4 15 -2 21 -11 8 -13 13 -14 16 -5 9 20 33 14 27 -8 -6
-21 -21 -28 -76 -35 -31 -4 -35 -2 -40 21 -2 14 -2 35 0 45 5 18 7 19 24 3 10
-9 22 -13 28 -10z m-199 -38 c0 -3 -4 -8 -10 -11 -5 -3 -10 -1 -10 4 0 6 5 11
10 11 6 0 10 -2 10 -4z m305 -96 c3 -5 -1 -10 -10 -10 -9 0 -13 5 -10 10 3 6
8 10 10 10 2 0 7 -4 10 -10z m35 -10 c0 -5 -2 -10 -4 -10 -3 0 -8 5 -11 10 -3
6 -1 10 4 10 6 0 11 -4 11 -10z m107 -36 c-3 -3 -12 -4 -19 -1 -8 3 -5 6 6 6
11 1 17 -2 13 -5z m116 -31 c-13 -2 -33 -2 -45 0 -13 2 -3 4 22 4 25 0 35 -2
23 -4z"/>
<path d="M3376 11286 c3 -8 1 -23 -5 -33 -7 -12 -10 -14 -11 -4 0 11 -4 11
-18 -2 -10 -10 -23 -17 -29 -17 -6 0 -26 -14 -44 -31 -19 -17 -47 -39 -64 -50
l-30 -19 40 -1 40 -2 -45 -7 -45 -7 60 -1 c42 -1 56 1 45 8 -10 7 7 8 54 6 67
-5 100 0 92 13 -2 3 -1 26 4 50 4 25 4 54 0 65 -5 12 -9 15 -9 9 -2 -25 -21
-13 -21 12 0 14 -4 25 -10 25 -5 0 -7 -6 -4 -14z m-23 -143 c-7 -2 -19 -2 -25
0 -7 3 -2 5 12 5 14 0 19 -2 13 -5z"/>
<path d="M3257 11234 c-16 -9 -26 -18 -24 -21 9 -9 45 7 51 22 6 18 8 18 -27
-1z"/>
<path d="M6037 11172 c-21 -4 -20 4 -18 -162 1 -74 7 -140 12 -147 7 -8 4 -25
-9 -57 l-20 -44 24 -6 c32 -8 1543 -154 1989 -192 187 -16 225 -24 225 -48 0
-8 14 -19 30 -25 17 -5 30 -14 30 -18 0 -5 20 -7 44 -5 37 3 46 0 56 -17 6
-12 8 -27 4 -33 -10 -15 66 -3 114 19 21 9 41 15 45 14 10 -2 296 85 357 108
l45 17 9 110 c6 75 5 150 -3 239 -16 175 -12 165 -76 165 -36 0 -55 -4 -58
-14 -8 -19 -91 -30 -115 -15 -24 15 -69 4 -74 -19 -3 -12 -7 -8 -18 16 -18 38
-27 41 -36 8 -6 -25 -29 -36 -80 -36 -29 0 -32 4 -39 36 -7 41 -14 39 -24 -7
-8 -40 9 -37 -296 -43 -277 -6 -476 8 -1340 89 -88 8 -239 22 -335 31 -96 8
-231 20 -300 27 -69 7 -133 11 -143 9z"/>
<path d="M3668 11123 c7 -3 16 -2 19 1 4 3 -2 6 -13 5 -11 0 -14 -3 -6 -6z"/>
<path d="M3540 11100 c0 -6 7 -10 15 -10 8 0 15 2 15 4 0 2 -7 6 -15 10 -8 3
-15 1 -15 -4z"/>
<path d="M3628 11083 c6 -2 18 -2 25 0 6 3 1 5 -13 5 -14 0 -19 -2 -12 -5z"/>
<path d="M2467 10787 c-3 -8 -1 -20 4 -28 6 -10 9 -7 9 14 0 29 -5 35 -13 14z"/>
<path d="M2471 10724 c0 -11 3 -14 6 -6 3 7 2 16 -1 19 -3 4 -6 -2 -5 -13z"/>
<path d="M1176 10608 c-3 -13 -1 -27 4 -32 7 -7 10 1 10 22 0 37 -5 41 -14 10z"/>
<path d="M2462 10525 c0 -16 2 -22 5 -12 2 9 2 23 0 30 -3 6 -5 -1 -5 -18z"/>
<path d="M8780 10365 c-200 -64 -220 -72 -220 -85 0 -5 10 -10 22 -10 12 0 19
-3 15 -6 -3 -4 -45 -8 -93 -10 -48 -2 -90 -6 -92 -9 -3 -3 -7 -152 -8 -333 -9
-943 -25 -2201 -30 -2374 l-6 -198 60 0 60 0 6 153 c3 83 11 733 17 1442 6
710 13 1293 15 1297 2 3 46 4 97 1 82 -5 105 -2 206 25 62 17 114 32 116 34 6
7 12 118 7 122 -4 2 -81 -20 -172 -49z"/>
<path d="M8520 10270 c8 -5 22 -9 30 -9 10 0 8 3 -5 9 -27 12 -43 12 -25 0z"/>
<path d="M8293 9605 c0 -22 2 -30 4 -17 2 12 2 30 0 40 -3 9 -5 -1 -4 -23z"/>
<path d="M2471 9504 c0 -11 3 -14 6 -6 3 7 2 16 -1 19 -3 4 -6 -2 -5 -13z"/>
<path d="M2474 9325 c0 -88 2 -123 3 -77 2 46 2 118 0 160 -1 42 -3 5 -3 -83z"/>
<path d="M2465 9040 c3 -5 8 -10 11 -10 2 0 4 5 4 10 0 6 -5 10 -11 10 -5 0
-7 -4 -4 -10z"/>
<path d="M2324 8700 c0 -91 2 -128 3 -82 2 45 2 119 0 165 -1 45 -3 8 -3 -83z"/>
<path d="M2313 8417 c-1 -52 -1 -52 9 -15 6 21 6 43 1 52 -6 11 -9 -1 -10 -37z"/>
<path d="M8283 8410 c0 -36 2 -50 4 -32 2 17 2 47 0 65 -2 17 -4 3 -4 -33z"/>
<path d="M2314 8175 c0 -93 2 -133 3 -88 2 45 2 122 0 170 -1 48 -3 12 -3 -82z"/>
<path d="M8273 7800 l1 -455 6 430 c3 237 2 441 -2 455 -3 14 -6 -180 -5 -430z"/>
<path d="M10879 7764 c0 -175 -2 -444 -5 -596 -3 -153 -3 -278 0 -278 14 0 92
117 88 134 -3 12 0 16 8 11 9 -5 9 -1 -1 16 -7 13 -12 25 -11 27 1 1 1 95 1
210 -1 114 -3 199 -6 190 -10 -40 -23 -14 -24 50 l-2 67 -7 -72 c-12 -134 -19
-87 -18 123 0 198 -9 424 -18 433 -2 2 -4 -139 -5 -315z m38 -451 c-2 -21 -4
-6 -4 32 0 39 2 55 4 38 2 -18 2 -50 0 -70z m-2 -351 c-17 -15 -18 -15 -6 0 7
9 9 23 5 30 -6 10 -4 11 7 0 11 -10 10 -15 -6 -30z"/>
<path d="M6283 7829 c24 -69 47 -157 53 -198 6 -48 6 -49 -20 -44 -19 4 -26 1
-26 -10 0 -11 8 -15 26 -14 15 1 29 -3 31 -9 2 -7 -7 -11 -22 -11 -37 0 -50
-16 -30 -37 11 -11 14 -21 8 -29 -6 -7 -15 -59 -22 -117 -41 -361 -149 -544
-349 -595 -58 -15 -78 -15 -256 0 -105 9 -210 15 -232 13 -38 -3 -39 -3 -15
-17 26 -15 188 -27 546 -40 127 -4 231 -7 232 -7 0 1 10 55 21 121 23 136 68
270 115 342 37 58 113 152 141 175 l21 17 -22 -6 c-16 -3 -23 -1 -24 8 -2 34
-10 76 -20 100 -5 14 -9 30 -8 35 3 16 -13 74 -22 80 -5 3 -9 13 -9 23 0 20
-94 210 -112 226 -8 7 -9 5 -5 -6z"/>
<path d="M913 7730 c0 -47 2 -66 4 -42 2 23 2 61 0 85 -2 23 -4 4 -4 -43z"/>
<path d="M5421 7464 c-1 -154 -4 -289 -7 -301 -6 -21 12 -33 56 -38 8 -1 23
-6 33 -10 17 -7 84 -1 94 9 3 2 4 68 4 145 -2 135 11 227 28 216 5 -2 11 22
15 55 l7 60 102 -3 c56 -1 107 -5 112 -9 6 -3 29 -3 52 1 26 5 46 4 52 -2 6
-6 11 -7 11 -3 0 5 7 3 15 -4 14 -11 14 -10 5 14 -18 47 -60 94 -103 115 -36
17 -73 21 -258 27 l-216 7 -2 -279z"/>
<path d="M10121 7497 c-2 -255 -10 -233 89 -244 34 -3 72 -1 94 7 l36 12 0
224 0 224 -45 0 c-39 0 -47 -3 -55 -25 -12 -31 -28 -32 -32 -2 -2 18 -10 23
-45 25 l-41 3 -1 -224z"/>
<path d="M7686 7318 c-3 -7 -7 -44 -10 -83 l-6 -69 48 54 c26 30 47 58 46 62
-1 4 -2 17 -2 28 -2 16 -9 20 -37 20 -20 0 -37 -6 -39 -12z"/>
<path d="M7805 7310 c-8 -13 5 -13 25 0 13 8 13 10 -2 10 -9 0 -20 -4 -23 -10z"/>
<path d="M8154 7167 c0 -83 -3 -164 -7 -179 l-7 -28 -104 0 c-143 0 -211 -30
-275 -123 -31 -45 -80 -172 -70 -182 3 -3 56 -8 117 -12 98 -5 112 -4 118 10
3 10 10 17 15 17 4 0 26 17 48 39 24 24 53 41 76 45 20 4 43 10 51 13 19 7 47
-60 42 -99 -4 -25 -1 -28 26 -32 73 -12 303 -17 418 -11 l125 8 -8 36 c-16 66
-12 80 19 76 23 -3 188 -16 230 -18 13 0 20 -20 24 -72 3 -27 7 -30 40 -33 34
-3 38 0 44 25 3 15 13 33 21 40 13 10 13 18 3 50 -28 86 -97 141 -210 167 -36
8 -148 19 -250 25 -102 6 -222 14 -267 17 l-83 6 -2 187 c-3 177 -4 184 -19
153 -17 -35 -29 -33 -29 5 0 20 -5 23 -42 23 l-43 0 -1 -153z m206 -297 c0
-47 -3 -60 -15 -60 -12 0 -14 7 -11 28 2 15 5 42 5 60 2 59 21 33 21 -28z"/>
<path d="M10601 7038 c3 -189 -4 -222 -44 -214 -42 9 -438 28 -445 22 -3 -4 0
-11 7 -15 9 -6 10 -11 2 -15 -18 -11 -15 -240 3 -255 19 -16 143 -25 186 -14
26 7 35 15 36 31 3 51 1 49 62 41 83 -11 230 -23 281 -24 43 0 43 1 63 50 11
28 20 75 20 107 1 52 3 58 26 66 l25 8 -1 188 0 189 -43 1 c-30 1 -47 -3 -58
-16 -20 -23 -27 -23 -34 2 -4 16 -14 20 -47 20 l-42 0 3 -172z"/>
<path d="M7256 7115 c87 -215 113 -365 63 -365 -10 0 -19 -6 -19 -14 0 -17 24
-28 45 -20 10 4 15 0 15 -11 0 -9 -4 -13 -10 -10 -5 3 -18 2 -27 -3 -14 -8
-10 -12 23 -21 21 -6 43 -11 48 -11 12 0 2 221 -11 245 -6 11 -30 59 -53 107
-24 47 -53 99 -67 115 l-24 28 17 -40z"/>
<path d="M6677 7089 c-86 -20 -158 -101 -197 -218 -31 -92 -29 -94 70 -107
112 -14 130 -9 148 46 21 63 95 119 162 125 15 1 33 5 40 10 9 6 11 4 5 -5 -5
-8 -3 -11 6 -8 8 3 23 1 34 -5 19 -10 19 -10 1 19 -78 122 -165 168 -269 143z"/>
<path d="M9410 7060 c12 -19 35 -62 51 -95 26 -54 29 -57 29 -29 0 16 -9 40
-20 52 -11 12 -20 25 -20 29 0 4 -14 24 -31 43 l-31 35 22 -35z"/>
<path d="M12204 7071 c7 -11 46 -35 46 -28 0 3 -12 12 -26 22 -15 9 -23 12
-20 6z"/>
<path d="M9503 6861 c3 -15 9 -52 13 -80 6 -47 5 -52 -11 -49 -23 4 -33 -26
-34 -99 l-1 -51 63 -6 c34 -3 96 -7 138 -9 l77 -4 7 148 c4 81 4 152 1 158 -4
6 -34 11 -67 11 -39 0 -58 -4 -54 -10 12 -20 -17 -42 -44 -35 -39 10 -54 25
-40 41 9 11 5 14 -21 14 -30 0 -32 -2 -27 -29z"/>
<path d="M11451 6784 c-79 -21 -148 -62 -211 -124 -51 -52 -111 -143 -99 -154
2 -3 39 -8 81 -12 l78 -7 41 38 c74 67 138 89 267 93 114 4 114 4 186 -32 46
-22 90 -54 116 -83 39 -42 42 -47 24 -53 -10 -4 -22 -6 -26 -4 -7 4 7 -41 28
-91 27 -65 44 -157 44 -237 0 -138 -45 -253 -131 -340 -144 -144 -375 -125
-522 43 -39 44 -47 49 -107 58 -85 14 -121 14 -100 1 8 -5 29 -10 47 -10 26 0
33 -5 42 -32 38 -107 165 -255 271 -312 63 -34 65 -28 3 12 -51 33 -75 57 -86
85 -5 13 -1 16 18 15 14 -1 25 -6 25 -11 0 -4 4 -5 10 -2 5 3 15 -3 22 -15 7
-11 18 -20 24 -20 19 0 104 -66 97 -75 -5 -4 -3 -5 4 -2 6 4 35 -4 65 -18 70
-33 102 -31 178 7 90 45 169 127 219 230 61 124 75 190 76 348 0 166 -18 245
-86 388 -40 81 -64 117 -117 171 -133 135 -315 190 -481 145z"/>
<path d="M6485 6449 c47 -11 70 -29 36 -29 -12 0 -20 -4 -16 -10 3 -5 11 -7
18 -4 9 3 19 -15 31 -53 25 -80 58 -141 100 -188 l36 -40 -16 42 c-23 61 -16
87 24 91 20 2 32 9 32 18 0 17 37 14 180 -12 47 -9 94 -17 105 -19 100 -13
191 -27 196 -30 3 -3 41 -7 83 -9 42 -3 81 -8 86 -11 6 -4 10 33 10 98 l0 104
-52 7 c-37 5 -53 4 -59 -6 -6 -10 -83 -5 -386 25 -208 21 -394 37 -413 36
l-35 -1 40 -9z"/>
<path d="M4930 6231 c-72 -5 -85 -9 -84 -23 0 -10 1 -39 2 -66 2 -35 8 -54 27
-74 28 -30 32 -48 11 -48 -17 0 -26 -22 -26 -61 0 -29 0 -29 59 -29 50 0 59 3
64 20 3 12 0 20 -8 20 -7 0 -16 11 -19 24 -3 13 -9 31 -12 40 -5 12 0 16 19
16 25 0 37 -16 37 -50 0 -9 7 -23 16 -30 8 -8 14 -9 13 -4 -4 21 2 28 11 14 9
-13 11 -13 20 0 5 8 7 27 4 43 -3 16 -1 27 5 27 6 0 11 7 11 15 0 8 5 15 10
15 6 0 10 11 10 24 0 31 36 76 61 76 14 0 19 7 19 25 0 22 -5 25 -32 25 -18 0
-55 2 -83 4 -27 2 -88 1 -135 -3z"/>
<path d="M8495 6216 c-31 -48 -45 -135 -26 -165 5 -8 20 -15 33 -17 12 -1 26
-3 31 -3 4 -1 7 -9 7 -18 1 -29 39 -106 68 -136 15 -16 45 -38 67 -49 l40 -21
-35 35 c-32 31 -49 78 -28 78 4 0 8 5 8 11 0 6 6 17 14 25 13 12 17 9 37 -24
47 -78 117 -132 174 -132 l25 0 -25 50 c-28 55 -60 168 -51 178 3 3 6 0 6 -6
0 -6 8 -9 18 -7 11 2 40 -1 65 -7 37 -7 48 -15 53 -33 7 -29 1 -116 -10 -133
-19 -31 34 9 69 52 44 54 73 128 82 206 7 68 28 59 -202 90 -82 11 -198 27
-257 35 -139 20 -145 19 -163 -9z"/>
<path d="M2940 6199 c0 -18 2 -19 15 -9 15 12 12 30 -6 30 -5 0 -9 -10 -9 -21z"/>
<path d="M4615 6202 c-13 -13 -3 -53 20 -81 l26 -30 32 18 c27 15 32 24 35 60
l3 42 -55 -2 c-31 -1 -58 -5 -61 -7z"/>
<path d="M4533 6193 c-15 -5 -17 -51 -4 -72 6 -9 13 0 24 33 16 46 12 53 -20
39z"/>
<path d="M3517 6097 c-4 -15 -12 -25 -17 -22 -5 3 -11 1 -15 -5 -3 -5 3 -10
15 -10 23 0 34 19 28 47 -3 13 -6 11 -11 -10z"/>
<path d="M3900 6084 c0 -42 6 -42 14 -1 2 14 0 29 -5 32 -5 4 -9 -11 -9 -31z"/>
<path d="M5129 6023 c-1 -17 -3 -21 -6 -10 -2 9 -11 17 -19 17 -23 0 -16 -14
16 -34 17 -9 28 -21 26 -25 -9 -14 9 -30 24 -20 13 8 13 10 0 19 -10 6 -11 10
-2 10 7 0 12 14 12 38 0 27 -3 33 -10 22 -6 -10 -10 -11 -10 -2 0 26 -30 12
-31 -15z"/>
<path d="M10095 6020 c-3 -5 -1 -10 4 -10 6 0 11 -18 11 -41 0 -68 38 -127 61
-96 3 5 16 -20 29 -55 23 -64 85 -138 115 -138 11 0 10 5 -5 20 -11 11 -20 31
-20 44 0 19 6 25 28 28 21 2 37 -7 70 -40 49 -50 112 -81 163 -82 19 0 60 -4
90 -9 30 -5 77 -12 105 -15 l51 -6 -32 87 c-19 49 -40 121 -48 161 -9 41 -17
76 -20 78 -3 3 -567 84 -589 84 -4 0 -10 -4 -13 -10z"/>
<path d="M2170 5924 c0 -8 5 -12 10 -9 6 4 8 11 5 16 -9 14 -15 11 -15 -7z"/>
<path d="M4534 5841 c-2 -2 -4 -19 -4 -37 0 -27 6 -37 29 -48 15 -8 33 -28 39
-43 5 -15 16 -46 24 -68 12 -36 17 -40 51 -43 47 -4 53 10 63 142 5 78 4 96
-7 98 -28 4 -191 3 -195 -1z"/>
<path d="M2910 5827 c-37 -18 -62 -147 -28 -147 5 0 25 -12 44 -26 19 -15 34
-22 34 -16 0 6 18 18 40 28 37 17 53 34 30 34 -5 0 -10 7 -10 15 0 8 5 15 11
15 6 0 3 7 -5 16 -9 8 -16 28 -16 44 0 22 -6 30 -31 39 -39 13 -38 14 -69 -2z"/>
<path d="M4838 5832 c-9 -17 9 -283 20 -294 13 -13 61 -2 67 15 2 7 6 33 10
59 3 26 13 55 21 63 9 8 11 15 5 15 -6 0 -11 7 -11 16 0 8 5 12 10 9 6 -3 10
5 10 19 0 14 5 28 11 32 19 12 34 -16 34 -65 0 -26 6 -55 14 -65 13 -15 15
-15 27 1 13 17 13 17 14 -1 0 -14 3 -17 11 -9 5 5 13 53 16 105 l5 95 -33 6
c-49 9 -227 8 -231 -1z"/>
<path d="M3499 5778 c0 -24 -3 -55 -5 -69 -5 -28 19 -58 31 -39 3 5 15 10 26
10 12 0 19 7 19 20 0 11 5 20 10 20 6 0 10 -6 9 -12 -3 -27 2 -38 16 -38 8 0
15 5 15 10 0 6 -5 10 -11 10 -6 0 -8 9 -4 20 5 17 2 20 -21 20 -25 0 -26 2
-20 39 6 41 -3 51 -45 51 -16 0 -19 -8 -20 -42z"/>
<path d="M3696 5795 c-10 -14 -14 -34 -11 -45 3 -10 1 -21 -5 -25 -20 -12 -11
-44 15 -51 14 -4 27 -5 29 -3 2 2 6 37 8 77 6 79 -6 93 -36 47z m-9 -97 c-3
-8 -6 -5 -6 6 -1 11 2 17 5 13 3 -3 4 -12 1 -19z"/>
<path d="M5935 5721 c-26 -5 -30 -11 -33 -45 -4 -51 5 -86 22 -86 7 0 19 -7
26 -15 15 -18 40 -3 40 23 0 8 7 24 17 34 14 15 14 24 4 58 -12 42 -17 44 -76
31z"/>
<path d="M2121 5694 c0 -11 3 -14 6 -6 3 7 2 16 -1 19 -3 4 -6 -2 -5 -13z"/>
<path d="M3283 5683 c-3 -10 -8 -22 -11 -26 -2 -5 5 -4 17 2 23 13 27 26 11
36 -6 3 -13 -2 -17 -12z"/>
<path d="M5750 5689 c-8 -8 -27 -20 -42 -26 -44 -19 -37 -93 8 -93 20 0 24 5
24 30 0 17 7 42 16 55 20 30 15 54 -6 34z"/>
<path d="M5236 5579 c-9 -48 -7 -177 3 -184 17 -10 22 32 16 122 -4 48 -8 89
-10 91 -1 1 -5 -12 -9 -29z"/>
<path d="M2884 5571 c7 -11 66 -20 84 -14 28 11 9 23 -39 23 -27 0 -48 -4 -45
-9z"/>
<path d="M4000 5566 c0 -16 37 -28 46 -15 8 14 -5 29 -27 29 -10 0 -19 -6 -19
-14z"/>
<path d="M4662 5573 c-32 -6 -22 -28 14 -28 18 0 29 5 29 14 0 17 -11 20 -43
14z"/>
<path d="M5141 5557 c-14 -17 -4 -27 26 -27 25 0 29 10 11 28 -15 15 -23 15
-37 -1z"/>
<path d="M2611 5544 c0 -11 3 -14 6 -6 3 7 2 16 -1 19 -3 4 -6 -2 -5 -13z"/>
<path d="M2892 5425 c-12 -19 -26 -35 -31 -35 -24 0 -61 21 -61 35 0 16 -9 19
-25 7 -13 -9 -18 -143 -6 -161 8 -12 14 -13 36 -3 38 18 46 15 39 -13 -4 -15
-1 -32 6 -40 10 -13 8 -15 -14 -15 -15 0 -26 6 -26 14 0 7 -7 19 -16 27 -21
18 -31 0 -30 -54 l1 -42 43 -1 c78 -3 185 10 190 24 2 7 -6 12 -22 12 -29 0
-37 27 -11 36 8 4 15 13 15 21 0 8 -5 11 -11 7 -8 -4 -9 9 -6 43 5 61 20 89
49 99 13 4 26 11 30 17 5 9 19 -39 23 -78 1 -13 28 -7 37 8 3 6 9 27 13 46 9
45 -14 65 -66 56 -21 -4 -53 0 -80 9 -24 9 -46 16 -49 16 -3 0 -15 -16 -28
-35z"/>
<path d="M2611 5385 c-7 -36 -22 -82 -32 -102 -10 -21 -19 -45 -19 -54 0 -12
-9 -19 -27 -21 -71 -8 -13 -87 64 -88 40 0 42 2 49 35 3 19 2 86 -3 147 -6 70
-6 115 0 119 10 7 1 29 -12 29 -4 0 -13 -29 -20 -65z"/>
<path d="M4535 5440 c-12 -20 6 -164 23 -182 8 -10 19 -18 23 -18 14 0 49 34
49 47 0 7 5 13 10 13 6 0 10 -7 10 -15 0 -10 10 -15 29 -15 32 0 28 -10 47
120 7 47 9 46 -103 55 -56 4 -83 3 -88 -5z"/>
<path d="M4851 5441 c-11 -7 -13 -31 -8 -121 4 -61 10 -116 13 -122 4 -6 21 5
41 28 19 22 32 33 28 27 -3 -7 -2 -13 3 -13 20 0 30 28 30 81 -1 64 5 77 36
89 21 8 21 8 -4 18 -39 15 -124 23 -139 13z"/>
<path d="M3833 5433 c-28 -5 -28 -11 -1 -63 19 -34 24 -38 29 -23 10 24 11 93
2 92 -5 -1 -18 -4 -30 -6z"/>
<path d="M3840 5301 c0 -5 -3 -17 -6 -25 -5 -12 -2 -15 10 -10 17 7 22 44 6
44 -5 0 -10 -4 -10 -9z"/>
<path d="M5906 5177 c-26 -19 -19 -102 9 -103 11 -1 45 -3 75 -5 l55 -4 1 63
2 62 -62 0 c-35 0 -70 -6 -80 -13z"/>
<path d="M5136 5075 c-3 -8 -2 -25 3 -38 4 -12 6 -28 3 -36 -4 -12 13 -30 31
-31 9 0 9 46 1 89 -7 33 -28 42 -38 16z"/>
<path d="M2582 5042 c-6 -14 -12 -36 -12 -47 0 -12 -3 -25 -6 -28 -12 -11 -44
13 -44 33 0 27 -19 25 -28 -2 -10 -27 -8 -141 2 -157 4 -6 13 -11 21 -11 8 0
16 -4 19 -8 3 -5 -8 -6 -25 -4 -30 4 -40 -11 -13 -22 9 -3 12 -11 8 -18 -6
-10 -5 -11 8 -1 12 11 22 10 49 -4 19 -9 37 -21 42 -27 19 -28 36 66 40 223 2
57 0 65 -23 81 -25 18 -26 18 -38 -8z"/>
<path d="M4537 5002 c-7 -11 4 -62 14 -62 4 0 11 5 14 11 5 7 13 5 24 -5 15
-14 19 -14 34 4 9 11 24 20 32 20 20 0 19 26 -1 34 -22 9 -112 7 -117 -2z"/>
<path d="M4542 4870 c0 -14 2 -19 5 -12 2 6 2 18 0 25 -3 6 -5 1 -5 -13z"/>
<path d="M4655 4870 c-3 -5 -3 -10 2 -10 4 0 2 -4 -6 -9 -7 -5 -9 -11 -4 -14
5 -3 14 3 21 13 7 11 8 21 2 25 -5 3 -11 1 -15 -5z"/>
<path d="M3401 4784 c0 -11 3 -14 6 -6 3 7 2 16 -1 19 -3 4 -6 -2 -5 -13z"/>
<path d="M2785 4780 c-4 -6 14 -10 47 -9 45 1 49 3 23 9 -44 11 -63 11 -70 0z"/>
<path d="M5174 4755 c21 -16 32 -13 21 4 -3 6 -14 11 -23 11 -15 -1 -15 -2 2
-15z"/>
<path d="M4980 4750 c0 -5 16 -10 35 -10 19 0 35 5 35 10 0 6 -16 10 -35 10
-19 0 -35 -4 -35 -10z"/>
<path d="M5191 4694 c0 -11 3 -14 6 -6 3 7 2 16 -1 19 -3 4 -6 -2 -5 -13z"/>
<path d="M2760 4643 c-44 -13 -44 -13 -23 -36 32 -34 37 -74 13 -87 -27 -14
-26 -61 1 -86 18 -16 40 -19 165 -22 141 -4 145 -3 189 23 25 14 53 38 62 53
10 15 22 30 28 34 6 4 1 8 -10 8 -21 1 -78 29 -58 30 6 0 16 14 22 30 8 24 16
30 40 30 48 0 37 20 -11 21 -152 5 -405 6 -418 2z m48 -88 c-6 -14 -15 -25
-19 -25 -4 0 -2 11 4 25 7 14 15 25 19 25 4 0 2 -11 -4 -25z m57 3 c4 -14 8
-18 12 -10 3 7 22 12 46 12 l42 -1 -34 -14 c-18 -8 -48 -15 -66 -15 -29 0 -32
2 -27 25 5 31 17 32 27 3z"/>
<path d="M3242 4635 c10 -11 48 -14 48 -4 0 5 -12 9 -27 9 -14 0 -24 -2 -21
-5z"/>
<path d="M3717 4563 c-10 -9 -9 -43 1 -43 4 0 8 -10 9 -21 1 -12 8 -29 16 -38
8 -9 17 -24 20 -33 12 -33 25 -18 34 35 5 34 13 52 22 52 8 0 16 6 19 13 2 6
-3 12 -12 12 -9 0 -16 7 -16 15 0 11 -11 15 -43 15 -24 0 -47 -3 -50 -7z"/>
<path d="M4505 4539 c-16 -3 -24 -7 -17 -8 6 0 12 -7 12 -15 0 -8 6 -16 13
-19 21 -8 -8 -29 -60 -42 -26 -7 -49 -11 -51 -10 -10 9 27 45 50 50 39 9 35
21 -12 33 -53 13 -80 6 -77 -21 1 -14 -5 -23 -18 -25 -11 -2 -23 -9 -27 -15
-8 -12 0 -63 14 -90 12 -24 0 -63 -15 -48 -15 15 -47 14 -47 -1 0 -7 12 -24
25 -37 14 -13 25 -31 25 -41 0 -11 5 -22 10 -25 14 -9 3 -25 -27 -36 -16 -6
-23 -15 -21 -27 3 -14 14 -17 65 -17 34 0 65 4 69 8 4 4 0 21 -9 36 -9 16 -17
32 -17 35 0 3 20 6 45 6 42 0 44 1 36 23 -15 41 -7 71 25 86 55 26 67 45 76
119 1 6 7 12 14 12 7 0 17 6 21 14 4 7 14 15 21 17 14 5 -6 17 -53 35 -30 11
-37 11 -70 3z"/>
<path d="M3827 4493 c-12 -12 -7 -30 8 -30 17 0 18 6 7 25 -5 7 -11 9 -15 5z"/>
<path d="M4720 4481 c0 -21 36 -61 55 -61 18 0 32 23 17 28 -7 2 -12 10 -12
17 0 7 -13 18 -30 24 -26 9 -30 8 -30 -8z"/>
<path d="M3511 4450 c1 -42 1 -43 9 -16 6 17 5 36 0 45 -7 11 -9 3 -9 -29z"/>
<path d="M4800 4386 c0 -18 35 -22 45 -6 3 6 2 10 -4 10 -5 0 -16 3 -25 6 -11
4 -16 1 -16 -10z"/>
<path d="M4636 4343 c-6 -14 -5 -15 5 -6 7 7 10 15 7 18 -3 3 -9 -2 -12 -12z"/>
<path d="M3234 4168 c-8 -27 5 -78 22 -85 8 -3 21 3 29 13 15 20 21 83 8 85
-5 0 -18 2 -30 3 -15 2 -25 -4 -29 -16z"/>
<path d="M4091 4154 c0 -11 3 -14 6 -6 3 7 2 16 -1 19 -3 4 -6 -2 -5 -13z"/>
<path d="M3500 4150 c0 -5 5 -10 10 -10 6 0 10 5 10 10 0 6 -4 10 -10 10 -5 0
-10 -4 -10 -10z"/>
<path d="M3252 3942 c-29 -5 -39 -29 -20 -49 13 -12 20 -13 37 -3 22 11 22 10
20 -44 -1 -31 1 -59 4 -63 4 -3 7 30 7 74 0 85 -4 92 -48 85z"/>
<path d="M2512 3868 c-7 -7 -12 -19 -12 -28 0 -9 -5 -21 -12 -28 -8 -8 -8 -12
-1 -12 6 0 13 -26 15 -60 5 -71 16 -87 46 -69 18 11 24 10 40 -4 23 -21 71
-22 78 -2 7 16 35 20 50 6 5 -4 21 -11 36 -15 21 -5 30 -2 38 14 12 23 33 26
48 7 13 -16 55 -15 75 1 11 10 12 23 5 65 -13 78 -15 81 -34 63 -8 -9 -21 -16
-29 -16 -7 0 -15 -5 -17 -12 -2 -6 -14 -12 -26 -13 -17 -1 -22 4 -22 21 0 28
-27 56 -49 52 -9 -2 -20 -19 -25 -41 -9 -36 -35 -52 -37 -22 -1 8 -3 20 -4 25
-1 6 -3 21 -4 35 -2 37 -44 55 -71 30 -11 -10 -20 -23 -19 -29 4 -33 -2 -76
-11 -76 -5 0 -9 17 -8 38 1 37 -15 82 -30 82 -5 0 -13 -5 -20 -12z"/>
<path d="M4260 3787 c-36 -18 -36 -76 0 -94 20 -10 27 -10 36 0 22 23 25 64 6
86 -15 18 -20 19 -42 8z"/>
<path d="M4368 3755 c-14 -31 -4 -42 37 -47 28 -3 30 -1 33 35 3 35 2 37 -28
37 -23 0 -33 -6 -42 -25z"/>
<path d="M3510 3695 c0 -8 5 -15 10 -15 6 0 10 7 10 15 0 8 -4 15 -10 15 -5 0
-10 -7 -10 -15z"/>
<path d="M3609 3693 c-7 -7 -8 -34 -4 -67 7 -51 10 -56 32 -56 21 0 23 -3 17
-22 -6 -22 -6 -22 14 2 17 21 22 22 35 11 9 -7 44 -13 79 -14 51 -2 62 1 60
13 -3 12 -1 13 9 3 7 -7 19 -13 27 -13 12 0 12 3 2 15 -10 12 -10 15 3 15 20
0 34 79 19 107 -9 16 -19 18 -82 13 -39 -3 -101 -3 -136 0 -45 4 -68 2 -75 -7z"/>
<path d="M4008 3493 c7 -3 16 -2 19 1 4 3 -2 6 -13 5 -11 0 -14 -3 -6 -6z"/>
<path d="M4108 3493 c7 -3 16 -2 19 1 4 3 -2 6 -13 5 -11 0 -14 -3 -6 -6z"/>
<path d="M3640 3480 l-45 -7 40 -1 c22 0 51 4 65 8 32 10 5 10 -60 0z"/>
</g>
</svg>
