<!--Fork: Replace Grafana branding with placeholder-->
<svg id="svg" version="1.1" xmlns="http://www.w3.org/2000/svg" xmlns:xlink="http://www.w3.org/1999/xlink" width="400" height="400" viewBox="0, 0, 400,400">
  <g id="svgg">
    <path id="path0" d="M25.568 17.493 L 20.136 17.622 18.768 19.033 L 17.400 20.444 17.400 200.122 L 17.400 379.800 18.512 381.039 C 20.271 383.000,19.036 382.986,200.400 382.983 C 375.108 382.979,379.826 382.938,381.381 381.383 C 382.951 379.813,382.991 375.267,382.989 200.200 C 382.986 19.056,382.999 20.271,381.039 18.512 L 379.800 17.400 205.400 17.382 C 109.480 17.372,28.556 17.422,25.568 17.493 M368.767 19.216 C 370.215 19.446,371.978 19.722,372.684 19.832 C 374.107 20.052,373.897 21.725,372.386 22.204 C 371.406 22.515,369.323 24.583,369.017 25.548 C 368.875 25.994,368.449 26.457,368.071 26.577 C 367.197 26.855,364.800 29.029,364.800 29.544 C 364.800 29.758,364.035 30.530,363.100 31.261 C 360.951 32.939,360.400 33.467,360.400 33.846 C 360.400 34.276,358.729 36.000,358.312 36.000 C 357.891 36.000,356.000 37.845,356.000 38.256 C 356.000 38.685,354.321 40.400,353.902 40.400 C 353.466 40.400,352.987 40.889,351.261 43.100 C 350.530 44.035,349.758 44.800,349.544 44.800 C 349.029 44.800,346.855 47.197,346.577 48.071 C 346.457 48.449,345.994 48.875,345.548 49.017 C 344.565 49.329,342.513 51.413,342.192 52.426 C 342.064 52.829,341.594 53.275,341.148 53.417 C 340.165 53.729,338.113 55.813,337.792 56.826 C 337.664 57.229,337.229 57.664,336.826 57.792 C 335.813 58.113,333.729 60.165,333.417 61.148 C 333.275 61.594,332.829 62.064,332.426 62.192 C 331.413 62.513,329.329 64.565,329.017 65.548 C 328.875 65.994,328.449 66.457,328.071 66.577 C 327.197 66.855,324.800 69.029,324.800 69.544 C 324.800 69.758,324.035 70.530,323.100 71.261 C 320.951 72.939,320.400 73.467,320.400 73.846 C 320.400 74.276,318.729 76.000,318.312 76.000 C 317.891 76.000,316.000 77.845,316.000 78.256 C 316.000 78.685,314.321 80.400,313.902 80.400 C 313.466 80.400,312.987 80.889,311.261 83.100 C 310.530 84.035,309.758 84.800,309.544 84.800 C 309.029 84.800,306.855 87.197,306.577 88.071 C 306.457 88.449,305.994 88.875,305.548 89.017 C 304.565 89.329,302.513 91.413,302.192 92.426 C 302.064 92.829,301.594 93.275,301.148 93.417 C 300.165 93.729,298.113 95.813,297.792 96.826 C 297.664 97.229,297.229 97.664,296.826 97.792 C 295.813 98.113,293.729 100.165,293.417 101.148 C 293.275 101.594,292.829 102.064,292.426 102.192 C 291.413 102.513,289.329 104.565,289.017 105.548 C 288.875 105.994,288.449 106.457,288.071 106.577 C 287.197 106.855,284.800 109.029,284.800 109.544 C 284.800 109.758,284.035 110.530,283.100 111.261 C 280.951 112.939,280.400 113.467,280.400 113.846 C 280.400 114.276,278.729 116.000,278.312 116.000 C 277.891 116.000,276.000 117.845,276.000 118.256 C 276.000 118.685,274.321 120.400,273.902 120.400 C 273.466 120.400,272.987 120.889,271.261 123.100 C 270.530 124.035,269.758 124.800,269.544 124.800 C 269.029 124.800,266.855 127.197,266.577 128.071 C 266.457 128.449,265.994 128.875,265.548 129.017 C 264.565 129.329,262.513 131.413,262.192 132.426 C 262.064 132.829,261.594 133.275,261.148 133.417 C 260.165 133.729,258.113 135.813,257.792 136.826 C 257.664 137.229,257.229 137.664,256.826 137.792 C 255.813 138.113,253.729 140.165,253.417 141.148 C 253.275 141.594,252.829 142.064,252.426 142.192 C 251.413 142.513,249.329 144.565,249.017 145.548 C 248.875 145.994,248.449 146.457,248.071 146.577 C 247.197 146.855,244.800 149.029,244.800 149.544 C 244.800 149.758,244.035 150.530,243.100 151.261 C 240.951 152.939,240.400 153.467,240.400 153.846 C 240.400 154.276,238.729 156.000,238.312 156.000 C 237.891 156.000,236.000 157.845,236.000 158.256 C 236.000 158.685,234.321 160.400,233.902 160.400 C 233.466 160.400,232.987 160.889,231.261 163.100 C 230.530 164.035,229.758 164.800,229.544 164.800 C 229.029 164.800,226.855 167.197,226.577 168.071 C 226.457 168.449,225.994 168.875,225.548 169.017 C 224.565 169.329,222.513 171.413,222.192 172.426 C 222.064 172.829,221.594 173.275,221.148 173.417 C 220.165 173.729,218.113 175.813,217.792 176.826 C 217.664 177.229,217.229 177.664,216.826 177.792 C 215.813 178.113,213.729 180.165,213.417 181.148 C 213.275 181.594,212.829 182.064,212.426 182.192 C 211.413 182.513,209.329 184.565,209.017 185.548 C 208.875 185.994,208.449 186.457,208.071 186.577 C 207.193 186.856,204.800 189.030,204.800 189.548 C 204.800 191.596,198.329 192.312,196.649 190.451 C 196.326 190.093,195.193 188.937,194.131 187.881 C 193.069 186.826,192.052 185.804,191.872 185.610 C 191.691 185.415,190.824 184.536,189.944 183.656 C 189.064 182.776,188.185 181.909,187.990 181.728 C 187.796 181.548,186.833 180.590,185.850 179.600 C 184.867 178.610,183.876 177.620,183.648 177.400 C 183.419 177.180,182.439 176.190,181.471 175.200 C 180.502 174.210,179.501 173.220,179.247 173.000 C 178.993 172.780,177.995 171.790,177.030 170.800 C 176.064 169.810,174.943 168.683,174.537 168.295 C 174.132 167.907,173.018 166.799,172.063 165.832 C 171.107 164.866,170.145 163.895,169.925 163.675 C 169.705 163.455,168.687 162.446,167.663 161.432 C 166.638 160.419,165.530 159.305,165.200 158.958 C 164.870 158.610,163.790 157.536,162.800 156.570 C 161.810 155.605,160.820 154.607,160.600 154.353 C 160.380 154.099,159.390 153.098,158.400 152.129 C 157.410 151.161,156.420 150.181,156.200 149.952 C 155.980 149.724,154.990 148.733,154.000 147.750 C 153.010 146.767,152.020 145.771,151.800 145.538 C 151.282 144.987,148.613 142.318,148.062 141.800 C 147.829 141.580,146.833 140.590,145.850 139.600 C 144.867 138.610,143.876 137.620,143.648 137.400 C 143.419 137.180,142.439 136.190,141.471 135.200 C 140.502 134.210,139.501 133.220,139.247 133.000 C 138.993 132.780,137.995 131.790,137.030 130.800 C 136.064 129.810,134.990 128.730,134.642 128.400 C 134.295 128.070,133.210 126.990,132.231 126.000 C 130.030 123.774,129.826 123.570,127.600 121.369 C 126.610 120.390,125.530 119.305,125.200 118.958 C 124.870 118.610,123.790 117.536,122.800 116.570 C 121.810 115.605,120.820 114.607,120.600 114.353 C 120.380 114.099,119.390 113.098,118.400 112.129 C 117.410 111.161,116.420 110.181,116.200 109.952 C 115.980 109.724,114.990 108.733,114.000 107.750 C 113.010 106.767,112.085 105.836,111.944 105.681 C 111.610 105.315,108.285 101.990,107.919 101.656 C 107.764 101.515,106.833 100.590,105.850 99.600 C 104.867 98.610,103.876 97.620,103.648 97.400 C 103.419 97.180,102.439 96.190,101.471 95.200 C 100.502 94.210,99.501 93.220,99.247 93.000 C 98.993 92.780,97.995 91.790,97.030 90.800 C 96.064 89.810,94.943 88.683,94.537 88.295 C 94.132 87.907,93.046 86.827,92.125 85.895 C 90.069 83.813,90.090 83.835,87.725 81.495 C 86.666 80.447,85.530 79.305,85.200 78.958 C 84.870 78.610,83.790 77.536,82.800 76.570 C 81.810 75.605,80.820 74.607,80.600 74.353 C 80.380 74.099,79.390 73.098,78.400 72.129 C 77.410 71.161,76.420 70.181,76.200 69.952 C 75.980 69.724,74.990 68.733,74.000 67.750 C 73.010 66.767,72.052 65.804,71.872 65.610 C 71.446 65.151,68.449 62.154,67.990 61.728 C 67.796 61.548,66.833 60.590,65.850 59.600 C 64.867 58.610,63.876 57.620,63.648 57.400 C 63.419 57.180,62.439 56.190,61.471 55.200 C 60.502 54.210,59.501 53.220,59.247 53.000 C 58.993 52.780,57.995 51.790,57.030 50.800 C 56.064 49.810,54.990 48.730,54.642 48.400 C 54.295 48.070,53.153 46.934,52.105 45.875 C 49.766 43.511,49.798 43.543,47.653 41.422 C 46.692 40.472,45.612 39.387,45.253 39.010 C 44.894 38.634,43.790 37.536,42.800 36.570 C 41.810 35.605,40.820 34.607,40.600 34.353 C 40.380 34.099,39.390 33.098,38.400 32.129 C 37.410 31.161,36.420 30.181,36.200 29.952 C 35.980 29.724,34.990 28.733,34.000 27.750 C 33.010 26.767,32.020 25.771,31.800 25.538 C 30.960 24.645,28.169 21.887,27.500 21.287 C 26.494 20.386,26.627 20.063,28.100 19.836 C 28.815 19.726,30.300 19.469,31.400 19.265 C 34.318 18.724,365.354 18.677,368.767 19.216 M22.400 28.091 C 22.400 28.718,24.827 31.200,25.439 31.200 C 25.704 31.200,26.278 31.805,26.714 32.544 C 27.150 33.284,28.203 34.409,29.054 35.044 C 29.904 35.680,30.673 36.380,30.762 36.600 C 30.982 37.145,33.551 39.627,34.900 40.598 C 35.505 41.034,36.000 41.609,36.000 41.878 C 36.000 42.146,36.654 42.869,37.453 43.483 C 38.253 44.097,39.198 44.948,39.553 45.374 C 40.393 46.380,47.220 53.207,48.226 54.047 C 48.652 54.402,49.503 55.347,50.117 56.147 C 50.731 56.946,51.454 57.600,51.722 57.600 C 51.991 57.600,52.566 58.095,53.002 58.700 C 53.973 60.049,56.455 62.618,57.000 62.838 C 57.220 62.927,57.920 63.696,58.556 64.546 C 59.191 65.397,60.316 66.450,61.056 66.886 C 61.795 67.322,62.400 67.878,62.400 68.120 C 62.400 68.725,64.842 71.200,65.439 71.200 C 65.704 71.200,66.278 71.805,66.714 72.544 C 67.150 73.284,68.203 74.409,69.054 75.044 C 69.904 75.680,70.673 76.380,70.762 76.600 C 70.982 77.145,73.551 79.627,74.900 80.598 C 75.505 81.034,76.000 81.609,76.000 81.878 C 76.000 82.146,76.654 82.869,77.453 83.483 C 78.253 84.097,79.198 84.948,79.553 85.374 C 80.393 86.380,87.220 93.207,88.226 94.047 C 88.652 94.402,89.503 95.347,90.117 96.147 C 90.731 96.946,91.454 97.600,91.722 97.600 C 91.991 97.600,92.566 98.095,93.002 98.700 C 93.973 100.049,96.455 102.618,97.000 102.838 C 97.220 102.927,97.920 103.696,98.556 104.546 C 99.191 105.397,100.316 106.450,101.056 106.886 C 101.795 107.322,102.400 107.878,102.400 108.120 C 102.400 108.725,104.842 111.200,105.439 111.200 C 105.704 111.200,106.278 111.805,106.714 112.544 C 107.150 113.284,108.203 114.409,109.054 115.044 C 109.904 115.680,110.673 116.380,110.762 116.600 C 110.982 117.145,113.551 119.627,114.900 120.598 C 115.505 121.034,116.000 121.609,116.000 121.878 C 116.000 122.146,116.654 122.869,117.453 123.483 C 118.253 124.097,119.198 124.948,119.553 125.374 C 119.909 125.800,121.832 127.780,123.826 129.774 C 125.820 131.768,127.800 133.691,128.226 134.047 C 128.652 134.402,129.503 135.347,130.117 136.147 C 130.731 136.946,131.454 137.600,131.722 137.600 C 131.991 137.600,132.566 138.095,133.002 138.700 C 133.973 140.049,136.455 142.618,137.000 142.838 C 137.220 142.927,137.920 143.696,138.556 144.546 C 139.191 145.397,140.316 146.450,141.056 146.886 C 141.795 147.322,142.400 147.878,142.400 148.120 C 142.400 148.725,144.842 151.200,145.439 151.200 C 145.704 151.200,146.278 151.805,146.714 152.544 C 147.150 153.284,148.203 154.409,149.054 155.044 C 149.904 155.680,150.673 156.380,150.762 156.600 C 150.982 157.145,153.551 159.627,154.900 160.598 C 155.505 161.034,156.000 161.609,156.000 161.878 C 156.000 162.146,156.654 162.869,157.453 163.483 C 158.253 164.097,159.198 164.948,159.553 165.374 C 160.393 166.380,167.220 173.207,168.226 174.047 C 168.652 174.402,169.503 175.347,170.117 176.147 C 170.731 176.946,171.454 177.600,171.722 177.600 C 171.991 177.600,172.566 178.095,173.002 178.700 C 173.973 180.049,176.455 182.618,177.000 182.838 C 177.220 182.927,177.920 183.696,178.556 184.546 C 179.191 185.397,180.316 186.450,181.056 186.886 C 181.795 187.322,182.400 187.878,182.400 188.120 C 182.400 188.725,184.842 191.200,185.439 191.200 C 185.704 191.200,186.290 191.825,186.741 192.590 C 187.192 193.354,188.276 194.479,189.150 195.090 C 192.278 197.275,192.586 204.800,189.548 204.800 C 189.030 204.800,186.856 207.193,186.577 208.071 C 186.457 208.449,185.994 208.875,185.548 209.017 C 184.565 209.329,182.513 211.413,182.192 212.426 C 182.064 212.829,181.594 213.275,181.148 213.417 C 180.165 213.729,178.113 215.813,177.792 216.826 C 177.664 217.229,177.229 217.664,176.826 217.792 C 175.813 218.113,173.729 220.165,173.417 221.148 C 173.275 221.594,172.829 222.064,172.426 222.192 C 171.413 222.513,169.329 224.565,169.017 225.548 C 168.875 225.994,168.449 226.457,168.071 226.577 C 167.197 226.855,164.800 229.029,164.800 229.544 C 164.800 229.758,164.035 230.530,163.100 231.261 C 160.951 232.939,160.400 233.467,160.400 233.846 C 160.400 234.276,158.729 236.000,158.312 236.000 C 157.891 236.000,156.000 237.845,156.000 238.256 C 156.000 238.685,154.321 240.400,153.902 240.400 C 153.466 240.400,152.987 240.889,151.261 243.100 C 150.530 244.035,149.758 244.800,149.544 244.800 C 149.029 244.800,146.855 247.197,146.577 248.071 C 146.457 248.449,145.994 248.875,145.548 249.017 C 144.565 249.329,142.513 251.413,142.192 252.426 C 142.064 252.829,141.594 253.275,141.148 253.417 C 140.165 253.729,138.113 255.813,137.792 256.826 C 137.664 257.229,137.229 257.664,136.826 257.792 C 135.813 258.113,133.729 260.165,133.417 261.148 C 133.275 261.594,132.829 262.064,132.426 262.192 C 131.413 262.513,129.329 264.565,129.017 265.548 C 128.875 265.994,128.449 266.457,128.071 266.577 C 127.197 266.855,124.800 269.029,124.800 269.544 C 124.800 269.758,124.035 270.530,123.100 271.261 C 120.951 272.939,120.400 273.467,120.400 273.846 C 120.400 274.276,118.729 276.000,118.312 276.000 C 117.891 276.000,116.000 277.845,116.000 278.256 C 116.000 278.685,114.321 280.400,113.902 280.400 C 113.466 280.400,112.987 280.889,111.261 283.100 C 110.530 284.035,109.758 284.800,109.544 284.800 C 109.029 284.800,106.855 287.197,106.577 288.071 C 106.457 288.449,105.994 288.875,105.548 289.017 C 104.565 289.329,102.513 291.413,102.192 292.426 C 102.064 292.829,101.594 293.275,101.148 293.417 C 100.165 293.729,98.113 295.813,97.792 296.826 C 97.664 297.229,97.229 297.664,96.826 297.792 C 95.813 298.113,93.729 300.165,93.417 301.148 C 93.275 301.594,92.829 302.064,92.426 302.192 C 91.413 302.513,89.329 304.565,89.017 305.548 C 88.875 305.994,88.449 306.457,88.071 306.577 C 87.197 306.855,84.800 309.029,84.800 309.544 C 84.800 309.758,84.035 310.530,83.100 311.261 C 80.951 312.939,80.400 313.467,80.400 313.846 C 80.400 314.276,78.729 316.000,78.312 316.000 C 77.891 316.000,76.000 317.845,76.000 318.256 C 76.000 318.685,74.321 320.400,73.902 320.400 C 73.466 320.400,72.987 320.889,71.261 323.100 C 70.530 324.035,69.758 324.800,69.544 324.800 C 69.029 324.800,66.855 327.197,66.577 328.071 C 66.457 328.449,65.994 328.875,65.548 329.017 C 64.565 329.329,62.513 331.413,62.192 332.426 C 62.064 332.829,61.594 333.275,61.148 333.417 C 60.165 333.729,58.113 335.813,57.792 336.826 C 57.664 337.229,57.229 337.664,56.826 337.792 C 55.813 338.113,53.729 340.165,53.417 341.148 C 53.275 341.594,52.829 342.064,52.426 342.192 C 51.413 342.513,49.329 344.565,49.017 345.548 C 48.875 345.994,48.449 346.457,48.071 346.577 C 47.197 346.855,44.800 349.029,44.800 349.544 C 44.800 349.758,44.035 350.530,43.100 351.261 C 40.951 352.939,40.400 353.467,40.400 353.846 C 40.400 354.276,38.729 356.000,38.312 356.000 C 37.891 356.000,36.000 357.845,36.000 358.256 C 36.000 358.685,34.321 360.400,33.902 360.400 C 33.466 360.400,32.987 360.889,31.261 363.100 C 30.530 364.035,29.758 364.800,29.544 364.800 C 29.029 364.800,26.855 367.197,26.577 368.071 C 26.457 368.449,25.994 368.875,25.548 369.017 C 24.583 369.323,22.515 371.406,22.204 372.386 C 21.725 373.897,20.052 374.107,19.832 372.684 C 19.722 371.978,19.446 370.215,19.216 368.767 C 18.635 365.088,18.635 35.312,19.216 31.633 C 19.446 30.185,19.724 28.415,19.835 27.699 L 20.037 26.398 21.218 27.009 C 21.868 27.346,22.400 27.832,22.400 28.091 M380.641 28.900 C 381.100 31.636,381.094 368.254,380.635 371.300 C 380.244 373.893,379.975 374.062,378.697 372.510 C 378.204 371.910,377.197 370.848,376.460 370.150 C 374.658 368.442,374.193 367.986,372.178 365.947 C 370.041 363.785,369.815 363.559,367.653 361.422 C 366.692 360.472,365.612 359.387,365.253 359.010 C 364.894 358.634,363.790 357.536,362.800 356.570 C 361.810 355.605,360.820 354.607,360.600 354.353 C 360.380 354.099,359.390 353.098,358.400 352.129 C 357.410 351.161,356.420 350.181,356.200 349.952 C 355.980 349.724,354.990 348.733,354.000 347.750 C 353.010 346.767,352.052 345.804,351.872 345.610 C 351.446 345.151,348.449 342.154,347.990 341.728 C 347.796 341.548,346.833 340.590,345.850 339.600 C 344.867 338.610,343.876 337.620,343.648 337.400 C 343.419 337.180,342.439 336.190,341.471 335.200 C 340.502 334.210,339.501 333.220,339.247 333.000 C 338.993 332.780,337.995 331.790,337.030 330.800 C 336.064 329.810,334.966 328.706,334.590 328.347 C 334.213 327.988,333.100 326.880,332.115 325.885 C 329.917 323.662,329.938 323.683,327.715 321.485 C 326.720 320.500,325.612 319.387,325.253 319.010 C 324.894 318.634,323.790 317.536,322.800 316.570 C 321.810 315.605,320.820 314.607,320.600 314.353 C 320.380 314.099,319.390 313.098,318.400 312.129 C 317.410 311.161,316.420 310.181,316.200 309.952 C 315.980 309.724,314.990 308.733,314.000 307.750 C 313.010 306.767,312.052 305.804,311.872 305.610 C 311.446 305.151,308.449 302.154,307.990 301.728 C 307.796 301.548,306.833 300.590,305.850 299.600 C 304.867 298.610,303.876 297.620,303.648 297.400 C 303.419 297.180,302.439 296.190,301.471 295.200 C 300.502 294.210,299.501 293.220,299.247 293.000 C 298.993 292.780,297.995 291.790,297.030 290.800 C 296.064 289.810,294.966 288.706,294.590 288.347 C 294.213 287.988,293.128 286.908,292.178 285.947 C 290.057 283.801,290.078 283.823,287.778 281.547 C 286.748 280.528,285.612 279.387,285.253 279.010 C 284.894 278.634,283.790 277.536,282.800 276.570 C 281.810 275.605,280.820 274.607,280.600 274.353 C 280.380 274.099,279.390 273.098,278.400 272.129 C 277.410 271.161,276.420 270.181,276.200 269.952 C 275.980 269.724,274.990 268.733,274.000 267.750 C 273.010 266.767,272.020 265.771,271.800 265.538 C 271.281 264.986,268.284 261.989,267.919 261.656 C 267.764 261.515,266.833 260.590,265.850 259.600 C 264.867 258.610,263.876 257.620,263.648 257.400 C 263.419 257.180,262.439 256.190,261.471 255.200 C 260.502 254.210,259.501 253.220,259.247 253.000 C 258.993 252.780,257.995 251.790,257.030 250.800 C 256.064 249.810,254.990 248.730,254.642 248.400 C 254.295 248.070,253.181 246.962,252.168 245.937 C 251.154 244.913,250.145 243.895,249.925 243.675 C 249.705 243.455,248.734 242.493,247.768 241.537 C 246.801 240.582,245.693 239.468,245.305 239.063 C 244.917 238.657,243.790 237.536,242.800 236.570 C 241.810 235.605,240.820 234.607,240.600 234.353 C 240.380 234.099,239.390 233.098,238.400 232.129 C 237.410 231.161,236.420 230.181,236.200 229.952 C 235.980 229.724,234.990 228.733,234.000 227.750 C 233.010 226.767,232.052 225.804,231.872 225.610 C 231.446 225.151,228.449 222.154,227.990 221.728 C 227.796 221.548,226.833 220.590,225.850 219.600 C 224.867 218.610,223.876 217.620,223.648 217.400 C 223.419 217.180,222.439 216.190,221.471 215.200 C 220.502 214.210,219.501 213.220,219.247 213.000 C 218.993 212.780,217.995 211.790,217.030 210.800 C 216.064 209.810,214.984 208.730,214.629 208.400 C 214.274 208.070,213.299 207.080,212.464 206.200 C 211.628 205.320,210.461 204.176,209.872 203.658 C 208.924 202.825,208.800 202.426,208.800 200.216 C 208.800 197.553,209.049 197.108,211.837 194.800 C 212.501 194.250,213.452 193.215,213.950 192.500 C 214.447 191.785,215.067 191.196,215.327 191.191 C 215.587 191.187,216.340 190.532,217.000 189.736 C 217.660 188.940,218.512 187.999,218.892 187.644 C 219.273 187.290,220.301 186.280,221.176 185.400 C 223.150 183.417,223.417 183.150,225.400 181.176 C 226.280 180.301,227.290 179.273,227.644 178.892 C 227.999 178.512,228.940 177.660,229.736 177.000 C 230.532 176.340,231.187 175.587,231.191 175.327 C 231.196 175.067,231.785 174.447,232.500 173.950 C 233.215 173.452,234.250 172.499,234.800 171.832 C 235.350 171.165,236.232 170.255,236.759 169.810 C 237.287 169.364,238.277 168.395,238.959 167.654 C 240.487 165.998,241.556 164.920,243.050 163.531 C 243.683 162.943,244.668 161.953,245.241 161.331 C 245.813 160.709,246.893 159.642,247.641 158.959 C 248.388 158.277,249.364 157.287,249.810 156.759 C 250.255 156.232,251.165 155.350,251.832 154.800 C 252.499 154.250,253.452 153.215,253.950 152.500 C 254.447 151.785,255.067 151.196,255.327 151.191 C 255.587 151.187,256.340 150.532,257.000 149.736 C 257.660 148.940,258.512 147.999,258.892 147.644 C 259.273 147.290,260.301 146.280,261.176 145.400 C 263.150 143.417,263.417 143.150,265.400 141.176 C 266.280 140.301,267.290 139.273,267.644 138.892 C 267.999 138.512,268.940 137.660,269.736 137.000 C 270.532 136.340,271.187 135.587,271.191 135.327 C 271.196 135.067,271.785 134.447,272.500 133.950 C 273.215 133.452,274.250 132.499,274.800 131.832 C 275.350 131.165,276.232 130.255,276.759 129.810 C 277.287 129.364,278.277 128.395,278.959 127.654 C 280.487 125.998,281.556 124.920,283.050 123.531 C 283.683 122.943,284.668 121.953,285.241 121.331 C 285.813 120.709,286.893 119.642,287.641 118.959 C 288.388 118.277,289.364 117.287,289.810 116.759 C 290.255 116.232,291.165 115.350,291.832 114.800 C 292.499 114.250,293.452 113.215,293.950 112.500 C 294.447 111.785,295.067 111.196,295.327 111.191 C 295.587 111.187,296.340 110.532,297.000 109.736 C 297.660 108.940,298.512 107.999,298.892 107.644 C 299.273 107.290,300.301 106.280,301.176 105.400 C 303.150 103.417,303.417 103.150,305.400 101.176 C 306.280 100.301,307.290 99.273,307.644 98.892 C 307.999 98.512,308.940 97.660,309.736 97.000 C 310.532 96.340,311.187 95.587,311.191 95.327 C 311.196 95.067,311.785 94.447,312.500 93.950 C 313.215 93.452,314.250 92.499,314.800 91.832 C 315.350 91.165,316.232 90.255,316.759 89.810 C 317.287 89.364,318.277 88.388,318.959 87.641 C 319.642 86.893,320.709 85.813,321.331 85.241 C 321.953 84.668,322.943 83.683,323.531 83.050 C 324.920 81.556,325.998 80.487,327.654 78.959 C 328.395 78.277,329.364 77.287,329.810 76.759 C 330.255 76.232,331.165 75.350,331.832 74.800 C 332.499 74.250,333.452 73.215,333.950 72.500 C 334.447 71.785,335.067 71.196,335.327 71.191 C 335.587 71.187,336.340 70.532,337.000 69.736 C 337.660 68.940,338.512 67.999,338.892 67.644 C 339.273 67.290,340.301 66.280,341.176 65.400 C 343.150 63.417,343.417 63.150,345.400 61.176 C 346.280 60.301,347.290 59.273,347.644 58.892 C 347.999 58.512,348.940 57.660,349.736 57.000 C 350.532 56.340,351.187 55.587,351.191 55.327 C 351.196 55.067,351.785 54.447,352.500 53.950 C 353.215 53.452,354.250 52.499,354.800 51.832 C 355.350 51.165,356.232 50.255,356.759 49.810 C 357.287 49.364,358.277 48.388,358.959 47.641 C 359.642 46.893,360.709 45.813,361.331 45.241 C 361.953 44.668,362.943 43.683,363.531 43.050 C 364.920 41.556,365.998 40.487,367.654 38.959 C 368.395 38.277,369.364 37.287,369.810 36.759 C 370.255 36.232,371.165 35.350,371.832 34.800 C 372.499 34.250,373.452 33.215,373.950 32.500 C 374.447 31.785,375.067 31.196,375.327 31.191 C 375.587 31.187,376.340 30.532,377.000 29.736 C 379.992 26.127,380.169 26.087,380.641 28.900 M204.799 210.799 C 205.719 211.898,206.951 213.085,207.536 213.436 C 208.121 213.788,209.098 214.785,209.707 215.653 C 210.316 216.521,211.126 217.344,211.507 217.483 C 211.888 217.622,212.560 218.198,213.000 218.764 C 214.109 220.190,216.517 222.643,217.000 222.838 C 217.220 222.927,217.920 223.696,218.556 224.546 C 219.191 225.397,220.316 226.450,221.056 226.886 C 221.795 227.322,222.400 227.878,222.400 228.120 C 222.400 228.725,224.842 231.200,225.439 231.200 C 225.704 231.200,226.278 231.805,226.714 232.544 C 227.150 233.284,228.203 234.409,229.054 235.044 C 229.904 235.680,230.673 236.380,230.762 236.600 C 230.982 237.145,233.551 239.627,234.900 240.598 C 235.505 241.034,236.000 241.609,236.000 241.878 C 236.000 242.146,236.654 242.869,237.453 243.483 C 238.253 244.097,239.198 244.948,239.553 245.374 C 240.393 246.380,247.220 253.207,248.226 254.047 C 248.652 254.402,249.503 255.347,250.117 256.147 C 250.731 256.946,251.454 257.600,251.722 257.600 C 251.991 257.600,252.566 258.095,253.002 258.700 C 253.973 260.049,256.455 262.618,257.000 262.838 C 257.220 262.927,257.920 263.696,258.556 264.546 C 259.191 265.397,260.316 266.450,261.056 266.886 C 261.795 267.322,262.400 267.878,262.400 268.120 C 262.400 268.725,264.842 271.200,265.439 271.200 C 265.704 271.200,266.278 271.805,266.714 272.544 C 267.150 273.284,268.203 274.409,269.054 275.044 C 269.904 275.680,270.673 276.380,270.762 276.600 C 270.982 277.145,273.551 279.627,274.900 280.598 C 275.505 281.034,276.000 281.609,276.000 281.878 C 276.000 282.146,276.654 282.869,277.453 283.483 C 278.253 284.097,279.198 284.948,279.553 285.374 C 280.393 286.380,287.220 293.207,288.226 294.047 C 288.652 294.402,289.503 295.347,290.117 296.147 C 290.731 296.946,291.454 297.600,291.722 297.600 C 291.991 297.600,292.566 298.095,293.002 298.700 C 293.973 300.049,296.455 302.618,297.000 302.838 C 297.220 302.927,297.920 303.696,298.556 304.546 C 299.191 305.397,300.316 306.450,301.056 306.886 C 301.795 307.322,302.400 307.878,302.400 308.120 C 302.400 308.725,304.842 311.200,305.439 311.200 C 305.704 311.200,306.278 311.805,306.714 312.544 C 307.150 313.284,308.203 314.409,309.054 315.044 C 309.904 315.680,310.673 316.380,310.762 316.600 C 310.982 317.145,313.551 319.627,314.900 320.598 C 315.505 321.034,316.000 321.609,316.000 321.878 C 316.000 322.146,316.654 322.869,317.453 323.483 C 318.253 324.097,319.198 324.948,319.553 325.374 C 320.393 326.380,327.220 333.207,328.226 334.047 C 328.652 334.402,329.503 335.347,330.117 336.147 C 330.731 336.946,331.454 337.600,331.722 337.600 C 331.991 337.600,332.566 338.095,333.002 338.700 C 333.973 340.049,336.455 342.618,337.000 342.838 C 337.220 342.927,337.920 343.696,338.556 344.546 C 339.191 345.397,340.316 346.450,341.056 346.886 C 341.795 347.322,342.400 347.878,342.400 348.120 C 342.400 348.725,344.842 351.200,345.439 351.200 C 345.704 351.200,346.278 351.805,346.714 352.544 C 347.150 353.284,348.203 354.409,349.054 355.044 C 349.904 355.680,350.673 356.380,350.762 356.600 C 350.982 357.145,353.551 359.627,354.900 360.598 C 355.505 361.034,356.000 361.609,356.000 361.878 C 356.000 362.146,356.654 362.869,357.453 363.483 C 358.253 364.097,359.198 364.948,359.553 365.374 C 360.729 366.782,367.389 373.442,368.002 373.825 C 368.334 374.031,369.118 374.888,369.745 375.729 C 370.372 376.570,371.181 377.367,371.542 377.501 C 372.211 377.749,373.999 379.599,374.000 380.044 C 374.001 380.888,354.695 380.993,200.400 380.993 C 104.554 380.993,30.088 380.840,28.900 380.641 C 26.087 380.169,26.127 379.992,29.736 377.000 C 30.532 376.340,31.187 375.587,31.191 375.327 C 31.196 375.067,31.785 374.447,32.500 373.950 C 33.215 373.452,34.250 372.499,34.800 371.832 C 35.350 371.165,36.232 370.255,36.759 369.810 C 37.287 369.364,38.277 368.395,38.959 367.654 C 40.487 365.998,41.556 364.920,43.050 363.531 C 43.683 362.943,44.668 361.953,45.241 361.331 C 45.813 360.709,46.893 359.642,47.641 358.959 C 48.388 358.277,49.364 357.287,49.810 356.759 C 50.255 356.232,51.165 355.350,51.832 354.800 C 52.499 354.250,53.452 353.215,53.950 352.500 C 54.447 351.785,55.067 351.196,55.327 351.191 C 55.587 351.187,56.340 350.532,57.000 349.736 C 57.660 348.940,58.512 347.999,58.892 347.644 C 59.273 347.290,60.301 346.280,61.176 345.400 C 63.150 343.417,63.417 343.150,65.400 341.176 C 66.280 340.301,67.290 339.273,67.644 338.892 C 67.999 338.512,68.940 337.660,69.736 337.000 C 70.532 336.340,71.187 335.587,71.191 335.327 C 71.196 335.067,71.785 334.447,72.500 333.950 C 73.215 333.452,74.250 332.499,74.800 331.832 C 75.350 331.165,76.232 330.255,76.759 329.810 C 77.287 329.364,78.277 328.395,78.959 327.654 C 80.487 325.998,81.556 324.920,83.050 323.531 C 83.683 322.943,84.668 321.953,85.241 321.331 C 85.813 320.709,86.893 319.642,87.641 318.959 C 88.388 318.277,89.364 317.287,89.810 316.759 C 90.255 316.232,91.165 315.350,91.832 314.800 C 92.499 314.250,93.452 313.215,93.950 312.500 C 94.447 311.785,95.067 311.196,95.327 311.191 C 95.587 311.187,96.340 310.532,97.000 309.736 C 97.660 308.940,98.512 307.999,98.892 307.644 C 99.273 307.290,100.301 306.280,101.176 305.400 C 103.150 303.417,103.417 303.150,105.400 301.176 C 106.280 300.301,107.290 299.273,107.644 298.892 C 107.999 298.512,108.940 297.660,109.736 297.000 C 110.532 296.340,111.187 295.587,111.191 295.327 C 111.196 295.067,111.785 294.447,112.500 293.950 C 113.215 293.452,114.250 292.499,114.800 291.832 C 115.350 291.165,116.232 290.255,116.759 289.810 C 117.287 289.364,118.277 288.388,118.959 287.641 C 119.642 286.893,120.709 285.813,121.331 285.241 C 121.953 284.668,122.943 283.683,123.531 283.050 C 124.920 281.556,125.998 280.487,127.654 278.959 C 128.395 278.277,129.364 277.287,129.810 276.759 C 130.255 276.232,131.165 275.350,131.832 274.800 C 132.499 274.250,133.452 273.215,133.950 272.500 C 134.447 271.785,135.067 271.196,135.327 271.191 C 135.587 271.187,136.340 270.532,137.000 269.736 C 137.660 268.940,138.512 267.999,138.892 267.644 C 139.273 267.290,140.301 266.280,141.176 265.400 C 143.150 263.417,143.417 263.150,145.400 261.176 C 146.280 260.301,147.290 259.273,147.644 258.892 C 147.999 258.512,148.940 257.660,149.736 257.000 C 150.532 256.340,151.187 255.587,151.191 255.327 C 151.196 255.067,151.785 254.447,152.500 253.950 C 153.215 253.452,154.250 252.499,154.800 251.832 C 155.350 251.165,156.232 250.255,156.759 249.810 C 157.287 249.364,158.277 248.388,158.959 247.641 C 159.642 246.893,160.709 245.813,161.331 245.241 C 161.953 244.668,162.943 243.683,163.531 243.050 C 164.920 241.556,165.998 240.487,167.654 238.959 C 168.395 238.277,169.364 237.287,169.810 236.759 C 170.255 236.232,171.165 235.350,171.832 234.800 C 172.499 234.250,173.452 233.215,173.950 232.500 C 174.447 231.785,175.067 231.196,175.327 231.191 C 175.587 231.187,176.340 230.532,177.000 229.736 C 177.660 228.940,178.512 227.999,178.892 227.644 C 179.273 227.290,180.301 226.280,181.176 225.400 C 183.150 223.417,183.417 223.150,185.400 221.176 C 186.280 220.301,187.290 219.273,187.644 218.892 C 187.999 218.512,188.940 217.660,189.736 217.000 C 190.532 216.340,191.187 215.587,191.191 215.327 C 191.196 215.067,191.785 214.447,192.500 213.950 C 193.215 213.452,194.250 212.501,194.800 211.837 C 197.142 209.008,197.527 208.800,200.421 208.800 L 203.126 208.800 204.799 210.799 " stroke="none" fill="#c4c4c4" fill-rule="evenodd"></path>
    <path id="path1" d="M32.180 19.872 C 31.416 20.023,37.446 26.800,38.345 26.800 C 38.491 26.800,38.968 27.287,39.405 27.883 C 39.842 28.479,40.714 29.424,41.342 29.983 C 41.970 30.542,42.960 31.503,43.542 32.119 C 44.124 32.734,45.295 33.904,46.144 34.719 C 47.665 36.178,48.425 36.968,50.400 39.146 C 50.950 39.753,51.719 40.369,52.109 40.515 C 52.499 40.662,52.938 41.101,53.085 41.491 C 53.231 41.881,53.847 42.650,54.454 43.200 C 56.632 45.175,57.422 45.935,58.881 47.456 C 59.696 48.305,60.866 49.476,61.481 50.058 C 62.097 50.640,63.058 51.630,63.617 52.258 C 64.176 52.886,65.121 53.758,65.717 54.195 C 66.313 54.632,66.800 55.102,66.800 55.239 C 66.800 55.376,69.345 58.033,72.456 61.144 C 75.567 64.255,78.224 66.800,78.361 66.800 C 78.498 66.800,78.968 67.287,79.405 67.883 C 79.842 68.479,80.714 69.424,81.342 69.983 C 81.970 70.542,82.960 71.503,83.542 72.119 C 84.124 72.734,85.295 73.904,86.144 74.719 C 87.665 76.178,88.425 76.968,90.400 79.146 C 90.950 79.753,91.719 80.369,92.109 80.515 C 92.499 80.662,92.938 81.101,93.085 81.491 C 93.231 81.881,93.847 82.650,94.454 83.200 C 96.632 85.175,97.422 85.935,98.881 87.456 C 99.696 88.305,100.866 89.476,101.481 90.058 C 102.097 90.640,103.058 91.630,103.617 92.258 C 104.176 92.886,105.121 93.758,105.717 94.195 C 106.313 94.632,106.800 95.102,106.800 95.239 C 106.800 95.564,118.036 106.800,118.361 106.800 C 118.498 106.800,118.968 107.287,119.405 107.883 C 119.842 108.479,120.714 109.424,121.342 109.983 C 121.970 110.542,122.960 111.503,123.542 112.119 C 124.124 112.734,125.295 113.904,126.144 114.719 C 127.665 116.178,128.425 116.968,130.400 119.146 C 130.950 119.753,131.719 120.369,132.109 120.515 C 132.499 120.662,132.938 121.101,133.085 121.491 C 133.231 121.881,133.847 122.650,134.454 123.200 C 136.632 125.175,137.422 125.935,138.881 127.456 C 139.696 128.305,140.866 129.476,141.481 130.058 C 142.097 130.640,143.058 131.630,143.617 132.258 C 144.176 132.886,145.121 133.758,145.717 134.195 C 146.313 134.632,146.800 135.102,146.800 135.239 C 146.800 135.564,158.036 146.800,158.361 146.800 C 158.498 146.800,158.968 147.287,159.405 147.883 C 159.842 148.479,160.714 149.424,161.342 149.983 C 161.970 150.542,162.960 151.503,163.542 152.119 C 164.124 152.734,165.295 153.904,166.144 154.719 C 167.665 156.178,168.425 156.968,170.400 159.146 C 170.950 159.753,171.719 160.369,172.109 160.515 C 172.499 160.662,172.938 161.101,173.085 161.491 C 173.231 161.881,173.847 162.650,174.454 163.200 C 176.632 165.175,177.422 165.935,178.881 167.456 C 179.696 168.305,180.866 169.476,181.481 170.058 C 182.097 170.640,183.058 171.630,183.617 172.258 C 184.176 172.886,185.121 173.758,185.717 174.195 C 186.313 174.632,186.800 175.102,186.800 175.239 C 186.800 175.376,189.345 178.033,192.456 181.144 L 198.112 186.800 200.294 186.800 L 202.475 186.800 285.828 103.448 C 367.279 21.998,369.153 20.091,367.940 19.848 C 366.597 19.579,33.533 19.603,32.180 19.872 M19.854 32.429 C 19.526 34.071,19.520 366.299,19.848 367.940 C 20.091 369.153,21.998 367.279,103.448 285.828 L 186.800 202.475 186.792 200.138 L 186.785 197.800 103.447 114.479 C 21.280 32.328,20.105 31.175,19.854 32.429 M376.600 35.061 C 374.620 37.082,372.753 38.975,372.452 39.268 C 372.150 39.561,371.105 40.610,370.129 41.600 C 369.153 42.590,368.199 43.549,368.009 43.732 C 367.560 44.164,364.008 47.717,363.664 48.077 C 363.519 48.230,362.590 49.153,361.600 50.129 C 360.610 51.105,359.620 52.096,359.400 52.332 C 358.878 52.893,333.030 78.740,332.392 79.340 C 332.123 79.593,331.105 80.610,330.129 81.600 C 329.153 82.590,328.199 83.549,328.009 83.732 C 327.561 84.164,324.164 87.561,323.732 88.009 C 323.549 88.199,322.590 89.153,321.600 90.129 C 320.610 91.105,319.593 92.123,319.340 92.392 C 318.740 93.030,292.893 118.878,292.332 119.400 C 292.096 119.620,291.105 120.610,290.129 121.600 C 289.153 122.590,288.169 123.580,287.942 123.800 C 287.406 124.319,284.319 127.406,283.800 127.942 C 283.580 128.169,282.590 129.153,281.600 130.129 C 280.610 131.105,279.566 132.150,279.281 132.452 C 278.603 133.168,253.168 158.603,252.452 159.281 C 252.150 159.566,251.105 160.610,250.129 161.600 C 249.153 162.590,248.199 163.549,248.009 163.732 C 247.561 164.164,244.164 167.561,243.732 168.009 C 243.549 168.199,242.590 169.153,241.600 170.129 C 240.610 171.105,239.593 172.123,239.340 172.392 C 239.088 172.661,233.193 178.533,226.240 185.442 L 213.600 198.003 213.600 200.208 C 213.600 202.172,213.735 202.532,214.840 203.506 C 216.130 204.644,216.429 204.936,218.881 207.470 C 219.696 208.311,220.866 209.476,221.481 210.058 C 222.097 210.640,223.058 211.630,223.617 212.258 C 224.176 212.886,225.121 213.758,225.717 214.195 C 226.313 214.632,226.800 215.102,226.800 215.239 C 226.800 215.564,238.036 226.800,238.361 226.800 C 238.498 226.800,238.968 227.287,239.405 227.883 C 239.842 228.479,240.714 229.424,241.342 229.983 C 241.970 230.542,242.960 231.503,243.542 232.119 C 244.124 232.734,245.295 233.904,246.144 234.719 C 247.665 236.178,248.425 236.968,250.400 239.146 C 250.950 239.753,251.719 240.369,252.109 240.515 C 252.499 240.662,252.938 241.101,253.085 241.491 C 253.231 241.881,253.847 242.650,254.454 243.200 C 256.632 245.175,257.422 245.935,258.881 247.456 C 259.696 248.305,260.866 249.476,261.481 250.058 C 262.097 250.640,263.058 251.630,263.617 252.258 C 264.176 252.886,265.121 253.758,265.717 254.195 C 266.313 254.632,266.800 255.102,266.800 255.239 C 266.800 255.564,278.036 266.800,278.361 266.800 C 278.498 266.800,278.968 267.287,279.405 267.883 C 279.842 268.479,280.714 269.424,281.342 269.983 C 281.970 270.542,282.960 271.503,283.542 272.119 C 284.124 272.734,285.295 273.904,286.144 274.719 C 287.665 276.178,288.425 276.968,290.400 279.146 C 290.950 279.753,291.719 280.369,292.109 280.515 C 292.499 280.662,292.938 281.101,293.085 281.491 C 293.231 281.881,293.847 282.650,294.454 283.200 C 296.632 285.175,297.422 285.935,298.881 287.456 C 299.696 288.305,300.866 289.476,301.481 290.058 C 302.097 290.640,303.058 291.630,303.617 292.258 C 304.176 292.886,305.121 293.758,305.717 294.195 C 306.313 294.632,306.800 295.102,306.800 295.239 C 306.800 295.564,318.036 306.800,318.361 306.800 C 318.498 306.800,318.968 307.287,319.405 307.883 C 319.842 308.479,320.714 309.424,321.342 309.983 C 321.970 310.542,322.960 311.503,323.542 312.119 C 324.124 312.734,325.295 313.904,326.144 314.719 C 327.665 316.178,328.425 316.968,330.400 319.146 C 330.950 319.753,331.719 320.369,332.109 320.515 C 332.499 320.662,332.938 321.101,333.085 321.491 C 333.231 321.881,333.847 322.650,334.454 323.200 C 336.632 325.175,337.422 325.935,338.881 327.456 C 339.696 328.305,340.866 329.476,341.481 330.058 C 342.097 330.640,343.058 331.630,343.617 332.258 C 344.176 332.886,345.121 333.758,345.717 334.195 C 346.313 334.632,346.800 335.102,346.800 335.239 C 346.800 335.564,358.036 346.800,358.361 346.800 C 358.498 346.800,358.968 347.287,359.405 347.883 C 359.842 348.479,360.714 349.424,361.342 349.983 C 361.970 350.542,362.960 351.503,363.542 352.119 C 364.124 352.734,365.295 353.904,366.144 354.719 C 367.665 356.178,368.425 356.968,370.400 359.146 C 370.950 359.753,371.719 360.369,372.109 360.515 C 372.499 360.662,372.938 361.101,373.085 361.491 C 373.231 361.881,373.847 362.650,374.454 363.200 C 376.975 365.487,377.461 365.960,378.738 367.375 C 379.474 368.191,380.149 368.785,380.238 368.695 C 380.328 368.606,380.356 292.674,380.300 199.959 L 380.200 31.386 376.600 35.061 M198.870 213.486 C 198.314 213.592,192.915 218.720,185.470 226.213 C 178.611 233.115,172.753 238.995,172.452 239.281 C 172.150 239.566,171.105 240.610,170.129 241.600 C 169.153 242.590,168.199 243.549,168.009 243.732 C 167.560 244.164,164.008 247.717,163.664 248.077 C 163.519 248.230,162.590 249.153,161.600 250.129 C 160.610 251.105,159.593 252.123,159.340 252.392 C 158.740 253.030,132.893 278.878,132.332 279.400 C 132.096 279.620,131.105 280.610,130.129 281.600 C 129.153 282.590,128.230 283.519,128.077 283.664 C 127.717 284.008,124.320 287.405,123.800 287.942 C 123.580 288.169,122.590 289.153,121.600 290.129 C 120.610 291.105,119.620 292.096,119.400 292.332 C 118.878 292.893,92.893 318.878,92.332 319.400 C 92.096 319.620,91.105 320.610,90.129 321.600 C 89.153 322.590,88.230 323.519,88.077 323.664 C 87.717 324.008,84.320 327.405,83.800 327.942 C 83.580 328.169,82.590 329.153,81.600 330.129 C 80.610 331.105,79.566 332.150,79.281 332.452 C 78.603 333.168,53.030 358.740,52.392 359.340 C 52.123 359.593,51.105 360.610,50.129 361.600 C 49.153 362.590,48.199 363.549,48.009 363.732 C 47.561 364.164,44.164 367.561,43.732 368.009 C 43.549 368.199,42.590 369.153,41.600 370.129 C 40.610 371.105,39.560 372.150,39.268 372.452 C 38.975 372.753,37.037 374.665,34.962 376.700 L 31.188 380.400 200.270 380.400 L 369.352 380.400 285.776 296.808 C 195.859 206.873,202.112 212.868,198.870 213.486 " stroke="none" fill="#fcfcfc" fill-rule="evenodd"></path>
    <path id="path2" d="M0.000 200.000 L 0.000 400.000 200.000 400.000 L 400.000 400.000 400.000 200.000 L 400.000 0.000 200.000 0.000 L 0.000 0.000 0.000 200.000 M381.039 18.512 C 382.999 20.271,382.986 19.056,382.989 200.200 C 382.991 375.267,382.951 379.813,381.381 381.383 C 379.826 382.938,375.108 382.979,200.400 382.983 C 19.036 382.986,20.271 383.000,18.512 381.039 L 17.400 379.800 17.400 200.122 L 17.400 20.444 18.768 19.033 L 20.136 17.622 25.568 17.493 C 28.556 17.422,109.480 17.372,205.400 17.382 L 379.800 17.400 381.039 18.512 " stroke="none" fill="#4c4c4c" fill-rule="evenodd"></path>
    <path id="path3" d="M32.200 19.200 C 31.540 19.368,107.230 19.506,200.400 19.507 C 293.570 19.507,369.080 19.359,368.200 19.177 C 366.190 18.761,33.835 18.784,32.200 19.200 M27.500 19.876 C 27.115 19.976,26.800 20.194,26.800 20.359 C 26.800 20.525,27.115 20.942,27.500 21.287 C 28.163 21.881,31.166 24.851,31.872 25.610 C 32.052 25.804,33.010 26.767,34.000 27.750 C 34.990 28.733,35.980 29.724,36.200 29.952 C 36.420 30.181,37.410 31.161,38.400 32.129 C 39.390 33.098,40.380 34.099,40.600 34.353 C 40.820 34.607,41.810 35.605,42.800 36.570 C 43.790 37.536,44.917 38.657,45.305 39.063 C 45.693 39.468,46.773 40.554,47.705 41.475 C 49.788 43.533,49.788 43.533,52.000 45.769 C 52.990 46.770,54.132 47.907,54.537 48.295 C 54.943 48.683,56.064 49.810,57.030 50.800 C 57.995 51.790,58.993 52.780,59.247 53.000 C 59.501 53.220,60.502 54.210,61.471 55.200 C 62.439 56.190,63.419 57.180,63.648 57.400 C 63.876 57.620,64.867 58.610,65.850 59.600 C 66.833 60.590,67.796 61.548,67.990 61.728 C 68.449 62.154,71.446 65.151,71.872 65.610 C 72.052 65.804,73.010 66.767,74.000 67.750 C 74.990 68.733,75.980 69.724,76.200 69.952 C 76.420 70.181,77.410 71.161,78.400 72.129 C 79.390 73.098,80.380 74.099,80.600 74.353 C 80.820 74.607,81.810 75.605,82.800 76.570 C 83.790 77.536,84.917 78.657,85.305 79.063 C 85.693 79.468,86.801 80.582,87.768 81.537 C 89.926 83.671,89.905 83.650,92.168 85.937 C 93.181 86.962,94.295 88.070,94.642 88.400 C 94.990 88.730,96.064 89.810,97.030 90.800 C 97.995 91.790,98.993 92.780,99.247 93.000 C 99.501 93.220,100.502 94.210,101.471 95.200 C 102.439 96.190,103.419 97.180,103.648 97.400 C 103.876 97.620,104.867 98.610,105.850 99.600 C 106.833 100.590,107.829 101.580,108.062 101.800 C 108.296 102.020,109.207 102.920,110.087 103.800 C 110.967 104.680,111.802 105.527,111.944 105.681 C 112.085 105.836,113.010 106.767,114.000 107.750 C 114.990 108.733,115.980 109.724,116.200 109.952 C 116.420 110.181,117.410 111.161,118.400 112.129 C 119.390 113.098,120.380 114.099,120.600 114.353 C 120.820 114.607,121.810 115.605,122.800 116.570 C 123.790 117.536,124.917 118.657,125.305 119.063 C 125.693 119.468,126.773 120.554,127.705 121.475 C 129.804 123.549,130.051 123.796,132.125 125.895 C 133.046 126.827,134.132 127.907,134.537 128.295 C 134.943 128.683,136.064 129.810,137.030 130.800 C 137.995 131.790,138.993 132.780,139.247 133.000 C 139.501 133.220,140.502 134.210,141.471 135.200 C 142.439 136.190,143.419 137.180,143.648 137.400 C 143.876 137.620,144.867 138.610,145.850 139.600 C 146.833 140.590,147.829 141.580,148.062 141.800 C 148.614 142.319,151.611 145.316,151.944 145.681 C 152.085 145.836,153.010 146.767,154.000 147.750 C 154.990 148.733,155.980 149.724,156.200 149.952 C 156.420 150.181,157.410 151.161,158.400 152.129 C 159.390 153.098,160.380 154.099,160.600 154.353 C 160.820 154.607,161.810 155.605,162.800 156.570 C 163.790 157.536,164.917 158.657,165.305 159.063 C 165.693 159.468,166.801 160.582,167.768 161.537 C 168.734 162.493,169.705 163.455,169.925 163.675 C 170.145 163.895,171.154 164.913,172.168 165.937 C 173.181 166.962,174.295 168.070,174.642 168.400 C 174.990 168.730,176.064 169.810,177.030 170.800 C 177.995 171.790,178.993 172.780,179.247 173.000 C 179.501 173.220,180.502 174.210,181.471 175.200 C 182.439 176.190,183.419 177.180,183.648 177.400 C 183.876 177.620,184.867 178.610,185.850 179.600 C 186.833 180.590,187.796 181.548,187.990 181.728 C 188.449 182.154,191.446 185.151,191.872 185.610 C 192.052 185.804,193.069 186.826,194.131 187.881 C 195.193 188.937,196.326 190.093,196.649 190.451 C 198.329 192.312,204.800 191.596,204.800 189.548 C 204.800 189.030,207.193 186.856,208.071 186.577 C 208.449 186.457,208.875 185.994,209.017 185.548 C 209.329 184.565,211.413 182.513,212.426 182.192 C 212.829 182.064,213.275 181.594,213.417 181.148 C 213.729 180.165,215.813 178.113,216.826 177.792 C 217.229 177.664,217.664 177.229,217.792 176.826 C 218.113 175.813,220.165 173.729,221.148 173.417 C 221.594 173.275,222.064 172.829,222.192 172.426 C 222.513 171.413,224.565 169.329,225.548 169.017 C 225.994 168.875,226.457 168.449,226.577 168.071 C 226.855 167.197,229.029 164.800,229.544 164.800 C 229.758 164.800,230.530 164.035,231.261 163.100 C 232.987 160.889,233.466 160.400,233.902 160.400 C 234.321 160.400,236.000 158.685,236.000 158.256 C 236.000 157.845,237.891 156.000,238.312 156.000 C 238.729 156.000,240.400 154.276,240.400 153.846 C 240.400 153.467,240.951 152.939,243.100 151.261 C 244.035 150.530,244.800 149.758,244.800 149.544 C 244.800 149.029,247.197 146.855,248.071 146.577 C 248.449 146.457,248.875 145.994,249.017 145.548 C 249.329 144.565,251.413 142.513,252.426 142.192 C 252.829 142.064,253.275 141.594,253.417 141.148 C 253.729 140.165,255.813 138.113,256.826 137.792 C 257.229 137.664,257.664 137.229,257.792 136.826 C 258.113 135.813,260.165 133.729,261.148 133.417 C 261.594 133.275,262.064 132.829,262.192 132.426 C 262.513 131.413,264.565 129.329,265.548 129.017 C 265.994 128.875,266.457 128.449,266.577 128.071 C 266.855 127.197,269.029 124.800,269.544 124.800 C 269.758 124.800,270.530 124.035,271.261 123.100 C 272.987 120.889,273.466 120.400,273.902 120.400 C 274.321 120.400,276.000 118.685,276.000 118.256 C 276.000 117.845,277.891 116.000,278.312 116.000 C 278.729 116.000,280.400 114.276,280.400 113.846 C 280.400 113.467,280.951 112.939,283.100 111.261 C 284.035 110.530,284.800 109.758,284.800 109.544 C 284.800 109.029,287.197 106.855,288.071 106.577 C 288.449 106.457,288.875 105.994,289.017 105.548 C 289.329 104.565,291.413 102.513,292.426 102.192 C 292.829 102.064,293.275 101.594,293.417 101.148 C 293.729 100.165,295.813 98.113,296.826 97.792 C 297.229 97.664,297.664 97.229,297.792 96.826 C 298.113 95.813,300.165 93.729,301.148 93.417 C 301.594 93.275,302.064 92.829,302.192 92.426 C 302.513 91.413,304.565 89.329,305.548 89.017 C 305.994 88.875,306.457 88.449,306.577 88.071 C 306.855 87.197,309.029 84.800,309.544 84.800 C 309.758 84.800,310.530 84.035,311.261 83.100 C 312.987 80.889,313.466 80.400,313.902 80.400 C 314.321 80.400,316.000 78.685,316.000 78.256 C 316.000 77.845,317.891 76.000,318.312 76.000 C 318.729 76.000,320.400 74.276,320.400 73.846 C 320.400 73.467,320.951 72.939,323.100 71.261 C 324.035 70.530,324.800 69.758,324.800 69.544 C 324.800 69.029,327.197 66.855,328.071 66.577 C 328.449 66.457,328.875 65.994,329.017 65.548 C 329.329 64.565,331.413 62.513,332.426 62.192 C 332.829 62.064,333.275 61.594,333.417 61.148 C 333.729 60.165,335.813 58.113,336.826 57.792 C 337.229 57.664,337.664 57.229,337.792 56.826 C 338.113 55.813,340.165 53.729,341.148 53.417 C 341.594 53.275,342.064 52.829,342.192 52.426 C 342.513 51.413,344.565 49.329,345.548 49.017 C 345.994 48.875,346.457 48.449,346.577 48.071 C 346.855 47.197,349.029 44.800,349.544 44.800 C 349.758 44.800,350.530 44.035,351.261 43.100 C 352.987 40.889,353.466 40.400,353.902 40.400 C 354.321 40.400,356.000 38.685,356.000 38.256 C 356.000 37.845,357.891 36.000,358.312 36.000 C 358.729 36.000,360.400 34.276,360.400 33.846 C 360.400 33.467,360.951 32.939,363.100 31.261 C 364.035 30.530,364.800 29.758,364.800 29.544 C 364.800 29.029,367.197 26.855,368.071 26.577 C 368.449 26.457,368.875 25.994,369.017 25.548 C 369.323 24.583,371.406 22.515,372.386 22.204 C 373.615 21.814,374.108 20.123,373.073 19.845 C 371.775 19.497,369.484 19.589,370.703 19.940 C 371.494 20.168,361.131 30.673,286.889 104.913 L 202.173 189.626 199.987 189.153 L 197.800 188.680 113.504 104.444 C 47.242 38.230,29.356 20.149,29.904 19.932 C 30.702 19.616,28.676 19.568,27.500 19.876 M19.849 27.312 C 19.718 27.800,19.626 28.740,19.645 29.400 C 19.677 30.491,19.704 30.514,19.944 29.658 C 20.181 28.816,29.256 37.763,104.904 113.408 L 189.600 198.100 189.600 200.150 L 189.600 202.201 104.836 286.964 C 31.112 360.687,20.049 371.602,19.891 370.764 C 19.734 369.931,19.702 369.964,19.660 371.000 C 19.546 373.788,21.433 374.815,22.204 372.386 C 22.515 371.406,24.583 369.323,25.548 369.017 C 25.994 368.875,26.457 368.449,26.577 368.071 C 26.855 367.197,29.029 364.800,29.544 364.800 C 29.758 364.800,30.530 364.035,31.261 363.100 C 32.987 360.889,33.466 360.400,33.902 360.400 C 34.321 360.400,36.000 358.685,36.000 358.256 C 36.000 357.845,37.891 356.000,38.312 356.000 C 38.729 356.000,40.400 354.276,40.400 353.846 C 40.400 353.467,40.951 352.939,43.100 351.261 C 44.035 350.530,44.800 349.758,44.800 349.544 C 44.800 349.029,47.197 346.855,48.071 346.577 C 48.449 346.457,48.875 345.994,49.017 345.548 C 49.329 344.565,51.413 342.513,52.426 342.192 C 52.829 342.064,53.275 341.594,53.417 341.148 C 53.729 340.165,55.813 338.113,56.826 337.792 C 57.229 337.664,57.664 337.229,57.792 336.826 C 58.113 335.813,60.165 333.729,61.148 333.417 C 61.594 333.275,62.064 332.829,62.192 332.426 C 62.513 331.413,64.565 329.329,65.548 329.017 C 65.994 328.875,66.457 328.449,66.577 328.071 C 66.855 327.197,69.029 324.800,69.544 324.800 C 69.758 324.800,70.530 324.035,71.261 323.100 C 72.987 320.889,73.466 320.400,73.902 320.400 C 74.321 320.400,76.000 318.685,76.000 318.256 C 76.000 317.845,77.891 316.000,78.312 316.000 C 78.729 316.000,80.400 314.276,80.400 313.846 C 80.400 313.467,80.951 312.939,83.100 311.261 C 84.035 310.530,84.800 309.758,84.800 309.544 C 84.800 309.029,87.197 306.855,88.071 306.577 C 88.449 306.457,88.875 305.994,89.017 305.548 C 89.329 304.565,91.413 302.513,92.426 302.192 C 92.829 302.064,93.275 301.594,93.417 301.148 C 93.729 300.165,95.813 298.113,96.826 297.792 C 97.229 297.664,97.664 297.229,97.792 296.826 C 98.113 295.813,100.165 293.729,101.148 293.417 C 101.594 293.275,102.064 292.829,102.192 292.426 C 102.513 291.413,104.565 289.329,105.548 289.017 C 105.994 288.875,106.457 288.449,106.577 288.071 C 106.855 287.197,109.029 284.800,109.544 284.800 C 109.758 284.800,110.530 284.035,111.261 283.100 C 112.987 280.889,113.466 280.400,113.902 280.400 C 114.321 280.400,116.000 278.685,116.000 278.256 C 116.000 277.845,117.891 276.000,118.312 276.000 C 118.729 276.000,120.400 274.276,120.400 273.846 C 120.400 273.467,120.951 272.939,123.100 271.261 C 124.035 270.530,124.800 269.758,124.800 269.544 C 124.800 269.029,127.197 266.855,128.071 266.577 C 128.449 266.457,128.875 265.994,129.017 265.548 C 129.329 264.565,131.413 262.513,132.426 262.192 C 132.829 262.064,133.275 261.594,133.417 261.148 C 133.729 260.165,135.813 258.113,136.826 257.792 C 137.229 257.664,137.664 257.229,137.792 256.826 C 138.113 255.813,140.165 253.729,141.148 253.417 C 141.594 253.275,142.064 252.829,142.192 252.426 C 142.513 251.413,144.565 249.329,145.548 249.017 C 145.994 248.875,146.457 248.449,146.577 248.071 C 146.855 247.197,149.029 244.800,149.544 244.800 C 149.758 244.800,150.530 244.035,151.261 243.100 C 152.987 240.889,153.466 240.400,153.902 240.400 C 154.321 240.400,156.000 238.685,156.000 238.256 C 156.000 237.845,157.891 236.000,158.312 236.000 C 158.729 236.000,160.400 234.276,160.400 233.846 C 160.400 233.467,160.951 232.939,163.100 231.261 C 164.035 230.530,164.800 229.758,164.800 229.544 C 164.800 229.029,167.197 226.855,168.071 226.577 C 168.449 226.457,168.875 225.994,169.017 225.548 C 169.329 224.565,171.413 222.513,172.426 222.192 C 172.829 222.064,173.275 221.594,173.417 221.148 C 173.729 220.165,175.813 218.113,176.826 217.792 C 177.229 217.664,177.664 217.229,177.792 216.826 C 178.113 215.813,180.165 213.729,181.148 213.417 C 181.594 213.275,182.064 212.829,182.192 212.426 C 182.513 211.413,184.565 209.329,185.548 209.017 C 185.994 208.875,186.457 208.449,186.577 208.071 C 186.856 207.193,189.030 204.800,189.548 204.800 C 192.586 204.800,192.278 197.275,189.150 195.090 C 188.276 194.479,187.192 193.354,186.741 192.590 C 186.290 191.825,185.704 191.200,185.439 191.200 C 184.842 191.200,182.400 188.725,182.400 188.120 C 182.400 187.878,181.795 187.322,181.056 186.886 C 180.316 186.450,179.191 185.397,178.556 184.546 C 177.920 183.696,177.220 182.927,177.000 182.838 C 176.455 182.618,173.973 180.049,173.002 178.700 C 172.566 178.095,171.991 177.600,171.722 177.600 C 171.454 177.600,170.731 176.946,170.117 176.147 C 169.503 175.347,168.652 174.402,168.226 174.047 C 167.220 173.207,160.393 166.380,159.553 165.374 C 159.198 164.948,158.253 164.097,157.453 163.483 C 156.654 162.869,156.000 162.146,156.000 161.878 C 156.000 161.609,155.505 161.034,154.900 160.598 C 153.551 159.627,150.982 157.145,150.762 156.600 C 150.673 156.380,149.904 155.680,149.054 155.044 C 148.203 154.409,147.150 153.284,146.714 152.544 C 146.278 151.805,145.704 151.200,145.439 151.200 C 144.842 151.200,142.400 148.725,142.400 148.120 C 142.400 147.878,141.795 147.322,141.056 146.886 C 140.316 146.450,139.191 145.397,138.556 144.546 C 137.920 143.696,137.220 142.927,137.000 142.838 C 136.455 142.618,133.973 140.049,133.002 138.700 C 132.566 138.095,131.991 137.600,131.722 137.600 C 131.454 137.600,130.731 136.946,130.117 136.147 C 129.503 135.347,128.652 134.402,128.226 134.047 C 127.800 133.691,125.820 131.768,123.826 129.774 C 121.832 127.780,119.909 125.800,119.553 125.374 C 119.198 124.948,118.253 124.097,117.453 123.483 C 116.654 122.869,116.000 122.146,116.000 121.878 C 116.000 121.609,115.505 121.034,114.900 120.598 C 113.551 119.627,110.982 117.145,110.762 116.600 C 110.673 116.380,109.904 115.680,109.054 115.044 C 108.203 114.409,107.150 113.284,106.714 112.544 C 106.278 111.805,105.704 111.200,105.439 111.200 C 104.842 111.200,102.400 108.725,102.400 108.120 C 102.400 107.878,101.795 107.322,101.056 106.886 C 100.316 106.450,99.191 105.397,98.556 104.546 C 97.920 103.696,97.220 102.927,97.000 102.838 C 96.455 102.618,93.973 100.049,93.002 98.700 C 92.566 98.095,91.991 97.600,91.722 97.600 C 91.454 97.600,90.731 96.946,90.117 96.147 C 89.503 95.347,88.652 94.402,88.226 94.047 C 87.220 93.207,80.393 86.380,79.553 85.374 C 79.198 84.948,78.253 84.097,77.453 83.483 C 76.654 82.869,76.000 82.146,76.000 81.878 C 76.000 81.609,75.505 81.034,74.900 80.598 C 73.551 79.627,70.982 77.145,70.762 76.600 C 70.673 76.380,69.904 75.680,69.054 75.044 C 68.203 74.409,67.150 73.284,66.714 72.544 C 66.278 71.805,65.704 71.200,65.439 71.200 C 64.842 71.200,62.400 68.725,62.400 68.120 C 62.400 67.878,61.795 67.322,61.056 66.886 C 60.316 66.450,59.191 65.397,58.556 64.546 C 57.920 63.696,57.220 62.927,57.000 62.838 C 56.455 62.618,53.973 60.049,53.002 58.700 C 52.566 58.095,51.991 57.600,51.722 57.600 C 51.454 57.600,50.731 56.946,50.117 56.147 C 49.503 55.347,48.652 54.402,48.226 54.047 C 47.220 53.207,40.393 46.380,39.553 45.374 C 39.198 44.948,38.253 44.097,37.453 43.483 C 36.654 42.869,36.000 42.146,36.000 41.878 C 36.000 41.609,35.505 41.034,34.900 40.598 C 33.551 39.627,30.982 37.145,30.762 36.600 C 30.673 36.380,29.904 35.680,29.054 35.044 C 28.203 34.409,27.150 33.284,26.714 32.544 C 26.278 31.805,25.704 31.200,25.439 31.200 C 24.827 31.200,22.400 28.718,22.400 28.091 C 22.400 27.035,20.111 26.336,19.849 27.312 M378.900 27.544 C 378.515 27.954,377.660 28.940,377.000 29.736 C 376.340 30.532,375.587 31.187,375.327 31.191 C 375.067 31.196,374.447 31.785,373.950 32.500 C 373.452 33.215,372.499 34.250,371.832 34.800 C 371.165 35.350,370.255 36.232,369.810 36.759 C 369.364 37.287,368.395 38.277,367.654 38.959 C 365.998 40.487,364.920 41.556,363.531 43.050 C 362.943 43.683,361.953 44.668,361.331 45.241 C 360.709 45.813,359.642 46.893,358.959 47.641 C 358.277 48.388,357.287 49.364,356.759 49.810 C 356.232 50.255,355.350 51.165,354.800 51.832 C 354.250 52.499,353.215 53.452,352.500 53.950 C 351.785 54.447,351.196 55.067,351.191 55.327 C 351.187 55.587,350.532 56.340,349.736 57.000 C 348.940 57.660,347.999 58.512,347.644 58.892 C 347.290 59.273,346.280 60.301,345.400 61.176 C 343.417 63.150,343.150 63.417,341.176 65.400 C 340.301 66.280,339.273 67.290,338.892 67.644 C 338.512 67.999,337.660 68.940,337.000 69.736 C 336.340 70.532,335.587 71.187,335.327 71.191 C 335.067 71.196,334.447 71.785,333.950 72.500 C 333.452 73.215,332.499 74.250,331.832 74.800 C 331.165 75.350,330.255 76.232,329.810 76.759 C 329.364 77.287,328.395 78.277,327.654 78.959 C 325.998 80.487,324.920 81.556,323.531 83.050 C 322.943 83.683,321.953 84.668,321.331 85.241 C 320.709 85.813,319.642 86.893,318.959 87.641 C 318.277 88.388,317.287 89.364,316.759 89.810 C 316.232 90.255,315.350 91.165,314.800 91.832 C 314.250 92.499,313.215 93.452,312.500 93.950 C 311.785 94.447,311.196 95.067,311.191 95.327 C 311.187 95.587,310.532 96.340,309.736 97.000 C 308.940 97.660,307.999 98.512,307.644 98.892 C 307.290 99.273,306.280 100.301,305.400 101.176 C 303.417 103.150,303.150 103.417,301.176 105.400 C 300.301 106.280,299.273 107.290,298.892 107.644 C 298.512 107.999,297.660 108.940,297.000 109.736 C 296.340 110.532,295.587 111.187,295.327 111.191 C 295.067 111.196,294.447 111.785,293.950 112.500 C 293.452 113.215,292.499 114.250,291.832 114.800 C 291.165 115.350,290.255 116.232,289.810 116.759 C 289.364 117.287,288.388 118.277,287.641 118.959 C 286.893 119.642,285.813 120.709,285.241 121.331 C 284.668 121.953,283.683 122.943,283.050 123.531 C 281.556 124.920,280.487 125.998,278.959 127.654 C 278.277 128.395,277.287 129.364,276.759 129.810 C 276.232 130.255,275.350 131.165,274.800 131.832 C 274.250 132.499,273.215 133.452,272.500 133.950 C 271.785 134.447,271.196 135.067,271.191 135.327 C 271.187 135.587,270.532 136.340,269.736 137.000 C 268.940 137.660,267.999 138.512,267.644 138.892 C 267.290 139.273,266.280 140.301,265.400 141.176 C 263.417 143.150,263.150 143.417,261.176 145.400 C 260.301 146.280,259.273 147.290,258.892 147.644 C 258.512 147.999,257.660 148.940,257.000 149.736 C 256.340 150.532,255.587 151.187,255.327 151.191 C 255.067 151.196,254.447 151.785,253.950 152.500 C 253.452 153.215,252.499 154.250,251.832 154.800 C 251.165 155.350,250.255 156.232,249.810 156.759 C 249.364 157.287,248.388 158.277,247.641 158.959 C 246.893 159.642,245.813 160.709,245.241 161.331 C 244.668 161.953,243.683 162.943,243.050 163.531 C 241.556 164.920,240.487 165.998,238.959 167.654 C 238.277 168.395,237.287 169.364,236.759 169.810 C 236.232 170.255,235.350 171.165,234.800 171.832 C 234.250 172.499,233.215 173.452,232.500 173.950 C 231.785 174.447,231.196 175.067,231.191 175.327 C 231.187 175.587,230.532 176.340,229.736 177.000 C 228.940 177.660,227.999 178.512,227.644 178.892 C 227.290 179.273,226.280 180.301,225.400 181.176 C 223.417 183.150,223.150 183.417,221.176 185.400 C 220.301 186.280,219.273 187.290,218.892 187.644 C 218.512 187.999,217.660 188.940,217.000 189.736 C 216.340 190.532,215.587 191.187,215.327 191.191 C 215.067 191.196,214.447 191.785,213.950 192.500 C 213.452 193.215,212.501 194.250,211.837 194.800 C 209.049 197.108,208.800 197.553,208.800 200.216 C 208.800 202.426,208.924 202.825,209.872 203.658 C 210.461 204.176,211.628 205.320,212.464 206.200 C 213.299 207.080,214.274 208.070,214.629 208.400 C 214.984 208.730,216.064 209.810,217.030 210.800 C 217.995 211.790,218.993 212.780,219.247 213.000 C 219.501 213.220,220.502 214.210,221.471 215.200 C 222.439 216.190,223.419 217.180,223.648 217.400 C 223.876 217.620,224.867 218.610,225.850 219.600 C 226.833 220.590,227.796 221.548,227.990 221.728 C 228.449 222.154,231.446 225.151,231.872 225.610 C 232.052 225.804,233.010 226.767,234.000 227.750 C 234.990 228.733,235.980 229.724,236.200 229.952 C 236.420 230.181,237.410 231.161,238.400 232.129 C 239.390 233.098,240.380 234.099,240.600 234.353 C 240.820 234.607,241.810 235.605,242.800 236.570 C 243.790 237.536,244.917 238.657,245.305 239.063 C 245.693 239.468,246.801 240.582,247.768 241.537 C 249.926 243.671,249.905 243.650,252.168 245.937 C 253.181 246.962,254.295 248.070,254.642 248.400 C 254.990 248.730,256.064 249.810,257.030 250.800 C 257.995 251.790,258.993 252.780,259.247 253.000 C 259.501 253.220,260.502 254.210,261.471 255.200 C 262.439 256.190,263.419 257.180,263.648 257.400 C 263.876 257.620,264.867 258.610,265.850 259.600 C 266.833 260.590,267.764 261.515,267.919 261.656 C 268.284 261.989,271.281 264.986,271.800 265.538 C 272.020 265.771,273.010 266.767,274.000 267.750 C 274.990 268.733,275.980 269.724,276.200 269.952 C 276.420 270.181,277.410 271.161,278.400 272.129 C 279.390 273.098,280.380 274.099,280.600 274.353 C 280.820 274.607,281.810 275.605,282.800 276.570 C 283.790 277.536,284.894 278.634,285.253 279.010 C 285.612 279.387,286.748 280.528,287.778 281.547 C 290.078 283.823,290.057 283.801,292.178 285.947 C 293.128 286.908,294.213 287.988,294.590 288.347 C 294.966 288.706,296.064 289.810,297.030 290.800 C 297.995 291.790,298.993 292.780,299.247 293.000 C 299.501 293.220,300.502 294.210,301.471 295.200 C 302.439 296.190,303.419 297.180,303.648 297.400 C 303.876 297.620,304.867 298.610,305.850 299.600 C 306.833 300.590,307.796 301.548,307.990 301.728 C 308.449 302.154,311.446 305.151,311.872 305.610 C 312.052 305.804,313.010 306.767,314.000 307.750 C 314.990 308.733,315.980 309.724,316.200 309.952 C 316.420 310.181,317.410 311.161,318.400 312.129 C 319.390 313.098,320.380 314.099,320.600 314.353 C 320.820 314.607,321.810 315.605,322.800 316.570 C 323.790 317.536,324.894 318.634,325.253 319.010 C 325.612 319.387,326.720 320.500,327.715 321.485 C 329.938 323.683,329.917 323.662,332.115 325.885 C 333.100 326.880,334.213 327.988,334.590 328.347 C 334.966 328.706,336.064 329.810,337.030 330.800 C 337.995 331.790,338.993 332.780,339.247 333.000 C 339.501 333.220,340.502 334.210,341.471 335.200 C 342.439 336.190,343.419 337.180,343.648 337.400 C 343.876 337.620,344.867 338.610,345.850 339.600 C 346.833 340.590,347.796 341.548,347.990 341.728 C 348.449 342.154,351.446 345.151,351.872 345.610 C 352.052 345.804,353.010 346.767,354.000 347.750 C 354.990 348.733,355.980 349.724,356.200 349.952 C 356.420 350.181,357.410 351.161,358.400 352.129 C 359.390 353.098,360.380 354.099,360.600 354.353 C 360.820 354.607,361.810 355.605,362.800 356.570 C 363.790 357.536,364.894 358.634,365.253 359.010 C 365.612 359.387,366.692 360.472,367.653 361.422 C 369.815 363.559,370.041 363.785,372.178 365.947 C 374.193 367.986,374.658 368.442,376.460 370.150 C 377.197 370.848,378.204 371.910,378.697 372.510 C 379.840 373.898,380.400 373.894,380.400 372.500 C 380.400 371.569,367.329 358.328,295.800 286.800 L 211.200 202.201 211.200 200.167 L 211.200 198.132 295.790 113.566 C 366.914 42.462,380.381 28.825,380.390 27.900 C 380.402 26.619,379.886 26.496,378.900 27.544 M380.600 200.000 C 380.600 293.746,380.717 370.032,380.860 369.524 C 381.200 368.316,381.200 31.684,380.860 30.476 C 380.717 29.968,380.600 106.254,380.600 200.000 M19.054 32.656 C 18.673 35.440,18.794 366.347,19.177 368.200 C 19.359 369.080,19.529 293.525,19.554 200.300 C 19.579 107.075,19.534 30.800,19.454 30.800 C 19.374 30.800,19.194 31.635,19.054 32.656 M196.758 209.715 C 196.231 210.218,195.350 211.173,194.800 211.837 C 194.250 212.501,193.215 213.452,192.500 213.950 C 191.785 214.447,191.196 215.067,191.191 215.327 C 191.187 215.587,190.532 216.340,189.736 217.000 C 188.940 217.660,187.999 218.512,187.644 218.892 C 187.290 219.273,186.280 220.301,185.400 221.176 C 183.417 223.150,183.150 223.417,181.176 225.400 C 180.301 226.280,179.273 227.290,178.892 227.644 C 178.512 227.999,177.660 228.940,177.000 229.736 C 176.340 230.532,175.587 231.187,175.327 231.191 C 175.067 231.196,174.447 231.785,173.950 232.500 C 173.452 233.215,172.499 234.250,171.832 234.800 C 171.165 235.350,170.255 236.232,169.810 236.759 C 169.364 237.287,168.395 238.277,167.654 238.959 C 165.998 240.487,164.920 241.556,163.531 243.050 C 162.943 243.683,161.953 244.668,161.331 245.241 C 160.709 245.813,159.642 246.893,158.959 247.641 C 158.277 248.388,157.287 249.364,156.759 249.810 C 156.232 250.255,155.350 251.165,154.800 251.832 C 154.250 252.499,153.215 253.452,152.500 253.950 C 151.785 254.447,151.196 255.067,151.191 255.327 C 151.187 255.587,150.532 256.340,149.736 257.000 C 148.940 257.660,147.999 258.512,147.644 258.892 C 147.290 259.273,146.280 260.301,145.400 261.176 C 143.417 263.150,143.150 263.417,141.176 265.400 C 140.301 266.280,139.273 267.290,138.892 267.644 C 138.512 267.999,137.660 268.940,137.000 269.736 C 136.340 270.532,135.587 271.187,135.327 271.191 C 135.067 271.196,134.447 271.785,133.950 272.500 C 133.452 273.215,132.499 274.250,131.832 274.800 C 131.165 275.350,130.255 276.232,129.810 276.759 C 129.364 277.287,128.395 278.277,127.654 278.959 C 125.998 280.487,124.920 281.556,123.531 283.050 C 122.943 283.683,121.953 284.668,121.331 285.241 C 120.709 285.813,119.642 286.893,118.959 287.641 C 118.277 288.388,117.287 289.364,116.759 289.810 C 116.232 290.255,115.350 291.165,114.800 291.832 C 114.250 292.499,113.215 293.452,112.500 293.950 C 111.785 294.447,111.196 295.067,111.191 295.327 C 111.187 295.587,110.532 296.340,109.736 297.000 C 108.940 297.660,107.999 298.512,107.644 298.892 C 107.290 299.273,106.280 300.301,105.400 301.176 C 103.417 303.150,103.150 303.417,101.176 305.400 C 100.301 306.280,99.273 307.290,98.892 307.644 C 98.512 307.999,97.660 308.940,97.000 309.736 C 96.340 310.532,95.587 311.187,95.327 311.191 C 95.067 311.196,94.447 311.785,93.950 312.500 C 93.452 313.215,92.499 314.250,91.832 314.800 C 91.165 315.350,90.255 316.232,89.810 316.759 C 89.364 317.287,88.388 318.277,87.641 318.959 C 86.893 319.642,85.813 320.709,85.241 321.331 C 84.668 321.953,83.683 322.943,83.050 323.531 C 81.556 324.920,80.487 325.998,78.959 327.654 C 78.277 328.395,77.287 329.364,76.759 329.810 C 76.232 330.255,75.350 331.165,74.800 331.832 C 74.250 332.499,73.215 333.452,72.500 333.950 C 71.785 334.447,71.196 335.067,71.191 335.327 C 71.187 335.587,70.532 336.340,69.736 337.000 C 68.940 337.660,67.999 338.512,67.644 338.892 C 67.290 339.273,66.280 340.301,65.400 341.176 C 63.417 343.150,63.150 343.417,61.176 345.400 C 60.301 346.280,59.273 347.290,58.892 347.644 C 58.512 347.999,57.660 348.940,57.000 349.736 C 56.340 350.532,55.587 351.187,55.327 351.191 C 55.067 351.196,54.447 351.785,53.950 352.500 C 53.452 353.215,52.499 354.250,51.832 354.800 C 51.165 355.350,50.255 356.232,49.810 356.759 C 49.364 357.287,48.388 358.277,47.641 358.959 C 46.893 359.642,45.813 360.709,45.241 361.331 C 44.668 361.953,43.683 362.943,43.050 363.531 C 41.556 364.920,40.487 365.998,38.959 367.654 C 38.277 368.395,37.287 369.364,36.759 369.810 C 36.232 370.255,35.350 371.165,34.800 371.832 C 34.250 372.499,33.215 373.452,32.500 373.950 C 31.785 374.447,31.196 375.067,31.191 375.327 C 31.187 375.587,30.532 376.340,29.736 377.000 C 26.423 379.747,26.066 380.407,27.900 380.390 C 28.825 380.381,42.453 366.923,113.511 295.845 L 198.023 211.310 200.191 211.086 L 202.359 210.862 287.126 295.631 C 372.031 380.537,374.003 382.455,374.000 380.100 C 373.999 379.610,372.253 377.764,371.542 377.501 C 371.181 377.367,370.372 376.570,369.745 375.729 C 369.118 374.888,368.334 374.031,368.002 373.825 C 367.389 373.442,360.729 366.782,359.553 365.374 C 359.198 364.948,358.253 364.097,357.453 363.483 C 356.654 362.869,356.000 362.146,356.000 361.878 C 356.000 361.609,355.505 361.034,354.900 360.598 C 353.551 359.627,350.982 357.145,350.762 356.600 C 350.673 356.380,349.904 355.680,349.054 355.044 C 348.203 354.409,347.150 353.284,346.714 352.544 C 346.278 351.805,345.704 351.200,345.439 351.200 C 344.842 351.200,342.400 348.725,342.400 348.120 C 342.400 347.878,341.795 347.322,341.056 346.886 C 340.316 346.450,339.191 345.397,338.556 344.546 C 337.920 343.696,337.220 342.927,337.000 342.838 C 336.455 342.618,333.973 340.049,333.002 338.700 C 332.566 338.095,331.991 337.600,331.722 337.600 C 331.454 337.600,330.731 336.946,330.117 336.147 C 329.503 335.347,328.652 334.402,328.226 334.047 C 327.220 333.207,320.393 326.380,319.553 325.374 C 319.198 324.948,318.253 324.097,317.453 323.483 C 316.654 322.869,316.000 322.146,316.000 321.878 C 316.000 321.609,315.505 321.034,314.900 320.598 C 313.551 319.627,310.982 317.145,310.762 316.600 C 310.673 316.380,309.904 315.680,309.054 315.044 C 308.203 314.409,307.150 313.284,306.714 312.544 C 306.278 311.805,305.704 311.200,305.439 311.200 C 304.842 311.200,302.400 308.725,302.400 308.120 C 302.400 307.878,301.795 307.322,301.056 306.886 C 300.316 306.450,299.191 305.397,298.556 304.546 C 297.920 303.696,297.220 302.927,297.000 302.838 C 296.455 302.618,293.973 300.049,293.002 298.700 C 292.566 298.095,291.991 297.600,291.722 297.600 C 291.454 297.600,290.731 296.946,290.117 296.147 C 289.503 295.347,288.652 294.402,288.226 294.047 C 287.220 293.207,280.393 286.380,279.553 285.374 C 279.198 284.948,278.253 284.097,277.453 283.483 C 276.654 282.869,276.000 282.146,276.000 281.878 C 276.000 281.609,275.505 281.034,274.900 280.598 C 273.551 279.627,270.982 277.145,270.762 276.600 C 270.673 276.380,269.904 275.680,269.054 275.044 C 268.203 274.409,267.150 273.284,266.714 272.544 C 266.278 271.805,265.704 271.200,265.439 271.200 C 264.842 271.200,262.400 268.725,262.400 268.120 C 262.400 267.878,261.795 267.322,261.056 266.886 C 260.316 266.450,259.191 265.397,258.556 264.546 C 257.920 263.696,257.220 262.927,257.000 262.838 C 256.455 262.618,253.973 260.049,253.002 258.700 C 252.566 258.095,251.991 257.600,251.722 257.600 C 251.454 257.600,250.731 256.946,250.117 256.147 C 249.503 255.347,248.652 254.402,248.226 254.047 C 247.800 253.691,245.820 251.768,243.826 249.774 C 241.832 247.780,239.909 245.800,239.553 245.374 C 239.198 244.948,238.253 244.097,237.453 243.483 C 236.654 242.869,236.000 242.146,236.000 241.878 C 236.000 241.609,235.505 241.034,234.900 240.598 C 233.551 239.627,230.982 237.145,230.762 236.600 C 230.673 236.380,229.904 235.680,229.054 235.044 C 228.203 234.409,227.150 233.284,226.714 232.544 C 226.278 231.805,225.704 231.200,225.439 231.200 C 224.842 231.200,222.400 228.725,222.400 228.120 C 222.400 227.878,221.795 227.322,221.056 226.886 C 220.316 226.450,219.191 225.397,218.556 224.546 C 217.920 223.696,217.220 222.927,217.000 222.838 C 216.517 222.643,214.109 220.190,213.000 218.764 C 212.560 218.198,211.888 217.622,211.507 217.483 C 211.126 217.344,210.316 216.521,209.707 215.653 C 209.098 214.785,208.121 213.788,207.536 213.436 C 206.951 213.085,205.719 211.898,204.799 210.799 L 203.126 208.800 200.421 208.800 C 198.150 208.800,197.563 208.947,196.758 209.715 M30.476 380.860 C 31.684 381.200,369.116 381.200,370.324 380.860 C 370.832 380.717,294.366 380.600,200.400 380.600 C 106.434 380.600,29.968 380.717,30.476 380.860 " stroke="none" fill="#dcdcdc" fill-rule="evenodd"></path>
    <path id="path4" d="M29.904 19.932 C 29.356 20.149,47.242 38.230,113.504 104.444 L 197.800 188.680 199.987 189.153 L 202.173 189.626 286.889 104.913 C 377.501 14.304,372.377 19.648,368.600 19.694 C 367.689 19.705,367.619 19.751,368.310 19.884 C 369.077 20.031,356.175 33.102,285.847 103.429 L 202.475 186.800 200.294 186.800 L 198.112 186.800 192.456 181.144 C 189.345 178.033,186.800 175.376,186.800 175.239 C 186.800 175.102,186.313 174.632,185.717 174.195 C 185.121 173.758,184.176 172.886,183.617 172.258 C 183.058 171.630,182.097 170.640,181.481 170.058 C 180.866 169.476,179.696 168.305,178.881 167.456 C 177.422 165.935,176.632 165.175,174.454 163.200 C 173.847 162.650,173.231 161.881,173.085 161.491 C 172.938 161.101,172.499 160.662,172.109 160.515 C 171.719 160.369,170.950 159.753,170.400 159.146 C 168.425 156.968,167.665 156.178,166.144 154.719 C 165.295 153.904,164.124 152.734,163.542 152.119 C 162.960 151.503,161.970 150.542,161.342 149.983 C 160.714 149.424,159.842 148.479,159.405 147.883 C 158.968 147.287,158.498 146.800,158.361 146.800 C 158.224 146.800,155.567 144.255,152.456 141.144 C 149.345 138.033,146.800 135.376,146.800 135.239 C 146.800 135.102,146.313 134.632,145.717 134.195 C 145.121 133.758,144.176 132.886,143.617 132.258 C 143.058 131.630,142.097 130.640,141.481 130.058 C 140.866 129.476,139.696 128.305,138.881 127.456 C 137.422 125.935,136.632 125.175,134.454 123.200 C 133.847 122.650,133.231 121.881,133.085 121.491 C 132.938 121.101,132.499 120.662,132.109 120.515 C 131.719 120.369,130.950 119.753,130.400 119.146 C 128.425 116.968,127.665 116.178,126.144 114.719 C 125.295 113.904,124.124 112.734,123.542 112.119 C 122.960 111.503,121.970 110.542,121.342 109.983 C 120.714 109.424,119.842 108.479,119.405 107.883 C 118.968 107.287,118.498 106.800,118.361 106.800 C 118.036 106.800,106.800 95.564,106.800 95.239 C 106.800 95.102,106.313 94.632,105.717 94.195 C 105.121 93.758,104.176 92.886,103.617 92.258 C 103.058 91.630,102.097 90.640,101.481 90.058 C 100.866 89.476,99.696 88.305,98.881 87.456 C 97.422 85.935,96.632 85.175,94.454 83.200 C 93.847 82.650,93.231 81.881,93.085 81.491 C 92.938 81.101,92.499 80.662,92.109 80.515 C 91.719 80.369,90.950 79.753,90.400 79.146 C 88.425 76.968,87.665 76.178,86.144 74.719 C 85.295 73.904,84.124 72.734,83.542 72.119 C 82.960 71.503,81.970 70.542,81.342 69.983 C 80.714 69.424,79.842 68.479,79.405 67.883 C 78.968 67.287,78.498 66.800,78.361 66.800 C 78.224 66.800,75.567 64.255,72.456 61.144 C 69.345 58.033,66.800 55.376,66.800 55.239 C 66.800 55.102,66.313 54.632,65.717 54.195 C 65.121 53.758,64.176 52.886,63.617 52.258 C 63.058 51.630,62.097 50.640,61.481 50.058 C 60.866 49.476,59.696 48.305,58.881 47.456 C 57.422 45.935,56.632 45.175,54.454 43.200 C 53.847 42.650,53.231 41.881,53.085 41.491 C 52.938 41.101,52.499 40.662,52.109 40.515 C 51.719 40.369,50.950 39.753,50.400 39.146 C 48.425 36.968,47.665 36.178,46.144 34.719 C 45.295 33.904,44.124 32.734,43.542 32.119 C 42.960 31.503,41.970 30.542,41.342 29.983 C 40.714 29.424,39.842 28.479,39.405 27.883 C 38.968 27.287,38.491 26.800,38.345 26.800 C 37.446 26.800,31.416 20.023,32.180 19.872 C 32.700 19.769,32.561 19.699,31.800 19.683 C 31.140 19.668,30.287 19.780,29.904 19.932 M19.782 30.578 C 19.629 31.600,19.615 32.549,19.752 32.685 C 19.888 32.822,20.000 32.509,20.000 31.991 C 20.000 31.265,39.123 50.168,103.392 114.424 L 186.785 197.800 186.792 200.138 L 186.800 202.475 103.400 285.876 C 41.069 348.208,20.000 369.048,20.000 368.372 C 20.000 367.874,19.888 367.578,19.752 367.715 C 19.615 367.851,19.631 368.811,19.786 369.847 L 20.069 371.731 104.834 286.966 L 189.600 202.201 189.600 200.151 L 189.600 198.102 105.841 114.351 C 59.773 68.288,21.627 30.177,21.071 29.659 L 20.061 28.718 19.782 30.578 M295.669 113.667 L 211.200 198.133 211.200 200.167 L 211.200 202.201 295.800 286.800 C 369.319 360.318,380.400 371.250,380.400 370.258 C 380.400 368.955,379.105 367.418,374.454 363.200 C 373.847 362.650,373.231 361.881,373.085 361.491 C 372.938 361.101,372.499 360.662,372.109 360.515 C 371.719 360.369,370.950 359.753,370.400 359.146 C 368.425 356.968,367.665 356.178,366.144 354.719 C 365.295 353.904,364.124 352.734,363.542 352.119 C 362.960 351.503,361.970 350.542,361.342 349.983 C 360.714 349.424,359.842 348.479,359.405 347.883 C 358.968 347.287,358.498 346.800,358.361 346.800 C 358.036 346.800,346.800 335.564,346.800 335.239 C 346.800 335.102,346.313 334.632,345.717 334.195 C 345.121 333.758,344.176 332.886,343.617 332.258 C 343.058 331.630,342.097 330.640,341.481 330.058 C 340.866 329.476,339.696 328.305,338.881 327.456 C 337.422 325.935,336.632 325.175,334.454 323.200 C 333.847 322.650,333.231 321.881,333.085 321.491 C 332.938 321.101,332.499 320.662,332.109 320.515 C 331.719 320.369,330.950 319.753,330.400 319.146 C 328.425 316.968,327.665 316.178,326.144 314.719 C 325.295 313.904,324.124 312.734,323.542 312.119 C 322.960 311.503,321.970 310.542,321.342 309.983 C 320.714 309.424,319.842 308.479,319.405 307.883 C 318.968 307.287,318.498 306.800,318.361 306.800 C 318.036 306.800,306.800 295.564,306.800 295.239 C 306.800 295.102,306.313 294.632,305.717 294.195 C 305.121 293.758,304.176 292.886,303.617 292.258 C 303.058 291.630,302.097 290.640,301.481 290.058 C 300.866 289.476,299.696 288.305,298.881 287.456 C 297.422 285.935,296.632 285.175,294.454 283.200 C 293.847 282.650,293.231 281.881,293.085 281.491 C 292.938 281.101,292.499 280.662,292.109 280.515 C 291.719 280.369,290.950 279.753,290.400 279.146 C 288.425 276.968,287.665 276.178,286.144 274.719 C 285.295 273.904,284.124 272.734,283.542 272.119 C 282.960 271.503,281.970 270.542,281.342 269.983 C 280.714 269.424,279.842 268.479,279.405 267.883 C 278.968 267.287,278.498 266.800,278.361 266.800 C 278.036 266.800,266.800 255.564,266.800 255.239 C 266.800 255.102,266.313 254.632,265.717 254.195 C 265.121 253.758,264.176 252.886,263.617 252.258 C 263.058 251.630,262.097 250.640,261.481 250.058 C 260.866 249.476,259.696 248.305,258.881 247.456 C 257.422 245.935,256.632 245.175,254.454 243.200 C 253.847 242.650,253.231 241.881,253.085 241.491 C 252.938 241.101,252.499 240.662,252.109 240.515 C 251.719 240.369,250.950 239.753,250.400 239.146 C 248.425 236.968,247.665 236.178,246.144 234.719 C 245.295 233.904,244.124 232.734,243.542 232.119 C 242.960 231.503,241.970 230.542,241.342 229.983 C 240.714 229.424,239.842 228.479,239.405 227.883 C 238.968 227.287,238.498 226.800,238.361 226.800 C 238.036 226.800,226.800 215.564,226.800 215.239 C 226.800 215.102,226.313 214.632,225.717 214.195 C 225.121 213.758,224.176 212.886,223.617 212.258 C 223.058 211.630,222.097 210.640,221.481 210.058 C 220.866 209.476,219.696 208.311,218.881 207.470 C 216.429 204.936,216.130 204.644,214.840 203.506 C 213.735 202.532,213.600 202.172,213.600 200.208 L 213.600 198.003 226.240 185.442 C 233.193 178.533,239.088 172.661,239.340 172.392 C 239.593 172.123,240.610 171.105,241.600 170.129 C 242.590 169.153,243.549 168.199,243.732 168.009 C 244.164 167.561,247.561 164.164,248.009 163.732 C 248.199 163.549,249.153 162.590,250.129 161.600 C 251.105 160.610,252.123 159.593,252.392 159.340 C 253.030 158.740,278.603 133.168,279.281 132.452 C 279.566 132.150,280.610 131.105,281.600 130.129 C 282.590 129.153,283.519 128.230,283.664 128.077 C 284.008 127.716,287.716 124.008,288.077 123.664 C 288.230 123.519,289.153 122.590,290.129 121.600 C 291.105 120.610,292.096 119.620,292.332 119.400 C 292.893 118.878,318.740 93.030,319.340 92.392 C 319.593 92.123,320.610 91.105,321.600 90.129 C 322.590 89.153,323.549 88.199,323.732 88.009 C 324.164 87.561,327.561 84.164,328.009 83.732 C 328.199 83.549,329.153 82.590,330.129 81.600 C 331.105 80.610,332.123 79.593,332.392 79.340 C 333.030 78.740,358.740 53.030,359.340 52.392 C 359.593 52.123,360.610 51.105,361.600 50.129 C 362.590 49.153,363.519 48.230,363.664 48.077 C 364.008 47.717,367.560 44.164,368.009 43.732 C 368.199 43.549,369.153 42.590,370.129 41.600 C 371.105 40.610,372.150 39.560,372.452 39.268 C 378.873 33.034,381.850 29.200,380.269 29.200 C 380.197 29.200,342.127 67.210,295.669 113.667 M380.598 200.200 C 380.598 292.600,380.644 330.460,380.700 284.333 C 380.756 238.206,380.756 162.606,380.700 116.333 C 380.644 70.060,380.598 107.800,380.598 200.200 M199.746 211.091 C 198.133 211.238,195.974 213.360,113.746 295.622 C 67.356 342.031,29.325 380.092,29.233 380.201 C 29.142 380.311,29.544 380.400,30.127 380.400 C 31.076 380.400,34.130 377.745,39.268 372.452 C 39.560 372.150,40.610 371.105,41.600 370.129 C 42.590 369.153,43.549 368.199,43.732 368.009 C 44.164 367.561,47.561 364.164,48.009 363.732 C 48.199 363.549,49.153 362.590,50.129 361.600 C 51.105 360.610,52.123 359.593,52.392 359.340 C 53.030 358.740,78.878 332.893,79.400 332.332 C 79.620 332.096,80.610 331.105,81.600 330.129 C 82.590 329.153,83.580 328.169,83.800 327.942 C 84.320 327.405,87.717 324.008,88.077 323.664 C 88.230 323.519,89.153 322.590,90.129 321.600 C 91.105 320.610,92.096 319.620,92.332 319.400 C 92.893 318.878,118.878 292.893,119.400 292.332 C 119.620 292.096,120.610 291.105,121.600 290.129 C 122.590 289.153,123.580 288.169,123.800 287.942 C 124.320 287.405,127.717 284.008,128.077 283.664 C 128.230 283.519,129.153 282.590,130.129 281.600 C 131.105 280.610,132.150 279.566,132.452 279.281 C 133.168 278.603,158.740 253.030,159.340 252.392 C 159.593 252.123,160.610 251.105,161.600 250.129 C 162.590 249.153,163.549 248.199,163.732 248.009 C 164.164 247.561,167.561 244.164,168.009 243.732 C 168.199 243.549,169.153 242.590,170.129 241.600 C 171.105 240.610,172.096 239.620,172.332 239.400 C 172.568 239.180,178.439 233.287,185.379 226.304 L 197.996 213.607 200.098 213.383 L 202.200 213.158 285.776 296.779 C 359.779 370.823,369.489 380.400,370.551 380.400 L 371.750 380.400 370.575 379.162 C 363.803 372.025,202.179 210.818,201.847 210.870 C 201.601 210.908,200.656 211.008,199.746 211.091 M116.300 380.700 C 162.555 380.756,238.245 380.756,284.500 380.700 C 330.755 380.644,292.910 380.598,200.400 380.598 C 107.890 380.598,70.045 380.644,116.300 380.700 " stroke="none" fill="#e4e4e4" fill-rule="evenodd"></path>
  </g>
</svg>
