<?xml version="1.0" encoding="UTF-8" standalone="no" ?>
<!DOCTYPE svg PUBLIC "-//W3C//DTD SVG 1.1//EN" "http://www.w3.org/Graphics/SVG/1.1/DTD/svg11.dtd">
<svg xmlns="http://www.w3.org/2000/svg" xmlns:xlink="http://www.w3.org/1999/xlink" version="1.1" width="512" height="512" viewBox="0 0 512 512" xml:space="preserve">
<desc>Created with Fabric.js 5.2.4</desc>
<defs>
</defs>
<g transform="matrix(1 0 0 1 256 256)" id="bed29e7c-63e3-4817-bb00-5b561c345df5"  >
<rect style="stroke: none; stroke-width: 1; stroke-dasharray: none; stroke-linecap: butt; stroke-dashoffset: 0; stroke-linejoin: miter; stroke-miterlimit: 4; fill: rgb(255,255,255); fill-rule: nonzero; opacity: 1; visibility: hidden;" vector-effect="non-scaling-stroke"  x="-256" y="-256" rx="0" ry="0" width="512" height="512" />
</g>
<g transform="matrix(Infinity NaN NaN Infinity 0 0)" id="f965a3bb-f7b0-42cb-955a-7a1d35f21a06"  >
</g>
<g transform="matrix(1 0 0 1 256 256)" id="e416f6f7-5491-492a-9f12-8d416461cf51"  >
<linearGradient id="SVGID_SVGID_1__3" gradientUnits="userSpaceOnUse" gradientTransform="matrix(1 0 0 1 0 0)"  x1="175.5" y1="109.5" x2="175.5" y2="361.35">
<stop offset="0%" style="stop-color:rgb(240,90,40);stop-opacity: 1"/>
<stop offset="100%" style="stop-color:rgb(251,202,10);stop-opacity: 1"/>
</linearGradient>
<path style="stroke: rgb(0,0,0); stroke-width: 0; stroke-dasharray: none; stroke-linecap: butt; stroke-dashoffset: 0; stroke-linejoin: miter; stroke-miterlimit: 4; fill: url(#SVGID_SVGID_1__3); fill-rule: nonzero; opacity: 1;" vector-effect="non-scaling-stroke"  transform=" translate(-175.52, -182.5)" d="M 342 161.2 C 341.4 155.1 340.4 148.1 338.4 140.29999999999998 C 336.4 132.6 333.4 124.09999999999998 329 115.29999999999998 C 324.6 106.49999999999999 318.9 97.39999999999998 311.5 88.49999999999999 C 308.6 84.99999999999999 305.4 81.59999999999998 302 78.29999999999998 C 307.1 57.999999999999986 295.8 40.399999999999984 295.8 40.399999999999984 C 276.3 39.19999999999998 263.90000000000003 46.499999999999986 259.3 49.79999999999998 C 258.5 49.499999999999986 257.8 49.09999999999998 257 48.79999999999998 C 253.7 47.499999999999986 250.3 46.19999999999998 246.7 45.09999999999998 C 243.2 43.99999999999998 239.6 42.99999999999998 235.89999999999998 42.09999999999998 C 232.2 41.19999999999998 228.49999999999997 40.49999999999998 224.7 39.89999999999998 C 224 39.799999999999976 223.39999999999998 39.699999999999974 222.7 39.59999999999998 C 214.2 12.39999999999998 189.79999999999998 0.9999999999999787 189.79999999999998 0.9999999999999787 C 162.49999999999997 18.29999999999998 157.39999999999998 42.49999999999998 157.39999999999998 42.49999999999998 C 157.39999999999998 42.49999999999998 157.29999999999998 42.99999999999998 157.09999999999997 43.89999999999998 C 155.59999999999997 44.299999999999976 154.09999999999997 44.799999999999976 152.59999999999997 45.199999999999974 C 150.49999999999997 45.799999999999976 148.39999999999998 46.59999999999997 146.39999999999998 47.39999999999998 C 144.29999999999998 48.199999999999974 142.29999999999998 48.99999999999998 140.2 49.89999999999998 C 136.1 51.699999999999974 132 53.699999999999974 127.99999999999999 55.89999999999998 C 124.09999999999998 58.09999999999998 120.29999999999998 60.49999999999998 116.59999999999998 62.99999999999998 C 116.09999999999998 62.799999999999976 115.59999999999998 62.59999999999998 115.59999999999998 62.59999999999998 C 77.79999999999998 48.19999999999998 44.29999999999998 65.49999999999999 44.29999999999998 65.49999999999999 C 41.19999999999998 105.69999999999999 59.399999999999984 131 62.999999999999986 135.59999999999997 C 62.09999999999999 138.09999999999997 61.29999999999998 140.59999999999997 60.499999999999986 143.09999999999997 C 57.69999999999999 152.19999999999996 55.59999999999999 161.49999999999997 54.29999999999998 171.19999999999996 C 54.09999999999998 172.59999999999997 53.899999999999984 173.99999999999997 53.79999999999998 175.39999999999995 C 18.8 192.7 8.5 228 8.5 228 C 37.6 261.5 71.6 263.6 71.6 263.6 C 71.6 263.6 71.69999999999999 263.5 71.69999999999999 263.5 C 75.99999999999999 271.2 80.99999999999999 278.5 86.6 285.4 C 89 288.29999999999995 91.39999999999999 291 94 293.7 C 83.4 324.09999999999997 95.5 349.3 95.5 349.3 C 127.9 350.5 149.2 335.1 153.7 331.6 C 156.89999999999998 332.70000000000005 160.2 333.70000000000005 163.5 334.5 C 173.5 337.1 183.7 338.6 193.9 339 C 196.4 339.1 199 339.2 201.5 339.1 L 202.7 339.1 L 203.5 339.1 L 205.1 339.1 L 206.7 339 L 206.7 339.1 C 222 360.90000000000003 248.79999999999998 364 248.79999999999998 364 C 267.9 343.9 269 323.9 269 319.6 L 269 319.6 C 269 319.6 269 319.5 269 319.3 C 269 318.90000000000003 269 318.7 269 318.7 L 269 318.7 C 269 318.4 269 318.09999999999997 269 317.8 C 273 315 276.8 312 280.4 308.7 C 288 301.8 294.7 293.9 300.29999999999995 285.4 C 300.79999999999995 284.59999999999997 301.29999999999995 283.79999999999995 301.79999999999995 283 C 323.4 284.2 338.69999999999993 269.6 338.69999999999993 269.6 C 335.0999999999999 247.10000000000002 322.29999999999995 236.10000000000002 319.5999999999999 234.00000000000003 L 319.5999999999999 234.00000000000003 C 319.5999999999999 234.00000000000003 319.4999999999999 233.90000000000003 319.2999999999999 233.80000000000004 C 319.0999999999999 233.70000000000005 319.0999999999999 233.60000000000005 319.0999999999999 233.60000000000005 C 319.0999999999999 233.60000000000005 319.0999999999999 233.60000000000005 319.0999999999999 233.60000000000005 C 318.9999999999999 233.50000000000006 318.7999999999999 233.40000000000006 318.5999999999999 233.30000000000004 C 318.69999999999993 231.90000000000003 318.7999999999999 230.60000000000005 318.8999999999999 229.20000000000005 C 319.0999999999999 226.80000000000004 319.0999999999999 224.30000000000004 319.0999999999999 221.90000000000003 L 319.0999999999999 220.10000000000002 L 319.0999999999999 219.20000000000002 L 319.0999999999999 218.70000000000002 C 319.0999999999999 218.10000000000002 319.0999999999999 218.3 319.0999999999999 218.10000000000002 L 318.9999999999999 216.60000000000002 L 318.89999999999986 214.60000000000002 C 318.89999999999986 213.90000000000003 318.79999999999984 213.3 318.6999999999999 212.70000000000002 C 318.59999999999985 212.10000000000002 318.59999999999985 211.4 318.4999999999999 210.8 L 318.2999999999999 208.9 L 317.9999999999999 207 C 317.5999999999999 204.5 317.1999999999999 202.1 316.5999999999999 199.6 C 314.2999999999999 189.9 310.4999999999999 180.7 305.5999999999999 172.4 C 300.5999999999999 164.1 294.3999999999999 156.8 287.2999999999999 150.6 C 280.2999999999999 144.4 272.3999999999999 139.4 264.1999999999999 135.7 C 255.89999999999986 132 247.29999999999987 129.6 238.69999999999987 128.5 C 234.39999999999986 127.9 230.09999999999988 127.7 225.79999999999987 127.8 L 224.19999999999987 127.8 L 223.79999999999987 127.8 C 223.69999999999987 127.8 223.19999999999987 127.8 223.29999999999987 127.8 L 222.59999999999988 127.8 L 220.9999999999999 127.89999999999999 C 220.3999999999999 127.89999999999999 219.7999999999999 127.99999999999999 219.2999999999999 127.99999999999999 C 217.0999999999999 128.2 214.8999999999999 128.5 212.7999999999999 128.89999999999998 C 204.1999999999999 130.49999999999997 196.0999999999999 133.59999999999997 188.9999999999999 137.89999999999998 C 181.8999999999999 142.2 175.69999999999987 147.49999999999997 170.69999999999987 153.49999999999997 C 165.69999999999987 159.49999999999997 161.79999999999987 166.19999999999996 159.09999999999988 173.09999999999997 C 156.3999999999999 179.99999999999997 154.8999999999999 187.19999999999996 154.4999999999999 194.09999999999997 C 154.3999999999999 195.79999999999995 154.3999999999999 197.59999999999997 154.3999999999999 199.29999999999995 C 154.3999999999999 199.69999999999996 154.3999999999999 200.19999999999996 154.3999999999999 200.59999999999997 L 154.4999999999999 201.99999999999997 C 154.59999999999988 202.79999999999998 154.59999999999988 203.69999999999996 154.69999999999987 204.49999999999997 C 154.9999999999999 207.99999999999997 155.69999999999987 211.39999999999998 156.59999999999988 214.59999999999997 C 158.4999999999999 221.09999999999997 161.4999999999999 226.99999999999997 165.19999999999987 231.99999999999997 C 168.89999999999986 236.99999999999997 173.39999999999986 241.09999999999997 178.09999999999988 244.39999999999998 C 182.79999999999987 247.59999999999997 187.8999999999999 249.89999999999998 192.8999999999999 251.39999999999998 C 197.8999999999999 252.89999999999998 202.8999999999999 253.49999999999997 207.59999999999988 253.49999999999997 C 208.19999999999987 253.49999999999997 208.79999999999987 253.49999999999997 209.29999999999987 253.49999999999997 C 209.59999999999988 253.49999999999997 209.89999999999986 253.49999999999997 210.19999999999987 253.49999999999997 C 210.4999999999999 253.49999999999997 210.79999999999987 253.49999999999997 211.09999999999988 253.39999999999998 C 211.59999999999988 253.39999999999998 212.09999999999988 253.29999999999998 212.59999999999988 253.29999999999998 C 212.69999999999987 253.29999999999998 212.8999999999999 253.29999999999998 212.9999999999999 253.2 L 213.4999999999999 253.1 C 213.7999999999999 253.1 214.09999999999988 253 214.3999999999999 253 C 214.9999999999999 252.9 215.4999999999999 252.8 216.09999999999988 252.7 C 216.69999999999987 252.6 217.19999999999987 252.5 217.69999999999987 252.29999999999998 C 218.79999999999987 252.1 219.79999999999987 251.7 220.79999999999987 251.39999999999998 C 222.79999999999987 250.7 224.79999999999987 249.89999999999998 226.49999999999986 248.99999999999997 C 228.29999999999987 248.09999999999997 229.89999999999986 246.99999999999997 231.49999999999986 245.99999999999997 C 231.89999999999986 245.69999999999996 232.39999999999986 245.39999999999998 232.79999999999987 244.99999999999997 C 234.39999999999986 243.69999999999996 234.69999999999987 241.29999999999998 233.39999999999986 239.69999999999996 C 232.29999999999987 238.29999999999995 230.29999999999987 237.89999999999995 228.69999999999987 238.79999999999995 C 228.29999999999987 238.99999999999994 227.89999999999986 239.19999999999996 227.4999999999999 239.39999999999995 C 226.09999999999988 240.09999999999994 224.69999999999987 240.69999999999996 223.19999999999987 241.19999999999996 C 221.69999999999987 241.69999999999996 220.09999999999988 242.09999999999997 218.4999999999999 242.39999999999995 C 217.69999999999987 242.49999999999994 216.8999999999999 242.59999999999994 215.9999999999999 242.69999999999996 C 215.59999999999988 242.69999999999996 215.19999999999987 242.79999999999995 214.69999999999987 242.79999999999995 C 214.29999999999987 242.79999999999995 213.79999999999987 242.79999999999995 213.4999999999999 242.79999999999995 C 213.09999999999988 242.79999999999995 212.69999999999987 242.79999999999995 212.2999999999999 242.79999999999995 C 211.7999999999999 242.79999999999995 211.2999999999999 242.79999999999995 210.7999999999999 242.69999999999996 C 210.7999999999999 242.69999999999996 210.4999999999999 242.69999999999996 210.6999999999999 242.69999999999996 L 210.49999999999991 242.69999999999996 L 210.1999999999999 242.69999999999996 C 209.99999999999991 242.69999999999996 209.6999999999999 242.69999999999996 209.49999999999991 242.59999999999997 C 208.99999999999991 242.49999999999997 208.5999999999999 242.49999999999997 208.0999999999999 242.39999999999998 C 204.39999999999992 241.89999999999998 200.6999999999999 240.79999999999998 197.1999999999999 239.2 C 193.5999999999999 237.6 190.1999999999999 235.39999999999998 187.0999999999999 232.6 C 183.99999999999991 229.79999999999998 181.2999999999999 226.5 179.1999999999999 222.7 C 177.0999999999999 218.89999999999998 175.5999999999999 214.7 174.8999999999999 210.29999999999998 C 174.59999999999988 208.1 174.3999999999999 205.79999999999998 174.4999999999999 203.6 C 174.4999999999999 203 174.59999999999988 202.4 174.59999999999988 201.79999999999998 C 174.59999999999988 201.99999999999997 174.59999999999988 201.7 174.59999999999988 201.7 L 174.59999999999988 201.5 L 174.59999999999988 201 C 174.59999999999988 200.7 174.69999999999987 200.4 174.69999999999987 200.1 C 174.79999999999987 198.9 174.9999999999999 197.7 175.19999999999987 196.5 C 176.89999999999986 186.9 181.69999999999987 177.5 189.09999999999988 170.4 C 190.9999999999999 168.6 192.9999999999999 167 195.09999999999988 165.5 C 197.19999999999987 164 199.4999999999999 162.7 201.8999999999999 161.6 C 204.2999999999999 160.5 206.6999999999999 159.6 209.2999999999999 158.9 C 211.7999999999999 158.20000000000002 214.3999999999999 157.8 217.0999999999999 157.5 C 218.39999999999992 157.4 219.6999999999999 157.3 221.0999999999999 157.3 C 221.49999999999991 157.3 221.6999999999999 157.3 221.99999999999991 157.3 L 223.0999999999999 157.3 L 223.7999999999999 157.3 C 224.0999999999999 157.3 223.7999999999999 157.3 223.8999999999999 157.3 L 224.1999999999999 157.3 L 225.2999999999999 157.4 C 228.1999999999999 157.6 230.9999999999999 158 233.7999999999999 158.70000000000002 C 239.3999999999999 159.9 244.8999999999999 162.00000000000003 249.9999999999999 164.8 C 260.1999999999999 170.5 268.89999999999986 179.3 274.1999999999999 189.9 C 276.89999999999986 195.20000000000002 278.7999999999999 200.9 279.6999999999999 206.8 C 279.89999999999986 208.3 280.09999999999985 209.8 280.1999999999999 211.3 L 280.2999999999999 212.4 L 280.3999999999999 213.5 C 280.3999999999999 213.9 280.3999999999999 214.3 280.3999999999999 214.6 C 280.3999999999999 215 280.3999999999999 215.4 280.3999999999999 215.7 L 280.3999999999999 216.7 L 280.3999999999999 217.79999999999998 C 280.3999999999999 218.49999999999997 280.2999999999999 219.7 280.2999999999999 220.39999999999998 C 280.1999999999999 221.99999999999997 279.9999999999999 223.7 279.7999999999999 225.29999999999998 C 279.5999999999999 226.89999999999998 279.2999999999999 228.49999999999997 278.9999999999999 230.1 C 278.6999999999999 231.7 278.2999999999999 233.29999999999998 277.89999999999986 234.79999999999998 C 277.09999999999985 237.89999999999998 276.09999999999985 240.99999999999997 274.89999999999986 244.1 C 272.4999999999999 250.1 269.29999999999984 255.9 265.4999999999999 261.2 C 257.7999999999999 271.8 247.2999999999999 280.4 235.2999999999999 285.9 C 229.2999999999999 288.59999999999997 222.9999999999999 290.59999999999997 216.4999999999999 291.59999999999997 C 213.2999999999999 292.2 209.9999999999999 292.49999999999994 206.69999999999987 292.59999999999997 L 206.09999999999988 292.59999999999997 L 205.59999999999988 292.59999999999997 L 204.4999999999999 292.59999999999997 L 202.8999999999999 292.59999999999997 L 202.09999999999988 292.59999999999997 C 202.4999999999999 292.59999999999997 201.9999999999999 292.59999999999997 201.9999999999999 292.59999999999997 L 201.69999999999987 292.59999999999997 C 199.89999999999986 292.59999999999997 198.19999999999987 292.49999999999994 196.39999999999986 292.29999999999995 C 189.39999999999986 291.79999999999995 182.49999999999986 290.49999999999994 175.69999999999987 288.59999999999997 C 168.9999999999999 286.7 162.4999999999999 283.99999999999994 156.29999999999987 280.79999999999995 C 143.99999999999986 274.19999999999993 132.89999999999986 265.19999999999993 124.29999999999987 254.29999999999995 C 119.99999999999987 248.89999999999995 116.19999999999987 242.99999999999994 113.09999999999987 236.89999999999995 C 109.99999999999987 230.79999999999995 107.49999999999987 224.29999999999995 105.69999999999986 217.79999999999995 C 103.89999999999986 211.19999999999996 102.79999999999986 204.49999999999994 102.29999999999986 197.69999999999996 L 102.19999999999986 196.39999999999995 L 102.19999999999986 196.09999999999994 L 102.19999999999986 195.79999999999993 L 102.19999999999986 195.19999999999993 L 102.19999999999986 194.09999999999994 L 102.19999999999986 193.79999999999993 L 102.19999999999986 193.39999999999992 L 102.19999999999986 192.5999999999999 L 102.19999999999986 190.99999999999991 L 102.19999999999986 190.6999999999999 C 102.19999999999986 190.6999999999999 102.19999999999986 190.7999999999999 102.19999999999986 190.5999999999999 L 102.19999999999986 189.99999999999991 C 102.19999999999986 189.1999999999999 102.19999999999986 188.29999999999993 102.19999999999986 187.49999999999991 C 102.29999999999986 184.1999999999999 102.59999999999987 180.6999999999999 102.99999999999986 177.29999999999993 C 103.39999999999986 173.89999999999992 103.99999999999986 170.39999999999992 104.69999999999986 166.99999999999991 C 105.39999999999986 163.5999999999999 106.19999999999986 160.1999999999999 107.19999999999986 156.79999999999993 C 109.09999999999987 150.09999999999994 111.49999999999986 143.59999999999994 114.29999999999986 137.49999999999991 C 119.99999999999986 125.29999999999991 127.39999999999985 114.39999999999992 136.29999999999984 105.69999999999992 C 138.49999999999983 103.49999999999991 140.79999999999984 101.49999999999991 143.19999999999985 99.49999999999991 C 145.59999999999985 97.59999999999991 148.09999999999985 95.79999999999991 150.69999999999985 94.09999999999991 C 153.19999999999985 92.3999999999999 155.89999999999984 90.8999999999999 158.59999999999985 89.49999999999991 C 159.89999999999986 88.79999999999991 161.29999999999984 88.09999999999991 162.69999999999985 87.49999999999991 C 163.39999999999984 87.19999999999992 164.09999999999985 86.89999999999992 164.79999999999984 86.59999999999991 C 165.49999999999983 86.29999999999991 166.19999999999985 85.99999999999991 166.89999999999984 85.6999999999999 C 169.69999999999985 84.4999999999999 172.59999999999982 83.4999999999999 175.59999999999982 82.59999999999991 C 176.2999999999998 82.3999999999999 177.09999999999982 82.1999999999999 177.7999999999998 81.8999999999999 C 178.4999999999998 81.6999999999999 179.2999999999998 81.4999999999999 179.9999999999998 81.29999999999991 C 181.4999999999998 80.8999999999999 182.9999999999998 80.49999999999991 184.4999999999998 80.19999999999992 C 185.1999999999998 79.99999999999991 185.9999999999998 79.89999999999992 186.7999999999998 79.69999999999992 C 187.59999999999982 79.49999999999991 188.2999999999998 79.39999999999992 189.09999999999982 79.19999999999992 C 189.89999999999984 79.09999999999992 190.59999999999982 78.89999999999992 191.39999999999984 78.79999999999991 L 192.49999999999983 78.59999999999991 L 193.69999999999982 78.3999999999999 C 194.49999999999983 78.29999999999991 195.19999999999982 78.1999999999999 195.99999999999983 78.09999999999991 C 196.89999999999984 77.99999999999991 197.69999999999982 77.8999999999999 198.59999999999982 77.79999999999991 C 199.2999999999998 77.69999999999992 200.49999999999983 77.59999999999991 201.19999999999982 77.49999999999991 C 201.69999999999982 77.39999999999992 202.2999999999998 77.39999999999992 202.7999999999998 77.29999999999991 L 203.8999999999998 77.19999999999992 L 204.3999999999998 77.09999999999992 L 204.9999999999998 77.09999999999992 C 205.8999999999998 76.99999999999993 206.6999999999998 76.99999999999993 207.5999999999998 76.89999999999992 L 208.8999999999998 76.79999999999993 C 208.8999999999998 76.79999999999993 209.3999999999998 76.79999999999993 208.9999999999998 76.79999999999993 L 209.2999999999998 76.79999999999993 L 209.8999999999998 76.79999999999993 C 210.5999999999998 76.79999999999993 211.3999999999998 76.69999999999993 212.0999999999998 76.69999999999993 C 214.9999999999998 76.59999999999994 217.9999999999998 76.59999999999994 220.8999999999998 76.69999999999993 C 226.69999999999982 76.89999999999993 232.3999999999998 77.59999999999994 237.8999999999998 78.59999999999994 C 248.9999999999998 80.69999999999993 259.3999999999998 84.19999999999993 268.8999999999998 88.89999999999993 C 278.3999999999998 93.49999999999993 286.7999999999998 99.19999999999993 294.1999999999998 105.39999999999993 C 294.6999999999998 105.79999999999994 295.0999999999998 106.19999999999993 295.5999999999998 106.59999999999994 C 295.9999999999998 106.99999999999994 296.4999999999998 107.39999999999993 296.8999999999998 107.79999999999994 C 297.7999999999998 108.59999999999994 298.5999999999998 109.39999999999993 299.49999999999983 110.19999999999995 C 300.3999999999998 110.99999999999994 301.1999999999998 111.79999999999994 301.99999999999983 112.59999999999995 C 302.79999999999984 113.39999999999995 303.59999999999985 114.19999999999995 304.3999999999998 115.09999999999995 C 307.49999999999983 118.39999999999995 310.3999999999998 121.69999999999995 312.99999999999983 125.09999999999995 C 318.1999999999998 131.79999999999995 322.3999999999998 138.59999999999997 325.6999999999998 144.99999999999994 C 325.8999999999998 145.39999999999995 326.0999999999998 145.79999999999995 326.29999999999984 146.19999999999993 C 326.49999999999983 146.59999999999994 326.6999999999998 146.99999999999994 326.89999999999986 147.39999999999992 C 327.29999999999984 148.19999999999993 327.6999999999999 148.99999999999991 327.9999999999999 149.79999999999993 C 328.39999999999986 150.59999999999994 328.6999999999999 151.29999999999993 329.0999999999999 152.09999999999994 C 329.3999999999999 152.89999999999995 329.7999999999999 153.59999999999994 330.0999999999999 154.39999999999995 C 331.2999999999999 157.39999999999995 332.4999999999999 160.29999999999995 333.3999999999999 162.99999999999994 C 334.8999999999999 167.39999999999995 335.99999999999994 171.29999999999995 336.8999999999999 174.69999999999993 C 337.19999999999993 176.09999999999994 338.49999999999994 176.99999999999994 339.8999999999999 176.79999999999993 C 341.3999999999999 176.69999999999993 342.49999999999994 175.49999999999991 342.49999999999994 173.99999999999991 C 342.6 170.4 342.5 166.1 342 161.2 z" stroke-linecap="round" />
</g>
</svg>