<svg width="1940" height="2358" viewBox="0 0 1940 2358" fill="none" xmlns="http://www.w3.org/2000/svg">
  <path fill-rule="evenodd" clip-rule="evenodd" d="M314.959 1103.27C240.119 1150.65 177.057 1207.26 125.772 1273.08C42.0296 1378.75 0.158203 1503.55 0.158203 1647.48C0.158203 1791.4 42.0296 1917.11 125.772 2024.6C209.515 2130.27 324.661 2212.25 471.211 2270.55C617.761 2328.85 783.937 2358 969.741 2358C1158.16 2358 1324.34 2328.85 1468.27 2270.55C1614.82 2212.25 1729.97 2130.27 1813.71 2024.6C1897.45 1917.11 1939.32 1791.4 1939.32 1647.48C1939.32 1503.55 1897.45 1378.75 1813.71 1273.08C1762.47 1205.2 1698.19 1147.12 1620.86 1098.85V1417.99C1660.8 1476.06 1680.77 1542.06 1680.77 1615.97C1680.77 1707.63 1650.06 1787.68 1588.65 1856.13C1527.24 1923.42 1442.8 1975.63 1335.33 2012.76C1297.51 2026.06 1257.6 2036.98 1215.6 2045.51C1139.81 2069.83 1057.86 2081.99 969.741 2081.99C881.336 2081.99 799.825 2069.83 725.207 2045.51C683.008 2036.98 642.656 2026.06 604.152 2012.76C496.682 1975.63 412.241 1923.42 350.83 1856.13C289.419 1787.68 258.713 1707.63 258.713 1615.97C258.713 1544.35 277.462 1480.17 314.959 1423.43V1103.27Z" fill="#0091CF"/>
  <rect x="428.201" y="402.099" width="207.536" height="1809.46" rx="103.768" fill="#0091CF"/>
  <rect x="720.02" y="616.121" width="207.536" height="1595.43" rx="103.768" fill="#0091CF"/>
  <rect x="1011.91" y="402.099" width="207.536" height="1809.46" rx="103.768" fill="#0091CF"/>
  <rect x="1303.73" width="207.536" height="2211.56" rx="103.768" fill="#0091CF"/>
</svg>
