<?xml version="1.0" encoding="utf-8"?>
<!-- Generator: Adobe Illustrator 17.1.0, SVG Export Plug-In . SVG Version: 6.00 Build 0)  -->
<!DOCTYPE svg PUBLIC "-//W3C//DTD SVG 1.1//EN" "http://www.w3.org/Graphics/SVG/1.1/DTD/svg11.dtd">
<svg version="1.1" id="Layer_1" xmlns="http://www.w3.org/2000/svg" xmlns:xlink="http://www.w3.org/1999/xlink" x="0px" y="0px"
	 viewBox="0 0 30 30" enable-background="new 0 0 30 30" xml:space="preserve">
<g id="XMLID_17_">
	<g id="XMLID_18_">
		<g>
			<g id="XMLID_225_">
				<g id="XMLID_233_">
					<path id="XMLID_234_" fill="#0080FF" d="M15,30v-5.8c6.2,0,10.9-6.1,8.6-12.6c-0.9-2.4-2.8-4.3-5.2-5.2
						C11.9,4.1,5.8,8.8,5.8,15l0,0L0,15C0,5.2,9.5-2.5,19.8,0.7c4.5,1.4,8.1,5,9.5,9.5C32.5,20.5,24.8,30,15,30z"/>
				</g>
				<polygon id="XMLID_232_" fill="#0080FF" points="15,24.2 9.2,24.2 9.2,18.4 9.2,18.4 15,18.4 15,18.4 				"/>
				<polygon id="XMLID_228_" fill="#0080FF" points="9.2,28.7 4.8,28.7 4.8,28.7 4.8,24.2 9.2,24.2 				"/>
				<polygon id="XMLID_226_" fill="#0080FF" points="4.8,24.2 1,24.2 1,24.2 1,20.5 1,20.5 4.8,20.5 4.8,20.5 				"/>
			</g>
		</g>
	</g>
</g>
</svg>
