<svg width="51" height="12" viewBox="0 0 51 12" fill="none" xmlns="http://www.w3.org/2000/svg">
<g id="Group">
<g id="Group_2">
<path id="Vector" d="M21.0019 6.47335C20.9193 8.56783 19.269 10.2013 17.2145 10.2013C15.0477 10.2013 13.4375 8.44774 13.4375 6.32744C13.4388 5.29889 13.8469 4.3126 14.5726 3.58373C15.2983 2.85486 16.2828 2.44256 17.3114 2.43677C18.2708 2.43677 19.2096 2.84998 20.005 3.59893L19.3865 4.36209C18.7783 3.83524 18.0448 3.47497 17.3127 3.47497C16.5573 3.47804 15.8339 3.78064 15.3014 4.31636C14.7688 4.85209 14.4705 5.5772 14.4718 6.3326C14.4718 7.93252 15.6792 9.17345 17.2171 9.17345C17.8666 9.17164 18.494 8.93767 18.9861 8.5138C19.4782 8.08992 19.8025 7.50407 19.9004 6.86203H16.7639V5.94005H21.0045V6.47723L21.0019 6.47335Z" fill="#E6E7E8"/>
<path id="Vector_2" d="M24.6028 5.96833H24.0243C23.7161 5.96833 23.4205 6.09077 23.2025 6.30872C22.9846 6.52667 22.8621 6.82227 22.8621 7.13049V10.1366H21.8291V4.97791H22.6749V5.41178C22.9538 5.13286 23.3967 4.97791 23.8926 4.97791H25.007L24.6028 5.96833Z" fill="#E6E7E8"/>
<path id="Vector_3" d="M30.2256 10.1367H29.3488V9.49102C28.9837 9.85236 28.5173 10.0942 28.0115 10.1843C27.5058 10.2745 26.9846 10.2088 26.517 9.99592C25.9545 9.75428 25.4927 9.32574 25.2098 8.78279C24.9269 8.23984 24.8402 7.61583 24.9645 7.01633C25.0887 6.41683 25.4162 5.87866 25.8916 5.49287C26.367 5.10708 26.9611 4.89735 27.5733 4.89918C27.9011 4.89862 28.2258 4.96303 28.5285 5.0887C28.8313 5.21437 29.1062 5.39881 29.3372 5.63135V4.9857H30.2243V10.1509L30.2256 10.1367ZM29.1693 7.92856C29.2504 7.58815 29.2195 7.23067 29.0812 6.90925C28.9428 6.58782 28.7045 6.31961 28.4015 6.14447C28.0986 5.96933 27.7472 5.8966 27.3996 5.93711C27.0521 5.97762 26.7268 6.12919 26.4723 6.3693C26.2177 6.60941 26.0475 6.92525 25.9867 7.26987C25.926 7.61449 25.9781 7.9695 26.1353 8.28215C26.2925 8.59479 26.5464 8.84837 26.8592 9.00522C27.172 9.16206 27.527 9.21378 27.8716 9.15271C28.1838 9.09754 28.473 8.95224 28.7036 8.73473C28.9342 8.51721 29.0961 8.23697 29.1693 7.92856Z" fill="#E6E7E8"/>
<path id="Vector_4" d="M32.3036 4.68881V4.97806H33.9449V5.88196H32.3036V10.1368H31.2822V4.7198C31.2822 3.58475 32.097 2.91199 33.1184 2.91199H34.3568L33.9436 3.88175H33.1184C33.0118 3.88073 32.906 3.90085 32.8072 3.94095C32.7084 3.98105 32.6185 4.04033 32.5428 4.11538C32.467 4.19042 32.4068 4.27974 32.3658 4.37816C32.3248 4.47659 32.3036 4.58217 32.3036 4.68881Z" fill="#E6E7E8"/>
<path id="Vector_5" d="M39.4141 10.1367H38.5373V9.49102C38.1721 9.85236 37.7058 10.0942 37.2 10.1843C36.6943 10.2745 36.1731 10.2088 35.7055 9.99592C35.143 9.75428 34.6812 9.32574 34.3983 8.78279C34.1154 8.23984 34.0287 7.61583 34.1529 7.01633C34.2772 6.41683 34.6047 5.87866 35.0801 5.49287C35.5555 5.10708 36.1495 4.89735 36.7618 4.89918C37.0896 4.89862 37.4143 4.96303 37.717 5.0887C38.0198 5.21437 38.2946 5.39881 38.5257 5.63135V4.9857H39.4128V10.1509L39.4141 10.1367ZM38.3591 7.92856C38.4402 7.58815 38.4093 7.23067 38.2709 6.90925C38.1326 6.58782 37.8942 6.31961 37.5913 6.14447C37.2884 5.96933 36.937 5.8966 36.5894 5.93711C36.2418 5.97762 35.9166 6.12919 35.6621 6.3693C35.4075 6.60941 35.2372 6.92525 35.1765 7.26987C35.1158 7.61449 35.1679 7.9695 35.3251 8.28215C35.4823 8.59479 35.7361 8.84837 36.0489 9.00522C36.3617 9.16206 36.7168 9.21378 37.0614 9.15271C37.3735 9.09754 37.6627 8.95224 37.8933 8.73473C38.1239 8.51721 38.2858 8.23697 38.3591 7.92856Z" fill="#E6E7E8"/>
<path id="Vector_6" d="M44.9304 7.08282V10.1367H43.8974V7.08282C43.8974 6.77459 43.775 6.47899 43.557 6.26104C43.3391 6.0431 43.0435 5.92065 42.7352 5.92065C42.427 5.92065 42.1314 6.0431 41.9135 6.26104C41.6955 6.47899 41.5731 6.77459 41.5731 7.08282V10.1367H40.54V4.97801H41.3962V5.42351C41.7778 5.08571 42.2695 4.89883 42.7791 4.89795C43.0643 4.89878 43.3464 4.95611 43.6092 5.06662C43.872 5.17713 44.1103 5.33863 44.3104 5.54179C44.5104 5.74495 44.6682 5.98574 44.7746 6.25025C44.8811 6.51475 44.934 6.79773 44.9304 7.08282Z" fill="#E6E7E8"/>
<path id="Vector_7" d="M51 10.1367H50.1233V9.49102C49.7581 9.85236 49.2917 10.0942 48.7859 10.1843C48.2802 10.2745 47.759 10.2088 47.2914 9.99592C46.7289 9.75428 46.2671 9.32574 45.9842 8.78279C45.7013 8.23984 45.6146 7.61583 45.7389 7.01633C45.8631 6.41683 46.1906 5.87866 46.666 5.49287C47.1414 5.10708 47.7355 4.89735 48.3477 4.89918C48.6755 4.89862 49.0002 4.96303 49.303 5.0887C49.6057 5.21437 49.8806 5.39881 50.1116 5.63135V4.9857H50.9987V10.1509L51 10.1367ZM49.9451 7.92856C50.0259 7.58786 49.9946 7.23015 49.8558 6.90867C49.717 6.58719 49.4781 6.31912 49.1747 6.14435C48.8712 5.96959 48.5195 5.89746 48.1717 5.93871C47.824 5.97996 47.4989 6.13238 47.2448 6.37329C46.9906 6.6142 46.8211 6.93073 46.7614 7.27576C46.7016 7.62079 46.7549 7.97589 46.9132 8.28822C47.0715 8.60055 47.3265 8.85341 47.6401 9.00917C47.9537 9.16494 48.3092 9.21528 48.6538 9.15271C48.9636 9.09525 49.25 8.94894 49.4781 8.73159C49.7062 8.51424 49.8662 8.23523 49.9386 7.92856H49.9451Z" fill="#E6E7E8"/>
</g>
<path id="Vector_8" d="M11.5393 5.29431C11.5186 5.06109 11.4784 4.83 11.4193 4.60347C11.3438 4.31793 11.2399 4.04065 11.1093 3.77575C10.9505 3.45985 10.7555 3.16345 10.5283 2.8925C10.4296 2.7744 10.3248 2.66148 10.2145 2.55418C10.306 2.1257 10.2327 1.67846 10.0092 1.30162C9.5824 1.26237 9.15524 1.37235 8.80051 1.61283L8.72432 1.58054C8.61456 1.53535 8.50092 1.49403 8.38471 1.45142C8.26849 1.4088 8.14969 1.38169 8.02831 1.35199C7.90693 1.32229 7.78297 1.29904 7.65771 1.27967L7.59185 1.27063C7.40573 0.722157 7.01476 0.266876 6.50071 0C5.5968 0.572043 5.42764 1.37265 5.42764 1.37265C5.42764 1.37265 5.42764 1.39072 5.4186 1.42042L5.26881 1.46433C5.19908 1.48499 5.13194 1.51081 5.06221 1.53535C4.99248 1.55988 4.92533 1.58829 4.85689 1.61799C4.71925 1.67679 4.58477 1.74274 4.45401 1.81556C4.3266 1.88787 4.20134 1.96664 4.07824 2.05187L4.04725 2.03766C3.27896 1.75969 2.43225 1.79447 1.68935 2.13451C1.58863 3.46325 2.1865 4.30001 2.30659 4.45109C2.27689 4.53374 2.24977 4.61638 2.22394 4.70031C2.13 5.00396 2.06175 5.31496 2.01992 5.63004C2.01346 5.67524 2.0083 5.72173 2.00313 5.76821C1.30016 6.13427 0.764799 6.75654 0.507812 7.5063C1.47112 8.61423 2.59325 8.68266 2.59325 8.68266C2.73802 8.93664 2.90435 9.17771 3.0904 9.40321C3.16788 9.49747 3.25052 9.58915 3.33446 9.67696C3.12558 10.2757 3.14303 10.9303 3.38353 11.5171C4.07332 11.5496 4.75313 11.3425 5.30755 10.9308C5.41473 10.967 5.52191 10.9992 5.63167 11.0277C5.96004 11.1121 6.29628 11.1623 6.635 11.1774C6.71894 11.1774 6.80287 11.1774 6.89326 11.1774H7.01465H7.06759C7.57248 11.898 8.46089 12 8.46089 12C9.09234 11.3337 9.12849 10.6738 9.12849 10.5305V10.5008C9.12849 10.4905 9.12849 10.4814 9.12849 10.4698C9.26068 10.3779 9.38704 10.2778 9.50684 10.1702C9.75829 9.94127 9.9792 9.68087 10.1641 9.39546L10.2145 9.3154C10.6623 9.32792 11.0981 9.16957 11.4335 8.87249C11.3752 8.41555 11.1504 7.9962 10.802 7.69482H10.793L10.7852 7.68837L10.7697 7.67804C10.7697 7.63284 10.7775 7.58894 10.7801 7.54891C10.7852 7.46885 10.7878 7.38879 10.7878 7.30873V7.1796V7.12924V7.06209C10.7878 7.03885 10.7878 7.01819 10.7878 6.99752C10.7878 6.97686 10.7878 6.9562 10.7878 6.93554L10.7801 6.87356L10.771 6.81158C10.7594 6.73023 10.7426 6.64888 10.7245 6.56752C10.5791 5.93936 10.2404 5.3726 9.75606 4.94695C9.52736 4.74555 9.26966 4.5797 8.99162 4.45497C8.71699 4.33197 8.42527 4.25142 8.12645 4.21608C7.98512 4.19829 7.84276 4.19009 7.70032 4.19154H7.59444H7.54278H7.48468C7.4127 4.19789 7.34114 4.20823 7.27032 4.22253C6.72555 4.32296 6.23283 4.61019 5.87701 5.03476C5.71412 5.22782 5.58332 5.44582 5.48963 5.68041C5.40326 5.90272 5.35186 6.13707 5.33725 6.37512C5.33725 6.43194 5.33725 6.49005 5.33725 6.54557C5.33725 6.55978 5.33725 6.57398 5.33725 6.58818V6.63467C5.33725 6.66179 5.33725 6.6902 5.33725 6.71731C5.34825 6.8309 5.36942 6.94326 5.40053 7.05305C5.51638 7.45364 5.76791 7.80149 6.11203 8.03702C6.39929 8.23998 6.7417 8.35036 7.09341 8.35338H7.2135H7.26257H7.27678H7.29227H7.32197L7.37879 8.34305C7.39687 8.34305 7.41495 8.34305 7.43302 8.33143C7.46804 8.32367 7.50254 8.31376 7.53633 8.30173C7.60146 8.28019 7.6649 8.25386 7.72615 8.22296C7.78283 8.19327 7.8376 8.16006 7.89014 8.12353L7.93276 8.09125C7.95692 8.0709 7.97279 8.04239 7.97735 8.01113C7.98191 7.97987 7.97486 7.94802 7.95751 7.92161C7.94017 7.8952 7.91375 7.87606 7.88325 7.86782C7.85275 7.85958 7.82028 7.86281 7.792 7.8769L7.75327 7.89756C7.70725 7.92004 7.6598 7.93945 7.61122 7.95567C7.5599 7.97145 7.50773 7.98439 7.45498 7.9944L7.37233 8.00473H7.33101H7.24966H7.1993H7.18122H7.15927H7.11407C6.91493 7.9772 6.72488 7.90387 6.55885 7.7905C6.39283 7.67713 6.25535 7.52681 6.15723 7.35134C6.08629 7.22426 6.03821 7.08571 6.01518 6.942C6.00335 6.86859 5.9986 6.79422 6.00098 6.7199C6.00098 6.69924 6.00098 6.67987 6.00098 6.65921V6.63209C6.00098 6.62176 6.00098 6.61272 6.00098 6.60239C6.00098 6.56236 6.01131 6.52233 6.01777 6.4823C6.07602 6.15314 6.23747 5.85105 6.47876 5.61971C6.54061 5.56067 6.60711 5.50669 6.67762 5.4583C6.74832 5.40906 6.82305 5.36587 6.90101 5.32917C6.97965 5.29285 7.06131 5.26347 7.14507 5.24136C7.22975 5.21914 7.31613 5.20403 7.40332 5.19617C7.44723 5.19617 7.49113 5.19617 7.53245 5.19617H7.63317H7.66933C7.7641 5.20332 7.8582 5.21756 7.95083 5.23878C8.13989 5.27423 8.32293 5.33641 8.49447 5.42344C8.83851 5.61431 9.1174 5.90399 9.29507 6.25503C9.38451 6.43079 9.44595 6.61944 9.47714 6.81416C9.48489 6.86323 9.49006 6.9123 9.49393 6.96137V6.99882V7.03626C9.49457 7.04874 9.49457 7.06124 9.49393 7.07371C9.49458 7.08532 9.49458 7.09696 9.49393 7.10858V7.17702C9.49393 7.20155 9.49393 7.24029 9.49393 7.26482C9.49393 7.31906 9.48489 7.372 9.47843 7.42623C9.47198 7.48047 9.46294 7.53212 9.4539 7.58506C9.44486 7.63801 9.43195 7.68966 9.41903 7.74131C9.39292 7.84548 9.3597 7.94773 9.3196 8.04735C9.23979 8.24808 9.13525 8.43808 9.0084 8.61293C8.75126 8.96564 8.40806 9.2466 8.01152 9.42903C7.71468 9.5648 7.39383 9.6403 7.06759 9.65114H6.90359C6.84549 9.65114 6.78738 9.65114 6.72927 9.6421C6.49789 9.62536 6.26892 9.58424 6.04617 9.51942C5.6036 9.3896 5.19213 9.17093 4.8369 8.87676C4.48167 8.58258 4.19014 8.21908 3.9801 7.80846C3.8776 7.60618 3.79542 7.39423 3.73476 7.17572C3.67533 6.95838 3.63812 6.73557 3.62371 6.51071V6.46809V6.26407C3.62371 6.23695 3.62371 6.20984 3.62371 6.18143C3.62751 6.06825 3.63699 5.95533 3.65211 5.84311C3.66632 5.72947 3.68569 5.61455 3.70893 5.50091C3.73217 5.38728 3.76058 5.27494 3.79157 5.16518C3.85365 4.94673 3.93266 4.73345 4.02788 4.52728C4.20413 4.13559 4.45102 3.77972 4.75617 3.47746C4.82907 3.40537 4.90579 3.33726 4.98602 3.27343C5.06479 3.21016 5.14743 3.1443 5.23266 3.09523C5.31592 3.0394 5.40213 2.9881 5.49092 2.94157C5.53482 2.91703 5.58131 2.89637 5.6265 2.87442L5.69623 2.84343L5.76596 2.81373C5.85894 2.7737 5.95578 2.74142 6.05263 2.71043L6.12623 2.68848L6.19984 2.66781C6.24891 2.65361 6.29927 2.64199 6.34834 2.63037L6.42323 2.61358L6.49813 2.59808L6.57431 2.58388L6.61176 2.57742H6.64921L6.7254 2.5658C6.7538 2.5658 6.78221 2.5658 6.81062 2.55418L6.89585 2.54385H6.95008H6.98624H7.02498H7.11149H7.1541H7.1838H7.25741C7.35469 2.54385 7.45153 2.54385 7.54795 2.54385C7.73735 2.55102 7.92596 2.57217 8.11225 2.60712C8.46763 2.67313 8.81221 2.78785 9.13624 2.94803C9.43592 3.0949 9.7165 3.2779 9.97171 3.49295L10.0169 3.53169L10.0608 3.57043L10.1473 3.6492C10.1757 3.67502 10.2029 3.70214 10.23 3.72926C10.2571 3.75638 10.2842 3.78349 10.3087 3.81061C10.4089 3.91599 10.5037 4.02632 10.5928 4.14118C10.753 4.34734 10.8939 4.56779 11.0138 4.79974C11.0138 4.81265 11.028 4.82557 11.0344 4.83977L11.0538 4.8798C11.0667 4.90563 11.0796 4.93145 11.0913 4.95728C11.1029 4.98311 11.1158 5.00893 11.1261 5.03347L11.1584 5.10836C11.1997 5.20779 11.2372 5.30206 11.2669 5.39115C11.3172 5.53449 11.3547 5.66491 11.3831 5.77854C11.3893 5.80022 11.403 5.819 11.4217 5.83155C11.4404 5.84411 11.463 5.84965 11.4854 5.84717C11.5078 5.8447 11.5287 5.83438 11.5442 5.81804C11.5597 5.8017 11.569 5.78039 11.5703 5.75788C11.5561 5.59905 11.5535 5.45701 11.5393 5.29431Z" fill="url(#paint0_linear_121_904)"/>
</g>
<defs>
<linearGradient id="paint0_linear_121_904" x1="6.03584" y1="14.6975" x2="6.03584" y2="3.73571" gradientUnits="userSpaceOnUse">
<stop stop-color="#FCEE1D"/>
<stop offset="1" stop-color="#F15A29"/>
</linearGradient>
</defs>
</svg>
