<svg xmlns="http://www.w3.org/2000/svg" width="384" height="384" viewBox="0 0 384 384" version="1.1"><path d="" stroke="none" fill="#1064a4" fill-rule="evenodd"/><path d="M 0 192.003 L 0 384.005 192.250 383.753 L 384.500 383.500 384.753 191.750 L 385.005 0 192.503 0 L 0 0 0 192.003 M 0.490 192.500 C 0.490 298.100, 0.607 341.152, 0.750 288.170 C 0.893 235.189, 0.893 148.789, 0.750 96.170 C 0.607 43.552, 0.490 86.900, 0.490 192.500 M 30 192 L 30 354 192 354 L 354 354 354 192 L 354 30 192 30 L 30 30 30 192 M 135 113.716 C 130.414 114.566, 117.694 120.297, 112.063 124.050 C 109.003 126.089, 103.960 130.429, 100.856 133.693 C 86.343 148.957, 78.809 168.583, 78.666 191.500 C 78.462 224.107, 93.887 251.831, 119.210 264.372 C 128.427 268.937, 138.628 271.772, 140.196 270.204 C 140.645 269.755, 140.897 234.319, 140.756 191.457 C 140.477 106.509, 140.929 112.617, 135 113.716 M 180.500 115.720 C 174.009 118.343, 169.309 122.671, 166.303 128.792 L 163.500 134.500 163.500 202 L 163.500 269.500 191.250 269.766 L 219 270.032 219 202.143 C 219 137.100, 218.919 134.071, 217.058 129.877 C 214.621 124.385, 208.850 118.719, 203 116.077 C 197.387 113.541, 186.325 113.366, 180.500 115.720 M 260.183 115.864 C 254.424 118.202, 248.304 124.126, 245.932 129.659 C 244.086 133.965, 244 137.189, 244 202.099 L 244 270.032 271.750 269.766 L 299.500 269.500 299.500 202 L 299.500 134.500 296.697 128.792 C 291.925 119.073, 283.084 113.957, 271.230 114.056 C 267.250 114.089, 262.736 114.828, 260.183 115.864" stroke="none" fill="#0c64a4" fill-rule="evenodd"/></svg>