<svg xmlns="http://www.w3.org/2000/svg" viewBox="0 0 568 92.92" style="enable-background:new 0 0 568 92.92" xml:space="preserve">
  <style>
    .st0{fill:#24292e}
  </style>
  <path class="st0" d="M160.69 50.13c-.64 16.22-13.42 28.85-29.33 28.85-16.78 0-29.25-13.58-29.25-29.97 0-16.54 13.51-30.13 29.97-30.13 7.43 0 14.7 3.2 20.86 8.95l-4.79 5.91c-4.71-4.08-10.39-6.87-16.06-6.87-12.07 0-21.97 9.91-21.97 22.13 0 12.39 9.35 21.98 21.26 21.98 10.71 0 19.1-7.83 20.78-17.9h-24.29v-7.11h32.84v4.16zM188.57 46.22h-4.48c-4.94 0-8.95 4.01-8.95 8.95V78.5h-7.99V38.55h6.55v3.36c2.16-2.16 5.59-3.36 9.43-3.36h8.63l-3.19 7.67zM232.12 78.5h-6.79v-5.03c-5.25 5.13-13.54 7.59-21.93 3.91-6.22-2.73-10.85-8.4-12.08-15.09-2.38-12.92 7.56-24.38 20.26-24.38 5.35 0 10.15 2.16 13.66 5.67v-5.03h6.87V78.5zm-8.18-17.1c1.89-8.12-4.26-15.5-12.28-15.5-6.95 0-12.55 5.67-12.55 12.55 0 7.77 6.83 13.79 14.78 12.43 4.9-.84 8.93-4.64 10.05-9.48zM248.22 36.31v2.24h12.71v7.03h-12.71V78.5h-7.91V36.55c0-8.79 6.31-13.98 14.22-13.98h9.59l-3.2 7.51h-6.39c-3.51 0-6.31 2.79-6.31 6.23zM303.28 78.5h-6.79v-5.03c-5.25 5.13-13.54 7.59-21.93 3.91-6.22-2.73-10.85-8.4-12.08-15.09-2.38-12.92 7.56-24.38 20.26-24.38 5.35 0 10.15 2.16 13.66 5.67v-5.03h6.87V78.5zm-8.17-17.1c1.89-8.12-4.26-15.5-12.28-15.5-6.95 0-12.55 5.67-12.55 12.55 0 7.77 6.83 13.79 14.78 12.43 4.9-.84 8.92-4.64 10.05-9.48zM345.96 54.85V78.5h-7.99V54.85c0-4.95-4.08-8.95-8.95-8.95-5.03 0-9.03 4-9.03 8.95V78.5H312V38.55h6.63v3.44a16.2 16.2 0 0 1 10.71-4.07c9.27-.01 16.62 7.58 16.62 16.93zM392.95 78.5h-6.79v-5.03c-5.25 5.13-13.54 7.59-21.93 3.91-6.22-2.73-10.85-8.4-12.08-15.09-2.38-12.92 7.56-24.38 20.26-24.38 5.35 0 10.15 2.16 13.66 5.67v-5.03h6.87V78.5zm-8.17-17.1c1.89-8.12-4.26-15.5-12.28-15.5-6.95 0-12.55 5.67-12.55 12.55 0 7.77 6.83 13.79 14.78 12.43 4.9-.84 8.92-4.64 10.05-9.48z"/>
  <g>
    <linearGradient id="SVGID_1_" gradientUnits="userSpaceOnUse" x1="432.53" y1="105.725" x2="432.53" y2="21.688">
      <stop offset="0" style="stop-color:#fff100"/>
      <stop offset="1" style="stop-color:#f05a28"/>
    </linearGradient>
    <path d="M447.6 78.5h-30.14V19.02h8.04v51.36h22.1v8.12z" style="fill:url(#SVGID_1_)"/>
    <linearGradient id="SVGID_2_" gradientUnits="userSpaceOnUse" x1="469.662" y1="105.725" x2="469.662" y2="21.688">
      <stop offset="0" style="stop-color:#fff100"/>
      <stop offset="1" style="stop-color:#f05a28"/>
    </linearGradient>
    <path d="M490.36 78.5h-6.83v-5.06c-3.54 3.46-8.44 5.71-13.82 5.71-11.49 0-20.74-9.32-20.74-20.82 0-11.33 9.24-20.66 20.74-20.66 5.39 0 10.21 2.17 13.74 5.71v-5.06h6.91V78.5zm-7.88-20.18c0-6.91-5.63-12.62-12.7-12.62-6.99 0-12.62 5.71-12.62 12.62 0 7.07 5.63 12.7 12.62 12.7 7.08 0 12.7-5.62 12.7-12.7z" style="fill:url(#SVGID_2_)"/>
    <linearGradient id="SVGID_3_" gradientUnits="userSpaceOnUse" x1="517.805" y1="105.725" x2="517.805" y2="21.688">
      <stop offset="0" style="stop-color:#fff100"/>
      <stop offset="1" style="stop-color:#f05a28"/>
    </linearGradient>
    <path d="M538.5 58.4c0 11.41-9.32 20.74-20.73 20.74-5.39 0-10.37-2.25-13.91-5.71v5.06h-6.75V22.24h7.96v20.25c3.3-2.97 7.8-4.82 12.7-4.82 11.41 0 20.73 9.24 20.73 20.73zm-8.2 0c0-6.99-5.71-12.62-12.62-12.62s-12.62 5.63-12.62 12.62c0 6.91 5.71 12.54 12.62 12.54s12.62-5.62 12.62-12.54z" style="fill:url(#SVGID_3_)"/>
    <linearGradient id="SVGID_4_" gradientUnits="userSpaceOnUse" x1="554.375" y1="105.725" x2="554.375" y2="21.688">
      <stop offset="0" style="stop-color:#fff100"/>
      <stop offset="1" style="stop-color:#f05a28"/>
    </linearGradient>
    <path d="m565.99 41.2-3.54 5.87c-1.69-1.04-4.58-2.65-7.8-2.65-3.05 0-5.79 1.53-5.79 4.02 0 2.73 3.13 3.78 7.07 5.22 6.43 2.25 12.06 6.59 12.06 13.18 0 6.67-5.71 12.3-13.9 12.3-4.98 0-9.97-2.01-13.34-4.1l3.14-6.67c2.33 1.37 6.67 3.05 9.97 3.05 4.02 0 5.79-2.41 5.79-4.74 0-2.73-2.49-4.26-8.04-6.43-4.02-1.61-10.53-4.26-10.53-11.41 0-6.67 5.71-11.17 13.34-11.17 4.5 0 8.19 1.52 11.57 3.53z" style="fill:url(#SVGID_4_)"/>
  </g>
  <linearGradient id="SVGID_5_" gradientUnits="userSpaceOnUse" x1="42.775" y1="113.822" x2="42.775" y2="28.926">
    <stop offset="0" style="stop-color:#fff100"/>
    <stop offset="1" style="stop-color:#f05a28"/>
  </linearGradient>
  <path d="M85.43 41a32.59 32.59 0 0 0-.93-5.35c-.52-1.98-1.29-4.15-2.4-6.41a35.402 35.402 0 0 0-6.93-9.46c1.31-5.2-1.59-9.7-1.59-9.7-5-.31-8.18 1.55-9.36 2.41-.2-.08-.39-.17-.59-.25-.85-.35-1.73-.67-2.63-.95-.9-.28-1.82-.54-2.76-.77-.94-.22-1.9-.41-2.87-.56-.17-.03-.34-.05-.51-.07C52.68 2.91 46.41 0 46.41 0c-6.98 4.43-8.31 10.63-8.31 10.63s-.03.14-.07.37c-.39.11-.77.22-1.16.34-.54.16-1.06.36-1.6.55-.53.21-1.06.41-1.59.64-1.05.45-2.1.96-3.12 1.53-.99.56-1.96 1.17-2.91 1.83-.14-.06-.24-.11-.24-.11-9.67-3.69-18.26.75-18.26.75-.78 10.29 3.86 16.77 4.78 17.94-.23.64-.44 1.28-.64 1.93a43.921 43.921 0 0 0-1.71 8.27C2.65 49.08 0 58.13 0 58.13c7.46 8.58 16.15 9.11 16.15 9.11.01-.01.02-.01.02-.02 1.11 1.97 2.39 3.85 3.82 5.6.6.73 1.24 1.44 1.89 2.12-2.72 7.77.38 14.25.38 14.25 8.3.31 13.76-3.63 14.9-4.54.83.28 1.66.53 2.51.75 2.55.66 5.16 1.04 7.77 1.16.65.03 1.3.04 1.96.04h.32l.21-.01.41-.01.41-.02.01.01c3.91 5.58 10.79 6.37 10.79 6.37 4.89-5.16 5.17-10.27 5.17-11.38v-.23c0-.08-.01-.15-.01-.24 1.03-.72 2.01-1.49 2.93-2.32 1.96-1.77 3.67-3.79 5.09-5.96.13-.2.26-.41.39-.62 5.54.32 9.44-3.43 9.44-3.43-.92-5.77-4.21-8.58-4.89-9.12 0 0-.03-.02-.07-.05a.612.612 0 0 1-.06-.05c-.04-.02-.08-.05-.12-.08.03-.35.06-.69.08-1.04.04-.62.06-1.24.06-1.86V55.59l-.02-.39-.03-.52a7.25 7.25 0 0 0-.04-.5c-.01-.16-.03-.32-.05-.48l-.06-.48-.07-.48a24.091 24.091 0 0 0-3.19-8.86c-1.28-2.12-2.88-4-4.67-5.58-1.8-1.59-3.81-2.86-5.92-3.81-2.11-.95-4.33-1.56-6.54-1.84-1.1-.14-2.21-.2-3.3-.19l-.41.01H55.02l-.17.01-.4.03c-.15.01-.31.02-.45.04-.56.05-1.12.13-1.66.24-2.19.41-4.26 1.2-6.09 2.29a18.628 18.628 0 0 0-4.7 4 18.247 18.247 0 0 0-2.98 5.03 17.884 17.884 0 0 0-1.21 6.7c0 .11 0 .22.01.33l.01.36c.02.21.03.43.05.64.09.9.25 1.76.49 2.6a13.92 13.92 0 0 0 5.51 7.62c1.21.83 2.5 1.42 3.78 1.79 1.28.38 2.55.54 3.75.54.15 0 .3 0 .45-.01.08 0 .16-.01.24-.01.08 0 .16-.01.24-.01.13-.01.25-.03.38-.04.03 0 .07-.01.11-.01l.12-.02.23-.03c.16-.02.29-.05.44-.08.14-.03.28-.05.42-.09.28-.06.54-.14.8-.23.52-.17 1.01-.38 1.47-.61.46-.24.88-.5 1.27-.77.11-.08.22-.16.33-.25.42-.33.49-.94.15-1.35a.954.954 0 0 0-1.2-.23c-.1.05-.2.11-.3.16-.35.17-.71.32-1.1.45-.39.12-.79.22-1.21.3-.21.03-.42.06-.64.08-.11.01-.22.02-.32.02-.11 0-.22.01-.32.01s-.21 0-.31-.01c-.13-.01-.26-.01-.39-.02h-.05l-.09-.01c-.06-.01-.12-.01-.17-.02-.12-.01-.23-.03-.35-.04-.94-.13-1.89-.4-2.8-.82a9.99 9.99 0 0 1-2.59-1.7 9.886 9.886 0 0 1-2.02-2.54c-.54-.97-.92-2.04-1.1-3.17-.09-.56-.13-1.15-.11-1.72.01-.16.01-.31.02-.47v-.09l.01-.12c.01-.08.01-.15.02-.23.03-.31.08-.62.13-.93a12.2 12.2 0 0 1 3.57-6.68 12.365 12.365 0 0 1 3.27-2.24c.61-.28 1.24-.51 1.89-.68.65-.17 1.32-.29 1.99-.35.34-.03.68-.04 1.02-.04h.23l.28.01.17.01h.1l.28.02c.73.06 1.46.16 2.18.33 1.44.32 2.84.85 4.15 1.57 2.61 1.45 4.84 3.71 6.2 6.44.69 1.36 1.17 2.82 1.41 4.33.06.38.1.76.13 1.14l.02.29.01.29c.01.1.01.19.01.29 0 .1.01.2 0 .27v.25l-.01.28c-.01.19-.02.49-.03.68-.03.42-.07.83-.12 1.25-.05.41-.12.82-.19 1.23-.08.41-.17.81-.27 1.21-.2.8-.46 1.6-.77 2.37-.61 1.55-1.43 3.02-2.41 4.38a19.79 19.79 0 0 1-7.72 6.32c-1.53.69-3.15 1.2-4.8 1.47-.83.14-1.67.22-2.51.25l-.16.01h-1.11c-.45-.01-.9-.03-1.35-.07-1.8-.13-3.57-.45-5.29-.95-1.72-.5-3.39-1.17-4.97-2.01-3.16-1.69-5.98-4-8.19-6.79a26.224 26.224 0 0 1-2.88-4.45c-.8-1.57-1.43-3.22-1.9-4.9-.46-1.69-.75-3.41-.86-5.15l-.02-.33-.01-.08V49.84l-.01-.29v-.37l-.01-.4v-.27c0-.21.01-.42.01-.64.03-.86.1-1.74.22-2.62A34.845 34.845 0 0 1 25.35 40c.49-1.71 1.1-3.37 1.83-4.94 1.45-3.14 3.35-5.91 5.64-8.13a23.769 23.769 0 0 1 3.69-2.96c.65-.43 1.33-.83 2.03-1.19.34-.19.7-.35 1.05-.52l.54-.24c.18-.08.36-.16.54-.23.72-.31 1.47-.56 2.22-.8.19-.06.38-.11.57-.17.19-.06.38-.1.57-.16.38-.11.77-.2 1.15-.29.19-.05.39-.09.58-.13l.58-.12c.2-.04.39-.07.59-.11l.29-.05.29-.04.59-.09c.22-.04.44-.05.66-.09.18-.02.48-.06.66-.08.14-.01.28-.03.42-.04l.28-.03.14-.01.16-.01c.22-.01.44-.03.67-.04l.33-.02H51.51l.14-.01.57-.03c.75-.02 1.5-.02 2.25 0 1.49.06 2.95.22 4.37.49 2.84.53 5.51 1.44 7.93 2.64 2.42 1.18 4.59 2.64 6.47 4.22.12.1.23.2.35.3.11.1.23.2.34.3.23.2.45.41.67.61.22.2.43.41.64.62.21.21.42.42.61.63.8.85 1.54 1.7 2.2 2.56 1.34 1.72 2.41 3.46 3.26 5.1.05.1.11.2.16.31.05.1.1.2.15.31.1.2.2.4.29.6.09.2.19.4.27.59.09.2.17.39.25.58.32.77.61 1.5.84 2.19.39 1.11.68 2.12.9 3 .09.35.42.58.78.55.37-.03.66-.34.67-.71-.06-1-.08-2.1-.19-3.36z" style="fill:url(#SVGID_5_)"/>
</svg>