<?xml version="1.0" encoding="utf-8"?>
<!-- Generator: Adobe Illustrator 25.4.1, SVG Export Plug-In . SVG Version: 6.00 Build 0)  -->
<svg version="1.1" id="Artboard_One" xmlns="http://www.w3.org/2000/svg" xmlns:xlink="http://www.w3.org/1999/xlink" x="0px"
	 y="0px" viewBox="0 0 240 216" style="enable-background:new 0 0 240 216;" xml:space="preserve">
<style type="text/css">
	.st0{fill:#FFFFFF;}
</style>
<path id="W" class="st0" d="M223.82,27.03c0-9.96-8.07-18.03-18.03-18.03c-9.96,0-18.03,8.07-18.03,18.03
	c0,4.6,1.74,8.79,4.58,11.98l-20.86,95.74l-33.91-32.58c0.03-0.42,0.06-0.84,0.06-1.26c0-9.96-8.07-18.03-18.03-18.03
	c-9.96,0-18.03,8.07-18.03,18.03c0,3.87,1.23,7.45,3.31,10.39l-26.4,54.05L47.44,87.59c2.5-3.09,4-7.03,4-11.31
	c0-9.96-8.07-18.03-18.03-18.03c-9.96,0-18.03,8.07-18.03,18.03c0,8.4,5.75,15.44,13.53,17.44l34.26,85.83
	c-2.38,3.06-3.81,6.89-3.81,11.06c0,9.96,8.07,18.03,18.03,18.03c9.96,0,18.03-8.07,18.03-18.03c0-3.58-1.06-6.91-2.86-9.71
	l30.43-62.29c0.95-0.18,1.87-0.45,2.76-0.77l35.34,33.96c-0.95,2.19-1.48,4.61-1.48,7.15c0,9.96,8.07,18.03,18.03,18.03
	c9.96,0,18.03-8.07,18.03-18.03c0-5.58-2.54-10.56-6.51-13.87l21.97-100.83C218.48,41.97,223.82,35.12,223.82,27.03z"/>
</svg>
