<?xml version="1.0" encoding="utf-8"?>
<!-- Generator: Adobe Illustrator 19.0.1, SVG Export Plug-In . SVG Version: 6.00 Build 0)  -->
<!DOCTYPE svg PUBLIC "-//W3C//DTD SVG 1.1//EN" "http://www.w3.org/Graphics/SVG/1.1/DTD/svg11.dtd">
<svg version="1.1" id="Layer_1" xmlns="http://www.w3.org/2000/svg" xmlns:xlink="http://www.w3.org/1999/xlink" x="0px" y="0px"
	 width="168px" height="36.6px" viewBox="0 0 168 36.6" style="enable-background:new 0 0 168 36.6;" xml:space="preserve">
<style type="text/css">
	.st0{fill:#E6E7E8;}
</style>
<g>
	<path class="st0" d="M34.1,18.9c-0.4,9.3-7.7,16.6-16.9,16.6c-9.7,0-16.8-7.8-16.8-17.3c0-9.5,7.8-17.3,17.3-17.3
		c4.3,0,8.5,1.8,12,5.2l-2.8,3.4c-2.7-2.3-6-4-9.2-4C10.7,5.5,5,11.2,5,18.2c0,7.1,5.4,12.7,12.2,12.7c6.2,0,11-4.5,12-10.3h-14
		v-4.1h18.9V18.9z"/>
	<path class="st0" d="M50.2,16.6h-2.6c-2.8,0-5.2,2.3-5.2,5.2v13.4h-4.6v-23h3.8v1.9c1.2-1.2,3.2-1.9,5.4-1.9h5L50.2,16.6z"/>
	<path class="st0" d="M75.3,35.2h-3.9v-2.9c-3,3-7.8,4.4-12.6,2.3c-3.6-1.6-6.2-4.8-7-8.7c-1.4-7.4,4.4-14,11.7-14
		c3.1,0,5.8,1.2,7.9,3.3v-2.9h4V35.2z M70.6,25.4c1.1-4.7-2.5-8.9-7.1-8.9c-4,0-7.2,3.3-7.2,7.2c0,4.5,3.9,7.9,8.5,7.2
		C67.6,30.3,69.9,28.2,70.6,25.4z"/>
	<path class="st0" d="M84.5,10.9v1.3h7.3v4h-7.3v19H80V11.1C80,6,83.6,3,88.2,3h5.5l-1.8,4.3h-3.7C86.1,7.3,84.5,8.9,84.5,10.9z"/>
	<path class="st0" d="M116.2,35.2h-3.9v-2.9c-3,3-7.8,4.4-12.6,2.3c-3.6-1.6-6.2-4.8-7-8.7c-1.4-7.4,4.4-14,11.7-14
		c3.1,0,5.8,1.2,7.9,3.3v-2.9h4V35.2z M111.5,25.4c1.1-4.7-2.5-8.9-7.1-8.9c-4,0-7.2,3.3-7.2,7.2c0,4.5,3.9,7.9,8.5,7.2
		C108.6,30.3,110.9,28.2,111.5,25.4z"/>
	<path class="st0" d="M140.8,21.6v13.6h-4.6V21.6c0-2.9-2.3-5.2-5.2-5.2c-2.9,0-5.2,2.3-5.2,5.2v13.6h-4.6v-23h3.8v2
		c1.7-1.5,3.9-2.3,6.2-2.3C136.6,11.8,140.8,16.2,140.8,21.6z"/>
	<path class="st0" d="M167.9,35.2h-3.9v-2.9c-3,3-7.8,4.4-12.6,2.3c-3.6-1.6-6.2-4.8-7-8.7c-1.4-7.4,4.4-14,11.7-14
		c3.1,0,5.8,1.2,7.9,3.3v-2.9h4V35.2z M163.1,25.4c1.1-4.7-2.5-8.9-7.1-8.9c-4,0-7.2,3.3-7.2,7.2c0,4.5,3.9,7.9,8.5,7.2
		C160.2,30.3,162.5,28.2,163.1,25.4z"/>
</g>
</svg>
