<?xml version="1.0" encoding="utf-8"?>
<!-- Generator: Adobe Illustrator 28.3.0, SVG Export Plug-In . SVG Version: 6.00 Build 0)  -->
<svg version="1.1" id="Layer_2_00000176738045763155272900000001457922002369960076_"
	 xmlns="http://www.w3.org/2000/svg" xmlns:xlink="http://www.w3.org/1999/xlink" x="0px" y="0px" viewBox="0 0 122 122"
	 style="enable-background:new 0 0 122 122;" xml:space="preserve">
<style type="text/css">
	.st0{fill:#2C5D96;}
</style>
<path class="st0" d="M1,121h120V1H1V121z M10.2,10.2h101.8v101.8H10.2C10.2,111.9,10.2,10.2,10.2,10.2z M86.4,36.9h-1
	c-4.3,0-7.9,3.6-7.9,7.9v40.5h17V44.8C94.4,40.5,90.8,36.9,86.4,36.9z M61.3,36.9h-1.1c-4.3,0-7.9,3.6-7.9,7.9v40.5h17V44.8
	C69.4,40.5,65.8,36.9,61.3,36.9z M25.8,61.1L25.8,61.1c0,12.3,7.2,22.2,17.6,24.3l1.2,0.2V36.4l-1.2,0.4
	C32.9,39.2,25.8,49,25.8,61.1z"/>
</svg>
