<?xml version="1.0" encoding="UTF-8" standalone="no"?>
<svg
   xmlns:dc="http://purl.org/dc/elements/1.1/"
   xmlns:cc="http://creativecommons.org/ns#"
   xmlns:rdf="http://www.w3.org/1999/02/22-rdf-syntax-ns#"
   xmlns:svg="http://www.w3.org/2000/svg"
   xmlns="http://www.w3.org/2000/svg"
   xmlns:sodipodi="http://sodipodi.sourceforge.net/DTD/sodipodi-0.dtd"
   xmlns:inkscape="http://www.inkscape.org/namespaces/inkscape"
   width="110mm"
   height="145mm"
   viewBox="0 0 110 145"
   version="1.1"
   id="svg8"
   inkscape:version="1.0 (4035a4fb49, 2020-05-01)"
   sodipodi:docname="grafana_icon.svg">
  <defs
     id="defs2">
    <rect
       id="rect851"
       height="51.31575"
       width="84.991707"
       y="64.411957"
       x="43.832203" />
    <rect
       x="88.257439"
       y="28.537203"
       width="59.53125"
       height="85.800598"
       id="rect961" />
    <rect
       x="84.855652"
       y="25.135418"
       width="58.208332"
       height="80.508926"
       id="rect955" />
    <rect
       x="79.055267"
       y="24.131828"
       width="71.190262"
       height="90.394958"
       id="rect949" />
    <rect
       x="102.62054"
       y="45.357143"
       width="67.657738"
       height="82.209824"
       id="rect943" />
  </defs>
  <sodipodi:namedview
     id="base"
     pagecolor="#ffffff"
     bordercolor="#666666"
     borderopacity="1.0"
     inkscape:pageopacity="0.0"
     inkscape:pageshadow="2"
     inkscape:zoom="0.98994949"
     inkscape:cx="306.2255"
     inkscape:cy="338.93538"
     inkscape:document-units="mm"
     inkscape:current-layer="layer4"
     inkscape:document-rotation="0"
     showgrid="false"
     inkscape:window-width="1440"
     inkscape:window-height="837"
     inkscape:window-x="1358"
     inkscape:window-y="-8"
     inkscape:window-maximized="1" />
  <metadata
     id="metadata5">
    <rdf:RDF>
      <cc:Work
         rdf:about="">
        <dc:format>image/svg+xml</dc:format>
        <dc:type
           rdf:resource="http://purl.org/dc/dcmitype/StillImage" />
        <dc:title />
      </cc:Work>
    </rdf:RDF>
  </metadata>
  <g
     inkscape:groupmode="layer"
     id="layer3"
     inkscape:label="Capa 2"
     style="display:inline">
    <circle
       style="fill:#ffffff;stroke:#ff7f2a;stroke-width:1.064;stroke-miterlimit:4;stroke-dasharray:none;stroke-opacity:1"
       id="path1095"
       cx="55.406109"
       cy="54.925842"
       r="54.051029" />
  </g>
  <g
     inkscape:label="Capa 1"
     inkscape:groupmode="layer"
     id="layer1"
     style="display:inline">
    <ellipse
       style="fill:none;stroke-width:0.264583"
       id="path10"
       cx="92.226196"
       cy="119.0625"
       rx="62.744045"
       ry="75.973213" />
    <text
       xml:space="preserve"
       id="text941"
       style="font-style:normal;font-weight:normal;font-size:70.5556px;line-height:1.25;font-family:sans-serif;white-space:pre;shape-inside:url(#rect943);fill:#000000;fill-opacity:1;stroke:none;" />
    <text
       xml:space="preserve"
       id="text947"
       style="font-style:normal;font-weight:normal;font-size:10.5833px;line-height:1.25;font-family:sans-serif;white-space:pre;shape-inside:url(#rect949);fill:#000000;fill-opacity:1;stroke:none;" />
    <text
       xml:space="preserve"
       id="text959"
       style="font-style:normal;font-weight:normal;font-size:70.5556px;line-height:0;font-family:sans-serif;white-space:pre;shape-inside:url(#rect961);fill:#ff9955;fill-opacity:1;stroke:none;stroke-width:2.2;stroke-miterlimit:4;stroke-dasharray:none;"
       transform="translate(-7.1815476,-22.489583)" />
    <path
       style="fill:#ff7f2a;stroke-width:0.265;stroke-miterlimit:4;stroke-dasharray:none"
       d="M 50.352173,109.11688 C 24.899042,106.50428 4.9510763,87.283663 1.6795183,62.218933 c -0.78676907,-6.02775 -0.427151,-13.74685 0.90396,-19.40326 0.635619,-2.70099 1.814398,-6.38464 2.099488,-6.56083 0.106906,-0.0661 0.211228,0.96315 0.231826,2.28717 0.0206,1.32402 0.161889,2.53175 0.31398,2.68384 0.152091,0.15209 0.27655,0.87779 0.276575,1.61267 4.5e-5,1.33883 0.518423,4.39271 1.077484,6.34769 0.164011,0.57353 0.230942,1.45726 0.148735,1.96384 -0.204744,1.26169 0.375682,2.36858 2.094375,3.99405 1.17324,1.1096 1.5424457,1.31853 2.0880457,1.18159 0.558123,-0.14008 0.750192,-0.0182 1.216203,0.77161 0.304375,0.51588 1.077382,1.24503 1.717795,1.62033 1.197532,0.7018 2.49675,2.15384 2.516247,2.81222 0.01566,0.52873 1.548883,2.17145 2.588319,2.77317 0.871416,0.50444 0.883153,0.50426 1.270539,-0.02 0.369964,-0.5007 0.341094,-0.53354 -0.536655,-0.61056 -1.361812,-0.11948 -2.138977,-1.44688 -1.900344,-3.24578 0.09554,-0.72021 0.231867,-1.46104 0.302949,-1.64627 0.222488,-0.5798 -0.889991,-1.5085 -1.812274,-1.5129 -1.603498,-0.008 -1.67774,-0.23289 -0.876164,-2.6582 0.575855,-1.74236 0.651019,-2.22531 0.373707,-2.40117 -0.75212,-0.47697 -1.4711,-0.1062 -1.931692,0.99616 -0.43407,1.03887 -1.480792,1.56953 -2.266484,1.14904 -1.08019,-0.5781 -1.7267667,-2.99397 -1.307939,-4.88698 0.779346,-3.52248 0.852808,-3.71644 1.675852,-4.42466 0.937824,-0.80698 1.449168,-0.88258 2.761125,-0.40817 0.787297,0.28469 0.946074,0.26773 1.238578,-0.13229 0.184533,-0.25237 0.598844,-0.45885 0.92069,-0.45885 0.584699,0 2.909433,1.21886 2.94962,1.54649 0.01169,0.0953 0.05309,0.80576 0.09199,1.57876 0.04536,0.90119 0.233392,1.5657 0.524081,1.85208 0.425578,0.41927 0.47599,0.41609 0.823031,-0.0519 0.27842,-0.37545 0.330293,-1.00934 0.210122,-2.5677 -0.201081,-2.60756 -0.01306,-2.91471 2.727547,-4.4558 2.292924,-1.28935 2.471169,-1.45818 2.477088,-2.34631 0.0024,-0.37524 0.522874,-1.12674 1.359606,-1.96347 1.070867,-1.07087 1.638827,-1.41935 2.704367,-1.65933 1.092592,-0.24608 1.37658,-0.42596 1.494984,-0.94695 0.162893,-0.71675 1.399206,-1.42767 2.980076,-1.71363 0.93109,-0.16843 0.99001,-0.1401 0.926042,0.44529 -0.07768,0.71083 0.213092,0.73828 2.180643,0.2059 0.65484,-0.17719 1.637107,-0.42782 2.182807,-0.55696 0.82823,-0.19599 0.99219,-0.34716 0.99219,-0.91474 0,-0.58578 -0.088,-0.65785 -0.63561,-0.52041 -0.87611,0.21988 -2.289867,-0.0981 -2.464987,-0.55451 -0.0796,-0.20741 0.006,-0.6587 0.19018,-1.00286 0.42067,-0.78603 0.18115,-1.45521 -0.52086,-1.45521 -0.29561,0 -0.53747,-0.11907 -0.53747,-0.26459 0,-0.5191 1.24149,-0.25306 1.85208,0.39688 0.690827,0.73535 1.744157,0.92217 1.491817,0.26458 -0.11822,-0.30807 0.0636,-0.39687 0.81281,-0.39687 0.5308,0 1.35751,-0.1419 1.83713,-0.31533 1.33599,-0.4831 1.40419,-0.005 0.15772,1.10526 -1.43639,1.27963 -1.45463,1.79685 -0.0711,2.01808 0.57934,0.0926 1.18814,0.33086 1.3529,0.52938 0.16476,0.19852 0.40177,0.29778 0.52669,0.22057 0.12492,-0.0772 0.51474,0.0481 0.86626,0.2784 0.95447,0.6254 1.45258,0.0292 1.24914,-1.49526 -0.13007,-0.97462 -0.25464,-1.16466 -0.81499,-1.2433 -0.95633,-0.1342 -1.06371,-0.50082 -0.50625,-1.72839 0.78554,-1.72983 0.67453,-2.10083 -1.09313,-3.65329 -1.21856,-1.07021 -1.56544,-1.53066 -1.45681,-1.93383 0.19337,-0.7177 -0.40286,-3.33137 -0.79421,-3.48154 -0.17305,-0.0664 -0.76334,0.18376 -1.31175,0.55592 -1.16994,0.79394 -1.27705,0.80991 -1.73462,0.25857 -0.26567,-0.32011 -0.27945,-0.597 -0.0588,-1.18159 0.25958,-0.68771 0.20419,-0.85259 -0.557957,-1.6607 -0.7616,-0.80753 -1.19458,-0.99819 -2.918214,-1.28499 -0.344828,-0.0574 -0.702714,0.21489 -1.105707,0.8412 -0.327718,0.50933 -0.886428,1.28323 -1.241578,1.7198 -0.471117,0.57911 -0.612889,1.01453 -0.524283,1.61022 0.09964,0.66988 -0.02896,0.94302 -0.716261,1.52135 -0.46074,0.38769 -1.052118,0.70488 -1.314178,0.70488 -0.63291,0 -0.958564,0.43654 -1.312016,1.75874 -0.295735,1.10628 -0.953468,1.64996 -1.425289,1.17814 -0.14051,-0.14051 -0.163462,-0.47184 -0.051,-0.73628 0.112459,-0.26444 0.241729,-0.98682 0.287266,-1.60528 0.06333,-0.86012 -0.01056,-1.12448 -0.314229,-1.12448 -0.218364,0 -0.986666,-0.58965 -1.707341,-1.31032 -1.06876,-1.06876 -1.310317,-1.48009 -1.310317,-2.23124 0,-0.76392 0.191712,-1.0765 1.124479,-1.83343 1.493033,-1.21157 3.698624,-2.29793 4.665382,-2.29793 0.612611,0 0.855898,0.17063 1.131716,0.79375 0.41897,0.94652 1.429438,1.15064 1.137148,0.22972 -0.167162,-0.52669 -0.113501,-0.55175 0.810289,-0.37844 0.979074,0.18367 0.987496,0.17788 0.814321,-0.56045 -0.332915,-1.419361 -0.307605,-1.477081 0.814549,-1.857661 0.652013,-0.22113 1.542253,-0.84899 2.171133,-1.53125 1.01337,-1.0993691 1.105707,-1.1414331 1.871387,-0.8524221 0.99113,0.3741091 1.00176,0.5653161 0.0778,1.3993621 l -0.7276,0.65682 0.92604,-0.0619 c 1.16258,-0.0777 1.18649,0.27349 0.0702,1.03103 -0.61092,0.41458 -1.09149,0.543491 -1.626917,0.43641 -0.85834,-0.17167 -1.96788,0.305301 -1.812238,0.779051 0.05652,0.17205 0.619358,0.37235 1.250758,0.44511 1.03213,0.11894 1.179277,0.22575 1.457957,1.05833 0.2488,0.74332 0.55787,1.02894 1.56635,1.44752 1.1655,0.48376 1.27438,0.48934 1.50506,0.0771 0.13827,-0.24708 0.42324,-0.37736 0.64191,-0.29344 0.21629,0.083 0.57033,0.004 0.78675,-0.17568 0.444,-0.36848 0.53271,-1.73203 0.12893,-1.98158 -0.35648,-0.22032 -0.3376,-0.92604 0.0248,-0.92604 0.15915,0 0.34947,0.22988 0.42295,0.51086 0.0735,0.28098 0.31246,0.5795 0.53108,0.66339 0.46525,0.17854 2.46079,-0.87272 2.46079,-1.29635 0,-0.313361 -1.3888,-1.616241 -1.92158,-1.802691 -0.23739,-0.0831 -0.20011,-0.25819 0.13564,-0.63708 0.66879,-0.754711 0.58709,-1.060966 -0.59531,-2.2316071 -0.58208,-0.576295 -1.05833,-1.274307 -1.05833,-1.551137 0,-0.676488 -0.17809,-0.755385 -2.14404,-0.949834 -1.7976,-0.177798 -2.56488,-0.537888 -2.11172,-0.991046 0.17639,-0.176389 0.38582,-0.163965 0.62829,0.03727 0.20005,0.166021 1.24689,0.333615 2.32632,0.372432 1.81918,0.06542 1.96841,0.02994 2.04201,-0.48551 0.0625,-0.437928 0.22023,-0.529167 0.74215,-0.429396 0.36451,0.06968 1.10268,-0.05123 1.64039,-0.26869 2.50717,-1.013959 6.13701,-1.760683 6.13701,-1.262496 0,0.147241 -0.56554,0.269534 -1.25677,0.271762 -1.39282,0.0045 -1.63102,0.116425 -2.12563,0.998899 -0.47161,0.84144 -0.26372,1.036461 1.33218,1.249735 1.81612,0.242705 2.31481,0.70337 2.31481,2.138332 0,0.623701 -0.12871,1.21355 -0.28602,1.310774 -0.15731,0.09722 -0.21769,0.449025 -0.13418,0.7817801 0.10026,0.399462 0.0177,0.656502 -0.24314,0.756582 -0.57525,0.22074 -0.48383,1.16266 0.1318,1.35805 0.28974,0.092 0.64693,0.093 0.79375,0.002 0.14683,-0.0907 0.26695,-0.10402 0.26695,-0.0295 0,0.0745 -0.4266,0.33794 -0.94801,0.58536 -0.52141,0.24743 -1.0513,0.721511 -1.17753,1.053511 -0.231,0.60759 0.22746,3.59073 0.61074,3.97402 0.10554,0.10553 0.19189,0.36202 0.19189,0.56996 0,0.62276 1.05932,1.91498 1.56983,1.91498 0.26151,0 0.78879,0.24646 1.17174,0.54768 0.92187,0.72515 1.72941,0.56531 2.2716,-0.44961 0.24327,-0.45539 0.76265,-1.20866 1.15415,-1.67395 0.39152,-0.46528 0.71185,-1.00741 0.71185,-1.20472 0,-0.40832 0.39646,-0.55402 2.20155,-0.80906 0.72335,-0.1022 1.58473,-0.4404 1.98982,-0.78126 0.5153,-0.43359 1.22848,-0.65611 2.55993,-0.79869 1.94171,-0.20794 3.83203,-1.11202 3.83203,-1.832721 0,-0.20961 -0.13943,-0.68713 -0.30985,-1.06116 -0.26097,-0.57276 -0.21987,-0.84016 0.26053,-1.6949 0.56837,-1.0112891 0.56853,-1.0165301 0.0453,-1.4900781 -0.28881,-0.261371 -0.52511,-0.676438 -0.52511,-0.922372 0,-0.245934 -0.24766,-0.671284 -0.55036,-0.945224 -0.38054,-0.344381 -0.50877,-0.704015 -0.41557,-1.165486 0.34869,-1.726425 0.35114,-1.719081 -0.62157,-1.85804 -0.50932,-0.07276 -1.55818,-0.4653 -2.33081,-0.872311 -1.29457,-0.681968 -1.67854,-0.74725 -4.89479,-0.832196 -2.63588,-0.06962 -3.70474,-0.202955 -4.36733,-0.544816 -0.66079,-0.340928 -1.60763,-0.460022 -3.83646,-0.48255 -5.05845,-0.05113 -7.17234,0.399957 -7.85541,1.676278 -0.35111,0.656061 -0.79228,0.684002 -0.79228,0.05018 0,-0.261938 -0.13845,-0.614701 -0.30767,-0.783918 -0.23384,-0.233835 -0.15447,-0.36513 0.33073,-0.547116 1.492,-0.559616 6.47318,-0.970161 11.61861,-0.957598 5.97207,0.01458 9.21423,0.458614 14.43552,1.977029 6.51446,1.894485 13.13521,5.321821 18.4589,9.5555481 1.86165,1.480501 6.664189,6.143071 7.261039,7.049421 0.5803,0.88122 0.17131,1.05167 -0.66916,0.27888 -0.39866,-0.36656 -1.32016,-1.07131 -2.04776,-1.56611 -0.727609,-0.4948 -1.659479,-1.16847 -2.070819,-1.49705 -0.96121,-0.76779 -1.52599,-0.75433 -2.28584,0.0545 -0.57236,0.60924 -0.60131,0.79542 -0.44225,2.84427 0.17491,2.25286 0.13058,2.43256 -0.99063,4.01618 -0.49459,0.69856 -0.49272,0.71493 0.28328,2.4824 0.89327,2.03454 1.77505,2.63778 2.62028,1.79255 0.44884,-0.44884 0.48385,-0.4485 0.81755,0.008 0.19175,0.26223 0.34864,0.63262 0.34864,0.82309 0,0.19047 0.0904,0.3463 0.20094,0.3463 0.38635,0 0.91003,1.11153 0.6474,1.37416 -0.16152,0.16152 -0.35632,-0.0417 -0.53712,-0.56036 -0.30572,-0.87699 -1.01727,-1.08562 -1.28885,-0.37791 -0.15077,0.39291 -0.0607,0.7483 0.5768,2.27684 0.14882,0.3568 5e-5,0.54508 -0.64496,0.81629 -0.46112,0.19388 -1.06755,0.72933 -1.34763,1.18988 -0.66249,1.08938 -1.31075,1.10684 -1.31075,0.0353 0,-0.45756 -0.16522,-0.86546 -0.38468,-0.94967 -0.21158,-0.0812 -0.62537,-0.52394 -0.91955,-0.98388 -0.29417,-0.45995 -0.82858,-1.25299 -1.18756,-1.76231 -0.35899,-0.50933 -0.65957,-1.25347 -0.66796,-1.65365 -0.008,-0.40018 -0.12967,-0.7276 -0.26953,-0.7276 -0.13985,0 -0.48983,-0.25285 -0.77773,-0.56187 -0.38482,-0.41305 -0.7029,-0.51683 -1.20094,-0.39184 -0.76563,0.19216 -0.85423,0.74398 -0.28059,1.74746 0.53221,0.931 0.4931,1.05717 -0.33073,1.06713 -1.22092,0.0148 -1.88167,0.78463 -1.8134,2.11283 0.0722,1.40567 0.53871,1.77744 1.7845,1.42227 0.78272,-0.22315 0.8987,-0.37258 0.97179,-1.25196 0.0945,-1.13732 0.6672,-1.52284 1.3089,-0.88115 0.38795,0.38796 0.38841,0.46571 0.005,0.89608 -0.28041,0.31496 -0.41124,0.93937 -0.39446,1.88273 l 0.0251,1.41148 1.12724,-0.16904 c 0.61999,-0.093 1.5527,-0.0892 2.07269,0.008 0.76658,0.14381 0.88795,0.24663 0.64157,0.5435 -0.16715,0.20138 -0.58697,0.36614 -0.93295,0.36614 -0.34599,0 -0.62906,0.11906 -0.62906,0.26458 0,0.14552 -0.42545,0.26458 -0.94544,0.26458 -0.74074,0 -0.92692,0.0956 -0.8599,0.44162 0.047,0.24288 0.41748,0.62984 0.82319,0.85989 0.99789,0.56586 1.77204,1.81991 1.77415,2.87398 0.002,1.15735 -0.38896,1.25897 -2.79042,0.72469 -2.59349,-0.57699 -2.84741,-0.4771 -2.62123,1.03114 0.0967,0.64501 0.0495,1.56863 -0.1049,2.05249 -0.3463,1.08512 -0.0519,2.60424 0.56304,2.905 0.25154,0.12303 0.6657,0.32575 0.92036,0.45049 1.07256,0.52536 0.52428,2.22052 -0.91234,2.82077 -0.87079,0.36384 -1.46539,1.31158 -1.79326,2.8583 -0.12332,0.58178 -0.46256,0.88646 -1.53751,1.38088 -0.86912,0.39975 -1.67287,1.03027 -2.17304,1.70468 -0.43656,0.58865 -1.29989,1.70587 -1.91851,2.4827 -1.05416,1.32377 -1.11436,1.48835 -0.95898,2.62199 0.21105,1.53973 -0.0152,2.72592 -0.74296,3.89555 -0.64765,1.04086 -0.85313,2.75519 -0.38919,3.24703 0.74427,0.78905 1.76079,2.6142 1.76187,3.16344 8e-4,0.35462 0.60948,1.28288 1.48504,2.2644 l 1.48386,1.66341 1.51931,-0.17189 c 0.98703,-0.11167 1.72612,-0.0612 2.1096,0.14402 0.47012,0.2516 0.9925,0.22643 2.56601,-0.12364 1.81519,-0.40385 2.02831,-0.4051 2.62306,-0.0154 0.35604,0.23329 0.64735,0.6468 0.64735,0.91892 0,0.51508 0.48922,0.81596 1.32673,0.81596 0.90493,0 0.88668,0.97737 -0.0458,2.45261 -0.81825,1.2945 -0.87565,1.53759 -0.889,3.76509 -0.0186,3.10869 -0.5839,4.32953 -3.33533,7.20369 -1.22014,1.27456 -2.08367,2.402 -2.08367,2.72048 0,0.89671 -0.75926,2.43626 -1.82542,3.70135 -0.5521,0.65514 -1.18881,1.548339 -1.4149,1.984899 -0.22609,0.43656 -0.86434,1.259738 -1.41834,1.829288 l -1.00726,1.03553 1.4439,-0.16665 c 1.53363,-0.17702 4.92872,-1.75956 6.60327,-3.077968 0.50932,-0.400999 1.34276,-0.941259 1.85208,-1.200579 0.50933,-0.25932 1.58731,-1.09731 2.39553,-1.86221 0.80821,-0.76489 2.05837,-1.69079 2.77812,-2.05755 1.45433,-0.74107 3.668619,-3.14177 5.145099,-5.57825 0.96211,-1.58764 5.755758,-7.31015 6.123598,-7.31015 0.53834,0 -1.43718,3.31954 -4.015208,6.74688 -8.508099,11.311049 -21.150339,18.792957 -35.306279,20.894917 -3.5512,0.5273 -9.57411,0.71264 -12.70732,0.39104 z m -12.567707,-4.73919 c 0,-0.28538 -0.22227,-0.73186 -0.49394,-0.99219 -0.291718,-0.27955 -0.550099,-0.99569 -0.631112,-1.74922 -0.113673,-1.05735 -0.03938,-1.3814 0.433776,-1.891938 0.314026,-0.33883 0.865906,-0.65765 1.226426,-0.70849 0.55513,-0.0783 0.65548,-0.234209 0.65548,-1.018469 0,-0.83608 0.0679,-0.92159 0.698557,-0.88021 0.55264,0.0363 1.00862,-0.30514 2.18282,-1.63431 0.93019,-1.05296 1.48424,-1.91896 1.48424,-2.31993 0,-0.35188 0.20836,-0.82178 0.46303,-1.04422 0.64381,-0.56235 2.41677,-1.10312 3.41072,-1.04032 0.64356,0.0407 0.98962,-0.13596 1.534,-0.78291 0.96042,-1.1414 1.63777,-2.53988 1.8511,-3.82188 0.14841,-0.8918 0.42691,-1.27095 1.65116,-2.24785 0.80996,-0.64631 1.69639,-1.45955 1.96986,-1.80721 0.69628,-0.88518 0.6493,-2.05156 -0.0981,-2.4352 -0.32743,-0.16807 -1.15246,-0.76757 -1.83341,-1.33223 -0.68095,-0.56466 -1.45486,-1.02844 -1.71979,-1.03063 -0.7929,-0.007 -2.42114,-0.65749 -3.05934,-1.22305 -0.85571,-0.75831 -4.07981,-2.0389 -4.61561,-1.83329 -0.39107,0.15006 -0.3848,0.10063 0.0479,-0.37747 0.43139,-0.47668 0.45591,-0.66618 0.1836,-1.41923 -0.17284,-0.478 -0.31426,-1.04672 -0.31426,-1.26383 0,-0.91552 -2.54064,-2.6104 -3.913027,-2.6104 -0.56736,0 -1.07286,-0.32384 -1.961712,-1.25677 -0.658572,-0.69122 -1.362343,-1.40378 -1.563937,-1.58345 -0.201591,-0.17967 -0.72372,-0.69143 -1.160282,-1.13724 -0.707835,-0.72282 -0.912924,-0.79348 -1.894769,-0.65281 -0.654587,0.0938 -1.170503,0.0453 -1.272387,-0.11953 -0.09425,-0.15251 -0.478107,-0.27728 -0.853016,-0.27728 -0.392507,0 -0.949452,-0.28897 -1.312992,-0.68123 -0.509572,-0.54984 -0.783342,-0.64785 -1.419403,-0.50815 -0.684794,0.15041 -0.788059,0.0981 -0.788059,-0.39915 0,-0.35725 -0.124253,-0.51881 -0.330729,-0.43002 -0.181901,0.0782 -0.848016,0.29444 -1.480255,0.4805 -0.809328,0.23817 -1.265709,0.56295 -1.542104,1.09744 -0.324781,0.62806 -0.526069,0.73957 -1.165578,0.64571 -0.892278,-0.13096 -0.95082,0.0984 -0.376126,1.47388 0.662759,1.5862 0.513141,2.78939 -0.529166,4.25542 -0.949952,1.33612 -1.130872,2.18432 -0.655411,3.07273 0.193076,0.36077 0.174252,0.66001 -0.06569,1.04421 -0.38094,0.60998 -0.577258,0.21988 2.271564,4.51375 0.998279,1.50465 1.938054,3.00568 2.088389,3.33563 0.150335,0.32995 0.738254,0.90758 1.306487,1.28362 3.004851,1.98852 3.545924,2.94315 4.197772,7.40628 0.170027,1.16417 0.539954,2.71198 0.822056,3.43959 0.282104,0.7276 0.586226,1.85579 0.67583,2.50709 0.181957,1.32259 0.811562,2.541889 2.111399,4.088967 0.480502,0.5719 0.873641,1.14822 0.873641,1.28072 0,0.33264 2.390938,3.10342 2.677978,3.10342 0.12784,0 0.23244,-0.23348 0.23244,-0.51885 z M 29.317803,56.815763 c 0.07276,-0.0651 -0.201769,-0.40593 -0.610066,-0.75735 -0.971791,-0.83642 -2.829518,-0.91835 -2.829518,-0.12478 0,0.81608 0.938538,1.30258 2.202053,1.14146 0.607883,-0.0775 1.16477,-0.19421 1.237531,-0.25933 z m -6.614584,-0.60255 c 0,-0.14552 -0.185621,-0.26458 -0.41249,-0.26458 -0.226869,0 -0.338905,0.11906 -0.248968,0.26458 0.08994,0.14552 0.275557,0.26458 0.41249,0.26458 0.136932,0 0.248968,-0.11906 0.248968,-0.26458 z m 2.116667,-1.56268 c 0,-0.21895 -1.359235,-1.27416 -3.674943,-2.85297 -1.051901,-0.71717 -2.456723,-0.7978 -2.97339,-0.17067 -0.326841,0.39672 -0.292303,0.42313 0.345655,0.26427 0.861142,-0.21444 2.261947,0.55571 3.641331,2.00196 0.705805,0.74001 1.156859,0.98844 1.801451,0.99218 0.472943,0.003 0.859896,-0.1029 0.859896,-0.23477 z m 51.251777,-34.86519 c 0.0811,-0.21127 -0.19068,-0.73235 -0.61039,-1.17044 -0.68444,-0.71439 -0.90078,-0.78442 -2.2706,-0.73499 -0.91431,0.033 -1.675,-0.0789 -1.92032,-0.28251 -0.22343,-0.18543 -0.58634,-0.26803 -0.80647,-0.18355 -1.06598,0.40905 0.2326,2.39701 2.02306,3.09705 1.01954,0.39863 1.24294,0.40338 2.28432,0.0485 0.63485,-0.21631 1.22003,-0.56466 1.3004,-0.7741 z m -41.19761,-3.52421 c 0,-0.14552 -0.0525,-0.26459 -0.116676,-0.26459 -0.06417,0 -0.190262,0.11907 -0.280199,0.26459 -0.08994,0.14552 -0.03743,0.26458 0.116676,0.26458 0.154109,0 0.280199,-0.11906 0.280199,-0.26458 z m 47.09583,-6.8613431 c 0,-0.135714 -0.2382,-0.322357 -0.52934,-0.414761 -0.29114,-0.0924 -0.83749,-0.572008 -1.21412,-1.065788 -0.80648,-1.057357 -1.46456,-1.325658 -2.23724,-0.912131 -0.5354,0.286536 -0.54004,0.323583 -0.10128,0.808408 0.25291,0.27946 0.61333,0.508109 0.80094,0.508109 0.18762,0 0.67518,0.293894 1.08348,0.653098 0.72191,0.635107 2.19756,0.919194 2.19756,0.423065 z m 10.98021,81.7384231 c 0.0899,-0.14552 0.282589,-0.26458 0.428109,-0.26458 0.14552,0 0.191,0.11906 0.10106,0.26458 -0.0899,0.14552 -0.28258,0.26458 -0.4281,0.26458 -0.145529,0 -0.190999,-0.11906 -0.101069,-0.26458 z m 11.916887,-16.99948 c 0.11499,-0.47294 0.20685,-1.27661 0.20412,-1.78594 -0.003,-0.50932 0.11362,-2.17619 0.25854,-3.70416 0.14491,-1.52797 0.24745,-4.11758 0.22787,-5.75469 -0.0323,-2.69655 0.14596,-3.48183 0.61716,-2.71941 0.0874,0.14143 0.20623,1.83807 0.26406,3.77031 0.0964,3.22083 -0.25029,6.78016 -0.7996,8.20952 -0.12402,0.3227 -0.0491,0.46302 0.24724,0.46302 0.52473,0 0.53296,0.2882 0.0418,1.4637 -0.5196,1.24356 -1.36065,1.28925 -1.0612,0.0576 z m -2.50765,-18.7539 c -1.5797,-1.19759 -2.19493,-1.16421 -2.34921,0.12746 -0.046,0.38551 -0.213397,0.70092 -0.371897,0.70092 -0.490101,0 -2.057921,-1.32764 -2.057921,-1.74266 0,-0.21604 -0.5077,-0.61044 -1.12822,-0.87643 -1.46207,-0.62671 -1.90686,-1.1515 -1.54657,-1.82472 0.38161,-0.71303 0.0641,-2.38855 -0.48575,-2.56306 -0.2463,-0.0782 -1.689769,-0.16666 -3.207699,-0.19665 -2.20697,-0.0436 -2.93462,0.0391 -3.63206,0.41265 -0.68032,0.36439 -1.11682,0.41877 -1.98437,0.24721 -1.50202,-0.29704 -1.49664,-0.94565 0.01,-1.14668 1.38127,-0.18435 2.45017,-1.11484 2.45017,-2.1329 0,-0.53954 0.2816,-0.96146 1.05833,-1.58566 0.58208,-0.46777 1.05833,-1.04885 1.05833,-1.29128 0,-0.65662 0.24663,-0.7873 0.96812,-0.51299 0.46399,0.17641 0.86752,0.13386 1.41487,-0.14918 1.074519,-0.55566 1.250189,-0.50895 1.744539,0.46391 0.24033,0.47295 1.13635,1.59373 1.99117,2.49065 0.90628,0.95089 1.55422,1.8674 1.55422,2.19842 0,0.31223 0.11906,0.4941 0.26458,0.40416 0.14553,-0.0899 0.26459,-0.39835 0.26459,-0.68537 0,-0.6916 0.73072,-0.94625 1.243591,-0.43339 0.22484,0.22485 0.623067,1.04171 0.884937,1.81526 0.26187,0.77354 0.60372,1.44897 0.75967,1.50096 0.49793,0.16598 0.81506,-1.15204 0.48659,-2.02226 -0.23105,-0.61211 -0.22322,-0.8865 0.0341,-1.19659 0.57282,-0.69021 1.02832,-0.19265 1.31534,1.4368 0.37975,2.15589 0.59597,2.44435 2.06752,2.75839 l 1.278,0.27274 -0.0197,1.58402 c -0.0108,0.87121 -0.10241,1.91145 -0.20348,2.31163 -0.16427,0.65041 -0.30253,0.72748 -1.3032,0.72647 -0.90152,-8e-4 -1.39952,-0.21347 -2.55813,-1.09183 z m -4.779028,-6.01993 c 0,-0.49936 -0.92766,-0.93659 -1.38607,-0.65329 -0.30261,0.18703 0.56029,1.1516 1.0302,1.1516 0.19573,0 0.35587,-0.22424 0.35587,-0.49831 z m -3.36611,-3.09827 c -0.0324,-0.5685 -0.0634,-1.30152 -0.0691,-1.62894 -0.006,-0.32742 -0.15778,-0.59526 -0.33806,-0.59519 -0.34231,1.4e-4 -0.59879,2.73634 -0.30157,3.21725 0.34974,0.5659 0.76439,-0.0151 0.70874,-0.99312 z m 11.832778,0.55387 c -0.37475,-0.45154 -1.21092,-0.52755 -1.45521,-0.13229 -0.62942,1.01842 -1.45173,-0.61234 -1.26746,-2.51354 0.23204,-2.39395 0.55673,-2.81573 1.20909,-1.57064 0.19548,0.37308 0.64324,0.82182 0.99504,0.99721 0.74441,0.37113 1.83079,2.15751 1.8371,3.02082 0.005,0.69972 -0.80176,0.82115 -1.31856,0.19844 z m -8.174968,-1.29529 c -0.62777,-0.63965 -1.30269,-1.44332 -1.49982,-1.78593 -1.49112,-2.59156 -1.0656,-2.66742 1.20651,-0.21508 1.1005,1.1878 1.8334,2.21038 1.84102,2.5687 0.0181,0.84914 -0.25578,0.74869 -1.54771,-0.56769 z m 10.225488,0.28146 c -0.10914,-0.26656 -0.19089,-0.86187 -0.18167,-1.32291 0.0164,-0.81806 0.023,-0.82257 0.27676,-0.18699 0.14299,0.3582 0.22474,0.95351 0.18167,1.32292 -0.067,0.57469 -0.10697,0.60168 -0.27676,0.18698 z m -2.97656,-3.08721 c -0.10561,-0.17088 -0.073,-0.42975 0.0726,-0.57527 0.17639,-0.17639 0.32859,-0.16102 0.4566,0.0461 0.10561,0.17089 0.073,0.42976 -0.0726,0.57528 -0.17639,0.17639 -0.32859,0.16102 -0.4566,-0.0461 z M 4.9842383,35.708003 c 0,-0.14552 0.115416,-0.44317 0.25648,-0.66146 0.141064,-0.21828 0.25648,-0.27781 0.25648,-0.13229 0,0.14552 -0.115416,0.44318 -0.25648,0.66146 -0.141064,0.21828 -0.25648,0.27781 -0.25648,0.13229 z m 15.6023137,-2.71333 c 0,-0.29104 0.178594,-0.67739 0.396875,-0.85854 0.330279,-0.27411 0.396875,-0.24058 0.396875,0.19979 0,0.29104 -0.178593,0.67738 -0.396875,0.85854 -0.330278,0.27411 -0.396875,0.24058 -0.396875,-0.19979 z m 73.22344,-0.40263 c -0.926859,-0.37385 -0.916789,-0.60907 0.0474,-1.10767 0.90093,-0.46589 1.2228,-1.22743 0.82945,-1.96242 -0.15233,-0.28463 -0.2023,-0.89082 -0.11104,-1.3471 0.13353,-0.66767 0.0311,-0.97031 -0.52478,-1.55052 -0.93671,-0.97772 -1.393949,-2.3101 -0.96863,-2.82258 0.2355,-0.28375 0.24703,-0.59572 0.0436,-1.17925 -0.348529,-0.99977 0.0548,-1.30475 0.60827,-0.45999 0.25402,0.38768 0.35389,0.92049 0.26193,1.39749 -0.11127,0.57725 0.0713,1.1365 0.72662,2.22613 0.8179,1.35989 0.95314,1.46387 2.06479,1.5875 1.21145,0.13472 1.53007,0.591 0.52241,0.74812 -0.76533,0.11934 -0.95735,0.78616 -0.35822,1.24394 0.40815,0.31185 0.43109,0.42198 0.12926,0.6206 -0.24913,0.16394 -0.31018,0.48413 -0.19012,0.99721 0.34471,1.47315 0.32507,1.53501 -0.50126,1.57871 -0.43657,0.0231 -1.03188,0.10527 -1.32292,0.18264 -0.29104,0.0774 -0.85659,0.009 -1.25677,-0.15281 z m -69.548278,-0.53436 c -0.01595,-0.0296 -0.06155,-0.4408 -0.101331,-0.91374 -0.07019,-0.83453 0.194587,-1.13351 0.527211,-0.59531 0.08994,0.14552 0.39462,0.26458 0.677073,0.26458 0.282454,0 0.5128,0.0893 0.511879,0.19844 -0.0015,0.17775 -1.54423,1.17708 -1.614832,1.04603 z m -2.219953,-1.50905 c 0.08994,-0.14552 0.275557,-0.26459 0.41249,-0.26459 0.136932,0 0.248968,0.11907 0.248968,0.26459 0,0.14552 -0.185621,0.26458 -0.41249,0.26458 -0.226869,0 -0.338905,-0.11906 -0.248968,-0.26458 z m 0.264583,-1.5875 c -0.08994,-0.14552 -0.461178,-0.26459 -0.82498,-0.26459 -0.845011,0 -0.630269,-0.3433 0.571447,-0.91355 1.099836,-0.5219 1.708741,-0.23196 1.708741,0.81366 0,0.49055 -0.142202,0.62906 -0.645843,0.62906 -0.355214,0 -0.719428,-0.11906 -0.809365,-0.26458 z m 74.369868,-6.57907 c -0.11398,-0.18442 -0.13578,-0.40676 -0.0485,-0.49409 0.2368,-0.23679 0.49498,0.11147 0.36708,0.49515 -0.0896,0.26886 -0.15194,0.26866 -0.31863,-0.001 z M 30.119215,9.9214619 c -0.508262,-0.321434 -0.195151,-0.613314 0.718447,-0.669735 0.401005,-0.02477 0.938808,-0.137912 1.19512,-0.251438 0.349121,-0.154635 0.428432,-0.108458 0.316175,0.184083 -0.137015,0.357053 -1.20944,0.9969831 -1.65454,0.9872871 -0.102293,-0.0022 -0.361135,-0.114817 -0.575202,-0.2501971 z m 5.724978,0.07786 c -0.587873,-0.587873 1.050311,-2.998611 2.037663,-2.998611 0.59834,0 0.5398,0.423503 -0.12268,0.88752 -0.40013,0.280261 -0.50451,0.545731 -0.37502,0.953741 0.28959,0.912414 -0.894787,1.8025261 -1.539963,1.15735 z m -7.95605,-0.311442 c -0.09156,-0.148145 -0.03754,-0.349036 0.12003,-0.446423 0.406792,-0.251412 0.669256,0.09296 0.329666,0.43255 -0.190018,0.190019 -0.338011,0.194584 -0.449696,0.01387 z m 5.265735,-0.934941 c -0.569688,-0.416565 -0.245034,-1.179301 0.790863,-1.858047 1.317326,-0.863144 1.645333,0.224253 0.433261,1.436325 -0.652378,0.652379 -0.826598,0.7124 -1.224124,0.421722 z m 0.926425,-3.026221 c 0,-0.536547 0.750004,-0.778562 2.833264,-0.914252 1.689469,-0.110042 2.241389,-0.05762 2.485096,0.236037 0.17231,0.207623 0.23672,0.454069 0.14313,0.547658 -0.280847,0.280848 -5.46149,0.404691 -5.46149,0.130557 z m 9.18375,-1.371841 c -0.17225,-0.6587 -1.37836,-0.726867 -1.6221,-0.09168 -0.15295,0.398572 -0.199,0.394924 -0.51777,-0.04101 -0.26466,-0.361946 -0.55291,-0.437899 -1.18334,-0.311811 -0.633527,0.126704 -0.833457,0.07307 -0.833457,-0.22357 0,-0.276861 0.298107,-0.39026 1.025937,-0.39026 0.58916,0 1.16616,-0.168962 1.35531,-0.396875 0.18116,-0.218281 0.62703,-0.396875 0.99084,-0.396875 0.52943,0 0.60153,0.07221 0.36121,0.36177 -0.22883,0.275728 -0.20164,0.443604 0.11434,0.705844 0.5511,0.457375 1.00115,1.313636 0.69045,1.313636 -0.13367,0 -0.30531,-0.238125 -0.38142,-0.529167 z"
       id="path1090" />
  </g>
  <g
     inkscape:groupmode="layer"
     id="layer4"
     inkscape:label="Capa 3">
    <text
       transform="matrix(3.8921237,0,0,3.3959026,-157.54416,-113.59952)"
       style="font-style:normal;font-weight:normal;font-size:10.5833px;line-height:1.25;font-family:sans-serif;white-space:pre;shape-inside:url(#rect851);fill:#ffffff;fill-opacity:1;stroke:none;"
       id="text849"
       xml:space="preserve"><tspan
         x="43.832031"
         y="74.067574"><tspan
           style="fill:#ffffff">SQL</tspan></tspan></text>
  </g>
</svg>
