<svg width="1440" height="900" viewBox="0 0 1440 900" fill="none" xmlns="http://www.w3.org/2000/svg">
<g clip-path="url(#clip0)">
<rect width="1440" height="900" fill="#141619"/>
<g opacity="0.1" clip-path="url(#clip1)">
<path d="M50.1489 855.296C50.1489 856.45 50.023 857.451 49.7713 858.298C49.5257 859.139 49.1881 859.836 48.7583 860.389C48.3286 860.941 47.819 861.353 47.2297 861.623C46.6464 861.893 46.0202 862.028 45.351 862.028C44.6757 862.028 44.0464 861.893 43.4632 861.623C42.8861 861.353 42.3827 860.941 41.9529 860.389C41.5232 859.836 41.1855 859.139 40.9399 858.298C40.6944 857.451 40.5716 856.45 40.5716 855.296C40.5716 854.142 40.6944 853.141 40.9399 852.294C41.1855 851.447 41.5232 850.747 41.9529 850.194C42.3827 849.636 42.8861 849.221 43.4632 848.951C44.0464 848.681 44.6757 848.546 45.351 848.546C46.0202 848.546 46.6464 848.681 47.2297 848.951C47.819 849.221 48.3286 849.636 48.7583 850.194C49.1881 850.747 49.5257 851.447 49.7713 852.294C50.023 853.141 50.1489 854.142 50.1489 855.296ZM48.4452 855.296C48.4452 854.289 48.3593 853.445 48.1874 852.764C48.0216 852.076 47.7945 851.524 47.5059 851.106C47.2235 850.689 46.8951 850.391 46.5206 850.213C46.1461 850.029 45.7562 849.937 45.351 849.937C44.9458 849.937 44.556 850.029 44.1815 850.213C43.807 850.391 43.4785 850.689 43.1961 851.106C42.9137 851.524 42.6866 852.076 42.5147 852.764C42.3489 853.445 42.266 854.289 42.266 855.296C42.266 856.303 42.3489 857.147 42.5147 857.829C42.6866 858.51 42.9137 859.06 43.1961 859.477C43.4785 859.894 43.807 860.195 44.1815 860.38C44.556 860.558 44.9458 860.647 45.351 860.647C45.7562 860.647 46.1461 860.558 46.5206 860.38C46.8951 860.195 47.2235 859.894 47.5059 859.477C47.7945 859.06 48.0216 858.51 48.1874 857.829C48.3593 857.147 48.4452 856.303 48.4452 855.296Z" fill="white"/>
<path d="M20.6513 775.72H23.4876V766.722C23.4876 766.452 23.4968 766.179 23.5153 765.903L21.1578 767.92C21.0964 767.969 21.035 768.006 20.9736 768.03C20.9122 768.049 20.8539 768.058 20.7986 768.058C20.7065 768.058 20.6236 768.039 20.55 768.003C20.4763 767.96 20.421 767.91 20.3842 767.855L19.8685 767.146L23.7915 763.748H25.1268V775.72H27.7237V776.972H20.6513V775.72ZM38.822 770.378C38.822 771.533 38.6961 772.533 38.4444 773.381C38.1988 774.222 37.8612 774.918 37.4314 775.471C37.0017 776.024 36.4921 776.435 35.9027 776.705C35.3195 776.975 34.6933 777.11 34.0241 777.11C33.3488 777.11 32.7195 776.975 32.1363 776.705C31.5592 776.435 31.0558 776.024 30.626 775.471C30.1963 774.918 29.8586 774.222 29.613 773.381C29.3674 772.533 29.2447 771.533 29.2447 770.378C29.2447 769.224 29.3674 768.224 29.613 767.376C29.8586 766.529 30.1963 765.829 30.626 765.277C31.0558 764.718 31.5592 764.304 32.1363 764.033C32.7195 763.763 33.3488 763.628 34.0241 763.628C34.6933 763.628 35.3195 763.763 35.9027 764.033C36.4921 764.304 37.0017 764.718 37.4314 765.277C37.8612 765.829 38.1988 766.529 38.4444 767.376C38.6961 768.224 38.822 769.224 38.822 770.378ZM37.1183 770.378C37.1183 769.372 37.0324 768.527 36.8605 767.846C36.6947 767.158 36.4675 766.606 36.179 766.188C35.8966 765.771 35.5681 765.473 35.1936 765.295C34.8191 765.111 34.4293 765.019 34.0241 765.019C33.6189 765.019 33.2291 765.111 32.8546 765.295C32.4801 765.473 32.1516 765.771 31.8692 766.188C31.5868 766.606 31.3596 767.158 31.1877 767.846C31.022 768.527 30.9391 769.372 30.9391 770.378C30.9391 771.385 31.022 772.229 31.1877 772.911C31.3596 773.592 31.5868 774.142 31.8692 774.559C32.1516 774.977 32.4801 775.278 32.8546 775.462C33.2291 775.64 33.6189 775.729 34.0241 775.729C34.4293 775.729 34.8191 775.64 35.1936 775.462C35.5681 775.278 35.8966 774.977 36.179 774.559C36.4675 774.142 36.6947 773.592 36.8605 772.911C37.0324 772.229 37.1183 771.385 37.1183 770.378Z" fill="white"/>
<path d="M23.5429 678.727C24.1016 678.727 24.6234 678.809 25.1084 678.975C25.5934 679.141 26.0109 679.383 26.3608 679.703C26.7169 680.016 26.9962 680.4 27.1988 680.854C27.4014 681.308 27.5027 681.824 27.5027 682.401C27.5027 682.892 27.4291 683.346 27.2817 683.764C27.1344 684.181 26.9348 684.583 26.6831 684.97C26.4314 685.351 26.1398 685.722 25.8083 686.084C25.4829 686.441 25.136 686.806 24.7677 687.18L21.2959 690.735C21.5415 690.667 21.7901 690.615 22.0418 690.578C22.2935 690.535 22.536 690.514 22.7693 690.514H27.1896C27.3677 690.514 27.5089 690.566 27.6132 690.671C27.7176 690.775 27.7698 690.91 27.7698 691.076V692.07H18.966V691.509C18.966 691.392 18.9875 691.272 19.0305 691.149C19.0796 691.027 19.1563 690.913 19.2607 690.809L23.4876 686.563C23.8376 686.207 24.1568 685.867 24.4454 685.541C24.7339 685.21 24.9795 684.878 25.1821 684.547C25.3908 684.215 25.5504 683.88 25.6609 683.543C25.7714 683.199 25.8267 682.834 25.8267 682.447C25.8267 682.06 25.7653 681.723 25.6425 681.434C25.5197 681.139 25.3509 680.897 25.136 680.706C24.9212 680.516 24.6694 680.375 24.3809 680.283C24.0923 680.185 23.7823 680.136 23.4508 680.136C23.1193 680.136 22.8123 680.185 22.5299 680.283C22.2475 680.381 21.9958 680.519 21.7748 680.697C21.5599 680.869 21.3757 681.075 21.2222 681.314C21.0749 681.554 20.9705 681.818 20.9091 682.106C20.86 682.284 20.7863 682.413 20.6881 682.493C20.5899 682.573 20.461 682.613 20.3013 682.613C20.2706 682.613 20.2369 682.613 20.2 682.613C20.1693 682.607 20.1325 682.6 20.0895 682.594L19.2331 682.447C19.319 681.845 19.4848 681.314 19.7304 680.854C19.9759 680.387 20.286 679.997 20.6605 679.684C21.0411 679.371 21.4739 679.135 21.9589 678.975C22.4501 678.809 22.9781 678.727 23.5429 678.727ZM38.822 685.477C38.822 686.631 38.6961 687.632 38.4444 688.479C38.1988 689.32 37.8612 690.017 37.4314 690.569C37.0017 691.122 36.4921 691.533 35.9027 691.803C35.3195 692.073 34.6933 692.208 34.0241 692.208C33.3488 692.208 32.7195 692.073 32.1363 691.803C31.5592 691.533 31.0558 691.122 30.626 690.569C30.1963 690.017 29.8586 689.32 29.613 688.479C29.3674 687.632 29.2447 686.631 29.2447 685.477C29.2447 684.323 29.3674 683.322 29.613 682.475C29.8586 681.627 30.1963 680.927 30.626 680.375C31.0558 679.816 31.5592 679.402 32.1363 679.132C32.7195 678.862 33.3488 678.727 34.0241 678.727C34.6933 678.727 35.3195 678.862 35.9027 679.132C36.4921 679.402 37.0017 679.816 37.4314 680.375C37.8612 680.927 38.1988 681.627 38.4444 682.475C38.6961 683.322 38.822 684.323 38.822 685.477ZM37.1183 685.477C37.1183 684.47 37.0324 683.626 36.8605 682.944C36.6947 682.257 36.4675 681.704 36.179 681.287C35.8966 680.869 35.5681 680.571 35.1936 680.393C34.8191 680.209 34.4293 680.117 34.0241 680.117C33.6189 680.117 33.2291 680.209 32.8546 680.393C32.4801 680.571 32.1516 680.869 31.8692 681.287C31.5868 681.704 31.3596 682.257 31.1877 682.944C31.022 683.626 30.9391 684.47 30.9391 685.477C30.9391 686.484 31.022 687.328 31.1877 688.009C31.3596 688.691 31.5868 689.24 31.8692 689.658C32.1516 690.075 32.4801 690.376 32.8546 690.56C33.2291 690.738 33.6189 690.827 34.0241 690.827C34.4293 690.827 34.8191 690.738 35.1936 690.56C35.5681 690.376 35.8966 690.075 36.179 689.658C36.4675 689.24 36.6947 688.691 36.8605 688.009C37.0324 687.328 37.1183 686.484 37.1183 685.477Z" fill="white"/>
<path d="M23.7178 593.817C24.2765 593.817 24.7922 593.897 25.265 594.056C25.7377 594.216 26.1429 594.443 26.4805 594.738C26.8243 595.032 27.0914 595.388 27.2817 595.806C27.472 596.223 27.5672 596.687 27.5672 597.196C27.5672 597.614 27.5119 597.988 27.4014 598.32C27.2971 598.645 27.1436 598.934 26.941 599.186C26.7445 599.431 26.5051 599.64 26.2227 599.812C25.9403 599.984 25.6241 600.122 25.2742 600.226C26.1337 600.453 26.7783 600.834 27.208 601.368C27.6439 601.902 27.8619 602.571 27.8619 603.376C27.8619 603.983 27.7452 604.53 27.5119 605.015C27.2848 605.5 26.9717 605.914 26.5726 606.258C26.1736 606.596 25.707 606.857 25.1729 607.041C24.6449 607.219 24.077 607.308 23.4692 607.308C22.7693 607.308 22.1707 607.222 21.6735 607.05C21.1762 606.872 20.7556 606.63 20.4118 606.323C20.068 606.016 19.7856 605.653 19.5646 605.236C19.3436 604.812 19.1563 604.355 19.0029 603.864L19.7027 603.569C19.8317 603.514 19.9606 603.486 20.0895 603.486C20.2123 603.486 20.3197 603.514 20.4118 603.569C20.5101 603.618 20.5837 603.698 20.6329 603.809C20.6451 603.833 20.6574 603.861 20.6697 603.891C20.682 603.916 20.6942 603.944 20.7065 603.974C20.7925 604.152 20.8968 604.355 21.0196 604.582C21.1424 604.803 21.3082 605.012 21.5169 605.208C21.7256 605.405 21.9835 605.571 22.2905 605.706C22.6036 605.841 22.9903 605.908 23.4508 605.908C23.9112 605.908 24.3134 605.834 24.6572 605.687C25.0071 605.534 25.2957 605.337 25.5228 605.098C25.7561 604.858 25.9311 604.591 26.0477 604.297C26.1644 604.002 26.2227 603.71 26.2227 603.422C26.2227 603.066 26.1736 602.74 26.0753 602.446C25.9833 602.151 25.8114 601.896 25.5596 601.681C25.3141 601.466 24.9703 601.298 24.5282 601.175C24.0923 601.052 23.5306 600.991 22.843 600.991V599.803C23.4017 599.796 23.8775 599.735 24.2704 599.618C24.6694 599.502 24.9948 599.342 25.2465 599.14C25.4982 598.937 25.6794 598.694 25.7899 598.412C25.9065 598.13 25.9648 597.817 25.9648 597.473C25.9648 597.092 25.9034 596.761 25.7807 596.478C25.664 596.196 25.5013 595.962 25.2926 595.778C25.0838 595.594 24.8352 595.456 24.5467 595.364C24.2642 595.272 23.9573 595.226 23.6258 595.226C23.2942 595.226 22.9873 595.275 22.7049 595.373C22.4225 595.471 22.1707 595.609 21.9497 595.788C21.7349 595.959 21.5537 596.168 21.4064 596.414C21.2591 596.653 21.1486 596.914 21.0749 597.196C21.0258 597.375 20.9521 597.503 20.8539 597.583C20.7556 597.663 20.6298 597.703 20.4763 597.703C20.4456 597.703 20.4118 597.703 20.375 597.703C20.3443 597.697 20.3075 597.691 20.2645 597.685L19.4081 597.537C19.494 596.936 19.6598 596.405 19.9053 595.944C20.1509 595.477 20.461 595.088 20.8354 594.775C21.2161 594.461 21.6489 594.225 22.1339 594.065C22.6251 593.9 23.153 593.817 23.7178 593.817ZM38.822 600.567C38.822 601.721 38.6961 602.722 38.4444 603.569C38.1988 604.41 37.8612 605.107 37.4314 605.66C37.0017 606.212 36.4921 606.623 35.9027 606.894C35.3195 607.164 34.6933 607.299 34.0241 607.299C33.3488 607.299 32.7195 607.164 32.1363 606.894C31.5592 606.623 31.0558 606.212 30.626 605.66C30.1963 605.107 29.8586 604.41 29.613 603.569C29.3674 602.722 29.2447 601.721 29.2447 600.567C29.2447 599.413 29.3674 598.412 29.613 597.565C29.8586 596.718 30.1963 596.018 30.626 595.465C31.0558 594.907 31.5592 594.492 32.1363 594.222C32.7195 593.952 33.3488 593.817 34.0241 593.817C34.6933 593.817 35.3195 593.952 35.9027 594.222C36.4921 594.492 37.0017 594.907 37.4314 595.465C37.8612 596.018 38.1988 596.718 38.4444 597.565C38.6961 598.412 38.822 599.413 38.822 600.567ZM37.1183 600.567C37.1183 599.56 37.0324 598.716 36.8605 598.035C36.6947 597.347 36.4675 596.794 36.179 596.377C35.8966 595.959 35.5681 595.662 35.1936 595.484C34.8191 595.299 34.4293 595.207 34.0241 595.207C33.6189 595.207 33.2291 595.299 32.8546 595.484C32.4801 595.662 32.1516 595.959 31.8692 596.377C31.5868 596.794 31.3596 597.347 31.1877 598.035C31.022 598.716 30.9391 599.56 30.9391 600.567C30.9391 601.574 31.022 602.418 31.1877 603.099C31.3596 603.781 31.5868 604.33 31.8692 604.748C32.1516 605.165 32.4801 605.466 32.8546 605.65C33.2291 605.828 33.6189 605.917 34.0241 605.917C34.4293 605.917 34.8191 605.828 35.1936 605.65C35.5681 605.466 35.8966 605.165 36.179 604.748C36.4675 604.33 36.6947 603.781 36.8605 603.099C37.0324 602.418 37.1183 601.574 37.1183 600.567Z" fill="white"/>
<path d="M26.324 517.498H28.3223V518.437C28.3223 518.535 28.2916 518.618 28.2302 518.685C28.175 518.753 28.086 518.787 27.9632 518.787H26.324V522.259H24.8782V518.787H19.0305C18.9077 518.787 18.8003 518.753 18.7082 518.685C18.6222 518.612 18.567 518.523 18.5424 518.418L18.3767 517.58L24.7953 509.062H26.324V517.498ZM24.8782 512.055C24.8782 511.895 24.8812 511.724 24.8874 511.539C24.8997 511.355 24.9212 511.165 24.9518 510.968L20.154 517.498H24.8782V512.055ZM38.822 515.665C38.822 516.819 38.6961 517.82 38.4444 518.667C38.1988 519.508 37.8612 520.205 37.4314 520.757C37.0017 521.31 36.4921 521.721 35.9027 521.991C35.3195 522.262 34.6933 522.397 34.0241 522.397C33.3488 522.397 32.7195 522.262 32.1363 521.991C31.5592 521.721 31.0558 521.31 30.626 520.757C30.1963 520.205 29.8586 519.508 29.613 518.667C29.3674 517.82 29.2447 516.819 29.2447 515.665C29.2447 514.511 29.3674 513.51 29.613 512.663C29.8586 511.816 30.1963 511.116 30.626 510.563C31.0558 510.005 31.5592 509.59 32.1363 509.32C32.7195 509.05 33.3488 508.915 34.0241 508.915C34.6933 508.915 35.3195 509.05 35.9027 509.32C36.4921 509.59 37.0017 510.005 37.4314 510.563C37.8612 511.116 38.1988 511.816 38.4444 512.663C38.6961 513.51 38.822 514.511 38.822 515.665ZM37.1183 515.665C37.1183 514.658 37.0324 513.814 36.8605 513.132C36.6947 512.445 36.4675 511.892 36.179 511.475C35.8966 511.057 35.5681 510.76 35.1936 510.582C34.8191 510.397 34.4293 510.305 34.0241 510.305C33.6189 510.305 33.2291 510.397 32.8546 510.582C32.4801 510.76 32.1516 511.057 31.8692 511.475C31.5868 511.892 31.3596 512.445 31.1877 513.132C31.022 513.814 30.9391 514.658 30.9391 515.665C30.9391 516.672 31.022 517.516 31.1877 518.197C31.3596 518.879 31.5868 519.428 31.8692 519.846C32.1516 520.263 32.4801 520.564 32.8546 520.748C33.2291 520.926 33.6189 521.015 34.0241 521.015C34.4293 521.015 34.8191 520.926 35.1936 520.748C35.5681 520.564 35.8966 520.263 36.179 519.846C36.4675 519.428 36.6947 518.879 36.8605 518.197C37.0324 517.516 37.1183 516.672 37.1183 515.665Z" fill="white"/>
<path d="M27.0147 424.876C27.0147 425.109 26.941 425.302 26.7936 425.456C26.6463 425.603 26.3977 425.677 26.0477 425.677H21.9037L21.2959 429.14C21.9835 428.992 22.6189 428.919 23.2021 428.919C23.8898 428.919 24.4945 429.02 25.0163 429.222C25.5443 429.425 25.9863 429.704 26.3424 430.06C26.6985 430.417 26.9655 430.837 27.1436 431.322C27.3278 431.807 27.4198 432.335 27.4198 432.906C27.4198 433.606 27.2971 434.238 27.0515 434.803C26.8059 435.368 26.4683 435.853 26.0385 436.258C25.6149 436.657 25.1145 436.964 24.5374 437.179C23.9604 437.394 23.3372 437.501 22.668 437.501C22.2813 437.501 21.9098 437.461 21.5537 437.382C21.1977 437.308 20.8661 437.207 20.5592 437.078C20.2522 436.949 19.9667 436.801 19.7027 436.636C19.4388 436.47 19.2055 436.295 19.0029 436.111L19.5002 435.411C19.6107 435.251 19.758 435.171 19.9422 435.171C20.0588 435.171 20.1939 435.221 20.3474 435.319C20.507 435.411 20.6973 435.515 20.9183 435.632C21.1393 435.749 21.3972 435.856 21.6919 435.954C21.9927 436.046 22.3488 436.092 22.7601 436.092C23.2206 436.092 23.635 436.019 24.0033 435.871C24.3717 435.724 24.6848 435.515 24.9426 435.245C25.2066 434.969 25.4092 434.64 25.5504 434.26C25.6916 433.879 25.7622 433.452 25.7622 432.98C25.7622 432.568 25.7008 432.197 25.5781 431.865C25.4614 431.534 25.2803 431.251 25.0347 431.018C24.7953 430.785 24.4945 430.604 24.1323 430.475C23.77 430.346 23.3464 430.281 22.8614 430.281C22.5299 430.281 22.1861 430.309 21.83 430.364C21.4739 430.42 21.1056 430.509 20.7249 430.631L19.6935 430.328L20.7618 424.158H27.0147V424.876ZM38.822 430.76C38.822 431.915 38.6961 432.915 38.4444 433.762C38.1988 434.604 37.8612 435.3 37.4314 435.853C37.0017 436.405 36.4921 436.817 35.9027 437.087C35.3195 437.357 34.6933 437.492 34.0241 437.492C33.3488 437.492 32.7195 437.357 32.1363 437.087C31.5592 436.817 31.0558 436.405 30.626 435.853C30.1963 435.3 29.8586 434.604 29.613 433.762C29.3674 432.915 29.2447 431.915 29.2447 430.76C29.2447 429.606 29.3674 428.605 29.613 427.758C29.8586 426.911 30.1963 426.211 30.626 425.659C31.0558 425.1 31.5592 424.685 32.1363 424.415C32.7195 424.145 33.3488 424.01 34.0241 424.01C34.6933 424.01 35.3195 424.145 35.9027 424.415C36.4921 424.685 37.0017 425.1 37.4314 425.659C37.8612 426.211 38.1988 426.911 38.4444 427.758C38.6961 428.605 38.822 429.606 38.822 430.76ZM37.1183 430.76C37.1183 429.753 37.0324 428.909 36.8605 428.228C36.6947 427.54 36.4675 426.988 36.179 426.57C35.8966 426.153 35.5681 425.855 35.1936 425.677C34.8191 425.493 34.4293 425.401 34.0241 425.401C33.6189 425.401 33.2291 425.493 32.8546 425.677C32.4801 425.855 32.1516 426.153 31.8692 426.57C31.5868 426.988 31.3596 427.54 31.1877 428.228C31.022 428.909 30.9391 429.753 30.9391 430.76C30.9391 431.767 31.022 432.611 31.1877 433.293C31.3596 433.974 31.5868 434.524 31.8692 434.941C32.1516 435.359 32.4801 435.659 32.8546 435.844C33.2291 436.022 33.6189 436.111 34.0241 436.111C34.4293 436.111 34.8191 436.022 35.1936 435.844C35.5681 435.659 35.8966 435.359 36.179 434.941C36.4675 434.524 36.6947 433.974 36.8605 433.293C37.0324 432.611 37.1183 431.767 37.1183 430.76Z" fill="white"/>
<path d="M23.9941 344.365C24.5221 344.365 25.0225 344.454 25.4952 344.632C25.9679 344.804 26.3823 345.058 26.7384 345.396C27.0945 345.728 27.3769 346.139 27.5856 346.63C27.7943 347.115 27.8987 347.671 27.8987 348.297C27.8987 348.905 27.7882 349.47 27.5672 349.991C27.3462 350.513 27.0361 350.967 26.6371 351.354C26.2442 351.741 25.7684 352.045 25.2097 352.266C24.651 352.487 24.0371 352.597 23.3679 352.597C22.7049 352.597 22.1032 352.493 21.563 352.284C21.0288 352.069 20.5715 351.769 20.1908 351.382C19.8102 350.989 19.5155 350.516 19.3068 349.964C19.1042 349.405 19.0029 348.782 19.0029 348.094C19.0029 347.517 19.1318 346.903 19.3896 346.253C19.6475 345.602 20.0558 344.902 20.6144 344.153L23.9573 339.65C24.0432 339.539 24.1629 339.447 24.3164 339.373C24.4699 339.294 24.6449 339.254 24.8413 339.254H26.2964L21.7195 345.046C22.0326 344.831 22.3795 344.666 22.7601 344.549C23.1408 344.426 23.5521 344.365 23.9941 344.365ZM20.5868 348.38C20.5868 348.803 20.6482 349.19 20.771 349.54C20.8938 349.89 21.0718 350.191 21.3051 350.443C21.5445 350.694 21.8331 350.891 22.1707 351.032C22.5145 351.167 22.9044 351.235 23.3403 351.235C23.7823 351.235 24.1814 351.164 24.5374 351.023C24.8935 350.882 25.1974 350.685 25.4491 350.433C25.707 350.182 25.9034 349.884 26.0385 349.54C26.1797 349.196 26.2503 348.822 26.2503 348.417C26.2503 347.987 26.1828 347.6 26.0477 347.256C25.9126 346.906 25.7223 346.612 25.4768 346.372C25.2312 346.127 24.9365 345.939 24.5927 345.81C24.2489 345.682 23.8713 345.617 23.46 345.617C23.018 345.617 22.6189 345.694 22.2628 345.847C21.9068 345.995 21.6029 346.197 21.3511 346.455C21.1056 346.707 20.9153 347.002 20.7802 347.339C20.6513 347.671 20.5868 348.018 20.5868 348.38ZM38.822 345.857C38.822 347.011 38.6961 348.011 38.4444 348.859C38.1988 349.7 37.8612 350.397 37.4314 350.949C37.0017 351.502 36.4921 351.913 35.9027 352.183C35.3195 352.453 34.6933 352.588 34.0241 352.588C33.3488 352.588 32.7195 352.453 32.1363 352.183C31.5592 351.913 31.0558 351.502 30.626 350.949C30.1963 350.397 29.8586 349.7 29.613 348.859C29.3674 348.011 29.2447 347.011 29.2447 345.857C29.2447 344.702 29.3674 343.702 29.613 342.854C29.8586 342.007 30.1963 341.307 30.626 340.755C31.0558 340.196 31.5592 339.782 32.1363 339.512C32.7195 339.241 33.3488 339.106 34.0241 339.106C34.6933 339.106 35.3195 339.241 35.9027 339.512C36.4921 339.782 37.0017 340.196 37.4314 340.755C37.8612 341.307 38.1988 342.007 38.4444 342.854C38.6961 343.702 38.822 344.702 38.822 345.857ZM37.1183 345.857C37.1183 344.85 37.0324 344.006 36.8605 343.324C36.6947 342.636 36.4675 342.084 36.179 341.666C35.8966 341.249 35.5681 340.951 35.1936 340.773C34.8191 340.589 34.4293 340.497 34.0241 340.497C33.6189 340.497 33.2291 340.589 32.8546 340.773C32.4801 340.951 32.1516 341.249 31.8692 341.666C31.5868 342.084 31.3596 342.636 31.1877 343.324C31.022 344.006 30.9391 344.85 30.9391 345.857C30.9391 346.863 31.022 347.708 31.1877 348.389C31.3596 349.07 31.5868 349.62 31.8692 350.037C32.1516 350.455 32.4801 350.756 32.8546 350.94C33.2291 351.118 33.6189 351.207 34.0241 351.207C34.4293 351.207 34.8191 351.118 35.1936 350.94C35.5681 350.756 35.8966 350.455 36.179 350.037C36.4675 349.62 36.6947 349.07 36.8605 348.389C37.0324 347.708 37.1183 346.863 37.1183 345.857Z" fill="white"/>
<path d="M27.9908 254.344V255.08C27.9908 255.289 27.9662 255.461 27.9171 255.596C27.8742 255.731 27.8281 255.845 27.779 255.937L22.3181 266.96C22.2383 267.12 22.1278 267.258 21.9866 267.374C21.8454 267.485 21.655 267.54 21.4156 267.54H20.2461L25.7899 256.655C25.8697 256.502 25.9495 256.36 26.0293 256.232C26.1152 256.103 26.2104 255.98 26.3148 255.863H19.4265C19.3221 255.863 19.227 255.823 19.141 255.743C19.0612 255.658 19.0213 255.562 19.0213 255.458V254.344H27.9908ZM38.822 260.947C38.822 262.101 38.6961 263.101 38.4444 263.949C38.1988 264.79 37.8612 265.487 37.4314 266.039C37.0017 266.592 36.4921 267.003 35.9027 267.273C35.3195 267.543 34.6933 267.678 34.0241 267.678C33.3488 267.678 32.7195 267.543 32.1363 267.273C31.5592 267.003 31.0558 266.592 30.626 266.039C30.1963 265.487 29.8586 264.79 29.613 263.949C29.3674 263.101 29.2447 262.101 29.2447 260.947C29.2447 259.792 29.3674 258.792 29.613 257.944C29.8586 257.097 30.1963 256.397 30.626 255.845C31.0558 255.286 31.5592 254.872 32.1363 254.602C32.7195 254.331 33.3488 254.196 34.0241 254.196C34.6933 254.196 35.3195 254.331 35.9027 254.602C36.4921 254.872 37.0017 255.286 37.4314 255.845C37.8612 256.397 38.1988 257.097 38.4444 257.944C38.6961 258.792 38.822 259.792 38.822 260.947ZM37.1183 260.947C37.1183 259.94 37.0324 259.096 36.8605 258.414C36.6947 257.726 36.4675 257.174 36.179 256.756C35.8966 256.339 35.5681 256.041 35.1936 255.863C34.8191 255.679 34.4293 255.587 34.0241 255.587C33.6189 255.587 33.2291 255.679 32.8546 255.863C32.4801 256.041 32.1516 256.339 31.8692 256.756C31.5868 257.174 31.3596 257.726 31.1877 258.414C31.022 259.096 30.9391 259.94 30.9391 260.947C30.9391 261.953 31.022 262.798 31.1877 263.479C31.3596 264.16 31.5868 264.71 31.8692 265.127C32.1516 265.545 32.4801 265.846 32.8546 266.03C33.2291 266.208 33.6189 266.297 34.0241 266.297C34.4293 266.297 34.8191 266.208 35.1936 266.03C35.5681 265.846 35.8966 265.545 36.179 265.127C36.4675 264.71 36.6947 264.16 36.8605 263.479C37.0324 262.798 37.1183 261.953 37.1183 260.947Z" fill="white"/>
<path d="M23.3403 182.784C22.6834 182.784 22.0817 182.698 21.5353 182.526C20.9889 182.348 20.5193 182.096 20.1264 181.771C19.7334 181.445 19.4295 181.052 19.2147 180.592C18.9998 180.125 18.8924 179.604 18.8924 179.026C18.8924 178.179 19.1134 177.482 19.5554 176.936C19.9974 176.383 20.6298 175.991 21.4524 175.757C20.7587 175.499 20.2338 175.116 19.8777 174.606C19.5278 174.09 19.3528 173.476 19.3528 172.764C19.3528 172.279 19.448 171.825 19.6383 171.401C19.8286 170.978 20.0987 170.609 20.4487 170.296C20.7986 169.983 21.2161 169.738 21.7011 169.56C22.1922 169.382 22.7386 169.293 23.3403 169.293C23.9358 169.293 24.4791 169.382 24.9703 169.56C25.4614 169.738 25.882 169.983 26.2319 170.296C26.5818 170.609 26.852 170.978 27.0423 171.401C27.2326 171.825 27.3278 172.279 27.3278 172.764C27.3278 173.476 27.1497 174.09 26.7936 174.606C26.4376 175.116 25.9157 175.499 25.2281 175.757C26.0508 175.991 26.6831 176.383 27.1252 176.936C27.5672 177.482 27.7882 178.179 27.7882 179.026C27.7882 179.604 27.6777 180.125 27.4567 180.592C27.2418 181.052 26.9379 181.445 26.545 181.771C26.1582 182.096 25.6916 182.348 25.1452 182.526C24.5988 182.698 23.9972 182.784 23.3403 182.784ZM23.3403 181.476C23.77 181.476 24.1537 181.418 24.4914 181.301C24.8352 181.178 25.1237 181.009 25.357 180.795C25.5965 180.574 25.7776 180.313 25.9004 180.012C26.0293 179.705 26.0938 179.367 26.0938 178.999C26.0938 178.544 26.017 178.158 25.8635 177.838C25.7162 177.513 25.5136 177.249 25.2557 177.046C25.004 176.844 24.7124 176.697 24.3809 176.604C24.0494 176.506 23.7025 176.457 23.3403 176.457C22.9781 176.457 22.6312 176.506 22.2997 176.604C21.9681 176.697 21.6735 176.844 21.4156 177.046C21.1639 177.249 20.9613 177.513 20.8078 177.838C20.6605 178.158 20.5868 178.544 20.5868 178.999C20.5868 179.367 20.6482 179.705 20.771 180.012C20.8999 180.313 21.081 180.574 21.3143 180.795C21.5537 181.009 21.8423 181.178 22.18 181.301C22.5238 181.418 22.9105 181.476 23.3403 181.476ZM23.3403 175.14C23.77 175.14 24.1353 175.076 24.4361 174.947C24.7431 174.812 24.9918 174.637 25.1821 174.422C25.3724 174.201 25.5105 173.949 25.5965 173.667C25.6824 173.384 25.7254 173.093 25.7254 172.792C25.7254 172.485 25.6732 172.196 25.5688 171.926C25.4706 171.656 25.3202 171.42 25.1176 171.217C24.9212 171.015 24.6725 170.855 24.3717 170.738C24.077 170.622 23.7332 170.563 23.3403 170.563C22.9474 170.563 22.6005 170.622 22.2997 170.738C22.005 170.855 21.7563 171.015 21.5537 171.217C21.3573 171.42 21.2069 171.656 21.1025 171.926C21.0043 172.196 20.9552 172.485 20.9552 172.792C20.9552 173.093 20.9981 173.384 21.0841 173.667C21.17 173.949 21.3082 174.201 21.4985 174.422C21.6888 174.637 21.9344 174.812 22.2352 174.947C22.5422 175.076 22.9105 175.14 23.3403 175.14ZM38.822 176.043C38.822 177.197 38.6961 178.198 38.4444 179.045C38.1988 179.886 37.8612 180.583 37.4314 181.135C37.0017 181.688 36.4921 182.099 35.9027 182.369C35.3195 182.639 34.6933 182.774 34.0241 182.774C33.3488 182.774 32.7195 182.639 32.1363 182.369C31.5592 182.099 31.0558 181.688 30.626 181.135C30.1963 180.583 29.8586 179.886 29.613 179.045C29.3674 178.198 29.2447 177.197 29.2447 176.043C29.2447 174.889 29.3674 173.888 29.613 173.041C29.8586 172.193 30.1963 171.493 30.626 170.941C31.0558 170.382 31.5592 169.968 32.1363 169.698C32.7195 169.428 33.3488 169.293 34.0241 169.293C34.6933 169.293 35.3195 169.428 35.9027 169.698C36.4921 169.968 37.0017 170.382 37.4314 170.941C37.8612 171.493 38.1988 172.193 38.4444 173.041C38.6961 173.888 38.822 174.889 38.822 176.043ZM37.1183 176.043C37.1183 175.036 37.0324 174.192 36.8605 173.51C36.6947 172.823 36.4675 172.27 36.179 171.853C35.8966 171.435 35.5681 171.137 35.1936 170.959C34.8191 170.775 34.4293 170.683 34.0241 170.683C33.6189 170.683 33.2291 170.775 32.8546 170.959C32.4801 171.137 32.1516 171.435 31.8692 171.853C31.5868 172.27 31.3596 172.823 31.1877 173.51C31.022 174.192 30.9391 175.036 30.9391 176.043C30.9391 177.05 31.022 177.894 31.1877 178.575C31.3596 179.257 31.5868 179.806 31.8692 180.224C32.1516 180.641 32.4801 180.942 32.8546 181.126C33.2291 181.304 33.6189 181.393 34.0241 181.393C34.4293 181.393 34.8191 181.304 35.1936 181.126C35.5681 180.942 35.8966 180.641 36.179 180.224C36.4675 179.806 36.6947 179.257 36.8605 178.575C37.0324 177.894 37.1183 177.05 37.1183 176.043Z" fill="white"/>
<path d="M23.064 92.3177C22.5667 92.3177 22.094 92.2348 21.6458 92.069C21.2038 91.9033 20.814 91.6608 20.4763 91.3415C20.1386 91.0161 19.8685 90.6201 19.6659 90.1536C19.4695 89.6808 19.3712 89.1406 19.3712 88.5328C19.3712 87.9557 19.4787 87.4154 19.6935 86.912C19.9084 86.4086 20.2092 85.9696 20.596 85.5951C20.9828 85.2206 21.4432 84.9259 21.9774 84.7111C22.5115 84.4962 23.0978 84.3888 23.7363 84.3888C24.3686 84.3888 24.9426 84.4931 25.4583 84.7019C25.974 84.9106 26.4161 85.2022 26.7844 85.5767C27.1528 85.9512 27.4352 86.3994 27.6317 86.9212C27.8343 87.4431 27.9355 88.0202 27.9355 88.6525C27.9355 89.0331 27.8987 89.3954 27.825 89.7392C27.7575 90.0768 27.6562 90.4083 27.5211 90.7337C27.3861 91.0591 27.2234 91.3845 27.0331 91.7099C26.8489 92.0291 26.6371 92.3606 26.3977 92.7044L23.1837 97.3458C23.1039 97.4624 22.9903 97.5576 22.843 97.6312C22.6957 97.6988 22.5268 97.7325 22.3365 97.7325H20.8262L24.8413 92.4742C24.9764 92.2962 25.1023 92.1273 25.2189 91.9677C25.3356 91.8081 25.4461 91.6485 25.5504 91.4889C25.2128 91.759 24.8321 91.9647 24.4085 92.1059C23.9849 92.2471 23.5367 92.3177 23.064 92.3177ZM26.3608 88.4591C26.3608 88.0478 26.2933 87.6764 26.1582 87.3448C26.0293 87.0072 25.8482 86.7217 25.6149 86.4884C25.3816 86.2551 25.1023 86.0771 24.7769 85.9543C24.4576 85.8254 24.1046 85.7609 23.7178 85.7609C23.3127 85.7609 22.9412 85.8284 22.6036 85.9635C22.272 86.0924 21.9866 86.2735 21.7471 86.5068C21.5138 86.7401 21.3327 87.0194 21.2038 87.3448C21.0749 87.6702 21.0104 88.0263 21.0104 88.4131C21.0104 88.8305 21.0687 89.205 21.1854 89.5366C21.3082 89.8619 21.4801 90.1382 21.7011 90.3654C21.9282 90.5925 22.2014 90.7644 22.5207 90.8811C22.8461 90.9977 23.2083 91.056 23.6073 91.056C24.0494 91.056 24.4392 90.9854 24.7769 90.8442C25.1207 90.6969 25.4092 90.5035 25.6425 90.2641C25.8758 90.0246 26.0539 89.7484 26.1766 89.4353C26.2994 89.1222 26.3608 88.7968 26.3608 88.4591ZM38.822 91.1389C38.822 92.2931 38.6961 93.2938 38.4444 94.141C38.1988 94.9821 37.8612 95.6789 37.4314 96.2315C37.0017 96.784 36.4921 97.1953 35.9027 97.4655C35.3195 97.7356 34.6933 97.8707 34.0241 97.8707C33.3488 97.8707 32.7195 97.7356 32.1363 97.4655C31.5592 97.1953 31.0558 96.784 30.626 96.2315C30.1963 95.6789 29.8586 94.9821 29.613 94.141C29.3674 93.2938 29.2447 92.2931 29.2447 91.1389C29.2447 89.9847 29.3674 88.984 29.613 88.1368C29.8586 87.2896 30.1963 86.5897 30.626 86.0372C31.0558 85.4785 31.5592 85.0641 32.1363 84.794C32.7195 84.5238 33.3488 84.3888 34.0241 84.3888C34.6933 84.3888 35.3195 84.5238 35.9027 84.794C36.4921 85.0641 37.0017 85.4785 37.4314 86.0372C37.8612 86.5897 38.1988 87.2896 38.4444 88.1368C38.6961 88.984 38.822 89.9847 38.822 91.1389ZM37.1183 91.1389C37.1183 90.1321 37.0324 89.2879 36.8605 88.6065C36.6947 87.9189 36.4675 87.3663 36.179 86.9488C35.8966 86.5314 35.5681 86.2336 35.1936 86.0556C34.8191 85.8714 34.4293 85.7793 34.0241 85.7793C33.6189 85.7793 33.2291 85.8714 32.8546 86.0556C32.4801 86.2336 32.1516 86.5314 31.8692 86.9488C31.5868 87.3663 31.3596 87.9189 31.1877 88.6065C31.022 89.2879 30.9391 90.1321 30.9391 91.1389C30.9391 92.1458 31.022 92.9899 31.1877 93.6714C31.3596 94.3528 31.5868 94.9023 31.8692 95.3198C32.1516 95.7373 32.4801 96.0381 32.8546 96.2223C33.2291 96.4003 33.6189 96.4893 34.0241 96.4893C34.4293 96.4893 34.8191 96.4003 35.1936 96.2223C35.5681 96.0381 35.8966 95.7373 36.179 95.3198C36.4675 94.9023 36.6947 94.3528 36.8605 93.6714C37.0324 92.9899 37.1183 92.1458 37.1183 91.1389Z" fill="white"/>
<path d="M104.59 -14V888.521H1463" stroke="#8C88A2" stroke-width="0.5" stroke-miterlimit="10"/>
<path d="M1412.06 53.8547V916.83" stroke="#6D6888" stroke-width="0.25" stroke-miterlimit="10"/>
<path d="M1419.34 635.393L1225.28 522.181L1038.5 639.878L851.722 483.361L664.935 650.443L478.159 305.48L291.372 373.372L102.373 270.28" stroke="#71CDDD" stroke-miterlimit="10"/>
<path d="M1419.34 741.958L1225.28 456.837L1038.5 541.316L851.722 432.194L664.935 414.599L478.159 597.64L291.372 523.715L105.892 780.681" stroke="#4478BC" stroke-miterlimit="10"/>
</g>
<g opacity="0.44">
<path fill-rule="evenodd" clip-rule="evenodd" d="M71 -44L71 944H72L72 -44H71ZM124 -44L124 944H125L125 -44H124ZM177 944L177 -44H178L178 944H177ZM230 -44L230 944H231L231 -44H230ZM283 944L283 -44H284L284 944H283ZM336 -44L336 944H337L337 -44H336ZM389 944L389 -44H390L390 944H389ZM442 -44L442 944H443L443 -44H442ZM495 944L495 -44H496L496 944H495ZM548 -44L548 944H549L549 -44H548ZM601 944L601 -44H602L602 944H601ZM654 -44L654 944H655L655 -44H654ZM707 944L707 -44H708L708 944H707ZM760 -44L760 944H761L761 -44H760ZM813 944L813 -44H814L814 944H813ZM866 -44L866 944H867L867 -44H866ZM919 944L919 -44H920L920 944H919ZM972 -44L972 944H973L973 -44H972ZM1025 944L1025 -44H1026L1026 944H1025ZM1078 -44L1078 944H1079L1079 -44H1078ZM1131 944V-44H1132V944H1131ZM1184 -44V944H1185V-44H1184ZM1237 944V-44H1238V944H1237ZM1290 -44V944H1291V-44H1290ZM1343 944V-44H1344V944H1343ZM1396 -44V944H1397V-44H1396Z" fill="url(#paint0_linear)"/>
<path fill-rule="evenodd" clip-rule="evenodd" d="M-13 -239L1453 -239V-238L-13 -238V-239ZM-13 -186L1453 -186V-185L-13 -185V-186ZM1453 -133L-13 -133V-132L1453 -132V-133ZM-13 -80L1453 -79.9999V-78.9999L-13 -79V-80ZM1453 -26.9999L-13 -27V-26L1453 -25.9999V-26.9999ZM-13 26L1453 26.0001V27.0001L-13 27V26ZM1453 79.0001L-13 79V80L1453 80.0001V79.0001ZM-13 132L1453 132V133L-13 133V132ZM1453 185L-13 185V186L1453 186V185ZM-13 238L1453 238V239L-13 239V238ZM1453 291L-13 291V292L1453 292V291ZM-13 344L1453 344V345L-13 345V344ZM1453 397L-13 397V398L1453 398V397ZM-13 450L1453 450V451L-13 451V450ZM1453 503L-13 503V504L1453 504V503ZM-13 556L1453 556V557L-13 557V556ZM1453 609L-13 609V610L1453 610V609ZM-13 662L1453 662V663L-13 663V662ZM1453 715L-13 715V716L1453 716V715ZM-13 768L1453 768V769L-13 769V768ZM1453 821L-13 821V822L1453 822V821ZM-13 874L1453 874V875L-13 875V874ZM1453 927L-13 927V928L1453 928V927ZM-13 980L1453 980V981L-13 981V980ZM1453 1033L-13 1033V1034L1453 1034V1033ZM-13 1086L1453 1086V1087L-13 1087V1086ZM1453 1139L-13 1139V1140L1453 1140V1139Z" fill="url(#paint1_linear)"/>
</g>
</g>
<defs>
<linearGradient id="paint0_linear" x1="731.587" y1="-40.0161" x2="731.587" y2="944" gradientUnits="userSpaceOnUse">
<stop offset="0.09375" stop-color="#0F2D4A"/>
<stop offset="1" stop-color="#1F6E7D"/>
</linearGradient>
<linearGradient id="paint1_linear" x1="720" y1="-239" x2="720" y2="1140" gradientUnits="userSpaceOnUse">
<stop offset="0.09375" stop-color="#0F2D4A"/>
<stop offset="1" stop-color="#1F6E7D"/>
</linearGradient>
<clipPath id="clip0">
<rect width="1440" height="900" fill="white"/>
</clipPath>
<clipPath id="clip1">
<rect width="1467" height="1014" fill="white" transform="translate(-4 -14)"/>
</clipPath>
</defs>
</svg>
