<svg width="500" height="400" xmlns="http://www.w3.org/2000/svg" fill="none">
  <g>
    <path fill="#080821" d="m218.16881,388.99383c73.056,0 132.28,-6.953 132.28,-15.53c0,-8.577 -59.224,-15.53 -132.28,-15.53c-73.057,0 -132.28,6.953 -132.28,15.53c0,8.577 59.223,15.53 132.28,15.53z" opacity="0.1"/>
    <path fill="#F99F10" d="m292.04881,271.73383c11.21,3.13 101.26,29.14 85.96,51.68c-14.35,21.13 -84.04,-3.95 -105.96,-19.22"/>
    <path stroke-linecap="round" stroke-miterlimit="10" stroke-width="5" stroke="#3A1103" d="m292.04881,271.73383c11.21,3.13 101.26,29.14 85.96,51.68c-14.35,21.13 -84.04,-3.95 -105.96,-19.22"/>
    <path fill="#EF6122" d="m163.98881,93.58383c-31.77,-22.15 -72.42,-27.12 -79.57,-19.17c-5.8,6.44 16.11,41.72 12.56,52.03c-3.54,10.31 -34.62,3.64 -38.02,16.75c-1.61,6.23 22.23,21.26 21.59,29.96c-0.64,8.7 -19.05,6.24 -20.4,17.5c-0.91,7.57 15.89,9.24 15.25,18.26c-0.64,9.02 -12.77,7.37 -12.24,16.11c0.43,7.09 13.69,2.42 17.24,14.34c3.54,11.92 83.6,-145.78 83.6,-145.78l-0.01,0z"/>
    <path stroke-miterlimit="10" stroke-width="5" stroke="#3A1103" fill="#FAC20C" d="m22.26881,305.13283c0.97,-29.16 21.32,-35.63 36.1,-30.65c14.77,4.98 13.95,22.15 10.22,28.61c-5.96,10.31 -14.71,5.86 -11.44,-1.36c2.42,-6.929 2.87,-16.549 -8.58,-13.489c-14.23,3.81 -9.8,42.069 20.16,34.549c20.52,-5.15 18.91,-26.88 17.28,-58.57c-4.37,-30.66 0.36,-70.86 13.4,-109.019c26.42,-77.32 185.57,-102.45 238.4,-30.93c68.63,92.9 -7.05,183.639 -18.69,195.229c-36.26,28.14 -30.38,53.601 -56.36,55.291c-24.69,1.609 -22.66,-23.481 -38.99,-24.88c-0.96,0 -1.92,-0.001 -2.88,-0.021c-19.17,1.41 -22.87,25.321 -51.78,24.901c-23.56,-0.34 -13.07,-20.92 -28.81,-30.79c-3.3,-1.56 -6.16,-2.66 -8.8,-3.38c-2.08,-0.44 -4.39,-0.761 -7,-0.921c-0.6,-0.04 -4.23,-0.019 -5.29,-0.019c-9.35,0.17 -14.96,2.38 -36.09,6.68c-38.07,7.74 -61.67,-16.561 -60.85,-41.231z"/>
    <path fill="#EF6122" d="m126.18881,113.32383c54.12,-38.34 117.11,-17.4 125.16,-12.08c8.05,5.32 19.46,-1 13.05,-16.97c-21.48,-53.48 -76.9,-80.68 -91.82,-71.47c-16.68,10.3 4.3,56.24 -6.6,67.01c-8.75,8.64 -14.71,2.04 -29.59,-2.95c-13.44,-4.51 -10.2,36.46 -10.2,36.46z"/>
    <path fill-opacity="0.5" fill="#FAC20C" d="m220.95881,53.96583c-0.037,-0.77 -0.163,-1.587 -0.387,-2.549c-0.224,-0.962 -0.588,-1.978 -1.098,-3.089c-0.511,-1.064 -1.209,-2.227 -2.104,-3.301c-0.327,-0.439 -0.703,-0.876 -1.129,-1.267c0.666,-2.486 -0.69,-4.668 -0.69,-4.668c-2.394,-0.186 -3.897,0.653 -4.48,1.074c-0.094,-0.048 -0.191,-0.101 -0.287,-0.101c-0.382,-0.15 -0.813,-0.35 -1.239,-0.453c-0.429,-0.152 -0.86,-0.256 -1.289,-0.407c-0.431,-0.105 -0.907,-0.205 -1.385,-0.312c-0.097,0 -0.144,-0.002 -0.238,-0.05c-0.999,-3.33 -3.949,-4.768 -3.949,-4.768c-3.345,2.054 -4.069,5.015 -4.069,5.015c0,0 -0.003,0.048 -0.048,0.191c-0.194,0.042 -0.385,0.09 -0.578,0.133c-0.241,0.093 -0.533,0.183 -0.771,0.229c-0.24,0.093 -0.533,0.183 -0.773,0.277c-0.482,0.23 -1.017,0.46 -1.5,0.695c-0.485,0.282 -0.969,0.559 -1.406,0.839c-0.045,-0.05 -0.094,-0.048 -0.094,-0.048c-4.576,-1.806 -8.692,0.285 -8.692,0.285c-0.469,4.885 1.686,8.044 2.155,8.625c-0.101,0.288 -0.204,0.618 -0.301,0.906c-0.355,1.1 -0.615,2.243 -0.826,3.442c-0.005,0.192 -0.055,0.333 -0.056,0.526c-4.352,1.939 -5.674,6.238 -5.674,6.238c3.482,4.14 7.648,4.499 7.648,4.499c0.512,0.967 1.119,1.843 1.779,2.717c0.28,0.341 0.565,0.682 0.892,1.025c-1.356,3.674 0.076,6.814 0.076,6.814c3.977,0.21 6.601,-1.617 7.137,-2.04c0.381,0.149 0.812,0.253 1.196,0.355c1.196,0.355 2.44,0.52 3.687,0.638c0.287,0.005 0.624,0.008 0.911,0.013l0.144,0.003l0.096,0l0.192,0.005l0.191,0.005c1.827,2.72 5.081,3.108 5.081,3.108c2.394,-2.405 2.53,-4.85 2.538,-5.378l0.002,-0.048l0.001,-0.096l0,-0.096c0.488,-0.33 0.972,-0.703 1.409,-1.079c0.927,-0.85 1.806,-1.793 2.496,-2.789c0.048,-0.094 0.149,-0.189 0.197,-0.283c2.634,0.189 4.539,-1.555 4.539,-1.555c-0.387,-2.741 -1.947,-4.113 -2.278,-4.404l-0.045,-0.05l-0.048,-0.002c0,0 -0.047,-0.003 -0.045,-0.05c0.003,-0.144 0.055,-0.333 0.058,-0.477c0.005,-0.287 0.058,-0.573 0.061,-0.909l0.003,-0.24l0,-0.096l0.002,-0.048l0.001,-0.096l0.005,-0.192l0.002,-0.24l0.003,-0.24l0.003,-0.24l0.003,-0.24l-0.045,-0.242c-0.042,-0.29 -0.088,-0.624 -0.178,-0.917c-0.268,-1.204 -0.681,-2.315 -1.286,-3.335c-0.604,-1.019 -1.359,-1.942 -2.21,-2.725c-0.852,-0.784 -1.801,-1.375 -2.798,-1.872c-0.998,-0.45 -2.051,-0.802 -3.105,-0.919c-0.525,-0.056 -1.055,-0.113 -1.582,-0.125l-0.191,-0.005l-0.047,-0.003c0,0 -0.097,0 -0.048,-0.002l-0.096,0l-0.192,-0.005l-0.191,-0.005c-0.29,0.042 -0.53,0.039 -0.816,0.083c-1.06,0.175 -2.025,0.543 -2.943,1.052c-0.871,0.512 -1.652,1.124 -2.287,1.884c-0.637,0.71 -1.129,1.516 -1.481,2.375c-0.352,0.86 -0.559,1.718 -0.618,2.58l-0.008,0.624l-0.003,0.143l-0.005,0.192l-0.005,0.287c0.04,0.434 0.128,0.866 0.219,1.25c0.227,0.818 0.549,1.545 1.017,2.13c0.423,0.632 0.989,1.122 1.556,1.564c0.57,0.394 1.188,0.69 1.806,0.894c0.618,0.204 1.197,0.259 1.772,0.269l0.191,0.005l0.097,0.001l0.096,0l0.191,0.005l0.048,0.002l0.047,0.003l0.097,0c0.096,0 0.143,0.003 0.193,-0.043c0.048,0.003 0.146,-0.045 0.194,-0.042c0.146,-0.045 0.242,-0.045 0.384,-0.091c0.24,-0.093 0.484,-0.181 0.724,-0.275c0.241,-0.093 0.435,-0.232 0.63,-0.375c0.05,-0.045 0.096,-0.096 0.144,-0.094c0.194,-0.139 0.248,-0.428 0.056,-0.621c-0.139,-0.194 -0.381,-0.246 -0.575,-0.107c-0.05,0.045 -0.099,0.047 -0.144,0.094c-0.144,0.093 -0.338,0.136 -0.533,0.183c-0.194,0.042 -0.384,0.091 -0.578,0.133c-0.096,0 -0.194,0.043 -0.29,0.043l-0.144,-0.003l-0.144,-0.003l-0.143,-0.002l-0.192,-0.005l-0.047,-0.003l-0.097,0l-0.143,-0.003c-0.429,-0.055 -0.907,-0.204 -1.338,-0.405c-0.426,-0.199 -0.857,-0.496 -1.233,-0.836c-0.377,-0.341 -0.708,-0.781 -0.941,-1.215c-0.23,-0.482 -0.415,-0.967 -0.501,-1.543c-0.042,-0.29 -0.039,-0.53 -0.034,-0.818l0.003,-0.24l0.002,-0.047l0.002,-0.048l0.001,-0.096c0.002,-0.144 0.052,-0.285 0.055,-0.429c0.213,-1.15 0.853,-2.289 1.78,-3.138c0.243,-0.238 0.488,-0.426 0.73,-0.563c0.245,-0.188 0.535,-0.327 0.825,-0.465c0.29,-0.139 0.578,-0.23 0.919,-0.322c0.288,-0.091 0.627,-0.135 0.962,-0.128l0.479,0.011l0.096,0l0.144,0.002l0.096,0.001l0.048,0.002l0.144,0.003c0.333,0.055 0.719,0.109 1.052,0.16c0.669,0.154 1.338,0.405 1.955,0.802c1.237,0.692 2.272,1.816 2.925,3.122c0.324,0.679 0.554,1.354 0.637,2.073c0.042,0.194 0.042,0.386 0.039,0.53l-0.002,0.144l-0.003,0.144l-0.003,0.143l-0.002,0.144l-0.001,0.096l-0.002,0.144l-0.008,0.335c-0.005,0.192 -0.053,0.382 -0.058,0.573c-0.005,0.192 -0.053,0.382 -0.106,0.575c-0.054,0.194 -0.102,0.384 -0.155,0.573c-0.101,0.384 -0.251,0.765 -0.405,1.145c-0.3,0.714 -0.697,1.428 -1.188,2.093c-0.983,1.279 -2.246,2.313 -3.748,2.959c-0.726,0.322 -1.497,0.552 -2.315,0.682c-0.386,0.042 -0.816,0.083 -1.202,0.125l-0.096,0l-0.048,-0.003l-0.143,-0.002l-0.192,-0.005l-0.096,0l-0.048,-0.003c-0.191,-0.005 -0.431,-0.008 -0.621,-0.056c-0.861,-0.063 -1.723,-0.271 -2.536,-0.524c-0.812,-0.254 -1.62,-0.602 -2.333,-0.999c-1.474,-0.84 -2.846,-1.966 -3.879,-3.33c-0.517,-0.68 -0.983,-1.409 -1.354,-2.134c-0.373,-0.773 -0.645,-1.545 -0.87,-2.367c-0.227,-0.819 -0.309,-1.639 -0.392,-2.454l0.003,-0.144l0.002,-0.048l0.003,-0.047l0.002,-0.048l0.003,-0.143l0.002,-0.048l0.002,-0.048l0.001,-0.096l0.005,-0.191l0.002,-0.048l0,-0.096l0.005,-0.288c0.008,-0.431 0.061,-0.813 0.118,-1.246c0.055,-0.429 0.159,-0.86 0.213,-1.247c0.105,-0.431 0.205,-0.81 0.314,-1.24c0.253,-0.812 0.554,-1.622 0.902,-2.334c0.696,-1.476 1.633,-2.804 2.753,-3.841c0.292,-0.283 0.583,-0.518 0.878,-0.751c0.295,-0.234 0.583,-0.421 0.922,-0.658c0.293,-0.186 0.63,-0.376 0.97,-0.56c0.144,-0.093 0.338,-0.136 0.482,-0.229c0.098,-0.048 0.191,-0.092 0.24,-0.094c0.099,-0.047 0.192,-0.091 0.24,-0.093c0.338,-0.136 0.725,-0.275 1.061,-0.368c0.099,-0.047 0.194,-0.042 0.288,-0.091c0.099,-0.047 0.194,-0.042 0.288,-0.091c0.194,-0.043 0.384,-0.091 0.53,-0.136c0.099,-0.047 0.194,-0.042 0.29,-0.042c0.096,0 0.194,-0.043 0.29,-0.042c0.096,0 0.194,-0.043 0.29,-0.043l0.146,-0.045l0.144,0.003c0.096,0 0.194,-0.043 0.29,-0.042c0.096,0 0.194,-0.043 0.338,-0.04c0.096,0 0.242,-0.045 0.337,-0.04l0.192,0.005l0.144,0.002l0.047,0.003l0.096,0l0.336,0.008l0.143,0.002l0.048,0.003l0.047,0.002l0.288,0.005l1.055,0.016c0.717,0.061 1.391,0.12 2.06,0.275c1.34,0.261 2.626,0.716 3.766,1.313c1.141,0.596 2.185,1.283 3.037,2.067c0.045,0.05 0.096,0.096 0.141,0.146c0.046,0.05 0.096,0.097 0.142,0.147c0.096,0.096 0.186,0.196 0.33,0.295c0.096,0.097 0.186,0.196 0.282,0.293c0.096,0.096 0.186,0.196 0.282,0.293c0.379,0.389 0.706,0.828 1.035,1.263c0.609,0.828 1.123,1.651 1.494,2.472c0.045,0.05 0.047,0.099 0.094,0.144c0.046,0.046 0.047,0.099 0.045,0.146c0.047,0.099 0.091,0.192 0.138,0.291c0.047,0.098 0.091,0.191 0.139,0.29c0.047,0.098 0.091,0.191 0.138,0.29c0.139,0.387 0.275,0.724 0.368,1.061c0.183,0.533 0.317,1.014 0.405,1.446c0.045,0.146 0.187,0.293 0.381,0.245c0.192,0.005 0.338,-0.136 0.343,-0.327c0.301,-0.714 0.313,-1.241 0.272,-1.819l-0.009,-0.003z"/>
    <path stroke-miterlimit="10" stroke-width="5" stroke="#231735" fill="#5545EF" d="m207.23881,218.06383l148.28,0c17.817,0 32.26,-14.444 32.26,-32.26l0,-0.01c0,-17.817 -14.443,-32.26 -32.26,-32.26l-148.28,0c-17.816,0 -32.26,14.443 -32.26,32.26l0,0.01c0,17.816 14.444,32.26 32.26,32.26z"/>
    <path fill="#19052D" d="m241.40981,207.21383l112.52,0c11.819,0 21.4,-9.582 21.4,-21.4c0,-11.819 -9.581,-21.4 -21.4,-21.4l-112.52,0c-11.819,0 -21.4,9.581 -21.4,21.4c0,11.818 9.581,21.4 21.4,21.4z"/>
    <path fill="#F99F10" d="m203.09881,275.85383c-0.62,18.84 -7.35,36.35 -21.32,35.16c-15.43,-1.31 -19.26,-17.32 -18.73,-34.71"/>
    <path stroke-linecap="round" stroke-miterlimit="10" stroke-width="5" stroke="#3A1103" d="m203.09881,275.85383c-0.62,18.84 -7.35,36.35 -21.32,35.16c-15.43,-1.31 -19.26,-17.32 -18.73,-34.71"/>
    <path stroke-miterlimit="10" stroke-width="5" stroke="#3A1103" d="m145.35881,82.86383c-27.28,-12.84 -53.89,-19.65 -60.94,-8.45c-7.62,12.11 18.36,37.83 12.56,52.03c-5.42,13.28 -36.03,1.88 -38.02,16.75c-1.59,11.9 22.23,21.26 21.59,29.96c-0.64,8.7 -19.28,5.15 -20.64,16.42c-0.91,7.57 16.13,10.32 15.48,19.34c-0.64,9.02 -12.24,7.36 -12.24,16.11c0,7.12 20.79,7.73 21.38,22.54"/>
    <path stroke-miterlimit="10" stroke-width="5" stroke="#3A1103" d="m251.34881,101.24383c8.05,5.32 19.46,-1 13.05,-16.97c-21.48,-53.48 -75.26,-80.78 -91.82,-71.47c-17.38,9.77 4.3,56.24 -6.6,67.01c-6.09,6.02 -14.09,5.76 -21.42,2.68"/>
    <path stroke-miterlimit="10" stroke-width="5" stroke="#3A1103" d="m251.65681,101.48383c-28.95,-17.16 -80.14,-18.07 -125.55,15.89"/>
    <path fill="black" d="m286.53881,232.20383c10,0.37 25.09,5.51 24.62,15.83c-0.47,10.33 -16.72,13.7 -30.31,9.8c-13.59,-3.9 -12.55,-13.79 -10.41,-17.14c2.14,-3.35 6.82,-8.83 16.11,-8.49l-0.01,0z"/>
    <path fill="white" d="m290.29881,236.99383c6.44,0.83 11.23,4.18 11.23,4.18c0,0 -0.94,6.99 -12.17,6.77c-11.23,-0.22 -8.15,-10.68 -8.15,-10.68c0,0 2.96,-1.06 9.08,-0.28l0.01,0.01z"/>
    <path stroke-linecap="round" stroke-miterlimit="10" stroke-width="5.18" stroke="white" d="m309.35681,197.14383l30.04,-20.48"/>
    <path stroke-linecap="round" stroke-miterlimit="10" stroke-width="5.18" stroke="white" d="m339.39681,197.14383l-30.04,-20.48"/>
    <path stroke-linecap="round" stroke-miterlimit="10" stroke-width="5.18" stroke="white" d="m265.07981,197.14383l30.04,-20.48"/>
    <path stroke-linecap="round" stroke-miterlimit="10" stroke-width="5.18" stroke="white" d="m295.11981,197.14383l-30.04,-20.48"/>
    <path fill="white" d="m404.67781,248.14383c33.977,0 61.52,-27.544 61.52,-61.52c0,-33.977 -27.543,-61.52 -61.52,-61.52c-33.976,0 -61.52,27.543 -61.52,61.52c0,33.976 27.544,61.52 61.52,61.52z" opacity="0.2"/>
    <path fill="#0A0016" d="m476.50781,200.06383c0.88,-4.62 1.29,-9.34 1.24,-14.04c-0.05,-4.61 -0.55,-9.24 -1.49,-13.77c-0.93,-4.48 -2.3,-8.89 -4.07,-13.11c-1.77,-4.22 -3.95,-8.3 -6.48,-12.1c-2.56,-3.85 -5.51,-7.46 -8.75,-10.73c-3.31,-3.34 -6.97,-6.35 -10.87,-8.97c-4,-2.68 -8.3,-4.98 -12.79,-6.82c-4.49,-1.84 -9.16,-3.23 -13.9,-4.13c-4.62,-0.88 -9.34,-1.29 -14.04,-1.24c-4.61,0.05 -9.24,0.55 -13.77,1.49c-4.48,0.93 -8.89,2.3 -13.11,4.07c-4.22,1.77 -8.3,3.95 -12.1,6.48c-3.85,2.56 -7.46,5.51 -10.73,8.75c-3.34,3.31 -6.35,6.97 -8.97,10.87c-2.68,4 -4.98,8.3 -6.82,12.79c-1.84,4.49 -3.23,9.16 -4.13,13.9c-0.88,4.62 -1.29,9.34 -1.24,14.04c0.05,4.61 0.55,9.24 1.49,13.77c0.93,4.48 2.3,8.89 4.07,13.11c1.77,4.22 3.95,8.3 6.48,12.1c2.56,3.85 5.51,7.46 8.75,10.73c3.31,3.34 6.97,6.35 10.87,8.97c2.19,1.47 4.47,2.82 6.82,4.05l-7.6,18.54l-0.92,-0.38c-3.2,-1.31 -6.88,0.23 -8.19,3.43l-27.68,67.51c-1.31,3.2 0.23,6.88 3.43,8.19l14.01,5.75c3.2,1.31 6.88,-0.23 8.19,-3.43l27.68,-67.51c1.31,-3.2 -0.23,-6.88 -3.43,-8.19l-0.92,-0.38l7.6,-18.54c2.54,0.78 5.11,1.42 7.7,1.91c4.62,0.88 9.34,1.29 14.04,1.24c4.61,-0.05 9.24,-0.55 13.77,-1.49c4.48,-0.93 8.89,-2.3 13.11,-4.07c4.22,-1.77 8.3,-3.95 12.1,-6.48c3.85,-2.56 7.46,-5.51 10.73,-8.75c3.34,-3.31 6.35,-6.97 8.97,-10.87c2.68,-4 4.98,-8.3 6.82,-12.79c1.84,-4.49 3.23,-9.16 4.13,-13.9zm-92.91,41.62c-30.32,-12.43 -44.82,-47.1 -32.39,-77.42c12.43,-30.32 47.1,-44.82 77.42,-32.39c30.32,12.43 44.821,47.1 32.39,77.42c-12.43,30.32 -47.1,44.82 -77.42,32.39z"/>
    <path fill="white" d="m376.78781,225.42383c2.32,1.61 4.74,2.97 7.22,4.11c-15.93,-15.81 -18.73,-41.22 -5.5,-60.3c13.23,-19.08 38.02,-25.36 58.4,-15.98c-1.94,-1.92 -4.06,-3.71 -6.38,-5.32c-21.4,-14.84 -50.78,-9.53 -65.62,11.87c-14.84,21.4 -9.53,50.78 11.87,65.62l0.01,0z" opacity="0.6"/>
    <path fill="#F99F10" d="m370.79881,328.63383c11.7,-6.66 14.46,-20.1 11.53,-28.76c-2.42,-7.14 -12.93,-10.06 -19.11,-1.37c-6.87,9.65 4.36,19.91 4.36,19.91"/>
    <path stroke-linecap="round" stroke-miterlimit="10" stroke-width="5" stroke="#3A1103" d="m370.79881,328.63383c11.7,-6.66 14.46,-20.1 11.53,-28.76c-2.42,-7.14 -12.93,-10.06 -19.11,-1.37c-6.87,9.65 4.36,19.91 4.36,19.91"/>
  </g>
</svg>
