<svg width="568" height="451" viewBox="0 0 568 451" fill="none" xmlns="http://www.w3.org/2000/svg">
<path opacity="0.1" d="M80.1345 401.728C124.14 432.09 178.755 439.751 233.708 440.135C267.423 440.368 299.021 442.639 332.096 446.406C369.243 450.632 408.24 455.441 447.057 443.25C493.366 428.707 524.242 388.413 545.747 338.531C561.383 302.266 572.459 261.85 566.241 225.935C556.794 171.378 511.672 143.316 469.266 129.128C416.058 111.319 378.265 108.28 335.633 67.9744C282.774 18.0164 208.329 -25.6015 123.011 17.7253C7.25957 76.5151 -28.7125 235.151 23.233 336.22C30.8415 351.025 40.108 364.479 50.817 376.17C59.9089 386.102 69.7221 394.556 80.1345 401.74V401.728Z" fill="#585BA8"/>
<path opacity="0.1" d="M278.821 411.677C351.307 411.677 410.068 404.778 410.068 396.267C410.068 387.756 351.307 380.856 278.821 380.856C206.335 380.856 147.574 387.756 147.574 396.267C147.574 404.778 206.335 411.677 278.821 411.677Z" fill="#010101"/>
<path d="M337.389 103.621C370.781 80.34 413.51 75.1159 421.026 83.4697C427.122 90.2412 404.091 127.321 407.826 138.159C411.549 148.997 444.214 141.987 447.792 155.763C449.484 162.313 424.423 178.108 425.098 187.252C425.773 196.397 445.121 193.815 446.541 205.647C447.495 213.605 429.839 215.362 430.508 224.839C431.183 234.321 443.929 232.588 443.376 241.773C442.922 249.225 428.984 244.316 425.255 256.846C421.532 269.377 337.377 103.61 337.377 103.61H337.389V103.621Z" fill="#EE6224"/>
<path d="M486.368 325.987C485.349 295.335 463.959 288.534 448.42 293.77C432.894 299.005 433.755 317.051 437.676 323.846C443.941 334.684 453.138 330.006 449.7 322.415C447.158 315.131 446.681 305.021 458.717 308.238C473.674 312.24 469.02 352.462 437.524 344.556C415.953 339.146 417.646 316.301 419.362 282.99C423.958 250.762 418.984 208.504 405.278 168.393C377.506 87.1176 210.22 60.7065 154.687 135.879C82.5455 233.53 162.099 328.913 174.333 341.094C212.448 370.67 206.265 397.436 233.577 399.211C259.529 400.903 257.394 374.533 274.561 373.055C275.567 373.055 276.58 373.055 277.586 373.032C297.738 374.516 301.624 399.647 332.014 399.205C356.779 398.85 345.755 377.215 362.299 366.842C365.767 365.202 368.774 364.044 371.549 363.288C373.736 362.828 376.162 362.491 378.908 362.322C379.536 362.282 383.353 362.299 384.47 362.299C394.295 362.479 400.194 364.8 422.405 369.321C462.423 377.453 487.228 351.915 486.368 325.981V325.987Z" fill="#F9C213" stroke="#38170F" stroke-width="8.5" stroke-miterlimit="10"/>
<path d="M377.135 124.372C320.246 84.0687 254.038 106.082 245.574 111.672C237.11 117.263 225.12 110.619 231.857 93.8361C254.434 37.6224 312.69 9.02979 328.373 18.71C345.907 29.5362 323.853 77.8266 335.308 89.1473C344.505 98.2283 350.77 91.2939 366.414 86.0466C380.538 81.3054 377.135 124.372 377.135 124.372Z" fill="#EE6224"/>
<path d="M291.938 234.466H136.078C117.351 234.466 102.168 219.283 102.168 200.557V200.545C102.168 181.819 117.351 166.635 136.078 166.635H291.938C310.664 166.635 325.848 181.819 325.848 200.545V200.557C325.848 219.283 310.664 234.466 291.938 234.466Z" fill="#585BA8" stroke="#231735" stroke-width="8.5" stroke-miterlimit="10"/>
<path d="M256.01 223.058H137.736C125.316 223.058 115.24 212.988 115.24 200.562C115.24 188.136 125.31 178.066 137.736 178.066H256.01C268.436 178.066 278.506 188.136 278.506 200.562C278.506 212.988 268.436 223.058 256.01 223.058Z" fill="#1C0F2D"/>
<path d="M356.973 92.3527C385.647 78.8563 413.617 71.7009 421.028 83.4695C429.039 96.198 401.732 123.232 407.829 138.159C413.524 152.115 445.7 140.137 447.794 155.763C449.464 168.27 424.426 178.107 425.1 187.252C425.775 196.397 445.368 192.668 446.794 204.513C447.748 212.471 429.842 215.362 430.522 224.844C431.197 234.327 443.39 232.582 443.39 241.779C443.39 249.26 421.534 249.906 420.918 265.473" stroke="#38170F" stroke-width="8.5" stroke-miterlimit="10"/>
<path d="M245.574 111.672C237.11 117.263 225.12 110.619 231.857 93.8361C254.434 37.6224 310.968 8.92508 328.373 18.71C346.64 28.9777 323.853 77.8266 335.308 89.1473C341.707 95.4766 350.119 95.2032 357.821 91.9629" stroke="#38170F" stroke-width="8.5" stroke-miterlimit="10"/>
<path d="M245.236 111.922C275.667 93.8824 329.473 92.9284 377.205 128.624" stroke="#38170F" stroke-width="9.03" stroke-miterlimit="10"/>
<path d="M136 213H156" stroke="#5BBA47" stroke-width="9.03" stroke-linecap="round" stroke-linejoin="round"/>
<path d="M136 200H156" stroke="#5BBA47" stroke-width="9.03" stroke-linecap="round" stroke-linejoin="round"/>
<path d="M237 213H257" stroke="#5BBA47" stroke-width="9.03" stroke-linecap="round" stroke-linejoin="round"/>
<path d="M237 200H257" stroke="#5BBA47" stroke-width="9.03" stroke-linecap="round" stroke-linejoin="round"/>
<path d="M203 213H223" stroke="#5BBA47" stroke-width="9.03" stroke-linecap="round" stroke-linejoin="round"/>
<path d="M170 213H190" stroke="#5BBA47" stroke-width="9.03" stroke-linecap="round" stroke-linejoin="round"/>
<path d="M170 200H190" stroke="#5BBA47" stroke-width="9.03" stroke-linecap="round" stroke-linejoin="round"/>
<path d="M170 187H190" stroke="#5BBA47" stroke-width="9.03" stroke-linecap="round" stroke-linejoin="round"/>
<path d="M209.959 266.131C211.642 260.881 206.981 254.694 199.55 252.312C192.118 249.931 184.729 252.256 183.047 257.506C181.364 262.757 186.025 268.944 193.456 271.325C200.888 273.707 208.277 271.382 209.959 266.131Z" fill="#010101"/>
<path d="M259.739 255.519C259.739 255.519 195.544 276.759 143.774 281.576C143.774 281.576 179.307 370.123 183.292 389.361C183.292 389.361 261.461 370.832 307.808 366.719L259.739 255.514V255.519Z" fill="#F1F2F2" stroke="#404145" stroke-width="9.03" stroke-linecap="round" stroke-linejoin="round"/>
<path d="M143.775 281.576C143.775 281.576 106.462 244.368 79.5215 232.861C79.5215 232.861 112.739 309.529 121.756 351.839C121.756 351.839 147.771 360.92 183.293 389.361L143.775 281.576Z" fill="#F1F2F2" stroke="#404145" stroke-width="9.03" stroke-linecap="round" stroke-linejoin="round"/>
<path d="M143.775 281.576C143.775 281.576 121.314 243.414 91.6514 226.217V239.504C91.6514 239.504 112.757 251.133 143.775 281.576Z" fill="#F1F2F2" stroke="#404145" stroke-width="9.03" stroke-linecap="round" stroke-linejoin="round"/>
<path d="M253.923 277.347C242.364 280.64 230.788 283.362 219.211 285.742" stroke="#A7A9AC" stroke-width="8" stroke-linecap="round" stroke-linejoin="round"/>
<path d="M257.722 287.539C246.169 290.756 234.592 293.49 223.016 295.963" stroke="#A7A9AC" stroke-width="8" stroke-linecap="round" stroke-linejoin="round"/>
<path d="M261.519 297.825C249.972 300.925 238.401 303.625 226.824 306.144" stroke="#A7A9AC" stroke-width="8" stroke-linecap="round" stroke-linejoin="round"/>
<path d="M222.252 340.204C210.675 342.746 199.104 345.469 187.562 348.604" stroke="#A7A9AC" stroke-width="8" stroke-linecap="round" stroke-linejoin="round"/>
<path d="M226.062 350.385C214.486 352.886 202.909 355.655 191.361 358.919" stroke="#A7A9AC" stroke-width="8" stroke-linecap="round" stroke-linejoin="round"/>
<path d="M229.867 360.588C218.29 363.003 206.714 365.778 195.154 369.123" stroke="#A7A9AC" stroke-width="8" stroke-linecap="round" stroke-linejoin="round"/>
<path d="M278.54 340.507C266.416 342.677 254.246 344.783 242.059 347.081" stroke="#D1D3D4" stroke-width="8" stroke-linecap="round" stroke-linejoin="round"/>
<path d="M282.321 351.676C270.209 353.485 258.045 355.324 245.863 357.447" stroke="#D1D3D4" stroke-width="8" stroke-linecap="round" stroke-linejoin="round"/>
<path d="M237.742 335.405C249.313 332.973 260.878 330.605 272.402 328.086C270.424 322.455 268.441 316.893 266.463 311.402C254.927 314.281 243.356 316.876 231.779 319.401C233.769 324.724 235.758 330.052 237.742 335.41V335.405Z" fill="#939598" stroke="#939598" stroke-width="10" stroke-linecap="round" stroke-linejoin="round"/>
<path d="M182.949 335.899C194.479 332.979 206.05 330.367 217.627 327.831C212.822 314.962 208.017 302.024 203.211 288.831C191.646 290.936 180.099 292.804 168.604 294.654C173.38 308.906 178.162 322.589 182.949 335.899Z" fill="#939598" stroke="#939598" stroke-width="10" stroke-linecap="round" stroke-linejoin="round"/>
<path d="M131.406 284.24C131.406 284.24 111.993 270.296 105.524 266.654" stroke="#D1D3D4" stroke-width="8" stroke-linecap="round" stroke-linejoin="round"/>
<path d="M138.843 302.013C138.843 302.013 119.43 290.395 112.961 286.753" stroke="#D1D3D4" stroke-width="8" stroke-linecap="round" stroke-linejoin="round"/>
<path d="M150.866 336.074C150.866 336.074 132.372 325.614 125.897 321.978" stroke="#D1D3D4" stroke-width="8" stroke-linecap="round" stroke-linejoin="round"/>
<path d="M145.135 318.621C145.135 318.621 126.642 308.162 120.167 304.526" stroke="#D1D3D4" stroke-width="8" stroke-linecap="round" stroke-linejoin="round"/>
<path d="M157.294 354.66C157.294 354.66 137.881 343.444 131.412 339.802" stroke="#D1D3D4" stroke-width="8" stroke-linecap="round" stroke-linejoin="round"/>
<path d="M293.266 291.058C281.09 292.262 257.576 304.741 260.066 321.908C262.55 339.075 282.603 340.122 308.077 328.295" fill="#F9A01B"/>
<path d="M293.266 291.058C281.09 292.262 257.576 304.741 260.066 321.908C262.55 339.075 282.603 340.122 308.077 328.295" stroke="#38170F" stroke-width="8.5" stroke-miterlimit="10" stroke-linecap="round"/>
<path d="M93.569 283.24C77.8038 286.69 76.9719 306.446 82.9581 318.133C89.9448 331.769 98.7524 336.894 114.663 333.747L109.875 318.447" fill="#F9A01B"/>
<path d="M93.2131 283.333C102.981 280.779 114.703 286.87 117.251 299.919C119.799 312.967 110.264 320.314 105.977 321.298L96.0287 325.725L84.9814 303.816L93.2131 283.333Z" fill="#F9A01B"/>
<path d="M93.569 283.24C77.8038 286.69 76.9719 306.446 82.9581 318.133" stroke="#38170F" stroke-width="8.5" stroke-miterlimit="10" stroke-linecap="round"/>
<path d="M93.2148 283.333C102.982 280.779 114.704 286.87 117.252 299.919C119.003 308.889 115.048 315.166 111.01 318.529" stroke="#38170F" stroke-width="8.5" stroke-miterlimit="10" stroke-linecap="round"/>
<path d="M82.959 318.133C89.9457 331.769 98.7533 336.894 114.664 333.747" stroke="#38170F" stroke-width="8.5" stroke-miterlimit="10" stroke-linecap="round"/>
</svg>
