<svg width="568" height="451" viewBox="0 0 568 451" fill="none" xmlns="http://www.w3.org/2000/svg">
<g clip-path="url(#clip0_7828_624)">
<rect width="568" height="451" fill="white"/>
<path opacity="0.1" d="M80.1345 401.728C124.14 432.09 178.755 439.751 233.708 440.135C267.423 440.368 299.021 442.639 332.096 446.406C369.243 450.632 408.24 455.441 447.057 443.25C493.366 428.707 524.242 388.413 545.747 338.531C561.383 302.266 572.459 261.85 566.241 225.935C556.794 171.378 511.672 143.316 469.266 129.128C416.058 111.319 378.265 108.28 335.633 67.9743C282.774 18.0164 208.329 -25.6015 123.011 17.7253C7.25957 76.5151 -28.7125 235.151 23.233 336.22C30.8415 351.025 40.108 364.479 50.817 376.17C59.9089 386.102 69.7221 394.556 80.1345 401.74V401.728Z" fill="#585BA8"/>
<path opacity="0.1" d="M278.821 411.677C351.307 411.677 410.068 404.778 410.068 396.267C410.068 387.756 351.307 380.856 278.821 380.856C206.335 380.856 147.574 387.756 147.574 396.267C147.574 404.778 206.335 411.677 278.821 411.677Z" fill="#010101"/>
<path d="M337.389 103.621C370.781 80.34 413.51 75.1159 421.026 83.4697C427.122 90.2412 404.091 127.321 407.826 138.159C411.549 148.997 444.214 141.987 447.792 155.763C449.484 162.313 424.423 178.108 425.098 187.252C425.773 196.397 445.121 193.815 446.541 205.647C447.495 213.605 429.839 215.362 430.508 224.839C431.183 234.321 443.929 232.588 443.376 241.773C442.922 249.225 428.984 244.316 425.255 256.846C421.532 269.377 337.377 103.61 337.377 103.61H337.389V103.621Z" fill="#EE6224"/>
<path d="M486.367 325.987C485.349 295.335 463.959 288.534 448.42 293.77C432.894 299.005 433.755 317.051 437.676 323.846C443.941 334.684 453.138 330.006 449.7 322.415C447.158 315.131 446.681 305.021 458.717 308.238C473.674 312.24 469.02 352.462 437.524 344.556C415.953 339.146 417.646 316.301 419.362 282.99C423.958 250.762 418.984 208.504 405.278 168.393C377.506 87.1176 210.22 60.7065 154.687 135.879C82.5455 233.53 162.099 328.913 174.333 341.094C212.448 370.67 206.265 397.436 233.577 399.211C259.529 400.903 257.394 374.533 274.561 373.055C275.567 373.055 276.58 373.055 277.586 373.032C297.738 374.516 301.624 399.647 332.014 399.205C356.779 398.85 345.755 377.215 362.299 366.842C365.767 365.202 368.774 364.044 371.549 363.288C373.736 362.828 376.162 362.491 378.908 362.322C379.536 362.281 383.353 362.299 384.47 362.299C394.295 362.479 400.194 364.8 422.405 369.321C462.423 377.453 487.228 351.915 486.367 325.981V325.987Z" fill="#F9C213" stroke="#38170F" stroke-width="8.5" stroke-miterlimit="10"/>
<path d="M377.135 124.372C320.246 84.0687 254.038 106.082 245.574 111.672C237.11 117.263 225.12 110.619 231.857 93.8361C254.434 37.6224 312.69 9.02979 328.373 18.71C345.907 29.5362 323.853 77.8266 335.308 89.1473C344.505 98.2283 350.77 91.2939 366.414 86.0466C380.538 81.3054 377.135 124.372 377.135 124.372Z" fill="#EE6224"/>
<path d="M291.938 234.466H136.078C117.351 234.466 102.168 219.283 102.168 200.557V200.545C102.168 181.819 117.351 166.635 136.078 166.635H291.938C310.664 166.635 325.848 181.819 325.848 200.545V200.557C325.848 219.283 310.664 234.466 291.938 234.466Z" fill="#585BA8" stroke="#231735" stroke-width="8.5" stroke-miterlimit="10"/>
<path d="M256.01 223.058H137.736C125.316 223.058 115.24 212.988 115.24 200.562C115.24 188.136 125.31 178.066 137.736 178.066H256.01C268.436 178.066 278.506 188.136 278.506 200.562C278.506 212.988 268.436 223.058 256.01 223.058Z" fill="#1C0F2D"/>
<path d="M356.973 92.3527C385.647 78.8563 413.617 71.7009 421.028 83.4695C429.039 96.198 401.732 123.232 407.829 138.159C413.524 152.115 445.7 140.137 447.794 155.763C449.464 168.27 424.426 178.107 425.1 187.252C425.775 196.397 445.368 192.668 446.794 204.513C447.748 212.471 429.842 215.362 430.522 224.844C431.197 234.327 443.39 232.582 443.39 241.779C443.39 249.26 421.534 249.906 420.918 265.473" stroke="#38170F" stroke-width="8.5" stroke-miterlimit="10"/>
<path d="M245.574 111.672C237.11 117.263 225.12 110.619 231.857 93.8361C254.434 37.6224 310.968 8.92508 328.373 18.71C346.64 28.9777 323.853 77.8266 335.308 89.1473C341.707 95.4766 350.119 95.2032 357.821 91.9629" stroke="#38170F" stroke-width="8.5" stroke-miterlimit="10"/>
<path d="M245.236 111.922C275.667 93.8824 329.473 92.9284 377.205 128.624" stroke="#38170F" stroke-width="9.03" stroke-miterlimit="10"/>
<path d="M136 213H156" stroke="#5BBA47" stroke-width="9.03" stroke-linecap="round" stroke-linejoin="round"/>
<path d="M136 200H156" stroke="#5BBA47" stroke-width="9.03" stroke-linecap="round" stroke-linejoin="round"/>
<path d="M237 213H257" stroke="#5BBA47" stroke-width="9.03" stroke-linecap="round" stroke-linejoin="round"/>
<path d="M237 200H257" stroke="#5BBA47" stroke-width="9.03" stroke-linecap="round" stroke-linejoin="round"/>
<path d="M203 213H223" stroke="#5BBA47" stroke-width="9.03" stroke-linecap="round" stroke-linejoin="round"/>
<path d="M170 213H190" stroke="#5BBA47" stroke-width="9.03" stroke-linecap="round" stroke-linejoin="round"/>
<path d="M170 200H190" stroke="#5BBA47" stroke-width="9.03" stroke-linecap="round" stroke-linejoin="round"/>
<path d="M170 187H190" stroke="#5BBA47" stroke-width="9.03" stroke-linecap="round" stroke-linejoin="round"/>
<path d="M209.959 266.131C211.642 260.881 206.981 254.694 199.55 252.312C192.118 249.931 184.729 252.256 183.047 257.506C181.364 262.757 186.025 268.944 193.456 271.325C200.888 273.707 208.277 271.382 209.959 266.131Z" fill="#010101"/>
<path d="M259.739 255.519C259.739 255.519 195.544 276.759 143.774 281.576C143.774 281.576 179.307 370.123 183.292 389.361C183.292 389.361 261.461 370.832 307.808 366.719L259.739 255.514V255.519Z" fill="#F1F2F2" stroke="#404145" stroke-width="9.03" stroke-linecap="round" stroke-linejoin="round"/>
<path d="M143.775 281.576C143.775 281.576 106.462 244.368 79.5215 232.861C79.5215 232.861 112.739 309.529 121.756 351.839C121.756 351.839 147.771 360.92 183.293 389.361L143.775 281.576Z" fill="#F1F2F2" stroke="#404145" stroke-width="9.03" stroke-linecap="round" stroke-linejoin="round"/>
<path d="M143.775 281.576C143.775 281.576 121.314 243.414 91.6514 226.217V239.504C91.6514 239.504 112.757 251.133 143.775 281.576Z" fill="#F1F2F2" stroke="#404145" stroke-width="9.03" stroke-linecap="round" stroke-linejoin="round"/>
<path d="M253.923 277.347C242.364 280.64 230.788 283.362 219.211 285.742" stroke="#A7A9AC" stroke-width="8" stroke-linecap="round" stroke-linejoin="round"/>
<path d="M257.722 287.539C246.169 290.756 234.592 293.49 223.016 295.963" stroke="#A7A9AC" stroke-width="8" stroke-linecap="round" stroke-linejoin="round"/>
<path d="M261.519 297.825C249.972 300.925 238.401 303.625 226.824 306.144" stroke="#A7A9AC" stroke-width="8" stroke-linecap="round" stroke-linejoin="round"/>
<path d="M222.252 340.204C210.675 342.746 199.104 345.469 187.562 348.604" stroke="#A7A9AC" stroke-width="8" stroke-linecap="round" stroke-linejoin="round"/>
<path d="M226.062 350.385C214.486 352.886 202.909 355.655 191.361 358.919" stroke="#A7A9AC" stroke-width="8" stroke-linecap="round" stroke-linejoin="round"/>
<path d="M229.867 360.588C218.29 363.003 206.714 365.778 195.154 369.123" stroke="#A7A9AC" stroke-width="8" stroke-linecap="round" stroke-linejoin="round"/>
<path d="M278.54 340.507C266.416 342.677 254.246 344.783 242.059 347.081" stroke="#D1D3D4" stroke-width="8" stroke-linecap="round" stroke-linejoin="round"/>
<path d="M282.321 351.676C270.209 353.485 258.045 355.324 245.863 357.447" stroke="#D1D3D4" stroke-width="8" stroke-linecap="round" stroke-linejoin="round"/>
<path opacity="0.5" d="M237.742 335.405C249.313 332.973 260.878 330.605 272.402 328.086C270.424 322.455 268.441 316.893 266.463 311.402C254.927 314.281 243.356 316.876 231.779 319.401C233.769 324.724 235.758 330.052 237.742 335.41V335.405Z" fill="#939598" stroke="#939598" stroke-width="10" stroke-linecap="round" stroke-linejoin="round"/>
<path opacity="0.3" d="M182.949 335.899C194.479 332.979 206.05 330.367 217.627 327.831C212.822 314.962 208.017 302.024 203.211 288.831C191.646 290.936 180.099 292.804 168.604 294.654C173.38 308.906 178.162 322.589 182.949 335.899Z" fill="#939598" stroke="#939598" stroke-width="10" stroke-linecap="round" stroke-linejoin="round"/>
<path d="M131.406 284.24C131.406 284.24 111.993 270.296 105.524 266.654" stroke="#D1D3D4" stroke-width="8" stroke-linecap="round" stroke-linejoin="round"/>
<path d="M138.843 302.013C138.843 302.013 119.43 290.395 112.961 286.753" stroke="#D1D3D4" stroke-width="8" stroke-linecap="round" stroke-linejoin="round"/>
<path d="M150.866 336.074C150.866 336.074 132.372 325.614 125.897 321.978" stroke="#D1D3D4" stroke-width="8" stroke-linecap="round" stroke-linejoin="round"/>
<path d="M145.135 318.621C145.135 318.621 126.642 308.162 120.167 304.526" stroke="#D1D3D4" stroke-width="8" stroke-linecap="round" stroke-linejoin="round"/>
<path d="M157.294 354.66C157.294 354.66 137.881 343.444 131.412 339.802" stroke="#D1D3D4" stroke-width="8" stroke-linecap="round" stroke-linejoin="round"/>
<path d="M293.266 291.058C281.09 292.262 257.576 304.741 260.066 321.908C262.55 339.075 282.603 340.122 308.077 328.295" fill="#F9A01B"/>
<path d="M293.266 291.058C281.09 292.262 257.576 304.741 260.066 321.908C262.55 339.075 282.603 340.122 308.077 328.295" stroke="#38170F" stroke-width="8.5" stroke-miterlimit="10" stroke-linecap="round"/>
<path d="M93.569 283.24C77.8038 286.69 76.9719 306.446 82.9581 318.133C89.9448 331.769 98.7524 336.894 114.663 333.747L109.875 318.447" fill="#F9A01B"/>
<path d="M93.2131 283.333C102.981 280.779 114.703 286.87 117.251 299.919C119.799 312.967 110.264 320.314 105.977 321.298L96.0287 325.725L84.9814 303.816L93.2131 283.333Z" fill="#F9A01B"/>
<path d="M93.569 283.24C77.8038 286.69 76.9719 306.446 82.9581 318.133" stroke="#38170F" stroke-width="8.5" stroke-miterlimit="10" stroke-linecap="round"/>
<path d="M93.2148 283.333C102.982 280.779 114.704 286.87 117.252 299.919C119.003 308.889 115.048 315.166 111.01 318.529" stroke="#38170F" stroke-width="8.5" stroke-miterlimit="10" stroke-linecap="round"/>
<path d="M82.959 318.133C89.9457 331.769 98.7533 336.894 114.664 333.747" stroke="#38170F" stroke-width="8.5" stroke-miterlimit="10" stroke-linecap="round"/>
<path d="M209.248 302.719C208.935 302.064 208.529 301.402 207.987 300.65C207.444 299.897 206.762 299.149 205.921 298.372C205.096 297.637 204.075 296.884 202.919 296.28C202.48 296.019 201.999 295.778 201.492 295.594C201.154 293.195 199.199 291.799 199.199 291.799C197.086 292.515 196.11 293.793 195.765 294.372C195.668 294.365 195.565 294.354 195.483 294.389C195.103 294.399 194.662 294.384 194.26 294.451C193.838 294.476 193.432 294.544 193.01 294.569C192.604 294.637 192.162 294.724 191.714 294.807C191.632 294.842 191.59 294.857 191.492 294.85C189.424 292.328 186.38 292.161 186.38 292.161C184.273 295.169 184.736 298.003 184.736 298.003C184.736 298.003 184.751 298.045 184.764 298.185C184.614 298.293 184.47 298.405 184.32 298.513C184.149 298.682 183.932 298.867 183.745 298.994C183.574 299.163 183.357 299.348 183.186 299.517C182.859 299.893 182.486 300.289 182.159 300.67C181.848 301.092 181.536 301.51 181.265 301.913C181.208 301.886 181.167 301.906 181.167 301.906C176.6 302.016 173.849 305.337 173.849 305.337C175.233 309.746 178.226 311.697 178.839 312.029C178.857 312.315 178.89 312.639 178.913 312.925C179.011 314.009 179.207 315.096 179.464 316.213C179.53 316.381 179.538 316.522 179.608 316.689C176.6 319.966 177.041 324.179 177.041 324.179C181.525 326.494 185.214 325.278 185.214 325.278C186.004 325.93 186.842 326.467 187.726 326.984C188.089 327.176 188.457 327.368 188.862 327.546C189.045 331.229 191.414 333.428 191.414 333.428C194.887 332.153 196.461 329.607 196.763 329.044C197.143 329.034 197.55 328.966 197.914 328.914C199.065 328.783 200.188 328.471 201.295 328.116C201.543 328.015 201.831 327.894 202.079 327.793L202.202 327.743L202.285 327.708L202.45 327.642L202.615 327.576C205.168 329.266 208.089 328.411 208.089 328.411C209.255 325.448 208.478 323.277 208.292 322.816L208.277 322.774L208.242 322.69L208.207 322.607C208.503 322.142 208.78 321.641 209.016 321.154C209.498 320.078 209.904 318.938 210.129 317.821C210.136 317.722 210.187 317.603 210.194 317.504C212.513 316.702 213.502 314.492 213.502 314.492C212.171 312.256 210.338 311.638 209.949 311.507L209.892 311.48L209.851 311.495C209.851 311.495 209.809 311.511 209.794 311.469C209.744 311.343 209.719 311.16 209.669 311.034C209.569 310.783 209.51 310.516 209.389 310.223L209.304 310.014L209.269 309.93L209.254 309.888L209.219 309.804L209.153 309.637L209.068 309.427L208.983 309.218L208.898 309.009L208.812 308.8L208.686 308.606C208.544 308.37 208.383 308.097 208.199 307.876C207.53 306.93 206.772 306.117 205.883 305.455C204.995 304.792 204.014 304.268 203 303.901C201.987 303.533 200.961 303.368 199.928 303.302C198.911 303.278 197.884 303.358 196.941 303.642C196.472 303.787 195.999 303.931 195.545 304.113L195.38 304.179L195.338 304.195C195.338 304.195 195.256 304.23 195.297 304.21L195.214 304.245L195.049 304.311L194.884 304.377C194.652 304.52 194.446 304.605 194.218 304.747C193.376 305.288 192.687 305.96 192.089 306.739C191.532 307.502 191.089 308.319 190.824 309.21C190.54 310.06 190.413 310.939 190.426 311.813C190.44 312.688 190.576 313.508 190.841 314.277L191.061 314.821L191.112 314.947L191.177 315.115L191.278 315.366C191.47 315.728 191.703 316.07 191.921 316.37C192.413 316.996 192.954 317.509 193.568 317.845C194.16 318.238 194.821 318.455 195.467 318.631C196.097 318.764 196.734 318.794 197.336 318.745C197.938 318.695 198.452 318.531 198.947 318.329L199.112 318.263L199.194 318.228L199.277 318.193L199.442 318.127L199.483 318.112L199.525 318.097L199.607 318.062C199.69 318.027 199.731 318.011 199.757 317.954C199.799 317.938 199.866 317.861 199.907 317.846C200.015 317.753 200.098 317.718 200.202 317.626C200.373 317.457 200.549 317.292 200.72 317.123C200.891 316.954 201.006 316.762 201.12 316.566C201.147 316.509 201.168 316.448 201.209 316.432C201.324 316.241 201.264 315.97 201.03 315.873C200.841 315.755 200.615 315.8 200.5 315.991C200.474 316.048 200.433 316.068 200.411 316.125C200.322 316.259 200.173 316.367 200.023 316.479C199.873 316.587 199.728 316.699 199.579 316.807C199.496 316.842 199.429 316.914 199.346 316.949L199.223 317L199.099 317.05L198.975 317.101L198.81 317.167L198.768 317.182L198.686 317.217L198.562 317.267C198.176 317.377 197.713 317.422 197.272 317.406C196.835 317.389 196.359 317.29 195.914 317.132C195.468 316.975 195.024 316.715 194.667 316.423C194.295 316.089 193.959 315.736 193.676 315.269C193.533 315.033 193.448 314.823 193.348 314.572L193.262 314.363L193.247 314.321L193.232 314.279L193.197 314.195C193.147 314.069 193.138 313.928 193.088 313.803C192.85 312.727 192.98 311.505 193.462 310.428C193.582 310.134 193.723 309.88 193.879 309.674C194.02 309.42 194.217 309.194 194.414 308.967C194.611 308.741 194.824 308.556 195.082 308.351C195.294 308.167 195.567 308.004 195.856 307.888L196.269 307.722L196.351 307.686L196.475 307.636L196.557 307.601L196.599 307.586L196.722 307.535C197.027 307.461 197.376 307.367 197.68 307.288C198.307 307.177 198.97 307.15 199.642 307.268C200.95 307.415 202.245 308.011 203.279 308.904C203.804 309.375 204.246 309.875 204.58 310.469C204.687 310.621 204.757 310.788 204.807 310.914L204.858 311.04L204.908 311.166L204.958 311.291L205.008 311.417L205.043 311.5L205.094 311.626L205.209 311.92C205.275 312.088 205.304 312.27 205.369 312.438C205.435 312.606 205.463 312.788 205.488 312.976C205.513 313.163 205.541 313.346 205.565 313.529C205.619 313.899 205.63 314.284 205.638 314.67C205.642 315.4 205.563 316.164 205.387 316.921C205.015 318.39 204.314 319.75 203.267 320.861C202.765 321.407 202.19 321.888 201.539 322.301C201.225 322.479 200.873 322.671 200.559 322.849L200.477 322.884L200.435 322.9L200.311 322.95L200.146 323.016L200.064 323.051L200.022 323.066C199.857 323.132 199.651 323.218 199.471 323.246C198.713 323.506 197.901 323.642 197.114 323.719C196.328 323.797 195.511 323.791 194.757 323.708C193.192 323.52 191.609 323.045 190.229 322.241C189.54 321.841 188.876 321.379 188.294 320.887C187.694 320.353 187.179 319.783 186.686 319.152C186.194 318.525 185.825 317.844 185.456 317.167L185.406 317.041L185.39 316.999L185.375 316.957L185.36 316.915L185.309 316.789L185.294 316.747L185.279 316.705L185.244 316.622L185.178 316.454L185.163 316.412L185.128 316.328L185.027 316.077C184.877 315.7 184.783 315.349 184.672 314.952C184.563 314.56 184.495 314.148 184.4 313.793C184.331 313.381 184.279 313.015 184.215 312.603C184.134 311.805 184.095 310.992 184.133 310.247C184.188 308.712 184.503 307.217 185.08 305.907C185.227 305.555 185.39 305.245 185.556 304.934C185.723 304.623 185.9 304.355 186.104 304.026C186.285 303.757 186.504 303.469 186.727 303.185C186.816 303.051 186.966 302.943 187.055 302.809C187.122 302.732 187.185 302.66 187.226 302.64C187.293 302.563 187.356 302.491 187.397 302.471C187.636 302.229 187.915 301.968 188.169 301.764C188.236 301.686 188.319 301.656 188.381 301.579C188.448 301.502 188.531 301.471 188.594 301.395C188.744 301.287 188.889 301.175 188.997 301.083C189.064 301.005 189.147 300.975 189.229 300.94C189.312 300.905 189.379 300.832 189.461 300.797C189.544 300.762 189.611 300.689 189.694 300.654L189.802 300.561L189.926 300.511C190.008 300.476 190.076 300.403 190.158 300.368C190.24 300.333 190.308 300.26 190.432 300.209C190.514 300.174 190.622 300.082 190.705 300.051L190.871 299.985L190.994 299.935L191.036 299.92L191.118 299.885L191.407 299.768L191.531 299.718L191.572 299.703L191.614 299.687L191.861 299.586L192.768 299.214C193.403 299.004 193.999 298.808 194.627 298.697C195.867 298.433 197.132 298.356 198.323 298.456C199.514 298.555 200.657 298.769 201.671 299.136C201.727 299.163 201.788 299.185 201.845 299.211C201.902 299.238 201.962 299.26 202.019 299.287C202.136 299.335 202.25 299.389 202.408 299.422C202.525 299.47 202.639 299.524 202.756 299.572C202.874 299.621 202.987 299.674 203.104 299.723C203.57 299.922 204.01 300.183 204.449 300.439C205.272 300.934 206.011 301.46 206.628 302.036C206.684 302.063 206.704 302.105 206.76 302.127C206.816 302.149 206.837 302.195 206.852 302.237C206.928 302.306 207 302.37 207.076 302.438C207.153 302.506 207.224 302.571 207.301 302.639C207.377 302.707 207.448 302.772 207.525 302.84C207.784 303.125 208.024 303.368 208.226 303.626C208.577 304.02 208.867 304.389 209.1 304.731C209.192 304.842 209.366 304.917 209.515 304.805C209.681 304.739 209.754 304.563 209.688 304.395C209.684 303.666 209.503 303.204 209.256 302.718L209.248 302.719Z" fill="#939598"/>
</g>
<defs>
<clipPath id="clip0_7828_624">
<rect width="568" height="451" fill="white"/>
</clipPath>
</defs>
</svg>
