<svg width="91" height="88" viewBox="0 0 91 88" fill="none" xmlns="http://www.w3.org/2000/svg">
<path opacity="0.1" d="M44.5109 87.2001C60.3352 87.2001 73.1633 85.6939 73.1633 83.8359C73.1633 81.9779 60.3352 80.4717 44.5109 80.4717C28.6866 80.4717 15.8584 81.9779 15.8584 83.8359C15.8584 85.6939 28.6866 87.2001 44.5109 87.2001Z" fill="#010101"/>
<path d="M57.2965 19.9487C64.5863 14.8662 73.9144 13.7257 75.5553 15.5494C76.8862 17.0277 71.8583 25.1227 72.6737 27.4887C73.4865 29.8547 80.6175 28.3243 81.3986 31.3317C81.7681 32.7617 76.297 36.2098 76.4443 38.2062C76.5916 40.2027 80.8156 39.6388 81.1255 42.222C81.3338 43.9593 77.4793 44.3429 77.6254 46.4117C77.7727 48.4818 80.5553 48.1033 80.4346 50.1087C80.3356 51.7355 77.2926 50.6636 76.4786 53.3992C75.6658 56.1348 57.2939 19.9462 57.2939 19.9462H57.2965V19.9487Z" fill="#EE6224"/>
<path d="M89.821 68.4933C89.5987 61.8017 84.9289 60.317 81.5367 61.46C78.1471 62.603 78.3351 66.5426 79.191 68.0259C80.5588 70.3919 82.5667 69.3709 81.8161 67.7135C81.2611 66.1235 81.157 63.9162 83.7846 64.6185C87.0498 65.4923 86.0338 74.2731 79.158 72.5471C74.4489 71.366 74.8184 66.3787 75.1931 59.1067C76.1964 52.0709 75.1105 42.8456 72.1184 34.089C66.0554 16.3458 29.5353 10.58 17.4119 26.991C1.66262 48.3092 19.0299 69.1321 21.7007 71.7915C30.0217 78.2482 28.6717 84.0914 34.6344 84.4788C40.2998 84.8484 39.8337 79.0914 43.5815 78.7689C43.8012 78.7689 44.0222 78.7689 44.2419 78.7638C48.6412 79.0876 49.4896 84.574 56.124 84.4775C61.5304 84.4001 59.1238 79.6769 62.7357 77.4125C63.4926 77.0544 64.1492 76.8016 64.755 76.6365C65.2325 76.5362 65.7621 76.4625 66.3615 76.4257C66.4987 76.4168 67.3318 76.4206 67.5756 76.4206C69.7207 76.46 71.0084 76.9667 75.8573 77.9535C84.5936 79.729 90.0089 74.1537 89.821 68.492V68.4933Z" fill="#F9C213" stroke="#38170F" stroke-width="1.85563" stroke-miterlimit="10"/>
<path d="M65.9738 24.4791C53.5544 15.6805 39.1006 20.4862 37.2527 21.7067C35.4049 22.9271 32.7874 21.4768 34.258 17.8128C39.1869 5.54083 51.9047 -0.701223 55.3286 1.41206C59.1564 3.77553 54.3418 14.3178 56.8425 16.7892C58.8503 18.7717 60.2181 17.2578 63.6332 16.1123C66.7167 15.0773 65.9738 24.4791 65.9738 24.4791Z" fill="#EE6224"/>
<path d="M47.373 48.5133H13.3472C9.25904 48.5133 5.94434 45.1986 5.94434 41.1104V41.1079C5.94434 37.0198 9.25904 33.7051 13.3472 33.7051H47.373C51.4611 33.7051 54.7758 37.0198 54.7758 41.1079V41.1104C54.7758 45.1986 51.4611 48.5133 47.373 48.5133Z" fill="#585BA8" stroke="#231735" stroke-width="1.85563" stroke-miterlimit="10"/>
<path d="M39.5303 46.0234H13.7099C10.9985 46.0234 8.79883 43.825 8.79883 41.1123C8.79883 38.3995 10.9972 36.2012 13.7099 36.2012H39.5303C42.243 36.2012 44.4414 38.3995 44.4414 41.1123C44.4414 43.825 42.243 46.0234 39.5303 46.0234Z" fill="#1C0F2D"/>
<path d="M61.5723 17.489C67.8321 14.5426 73.9383 12.9805 75.5562 15.5497C77.305 18.3284 71.3437 24.2301 72.6746 27.4889C73.9179 30.5357 80.9423 27.9207 81.3995 31.332C81.764 34.0625 76.2979 36.21 76.4452 38.2065C76.5926 40.2029 80.8699 39.3888 81.1811 41.9746C81.3894 43.7119 77.4803 44.3431 77.6289 46.4132C77.7762 48.4833 80.4381 48.1023 80.4381 50.1102C80.4381 51.7434 75.6667 51.8844 75.5321 55.2829" stroke="#38170F" stroke-width="1.85563" stroke-miterlimit="10"/>
<path d="M37.2527 21.707C35.4049 22.9275 32.7874 21.4772 34.258 17.8132C39.1869 5.5412 51.5288 -0.723714 55.3286 1.41243C59.3164 3.65398 54.3418 14.3182 56.8425 16.7896C58.2395 18.1713 60.0759 18.1117 61.7574 17.4043" stroke="#38170F" stroke-width="1.85563" stroke-miterlimit="10"/>
<path d="M37.1797 21.7611C43.8231 17.8228 55.5693 17.6146 65.9896 25.4073" stroke="#38170F" stroke-width="1.97134" stroke-miterlimit="10"/>
<path d="M13.3311 43.8271H17.6973" stroke="#5BBA47" stroke-width="1.97134" stroke-linecap="round" stroke-linejoin="round"/>
<path d="M13.3311 40.9893H17.6973" stroke="#5BBA47" stroke-width="1.97134" stroke-linecap="round" stroke-linejoin="round"/>
<path d="M35.3818 43.8271H39.748" stroke="#5BBA47" stroke-width="1.97134" stroke-linecap="round" stroke-linejoin="round"/>
<path d="M35.3818 40.9893H39.748" stroke="#5BBA47" stroke-width="1.97134" stroke-linecap="round" stroke-linejoin="round"/>
<path d="M27.959 43.8271H32.3252" stroke="#5BBA47" stroke-width="1.97134" stroke-linecap="round" stroke-linejoin="round"/>
<path d="M20.7539 43.8271H25.1201" stroke="#5BBA47" stroke-width="1.97134" stroke-linecap="round" stroke-linejoin="round"/>
<path d="M20.7539 40.9893H25.1201" stroke="#5BBA47" stroke-width="1.97134" stroke-linecap="round" stroke-linejoin="round"/>
<path d="M20.7539 38.1509H25.1201" stroke="#5BBA47" stroke-width="1.97134" stroke-linecap="round" stroke-linejoin="round"/>
<path d="M29.4779 55.4263C29.8453 54.2801 28.8278 52.9294 27.2054 52.4094C25.583 51.8895 23.97 52.3971 23.6026 53.5433C23.2353 54.6895 24.2527 56.0402 25.8752 56.5601C27.4976 57.0801 29.1106 56.5724 29.4779 55.4263Z" fill="#010101"/>
<path d="M40.3426 53.1102C40.3426 53.1102 26.3281 57.7469 15.0264 58.7985C15.0264 58.7985 22.7835 78.1292 23.6535 82.329C23.6535 82.329 40.7185 78.2841 50.8366 77.3862L40.3426 53.1089V53.1102Z" fill="#F1F2F2" stroke="#404145" stroke-width="1.97134" stroke-linecap="round" stroke-linejoin="round"/>
<path d="M15.0272 58.7986C15.0272 58.7986 6.88137 50.6756 1 48.1636C1 48.1636 8.2517 64.9009 10.2202 74.1376C10.2202 74.1376 15.8996 76.1201 23.6543 82.3291L15.0272 58.7986Z" fill="#F1F2F2" stroke="#404145" stroke-width="1.97134" stroke-linecap="round" stroke-linejoin="round"/>
<path d="M15.0276 58.7987C15.0276 58.7987 10.1242 50.4675 3.64844 46.7134V49.6141C3.64844 49.6141 8.256 52.1528 15.0276 58.7987Z" fill="#F1F2F2" stroke="#404145" stroke-width="1.97134" stroke-linecap="round" stroke-linejoin="round"/>
<path d="M39.0752 57.8755C36.5517 58.5943 34.0244 59.1887 31.4971 59.7081" stroke="#A7A9AC" stroke-width="1.74648" stroke-linecap="round" stroke-linejoin="round"/>
<path d="M39.9059 60.1011C37.3837 60.8034 34.8564 61.4003 32.3291 61.94" stroke="#A7A9AC" stroke-width="1.74648" stroke-linecap="round" stroke-linejoin="round"/>
<path d="M40.7335 62.3457C38.2125 63.0226 35.6865 63.6119 33.1592 64.1618" stroke="#A7A9AC" stroke-width="1.74648" stroke-linecap="round" stroke-linejoin="round"/>
<path d="M32.1589 71.5981C29.6316 72.1531 27.1056 72.7475 24.5859 73.432" stroke="#A7A9AC" stroke-width="1.74648" stroke-linecap="round" stroke-linejoin="round"/>
<path d="M32.9906 73.8213C30.4633 74.3674 27.936 74.9719 25.415 75.6844" stroke="#A7A9AC" stroke-width="1.74648" stroke-linecap="round" stroke-linejoin="round"/>
<path d="M33.8222 76.0483C31.2949 76.5754 28.7676 77.1812 26.2441 77.9114" stroke="#A7A9AC" stroke-width="1.74648" stroke-linecap="round" stroke-linejoin="round"/>
<path d="M44.4476 71.6646C41.8009 72.1383 39.144 72.598 36.4834 73.0996" stroke="#D1D3D4" stroke-width="1.74648" stroke-linecap="round" stroke-linejoin="round"/>
<path d="M45.2735 74.1021C42.6294 74.497 39.9738 74.8983 37.3145 75.3619" stroke="#D1D3D4" stroke-width="1.74648" stroke-linecap="round" stroke-linejoin="round"/>
<path opacity="0.5" d="M35.541 70.5501C38.067 70.0192 40.5918 69.5023 43.1077 68.9524C42.6759 67.7231 42.2428 66.5089 41.811 65.3101C39.2926 65.9387 36.7666 66.5051 34.2393 67.0563C34.6736 68.2184 35.1079 69.3817 35.541 70.5513V70.5501Z" fill="#939598" stroke="#939598" stroke-width="2.1831" stroke-linecap="round" stroke-linejoin="round"/>
<path opacity="0.3" d="M23.5791 70.6584C26.0962 70.0208 28.6223 69.4506 31.1496 68.8969C30.1005 66.0877 29.0515 63.2632 28.0025 60.3828C25.4777 60.8426 22.9568 61.2502 20.4473 61.6541C21.4899 64.7656 22.5339 67.7526 23.5791 70.6584Z" fill="#939598" stroke="#939598" stroke-width="2.1831" stroke-linecap="round" stroke-linejoin="round"/>
<path d="M12.326 59.3802C12.326 59.3802 8.08802 56.336 6.67578 55.541" stroke="#D1D3D4" stroke-width="1.74648" stroke-linecap="round" stroke-linejoin="round"/>
<path d="M13.951 63.2604C13.951 63.2604 9.71302 60.7242 8.30078 59.9292" stroke="#D1D3D4" stroke-width="1.74648" stroke-linecap="round" stroke-linejoin="round"/>
<path d="M16.5768 70.6959C16.5768 70.6959 12.5395 68.4124 11.126 67.6187" stroke="#D1D3D4" stroke-width="1.74648" stroke-linecap="round" stroke-linejoin="round"/>
<path d="M15.3239 66.8863C15.3239 66.8863 11.2866 64.6028 9.87305 63.8091" stroke="#D1D3D4" stroke-width="1.74648" stroke-linecap="round" stroke-linejoin="round"/>
<path d="M17.9784 74.7538C17.9784 74.7538 13.7404 72.3053 12.3281 71.5103" stroke="#D1D3D4" stroke-width="1.74648" stroke-linecap="round" stroke-linejoin="round"/>
<path d="M47.6639 60.8682C45.0057 61.1311 39.8724 63.8552 40.416 67.603C40.9582 71.3507 45.3359 71.5793 50.8973 68.9974" fill="#F9A01B"/>
<path d="M47.6639 60.8682C45.0057 61.1311 39.8724 63.8552 40.416 67.603C40.9582 71.3507 45.3359 71.5793 50.8973 68.9974" stroke="#38170F" stroke-width="1.85563" stroke-miterlimit="10" stroke-linecap="round"/>
<path d="M4.06748 59.1621C0.625781 59.9152 0.44417 64.2281 1.751 66.7796C3.27627 69.7564 5.19905 70.8753 8.6725 70.1883L7.62729 66.8482" fill="#F9A01B"/>
<path d="M3.98943 59.1824C6.12176 58.6248 8.68081 59.9545 9.23707 62.8031C9.79333 65.6517 7.7118 67.2557 6.77581 67.4704L4.60411 68.4369L2.19238 63.654L3.98943 59.1824Z" fill="#F9A01B"/>
<path d="M4.06748 59.1621C0.625781 59.9152 0.44417 64.2281 1.751 66.7796" stroke="#38170F" stroke-width="1.85563" stroke-miterlimit="10" stroke-linecap="round"/>
<path d="M3.99121 59.1824C6.12354 58.6248 8.68259 59.9545 9.23885 62.8031C9.62112 64.7615 8.75752 66.1318 7.87614 66.8659" stroke="#38170F" stroke-width="1.85563" stroke-miterlimit="10" stroke-linecap="round"/>
<path d="M1.75098 66.7788C3.27625 69.7557 5.19903 70.8746 8.67248 70.1875" stroke="#38170F" stroke-width="1.85563" stroke-miterlimit="10" stroke-linecap="round"/>
<path d="M29.3221 63.4137C29.2539 63.2708 29.1653 63.1262 29.0468 62.962C28.9283 62.7977 28.7793 62.6344 28.5959 62.4647C28.4157 62.3043 28.1928 62.1398 27.9406 62.0081C27.8445 61.9511 27.7396 61.8985 27.629 61.8584C27.5551 61.3345 27.1284 61.0298 27.1284 61.0298C26.6672 61.1861 26.4539 61.4651 26.3788 61.5915C26.3575 61.5899 26.3351 61.5876 26.3171 61.5952C26.2341 61.5975 26.1378 61.594 26.0501 61.6086C25.9581 61.6142 25.8694 61.629 25.7773 61.6346C25.6887 61.6494 25.592 61.6683 25.4943 61.6864C25.4763 61.6941 25.4673 61.6974 25.4459 61.6959C24.9944 61.1453 24.3298 61.1089 24.3298 61.1089C23.8698 61.7654 23.9709 62.3842 23.9709 62.3842C23.9709 62.3842 23.9743 62.3933 23.9771 62.424C23.9444 62.4476 23.9128 62.4719 23.8801 62.4955C23.8427 62.5324 23.7954 62.5728 23.7547 62.6005C23.7173 62.6374 23.67 62.6778 23.6326 62.7147C23.5611 62.7968 23.4798 62.8833 23.4084 62.9663C23.3404 63.0585 23.2723 63.1498 23.2132 63.2377C23.2008 63.2318 23.1918 63.2361 23.1918 63.2361C22.1948 63.2602 21.5942 63.9853 21.5942 63.9853C21.8963 64.9478 22.5497 65.3736 22.6835 65.4461C22.6875 65.5086 22.6947 65.5794 22.6997 65.6418C22.7212 65.8784 22.7638 66.1157 22.82 66.3596C22.8343 66.3962 22.8363 66.427 22.8515 66.4635C22.1948 67.1788 22.2911 68.0986 22.2911 68.0986C23.27 68.604 24.0753 68.3387 24.0753 68.3387C24.2478 68.4809 24.4308 68.5981 24.6236 68.7109C24.703 68.753 24.7832 68.7949 24.8716 68.8336C24.9116 69.6377 25.4288 70.1179 25.4288 70.1179C26.1871 69.8395 26.5306 69.2837 26.5966 69.1607C26.6796 69.1584 26.7683 69.1437 26.8479 69.1322C27.0992 69.1038 27.3443 69.0355 27.586 68.9581C27.6401 68.936 27.703 68.9097 27.757 68.8877L27.7841 68.8767L27.802 68.869L27.8381 68.8547L27.8742 68.8403C28.4315 69.2092 29.069 69.0225 29.069 69.0225C29.3236 68.3756 29.1541 67.9016 29.1135 67.8011L29.1102 67.7919L29.1025 67.7736L29.0949 67.7554C29.1596 67.654 29.2201 67.5445 29.2716 67.4383C29.3767 67.2033 29.4653 66.9544 29.5145 66.7106C29.516 66.689 29.5272 66.663 29.5287 66.6414C30.0349 66.4664 30.2509 65.9838 30.2509 65.9838C29.9603 65.4956 29.5601 65.3607 29.4752 65.3322L29.4628 65.3263L29.4537 65.3297C29.4537 65.3297 29.4447 65.333 29.4413 65.3238C29.4303 65.2964 29.4251 65.2564 29.4141 65.229C29.3921 65.1741 29.3792 65.1158 29.353 65.0519L29.3344 65.0062L29.3268 64.988L29.3234 64.9788L29.3158 64.9605L29.3015 64.9239L29.2829 64.8782L29.2643 64.8325L29.2457 64.7868L29.2271 64.7412L29.1994 64.6988C29.1684 64.6473 29.1332 64.5877 29.0932 64.5395C28.9471 64.3329 28.7815 64.1556 28.5876 64.0109C28.3936 63.8662 28.1795 63.7519 27.9582 63.6717C27.737 63.5915 27.513 63.5554 27.2876 63.541C27.0655 63.5357 26.8413 63.5531 26.6355 63.6153C26.5331 63.6468 26.4298 63.6784 26.3306 63.7181L26.2946 63.7325L26.2855 63.7358C26.2855 63.7358 26.2675 63.7435 26.2764 63.7392L26.2585 63.7468L26.2224 63.7612L26.1863 63.7756C26.1356 63.8068 26.0907 63.8254 26.0409 63.8565C25.8572 63.9745 25.7067 64.1213 25.5761 64.2913C25.4546 64.4579 25.3578 64.6362 25.3 64.8308C25.2379 65.0163 25.2103 65.2082 25.2132 65.3991C25.2161 65.5901 25.2459 65.7691 25.3037 65.9369L25.3519 66.0557L25.3628 66.0832L25.3771 66.1198L25.3991 66.1747C25.4411 66.2537 25.492 66.3283 25.5395 66.3938C25.647 66.5306 25.765 66.6424 25.899 66.7158C26.0282 66.8016 26.1726 66.8491 26.3136 66.8874C26.4512 66.9165 26.5902 66.923 26.7216 66.9123C26.8531 66.9015 26.9653 66.8656 27.0733 66.8215L27.1094 66.8072L27.1274 66.7995L27.1453 66.7919L27.1814 66.7775L27.1905 66.7742L27.1995 66.7708L27.2175 66.7632C27.2354 66.7555 27.2445 66.7521 27.2502 66.7396C27.2593 66.7362 27.2739 66.7194 27.2829 66.716C27.3066 66.6958 27.3246 66.6882 27.3473 66.6681C27.3847 66.6312 27.4231 66.5951 27.4604 66.5582C27.4978 66.5213 27.5229 66.4795 27.5478 66.4367C27.5535 66.4242 27.5582 66.4108 27.5672 66.4075C27.5923 66.3657 27.5793 66.3065 27.5281 66.2853C27.4868 66.2597 27.4375 66.2693 27.4124 66.3111C27.4067 66.3237 27.3978 66.328 27.393 66.3404C27.3736 66.3696 27.3409 66.3932 27.3083 66.4177C27.2756 66.4412 27.2439 66.4656 27.2112 66.4892C27.1933 66.4968 27.1785 66.5127 27.1605 66.5204L27.1335 66.5314L27.1065 66.5424L27.0795 66.5534L27.0434 66.5678L27.0344 66.5711L27.0164 66.5788L26.9894 66.5898C26.905 66.6136 26.804 66.6235 26.7077 66.62C26.6123 66.6164 26.5084 66.5947 26.4111 66.5603C26.3138 66.5259 26.2168 66.4691 26.1389 66.4054C26.0577 66.3326 25.9844 66.2556 25.9225 66.1534C25.8915 66.1019 25.8729 66.0562 25.851 66.0013L25.8324 65.9557L25.829 65.9465L25.8257 65.9373L25.818 65.919C25.8071 65.8916 25.8051 65.8608 25.7942 65.8334C25.7423 65.5985 25.7707 65.3318 25.8758 65.0968C25.9022 65.0324 25.9329 64.9771 25.967 64.932C25.9977 64.8767 26.0407 64.8272 26.0838 64.7778C26.1268 64.7283 26.1732 64.688 26.2295 64.6433C26.2759 64.6031 26.3355 64.5676 26.3986 64.5422L26.4887 64.5058L26.5067 64.4982L26.5337 64.4871L26.5516 64.4795L26.5607 64.4761L26.5877 64.4651C26.6542 64.449 26.7304 64.4283 26.7967 64.4112C26.9337 64.387 27.0784 64.381 27.2251 64.4067C27.5107 64.439 27.7934 64.5689 28.0191 64.764C28.1337 64.8667 28.2303 64.976 28.3031 65.1056C28.3265 65.1389 28.3417 65.1754 28.3527 65.2028L28.3637 65.2302L28.3747 65.2577L28.3856 65.2851L28.3966 65.3126L28.4042 65.3308L28.4152 65.3582L28.4405 65.4223C28.4548 65.459 28.461 65.4988 28.4754 65.5354C28.4897 65.5721 28.4959 65.6119 28.5013 65.6528C28.5067 65.6938 28.5129 65.7336 28.5182 65.7736C28.5298 65.8544 28.5324 65.9385 28.534 66.0228C28.5349 66.182 28.5177 66.3489 28.4793 66.5142C28.398 66.8349 28.245 67.1318 28.0166 67.3743C27.9068 67.4934 27.7814 67.5984 27.6393 67.6886C27.5707 67.7274 27.4939 67.7695 27.4252 67.8084L27.4073 67.816L27.3982 67.8194L27.3712 67.8304L27.3351 67.8447L27.3172 67.8524L27.3081 67.8558C27.272 67.8701 27.227 67.8888 27.1878 67.8949C27.0223 67.9517 26.845 67.9813 26.6733 67.9983C26.5016 68.0153 26.3233 68.0139 26.1586 67.9958C25.817 67.9548 25.4714 67.8512 25.1702 67.6756C25.0196 67.5882 24.8747 67.4874 24.7478 67.3799C24.6166 67.2633 24.5044 67.1389 24.3967 67.0012C24.2892 66.8644 24.2086 66.7157 24.1281 66.5679L24.1172 66.5404L24.1138 66.5312L24.1105 66.522L24.1071 66.5128L24.0961 66.4854L24.0928 66.4762L24.0894 66.467L24.0818 66.4488L24.0675 66.4121L24.0641 66.4029L24.0565 66.3847L24.0346 66.3298C24.0016 66.2475 23.9811 66.171 23.9571 66.0844C23.9332 65.9987 23.9182 65.9087 23.8976 65.8313C23.8826 65.7413 23.8711 65.6615 23.8571 65.5714C23.8396 65.3973 23.8311 65.2198 23.8393 65.0572C23.8513 64.7221 23.9202 64.3956 24.0461 64.1097C24.0782 64.0329 24.1137 63.9651 24.15 63.8973C24.1864 63.8295 24.2252 63.7709 24.2695 63.6989C24.3092 63.6403 24.3569 63.5775 24.4057 63.5155C24.4251 63.4862 24.4578 63.4627 24.4772 63.4334C24.4918 63.4166 24.5056 63.4008 24.5145 63.3965C24.5291 63.3797 24.543 63.3639 24.5519 63.3596C24.604 63.3068 24.665 63.2497 24.7203 63.2051C24.7349 63.1883 24.7531 63.1816 24.7667 63.1649C24.7813 63.148 24.7994 63.1413 24.8131 63.1246C24.8459 63.101 24.8775 63.0767 24.9012 63.0565C24.9158 63.0396 24.9339 63.0329 24.9519 63.0253C24.9698 63.0176 24.9846 63.0017 25.0026 62.9941C25.0205 62.9864 25.0353 62.9705 25.0532 62.9628L25.0769 62.9426L25.1039 62.9316C25.1219 62.924 25.1367 62.9081 25.1546 62.9004C25.1726 62.8928 25.1873 62.8769 25.2144 62.8659C25.2323 62.8582 25.256 62.838 25.2741 62.8313L25.3102 62.8169L25.3372 62.8059L25.3463 62.8026L25.3642 62.7949L25.4273 62.7695L25.4543 62.7585L25.4634 62.7552L25.4724 62.7518L25.5265 62.7298L25.7245 62.6485C25.8629 62.6026 25.9933 62.56 26.1303 62.5357C26.4009 62.478 26.677 62.4613 26.9371 62.483C27.1971 62.5047 27.4467 62.5513 27.668 62.6315C27.6804 62.6374 27.6935 62.6421 27.7059 62.648C27.7183 62.6538 27.7315 62.6586 27.7439 62.6644C27.7695 62.675 27.7943 62.6867 27.829 62.6939C27.8546 62.7045 27.8794 62.7162 27.905 62.7268C27.9306 62.7374 27.9554 62.7491 27.981 62.7597C28.0825 62.8031 28.1786 62.8601 28.2744 62.9161C28.4541 63.0241 28.6156 63.1389 28.7501 63.2647C28.7625 63.2705 28.7668 63.2796 28.779 63.2845C28.7913 63.2894 28.7957 63.2994 28.7991 63.3085C28.8158 63.3234 28.8313 63.3375 28.848 63.3524C28.8647 63.3673 28.8803 63.3814 28.897 63.3963C28.9137 63.4112 28.9293 63.4253 28.946 63.4402C29.0026 63.5023 29.0549 63.5554 29.0991 63.6116C29.1757 63.6978 29.239 63.7783 29.2899 63.853C29.3099 63.8771 29.3479 63.8935 29.3805 63.869C29.4166 63.8547 29.4326 63.8162 29.4183 63.7796C29.4175 63.6204 29.3778 63.5197 29.3239 63.4134L29.3221 63.4137Z" fill="#939598"/>
</svg>
