<?xml version="1.0" encoding="utf-8"?>
<!-- Generator: Adobe Illustrator 18.1.1, SVG Export Plug-In . SVG Version: 6.00 Build 0)  -->
<svg version="1.1" id="Layer_1" xmlns="http://www.w3.org/2000/svg" xmlns:xlink="http://www.w3.org/1999/xlink" x="0px" y="0px"
	 viewBox="0 0 70 70" enable-background="new 0 0 70 70" xml:space="preserve">
<g>
	<path fill="#666766" d="M63.9,8.9C60,5,54.8,2.8,49.3,2.8c-5.4,0-10.4,2-14.3,5.7c-3.9-3.7-8.9-5.7-14.3-5.7C15.2,2.8,10,5,6.1,8.9
		C2.2,12.8,0,18,0,23.6s2.2,10.7,6.1,14.7L35,67.2l28.9-28.9c3.9-3.9,6.1-9.1,6.1-14.7S67.8,12.8,63.9,8.9z M62,36.3l-27,27l-27-27
		c-3.4-3.4-5.3-7.9-5.3-12.8S4.6,14.2,8,10.8c3.4-3.4,7.9-5.3,12.8-5.3s9.4,1.9,12.8,5.3l1.5,1.5l1.5-1.5c3.4-3.4,7.9-5.3,12.8-5.3
		c4.8,0,9.4,1.9,12.8,5.3c3.4,3.4,5.3,7.9,5.3,12.8S65.4,32.9,62,36.3z"/>
</g>
</svg>
