<?xml version="1.0" encoding="UTF-8"?>
<svg width="22px" height="20px" viewBox="0 0 22 20" version="1.1" xmlns="http://www.w3.org/2000/svg" xmlns:xlink="http://www.w3.org/1999/xlink">
    <!-- Generator: Sketch 63.1 (92452) - https://sketch.com -->
    <title>Home Icon</title>
    <desc>Created with Sketch.</desc>
    <g id="Page-1" stroke="none" stroke-width="1" fill="none" fill-rule="evenodd">
        <g id="Home-Icon" transform="translate(0.000000, -1.000000)" fill="#9FA7B3" fill-rule="nonzero">
            <path d="M7.8921079,20.997003 C8.1984682,20.997003 8.4548785,20.8837829 8.6613387,20.6573427 C8.8677989,20.4309024 8.971029,20.1711622 8.971029,19.8781219 L8.971029,19.8781219 L8.971029,15.002997 L13.006993,15.002997 L13.006993,19.8781219 C13.033633,20.1711622 13.1501832,20.4309024 13.3566434,20.6573427 C13.5631036,20.8837829 13.8195138,20.997003 14.1258741,20.997003 L14.1258741,20.997003 L17.9220779,20.997003 C18.2284382,20.997003 18.4848485,20.8837829 18.6913087,20.6573427 C18.8977689,20.4309024 19.000999,20.1711622 19.000999,19.8781219 L19.000999,19.8781219 L19.000999,12.005994 L20.959041,12.005994 C21.1322011,12.005994 21.2654013,11.999334 21.3586414,11.986014 C21.4918415,11.959374 21.6117216,11.8927739 21.7182817,11.7862138 C21.9314019,11.5597736 22.037962,11.2933733 22.037962,10.987013 C22.037962,10.6540127 21.8981019,10.3742924 21.6183816,10.1478521 C19.2207792,8.1098901 15.6909757,5.0529471 11.028971,0.977023 L11.028971,0.977023 L0.3996004,10.1478521 C0.1198801,10.3876124 -0.01332,10.6706627 1.08420217e-19,10.997003 C0.01332,11.3233433 0.1265401,11.5864136 0.3396603,11.7862138 C0.4329004,11.8794539 0.5461205,11.9393939 0.6793207,11.966034 C0.7725608,11.992674 0.9190809,12.005994 1.1188811,12.005994 L1.1188811,12.005994 L3.016983,12.005994 L3.016983,19.8781219 C3.016983,20.1711622 3.1268731,20.4309024 3.3466533,20.6573427 C3.5664336,20.8837829 3.8295038,20.997003 4.1358641,20.997003 L4.1358641,20.997003 L7.8921079,20.997003 Z"></path>
        </g>
    </g>
</svg>