<?xml version="1.0" encoding="utf-8"?>
<!-- Generator: Adobe Illustrator 19.1.0, SVG Export Plug-In . SVG Version: 6.00 Build 0)  -->
<svg version="1.1" id="Layer_1" xmlns="http://www.w3.org/2000/svg" xmlns:xlink="http://www.w3.org/1999/xlink" x="0px" y="0px"
	 width="56px" height="56px" viewBox="0 0 56 56" style="enable-background:new 0 0 56 56;" xml:space="preserve">
<style type="text/css">
	.st0{fill:#FFFFFF;}
	.st1{fill:#010101;}
	.st2{fill:#E83543;}
</style>
<g>
	<path class="st0" d="M44.5,38.3c-0.8-0.2-1.6-0.3-2.4-0.3c-1.4,0-2.7,0.2-3.6,0.6c-0.1,0.1-0.2,0.2-0.2,0.3c0,0,0,0.1,0,0.1
		c0.1,0.3-0.1,0.7-1,0.9c-1.3,0.3-2.2,1.7-2.7,2.1c-0.6,0.5-2.2,0.9-1.9,0.6c0.2-0.3,0.9-1,1.4-1.9c0.4-0.8,0.7-1,1.2-1.7
		c0.1-0.2,0.7-1,0.9-1.6c0.2-0.6,0.1-1.3,0.2-1.6c0.1-0.4,0.5-1.4,0.5-1.9c0-0.3-1.2,0.4-1.8,0.4c-0.6,0-1.2-0.4-1.7-0.4
		c-0.7,0-1.1,0.5-1.7,0.4c-0.3-0.1-0.6-0.4-1.2-0.4c-0.9,0-1.9,0.5-3.9,0.4c-1.9-0.1-3.7-2.4-3.9-2.8c-0.3-0.4-0.6-0.4-1-0.1
		c-0.4,0.3-0.8,0.1-1-0.2c-0.3-0.4-0.9-1.7-2-2c-1.4-0.4-2.2,0.8-2.1,1.7c0.1,0.9,0.7,1.2,1,1.7c0.3,0.5,0.4,0.8,1,1.1
		c0.4,0.2,0.5,0.4,0.4,0.7c-0.1,0.3-0.5,0.3-0.8,0.3c-0.6,0-0.9-0.1-1.2-0.3c-0.3-0.2-0.6-0.5-0.9-1c-0.3-0.5-0.9-0.8-1.5-0.8
		c-0.3,0-0.6,0.1-0.8,0.2c-1,0.5-2.1,0.8-3.3,0.8l-1.4,0c2.6,7.8,10,13.4,18.7,13.4C34.8,47.3,41,43.7,44.5,38.3"/>
	<path class="st1" d="M44.5,38.3c-0.8-0.2-1.6-0.3-2.4-0.3c-1.4,0-2.7,0.2-3.6,0.6c-0.1,0.1-0.2,0.2-0.2,0.3c0,0,0,0.1,0,0.1
		c0.1,0.3-0.1,0.7-1,0.9c-1.3,0.3-2.2,1.7-2.7,2.1c-0.6,0.5-2.2,0.9-1.9,0.6c0.2-0.3,0.9-1,1.4-1.9c0.4-0.8,0.7-1,1.2-1.7
		c0.1-0.2,0.7-1,0.9-1.6c0.2-0.6,0.1-1.3,0.2-1.6c0.1-0.4,0.5-1.4,0.5-1.9c0-0.3-1.2,0.4-1.8,0.4c-0.6,0-1.2-0.4-1.7-0.4
		c-0.7,0-1.1,0.5-1.7,0.4c-0.3-0.1-0.6-0.4-1.2-0.4c-0.9,0-1.9,0.5-3.9,0.4c-1.9-0.1-3.7-2.4-3.9-2.8c-0.3-0.4-0.6-0.4-1-0.1
		c-0.4,0.3-0.8,0.1-1-0.2c-0.3-0.4-0.9-1.7-2-2c-1.4-0.4-2.2,0.8-2.1,1.7c0.1,0.9,0.7,1.2,1,1.7c0.3,0.5,0.4,0.8,1,1.1
		c0.4,0.2,0.5,0.4,0.4,0.7c-0.1,0.3-0.5,0.3-0.8,0.3c-0.6,0-0.9-0.1-1.2-0.3c-0.3-0.2-0.6-0.5-0.9-1c-0.3-0.5-0.9-0.8-1.5-0.8
		c-0.3,0-0.6,0.1-0.8,0.2c-1,0.5-2.1,0.8-3.3,0.8H9.1c-0.7-2-1-4.1-1-6.3C8.1,16.7,17,7.8,27.9,7.8c10.9,0,19.8,8.8,19.8,19.8
		C47.7,31.5,46.5,35.2,44.5,38.3"/>
	<path class="st1" d="M32.2,36.5c0.1,0.1,0.3,0.4,0.1,0.9c-0.1,0.2-0.3,0.4-0.5,0.6c-0.3,0.2-0.8,0.5-1.6,0c-0.4-0.3-0.4-0.3-1-0.3
		c-0.4,0.1-0.6-0.3-0.4-0.7c0.1-0.3,0.7-0.6,1.5-0.2c0.3,0.2,0.8,0.6,1.3,0.2C31.8,36.9,31.9,36.8,32.2,36.5
		C32.2,36.5,32.2,36.5,32.2,36.5C32.2,36.5,32.2,36.5,32.2,36.5"/>
	<path class="st2" d="M26.3,17.2c-2.3,0.2-2.5,0.4-2.9,0.9c-0.6,0.6-1.4-0.8-1.4-0.8c-0.5-0.1-1.1-0.9-0.7-1.6
		c0.3-0.7,0.9-0.5,1.1-0.3c0.2,0.3,0.7,0.7,1.3,0.7c0.6,0,1.3-0.1,2.3-0.1c1,0,1.6,0.4,1.7,0.7C27.5,16.9,27.4,17.1,26.3,17.2
		 M28.7,13.5L28.7,13.5C28.7,13.5,28.7,13.4,28.7,13.5c-0.1-0.1-0.1-0.1,0-0.1c0.4-0.2,1.1-0.4,1.9-0.5c0.2,0,0.4,0,0.7,0h0.1
		c1.3,0,2.3,0.5,2.3,1.1c0,0.6-1.1,1-2.3,1c-0.4,0-0.8-0.1-1.1-0.2c0,0-0.1,0-0.1-0.1c0,0,0-0.1,0.1-0.1c0.8-0.2,1.3-0.5,1.3-0.8
		c-0.1-0.4-1.1-0.6-2.3-0.5C29,13.4,28.9,13.4,28.7,13.5 M39,22.3c-0.2,0.7-0.5,1.5-1.7,2.1c-0.2,0.1-0.2-0.1-0.2-0.2
		c0.5-0.8,0.6-1,0.7-1.3c0.2-0.5,0.3-1.1-0.1-2.5c-0.7-2.7-2.3-6.2-3.4-7.4c-1.1-1.1-3.1-1.4-4.8-1c-0.7,0.2-1.9,0.8-4.3,0.3
		c-4.1-0.9-4.7,1.1-5,2c-0.2,0.9-0.8,3.5-0.8,3.5c-0.2,1-0.4,2.8,6,4.1c3,0.6,3.1,1.3,3.3,1.9c0.2,1,0.6,1.6,1,1.8
		c0.4,0.3,0,0.5-0.5,0.6c-1.3,0.1-6-1.2-8.7-2.8c-2.3-1.4-2.3-2.6-1.8-3.7c-3.4-0.4-6,0.3-6.5,1.9c-0.8,2.8,6.1,7.5,14,9.9
		c8.3,2.5,16.8,0.8,17.7-4.4C44.4,24.8,42.4,23.1,39,22.3"/>
</g>
</svg>
