<svg width="100" height="100" viewBox="0 0 100 100" fill="none" xmlns="http://www.w3.org/2000/svg">
<path d="M5 35C6.32609 35 7.59785 34.4732 8.53553 33.5355C9.47322 32.5979 9.99999 31.3261 9.99999 30V15C9.99999 13.6739 10.5268 12.4022 11.4645 11.4645C12.4021 10.5268 13.6739 10 15 10H30C31.3261 10 32.5978 9.47322 33.5355 8.53554C34.4732 7.59786 35 6.32608 35 5C35 3.67392 34.4732 2.40215 33.5355 1.46447C32.5978 0.526784 31.3261 0 30 0H15C11.0218 0 7.20645 1.58035 4.3934 4.3934C1.58036 7.20645 0 11.0218 0 15V30C0 31.3261 0.526783 32.5979 1.46446 33.5355C2.40215 34.4732 3.67392 35 5 35ZM30 90H15C13.6739 90 12.4021 89.4732 11.4645 88.5355C10.5268 87.5979 9.99999 86.3261 9.99999 85V70C9.99999 68.6739 9.47322 67.4022 8.53553 66.4645C7.59785 65.5268 6.32609 65 5 65C3.67392 65 2.40215 65.5268 1.46446 66.4645C0.526783 67.4022 0 68.6739 0 70V85C0 88.9782 1.58036 92.7936 4.3934 95.6066C7.20645 98.4196 11.0218 100 15 100H30C31.3261 100 32.5978 99.4732 33.5355 98.5355C34.4732 97.5979 35 96.3261 35 95C35 93.6739 34.4732 92.4021 33.5355 91.4645C32.5978 90.5268 31.3261 90 30 90ZM85 0H70C68.6739 0 67.4022 0.526784 66.4645 1.46447C65.5268 2.40215 65 3.67392 65 5C65 6.32608 65.5268 7.59786 66.4645 8.53554C67.4022 9.47322 68.6739 10 70 10H85C86.3261 10 87.5979 10.5268 88.5355 11.4645C89.4732 12.4022 90 13.6739 90 15V30C90 31.3261 90.5268 32.5979 91.4645 33.5355C92.4021 34.4732 93.6739 35 95 35C96.3261 35 97.5979 34.4732 98.5355 33.5355C99.4732 32.5979 100 31.3261 100 30V15C100 11.0218 98.4196 7.20645 95.6066 4.3934C92.7936 1.58035 88.9782 0 85 0ZM95 65C93.6739 65 92.4021 65.5268 91.4645 66.4645C90.5268 67.4022 90 68.6739 90 70V85C90 86.3261 89.4732 87.5979 88.5355 88.5355C87.5979 89.4732 86.3261 90 85 90H70C68.6739 90 67.4022 90.5268 66.4645 91.4645C65.5268 92.4021 65 93.6739 65 95C65 96.3261 65.5268 97.5979 66.4645 98.5355C67.4022 99.4732 68.6739 100 70 100H85C88.9782 100 92.7936 98.4196 95.6066 95.6066C98.4196 92.7936 100 88.9782 100 85V70C100 68.6739 99.4732 67.4022 98.5355 66.4645C97.5979 65.5268 96.3261 65 95 65Z" fill="#787878"/>
</svg>
