<?xml version="1.0" encoding="utf-8"?>
<!-- Generator: Adobe Illustrator 19.1.0, SVG Export Plug-In . SVG Version: 6.00 Build 0)  -->
<svg version="1.1" id="Layer_1" xmlns="http://www.w3.org/2000/svg" xmlns:xlink="http://www.w3.org/1999/xlink" x="0px" y="0px"
	 width="56px" height="56px" viewBox="0 0 56 56" style="enable-background:new 0 0 56 56;" xml:space="preserve">
<style type="text/css">
	.st0{fill:#A81D34;}
</style>
<g>
	<path class="st0" d="M31.6,28.7c-0.7,0,0.1,0.3,1,0.5c0.2-0.2,0.5-0.4,0.6-0.6C32.7,28.7,32.2,28.7,31.6,28.7"/>
	<path class="st0" d="M35.2,27.8c0.4-0.5,0.7-1.1,0.8-1.8c-0.1,0.4-0.3,0.8-0.6,1.2c-1.2,0.8-0.1-0.5,0-0.9
		C34.1,28,35.2,27.3,35.2,27.8"/>
	<path class="st0" d="M36.5,24.4c0.1-1.2-0.2-0.8-0.3-0.4C36.3,24.1,36.4,24.8,36.5,24.4"/>
	<path class="st0" d="M29.1,8.1c0.4,0.1,0.8,0.1,0.7,0.2C30.2,8.2,30.3,8.1,29.1,8.1"/>
	<path class="st0" d="M29.8,8.3l-0.2,0.1L29.8,8.3L29.8,8.3"/>
	<path class="st0" d="M40.8,24.8c0,1.1-0.3,1.6-0.6,2.5l-0.6,0.3c-0.5,0.9,0,0.6-0.3,1.3c-0.7,0.7-2.2,2-2.7,2.2
		c-0.3,0,0.2-0.4,0.3-0.6c-1,0.7-0.8,1-2.3,1.4l0-0.1c-3.7,1.7-8.8-1.7-8.8-6.4c0,0.3-0.1,0.2-0.2,0.3c-0.2-2.4,1.1-4.8,3.3-5.8
		c2.2-1.1,4.7-0.6,6.2,0.8c-0.8-1.1-2.5-2.3-4.5-2.2c-2,0-3.8,1.3-4.4,2.6c-1,0.6-1.1,2.4-1.6,2.8c-0.6,4.3,1.1,6.2,4,8.4
		c0.5,0.3,0.1,0.4,0.2,0.6c-1-0.4-1.8-1.1-2.5-1.9c0.4,0.6,0.8,1.1,1.3,1.5c-0.9-0.3-2.1-2.2-2.5-2.3c1.5,2.8,6.3,4.9,8.8,3.8
		c-1.1,0-2.6,0-3.9-0.5c-0.5-0.3-1.3-0.9-1.1-1c3.4,1.3,6.9,1,9.8-1.4c0.7-0.6,1.6-1.6,1.8-1.6c-0.4,0.5,0.1,0.3-0.2,0.7
		c0.7-1.2-0.3-0.5,0.8-2.1l0.4,0.6c-0.1-1,1.2-2.2,1.1-3.8c0.3-0.5,0.4,0.5,0,1.6c0.5-1.2,0.1-1.4,0.2-2.4c0.1,0.3,0.3,0.7,0.4,1.1
		c-0.3-1.2,0.3-2,0.5-2.7c-0.2-0.1-0.5,0.5-0.5-0.9c0-0.6,0.2-0.3,0.2-0.5c-0.1-0.1-0.4-0.5-0.6-1.4c0.1-0.2,0.4,0.5,0.6,0.6
		c-0.1-0.7-0.3-1.3-0.3-1.8c-0.5-1.1-0.2,0.2-0.6-0.5c-0.6-1.8,0.5-0.4,0.6-1.3c0.9,1.3,1.4,3.3,1.6,4.1c-0.2-1-0.5-2-0.8-2.9
		c0.3,0.1-0.4-2.1,0.3-0.6c-0.8-3.1-3.6-6-6.1-7.3c0.3,0.3,0.7,0.6,0.6,0.7c-1.3-0.7-1-0.8-1.2-1.1c-1-0.4-1.1,0-1.8,0
		c-1.9-1-2.3-0.9-4.1-1.6l0.1,0.4c-1.3-0.4-1.5,0.2-2.9,0c-0.1-0.1,0.4-0.2,0.9-0.3c-1.2,0.2-1.2-0.2-2.4,0c0.3-0.2,0.6-0.3,0.9-0.5
		c-1,0.1-2.4,0.6-2,0.1c-1.6,0.7-4.6,1.8-6.2,3.3l-0.1-0.3c-0.8,0.9-3.3,2.7-3.5,3.9l-0.2,0c-0.4,0.7-0.6,1.4-1,2.1
		c-0.5,0.9-0.7,0.3-0.7,0.5c-1,2-1.5,3.7-1.9,5.2c0.3,0.5,0,2.8,0.1,4.6c-0.5,9.1,6.4,18,13.9,20c1.1,0.4,2.7,0.4,4.1,0.4
		c-1.6-0.5-1.9-0.2-3.5-0.8c-1.2-0.5-1.4-1.2-2.2-1.9l0.3,0.6c-1.6-0.6-0.9-0.7-2.2-1.1l0.3-0.5c-0.5,0-1.4-0.9-1.6-1.3l-0.6,0
		c-0.7-0.8-1.1-1.5-1-1.9l-0.2,0.3c-0.2-0.4-2.5-3.2-1.3-2.5c-0.2-0.2-0.5-0.3-0.8-0.9l0.2-0.3c-0.6-0.7-1.1-1.7-1-2
		c0.3,0.4,0.5,0.5,0.7,0.6c-1.5-3.6-1.5-0.2-2.6-3.7l0.2,0c-0.2-0.3-0.3-0.6-0.4-0.9l0.1-1c-1.1-1.2-0.3-5.2-0.1-7.3
		c0.1-0.9,0.9-1.8,1.5-3.3l-0.4-0.1c0.7-1.2,3.9-4.8,5.4-4.6c0.7-0.9-0.1,0-0.3-0.2c1.6-1.6,2.1-1.2,3.2-1.5c1.2-0.7-1,0.3-0.4-0.3
		c2-0.5,1.4-1.2,4-1.4c0.3,0.2-0.6,0.2-0.9,0.4c1.7-0.8,5.3-0.6,7.6,0.5c2.7,1.3,5.8,5,5.9,8.5l0.1,0c-0.1,1.4,0.2,3-0.3,4.5
		L40.8,24.8"/>
	<path class="st0" d="M24.4,29.6L24.3,30c0.4,0.6,0.8,1.2,1.3,1.7C25.2,31,24.9,30.6,24.4,29.6"/>
	<path class="st0" d="M25.4,29.5c-0.2-0.3-0.4-0.6-0.5-0.9c0.1,0.5,0.4,1,0.7,1.5L25.4,29.5"/>
	<path class="st0" d="M43.6,25.6l-0.1,0.2c-0.2,1.3-0.6,2.5-1.2,3.7C43,28.3,43.4,26.9,43.6,25.6"/>
	<path class="st0" d="M29.2,7.7c0.4-0.2,1.1-0.1,1.6-0.2c-0.6,0.1-1.2,0.1-1.8,0.2L29.2,7.7"/>
	<path class="st0" d="M13.5,16.1c0.1,1-0.7,1.3,0.2,0.7C14.2,15.7,13.5,16.5,13.5,16.1"/>
	<path class="st0" d="M12.4,20.5c0.2-0.6,0.2-1,0.3-1.4C12.2,19.9,12.5,20,12.4,20.5"/>
</g>
</svg>
