<svg xmlns="http://www.w3.org/2000/svg" xmlns:xlink="http://www.w3.org/1999/xlink" id="Layer_1" width="16" height="17" x="0" style="enable-background:new 0 0 16 17" y="0" version="1.1" viewBox="0 0 16 17" xml:space="preserve"><style type="text/css">.st0{fill:url(#SVGID_1_)}.st1{fill:url(#SVGID_2_)}.st2{fill:url(#SVGID_3_)}.st3{fill:url(#SVGID_4_)}</style><g><g><linearGradient id="SVGID_1_" x1="3.9" x2="3.9" y1="-5.28" y2="19.213" gradientTransform="matrix(1 0 0 -1 0 18.289)" gradientUnits="userSpaceOnUse"><stop offset="0" style="stop-color:#fff200"/><stop offset="1" style="stop-color:#f15a29"/></linearGradient><path d="M5.9,7H1.8C1,7,0.4,6.4,0.4,5.6V1.5c0-0.8,0.6-1.4,1.4-1.4H6c0.8,0,1.4,0.6,1.4,1.4v4.1C7.3,6.4,6.7,7,5.9,7z" class="st0"/></g><g><linearGradient id="SVGID_2_" x1="12.2" x2="12.2" y1="-5.28" y2="19.213" gradientTransform="matrix(1 0 0 -1 0 18.289)" gradientUnits="userSpaceOnUse"><stop offset="0" style="stop-color:#fff200"/><stop offset="1" style="stop-color:#f15a29"/></linearGradient><path d="M14.2,7H10C9.3,7,8.7,6.4,8.7,5.6V1.5c0-0.8,0.6-1.4,1.4-1.4h4.2c0.8,0,1.4,0.6,1.4,1.4v4.1 C15.6,6.4,15,7,14.2,7z" class="st1"/></g><g><linearGradient id="SVGID_3_" x1="3.9" x2="3.9" y1="-5.28" y2="19.213" gradientTransform="matrix(1 0 0 -1 0 18.289)" gradientUnits="userSpaceOnUse"><stop offset="0" style="stop-color:#fff200"/><stop offset="1" style="stop-color:#f15a29"/></linearGradient><path d="M5.9,15.1H1.8c-0.8,0-1.4-0.6-1.4-1.4V9.6c0-0.8,0.6-1.4,1.4-1.4H6c0.8,0,1.4,0.6,1.4,1.4v4.2 C7.3,14.5,6.7,15.1,5.9,15.1z" class="st2"/></g><g><linearGradient id="SVGID_4_" x1="12.1" x2="12.1" y1="-5.28" y2="19.213" gradientTransform="matrix(1 0 0 -1 0 18.289)" gradientUnits="userSpaceOnUse"><stop offset="0" style="stop-color:#fff200"/><stop offset="1" style="stop-color:#f15a29"/></linearGradient><path d="M14.2,15.1H10c-0.8,0-1.4-0.6-1.4-1.4V9.6c0-0.8,0.6-1.4,1.4-1.4h4.2c0.8,0,1.4,0.6,1.4,1.4v4.2 C15.6,14.5,15,15.1,14.2,15.1z" class="st3"/></g></g></svg>