<!--LOGZ.IO GRAFANA CHANGE :: Add datasource logos-->
<svg width="44" height="12" viewBox="0 0 44 12" fill="none" xmlns="http://www.w3.org/2000/svg">
  <path d="M27.964 3.51639C27.988 3.40574 28 3.29508 28 3.18443C28 2.29918 27.352 1.4877 26.188 0.885246C25.06 0.307377 23.584 0 22 0C20.428 0 18.94 0.319672 17.812 0.885246C16.648 1.4877 16 2.29918 16 3.18443C16 3.29508 16.012 3.40574 16.036 3.51639C16.012 3.62705 16 3.7377 16 3.84836C16 4.16803 16.084 4.46311 16.24 4.7582C16.084 5.04098 16 5.34836 16 5.66803C16 5.77869 16.012 5.88934 16.036 6C16.012 6.11066 16 6.22131 16 6.33197C16 6.65164 16.084 6.94672 16.24 7.2418C16.084 7.52459 16 7.83197 16 8.15164C16 8.26229 16.012 8.37295 16.036 8.48361C16.012 8.59426 16 8.70492 16 8.81557C16 9.70082 16.648 10.5123 17.812 11.1148C18.94 11.6926 20.416 12 22 12C23.572 12 25.06 11.6803 26.188 11.1148C27.352 10.5123 28 9.70082 28 8.81557C28 8.70492 27.988 8.59426 27.964 8.48361C27.988 8.37295 28 8.26229 28 8.15164C28 7.83197 27.916 7.53689 27.76 7.2418C27.916 6.95902 28 6.65164 28 6.33197C28 6.22131 27.988 6.11066 27.964 6C27.988 5.88934 28 5.77869 28 5.66803C28 5.34836 27.916 5.05328 27.76 4.7582C27.916 4.47541 28 4.16803 28 3.84836C28 3.7377 27.988 3.63934 27.964 3.51639ZM25.984 10.6598C24.928 11.2008 23.512 11.5082 22 11.5082C20.488 11.5082 19.084 11.2131 18.016 10.6598C17.5 10.3893 17.092 10.0943 16.828 9.75C17.092 9.9959 17.428 10.2172 17.812 10.4139C18.94 10.9918 20.416 11.2992 22 11.2992C23.572 11.2992 25.06 10.9795 26.188 10.4139C26.572 10.2172 26.908 9.9959 27.172 9.75C26.896 10.0943 26.5 10.4016 25.984 10.6598ZM27.544 8.12705C27.544 8.82787 26.992 9.4918 25.984 10.0082C24.928 10.5492 23.512 10.8566 22 10.8566C20.488 10.8566 19.084 10.5615 18.016 10.0082C17.008 9.4918 16.456 8.81557 16.456 8.12705C16.456 7.96721 16.492 7.80738 16.54 7.65984C16.852 8.01639 17.272 8.34836 17.824 8.61885C18.952 9.19672 20.428 9.5041 22.012 9.5041C23.596 9.5041 25.072 9.18443 26.2 8.61885C26.74 8.33607 27.172 8.01639 27.484 7.65984C27.52 7.80738 27.544 7.96721 27.544 8.12705ZM25.984 8.20082C24.928 8.7418 23.512 9.04918 22 9.04918C20.488 9.04918 19.084 8.7541 18.016 8.20082C17.5 7.93033 17.092 7.63525 16.828 7.29098C17.092 7.53689 17.428 7.7582 17.812 7.95492C18.94 8.53279 20.416 8.84016 22 8.84016C23.572 8.84016 25.06 8.52049 26.188 7.95492C26.572 7.7582 26.908 7.53689 27.172 7.29098C26.896 7.62295 26.5 7.93033 25.984 8.20082ZM27.544 5.65574C27.544 6.35656 26.992 7.02049 25.984 7.53689C24.928 8.07787 23.512 8.38525 22 8.38525C20.488 8.38525 19.084 8.09016 18.016 7.53689C17.008 7.02049 16.456 6.34426 16.456 5.65574C16.456 5.4959 16.492 5.33607 16.54 5.18852C16.852 5.54508 17.272 5.87705 17.824 6.14754C18.952 6.72541 20.428 7.03279 22.012 7.03279C23.596 7.03279 25.072 6.71311 26.2 6.14754C26.74 5.86475 27.172 5.54508 27.484 5.18852C27.52 5.34836 27.544 5.4959 27.544 5.65574ZM18.016 1.31557C19.072 0.77459 20.488 0.467213 22 0.467213C23.512 0.467213 24.916 0.762295 25.984 1.31557C26.992 1.83197 27.544 2.5082 27.544 3.19672C27.544 3.88525 26.992 4.56148 25.984 5.07787C24.928 5.61885 23.512 5.92623 22 5.92623C20.488 5.92623 19.084 5.61885 18.016 5.07787C17.008 4.56148 16.456 3.88525 16.456 3.19672C16.456 2.5082 17.008 1.81967 18.016 1.31557ZM25.984 5.7418C24.928 6.28279 23.512 6.59016 22 6.59016C20.488 6.59016 19.084 6.29508 18.016 5.7418C17.5 5.47131 17.092 5.17623 16.828 4.83197C17.092 5.07787 17.428 5.29918 17.812 5.4959C18.94 6.07377 20.416 6.38115 22 6.38115C23.572 6.38115 25.06 6.06148 26.188 5.4959C26.572 5.29918 26.908 5.07787 27.172 4.83197C26.896 5.16393 26.5 5.47131 25.984 5.7418Z" fill="#787878"/>
</svg>
