<?xml version="1.0" encoding="utf-8"?>
<!-- Generator: Adobe Illustrator 19.1.0, SVG Export Plug-In . SVG Version: 6.00 Build 0)  -->
<svg version="1.1" id="Layer_1" xmlns="http://www.w3.org/2000/svg" xmlns:xlink="http://www.w3.org/1999/xlink" x="0px" y="0px"
	 width="56px" height="56px" viewBox="0 0 56 56" style="enable-background:new 0 0 56 56;" xml:space="preserve">
<style type="text/css">
	.st0{fill:none;}
	.st1{fill:#EEA724;}
	.st2{fill:#942579;}
	.st3{fill:#9CCB3C;}
	.st4{fill:#2E2C74;}
	.st5{fill:#FFFFFF;}
</style>
<g>
	<polygon class="st0" points="31.2,26.1 30.3,26.1 29.9,26.1 29.9,25.8 29.9,24.9 28.8,26 28.5,26.3 28.3,26 27.2,24.9 27.2,25.8 
		27.2,26.1 26.8,26.1 25.8,26.1 27,27.3 27.2,27.6 27,27.8 25.9,28.9 26.9,28.9 27.2,28.9 27.2,29.2 27.2,30.2 28.3,29.1 28.5,28.9 
		28.7,29.1 29.9,30.3 29.9,29.2 29.9,28.9 30.3,28.9 31.1,28.9 30,27.8 29.8,27.5 30,27.3 	"/>
	<polygon class="st1" points="27.2,12.5 27.2,12.8 27.2,23.9 28.5,25.3 29.9,23.9 29.9,12.8 29.9,12.4 30.3,12.4 33.1,12.4 
		28.5,7.9 23.9,12.5 26.8,12.5 	"/>
	<polygon class="st2" points="26.3,27.6 24.8,26.1 13.8,26.1 13.5,26.1 13.5,25.8 13.5,22.9 8.9,27.5 13.5,32.2 13.5,29.2 
		13.5,28.9 13.8,28.9 25,28.9 	"/>
	<polygon class="st3" points="17.6,17.9 17.8,18.1 25.1,25.4 26.5,25.4 26.5,24.2 19.1,16.8 18.8,16.6 19.1,16.3 22.3,13.2 
		14.2,13.2 14.2,21.2 17.3,18.1 	"/>
	<polygon class="st3" points="26.5,23.3 26.5,13.2 23.2,13.2 19.8,16.6 	"/>
	<polygon class="st3" points="17.6,18.8 14.2,22.2 14.2,25.4 24.2,25.4 	"/>
	<polygon class="st3" points="29.9,42.6 29.9,42.2 29.9,31.3 28.5,29.8 27.2,31.1 27.2,42.2 27.2,42.6 26.9,42.6 23.9,42.6 
		28.5,47.2 33.1,42.6 30.3,42.6 	"/>
	<polygon class="st4" points="18.8,38.5 19.1,38.3 26.5,30.9 26.5,29.5 25.2,29.5 17.8,37 17.6,37.2 17.3,37 14.2,33.8 14.2,41.9 
		22.2,41.9 19.1,38.8 	"/>
	<polygon class="st4" points="17.6,36.3 24.3,29.5 14.2,29.5 14.2,32.9 	"/>
	<polygon class="st4" points="26.5,31.8 19.8,38.5 23.2,41.9 26.5,41.9 	"/>
	<polygon class="st2" points="38.2,16.6 38,16.8 30.6,24.2 30.6,25.4 31.9,25.4 39.2,18.1 39.5,17.9 39.7,18.1 42.9,21.3 42.9,13.1 
		34.7,13.1 38,16.3 	"/>
	<polygon class="st2" points="30.6,23.2 37.2,16.6 33.8,13.1 30.6,13.1 	"/>
	<polygon class="st4" points="43.6,25.8 43.6,26.1 43.3,26.1 32.2,26.1 30.8,27.5 32.1,28.9 43.3,28.9 43.6,28.9 43.6,29.2 
		43.6,32.1 48.2,27.5 43.6,23 	"/>
	<polygon class="st4" points="32.9,25.4 42.9,25.4 42.9,22.3 39.5,18.8 	"/>
	<polygon class="st1" points="39.5,37.2 39.2,37 31.8,29.5 30.6,29.5 30.6,31 37.9,38.3 38.2,38.5 37.9,38.8 34.8,41.9 42.9,41.9 
		42.9,33.8 39.7,37 	"/>
	<polygon class="st1" points="30.6,32 30.6,41.9 33.8,41.9 37.2,38.5 	"/>
	<polygon class="st1" points="39.5,36.3 42.9,32.8 42.9,29.5 32.8,29.5 	"/>
	<path class="st5" d="M48.9,27.3L43.6,22v-9.2v-0.3h-0.3h-9.2l-5.3-5.3l-0.2-0.2l-0.2,0.2L23,12.5h-9.1h-0.3v0.3v9.1l-5.4,5.4
		l-0.2,0.2l0.2,0.2l5.4,5.4v9.1v0.3h0.3h9l5.4,5.4l0.2,0.2l0.2-0.2l5.4-5.4h9.2h0.3v-0.3v-9.1l5.3-5.3l0.2-0.2L48.9,27.3z
		 M42.9,13.1v8.2l-3.2-3.2l-0.2-0.2l-0.2,0.2l-7.3,7.3h-1.3v-1.3l7.4-7.4l0.2-0.2L38,16.3l-3.2-3.2H42.9z M42.9,22.3v3.2H32.9
		l6.6-6.6L42.9,22.3z M30,27.8l1.1,1.1h-0.8h-0.3v0.3v1.1l-1.2-1.2l-0.2-0.2l-0.2,0.2l-1.1,1.1v-1v-0.3h-0.3h-0.9l1.1-1.1l0.2-0.2
		L27,27.3l-1.2-1.2h1h0.3v-0.3v-0.9l1.1,1.1l0.2,0.2l0.2-0.2l1.2-1.2v0.9v0.3h0.3h0.9L30,27.3l-0.2,0.2L30,27.8z M37.2,16.6
		l-6.6,6.6V13.1h3.2L37.2,16.6z M28.5,7.9l4.6,4.6h-2.8h-0.3v0.3v11.1l-1.4,1.4l-1.4-1.4V12.8v-0.3h-0.3h-2.9L28.5,7.9z M23.2,13.2
		h3.2v10.1l-6.7-6.7L23.2,13.2z M14.2,13.2h8.1l-3.2,3.2l-0.2,0.2l0.2,0.2l7.4,7.4v1.2h-1.4l-7.3-7.3l-0.2-0.2l-0.2,0.2l-3.1,3.1
		V13.2z M14.2,22.2l3.4-3.4l6.6,6.6h-10V22.2z M13.5,28.9v0.3v3l-4.6-4.6l4.6-4.6v2.9v0.3h0.3h11l1.4,1.4L25,28.9H13.8H13.5z
		 M24.3,29.5l-6.7,6.7l-3.4-3.4v-3.3H24.3z M14.2,41.9v-8l3.1,3.1l0.2,0.2l0.2-0.2l7.4-7.4h1.3v1.3l-7.4,7.4l-0.2,0.2l0.2,0.2
		l3.1,3.1H14.2z M19.8,38.5l6.7-6.7v10h-3.3L19.8,38.5z M28.5,47.2l-4.6-4.6h3h0.3v-0.3V31.1l1.3-1.3l1.4,1.4v10.9v0.3h0.3h2.9
		L28.5,47.2z M33.8,41.9h-3.2V32l6.6,6.6L33.8,41.9z M42.9,41.9h-8.1l3.1-3.1l0.2-0.2l-0.2-0.2L30.6,31v-1.4h1.2l7.4,7.4l0.2,0.2
		l0.2-0.2l3.2-3.2V41.9z M42.9,32.8l-3.5,3.5l-6.7-6.7h10.2V32.8z M43.6,32.1v-2.9v-0.3h-0.3H32.1l-1.3-1.3l1.4-1.4h11.1h0.3v-0.3
		V23l4.6,4.6L43.6,32.1z"/>
</g>
</svg>
