<svg xmlns="http://www.w3.org/2000/svg" xmlns:xlink="http://www.w3.org/1999/xlink" id="Layer_1" width="100" height="100" x="0" style="enable-background:new 0 0 100 100" y="0" version="1.1" viewBox="0 0 100 100" xml:space="preserve"><style type="text/css">.st0{fill:#898989}.st1{fill:url(#SVGID_1_)}</style><g><path d="M0,98V74.4c0-1.1,0.9-2,2-2H98c1.1,0,2,0.9,2,2V98c0,1.1-0.9,2-2,2H2C0.9,100,0,99.1,0,98z" class="st0"/><path d="M0,24.7v-22C0,1.2,1.2,0,2.6,0h94.8c1.4,0,2.6,1.2,2.6,2.8v22c0,1.5-1.2,2.8-2.6,2.8H2.6 C1.2,27.5,0,26.3,0,24.7z" class="st0"/><linearGradient id="SVGID_1_" x1="50" x2="50" y1="94.582" y2="11.659" gradientUnits="userSpaceOnUse"><stop offset="0" style="stop-color:#fff23a"/><stop offset=".04" style="stop-color:#fee62d"/><stop offset=".117" style="stop-color:#fed41a"/><stop offset=".196" style="stop-color:#fdc90f"/><stop offset=".281" style="stop-color:#fdc60b"/><stop offset=".668" style="stop-color:#f28f3f"/><stop offset=".888" style="stop-color:#ed693c"/><stop offset="1" style="stop-color:#e83e39"/></linearGradient><path d="M0,61.8V38.2c0-1.1,0.9-2,2-2H98c1.1,0,2,0.9,2,2v23.6c0,1.1-0.9,2-2,2H2C0.9,63.8,0,62.9,0,61.8z" class="st1"/></g></svg>