<?xml version="1.0" encoding="utf-8"?>
<!-- Generator: Adobe Illustrator 19.1.0, SVG Export Plug-In . SVG Version: 6.00 Build 0)  -->
<svg version="1.0" id="Layer_1" xmlns="http://www.w3.org/2000/svg" xmlns:xlink="http://www.w3.org/1999/xlink" x="0px" y="0px"
	 width="100px" height="100px" viewBox="510 0 100 100" style="enable-background:new 510 0 100 100;" xml:space="preserve">
<style type="text/css">
	.st0{fill:#787878;}
</style>
<g>
	<path class="st0" d="M592.1,0h-64.1C518.1,0,510,8,510,17.9v64.1c0,9.9,8,17.9,17.9,17.9h64.1c9.9,0,17.9-8,17.9-17.9V17.9
		C610,8,602,0,592.1,0z M592.1,96.3h-64.1c-7.9,0-14.3-6.4-14.3-14.3V17.9c0-7.9,6.4-14.3,14.3-14.3h64.1c7.9,0,14.3,6.4,14.3,14.3
		v64.1C606.3,89.9,599.9,96.3,592.1,96.3z"/>
	<path class="st0" d="M588.9,11.8h-57.8c-4.6,0-8.4,3.3-9.2,7.7h76.1C597.3,15.1,593.5,11.8,588.9,11.8z"/>
	<path class="st0" d="M592.2,53.4c-0.4,0-1.4,0-4.9-1.7h-35.4c-6.8,7.8-7.5,8.3-7.8,8.5c-0.8,0.6-1.7,1.1-12.4-0.8l-6.4,4.4h73V51.7
		h-2.4C593.3,53.4,592.8,53.4,592.2,53.4z"/>
	<path class="st0" d="M550.5,45l0.1-0.1l7.7-7.9h-36.6V49H547C548.1,47.7,549.4,46.3,550.5,45z"/>
	<path class="st0" d="M584,49l-7-6.8l-12.5-3.9l-10,10.2c-0.1,0.2-0.3,0.3-0.4,0.5L584,49L584,49L584,49z"/>
	<path class="st0" d="M531.5,53.8c3.7,0.7,8.1,1.4,9.8,1.5c0.7-0.7,1.9-2,3.3-3.6h-22.8v7.9l8.6-6L531.5,53.8z"/>
	<rect x="521.8" y="66.4" class="st0" width="76.4" height="12.1"/>
	<path class="st0" d="M579.8,37.5l9.6,9.3c0.9,0.4,1.8,0.8,2.4,1.1c1.3-0.9,3.9-2.9,6.4-4.9v-6.1h-20.2L579.8,37.5z"/>
	<polygon class="st0" points="521.8,34.2 561,34.2 563,32.2 569.5,34.2 598.2,34.2 598.2,22.2 521.8,22.2 	"/>
	<path class="st0" d="M531.1,88.2h57.8c4.3,0,8-3,9-7h-75.8C523.1,85.2,526.8,88.2,531.1,88.2z"/>
</g>
</svg>
