<?xml version="1.0" encoding="utf-8"?>
<!-- Generator: Adobe Illustrator 19.1.0, SVG Export Plug-In . SVG Version: 6.00 Build 0)  -->
<svg version="1.0" id="Layer_1" xmlns="http://www.w3.org/2000/svg" xmlns:xlink="http://www.w3.org/1999/xlink" x="0px" y="0px"
	 width="100px" height="100px" viewBox="200 0 100 100" style="enable-background:new 200 0 100 100;" xml:space="preserve">
<style type="text/css">
	.st0{fill:#787878;}
</style>
<g>
	<path class="st0" d="M299.7,29.9c0.2-0.9,0.3-1.8,0.3-2.7c0-7.2-5.4-13.8-15.1-18.7c-9.4-4.7-21.7-7.2-34.9-7.2
		c-13.1,0-25.5,2.6-34.9,7.2c-9.7,4.9-15.1,11.5-15.1,18.7c0,0.9,0.1,1.8,0.3,2.7c-0.2,0.9-0.3,1.8-0.3,2.7c0,2.6,0.7,5,2,7.4
		c-1.3,2.3-2,4.8-2,7.4c0,0.9,0.1,1.8,0.3,2.7c-0.2,0.9-0.3,1.8-0.3,2.7c0,2.6,0.7,5,2,7.4c-1.3,2.3-2,4.8-2,7.4
		c0,0.9,0.1,1.8,0.3,2.7c-0.2,0.9-0.3,1.8-0.3,2.7c0,7.2,5.4,13.8,15.1,18.7c9.4,4.7,21.7,7.2,34.9,7.2c13.1,0,25.5-2.6,34.9-7.2
		c9.7-4.9,15.1-11.5,15.1-18.7c0-0.9-0.1-1.8-0.3-2.7c0.2-0.9,0.3-1.8,0.3-2.7c0-2.6-0.7-5-2-7.4c1.3-2.3,2-4.8,2-7.4
		c0-0.9-0.1-1.8-0.3-2.7c0.2-0.9,0.3-1.8,0.3-2.7c0-2.6-0.7-5-2-7.4c1.3-2.3,2-4.8,2-7.4C300,31.7,299.9,30.9,299.7,29.9z M283.2,88
		c-8.8,4.4-20.6,6.9-33.2,6.9s-24.3-2.4-33.2-6.9c-4.3-2.2-7.7-4.6-9.9-7.4c2.2,2,5,3.8,8.2,5.4c9.4,4.7,21.7,7.2,34.9,7.2
		c13.1,0,25.5-2.6,34.9-7.2c3.2-1.6,6-3.4,8.2-5.4C290.8,83.4,287.5,85.9,283.2,88z M296.2,67.4c0,5.7-4.6,11.1-13,15.3
		c-8.8,4.4-20.6,6.9-33.2,6.9c-12.6,0-24.3-2.4-33.2-6.9c-8.4-4.2-13-9.7-13-15.3c0-1.3,0.3-2.6,0.7-3.8c2.6,2.9,6.1,5.6,10.7,7.8
		c9.4,4.7,21.7,7.2,34.9,7.2s25.5-2.6,34.9-7.2c4.5-2.3,8.1-4.9,10.7-7.8C296,64.8,296.2,66.1,296.2,67.4z M283.2,68
		c-8.8,4.4-20.6,6.9-33.2,6.9s-24.3-2.4-33.2-6.9c-4.3-2.2-7.7-4.6-9.9-7.4c2.2,2,5,3.8,8.2,5.4c9.4,4.7,21.7,7.2,34.9,7.2
		c13.1,0,25.5-2.6,34.9-7.2c3.2-1.6,6-3.4,8.2-5.4C290.8,63.3,287.5,65.8,283.2,68z M296.2,47.3c0,5.7-4.6,11.1-13,15.3
		c-8.8,4.4-20.6,6.9-33.2,6.9c-12.6,0-24.3-2.4-33.2-6.9c-8.4-4.2-13-9.7-13-15.3c0-1.3,0.3-2.6,0.7-3.8c2.6,2.9,6.1,5.6,10.7,7.8
		c9.4,4.7,21.7,7.2,34.9,7.2s25.5-2.6,34.9-7.2c4.5-2.3,8.1-4.9,10.7-7.8C296,44.8,296.2,46,296.2,47.3z M216.8,12
		c8.8-4.4,20.6-6.9,33.2-6.9s24.3,2.4,33.2,6.9c8.4,4.2,13,9.7,13,15.3s-4.6,11.1-13,15.3c-8.8,4.4-20.6,6.9-33.2,6.9
		s-24.3-2.5-33.2-6.9c-8.4-4.2-13-9.7-13-15.3S208.4,16.1,216.8,12z M283.2,48c-8.8,4.4-20.6,6.9-33.2,6.9s-24.3-2.4-33.2-6.9
		c-4.3-2.2-7.7-4.6-9.9-7.4c2.2,2,5,3.8,8.2,5.4c9.4,4.7,21.7,7.2,34.9,7.2c13.1,0,25.5-2.6,34.9-7.2c3.2-1.6,6-3.4,8.2-5.4
		C290.8,43.3,287.5,45.8,283.2,48z"/>
</g>
</svg>
