<?xml version="1.0" encoding="utf-8"?>
<!-- Generator: Adobe Illustrator 19.1.0, SVG Export Plug-In . SVG Version: 6.00 Build 0)  -->
<svg version="1.1" id="Layer_1" xmlns="http://www.w3.org/2000/svg" xmlns:xlink="http://www.w3.org/1999/xlink" x="0px" y="0px"
	 width="56px" height="56px" viewBox="0 0 56 56" style="enable-background:new 0 0 56 56;" xml:space="preserve">
<style type="text/css">
	.st0{fill:#FFFFFF;}
</style>
<path class="st0" d="M12.7,24.1c-2,0-3.5,1.6-3.5,3.5c0,2,1.6,3.5,3.5,3.5c2,0,3.5-1.6,3.5-3.5C16.3,25.7,14.7,24.1,12.7,24.1z
	 M38,40.2c-1.7,1-2.3,3.1-1.3,4.8c1,1.7,3.1,2.3,4.8,1.3c1.7-1,2.3-3.1,1.3-4.8C41.8,39.8,39.6,39.2,38,40.2z M20.4,27.7
	c0-3.5,1.7-6.6,4.4-8.4l-2.6-4.3c-3.1,2.1-5.4,5.2-6.3,8.9c1.1,0.9,1.8,2.3,1.8,3.8c0,1.6-0.7,2.9-1.8,3.8c1,3.7,3.3,6.9,6.3,8.9
	l2.6-4.3C22.1,34.3,20.4,31.2,20.4,27.7z M30.7,17.4c5.4,0,9.8,4.1,10.3,9.4l5-0.1c-0.2-3.9-1.9-7.4-4.6-10
	c-1.3,0.5-2.9,0.4-4.2-0.3c-1.3-0.8-2.2-2.1-2.4-3.5c-1.3-0.4-2.7-0.6-4.1-0.6c-2.4,0-4.8,0.6-6.8,1.6l2.5,4.4
	C27.7,17.7,29.2,17.4,30.7,17.4z M30.7,38c-1.6,0-3-0.3-4.3-1l-2.5,4.4c2.1,1,4.4,1.6,6.8,1.6c1.4,0,2.8-0.2,4.1-0.6
	c0.2-1.4,1.1-2.7,2.4-3.5c1.3-0.8,2.9-0.9,4.2-0.3c2.6-2.6,4.3-6.1,4.6-10l-5-0.1C40.5,33.9,36.1,38,30.7,38z M38,15.2
	c1.7,1,3.8,0.4,4.8-1.3c1-1.7,0.4-3.8-1.3-4.8c-1.7-1-3.8-0.4-4.8,1.3C35.7,12,36.3,14.2,38,15.2z"/>
</svg>
