<?xml version="1.0" encoding="utf-8"?>
<!-- Generator: Adobe Illustrator 19.1.0, SVG Export Plug-In . SVG Version: 6.00 Build 0)  -->
<svg version="1.0" id="Layer_1" xmlns="http://www.w3.org/2000/svg" xmlns:xlink="http://www.w3.org/1999/xlink" x="0px" y="0px"
	 width="100px" height="100px" viewBox="692 0 100 100" style="enable-background:new 692 0 100 100;" xml:space="preserve">
<style type="text/css">
	.st0{fill:#787878;}
</style>
<g>
	<polygon class="st0" points="705.4,0.6 692,14.1 692,24.9 716.3,0.6 	"/>
	<path class="st0" d="M730.3,0.6h-10.2L692,28.7v10.2c0,0.2,0,0.4,0,0.6l38.8-38.8C730.7,0.6,730.5,0.6,730.3,0.6z"/>
	<path class="st0" d="M733.9,1.3l-41.2,41.2c1,2.4,3,4.4,5.6,5.3l41-41C738.3,4.4,736.4,2.4,733.9,1.3z"/>
	<path class="st0" d="M739.8,39.3l-9.1,9.1C735.6,48.2,739.6,44.3,739.8,39.3z"/>
	<path class="st0" d="M701.5,48.4h10.8l27.5-27.5V10.2c0,0,0,0,0-0.1L701.5,48.4C701.5,48.4,701.5,48.4,701.5,48.4z"/>
	<polygon class="st0" points="716.1,48.4 726.9,48.4 739.8,35.5 739.8,24.7 	"/>
	<path class="st0" d="M701.5,0.6c-5.3,0-9.5,4.3-9.5,9.5v0.1l9.7-9.7H701.5z"/>
	<path class="st0" d="M744.2,38.9c0,2,0.6,3.8,1.6,5.3l42-42c-1.5-1-3.3-1.6-5.3-1.6h-4L744.2,35V38.9z"/>
	<path class="st0" d="M753.7,48.4h2.4L792,12.6v-2.4c0-2.3-0.8-4.5-2.3-6.2l-42.2,42.2C749.2,47.6,751.4,48.4,753.7,48.4z"/>
	<path class="st0" d="M753.7,0.6c-5.3,0-9.5,4.3-9.5,9.5v6.4l16-16H753.7z"/>
	<polygon class="st0" points="744.2,31.2 774.8,0.6 763.9,0.6 744.2,20.3 	"/>
	<path class="st0" d="M782.5,48.4c1.3,0,2.5-0.3,3.6-0.7l5.2-5.2c0.5-1.1,0.7-2.4,0.7-3.6V31l-17.5,17.5L782.5,48.4L782.5,48.4z"/>
	<polygon class="st0" points="770.8,48.4 792,27.2 792,16.4 759.9,48.4 	"/>
	<path class="st0" d="M701.5,51.6c-1.5,0-2.9,0.4-4.2,1l-4.4,4.4c-0.6,1.3-1,2.7-1,4.2v7.7l17.2-17.2H701.5z"/>
	<path class="st0" d="M730.3,99.4c5.3,0,9.5-4.3,9.5-9.5v-6.7l-16.2,16.2H730.3z"/>
	<polygon class="st0" points="739.8,68.5 709,99.4 719.8,99.4 739.8,79.4 	"/>
	<path class="st0" d="M730.3,51.6h-2.7L692,87.1v2.7c0,2.3,0.8,4.4,2.1,6l42.2-42.2C734.7,52.4,732.6,51.6,730.3,51.6z"/>
	<polygon class="st0" points="713,51.6 692,72.5 692,83.4 723.8,51.6 	"/>
	<path class="st0" d="M739.8,61.1c0-2-0.6-3.9-1.7-5.5l-42,42c1.6,1.1,3.4,1.7,5.5,1.7h3.7l34.6-34.6V61.1z"/>
	<path class="st0" d="M782,99.4h0.4c5.3,0,9.5-4.3,9.5-9.5v-0.4L782,99.4z"/>
	<path class="st0" d="M744.2,60.4l8.8-8.8C748.3,51.9,744.5,55.7,744.2,60.4z"/>
	<polygon class="st0" points="744.2,64.2 744.2,75 767.7,51.6 756.8,51.6 	"/>
	<polygon class="st0" points="771.4,51.6 744.2,78.8 744.2,89.6 782.3,51.6 	"/>
	<path class="st0" d="M792,61.1c0-0.3,0-0.6,0-0.8l-39.1,39.1c0.3,0,0.6,0,0.8,0h10L792,71.1L792,61.1L792,61.1z"/>
	<path class="st0" d="M785.5,52.1l-40.8,40.8c0.9,2.5,2.8,4.6,5.2,5.7l41.3-41.3C790.1,54.8,788,52.9,785.5,52.1z"/>
	<polygon class="st0" points="792,74.8 767.4,99.4 778.3,99.4 792,85.7 	"/>
</g>
</svg>
