<?xml version="1.0" encoding="utf-8"?>
<!-- Generator: Adobe Illustrator 19.1.0, SVG Export Plug-In . SVG Version: 6.00 Build 0)  -->
<svg version="1.0" id="Layer_1" xmlns="http://www.w3.org/2000/svg" xmlns:xlink="http://www.w3.org/1999/xlink" x="0px" y="0px"
	 width="100px" height="100px" viewBox="692 0 100 100" style="enable-background:new 692 0 100 100;" xml:space="preserve">
<style type="text/css">
	.st0{fill:#787878;}
</style>
<g>
	<path class="st0" d="M780.9,44.8c-3.2,0-5.9,2.1-6.7,5h-18.6c-0.2-1.6-0.6-3.1-1.2-4.6l12.5-7.2c1.5,1.6,3.6,2.5,5.9,2.5
		c4.5,0,8.2-3.7,8.2-8.2s-3.7-8.2-8.2-8.2s-8.2,3.7-8.2,8.2c0,0.8,0.1,1.5,0.3,2.3l-12.5,7.2c-0.9-1.3-2.1-2.4-3.3-3.3l2.3-4.1
		c0.8,0.2,1.5,0.3,2.4,0.3c4.6,0,8.4-3.8,8.4-8.4s-3.8-8.4-8.4-8.4c-4.6,0-8.4,3.8-8.4,8.4c0,2.4,1,4.6,2.6,6.1l-2.3,4
		c-1.4-0.6-3-1-4.6-1.2V12c2.4-0.8,4.2-3.1,4.2-5.8c0-3.4-2.8-6.2-6.2-6.2c-3.4,0-6.2,2.8-6.2,6.2c0,2.7,1.8,5,4.2,5.8v23.3
		c-1.6,0.2-3.1,0.6-4.6,1.2l-8.3-14.3c1.1-1.2,1.8-2.8,1.8-4.6c0-3.8-3.1-6.8-6.8-6.8c-3.7,0-6.8,3.1-6.8,6.8s3.1,6.8,6.8,6.8
		c0.5,0,1-0.1,1.5-0.2l8.2,14.3c-1.3,1-2.4,2.1-3.4,3.4l-14.3-8.2c0.1-0.5,0.2-1,0.2-1.6c0-3.8-3.1-6.8-6.8-6.8
		c-3.7,0-6.8,3.1-6.8,6.8c0,3.8,3.1,6.8,6.8,6.8c1.8,0,3.4-0.7,4.6-1.8l14.3,8.2c-0.6,1.4-1,2.9-1.2,4.5h-5.6
		c-0.9-4.1-4.6-7.3-9-7.3c-5.1,0-9.2,4.1-9.2,9.2s4.1,9.2,9.2,9.2c4.4,0,8.1-3.1,9-7.2h5.6c0.2,1.6,0.6,3.1,1.2,4.6l-15.3,8.8
		c-1.3-1.3-3.1-2.1-5.1-2.1c-4,0-7.3,3.3-7.3,7.3c0,4,3.3,7.3,7.3,7.3c4,0,7.3-3.3,7.3-7.3c0-0.6-0.1-1.2-0.2-1.8l15.3-8.8
		c1,1.3,2.1,2.4,3.4,3.4L717.2,86c-0.5-0.1-1.1-0.2-1.7-0.2c-3.9,0-7.1,3.2-7.1,7.1c0,3.9,3.2,7.1,7.1,7.1s7.1-3.2,7.1-7.1
		c0-1.9-0.8-3.7-2-5l11.9-20.7c1.4,0.6,2.9,1,4.5,1.2V74c-3.6,0.9-6.2,4.1-6.2,8c0,4.5,3.7,8.2,8.2,8.2s8.2-3.7,8.2-8.2
		c0-3.8-2.7-7.1-6.2-8v-5.6c1.6-0.2,3.1-0.6,4.6-1.2l9.8,17c-1.3,1.3-2.1,3.1-2.1,5.1c0,4,3.3,7.3,7.3,7.3c4,0,7.3-3.3,7.3-7.3
		s-3.3-7.3-7.3-7.3c-0.6,0-1.2,0.1-1.8,0.2L749,65.2c1.3-0.9,2.4-2,3.3-3.3l1.8,1c-0.3,0.9-0.5,1.9-0.5,2.9c0,5.3,4.3,9.6,9.6,9.6
		s9.6-4.3,9.6-9.6c0-5.3-4.3-9.6-9.6-9.6c-2.8,0-5.3,1.2-7.1,3.2l-1.8-1c0.6-1.4,1-3,1.2-4.6h18.6c0.9,2.9,3.6,5,6.7,5
		c3.9,0,7-3.1,7-7C788,48,784.8,44.8,780.9,44.8z M780.9,55.7c-2.1,0-3.8-1.7-3.8-3.8c0-2.1,1.7-3.8,3.8-3.8c2.1,0,3.8,1.7,3.8,3.8
		C784.8,54,783.1,55.7,780.9,55.7z M739.1,64.6c-7,0-12.7-5.7-12.7-12.7s5.7-12.7,12.7-12.7s12.7,5.7,12.7,12.7
		S746.1,64.6,739.1,64.6z M767.7,32.4c0-2.8,2.3-5,5-5c2.8,0,5,2.3,5,5s-2.3,5-5,5C770,37.4,767.7,35.2,767.7,32.4z M759,26.4
		c0,2.9-2.4,5.3-5.3,5.3c-2.9,0-5.3-2.4-5.3-5.3s2.4-5.3,5.3-5.3C756.6,21.1,759,23.5,759,26.4z M736,6.2c0-1.7,1.3-3,3-3
		c1.7,0,3,1.3,3,3c0,1.7-1.3,3-3,3C737.4,9.2,736,7.8,736,6.2z M715.6,17.6c0-2,1.6-3.6,3.6-3.6c2,0,3.6,1.6,3.6,3.6
		c0,2-1.6,3.6-3.6,3.6C717.3,21.3,715.6,19.6,715.6,17.6z M704.8,35.7c-2,0-3.6-1.6-3.6-3.6c0-2,1.6-3.6,3.6-3.6s3.6,1.6,3.6,3.6
		C708.5,34.1,706.8,35.7,704.8,35.7z M707.9,57.8c-3.3,0-6-2.7-6-6c0-3.3,2.7-6,6-6c3.3,0,6,2.7,6,6
		C713.9,55.1,711.2,57.8,707.9,57.8z M707.5,72.4c0,2.3-1.9,4.1-4.1,4.1s-4.1-1.9-4.1-4.1c0-2.3,1.9-4.1,4.1-4.1
		S707.5,70.2,707.5,72.4z M719.4,92.9c0,2.2-1.8,3.9-3.9,3.9c-2.2,0-3.9-1.8-3.9-3.9s1.8-3.9,3.9-3.9
		C717.7,88.9,719.4,90.7,719.4,92.9z M739.1,87c-2.8,0-5-2.3-5-5s2.3-5,5-5c2.8,0,5,2.3,5,5S741.8,87,739.1,87z M764.8,89.3
		c0,2.3-1.9,4.1-4.1,4.1c-2.3,0-4.1-1.9-4.1-4.1s1.9-4.1,4.1-4.1C762.9,85.2,764.8,87,764.8,89.3z M763.2,59.5
		c3.5,0,6.4,2.9,6.4,6.4s-2.9,6.4-6.4,6.4c-3.5,0-6.4-2.9-6.4-6.4S759.7,59.5,763.2,59.5z"/>
</g>
</svg>
