<svg width="26" height="26" viewBox="0 0 26 26" fill="none" xmlns="http://www.w3.org/2000/svg">
<rect x="12.07" y="6.99703" width="1.8" height="5" rx="0.9" transform="rotate(89.766 12.07 6.99703)" fill="#9FA7B3"/>
<rect x="7" y="12" width="1.8" height="3" rx="0.9" transform="rotate(-90 7 12)" fill="#9FA7B3"/>
<path fill-rule="evenodd" clip-rule="evenodd" d="M19.94 9.67C19.9695 9.75763 19.9896 9.90813 20 10V11V13L18 11.5V11L16.5 9.5L13.75 6.75478L12 5H7C6.73478 5 6.48043 5.10536 6.29289 5.29289C6.10536 5.48043 6 5.73478 6 6V20C6 20.2652 6.10536 20.5196 6.29289 20.7071C6.48043 20.8946 6.73478 21 7 21H10L12 23H7C6.20435 23 5.44129 22.6839 4.87868 22.1213C4.31607 21.5587 4 20.7956 4 20V6C4 5.20435 4.31607 4.44129 4.87868 3.87868C5.44129 3.31607 6.20435 3 7 3H13.05C13.1662 3.01434 13.2784 3.05174 13.38 3.11C13.4099 3.10576 13.4402 3.10576 13.47 3.11C13.5728 3.15808 13.6673 3.22222 13.75 3.3L19 8.5C19.0778 8.58266 19.5 9 19.5 9C19.7194 9.25764 19.8209 9.4039 19.94 9.67Z" fill="#9FA7B3"/>
<rect x="14.5" y="14" width="1.5" height="5" rx="0.75" fill="#9FA7B3"/>
<rect x="18.25" y="17.5053" width="1.5" height="3.70824" rx="0.75" transform="rotate(89.766 18.25 17.5053)" fill="#9FA7B3"/>
<circle cx="15.5" cy="17.5" r="5.5" stroke="#9FA7B3" stroke-width="2"/>
</svg>
