<?xml version="1.0" encoding="utf-8"?>
<!-- Generator: Adobe Illustrator 18.1.1, SVG Export Plug-In . SVG Version: 6.00 Build 0)  -->
<svg version="1.1" id="Layer_1" xmlns="http://www.w3.org/2000/svg" xmlns:xlink="http://www.w3.org/1999/xlink" x="0px" y="0px"
	 viewBox="0 0 28 28" enable-background="new 0 0 28 28" xml:space="preserve">
<g>
	<g>
		<path fill="#999999" d="M17.5,20.6H3.1c-1.7,0-3.1-1.4-3.1-3.1V3.1C0,1.4,1.4,0,3.1,0h14.4c1.7,0,3.1,1.4,3.1,3.1v4.1
			c0.5,0.1,1.2,0.2,1.8,0.2V4.7l5.6,5.6l-5.6,5.6v-2.7c-0.6,0-1.4,0.1-1.8,0.2v4.1C20.6,19.2,19.2,20.6,17.5,20.6z M3.1,0.8
			c-1.2,0-2.3,1-2.3,2.3v14.4c0,1.2,1,2.3,2.3,2.3h14.4c1.2,0,2.3-1,2.3-2.3v-4.7l0.3-0.1c0.7-0.3,2.2-0.4,2.8-0.4c0,0,0,0,0.1,0
			l0.4,0l0,0.4v1.1l3.5-3.5l-3.5-3.5v1.5l-0.4,0c0,0,0,0-0.1,0c-0.5,0-2.1-0.1-2.8-0.4l-0.3-0.1V3.1c0-1.2-1-2.3-2.3-2.3H3.1z"/>
	</g>
	<path fill="#999999" d="M8.6,3.8C8.8,3.8,9,4,9,4.2v4.3C9,8.8,8.8,9,8.6,9H4.2C4,9,3.8,8.8,3.8,8.6V4.2C3.8,4,4,3.8,4.2,3.8H8.6
		 M8.6,2.8H4.2c-0.8,0-1.4,0.6-1.4,1.4v4.3c0,0.8,0.6,1.4,1.4,1.4h4.3C9.3,10,10,9.3,10,8.6V4.2C10,3.4,9.3,2.8,8.6,2.8L8.6,2.8z"/>
	<path fill="#999999" d="M16.4,3.8c0.2,0,0.4,0.2,0.4,0.4v4.3c0,0.2-0.2,0.4-0.4,0.4H12c-0.2,0-0.4-0.2-0.4-0.4V4.2
		c0-0.2,0.2-0.4,0.4-0.4H16.4 M16.4,2.8H12c-0.8,0-1.4,0.6-1.4,1.4v4.3c0,0.8,0.6,1.4,1.4,1.4h4.3c0.8,0,1.4-0.6,1.4-1.4V4.2
		C17.8,3.4,17.2,2.8,16.4,2.8L16.4,2.8z"/>
	<path fill="#999999" d="M8.6,11.6C8.8,11.6,9,11.7,9,12v4.3c0,0.2-0.2,0.4-0.4,0.4H4.2c-0.2,0-0.4-0.2-0.4-0.4V12
		c0-0.2,0.2-0.4,0.4-0.4H8.6 M8.6,10.6H4.2c-0.8,0-1.4,0.6-1.4,1.4v4.3c0,0.8,0.6,1.4,1.4,1.4h4.3c0.8,0,1.4-0.6,1.4-1.4V12
		C10,11.2,9.3,10.6,8.6,10.6L8.6,10.6z"/>
	<path fill="#999999" d="M16.4,11.6c0.2,0,0.4,0.2,0.4,0.4v4.3c0,0.2-0.2,0.4-0.4,0.4H12c-0.2,0-0.4-0.2-0.4-0.4V12
		c0-0.2,0.2-0.4,0.4-0.4H16.4 M16.4,10.6H12c-0.8,0-1.4,0.6-1.4,1.4v4.3c0,0.8,0.6,1.4,1.4,1.4h4.3c0.8,0,1.4-0.6,1.4-1.4V12
		C17.8,11.2,17.2,10.6,16.4,10.6L16.4,10.6z"/>
</g>
</svg>
