<svg width="47" height="47" viewBox="0 0 47 47" fill="none" xmlns="http://www.w3.org/2000/svg">
  <rect width="47" height="47" rx="4" fill="#CCCCDC" fill-opacity="0.14"/>
  <svg x="7.5" y="7.5" width="32" height="32" viewBox="0 0 187 137">
    <path fill-rule="evenodd" clip-rule="evenodd" d="M86.3103 38.4748C94.0617 28.0421 91.8881 13.3023 81.4561 5.55145C71.0242 -2.19938 56.2844 -0.0261269 48.533 10.4065C40.7824 20.8379 42.9559 35.5779 53.3878 43.3288C63.8198 51.0797 78.5598 48.9063 86.3103 38.4748ZM165.918 41.676C188.073 58.1374 192.907 89.1476 176.716 110.939C160.525 132.732 129.439 137.054 107.283 120.592C85.1286 104.131 80.2936 73.1205 96.4851 51.3282C112.676 29.5363 143.763 25.2151 165.918 41.676ZM61.6841 67.1622C78.7549 79.8457 82.3115 103.966 69.6279 121.037C56.9446 138.107 32.8245 141.664 15.7537 128.98C-1.31719 116.297 -4.87355 92.1765 7.80969 75.106C20.4933 58.0351 44.6132 54.4786 61.6841 67.1622Z" fill="url(#kg_grad)"/>
    <defs>
      <linearGradient id="kg_grad" x1="131.507" y1="-2.61116" x2="12.5321" y2="127.625" gradientUnits="userSpaceOnUse">
        <stop stop-color="#F55F3E"/>
        <stop offset="1" stop-color="#FF8833"/>
      </linearGradient>
    </defs>
  </svg>
</svg>
