<?xml version="1.0" encoding="iso-8859-1"?>
<!-- Generator: Adobe Illustrator 19.0.0, SVG Export Plug-In . SVG Version: 6.00 Build 0)  -->
<svg version="1.1" id="Layer_1" xmlns="http://www.w3.org/2000/svg" xmlns:xlink="http://www.w3.org/1999/xlink" x="0px" y="0px"
	 viewBox="0 0 512 512" style="enable-background:new 0 0 512 512;" xml:space="preserve">
<path style="fill:#FFDB56;" d="M146.186,209.127L28.486,76.528c-2.471-2.784-6.405-3.75-9.883-2.429
	c-3.479,1.321-5.779,4.655-5.779,8.378V503.04c0,4.95,4.011,8.961,8.961,8.961h117.701c4.949,0,8.961-4.011,8.961-8.961V215.075
	C148.445,212.883,147.641,210.767,146.186,209.127z"/>
<path style="fill:#FBA806;" d="M102.446,512h37.038c4.949,0,8.96-4.011,8.961-8.96V215.074c0-2.192-0.804-4.307-2.259-5.946
	l-43.74-49.276V512z"/>
<path style="fill:#F77935;" d="M262.867,340.575l-89.528-100.859l0,0l-3.87-4.36l-8.921-10.052l0,0l-30.022-33.823v23.593v20.334
	V512h134.603V346.524C265.126,344.331,264.322,342.215,262.867,340.575z"/>
<path style="fill:#D9510D;" d="M265.126,503.04V346.524c0-2.192-0.804-4.308-2.259-5.949l-34.184-38.51v209.935h27.481
	C261.114,512,265.126,507.988,265.126,503.04z"/>
<path style="fill:#894BA2;" d="M376.455,231.509c-3.255-1.433-7.043-0.806-9.662,1.591L257.121,333.499V512h115.722
	c4.95,0,8.961-4.011,8.961-8.961V239.711C381.804,236.158,379.705,232.942,376.455,231.509z"/>
<path style="fill:#763794;" d="M376.455,231.509c-3.255-1.433-7.043-0.806-9.662,1.591l-30.988,28.368V512h37.038
	c4.95,0,8.961-4.011,8.961-8.961V239.711C381.804,236.158,379.705,232.942,376.455,231.509z"/>
<path style="fill:#3FC8F2;" d="M495.89,351.006L379.205,233.399c-3.048-3.073-7.945-3.59-11.637-0.937
	c-2.386,1.716-3.685,4.574-3.685,7.512v272.025h125.645c4.949,0,8.961-4.012,8.961-8.961V357.317
	C498.488,354.954,497.554,352.684,495.89,351.006z"/>
<path style="fill:#0DAACE;" d="M498.488,503.04V357.317c0-2.364-0.934-4.633-2.6-6.311l-25.477-25.679V512h19.116
	C494.477,512,498.488,507.988,498.488,503.04z"/>
<path style="fill:#E93233;" d="M490.273,175.859c-0.02,0-0.038,0-0.059,0c-4.922,0-8.929,3.975-8.96,8.903l-0.078,12.183
	L379.203,94.165c-3.386-3.413-8.865-3.545-12.413-0.299L256.819,194.54L86.549,3.008c-3.289-3.699-8.951-4.032-12.652-0.743
	c-3.699,3.288-4.031,8.952-0.743,12.652l176.314,198.329c1.594,1.792,3.841,2.871,6.237,2.995c2.399,0.119,4.743-0.72,6.512-2.339
	l110.328-101.002l95.918,96.678l-12.098,0.076c-4.949,0.031-8.935,4.068-8.904,9.018c0.031,4.93,4.037,8.903,8.96,8.903
	c0.019,0,0.038,0,0.059,0l33.582-0.213c4.903-0.031,8.872-4,8.904-8.903l0.213-33.58
	C499.209,179.927,495.222,175.891,490.273,175.859z"/>
<g>
</g>
<g>
</g>
<g>
</g>
<g>
</g>
<g>
</g>
<g>
</g>
<g>
</g>
<g>
</g>
<g>
</g>
<g>
</g>
<g>
</g>
<g>
</g>
<g>
</g>
<g>
</g>
<g>
</g>
</svg>
