<?xml version="1.0" encoding="utf-8"?>
<!-- Generator: Adobe Illustrator 18.1.1, SVG Export Plug-In . SVG Version: 6.00 Build 0)  -->
<!DOCTYPE svg PUBLIC "-//W3C//DTD SVG 1.1//EN" "http://www.w3.org/Graphics/SVG/1.1/DTD/svg11.dtd">
<svg version="1.1" id="Layer_1" xmlns="http://www.w3.org/2000/svg" xmlns:xlink="http://www.w3.org/1999/xlink" x="0px" y="0px"
	 width="97.2px" height="14.2px" viewBox="0 0 97.2 14.2" enable-background="new 0 0 97.2 14.2" xml:space="preserve">
<g>
	<rect x="2" y="12.3" fill="#EC2128" width="7.9" height="0.5"/>
	<polygon fill="#EC2128" points="10,9.9 5.3,9.9 5.3,9.9 2,9.9 2,11.1 10,11.1 	"/>
	<rect x="2" y="0.6" fill="#EC2128" width="3.3" height="6.5"/>
	<rect x="2" y="7.4" fill="#EC2128" width="3.3" height="1.8"/>
	<rect x="11.1" y="0.6" fill="#EC2128" width="3.3" height="6.5"/>
	<rect x="11.1" y="7.4" fill="#EC2128" width="3.3" height="1.8"/>
	<rect x="11.1" y="12.3" fill="#EC2128" width="3.3" height="0.5"/>
	<rect x="11.1" y="9.9" fill="#EC2128" width="3.3" height="1.3"/>
	<rect x="18.4" y="12.3" fill="#EC2128" width="3.3" height="0.5"/>
	<rect x="18.4" y="9.9" fill="#EC2128" width="3.3" height="1.3"/>
	<polygon fill="#EC2128" points="21.7,3.3 24.6,3.3 24.6,0.6 15.4,0.6 15.4,3.3 18.4,3.3 18.4,7.2 21.7,7.2 	"/>
	<rect x="18.4" y="7.4" fill="#EC2128" width="3.3" height="1.8"/>
	<polygon fill="#EC2128" points="32.5,9.2 32,7.4 29.4,7.4 29.9,9.2 	"/>
	<polygon fill="#EC2128" points="35.1,9.2 35.6,7.4 33.1,7.4 32.6,9.2 	"/>
	<path fill="#EC2128" d="M28.6,9.2V7.5c0,0,0-0.1,0-0.1h-2.9v1.8H28.6z"/>
	<path fill="#EC2128" d="M36.5,9.2h3V7.4h-3c0,0,0,0,0,0V9.2z"/>
	<path fill="#EC2128" d="M28.4,4L28.4,4l1,3.2h2.6L30,0.6h-4.4v6.5h2.9C28.5,6.4,28.5,5.3,28.4,4z"/>
	<path fill="#EC2128" d="M36.5,4.1L36.5,4.1c0,1.3,0,2.1,0,2.5c0,0.2,0,0.4,0,0.7h3V0.6h-4.4l-1.9,6.5h2.4L36.5,4.1z"/>
	<polygon fill="#EC2128" points="34.5,11.1 34.9,9.9 30.1,9.9 30.5,11.1 	"/>
	<rect x="36.5" y="9.9" fill="#EC2128" width="3" height="1.3"/>
	<rect x="25.7" y="9.9" fill="#EC2128" width="2.9" height="1.3"/>
	<polygon fill="#EC2128" points="30.9,12.8 34.1,12.8 34.2,12.3 30.8,12.3 	"/>
	<rect x="25.7" y="12.3" fill="#EC2128" width="2.9" height="0.5"/>
	<rect x="36.5" y="12.3" fill="#EC2128" width="3" height="0.5"/>
	<path fill="#EC2128" d="M48.3,9.2h3.4c0.1-0.4,0.1-0.8,0.1-1.2V7.4h-3.3v0.3C48.5,8.3,48.5,8.8,48.3,9.2z"/>
	<path fill="#EC2128" d="M41.5,9.2h3.4c-0.1-0.4-0.2-0.8-0.2-1.4V7.4h-3.3V8C41.4,8.4,41.5,8.8,41.5,9.2z"/>
	<rect x="48.5" y="0.6" fill="#EC2128" width="3.3" height="6.5"/>
	<rect x="41.4" y="0.6" fill="#EC2128" width="3.3" height="6.5"/>
	<path fill="#EC2128" d="M50.9,11.1c0.3-0.4,0.5-0.8,0.6-1.3h-3.7c-0.3,0.2-0.7,0.3-1.2,0.3c-0.5,0-0.9-0.1-1.2-0.3h-3.8
		c0.1,0.5,0.4,0.9,0.6,1.3H50.9z"/>
	<path fill="#EC2128" d="M46.6,12.9c1.2,0,2.1-0.2,2.9-0.6h-5.8C44.5,12.7,45.4,12.9,46.6,12.9z"/>
	<path fill="#EC2128" d="M56.3,7.8c0.9,0.4,1.4,0.7,1.6,0.8c0.2,0.1,0.3,0.3,0.4,0.4c0.1,0.1,0.1,0.1,0.1,0.2h3.3c0,0,0,0,0-0.1
		c0-0.6-0.1-1.2-0.4-1.7h-5.8C55.7,7.5,56,7.7,56.3,7.8z"/>
	<path fill="#EC2128" d="M61.1,7.1c-0.4-0.5-1.1-1-2.2-1.5c-1.1-0.5-1.8-0.8-2-1c-0.2-0.2-0.4-0.4-0.4-0.6c0-0.2,0.1-0.4,0.3-0.6
		c0.2-0.1,0.5-0.2,0.9-0.2c0.8,0,1.8,0.3,2.9,0.8l1-2.5c-1.3-0.6-2.6-0.9-3.8-0.9c-1.4,0-2.5,0.3-3.4,0.9C53.7,2,53.3,2.9,53.3,4
		c0,0.6,0.1,1.1,0.3,1.6c0.2,0.4,0.5,0.8,0.9,1.2c0.2,0.1,0.4,0.3,0.6,0.5h6.1C61.2,7.1,61.1,7.1,61.1,7.1z"/>
	<path fill="#EC2128" d="M54.9,12.8c0.5,0.1,1.2,0.2,2,0.2c1,0,1.8-0.2,2.5-0.5c0.1,0,0.2-0.1,0.3-0.1h-6.2
		C54,12.5,54.5,12.7,54.9,12.8z"/>
	<path fill="#EC2128" d="M58.1,10c-0.2,0.2-0.6,0.3-1.1,0.3c-0.6,0-1.2-0.1-1.9-0.3c-0.2,0-0.3-0.1-0.5-0.1h-1.5v1.3h7.9
		c0,0,0,0,0,0c0.2-0.4,0.4-0.8,0.5-1.2h-3.4C58.2,9.9,58.2,10,58.1,10z"/>
</g>
<text transform="matrix(1 0 0 1 64.2177 13.007)" fill="#666666" font-family="'MAvantGardeGothicPS-Demi'" font-size="4">by</text>
<g>
	<path fill="#EC2128" d="M73.6,9.1C73.5,9,73.2,9,73,9c-0.7,0-0.9,0.4-1.1,0.6h0V9.1h-1.1V13H72v-2.1c0-0.2,0-0.8,0.7-0.8
		c0,0,0,0,0,0C72.9,9.7,73.3,9.3,73.6,9.1z"/>
	<path fill="#EC2128" d="M75.8,9.5L75.8,9.5C75.7,9.3,75.3,9,74.7,9c-1,0-2,0.8-2,2.1c0,1.1,0.7,2.1,2,2.1c0.5,0,0.9-0.2,1.1-0.6h0
		V13H77V9.1h-1.2V9.5z M74.8,12.1c-0.7,0-1-0.6-1-1c0-0.4,0.3-1,1-1c0.7,0,1,0.5,1,1C75.8,11.5,75.6,12.1,74.8,12.1z"/>
	<rect x="77.2" y="9.1" fill="#EC2128" width="1.2" height="3.9"/>
	<rect x="77.2" y="7.8" fill="#EC2128" width="1.2" height="0.9"/>
	<path fill="#EC2128" d="M85.1,9.1h-1.2V7.8h-1.2v1.3h-1c0,0,0.1,0.1,0.1,0.1c0.2,0.1,0.4,0.4,0.4,0.8h0.5v3h1.2v-3h0.4
		C84.5,9.6,84.8,9.3,85.1,9.1z"/>
	<path fill="#EC2128" d="M87.4,9.5L87.4,9.5C87.2,9.3,86.9,9,86.2,9c-1,0-2,0.8-2,2.1c0,1.1,0.7,2.1,2,2.1c0.5,0,0.9-0.2,1.1-0.6h0
		V13h1.2V9.1h-1.2L87.4,9.5L87.4,9.5z M86.4,12.1c-0.7,0-1-0.6-1-1c0-0.4,0.3-1,1-1c0.7,0,1,0.5,1,1C87.4,11.5,87.1,12.1,86.4,12.1z
		"/>
	<path fill="#EC2128" d="M91.9,9.3c-0.2-0.2-0.6-0.3-1-0.3c-0.7,0-0.9,0.4-1.1,0.6h0V9.1h-1.1V13h1.2v-2.1c0-0.2,0-0.8,0.7-0.8
		c0.6,0,0.6,0.5,0.6,0.8V13h1.2v-2.4C92.4,9.8,92.1,9.5,91.9,9.3z"/>
	<polygon fill="#EC2128" points="96.2,9.1 94.8,9.1 93.7,10.5 93.7,10.5 93.7,7.8 92.5,7.8 92.5,13 93.7,13 93.7,11.1 93.7,11.1 
		94.8,13 96.2,13 94.7,10.8 	"/>
	<path fill="#EC2128" d="M81.7,9.3C81.5,9.1,81,9,80.7,9c-0.7,0-0.9,0.4-1.1,0.6h0V9.1h-1.1V13h1.2v-2.1c0-0.2,0-0.8,0.7-0.8
		c0.6,0,0.6,0.5,0.6,0.8V13h1.2v-2.4C82.1,9.8,81.9,9.5,81.7,9.3z"/>
</g>
</svg>
