<!--LOGZ.IO GRAFANA CHANGE :: Add datasource logos-->
<svg width="44" height="12" viewBox="0 0 44 12" fill="none" xmlns="http://www.w3.org/2000/svg">
  <path d="M11.3496 7.81641H15.2227V9H9.86719V0.46875H11.3496V7.81641ZM15.9551 5.77148C15.9551 5.15039 16.0781 4.5918 16.3242 4.0957C16.5703 3.5957 16.916 3.21289 17.3613 2.94727C17.8066 2.67773 18.3184 2.54297 18.8965 2.54297C19.752 2.54297 20.4453 2.81836 20.9766 3.36914C21.5117 3.91992 21.8008 4.65039 21.8438 5.56055L21.8496 5.89453C21.8496 6.51953 21.7285 7.07812 21.4863 7.57031C21.248 8.0625 20.9043 8.4434 20.4551 8.7129C20.0098 8.9824 19.4941 9.1172 18.9082 9.1172C18.0137 9.1172 17.2969 8.8203 16.7578 8.2266C16.2227 7.62891 15.9551 6.83398 15.9551 5.8418V5.77148ZM17.3789 5.89453C17.3789 6.54688 17.5137 7.05859 17.7832 7.42969C18.0527 7.79688 18.4277 7.98047 18.9082 7.98047C19.3887 7.98047 19.7617 7.79297 20.0273 7.41797C20.2969 7.04297 20.4316 6.49414 20.4316 5.77148C20.4316 5.13086 20.293 4.62305 20.0156 4.24805C19.7422 3.87305 19.3691 3.68555 18.8965 3.68555C18.4316 3.68555 18.0625 3.87109 17.7891 4.24219C17.5156 4.60938 17.3789 5.16016 17.3789 5.89453ZM22.8047 5.7832C22.8047 4.79883 23.0352 4.01367 23.4961 3.42773C23.9609 2.83789 24.5762 2.54297 25.3418 2.54297C26.0645 2.54297 26.6328 2.79492 27.0469 3.29883L27.1113 2.66016H28.3945V8.8066C28.3945 9.6387 28.1348 10.2949 27.6152 10.7754C27.0996 11.2559 26.4023 11.4961 25.5234 11.4961C25.0586 11.4961 24.6035 11.3984 24.1582 11.2031C23.7168 11.0117 23.3809 10.7598 23.1504 10.4473L23.8242 9.5918C24.2617 10.1113 24.8008 10.3711 25.4414 10.3711C25.9141 10.3711 26.2871 10.2422 26.5605 9.9844C26.834 9.7305 26.9707 9.3555 26.9707 8.8594V8.4316C26.5605 8.8887 26.0137 9.1172 25.3301 9.1172C24.5879 9.1172 23.9805 8.8223 23.5078 8.2324C23.0391 7.64258 22.8047 6.82617 22.8047 5.7832ZM24.2227 5.90625C24.2227 6.54297 24.3516 7.04492 24.6094 7.41211C24.8711 7.77539 25.2324 7.95703 25.6934 7.95703C26.2676 7.95703 26.6934 7.71094 26.9707 7.21875V4.42969C26.7012 3.94922 26.2793 3.70898 25.7051 3.70898C25.2363 3.70898 24.8711 3.89453 24.6094 4.26562C24.3516 4.63672 24.2227 5.18359 24.2227 5.90625ZM33.416 7.27734C33.416 7.02344 33.3105 6.83008 33.0996 6.69727C32.8926 6.56445 32.5469 6.44727 32.0625 6.3457C31.5781 6.24414 31.1738 6.11523 30.8496 5.95898C30.1387 5.61523 29.7832 5.11719 29.7832 4.46484C29.7832 3.91797 30.0137 3.46094 30.4746 3.09375C30.9355 2.72656 31.5215 2.54297 32.2324 2.54297C32.9902 2.54297 33.6016 2.73047 34.0664 3.10547C34.5352 3.48047 34.7695 3.9668 34.7695 4.56445H33.3457C33.3457 4.29102 33.2441 4.06445 33.041 3.88477C32.8379 3.70117 32.5684 3.60938 32.2324 3.60938C31.9199 3.60938 31.6641 3.68164 31.4648 3.82617C31.2695 3.9707 31.1719 4.16406 31.1719 4.40625C31.1719 4.625 31.2637 4.79492 31.4473 4.91602C31.6309 5.03711 32.002 5.16016 32.5605 5.28516C33.1191 5.40625 33.5566 5.55273 33.873 5.72461C34.1934 5.89258 34.4297 6.0957 34.582 6.33398C34.7383 6.57227 34.8164 6.86133 34.8164 7.20117C34.8164 7.77148 34.5801 8.2344 34.1074 8.5898C33.6348 8.9414 33.0156 9.1172 32.25 9.1172C31.7305 9.1172 31.2676 9.0234 30.8613 8.8359C30.4551 8.6484 30.1387 8.3906 29.9121 8.0625C29.6855 7.73438 29.5723 7.38086 29.5723 7.00195H30.9551C30.9746 7.33789 31.1016 7.59766 31.3359 7.78125C31.5703 7.96094 31.8809 8.0508 32.2676 8.0508C32.6426 8.0508 32.9277 7.98047 33.123 7.83984C33.3184 7.69531 33.416 7.50781 33.416 7.27734Z" fill="#75D5FF"/>
</svg>
