<?xml version="1.0" encoding="utf-8"?>
<!-- Generator: Adobe Illustrator 18.1.1, SVG Export Plug-In . SVG Version: 6.00 Build 0)  -->
<svg version="1.1" id="Layer_1" xmlns="http://www.w3.org/2000/svg" xmlns:xlink="http://www.w3.org/1999/xlink" x="0px" y="0px"
	 viewBox="0 0 70 70" enable-background="new 0 0 70 70" xml:space="preserve">
<g>
	<path fill="#666766" d="M63.9,8.9C60,5,54.8,2.8,49.3,2.8c-5.4,0-10.4,2-14.3,5.7c-3.9-3.7-8.9-5.7-14.3-5.7C15.2,2.8,10,5,6.1,8.9
		C2.2,12.8,0,18,0,23.6s2.2,10.7,6.1,14.7L35,67.2l28.9-28.9c3.9-3.9,6.1-9.1,6.1-14.7S67.8,12.8,63.9,8.9z M62,36.3l-27,27l-27-27
		c-3.4-3.4-5.3-7.9-5.3-12.8S4.6,14.2,8,10.8c3.4-3.4,7.9-5.3,12.8-5.3s9.4,1.9,12.8,5.3l1.5,1.5l1.5-1.5c3.4-3.4,7.9-5.3,12.8-5.3
		c4.8,0,9.4,1.9,12.8,5.3c3.4,3.4,5.3,7.9,5.3,12.8S65.4,32.9,62,36.3z"/>
	<path fill="#666766" d="M49.3,10.9c-3.4,0-6.6,1.3-9,3.7l-1.5,1.5L36.9,18L35,19.9L33.1,18l-1.9-1.9l-1.5-1.5
		c-2.4-2.4-5.6-3.7-9-3.7c-3.4,0-6.6,1.3-9,3.7c-2.4,2.4-3.7,5.6-3.7,9c0,3.4,1.3,6.6,3.7,9L35,55.8l23.2-23.2
		c2.4-2.4,3.7-5.6,3.7-9c0-3.4-1.3-6.6-3.7-9C55.8,12.2,52.6,10.9,49.3,10.9z M37.3,44.3c-0.4,0.4-1,0.6-1.7,0.6
		c-0.8,0-1.4-0.2-1.8-0.6s-0.6-1-0.6-1.7c0-0.8,0.2-1.3,0.6-1.7c0.4-0.4,1-0.6,1.8-0.6c0.8,0,1.3,0.2,1.8,0.6c0.4,0.4,0.6,1,0.6,1.7
		C38,43.3,37.7,43.9,37.3,44.3z M41.8,31.8c-0.5,0.7-1.3,1.5-2.6,2.5c-0.9,0.6-1.4,1.1-1.7,1.5c-0.2,0.3-0.3,0.8-0.3,1.3v0.8h-3.6
		v-1c0-0.9,0.2-1.6,0.6-2.3c0.4-0.6,1.1-1.3,2.1-2.1c1-0.7,1.6-1.2,1.9-1.7c0.3-0.4,0.5-0.9,0.5-1.4c0-0.6-0.2-1-0.7-1.4
		c-0.4-0.3-1-0.5-1.8-0.5c-1.4,0-2.9,0.4-4.7,1.3l-1.5-3c2-1.1,4.2-1.7,6.5-1.7c1.9,0,3.4,0.5,4.5,1.4c1.1,0.9,1.7,2.1,1.7,3.6
		C42.5,30.2,42.3,31.1,41.8,31.8z"/>
</g>
</svg>
