<?xml version="1.0" encoding="utf-8"?>
<!-- Generator: Adobe Illustrator 19.1.0, SVG Export Plug-In . SVG Version: 6.00 Build 0)  -->
<svg version="1.1" baseProfile="tiny" id="Layer_1" xmlns="http://www.w3.org/2000/svg" xmlns:xlink="http://www.w3.org/1999/xlink"
	 x="0px" y="0px" width="70px" height="70px" viewBox="15 -15 70 70" xml:space="preserve">
<path fill="#01A64F" d="M50,52.2l-28.9-29C17.2,19.3,15,14.1,15,8.6s2.2-10.8,6.1-14.7s9.1-6.1,14.6-6.1c5.4,0,10.4,2,14.3,5.7
	c3.9-3.7,8.9-5.7,14.3-5.7c5.5,0,10.7,2.2,14.6,6.1S85,3,85,8.6s-2.2,10.7-6.1,14.7L50,52.2z M35.7-9.5c-4.8,0-9.4,1.9-12.8,5.3
	s-5.3,7.9-5.3,12.8s2,9.3,5.4,12.7l27,27l27-27c3.4-3.4,5.3-7.9,5.3-12.8S80.4-0.9,77-4.3c-3.4-3.4-7.9-5.3-12.8-5.3
	c-4.8,0-9.4,1.9-12.8,5.3L50-2.7l-1.5-1.5C45.1-7.6,40.6-9.5,35.7-9.5z"/>
<path fill="#01A64F" d="M73.2-0.4c-2.4-2.4-5.6-3.7-9-3.7c-3.4,0-6.6,1.3-9,3.7l-1.5,1.5L51.9,3L50,4.9L48.1,3l-1.9-1.9l-1.5-1.5
	c-2.4-2.4-5.6-3.7-9-3.7c-3.4,0-6.6,1.3-9,3.7S23,5.2,23,8.6s1.3,6.6,3.7,9L50,40.8l23.2-23.2c2.4-2.4,3.7-5.6,3.7-9
	S75.6,2,73.2-0.4z"/>
</svg>
