<svg width="97" height="56" viewBox="0 0 97 56" fill="none" xmlns="http://www.w3.org/2000/svg">
<path fill-rule="evenodd" clip-rule="evenodd" d="M9 1C5.13401 1 2 4.13401 2 8.00001V37.2C2 41.066 5.134 44.2 8.99999 44.2H88.6C88.7408 44.2 88.8806 44.1958 89.0193 44.1876L89.1 44.3L95.5 54.5V38.3857C95.5657 38.0003 95.6 37.6042 95.6 37.2V8C95.6 4.13401 92.466 1 88.6 1H9Z" fill="#F05A28"/>
<path d="M25.695 25.1452C25.695 26.5192 25.4558 27.7258 24.9773 28.7648C24.5056 29.8039 23.8288 30.6037 22.947 31.1642C22.0652 31.7248 21.0466 32.0051 19.8913 32.0051C18.1482 32.0051 16.74 31.383 15.6667 30.1389C14.5935 28.8879 14.0569 27.2028 14.0569 25.0837V23.5456C14.0569 22.1852 14.2961 20.9821 14.7746 19.9362C15.26 18.8835 15.9436 18.0768 16.8254 17.5163C17.7072 16.9489 18.7224 16.6652 19.8708 16.6652C21.0193 16.6652 22.031 16.9421 22.906 17.4958C23.7878 18.0495 24.468 18.8322 24.9465 19.8439C25.425 20.8557 25.6745 22.028 25.695 23.361V25.1452ZM24.4338 23.5251C24.4338 21.7272 24.0271 20.319 23.2136 19.3005C22.4001 18.2819 21.2859 17.7726 19.8708 17.7726C18.4831 17.7726 17.3757 18.2853 16.5485 19.3107C15.7282 20.3293 15.3181 21.7546 15.3181 23.5866V25.1452C15.3181 26.9157 15.7282 28.3205 16.5485 29.3596C17.3689 30.3918 18.4831 30.9079 19.8913 30.9079C21.32 30.9079 22.4343 30.3986 23.2341 29.3801C24.0339 28.3547 24.4338 26.9294 24.4338 25.1042V23.5251ZM43.5819 25.1452C43.5819 26.5192 43.3427 27.7258 42.8642 28.7648C42.3925 29.8039 41.7157 30.6037 40.8339 31.1642C39.9521 31.7248 38.9335 32.0051 37.7782 32.0051C36.0351 32.0051 34.6269 31.383 33.5536 30.1389C32.4804 28.8879 31.9438 27.2028 31.9438 25.0837V23.5456C31.9438 22.1852 32.183 20.9821 32.6615 19.9362C33.1469 18.8835 33.8305 18.0768 34.7123 17.5163C35.5942 16.9489 36.6093 16.6652 37.7577 16.6652C38.9062 16.6652 39.9179 16.9421 40.7929 17.4958C41.6747 18.0495 42.3549 18.8322 42.8334 19.8439C43.3119 20.8557 43.5614 22.028 43.5819 23.361V25.1452ZM42.3207 23.5251C42.3207 21.7272 41.914 20.319 41.1005 19.3005C40.287 18.2819 39.1728 17.7726 37.7577 17.7726C36.37 17.7726 35.2626 18.2853 34.4355 19.3107C33.6152 20.3293 33.205 21.7546 33.205 23.5866V25.1452C33.205 26.9157 33.6152 28.3205 34.4355 29.3596C35.2558 30.3918 36.37 30.9079 37.7782 30.9079C39.2069 30.9079 40.3212 30.3986 41.121 29.3801C41.9208 28.3547 42.3207 26.9294 42.3207 25.1042V23.5251ZM51.6969 25.7194V31.8H50.4357V16.8703H55.5216C57.0734 16.8703 58.297 17.2668 59.1925 18.0598C60.0948 18.8527 60.546 19.9431 60.546 21.3307C60.546 22.7321 60.1119 23.8156 59.2438 24.5812C58.3824 25.34 57.1315 25.7194 55.4908 25.7194H51.6969ZM51.6969 24.653H55.5216C56.7452 24.653 57.6783 24.3625 58.3209 23.7814C58.9635 23.2004 59.2848 22.3903 59.2848 21.3513C59.2848 20.319 58.9635 19.4987 58.3209 18.8903C57.6852 18.2751 56.7794 17.9606 55.6036 17.947H51.6969V24.653ZM75.5003 28.1291C75.5003 27.3019 75.2098 26.6491 74.6287 26.1706C74.0477 25.6852 72.9847 25.2272 71.4398 24.7966C69.8948 24.3591 68.7669 23.884 68.056 23.3713C67.0443 22.6467 66.5384 21.6965 66.5384 20.5207C66.5384 19.3791 67.0067 18.4528 67.9432 17.7419C68.8865 17.0241 70.0897 16.6652 71.5526 16.6652C72.5438 16.6652 73.429 16.8566 74.2083 17.2394C74.9944 17.6223 75.6028 18.1555 76.0335 18.8391C76.4642 19.5226 76.6795 20.2849 76.6795 21.1257H75.408C75.408 20.1071 75.0594 19.2902 74.3621 18.675C73.6649 18.0529 72.7283 17.7419 71.5526 17.7419C70.411 17.7419 69.5018 17.9982 68.825 18.5109C68.1483 19.0168 67.8099 19.6799 67.8099 20.5002C67.8099 21.259 68.1141 21.8776 68.7225 22.3561C69.3309 22.8347 70.305 23.2585 71.6448 23.6276C72.9847 23.9899 73.9998 24.3693 74.6903 24.7658C75.3807 25.1555 75.9002 25.6237 76.2488 26.1706C76.5975 26.7175 76.7718 27.3635 76.7718 28.1086C76.7718 29.2844 76.3001 30.2277 75.3568 30.9387C74.4202 31.6496 73.1829 32.0051 71.6448 32.0051C70.5921 32.0051 69.6248 31.8171 68.743 31.4411C67.868 31.0651 67.2015 30.5388 66.7435 29.862C66.2923 29.1852 66.0667 28.4094 66.0667 27.5344H67.3279C67.3279 28.5871 67.721 29.4177 68.5071 30.0261C69.2933 30.6345 70.3392 30.9387 71.6448 30.9387C72.8069 30.9387 73.7401 30.6823 74.4442 30.1696C75.1483 29.6569 75.5003 28.9767 75.5003 28.1291ZM84.1997 27.6472H83.0615L83 16.8703H84.2715L84.1997 27.6472ZM82.8565 31.0822C82.8565 30.8498 82.9317 30.655 83.082 30.4977C83.2324 30.3337 83.4375 30.2516 83.6973 30.2516C83.957 30.2516 84.1621 30.3337 84.3125 30.4977C84.4697 30.655 84.5484 30.8498 84.5484 31.0822C84.5484 31.3078 84.4697 31.4992 84.3125 31.6564C84.1621 31.8068 83.957 31.882 83.6973 31.882C83.4375 31.882 83.2324 31.8068 83.082 31.6564C82.9317 31.4992 82.8565 31.3078 82.8565 31.0822Z" fill="white"/>
</svg>