<svg width="180" height="155" viewBox="0 0 180 155" fill="none" xmlns="http://www.w3.org/2000/svg">
<path d="M146.326 97.5456C165.421 85.0641 171.669 59.6045 160.113 39.5944C154.323 29.5574 144.964 22.3694 133.767 19.3679C123.393 16.5828 112.557 17.7217 103.021 22.5397L90 0L62.9722 46.8108L0.500977 155H179.499L146.326 97.5456ZM130.705 30.8347C138.844 33.0024 145.617 38.2285 149.835 45.5052C158.127 59.8493 153.819 78.0428 140.373 87.2318L108.967 32.8428C115.733 29.5894 123.364 28.8798 130.705 30.8347ZM90 23.7566L158.914 143.118H118.592L69.8302 58.6891L89.9964 23.7602L90 23.7566ZM21.0858 143.118L62.9686 70.5923L104.851 143.118H21.0858Z" fill="url(#paint0_linear_10938_713)"/>
<defs>
<linearGradient id="paint0_linear_10938_713" x1="21.9981" y1="142.5" x2="161.498" y2="65.9999" gradientUnits="userSpaceOnUse">
<stop stop-color="#FC3519"/>
<stop offset="1" stop-color="#F0D136"/>
</linearGradient>
</defs>
</svg>
