<svg xmlns="http://www.w3.org/2000/svg" xmlns:xlink="http://www.w3.org/1999/xlink" id="Layer_1" width="150" height="150" x="0" style="enable-background:new 0 0 150 150" y="0" version="1.1" viewBox="0 0 150 150" xml:space="preserve"><style type="text/css">.st0{fill:#666}</style><polygon points="44 0 150 106 150 99.9 50.1 0" class="st0"/><polygon points="0 10.6 139.4 150 140.8 150 0 9.2" class="st0"/><polygon points="26.6 0 150 123.4 150 119.6 30.4 0" class="st0"/><polygon points="0 30.4 119.6 150 123.4 150 0 26.6" class="st0"/><polygon points="9.2 0 150 140.8 150 139.4 10.6 0" class="st0"/><polygon points="0 109.5 40.5 150 53.7 150 0 96.3" class="st0"/><polygon points="0 129.3 20.7 150 36.3 150 0 113.7" class="st0"/><polygon points="0 89.8 60.2 150 71.1 150 0 78.9" class="st0"/><polygon points="0 70 80 150 88.6 150 0 61.4" class="st0"/><polygon points="0 50.2 99.8 150 106 150 0 44" class="st0"/><polygon points="0 150 18.9 150 0 131.1" class="st0"/><polygon points="150 0 131.1 0 150 18.9" class="st0"/><polygon points="129.3 0 113.6 0 150 36.4 150 20.7" class="st0"/><polygon points="78.8 0 150 71.2 150 60.3 89.7 0" class="st0"/><polygon points="61.4 0 150 88.6 150 80.1 69.9 0" class="st0"/><polygon points="96.2 0 150 53.8 150 40.5 109.5 0" class="st0"/></svg>