<?xml version="1.0" encoding="utf-8"?>
<!-- Generator: Adobe Illustrator 18.1.1, SVG Export Plug-In . SVG Version: 6.00 Build 0)  -->
<svg version="1.1" id="Layer_1" xmlns="http://www.w3.org/2000/svg" xmlns:xlink="http://www.w3.org/1999/xlink" x="0px" y="0px"
	 viewBox="0 0 42 42" enable-background="new 0 0 42 42" xml:space="preserve">
<g>
	<path fill="#999999" d="M33.8,16.2v-4.3C33.8,5.4,28.5,0,21.9,0S9.9,5.4,9.9,11.9v4.3c-2.5,0.7-4.3,3-4.3,5.6v14.2
		c0,3.2,2.6,5.9,5.9,5.9h20.8c3.2,0,5.9-2.6,5.9-5.9V21.9C38.1,19.2,36.3,16.9,33.8,16.2z M25.6,16h-7.4v-4.1c0-2,1.7-3.7,3.7-3.7
		s3.7,1.7,3.7,3.7V16z M24.3,32.1h-4.8l0.6-4.1c-0.4-0.4-0.6-1-0.6-1.6c0-1.3,1.1-2.4,2.4-2.4c1.3,0,2.4,1.1,2.4,2.4
		c0,0.6-0.2,1.2-0.6,1.6L24.3,32.1z"/>
</g>
</svg>
