<svg width="352" height="129" viewBox="0 0 352 129" fill="none" xmlns="http://www.w3.org/2000/svg">
    <g clip-path="url(#clip0_463_9219)">
        <path d="M85.4592 59.8311C85.3277 58.4941 85.1085 56.9598 84.6701 55.2503C84.2318 53.5626 83.5742 51.6996 82.6099 49.7708C81.6455 47.842 80.3962 45.8475 78.7742 43.8968C78.1386 43.1297 77.4372 42.3845 76.692 41.6612C77.8099 37.2119 75.3331 33.3544 75.3331 33.3544C71.0592 33.0914 68.3414 34.6914 67.3331 35.4146C67.1578 35.3489 67.0044 35.2612 66.829 35.1955C66.1057 34.9105 65.3605 34.6256 64.5715 34.3845C63.8044 34.1434 63.0153 33.9242 62.2044 33.727C61.3934 33.5297 60.5825 33.3763 59.7496 33.2448C59.5962 33.2229 59.4646 33.2009 59.3112 33.179C57.4482 27.2174 52.1003 24.7188 52.1003 24.7188C46.1167 28.5105 44.9989 33.8146 44.9989 33.8146C44.9989 33.8146 44.977 33.9242 44.9331 34.1215C44.6044 34.2092 44.2756 34.3187 43.9468 34.4064C43.4866 34.5379 43.0263 34.7133 42.5879 34.8886C42.1277 35.064 41.6893 35.2393 41.229 35.4366C40.3304 35.8311 39.4318 36.2694 38.5551 36.7516C37.7003 37.2338 36.8674 37.7598 36.0564 38.3078C35.9468 38.264 35.8373 38.2201 35.8373 38.2201C27.5523 35.064 20.2099 38.8557 20.2099 38.8557C19.5304 47.6667 23.5194 53.2119 24.3085 54.2201C24.1112 54.7681 23.9359 55.316 23.7605 55.864C23.1468 57.8585 22.6866 59.8968 22.4016 62.0229C22.3578 62.3297 22.314 62.6366 22.292 62.9434C14.6208 66.7352 12.3633 74.4722 12.3633 74.4722C18.7414 81.8146 26.1934 82.2749 26.1934 82.2749L26.2153 82.253C27.1578 83.9407 28.2537 85.5407 29.4811 87.053C30.0071 87.6886 30.5331 88.2804 31.103 88.8722C28.7797 95.5352 31.4318 101.058 31.4318 101.058C38.5331 101.321 43.2016 97.9461 44.1879 97.179C44.8893 97.4201 45.6126 97.6393 46.3359 97.8146C48.5277 98.3845 50.7633 98.7133 52.9989 98.8009C53.5468 98.8229 54.1167 98.8448 54.6646 98.8229H54.9277H55.103H55.4537L55.8044 98.8009V98.8229C59.1578 103.601 65.0318 104.28 65.0318 104.28C69.2181 99.8749 69.4592 95.4913 69.4592 94.5489C69.4592 94.5489 69.4592 94.527 69.4592 94.4831C69.4592 94.3955 69.4592 94.3516 69.4592 94.3516C69.4592 94.2859 69.4592 94.2201 69.4592 94.1544C70.3359 93.5407 71.1688 92.8831 71.9578 92.1598C73.6236 90.6475 75.092 88.916 76.3194 87.053C76.429 86.8776 76.5386 86.7023 76.6482 86.527C81.3825 86.79 84.7359 83.59 84.7359 83.59C83.9468 78.6585 81.1414 76.2475 80.5496 75.7872C80.5496 75.7872 80.5277 75.7653 80.4838 75.7434C80.44 75.7215 80.44 75.6996 80.44 75.6996C80.4181 75.6777 80.3742 75.6557 80.3304 75.6338C80.3523 75.327 80.3742 75.042 80.3961 74.7352C80.44 74.2092 80.44 73.6612 80.44 73.1352V72.7407V72.5434V72.4338C80.44 72.3023 80.44 72.3461 80.44 72.3023L80.4181 71.9735L80.3961 71.5352C80.3961 71.3818 80.3742 71.2503 80.3523 71.1187C80.3304 70.9872 80.3304 70.8338 80.3085 70.7023L80.2646 70.2859L80.1989 69.8694C80.1112 69.3215 80.0236 68.7955 79.892 68.2475C79.3879 66.1215 78.5551 64.105 77.4811 62.2859C76.3852 60.4667 75.0263 58.8667 73.4701 57.5078C71.9359 56.1489 70.2044 55.053 68.4071 54.242C66.5879 53.4311 64.703 52.9051 62.8181 52.664C61.8756 52.5324 60.9331 52.4886 59.9907 52.5105H59.64H59.5523C59.5304 52.5105 59.4208 52.5105 59.4427 52.5105H59.2893L58.9386 52.5324C58.8071 52.5324 58.6756 52.5544 58.566 52.5544C58.0838 52.5982 57.6016 52.664 57.1414 52.7516C55.2564 53.1023 53.4811 53.7818 51.9249 54.7242C50.3688 55.6667 49.0099 56.8283 47.914 58.1434C46.8181 59.4585 45.9633 60.927 45.3715 62.4393C44.7797 63.9516 44.451 65.5297 44.3633 67.042C44.3414 67.4146 44.3414 67.8092 44.3414 68.1818C44.3414 68.2694 44.3414 68.379 44.3414 68.4667L44.3633 68.7735C44.3852 68.9489 44.3852 69.1461 44.4071 69.3215C44.4729 70.0886 44.6263 70.8338 44.8236 71.5352C45.24 72.9598 45.8975 74.253 46.7085 75.3489C47.5194 76.4448 48.5057 77.3434 49.5359 78.0667C50.566 78.7681 51.6838 79.2722 52.7797 79.6009C53.8756 79.9297 54.9715 80.0612 56.0016 80.0612C56.1331 80.0612 56.2647 80.0612 56.3742 80.0612C56.44 80.0612 56.5057 80.0612 56.5715 80.0612C56.6373 80.0612 56.703 80.0612 56.7688 80.0393C56.8783 80.0393 56.9879 80.0174 57.0975 80.0174C57.1194 80.0174 57.1633 80.0174 57.1852 79.9955L57.2948 79.9735C57.3605 79.9735 57.4263 79.9516 57.492 79.9516C57.6236 79.9297 57.7331 79.9078 57.8647 79.8859C57.9962 79.8639 58.1057 79.842 58.2153 79.7982C58.4564 79.7544 58.6756 79.6667 58.8948 79.6009C59.3331 79.4475 59.7715 79.2722 60.1441 79.0749C60.5386 78.8777 60.8893 78.6366 61.24 78.4174C61.3277 78.3516 61.4373 78.2859 61.5249 78.1982C61.8756 77.9133 61.9414 77.3872 61.6564 77.0366C61.4153 76.7297 60.977 76.642 60.6263 76.8393C60.5386 76.8831 60.451 76.927 60.3633 76.9708C60.0564 77.1242 59.7496 77.2557 59.4208 77.3653C59.092 77.4749 58.7414 77.5626 58.3907 77.6283C58.2153 77.6503 58.04 77.6722 57.8427 77.6941C57.7551 77.6941 57.6674 77.716 57.5578 77.716C57.4701 77.716 57.3605 77.716 57.2948 77.716C57.2071 77.716 57.1194 77.716 57.0318 77.716C56.9222 77.716 56.8126 77.716 56.703 77.6941C56.703 77.6941 56.6372 77.6941 56.6811 77.6941H56.6372H56.5715C56.5277 77.6941 56.4619 77.6941 56.4181 77.6722C56.3085 77.6503 56.2208 77.6503 56.1112 77.6283C55.3003 77.5187 54.4893 77.2776 53.7222 76.927C52.9331 76.5763 52.1879 76.0941 51.5085 75.4804C50.829 74.8667 50.2373 74.1434 49.777 73.3105C49.3167 72.4776 48.9879 71.5571 48.8345 70.5927C48.7688 70.1105 48.7249 69.6064 48.7468 69.1242C48.7468 68.9927 48.7688 68.8612 48.7688 68.7297C48.7688 68.7735 48.7688 68.7078 48.7688 68.7078V68.664V68.5544C48.7688 68.4886 48.7907 68.4229 48.7907 68.3571C48.8126 68.0941 48.8564 67.8311 48.9003 67.5681C49.2729 65.464 50.3249 63.4037 51.9468 61.8475C52.3633 61.453 52.8016 61.1023 53.2619 60.7735C53.7222 60.4448 54.2263 60.1598 54.7523 59.9187C55.2783 59.6777 55.8044 59.4804 56.3742 59.327C56.9222 59.1735 57.4921 59.0859 58.0838 59.0201C58.3688 58.9982 58.6537 58.9763 58.9605 58.9763C59.0482 58.9763 59.092 58.9763 59.1578 58.9763H59.3989H59.5523C59.6181 58.9763 59.5523 58.9763 59.5742 58.9763H59.64L59.8811 58.9982C60.5167 59.042 61.1304 59.1297 61.7441 59.2831C62.9715 59.5461 64.177 60.0064 65.2948 60.6201C67.5304 61.8694 69.4373 63.7982 70.5989 66.1215C71.1907 67.2831 71.6071 68.5324 71.8044 69.8256C71.8482 70.1544 71.892 70.4831 71.914 70.8119L71.9359 71.053L71.9578 71.2941C71.9578 71.3818 71.9578 71.4694 71.9578 71.5352C71.9578 71.6229 71.9578 71.7105 71.9578 71.7763V71.9955V72.2366C71.9578 72.39 71.9359 72.653 71.9359 72.8064C71.914 73.1571 71.8701 73.5297 71.8263 73.8804C71.7825 74.2311 71.7167 74.5818 71.6509 74.9324C71.5852 75.2831 71.4975 75.6338 71.4099 75.9626C71.2345 76.642 71.0153 77.3215 70.7523 78.0009C70.2263 79.316 69.5249 80.5872 68.692 81.7489C67.0044 84.0722 64.703 85.9571 62.0729 87.1626C60.7578 87.7544 59.377 88.1927 57.9523 88.4119C57.2509 88.5434 56.5277 88.6092 55.8044 88.6311H55.6729H55.5633H55.3222H54.9715H54.7962C54.8838 88.6311 54.7742 88.6311 54.7742 88.6311H54.7085C54.314 88.6311 53.9414 88.6092 53.5468 88.5653C52.0126 88.4557 50.5003 88.1708 49.0099 87.7544C47.5414 87.3379 46.1167 86.7461 44.7578 86.0448C42.0619 84.5982 39.629 82.6256 37.7441 80.2366C36.8016 79.053 35.9688 77.7598 35.2893 76.4229C34.6099 75.0859 34.0619 73.6612 33.6674 72.2366C33.2729 70.79 33.0318 69.3215 32.9222 67.8311L32.9003 67.5461V67.4804V67.4146V67.2831V67.042V66.9763V66.8886V66.7133V66.3626V66.2968C32.9003 66.2968 32.9003 66.3187 32.9003 66.2749V66.1434C32.9003 65.9681 32.9003 65.7708 32.9003 65.5955C32.9222 64.8722 32.9879 64.105 33.0756 63.3598C33.1633 62.6146 33.2948 61.8475 33.4482 61.1023C33.6016 60.3571 33.777 59.6119 33.9962 58.8667C34.4126 57.3982 34.9386 55.9735 35.5523 54.6366C36.8016 51.9626 38.4236 49.5735 40.3742 47.6667C40.8564 47.1845 41.3605 46.7461 41.8866 46.3078C42.4126 45.8913 42.9605 45.4968 43.5304 45.1242C44.0783 44.7516 44.6701 44.4229 45.2619 44.116C45.5468 43.9626 45.8537 43.8092 46.1605 43.6777C46.314 43.6119 46.4674 43.5461 46.6208 43.4804C46.7742 43.4146 46.9277 43.3489 47.0811 43.2831C47.6948 43.0201 48.3304 42.8009 48.9879 42.6037C49.1414 42.5598 49.3167 42.516 49.4701 42.4503C49.6236 42.4064 49.7989 42.3626 49.9523 42.3187C50.2811 42.2311 50.6099 42.1434 50.9386 42.0777C51.092 42.0338 51.2674 42.0119 51.4427 41.9681C51.6181 41.9242 51.7715 41.9023 51.9468 41.8585C52.1222 41.8366 52.2756 41.7927 52.4509 41.7708L52.692 41.727L52.9551 41.6831C53.1304 41.6612 53.2838 41.6393 53.4592 41.6174C53.6564 41.5955 53.8318 41.5735 54.029 41.5516C54.1825 41.5297 54.4455 41.5078 54.5989 41.4859C54.7085 41.464 54.84 41.464 54.9496 41.442L55.1907 41.4201L55.3003 41.3982H55.4318C55.629 41.3763 55.8044 41.3763 56.0016 41.3544L56.2866 41.3324C56.2866 41.3324 56.3962 41.3324 56.3085 41.3324H56.3742H56.5057C56.6592 41.3324 56.8345 41.3105 56.9879 41.3105C57.6236 41.2886 58.2811 41.2886 58.9167 41.3105C60.1879 41.3544 61.4372 41.5078 62.6427 41.727C65.0756 42.1872 67.3551 42.9544 69.4373 43.9845C71.5194 44.9927 73.3605 46.242 74.9825 47.6009C75.092 47.6886 75.1797 47.7763 75.2893 47.864C75.377 47.9516 75.4866 48.0393 75.5742 48.127C75.7715 48.3023 75.9468 48.4777 76.1441 48.653C76.3414 48.8283 76.5167 49.0037 76.692 49.179C76.8674 49.3544 77.0427 49.5297 77.2181 49.727C77.8975 50.4503 78.5331 51.1735 79.103 51.9187C80.2427 53.3872 81.1633 54.8777 81.8866 56.2804C81.9304 56.3681 81.9742 56.4557 82.0181 56.5434C82.0619 56.6311 82.1057 56.7187 82.1496 56.8064C82.2373 56.9818 82.3249 57.1571 82.3907 57.3324C82.4783 57.5078 82.5441 57.6612 82.6318 57.8366C82.6975 58.0119 82.7852 58.1653 82.8509 58.3407C83.114 58.9982 83.377 59.6338 83.5742 60.2256C83.903 61.19 84.1441 62.0448 84.3414 62.79C84.4071 63.0968 84.692 63.2941 84.9989 63.2503C85.3277 63.2283 85.5688 62.9653 85.5688 62.6366C85.5907 61.8475 85.5688 60.905 85.4592 59.8311Z"
              fill="#CCCCDC" fill-opacity="0.65"/>
    </g>
    <path d="M112 52.5L132 64.047L132 40.953L112 52.5ZM208 50.5L130 50.5L130 54.5L208 54.5L208 50.5Z" fill="#CCCCDC"
          fill-opacity="0.65"/>
    <path d="M208 76.5L188 64.953L188 88.047L208 76.5ZM190 74.5L112 74.5L112 78.5L190 78.5L190 74.5Z" fill="#CCCCDC"
          fill-opacity="0.65"/>
    <path d="M322.239 49.6189C318.977 42.1299 313.348 35.9175 306.217 31.9344C299.085 27.9512 290.843 26.4171 282.756 27.5673C274.669 28.7174 267.182 32.4883 261.443 38.3019C255.705 44.1154 252.031 51.6506 250.986 59.7522C245.901 60.9699 241.441 64.0127 238.451 68.3026C235.462 72.5924 234.152 77.8308 234.771 83.0227C235.39 88.2146 237.893 92.9986 241.807 96.4661C245.72 99.9337 250.771 101.843 255.999 101.832H314.666C321.063 101.815 327.24 99.4983 332.071 95.3057C336.902 91.1132 340.065 85.3238 340.983 78.9935C341.901 72.6631 340.513 66.2137 337.073 60.8213C333.632 55.429 328.367 51.4531 322.239 49.6189ZM314.666 91.1655H255.999C253.17 91.1655 250.457 90.0417 248.457 88.0413C246.457 86.041 245.333 83.3279 245.333 80.4989C245.333 77.6699 246.457 74.9568 248.457 72.9564C250.457 70.956 253.17 69.8322 255.999 69.8322C257.414 69.8322 258.77 69.2703 259.771 68.2701C260.771 67.2699 261.333 65.9134 261.333 64.4989C261.346 58.191 263.596 52.0922 267.681 47.286C271.766 42.4797 277.423 39.2773 283.646 38.2475C289.869 37.2178 296.256 38.4274 301.672 41.6616C307.087 44.8957 311.181 49.945 313.226 55.9122C313.539 56.8188 314.09 57.6242 314.823 58.2436C315.555 58.8631 316.44 59.2737 317.386 59.4322C321.295 60.1536 324.796 62.3044 327.206 65.4656C329.617 68.6269 330.764 72.5722 330.424 76.533C330.085 80.4938 328.283 84.1863 325.37 86.8913C322.457 89.5963 318.641 91.12 314.666 91.1655Z"
          fill="#CCCCDC" fill-opacity="0.65"/>
    <defs>
        <clipPath id="clip0_463_9219">
            <rect width="80" height="80" fill="white" transform="translate(8 24.5)"/>
        </clipPath>
    </defs>
</svg>
