<?xml version="1.0" encoding="utf-8"?>
<!-- Generator: Adobe Illustrator 18.1.1, SVG Export Plug-In . SVG Version: 6.00 Build 0)  -->
<svg version="1.1" id="Layer_1" xmlns="http://www.w3.org/2000/svg" xmlns:xlink="http://www.w3.org/1999/xlink" x="0px" y="0px"
	 viewBox="0 0 42 42" enable-background="new 0 0 42 42" xml:space="preserve">
<g>
	<path fill="#13B2D3" d="M21,0C9.4,0,0,9.4,0,21s9.4,21,21,21s21-9.4,21-21S32.6,0,21,0z M26,16.4c-0.1,0-0.2,0-0.3,0
		c-4.2,0-4.2,3.6-4.2,5.1v13.2h-7.3V10.3H21v2.6h0.1c0.7-1.2,2.3-3.4,6.6-3.4c1.3,0,2.6,0.3,3.8,0.7C29.1,11.6,27.2,13.7,26,16.4z"
		/>
</g>
</svg>
