<?xml version="1.0" encoding="utf-8"?>
<!-- Generator: Adobe Illustrator 18.1.1, SVG Export Plug-In . SVG Version: 6.00 Build 0)  -->
<svg version="1.1" id="Layer_1" xmlns="http://www.w3.org/2000/svg" xmlns:xlink="http://www.w3.org/1999/xlink" x="0px" y="0px"
	 viewBox="0 0 150 32" enable-background="new 0 0 150 32" xml:space="preserve">
<path fill="#FFFFFF" d="M17.1,7.8c-1.1-0.4-2.4-0.7-3.6-0.7c-4.1,0-5.6,2.1-6.3,3.3H7.1V7.8H0.6V31h6.9V18.4c0-1.4,0-4.8,4-4.8
	c0.1,0,0.2,0,0.3,0C12.9,11.1,14.7,9,17.1,7.8z"/>
<path fill="#FFFFFF" d="M29.9,10.3L29.9,10.3c-0.9-1.4-3-3.3-6.8-3.3c-6.2,0-11.7,4.8-11.7,12.4c0,6.6,4.3,12.4,11.7,12.4
	c2.7,0,5.6-1,6.8-3.3h0.1V31h6.9V7.8h-6.9V10.3z M24.1,25.4c-4.2,0-5.8-3.7-5.8-5.8c0-2.6,1.8-6,5.7-6c3.9,0,5.8,3.1,5.8,5.9
	C29.9,21.7,28.5,25.4,24.1,25.4z"/>
<rect x="37.9" y="7.8" fill="#FFFFFF" width="6.9" height="23.2"/>
<rect x="37.9" y="0.1" fill="#FFFFFF" width="6.9" height="5.3"/>
<path fill="#FFFFFF" d="M84.9,7.8h-7.3V0.1h-6.9v7.7h-6.2c0.3,0.2,0.6,0.4,0.8,0.6c1,0.9,2.1,2.2,2.6,4.7h2.7V31h6.9V13.1h2.5
	C81.2,10.9,82.8,9.1,84.9,7.8z"/>
<path fill="#FFFFFF" d="M98.3,10.3L98.3,10.3c-0.9-1.4-3-3.3-6.8-3.3c-6.2,0-11.7,4.8-11.7,12.4c0,6.6,4.3,12.4,11.7,12.4
	c2.7,0,5.6-1,6.8-3.3h0.1V31h6.9V7.8h-6.9V10.3z M92.5,25.4c-4.2,0-5.8-3.7-5.8-5.8c0-2.6,1.8-6,5.7-6c3.9,0,5.8,3.1,5.8,5.9
	C98.3,21.7,96.8,25.4,92.5,25.4z"/>
<path fill="#FFFFFF" d="M125.1,9.1c-1.3-1.1-3.7-2-5.9-2c-4.1,0-5.6,2.1-6.3,3.3h-0.1V7.8h-6.5V31h6.9V18.4c0-1.4,0-4.8,4-4.8
	c3.6,0,3.6,3.2,3.6,4.8V31h6.9V16.5C127.7,12,126.3,10.1,125.1,9.1z"/>
<polygon fill="#FFFFFF" points="150.4,7.8 142.1,7.8 135.7,16.2 135.6,16.2 135.6,0.1 128.7,0.1 128.7,31 135.6,31 135.6,19.9 
	135.7,19.9 142.3,31 150.1,31 141.6,18 "/>
<path fill="#FFFFFF" d="M64.5,9.1c-1.3-1.1-3.7-2-5.9-2c-4.1,0-5.6,2.1-6.3,3.3h-0.1V7.8h-6.5V31h6.9V18.4c0-1.4,0-4.8,4-4.8
	c3.6,0,3.6,3.2,3.6,4.8V31h6.9V16.5C67.2,12,65.8,10.1,64.5,9.1z"/>
</svg>
