<?xml version="1.0" encoding="utf-8"?>
<!-- Generator: Adobe Illustrator 18.1.1, SVG Export Plug-In . SVG Version: 6.00 Build 0)  -->
<svg version="1.1" id="Layer_1" xmlns="http://www.w3.org/2000/svg" xmlns:xlink="http://www.w3.org/1999/xlink" x="0px" y="0px"
	 viewBox="0 0 42 42" enable-background="new 0 0 42 42" xml:space="preserve">
<circle fill="#FFFFFF" cx="21.1" cy="21.4" r="17.9"/>
<g>
	<path d="M21,1C10,1,1,10,1,21s9,20,20,20c11,0,20-9,20-20S32,1,21,1z M25.8,16.6c-0.1,0-0.2,0-0.3,0c-4,0-4,3.4-4,4.8V34h-6.9V10.8
		h6.5v2.5h0.1c0.7-1.1,2.2-3.3,6.3-3.3c1.2,0,2.5,0.3,3.6,0.7C28.7,12,26.9,14.1,25.8,16.6z"/>
</g>
</svg>
