<?xml version="1.0" encoding="utf-8"?>
<!-- Generator: Adobe Illustrator 18.1.1, SVG Export Plug-In . SVG Version: 6.00 Build 0)  -->
<svg version="1.1" id="Layer_1" xmlns="http://www.w3.org/2000/svg" xmlns:xlink="http://www.w3.org/1999/xlink" x="0px" y="0px"
	 viewBox="0 0 42 42" enable-background="new 0 0 42 42" xml:space="preserve">
<g>
	<path fill="#FFFFFF" d="M21,26.5c8.8,0,16.3-3.6,16.3-7.8h0v-5.8c-2.7,3.3-8.9,5.5-16.3,5.5c-7.4,0-13.6-2.2-16.3-5.5v5.8
		C4.7,22.9,12.2,26.5,21,26.5z"/>
	<path fill="#FFFFFF" d="M21,32.7c-7,0-12.9-2-15.8-5C7,31,13.5,33.6,21,33.6c7.5,0,14-2.6,15.8-5.9C33.9,30.6,28,32.7,21,32.7z"/>
	<path fill="#FFFFFF" d="M21,17.1c8.8,0,16.3-3.6,16.3-7.8S29.8,1.5,21,1.5S4.7,5.1,4.7,9.3S12.2,17.1,21,17.1z"/>
	<path fill="#FFFFFF" d="M5.2,30C7,33.4,13.5,36,21,36c7.5,0,14-2.6,15.8-5.9c-2.9,3-8.8,5-15.8,5C14,35,8.1,33,5.2,30z"/>
	<path fill="#FFFFFF" d="M21,30.3c-7,0-12.9-2-15.8-5c1.8,3.4,8.3,5.9,15.8,5.9c7.5,0,14-2.6,15.8-5.9C33.9,28.3,28,30.3,21,30.3z"
		/>
	<path fill="#FFFFFF" d="M21,39.7c-7,0-12.9-2-15.8-5c1.8,3.4,8.3,5.9,15.8,5.9c7.5,0,14-2.6,15.8-5.9C33.9,37.7,28,39.7,21,39.7z"
		/>
	<path fill="#FFFFFF" d="M21,38.3c7.5,0,14-2.6,15.8-5.9c-2.9,3-8.8,5-15.8,5c-7,0-12.9-2-15.8-5C7,35.7,13.5,38.3,21,38.3z"/>
	<path fill="#FFFFFF" d="M21,27.9c-7,0-12.9-2-15.8-5c1.8,3.4,8.3,5.9,15.8,5.9c7.5,0,14-2.6,15.8-5.9C33.9,25.9,28,27.9,21,27.9z"
		/>
	<path fill="#FFFFFF" d="M38.7,9.3c0-5.2-7.8-9.2-17.7-9.2c-9.9,0-17.7,4-17.7,9.2v23.6c0,5.2,7.8,9.2,17.7,9.2
		c9.9,0,17.7-4,17.7-9.2h0L38.7,9.3L38.7,9.3z M21,1.5c8.8,0,16.3,3.6,16.3,7.8s-7.5,7.8-16.3,7.8S4.7,13.5,4.7,9.3S12.2,1.5,21,1.5
		z M4.7,13c2.7,3.3,8.9,5.5,16.3,5.5c7.4,0,13.6-2.3,16.3-5.5v5.8h0c0,4.2-7.5,7.8-16.3,7.8S4.7,22.9,4.7,18.7V13z M21,33.6
		c-7.5,0-14-2.6-15.8-5.9c2.9,3,8.8,5,15.8,5c7,0,12.9-2,15.8-5C35,31,28.5,33.6,21,33.6z M36.8,30C35,33.4,28.5,36,21,36
		C13.5,36,7,33.4,5.2,30c2.9,3,8.8,5,15.8,5C28,35,33.9,33,36.8,30z M21,31.2c-7.5,0-14-2.6-15.8-5.9c2.9,3,8.8,5,15.8,5
		c7,0,12.9-2,15.8-5C35,28.7,28.5,31.2,21,31.2z M21,28.9c-7.5,0-14-2.6-15.8-5.9c2.9,3,8.8,5,15.8,5c7,0,12.9-2,15.8-5
		C35,26.3,28.5,28.9,21,28.9z M21,37.4c7,0,12.9-2,15.8-5c-1.8,3.4-8.3,5.9-15.8,5.9c-7.5,0-14-2.6-15.8-5.9
		C8.1,35.4,14,37.4,21,37.4z M21,40.7c-7.5,0-14-2.6-15.8-5.9c2.9,3,8.8,5,15.8,5c7,0,12.9-2,15.8-5C35,38.1,28.5,40.7,21,40.7z"/>
</g>
</svg>
