<?xml version="1.0" encoding="utf-8"?>
<!-- Generator: Adobe Illustrator 18.1.1, SVG Export Plug-In . SVG Version: 6.00 Build 0)  -->
<svg version="1.1" id="Layer_1" xmlns="http://www.w3.org/2000/svg" xmlns:xlink="http://www.w3.org/1999/xlink" x="0px" y="0px"
	 width="34px" height="34px" viewBox="0 0 34 34" enable-background="new 0 0 34 34" xml:space="preserve">
<g>
	<path fill="#07B2D4" d="M17,0C7.6,0,0,7.6,0,17s7.6,17,17,17c9.4,0,17-7.6,17-17S26.4,0,17,0z"/>
</g>
<path fill="#FFFFFF" d="M24.5,10.8c-0.2-0.2-0.4-0.3-0.7-0.3c-0.2,0-0.3,0.1-0.5,0.2l-9.9,8.5L11,16.3c-0.2-0.2-0.4-0.4-0.8-0.4
	c-0.2,0-0.3,0.1-0.4,0.2l-1.3,1.1C8.2,17.5,8,18,8.4,18.4l3,3.6l1.1,1.3c0.2,0.2,0.4,0.3,0.7,0.3c0.2,0,0.3-0.1,0.5-0.2l11.8-10.1
	c0.3-0.3,0.4-0.9,0.1-1.2L24.5,10.8z"/>
</svg>
