<?xml version="1.0" encoding="utf-8"?>
<!-- Generator: Adobe Illustrator 18.1.1, SVG Export Plug-In . SVG Version: 6.00 Build 0)  -->
<svg version="1.1" id="Layer_1" xmlns="http://www.w3.org/2000/svg" xmlns:xlink="http://www.w3.org/1999/xlink" x="0px" y="0px"
	 viewBox="0 0 42 42" enable-background="new 0 0 42 42" xml:space="preserve">
<g>
	<g>
		<path fill="#FFFFFF" d="M16.1,20.3H4c-2.2,0-4-1.8-4-4V4.3c0-2.2,1.8-4,4-4h12.1c2.2,0,4,1.8,4,4v12.1
			C20.1,18.5,18.3,20.3,16.1,20.3z M4,1.9c-1.3,0-2.4,1.1-2.4,2.4v12.1c0,1.3,1.1,2.4,2.4,2.4h12.1c1.3,0,2.4-1.1,2.4-2.4V4.3
			c0-1.3-1.1-2.4-2.4-2.4H4z"/>
	</g>
	<g>
		<path fill="#FFFFFF" d="M38,20.3H25.9c-2.2,0-4-1.8-4-4V4.3c0-2.2,1.8-4,4-4H38c2.2,0,4,1.8,4,4v12.1C42,18.5,40.2,20.3,38,20.3z
			 M25.9,1.9c-1.3,0-2.4,1.1-2.4,2.4v12.1c0,1.3,1.1,2.4,2.4,2.4H38c1.3,0,2.4-1.1,2.4-2.4V4.3c0-1.3-1.1-2.4-2.4-2.4H25.9z"/>
	</g>
	<g>
		<path fill="#FFFFFF" d="M16.1,41.8H4c-2.2,0-4-1.8-4-4V25.7c0-2.2,1.8-4,4-4h12.1c2.2,0,4,1.8,4,4v12.1
			C20.1,40,18.3,41.8,16.1,41.8z M4,23.3c-1.3,0-2.4,1.1-2.4,2.4v12.1c0,1.3,1.1,2.4,2.4,2.4h12.1c1.3,0,2.4-1.1,2.4-2.4V25.7
			c0-1.3-1.1-2.4-2.4-2.4H4z"/>
	</g>
	<g>
		<path fill="#FFFFFF" d="M38,41.8H25.9c-2.2,0-4-1.8-4-4V25.7c0-2.2,1.8-4,4-4H38c2.2,0,4,1.8,4,4v12.1C42,40,40.2,41.8,38,41.8z
			 M25.9,23.3c-1.3,0-2.4,1.1-2.4,2.4v12.1c0,1.3,1.1,2.4,2.4,2.4H38c1.3,0,2.4-1.1,2.4-2.4V25.7c0-1.3-1.1-2.4-2.4-2.4H25.9z"/>
	</g>
</g>
</svg>