<?xml version="1.0" encoding="utf-8"?>
<!-- Generator: Adobe Illustrator 18.1.1, SVG Export Plug-In . SVG Version: 6.00 Build 0)  -->
<svg version="1.1" id="Layer_1" xmlns="http://www.w3.org/2000/svg" xmlns:xlink="http://www.w3.org/1999/xlink" x="0px" y="0px"
	 viewBox="0 0 612 792" enable-background="new 0 0 612 792" xml:space="preserve">
<g>
	<circle fill="#333333" cx="84.5" cy="174.5" r="21.9"/>
	<circle fill="#333333" cx="141.3" cy="174.5" r="21.9"/>
	<rect x="81.6" y="318.8" fill="#333333" width="440.1" height="24.8"/>
	<rect x="298.7" y="380" fill="#333333" width="221.5" height="24.8"/>
	<rect x="298.7" y="567.9" fill="#333333" width="221.5" height="24.8"/>
	<rect x="298.7" y="505.3" fill="#333333" width="221.5" height="24.8"/>
	<rect x="298.7" y="442.6" fill="#333333" width="221.5" height="24.8"/>
	<path fill="#333333" d="M81.6,591.3h155.9V380H81.6V591.3z M104.9,404.7h107.8v161.7H104.9V404.7z"/>
	<path fill="#333333" d="M501.3,90H110.7C49.5,90,0,139.5,0,200.7v390.5C0,652.5,49.5,702,110.7,702h390.5
		c61.2,0,110.7-49.5,110.7-110.7V200.7C612,139.5,562.5,90,501.3,90z M501.3,677.2H110.7c-48.1,0-86-37.9-86-86V200.7
		c0-48.1,37.9-86,86-86h390.5c48.1,0,86,37.9,86,86v21.9H24.8v24.8h562.5v343.9C587.2,639.3,549.3,677.2,501.3,677.2z"/>
</g>
</svg>
