<?xml version="1.0" encoding="utf-8"?>
<!-- Generator: Adobe Illustrator 18.1.1, SVG Export Plug-In . SVG Version: 6.00 Build 0)  -->
<svg version="1.1" id="Layer_1" xmlns="http://www.w3.org/2000/svg" xmlns:xlink="http://www.w3.org/1999/xlink" x="0px" y="0px"
	 viewBox="0 0 42 42" enable-background="new 0 0 42 42" xml:space="preserve">
<g>
	<circle fill="#FFFFFF" cx="5.8" cy="5.8" r="1.5"/>
	<circle fill="#FFFFFF" cx="9.7" cy="5.8" r="1.5"/>
	<rect x="5.6" y="15.7" fill="#FFFFFF" width="30.2" height="1.7"/>
	<rect x="20.5" y="19.9" fill="#FFFFFF" width="15.2" height="1.7"/>
	<rect x="20.5" y="32.8" fill="#FFFFFF" width="15.2" height="1.7"/>
	<rect x="20.5" y="28.5" fill="#FFFFFF" width="15.2" height="1.7"/>
	<rect x="20.5" y="24.2" fill="#FFFFFF" width="15.2" height="1.7"/>
	<path fill="#FFFFFF" d="M5.6,34.4h10.7V19.9H5.6V34.4z M7.2,21.6h7.4v11.1H7.2V21.6z"/>
	<path fill="#FFFFFF" d="M34.4,0H7.6C3.4,0,0,3.4,0,7.6v26.8C0,38.6,3.4,42,7.6,42h26.8c4.2,0,7.6-3.4,7.6-7.6V7.6
		C42,3.4,38.6,0,34.4,0z M34.4,40.3H7.6c-3.3,0-5.9-2.6-5.9-5.9V7.6c0-3.3,2.6-5.9,5.9-5.9h26.8c3.3,0,5.9,2.6,5.9,5.9v1.5H1.7v1.7
		h38.6v23.6C40.3,37.7,37.7,40.3,34.4,40.3z"/>
</g>
</svg>
