<?xml version="1.0" encoding="utf-8"?>
<!-- Generator: Adobe Illustrator 18.1.1, SVG Export Plug-In . SVG Version: 6.00 Build 0)  -->
<!DOCTYPE svg PUBLIC "-//W3C//DTD SVG 1.1//EN" "http://www.w3.org/Graphics/SVG/1.1/DTD/svg11.dtd">
<svg version="1.1" id="Layer_1" xmlns="http://www.w3.org/2000/svg" xmlns:xlink="http://www.w3.org/1999/xlink" x="0px" y="0px"
	 viewBox="307.7 217.7 176.6 176.6" enable-background="new 307.7 217.7 176.6 176.6" xml:space="preserve">
<g>
	<g>
		<path fill="#07B0D2" d="M396,394.2c-47.9,0-86.9-39-86.9-86.9c0-29.5,14.8-56.7,39.5-72.8c0.4-0.2,0.9-0.1,1.1,0.2
			c0.2,0.4,0.1,0.9-0.2,1.1c-24.3,15.8-38.7,42.5-38.7,71.5c0,47,38.3,85.3,85.3,85.3s85.3-38.3,85.3-85.3S443,222,396,222
			c-0.5,0-0.8-0.4-0.8-0.8s0.4-0.8,0.8-0.8c47.9,0,86.9,39,86.9,86.9S443.9,394.2,396,394.2z"/>
	</g>
	<g>
		<path fill="#676767" d="M358.4,241.2c-6.4,0-11.7-5.2-11.7-11.7c0-6.4,5.2-11.7,11.7-11.7c6.4,0,11.7,5.2,11.7,11.7
			C370.1,235.9,364.9,241.2,358.4,241.2z M358.4,219.5c-5.5,0-10,4.5-10,10c0,5.5,4.5,10,10,10c5.5,0,10-4.5,10-10
			C368.5,224,364,219.5,358.4,219.5z"/>
	</g>
	<g>
		<circle fill="#07B0D2" cx="358.4" cy="229.5" r="7.5"/>
	</g>
</g>
</svg>
