<?xml version="1.0" encoding="utf-8"?>
<!-- Generator: Adobe Illustrator 18.1.1, SVG Export Plug-In . SVG Version: 6.00 Build 0)  -->
<!DOCTYPE svg PUBLIC "-//W3C//DTD SVG 1.1//EN" "http://www.w3.org/Graphics/SVG/1.1/DTD/svg11.dtd">
<svg version="1.1" id="Layer_1" xmlns="http://www.w3.org/2000/svg" xmlns:xlink="http://www.w3.org/1999/xlink" x="0px" y="0px"
	 viewBox="307.7 217.7 176.6 176.6" enable-background="new 307.7 217.7 176.6 176.6" xml:space="preserve">
<g>
	<path fill="#676767" d="M466,306c0-38.6-31.4-70-70-70c-27.4,0-51.2,15.8-62.7,38.8c-3,6.1-5.2,12.6-6.4,19.6
		c-0.6,3.8-1,7.7-1,11.6c0,38.6,31.4,70,70,70C434.6,376,466,344.6,466,306z M332.2,306c0-2.4,0.1-4.7,0.4-7c2.5,2,4.9,4.5,4.9,7
		c0,4.9-4.5,0.8,3,8.3c-2.1,3.9-0.4,7.3-0.4,11.6c0,5.3,2.7,17.3,8,17.3l5,10.1C340.3,341.6,332.2,324.8,332.2,306z M441.6,350.6
		c-11.6,11.8-27.7,19.2-45.6,19.2c-8.7,0-17.1-1.8-24.7-4.9c2-4.7,5.4-11,8.7-11c5.3,0,5.3,0,5.3-5.3c0-10.6,5.3-5.3,5.3-10.6
		c0-5.3-10.6-5.3-15.9-10.6c-5.3-5.3-8-10.6-13.3-10.6c-2.7-5.3-2.7-5.3-8-5.3c-5.3,0-5.3-5.3-10.6,0c-4.6-4.6-5.2-17.3-8.8-20.5
		c0.8-3.4,2-6.8,3.3-9.9c3.6,2.9,1.4,9.2,5.5,9.2c5.3,0,0-10.6,5.3-10.6c5.3,0,10.6,0,10.6-5.3c0-5.3,10.6,0,10.6,0
		c5.3-5.3,5.3-5.3,0-8c-2.4-1.2,5.3,2.7,5.3-2.7c0-10.6-5.3,0,0-10.6c5.3-10.6,10.6,0,10.6-5.3c0-1.6,0.5-3.2,1.1-4.6
		c3.1-0.5,6.3-0.7,9.5-0.7c6,0,11.7,0.8,17.2,2.4c-0.6,5.5-4.9,14.9,0.1,14.9c5.3,0,15.9-5.3,10.6-10.6c3,1.2,6.3,3.2,9.4,5.4
		c-2.8,0.2-9.4,1.1-9.4,5.3c0,5.3-10.6,5.3-5.3,10.6c5.3,5.3-10.6,0-5.3,5.3c5.3,5.3,0,10.6,5.3,5.3c5.3-5.3,5.3-10.6,10.6-10.6
		c5.3,0,5.3,5.3,10.6,5.3c5.3,0-5.3-10.6,0-10.6c1.6,0,2.9-0.5,3.8-1.2c4.5,5.1,8.3,11,11,17.3c-8.7,1-14.8,5.1-14.8,5.1
		c-10.6-10.6-15.9,0-21.3,0c-5.3,0-5.3,10.6-5.3,10.6s-10.6,5.3-5.3,15.9c5.3,10.6,5.3,5.3,10.6,10.6c5.3,5.3,15.9-5.3,15.9-5.3
		s0,5.3,5.3,10.6c5.3,5.3-1.3,15.9-1.3,15.9L441.6,350.6z"/>
</g>
</svg>
