<?xml version="1.0" encoding="utf-8"?>
<!-- Generator: Adobe Illustrator 19.1.0, SVG Export Plug-In . SVG Version: 6.00 Build 0)  -->
<svg version="1.1" id="Layer_1" xmlns="http://www.w3.org/2000/svg" xmlns:xlink="http://www.w3.org/1999/xlink" x="0px" y="0px"
	 width="60px" height="60.4px" viewBox="15 -20.4 60 60.4" style="enable-background:new 15 -20.4 60 60.4;" xml:space="preserve">
<style type="text/css">
	.st0{fill:#666666;}
</style>
<g>
	<path class="st0" d="M36.7,7.2H65c1.4,0,2.6-0.9,2.8-2l2.3-4.9V0c0-1.3-1.2-2.4-2.8-2.4H34.4c-1.5,0-2.8,1.1-2.8,2.4v0.3l2.3,4.9
		C34.1,6.3,35.2,7.2,36.7,7.2z M66.9,0.3l-2,4.3H36.7l-2-4.3H66.9z"/>
	<path class="st0" d="M33-3.6h35.1c0.4,0,0.9-0.2,1.1-0.5c0.3-0.3,0.4-0.8,0.2-1.2c-0.1-0.2-1-3.1-4.5-5.7c0.1-0.5,0.2-1,0.2-1.5
		c0-3.1-2.7-5.5-5.9-5.5c-2.4,0-4.4,1.3-5.4,3.2c-1.1-0.1-2.2-0.2-3.4-0.2c-2.4,0-4.5,0.2-6.3,0.6v-4.7c0-0.7-0.6-1.3-1.4-1.3
		s-1.4,0.6-1.4,1.3v5.4c-0.4,0.1-0.8,0.3-1.1,0.4V-16c0-0.7-0.6-1.3-1.4-1.3s-1.4,0.6-1.4,1.3v4.1c-4.5,2.8-5.7,6.4-5.7,6.7
		c-0.1,0.4,0,0.8,0.2,1.1C32.1-3.8,32.6-3.6,33-3.6z M56.2-12.6c0-1.6,1.4-2.9,3.1-2.9c1.7,0,3.1,1.3,3.1,2.9S61-9.7,59.3-9.7
		C57.6-9.7,56.2-11,56.2-12.6z M39.4-10c0.1,0,0.1-0.1,0.2-0.1c2.4-1.3,5.9-2.3,10.9-2.3c1,0,2,0,2.9,0.1C53.6-9.4,56.2-7,59.3-7
		c1.7,0,3.2-0.6,4.3-1.7c1.1,0.9,1.8,1.7,2.3,2.4H35.3C36-7.4,37.3-8.8,39.4-10z"/>
	<path class="st0" d="M36.1,18.8l5.9-8.4c0.4-0.6,0.2-1.4-0.4-1.8c-0.7-0.4-1.5-0.2-2,0.4l-5.2,7.4L24,12.2c-0.4-0.1-0.8-0.1-1.2,0
		l-7,3.2c-0.7,0.3-1,1.1-0.6,1.8c0.3,0.7,1.2,0.9,1.9,0.6l6.4-3l10.9,4.4c0.2,0.1,0.4,0.1,0.6,0.1C35.4,19.4,35.8,19.2,36.1,18.8z"
		/>
	<path class="st0" d="M74.6,11.2c-0.5-0.5-1.4-0.6-2-0.1l-6.4,5.6l-6.6-7.8c-0.5-0.6-1.4-0.7-2-0.2s-0.7,1.3-0.2,1.9l7.5,9
		c0.2,0.3,0.6,0.5,1,0.5H66c0.4,0,0.7-0.1,1-0.4l7.6-6.6C75.1,12.5,75.2,11.7,74.6,11.2z"/>
	<path class="st0" d="M46,10.3c0.3-0.7,0-1.4-0.7-1.8c-0.7-0.3-1.6,0-1.9,0.7l-7.1,14.5c-0.2,0.4-0.2,0.8,0,1.2
		c1.3,2.2,2.8,4.9,3.2,5.9c-0.6,0.9-2.5,3.5-4.2,5.6c-0.5,0.6-0.3,1.4,0.3,1.9c0.3,0.2,0.5,0.3,0.8,0.3c0.4,0,0.9-0.2,1.1-0.5
		c4.8-6.1,4.8-6.7,4.8-7.1c0-0.3,0-0.9-3.3-6.6L46,10.3z"/>
	<path class="st0" d="M70.5,35.6l-11-3c-3.4-4.5-6.9-9.5-7.5-10.6c0.1-1.3,0.8-7.9,1.2-12.1c0.1-0.7-0.5-1.4-1.3-1.5
		c-0.8-0.1-1.5,0.5-1.6,1.2C50.1,11.5,49,21.1,49,22.1c0,0.5,0,1.4,8.3,12.4c0.2,0.2,0.5,0.4,0.8,0.5l11.4,3.2
		c0.1,0,0.3,0.1,0.4,0.1c0.6,0,1.2-0.4,1.4-1C71.7,36.5,71.3,35.8,70.5,35.6z"/>
	<path class="st0" d="M45.4,21.9L50,10.1c0.3-0.7-0.1-1.4-0.8-1.7c-0.7-0.3-1.6,0.1-1.8,0.8l-4.9,12.4c-0.1,0.4-0.1,0.8,0.1,1.1
		l7.3,11.2l-0.6,4.6c-0.1,0.7,0.4,1.4,1.2,1.5c0.1,0,0.1,0,0.2,0c0.7,0,1.3-0.5,1.4-1.1l0.7-5.1c0-0.3,0-0.6-0.2-0.9L45.4,21.9z"/>
	<path class="st0" d="M55.5,8.3c-0.8,0-1.4,0.5-1.5,1.3l-0.3,8.4c0,0.3,0.1,0.6,0.3,0.9l6.6,7.9c0.2,0.2,0.5,0.4,0.8,0.5l5.9,1.1
		c0.1,0,0.2,0,0.3,0c0.7,0,1.3-0.4,1.4-1.1s-0.3-1.4-1.1-1.6l-5.4-1l-5.9-7.1l0.3-7.9C56.9,8.9,56.3,8.3,55.5,8.3z"/>
</g>
</svg>
