<svg width="251" height="256" viewBox="0 0 251 256" fill="none" xmlns="http://www.w3.org/2000/svg">
<path d="M139.922 5.91415C140.881 6.27234 141.84 6.6299 142.799 6.98687C144.692 7.69244 146.584 8.40105 148.475 9.11291C151.721 10.3339 154.973 11.54 158.227 12.7396C158.753 12.9341 159.279 13.1286 159.82 13.329C164.245 14.9593 168.697 16.5052 173.153 18.0478C177.855 19.6866 182.513 21.4325 187.169 23.1995C192.307 25.1468 197.454 27.0016 202.681 28.6953C210.707 31.3011 218.594 34.2749 226.494 37.2362C227.004 37.4272 227.513 37.6182 228.038 37.8149C229.044 38.1919 230.05 38.5692 231.056 38.9469C235.2 40.4983 239.368 41.9775 243.547 43.4332C245.363 44.1191 245.363 44.1191 246.072 44.8283C246.142 46.7239 246.165 48.5975 246.152 50.4931C246.15 51.0677 246.148 51.6423 246.145 52.2343C246.101 58.0935 245.839 63.9328 245.496 69.7812C245.449 70.5961 245.449 70.5961 245.402 71.4274C243.088 111.436 238.441 153.707 216.288 188.075C215.882 188.721 215.882 188.721 215.468 189.38C212.669 193.835 212.669 193.835 211.324 195.166C208.487 195.166 208.487 195.166 206.715 194.058C205.078 192.884 205.078 192.884 203.548 193.197C201.867 193.839 201.137 194.546 199.933 195.875C191.266 204.869 180.358 212.08 170.194 219.277C175.812 226.71 175.812 226.71 183.582 231.086C184.914 231.16 186.248 231.207 187.582 231.224C191.074 231.439 193 233.509 195.235 235.986C197.465 239.207 197.676 242.427 197.141 246.224C195.741 249.804 193.547 252.589 190.066 254.291C186.186 255.489 182.74 255.356 179.147 253.493C178.532 252.967 177.918 252.44 177.285 251.898C176.759 251.459 176.232 251.02 175.69 250.568C174.102 248.64 173.575 247.256 173.03 244.806C173.102 244.278 173.173 243.749 173.246 243.205C173.513 241.128 173.584 239.75 173.03 237.715C170.963 235.544 168.799 233.818 166.382 232.064C165.768 231.588 165.154 231.113 164.521 230.623C164.521 230.155 164.521 229.687 164.521 229.205C163.906 228.898 163.906 228.898 163.28 228.585C161.802 227.846 160.325 227.107 158.848 226.368C158.269 226.773 157.69 227.178 157.094 227.596C149.556 232.784 141.676 237.299 133.651 241.689C132.567 242.302 131.499 242.944 130.46 243.63C128.479 244.927 127.36 245.574 124.972 245.244C121.624 243.568 118.353 241.789 115.102 239.931C114.031 239.325 114.031 239.325 112.938 238.708C109.365 236.669 105.85 234.574 102.404 232.327C101.793 231.929 101.182 231.53 100.553 231.12C99.3982 230.358 98.2503 229.586 97.1102 228.802C96.5948 228.461 96.0794 228.119 95.5484 227.767C95.1026 227.462 94.6568 227.157 94.1974 226.842C92.8617 226.197 92.8617 226.197 91.3861 226.925C89.9701 227.846 88.9143 228.819 87.7561 230.047C85.4851 232.402 83.0803 234.513 80.5594 236.596C79.2415 237.725 79.2415 237.725 78.7146 239.842C78.7185 240.862 78.7505 241.882 78.8032 242.9C78.8231 245.973 78.3556 247.885 76.5872 250.479C73.7655 253.324 71.2302 254.822 67.191 254.956C62.876 254.9 60.3951 253.309 57.2187 250.391C55.5006 247.463 54.7735 244.649 54.6038 241.26C55.7582 237.118 57.8999 234.219 61.5816 231.945C63.4171 231.211 64.7786 231.286 66.7478 231.332C72.1586 230.957 74.5962 227.375 78.0054 223.532C79.3843 222.282 80.7994 221.14 82.2603 219.986C80.0868 217.541 77.7001 216.027 74.8919 214.418C74.5152 214.15 74.1386 213.881 73.7506 213.604C73.7506 213.136 72.6869 213.022 72.6869 212.54C72.1676 212.356 71.3473 211.884 71.2686 211.831C70.2049 211.122 68.7274 209.741 67.0137 208.33C66.4022 207.828 65.7906 207.326 65.1606 206.809C59.7213 202.253 54.309 197.667 48.9306 193.039C48.1628 193.346 48.1628 193.346 47.3794 193.659C46.712 193.926 46.0446 194.193 45.3772 194.46C43.2874 195.296 40.891 194.637 39.5665 192.817C37.1071 189.438 34.7684 185.992 32.5318 182.446C32.1117 181.788 32.1117 181.788 31.6831 181.116C27.4389 174.309 24.2139 167.159 21.6287 159.576C21.357 158.783 21.0854 157.991 20.8055 157.174C18.0471 148.923 15.9814 140.559 14.1827 132.053C13.976 131.078 13.976 131.078 13.7651 130.084C7.95865 102.227 6.02596 73.2459 6.38217 44.8283C11.5248 42.2688 16.8037 40.3113 22.2255 38.4512C27.8025 36.5326 33.3372 34.5052 38.8697 32.4626C45.1583 30.1434 51.4562 27.861 57.7949 25.6815C66.8167 22.5773 75.7614 19.2673 84.7132 15.9685C88.3398 14.6338 91.9695 13.3076 95.601 11.9862C96.2272 11.7583 96.8534 11.5304 97.4985 11.2956C101.897 9.69872 106.305 8.13055 110.728 6.60009C114.54 5.27114 118.255 3.75036 121.953 2.12745C128.148 0.520764 134.207 3.74698 139.922 5.91415ZM121.715 15.0028C120.932 15.2971 120.15 15.5914 119.344 15.8946C118.5 16.2137 117.656 16.5328 116.787 16.8615C110.909 19.0635 105.028 21.216 99.0581 23.1551C93.2915 25.0375 87.595 27.0789 81.9057 29.1828C72.6077 32.6201 63.2802 35.9702 53.939 39.2881C53.2478 39.5337 52.5566 39.7792 51.8444 40.0322C43.3975 43.0318 34.9476 46.022 26.471 48.9368C25.9115 49.1295 25.352 49.3223 24.7755 49.5208C24.3139 49.6788 23.8522 49.8369 23.3766 49.9997C21.713 50.5987 20.0761 51.2555 18.4376 51.9197C17.5753 114.375 17.5753 114.375 39.4736 169.438C40.3954 170.242 41.3368 171.024 42.2935 171.787C44.3613 173.512 46.2126 175.422 48.0885 177.349C51.3024 180.613 54.6404 183.576 58.2326 186.427C60.0899 187.924 61.8828 189.469 63.6732 191.045C73.2337 199.425 83.6608 206.693 94.3157 213.604C95.2954 214.244 96.2751 214.884 97.2547 215.524C103.604 219.661 109.977 223.766 116.444 227.718C117.644 228.451 118.84 229.192 120.036 229.934C120.719 230.337 121.402 230.74 122.105 231.155C122.686 231.503 123.266 231.85 123.864 232.208C125.511 232.914 125.511 232.914 127.188 232.313C129.514 231.097 131.832 229.876 134.116 228.585C134.607 228.307 135.097 228.03 135.602 227.745C156.804 215.629 177.464 201.23 195.435 184.668C196.88 183.349 198.341 182.056 199.814 180.77C202.769 178.188 205.715 175.599 208.62 172.961C209.106 172.536 209.592 172.11 210.093 171.672C215.905 166.352 218.178 159.677 220.499 152.307C220.86 151.166 220.86 151.166 221.229 150.001C230.878 118.685 233.93 84.5896 233.307 51.9197C228.153 49.7923 222.94 47.9114 217.662 46.1136C210.742 43.7372 203.845 41.3036 196.965 38.8125C192.865 37.3291 188.76 35.8583 184.648 34.4072C184.187 34.2444 183.726 34.0816 183.251 33.9139C182.786 33.7501 182.322 33.5862 181.844 33.4174C180.901 33.0844 179.957 32.7514 179.014 32.4183C178.547 32.2535 178.08 32.0886 177.599 31.9188C170.765 29.5037 163.973 26.992 157.199 24.415C151.463 22.2512 145.668 20.2915 139.835 18.4039C135.935 17.1348 132.131 15.7435 128.349 14.1546C125.778 13.1925 124.211 14.0558 121.715 15.0028ZM64.5317 240.399C64.0731 240.82 64.0003 241.259 63.8226 241.97C63.468 243.388 64.1772 244.732 64.8863 245.363C65.5335 245.939 67.0137 246.224 67.3683 246.224C69.4957 246.072 69.8503 244.654 70.2049 243.388C70.2049 241.463 69.4787 240.539 67.7229 239.69C66.1812 239.483 65.0896 239.886 64.5317 240.399ZM182.249 241.26C181.895 243.033 181.895 243.742 182.958 244.806C183.752 245.515 184.731 245.87 186.504 245.515C186.859 245.363 187.441 245.301 187.922 244.097C188.335 243.065 188.631 241.97 187.213 240.551C185.44 239.335 183.667 239.335 182.249 241.26Z" fill="white"/>
<path d="M123.391 31.2023C127.13 46.3785 125.631 63.2305 125.61 78.7596C125.606 81.8843 125.609 85.0089 125.613 88.1336C125.616 90.5689 125.615 93.0043 125.613 95.4396C125.612 96.5922 125.613 97.7448 125.615 98.8974C125.628 110.935 125.628 110.935 124.809 115.59C122.952 116.519 122.266 116.145 120.271 115.637C119.608 115.472 118.944 115.307 118.26 115.138C117.525 114.95 116.79 114.763 116.033 114.571C110.49 113.188 104.945 111.871 99.3545 110.695C87.3216 108.153 75.9981 105.285 64.5318 100.698C64.5318 108.421 64.5318 116.143 64.5318 124.1C65.4679 124.568 66.4039 125.036 67.3684 125.518C68.3249 126.147 69.2698 126.794 70.2049 127.454C86.3153 138.631 104.146 148.899 123.197 154.033C124.809 154.593 124.809 154.593 125.518 156.011C125.587 157.524 125.609 159.039 125.61 160.554C125.612 161.253 125.612 161.253 125.613 161.966C125.617 163.51 125.615 165.054 125.612 166.598C125.613 167.671 125.613 168.743 125.614 169.815C125.615 172.065 125.614 174.315 125.61 176.565C125.606 179.447 125.609 182.329 125.613 185.211C125.616 187.427 125.615 189.643 125.613 191.858C125.612 192.921 125.613 193.983 125.615 195.046C125.616 196.533 125.614 198.02 125.61 199.507C125.609 200.353 125.609 201.199 125.608 202.07C125.533 203.877 125.342 205.353 124.809 207.069C120.398 206.738 116.903 204.71 113.064 202.681C112.347 202.304 111.63 201.927 110.892 201.539C96.3765 193.747 82.6534 183.825 70.2049 173.031C69.7095 172.638 69.2141 172.246 68.7037 171.841C66.8542 169.56 67.0566 168.062 67.1108 165.152C67.1108 164.153 67.1104 163.154 67.1094 162.155C67.1241 160.593 67.1466 159.031 67.1809 157.469C67.4908 150.324 67.4908 150.324 64.3407 144.161C63.4767 143.363 62.5963 142.583 61.6952 141.828C61.134 141.201 60.5727 140.574 59.9944 139.928C59.0495 138.879 58.104 137.83 57.1578 136.781C55.2313 134.516 55.2221 133.094 55.2188 130.169C55.2172 129.368 55.2157 128.567 55.2141 127.741C55.2175 126.876 55.2209 126.011 55.2243 125.119C55.2272 124.236 55.2302 123.353 55.2332 122.443C55.2688 116.39 55.3515 110.339 55.5346 104.288C55.5505 103.55 55.5663 102.813 55.5827 102.053C55.8226 95.5236 55.8226 95.5236 58.1495 92.8976C62.7171 91.2366 67.5094 91.0756 72.3324 90.7701C71.7263 90.4712 71.1202 90.1723 70.4958 89.8643C69.7124 89.4758 68.929 89.0873 68.1218 88.687C67.3403 88.3004 66.5587 87.9137 65.7534 87.5153C63.8227 86.5153 63.8227 86.5153 63.1135 85.8061C61.9405 77.1761 65.3368 69.2501 70.4542 62.4654C70.84 61.9773 71.2258 61.4891 71.6232 60.9862C72.1799 60.1882 72.1799 60.1882 72.7479 59.374C73.0788 58.97 73.4097 58.5659 73.7506 58.1496C74.2187 58.1496 74.6867 58.1496 75.1689 58.1496C75.4029 57.4476 75.637 56.7455 75.8781 56.0222C77.2686 54.7483 78.6467 53.5848 80.1329 52.4322C80.5747 52.089 81.0165 51.7459 81.4717 51.3924C91.8839 43.4935 109.868 31.2023 123.391 31.2023Z" fill="white"/>
<path d="M190.05 92.1884C194.971 92.949 194.971 92.949 197.141 94.3158C198.031 96.0952 197.94 97.3091 197.942 99.3002C197.944 100.043 197.947 100.787 197.949 101.552C197.947 102.761 197.947 102.761 197.945 103.994C197.945 104.82 197.946 105.645 197.947 106.496C197.947 108.245 197.946 109.994 197.943 111.743C197.939 114.422 197.943 117.1 197.947 119.778C197.947 121.476 197.946 123.173 197.945 124.87C197.946 125.673 197.947 126.476 197.949 127.303C197.946 128.425 197.946 128.425 197.942 129.569C197.942 130.226 197.941 130.883 197.94 131.56C197.857 133.194 197.602 134.59 197.141 136.155C196.673 136.155 196.205 136.155 195.723 136.155C195.555 136.541 195.387 136.927 195.213 137.324C194.068 139.426 192.642 141.139 191.114 142.981C190.55 143.663 189.987 144.344 189.407 145.047C187.922 146.792 187.922 146.792 186.504 148.211C186.298 150.496 186.298 150.496 186.335 153.188C186.324 154.202 186.313 155.215 186.301 156.229C186.289 157.825 186.283 159.421 186.288 161.018C186.289 162.56 186.269 164.101 186.247 165.643C186.244 166.566 186.242 167.489 186.24 168.44C185.528 172.381 182.787 174.207 179.64 176.407C179.162 176.743 178.685 177.079 178.193 177.425C177.689 177.774 177.184 178.123 176.665 178.482C176.131 178.854 175.598 179.226 175.048 179.61C173.434 180.731 171.815 181.846 170.194 182.958C169.521 183.421 169.521 183.421 168.834 183.893C158.235 191.152 147.299 197.911 136.066 204.144C135.398 204.52 134.73 204.896 134.041 205.284C133.421 205.622 132.8 205.961 132.161 206.31C131.339 206.763 131.339 206.763 130.501 207.224C129.064 207.778 129.064 207.778 126.936 207.069C130.564 204.501 134.212 201.974 137.928 199.535C143.846 195.605 149.567 191.403 155.302 187.213C156.181 186.572 156.181 186.572 157.077 185.919C158.851 184.624 160.623 183.326 162.393 182.028C162.927 181.638 163.46 181.248 164.01 180.846C165.061 180.072 166.103 179.287 167.136 178.49C168.776 177.285 168.776 177.285 170.723 176.136C173.833 174.127 175.59 172.776 176.469 169.083C176.758 166.058 176.726 163.035 176.665 160C176.479 147.816 176.479 147.816 181.462 142.602C181.956 142.113 182.45 141.623 182.958 141.119C183.459 140.472 183.959 139.824 184.474 139.157C184.91 138.634 185.346 138.112 185.795 137.573C186.263 137.573 186.731 137.573 187.213 137.573C188.99 134.865 188.866 132.06 188.9 128.934C188.912 128.363 188.924 127.793 188.936 127.205C188.973 125.357 189.002 123.51 189.03 121.662C189.079 119.15 189.133 116.639 189.186 114.127C189.198 113.514 189.21 112.9 189.223 112.267C189.361 105.567 189.669 98.8787 190.05 92.1884Z" fill="#D4D4D8"/>
<path d="M131.191 33.3296C135.63 33.7045 139.31 34.7501 143.424 36.4321C144.034 36.6799 144.643 36.9277 145.271 37.1829C155.308 41.3828 165.05 46.4127 173.03 53.8947C173.93 54.6982 173.93 54.6982 174.848 55.518C181.598 61.8359 189.042 71.6146 190.26 81.0554C190.271 82.4376 190.271 82.4376 190.05 84.3878C187.932 85.4465 186.002 85.1803 183.668 85.0969C182.249 84.3878 182.249 84.3878 181.665 82.7562C181.463 82.0514 181.261 81.3466 181.053 80.6205C179.423 75.4999 177.091 70.0101 173.233 66.1523C172.932 65.8516 172.631 65.5508 172.321 65.2409L171.5 64.5L170.903 63.8227C169.751 62.8476 169.751 62.8476 168.776 61.6952C168.187 61 167.5 60 167.5 60C167.5 60 167.5 60 167 59.5C165.5 58.5 164.56 57.9461 163.103 56.9279C158.559 53.8633 153.694 51.4137 148.837 48.8905C142.947 45.7694 137.275 42.4309 133.274 36.9639C132.871 36.4246 132.468 35.8853 132.053 35.3296C131.191 34.0387 131.191 34.0387 131.191 33.3296Z" fill="#D4D4D8"/>
<path d="M170.632 110.025C173.197 109.301 175.124 111.771 174.111 114.236C172.744 117.559 171.044 120.659 168.995 123.769C168.85 123.989 168.682 124.194 168.496 124.38C168.291 124.585 168.096 124.779 167.712 125.163C167.397 125.478 167.362 125.514 166.86 126.015C166.72 126.156 166.567 126.287 166.406 126.406C164.992 127.449 164.891 127.511 162.925 128.709C162.249 129.126 161.572 129.543 160.875 129.972C160.206 130.375 159.537 130.777 158.848 131.191C158.042 131.755 157.962 131.81 157.287 132.283C157.124 132.397 156.952 132.5 156.772 132.585C154.793 133.52 153.934 133.34 151.756 132.609C150.586 132.086 149.433 131.523 148.299 130.925C146.358 129.923 144.414 128.988 142.435 128.108C140.821 127.391 139.821 125.734 139.997 123.977C140.059 123.36 140.12 122.742 140.183 122.12C140.324 120.71 141.196 119.471 142.504 118.928C146.342 117.332 150.281 116.135 154.283 114.925C155.102 114.676 155.922 114.426 156.766 114.169C159.113 113.456 161.462 112.749 163.812 112.044C164.403 111.867 164.994 111.689 165.603 111.507C167.85 110.836 169.441 110.361 170.632 110.025Z" fill="#50B488"/>
<path d="M77.2964 109.917C84.633 111.648 91.8936 113.627 99.1468 115.679C100.031 115.926 100.914 116.173 101.825 116.428C102.657 116.665 103.489 116.902 104.346 117.147C105.095 117.359 105.843 117.571 106.614 117.79C108.964 118.584 110.315 119.239 111.468 121.485C112.054 123.424 112.088 124.927 112.044 126.936C110.33 127.794 108.615 128.65 106.897 129.501C105.695 130.108 104.5 130.729 103.319 131.374C99.6432 133.357 99.6432 133.357 97.928 133.174C95.2992 132.174 93.0743 130.569 90.7368 129.025C89.4052 128.148 88.0546 127.298 86.6814 126.488C81.8783 123.511 79.6085 120.309 78.0055 114.881C77.7389 113.231 77.4956 111.576 77.2964 109.917Z" fill="#50B488"/>
</svg>
