<svg width="47" height="47" viewBox="0 0 47 47" fill="none" xmlns="http://www.w3.org/2000/svg" xmlns:xlink="http://www.w3.org/1999/xlink">
  <rect width="47" height="47" rx="4" fill="#CCCCDC" fill-opacity="0.14"/>
  <svg x="9.5" y="9.5" width="28" height="28" viewBox="0 0 133.64 133.63">
    <defs>
      <linearGradient id="slo_grad1" x1="-28.12" y1="153.36" x2="122.54" y2="16.05" gradientUnits="userSpaceOnUse">
        <stop stop-color="#F55F3E"/>
        <stop offset="1" stop-color="#FF8833"/>
      </linearGradient>
      <linearGradient id="slo_grad2" x1="-22.62" y1="159.4" x2="128.04" y2="22.09" gradientUnits="userSpaceOnUse">
        <stop stop-color="#F55F3E"/>
        <stop offset="1" stop-color="#FF8833"/>
      </linearGradient>
      <linearGradient id="slo_grad3" x1="34.59" y1="102.06" x2="96.92" y2="36.58" gradientUnits="userSpaceOnUse">
        <stop stop-color="#F55F3E"/>
        <stop offset="1" stop-color="#FF8833"/>
      </linearGradient>
    </defs>
    <path fill="url(#slo_grad1)" d="M93.91,64.67c.6,7.66-2.02,15.53-7.86,21.38-5.13,5.13-11.96,7.96-19.22,7.96s-14.09-2.83-19.22-7.96c-10.6-10.6-10.6-27.85,0-38.45,5.13-5.13,11.96-7.96,19.22-7.96,.72,0,1.43,.03,2.13,.08l9.97-9.97c-3.93-1.28-8.01-1.92-12.1-1.92-9.98,0-19.96,3.81-27.57,11.42-15.23,15.23-15.23,39.91,0,55.14,7.61,7.61,17.59,11.42,27.57,11.42s19.96-3.81,27.57-11.42c10.74-10.74,13.9-26.19,9.49-39.7l-9.98,9.98Z"/>
    <path fill="url(#slo_grad3)" d="M133.64,116.94l-11.98-11.98c13.59-19.5,15.58-44.62,5.97-65.77l-9.04,9.04c2.11,5.88,3.21,12.15,3.21,18.59,0,14.69-5.72,28.49-16.1,38.88-10.38,10.38-24.19,16.1-38.88,16.1s-28.49-5.72-38.88-16.1c-10.38-10.38-16.1-24.19-16.1-38.88s5.72-28.49,16.1-38.88c10.38-10.38,24.19-16.1,38.88-16.1,6.43,0,12.69,1.1,18.56,3.2l9.04-9.04C85.68,2.03,76.25,.04,66.82,.04,49.73,.04,32.63,6.56,19.59,19.6-3.64,42.83-6.18,78.92,11.98,104.96L0,116.94l16.69,16.69,11.97-11.97c11.43,7.97,24.79,11.96,38.15,11.96s26.73-3.99,38.15-11.96l11.97,11.97,16.69-16.69Z"/>
    <path fill="url(#slo_grad2)" d="M119.92,13.71l-2.8-13.71-12.96,12.96-12.96,12.96,1.4,6.86-22.66,22.66c-3.95-1.08-8.35-.07-11.46,3.04-4.61,4.61-4.61,12.08,0,16.69s12.08,4.61,16.69,0c3.11-3.11,4.12-7.53,3.03-11.49l22.65-22.65,6.86,1.4,12.96-12.96,12.96-12.96-13.71-2.8Z"/>
  </svg>
</svg>
