<svg width="47" height="47" viewBox="0 0 47 47" fill="none" xmlns="http://www.w3.org/2000/svg">
<rect width="47" height="47" rx="4" fill="#CCCCDC" fill-opacity="0.14"/>
<path fill-rule="evenodd" clip-rule="evenodd" d="M24.7654 30.5449C25.2271 30.0828 25.2271 29.3319 24.7654 28.8698L18.068 22.1602C14.8358 18.9243 14.8358 13.661 18.068 10.426C19.6814 8.80987 21.8073 8 23.9288 8C26.0494 8 28.1753 8.80987 29.7897 10.426L32.6004 13.24L32.6414 13.2812C32.829 13.4832 32.9477 13.7531 32.9477 14.0508C32.9477 14.6729 32.4451 15.1762 31.8236 15.1762C31.5263 15.1762 31.2566 15.0573 31.0557 14.8696L31.0325 14.8472L28.203 12.0136C27.0646 10.8739 25.5467 10.2473 23.9333 10.2473C22.319 10.2473 20.802 10.8739 19.6636 12.0136C17.3091 14.3708 17.3091 18.2109 19.6636 20.5681L26.361 27.2724C27.0101 27.9222 27.3664 28.7831 27.3664 29.7029C27.3664 30.6227 27.0101 31.4835 26.361 32.1334C25.7118 32.7832 24.8521 33.1399 23.9333 33.1399C23.7824 33.1399 23.6324 33.1301 23.485 33.1113C23.1672 33.0701 22.8601 32.9862 22.5707 32.861C22.1788 32.6912 21.8181 32.4463 21.5056 32.1334L17.1948 27.8123C17.0519 27.6827 16.9376 27.5155 16.8733 27.3242C16.8358 27.2134 16.8153 27.0945 16.8153 26.9702C16.8153 26.7477 16.8796 26.5394 16.9912 26.3651C17.0322 26.3007 17.0805 26.2399 17.134 26.1845C17.3385 25.9744 17.6233 25.8448 17.9403 25.8448C18.0921 25.8448 18.2376 25.8761 18.3698 25.9324C18.5287 25.9994 18.6689 26.1022 18.7814 26.2292L23.0922 30.5449C23.3208 30.7782 23.627 30.8926 23.9288 30.8926C24.2306 30.8926 24.5324 30.7738 24.7654 30.5449ZM16.5635 24.4629C16.5635 25.085 16.0608 25.5883 15.4394 25.5883C15.1117 25.5883 14.817 25.4488 14.6117 25.2253C14.4268 25.0251 14.3144 24.757 14.3144 24.4629C14.3144 23.8398 14.817 23.3366 15.4394 23.3366C15.6528 23.3366 15.8519 23.3956 16.0224 23.4992C16.1751 23.5922 16.3037 23.7201 16.3974 23.872C16.5028 24.0436 16.5635 24.2456 16.5635 24.4629ZM34.3228 15.7081C34.2227 15.7608 34.129 15.8287 34.0451 15.9128L31.2066 18.7553L29.7986 17.3457C29.3503 16.897 28.628 16.897 28.1798 17.3457C27.7325 17.7944 27.7325 18.5176 28.1798 18.9654L30.3977 21.1858C30.6209 21.4093 30.9137 21.5193 31.2066 21.5193C31.3789 21.5193 31.5522 21.4808 31.7111 21.4031C31.8209 21.3494 31.9236 21.277 32.0156 21.1858L35.6639 17.5334C36.112 17.0847 36.112 16.3615 35.6639 15.9128C35.2996 15.5489 34.7549 15.481 34.3228 15.7081ZM23.0913 15.4551C22.6297 15.9172 22.6297 16.6681 23.0913 17.1302L29.7887 23.8398C33.0209 27.0757 33.0209 32.339 29.7887 35.5749C28.1753 37.1901 26.0494 38 23.9279 38C21.8073 38 19.6859 37.1901 18.068 35.5749L11.3795 28.8787L11.3884 28.8698C11.1509 28.6588 11 28.362 11 28.0232C11 27.7032 11.1321 27.4154 11.3455 27.2107C11.5473 27.0158 11.8223 26.897 12.125 26.897C12.4679 26.897 12.7741 27.057 12.9795 27.3001L19.6537 33.9819C20.7921 35.1217 22.31 35.7483 23.9235 35.7483C25.5378 35.7483 27.0547 35.1217 28.1932 33.9819C30.5477 31.6247 30.5477 27.7846 28.1932 25.4283L21.4966 18.7232C20.8466 18.0733 20.4904 17.2125 20.4904 16.2927C20.4904 15.3729 20.8466 14.512 21.4966 13.8622C22.1457 13.2123 23.0047 12.8556 23.9235 12.8556C24.8422 12.8556 25.7021 13.2123 26.3512 13.8622L27.1789 14.6908C27.3842 14.8973 27.5119 15.1807 27.5119 15.4917C27.5119 16.1139 27.0092 16.6181 26.3878 16.6181C26.0681 16.6181 25.7797 16.4804 25.5744 16.265L24.7646 15.4551C24.536 15.2218 24.2297 15.1073 23.9279 15.1073C23.6261 15.1073 23.3199 15.2263 23.0913 15.4551Z" fill="url(#paint0_linear_191_6483)"/>
<defs>
<linearGradient id="paint0_linear_191_6483" x1="23.5" y1="15.8125" x2="23.5" y2="38" gradientUnits="userSpaceOnUse">
<stop stop-color="#F55F3E"/>
<stop offset="1" stop-color="#FF8833"/>
</linearGradient>
</defs>
</svg>
