<?xml version="1.0" encoding="utf-8"?>
<!-- Generator: Adobe Illustrator 18.1.1, SVG Export Plug-In . SVG Version: 6.00 Build 0)  -->
<svg version="1.1" id="Layer_1" xmlns="http://www.w3.org/2000/svg" xmlns:xlink="http://www.w3.org/1999/xlink" x="0px" y="0px"
	 viewBox="152 120.5 13 13" enable-background="new 152 120.5 13 13" xml:space="preserve">
<g>
	<path fill="#999" d="M158.5,120.5c-3.6,0-6.5,2.9-6.5,6.5s2.9,6.5,6.5,6.5s6.5-2.9,6.5-6.5S162.1,120.5,158.5,120.5z
		 M158.5,132.5c-3,0-5.5-2.5-5.5-5.5s2.5-5.5,5.5-5.5s5.5,2.5,5.5,5.5S161.5,132.5,158.5,132.5z"/>
	<polygon fill="#999" points="159,126.5 159,123 158,123 158,126.5 154.5,126.5 154.5,127.5 158,127.5 158,131 159,131 
		159,127.5 162.5,127.5 162.5,126.5 	"/>
</g>
</svg>