<?xml version="1.0" encoding="UTF-8"?>
<svg width="9.1727mm" height="9.1727mm" version="1.1" viewBox="0 0 9.1726 9.1726" xmlns="http://www.w3.org/2000/svg">
<g transform="translate(-1.6499 -4.7296)">
<g transform="matrix(.26458 0 0 .26458 -24.183 -149.23)" style="shape-inside:url(#rect16468);white-space:pre" aria-label="Nefkens">
<g transform="translate(.23571 1.28)">
<circle cx="114.74" cy="597.94" r="17.334" fill="#004266" stroke-width=".75728" style="shape-inside:url(#rect16468);white-space:pre"/>
<g transform="matrix(0 -1.0271 1 0 -426.36 1201.5)" style="shape-inside:url(#rect16468);white-space:pre">
<g transform="translate(-3.9121e-7 -.11112)" stroke-width=".82944">
<path d="m580.89 551.43c-0.97232 2e-4 -1.8346-0.08-2.5867-0.24s-1.3851-0.56-1.8988-1.2-0.89894-1.6667-1.1558-3.08c-0.25683-1.3867-0.38526-3.32-0.38526-5.8 0-2 0.0826-3.6533 0.24767-4.96 0.16511-1.28 0.41277-2.28 0.743-3 0.33022-0.69333 0.72465-1.2 1.1833-1.52 0.47699-0.29333 1.0182-0.48 1.6236-0.56 0.60541-0.0533 1.2658-0.0799 1.9813-0.08l5.2285-7.1e-4h1.7062v5.3207h-7.8428c-0.78886 0-1.3851 0.16-1.7887 0.48-0.4036 0.34667-0.67879 0.86667-0.82555 1.56-0.14676 0.72-0.22014 1.64-0.22014 2.76 0 1.7867 0.21097 3.0533 0.63292 3.8 0.42195 0.77333 1.1466 1.16 2.174 1.16h7.8703v5.359s-0.77058-3e-3 -1.7062 0z" fill="#ed9017" style="shape-inside:url(#rect16468);white-space:pre"/>
<path d="m594.26 551.43c0.97233 2e-4 1.8346-0.08 2.5868-0.24 0.75218-0.16 1.3851-0.56 1.8988-1.2 0.51368-0.63999 0.89894-1.6667 1.1558-3.08 0.25684-1.3867 0.38526-3.32 0.38526-5.8 0-2-0.0826-3.6533-0.24767-4.96-0.16511-1.28-0.41278-2.28-0.743-3-0.33022-0.69332-0.72465-1.2-1.1833-1.52-0.47699-0.29332-1.0182-0.48-1.6236-0.55999-0.60541-0.0533-1.2658-0.0799-1.9813-0.08l-5.2285-7.1e-4h-1.7062v5.3207h7.8428c0.78887 0 1.3851 0.16 1.7887 0.48 0.4036 0.34667 0.6788 0.86667 0.82556 1.56 0.14677 0.72 0.22014 1.64 0.22014 2.76 0 1.7867-0.21097 3.0533-0.63292 3.8-0.42195 0.77333-1.1466 1.16-2.174 1.16h-7.8703v5.359s0.77059-3e-3 1.7062 0z" fill="#fff" style="shape-inside:url(#rect16468);white-space:pre"/>
</g>
</g>
</g>
</g>
</g>
</svg>
