<?xml version="1.0" encoding="utf-8"?>
<!-- Generator: Adobe Illustrator 19.1.0, SVG Export Plug-In . SVG Version: 6.00 Build 0)  -->
<svg version="1.1" baseProfile="tiny" id="Layer_1" xmlns="http://www.w3.org/2000/svg" xmlns:xlink="http://www.w3.org/1999/xlink"
	 x="0px" y="0px" width="78px" height="71.9px" viewBox="19 -15.9 78 71.9" xml:space="preserve">
<g>
	<path fill="#FEC254" d="M21.9,7.3c0-0.5,0-1,0.1-1.5l-3,3c0.3,5.3,2.4,10.2,6,14.1l2.1-2.1C23.8,17,21.9,12.3,21.9,7.3z
		 M28.41,26.338l2.12-2.12l10.04,10.04l-2.12,2.12L28.41,26.338z M42.1-12.9c5,0,9.7,1.8,13.4,5.2l2.2-2.2c-3.9-3.6-8.8-5.6-14.1-6
		l-3,3H42.1z M41.905,39.846l2.12-2.12l10.042,10.04l-2.12,2.12L41.905,39.846z M88.2,21.5L58,51.7l-0.5-0.5l-2.1,2.1l2.6,2.6
		l32.3-32.3c3.2-3.2,5.3-7.2,6.3-11.5l-5.2,5.2C90.5,18.9,89.5,20.3,88.2,21.5L88.2,21.5z M94.1,7.3v0.5L97,4.9
		C96.5-0.2,94.2-5,90.6-8.8l-2.1,2.1C92.1-2.9,94.1,2,94.1,7.3z M25.7-9.1C22.8-6.2,20.8-2.8,19.8,1l16-16C32-14,28.6-12,25.7-9.1z
		 M74-12.9c3.8,0,7.5,1.1,10.7,3.1l2.2-2.2c-3.8-2.5-8.3-3.9-12.9-3.9c-1.2,0-2.4,0.1-3.6,0.3L66-11.3C68.5-12.3,71.2-12.9,74-12.9z
		 M64-2.7L62.3-1l-2.1,2.1L58,3.2l-2.1-2.1L54.8,0l-20,20l10,10L80.2-5.4c-1.9-1-4-1.5-6.2-1.5C70.2-6.9,66.6-5.4,64-2.7z M32.1-2.7
		C29.4,0,28,3.5,28,7.3c0,3.4,1.3,6.6,3.4,9.2L51.3-3.4c-2.6-2.2-5.8-3.5-9.2-3.5C38.3-6.9,34.8-5.4,32.1-2.7z M84,17.3
		c2.7-2.7,4.1-6.2,4.1-10c0-3.7-1.4-7.1-3.9-9.7L48.3,33.5l9.7,9.7C58,43.2,84,17.3,84,17.3z"/>
</g>
</svg>
