<?xml version="1.0" encoding="utf-8"?>
<!-- Generator: Adobe Illustrator 19.1.0, SVG Export Plug-In . SVG Version: 6.00 Build 0)  -->
<svg version="1.1" baseProfile="tiny" id="Layer_1" xmlns="http://www.w3.org/2000/svg" xmlns:xlink="http://www.w3.org/1999/xlink"
	 x="0px" y="0px" width="70px" height="70px" viewBox="15 -15 70 70" xml:space="preserve">
<g>
	<path fill="#F79520" d="M41.39,43.607l1.908-1.91l3.677,3.678l-1.91,1.91L41.39,43.607z M21.635,23.795l1.91-1.91l3.677,3.678
		l-1.91,1.91L21.635,23.795z M47.8-4.9l1.9-1.9c-1.3-1.2-2.8-2.2-4.3-3l-2,2C45-7,46.4-6.1,47.8-4.9z M35.7-9.5c2,0,4,0.3,5.8,1
		l2.1-2.1c-1.9-0.8-3.8-1.3-5.9-1.5l-2.6,2.6H35.7z M17.7,8.6V8l-2.6,2.6c0.2,2,0.7,4,1.5,5.9l2.1-2.1C18,12.6,17.7,10.6,17.7,8.6z
		 M23-4.2c2.6-2.6,5.8-4.3,9.4-5l3-3c-3.7,0.1-7.2,1.1-10.3,3L18-2.1C16.1,1,15.1,4.5,15,8.2l3-3C18.7,1.7,20.4-1.6,23-4.2z
		 M19.4,16.2l-2,2c0.8,1.5,1.8,3,3,4.3l1.9-1.9C21.1,19.3,20.1,17.8,19.4,16.2z M36.433,38.6l1.91-1.908l3.676,3.677l-1.91,1.908
		L36.433,38.6z M82.4,8.6c0,0.5,0,0.9-0.1,1.4L85,7.3c-0.1-2.1-0.6-4.1-1.3-6l-2.1,2.1C82.1,5,82.4,6.8,82.4,8.6z M85,9.8L81.8,13
		c-0.8,3.1-2.4,6-4.7,8.3L50,48.4l-1.8-1.8l-1.9,1.9l3.7,3.7l29.9-29.9C83,18.8,84.7,14.4,85,9.8z M26.59,28.8l1.91-1.908
		l3.677,3.677l-1.91,1.908L26.59,28.8z M31.477,33.737l1.91-1.91l3.676,3.677l-1.91,1.91L31.477,33.737z M70.9-8.2l2-2
		c-1.8-0.8-3.7-1.4-5.7-1.7l-2.5,2.5C66.9-9.4,69-9,70.9-8.2z M50-2.7l1.5-1.5c2.9-2.9,6.6-4.7,10.6-5.2l2.8-2.8h-0.6
		c-3,0-5.8,0.6-8.5,1.8l-6.7,6.7L50-2.7z M76.9-4.4l1.9-1.9c-1.3-1.2-2.7-2.3-4.2-3.2l-2,2C74.2-6.6,75.6-5.6,76.9-4.4z M80.9,1.5
		l2-2c-0.8-1.6-1.7-3.1-2.9-4.4L78.1-3C79.3-1.7,80.2-0.1,80.9,1.5z M26.8-0.4c-2.4,2.4-3.7,5.6-3.7,9c0,0.5,0,0.9,0.1,1.3l14-14
		c-0.4,0-0.9-0.1-1.3-0.1C32.4-4.1,29.2-2.8,26.8-0.4z M23.5,12c0.5,1.7,1.4,3.4,2.6,4.8L44-1.1c-1.4-1.2-3-2.1-4.8-2.6L23.5,12z
		 M73.3,17.6c2.4-2.4,3.7-5.6,3.7-9V8L47.1,37.9l2.9,2.9C50,40.8,73.3,17.6,73.3,17.6z M37.2,28l3.7,3.7L73.1-0.5
		c-1.3-1.3-2.9-2.2-4.5-2.8L37.2,28z M57.4-2L32.3,23.1l3.7,3.7L66.6-3.8C65.9-3.9,65.1-4,64.3-4C61.8-4.1,59.4-3.4,57.4-2z
		 M42.1,32.9l3.7,3.7L76.6,5.8c-0.4-1.8-1.2-3.5-2.4-5L42.1,32.9z M46.2,1.1l-0.9-0.9l-18,17.9l3.7,3.7l17.9-18L48.1,3"/>
</g>
</svg>
