<?xml version="1.0" encoding="utf-8"?>
<!-- Generator: Adobe Illustrator 18.1.1, SVG Export Plug-In . SVG Version: 6.00 Build 0)  -->
<svg version="1.1" id="Layer_1" xmlns="http://www.w3.org/2000/svg" xmlns:xlink="http://www.w3.org/1999/xlink" x="0px" y="0px"
	 viewBox="0 0 70 70" enable-background="new 0 0 70 70" xml:space="preserve">
<g>
	
		<rect x="27.8" y="56.9" transform="matrix(0.7071 -0.7071 0.7071 0.7071 -33.5026 38.0308)" fill="#F79520" width="2.7" height="5.2"/>
	
		<rect x="8.1" y="37.1" transform="matrix(0.7071 -0.7071 0.7071 0.7071 -25.3255 18.2889)" fill="#F79520" width="2.7" height="5.2"/>
	<path fill="#F79520" d="M32.8,10.1l1.9-1.9c-1.3-1.2-2.8-2.2-4.3-3l-2,2C30,8,31.4,8.9,32.8,10.1z"/>
	<path fill="#F79520" d="M20.7,5.5c2,0,4,0.3,5.8,1l2.1-2.1c-1.9-0.8-3.8-1.3-5.9-1.5l-2.6,2.6C20.4,5.5,20.6,5.5,20.7,5.5z"/>
	<path fill="#F79520" d="M2.7,23.6c0-0.2,0-0.4,0-0.6l-2.6,2.6c0.2,2,0.7,4,1.5,5.9l2.1-2.1C3,27.6,2.7,25.6,2.7,23.6z"/>
	<path fill="#F79520" d="M8,10.8c2.6-2.6,5.8-4.3,9.4-5l3-3c-3.7,0.1-7.2,1.1-10.3,3L3,12.9C1.1,16,0.1,19.5,0,23.2l3-3
		C3.7,16.7,5.4,13.4,8,10.8z"/>
	<path fill="#F79520" d="M4.4,31.2l-2,2c0.8,1.5,1.8,3,3,4.3l1.9-1.9C6.1,34.3,5.1,32.8,4.4,31.2z"/>
	
		<rect x="22.9" y="51.9" transform="matrix(0.7071 -0.7071 0.7071 0.7071 -31.4583 33.0954)" fill="#F79520" width="2.7" height="5.2"/>
	<path fill="#F79520" d="M67.4,23.6c0,0.5,0,0.9-0.1,1.4l2.7-2.7c-0.1-2.1-0.6-4.1-1.3-6l-2.1,2.1C67.1,20,67.4,21.8,67.4,23.6z"/>
	<path fill="#F79520" d="M70,24.8L66.8,28c-0.8,3.1-2.4,6-4.7,8.3L35,63.4l-1.8-1.8l-1.9,1.9l3.7,3.7l29.9-29.9
		C68,33.8,69.7,29.4,70,24.8z"/>
	
		<rect x="13" y="42.1" transform="matrix(0.7071 -0.7071 0.7071 0.7071 -27.3698 23.2244)" fill="#F79520" width="2.7" height="5.2"/>
	
		<rect x="17.9" y="47" transform="matrix(0.7071 -0.7071 0.7071 0.7071 -29.414 28.1599)" fill="#F79520" width="2.7" height="5.2"/>
	<path fill="#F79520" d="M55.9,6.8l2-2c-1.8-0.8-3.7-1.4-5.7-1.7l-2.5,2.5C51.9,5.6,54,6,55.9,6.8z"/>
	<path fill="#F79520" d="M35,12.3l1.5-1.5c2.9-2.9,6.6-4.7,10.6-5.2l2.8-2.8c-0.2,0-0.4,0-0.6,0c-3,0-5.8,0.6-8.5,1.8l-6.7,6.7
		L35,12.3z"/>
	<path fill="#F79520" d="M61.9,10.6l1.9-1.9c-1.3-1.2-2.7-2.3-4.2-3.2l-2,2C59.2,8.4,60.6,9.4,61.9,10.6z"/>
	<path fill="#F79520" d="M65.9,16.5l2-2c-0.8-1.6-1.7-3.1-2.9-4.4L63.1,12C64.3,13.3,65.2,14.9,65.9,16.5z"/>
	<path fill="#F79520" d="M11.8,14.6c-2.4,2.4-3.7,5.6-3.7,9c0,0.5,0,0.9,0.1,1.3l14-14c-0.4,0-0.9-0.1-1.3-0.1
		C17.4,10.9,14.2,12.2,11.8,14.6z"/>
	<path fill="#F79520" d="M8.5,27c0.5,1.7,1.4,3.4,2.6,4.8L29,13.9c-1.4-1.2-3-2.1-4.8-2.6L8.5,27z"/>
	<path fill="#F79520" d="M58.3,32.6c2.4-2.4,3.7-5.6,3.7-9c0-0.2,0-0.4,0-0.6L32.1,52.9l2.9,2.9L58.3,32.6z"/>
	<path fill="#F79520" d="M22.2,43l3.7,3.7l32.2-32.2c-1.3-1.3-2.9-2.2-4.5-2.8L22.2,43z"/>
	<path fill="#F79520" d="M42.4,13L17.3,38.1l3.7,3.7l30.6-30.6c-0.7-0.1-1.5-0.2-2.3-0.2C46.8,10.9,44.4,11.6,42.4,13z"/>
	<path fill="#F79520" d="M27.1,47.9l3.7,3.7l30.8-30.8c-0.4-1.8-1.2-3.5-2.4-5L27.1,47.9z"/>
	<polygon fill="#F79520" points="31.2,16.1 30.3,15.2 12.3,33.1 16,36.8 33.9,18.8 33.1,18 	"/>
</g>
</svg>
