<svg width="1024" height="1024" viewBox="0 0 25 25" fill="none" xmlns="http://www.w3.org/2000/svg">
    <path d="M12.25 2.5V1M2.5 10H1m1.5-7.5L4 4m18 6h1.5M22 2.5 20.5 4" stroke="#F3C90E" stroke-width="1.5" stroke-linecap="round" stroke-linejoin="round"/>
    <path fill-rule="evenodd" clip-rule="evenodd" d="M9.682 4.75h5.143a3.75 3.75 0 0 1 3.7 3.338l1.133 10.22A3.75 3.75 0 0 1 22.75 22a2.25 2.25 0 0 1-2.25 2.25H4A2.25 2.25 0 0 1 1.75 22a3.75 3.75 0 0 1 3.051-3.684L5.935 8.088A3.75 3.75 0 0 1 9.682 4.75Zm9.298 15H5.484A2.25 2.25 0 0 0 3.25 22a.75.75 0 0 0 .75.75h16.5a.75.75 0 0 0 .75-.75A2.25 2.25 0 0 0 19 19.75h-.02ZM17.035 8.253l1.107 9.997H6.318l1.107-9.997a2.25 2.25 0 0 1 2.25-2.003h5.142a2.25 2.25 0 0 1 2.218 2.003Zm-1.382 2.115a.75.75 0 0 0-1.306-.736l-3.145 5.574v.002l-1.603-2.123a.75.75 0 1 0-1.198.904l1.627 2.155c.144.193.334.36.564.47.227.11.48.156.737.128a1.41 1.41 0 0 0 .69-.253c.204-.143.366-.33.484-.536l.004-.006 3.146-5.579Z" fill="url(#a)"/>
    <defs>
        <linearGradient id="a" x1="12.25" y1="5" x2="12.25" y2="24.25" gradientUnits="userSpaceOnUse">
            <stop stop-color="#FAC00E"/>
            <stop offset="1" stop-color="#F26526"/>
        </linearGradient>
    </defs>
</svg>
