<svg xmlns="http://www.w3.org/2000/svg" height="24" viewBox="0 -960 960 960" width="24"><path d="M200-120q-33 0-56.5-23.5T120-200v-560q0-33 23.5-56.5T200-840h320q17 0 28.5 11.5T560-800q0 17-11.5 28.5T520-760H200v560h560v-320q0-17 11.5-28.5T800-560q17 0 28.5 11.5T840-520v320q0 33-23.5 56.5T760-120H200Zm120-440q-17 0-28.5 11.5T280-520v200q0 17 11.5 28.5T320-280q17 0 28.5-11.5T360-320v-200q0-17-11.5-28.5T320-560Zm160-120q-17 0-28.5 11.5T440-640v320q0 17 11.5 28.5T480-280q17 0 28.5-11.5T520-320v-320q0-17-11.5-28.5T480-680Zm160 240q-17 0-28.5 11.5T600-400v80q0 17 11.5 28.5T640-280q17 0 28.5-11.5T680-320v-80q0-17-11.5-28.5T640-440Zm40-240h-40q-17 0-28.5-11.5T600-720q0-17 11.5-28.5T640-760h40v-40q0-17 11.5-28.5T720-840q17 0 28.5 11.5T760-800v40h40q17 0 28.5 11.5T840-720q0 17-11.5 28.5T800-680h-40v40q0 17-11.5 28.5T720-600q-17 0-28.5-11.5T680-640v-40ZM480-480Z"/></svg>