<svg xmlns="http://www.w3.org/2000/svg" height="24" viewBox="0 -960 960 960" width="24"><path d="M200-200h80q17 0 28.5 11.5T320-160q0 17-11.5 28.5T280-120H160q-17 0-28.5-11.5T120-160v-120q0-17 11.5-28.5T160-320q17 0 28.5 11.5T200-280v80Zm560 0v-80q0-17 11.5-28.5T800-320q17 0 28.5 11.5T840-280v120q0 17-11.5 28.5T800-120H680q-17 0-28.5-11.5T640-160q0-17 11.5-28.5T680-200h80ZM200-760v80q0 17-11.5 28.5T160-640q-17 0-28.5-11.5T120-680v-120q0-17 11.5-28.5T160-840h120q17 0 28.5 11.5T320-800q0 17-11.5 28.5T280-760h-80Zm560 0h-80q-17 0-28.5-11.5T640-800q0-17 11.5-28.5T680-840h120q17 0 28.5 11.5T840-800v120q0 17-11.5 28.5T800-640q-17 0-28.5-11.5T760-680v-80Z"/></svg>