<svg xmlns="http://www.w3.org/2000/svg" height="24" viewBox="0 -960 960 960" width="24"><path d="M240-240h-80q-17 0-28.5-11.5T120-280q0-17 11.5-28.5T160-320h120q17 0 28.5 11.5T320-280v120q0 17-11.5 28.5T280-120q-17 0-28.5-11.5T240-160v-80Zm480 0v80q0 17-11.5 28.5T680-120q-17 0-28.5-11.5T640-160v-120q0-17 11.5-28.5T680-320h120q17 0 28.5 11.5T840-280q0 17-11.5 28.5T800-240h-80ZM240-720v-80q0-17 11.5-28.5T280-840q17 0 28.5 11.5T320-800v120q0 17-11.5 28.5T280-640H160q-17 0-28.5-11.5T120-680q0-17 11.5-28.5T160-720h80Zm480 0h80q17 0 28.5 11.5T840-680q0 17-11.5 28.5T800-640H680q-17 0-28.5-11.5T640-680v-120q0-17 11.5-28.5T680-840q17 0 28.5 11.5T720-800v80Z"/></svg>