<?xml version="1.0" encoding="utf-8"?>
<!-- Generator: Adobe Illustrator 18.1.1, SVG Export Plug-In . SVG Version: 6.00 Build 0)  -->
<svg version="1.1" id="Layer_1" xmlns="http://www.w3.org/2000/svg" xmlns:xlink="http://www.w3.org/1999/xlink" x="0px" y="0px"
	 viewBox="0 0 58 42" enable-background="new 0 0 58 42" xml:space="preserve">
<g>
	<g>
		<path fill="#999999" d="M36.3,42H6.6c-3.4,0-6.2-2.8-6.2-6.2V6.2C0.5,2.8,3.2,0,6.6,0h29.6c3.4,0,6.2,2.8,6.2,6.2v8.5
			c1,0.3,2.9,0.5,4.1,0.5V10l11,11l-11,11v-5.3c-1.2,0.1-3.1,0.2-4.1,0.5v8.5C42.5,39.2,39.7,42,36.3,42z M6.6,1.4
			C4,1.4,1.8,3.5,1.8,6.2v29.6c0,2.7,2.2,4.8,4.8,4.8h29.6c2.7,0,4.8-2.2,4.8-4.8v-9.5l0.4-0.2c1.3-0.6,4.6-0.8,5.6-0.8
			c0,0,0.1,0,0.1,0l0.7,0l0,0.7v2.6l7.7-7.7l-7.7-7.7v3.3l-0.7,0c0,0-0.1,0-0.1,0c-1.1,0-4.3-0.2-5.6-0.8l-0.4-0.2V6.2
			c0-2.7-2.2-4.8-4.8-4.8H6.6z"/>
	</g>
	<g>
		<g>
			<g>
				<path fill="#999999" d="M17.4,20.5H7.5c-1.8,0-3.3-1.5-3.3-3.3V7.3C4.2,5.4,5.7,4,7.5,4h9.9c1.8,0,3.3,1.5,3.3,3.3v9.9
					C20.7,19,19.2,20.5,17.4,20.5z M7.5,5.3c-1.1,0-2,0.9-2,2v9.9c0,1.1,0.9,2,2,2h9.9c1.1,0,2-0.9,2-2V7.3c0-1.1-0.9-2-2-2H7.5z"/>
			</g>
		</g>
		<g>
			<g>
				<path fill="#999999" d="M35.4,20.5h-9.9c-1.8,0-3.3-1.5-3.3-3.3V7.3c0-1.8,1.5-3.3,3.3-3.3h9.9c1.8,0,3.3,1.5,3.3,3.3v9.9
					C38.7,19,37.2,20.5,35.4,20.5z M25.5,5.3c-1.1,0-2,0.9-2,2v9.9c0,1.1,0.9,2,2,2h9.9c1.1,0,2-0.9,2-2V7.3c0-1.1-0.9-2-2-2H25.5z"
					/>
			</g>
		</g>
		<g>
			<g>
				<path fill="#999999" d="M17.4,38H7.5c-1.8,0-3.3-1.5-3.3-3.3v-9.9c0-1.8,1.5-3.3,3.3-3.3h9.9c1.8,0,3.3,1.5,3.3,3.3v9.9
					C20.7,36.6,19.2,38,17.4,38z M7.5,22.9c-1.1,0-2,0.9-2,2v9.9c0,1.1,0.9,2,2,2h9.9c1.1,0,2-0.9,2-2v-9.9c0-1.1-0.9-2-2-2H7.5z"/>
			</g>
		</g>
		<g>
			<g>
				<path fill="#999999" d="M35.4,38h-9.9c-1.8,0-3.3-1.5-3.3-3.3v-9.9c0-1.8,1.5-3.3,3.3-3.3h9.9c1.8,0,3.3,1.5,3.3,3.3v9.9
					C38.7,36.6,37.2,38,35.4,38z M25.5,22.9c-1.1,0-2,0.9-2,2v9.9c0,1.1,0.9,2,2,2h9.9c1.1,0,2-0.9,2-2v-9.9c0-1.1-0.9-2-2-2H25.5z"
					/>
			</g>
		</g>
	</g>
</g>
</svg>
