<svg width="25" height="25" viewBox="0 0 25 25" fill="none" xmlns="http://www.w3.org/2000/svg">
<path fill-rule="evenodd" clip-rule="evenodd" d="M5.30884 4.52759C6.96583 4.52759 8.30908 3.85596 8.30908 3.02747C8.30908 2.19897 6.96583 1.52734 5.30884 1.52734C3.65185 1.52734 2.30859 2.19897 2.30859 3.02747C2.30859 3.85596 3.65185 4.52759 5.30884 4.52759Z" stroke="white" stroke-width="1.00008" stroke-linecap="round" stroke-linejoin="round"/>
<path d="M8.30908 5.52539C8.30908 6.35346 6.96497 7.02551 5.30884 7.02551C3.6527 7.02551 2.30859 6.35346 2.30859 5.52539" stroke="white" stroke-width="1.00008" stroke-linecap="round" stroke-linejoin="round"/>
<path d="M8.30908 3.02539V8.0258C8.30908 8.85387 6.96497 9.52592 5.30884 9.52592C3.6527 9.52592 2.30859 8.85387 2.30859 8.0258V3.02539" stroke="white" stroke-width="1.00008" stroke-linecap="round" stroke-linejoin="round"/>
<path fill-rule="evenodd" clip-rule="evenodd" d="M20.3098 4.52759C21.9668 4.52759 23.3101 3.85596 23.3101 3.02747C23.3101 2.19897 21.9668 1.52734 20.3098 1.52734C18.6528 1.52734 17.3096 2.19897 17.3096 3.02747C17.3096 3.85596 18.6528 4.52759 20.3098 4.52759Z" stroke="white" stroke-width="1.00008" stroke-linecap="round" stroke-linejoin="round"/>
<path d="M23.3101 5.52539C23.3101 6.35346 21.9659 7.02551 20.3098 7.02551C18.6537 7.02551 17.3096 6.35346 17.3096 5.52539" stroke="white" stroke-width="1.00008" stroke-linecap="round" stroke-linejoin="round"/>
<path d="M23.3101 3.02539V8.0258C23.3101 8.85387 21.9659 9.52592 20.3098 9.52592C18.6537 9.52592 17.3096 8.85387 17.3096 8.0258V3.02539" stroke="white" stroke-width="1.00008" stroke-linecap="round" stroke-linejoin="round"/>
<path fill-rule="evenodd" clip-rule="evenodd" d="M5.30884 17.5295C6.96583 17.5295 8.30908 16.8579 8.30908 16.0294C8.30908 15.2009 6.96583 14.5293 5.30884 14.5293C3.65185 14.5293 2.30859 15.2009 2.30859 16.0294C2.30859 16.8579 3.65185 17.5295 5.30884 17.5295Z" stroke="white" stroke-width="1.00008" stroke-linecap="round" stroke-linejoin="round"/>
<path d="M8.30908 18.5273C8.30908 19.3554 6.96497 20.0275 5.30884 20.0275C3.6527 20.0275 2.30859 19.3554 2.30859 18.5273" stroke="white" stroke-width="1.00008" stroke-linecap="round" stroke-linejoin="round"/>
<path d="M8.30908 16.0273V21.0278C8.30908 21.8558 6.96497 22.5279 5.30884 22.5279C3.6527 22.5279 2.30859 21.8558 2.30859 21.0278V16.0273" stroke="white" stroke-width="1.00008" stroke-linecap="round" stroke-linejoin="round"/>
<path fill-rule="evenodd" clip-rule="evenodd" d="M20.3098 17.5295C21.9668 17.5295 23.3101 16.8579 23.3101 16.0294C23.3101 15.2009 21.9668 14.5293 20.3098 14.5293C18.6528 14.5293 17.3096 15.2009 17.3096 16.0294C17.3096 16.8579 18.6528 17.5295 20.3098 17.5295Z" stroke="white" stroke-width="1.00008" stroke-linecap="round" stroke-linejoin="round"/>
<path d="M23.3101 18.5273C23.3101 19.3554 21.9659 20.0275 20.3098 20.0275C18.6537 20.0275 17.3096 19.3554 17.3096 18.5273" stroke="white" stroke-width="1.00008" stroke-linecap="round" stroke-linejoin="round"/>
<path d="M23.3101 16.0273V21.0278C23.3101 21.8558 21.9659 22.5279 20.3098 22.5279C18.6537 22.5279 17.3096 21.8558 17.3096 21.0278V16.0273" stroke="white" stroke-width="1.00008" stroke-linecap="round" stroke-linejoin="round"/>
<path d="M8.19531 8.43359L17.4291 15.6092" stroke="white" stroke-width="1.00008" stroke-linecap="round" stroke-linejoin="round"/>
<path d="M8.19531 15.6092L17.4291 8.43359" stroke="white" stroke-width="1.00008" stroke-linecap="round" stroke-linejoin="round"/>
</svg>
