<svg viewBox="0 0 18 19" fill="none" xmlns="http://www.w3.org/2000/svg">
<g clip-path="url(#clip0_2221_8678)">
<path fill-rule="evenodd" clip-rule="evenodd" d="M10.709 16.2723L9.0591 11.3225L9.05674 11.3202C8.99857 11.1443 8.99043 10.9556 9.03322 10.7753C9.07602 10.595 9.16806 10.4302 9.29909 10.2992C9.43011 10.1681 9.59496 10.0761 9.77525 10.0333C9.95554 9.99051 10.1442 9.99865 10.3201 10.0568L15.2699 11.7067C15.4175 11.7573 15.552 11.8402 15.6635 11.9495C15.7813 12.0674 15.8678 12.2128 15.9151 12.3726C15.9624 12.5324 15.969 12.7014 15.9343 12.8644C15.8997 13.0274 15.8248 13.1792 15.7166 13.3059C15.6084 13.4326 15.4702 13.5303 15.3146 13.59L13.4832 14.29C13.4398 14.3078 13.4003 14.334 13.3671 14.3672C13.334 14.4004 13.3077 14.4399 13.29 14.4833L12.5899 16.3147C12.5158 16.5066 12.3843 16.671 12.2133 16.7854C12.0423 16.8998 11.8402 16.9587 11.6346 16.9541C11.4289 16.9494 11.2297 16.8815 11.064 16.7595C10.8984 16.6375 10.7744 16.4673 10.709 16.2723ZM15.0601 12.3408L10.1103 10.6909C10.0519 10.672 9.98949 10.6697 9.92985 10.6841C9.87021 10.6985 9.8157 10.729 9.77232 10.7724C9.72894 10.8158 9.69838 10.8703 9.68399 10.9299C9.6696 10.9896 9.67195 11.052 9.69078 11.1104L11.3407 16.0602C11.3632 16.1243 11.4048 16.18 11.4599 16.2198C11.515 16.2597 11.5809 16.2817 11.6489 16.283C11.7169 16.2843 11.7836 16.2647 11.8402 16.227C11.8967 16.1893 11.9404 16.1352 11.9653 16.0719L12.6677 14.2429C12.6773 14.2187 12.6883 14.1951 12.7007 14.1722C12.7304 14.1171 12.8939 13.8942 12.8939 13.8942C12.8939 13.8942 13.0955 13.7422 13.1721 13.7008C13.195 13.6884 13.2186 13.6774 13.2428 13.6678L15.0719 12.9654C15.1351 12.9405 15.1892 12.8968 15.2269 12.8402C15.2646 12.7837 15.2842 12.717 15.2829 12.649C15.2816 12.581 15.2596 12.5151 15.2198 12.46C15.1799 12.4049 15.1242 12.3633 15.0601 12.3408Z" fill="currentColor"/>
</g>
<path d="M9.70686 3.04459C9.80477 2.67921 10.165 2.45827 10.5115 2.55111C10.858 2.64395 11.0595 3.01541 10.9616 3.38079L10.2525 6.02711C10.1546 6.39249 9.79434 6.61343 9.44787 6.5206C9.10139 6.42776 8.89988 6.0563 8.99778 5.69092L9.70686 3.04459Z" fill="currentColor"/>
<path d="M14.4934 7.08119C14.8424 6.9789 15.197 7.19013 15.2855 7.55297C15.3739 7.91582 15.1627 8.29289 14.8137 8.39518L12.286 9.13603C11.937 9.23832 11.5823 9.0271 11.4939 8.66425C11.4054 8.3014 11.6166 7.92433 11.9657 7.82204L14.4934 7.08119Z" fill="currentColor"/>
<path d="M7.59344 15.9508C7.49553 16.3162 7.13529 16.5371 6.78882 16.4443C6.44234 16.3515 6.24083 15.98 6.33873 15.6146L7.04781 12.9683C7.14572 12.6029 7.50596 12.382 7.85244 12.4748C8.19891 12.5677 8.40042 12.9391 8.30252 13.3045L7.59344 15.9508Z" fill="currentColor"/>
<path d="M2.8069 11.9142C2.45789 12.0165 2.10326 11.8053 2.01481 11.4424C1.92636 11.0796 2.13758 10.7025 2.48659 10.6002L5.01434 9.85938C5.36335 9.75709 5.71798 9.96832 5.80643 10.3312C5.89488 10.694 5.68366 11.0711 5.33465 11.1734L2.8069 11.9142Z" fill="currentColor"/>
<path d="M3.86361 5.46111C3.61251 5.19802 3.61812 4.76586 3.87614 4.49585C4.13417 4.22584 4.5469 4.22023 4.79801 4.48332L6.61668 6.38879C6.86778 6.65188 6.86217 7.08404 6.60415 7.35405C6.34612 7.62406 5.93339 7.62967 5.68228 7.36658L3.86361 5.46111Z" fill="currentColor"/>
<defs>
<clipPath id="clip0_2221_8678">
<rect width="8" height="8" fill="white" transform="translate(11.6567 18.3135) rotate(-135)"/>
</clipPath>
</defs>
</svg>
