<svg viewBox="0 0 32 32" xmlns="http://www.w3.org/2000/svg">
    <g clip-path="url(#clip0_285_1719)">
        <path
            d="M23.9983 4.14264C24.1001 3.95749 24.2419 3.87659 24.4521 3.87825C24.9508 3.88326 25.4512 3.89911 25.9491 3.87325C26.3086 3.8549 26.5063 3.98251 26.6789 4.30694C27.3795 5.62137 29.0017 6.10344 30.2852 5.54548C31.2352 5.13263 31.8774 4.43622 31.9992 3.35365V2.41787C31.9375 2.1685 31.9675 1.89827 31.8432 1.66391C31.3628 0.762325 30.6906 0.130131 29.6155 0.0233755C28.2652 -0.110903 27.2394 0.361157 26.6447 1.45874C26.4929 1.73814 26.3078 1.83489 26.0017 1.82988C25.1493 1.81487 24.2961 1.83655 23.4437 1.81904C23.0918 1.81153 22.8666 1.91996 22.6939 2.24106C22.2702 3.02838 21.8107 3.79652 21.3712 4.57467C21.2569 4.77734 21.1335 4.83071 20.9174 4.73063C20.3878 4.48543 19.8424 4.28026 19.2727 4.15015C19.0125 4.09093 18.9141 3.94748 18.9224 3.68726C18.9341 3.34448 18.9249 3.00086 18.9249 2.65807C18.9249 1.92996 18.9274 1.20186 18.9241 0.473751C18.9216 0.0292137 18.9058 0.0158692 18.4754 0.0150352C18.0384 0.0150352 17.6013 0.0233755 17.1651 0.010865C16.9616 0.00502684 16.8807 0.0909318 16.8716 0.279422C16.8657 0.393684 16.8657 0.507946 16.8657 0.622208C16.8657 1.54798 16.8624 2.47375 16.8674 3.39952C16.8682 3.61637 16.8149 3.72313 16.5663 3.70561C16.1935 3.67892 15.8174 3.68393 15.4437 3.70561C15.2519 3.71645 15.1785 3.64556 15.1802 3.45957C15.1835 3.1368 15.181 2.81487 15.1802 2.4921C15.1785 1.78484 15.1868 1.07759 15.176 0.370331C15.171 0.0450602 15.1326 0.0158692 14.8149 0.0150352C14.4095 0.0133671 14.0033 0.0150352 13.598 0.0150352C13.1284 0.0150352 13.1218 0.0200394 13.1201 0.506278C13.1184 1.55632 13.1126 2.6072 13.1243 3.65724C13.1276 3.94664 13.0275 4.0951 12.7406 4.15765C12.2002 4.27525 11.6889 4.48459 11.1818 4.70227C10.8649 4.83822 10.8307 4.83405 10.6597 4.54131C10.2043 3.75982 9.75397 2.97417 9.31444 2.18434C9.17015 1.92496 8.985 1.81654 8.68975 1.81987C7.81652 1.82988 6.94246 1.8107 6.06923 1.82988C5.73562 1.83739 5.55047 1.71812 5.37949 1.42788C4.91911 0.650565 4.27023 0.0959359 3.32695 0.0300477C2.66556 -0.0158239 1.99584 -0.0425128 1.39367 0.343642C0.427864 0.962491 -0.0308513 1.81403 0.00167577 2.98334C0.0325348 4.08843 0.533786 4.87325 1.45122 5.39702C2.89242 6.21937 4.64721 5.68059 5.4287 4.20603C5.54379 3.98835 5.68308 3.87575 5.93829 3.88159C6.47874 3.89327 7.02002 3.89076 7.56048 3.88159C7.79651 3.87825 7.94913 3.97 8.06173 4.176C8.31444 4.64222 8.5905 5.0951 8.84655 5.55966C9.02003 5.87408 9.01002 5.89494 8.71477 6.11595C7.64138 6.91996 6.70226 7.85824 5.93912 8.96166C5.75647 9.22604 5.5513 9.31946 5.24021 9.31779C3.70143 9.30611 2.16181 9.31278 0.622193 9.31278C0.507931 9.31278 0.393669 9.31278 0.279407 9.31862C0.0900828 9.3278 0.00667994 9.41036 0.0108501 9.61387C0.0225265 10.1126 0.0258626 10.6122 0.0100161 11.1109C0.0025098 11.347 0.103427 11.4287 0.317773 11.4321C0.587998 11.4371 0.858223 11.4346 1.12928 11.4354C2.17932 11.4354 3.2302 11.4354 4.28024 11.4354C4.4362 11.4354 4.588 11.4262 4.49542 11.6689C4.11927 12.6556 3.88408 13.6773 3.76815 14.7256C3.74646 14.9233 3.64888 14.9942 3.46206 14.9917C3.24354 14.9883 3.02503 14.9917 2.80651 14.9917C2.00585 14.9925 1.20518 14.9867 0.404511 14.9942C0.039207 14.9975 0.0150202 15.0284 0.0150202 15.3837C0.0150202 15.7999 0.0150202 16.216 0.0150202 16.6314C0.0150202 17.0309 0.0291987 17.0492 0.436205 17.0509C1.41369 17.0551 2.39117 17.0592 3.36865 17.0476C3.63887 17.0442 3.75647 17.1285 3.78566 17.4095C3.88908 18.4179 4.12511 19.3979 4.48625 20.3445C4.57382 20.573 4.48791 20.6139 4.28358 20.6114C3.68058 20.6047 3.07757 20.6089 2.47374 20.6089C1.76648 20.6089 1.05922 20.6089 0.351968 20.6089C0.112602 20.6089 -0.00583048 20.6839 0.008348 20.9575C0.0317008 21.3929 0.0141862 21.8307 0.0141862 22.2677C0.0141862 22.719 0.0216924 22.7256 0.489582 22.7306C0.593836 22.7315 0.697255 22.7306 0.801509 22.7306C2.29942 22.7306 3.7965 22.7323 5.29442 22.729C5.52294 22.729 5.71394 22.759 5.85989 22.9733C6.65722 24.146 7.64721 25.1335 8.78483 25.9742C8.95998 26.1034 8.99417 26.2294 8.88324 26.4212C8.59717 26.9166 8.3111 27.412 8.03337 27.9116C7.92912 28.0993 7.77482 28.1618 7.56965 28.1602C7.0292 28.156 6.48791 28.1518 5.94746 28.1618C5.69642 28.1668 5.55047 28.0634 5.43203 27.8449C4.8674 26.799 3.98917 26.3094 2.794 26.2761C1.53295 26.2402 0.0425432 27.4512 0.0225265 28.7723C0.0125181 29.417 -0.0350215 30.0634 0.340291 30.6439C0.819024 31.3845 1.43954 31.9083 2.35364 31.9975H3.28942C4.27691 31.94 4.93495 31.3787 5.40451 30.5688C5.55631 30.3069 5.72728 30.2077 6.02169 30.2119C6.9141 30.226 7.80735 30.2119 8.70059 30.2202C8.98083 30.2227 9.16181 30.126 9.30193 29.8749C9.7473 29.0776 10.1993 28.2836 10.6606 27.4946C10.8315 27.2019 10.8624 27.1994 11.1802 27.337C11.6756 27.5521 12.1793 27.744 12.7039 27.8791C13.0993 27.9808 13.1201 28.0059 13.1209 28.4062C13.1234 29.4546 13.1209 30.5038 13.1226 31.5521C13.1226 31.7056 13.0968 31.8674 13.2135 31.9975H15.0859C15.2085 31.8582 15.1877 31.6873 15.1877 31.523C15.1902 30.5888 15.1868 29.6547 15.1902 28.7206C15.1918 28.3595 15.206 28.3495 15.5546 28.3545C15.8557 28.3587 16.1568 28.3587 16.4579 28.3545C16.8474 28.3495 16.8532 28.3511 16.8541 28.7515C16.8566 29.6756 16.8541 30.5989 16.8557 31.523C16.8557 31.6873 16.8349 31.8582 16.9575 31.9975H18.8299C18.9466 31.8666 18.9199 31.7048 18.9208 31.5521C18.9233 30.5038 18.9208 29.4546 18.9224 28.4062C18.9233 28.0059 18.9441 27.9808 19.3395 27.8791C19.8641 27.7448 20.3678 27.5521 20.8632 27.3378C21.1818 27.1994 21.211 27.2019 21.382 27.4954C21.8374 28.2753 22.2869 29.0592 22.7239 29.8491C22.8741 30.121 23.0659 30.2269 23.372 30.2227C24.2752 30.2102 25.1785 30.221 26.0817 30.216C26.3086 30.2144 26.4696 30.2744 26.5897 30.4896C27.0517 31.3178 27.6964 31.9041 28.6898 31.9992H29.6255C30.7682 31.9842 31.9425 30.7848 31.9975 29.6898V28.754C31.945 27.8032 31.4129 27.1535 30.6464 26.6789C29.2944 25.8416 27.3436 26.3395 26.6147 27.8449C26.5063 28.0684 26.3578 28.1727 26.1043 28.1677C25.553 28.1568 25.0017 28.161 24.4512 28.166C24.241 28.1677 24.0984 28.0876 23.9975 27.9024C23.7323 27.4195 23.4462 26.9475 23.1818 26.4646C23.0167 26.1643 23.0259 26.1468 23.3094 25.935C24.392 25.126 25.337 24.1793 26.1084 23.0692C26.2836 22.8165 26.4754 22.719 26.7782 22.7215C28.3695 22.7331 29.96 22.7273 31.5513 22.7256C31.7048 22.7256 31.8666 22.7548 31.9983 22.6372V20.7023C31.8591 20.5797 31.6864 20.6039 31.5229 20.603C30.2877 20.6005 29.0517 20.603 27.8165 20.6005C27.4996 20.6005 27.4854 20.5788 27.5905 20.2853C27.9141 19.3828 28.1426 18.4579 28.2577 17.5046C28.3119 17.0584 28.3203 17.0576 28.7823 17.0567C29.6964 17.0551 30.6097 17.0576 31.5238 17.0551C31.6881 17.0551 31.8599 17.0784 31.9992 16.9558V15.0834C31.8699 14.9675 31.7089 14.985 31.5546 14.9842C30.6405 14.9817 29.7273 14.9842 28.8132 14.9825C28.3169 14.9825 28.3094 14.9825 28.2519 14.5038C28.1393 13.5713 27.9141 12.6672 27.5997 11.7832C27.4812 11.4504 27.4888 11.4387 27.8474 11.4387C29.0726 11.4371 30.2978 11.4387 31.5229 11.4371C31.6872 11.4371 31.8591 11.4604 31.9983 11.3378V9.40286C31.8666 9.28526 31.7048 9.31529 31.5513 9.31445C29.95 9.31195 28.3478 9.30861 26.7465 9.31779C26.4687 9.31946 26.2878 9.23021 26.1268 8.99585C25.3528 7.87408 24.4028 6.91829 23.3094 6.10511C23.025 5.8941 23.0167 5.87492 23.181 5.5755C23.4462 5.09177 23.7323 4.62054 23.9975 4.13764L23.9983 4.14264ZM29.1735 1.91829C29.6772 1.91078 30.1351 2.37033 30.1259 2.87325C30.1159 3.377 29.6864 3.79485 29.1785 3.79318C28.6647 3.79152 28.2519 3.377 28.2511 2.86241C28.2511 2.35448 28.6697 1.92496 29.1735 1.91829ZM2.85405 3.79402C2.3478 3.79068 1.91911 3.36366 1.91911 2.86241C1.91911 2.35699 2.38283 1.90244 2.88324 1.91912C3.3895 1.9358 3.79984 2.367 3.794 2.87575C3.78816 3.38868 3.36948 3.79735 2.85405 3.79402ZM2.85405 30.126C2.35947 30.121 1.91994 29.6781 1.91911 29.1843C1.91827 28.6697 2.36031 28.2419 2.88324 28.2511C3.39534 28.2602 3.80068 28.6814 3.79317 29.1985C3.7865 29.7031 3.35197 30.131 2.85322 30.126H2.85405ZM29.196 28.2511C29.7014 28.2569 30.1293 28.6873 30.1251 29.1885C30.1218 29.6839 29.6814 30.1235 29.186 30.126C28.6731 30.1285 28.2419 29.6848 28.2502 29.1635C28.2586 28.6514 28.6789 28.2452 29.1952 28.2511H29.196ZM26.362 16.0292C26.3461 21.7323 21.6906 26.3812 16.0142 26.3628C10.3103 26.3445 5.66556 21.6931 5.68141 16.0159C5.69726 10.3128 10.3486 5.66725 16.0284 5.68309C21.7323 5.69894 26.3778 10.3503 26.362 16.03V16.0292Z"
        />
        <path
            d="M21.9425 15.9875C21.9425 14.8349 21.9483 13.6815 21.9374 12.5288C21.9358 12.3137 21.985 12.2444 22.2077 12.2536C22.6639 12.2719 23.1218 12.2669 23.578 12.2553C23.7598 12.2503 23.8265 12.2878 23.8257 12.4905C23.8182 14.8483 23.819 17.2061 23.824 19.563C23.824 19.7373 23.779 19.7941 23.6005 19.7899C23.1234 19.7782 22.6447 19.7732 22.1676 19.7915C21.9558 19.7999 21.9374 19.7131 21.9383 19.5397C21.945 18.3554 21.9416 17.1719 21.9416 15.9875H21.9425Z"
        />
        <path
            d="M13.5838 17.271C13.5838 16.5638 13.5813 15.8565 13.5847 15.1493C13.5855 14.8874 13.553 14.6313 13.4863 14.3803C13.1076 12.9641 11.819 12.1067 10.342 12.2852C8.98917 12.4487 7.94413 13.668 7.92912 15.1384C7.91328 16.6047 7.93079 18.0717 7.91995 19.5379C7.91828 19.7573 7.99668 19.7965 8.19017 19.7915C8.64722 19.7798 9.10594 19.7748 9.56298 19.7931C9.79318 19.8023 9.83905 19.7156 9.83321 19.5071C9.81903 19.0392 9.83571 18.5713 9.82487 18.1034C9.82153 17.9374 9.87408 17.8924 10.0367 17.8957C10.5146 17.9057 10.9933 17.9066 11.4721 17.8957C11.6472 17.8916 11.7064 17.9408 11.7023 18.1209C11.6906 18.5888 11.7056 19.0567 11.6948 19.5246C11.6906 19.7114 11.7181 19.8023 11.9416 19.794C12.4087 19.7748 12.8774 19.7798 13.3453 19.7923C13.5363 19.7973 13.5922 19.7439 13.5897 19.5496C13.578 18.7906 13.5847 18.0308 13.5847 17.2719L13.5838 17.271ZM11.5171 16.0242C11.2577 16.0225 10.9983 16.0242 10.739 16.0242C10.5313 16.0242 10.3228 16.01 10.1168 16.0283C9.8991 16.0467 9.79318 16.0008 9.82153 15.7506C9.84739 15.5254 9.82153 15.2944 9.82904 15.0667C9.84572 14.5596 10.2152 14.1726 10.6973 14.1484C11.1918 14.1234 11.6072 14.4495 11.6706 14.9541C11.7089 15.261 11.6864 15.5746 11.6973 15.8849C11.7023 16.0267 11.6155 16.0258 11.5163 16.025L11.5171 16.0242Z"
        />
        <path
            d="M20.7048 14.7373C20.5855 13.4745 19.4295 12.3294 18.1326 12.2802C17.2194 12.2452 16.3036 12.2702 15.3887 12.2527C15.156 12.2485 15.0751 12.2952 15.0784 12.5504C15.0943 13.7039 15.0851 14.8582 15.0851 16.0125C15.0851 17.1876 15.0901 18.3619 15.0801 19.5371C15.0784 19.7414 15.1326 19.799 15.3361 19.7923C15.8032 19.7765 16.2719 19.779 16.7398 19.7923C16.9208 19.7973 16.965 19.7381 16.9608 19.5654C16.95 19.0876 16.9683 18.6088 16.9516 18.1309C16.945 17.9308 17.0109 17.8932 17.1968 17.8941C17.6422 17.8957 18.0892 17.9324 18.5321 17.8332C19.6789 17.5771 20.8657 16.4487 20.7039 14.7381L20.7048 14.7373ZM17.9174 16.02C17.6088 16.0317 17.1927 16.1309 17.0192 15.975C16.819 15.7948 16.9867 15.372 16.9583 15.1084C16.9583 14.8373 16.9691 14.6197 16.955 14.4028C16.9425 14.2143 16.9792 14.1184 17.2002 14.1401C17.4262 14.1618 17.6556 14.1418 17.8832 14.1459C18.4187 14.1559 18.8207 14.5388 18.8349 15.0475C18.849 15.5713 18.4537 16 17.9183 16.0192L17.9174 16.02Z"
        />
    </g>
    <defs>
        <clipPath id="clip0_285_1719">
            <rect width="31.9992" height="32" />
        </clipPath>
    </defs>
</svg>