<svg width="48" height="48" viewBox="0 0 48 48" fill="none" fill-opacity="0" xmlns="http://www.w3.org/2000/svg">
    <path stroke-width="3" stroke="currentColor" d="M42.8247 35.6484L43.226 35.9466L42.8246 35.6485C39.0288 40.7576 31.7308 41.7808 26.5202 37.9093C21.31 34.0381 20.183 26.7553 23.979 21.6463C27.7747 16.5374 35.073 15.5144 40.2834 19.3856C45.4937 23.2569 46.6205 30.5396 42.8247 35.6484ZM12.2356 11.6246L11.8342 11.3264L12.2356 11.6246C13.9692 9.29133 17.2658 8.8053 19.5988 10.5388C21.932 12.2723 22.4181 15.5688 20.6845 17.9021C18.9511 20.2351 15.6545 20.7212 13.3214 18.9877C10.9883 17.2542 10.5022 13.9576 12.2356 11.6246ZM4.10486 39.9635L4.10485 39.9635C0.145895 37.0221 -0.678883 31.4283 2.26253 27.4694C5.20403 23.5104 10.7977 22.6856 14.7567 25.6271C18.7157 28.5686 19.5405 34.1624 16.599 38.1214C13.6576 42.0802 8.0638 42.9051 4.10486 39.9635Z" />
</svg>
