<svg viewBox="0 0 24 24" xmlns="http://www.w3.org/2000/svg">
    <path
        d="M18.08 12.42L11.9 18.61C11.0898 19.33 10.0352 19.7133 8.95173 19.6814C7.86831 19.6495 6.83801 19.2049 6.07158 18.4384C5.30515 17.672 4.86052 16.6417 4.82862 15.5583C4.79673 14.4749 5.17999 13.4202 5.90001 12.61L13.9 4.61C14.3776 4.1563 15.0112 3.90333 15.67 3.90333C16.3288 3.90333 16.9624 4.1563 17.44 4.61C17.9054 5.08159 18.1663 5.71747 18.1663 6.38C18.1663 7.04253 17.9054 7.67841 17.44 8.15L10.54 15.04C10.4717 15.1135 10.3896 15.1729 10.2984 15.2147C10.2072 15.2565 10.1086 15.28 10.0083 15.2837C9.908 15.2874 9.80797 15.2713 9.71389 15.2364C9.61982 15.2014 9.53355 15.1483 9.46001 15.08C9.38647 15.0117 9.3271 14.9296 9.28529 14.8384C9.24348 14.7471 9.22005 14.6486 9.21633 14.5483C9.21262 14.448 9.22869 14.348 9.26364 14.2539C9.29859 14.1598 9.35172 14.0735 9.42001 14L14.55 8.88C14.7383 8.6917 14.8441 8.4363 14.8441 8.17C14.8441 7.9037 14.7383 7.6483 14.55 7.46C14.3617 7.2717 14.1063 7.16591 13.84 7.16591C13.5737 7.16591 13.3183 7.2717 13.13 7.46L8.00001 12.6C7.74331 12.8547 7.53957 13.1577 7.40054 13.4915C7.2615 13.8253 7.18992 14.1834 7.18992 14.545C7.18992 14.9066 7.2615 15.2647 7.40054 15.5985C7.53957 15.9323 7.74331 16.2353 8.00001 16.49C8.52438 16.9895 9.22081 17.2681 9.94501 17.2681C10.6692 17.2681 11.3656 16.9895 11.89 16.49L18.78 9.59C19.5749 8.73695 20.0076 7.60867 19.9871 6.44286C19.9665 5.27706 19.4942 4.16475 18.6697 3.34027C17.8453 2.51579 16.7329 2.04352 15.5671 2.02295C14.4013 2.00238 13.2731 2.43512 12.42 3.23L4.42001 11.23C3.34121 12.4248 2.76504 13.9899 2.81154 15.599C2.85805 17.2081 3.52364 18.7372 4.66965 19.8678C5.81565 20.9983 7.35368 21.6431 8.96329 21.6677C10.5729 21.6923 12.1299 21.0949 13.31 20L19.5 13.82C19.5932 13.7268 19.6672 13.6161 19.7177 13.4942C19.7681 13.3724 19.7941 13.2419 19.7941 13.11C19.7941 12.9781 19.7681 12.8476 19.7177 12.7257C19.6672 12.6039 19.5932 12.4932 19.5 12.4C19.4068 12.3068 19.2961 12.2328 19.1743 12.1823C19.0524 12.1319 18.9219 12.1059 18.79 12.1059C18.6581 12.1059 18.5276 12.1319 18.4058 12.1823C18.2839 12.2328 18.1732 12.3068 18.08 12.4V12.42Z"
    />
</svg>
    