<svg xmlns="http://www.w3.org/2000/svg" data-name="Layer 1" viewBox="0 0 24 24"><path d="M20.87,17.25l-2.71-4.68A6.9,6.9,0,0,0,19,9.25a7,7,0,0,0-14,0,6.9,6.9,0,0,0,.84,3.32L3.13,17.25A1,1,0,0,0,4,18.75l2.87,0,1.46,2.46a1,1,0,0,0,.18.22,1,1,0,0,0,.69.28h.14a1,1,0,0,0,.73-.49L12,17.9l1.93,3.35a1,1,0,0,0,.73.48h.14a1,1,0,0,0,.7-.28.87.87,0,0,0,.17-.21l1.46-2.46,2.87,0a1,1,0,0,0,.87-.5A1,1,0,0,0,20.87,17.25ZM9.19,18.78,8.3,17.29a1,1,0,0,0-.85-.49l-1.73,0,1.43-2.48a7,7,0,0,0,3.57,1.84ZM12,14.25a5,5,0,1,1,5-5A5,5,0,0,1,12,14.25Zm4.55,2.55a1,1,0,0,0-.85.49l-.89,1.49-1.52-2.65a7.06,7.06,0,0,0,3.56-1.84l1.43,2.48Z"/></svg>