<svg xmlns="http://www.w3.org/2000/svg" viewBox="0 0 24 24"><path d="M19,5H9.83a3,3,0,0,0-2.12.88L2.29,11.29a1,1,0,0,0,0,1.42l5.42,5.41A3,3,0,0,0,9.83,19H19a3,3,0,0,0,3-3V8A3,3,0,0,0,19,5Zm1,11a1,1,0,0,1-1,1H9.83a1.05,1.05,0,0,1-.71-.29L4.41,12,9.12,7.29A1.05,1.05,0,0,1,9.83,7H19a1,1,0,0,1,1,1ZM16.71,9.29a1,1,0,0,0-1.42,0L14,10.59l-1.29-1.3a1,1,0,0,0-1.42,1.42L12.59,12l-1.3,1.29a1,1,0,0,0,0,1.42,1,1,0,0,0,1.42,0L14,13.41l1.29,1.3a1,1,0,0,0,1.42,0,1,1,0,0,0,0-1.42L15.41,12l1.3-1.29A1,1,0,0,0,16.71,9.29Z"/></svg>