<svg xmlns="http://www.w3.org/2000/svg" viewBox="0 0 24 24" fill="currentColor">
  <g transform="scale(1.5)">
    <path d="M2.0026 4.33333H14.0026C14.1794 4.33333 14.349 4.2631 14.474 4.13807C14.599 4.01305 14.6693 3.84348 14.6693 3.66667C14.6693 3.48986 14.599 3.32029 14.474 3.19526C14.349 3.07024 14.1794 3 14.0026 3H2.0026C1.82579 3 1.65622 3.07024 1.5312 3.19526C1.40618 3.32029 1.33594 3.48986 1.33594 3.66667C1.33594 3.84348 1.40618 4.01305 1.5312 4.13807C1.65622 4.2631 1.82579 4.33333 2.0026 4.33333ZM7.0026 9.66667H2.0026C1.82579 9.66667 1.65622 9.7369 1.5312 9.86193C1.40618 9.98695 1.33594 10.1565 1.33594 10.3333C1.33594 10.5101 1.40618 10.6797 1.5312 10.8047C1.65622 10.9298 1.82579 11 2.0026 11H7.0026V9.66667ZM9 6.33333H2.0026C1.82579 6.33333 1.65622 6.40357 1.5312 6.5286C1.40618 6.65362 1.33594 6.82319 1.33594 7C1.33594 7.17681 1.40618 7.34638 1.5312 7.4714C1.65622 7.59643 1.82579 7.66667 2.0026 7.66667H7.5C7.5 7.5 8.77826 6.33333 9 6.33333Z"/>
    <path d="M11.5026 6.5625C10.7238 6.5625 9.96257 6.79343 9.31505 7.22609C8.66753 7.65875 8.16285 8.2737 7.86483 8.99318C7.56681 9.71267 7.48883 10.5044 7.64076 11.2682C7.79269 12.032 8.1677 12.7336 8.71837 13.2842C9.26904 13.8349 9.97064 14.2099 10.7344 14.3618C11.4982 14.5138 12.2899 14.4358 13.0094 14.1378C13.7289 13.8398 14.3439 13.3351 14.7765 12.6876C15.2092 12.04 15.4401 11.2788 15.4401 10.5C15.4401 9.98292 15.3383 9.4709 15.1404 8.99318C14.9425 8.51546 14.6525 8.0814 14.2868 7.71577C13.9212 7.35014 13.4871 7.0601 13.0094 6.86222C12.5317 6.66435 12.0197 6.5625 11.5026 6.5625ZM11.5026 13.65C10.8796 13.65 10.2706 13.4653 9.75256 13.1191C9.23454 12.773 8.8308 12.281 8.59239 11.7055C8.35397 11.1299 8.29159 10.4965 8.41313 9.88547C8.53468 9.27443 8.83468 8.71315 9.27522 8.27261C9.71575 7.83208 10.277 7.53207 10.8881 7.41053C11.4991 7.28898 12.1325 7.35136 12.7081 7.58978C13.2836 7.8282 13.7756 8.23194 14.1217 8.74995C14.4679 9.26797 14.6526 9.87699 14.6526 10.5C14.6526 11.3354 14.3207 12.1366 13.73 12.7274C13.1393 13.3181 12.338 13.65 11.5026 13.65ZM11.5026 8.1375C11.3982 8.1375 11.298 8.17898 11.2242 8.25283C11.1503 8.32667 11.1089 8.42682 11.1089 8.53125V10.1062H10.3214C10.2169 10.1062 10.1168 10.1477 10.0429 10.2216C9.96909 10.2954 9.92761 10.3956 9.92761 10.5C9.92761 10.6044 9.96909 10.7046 10.0429 10.7784C10.1168 10.8523 10.2169 10.8937 10.3214 10.8937H11.5026C11.607 10.8937 11.7072 10.8523 11.781 10.7784C11.8549 10.7046 11.8964 10.6044 11.8964 10.5V8.53125C11.8964 8.42682 11.8549 8.32667 11.781 8.25283C11.7072 8.17898 11.607 8.1375 11.5026 8.1375Z"/>
  </g>
</svg>
