<svg xmlns="http://www.w3.org/2000/svg" data-name="Layer 1" viewBox="0 0 24 24"><path d="M20.07,6.35H15V7.76h5.09ZM19,16.05a2.23,2.23,0,0,1-1.3.37A2.23,2.23,0,0,1,16,15.88a2.49,2.49,0,0,1-.62-1.76H22a6.47,6.47,0,0,0-.17-2,5.08,5.08,0,0,0-.8-1.73,4.17,4.17,0,0,0-1.42-1.21,4.37,4.37,0,0,0-2-.45,4.88,4.88,0,0,0-1.9.37,4.51,4.51,0,0,0-1.47,1,4.4,4.4,0,0,0-.95,1.52,5.4,5.4,0,0,0-.33,1.91,5.52,5.52,0,0,0,.32,1.94A4.46,4.46,0,0,0,14.16,17a4,4,0,0,0,1.46,1,5.2,5.2,0,0,0,1.94.34,4.77,4.77,0,0,0,2.64-.7,4.21,4.21,0,0,0,1.63-2.35H19.62A1.54,1.54,0,0,1,19,16.05Zm-3.43-4.12a1.87,1.87,0,0,1,1-1.14,2.28,2.28,0,0,1,1-.2,1.73,1.73,0,0,1,1.36.49,2.91,2.91,0,0,1,.63,1.45H15.41A3,3,0,0,1,15.52,11.93Zm-5.29-.48a3.06,3.06,0,0,0,1.28-1,2.72,2.72,0,0,0,.43-1.58,3.28,3.28,0,0,0-.29-1.48,2.4,2.4,0,0,0-.82-1,3.24,3.24,0,0,0-1.27-.52,7.54,7.54,0,0,0-1.64-.16H2V18.29H8.1a6.55,6.55,0,0,0,1.65-.21,4.55,4.55,0,0,0,1.43-.65,3.13,3.13,0,0,0,1-1.14,3.41,3.41,0,0,0,.37-1.65,3.47,3.47,0,0,0-.57-2A3,3,0,0,0,10.23,11.45ZM4.77,7.86H7.36a4.17,4.17,0,0,1,.71.06,1.64,1.64,0,0,1,.61.22,1.05,1.05,0,0,1,.42.44,1.42,1.42,0,0,1,.16.72,1.36,1.36,0,0,1-.47,1.15,2,2,0,0,1-1.22.35H4.77ZM9.61,15.3a1.28,1.28,0,0,1-.45.5,2,2,0,0,1-.65.26,3.33,3.33,0,0,1-.78.08h-3V12.69h3a2.4,2.4,0,0,1,1.45.41,1.65,1.65,0,0,1,.54,1.39A1.77,1.77,0,0,1,9.61,15.3Z"/></svg>