<svg viewBox="0 0 32 32" xmlns="http://www.w3.org/2000/svg">
    <path
        d="M30.2759 6.14745C30.2759 5.74245 30.2492 5.34078 30.1459 4.94495C29.6234 2.94328 27.9467 1.66411 25.815 1.66245C19.2484 1.65911 12.6809 1.66078 6.11419 1.66245C5.77169 1.66245 5.43086 1.68911 5.09253 1.75411C3.28419 2.10161 1.78086 3.76661 1.69503 5.59828C1.60836 7.45578 1.66419 9.31578 1.66336 11.1749C1.65919 16.0174 1.66169 20.8591 1.66169 25.7016C1.66169 26.1274 1.67836 26.5524 1.78336 26.9683C2.28586 28.9624 3.97919 30.2699 6.09669 30.2758C9.32836 30.2833 12.56 30.2783 15.7917 30.2774C15.895 30.2774 15.9992 30.2724 16.1025 30.2591C16.5009 30.2091 16.7667 29.9824 16.9075 29.6158C17.1692 28.9341 16.6592 28.2641 15.8759 28.2633C12.6442 28.2608 9.41253 28.2633 6.18169 28.2608C5.98503 28.2608 5.78336 28.2674 5.59253 28.2299C4.42919 28.0033 3.68086 27.0916 3.68003 25.8933C3.67669 21.2591 3.68169 16.6249 3.67169 11.9908C3.67169 11.7183 3.73253 11.6533 4.00669 11.6541C7.98669 11.6641 11.9659 11.6608 15.9459 11.6608C19.9259 11.6608 23.9467 11.6633 27.9475 11.6541C28.2059 11.6541 28.27 11.7133 28.2684 11.9733C28.255 13.7191 28.26 15.4649 28.2625 17.2099C28.2634 17.8249 28.6617 18.2691 29.2242 18.2999C29.7192 18.3266 30.2884 17.9633 30.285 17.1191C30.2692 13.4624 30.2792 9.80495 30.2767 6.14828L30.2759 6.14745ZM27.9692 9.64745C23.9692 9.64078 19.9692 9.64245 15.9692 9.64245C11.9692 9.64245 7.99003 9.63995 4.00086 9.64828C3.75086 9.64828 3.66586 9.60328 3.67003 9.33245C3.68753 8.24161 3.67336 7.15078 3.67836 6.05995C3.68419 4.66078 4.66669 3.67911 6.07253 3.67828C12.67 3.67578 19.2667 3.67578 25.8642 3.67828C27.2717 3.67828 28.2534 4.65745 28.2592 6.05828C28.2642 7.15911 28.2517 8.26078 28.2667 9.36161C28.27 9.60745 28.1917 9.64661 27.9692 9.64661V9.64745Z"
    />
    <path
        d="M29.2475 21.3258C28.5192 20.9116 27.795 20.49 27.0692 20.0708C24.9725 18.8616 22.88 17.6433 20.7767 16.4458C19.52 15.73 18.0283 16.5958 18.0283 18.0958C18.0308 18.1258 18.03 18.2308 18.0475 18.3325C18.6042 21.5025 19.1683 24.6716 19.7158 27.8425C19.8625 28.6908 20.2483 29.3308 21.1175 29.5525C22.0025 29.7791 22.6617 29.4033 23.1808 28.6933C23.6033 28.1158 24.05 27.5558 24.4867 26.9883C24.7075 26.7016 24.7092 26.7016 24.9242 27.0091C25.5783 27.9433 26.2267 28.8808 26.8867 29.8108C27.3033 30.3983 28.1142 30.4241 28.5325 29.8741C28.8142 29.5033 28.8133 29.0675 28.5117 28.6341C27.8608 27.6975 27.2042 26.765 26.55 25.8308C26.3508 25.5475 26.3508 25.5491 26.695 25.4408C27.4242 25.2125 28.1525 24.9833 28.8808 24.7525C29.6492 24.5091 30.1517 24.0166 30.25 23.1966C30.3517 22.3516 29.9783 21.7391 29.2483 21.3241L29.2475 21.3258ZM25.3567 23.7441C24.4733 23.95 23.8392 24.4066 23.3433 25.155C22.8917 25.8366 22.3567 26.4633 21.8575 27.1133C21.81 27.175 21.7525 27.2291 21.6733 27.315C21.1467 24.3225 20.6283 21.3733 20.0992 18.3675C22.75 19.8975 25.3467 21.3958 27.9908 22.9216C27.0792 23.2116 26.2325 23.5391 25.3567 23.7441Z"
    />
    <path
        d="M10.3192 7.66752C9.7825 7.67085 9.30333 7.19252 9.305 6.65419C9.30666 6.10752 9.77583 5.64669 10.325 5.65252C10.8683 5.65835 11.31 6.09919 11.3175 6.64335C11.325 7.19169 10.865 7.66335 10.32 7.66669L10.3192 7.66752Z"
    />
    <path
        d="M7.98749 6.66089C7.98582 7.21839 7.52832 7.67423 6.97832 7.66673C6.42749 7.65923 5.98666 7.19923 5.99249 6.63839C5.99832 6.09089 6.43416 5.65839 6.98499 5.65589C7.54332 5.65339 7.98916 6.10006 7.98749 6.66089Z"
    />
    <path
        d="M14.6517 6.65005C14.6567 7.18838 14.1817 7.66671 13.6425 7.66755C13.1 7.66755 12.635 7.19588 12.6392 6.64921C12.6434 6.10171 13.0775 5.66421 13.6259 5.65421C14.1717 5.64421 14.6475 6.10671 14.6517 6.65005Z"
    />
</svg>