<svg xmlns="http://www.w3.org/2000/svg" viewBox="0 0 24 24"><path d="M18.5,2H6.5a3,3,0,0,0-3,3V17a3,3,0,0,0,2,2.82V21a1,1,0,0,0,2,0V20h10v1a1,1,0,0,0,2,0V19.82a3,3,0,0,0,2-2.82V5A3,3,0,0,0,18.5,2ZM5.5,8h6v4h-6Zm14,9a1,1,0,0,1-1,1H6.5a1,1,0,0,1-1-1V14h14Zm0-5h-6V8h6Zm0-6H5.5V5a1,1,0,0,1,1-1h12a1,1,0,0,1,1,1ZM16.12,16.92a1,1,0,0,0,.38.08,1,1,0,0,0,1-1,1.36,1.36,0,0,0,0-.2.64.64,0,0,0-.06-.18.76.76,0,0,0-.09-.18,1.58,1.58,0,0,0-.12-.15l-.15-.12a.76.76,0,0,0-.18-.09A.64.64,0,0,0,16.7,15a1,1,0,0,0-.91.27,1.58,1.58,0,0,0-.12.15.76.76,0,0,0-.09.18.64.64,0,0,0-.06.18,1.36,1.36,0,0,0,0,.2,1,1,0,0,0,.29.7A1,1,0,0,0,16.12,16.92Zm-8,0A1,1,0,0,0,8.5,17a1,1,0,0,0,1-1,1.36,1.36,0,0,0,0-.2.64.64,0,0,0-.06-.18.76.76,0,0,0-.09-.18,1.58,1.58,0,0,0-.12-.15l-.15-.12-.18-.09L8.7,15a1,1,0,0,0-.91.27,1.58,1.58,0,0,0-.12.15.76.76,0,0,0-.09.18.64.64,0,0,0-.06.18,1.36,1.36,0,0,0,0,.2,1,1,0,0,0,.29.7A1,1,0,0,0,8.12,16.92Z"/></svg>