<svg xmlns="http://www.w3.org/2000/svg" viewBox="0 0 24 24"><path d="M6.62,13.08a.9.9,0,0,0-.54.54,1,1,0,0,0,1.3,1.3,1.15,1.15,0,0,0,.33-.21,1.15,1.15,0,0,0,.21-.33A.84.84,0,0,0,8,14a1.05,1.05,0,0,0-.29-.71A1,1,0,0,0,6.62,13.08Zm13.14-4L18.4,5.05a3,3,0,0,0-2.84-2H8.44A3,3,0,0,0,5.6,5.05L4.24,9.11A3,3,0,0,0,2,12v4a3,3,0,0,0,2,2.82V20a1,1,0,0,0,2,0V19H18v1a1,1,0,0,0,2,0V18.82A3,3,0,0,0,22,16V12A3,3,0,0,0,19.76,9.11ZM7.49,5.68A1,1,0,0,1,8.44,5h7.12a1,1,0,0,1,1,.68L17.61,9H6.39ZM20,16a1,1,0,0,1-1,1H5a1,1,0,0,1-1-1V12a1,1,0,0,1,1-1H19a1,1,0,0,1,1,1Zm-3.38-2.92a.9.9,0,0,0-.54.54,1,1,0,0,0,1.3,1.3.9.9,0,0,0,.54-.54A.84.84,0,0,0,18,14a1.05,1.05,0,0,0-.29-.71A1,1,0,0,0,16.62,13.08ZM13,13H11a1,1,0,0,0,0,2h2a1,1,0,0,0,0-2Z"/></svg>