<svg xmlns="http://www.w3.org/2000/svg" viewBox="0 0 24 24"><path d="M14.58,11.3a3.24,3.24,0,0,0,.71-2,3.29,3.29,0,0,0-6.58,0,3.24,3.24,0,0,0,.71,2,5,5,0,0,0-2,2.31,1,1,0,1,0,1.84.78A3,3,0,0,1,12,12.57h0a3,3,0,0,1,2.75,1.82,1,1,0,0,0,.92.61,1.09,1.09,0,0,0,.39-.08,1,1,0,0,0,.53-1.31A5,5,0,0,0,14.58,11.3ZM12,10.57h0a1.29,1.29,0,1,1,1.29-1.28A1.29,1.29,0,0,1,12,10.57ZM18,2H6A3,3,0,0,0,3,5V16a3,3,0,0,0,3,3H8.59l2.7,2.71A1,1,0,0,0,12,22a1,1,0,0,0,.65-.24L15.87,19H18a3,3,0,0,0,3-3V5A3,3,0,0,0,18,2Zm1,14a1,1,0,0,1-1,1H15.5a1,1,0,0,0-.65.24l-2.8,2.4L9.71,17.29A1,1,0,0,0,9,17H6a1,1,0,0,1-1-1V5A1,1,0,0,1,6,4H18a1,1,0,0,1,1,1Z"/></svg>