<svg viewBox="0 0 14 14" fill="none" xmlns="http://www.w3.org/2000/svg">
<path d="M10.0876 7.17085C10.3154 6.94305 10.6847 6.94305 10.9125 7.17085C11.1403 7.39866 11.1403 7.76792 10.9125 7.99572L8.57914 10.3291C8.35133 10.5569 7.98207 10.5569 7.75427 10.3291L6.5876 9.16239C6.3598 8.93458 6.3598 8.56533 6.5876 8.33752C6.81541 8.10972 7.18467 8.10972 7.41247 8.33752L8.1667 9.09175L10.0876 7.17085Z" fill="currentColor"/>
<path d="M12.25 5.83337C12.25 5.51121 11.9889 5.25004 11.6667 5.25004H5.83337C5.51121 5.25004 5.25004 5.51121 5.25004 5.83337V11.6667C5.25004 11.9889 5.51121 12.25 5.83337 12.25H11.6667C11.9889 12.25 12.25 11.9889 12.25 11.6667V5.83337ZM13.4167 11.6667C13.4167 12.6332 12.6332 13.4167 11.6667 13.4167H5.83337C4.86688 13.4167 4.08337 12.6332 4.08337 11.6667V5.83337C4.08337 4.86688 4.86688 4.08337 5.83337 4.08337H11.6667C12.6332 4.08337 13.4167 4.86688 13.4167 5.83337V11.6667Z" fill="currentColor"/>
<path d="M8.75004 2.33337C8.75004 2.01387 8.48621 1.75004 8.16671 1.75004H2.33337C2.01387 1.75004 1.75004 2.01387 1.75004 2.33337V8.16671C1.75004 8.48621 2.01387 8.75004 2.33337 8.75004C2.65554 8.75004 2.91671 9.01121 2.91671 9.33337C2.91671 9.65554 2.65554 9.91671 2.33337 9.91671C1.36954 9.91671 0.583374 9.13054 0.583374 8.16671V2.33337C0.583374 1.36954 1.36954 0.583374 2.33337 0.583374H8.16671C9.13054 0.583374 9.91671 1.36954 9.91671 2.33337C9.91671 2.65554 9.65554 2.91671 9.33337 2.91671C9.01121 2.91671 8.75004 2.65554 8.75004 2.33337Z" fill="currentColor"/>
</svg>
