<svg xmlns="http://www.w3.org/2000/svg" viewBox="0 0 24 24">
  <path
    fill-rule="evenodd"
    clip-rule="evenodd"
    d="M23.565 10.935L19.065 6.435C18.795 6.165 18.42 6 18 6C17.175 6 16.5 6.675 16.5 7.5C16.5 7.92 16.665 8.295 16.935 8.565L20.385 12L16.95 15.435C16.665 15.705 16.5 16.08 16.5 16.5C16.5 17.325 17.175 18 18 18C18.42 18 18.795 17.835 19.065 17.565L23.565 13.065C23.835 12.795 24 12.42 24 12C24 11.58 23.835 11.205 23.565 10.935ZM7.5 7.5C7.5 6.675 6.825 6 6 6C5.58 6 5.205 6.165 4.935 6.435L0.435 10.935C0.165 11.205 0 11.58 0 12C0 12.42 0.165 12.795 0.435 13.065L4.935 17.565C5.205 17.835 5.58 18 6 18C6.825 18 7.5 17.325 7.5 16.5C7.5 16.08 7.335 15.705 7.065 15.435L3.615 12L7.05 8.565C7.335 8.295 7.5 7.92 7.5 7.5ZM13.5 3C12.78 3 12.195 3.525 12.06 4.215L9.06 19.215C9.045 19.305 9 19.395 9 19.5C9 20.325 9.675 21 10.5 21C11.22 21 11.805 20.475 11.94 19.785L14.94 4.785C14.955 4.695 15 4.605 15 4.5C15 3.675 14.325 3 13.5 3Z"
  />
</svg>
