<svg viewBox="0 0 10 10" fill="none" xmlns="http://www.w3.org/2000/svg">
<path fill-rule="evenodd" clip-rule="evenodd" d="M9.81875 4.55625L7.94375 2.68125C7.83125 2.56875 7.675 2.5 7.5 2.5C7.15625 2.5 6.875 2.78125 6.875 3.125C6.875 3.3 6.94375 3.45625 7.05625 3.56875L8.49375 5L7.0625 6.43125C6.94375 6.54375 6.875 6.7 6.875 6.875C6.875 7.21875 7.15625 7.5 7.5 7.5C7.675 7.5 7.83125 7.43125 7.94375 7.31875L9.81875 5.44375C9.93125 5.33125 10 5.175 10 5C10 4.825 9.93125 4.66875 9.81875 4.55625ZM3.125 3.125C3.125 2.78125 2.84375 2.5 2.5 2.5C2.325 2.5 2.16875 2.56875 2.05625 2.68125L0.18125 4.55625C0.06875 4.66875 0 4.825 0 5C0 5.175 0.06875 5.33125 0.18125 5.44375L2.05625 7.31875C2.16875 7.43125 2.325 7.5 2.5 7.5C2.84375 7.5 3.125 7.21875 3.125 6.875C3.125 6.7 3.05625 6.54375 2.94375 6.43125L1.50625 5L2.9375 3.56875C3.05625 3.45625 3.125 3.3 3.125 3.125ZM5.625 1.25C5.325 1.25 5.08125 1.46875 5.025 1.75625L3.775 8.00625C3.76875 8.04375 3.75 8.08125 3.75 8.125C3.75 8.46875 4.03125 8.75 4.375 8.75C4.675 8.75 4.91875 8.53125 4.975 8.24375L6.225 1.99375C6.23125 1.95625 6.25 1.91875 6.25 1.875C6.25 1.53125 5.96875 1.25 5.625 1.25Z" fill="currentColor"/>
</svg>
