<svg xmlns="http://www.w3.org/2000/svg" data-name="Layer 1" viewBox="0 0 24 24"><path d="M21.22,12A3,3,0,0,0,22,10a3,3,0,0,0-3-3H13.82A3,3,0,0,0,11,3H5A3,3,0,0,0,2,6a3,3,0,0,0,.78,2,3,3,0,0,0,0,4,3,3,0,0,0,0,4A3,3,0,0,0,2,18a3,3,0,0,0,3,3H19a3,3,0,0,0,2.22-5,3,3,0,0,0,0-4ZM11,19H5a1,1,0,0,1,0-2h6a1,1,0,0,1,0,2Zm0-4H5a1,1,0,0,1,0-2h6a1,1,0,0,1,0,2Zm0-4H5A1,1,0,0,1,5,9h6a1,1,0,0,1,0,2Zm0-4H5A1,1,0,0,1,5,5h6a1,1,0,0,1,0,2Zm8.69,11.71A.93.93,0,0,1,19,19H13.82a2.87,2.87,0,0,0,0-2H19a1,1,0,0,1,1,1A1,1,0,0,1,19.69,18.71Zm0-4A.93.93,0,0,1,19,15H13.82a2.87,2.87,0,0,0,0-2H19a1,1,0,0,1,1,1A1,1,0,0,1,19.69,14.71Zm0-4A.93.93,0,0,1,19,11H13.82a2.87,2.87,0,0,0,0-2H19a1,1,0,0,1,1,1A1,1,0,0,1,19.69,10.71Z"/></svg>