<svg xmlns="http://www.w3.org/2000/svg" viewBox="0 0 24 24"><path d="M20.47,7.37s0,0,0-.08l-.06-.15a.71.71,0,0,0-.07-.09.94.94,0,0,0-.09-.12l-.09-.07L20,6.78l-7.5-4.63a1,1,0,0,0-1.06,0L4,6.78l-.09.08-.09.07a.94.94,0,0,0-.09.12.71.71,0,0,0-.07.09l-.06.15s0,0,0,.08a1.15,1.15,0,0,0,0,.26v8.74a1,1,0,0,0,.47.85l7.5,4.63h0a.47.47,0,0,0,.15.06s.05,0,.08,0a.86.86,0,0,0,.52,0s.05,0,.08,0a.47.47,0,0,0,.15-.06h0L20,17.22a1,1,0,0,0,.47-.85V7.63A1.15,1.15,0,0,0,20.47,7.37ZM11,19.21l-5.5-3.4V9.43L11,12.82Zm1-8.12L6.4,7.63,12,4.18l5.6,3.45Zm6.5,4.72L13,19.21V12.82l5.5-3.39Z"/></svg>