<?xml version="1.0" encoding="UTF-8"?>
<svg xmlns="http://www.w3.org/2000/svg" viewBox="0 0 219 213">
  <defs>
    <style>.database-observability-1{fill:currentColor;stroke-width:0px;}</style>
  </defs>
  <path class="database-observability-1" d="M109.301 66.0717C172.467 66.0717 216.489 48.6597 216.489 33.0359C216.489 28.6438 213.002 24.1064 206.587 19.8483C190.214 8.9854 154.709 0 109.301 0C63.8935 0 28.3989 8.9854 12.0151 19.8483C5.60015 24.0952 2.11328 28.6326 2.11328 33.0359C2.11328 48.6597 46.135 66.0717 109.301 66.0717Z"/>
  <path class="database-observability-1" d="M109.3 76.8109C64.943 76.8109 27.6714 67.9596 6.92904 54.135C3.96743 52.1569 0 54.2915 0 57.8566V100.694C0 111.154 15.0204 122.308 40.1549 129.84C40.3002 129.74 40.4343 129.628 40.6019 129.539C54.6053 121.906 68.8098 112.998 82.8132 103.063C87.3953 99.8108 93.4638 99.252 99.0406 101.577C110.686 106.438 122.566 110.495 134.356 113.635C135.776 114.015 137.396 113.725 138.804 112.853C155.915 102.18 172.678 89.7413 188.649 75.9056C191.119 73.771 194.918 74.1734 196.863 76.8891C198.562 79.2584 198.003 82.5888 195.79 84.4999C179.44 98.6709 162.251 111.4 144.716 122.341C140.704 124.845 135.876 125.616 131.473 124.442C119.202 121.168 106.841 116.943 94.7378 111.903C92.7709 111.087 90.681 111.199 89.2728 112.194C78.1864 120.061 66.977 127.292 55.8235 133.797C71.2685 137.004 89.3511 138.926 109.3 138.926C173.729 138.926 218.6 118.799 218.6 100.716V57.8789C218.6 54.3138 214.633 52.1792 211.671 54.1574C190.929 67.9931 153.657 76.8332 109.3 76.8332V76.8109ZM17.0656 96.011C12.5617 97.0057 8.62777 93.0829 9.6336 88.5791C10.1365 86.3104 11.9694 84.4775 14.2381 83.9746C18.7419 82.9799 22.6758 86.9027 21.67 91.4066C21.1671 93.6753 19.3343 95.5081 17.0656 96.011Z"/>
  <path class="database-observability-1" d="M109.506 149.832C65.0651 149.832 27.7235 140.943 6.94207 127.06C3.9749 125.073 0 127.217 0 130.797V173.928C0 183.636 12.8652 193.939 34.6992 201.425C43.4215 191.908 52.1327 182.076 60.676 172.087C65.5802 166.363 74.3698 165.353 81.5806 169.674C93.4493 176.824 105.609 183.333 117.758 189.001C119.706 189.91 121.979 189.596 123.692 188.17C133.277 180.224 142.85 171.773 152.143 163.053C156.835 158.653 163.295 156.857 168.995 158.361C180.751 161.481 192.553 163.861 204.086 165.432C206.986 165.825 209.304 168.294 209.192 171.223C209.057 174.59 206.09 177.026 202.843 176.588C190.773 174.949 178.422 172.469 166.139 169.203C164.191 168.687 161.638 169.506 159.791 171.234C150.329 180.112 140.588 188.72 130.824 196.801C125.831 200.954 118.833 201.885 113.01 199.158C100.515 193.322 87.9964 186.633 75.803 179.281C73.3396 177.8 70.4844 177.845 69.1632 179.382C61.7285 188.069 54.1706 196.61 46.5903 204.96C63.9343 209.45 85.3427 212.289 109.494 212.289C174.044 212.289 219 192.076 219 173.917V130.786C219 127.206 215.025 125.062 212.058 127.048C191.277 140.943 153.935 149.82 109.494 149.82L109.506 149.832ZM17.0977 169.181C12.5853 170.179 8.644 166.24 9.65172 161.717C10.1556 159.439 11.9919 157.598 14.2648 157.093C18.7772 156.094 22.7185 160.034 21.7108 164.557C21.2069 166.835 19.3706 168.675 17.0977 169.181Z"/>
</svg>
