<svg xmlns="http://www.w3.org/2000/svg" width="48" height="49" viewBox="0 0 48 49" fill="currentColor">
    <path fill-rule="evenodd" clip-rule="evenodd" d="M17.0044 5.21777C17.0044 3.56092 18.3476 2.21777 20.0044 2.21777H27.9148C29.5716 2.21777 30.9148 3.56092 30.9148 5.21777V9.12282L31.892 8.79869C32.8093 8.49441 33.7996 8.99139 34.1039 9.90874C34.4082 10.8261 33.9112 11.8164 32.9939 12.1207L30.9148 12.8103V19.2526L31.8924 18.9283C32.8098 18.6241 33.8001 19.121 34.1044 20.0384C34.4087 20.9557 33.9117 21.9461 32.9943 22.2503L30.9148 22.9401V28.9144C30.9148 29.4299 30.7819 29.9367 30.5291 30.3859L26.9845 36.6835C25.7386 38.9239 23.1565 38.741 21.8985 36.9123L17.5328 30.566C17.1887 30.0658 17.0044 29.4729 17.0044 28.8658V27.5542L16.0266 27.8785C15.1092 28.1828 14.1189 27.6858 13.8146 26.7685C13.5103 25.8511 14.0073 24.8608 14.9246 24.5565L17.0044 23.8667V17.4244L16.0261 17.7489C15.1087 18.0532 14.1184 17.5562 13.8141 16.6388C13.5098 15.7215 14.0068 14.7312 14.9242 14.4269L17.0044 13.7369V5.21777ZM21.0044 26.2274V28.3996C21.0044 28.5008 21.0351 28.5996 21.0925 28.683L23.8308 32.6636C24.0405 32.9684 24.497 32.9479 24.6785 32.6255L26.8505 28.7665C26.8926 28.6916 26.9148 28.6072 26.9148 28.5213V24.2669L21.0044 26.2274ZM26.9148 20.5794L21.0044 22.5399V16.0976L26.9148 14.1371V20.5794ZM26.9148 10.4496L21.0044 12.4101V6.71777C21.0044 6.44163 21.2283 6.21777 21.5044 6.21777H26.4148C26.6909 6.21777 26.9148 6.44163 26.9148 6.71777V10.4496Z"/>
    <path d="M42.3721 30.8303C42.8016 29.9645 42.4479 28.9144 41.5821 28.4849C40.7163 28.0554 39.6662 28.4091 39.2367 29.2749L35.448 36.9123C35.0185 37.7782 36.3722 38.8282 37.238 39.2577C38.1038 39.6872 38.1539 39.3335 38.5834 38.4677L42.3721 30.8303Z"/>
    <path d="M8.75767 29.296C8.32292 28.4328 7.27072 28.0855 6.40752 28.5202C5.54433 28.955 5.19701 30.0072 5.63176 30.8704L9.46537 38.482C9.90012 39.3452 10.9523 39.6925 11.8155 39.2577C12.6787 38.823 13.026 37.7708 12.5913 36.9076L8.75767 29.296Z"/>
    <path d="M10.3193 45.0314C10.3193 44.0649 11.1028 43.2814 12.0693 43.2814H36.1498C37.1163 43.2814 37.8998 44.0649 37.8998 45.0314C37.8998 45.9979 37.1163 46.7814 36.1498 46.7814H12.0693C11.1028 46.7814 10.3193 45.9979 10.3193 45.0314Z"/>
</svg>
