<svg xmlns="http://www.w3.org/2000/svg" viewBox="0 0 24 24"><path d="M9.29,13.29,4,18.59V17a1,1,0,0,0-2,0v4a1,1,0,0,0,.08.38,1,1,0,0,0,.54.54A1,1,0,0,0,3,22H7a1,1,0,0,0,0-2H5.41l5.3-5.29a1,1,0,0,0-1.42-1.42ZM5.41,4H7A1,1,0,0,0,7,2H3a1,1,0,0,0-.38.08,1,1,0,0,0-.54.54A1,1,0,0,0,2,3V7A1,1,0,0,0,4,7V5.41l5.29,5.3a1,1,0,0,0,1.42,0,1,1,0,0,0,0-1.42ZM21,16a1,1,0,0,0-1,1v1.59l-5.29-5.3a1,1,0,0,0-1.42,1.42L18.59,20H17a1,1,0,0,0,0,2h4a1,1,0,0,0,.38-.08,1,1,0,0,0,.54-.54A1,1,0,0,0,22,21V17A1,1,0,0,0,21,16Zm.92-13.38a1,1,0,0,0-.54-.54A1,1,0,0,0,21,2H17a1,1,0,0,0,0,2h1.59l-5.3,5.29a1,1,0,0,0,0,1.42,1,1,0,0,0,1.42,0L20,5.41V7a1,1,0,0,0,2,0V3A1,1,0,0,0,21.92,2.62Z"/></svg>