<svg xmlns="http://www.w3.org/2000/svg" viewBox="0 0 24 24"><path d="M22,1H15a2.44,2.44,0,0,0-2.41,2l-.92,5.05a2.44,2.44,0,0,0,.53,2,2.47,2.47,0,0,0,1.88.88H17l-.25.66A3.26,3.26,0,0,0,19.75,16a1,1,0,0,0,.92-.59l2.24-5.06A1,1,0,0,0,23,10V2A1,1,0,0,0,22,1ZM21,9.73l-1.83,4.13a1.33,1.33,0,0,1-.45-.4,1.23,1.23,0,0,1-.14-1.16l.38-1a1.68,1.68,0,0,0-.2-1.58A1.7,1.7,0,0,0,17.35,9H14.06a.46.46,0,0,1-.35-.16.5.5,0,0,1-.09-.37l.92-5A.44.44,0,0,1,15,3h6ZM9.94,13.05H7.05l.25-.66A3.26,3.26,0,0,0,4.25,8a1,1,0,0,0-.92.59L1.09,13.65a1,1,0,0,0-.09.4v8a1,1,0,0,0,1,1H9a2.44,2.44,0,0,0,2.41-2l.92-5a2.44,2.44,0,0,0-.53-2A2.47,2.47,0,0,0,9.94,13.05Zm-.48,7.58A.44.44,0,0,1,9,21H3V14.27l1.83-4.13a1.33,1.33,0,0,1,.45.4,1.23,1.23,0,0,1,.14,1.16l-.38,1a1.68,1.68,0,0,0,.2,1.58,1.7,1.7,0,0,0,1.41.74H9.94a.46.46,0,0,1,.35.16.5.5,0,0,1,.09.37Z"/></svg>