<svg xmlns="http://www.w3.org/2000/svg" viewBox="0 0 24 24"><path d="M18,19H6a3,3,0,0,1-3-3V8A1,1,0,0,0,1,8v8a5,5,0,0,0,5,5H18a1,1,0,0,0,0-2Zm-4-8H10a1,1,0,0,0,0,2h4a1,1,0,0,0,0-2Zm9-1.06a1.31,1.31,0,0,0-.06-.27l0-.09a1.07,1.07,0,0,0-.19-.28h0l-6-6h0a1.07,1.07,0,0,0-.28-.19l-.09,0A.88.88,0,0,0,16.05,3H8A3,3,0,0,0,5,6v8a3,3,0,0,0,3,3H20a3,3,0,0,0,3-3V10S23,10,23,9.94ZM17,6.41,19.59,9H18a1,1,0,0,1-1-1ZM21,14a1,1,0,0,1-1,1H8a1,1,0,0,1-1-1V6A1,1,0,0,1,8,5h7V8a3,3,0,0,0,3,3h3ZM10,9h2a1,1,0,0,0,0-2H10a1,1,0,0,0,0,2Z"/></svg>