<svg viewBox="0 0 24 24" xmlns="http://www.w3.org/2000/svg"><path d="M19 2C19.7956 2 20.5585 2.3163 21.1211 2.87891C21.6837 3.44152 22 4.20435 22 5V6.16992C21.9876 6.5857 21.8888 6.99455 21.71 7.37012V7.42969C21.5687 7.75064 21.3687 8.04271 21.1201 8.29004L16.4102 13H14C13.8452 13 13.6921 13.0147 13.541 13.0381L18.5898 8H5.41016L10.71 13.29C10.8026 13.3835 10.876 13.4944 10.9258 13.6162C10.9755 13.738 11.0008 13.8684 11 14V19.3799L12.5322 18.6133C12.9769 18.8631 13.4809 19 14 19H15C14.9994 19.1846 14.9476 19.3654 14.8506 19.5225C14.7536 19.6795 14.615 19.8065 14.4502 19.8896L10.4502 21.8896C10.3109 21.961 10.1565 21.9991 10 22C9.81277 22.0006 9.62887 21.9482 9.46973 21.8496C9.32591 21.7596 9.20716 21.6348 9.125 21.4863C9.04276 21.3376 8.99966 21.1699 9 21V14.4102L2.83984 8.29004C2.59126 8.04271 2.39127 7.75063 2.25 7.42969V7.37012C2.08497 6.99159 1.99986 6.58286 2 6.16992V5C2 4.20435 2.3163 3.44152 2.87891 2.87891C3.44152 2.3163 4.20435 2 5 2H19ZM5 4C4.73478 4 4.48051 4.10543 4.29297 4.29297C4.10543 4.48051 4 4.73478 4 5V6H20V5C20 4.73478 19.8946 4.48051 19.707 4.29297C19.5195 4.10543 19.2652 4 19 4H5Z"/><path d="M22 15C22.2652 15 22.5195 15.1054 22.707 15.293C22.8946 15.4805 23 15.7348 23 16C23 16.2652 22.8946 16.5195 22.707 16.707C22.5195 16.8946 22.2652 17 22 17H14C13.7348 17 13.4805 16.8946 13.293 16.707C13.1054 16.5195 13 16.2652 13 16C13 15.7348 13.1054 15.4805 13.293 15.293C13.4805 15.1054 13.7348 15 14 15H22Z"/></svg>
