<svg xmlns="http://www.w3.org/2000/svg" viewBox="0 0 24 24"><path d="M13.21,5.7a1,1,0,0,0,.24,0l1.94-.49A1,1,0,0,0,16.12,4a1,1,0,0,0-1.21-.73L13,3.73a1,1,0,0,0,.24,2ZM9.51,9h-2a1,1,0,1,0,0,2h2a1,1,0,0,0,0-2Zm4,0a1,1,0,1,0,0,2h2a1,1,0,0,0,0-2ZM7.39,7.15l.24,0,1.94-.48A1,1,0,0,0,9.09,4.7l-1.94.48a1,1,0,0,0,.24,2ZM4,10.51a1,1,0,0,0,1-1v-2a1,1,0,0,0-2,0v2A1,1,0,0,0,4,10.51Zm16.62-8.3A1,1,0,0,0,19.76,2l-1,.24a1,1,0,0,0-.73,1.21,1,1,0,0,0,1,.76A1,1,0,0,0,21,4V3A1,1,0,0,0,20.62,2.21ZM20,7a1,1,0,0,0-1,1V9.14A1,1,0,0,0,19.51,11H20a1,1,0,0,0,1-1V8A1,1,0,0,0,20,7Zm0,6H4a1,1,0,0,0-1,1v3a1,1,0,0,0,.76,1l16,4A1,1,0,0,0,20,22a1,1,0,0,0,1-1V14A1,1,0,0,0,20,13Zm-1,6.72L5,16.22V15H19Z"/></svg>