<svg width="24" height="24" viewBox="0 0 24 24" fill="none" xmlns="http://www.w3.org/2000/svg">
<path d="M14.8406 5.99841L10.6399 1.79765C10.4922 1.65192 10.3046 1.55321 10.1009 1.51396C9.89719 1.47471 9.6864 1.49668 9.49515 1.57711C9.39055 1.62008 9.29415 1.67942 9.20933 1.75238C9.19038 1.76858 9.17197 1.78549 9.15415 1.80308L4.95338 6.00385C4.85547 6.10177 4.77779 6.21801 4.7248 6.34595C4.67181 6.47388 4.64453 6.611 4.64453 6.74948C4.64453 7.02915 4.75563 7.29736 4.95338 7.49512C5.15114 7.69287 5.41935 7.80397 5.69902 7.80397C5.97869 7.80397 6.2469 7.69287 6.44465 7.49512L8.84959 5.07968V12.7514C8.84959 13.0299 8.96023 13.297 9.15718 13.494C9.35413 13.6909 9.62125 13.8016 9.89978 13.8016C10.1783 13.8016 10.4454 13.6909 10.6424 13.494C10.8393 13.297 10.95 13.0299 10.95 12.7514V5.07982L13.3494 7.48968C13.5471 7.68743 13.8153 7.79853 14.095 7.79853C14.3747 7.79853 14.6429 7.68743 14.8406 7.48968C15.0384 7.29192 15.1495 7.02371 15.1495 6.74404C15.1495 6.60557 15.1222 6.46845 15.0692 6.34051C15.0162 6.21257 14.9385 6.09633 14.8406 5.99841Z" fill="#CCCCDC" fill-opacity="0.65"/>
<path d="M13.2237 22.0249L9.15291 17.9541C9.05499 17.8562 8.97732 17.74 8.92432 17.612C8.87133 17.4841 8.84406 17.347 8.84406 17.2085C8.84406 16.9288 8.95515 16.6606 9.15291 16.4629C9.35066 16.2651 9.61888 16.154 9.89854 16.154C10.1782 16.154 10.4464 16.2651 10.6442 16.4629L13.0491 18.8783L13.0504 18.8798V11.2495C13.0504 10.971 13.161 10.7038 13.3579 10.5069C13.5549 10.3099 13.822 10.1993 14.1005 10.1993C14.3791 10.1993 14.6462 10.3099 14.8431 10.5069C15.0401 10.7038 15.1507 10.971 15.1507 11.2495V18.9212L17.5557 16.5058C17.6533 16.4073 17.7694 16.3292 17.8974 16.2759C18.0254 16.2226 18.1627 16.1951 18.3013 16.1951C18.4399 16.1951 18.5772 16.2226 18.7052 16.2759C18.8332 16.3292 18.9493 16.4073 19.0469 16.5058C19.1454 16.6034 19.2235 16.7195 19.2768 16.8475C19.3301 16.9755 19.3576 17.1128 19.3576 17.2514C19.3576 17.39 19.3301 17.5273 19.2768 17.6553C19.2235 17.7832 19.1454 17.8994 19.0469 17.997L14.8462 22.1978C14.6985 22.3435 14.511 22.4422 14.3072 22.4815C14.1035 22.5207 13.8927 22.4987 13.7015 22.4183C13.5097 22.3395 13.3455 22.2057 13.2296 22.0338C13.2277 22.0309 13.2257 22.0279 13.2237 22.0249Z" fill="#CCCCDC" fill-opacity="0.65"/>
</svg>
