<svg xmlns="http://www.w3.org/2000/svg" viewBox="0 0 24 24"><path d="M20.67,9.69,14,5.84a2.67,2.67,0,0,0-4,2.31h0L6,5.84A2.67,2.67,0,0,0,2,8.15v7.7a2.63,2.63,0,0,0,1.33,2.3,2.61,2.61,0,0,0,1.34.37A2.69,2.69,0,0,0,6,18.16l4-2.31h0a2.65,2.65,0,0,0,1.33,2.31,2.66,2.66,0,0,0,2.67,0l6.67-3.85a2.67,2.67,0,0,0,0-4.62ZM10,13.54,5,16.42a.67.67,0,0,1-1-.57V8.15a.67.67,0,0,1,1-.57l5,2.88Zm9.67-1L13,16.43a.69.69,0,0,1-.67,0,.66.66,0,0,1-.33-.58V8.15a.66.66,0,0,1,.33-.58.78.78,0,0,1,.34-.09.63.63,0,0,1,.33.09l6.67,3.85a.67.67,0,0,1,0,1.16Z"/></svg>