<?xml version="1.0" encoding="UTF-8"?>
<svg id="Layer_2" xmlns="http://www.w3.org/2000/svg" xmlns:xlink="http://www.w3.org/1999/xlink" viewBox="-10 -10 122.23 154.24">
  <defs>
    <style>.cls-1{fill:currentColor;}</style>
  </defs>
  <g id="Layer_1-2">
    <g>
      <polygon class="cls-1" points="102.23 16.37 0 10.71 0 5.65 102.23 0 102.23 16.37"/>
      <polygon class="cls-1" points="102.23 39.94 0 34.29 0 29.23 102.23 23.57 102.23 39.94"/>
      <polygon class="cls-1" points="76.59 63.5 0 57.86 0 52.81 76.59 47.17 76.59 63.5"/>
      <polygon class="cls-1" points="76.59 87.07 0 81.43 0 76.38 76.59 70.74 76.59 87.07"/>
      <polygon class="cls-1" points="51.12 110.67 0 105.01 0 99.95 51.12 94.3 51.12 110.67"/>
      <polygon class="cls-1" points="51.12 134.24 0 128.59 0 123.53 51.12 117.87 51.12 134.24"/>
    </g>
  </g>
</svg>
