<svg viewBox="0 0 18 18" xmlns="http://www.w3.org/2000/svg">
  <path fill-rule="evenodd" clip-rule="evenodd" d="M4.60039 3.27265V1.60015H16.3454V4.71265H14.6729V4.37265C14.6729 3.76513 14.1804 3.27265 13.5729 3.27265H4.60039ZM4.50039 0.400146C3.89288 0.400146 3.40039 0.892635 3.40039 1.50015V3.38989H1.55801C1.48169 3.38989 1.40719 3.39766 1.33525 3.41246C0.806079 3.49213 0.400391 3.94876 0.400391 4.50015V8.60015H0.458008V16.4349C0.458008 17.0424 0.950494 17.5349 1.55801 17.5349H13.503C14.1105 17.5349 14.603 17.0424 14.603 16.4349V14.6623H16.3902C16.9977 14.6623 17.4902 14.1698 17.4902 13.5623V5.91265H17.5454V1.50015C17.5454 0.892633 17.0529 0.400146 16.4454 0.400146H4.50039ZM1.65801 8.60015V16.3349H13.403V8.60015H1.65801ZM1.65801 7.40015V4.60015H13.4004V7.40015H1.65801ZM14.6102 6.02983V13.4623H16.2902V6.02983H14.6102ZM4.65777 6.7498H3.21777V5.5498H4.65777V6.7498ZM6.09766 6.7498H7.53766V5.5498H6.09766V6.7498Z" fill="currentColor"/>
  <path fill-rule="evenodd" clip-rule="evenodd" d="M9.07147 12.3438C9.04238 11.9084 8.97021 11.5011 8.86196 11.1503C9.25024 11.436 9.53279 11.857 9.64008 12.3438H9.07147ZM8.19422 12.3438C8.15897 11.8895 8.07059 11.4953 7.95391 11.2036C7.87705 11.0114 7.79646 10.8853 7.72936 10.8143C7.6971 10.7802 7.67528 10.7659 7.66406 10.7602C7.65284 10.7659 7.63103 10.7802 7.59877 10.8143C7.53166 10.8853 7.45108 11.0114 7.37421 11.2036C7.25754 11.4953 7.16915 11.8895 7.13391 12.3438H8.19422ZM7.13391 13.2188H8.19422C8.15897 13.673 8.07059 14.0672 7.95391 14.3589C7.87705 14.5511 7.79646 14.6772 7.72936 14.7482C7.6971 14.7823 7.67528 14.7966 7.66406 14.8023C7.65284 14.7966 7.63103 14.7823 7.59877 14.7482C7.53166 14.6772 7.45108 14.5511 7.37421 14.3589C7.25754 14.0672 7.16915 13.673 7.13391 13.2188ZM6.25665 12.3438C6.28574 11.9084 6.35791 11.5011 6.46616 11.1503C6.07789 11.436 5.79533 11.857 5.68805 12.3438H6.25665ZM5.68805 13.2188H6.25665C6.28574 13.6541 6.35791 14.0614 6.46616 14.4122C6.07789 14.1265 5.79533 13.7055 5.68805 13.2188ZM4.76562 12.7812C4.76562 11.1805 6.0633 9.88281 7.66406 9.88281C9.26483 9.88281 10.5625 11.1805 10.5625 12.7812C10.5625 14.382 9.26483 15.6797 7.66406 15.6797C6.0633 15.6797 4.76562 14.382 4.76562 12.7812ZM9.64008 13.2188C9.53279 13.7055 9.25024 14.1265 8.86196 14.4122C8.97021 14.0614 9.04238 13.6541 9.07147 13.2188H9.64008Z" fill="currentColor"/>
</svg>
