<svg xmlns="http://www.w3.org/2000/svg" data-name="Layer 1" viewBox="0 0 24 28.13"><path d="M12,2.2467A10.00042,10.00042,0,0,0,8.83752,21.73419c.5.08752.6875-.21247.6875-.475,0-.23749-.01251-1.025-.01251-1.86249C7,19.85919,6.35,18.78423,6.15,18.22173A3.636,3.636,0,0,0,5.125,16.8092c-.35-.1875-.85-.65-.01251-.66248A2.00117,2.00117,0,0,1,6.65,17.17169a2.13742,2.13742,0,0,0,2.91248.825A2.10376,2.10376,0,0,1,10.2,16.65923c-2.225-.25-4.55-1.11254-4.55-4.9375a3.89187,3.89187,0,0,1,1.025-2.6875,3.59373,3.59373,0,0,1,.1-2.65s.83747-.26251,2.75,1.025a9.42747,9.42747,0,0,1,5,0c1.91248-1.3,2.75-1.025,2.75-1.025a3.59323,3.59323,0,0,1,.1,2.65,3.869,3.869,0,0,1,1.025,2.6875c0,3.83747-2.33752,4.6875-4.5625,4.9375a2.36814,2.36814,0,0,1,.675,1.85c0,1.33752-.01251,2.41248-.01251,2.75,0,.26251.1875.575.6875.475A10.0053,10.0053,0,0,0,12,2.2467Z"/><path d="M1.36 22.81H3.76V23.20H1.80V24.33H3.53V24.70H1.80V25.90H3.76V26.30H1.36ZM4.19 23.78H4.60L4.62 24.31H4.64Q4.75 24.04 4.98 23.89Q5.20 23.74 5.48 23.74Q5.88 23.74 6.11 24.00Q6.34 24.26 6.34 24.80V26.30H5.92V24.89Q5.92 24.49 5.77 24.30Q5.63 24.10 5.33 24.10Q5.01 24.10 4.82 24.33Q4.62 24.56 4.62 24.93V26.30H4.19ZM7.16 25.75V24.13H6.69V23.78H7.16V23.04L7.59 22.98V23.78H8.15V24.13H7.59V25.67Q7.59 25.81 7.65 25.87Q7.71 25.94 7.84 25.94H8.16V26.30H7.71Q7.43 26.30 7.30 26.17Q7.16 26.04 7.16 25.75ZM8.43 25.05Q8.43 24.65 8.57 24.36Q8.71 24.06 8.98 23.90Q9.24 23.74 9.59 23.74Q9.98 23.74 10.24 23.91Q10.51 24.08 10.63 24.39Q10.76 24.71 10.74 25.12H8.85Q8.86 25.54 9.06 25.78Q9.26 26.01 9.61 26.01Q9.88 26.01 10.05 25.89Q10.23 25.77 10.29 25.55H10.71Q10.64 25.92 10.34 26.13Q10.05 26.34 9.61 26.34Q9.06 26.34 8.74 25.99Q8.43 25.64 8.43 25.05ZM10.31 24.82Q10.29 24.46 10.10 24.27Q9.91 24.07 9.59 24.07Q9.28 24.07 9.08 24.27Q8.88 24.47 8.86 24.82ZM11.19 23.78H11.58L11.60 24.25H11.61Q11.70 24.01 11.89 23.88Q12.09 23.75 12.35 23.75L12.46 23.75V24.16Q12.43 24.16 12.34 24.16Q12.02 24.16 11.83 24.33Q11.64 24.50 11.62 24.83V26.30H11.19ZM12.85 23.78H13.25L13.26 24.30H13.29Q13.38 24.04 13.60 23.89Q13.82 23.74 14.12 23.74Q14.43 23.74 14.65 23.89Q14.88 24.05 15.01 24.34Q15.13 24.64 15.13 25.04Q15.13 25.44 15.01 25.74Q14.88 26.03 14.65 26.19Q14.43 26.34 14.12 26.34Q13.82 26.34 13.60 26.20Q13.38 26.05 13.29 25.79H13.27L13.27 27.13H12.85ZM14.69 25.04Q14.69 24.60 14.51 24.35Q14.32 24.10 13.99 24.10Q13.65 24.10 13.46 24.33Q13.27 24.57 13.27 24.91V25.18Q13.27 25.52 13.46 25.75Q13.65 25.99 13.98 25.99Q14.31 25.99 14.50 25.74Q14.69 25.49 14.69 25.04ZM15.64 23.78H16.03L16.05 24.25H16.06Q16.15 24.01 16.34 23.88Q16.54 23.75 16.80 23.75L16.91 23.75V24.16Q16.88 24.16 16.79 24.16Q16.47 24.16 16.28 24.33Q16.09 24.50 16.07 24.83V26.30H15.64ZM17.29 23.78H17.72V26.30H17.29ZM17.22 23.06Q17.22 22.94 17.30 22.87Q17.38 22.79 17.51 22.79Q17.63 22.79 17.71 22.87Q17.79 22.94 17.79 23.06Q17.79 23.18 17.71 23.26Q17.63 23.34 17.51 23.34Q17.38 23.34 17.30 23.26Q17.22 23.18 17.22 23.06ZM18.17 25.56H18.59Q18.62 25.80 18.79 25.92Q18.95 26.03 19.23 26.03Q19.50 26.03 19.64 25.93Q19.79 25.82 19.79 25.63Q19.79 25.42 19.65 25.33Q19.52 25.24 19.17 25.19Q18.68 25.12 18.46 24.97Q18.25 24.82 18.25 24.48Q18.25 24.14 18.51 23.94Q18.77 23.73 19.20 23.73Q19.62 23.73 19.87 23.93Q20.12 24.13 20.15 24.48H19.73Q19.68 24.05 19.19 24.05Q18.95 24.05 18.81 24.16Q18.67 24.26 18.67 24.44Q18.67 24.62 18.81 24.71Q18.95 24.79 19.32 24.84Q19.78 24.91 20.00 25.07Q20.22 25.23 20.22 25.59Q20.22 25.95 19.95 26.15Q19.69 26.35 19.22 26.35Q18.75 26.35 18.47 26.14Q18.20 25.93 18.17 25.56ZM20.54 25.05Q20.54 24.65 20.68 24.36Q20.82 24.06 21.08 23.90Q21.35 23.74 21.70 23.74Q22.09 23.74 22.35 23.91Q22.62 24.08 22.74 24.39Q22.87 24.71 22.85 25.12H20.96Q20.96 25.54 21.17 25.78Q21.37 26.01 21.72 26.01Q21.98 26.01 22.16 25.89Q22.33 25.77 22.40 25.55H22.82Q22.75 25.92 22.45 26.13Q22.16 26.34 21.72 26.34Q21.17 26.34 20.85 25.99Q20.54 25.64 20.54 25.05ZM22.42 24.82Q22.40 24.46 22.21 24.27Q22.02 24.07 21.70 24.07Q21.39 24.07 21.19 24.27Q20.99 24.47 20.96 24.82Z"/></svg>
