<svg xmlns="http://www.w3.org/2000/svg" viewBox="0 0 24 24"><path d="M22,14.86a0,0,0,0,1,0,0v-.05a2.61,2.61,0,0,0-.1-.57L20.26,4.51a3,3,0,0,0-3-2.51H6.69A3,3,0,0,0,3.74,4.51L2.12,14.22a2.61,2.61,0,0,0-.1.57v.05a0,0,0,0,1,0,0C2,14.91,2,15,2,15v4a3,3,0,0,0,3,3H19a3,3,0,0,0,3-3V15C22,15,22,14.91,22,14.86ZM5.71,4.83a1,1,0,0,1,1-.83H17.31a1,1,0,0,1,1,.83l1.2,7.22A2.63,2.63,0,0,0,19,12H5a2.63,2.63,0,0,0-.49.05ZM20,19a1,1,0,0,1-1,1H5a1,1,0,0,1-1-1V15.08l.08-.46A1,1,0,0,1,5,14H19a1,1,0,0,1,.92.62l.08.46Zm-3-3a1,1,0,1,0,1,1A1,1,0,0,0,17,16Z"/></svg>