<svg xmlns="http://www.w3.org/2000/svg" data-name="Layer 1" viewBox="0 0 24 24"><path d="M18.9917,21.002h-1V19.335a5.00057,5.00057,0,0,0-.29956-1.67773c-.01093-.02936-.0224-.05658-.03589-.08454a4.97694,4.97694,0,0,0-.66455-1.23675l-1.3999-1.86719a3.01933,3.01933,0,0,1-.6001-1.80078V11.6582a3.02108,3.02108,0,0,1,.87842-2.12109l.65722-.65723A4.94566,4.94566,0,0,0,17.92365,6.0415c.00054-.01391.008-.02551.008-.03955l-.00281-.01373a5.01836,5.01836,0,0,0,.06287-.64349V3.002h1a1,1,0,0,0,0-2h-14a1,1,0,0,0,0,2h1V5.34473a5.01836,5.01836,0,0,0,.06287.64349L6.05176,6.002c0,.014.00744.02564.008.03955a4.94571,4.94571,0,0,0,1.3963,2.83838l.65723.65723A3.02108,3.02108,0,0,1,8.9917,11.6582V12.668a3.02212,3.02212,0,0,1-.59961,1.80078L6.99121,16.33594a4.98221,4.98221,0,0,0-.66437,1.23718c-.0133.02771-.02472.05463-.03552.08368A5.00309,5.00309,0,0,0,5.9917,19.335v1.667h-1a1,1,0,0,0,0,2h14a1,1,0,0,0,0-2Zm-11-16v-2h8v2Zm.87842,2.46387A2.97036,2.97036,0,0,1,8.49323,7.002h6.99694a2.97094,2.97094,0,0,1-.37689.46387l-.65723.65723a4.9603,4.9603,0,0,0-1.42187,2.8789h-2.085A4.96025,4.96025,0,0,0,9.52734,8.123ZM9.99219,15.668a5.03688,5.03688,0,0,0,.98828-2.666h2.02246a5.03332,5.03332,0,0,0,.98877,2.666l1.00012,1.334H8.99133Zm5.99951,5.334h-8V19.335a2.954,2.954,0,0,1,.02722-.333h7.94556a2.954,2.954,0,0,1,.02722.333Z"/></svg>