<svg xmlns="http://www.w3.org/2000/svg" viewBox="0 0 24 24"><path d="M20,7a2,2,0,0,0-1.18.39l-1.75-.8L19,5.71A2,2,0,0,0,20,6a2,2,0,1,0-2-2l-1.89.87A2,2,0,1,0,15,8.5a1.88,1.88,0,0,0,.92-.24l2.1,1A2,2,0,1,0,20,7Zm-1,6a1,1,0,0,0-1,1v.39l-1.48-1.48a2.77,2.77,0,0,0-3.93,0l-.7.7L9.41,11.12a2.79,2.79,0,0,0-3.93,0L4,12.6V7A1,1,0,0,1,5,6h5a1,1,0,0,0,0-2H5A3,3,0,0,0,2,7V19a3,3,0,0,0,3,3H17a3,3,0,0,0,3-3V14A1,1,0,0,0,19,13ZM5,20a1,1,0,0,1-1-1V15.43l2.9-2.9a.79.79,0,0,1,1.09,0l3.17,3.17,0,0L15.45,20Zm13-1a.89.89,0,0,1-.18.53L13.31,15l.7-.7a.78.78,0,0,1,1.1,0L18,17.22Z"/></svg>