<svg id="Layer_1" data-name="Layer 1" xmlns="http://www.w3.org/2000/svg" viewBox="0 0 24 24"><path d="M21,4.00781H17a1,1,0,0,0,0,2h4a1,1,0,0,0,0-2ZM19,8a1,1,0,0,0-1,1v5.3916l-1.48047-1.48047a2.78039,2.78039,0,0,0-3.92822,0l-.698.698L9.40723,11.123a2.777,2.777,0,0,0-3.92432,0L4,12.606V7A1.0013,1.0013,0,0,1,5,6h8a1,1,0,0,0,0-2H5A3.00328,3.00328,0,0,0,2,7V19a3.00328,3.00328,0,0,0,3,3H17a3.00328,3.00328,0,0,0,3-3V9A1,1,0,0,0,19,8ZM5,20a1.0013,1.0013,0,0,1-1-1V15.43408l2.897-2.897a.79926.79926,0,0,1,1.09619,0l3.168,3.16711c.00849.00916.0116.02179.02045.03064L15.44714,20Zm13-1a.97137.97137,0,0,1-.17877.53705l-4.51386-4.51386.698-.698a.77979.77979,0,0,1,1.1001,0L18,17.21973Z"/></svg>