<svg xmlns="http://www.w3.org/2000/svg" viewBox="0 0 24 24"><path d="M19,10a1,1,0,0,0-1,1v3.38L16.52,12.9a2.79,2.79,0,0,0-3.93,0l-.7.71L9.41,11.12a2.79,2.79,0,0,0-3.93,0L4,12.61V7A1,1,0,0,1,5,6h8a1,1,0,0,0,0-2H5A3,3,0,0,0,2,7V19.22A2.79,2.79,0,0,0,4.78,22H17.22a2.88,2.88,0,0,0,.8-.12h0a2.74,2.74,0,0,0,2-2.65V11A1,1,0,0,0,19,10ZM5,20a1,1,0,0,1-1-1V15.43l2.89-2.89a.78.78,0,0,1,1.1,0L15.46,20Zm13-1a1,1,0,0,1-.18.54L13.3,15l.71-.7a.77.77,0,0,1,1.1,0L18,17.21ZM21,4H20V3a1,1,0,0,0-2,0V4H17a1,1,0,0,0,0,2h1V7a1,1,0,0,0,2,0V6h1a1,1,0,0,0,0-2Z"/></svg>