<svg viewBox="0 0 32 32" xmlns="http://www.w3.org/2000/svg">
  <path
    d="M1.15431 29.9449L0.109176 29.4549C-0.0584573 29.8124 -0.0316931 30.2308 0.180128 30.564C0.391949 30.8973 0.759428 31.0992 1.15431 31.0992V29.9449ZM30.8215 29.9449V31.0992C31.1695 31.0992 31.4989 30.9422 31.7181 30.6718C31.9373 30.4015 32.0228 30.0468 31.9509 29.7062L30.8215 29.9449ZM11.0313 8.87899L11.715 7.94894C11.4366 7.74431 11.0813 7.67511 10.7466 7.76034C10.4118 7.84556 10.1328 8.07617 9.98612 8.38892L11.0313 8.87899ZM16.9804 13.2522L16.2967 14.1822C16.5537 14.3711 16.8773 14.4453 17.1909 14.3871C17.5044 14.329 17.7799 14.1437 17.9521 13.8753L16.9804 13.2522ZM24.7393 1.15436L25.8687 0.915769C25.7719 0.457551 25.4078 0.103236 24.9471 0.0189135C24.4865 -0.0654097 24.0205 0.136974 23.7677 0.531195L24.7393 1.15436ZM1.15431 31.0992H30.8215V28.7906H1.15431V31.0992ZM9.98612 8.38892L0.109176 29.4549L2.19945 30.4349L12.0764 9.36899L9.98612 8.38892ZM17.6641 12.3221L11.715 7.94894L10.3476 9.80904L16.2967 14.1822L17.6641 12.3221ZM23.7677 0.531195L16.0088 12.629L17.9521 13.8753L25.7109 1.77752L23.7677 0.531195ZM31.9509 29.7062L25.8687 0.915769L23.6099 1.39295L29.6921 30.1834L31.9509 29.7062Z"
  />
  <path
    d="M13.5752 23.0639L15.6325 25.9725H17.8338L15.4119 22.5987L17.5628 19.6134L16.1361 18.6255L15.5055 19.4576L13.5728 22.1815V16.7049L11.6473 15.1343V25.9725H13.5728V23.0616L13.5752 23.0639Z"
  />
  <path fill-rule="evenodd" clip-rule="evenodd"
    d="M21.5433 26.0441H21.469L21.4666 26.0465L21.3971 26.0513C20.5314 26.0513 19.697 25.7132 19.076 25.109C18.7595 24.8164 18.5053 24.4639 18.3351 24.0683C18.1624 23.6726 18.076 23.2458 18.0808 22.8166C18.0808 22.4545 18.1504 22.0948 18.2847 21.7592C18.4022 21.4426 18.546 21.1357 18.7115 20.8408C18.8721 20.5627 19.1287 20.1622 19.4381 19.7066L21.234 16.9635L21.9366 15.9276L23.4209 16.9635L21.5578 19.733C21.6513 19.7042 21.7519 19.6922 21.8502 19.6922H21.9078C22.6656 19.7138 23.3873 20.0231 23.922 20.5602C24.2409 20.836 24.4927 21.1789 24.6605 21.5626C24.8284 21.9486 24.9075 22.3658 24.8931 22.7854C24.9003 23.2194 24.8116 23.6511 24.639 24.0515C24.4663 24.4519 24.2098 24.8092 23.8861 25.1017C23.2578 25.7085 22.4162 26.0441 21.5433 26.0441ZM20.4685 23.8145C20.7347 24.0806 21.0944 24.2293 21.4709 24.2293V24.2269C21.8497 24.2245 22.2118 24.0758 22.4804 23.8097C22.7489 23.5435 22.9024 23.1839 22.9071 22.805C22.9071 22.6204 22.8712 22.4381 22.7968 22.2678C22.725 22.0976 22.617 21.9466 22.4804 21.8218C22.3509 21.6852 22.1974 21.5797 22.0247 21.5054C21.8545 21.4334 21.6698 21.3951 21.4829 21.3951H21.4709C21.0944 21.3951 20.7347 21.5437 20.4685 21.8099C20.2024 22.076 20.0538 22.4357 20.0538 22.8122C20.0538 23.1887 20.2024 23.5483 20.4685 23.8145Z"
  />
</svg>
