<svg width="24" height="24" viewBox="0 0 24 24" fill="none" xmlns="http://www.w3.org/2000/svg">
  <path
    d="M7.86508 9.48885C7.93391 9.30285 8.19704 9.30285 8.26587 9.48885L8.31991 9.6349C8.34155 9.69337 8.38766 9.73949 8.44613 9.76112L8.59218 9.81516C8.77815 9.884 8.77815 10.1471 8.59218 10.216L8.44613 10.27C8.38766 10.2916 8.34155 10.3377 8.31991 10.3962L8.26587 10.5423C8.19705 10.7283 7.93392 10.7282 7.86508 10.5423L7.81104 10.3962C7.78941 10.3377 7.74329 10.2916 7.68482 10.27L7.53877 10.216C7.35277 10.1471 7.35277 9.88399 7.53877 9.81516L7.68482 9.76112C7.74329 9.73948 7.78941 9.69337 7.81104 9.6349L7.86508 9.48885Z" />
  <path
    d="M5.73313 7.36702C6.26408 7.36703 6.69453 7.79746 6.69453 8.32842C6.69449 8.85935 6.26406 9.2898 5.73313 9.28981C5.20218 9.28981 4.77176 8.85935 4.77173 8.32842C4.77173 7.79745 5.20216 7.36702 5.73313 7.36702Z" />
  <path
    d="M18.5473 9.48885C18.6161 9.30285 18.8792 9.30285 18.9481 9.48885L19.0021 9.6349C19.0237 9.69337 19.0699 9.73949 19.1283 9.76112L19.2744 9.81516C19.4603 9.884 19.4603 10.1471 19.2744 10.216L19.1283 10.27C19.0698 10.2916 19.0237 10.3377 19.0021 10.3962L18.9481 10.5423C18.8792 10.7283 18.6161 10.7282 18.5473 10.5423L18.4932 10.3962C18.4716 10.3377 18.4255 10.2916 18.367 10.27L18.221 10.216C18.035 10.1471 18.035 9.88399 18.221 9.81516L18.367 9.76112C18.4255 9.73948 18.4716 9.69337 18.4932 9.6349L18.5473 9.48885Z" />
  <path
    d="M16.4153 7.36702C16.9463 7.36703 17.3767 7.79746 17.3767 8.32842C17.3767 8.85935 16.9463 9.2898 16.4153 9.28981C15.8844 9.28981 15.454 8.85935 15.4539 8.32842C15.4539 7.79745 15.8844 7.36702 16.4153 7.36702Z" />
  <path fill-rule="evenodd" clip-rule="evenodd"
    d="M12.3891 3.96227C15.1475 1.43343 20.1397 2.50123 22.1331 4.98084C26.8366 10.8315 22.3285 19.1183 12.2493 22.2621C12.0884 22.3123 11.9116 22.3123 11.7507 22.2621C1.67154 19.1183 -2.83656 10.8315 1.86689 4.98084C3.86028 2.50123 8.8525 1.43343 11.6109 3.96227C11.804 4.20918 12.196 4.20917 12.3891 3.96227ZM9.64997 13.968C9.178 13.968 8.78826 14.3529 8.85903 14.8195C9.15508 16.7714 10.4489 18.2408 12 18.2408C13.5512 18.2408 14.845 16.7714 15.1411 14.8195C15.2118 14.3529 14.8221 13.968 14.3501 13.968H9.64997ZM6.65895 4.75406C6.36398 4.75406 6.12484 4.99319 6.12484 5.28816V6.21451C5.9233 6.24833 5.7281 6.30079 5.54118 6.37036L5.07822 5.56857C4.93073 5.31312 4.60407 5.22561 4.34862 5.37308C4.09319 5.52058 4.00565 5.84724 4.15312 6.10268L4.6164 6.9051C4.46107 7.03372 4.31805 7.17674 4.18943 7.33207L3.38701 6.86879C3.13157 6.72132 2.80491 6.80887 2.65741 7.06429C2.50992 7.31975 2.59745 7.6464 2.8529 7.79389L3.65469 8.25685C3.58512 8.44378 3.53266 8.63896 3.49884 8.84051H2.57239C2.27744 8.84055 2.03839 9.07967 2.03838 9.37462C2.03839 9.6696 2.27752 9.90873 2.57249 9.90873H3.49884C3.75314 11.4244 5.07107 12.5793 6.65895 12.5793C8.42882 12.5793 9.86361 11.1445 9.86361 9.37462C9.86361 7.78674 8.70868 6.46882 7.19306 6.21451V5.28806C7.19303 4.99312 6.9539 4.75407 6.65895 4.75406ZM17.3411 4.75406C17.0462 4.75406 16.807 4.99319 16.807 5.28816V6.21451C15.2914 6.46881 14.1365 7.78673 14.1365 9.37462C14.1365 11.1445 15.5713 12.5793 17.3411 12.5793C18.929 12.5793 20.247 11.4244 20.5013 9.90873H21.4276C21.7226 9.90872 21.9618 9.66959 21.9618 9.37462C21.9618 9.07967 21.7226 8.84056 21.4277 8.84051H20.5013C20.4674 8.63896 20.4149 8.44378 20.3453 8.25685L21.1472 7.79389C21.4026 7.6464 21.4902 7.31974 21.3427 7.06429C21.1952 6.80886 20.8685 6.72133 20.6131 6.86879L19.8106 7.33207C19.6819 7.17674 19.5389 7.03372 19.3836 6.9051L19.847 6.10268C19.9944 5.84724 19.9069 5.52059 19.6515 5.37308C19.396 5.2256 19.0694 5.31312 18.9219 5.56857L18.4588 6.37036C18.2719 6.30081 18.0768 6.24832 17.8753 6.21451V5.28816C17.8753 4.9932 17.6361 4.75408 17.3411 4.75406Z" />
</svg>
