<svg width="24" height="24" viewBox="0 0 24 24" fill="none" xmlns="http://www.w3.org/2000/svg">
  <path
    d="M12 0C18.6274 0 24 5.37258 24 12C24 18.6274 18.6274 24 12 24C5.37258 24 0 18.6274 0 12C0 5.37258 5.37258 0 12 0ZM9.62012 14.6113C9.1421 14.6113 8.74672 15.001 8.81836 15.4736C9.11836 17.4503 10.4291 18.9384 12 18.9385C13.571 18.9384 14.8816 17.4503 15.1816 15.4736C15.2533 15.0012 14.8587 14.6116 14.3809 14.6113H9.62012ZM6.59082 5.0625C6.29205 5.0625 6.04981 5.30475 6.0498 5.60352V6.54199C5.8457 6.57624 5.6473 6.62876 5.45801 6.69922L4.98926 5.8877C4.83987 5.62896 4.50874 5.54008 4.25 5.68945C3.99167 5.83899 3.90346 6.17015 4.05273 6.42871L4.52148 7.24121C4.36428 7.37141 4.21905 7.51661 4.08887 7.67383L3.27637 7.2041C3.01765 7.0548 2.68649 7.14367 2.53711 7.40234C2.38815 7.66101 2.47679 7.99232 2.73535 8.1416L3.54785 8.61035C3.47749 8.79947 3.42387 8.99727 3.38965 9.20117H2.45117C2.15253 9.20126 1.91025 9.44355 1.91016 9.74219C1.91045 10.0406 2.15267 10.2831 2.45117 10.2832H3.38965C3.64743 11.8181 4.9827 12.9883 6.59082 12.9883C8.38305 12.988 9.83565 11.5344 9.83594 9.74219C9.83586 8.134 8.66586 6.7996 7.13086 6.54199V5.60352C7.13082 5.30494 6.88934 5.06277 6.59082 5.0625ZM17.4102 5.0625C17.1114 5.0625 16.8691 5.30475 16.8691 5.60352V6.54199C15.3341 6.79958 14.1641 8.13398 14.1641 9.74219C14.1644 11.5346 15.6177 12.9883 17.4102 12.9883C19.0181 12.9881 20.3526 11.818 20.6104 10.2832H21.5488C21.8474 10.2832 22.0896 10.0407 22.0898 9.74219C22.0898 9.44353 21.8475 9.20123 21.5488 9.20117H20.6104C20.5761 8.99738 20.5234 8.79938 20.4531 8.61035L21.2646 8.1416C21.5232 7.9923 21.6119 7.66101 21.4629 7.40234C21.3135 7.14364 20.9824 7.05474 20.7236 7.2041L19.9111 7.67383C19.7809 7.5166 19.6357 7.37142 19.4785 7.24121L19.9482 6.42871C20.0975 6.17011 20.0084 5.83895 19.75 5.68945C19.4913 5.54007 19.1601 5.62896 19.0107 5.8877L18.542 6.69922C18.3529 6.62883 18.1551 6.57624 17.9512 6.54199V5.60352C17.9512 5.30486 17.7088 5.06268 17.4102 5.0625ZM7.8125 9.8584C7.88221 9.67001 8.14806 9.67001 8.21777 9.8584L8.27246 10.0059C8.29443 10.0648 8.34141 10.1119 8.40039 10.1338L8.54883 10.1885C8.73668 10.2584 8.73685 10.5249 8.54883 10.5947L8.40039 10.6494C8.34135 10.6714 8.29433 10.7182 8.27246 10.7773L8.21777 10.9248C8.14786 11.1126 7.88243 11.1126 7.8125 10.9248L7.75781 10.7773C7.73597 10.7183 7.68882 10.6714 7.62988 10.6494L7.48145 10.5947C7.29316 10.525 7.29331 10.2583 7.48145 10.1885L7.62988 10.1338C7.68878 10.1119 7.73587 10.0648 7.75781 10.0059L7.8125 9.8584ZM18.6318 9.8584C18.7015 9.67001 18.9674 9.67001 19.0371 9.8584L19.0918 10.0059C19.1138 10.0648 19.1607 10.1119 19.2197 10.1338L19.3682 10.1885C19.556 10.2584 19.5562 10.5249 19.3682 10.5947L19.2197 10.6494C19.1607 10.6714 19.1137 10.7182 19.0918 10.7773L19.0371 10.9248C18.9672 11.1126 18.7018 11.1126 18.6318 10.9248L18.5771 10.7773C18.5553 10.7183 18.5082 10.6714 18.4492 10.6494L18.3008 10.5947C18.1125 10.525 18.1126 10.2583 18.3008 10.1885L18.4492 10.1338C18.5081 10.1119 18.5552 10.0648 18.5771 10.0059L18.6318 9.8584ZM5.65234 7.70898C6.19009 7.70901 6.62692 8.14487 6.62695 8.68262C6.62664 9.22013 6.18992 9.65623 5.65234 9.65625C5.11492 9.65605 4.67902 9.22002 4.67871 8.68262C4.67874 8.14498 5.11474 7.70918 5.65234 7.70898ZM16.4717 7.70898C17.0094 7.70901 17.4463 8.14487 17.4463 8.68262C17.446 9.22013 17.0093 9.65623 16.4717 9.65625C15.9343 9.65605 15.4984 9.22002 15.498 8.68262C15.4981 8.14498 15.9341 7.70918 16.4717 7.70898Z" />
</svg>
