<svg viewBox="0 0 48 48" fill="none" xmlns="http://www.w3.org/2000/svg">
<path d="M21.2716 21.162C21.7651 21.162 22.2037 20.7774 22.2037 20.2829L22.5327 14.7887L21.4361 15.0084C19.5172 15.448 17.7627 16.4369 16.392 17.8105L20.833 21.0521C20.9975 21.1071 21.1071 21.162 21.2716 21.162Z" fill="#CCCCDC" fill-opacity="0.65"/>
<path d="M22.423 26.6563L23.9033 27.3705L25.3837 26.6563L25.7675 25.0629L24.7258 23.7443H23.0261L21.9844 25.0629L22.423 26.6563Z" fill="#CCCCDC" fill-opacity="0.65"/>
<path d="M25.7127 20.7774C25.9868 21.162 26.5351 21.2169 26.9189 20.9972L31.3599 17.8105C29.7151 16.1622 27.522 15.1183 25.2192 14.8436L25.5482 20.3928C25.5482 20.5576 25.603 20.6675 25.7127 20.7774Z" fill="#CCCCDC" fill-opacity="0.65"/>
<path d="M19.243 28.1946L13.8151 29.1287C14.5827 31.3264 16.1179 33.2494 18.0368 34.513L20.1203 29.4583C20.2299 29.2935 20.2299 29.0737 20.1751 28.9089C20.1203 28.4694 19.6816 28.1946 19.243 28.1946Z" fill="#CCCCDC" fill-opacity="0.65"/>
<path d="M18.9141 24.7333C19.243 24.3487 19.1882 23.7992 18.8044 23.4696L14.7472 19.8434C13.541 21.8763 12.9927 24.2388 13.212 26.5464L18.4754 25.008C18.6947 24.953 18.8044 24.8981 18.9141 24.7333Z" fill="#CCCCDC" fill-opacity="0.65"/>
<path d="M24.1775 30.5572C23.7937 30.3374 23.3551 30.4473 23.0809 30.7769L20.3944 35.6668C21.4909 35.9965 22.6971 36.2163 23.8485 36.2163C24.6709 36.2163 25.4933 36.1064 26.2609 35.9415C26.6447 35.8317 26.9737 35.7767 27.2478 35.7218L24.6161 30.9418C24.4516 30.7769 24.342 30.6671 24.1775 30.5572Z" fill="#CCCCDC" fill-opacity="0.65"/>
<path d="M47.9726 29.0737L43.8057 11.1075C43.5316 10.2284 42.8736 9.51418 42.0512 9.07464L25.3289 1.05303C24.8902 0.833263 24.3968 0.77832 23.9582 0.77832C23.5196 0.77832 23.0261 0.77832 22.5875 0.888205L5.86513 8.96476C5.04272 9.34935 4.43962 10.0636 4.22031 10.9976L0.0534216 29.0737C-0.111061 30.0077 0.108249 30.9418 0.656523 31.711L12.2251 46.051C12.883 46.7103 13.8151 47.1498 14.7472 47.2048H33.224C34.2109 47.3146 35.143 46.8751 35.7461 46.051L47.3147 31.711C47.8629 30.9418 48.0822 30.0077 47.9726 29.0737ZM41.174 30.2275C41.0643 30.2275 41.0095 30.2275 40.8999 30.1726C40.845 30.1176 40.845 30.1176 40.7902 30.1176C40.6805 30.1176 40.6257 30.0627 40.5709 30.0627C40.3516 30.0077 40.1871 29.9528 39.9678 29.8429C39.8581 29.8429 39.7485 29.788 39.6388 29.733H39.584C39.0357 29.5133 38.4326 29.3484 37.8295 29.2386H37.7747C37.6102 29.2386 37.4457 29.2935 37.3361 29.4034C37.3361 29.4034 37.3361 29.4583 37.2812 29.4583L36.8426 29.4034C35.8009 32.5351 33.7175 35.1723 30.8664 36.8756L31.0309 37.3151C31.0309 37.3151 30.9761 37.3151 30.9761 37.37C30.8664 37.5349 30.8664 37.7546 30.9213 37.9195C31.1406 38.4689 31.4147 39.0183 31.7985 39.5128V39.5677C31.9082 39.6776 31.963 39.7326 32.0178 39.8425C32.1823 40.0073 32.2919 40.1721 32.4016 40.3919C32.4564 40.4468 32.5113 40.5018 32.5113 40.5567C32.5113 40.5567 32.5661 40.5567 32.5661 40.6117C32.6757 40.8864 32.6757 41.216 32.6209 41.4907C32.5661 41.7654 32.3468 41.9852 32.1275 42.0951C31.963 42.15 31.8533 42.205 31.6888 42.205C31.2502 42.205 30.8664 41.9303 30.6471 41.5457C30.5923 41.5457 30.5923 41.4907 30.5923 41.4907C30.5375 41.4358 30.5375 41.3809 30.4826 41.3259C30.373 41.1611 30.3182 40.9413 30.2633 40.7215L30.1537 40.3919V40.3369C29.9344 39.7875 29.7151 39.2381 29.4409 38.6887C29.3313 38.5238 29.1668 38.414 29.0023 38.359C29.0023 38.3041 29.0023 38.3041 28.9475 38.3041L28.7282 37.9195C28.1799 38.0843 27.5768 38.3041 26.9737 38.414C25.9868 38.6337 24.9999 38.7436 24.013 38.7436C22.3682 38.7436 20.7782 38.4689 19.243 37.8645L19.0237 38.3041C19.0237 38.359 19.0237 38.359 18.9689 38.359C18.8044 38.414 18.6399 38.5238 18.5303 38.6887C18.2561 39.2381 17.982 39.7875 17.8175 40.3919L17.7079 40.7215C17.653 40.9413 17.5434 41.1061 17.4885 41.3259C17.4337 41.3809 17.3789 41.4358 17.3789 41.4907C17.3241 41.4907 17.3241 41.5457 17.3241 41.5457C17.1048 41.9303 16.721 42.205 16.2823 42.205C16.1179 42.205 15.9534 42.15 15.8437 42.0951C15.3503 41.8204 15.131 41.1611 15.4051 40.6117C15.4599 40.6117 15.4599 40.5567 15.4599 40.5567C15.5148 40.5018 15.5148 40.4468 15.5696 40.3919C15.7341 40.1721 15.8437 39.9523 15.9534 39.8425C16.063 39.7326 16.1179 39.6776 16.1727 39.5677V39.5128C16.5017 39.0183 16.8306 38.4689 17.0499 37.9195C17.1048 37.7546 17.1048 37.5349 16.9951 37.37C16.9951 37.37 16.9403 37.37 16.9403 37.3151L17.1596 36.8756C16.6113 36.6008 16.1727 36.2712 15.6792 35.8866C13.541 34.2383 12.0058 31.9857 11.1834 29.4583L10.6899 29.5133C10.6899 29.5133 10.6899 29.4583 10.6351 29.4583C10.5255 29.3484 10.361 29.2935 10.1965 29.2935H10.1417C9.53857 29.4034 8.93546 29.5682 8.38719 29.788H8.33236C8.22271 29.788 8.11305 29.8429 8.0034 29.8979C7.83892 29.9528 7.61961 30.0627 7.4003 30.1176C7.29064 30.1176 7.18099 30.1176 7.18099 30.1726C7.18099 30.2275 7.18099 30.2275 7.12616 30.2275C7.0165 30.2825 6.96168 30.2825 6.85202 30.2825C6.35857 30.3374 5.86513 30.0077 5.75547 29.5133C5.64582 28.9089 6.02961 28.3595 6.63271 28.2496C6.68754 28.1946 6.68754 28.1946 6.74237 28.1946C6.85202 28.1946 6.90685 28.1397 6.96168 28.1397C7.18099 28.1397 7.4003 28.0848 7.61961 28.0848C7.72926 28.0298 7.83892 28.0298 7.94857 28.0298H8.0034C8.66133 27.9749 9.26443 27.865 9.86753 27.7002C10.032 27.5903 10.1965 27.4804 10.2513 27.3156C10.2513 27.3156 10.3061 27.3156 10.3061 27.2606L10.7448 27.1507C10.2513 24.019 10.9093 20.8323 12.6089 18.1402C12.6637 18.0303 12.7186 17.9753 12.7734 17.8654L12.4444 17.5358V17.4808C12.4992 17.316 12.3896 17.0963 12.2799 16.9864C11.7865 16.6018 11.293 16.2721 10.7448 15.9425C10.6351 15.8875 10.5255 15.8326 10.4158 15.7776C10.1965 15.6677 9.97719 15.5579 9.8127 15.448C9.75788 15.448 9.64822 15.3381 9.64822 15.3381C9.64822 15.3381 9.64822 15.2831 9.59339 15.2831C9.15477 14.8986 9.04512 14.2392 9.37408 13.7448C9.59339 13.47 9.86753 13.3602 10.1965 13.3602C10.4706 13.3602 10.7448 13.47 10.9641 13.6349C10.9641 13.6349 10.9641 13.6349 11.0189 13.6898C11.0737 13.7448 11.1286 13.7448 11.1834 13.7997C11.3479 13.9645 11.4575 14.1294 11.622 14.2942C11.6768 14.3491 11.7865 14.4041 11.8413 14.514C12.2799 14.9535 12.7186 15.393 13.212 15.7776C13.2668 15.8326 13.4313 15.8875 13.541 15.8875C13.6506 15.8875 13.7055 15.8326 13.7603 15.8326H13.8151L14.1441 16.0523C15.9534 14.1294 18.311 12.7558 20.8878 12.2064C21.5458 12.0965 22.1489 11.9866 22.752 11.9317L22.8068 11.4921L22.8616 11.4372C23.0261 11.3273 23.0809 11.1625 23.1358 10.9976C23.1358 10.3383 23.1358 9.73395 23.0261 9.12958V9.07464C23.0261 8.96476 23.0261 8.85487 22.9713 8.74499C22.9165 8.52522 22.8616 8.30545 22.8616 8.08568V7.81096C22.8616 7.53625 22.9713 7.26154 23.1906 7.04177C23.4099 6.822 23.7389 6.71211 24.0678 6.71211C24.6161 6.71211 25.0547 7.26154 24.9999 7.81096V8.14062C24.9451 8.36039 24.9451 8.58016 24.8902 8.79993C24.8902 8.90981 24.8354 9.0197 24.8354 9.12958V9.18453C24.7258 9.84384 24.7258 10.4482 24.7258 11.0526C24.7806 11.2174 24.8354 11.3822 24.9999 11.4921L25.0547 11.5471L25.1096 11.9866C27.6864 12.2613 30.2085 13.2503 32.2371 14.8436C32.6757 15.2831 33.1692 15.7227 33.6078 16.1622L34.0464 15.8326C34.1013 15.8875 34.2109 15.8875 34.2657 15.8875C34.3754 15.8875 34.485 15.8326 34.5947 15.7776C35.0881 15.448 35.5268 15.0084 35.9654 14.5689C36.0202 14.514 36.1299 14.459 36.1847 14.3491C36.2944 14.1843 36.4588 14.0195 36.6233 13.8546C36.6781 13.8546 36.733 13.7997 36.7878 13.7448L36.8426 13.6898C37.0619 13.525 37.3361 13.4151 37.6102 13.4151C37.8843 13.4151 38.2133 13.5799 38.3778 13.7997C38.7616 14.2942 38.6519 14.9535 38.1585 15.3381C38.1585 15.3381 38.1585 15.3381 38.1037 15.393C38.0488 15.448 37.994 15.448 37.9392 15.5029C37.7199 15.6128 37.5554 15.7227 37.3361 15.8326C37.2264 15.8875 37.1168 15.9425 37.0071 15.9974C36.4588 16.2721 35.9654 16.6567 35.4719 17.0413C35.3623 17.1512 35.3075 17.371 35.3075 17.5358V17.5907L34.9785 17.9204C35.8557 19.294 36.5137 20.8323 36.8975 22.4257C37.2264 24.019 37.3361 25.6673 37.1168 27.2606L37.5554 27.3705C37.5554 27.3705 37.6102 27.3705 37.6102 27.4254C37.665 27.5903 37.8295 27.7551 37.994 27.81C38.5971 27.9749 39.255 28.0848 39.8581 28.1397H39.913C40.0226 28.1946 40.1323 28.1946 40.2419 28.1946C40.4612 28.1946 40.6805 28.1946 40.8999 28.2496C40.9547 28.2496 41.1192 28.2496 41.1192 28.3045C41.1192 28.3595 41.1192 28.3595 41.174 28.3595C41.7223 28.4694 42.1061 28.9089 42.2705 29.4583C42.1061 29.8979 41.6674 30.2275 41.174 30.2275Z" fill="#CCCCDC" fill-opacity="0.65"/>
<path d="M33.0047 19.8434L28.8926 23.5795C28.783 23.6894 28.7282 23.7992 28.6733 23.9641C28.5637 24.4586 28.8378 24.953 29.3313 25.0629L34.5399 26.5464C34.6495 25.3926 34.5947 24.2388 34.3206 23.085C34.0464 21.9312 33.6078 20.8323 33.0047 19.8434Z" fill="#CCCCDC" fill-opacity="0.65"/>
<path d="M28.0154 28.2496C27.5768 28.4694 27.4123 28.9089 27.522 29.3484L29.6602 34.4581C30.9761 33.634 32.1275 32.4802 32.9499 31.1615C33.3885 30.5572 33.7175 29.8429 33.9916 29.0737L28.5089 28.1397C28.3444 28.1397 28.1799 28.1946 28.0154 28.2496Z" fill="#CCCCDC" fill-opacity="0.65"/>
</svg>
