<svg width="38" height="36" viewBox="0 0 38 36" fill="none" xmlns="http://www.w3.org/2000/svg">
<path d="M33.785 7.95618C33.5733 7.27906 33.0653 6.7289 32.4302 6.39033L19.517 0.2116C19.1783 0.0423201 18.7972 0 18.4585 0C18.1198 0 17.7387 0 17.4 0.0846402L4.4868 6.30569C3.85172 6.60193 3.38599 7.1521 3.21664 7.87154L0.0412529 21.7948C-0.0857626 22.5143 0.0835914 23.2337 0.506976 23.8262L9.4404 34.8718C9.94846 35.3796 10.6682 35.7182 11.388 35.7605H25.6137C26.3758 35.8451 27.0956 35.5066 27.5613 34.8718L36.4947 23.8262C36.9181 23.2337 37.0874 22.5143 37.0028 21.7948L33.785 7.95618V7.95618Z" fill="#326DE6"/>
<path d="M31.7933 21.2447C31.7509 21.2447 31.7086 21.2447 31.7086 21.2024C31.7086 21.16 31.6239 21.16 31.5393 21.16C31.3699 21.1177 31.2005 21.1177 31.0312 21.1177C30.9465 21.1177 30.8618 21.1177 30.7772 21.0754H30.7348C30.2691 21.0331 29.761 20.9484 29.2953 20.8215C29.1683 20.7792 29.0413 20.6522 28.9989 20.5252C29.0413 20.5252 28.9989 20.5252 28.9989 20.5252L28.6602 20.4406C28.8296 19.2133 28.7449 17.9437 28.4909 16.7164C28.1945 15.4892 27.6864 14.3042 27.009 13.2462L27.2631 12.9923V12.95C27.2631 12.823 27.3054 12.6537 27.3901 12.5691C27.7711 12.2305 28.1522 11.9766 28.5756 11.7227C28.6602 11.6803 28.7449 11.638 28.8296 11.5957C28.9989 11.5111 29.126 11.4264 29.2953 11.3418C29.3376 11.2995 29.38 11.2995 29.4223 11.2571C29.4647 11.2148 29.4223 11.2148 29.4223 11.1725C29.8034 10.8763 29.8881 10.3684 29.5917 9.98754C29.4647 9.81826 29.2106 9.6913 28.9989 9.6913C28.7872 9.6913 28.5756 9.77594 28.4062 9.9029L28.3639 9.94522C28.3215 9.98754 28.2792 10.0299 28.2368 10.0299C28.1098 10.1568 27.9828 10.2838 27.8981 10.4107C27.8558 10.4954 27.7711 10.5377 27.7288 10.58C27.4324 10.9186 27.0514 11.2571 26.6703 11.5111C26.5856 11.5534 26.501 11.5957 26.4163 11.5957C26.374 11.5957 26.2893 11.5957 26.2469 11.5534H26.2046L25.8659 11.765C25.5272 11.4264 25.1461 11.0879 24.8074 10.7493C23.2409 9.52202 21.2933 8.76026 19.3034 8.54866L19.2611 8.2101V8.25242C19.1341 8.16778 19.0917 8.04082 19.0494 7.91386C19.0494 7.44834 19.0494 6.98282 19.1341 6.47497V6.43265C19.1341 6.34801 19.1764 6.26337 19.1764 6.17873C19.2187 6.00945 19.2187 5.84017 19.2611 5.67089V5.41697C19.3034 4.99377 18.9647 4.57057 18.5413 4.52825C18.2873 4.48593 18.0333 4.61289 17.8216 4.82449C17.6522 4.99377 17.5675 5.20537 17.5675 5.41697V5.62857C17.5675 5.79785 17.6099 5.96713 17.6522 6.13641C17.6946 6.22105 17.6946 6.30569 17.6946 6.39033V6.43265C17.7792 6.89818 17.7792 7.3637 17.7792 7.87154C17.7369 7.9985 17.6946 8.12546 17.5675 8.2101V8.29474L17.5252 8.6333C17.0595 8.67562 16.5938 8.76026 16.0857 8.8449C14.0958 9.2681 12.2752 10.3261 10.8781 11.8073L10.624 11.638H10.5817C10.5394 11.638 10.497 11.6803 10.4123 11.6803C10.3277 11.6803 10.243 11.638 10.1583 11.5957C9.77726 11.2995 9.39621 10.9609 9.09985 10.6223C9.05751 10.5377 8.97283 10.4954 8.93049 10.4531C8.80348 10.3261 8.7188 10.1991 8.59178 10.0722C8.54944 10.0299 8.50711 10.0299 8.46477 9.98754C8.42243 9.94522 8.42243 9.94522 8.42243 9.94522C8.25308 9.81826 8.04138 9.73362 7.82969 9.73362C7.57566 9.73362 7.36397 9.81826 7.23695 10.0299C6.98292 10.4107 7.0676 10.9186 7.40631 11.2148C7.44864 11.2148 7.44864 11.2571 7.44864 11.2571C7.44864 11.2571 7.53332 11.3418 7.57566 11.3418C7.70267 11.4264 7.87203 11.5111 8.04138 11.5957C8.12606 11.638 8.21074 11.6803 8.29541 11.7227C8.7188 11.9766 9.14218 12.2305 9.48089 12.5691C9.56557 12.6537 9.65025 12.823 9.60791 12.95V12.9076L9.86194 13.1616C9.8196 13.2462 9.77726 13.2885 9.73492 13.3732C8.42243 15.4468 7.87203 17.9014 8.25308 20.3136L7.91437 20.3983C7.91437 20.4406 7.87203 20.4406 7.87203 20.4406C7.82969 20.5676 7.70267 20.6522 7.57566 20.7368C7.10994 20.8638 6.64421 20.9484 6.13615 20.9908C6.05147 20.9908 5.9668 20.9908 5.88212 21.0331C5.71277 21.0331 5.54341 21.0754 5.37406 21.0754C5.33172 21.0754 5.28938 21.1177 5.2047 21.1177C5.16236 21.1177 5.16236 21.1177 5.12003 21.16C4.6543 21.2447 4.35793 21.6679 4.44261 22.1334C4.52729 22.5143 4.90833 22.7682 5.28938 22.7259C5.37406 22.7259 5.4164 22.7259 5.50107 22.6836C5.54341 22.6836 5.54341 22.6836 5.54341 22.6413C5.54341 22.5989 5.67043 22.6413 5.71276 22.6413C5.88212 22.5989 6.05147 22.5143 6.17849 22.472C6.26317 22.4297 6.34784 22.3873 6.43252 22.3873H6.47486C6.94058 22.2181 7.36397 22.0911 7.87203 22.0065H7.91437C8.04138 22.0065 8.1684 22.0488 8.25308 22.1334C8.29541 22.1334 8.29541 22.1757 8.29541 22.1757L8.67646 22.1334C9.31154 24.0801 10.497 25.8153 12.1482 27.0849C12.5293 27.3811 12.868 27.635 13.2914 27.8466L13.0797 28.1429C13.0797 28.1852 13.122 28.1852 13.122 28.1852C13.2067 28.3121 13.2067 28.4814 13.1643 28.6084C12.995 29.0316 12.741 29.4548 12.4869 29.8357V29.878C12.4446 29.9626 12.4022 30.0049 12.3176 30.0896C12.2329 30.1742 12.1482 30.3435 12.0212 30.5128C11.9789 30.5551 11.9789 30.5974 11.9365 30.6398C11.9365 30.6398 11.9365 30.6821 11.8942 30.6821C11.6825 31.1053 11.8518 31.6131 12.2329 31.8247C12.3176 31.867 12.4446 31.9094 12.5293 31.9094C12.868 31.9094 13.1643 31.6978 13.3337 31.4015C13.3337 31.4015 13.3337 31.3592 13.376 31.3592C13.376 31.3169 13.4184 31.2746 13.4607 31.2322C13.503 31.063 13.5877 30.936 13.6301 30.7667L13.7147 30.5128C13.8418 30.0473 14.0535 29.6241 14.2651 29.2009C14.3498 29.0739 14.4768 28.9893 14.6039 28.9469C14.6462 28.9469 14.6462 28.9469 14.6462 28.9046L14.8155 28.5661C16.001 29.0316 17.2288 29.2432 18.499 29.2432C19.2611 29.2432 20.0232 29.1585 20.7853 28.9469C21.251 28.8623 21.7167 28.693 22.1401 28.5661L22.3095 28.8623C22.3518 28.8623 22.3518 28.8623 22.3518 28.9046C22.4788 28.9469 22.6058 29.0316 22.6905 29.1585C22.9022 29.5817 23.1139 30.005 23.2409 30.4705V30.5128L23.3256 30.7667C23.3679 30.936 23.4103 31.1053 23.4949 31.2322C23.5373 31.2746 23.5373 31.3169 23.5796 31.3592C23.5796 31.3592 23.5796 31.4015 23.622 31.4015C23.7913 31.6978 24.0877 31.9094 24.4264 31.9094C24.5534 31.9094 24.6381 31.867 24.7651 31.8247C24.9344 31.7401 25.1038 31.5708 25.1461 31.3592C25.1885 31.1476 25.1885 30.936 25.1038 30.7244C25.1038 30.6821 25.0615 30.6821 25.0615 30.6821C25.0615 30.6398 25.0191 30.5974 24.9768 30.5551C24.8921 30.3858 24.8074 30.2589 24.6804 30.1319C24.6381 30.0473 24.5957 30.0049 24.5111 29.9203V29.8357C24.2147 29.4548 24.003 29.0316 23.8336 28.6084C23.7913 28.4814 23.7913 28.3121 23.876 28.1852C23.876 28.1429 23.9183 28.1429 23.9183 28.1429L23.7913 27.8043C25.9506 26.4924 27.6018 24.461 28.3639 22.0488L28.7026 22.0911C28.7449 22.0911 28.7449 22.0488 28.7449 22.0488C28.8296 21.9641 28.9566 21.9218 29.0836 21.9218H29.126C29.5917 22.0065 30.0574 22.1334 30.4808 22.3027H30.5231C30.6078 22.345 30.6925 22.3873 30.7772 22.3873C30.9465 22.472 31.0735 22.5566 31.2429 22.5989C31.2852 22.5989 31.3276 22.6413 31.4122 22.6413C31.4546 22.6413 31.4546 22.6413 31.4969 22.6836C31.5816 22.7259 31.6239 22.7259 31.7086 22.7259C32.0897 22.7259 32.4284 22.472 32.5554 22.1334C32.513 21.6679 32.1743 21.3293 31.7933 21.2447V21.2447ZM19.5575 19.9328L18.4143 20.4829L17.2712 19.9328L16.9748 18.7055L17.7792 17.6898H19.0494L19.8538 18.7055L19.5575 19.9328V19.9328ZM26.4586 17.182C26.6703 18.0707 26.7127 18.9594 26.628 19.8481L22.6058 18.7055C22.2248 18.6208 22.0131 18.24 22.0978 17.8591C22.1401 17.7321 22.1824 17.6475 22.2671 17.5628L25.4425 14.6851C25.9082 15.4468 26.2469 16.2932 26.4586 17.182V17.182ZM24.1724 13.1192L20.7006 15.5738C20.4042 15.7431 19.9808 15.7008 19.7691 15.4045C19.6845 15.3199 19.6421 15.2352 19.6421 15.1083L19.3881 10.8339C21.251 11.0455 22.9022 11.8496 24.1724 13.1192V13.1192ZM16.5091 10.9609L17.3559 10.7916L17.1442 15.0236C17.1442 15.4045 16.8055 15.7008 16.4244 15.7008C16.2974 15.7008 16.2127 15.6584 16.0857 15.6161L12.5716 13.1192C13.6724 12.0612 15.0272 11.2995 16.5091 10.9609ZM11.3438 14.6851L14.4768 17.4782C14.7732 17.7321 14.8155 18.1553 14.5615 18.4516C14.4768 18.5785 14.3922 18.6208 14.2228 18.6632L10.116 19.8481C9.98895 18.0707 10.4123 16.2509 11.3438 14.6851V14.6851ZM10.624 21.8372L14.8155 21.1177C15.1543 21.1177 15.493 21.3293 15.5353 21.6679C15.5776 21.7949 15.5776 21.9641 15.493 22.0911L13.8841 25.9845C12.4022 25.0112 11.2168 23.53 10.624 21.8372V21.8372ZM20.2349 27.0849C19.6421 27.2118 19.0494 27.2965 18.4143 27.2965C17.5252 27.2965 16.5938 27.1272 15.747 26.8733L17.8216 23.1068C18.0333 22.8529 18.372 22.7682 18.6683 22.9375C18.7954 23.0221 18.88 23.1068 19.0071 23.2337L21.0393 26.9156C20.7853 26.9579 20.5312 27.0002 20.2349 27.0849V27.0849ZM25.4002 23.403C24.7651 24.4187 23.876 25.3074 22.8599 25.9422L21.2087 21.9641C21.124 21.6256 21.2933 21.287 21.5897 21.16C21.7167 21.1177 21.8437 21.0754 21.9707 21.0754L26.2046 21.7949C25.9929 22.3873 25.7389 22.9375 25.4002 23.403Z" fill="white"/>
</svg>
