<svg xmlns="http://www.w3.org/2000/svg" data-name="Layer 1" viewBox="0 0 24 24"><path d="M14.16,12.21a1,1,0,0,0,.71.29,1,1,0,0,0,.71-.29,1,1,0,0,0,0-1.42L14.79,10l.79-.79a1,1,0,1,0-1.42-1.42l-1.5,1.5a1,1,0,0,0,0,1.42Zm-5.08,0,1.5-1.5a1,1,0,0,0,0-1.42l-1.5-1.5A1,1,0,0,0,7.66,9.21l.8.79-.8.79a1,1,0,0,0,0,1.42,1,1,0,0,0,.71.29A1,1,0,0,0,9.08,12.21Zm5.28,2a3.76,3.76,0,0,1-4.72,0,1,1,0,0,0-1.28,1.54,5.68,5.68,0,0,0,7.28,0,1,1,0,1,0-1.28-1.54ZM12,2A10,10,0,1,0,22,12,10,10,0,0,0,12,2Zm0,18a8,8,0,1,1,8-8A8,8,0,0,1,12,20Z"/></svg>