<svg xmlns="http://www.w3.org/2000/svg" data-name="Layer 1" viewBox="0 0 24 24"><path d="M10.26,5,12,4l7,4L15.85,9.83a1,1,0,0,0-.37,1.36,1,1,0,0,0,1.37.37L21.5,8.87a1,1,0,0,0,0-1.74l-9-5.2a1,1,0,0,0-1,0L9.26,3.23A1,1,0,0,0,8.89,4.6,1,1,0,0,0,10.26,5ZM3.71,2.29A1,1,0,0,0,2.29,3.71L4.54,6l-2,1.17a1,1,0,0,0,0,1.74l9,5.2a1,1,0,0,0,1,0l.1-.06,1.07,1.07-1.67,1L3.5,11.13a1,1,0,1,0-1,1.74l9,5.2a1,1,0,0,0,.5.13,1,1,0,0,0,.5-.13l2.63-1.52,1.07,1.07L12,20,3.5,15.13a1,1,0,0,0-1,1.74l9,5.2a1,1,0,0,0,1,0l5.17-3,2.62,2.63a1,1,0,0,0,1.42,0,1,1,0,0,0,0-1.42ZM5,8l1-.58,2.75,2.75Zm15.5,3.13-2.12,1.22a1,1,0,0,0,1,1.74l2.12-1.22a1,1,0,1,0-1-1.74Z"/></svg>