<svg viewBox="0 0 48 48" fill="none" xmlns="http://www.w3.org/2000/svg">
<path d="M12.2167 24.3097C12.5188 24.1078 12.8741 24 13.2375 24C13.7249 24 14.1922 24.1936 14.5368 24.5382C14.8814 24.8828 15.075 25.3502 15.075 25.8375C15.075 26.2009 14.9673 26.5562 14.7654 26.8584C14.5634 27.1605 14.2765 27.3961 13.9407 27.5351C13.6049 27.6742 13.2355 27.7106 12.879 27.6397C12.5226 27.5688 12.1952 27.3938 11.9382 27.1368C11.6812 26.8798 11.5062 26.5524 11.4353 26.196C11.3644 25.8395 11.4008 25.4701 11.5399 25.1343C11.679 24.7986 11.9145 24.5116 12.2167 24.3097Z" fill="#CCCCDC" fill-opacity="0.65"/>
<path d="M34.7625 27.675L20.5875 27.675C20.1002 27.675 19.6328 27.4814 19.2882 27.1368C18.9436 26.7922 18.75 26.3248 18.75 25.8375C18.75 25.3502 18.9436 24.8828 19.2882 24.5382C19.6328 24.1936 20.1002 24 20.5875 24L34.7625 24C35.2499 24 35.7172 24.1936 36.0618 24.5382C36.4064 24.8828 36.6 25.3502 36.6 25.8375C36.6 26.3248 36.4064 26.7922 36.0618 27.1368C35.7172 27.4814 35.2499 27.675 34.7625 27.675Z" fill="#CCCCDC" fill-opacity="0.65"/>
<path d="M12.2167 32.7096C12.5188 32.5077 12.8741 32.3999 13.2375 32.3999C13.7249 32.3999 14.1922 32.5935 14.5368 32.9381C14.8814 33.2827 15.075 33.7501 15.075 34.2374C15.075 34.6008 14.9673 34.9561 14.7654 35.2583C14.5634 35.5604 14.2765 35.796 13.9407 35.935C13.6049 36.0741 13.2355 36.1105 12.879 36.0396C12.5226 35.9687 12.1952 35.7937 11.9382 35.5367C11.6812 35.2797 11.5062 34.9523 11.4353 34.5959C11.3644 34.2394 11.4008 33.87 11.5399 33.5342C11.679 33.1985 11.9145 32.9115 12.2167 32.7096Z" fill="#CCCCDC" fill-opacity="0.65"/>
<path d="M34.7625 36.0749H20.5875C20.1002 36.0749 19.6328 35.8813 19.2882 35.5367C18.9436 35.1921 18.75 34.7247 18.75 34.2374C18.75 33.7501 18.9436 33.2827 19.2882 32.9381C19.6328 32.5935 20.1002 32.3999 20.5875 32.3999L34.7625 32.3999C35.2499 32.3999 35.7172 32.5935 36.0618 32.9381C36.4064 33.2827 36.6 33.7501 36.6 34.2374C36.6 34.7247 36.4064 35.1921 36.0618 35.5367C35.7172 35.8813 35.2499 36.0749 34.7625 36.0749Z" fill="#CCCCDC" fill-opacity="0.65"/>
<path d="M9.3 5.1H38.7C41.0196 5.1 42.9 6.9804 42.9 9.3V38.7C42.9 41.0196 41.0196 42.9 38.7 42.9H9.3C6.9804 42.9 5.1 41.0196 5.1 38.7V9.3C5.1 6.9804 6.9804 5.1 9.3 5.1Z" stroke="#CCCCDC" stroke-opacity="0.65" stroke-width="4.2"/>
</svg>
