<svg width="48" height="48" viewBox="0 0 48 48" xmlns="http://www.w3.org/2000/svg">
<path d="M12.2166 24.3097C12.5187 24.1078 12.874 24 13.2374 24C13.7248 24 14.1921 24.1936 14.5367 24.5382C14.8813 24.8828 15.0749 25.3502 15.0749 25.8375C15.0749 26.2009 14.9672 26.5562 14.7653 26.8584C14.5633 27.1605 14.2764 27.3961 13.9406 27.5351C13.6048 27.6742 13.2354 27.7106 12.8789 27.6397C12.5225 27.5688 12.1951 27.3938 11.9381 27.1368C11.6811 26.8798 11.5061 26.5524 11.4352 26.196C11.3643 25.8395 11.4007 25.4701 11.5398 25.1343C11.6789 24.7986 11.9144 24.5116 12.2166 24.3097Z"/>
<path d="M34.7625 27.675H20.5875C20.1002 27.675 19.6328 27.4814 19.2882 27.1368C18.9436 26.7922 18.75 26.3248 18.75 25.8375C18.75 25.3502 18.9436 24.8828 19.2882 24.5382C19.6328 24.1936 20.1002 24 20.5875 24H34.7625C35.2499 24 35.7172 24.1936 36.0618 24.5382C36.4064 24.8828 36.6 25.3502 36.6 25.8375C36.6 26.3248 36.4064 26.7922 36.0618 27.1368C35.7172 27.4814 35.2499 27.675 34.7625 27.675Z"/>
<path d="M12.2166 32.7096C12.5187 32.5077 12.874 32.3999 13.2374 32.3999C13.7248 32.3999 14.1921 32.5935 14.5367 32.9381C14.8813 33.2827 15.0749 33.7501 15.0749 34.2374C15.0749 34.6008 14.9672 34.9561 14.7653 35.2583C14.5633 35.5604 14.2764 35.796 13.9406 35.935C13.6048 36.0741 13.2354 36.1105 12.8789 36.0396C12.5225 35.9687 12.1951 35.7937 11.9381 35.5367C11.6811 35.2797 11.5061 34.9523 11.4352 34.5959C11.3643 34.2394 11.4007 33.87 11.5398 33.5342C11.6789 33.1985 11.9144 32.9115 12.2166 32.7096Z"/>
<path d="M34.7625 36.0749H20.5875C20.1002 36.0749 19.6328 35.8813 19.2882 35.5367C18.9436 35.1921 18.75 34.7247 18.75 34.2374C18.75 33.7501 18.9436 33.2827 19.2882 32.9381C19.6328 32.5935 20.1002 32.3999 20.5875 32.3999H34.7625C35.2499 32.3999 35.7172 32.5935 36.0618 32.9381C36.4064 33.2827 36.6 33.7501 36.6 34.2374C36.6 34.7247 36.4064 35.1921 36.0618 35.5367C35.7172 35.8813 35.2499 36.0749 34.7625 36.0749Z"/>
<path d="M9.3001 5.1001H38.7001C41.0197 5.1001 42.9001 6.9805 42.9001 9.3001V38.7001C42.9001 41.0197 41.0197 42.9001 38.7001 42.9001H9.3001C6.9805 42.9001 5.1001 41.0197 5.1001 38.7001V9.3001C5.1001 6.9805 6.9805 5.1001 9.3001 5.1001Z"/>
</svg>
