<svg xmlns="http://www.w3.org/2000/svg" viewBox="0 0 24 24"><path d="M12.11,15.39,8.23,19.27a2.52,2.52,0,0,1-3.5,0,2.47,2.47,0,0,1,0-3.5l3.88-3.88a1,1,0,1,0-1.42-1.42L3.31,14.36a4.48,4.48,0,0,0,6.33,6.33l3.89-3.88a1,1,0,0,0-1.42-1.42ZM20.69,3.31a4.49,4.49,0,0,0-6.33,0L10.47,7.19a1,1,0,1,0,1.42,1.42l3.88-3.88a2.52,2.52,0,0,1,3.5,0,2.47,2.47,0,0,1,0,3.5l-3.88,3.88a1,1,0,0,0,0,1.42,1,1,0,0,0,1.42,0l3.88-3.89A4.49,4.49,0,0,0,20.69,3.31ZM8.83,15.17a1,1,0,0,0,.71.29,1,1,0,0,0,.71-.29l4.92-4.92a1,1,0,1,0-1.42-1.42L8.83,13.75A1,1,0,0,0,8.83,15.17Z"/></svg>