<svg xmlns="http://www.w3.org/2000/svg" data-name="Layer 1" viewBox="0 0 24 24"><path d="M12.11,15.39,8.23,19.27a2.47,2.47,0,0,1-3.5,0,2.46,2.46,0,0,1,0-3.5l3.88-3.88a1,1,0,1,0-1.42-1.42L3.31,14.36a4.48,4.48,0,0,0,6.33,6.33l3.89-3.88a1,1,0,0,0-1.42-1.42Zm-3.28-.22a1,1,0,0,0,.71.29,1,1,0,0,0,.71-.29l4.92-4.92a1,1,0,1,0-1.42-1.42L8.83,13.75A1,1,0,0,0,8.83,15.17ZM21,18H20V17a1,1,0,0,0-2,0v1H17a1,1,0,0,0,0,2h1v1a1,1,0,0,0,2,0V20h1a1,1,0,0,0,0-2Zm-4.19-4.47,3.88-3.89a4.48,4.48,0,0,0-6.33-6.33L10.47,7.19a1,1,0,1,0,1.42,1.42l3.88-3.88a2.47,2.47,0,0,1,3.5,0,2.46,2.46,0,0,1,0,3.5l-3.88,3.88a1,1,0,0,0,0,1.42,1,1,0,0,0,1.42,0Z"/></svg>