<svg xmlns="http://www.w3.org/2000/svg" data-name="Layer 1" viewBox="0 0 24 24"><path d="M17.5,8.999a5.41868,5.41868,0,0,0-2.56543.64453A.99918.99918,0,0,0,14,8.999H10a.99943.99943,0,0,0-1,1v12a.99942.99942,0,0,0,1,1h4a.99942.99942,0,0,0,1-1v-5.5a1,1,0,1,1,2,0v5.5a.99942.99942,0,0,0,1,1h4a.99942.99942,0,0,0,1-1v-7.5A5.50685,5.50685,0,0,0,17.5,8.999Zm3.5,12H19v-4.5a3,3,0,1,0-6,0v4.5H11v-10h2v.70313a1.00048,1.00048,0,0,0,1.78125.625A3.48258,3.48258,0,0,1,21,14.499Zm-14-12H3a.99943.99943,0,0,0-1,1v12a.99942.99942,0,0,0,1,1H7a.99942.99942,0,0,0,1-1v-12A.99943.99943,0,0,0,7,8.999Zm-1,12H4v-10H6ZM5.01465,1.542A3.23283,3.23283,0,1,0,4.958,7.999h.02832a3.23341,3.23341,0,1,0,.02832-6.457ZM4.98633,5.999H4.958A1.22193,1.22193,0,0,1,3.58887,4.77051c0-.7461.55957-1.22852,1.42578-1.22852A1.2335,1.2335,0,0,1,6.41113,4.77051C6.41113,5.5166,5.85156,5.999,4.98633,5.999Z"/></svg>