<svg width="48" height="48" viewBox="0 0 48 48" xmlns="http://www.w3.org/2000/svg">
<path d="M9.52003 21.1801C10.0505 21.249 10.5866 21.1044 11.0104 20.7781C11.4342 20.4518 11.7111 19.9705 11.78 19.4401C11.849 18.9096 11.7044 18.3735 11.3781 17.9497C11.0518 17.5259 10.5705 17.249 10.04 17.1801L6.52003 16.3001C6.26341 16.2214 5.99357 16.1952 5.7266 16.223C5.45963 16.2508 5.20099 16.3321 4.96609 16.462C4.73119 16.5918 4.52484 16.7677 4.35933 16.979C4.19382 17.1903 4.07253 17.4328 4.0027 17.6919C3.93287 17.9511 3.91593 18.2217 3.95288 18.4875C3.98982 18.7534 4.07991 19.0091 4.21776 19.2394C4.35562 19.4697 4.53842 19.6699 4.75528 19.8281C4.97214 19.9863 5.21862 20.0992 5.48003 20.1601L9.00003 21.1001C9.16759 21.156 9.34342 21.183 9.52003 21.1801ZM17.24 10.0001C17.3572 10.4364 17.6187 10.8202 17.9819 11.0889C18.345 11.3577 18.7885 11.4955 19.24 11.4801C19.4123 11.5077 19.5878 11.5077 19.76 11.4801C20.2677 11.3396 20.6994 11.0046 20.9615 10.5478C21.2236 10.091 21.295 9.54919 21.16 9.04007L20.22 5.52007C20.1591 5.25866 20.0462 5.01218 19.8881 4.79532C19.7299 4.57846 19.5297 4.39566 19.2994 4.2578C19.0691 4.11995 18.8134 4.02986 18.5475 3.99292C18.2816 3.95597 18.0111 3.97291 17.7519 4.04274C17.4927 4.11257 17.2503 4.23385 17.0389 4.39937C16.8276 4.56488 16.6518 4.77123 16.5219 5.00613C16.392 5.24103 16.3108 5.49967 16.283 5.76664C16.2552 6.03361 16.2814 6.30345 16.36 6.56007L17.24 10.0001ZM26.9 30.0001C26.7132 29.8034 26.4883 29.6468 26.239 29.5398C25.9897 29.4328 25.7213 29.3776 25.45 29.3776C25.1788 29.3776 24.9103 29.4328 24.661 29.5398C24.4118 29.6468 24.1869 29.8034 24 30.0001L17 37.1201C16.177 37.9097 15.0806 38.3506 13.94 38.3506C12.7995 38.3506 11.7031 37.9097 10.88 37.1201C10.4749 36.7201 10.1532 36.2436 9.93364 35.7183C9.71409 35.1931 9.60103 34.6294 9.60103 34.0601C9.60103 33.4907 9.71409 32.9271 9.93364 32.4018C10.1532 31.8765 10.4749 31.4001 10.88 31.0001L18 24.0001C18.2094 23.8208 18.3794 23.6001 18.4995 23.352C18.6195 23.1039 18.687 22.8336 18.6976 22.5582C18.7083 22.2827 18.6619 22.0081 18.5613 21.7514C18.4608 21.4948 18.3082 21.2617 18.1133 21.0668C17.9184 20.8719 17.6853 20.7193 17.4287 20.6188C17.172 20.5182 16.8974 20.4718 16.6219 20.4825C16.3465 20.4931 16.0762 20.5606 15.8281 20.6806C15.58 20.8007 15.3593 20.9707 15.18 21.1801L8.00003 28.1601C7.22261 28.9375 6.60592 29.8604 6.18518 30.8762C5.76444 31.8919 5.54789 32.9806 5.54789 34.0801C5.54789 35.1795 5.76444 36.2682 6.18518 37.284C6.60592 38.2997 7.22261 39.2226 8.00003 40.0001C8.77746 40.7775 9.7004 41.3942 10.7162 41.8149C11.7319 42.2357 12.8206 42.4522 13.92 42.4522C15.0195 42.4522 16.1082 42.2357 17.1239 41.8149C18.1397 41.3942 19.0626 40.7775 19.84 40.0001L26.9 32.9401C27.103 32.7528 27.2651 32.5255 27.3759 32.2725C27.4867 32.0195 27.5439 31.7463 27.5439 31.4701C27.5439 31.1939 27.4867 30.9207 27.3759 30.6677C27.2651 30.4147 27.103 30.1874 26.9 30.0001ZM10.36 13.1801C10.7326 13.5496 11.2354 13.7579 11.76 13.7601C12.0232 13.7616 12.2842 13.7111 12.5278 13.6116C12.7715 13.5121 12.9932 13.3654 13.18 13.1801C13.5525 12.8053 13.7616 12.2984 13.7616 11.7701C13.7616 11.2417 13.5525 10.7348 13.18 10.3601L10.6 7.78007C10.2174 7.45242 9.72528 7.28121 9.22193 7.30065C8.71858 7.32009 8.2411 7.52876 7.88491 7.88495C7.52872 8.24114 7.32005 8.71861 7.30061 9.22197C7.28117 9.72532 7.45238 10.2175 7.78003 10.6001L10.36 13.1801ZM42.52 27.8401L39 26.9001C38.7392 26.8099 38.4625 26.7747 38.1874 26.7967C37.9123 26.8187 37.6447 26.8974 37.4014 27.0278C37.1582 27.1582 36.9446 27.3376 36.7741 27.5546C36.6036 27.7716 36.4798 28.0216 36.4106 28.2888C36.3414 28.5559 36.3282 28.8345 36.3719 29.1071C36.4156 29.3796 36.5152 29.6401 36.6645 29.8722C36.8138 30.1043 37.0096 30.3031 37.2394 30.4559C37.4692 30.6087 37.7282 30.7122 38 30.7601L41.52 31.7001H42.04C42.5705 31.769 43.1066 31.6244 43.5304 31.2981C43.9542 30.9718 44.2311 30.4905 44.3 29.9601C44.369 29.4296 44.2244 28.8935 43.8981 28.4697C43.5718 28.0459 43.0905 27.769 42.56 27.7001L42.52 27.8401ZM30.76 38.0001C30.6906 37.7465 30.5719 37.5091 30.4106 37.3015C30.2494 37.0939 30.0488 36.9201 29.8203 36.7901C29.5918 36.66 29.3399 36.5763 29.0791 36.5437C28.8182 36.5111 28.5535 36.5303 28.3 36.6001C27.7924 36.7405 27.3607 37.0755 27.0985 37.5323C26.8364 37.9892 26.7651 38.531 26.9 39.0401L27.84 42.5601C27.9572 42.9964 28.2187 43.3802 28.5819 43.6489C28.945 43.9177 29.3885 44.0555 29.84 44.0401C30.0128 44.0597 30.1873 44.0597 30.36 44.0401C30.6154 43.9728 30.8549 43.8556 31.0647 43.6953C31.2746 43.5349 31.4506 43.3346 31.5826 43.1059C31.7146 42.8772 31.8 42.6246 31.8339 42.3628C31.8678 42.1009 31.8495 41.8349 31.78 41.5801L30.76 38.0001ZM37.64 34.8601C37.2574 34.5324 36.7653 34.3612 36.2619 34.3806C35.7586 34.4001 35.2811 34.6088 34.9249 34.9649C34.5687 35.3211 34.3601 35.7986 34.3406 36.302C34.3212 36.8053 34.4924 37.2975 34.82 37.6801L37.4 40.2601C37.7748 40.6326 38.2817 40.8417 38.81 40.8417C39.3384 40.8417 39.8453 40.6326 40.22 40.2601C40.5925 39.8853 40.8016 39.3784 40.8016 38.8501C40.8016 38.3217 40.5925 37.8148 40.22 37.4401L37.64 34.8601ZM42.4 14.0001C42.4311 12.3369 41.963 10.7027 41.056 9.30827C40.1491 7.91386 38.8449 6.82332 37.312 6.17743C35.7791 5.53155 34.0878 5.35997 32.4565 5.68487C30.8251 6.00976 29.3285 6.8162 28.16 8.00007L21.1 15.1201C20.9109 15.3105 20.7612 15.5363 20.6593 15.7846C20.5575 16.0329 20.5056 16.2988 20.5065 16.5671C20.5074 16.8355 20.5612 17.1011 20.6648 17.3486C20.7683 17.5962 20.9196 17.821 21.11 18.0101C21.3005 18.1992 21.5262 18.3489 21.7745 18.4508C22.0228 18.5526 22.2887 18.6045 22.5571 18.6036C22.8255 18.6027 23.091 18.5489 23.3386 18.4454C23.5862 18.3418 23.8109 18.1905 24 18.0001L31 10.8801C31.8231 10.0905 32.9195 9.64956 34.06 9.64956C35.2006 9.64956 36.297 10.0905 37.12 10.8801C37.5252 11.2801 37.8469 11.7565 38.0664 12.2818C38.286 12.8071 38.399 13.3707 38.399 13.9401C38.399 14.5094 38.286 15.0731 38.0664 15.5983C37.8469 16.1236 37.5252 16.6001 37.12 17.0001L30 24.0001C29.6275 24.3748 29.4184 24.8817 29.4184 25.4101C29.4184 25.9384 29.6275 26.4453 30 26.8201C30.3748 27.1926 30.8817 27.4017 31.41 27.4017C31.9384 27.4017 32.4453 27.1926 32.82 26.8201L40 19.8401C41.5308 18.2808 42.392 16.1852 42.4 14.0001Z"/>
</svg>
