<svg xmlns="http://www.w3.org/2000/svg" enable-background="new 0 0 24 24" viewBox="0 0 24 24"><path d="M19.7,17.6c-0.1-0.2-0.2-0.4-0.2-0.6c0-0.4-0.2-0.7-0.5-1c-0.1-0.1-0.3-0.2-0.4-0.2c0.6-1.8-0.3-3.6-1.3-4.9c0,0,0,0,0,0c-0.8-1.2-2-2.1-1.9-3.7c0-1.9,0.2-5.4-3.3-5.1C8.5,2.3,9.5,6,9.4,7.3c0,1.1-0.5,2.2-1.3,3.1c-0.2,0.2-0.4,0.5-0.5,0.7c-1,1.2-1.5,2.8-1.5,4.3c-0.2,0.2-0.4,0.4-0.5,0.6c-0.1,0.1-0.2,0.2-0.2,0.3c-0.1,0.1-0.3,0.2-0.5,0.3c-0.4,0.1-0.7,0.3-0.9,0.7c-0.1,0.3-0.2,0.7-0.1,1.1c0.1,0.2,0.1,0.4,0,0.7c-0.2,0.4-0.2,0.9,0,1.4c0.3,0.4,0.8,0.5,1.5,0.6c0.5,0,1.1,0.2,1.6,0.4l0,0c0.5,0.3,1.1,0.5,1.7,0.5c0.3,0,0.7-0.1,1-0.2c0.3-0.2,0.5-0.4,0.6-0.7c0.4,0,1-0.2,1.7-0.2c0.6,0,1.2,0.2,2,0.1c0,0.1,0,0.2,0.1,0.3c0.2,0.5,0.7,0.9,1.3,1c0.1,0,0.1,0,0.2,0c0.8-0.1,1.6-0.5,2.1-1.1l0,0c0.4-0.4,0.9-0.7,1.4-0.9c0.6-0.3,1-0.5,1.1-1C20.3,18.6,20.1,18.2,19.7,17.6z M12.8,4.8c0.6,0.1,1.1,0.6,1,1.2c0,0.3-0.1,0.6-0.3,0.9c0,0,0,0-0.1,0c-0.2-0.1-0.3-0.1-0.4-0.2c0.1-0.1,0.1-0.3,0.2-0.5c0-0.4-0.2-0.7-0.4-0.7c-0.3,0-0.5,0.3-0.5,0.7c0,0,0,0.1,0,0.1c-0.1-0.1-0.3-0.1-0.4-0.2c0,0,0-0.1,0-0.1C11.8,5.5,12.2,4.9,12.8,4.8z M12.5,6.8c0.1,0.1,0.3,0.2,0.4,0.2c0.1,0,0.3,0.1,0.4,0.2c0.2,0.1,0.4,0.2,0.4,0.5c0,0.3-0.3,0.6-0.9,0.8c-0.2,0.1-0.3,0.1-0.4,0.2c-0.3,0.2-0.6,0.3-1,0.3c-0.3,0-0.6-0.2-0.8-0.4c-0.1-0.1-0.2-0.2-0.4-0.3C10.1,8.2,9.9,8,9.8,7.7c0-0.1,0.1-0.2,0.2-0.3c0.3-0.2,0.4-0.3,0.5-0.4l0.1-0.1c0.2-0.3,0.6-0.5,1-0.5C11.9,6.5,12.2,6.6,12.5,6.8z M10.4,5c0.4,0,0.7,0.4,0.8,1.1c0,0.1,0,0.1,0,0.2c-0.1,0-0.3,0.1-0.4,0.2c0,0,0-0.1,0-0.2c0-0.3-0.2-0.6-0.4-0.5c-0.2,0-0.3,0.3-0.3,0.6c0,0.2,0.1,0.3,0.2,0.4l0,0c0,0-0.1,0.1-0.2,0.1C9.9,6.7,9.7,6.4,9.7,6.1C9.7,5.5,10,5,10.4,5z M9.4,21.1c-0.7,0.3-1.6,0.2-2.2-0.2c-0.6-0.3-1.1-0.4-1.8-0.4c-0.5-0.1-1-0.1-1.1-0.3c-0.1-0.2-0.1-0.5,0.1-1c0.1-0.3,0.1-0.6,0-0.9c-0.1-0.3-0.1-0.5,0-0.8C4.5,17.2,4.7,17.1,5,17c0.3-0.1,0.5-0.2,0.7-0.4c0.1-0.1,0.2-0.2,0.3-0.4c0.3-0.4,0.5-0.6,0.8-0.6c0.6,0.1,1.1,1,1.5,1.9c0.2,0.3,0.4,0.7,0.7,1c0.4,0.5,0.9,1.2,0.9,1.6C9.9,20.6,9.7,20.9,9.4,21.1z M14.3,18.9c0,0.1,0,0.1-0.1,0.2c-1.2,0.9-2.8,1-4.1,0.3c-0.2-0.3-0.4-0.6-0.6-0.9c0.9-0.1,0.7-1.3-1.2-2.5c-2-1.3-0.6-3.7,0.1-4.8c0.1-0.1,0.1,0-0.3,0.8c-0.3,0.6-0.9,2.1-0.1,3.2c0-0.8,0.2-1.6,0.5-2.4c0.7-1.3,1.2-2.8,1.5-4.3c0.1,0.1,0.1,0.1,0.2,0.1c0.1,0.1,0.2,0.2,0.3,0.2c0.2,0.3,0.6,0.4,0.9,0.4c0,0,0.1,0,0.1,0c0.4,0,0.8-0.1,1.1-0.4c0.1-0.1,0.2-0.2,0.4-0.2c0.3-0.1,0.6-0.3,0.9-0.6c0.4,1.3,0.8,2.5,1.4,3.6c0.4,0.8,0.7,1.6,0.9,2.5c0.3,0,0.7,0.1,1,0.3c0.8,0.4,1.1,0.7,1,1.2c-0.1,0-0.1,0-0.2,0c0-0.3-0.2-0.6-0.9-0.9c-0.7-0.3-1.3-0.3-1.5,0.4c-0.1,0-0.2,0.1-0.3,0.1c-0.8,0.4-0.8,1.5-0.9,2.6C14.5,18.2,14.4,18.5,14.3,18.9z M18.9,19.5c-0.6,0.2-1.1,0.6-1.5,1.1c-0.4,0.6-1.1,1-1.9,0.9c-0.4,0-0.8-0.3-0.9-0.7c-0.1-0.6-0.1-1.2,0.2-1.8c0.1-0.4,0.2-0.7,0.3-1.1c0.1-1.2,0.1-1.9,0.6-2.2h0c0,0.5,0.3,0.8,0.7,1c0.5,0,1-0.1,1.4-0.5c0.1,0,0.1,0,0.2,0c0.3,0,0.5,0,0.7,0.2c0.2,0.2,0.3,0.5,0.3,0.7c0,0.3,0.2,0.6,0.3,0.9c0.5,0.5,0.5,0.8,0.5,0.9C19.7,19.1,19.3,19.3,18.9,19.5z M9.9,7.5c-0.1,0-0.1,0-0.1,0.1c0,0,0,0.1,0.1,0.1c0,0,0,0,0,0c0.1,0,0.1,0.1,0.1,0.1c0.3,0.4,0.8,0.6,1.4,0.7c0.5-0.1,1-0.2,1.5-0.6c0.2-0.1,0.4-0.2,0.6-0.3c0.1,0,0.1-0.1,0.1-0.1c0-0.1,0-0.1-0.1-0.1l0,0c-0.2,0.1-0.5,0.2-0.7,0.3c-0.4,0.3-0.9,0.5-1.4,0.5c-0.5,0-0.9-0.3-1.2-0.6C10.1,7.6,10,7.5,9.9,7.5z"/></svg>