<svg width="48" height="48" viewBox="0 0 48 48" fill="none" xmlns="http://www.w3.org/2000/svg">
<path d="M14.6667 22.5H19.3333C19.9522 22.5 20.5457 22.2629 20.9832 21.841C21.4208 21.419 21.6667 20.8467 21.6667 20.25C21.6667 19.6533 21.4208 19.081 20.9832 18.659C20.5457 18.2371 19.9522 18 19.3333 18H14.6667C14.0478 18 13.4543 18.2371 13.0168 18.659C12.5792 19.081 12.3333 19.6533 12.3333 20.25C12.3333 20.8467 12.5792 21.419 13.0168 21.841C13.4543 22.2629 14.0478 22.5 14.6667 22.5ZM35.6667 9H24V4.5H26.3333C26.9522 4.5 27.5457 4.26295 27.9832 3.84099C28.4208 3.41903 28.6667 2.84674 28.6667 2.25C28.6667 1.65326 28.4208 1.08097 27.9832 0.65901C27.5457 0.237053 26.9522 0 26.3333 0H21.6667C21.0478 0 20.4543 0.237053 20.0168 0.65901C19.5792 1.08097 19.3333 1.65326 19.3333 2.25V9H12.3333C9.85798 9 7.48401 9.94821 5.73367 11.636C3.98333 13.3239 3 15.6131 3 18V31.5C3 32.0967 3.24583 32.669 3.68342 33.091C4.121 33.5129 4.71449 33.75 5.33333 33.75H19.3333V42.75C19.3333 43.3467 19.5792 43.919 20.0168 44.341C20.4543 44.7629 21.0478 45 21.6667 45C22.2855 45 22.879 44.7629 23.3166 44.341C23.7542 43.919 24 43.3467 24 42.75V33.75H42.6667C43.2855 33.75 43.879 33.5129 44.3166 33.091C44.7542 32.669 45 32.0967 45 31.5V18C45 15.6131 44.0167 13.3239 42.2663 11.636C40.516 9.94821 38.142 9 35.6667 9ZM26.3333 18V29.25H7.66667V18C7.66667 16.8065 8.15833 15.6619 9.0335 14.818C9.90867 13.9741 11.0957 13.5 12.3333 13.5H27.64C26.7917 14.859 26.3402 16.4138 26.3333 18ZM40.3333 29.25H31V18C31 16.8065 31.4917 15.6619 32.3668 14.818C33.242 13.9741 34.429 13.5 35.6667 13.5C36.9043 13.5 38.0913 13.9741 38.9665 14.818C39.8417 15.6619 40.3333 16.8065 40.3333 18V29.25Z" fill="#CCCCDC" fill-opacity="0.65"/>
</svg>
