<?xml version="1.0" encoding="utf-8"?><!-- Uploaded to: SVG Repo, www.svgrepo.com, Generator: SVG Repo Mixer Tools -->
<svg fill="#000000" width="800px" height="800px" viewBox="0 0 501 501" xmlns="http://www.w3.org/2000/svg" version="1"><path d="M236 .7C137.7 7.5 54 68.2 18.2 158.5c-32 81-19.6 172.8 33 242.5 39.8 53 97.2 87 164.3 97 16.5 2.7 48 3.2 63.5 1.2 48.7-6.3 92.2-24.6 129-54.2 13-10.5 33-31.2 42.2-43.7 26.4-35.5 42.8-75.8 49-120.3 1.6-12.3 1.6-48.7 0-61-4-28.3-12-54.8-24.2-79.5-12.8-26-26.5-45.3-46.8-65.8C417.8 64 400.2 49 398.4 49c-.6 0-.4 10.5.3 26l1.3 26 7 8.7c19 23.7 32.8 53.5 38.2 83 2.5 14 3 43 1 55.8-4.5 27.8-15.2 54-31 76.5-8.6 12.2-28 31.6-40.2 40.2-24 17-50 27.6-80 33-10 1.8-49 1.8-59 0-43-7.7-78.8-26-107.2-54.8-29.3-29.7-46.5-64-52.4-104.4-2-14-1.5-42 1-55C90 121.4 132 72 192 49.7c8-3 18.4-5.8 29.5-8.2 1.7-.4 34.4-38 35.3-40.6.3-1-10.2-1-20.8-.4z"/><path d="M322.2 24.6c-1.3.8-8.4 9.3-16 18.7-7.4 9.5-22.4 28-33.2 41.2-51 62.2-66 81.6-70.6 91-6 12-8.4 21-9 33-1.2 19.8 5 36 19 50C222 268 230 273 243 277.2c9 3 10.4 3.2 24 3.2 13.8 0 15 0 22.6-3 23.2-9 39-28.4 45-55.7 2-8.2 2-28.7.4-79.7l-2-72c-1-36.8-1.4-41.8-3-44-2-3-4.8-3.6-7.8-1.4z"/></svg>