<svg xmlns="http://www.w3.org/2000/svg" viewBox="0 0 24 24"><path d="M10.5,3.73a2,2,0,0,1,2.95-.14A2,2,0,0,1,14,5V8.41a1,1,0,0,0,2,0V5A4,4,0,0,0,9,2.47,1,1,0,1,0,10.5,3.73Zm8.22,9.54.2,0a1,1,0,0,0,1-.81A7.91,7.91,0,0,0,20,11a1,1,0,0,0-2,0,5.54,5.54,0,0,1-.11,1.1A1,1,0,0,0,18.72,13.27Zm3,6.06-18-18a1,1,0,0,0-1.42,0,1,1,0,0,0,0,1.41L8,8.48V11a4,4,0,0,0,6,3.46l1.46,1.46A6,6,0,0,1,6,11a1,1,0,0,0-2,0,8,8,0,0,0,7,7.93V21H9a1,1,0,0,0,0,2h6a1,1,0,0,0,0-2H13V18.93a7.87,7.87,0,0,0,3.85-1.59l3.4,3.4a1,1,0,0,0,1.42-1.41ZM12,13a2,2,0,0,1-2-2v-.52l2.45,2.46A1.74,1.74,0,0,1,12,13Z"/></svg>