<svg xmlns="http://www.w3.org/2000/svg" data-name="Layer 1" viewBox="0 0 24 24"><path d="M6,11a1,1,0,1,0,1,1A1,1,0,0,0,6,11Zm5.86-1.55h0L4.71,2.29A1,1,0,0,0,3.29,3.71L4.59,5H4A3,3,0,0,0,1,8v8a3,3,0,0,0,3,3H18.59l2.7,2.71a1,1,0,0,0,1.42,0,1,1,0,0,0,0-1.42Zm-.74,2.09,1.34,1.34A1,1,0,0,1,12,13a1,1,0,0,1-1-1A1,1,0,0,1,11.12,11.54ZM4,17a1,1,0,0,1-1-1V8A1,1,0,0,1,4,7H6.59l3.1,3.1A3,3,0,0,0,9,12a3,3,0,0,0,3,3,3,3,0,0,0,1.9-.69L16.59,17ZM20,5H12.66a1,1,0,0,0,0,2H20a1,1,0,0,1,1,1v7.34a1,1,0,1,0,2,0V8A3,3,0,0,0,20,5Zm-1,7a1,1,0,1,0-1,1A1,1,0,0,0,19,12Z"/></svg>