<svg viewBox="0 0 38 32" xmlns="http://www.w3.org/2000/svg">
    <path
        d="M37.8309 22.3714C36.3538 21.2721 34.8806 20.169 33.4129 19.0565C33.2544 18.9369 33.1993 18.9908 33.1079 19.1179C32.8529 19.4725 32.6036 19.8339 32.3186 20.1634C32.1125 20.4014 32.1683 20.516 32.405 20.6745C32.8016 20.9401 33.1736 21.2408 33.6171 21.5721C32.519 21.5721 31.5099 21.5659 30.5014 21.5778C30.3085 21.5803 30.2897 21.4688 30.2446 21.3416C29.6677 19.7174 28.3191 18.7621 26.589 18.7602C23.5265 18.7577 20.4647 18.7571 17.4023 18.7602C15.6753 18.7621 14.3329 19.7155 13.756 21.3498C13.694 21.5251 13.6113 21.5803 13.4272 21.5759C12.8546 21.5627 12.2815 21.5753 11.709 21.5702C9.71828 21.5533 8.20366 20.2316 7.91677 18.2648C7.63238 16.3154 9.12383 14.3655 11.0694 14.1255C11.8493 14.0297 12.6304 14.1068 13.409 14.0648C13.6389 14.0523 13.7009 14.1506 13.7654 14.3373C14.2997 15.8795 15.6847 16.8773 17.3215 16.8817C20.4459 16.8898 23.571 16.8911 26.6955 16.8811C28.3141 16.876 29.704 15.8726 30.2239 14.3467C30.2972 14.1324 30.3824 14.0667 30.6073 14.0648C31.5118 14.0579 32.4226 14.1544 33.319 13.9884C36.3056 13.4359 38.3733 10.6503 37.9424 7.66115C37.5571 4.99083 35.1919 2.86422 32.4965 2.82476C31.8507 2.81536 31.2049 2.81599 30.5591 2.82538C30.3912 2.82789 30.3004 2.79281 30.2471 2.61867C29.7573 1.01385 28.2026 -0.0146896 26.5232 0.00222308C23.524 0.0329164 20.5236 0.038554 17.5244 0.000343893C15.8162 -0.0215799 14.2408 1.00633 13.7404 2.63245C13.7191 2.70073 13.7234 2.82601 13.6126 2.81849C13.3125 2.79782 13.0137 2.8899 12.7225 2.66252C11.714 1.87577 10.676 1.1266 9.66128 0.347993C9.46897 0.20079 9.38692 0.229604 9.26101 0.411885C9.00669 0.779579 8.73797 1.13788 8.45672 1.4849C8.32017 1.6534 8.33833 1.73984 8.51184 1.86262C8.9284 2.15639 9.33054 2.47147 9.79846 2.82288H6.00063V4.69768C6.1234 4.80542 6.27436 4.78287 6.41781 4.78287C7.34487 4.78475 8.27193 4.78287 9.199 4.786C9.28356 4.786 9.37877 4.74904 9.46647 4.82734C9.13511 5.09168 8.79811 5.33472 8.46486 5.58403C8.2663 5.73248 8.23999 5.88783 8.38844 6.08702C8.63712 6.42089 8.8858 6.75538 9.13824 7.08675C9.39255 7.42062 9.45519 7.43064 9.79345 7.17945C10.4706 6.67646 11.1433 6.1672 11.8186 5.66107C12.1518 5.41114 12.4775 5.15056 12.8214 4.91566C13.2242 4.64068 13.5769 4.74967 13.7554 5.18752C14.3555 6.65641 15.7542 7.59601 17.3471 7.59663C20.4509 7.59726 23.5547 7.59663 26.6585 7.59663C26.8458 7.59663 27.0325 7.59413 27.2185 7.56093C28.7043 7.29596 29.7303 6.46536 30.2891 5.06349C30.358 4.88998 30.4507 4.77974 30.6505 4.78537C31.3991 4.80667 32.1501 4.72962 32.8961 4.84676C34.7271 5.13553 36.0212 6.62259 36.0262 8.50303C36.0306 10.2889 34.6181 11.8173 32.8485 12.0566C32.1626 12.1493 31.4755 12.081 30.7902 12.1148C30.5096 12.1286 30.363 12.0328 30.2578 11.7603C29.6715 10.2488 28.2627 9.29917 26.6435 9.29855C23.581 9.29855 20.5192 9.31922 17.4568 9.28978C15.8263 9.27412 14.2816 10.2594 13.7197 11.8104C13.6389 12.0334 13.5061 12.1154 13.2768 12.1129C12.6623 12.1054 12.0466 12.0879 11.4333 12.1148C9.76714 12.1887 8.36965 12.8502 7.28286 14.1187C6.54121 14.9837 6.07705 15.9803 6 17.1347V18.5097C6.05888 18.5341 6.05575 18.5886 6.06327 18.6393C6.43409 21.3272 8.78245 23.4093 11.4872 23.4444C12.1431 23.4532 12.7995 23.4526 13.4554 23.4432C13.6132 23.4407 13.6978 23.4789 13.7454 23.6367C14.2383 25.266 15.8162 26.2926 17.5238 26.2707C20.481 26.2319 23.4401 26.2231 26.3973 26.2738C28.1437 26.3039 29.766 25.2866 30.2571 23.6204C30.3079 23.4494 30.415 23.4444 30.5597 23.445C31.4554 23.4501 32.3512 23.4476 33.2469 23.4476C33.3453 23.4476 33.443 23.4476 33.6184 23.4476C33.1292 23.8134 32.7095 24.1316 32.2842 24.4416C32.1676 24.5268 32.1106 24.5794 32.2265 24.7254C32.5372 25.1156 32.8348 25.5178 33.1216 25.9256C33.22 26.0659 33.2801 26.0602 33.4073 25.9638C34.8768 24.8551 36.3495 23.7501 37.8259 22.6508C37.9743 22.5399 37.9837 22.4873 37.8284 22.372L37.8309 22.3714ZM26.5338 5.63414C23.514 5.63852 20.4941 5.63602 17.4743 5.63351C17.3196 5.63351 17.163 5.61221 17.0095 5.58779C16.1144 5.44559 15.4454 4.66636 15.4404 3.76498C15.4354 2.87111 16.1119 2.07935 17.0001 1.93152C17.1962 1.89895 17.3916 1.88454 17.5902 1.88517C19.0585 1.88704 20.5267 1.88579 21.995 1.88579C23.5152 1.88579 25.0355 1.88203 26.5558 1.88704C27.5636 1.8908 28.3429 2.4959 28.5064 3.38538C28.735 4.6269 27.8593 5.63226 26.5332 5.63414H26.5338ZM17.4693 11.2617C20.4891 11.2579 23.509 11.2598 26.5288 11.2623C26.6836 11.2623 26.8402 11.2836 26.9936 11.308C27.8856 11.4502 28.5577 12.237 28.5584 13.1346C28.559 14.031 27.8862 14.8215 26.9949 14.9618C26.8107 14.9906 26.6228 15.0081 26.4368 15.0081C24.9578 15.0119 23.4795 15.01 22.0006 15.01C20.4804 15.01 18.9601 15.0144 17.4398 15.0088C16.4339 15.005 15.6546 14.3968 15.4924 13.5067C15.2663 12.2639 16.142 11.2629 17.4699 11.2617H17.4693ZM26.5295 24.3834C23.8222 24.3871 21.1149 24.3846 18.407 24.384C18.0218 24.384 17.634 24.4059 17.2519 24.3734C16.1839 24.2813 15.4053 23.4544 15.441 22.4785C15.4799 21.4237 16.2979 20.6451 17.4073 20.6375C18.9482 20.6269 20.4898 20.635 22.0307 20.635C23.5403 20.635 25.0505 20.6307 26.5602 20.6363C27.5661 20.6401 28.3454 21.2489 28.507 22.139C28.7325 23.3818 27.8568 24.3815 26.5288 24.3834H26.5295Z"
    />
</svg>