<svg xmlns="http://www.w3.org/2000/svg" data-name="Layer 1" viewBox="0 0 24 24"><path d="M20.43705,7.10449a3.82273,3.82273,0,0,0-.57281-.5238,4.72529,4.72529,0,0,0-1.15766-3.73987C17.6226,1.61914,15.77494,1,13.2144,1H7.00053A1.89234,1.89234,0,0,0,5.13725,2.5918L2.5474,18.99805A1.53317,1.53317,0,0,0,4.063,20.7832H6.72709l-.082.52051A1.46684,1.46684,0,0,0,8.0933,23h3.23438a1.76121,1.76121,0,0,0,1.751-1.46973l.64063-4.03125.01074-.05468h.29883c4.03223,0,6.55078-1.99317,7.28516-5.7627A5.149,5.149,0,0,0,20.43705,7.10449ZM7.84233,13.7041l-.71448,4.53528-.08631.54382H4.606L7.09721,3H13.2144c1.93554,0,3.31738.4043,3.99218,1.16406a2.96675,2.96675,0,0,1,.60791,2.73334l-.01861.11224c-.01215.07648-.0232.15119-.0434.24622a5.84606,5.84606,0,0,1-2.00512,3.67053,6.67728,6.67728,0,0,1-4.21753,1.183H9.70658A1.87969,1.87969,0,0,0,7.84233,13.7041Zm11.50878-2.40527c-.55078,2.82812-2.24218,4.14551-5.32226,4.14551h-.4834a1.76109,1.76109,0,0,0-1.751,1.47265l-.64941,4.07422L8.71733,21l.47815-3.03387.61114-3.85285h1.7193c.1568,0,.29541-.02356.44812-.02893.35883-.01239.71661-.02618,1.05267-.06787.20526-.02557.39362-.07221.59034-.1087.27252-.05036.54522-.10016.80108-.17127.19037-.053.368-.12121.54907-.18561.23926-.0849.4748-.174.69757-.27868.168-.0791.32807-.16706.48658-.25727a6.77125,6.77125,0,0,0,.61236-.39172c.14228-.1026.28192-.20789.415-.321a6.56392,6.56392,0,0,0,.53693-.51892c.113-.12055.2287-.23755.33331-.36725a7.09,7.09,0,0,0,.48-.69263c.07648-.12219.16126-.23523.23163-.36383a8.33175,8.33175,0,0,0,.52075-1.15326c.00867-.02386.02106-.044.02954-.068.004-.01123.00989-.02057.01386-.03186A4.29855,4.29855,0,0,1,19.35111,11.29883Z"/></svg>