<svg xmlns="http://www.w3.org/2000/svg" viewBox="0 0 24 24">
  <path
    fill-rule="evenodd"
    clip-rule="evenodd"
    d="M6.855 10.53L0.45 16.935C0.165 17.205 0 17.58 0 18C0 18.825 0.675 19.5 1.5 19.5C1.92 19.5 2.295 19.335 2.565 19.065L8.97 12.66C8.1 12.135 7.365 11.4 6.855 10.53ZM22.5 12C21.675 12 21 12.675 21 13.5V14.385L17.145 10.53C16.635 11.4 15.9 12.135 15.03 12.645L18.885 16.5H18C17.175 16.5 16.5 17.175 16.5 18C16.5 18.825 17.175 19.5 18 19.5H22.5C23.325 19.5 24 18.825 24 18V13.5C24 12.675 23.325 12 22.5 12ZM16.5 7.5C16.5 5.01 14.49 3 12 3C9.51 3 7.5 5.01 7.5 7.5C7.5 9.99 9.51 12 12 12C14.49 12 16.5 9.99 16.5 7.5ZM12 9C11.175 9 10.5 8.325 10.5 7.5C10.5 6.675 11.175 6 12 6C12.825 6 13.5 6.675 13.5 7.5C13.5 8.325 12.825 9 12 9Z"
  />
</svg>
