<svg viewBox="0 0 10 10" fill="none" xmlns="http://www.w3.org/2000/svg">
<path fill-rule="evenodd" clip-rule="evenodd" d="M2.85625 4.3875L0.1875 7.05625C0.06875 7.16875 0 7.325 0 7.5C0 7.84375 0.28125 8.125 0.625 8.125C0.8 8.125 0.95625 8.05625 1.06875 7.94375L3.7375 5.275C3.375 5.05625 3.06875 4.75 2.85625 4.3875ZM9.375 5C9.03125 5 8.75 5.28125 8.75 5.625V5.99375L7.14375 4.3875C6.93125 4.75 6.625 5.05625 6.2625 5.26875L7.86875 6.875H7.5C7.15625 6.875 6.875 7.15625 6.875 7.5C6.875 7.84375 7.15625 8.125 7.5 8.125H9.375C9.71875 8.125 10 7.84375 10 7.5V5.625C10 5.28125 9.71875 5 9.375 5ZM6.875 3.125C6.875 2.0875 6.0375 1.25 5 1.25C3.9625 1.25 3.125 2.0875 3.125 3.125C3.125 4.1625 3.9625 5 5 5C6.0375 5 6.875 4.1625 6.875 3.125ZM5 3.75C4.65625 3.75 4.375 3.46875 4.375 3.125C4.375 2.78125 4.65625 2.5 5 2.5C5.34375 2.5 5.625 2.78125 5.625 3.125C5.625 3.46875 5.34375 3.75 5 3.75Z" fill="currentColor"/>
</svg>
