<svg xmlns="http://www.w3.org/2000/svg" viewBox="0 0 24 24"><path d="M22,5.08A3.08,3.08,0,0,0,16.74,2.9L13.93,5.71,7.44,3.55a1,1,0,0,0-1,.24L4.06,6.15a1,1,0,0,0,.29,1.61l5.18,2.35-2.6,2.6-1.71-.86A1,1,0,0,0,4.06,12L2.29,13.81a1,1,0,0,0,0,1.41l6.49,6.49a1,1,0,0,0,1.41,0L12,19.94a1,1,0,0,0,.19-1.16l-.86-1.71,2.6-2.6,2.35,5.18a1,1,0,0,0,1.61.29l2.36-2.36a1,1,0,0,0,.24-1l-2.16-6.49L21.1,7.26A3.05,3.05,0,0,0,22,5.08Zm-2.32.77L16.44,9.09a1,1,0,0,0-.24,1l2.16,6.48-.9.9-2.35-5.17a1,1,0,0,0-.73-.57,1,1,0,0,0-.89.28L9.37,16.17a1,1,0,0,0-.19,1.15L10,19l-.56.56L4.41,14.52,5,14l1.71.86a1,1,0,0,0,1.15-.19L12,10.51a1,1,0,0,0-.29-1.62L6.5,6.54l.9-.9L13.88,7.8a1,1,0,0,0,1-.24l3.24-3.24a1.07,1.07,0,0,1,1.53,0,1,1,0,0,1,.32.76A1.06,1.06,0,0,1,19.68,5.85Z"/></svg>