<svg xmlns="http://www.w3.org/2000/svg" data-name="Layer 1" viewBox="0 0 24 24"><path d="M9,12H7a1,1,0,0,0,0,2H9a1,1,0,0,0,0-2ZM8,10h4a1,1,0,0,0,0-2H8a1,1,0,0,0,0,2Zm1,6H7a1,1,0,0,0,0,2H9a1,1,0,0,0,0-2Zm12-4H18V3a1,1,0,0,0-.5-.87,1,1,0,0,0-1,0l-3,1.72-3-1.72a1,1,0,0,0-1,0l-3,1.72-3-1.72a1,1,0,0,0-1,0A1,1,0,0,0,2,3V19a3,3,0,0,0,3,3H19a3,3,0,0,0,3-3V13A1,1,0,0,0,21,12ZM5,20a1,1,0,0,1-1-1V4.73L6,5.87a1.08,1.08,0,0,0,1,0l3-1.72,3,1.72a1.08,1.08,0,0,0,1,0l2-1.14V19a3,3,0,0,0,.18,1Zm15-1a1,1,0,0,1-2,0V14h2Zm-6.44-2.83a.76.76,0,0,0-.18-.09.6.6,0,0,0-.19-.06,1,1,0,0,0-.9.27A1.05,1.05,0,0,0,12,17a1,1,0,0,0,.07.38,1.19,1.19,0,0,0,.22.33,1.15,1.15,0,0,0,.33.21.94.94,0,0,0,.76,0,1.15,1.15,0,0,0,.33-.21A1,1,0,0,0,14,17a1.05,1.05,0,0,0-.29-.71A1.58,1.58,0,0,0,13.56,16.17Zm.14-3.88a1,1,0,0,0-1.62.33A1,1,0,0,0,13,14a1,1,0,0,0,1-1,1,1,0,0,0-.08-.38A.91.91,0,0,0,13.7,12.29Z"/></svg>