<svg xmlns="http://www.w3.org/2000/svg" viewBox="0 0 24 24"><path d="M16.84,11.63A3,3,0,0,0,19,10.75l2.83-2.83a1,1,0,0,0,0-1.41,1,1,0,0,0-1.42,0L17.55,9.33a1,1,0,0,1-1.42,0h0L19.67,5.8a1,1,0,1,0-1.42-1.42L14.72,7.92a1,1,0,0,1,0-1.41l2.83-2.83a1,1,0,1,0-1.42-1.42L13.3,5.09a3,3,0,0,0,0,4.24h0L12,10.62,3.73,2.32l-.1-.06a.71.71,0,0,0-.17-.11l-.18-.07L3.16,2H3.09l-.2,0a.57.57,0,0,0-.18,0,.7.7,0,0,0-.17.09l-.16.1-.07,0-.06.1a1,1,0,0,0-.11.17,1.07,1.07,0,0,0-.07.19s0,.07,0,.11a11,11,0,0,0,3.11,9.34l2.64,2.63-5.41,5.4a1,1,0,0,0,0,1.42,1,1,0,0,0,.71.29,1,1,0,0,0,.71-.29L9.9,15.57h0l2.83-2.83h0l2-2A3,3,0,0,0,16.84,11.63ZM9.19,13.45,6.56,10.81A9.06,9.06,0,0,1,4,5.4L10.61,12Zm6.24.57A1,1,0,0,0,14,15.44l6.3,6.3A1,1,0,0,0,21,22a1,1,0,0,0,.71-.29,1,1,0,0,0,0-1.42Z"/></svg>