<svg xmlns="http://www.w3.org/2000/svg" viewBox="0 0 24 24"><path d="M22.61,7.05,17,1.39a1,1,0,0,0-.71-.29,1,1,0,0,0-.7.29L1.39,15.54a1,1,0,0,0,0,1.41l5.66,5.66a1,1,0,0,0,.71.29,1,1,0,0,0,.7-.29l2.83-2.83h0l8.49-8.49h0l2.83-2.83A1,1,0,0,0,22.61,7.05ZM19.07,9.17l-.71-.71a1,1,0,0,0-1.41,0,1,1,0,0,0,0,1.42l.71.71L16.24,12,14.12,9.88a1,1,0,0,0-1.41,1.41l2.12,2.12-1.42,1.42-.7-.71a1,1,0,1,0-1.42,1.42l.71.7-1.41,1.42L8.46,15.54a1,1,0,0,0-1.41,0,1,1,0,0,0,0,1.41l2.12,2.12L7.76,20.49,3.51,16.24,16.24,3.51l4.25,4.25Z"/></svg>