<svg xmlns="http://www.w3.org/2000/svg" data-name="Layer 1" viewBox="0 0 24 24"><path d="M8.36,15.33a1,1,0,0,0-.13,1.4,1,1,0,0,0,1.41.13,3.76,3.76,0,0,1,4.72,0,1,1,0,0,0,.64.23,1,1,0,0,0,.64-1.76A5.81,5.81,0,0,0,8.36,15.33Zm.85-4.79a1,1,0,0,0,1.41,0,1,1,0,0,0,0-1.41,3.08,3.08,0,0,0-4.24,0,1,1,0,1,0,1.41,1.41A1,1,0,0,1,9.21,10.54ZM12,2A10,10,0,1,0,22,12,10,10,0,0,0,12,2Zm0,18a8,8,0,1,1,8-8A8,8,0,0,1,12,20ZM17.62,9.13a3.08,3.08,0,0,0-4.24,0,1,1,0,0,0,1.41,1.41,1,1,0,0,1,1.42,0,1,1,0,0,0,1.41,0A1,1,0,0,0,17.62,9.13Z"/></svg>