<svg xmlns="http://www.w3.org/2000/svg"
 width="24" height="24" viewBox="0 0 792.000000 270.000000"
 preserveAspectRatio="xMidYMid meet">
<g transform="translate(0.000000,270.000000) scale(0.100000,-0.100000)"
fill="currentColor" stroke="none">
<path d="M885 2576 c-312 -51 -545 -252 -609 -526 -20 -83 -21 -301 -2 -391
28 -130 110 -255 220 -333 118 -85 226 -127 615 -241 208 -60 318 -121 347
-192 18 -42 18 -135 0 -176 -54 -125 -254 -174 -501 -120 -130 28 -259 93
-410 208 l-83 62 -142 -179 c-78 -99 -144 -186 -146 -193 -7 -17 137 -133 244
-196 245 -145 542 -213 822 -188 478 41 749 335 727 789 -11 222 -86 367 -251
484 -119 85 -225 128 -541 222 -247 73 -329 108 -374 159 -83 95 -56 250 54
312 94 53 254 54 407 3 103 -35 172 -68 291 -144 l87 -55 24 37 c13 20 71 110
130 200 l107 164 -27 21 c-112 90 -291 187 -416 226 -171 52 -420 73 -573 47z"/>
<path d="M3205 2579 c-422 -57 -762 -325 -928 -729 -130 -316 -131 -708 -1
-1029 156 -388 489 -655 896 -717 144 -22 358 -14 488 19 104 27 179 58 252
103 l47 29 -131 202 -131 202 -37 -19 c-100 -51 -295 -73 -418 -46 -126 26
-215 76 -314 176 -71 72 -94 103 -132 181 -65 135 -89 244 -89 399 1 152 22
243 88 376 80 163 220 289 378 339 145 46 282 43 432 -11 38 -14 77 -28 85
-30 11 -3 53 54 143 192 l128 197 -23 25 c-36 39 -180 102 -282 123 -107 23
-348 32 -451 18z"/>
<path d="M4290 1340 l0 -1250 137 0 c221 0 299 35 362 162 27 52 31 72 31 138
0 42 -5 103 -12 135 -11 57 -11 59 15 81 25 21 47 61 47 85 0 5 -12 21 -26 36
-14 14 -24 26 -22 27 105 63 112 79 73 176 -44 110 -26 151 93 215 94 50 127
137 80 214 -13 20 -74 106 -137 191 -166 225 -175 253 -119 356 51 93 47 148
-26 359 -57 167 -84 227 -133 293 l-24 32 -170 0 -169 0 0 -1250z"/>
<path d="M5380 1340 l0 -1250 250 0 250 0 2 819 3 820 314 -505 c173 -277 320
-503 325 -501 6 2 153 231 326 509 l315 505 3 -823 2 -824 250 0 250 0 0 1250
0 1250 -272 0 -273 0 -299 -510 c-252 -429 -301 -507 -311 -492 -6 9 -141 239
-300 510 l-289 492 -273 0 -273 0 0 -1250z"/>
</g>
</svg>
