<svg xmlns="http://www.w3.org/2000/svg" data-name="Layer 1" viewBox="0 0 24 24"><path d="M8,6h3a1,1,0,0,0,0-2H8A1,1,0,0,0,8,6Zm8,0a1,1,0,1,0-1-1A1,1,0,0,0,16,6Zm0,4a1,1,0,1,0,1,1A1,1,0,0,0,16,10Zm5,9H14.82A3,3,0,0,0,13,17.18V15h4a3,3,0,0,0,3-3V10a3,3,0,0,0-.78-2A3,3,0,0,0,20,6V4a3,3,0,0,0-3-3H7A3,3,0,0,0,4,4V6a3,3,0,0,0,.78,2A3,3,0,0,0,4,10v2a3,3,0,0,0,3,3h4v2.18A3,3,0,0,0,9.18,19H3a1,1,0,0,0,0,2H9.18a3,3,0,0,0,5.64,0H21a1,1,0,0,0,0-2ZM6,4A1,1,0,0,1,7,3H17a1,1,0,0,1,1,1V6a1,1,0,0,1-1,1H7A1,1,0,0,1,6,6Zm1,9a1,1,0,0,1-1-1V10A1,1,0,0,1,7,9H17a1,1,0,0,1,1,1v2a1,1,0,0,1-1,1Zm5,8a1,1,0,1,1,1-1A1,1,0,0,1,12,21ZM11,10H8a1,1,0,0,0,0,2h3a1,1,0,0,0,0-2Z"/></svg>