<svg xmlns="http://www.w3.org/2000/svg" data-name="Layer 1" viewBox="0 0 24 24"><path d="M21.71,7.38,16.62,2.29a1,1,0,0,0-1.41,0,1,1,0,0,0,0,1.42L17,5.54,11.58,11l-1-1h0a3,3,0,0,0-4.25,0L2.88,13.42A3,3,0,0,0,2,15.55V19a3,3,0,0,0,3,3H8.45a3,3,0,0,0,2.13-.88L14,17.69a3,3,0,0,0,0-4.25l-1-1L18.46,7l1.83,1.83a1,1,0,0,0,1.42,0A1,1,0,0,0,21.71,7.38ZM12.6,16.27,9.16,19.71a1,1,0,0,1-.71.29H5a1,1,0,0,1-1-1V15.55a1,1,0,0,1,.29-.71L7.73,11.4a1,1,0,0,1,1.41,0l1,1-.89.9a1,1,0,0,0,0,1.41A1,1,0,0,0,10,15a1,1,0,0,0,.7-.29l.9-.89,1,1A1,1,0,0,1,12.6,16.27Z"/></svg>