<svg viewBox="0 0 317 204" fill="none" xmlns="http://www.w3.org/2000/svg">
  <path
    d="M179.618 173.289C164.203 183.735 145.542 188.119 126.774 187.578C120.337 187.361 118.714 196.563 124.826 198.565C128.558 199.81 132.399 200.839 136.293 201.651C188.164 214.045 240.468 175.67 260.589 127.39C264.646 117.702 273.408 113.155 283.361 111.748C288.337 111.045 293.421 110.936 298.397 110.882C303.374 110.828 308.945 111.586 313.001 108.501C314.895 107.039 316.301 104.982 316.788 102.601C317.761 97.7836 315.327 92.9116 310.73 91.2346C274.436 78.0817 259.886 67.6355 264.484 22.2784C264.97 17.2988 261.725 9.45058 255.397 9.01758C250.529 8.69288 246.202 12.9147 245.012 17.6236C233.653 62.5477 219.59 63.9008 176.103 63.9008C171.126 63.9008 166.475 67.1484 165.501 72.0197C164.528 76.8368 167.016 81.4916 171.505 83.386C179.889 86.9042 186.758 90.0436 192.383 93.1826C208.177 102.06 215.425 121.491 208.664 138.378C203.093 152.396 191.951 165.332 179.618 173.181V173.289Z"
    fill="currentColor"
  />
  <path
    d="M137.382 30.7183C152.797 20.269 171.458 15.8836 190.226 16.425C196.663 16.6416 198.286 7.43756 192.174 5.43426C188.442 4.18906 184.601 3.16036 180.707 2.34826C128.836 -10.0501 76.5318 28.3902 56.4107 76.6299C51.8132 87.6206 41.4822 91.5726 30.394 92.5476C21.6857 93.3056 2.59231 89.4076 0.212405 101.373C-0.761194 106.191 1.6728 111.064 6.27035 112.742C42.564 125.899 57.1139 136.348 52.5163 181.718C52.0295 186.699 55.2748 194.55 61.6032 194.983C66.4712 195.308 70.7983 191.085 71.9883 186.374C83.3469 141.437 97.41 140.084 140.897 140.084C145.874 140.084 150.525 136.835 151.499 131.963C152.472 127.09 149.984 122.488 145.495 120.593C137.111 117.074 130.242 113.934 124.617 110.793C108.823 101.914 101.575 82.4772 108.336 65.5851C113.907 51.5626 125.049 38.6229 137.382 30.7724V30.7183Z"
    fill="currentColor"
  />
</svg>
