<svg xmlns="http://www.w3.org/2000/svg" data-name="Layer 1" viewBox="0 0 24 24"><path d="M21.43451,14.15552a9.586,9.586,0,0,0,.21155-2.02631,9.47653,9.47653,0,0,0-9.54029-9.42254,9.11414,9.11414,0,0,0-1.62494.14178A5.53558,5.53558,0,0,0,2.00061,7.466a5.42884,5.42884,0,0,0,.75354,2.7558,10.0197,10.0197,0,0,0-.18866,1.88452,9.33889,9.33889,0,0,0,9.54028,9.25788,8.56663,8.56663,0,0,0,1.74268-.16584A5.57942,5.57942,0,0,0,16.46368,22a5.433,5.433,0,0,0,4.97083-7.84448ZM16.43964,15.9931a3.63146,3.63146,0,0,1-1.62488,1.22473,6.33963,6.33963,0,0,1-2.52033.44709,6.21683,6.21683,0,0,1-2.89764-.61176,3.733,3.733,0,0,1-1.31964-1.17779,2.574,2.574,0,0,1-.494-1.41339.88041.88041,0,0,1,.30646-.68384,1.09008,1.09008,0,0,1,.77643-.28247.94433.94433,0,0,1,.637.2127,1.793,1.793,0,0,1,.44708.65863,3.39792,3.39792,0,0,0,.49518.87256,1.78964,1.78964,0,0,0,.72955.56488,3.01435,3.01435,0,0,0,1.24872.23554,2.9217,2.9217,0,0,0,1.71985-.44708,1.33217,1.33217,0,0,0,.65979-1.13092,1.135,1.135,0,0,0-.35333-.87134,2.18491,2.18491,0,0,0-.91944-.51923c-.37616-.11774-.89538-.23553-1.53112-.37616a13.9908,13.9908,0,0,1-2.14295-.6358,3.34814,3.34814,0,0,1-1.36651-1.01312,2.47429,2.47429,0,0,1-.49512-1.57807,2.62945,2.62945,0,0,1,.54205-1.60205,3.41154,3.41154,0,0,1,1.53113-1.084,6.652,6.652,0,0,1,2.37964-.37623,6.403,6.403,0,0,1,1.88452.25843,4.07215,4.07215,0,0,1,1.31842.65979,2.91587,2.91587,0,0,1,.77765.87134,1.80281,1.80281,0,0,1,.23553.87139.96189.96189,0,0,1-.30645.70667.9912.9912,0,0,1-.7536.30646.9735.9735,0,0,1-.63575-.18866,2.38218,2.38218,0,0,1-.47113-.61176,2.93711,2.93711,0,0,0-.77758-.96631A2.37614,2.37614,0,0,0,12.0589,7.96a2.7028,2.7028,0,0,0-1.5083.37738,1.07558,1.07558,0,0,0-.56488.89539.95783.95783,0,0,0,.18866.56488,1.41851,1.41851,0,0,0,.54205.4002,2.69264,2.69264,0,0,0,.68262.25959c.23559.07092.613.16467,1.15381.28247.65979.14178,1.27276.30646,1.81475.47107a5.43,5.43,0,0,1,1.38941.6358,2.85691,2.85691,0,0,1,.89532.94226,2.8284,2.8284,0,0,1,.32935,1.3905A2.89029,2.89029,0,0,1,16.43964,15.9931Z"/></svg>