<svg xmlns="http://www.w3.org/2000/svg" data-name="Layer 1" viewBox="0 0 24 24"><path d="M14.36,14.23a3.76,3.76,0,0,1-4.72,0,1,1,0,0,0-1.28,1.54,5.68,5.68,0,0,0,7.28,0,1,1,0,1,0-1.28-1.54ZM9,11.71l.29-.3.29.3a1,1,0,0,0,1.42,0,1,1,0,0,0,0-1.42l-.3-.29.3-.29A1,1,0,0,0,9.54,8.29l-.29.3L9,8.29A1,1,0,1,0,7.54,9.71l.3.29-.3.29a1,1,0,0,0,0,1.42,1,1,0,0,0,1.42,0ZM12,2A10,10,0,1,0,22,12,10,10,0,0,0,12,2Zm0,18a8,8,0,1,1,8-8A8,8,0,0,1,12,20ZM17,8.29a1,1,0,0,0-1.42,0l-.29.3L15,8.29a1,1,0,0,0-1.42,1.42l.3.29-.3.29a1,1,0,0,0,0,1.42,1,1,0,0,0,1.42,0l.29-.3.29.3a1,1,0,0,0,1.42,0,1,1,0,0,0,0-1.42l-.3-.29.3-.29A1,1,0,0,0,17,8.29Z"/></svg>