<svg width="24" height="24" viewBox="0 0 24 24" fill="none" xmlns="http://www.w3.org/2000/svg">
  <path
    d="M14.36 14.23C13.6915 14.769 12.8587 15.0629 12 15.0629C11.1413 15.0629 10.3085 14.769 9.64 14.23C9.43579 14.0603 9.17251 13.9786 8.90808 14.003C8.64365 14.0274 8.39974 14.1558 8.23 14.36C8.06027 14.5642 7.9786 14.8275 8.00298 15.0919C8.02736 15.3564 8.15579 15.6003 8.36 15.77C9.38134 16.6226 10.6696 17.0896 12 17.0896C13.3304 17.0896 14.6187 16.6226 15.64 15.77C15.8442 15.6003 15.9726 15.3564 15.997 15.0919C16.0214 14.8275 15.9397 14.5642 15.77 14.36C15.686 14.2589 15.5828 14.1753 15.4665 14.1141C15.3501 14.0528 15.2229 14.0151 15.0919 14.003C14.8275 13.9786 14.5642 14.0603 14.36 14.23ZM12 2C10.0222 2 8.08879 2.58649 6.4443 3.6853C4.79981 4.78412 3.51809 6.3459 2.76121 8.17317C2.00433 10.0004 1.8063 12.0111 2.19215 13.9509C2.578 15.8907 3.53041 17.6725 4.92894 19.0711C6.32746 20.4696 8.10929 21.422 10.0491 21.8079C11.9889 22.1937 13.9996 21.9957 15.8268 21.2388C17.6541 20.4819 19.2159 19.2002 20.3147 17.5557C21.4135 15.9112 22 13.9778 22 12C22 10.6868 21.7413 9.38642 21.2388 8.17317C20.7363 6.95991 19.9997 5.85752 19.0711 4.92893C18.1425 4.00035 17.0401 3.26375 15.8268 2.7612C14.6136 2.25866 13.3132 2 12 2ZM12 20C10.4178 20 8.87104 19.5308 7.55544 18.6518C6.23985 17.7727 5.21447 16.5233 4.60897 15.0615C4.00347 13.5997 3.84504 11.9911 4.15372 10.4393C4.4624 8.88743 5.22433 7.46197 6.34315 6.34315C7.46197 5.22433 8.88743 4.4624 10.4393 4.15372C11.9911 3.84504 13.5997 4.00346 15.0615 4.60896C16.5233 5.21447 17.7727 6.23985 18.6518 7.55544C19.5308 8.87103 20 10.4178 20 12C20 14.1217 19.1572 16.1566 17.6569 17.6569C16.1566 19.1571 14.1217 20 12 20Z" />
  <path
    d="M9.68943 9.31432C10.0409 8.96286 10.6107 8.96287 10.9622 9.31432C11.3137 9.66579 11.3137 10.2356 10.9622 10.5871C10.7045 10.8448 10.3986 11.0492 10.062 11.1887C9.72529 11.3281 9.36444 11.4 9.00004 11.4C8.63562 11.4 8.27471 11.3281 7.93803 11.1887C7.60136 11.0492 7.29546 10.8448 7.03779 10.5871C6.68634 10.2356 6.68632 9.66578 7.03779 9.31432C7.38925 8.96286 7.95908 8.96287 8.31056 9.31432C8.40108 9.40484 8.5086 9.47662 8.62687 9.52562C8.74516 9.57462 8.872 9.59987 9.00004 9.59987C9.12806 9.59987 9.25484 9.57461 9.37312 9.52562C9.4914 9.47662 9.5989 9.40485 9.68943 9.31432Z" />
  <path
    d="M15.6895 9.31441C16.041 8.96296 16.6107 8.96296 16.9622 9.31441C17.3137 9.66588 17.3137 10.2357 16.9622 10.5872C16.7045 10.8448 16.3986 11.0492 16.062 11.1887C15.7253 11.3281 15.3644 11.4 15 11.4C14.6356 11.4 14.2748 11.3281 13.9381 11.1887C13.6015 11.0492 13.2956 10.8448 13.0379 10.5872C12.6864 10.2357 12.6864 9.66588 13.0379 9.31441C13.3893 8.96296 13.9591 8.96295 14.3106 9.31441C14.4011 9.40493 14.5086 9.47672 14.6269 9.52571C14.7452 9.57471 14.872 9.59987 15 9.59987C15.1281 9.59987 15.2549 9.57471 15.3732 9.52571C15.4915 9.47672 15.599 9.40493 15.6895 9.31441Z" />
</svg>
