<svg xmlns="http://www.w3.org/2000/svg" enable-background="new 0 0 24 24" viewBox="0 0 24 24"><path d="M5.1,16c-0.3-0.5-0.9-0.6-1.4-0.4c-0.5,0.3-0.6,0.9-0.4,1.4c0.3,0.5,0.9,0.6,1.4,0.4C5.2,17.1,5.3,16.5,5.1,16C5.1,16,5.1,16,5.1,16z M4.7,6.6C4.2,6.4,3.6,6.5,3.3,7C3.1,7.5,3.2,8.1,3.7,8.4C4.2,8.6,4.8,8.5,5.1,8C5.3,7.5,5.2,6.9,4.7,6.6z M20.3,8.4c0.5-0.3,0.6-0.9,0.4-1.4c-0.3-0.5-0.9-0.6-1.4-0.4c-0.5,0.3-0.6,0.9-0.4,1.4C19.2,8.5,19.8,8.6,20.3,8.4z M4,12c0-0.6-0.4-1-1-1s-1,0.4-1,1s0.4,1,1,1S4,12.6,4,12z M7.2,18.8c-0.5,0.1-0.9,0.7-0.7,1.2c0.1,0.5,0.7,0.9,1.2,0.7c0.5-0.1,0.9-0.7,0.7-1.2C8.3,19,7.8,18.7,7.2,18.8z M21,11c-0.6,0-1,0.4-1,1s0.4,1,1,1s1-0.4,1-1S21.6,11,21,11z M20.3,15.6c-0.5-0.3-1.1-0.1-1.4,0.4c-0.3,0.5-0.1,1.1,0.4,1.4c0.5,0.3,1.1,0.1,1.4-0.4c0,0,0,0,0,0C20.9,16.5,20.8,15.9,20.3,15.6z M17,3.3c-0.5-0.3-1.1-0.1-1.4,0.4c-0.3,0.5-0.1,1.1,0.4,1.4c0.5,0.3,1.1,0.1,1.4-0.4c0,0,0,0,0,0C17.6,4.2,17.5,3.6,17,3.3z M16.8,18.8c-0.5-0.1-1.1,0.2-1.2,0.7c-0.1,0.5,0.2,1.1,0.7,1.2c0.5,0.1,1.1-0.2,1.2-0.7C17.6,19.5,17.3,19,16.8,18.8z M12,20c-0.6,0-1,0.4-1,1s0.4,1,1,1s1-0.4,1-1S12.6,20,12,20z M12,2c-0.6,0-1,0.4-1,1s0.4,1,1,1s1-0.4,1-1S12.6,2,12,2z"/></svg>