<svg xmlns="http://www.w3.org/2000/svg" viewBox="0 0 24 24"><path d="M22,7.82a1.25,1.25,0,0,0,0-.19v0h0l-2-5A1,1,0,0,0,19,2H5a1,1,0,0,0-.93.63l-2,5h0v0a1.25,1.25,0,0,0,0,.19A.58.58,0,0,0,2,8H2V8a4,4,0,0,0,2,3.4V21a1,1,0,0,0,1,1H19a1,1,0,0,0,1-1V11.44A4,4,0,0,0,22,8V8h0A.58.58,0,0,0,22,7.82ZM13,20H11V16h2Zm5,0H15V15a1,1,0,0,0-1-1H10a1,1,0,0,0-1,1v5H6V12a4,4,0,0,0,3-1.38,4,4,0,0,0,6,0A4,4,0,0,0,18,12Zm0-10a2,2,0,0,1-2-2,1,1,0,0,0-2,0,2,2,0,0,1-4,0A1,1,0,0,0,8,8a2,2,0,0,1-4,.15L5.68,4H18.32L20,8.15A2,2,0,0,1,18,10Z"/></svg>