<svg xmlns="http://www.w3.org/2000/svg" data-name="Layer 1" viewBox="0 0 24 24"><path d="M12.878,5.92841a.297.297,0,0,1,.31378.335c.002.09192.00348.18384.0036.27575.00061.59241-.00238,1.18488.00208,1.77723.00329.43353.07947.517.49939.56909a14.83182,14.83182,0,0,0,3.14795-.04578,4.94837,4.94837,0,0,0,1.57287-.37384.50722.50722,0,0,0,.34461-.60242,6.83113,6.83113,0,0,0-5.3432-5.71106,6.60826,6.60826,0,0,0-3.64844.243A6.718,6.718,0,0,0,7.07709,4.147,6.27211,6.27211,0,0,0,5.23022,8.43164,11.18781,11.18781,0,0,0,6.7558,13.9494a1.34216,1.34216,0,0,0,1.32989.74726c.65332-.01569,1.30732-.00354,1.96106-.00354v-.00348q1.04187,0,2.08368.00048c.24927.00055.44654.06012.44458.37226-.00458.72522.00067,1.45044-.00335,2.1756-.00129.22015-.06324.432-.32612.43408-.26391.00207-.32641-.20893-.32971-.42951-.00512-.34716.00019-.69452.00061-1.04174.00049-.45105-.07342-.55677-.52319-.639a7.70231,7.70231,0,0,0-2.348-.0199,2.5959,2.5959,0,0,0-.80054.19476c-.21185.09973-.29608.24506-.19318.46729.10706.23126.20691.46728.3332.68786a43.875,43.875,0,0,0,3.42651,4.95569c.15393.19947.27313.20362.43109.0105.34869-.42639.71491-.83856,1.05994-1.26788a34.22649,34.22649,0,0,0,3.57635-5.25989,14.17129,14.17129,0,0,0,1.49451-3.87146A1.20324,1.20324,0,0,0,17.36145,9.824,6.94268,6.94268,0,0,0,15.691,9.66235c-.909-.00677-1.81812-.00348-2.72717-.00268-.24481.00024-.42688-.07007-.42707-.3573-.00048-1.01117-.00183-2.0224.00184-3.03351C12.53943,6.053,12.64349,5.92041,12.878,5.92841Z"/></svg>