<svg id="Layer_1" data-name="Layer 1" xmlns="http://www.w3.org/2000/svg" viewBox="0 0 24 24"><title>telegram</title><path d="M22.26465,2.42773a2.04837,2.04837,0,0,0-2.07813-.32421L2.26562,9.33887a2.043,2.043,0,0,0,.1045,3.81836l3.625,1.26074,2.0205,6.68164A.998.998,0,0,0,8.134,21.352c.00775.012.01868.02093.02692.03259a.98844.98844,0,0,0,.21143.21576c.02307.01758.04516.03406.06982.04968a.98592.98592,0,0,0,.31073.13611l.01184.001.00671.00287a1.02183,1.02183,0,0,0,.20215.02051c.00653,0,.01233-.00312.0188-.00324a.99255.99255,0,0,0,.30109-.05231c.02258-.00769.04193-.02056.06384-.02984a.9931.9931,0,0,0,.20429-.11456,250.75993,250.75993,0,0,1,.15222-.12818L12.416,18.499l4.03027,3.12207a2.02322,2.02322,0,0,0,1.24121.42676A2.05413,2.05413,0,0,0,19.69531,20.415L22.958,4.39844A2.02966,2.02966,0,0,0,22.26465,2.42773ZM9.37012,14.73633a.99357.99357,0,0,0-.27246.50586l-.30951,1.504-.78406-2.59307,4.06525-2.11695ZM17.67188,20.04l-4.7627-3.68945a1.00134,1.00134,0,0,0-1.35352.11914l-.86541.9552.30584-1.48645,7.083-7.083a.99975.99975,0,0,0-1.16894-1.59375L6.74487,12.55432,3.02051,11.19141,20.999,3.999Z"/></svg>