<svg xmlns="http://www.w3.org/2000/svg" data-name="Layer 1" viewBox="0 0 24 24"><path d="M22.99121,3.9502a.99942.99942,0,0,0-1.51074-.85938,7.47956,7.47956,0,0,1-1.873.793,5.15234,5.15234,0,0,0-3.374-1.24219,5.23238,5.23238,0,0,0-5.22363,5.06348A11.03194,11.03194,0,0,1,4.19629,3.78125,1.01154,1.01154,0,0,0,3.33887,3.416a.99852.99852,0,0,0-.78516.5,5.2755,5.2755,0,0,0-.24219,4.76855l-.00195.00195a1.0411,1.0411,0,0,0-.49512.88868,3.04174,3.04174,0,0,0,.02637.43945,5.1854,5.1854,0,0,0,1.56836,3.3125.99813.99813,0,0,0-.06641.76953,5.20436,5.20436,0,0,0,2.36231,2.92187,7.46464,7.46464,0,0,1-3.58985.44825.99975.99975,0,0,0-.665,1.833A12.94248,12.94248,0,0,0,8.46,21.36133,12.7878,12.7878,0,0,0,20.9248,11.998,12.82166,12.82166,0,0,0,21.46,8.35156c0-.06543,0-.13281-.001-.20019A5.76963,5.76963,0,0,0,22.99121,3.9502ZM19.68457,7.16211a.995.995,0,0,0-.2334.70215c.00977.165.00879.331.00879.4873a10.82371,10.82371,0,0,1-.4541,3.08106A10.68457,10.68457,0,0,1,8.46,19.36133a10.93791,10.93791,0,0,1-2.55078-.30078,9.47951,9.47951,0,0,0,2.94238-1.56348A1.00033,1.00033,0,0,0,8.25,15.71094a3.208,3.208,0,0,1-2.21387-.93457q.22413-.04248.44532-.10547a1.00026,1.00026,0,0,0-.08008-1.94336,3.19824,3.19824,0,0,1-2.25-1.72559,5.29929,5.29929,0,0,0,.54492.0459,1.02093,1.02093,0,0,0,.9834-.69629A.9998.9998,0,0,0,5.2793,9.21484,3.19559,3.19559,0,0,1,3.85547,6.542c0-.0664.00195-.13281.00586-.19824a13.01365,13.01365,0,0,0,8.209,3.47949,1.02046,1.02046,0,0,0,.81739-.3584,1.00037,1.00037,0,0,0,.206-.86816,3.15653,3.15653,0,0,1-.08691-.72852A3.23,3.23,0,0,1,16.2334,4.6416a3.18428,3.18428,0,0,1,2.34472,1.02051A.993.993,0,0,0,19.499,5.96a9.27073,9.27073,0,0,0,1.21192-.32226A6.68126,6.68126,0,0,1,19.68457,7.16211Z"/></svg>