<svg viewBox="0 0 24 24" xmlns="http://www.w3.org/2000/svg">
  <path d="M19.0002 3H5.00017C4.29663 3.00546 3.61738 3.25801 3.08118 3.71352C2.54497 4.16902 2.18591 4.79849 2.06677 5.49189C1.94763 6.18529 2.07598 6.89851 2.4294 7.50687C2.78281 8.11523 3.3388 8.58002 4.00017 8.82V18C4.00017 18.7957 4.31624 19.5587 4.87885 20.1213C5.44146 20.6839 6.20452 21 7.00017 21H17.0002C17.7958 21 18.5589 20.6839 19.1215 20.1213C19.6841 19.5587 20.0002 18.7957 20.0002 18V8.82C20.6615 8.58002 21.2175 8.11523 21.5709 7.50687C21.9244 6.89851 22.0527 6.18529 21.9336 5.49189C21.8144 4.79849 21.4554 4.16902 20.9192 3.71352C20.383 3.25801 19.7037 3.00546 19.0002 3ZM18.0002 18C18.0002 18.2652 17.8948 18.5196 17.7073 18.7071C17.5197 18.8946 17.2654 19 17.0002 19H7.00017C6.73495 19 6.4806 18.8946 6.29306 18.7071C6.10553 18.5196 6.00017 18.2652 6.00017 18V9H18.0002V18ZM19.0002 7H5.00017C4.73495 7 4.4806 6.89464 4.29306 6.70711C4.10553 6.51957 4.00017 6.26522 4.00017 6C4.00017 5.73478 4.10553 5.48043 4.29306 5.29289C4.4806 5.10536 4.73495 5 5.00017 5H19.0002C19.2654 5 19.5197 5.10536 19.7073 5.29289C19.8948 5.48043 20.0002 5.73478 20.0002 6C20.0002 6.26522 19.8948 6.51957 19.7073 6.70711C19.5197 6.89464 19.2654 7 19.0002 7Z" fill="currentColor"/>
  <path d="M10.9993 14.205L10.2093 15.005C10.021 15.1933 9.76562 15.2991 9.49931 15.2991C9.23301 15.2991 8.97762 15.1933 8.78931 15.005C8.60101 14.8167 8.49522 14.5613 8.49522 14.295C8.49522 14.0287 8.60101 13.7733 8.78931 13.585L11.2893 11.085C11.3844 10.994 11.4966 10.9226 11.6193 10.875C11.8628 10.775 12.1359 10.775 12.3793 10.875C12.5021 10.9226 12.6142 10.994 12.7093 11.085L15.2093 13.585C15.303 13.678 15.3774 13.7886 15.4282 13.9104C15.479 14.0323 15.5051 14.163 15.5051 14.295C15.5051 14.427 15.479 14.5577 15.4282 14.6796C15.3774 14.8015 15.303 14.9121 15.2093 15.005C15.1164 15.0987 15.0057 15.1731 14.8839 15.2239C14.762 15.2747 14.6313 15.3008 14.4993 15.3008C14.3673 15.3008 14.2366 15.2747 14.1147 15.2239C13.9929 15.1731 13.8823 15.0987 13.7893 15.005L12.9993 14.205V16.795C12.9993 17.0602 12.894 17.3146 12.7064 17.5021C12.5189 17.6897 12.2645 17.795 11.9993 17.795C11.7341 17.795 11.4797 17.6897 11.2922 17.5021C11.1047 17.3146 10.9993 17.0602 10.9993 16.795V14.205Z" fill="currentColor"/>
</svg>
