<svg xmlns="http://www.w3.org/2000/svg" viewBox="0 0 24 24"><path d="M14.49,10.86a3.09,3.09,0,1,0-5,0,4.67,4.67,0,0,0-1.12,1A1,1,0,1,0,10,13.12a2.62,2.62,0,0,1,2.05-1h0a2.62,2.62,0,0,1,2.05,1,1,1,0,0,0,.78.37,1,1,0,0,0,.78-1.62A4.67,4.67,0,0,0,14.49,10.86ZM12,10.13h0A1.09,1.09,0,1,1,13.09,9,1.09,1.09,0,0,1,12,10.13Zm8.46-.5A8.5,8.5,0,0,0,7.3,3.36,8.56,8.56,0,0,0,3.54,9.63,8.46,8.46,0,0,0,6,16.46l5.3,5.31a1,1,0,0,0,1.42,0L18,16.46A8.46,8.46,0,0,0,20.46,9.63ZM16.6,15.05,12,19.65l-4.6-4.6A6.49,6.49,0,0,1,5.53,9.83,6.57,6.57,0,0,1,8.42,5a6.47,6.47,0,0,1,7.16,0,6.57,6.57,0,0,1,2.89,4.81A6.49,6.49,0,0,1,16.6,15.05Z"/></svg>