<svg xmlns="http://www.w3.org/2000/svg" data-name="Layer 1" viewBox="0 0 24 24"><path d="M20.59,6.9a0,0,0,0,1,0,0,.86.86,0,0,0-.07-.1A10,10,0,0,0,7.6,3l0,0h0l-.07,0a10,10,0,0,0-1,17.19h0l.33.2.1.07h0A9.93,9.93,0,0,0,12,22h.21A10,10,0,0,0,20.59,6.9ZM19,8.06a7.64,7.64,0,0,1,.65,1.46,10,10,0,0,0-3-.49.81.81,0,0,0-.31,0,9.78,9.78,0,0,0-3.58.73,7.85,7.85,0,0,1-1.84-1.6A8.16,8.16,0,0,1,19,8.06ZM12,4a7.86,7.86,0,0,1,4,1.07A7.77,7.77,0,0,0,15,5,10,10,0,0,0,9.8,6.47a8,8,0,0,1-.64-1.94A7.92,7.92,0,0,1,12,4ZM6,6.71A8.26,8.26,0,0,1,7.33,5.52,9.9,9.9,0,0,0,12,11.61a7.89,7.89,0,0,1-.77,2.88A8,8,0,0,1,6,7C6,6.9,6,6.81,6,6.71ZM4,12a8.1,8.1,0,0,1,.36-2.37,10,10,0,0,0,5.7,6.56,7.84,7.84,0,0,1-2.93,2.14A8,8,0,0,1,4,12Zm7.86,8a7.8,7.8,0,0,1-2.61-.49,9.94,9.94,0,0,0,3.23-3.22l0,0A10,10,0,0,0,14,11.41a7.71,7.71,0,0,1,1.78-.36A8,8,0,0,1,11.86,20Zm4.22-1.12A9.94,9.94,0,0,0,18,13a10.69,10.69,0,0,0-.18-1.88,8.34,8.34,0,0,1,2.17.7c0,.06,0,.12,0,.18A8,8,0,0,1,16.08,18.87Z"/></svg>