<svg xmlns="http://www.w3.org/2000/svg" data-name="Layer 1" viewBox="0 0 24 24"><path d="M22.86723,3.374a.99906.99906,0,0,0-.86622-.50195l-4.97064-.00391-.00738-.001-3.64356.001a1.00172,1.00172,0,0,0-.81787.42481l-.55859.7959L11.43851,3.291a.9983.9983,0,0,0-.81591-.42286l-3.646-.001H6.97611l-.00146.00018-.00147-.00018H6.96781l-4.97314.02734a.99989.99989,0,0,0-.85742,1.50586L11.15678,21.50586A1.00068,1.00068,0,0,0,12.01957,22h.001a1.00062,1.00062,0,0,0,.86328-.49609L22.8643,4.376A1.00212,1.00212,0,0,0,22.86723,3.374ZM10.10453,4.86816l1.085,1.53321a.99856.99856,0,0,0,.81641.42285h.00146a1.00252,1.00252,0,0,0,.8169-.42481l1.07519-1.53125,1.36267-.001-3.244,5.45373L8.7432,4.86719Zm1.9126,14.14942L3.7393,4.88477l2.66992-.01465,4.75342,7.918a1.00082,1.00082,0,0,0,.85742.48535H12.022l.001-.00012.001.00012h.002a1,1,0,0,0,.85742-.48926l4.708-7.916,2.66949.00293Z"/></svg>