<svg xmlns="http://www.w3.org/2000/svg" data-name="Layer 1" viewBox="0 0 24 24"><path d="M22,6.55a12.61,12.61,0,0,0-.1-1.29,4.29,4.29,0,0,0-.37-1.08,3.66,3.66,0,0,0-.71-1,3.91,3.91,0,0,0-1-.71,4.28,4.28,0,0,0-1.08-.36A10.21,10.21,0,0,0,17.46,2H6.55a12.61,12.61,0,0,0-1.29.1,4.29,4.29,0,0,0-1.08.37,3.66,3.66,0,0,0-1,.71,3.91,3.91,0,0,0-.71,1,4.28,4.28,0,0,0-.36,1.08A10.21,10.21,0,0,0,2,6.54C2,6.73,2,7,2,7.08v9.84c0,.11,0,.35,0,.53a12.61,12.61,0,0,0,.1,1.29,4.29,4.29,0,0,0,.37,1.08,3.66,3.66,0,0,0,.71,1,3.91,3.91,0,0,0,1,.71,4.28,4.28,0,0,0,1.08.36A10.21,10.21,0,0,0,6.54,22H17.45a12.61,12.61,0,0,0,1.29-.1,4.29,4.29,0,0,0,1.08-.37,3.66,3.66,0,0,0,1-.71,3.91,3.91,0,0,0,.71-1,4.28,4.28,0,0,0,.36-1.08A10.21,10.21,0,0,0,22,17.46c0-.19,0-.43,0-.54V7.08C22,7,22,6.73,22,6.55ZM12.23,19h0A7.12,7.12,0,0,1,8.8,18.1L5,19.1l1-3.72a7.11,7.11,0,0,1-1-3.58A7.18,7.18,0,1,1,12.23,19Zm0-13.13A6,6,0,0,0,7.18,15l.14.23-.6,2.19L9,16.8l.22.13a6,6,0,0,0,3,.83h0a6,6,0,0,0,6-6,6,6,0,0,0-6-6Zm3.5,8.52a1.82,1.82,0,0,1-1.21.85,2.33,2.33,0,0,1-1.12-.07,8.9,8.9,0,0,1-1-.38,8,8,0,0,1-3.06-2.7,3.48,3.48,0,0,1-.73-1.85,2,2,0,0,1,.63-1.5.65.65,0,0,1,.48-.22H10c.11,0,.26,0,.4.31s.51,1.24.56,1.33a.34.34,0,0,1,0,.31,1.14,1.14,0,0,1-.18.3c-.09.11-.19.24-.27.32s-.18.18-.08.36a5.56,5.56,0,0,0,1,1.24,5,5,0,0,0,1.44.89c.18.09.29.08.39,0s.45-.52.57-.7.24-.15.4-.09,1.05.49,1.23.58.29.13.34.21A1.56,1.56,0,0,1,15.73,14.36Z"/></svg>