<svg width="24" height="24" viewBox="0 0 24 24" fill="none" xmlns="http://www.w3.org/2000/svg">
  <path
    d="M4.80002 17.4L8.01377 9.59252C8.65127 8.04377 9.80627 6.76877 11.2838 5.98127L16.7925 3.04502C17.2538 2.79752 17.7863 3.22127 17.655 3.72752L16.26 9.06752C16.2188 9.22127 16.2 9.37877 16.2 9.54002C16.2 9.77627 16.245 10.0125 16.335 10.2338L19.2 17.4H11.4338L11.8763 16.0725L13.3913 15.5663C13.635 15.4838 13.8 15.255 13.8 14.9963C13.8 14.7375 13.635 14.5088 13.3913 14.4263L11.8763 13.92L11.37 12.405C11.2875 12.165 11.0588 12 10.8 12C10.5413 12 10.3125 12.165 10.23 12.4088L9.72377 13.9238L8.20877 14.43C7.96502 14.5125 7.80002 14.7413 7.80002 15C7.80002 15.2588 7.96502 15.4875 8.20877 15.57L9.72377 16.0763L10.1663 17.4038H4.80002V17.4ZM12.885 7.70627C12.8438 7.58252 12.7313 7.50002 12.6 7.50002C12.4688 7.50002 12.3563 7.58252 12.315 7.70627L12.0638 8.46377L11.3063 8.71502C11.1825 8.75627 11.1 8.86877 11.1 9.00002C11.1 9.13127 11.1825 9.24377 11.3063 9.28502L12.0638 9.53627L12.315 10.2938C12.3563 10.4175 12.4688 10.5 12.6 10.5C12.7313 10.5 12.8438 10.4175 12.885 10.2938L13.1363 9.53627L13.8938 9.28502C14.0175 9.24377 14.1 9.13127 14.1 9.00002C14.1 8.86877 14.0175 8.75627 13.8938 8.71502L13.1363 8.46377L12.885 7.70627ZM3.60002 19.2H20.4C21.0638 19.2 21.6 19.7363 21.6 20.4C21.6 21.0638 21.0638 21.6 20.4 21.6H3.60002C2.93627 21.6 2.40002 21.0638 2.40002 20.4C2.40002 19.7363 2.93627 19.2 3.60002 19.2Z" />
</svg>
