<?xml version="1.0" encoding="UTF-8"?><svg id="Layer_2" xmlns="http://www.w3.org/2000/svg" xmlns:xlink="http://www.w3.org/1999/xlink" viewBox="0 0 140.07 151.15"><defs><style>.cls-1{fill:url(#linear-gradient);}.cls-2{fill:url(#linear-gradient-8);}.cls-3{fill:url(#linear-gradient-3);}.cls-4{fill:url(#linear-gradient-4);}.cls-5{fill:url(#linear-gradient-2);}.cls-6{fill:url(#linear-gradient-6);}.cls-7{fill:url(#linear-gradient-7);}.cls-8{fill:url(#linear-gradient-5);}</style><linearGradient id="linear-gradient" x1="556.29" y1="168.71" x2="674.41" y2="28.91" gradientTransform="translate(-556.16) skewX(-8)" gradientUnits="userSpaceOnUse"><stop offset="0" stop-color="#ffef00"/><stop offset="1" stop-color="#ed5a27"/></linearGradient><linearGradient id="linear-gradient-2" x1="524.45" y1="141.81" x2="642.57" y2="2.01" xlink:href="#linear-gradient"/><linearGradient id="linear-gradient-3" x1="546.04" y1="160.05" x2="664.16" y2="20.25" xlink:href="#linear-gradient"/><linearGradient id="linear-gradient-4" x1="561.98" y1="173.52" x2="680.1" y2="33.71" xlink:href="#linear-gradient"/><linearGradient id="linear-gradient-5" x1="535.6" y1="121.34" x2="655.87" y2="118.41" xlink:href="#linear-gradient"/><linearGradient id="linear-gradient-6" x1="536.16" y1="144.33" x2="656.43" y2="141.41" xlink:href="#linear-gradient"/><linearGradient id="linear-gradient-7" x1="613.28" y1="33.92" x2="517.45" y2="-5.31" xlink:href="#linear-gradient"/><linearGradient id="linear-gradient-8" x1="613.28" y1="33.92" x2="517.45" y2="-5.31" xlink:href="#linear-gradient"/></defs><g id="Layer_1-2"><g><g><path class="cls-1" d="M126.18,82.3c6.34-7.66,10.91-16.78,12.86-26.62h-39.74c-2.18,5.73-7.94,10.01-14.09,10.01H13.33l-2.34,16.61H126.18Z"/><path class="cls-5" d="M42.55,13.99l6.66,2.7h81.13C122.18,6.5,109.49,.12,94.43,.12H29.32c2.23,6.34,6.94,11.32,13.23,13.87Z"/><path class="cls-3" d="M48.24,22.87l-7.32,2.66c-7.06,2.57-13.22,7.62-17.23,14.04H88.89c6.12,0,10.65,4.23,11.26,9.92h39.75c.8-9.84-1.22-18.96-5.43-26.62H48.24Z"/><path class="cls-4" d="M10.13,88.48l-2.11,15.01-.23,1.65H79.67c15.1,0,29.63-6.41,40.66-16.66H10.13Z"/><polygon class="cls-8" points="44.06 128.3 46.45 111.32 6.92 111.32 4.53 128.3 44.06 128.3"/><polygon class="cls-6" points="3.66 134.48 1.32 151.15 40.85 151.15 43.19 134.48 3.66 134.48"/></g><g><path class="cls-7" d="M39.52,19.76C30.96,16.29,24.74,9.05,22.54,0,17.8,9.05,9.53,16.29,0,19.76c8.56,3.47,14.78,10.72,16.98,19.76,4.74-9.05,13-16.29,22.54-19.76Z"/><path class="cls-2" d="M22.54,0c2.2,9.05,8.43,16.29,16.98,19.76-9.53,3.47-17.8,10.72-22.54,19.76C14.78,30.48,8.56,23.23,0,19.76,9.53,16.29,17.8,9.05,22.54,0"/></g></g></g></svg>