<?xml version="1.0" encoding="utf-8"?>
<!-- Generator: Adobe Illustrator 20.1.0, SVG Export Plug-In . SVG Version: 6.00 Build 0)  -->
<svg version="1.1" id="Layer_1" xmlns="http://www.w3.org/2000/svg" xmlns:xlink="http://www.w3.org/1999/xlink" x="0px" y="0px"
	 width="64px" height="64px" viewBox="0 0 64 64" style="enable-background:new 0 0 64 64;" xml:space="preserve">
<style type="text/css">
	.st0{fill:#52545c;}
	.st1{fill:url(#SVGID_1_);}
</style>
<path class="st0" d="M23.5,22.7l7-17.3c-0.5-2.8-3-5-6-5H6.1C2.7,0.4,0,3.1,0,6.5v18.4C0,28.3,2.7,31,6.1,31H9l-7.4-6.5L23.5,22.7z"
	/>
<path class="st0" d="M62.5,24.5L55,31h2.9c3.4,0,6.1-2.7,6.1-6.1V6.5c0-3.4-2.7-6.1-6.1-6.1H39.5c-3,0-5.5,2.2-6,5l7,17.3L62.5,24.5
	z"/>
<path class="st0" d="M18.3,39.1l-7-6.1H6.1C2.7,33,0,35.7,0,39.1v18.4c0,3.4,2.7,6.1,6.1,6.1h18.4c3.4,0,6.1-2.7,6.1-6.1v-7.3
	L13.1,61.2L18.3,39.1z"/>
<path class="st0" d="M50.9,61.2L33.4,50.2v7.3c0,3.4,2.7,6.1,6.1,6.1h18.4c3.4,0,6.1-2.7,6.1-6.1V39.1c0-3.4-2.7-6.1-6.1-6.1h-5.1
	l-7,6.1L50.9,61.2z"/>
<linearGradient id="SVGID_1_" gradientUnits="userSpaceOnUse" x1="32.0001" y1="63.3894" x2="32.0001" y2="7.0572">
	<stop  offset="0" style="stop-color:#FFF33B"/>
	<stop  offset="5.948725e-02" style="stop-color:#FFE029"/>
	<stop  offset="0.1303" style="stop-color:#FFD218"/>
	<stop  offset="0.2032" style="stop-color:#FEC90F"/>
	<stop  offset="0.2809" style="stop-color:#FDC70C"/>
	<stop  offset="0.6685" style="stop-color:#F3903F"/>
	<stop  offset="0.8876" style="stop-color:#ED683C"/>
	<stop  offset="1" style="stop-color:#E93E3A"/>
</linearGradient>
<polygon class="st1" points="52.1,27.9 37.6,26.7 32,13 26.4,26.7 11.9,27.9 23,37.6 19.6,52.1 32,44.3 44.4,52.1 41,37.6 "/>
</svg>
