<svg xmlns="http://www.w3.org/2000/svg" xmlns:xlink="http://www.w3.org/1999/xlink" id="Layer_1" width="64" height="64" x="0" style="enable-background:new 0 0 64 64" y="0" version="1.1" viewBox="0 0 64 64" xml:space="preserve"><style type="text/css">.st0{fill:#52545c}.st1{fill:url(#SVGID_1_)}</style><g><path d="M33.9,47.9v-7.2c0-2.4,1.9-4.3,4.3-4.3h4.4v-4.4c0-2.4,1.9-4.3,4.3-4.3H54c2.4,0,4.3,1.9,4.3,4.3v4.4h1.4 L63.8,26c0.9-2.2-0.8-4.4-3.2-4.4H16.2c-1.9,0-3.5,1.2-4.1,2.9L3.3,51.4h6.4h26C34.6,50.6,33.9,49.3,33.9,47.9z" class="st0"/><path d="M14.6,18.2H60v-0.8c0-3.2-2.6-5.8-5.8-5.8h-25L28,8.5l0-0.1c-0.5-1-1.5-1.6-2.6-1.6H12.7 c-1.1,0-2.1,0.6-2.6,1.7l-1.2,3.2H5.8c-3.2,0-5.8,2.6-5.8,5.8v33.9l9.2-29.1C10,19.8,12.1,18.2,14.6,18.2z" class="st0"/><linearGradient id="SVGID_1_" x1="50.38" x2="50.38" y1="69.562" y2="18.648" gradientUnits="userSpaceOnUse"><stop offset="0" style="stop-color:#fff23a"/><stop offset=".04" style="stop-color:#fee62d"/><stop offset=".117" style="stop-color:#fed41a"/><stop offset=".196" style="stop-color:#fdc90f"/><stop offset=".281" style="stop-color:#fdc60b"/><stop offset=".668" style="stop-color:#f28f3f"/><stop offset=".888" style="stop-color:#ed693c"/><stop offset="1" style="stop-color:#e83e39"/></linearGradient><path d="M62.6,40h-4.4h-0.3h-3.2v-7.9c0-0.4-0.3-0.7-0.7-0.7h-7.2c-0.4,0-0.7,0.3-0.7,0.7V40h-7.9 c-0.4,0-0.7,0.3-0.7,0.7v7.2c0,0.4,0.3,0.7,0.7,0.7h7.9v2.8v1.1v4c0,0.4,0.3,0.7,0.7,0.7H54c0.4,0,0.7-0.3,0.7-0.7v-7.9h7.9 c0.4,0,0.7-0.3,0.7-0.7v-7.2C63.3,40.4,63,40,62.6,40z" class="st1"/></g></svg>