<?xml version="1.0" encoding="utf-8"?>
<!-- Generator: Adobe Illustrator 19.0.1, SVG Export Plug-In . SVG Version: 6.00 Build 0)  -->
<!DOCTYPE svg PUBLIC "-//W3C//DTD SVG 1.1//EN" "http://www.w3.org/Graphics/SVG/1.1/DTD/svg11.dtd">
<svg version="1.1" id="Layer_1" xmlns="http://www.w3.org/2000/svg" xmlns:xlink="http://www.w3.org/1999/xlink" x="0px" y="0px"
	 width="121px" height="100px" viewBox="0 0 121 100" style="enable-background:new 0 0 121 100;" xml:space="preserve">
<style type="text/css">
	.st0{fill:url(#SVGID_1_);}
	.st1{fill:#FFFFFF;}
	.st2{fill:url(#SVGID_2_);}
	.st3{fill:url(#SVGID_3_);}
	.st4{fill:url(#SVGID_4_);}
	.st5{fill:url(#SVGID_5_);}
	.st6{fill:url(#SVGID_6_);}
	.st7{fill:url(#SVGID_7_);}
</style>
<g>
	<g>
		<linearGradient id="SVGID_1_" gradientUnits="userSpaceOnUse" x1="60.5" y1="130.7753" x2="60.5" y2="18.6673">
			<stop  offset="0" style="stop-color:#FBB017"/>
			<stop  offset="1" style="stop-color:#EF4E28"/>
		</linearGradient>
		<path class="st0" d="M120.8,50L87.2,16.4C78.1,6.3,64.9,0,50.2,0c-27.6,0-50,22.4-50,50s22.4,50,50,50c14.4,0,27.5-6.1,36.6-15.9
			c0.1-0.1,0.1-0.1,0.2-0.2L120.8,50z"/>
	</g>
	<path class="st1" d="M94.3,50.1C94.3,25.7,74.4,5.8,50,5.8S5.8,25.7,5.8,50.1S25.6,94.3,50,94.3S94.3,74.5,94.3,50.1z"/>
	<g>
		<linearGradient id="SVGID_2_" gradientUnits="userSpaceOnUse" x1="56.209" y1="135.6298" x2="56.209" y2="31.6718">
			<stop  offset="0" style="stop-color:#FBB017"/>
			<stop  offset="1" style="stop-color:#EF4E28"/>
		</linearGradient>
		<path class="st2" d="M58.2,52c1.2-2.9,1-6.4-1-9.1c-1.5-2.1-3.7-3.3-6.1-3.7c-1.2-0.2-2.5-0.1-3.7,0.2l4,5.5
			c1.1,1.5,0.8,3.7-0.8,4.8c-0.8,0.6-1.7,0.8-2.6,0.6c-0.9-0.1-1.7-0.6-2.2-1.4l-4-5.5c-2,3.1-1.9,7.2,0.4,10.4
			c1.5,2.1,3.7,3.3,6.1,3.7c0.8,0.1,1.5,0.1,2.3,0.1l12.8,17.6c0.8,1.1,1.9,1.7,3.1,1.9c1.2,0.2,2.5-0.1,3.5-0.9
			c2.1-1.5,2.6-4.5,1-6.6L58.2,52z M67.9,71.1c1,0.2,1.7,1.1,1.5,2.1c-0.2,1-1.1,1.7-2.1,1.5c-1-0.2-1.7-1.1-1.5-2.1
			C65.9,71.6,66.9,70.9,67.9,71.1z"/>
		<linearGradient id="SVGID_3_" gradientUnits="userSpaceOnUse" x1="61.4347" y1="135.6298" x2="61.4347" y2="31.6718">
			<stop  offset="0" style="stop-color:#FFF100"/>
			<stop  offset="1" style="stop-color:#F05A28"/>
		</linearGradient>
		<path class="st3" d="M61.5,51c0,0.1-0.1,0.3-0.1,0.4C61.4,51.2,61.5,51.1,61.5,51z"/>
		<linearGradient id="SVGID_4_" gradientUnits="userSpaceOnUse" x1="59.9971" y1="135.6298" x2="59.9971" y2="31.6718">
			<stop  offset="0" style="stop-color:#FFF100"/>
			<stop  offset="1" style="stop-color:#F05A28"/>
		</linearGradient>
		<path class="st4" d="M59.9,41.7c0.1,0.1,0.1,0.2,0.2,0.3C60,41.9,60,41.8,59.9,41.7z"/>
		<linearGradient id="SVGID_5_" gradientUnits="userSpaceOnUse" x1="60.952" y1="135.6298" x2="60.952" y2="31.6718">
			<stop  offset="0" style="stop-color:#FFF100"/>
			<stop  offset="1" style="stop-color:#F05A28"/>
		</linearGradient>
		<path class="st5" d="M61.7,50.1c0,0.2-0.1,0.5-0.1,0.7c0.2-0.8,0.3-1.7,0.3-2.6c0-2.3-0.6-4.4-1.7-6.2
			C61.5,44.4,62.1,47.2,61.7,50.1z"/>
		<linearGradient id="SVGID_6_" gradientUnits="userSpaceOnUse" x1="59.7217" y1="135.6298" x2="59.7217" y2="31.6718">
			<stop  offset="0" style="stop-color:#FFF100"/>
			<stop  offset="1" style="stop-color:#F05A28"/>
		</linearGradient>
		<path class="st6" d="M59.7,41.4C59.7,41.4,59.7,41.4,59.7,41.4C59.7,41.4,59.7,41.4,59.7,41.4z"/>
		<linearGradient id="SVGID_7_" gradientUnits="userSpaceOnUse" x1="49.6936" y1="135.6298" x2="49.6936" y2="31.6718">
			<stop  offset="0" style="stop-color:#FBB017"/>
			<stop  offset="1" style="stop-color:#EF4E28"/>
		</linearGradient>
		<path class="st7" d="M73.4,59.2l1.9-5.7l-6.4-3c0.1-0.7,0.1-1.5,0.1-2.2c0-0.7,0-1.4-0.1-2.1l6.4-3l-1.9-5.7l-6.9,1.3
			c-0.7-1.3-1.6-2.4-2.5-3.5l3.4-6.2l-4.9-3.5l-4.8,5.1c-1.3-0.6-2.7-1.1-4.1-1.4l-0.9-7h-6l-0.9,7c-1.4,0.3-2.8,0.7-4.1,1.3
			l-4.8-5.1L32,29l3.4,6.2c-1,1.1-1.8,2.2-2.5,3.5L26,37.3L24.1,43l6.4,3c-0.1,0.7-0.1,1.5-0.1,2.2c0,0.7,0,1.4,0.1,2.1l-6.4,3
			l1.9,5.7l6.9-1.3c0.7,1.3,1.6,2.4,2.5,3.5L32,67.4l4.9,3.5l4.8-5.1c1.3,0.6,2.7,1.1,4.1,1.4l0.9,7h6l0.9-7c0.2,0,0.4-0.1,0.6-0.1
			l-4.8-6.6c-0.5,0-1.1-0.1-1.6-0.1c-6.7-1-11.2-7.3-10.2-14c1-6.7,7.3-11.2,14-10.2c3.5,0.5,6.4,2.5,8.2,5.2c0,0,0,0,0.1,0.1
			c0.1,0.1,0.1,0.2,0.1,0.2c0.1,0.1,0.1,0.2,0.2,0.3c0,0,0,0,0,0c1.1,1.8,1.7,3.9,1.7,6.2c0,0.9-0.1,1.8-0.3,2.6c0,0,0,0.1,0,0.1
			c0,0.1-0.1,0.3-0.1,0.4c0,0.1,0,0.1-0.1,0.2l4.9,6.7c0.1-0.1,0.2-0.3,0.3-0.4L73.4,59.2z"/>
	</g>
</g>
</svg>
