<?xml version="1.0" encoding="utf-8"?>
<!-- Generator: Adobe Illustrator 20.1.0, SVG Export Plug-In . SVG Version: 6.00 Build 0)  -->
<svg version="1.1" id="Layer_1" xmlns="http://www.w3.org/2000/svg" xmlns:xlink="http://www.w3.org/1999/xlink" x="0px" y="0px"
	 width="64px" height="64px" viewBox="0 0 64 64" style="enable-background:new 0 0 64 64;" xml:space="preserve">
<style type="text/css">
	.st0{fill:#52545c;}
</style>
<g>
	<g>
		<path class="st0" d="M45.5,38.4c0,1.1-0.9,2-2,2H35v5.1l-5.4-5.1H11.4c-1.1,0-2-0.9-2-2V14.6c0-1.1,0.9-2,2-2h28.3l7.9-7.9H11.4
			c-5.5,0-10,4.5-10,10v23.8c0,5.5,4.5,10,10,10h14.9L42.9,64V48.4h0.6c5.5,0,10-4.5,10-10v-19l-7.9,7.9L45.5,38.4L45.5,38.4z"/>
	</g>
	<g>
		<rect x="31.5" y="13.6" transform="matrix(0.7071 -0.7071 0.7071 0.7071 0.695 36.9343)" class="st0" width="26.9" height="8.1"/>
	</g>
	<g>
		<path class="st0" d="M58.5,9.8l1.1-1.1l0.3-0.3L61.4,7c1.6-1.6,1.6-4.2,0-5.8s-4.2-1.6-5.8,0l-1.5,1.5L53.8,3l-1.1,1.1L58.5,9.8z"
			/>
	</g>
	<g>
		<polygon class="st0" points="30.1,32.4 34.8,31.6 35.3,31.6 37.1,31.3 31.3,25.5 31,27.3 30.9,27.8 		"/>
	</g>
</g>
</svg>
