<?xml version="1.0" encoding="utf-8"?>
<!-- Generator: Adobe Illustrator 20.1.0, SVG Export Plug-In . SVG Version: 6.00 Build 0)  -->
<svg version="1.1" id="Layer_1" xmlns="http://www.w3.org/2000/svg" xmlns:xlink="http://www.w3.org/1999/xlink" x="0px" y="0px"
	 width="64px" height="64px" viewBox="0 0 64 64" style="enable-background:new 0 0 64 64;" xml:space="preserve">
<style type="text/css">
  .st0{fill:#52545c;}
</style>
<path class="st0" d="M59.5,50.8L28.4,19.6C32.2,15,32,8.2,27.6,3.9c-2.3-2.3-5.3-3.4-8.3-3.4s-6,1.1-8.3,3.4L5.7,9.3
	c-4.6,4.6-4.6,12,0,16.6C8,28.1,11,29.2,14,29.2c2.6,0,5.3-0.9,7.5-2.7l20.9,20.9L35.8,54c-0.5,0.5-0.5,1.3,0,1.8l2.1,2.1
	c0.3,0.3,0.6,0.4,0.9,0.4s0.7-0.1,0.9-0.4l1.7-1.7l2.1,2.1L41.8,60c-0.5,0.5-0.5,1.3,0,1.8l2.1,2.1c0.3,0.3,0.6,0.4,0.9,0.4
	c0.3,0,0.7-0.1,0.9-0.4l6.6-6.6l0.2,0.2c0.4,0.4,0.9,0.6,1.5,0.6c0.5,0,1.1-0.2,1.5-0.6l4-4C60.3,52.9,60.3,51.6,59.5,50.8z M14,22
	c-1.2,0-2.3-0.5-3.2-1.3C9,19,9,16.1,10.8,14.3L16.2,9c0.9-0.9,2-1.3,3.2-1.3s2.3,0.5,3.2,1.3c0.9,0.9,1.3,2,1.3,3.2
	s-0.5,2.3-1.3,3.2l-5.4,5.4C16.3,21.6,15.2,22,14,22z"/>
</svg>
