<svg xmlns="http://www.w3.org/2000/svg" xmlns:xlink="http://www.w3.org/1999/xlink" id="Layer_1" width="121" height="100" x="0" style="enable-background:new 0 0 121 100" y="0" version="1.1" viewBox="0 0 121 100" xml:space="preserve"><style type="text/css">.st0{fill:url(#SVGID_1_)}.st1{fill:#fff}.st2{fill:url(#SVGID_2_)}.st3{fill:url(#SVGID_3_)}</style><g><g><linearGradient id="SVGID_1_" x1="60.5" x2="60.5" y1="130.775" y2="18.667" gradientUnits="userSpaceOnUse"><stop offset="0" style="stop-color:#fbb017"/><stop offset="1" style="stop-color:#ef4e28"/></linearGradient><path d="M120.8,50L87.2,16.4C78.1,6.3,64.9,0,50.2,0c-27.6,0-50,22.4-50,50s22.4,50,50,50c14.4,0,27.5-6.1,36.6-15.9 c0.1-0.1,0.1-0.1,0.2-0.2L120.8,50z" class="st0"/></g><path d="M94.4,49.5c0-24.4-19.9-44.3-44.3-44.3S5.8,25.1,5.8,49.5s19.9,44.3,44.3,44.3S94.4,73.9,94.4,49.5z" class="st1"/><g><g><g><linearGradient id="SVGID_2_" x1="49.381" x2="49.381" y1="132.22" y2="36.688" gradientUnits="userSpaceOnUse"><stop offset="0" style="stop-color:#fbb017"/><stop offset="1" style="stop-color:#ef4e28"/></linearGradient><path d="M49.4,77.3c4,0,7.3-3.3,7.3-7.3H42.1C42.1,74.1,45.4,77.3,49.4,77.3z" class="st2"/></g></g><g><linearGradient id="SVGID_3_" x1="49.381" x2="49.381" y1="132.22" y2="36.688" gradientUnits="userSpaceOnUse"><stop offset="0" style="stop-color:#fbb017"/><stop offset="1" style="stop-color:#ef4e28"/></linearGradient><path d="M68.3,58.6v-9.2c0-11.3-5.9-20.8-14-23.5c0-2.7-2.2-4.9-4.9-4.9c-2.7,0-4.9,2.2-4.9,4.9 c-8.1,2.8-14,12.3-14,23.5v9.2c-2.2,0-4,1.8-4,4c0,2.2,1.8,4,4,4v0h0.1h37.8h0.1v0c2.2,0,4-1.8,4-4 C72.3,60.4,70.5,58.6,68.3,58.6z" class="st3"/></g></g></g></svg>