<?xml version="1.0" encoding="utf-8"?>
<!-- Generator: Adobe Illustrator 20.1.0, SVG Export Plug-In . SVG Version: 6.00 Build 0)  -->
<svg version="1.1" id="Layer_1" xmlns="http://www.w3.org/2000/svg" xmlns:xlink="http://www.w3.org/1999/xlink" x="0px" y="0px"
	 width="64px" height="64px" viewBox="0 0 64 64" style="enable-background:new 0 0 64 64;" xml:space="preserve">
<style type="text/css">
	.st0{fill:#555555;}
</style>
<g>
	<path class="st0" d="M17.1,50.5c-0.8,0-1.7-0.3-2.3-1L0,34.8l14-14c1.3-1.3,3.4-1.3,4.6,0c1.3,1.3,1.3,3.4,0,4.6l-9.3,9.3
		l10.2,10.2c1.3,1.3,1.3,3.4,0,4.6C18.8,50.2,17.9,50.5,17.1,50.5z"/>
</g>
<g>
	<path class="st0" d="M47.7,50.5c-0.8,0-1.7-0.3-2.3-1c-1.3-1.3-1.3-3.4,0-4.6l9.3-9.3L44.5,25.4c-1.3-1.3-1.3-3.4,0-4.6
		c1.3-1.3,3.4-1.3,4.6,0L64,35.6l-14,14C49.4,50.2,48.6,50.5,47.7,50.5z"/>
</g>
<g>
	<path class="st0" d="M25.5,54c-0.4,0-0.9-0.1-1.3-0.3c-1.8-0.7-2.7-2.8-2-4.6l13.4-33.8c0.7-1.8,2.8-2.7,4.6-2
		c1.8,0.7,2.7,2.8,2,4.6L28.8,51.7C28.2,53.1,26.9,54,25.5,54z"/>
</g>
</svg>
