<svg xmlns="http://www.w3.org/2000/svg" xmlns:xlink="http://www.w3.org/1999/xlink" id="Layer_1" width="64" height="64" x="0" style="enable-background:new 0 0 64 64" y="0" version="1.1" viewBox="0 0 64 64" xml:space="preserve"><style type="text/css">.st0{fill:#52545c}</style><path d="M59.4,23.7c-1.7-1.7-4.4-1.7-6,0L41.6,35.6l-12.9-13l11.8-11.9c1.7-1.7,1.7-4.4,0-6.1s-4.4-1.7-6,0L22.7,16.5	L12.6,6.2C1.3,17.6,0.4,35.5,9.8,48l-3.6,3.6c-1.7,1.7-1.7,4.4,0,6.1c1.7,1.7,4.4,1.7,6,0l3.6-3.6c12.4,9.5,30.1,8.6,41.4-2.8	l-9.5-9.6l11.8-11.9C61,28.1,61,25.4,59.4,23.7z" class="st0"/></svg>