<?xml version="1.0" encoding="utf-8"?>
<!-- Generator: Adobe Illustrator 20.1.0, SVG Export Plug-In . SVG Version: 6.00 Build 0)  -->
<svg version="1.1" id="Layer_1" xmlns="http://www.w3.org/2000/svg" xmlns:xlink="http://www.w3.org/1999/xlink" x="0px" y="0px"
	 width="64px" height="64px" viewBox="0 0 64 64" style="enable-background:new 0 0 64 64;" xml:space="preserve">
<style type="text/css">
	.st0{fill:#52545c;}
</style>
<g>
	<path class="st0" d="M14.9,46.8c-0.7-1-1.3-2-2-3C13.6,44.9,14.2,45.9,14.9,46.8z"/>
	<path class="st0" d="M16.2,48.7c-0.4-0.6-0.9-1.2-1.3-1.9C15.4,47.5,15.8,48.1,16.2,48.7z"/>
	<path class="st0" d="M10.5,39.4c-0.4-0.8-0.8-1.6-1.2-2.4C9.7,37.9,10.1,38.7,10.5,39.4z"/>
	<path class="st0" d="M19.6,52.9c-0.4-0.5-0.9-1-1.3-1.6C18.7,51.9,19.2,52.4,19.6,52.9z"/>
	<path class="st0" d="M41.1,56.4c-0.6,0.6-1.3,1.2-1.8,1.8C39.9,57.6,40.5,57,41.1,56.4z"/>
	<path class="st0" d="M51.1,43.8c-0.6,1-1.3,2-2,3C49.8,45.9,50.4,44.9,51.1,43.8z"/>
	<path class="st0" d="M24.7,58.2c-0.6-0.6-1.2-1.2-1.8-1.8C23.5,57,24.1,57.6,24.7,58.2z"/>
	<path class="st0" d="M27,60.2c-0.4-0.3-0.7-0.6-1.1-0.9C26.3,59.6,26.6,59.9,27,60.2z"/>
	<path class="st0" d="M38.1,59.3c-0.4,0.3-0.7,0.7-1.1,0.9C37.4,59.9,37.7,59.6,38.1,59.3z"/>
	<path class="st0" d="M3.2,9.1L3.2,9.1c0,0,2.1-1,5.7-2.4C5.3,8.1,3.2,9.1,3.2,9.1z"/>
	<path class="st0" d="M49.1,46.8c-0.4,0.6-0.9,1.3-1.3,1.9C48.2,48.1,48.6,47.5,49.1,46.8z"/>
	<path class="st0" d="M32,48.7c1.7-1.7,3.7-3.8,5.6-6.3c5.9-7.7,9.5-16.2,10.8-25.5c-4.3-1.5-10-3.4-16.4-4.8
		C32,26.6,32,38.2,32,48.7z"/>
	<path class="st0" d="M54.7,37.1c-0.4,0.8-0.8,1.6-1.2,2.4C53.9,38.7,54.3,37.9,54.7,37.1z"/>
	<path class="st0" d="M45.7,51.3c-0.4,0.6-0.9,1.1-1.3,1.6C44.8,52.4,45.3,51.9,45.7,51.3z"/>
	<path class="st0" d="M60.8,9.1c0,0-2.1-1-5.7-2.4C58.7,8.1,60.8,9.1,60.8,9.1L60.8,9.1z"/>
	<path class="st0" d="M37.8,1.3C35.9,0.8,34,0.4,32,0c-2,0.4-3.9,0.8-5.8,1.3C28.1,0.8,30,0.4,32,0C34,0.4,35.9,0.8,37.8,1.3z"/>
	<path class="st0" d="M55.1,6.7C50.9,5.1,44.8,3,37.8,1.3C35.9,0.8,34,0.4,32,0c-2,0.4-3.9,0.8-5.8,1.3C19.2,3,13.1,5.1,8.9,6.7
		C5.3,8.1,3.2,9.1,3.2,9.1l0,0c0,2.9,0.2,5.7,0.5,8.4c0.1,0.5,0.1,1.1,0.2,1.6c0.5,3.7,1.4,7.1,2.4,10.3c0.9,2.8,1.9,5.3,3,7.8
		c0.4,0.8,0.8,1.6,1.2,2.4c0.8,1.5,1.6,3,2.5,4.4c0.6,1,1.3,2,2,3c0.4,0.6,0.9,1.3,1.3,1.9c0.7,0.9,1.3,1.8,2,2.6
		c0.4,0.6,0.9,1.1,1.3,1.6c1.1,1.3,2.2,2.5,3.3,3.5c0.6,0.6,1.3,1.2,1.8,1.8c0.4,0.4,0.8,0.7,1.2,1.1c0.4,0.3,0.7,0.7,1.1,0.9
		c3,2.5,5,3.8,5,3.8s2-1.3,5-3.8c0.4-0.3,0.7-0.6,1.1-0.9c0.4-0.3,0.8-0.7,1.2-1.1c0.6-0.6,1.2-1.2,1.8-1.8c1.1-1.1,2.2-2.2,3.3-3.5
		c0.4-0.5,0.9-1,1.3-1.6c0.7-0.8,1.4-1.7,2-2.6c0.4-0.6,0.9-1.2,1.3-1.9c0.7-1,1.3-2,2-3c0.9-1.4,1.7-2.9,2.5-4.4
		c0.4-0.8,0.8-1.6,1.2-2.4c1.1-2.4,2.2-5,3-7.8c1-3.2,1.8-6.7,2.4-10.3c0.1-0.5,0.1-1.1,0.2-1.6c0.3-2.7,0.5-5.5,0.5-8.4l0,0
		C60.8,9.1,58.7,8.1,55.1,6.7z M41.3,45.7c-3.4,4.3-6.8,7.5-9.3,9.6c-2.5-2.1-5.9-5.3-9.3-9.6c-7.4-9.5-11.6-20.3-12.4-32.1
		C15,11.8,23,9,32,7.1c9,1.8,17,4.7,21.7,6.5C52.8,25.4,48.6,36.2,41.3,45.7z"/>
</g>
</svg>
