<?xml version="1.0" encoding="utf-8"?>
<!-- Generator: Adobe Illustrator 20.1.0, SVG Export Plug-In . SVG Version: 6.00 Build 0)  -->
<svg version="1.1" id="Layer_1" xmlns="http://www.w3.org/2000/svg" xmlns:xlink="http://www.w3.org/1999/xlink" x="0px" y="0px"
	 width="64px" height="64px" viewBox="0 0 64 64" style="enable-background:new 0 0 64 64;" xml:space="preserve">
<style type="text/css">
	.st0{fill:#52545c;}
</style>
<g>
	<path class="st0" d="M62,16.6L56.2,14l0.8-3l-8.6-2.4v-5H43l-0.2-1.4l-9,1.4h-1.1L24.2,0l-0.8,1.8l-6.2-1.7l-1,3.6h-9v4.1L2,8.6
		l4.6,29.9l-1,3.6l-2.3,5.2l0.8,0.3L3.5,50l3.7,1v4.4h35.7l-19,0.2l16.9,4.7l-18-4.7L9.3,55.8l0.6,4l15.9-2.5L41.1,64l1.4-3.2
		l0.7,0.2l1.4-5l0.2-0.5h3.6v-1.7l2.3-0.3l-1.3-8.4L62,16.6z M7.2,23L5.4,11l1.8-0.3V23z M45.5,43H10.1V6.6h35.4V43z M58.1,18.1
		l-8.2,18.7l5.5-19.9L58.1,18.1z M48.4,19.2l0.1-0.3c0.2-0.6,0.1-1.2-0.1-1.7v-5.5l5,1.4l-5,18.1V19.2z"/>
	<path class="st0" d="M16.1,23.6h8.4c0.9,0,1.7-0.7,1.7-1.7v-8.4c0-0.9-0.7-1.7-1.7-1.7h-8.4c-0.9,0-1.7,0.7-1.7,1.7v8.4
		C14.4,22.8,15.1,23.6,16.1,23.6z"/>
	<path class="st0" d="M31.2,38.4h8.4c0.9,0,1.7-0.7,1.7-1.7v-8.4c-0.1-0.9-0.8-1.7-1.7-1.7h-8.4c-0.9,0-1.7,0.7-1.7,1.7v8.4
		C29.5,37.6,30.2,38.4,31.2,38.4z"/>
	<path class="st0" d="M31.2,23.6h8.4c0.9,0,1.7-0.7,1.7-1.7v-8.4c0-0.9-0.7-1.7-1.7-1.7h-8.4c-0.9,0-1.7,0.7-1.7,1.7v8.4
		C29.5,22.8,30.2,23.6,31.2,23.6z"/>
	<path class="st0" d="M16.1,38.4h8.4c0.9,0,1.7-0.7,1.7-1.7v-8.4c0-0.9-0.7-1.7-1.7-1.7h-8.4c-0.9,0-1.7,0.7-1.7,1.7v8.4
		C14.4,37.6,15.1,38.4,16.1,38.4z"/>
</g>
</svg>
