<?xml version="1.0" encoding="utf-8"?>
<!-- Generator: Adobe Illustrator 20.1.0, SVG Export Plug-In . SVG Version: 6.00 Build 0)  -->
<svg version="1.1" id="Layer_1" xmlns="http://www.w3.org/2000/svg" xmlns:xlink="http://www.w3.org/1999/xlink" x="0px" y="0px"
	 width="64px" height="64px" viewBox="0 0 64 64" style="enable-background:new 0 0 64 64;" xml:space="preserve">
<style type="text/css">
  .st0{fill:#52545c;}
</style>
<g>
	<g>
		<path class="st0" d="M32,64c4.6,0,8.2-3.7,8.2-8.2H23.8C23.8,60.3,27.4,64,32,64z"/>
	</g>
	<path class="st0" d="M53.5,42.7V32.3c0-12.8-6.7-23.5-15.9-26.7C37.6,2.5,35.1,0,32,0c-3.1,0-5.6,2.5-5.6,5.6
		c-9.2,3.2-15.9,13.9-15.9,26.7v10.4C8,42.8,6,44.8,6,47.3s2,4.5,4.5,4.6v0h0.1h42.8h0.1v0c2.5,0,4.5-2.1,4.5-4.6
		C58,44.8,56,42.8,53.5,42.7z"/>
</g>
</svg>
