<svg xmlns="http://www.w3.org/2000/svg" xmlns:xlink="http://www.w3.org/1999/xlink" id="Layer_1" width="64" height="64" x="0" style="enable-background:new 0 0 64 64" y="0" version="1.1" viewBox="0 0 64 64" xml:space="preserve"><style type="text/css">.st0{fill:#555}.st1{fill:url(#SVGID_1_)}</style><g><path d="M52.8,32.4c0,0-0.1-0.1-0.2-0.1c-0.8-0.5-0.7-1.8-0.5-2.5c0.6-0.7,1.2-1.7,1.5-3.4c0.1-0.5,0.2-0.9,0.5-1.3 c0.5-0.7,0.8-1.7,0.8-2.7c0-0.7-0.2-1.4-0.5-1.9c-0.1-0.1-0.2-0.2-0.2-0.3c0.4-1.1,0.9-2.7,0.4-4.4c-0.7-3-4.7-4.4-8.1-4.4 c-7.1,0-7.8,3.6-8,4.3c-0.4,1.6-0.1,3.2,0.4,4.4c-0.1,0.1-0.2,0.2-0.3,0.4c-0.3,0.5-0.5,1.2-0.5,2c0,0.9,0.3,1.9,0.8,2.6 c0.3,0.4,0.5,0.8,0.5,1.3c0.3,1.7,0.9,2.8,1.5,3.4c0,0.2,0.1,0.4,0.1,0.7c2.2,1.5,3.1,2.7,3.5,3.7H47c2.7,0,4.8,2.2,4.8,4.8v3.7 h3.7c2.6,0,4.8,2.1,4.8,4.8c1.1-0.9,1.8-2.3,1.8-3.8v-5.1C62.1,38.1,62.1,36.4,52.8,32.4z" class="st0"/><path d="M31.3,42.8H35v-3.7c0-2.7,2.2-4.8,4.8-4.8h2.5c-0.9-1.3-3.7-3.4-11.7-6.8c-0.1,0-0.1-0.1-0.3-0.2 c-1.1-0.6-0.9-2.3-0.6-3.3c0.8-0.9,1.6-2.2,1.9-4.5c0.1-0.6,0.3-1.2,0.7-1.7c0.7-0.9,1.1-2.2,1.1-3.5c0-1-0.2-1.9-0.7-2.5 c-0.1-0.2-0.2-0.3-0.3-0.4c0.5-1.4,1.1-3.5,0.6-5.7C31.9,1.8,26.8,0,22.4,0c-4,0-7,1.4-8.2,3.7c-1.1,0.5-1.7,1.3-2,1.9 c-1,1.9-0.3,4.2,0.3,5.8c-0.1,0.2-0.3,0.3-0.4,0.5c-0.5,0.7-0.7,1.6-0.7,2.6c0,1.2,0.4,2.5,1,3.4c0.4,0.5,0.6,1.1,0.7,1.7 c0.3,2.3,1.2,3.6,1.9,4.5c0.2,1,0.4,2.6-0.6,3.2c-0.1,0.1-0.2,0.1-0.2,0.1C1.9,32.6,1.9,34.8,1.9,35.6v6.7c0,3.6,2.9,6.4,6.4,6.4 h13.8h4.3v-1.1C26.5,45,28.6,42.8,31.3,42.8z" class="st0"/><linearGradient id="SVGID_1_" x1="43.45" x2="43.45" y1="-15.103" y2="39.502" gradientTransform="matrix(1 0 0 -1 0 66)" gradientUnits="userSpaceOnUse"><stop offset="0" style="stop-color:#fff23a"/><stop offset=".04" style="stop-color:#fee62d"/><stop offset=".117" style="stop-color:#fed41a"/><stop offset=".196" style="stop-color:#fdc90f"/><stop offset=".281" style="stop-color:#fdc60b"/><stop offset=".668" style="stop-color:#f28f3f"/><stop offset=".888" style="stop-color:#ed693c"/><stop offset="1" style="stop-color:#e83e39"/></linearGradient><path d="M55.5,46.9h-4.3h-0.3h-3.2V39c0-0.4-0.3-0.7-0.7-0.7h-2.3h-1.9h-2.9c-0.4,0-0.7,0.3-0.7,0.7v7.9H39h-7.7 c-0.4,0-0.7,0.3-0.7,0.7v1.1v6c0,0.4,0.3,0.7,0.7,0.7h3.3h4.6v2.7v1.1v4c0,0.4,0.3,0.7,0.7,0.7H47c0.4,0,0.7-0.3,0.7-0.7v-7.9h7.9 c0.4,0,0.7-0.3,0.7-0.7v-6v-1.1C56.2,47.2,55.9,46.9,55.5,46.9z" class="st1"/></g></svg>