<?xml version="1.0" encoding="utf-8"?>
<!-- Generator: Adobe Illustrator 20.1.0, SVG Export Plug-In . SVG Version: 6.00 Build 0)  -->
<svg version="1.1" id="Layer_1" xmlns="http://www.w3.org/2000/svg" xmlns:xlink="http://www.w3.org/1999/xlink" x="0px" y="0px"
	 width="64px" height="64px" viewBox="0 0 64 64" style="enable-background:new 0 0 64 64;" xml:space="preserve">
<style type="text/css">
  .st0{fill:#f7f8fa;}
	.st1{fill:url(#SVGID_1_);}
	.st2{fill:url(#SVGID_2_);}
</style>
<path class="st0" d="M35.4,30.2c-1.5,2.6-2.7,3.9-3.8,3.9c-0.3,0-0.6-0.2-0.9-0.5s-0.5-0.8-0.7-1.5L27.6,25c2.1-3.2,3.2-4.9,3.5-5.2
	c0.3-0.3,0.5-0.4,0.8-0.4c0.2,0,0.4,0.2,0.6,0.7c0.5,1.2,1.3,1.8,2.4,1.8c0.8,0,1.5-0.3,2-0.8s0.8-1.3,0.8-2.1
	c0-0.9-0.3-1.6-0.9-2.2c-0.6-0.6-1.4-0.8-2.3-0.8c-1.1,0-2.2,0.4-3.3,1.3c-1.1,0.9-2.5,2.8-4.3,5.7c-0.8-2.5-1.3-3.9-1.5-4.3
	c-0.4-1-1-1.7-1.5-2.1c-0.6-0.4-1.3-0.6-2.2-0.6c-1.2,0-2.4,0.5-3.5,1.5s-2.1,2.6-2.9,4.8l1.4,0.9c1-2.4,1.9-3.6,2.8-3.6
	c0.5,0,0.9,0.7,1.4,2l2.5,7.3c-1,1.8-1.9,3.1-2.6,4c-0.7,0.9-1.2,1.4-1.6,1.4c-0.2,0-0.5-0.3-0.7-0.9c-0.3-0.8-0.6-1.3-1-1.6
	c-0.4-0.3-0.9-0.4-1.5-0.4c-0.8,0-1.4,0.3-2,0.8c-0.5,0.6-0.8,1.2-0.8,2.1c0,0.9,0.3,1.7,1,2.3s1.6,0.9,2.7,0.9
	c1.3,0,2.4-0.4,3.4-1.3c1-0.9,2.3-2.6,3.9-5.1c1,2.9,1.7,4.6,2.1,5.1c0.7,0.8,1.7,1.3,2.9,1.3c1.3,0,2.7-0.5,4-1.6
	c1.4-1,2.7-2.6,3.9-4.8L35.4,30.2z"/>
<path class="st0" d="M12.7,42.7C12.6,42.7,12.6,42.7,12.7,42.7c-0.5-0.2-0.9-0.4-1.2-0.7s-0.4-0.7-0.4-1.2v-9.4
	c0-1.4-0.4-2.5-1.1-3.2c-0.7-0.8-1.9-1.3-3.6-1.5v-0.2C8,26.3,9.2,25.8,10,25c0.7-0.8,1.1-1.9,1.1-3.4v-9.3c0-0.5,0.1-0.9,0.4-1.2
	c0.2-0.3,0.6-0.5,1-0.6c0.1,0,0.1,0,0.2,0c1.3-0.3,2.2-1.4,2.2-2.7V7.7c0-1.6-1.4-2.9-3-2.7C10.7,5.1,9.8,5.3,9,5.5
	c-1.4,0.4-2.5,1.1-3.1,2s-1,2.2-1,4v8.9c0,1-0.4,1.9-1.3,2.4c-0.4,0.2-0.8,0.4-1.2,0.6C0.9,23.8,0,25,0,26.4v0.4
	c0,1.4,0.9,2.6,2.3,3c0.4,0.1,0.8,0.3,1.2,0.6c0.9,0.6,1.3,1.4,1.3,2.4v8.8c0,1.8,0.3,3.2,0.9,4.1c0.6,0.9,1.7,1.6,3.1,2
	c0.8,0.2,1.8,0.4,2.9,0.5c1.6,0.1,3.1-1.1,3.1-2.8C14.8,44.2,13.9,43.1,12.7,42.7z"/>
<path class="st0" d="M43.2,34.6c0-2.6,2.1-4.7,4.7-4.7H49c1.3-0.5,2.2-1.6,2.2-3v-0.4c0-1.4-1-2.6-2.3-3.1c-0.5-0.1-0.8-0.3-1.2-0.6
	c-0.8-0.6-1.3-1.4-1.3-2.4v-8.9c0-1.8-0.3-3.1-1-4c-0.6-0.9-1.7-1.5-3.1-2c-0.8-0.2-1.8-0.4-2.9-0.5c-1.6-0.1-3,1.1-3,2.8v0.1
	c0,1.3,0.9,2.4,2.2,2.7c0.1,0,0.1,0,0.2,0c0.4,0.1,0.7,0.3,1,0.6s0.4,0.7,0.4,1.2v9.3c0,1.5,0.4,2.6,1.1,3.4
	c0.7,0.8,1.9,1.3,3.6,1.5v0.2c-1.7,0.3-2.8,0.8-3.6,1.5c-0.7,0.8-1.1,1.8-1.1,3.2v6.7h3C43.2,38.2,43.2,34.6,43.2,34.6z"/>
<linearGradient id="SVGID_1_" gradientUnits="userSpaceOnUse" x1="39.25" y1="-9.0259" x2="39.25" y2="48.6068" gradientTransform="matrix(1 0 0 -1 0 66)">
	<stop  offset="0" style="stop-color:#FFF23A"/>
	<stop  offset="4.010540e-02" style="stop-color:#FEE62D"/>
	<stop  offset="0.1171" style="stop-color:#FED41A"/>
	<stop  offset="0.1964" style="stop-color:#FDC90F"/>
	<stop  offset="0.2809" style="stop-color:#FDC60B"/>
	<stop  offset="0.6685" style="stop-color:#F28F3F"/>
	<stop  offset="0.8876" style="stop-color:#ED693C"/>
	<stop  offset="1" style="stop-color:#E83E39"/>
</linearGradient>
<path class="st1" d="M39.5,42.3c-0.2,0-0.4,0.1-0.5,0.3C39.1,42.5,39.3,42.5,39.5,42.3C39.4,42.4,39.4,42.3,39.5,42.3z"/>
<linearGradient id="SVGID_2_" gradientUnits="userSpaceOnUse" x1="51.4" y1="-10.208" x2="51.4" y2="43.3733" gradientTransform="matrix(1 0 0 -1 0 66)">
	<stop  offset="0" style="stop-color:#FFF23A"/>
	<stop  offset="4.010540e-02" style="stop-color:#FEE62D"/>
	<stop  offset="0.1171" style="stop-color:#FED41A"/>
	<stop  offset="0.1964" style="stop-color:#FDC90F"/>
	<stop  offset="0.2809" style="stop-color:#FDC60B"/>
	<stop  offset="0.6685" style="stop-color:#F28F3F"/>
	<stop  offset="0.8876" style="stop-color:#ED693C"/>
	<stop  offset="1" style="stop-color:#E83E39"/>
</linearGradient>
<path class="st2" d="M63.3,42.3h-4.2h-0.3h-3.2v-7.7c0-0.4-0.3-0.7-0.7-0.7h-7c-0.4,0-0.7,0.3-0.7,0.7v7.7h-0.8h-6.9c0,0,0,0-0.1,0
	l-0.1,0.1c-0.1,0.1-0.2,0.1-0.4,0.2c-0.1,0.1-0.1,0.2-0.1,0.4v5.2V50c0,0.4,0.3,0.7,0.7,0.7h7.7v2.7v1.1v3.9c0,0.4,0.3,0.7,0.7,0.7
	h7c0.4,0,0.7-0.3,0.7-0.7v-7.7h7.7c0.4,0,0.7-0.3,0.7-0.7v-7C64,42.6,63.7,42.3,63.3,42.3z"/>
</svg>
