<?xml version="1.0" encoding="utf-8"?>
<!-- Generator: Adobe Illustrator 20.1.0, SVG Export Plug-In . SVG Version: 6.00 Build 0)  -->
<svg version="1.1" id="Layer_1" xmlns="http://www.w3.org/2000/svg" xmlns:xlink="http://www.w3.org/1999/xlink" x="0px" y="0px"
	 width="64px" height="64px" viewBox="0 0 64 64" style="enable-background:new 0 0 64 64;" xml:space="preserve">
<style type="text/css">
  .st0{fill:#52545c;}
	.st1{fill:url(#SVGID_1_);}
</style>
<path class="st0" d="M8.1,26.5h15.6c2.8,0,5.2-2.3,5.2-5.2V5.8c0-2.8-2.3-5.2-5.2-5.2H8.1c-2.8,0-5.2,2.3-5.2,5.2v15.6
	C2.9,24.2,5.3,26.5,8.1,26.5z"/>
<path class="st0" d="M51.9,0.6H36.3c-2.8,0-5.2,2.3-5.2,5.2v15.6c0,2.8,2.3,5.2,5.2,5.2h15.6c2.8,0,5.2-2.3,5.2-5.2V5.8
	C57.1,2.9,54.7,0.6,51.9,0.6z"/>
<path class="st0" d="M9.8,50.6c-1-2.4-0.4-5,1.4-6.8l12.8-12.8l1.6-1.6c0.2-0.2,0.4-0.3,0.6-0.5c-0.7-0.4-1.6-0.6-2.5-0.6H8.1
	c-2.8,0-5.2,2.3-5.2,5.2v15.6c0,2.8,2.3,5.2,5.2,5.2h5.4C11.9,53.5,10.5,52.2,9.8,50.6z"/>
<path class="st0" d="M51.9,28.2H36.3c-0.9,0-1.7,0.2-2.5,0.6c0.2,0.2,0.4,0.3,0.6,0.5l1.6,1.6l3.8,3.8l2.6,2.6l6.4,6.4
	c1.8,1.8,2.3,4.5,1.4,6.8c-0.7,1.7-2.1,2.9-3.7,3.5h5.4c2.8,0,5.2-2.3,5.2-5.2V33.3C57.1,30.5,54.7,28.2,51.9,28.2z"/>
<linearGradient id="SVGID_1_" gradientUnits="userSpaceOnUse" x1="30" y1="77.0702" x2="30" y2="17.5">
	<stop  offset="0" style="stop-color:#FFF23A"/>
	<stop  offset="4.010540e-02" style="stop-color:#FEE62D"/>
	<stop  offset="0.1171" style="stop-color:#FED41A"/>
	<stop  offset="0.1964" style="stop-color:#FDC90F"/>
	<stop  offset="0.2809" style="stop-color:#FDC60B"/>
	<stop  offset="0.6685" style="stop-color:#F28F3F"/>
	<stop  offset="0.8876" style="stop-color:#ED693C"/>
	<stop  offset="1" style="stop-color:#E83E39"/>
</linearGradient>
<path class="st1" d="M45.3,47.3l-6.4-6.4l-2.6-2.6l-3.8-3.8l-1.3-1.3l-0.3-0.3c-0.2-0.2-0.6-0.4-0.9-0.4s-0.7,0.1-0.9,0.4l-0.3,0.3
	l-1.3,1.3L14.7,47.3c-0.8,0.8-0.2,2.2,0.9,2.2h6.5c0.7,0,1.3,0.6,1.3,1.3v0.4v2.9v2.4v3.1v3.2c0,0.7,0.6,1.3,1.3,1.3h10.6
	c0.7,0,1.3-0.6,1.3-1.3v-3.2v-5.4v-3.4c0-0.7,0.6-1.3,1.3-1.3h6.5C45.5,49.4,46.1,48.1,45.3,47.3z"/>
</svg>
