<?xml version="1.0" encoding="utf-8"?>
<!-- Generator: Adobe Illustrator 20.1.0, SVG Export Plug-In . SVG Version: 6.00 Build 0)  -->
<svg version="1.1" id="Layer_1" xmlns="http://www.w3.org/2000/svg" xmlns:xlink="http://www.w3.org/1999/xlink" x="0px" y="0px"
	 width="64px" height="64px" viewBox="0 0 64 64" style="enable-background:new 0 0 64 64;" xml:space="preserve">
<style type="text/css">
	.st0{fill:#52545c;}
</style>
<g>
	<ellipse class="st0" cx="30.2" cy="33.8" rx="0" ry="0"/>
	<path class="st0" d="M59.6,4.4c-5.9-5.9-15.4-5.9-21.2,0L27.7,15c3.4-0.2,6.8,0.4,9.9,1.9l6.6-6.6c2.6-2.6,6.9-2.6,9.5,0
		s2.6,6.9,0,9.5l-6.6,6.6l-3.8,3.8l-3.5,3.5c-1.1,1.1-2.6,1.8-4,1.9c-1.9,0.2-4-0.4-5.4-1.9l0,0l0,0c-0.7-0.7-1.8-0.7-2.4,0
		l-4.6,4.6c0.4,0.4,0.7,0.9,1.1,1.3c0.4,0.4,0.8,0.8,1.3,1.1c1.4,1.1,3,1.9,4.6,2.5c3.9,1.3,8.3,1,11.9-1.1c1.2-0.7,2.4-1.5,3.4-2.5
		l3.4-3.4l10.6-10.6C65.5,19.8,65.5,10.3,59.6,4.4z"/>
	<ellipse class="st0" cx="33.8" cy="30.2" rx="0" ry="0"/>
	<path class="st0" d="M26.4,47.1l-6.6,6.6c-2.6,2.6-6.9,2.6-9.5,0s-2.6-6.9,0-9.5l6.6-6.6l3.8-3.8l3.5-3.5c1.1-1.1,2.6-1.8,4-1.9
		c1.9-0.2,4,0.4,5.4,1.9l0,0l0,0c0.7,0.7,1.8,0.7,2.4,0l4.6-4.6c-0.4-0.4-0.7-0.9-1.1-1.3c-0.4-0.4-0.8-0.8-1.3-1.1
		c-1.4-1.1-3-1.9-4.6-2.5c-3.9-1.3-8.3-1-11.9,1.1c-1.2,0.7-2.4,1.5-3.4,2.5L15,27.7L4.4,38.4c-5.9,5.9-5.9,15.4,0,21.2
		s15.4,5.9,21.2,0L36.3,49C32.9,49.2,29.5,48.6,26.4,47.1z"/>
</g>
</svg>
