<svg xmlns="http://www.w3.org/2000/svg" xmlns:xlink="http://www.w3.org/1999/xlink" id="Layer_1" width="64" height="64" x="0" style="enable-background:new 0 0 64 64" y="0" version="1.1" viewBox="0 0 64 64" xml:space="preserve"><style type="text/css">.st0{fill:#52545c}</style><path d="M23,48H3.2C1.4,48,0,49.3,0,51s1.4,3,3.2,3H23c-0.5-0.9-0.8-1.9-0.8-3S22.4,48.9,23,48z" class="st0"/><path d="M34.7,54h26.1c1.8,0,3.2-1.3,3.2-3s-1.4-3-3.2-3H34.7c0.5,0.9,0.8,1.9,0.8,3S35.2,53.1,34.7,54z" class="st0"/><circle cx="28.8" cy="51" r="8" class="st0"/><path d="M53.3,35h7.5c1.8,0,3.2-1.3,3.2-3s-1.4-3-3.2-3h-7.5c0.5,0.9,0.8,1.9,0.8,3C54.2,33.1,53.9,34.1,53.3,35z" class="st0"/><path d="M41.6,29H3.2C1.4,29,0,30.3,0,32s1.4,3,3.2,3h38.4c-0.5-0.9-0.8-1.9-0.8-3C40.8,30.9,41.1,29.9,41.6,29z" class="st0"/><circle cx="47.5" cy="32" r="8" class="st0"/><path d="M26.8,16h34c1.8,0,3.2-1.3,3.2-3s-1.4-3-3.2-3h-34c0.5,0.9,0.8,1.9,0.8,3S27.4,15.1,26.8,16z" class="st0"/><path d="M15.1,10H3.2C1.4,10,0,11.4,0,13s1.4,3,3.2,3h11.9c-0.5-0.9-0.8-1.9-0.8-3S14.6,10.9,15.1,10z" class="st0"/><circle cx="21" cy="13" r="8" class="st0"/></svg>