<?xml version="1.0" encoding="utf-8"?>
<!-- Generator: Adobe Illustrator 20.1.0, SVG Export Plug-In . SVG Version: 6.00 Build 0)  -->
<svg version="1.1" id="Layer_1" xmlns="http://www.w3.org/2000/svg" xmlns:xlink="http://www.w3.org/1999/xlink" x="0px" y="0px"
	 width="64px" height="64px" viewBox="0 0 64 64" style="enable-background:new 0 0 64 64;" xml:space="preserve">
<style type="text/css">
	.st0{fill:#555555;}
</style>
<g>
	<g>
		<path class="st0" d="M18.8,49.8c-0.7,0-1.3-0.3-1.8-0.8L0,32l16-16c1-1,2.7-1,3.7,0c1,1,1,2.7,0,3.7L7.3,32l13.3,13.3
			c1,1,1,2.7,0,3.7C20.1,49.5,19.5,49.8,18.8,49.8z"/>
	</g>
	<g>
		<path class="st0" d="M46.2,49.8c-0.7,0-1.3-0.3-1.8-0.8c-1-1-1-2.7,0-3.7l12.3-12.3L43.3,19.7c-1-1-1-2.7,0-3.7c1-1,2.7-1,3.7,0
			l17,17L48,49C47.5,49.5,46.9,49.8,46.2,49.8z"/>
	</g>
	<g>
		<path class="st0" d="M24.7,53.7c-0.3,0-0.6-0.1-1-0.2c-1.3-0.5-2-2-1.5-3.4l14.9-37.6c0.5-1.3,2-2,3.4-1.5c1.3,0.5,2,2,1.5,3.4
			L27.1,52C26.7,53.1,25.7,53.7,24.7,53.7z"/>
	</g>
</g>
</svg>
