<svg xmlns="http://www.w3.org/2000/svg" xmlns:xlink="http://www.w3.org/1999/xlink" id="Layer_1" width="64" height="64" x="0" style="enable-background:new -479 353 64 64" y="0" version="1.1" viewBox="-479 353 64 64" xml:space="preserve"><style type="text/css">.st0{fill:#52545c}</style><g><path d="M-470.4,410h34.4c4.7,0,8.6-3.8,8.6-8.6v-17.3l-4.2,4.2v13.1c0,2.4-1.9,4.3-4.3,4.3h-34.4 c-2.4,0-4.3-1.9-4.3-4.3V376c0-2.4,1.9-4.3,4.3-4.3h32.1l4.2-4.2h-36.3c-4.7,0-8.6,3.8-8.6,8.6v25.5 C-479,406.2-475.2,410-470.4,410z" class="st0"/><rect width="8.7" height="28.8" x="-438.3" y="364.5" class="st0" transform="matrix(-0.7071 -0.7071 0.7071 -0.7071 -1008.7032 339.9824)"/><path d="M-425.5,364.3l6.2,6.2l1.4-1.4l1.6-1.6c1.7-1.7,1.7-4.5,0-6.2c-1.7-1.7-4.5-1.7-6.2,0l-1.6,1.6L-425.5,364.3z" class="st0"/><polygon points="-444.8 393.9 -442.3 393.5 -448.5 387.3 -448.9 389.8 -449.8 394.8" class="st0"/></g></svg>