<?xml version="1.0" encoding="utf-8"?>
<!-- Generator: Adobe Illustrator 19.0.1, SVG Export Plug-In . SVG Version: 6.00 Build 0)  -->
<!DOCTYPE svg PUBLIC "-//W3C//DTD SVG 1.1//EN" "http://www.w3.org/Graphics/SVG/1.1/DTD/svg11.dtd">
<svg version="1.1" id="Layer_1" xmlns="http://www.w3.org/2000/svg" xmlns:xlink="http://www.w3.org/1999/xlink" x="0px" y="0px"
	 width="121px" height="100px" viewBox="0 0 121 100" style="enable-background:new 0 0 100 100;" xml:space="preserve">
<style type="text/css">
	.st0{fill:#FFFFFF;}
	.st1{fill:#52545c;}
</style>
<g>
	<path class="st0" d="M94.3,50C94.3,25.6,74.4,5.7,50,5.7S5.7,25.6,5.7,50S25.6,94.3,50,94.3S94.3,74.4,94.3,50z"/>
	<path class="st1" d="M50,0C22.4,0,0,22.4,0,50s22.4,50,50,50c27.6,0,50-22.4,50-50S77.6,0,50,0z M5.7,50C5.7,25.6,25.6,5.7,50,5.7
		S94.3,25.6,94.3,50S74.4,94.3,50,94.3S5.7,74.4,5.7,50z"/>
	<g>
		<path class="st1" d="M58.2,51.9c1.2-2.9,1-6.4-1-9.1c-1.5-2.1-3.7-3.3-6.1-3.7c-1.2-0.2-2.5-0.1-3.7,0.2l4,5.5
			c1.1,1.5,0.8,3.7-0.8,4.8c-0.8,0.6-1.7,0.8-2.6,0.6c-0.9-0.1-1.7-0.6-2.2-1.4l-4-5.5c-2,3.1-1.9,7.2,0.4,10.4
			c1.5,2.1,3.7,3.3,6.1,3.7c0.8,0.1,1.5,0.1,2.3,0.1l12.8,17.6c0.8,1.1,1.9,1.7,3.1,1.9s2.5-0.1,3.5-0.9c2.1-1.5,2.6-4.5,1-6.6
			L58.2,51.9z M67.9,71c1,0.2,1.7,1.1,1.5,2.1c-0.2,1-1.1,1.7-2.1,1.5s-1.7-1.1-1.5-2.1C65.9,71.6,66.9,70.9,67.9,71z"/>
		<path class="st1" d="M61.5,50.9c0,0.1-0.1,0.3-0.1,0.4C61.4,51.2,61.4,51.1,61.5,50.9z"/>
		<path class="st1" d="M59.9,41.6c0.1,0.1,0.1,0.2,0.2,0.3C60,41.9,60,41.7,59.9,41.6z"/>
		<path class="st1" d="M61.6,50.1c0,0.2-0.1,0.5-0.1,0.7c0.2-0.8,0.3-1.7,0.3-2.6c0-2.3-0.6-4.4-1.7-6.2
			C61.5,44.3,62.1,47.2,61.6,50.1z"/>
		<path class="st1" d="M59.7,41.3C59.7,41.4,59.7,41.4,59.7,41.3C59.7,41.4,59.7,41.4,59.7,41.3z"/>
		<path class="st1" d="M73.4,59.1l1.9-5.7l-6.4-3c0.1-0.7,0.1-1.5,0.1-2.2c0-0.7,0-1.4-0.1-2.1l6.4-3l-1.9-5.7l-6.9,1.3
			c-0.7-1.3-1.6-2.4-2.5-3.5l3.4-6.2l-4.9-3.5l-4.8,5.1c-1.3-0.6-2.7-1.1-4.1-1.4l-0.9-7h-6l-0.9,7c-1.4,0.3-2.8,0.7-4.1,1.3
			l-4.8-5.1L32,28.9l3.4,6.2c-1,1.1-1.8,2.2-2.5,3.5L26,37.2L24.1,43l6.4,3c-0.1,0.7-0.1,1.5-0.1,2.2c0,0.7,0,1.4,0.1,2.1l-6.4,3
			l1.9,5.7l6.9-1.3c0.7,1.3,1.6,2.4,2.5,3.5L32,67.3l4.9,3.5l4.8-5.1c1.3,0.6,2.7,1.1,4.1,1.4l0.9,7h6l0.9-7c0.2,0,0.4-0.1,0.6-0.1
			l-4.8-6.6c-0.5,0-1.1-0.1-1.6-0.1c-6.7-1-11.2-7.3-10.2-14c1-6.7,7.3-11.2,14-10.2c3.5,0.5,6.4,2.5,8.2,5.2c0,0,0,0,0.1,0.1
			c0.1,0.1,0.1,0.2,0.1,0.2c0.1,0.1,0.1,0.2,0.2,0.3c0,0,0,0,0,0c1.1,1.8,1.7,3.9,1.7,6.2c0,0.9-0.1,1.8-0.3,2.6c0,0,0,0.1,0,0.1
			c0,0.1-0.1,0.3-0.1,0.4c0,0.1,0,0.1-0.1,0.2l4.9,6.7c0.1-0.1,0.2-0.3,0.3-0.4L73.4,59.1z"/>
	</g>
</g>
</svg>
