<svg xmlns="http://www.w3.org/2000/svg" xmlns:xlink="http://www.w3.org/1999/xlink" id="Layer_1" width="64" height="64" x="0" style="enable-background:new 0 0 64 64" y="0" version="1.1" viewBox="0 0 64 64" xml:space="preserve"><style type="text/css">.st0{fill:#52545c}.st1{fill:url(#SVGID_1_)}.st2{fill:url(#SVGID_2_)}.st3{fill:url(#SVGID_3_)}.st4{fill:url(#SVGID_4_)}.st5{fill:url(#SVGID_5_)}.st6{fill:url(#SVGID_6_)}</style><g><g><path d="M32,59.4c3.3,0,6-2.7,6-6H26C26,56.7,28.7,59.4,32,59.4z" class="st0"/></g></g><g><path d="M47.7,43.8v-7.6c0-9.4-4.9-17.2-11.6-19.6c0-2.3-1.8-4.1-4.1-4.1c-2.3,0-4.1,1.8-4.1,4.1 c-6.7,2.3-11.6,10.2-11.6,19.6v7.6c-1.8,0-3.3,1.5-3.3,3.3c0,1.8,1.5,3.3,3.3,3.3v0h0h31.4h0v0c1.8,0,3.3-1.5,3.3-3.3 C51,45.3,49.6,43.9,47.7,43.8z" class="st0"/></g><g><linearGradient id="SVGID_1_" x1="52.098" x2="52.098" y1="33.78" y2="-1.952" gradientUnits="userSpaceOnUse"><stop offset="0" style="stop-color:#fff33b"/><stop offset=".059" style="stop-color:#ffe029"/><stop offset=".13" style="stop-color:#ffd218"/><stop offset=".203" style="stop-color:#fec90f"/><stop offset=".281" style="stop-color:#fdc70c"/><stop offset=".668" style="stop-color:#f3903f"/><stop offset=".888" style="stop-color:#ed683c"/><stop offset="1" style="stop-color:#e93e3a"/></linearGradient><path d="M56.4,24.4c-0.7,0-1.3-0.4-1.5-1c-1.8-4.3-4.6-8.2-8.1-11.3c-0.7-0.6-0.8-1.7-0.2-2.4c0.6-0.7,1.7-0.8,2.4-0.2 c3.9,3.4,7.1,7.8,9,12.6c0.4,0.9-0.1,1.8-0.9,2.2C56.8,24.4,56.6,24.4,56.4,24.4z" class="st1"/></g><g><linearGradient id="SVGID_2_" x1="46.988" x2="46.988" y1="33.78" y2="-1.952" gradientUnits="userSpaceOnUse"><stop offset="0" style="stop-color:#fff33b"/><stop offset=".059" style="stop-color:#ffe029"/><stop offset=".13" style="stop-color:#ffd218"/><stop offset=".203" style="stop-color:#fec90f"/><stop offset=".281" style="stop-color:#fdc70c"/><stop offset=".668" style="stop-color:#f3903f"/><stop offset=".888" style="stop-color:#ed683c"/><stop offset="1" style="stop-color:#e93e3a"/></linearGradient><path d="M50.3,26.9c-0.7,0-1.3-0.4-1.5-1c-1.4-3.3-3.5-6.3-6.2-8.6c-0.7-0.6-0.8-1.7-0.2-2.4c0.6-0.7,1.7-0.8,2.4-0.2 c3.1,2.7,5.5,6.1,7.1,9.9c0.4,0.9-0.1,1.8-0.9,2.2C50.7,26.8,50.5,26.9,50.3,26.9z" class="st2"/></g><g><linearGradient id="SVGID_3_" x1="57.468" x2="57.468" y1="33.78" y2="-1.952" gradientUnits="userSpaceOnUse"><stop offset="0" style="stop-color:#fff33b"/><stop offset=".059" style="stop-color:#ffe029"/><stop offset=".13" style="stop-color:#ffd218"/><stop offset=".203" style="stop-color:#fec90f"/><stop offset=".281" style="stop-color:#fdc70c"/><stop offset=".668" style="stop-color:#f3903f"/><stop offset=".888" style="stop-color:#ed683c"/><stop offset="1" style="stop-color:#e93e3a"/></linearGradient><path d="M62.3,21.4c-0.7,0-1.3-0.4-1.5-1c-2-4.9-5.2-9.4-9.3-12.9c-0.7-0.6-0.8-1.7-0.2-2.4C52,4.5,53,4.4,53.7,5 c4.4,3.8,7.9,8.7,10.2,14.1c0.4,0.9-0.1,1.8-0.9,2.2C62.8,21.4,62.5,21.4,62.3,21.4z" class="st3"/></g><g><linearGradient id="SVGID_4_" x1="11.902" x2="11.902" y1="33.78" y2="-1.952" gradientUnits="userSpaceOnUse"><stop offset="0" style="stop-color:#fff33b"/><stop offset=".059" style="stop-color:#ffe029"/><stop offset=".13" style="stop-color:#ffd218"/><stop offset=".203" style="stop-color:#fec90f"/><stop offset=".281" style="stop-color:#fdc70c"/><stop offset=".668" style="stop-color:#f3903f"/><stop offset=".888" style="stop-color:#ed683c"/><stop offset="1" style="stop-color:#e93e3a"/></linearGradient><path d="M7.6,24.4c-0.2,0-0.4,0-0.6-0.1c-0.9-0.4-1.3-1.3-0.9-2.2c2-4.8,5.1-9.2,9-12.6c0.7-0.6,1.8-0.5,2.4,0.2 c0.6,0.7,0.5,1.8-0.2,2.4c-3.5,3.1-6.4,7-8.1,11.3C8.9,24,8.3,24.4,7.6,24.4z" class="st4"/></g><g><linearGradient id="SVGID_5_" x1="17.012" x2="17.012" y1="33.78" y2="-1.952" gradientUnits="userSpaceOnUse"><stop offset="0" style="stop-color:#fff33b"/><stop offset=".059" style="stop-color:#ffe029"/><stop offset=".13" style="stop-color:#ffd218"/><stop offset=".203" style="stop-color:#fec90f"/><stop offset=".281" style="stop-color:#fdc70c"/><stop offset=".668" style="stop-color:#f3903f"/><stop offset=".888" style="stop-color:#ed683c"/><stop offset="1" style="stop-color:#e93e3a"/></linearGradient><path d="M13.7,26.9c-0.2,0-0.4,0-0.6-0.1c-0.9-0.4-1.3-1.3-0.9-2.2c1.5-3.8,4-7.2,7.1-9.9c0.7-0.6,1.8-0.5,2.4,0.2 c0.6,0.7,0.5,1.8-0.2,2.4c-2.7,2.3-4.8,5.3-6.2,8.6C15,26.5,14.4,26.9,13.7,26.9z" class="st5"/></g><g><linearGradient id="SVGID_6_" x1="6.532" x2="6.532" y1="33.78" y2="-1.952" gradientUnits="userSpaceOnUse"><stop offset="0" style="stop-color:#fff33b"/><stop offset=".059" style="stop-color:#ffe029"/><stop offset=".13" style="stop-color:#ffd218"/><stop offset=".203" style="stop-color:#fec90f"/><stop offset=".281" style="stop-color:#fdc70c"/><stop offset=".668" style="stop-color:#f3903f"/><stop offset=".888" style="stop-color:#ed683c"/><stop offset="1" style="stop-color:#e93e3a"/></linearGradient><path d="M1.7,21.4c-0.2,0-0.4,0-0.6-0.1C0.2,21-0.2,20,0.1,19.1C2.3,13.7,5.9,8.8,10.3,5C11,4.4,12,4.5,12.7,5.2 c0.6,0.7,0.5,1.8-0.2,2.4c-4,3.5-7.2,8-9.3,12.9C3,21,2.3,21.4,1.7,21.4z" class="st6"/></g></svg>