<?xml version="1.0" encoding="utf-8"?>
<!-- Generator: Adobe Illustrator 20.1.0, SVG Export Plug-In . SVG Version: 6.00 Build 0)  -->
<svg version="1.1" id="Layer_1" xmlns="http://www.w3.org/2000/svg" xmlns:xlink="http://www.w3.org/1999/xlink" x="0px" y="0px"
	 width="64px" height="64px" viewBox="0 0 64 64" style="enable-background:new 0 0 64 64;" xml:space="preserve">
<style type="text/css">
	.st0{fill:#52545c;}
</style>
<g>
	<path class="st0" d="M54.1,40.6c0,0-0.1-0.1-0.2-0.1c-0.9-0.5-0.7-1.9-0.5-2.6c0.6-0.7,1.3-1.8,1.5-3.6c0.1-0.5,0.3-1,0.6-1.3
		c0.6-0.8,0.9-1.8,0.9-2.8c0-0.8-0.2-1.5-0.5-2.1c-0.1-0.1-0.2-0.2-0.3-0.4c0.4-1.1,0.9-2.8,0.5-4.7c-0.8-3.2-5-4.6-8.6-4.6
		c-7.6,0-8.3,3.8-8.5,4.5c-0.4,1.7-0.1,3.4,0.4,4.7c-0.1,0.1-0.2,0.3-0.3,0.4c-0.4,0.6-0.6,1.3-0.6,2.1c0,1,0.3,2,0.9,2.8
		c0.3,0.4,0.5,0.9,0.6,1.3c0.3,1.8,0.9,3,1.6,3.7c0.1,0.2,0.1,0.5,0.1,0.7c3.5,2.4,3.9,4,3.9,5.4v7c0,2.7-1.3,5.2-3.2,6.8h4.9h8.1
		h3.5c2.9,0,5.2-2.3,5.2-5.2v-5.4C64,46.6,64,44.8,54.1,40.6z"/>
	<path class="st0" d="M43.5,44c0-0.9,0-3.3-13-8.7c-0.1,0-0.1-0.1-0.3-0.2c-1.2-0.6-0.9-2.5-0.7-3.5c0.8-0.9,1.7-2.4,2-4.7
		c0.1-0.6,0.3-1.2,0.7-1.8c0.7-1,1.1-2.4,1.1-3.7c0-1-0.2-2-0.7-2.7c-0.1-0.2-0.2-0.3-0.3-0.5c0.6-1.5,1.2-3.7,0.6-6.1
		C31.9,7.9,26.4,6,21.7,6c-4.3,0-7.5,1.5-8.8,3.9c-1.1,0.6-1.8,1.4-2.1,2c-1,2-0.3,4.4,0.3,6.1c-0.2,0.2-0.3,0.3-0.4,0.5
		c-0.5,0.7-0.7,1.7-0.7,2.8c0,1.3,0.4,2.7,1.1,3.6c0.4,0.5,0.6,1.1,0.7,1.8c0.4,2.4,1.2,3.9,2.1,4.8c0.2,1,0.5,2.8-0.7,3.4
		C13.1,35,13,35,12.9,35.1C0,40.7,0,43.1,0,44v7c0,3.8,3.1,6.8,6.8,6.8h14.7h10.6H36h0.6c3.8,0,6.8-3.1,6.8-6.8v-7H43.5z"/>
</g>
</svg>
