<?xml version="1.0" encoding="utf-8"?>
<!-- Generator: Adobe Illustrator 20.1.0, SVG Export Plug-In . SVG Version: 6.00 Build 0)  -->
<svg version="1.1" id="Layer_1" xmlns="http://www.w3.org/2000/svg" xmlns:xlink="http://www.w3.org/1999/xlink" x="0px" y="0px"
	 width="64px" height="64px" viewBox="0 0 64 64" style="enable-background:new 0 0 64 64;" xml:space="preserve">
<style type="text/css">
	.st0{fill:#52545c;}
</style>
<path class="st0" d="M56.3,44.5c-1.6,0-3.2,0.5-4.4,1.4l-8.1-4.7c0.3-1,0.4-2,0.4-3.1c0-5.6-3.8-10.4-9-11.8v-7.5
	c2.6-1.2,4.5-3.9,4.5-7c0-4.2-3.4-7.7-7.7-7.7s-7.7,3.4-7.7,7.7c0,3.1,1.8,5.7,4.5,7v7.5c-5.2,1.4-9,6.1-9,11.8
	c0,1.1,0.2,2.1,0.4,3.1l-8.1,4.7c-1.2-0.9-2.8-1.4-4.4-1.4c-4.2,0-7.7,3.4-7.7,7.7s3.4,7.7,7.7,7.7s7.7-3.4,7.7-7.7
	c0-0.2,0-0.5,0-0.7l8.1-4.7c2.2,2.2,5.3,3.6,8.6,3.6c3.4,0,6.4-1.4,8.6-3.6l8.1,4.7c0,0.2,0,0.5,0,0.7c0,4.2,3.4,7.7,7.7,7.7
	s7.7-3.4,7.7-7.7S60.6,44.5,56.3,44.5z M32,43.9c-3.2,0-5.8-2.6-5.8-5.8c0-3.2,2.6-5.8,5.8-5.8s5.8,2.6,5.8,5.8
	C37.8,41.3,35.2,43.9,32,43.9z"/>
</svg>
