<?xml version="1.0" encoding="utf-8"?>
<!-- Generator: Adobe Illustrator 19.0.1, SVG Export Plug-In . SVG Version: 6.00 Build 0)  -->
<!DOCTYPE svg PUBLIC "-//W3C//DTD SVG 1.1//EN" "http://www.w3.org/Graphics/SVG/1.1/DTD/svg11.dtd">
<svg version="1.1" id="Layer_1" xmlns="http://www.w3.org/2000/svg" xmlns:xlink="http://www.w3.org/1999/xlink" x="0px" y="0px"
	 width="121px" height="100px" viewBox="0 0 121 100" style="enable-background:new 0 0 100 100;" xml:space="preserve">
<style type="text/css">
	.st0{fill:#FFFFFF;}
	.st1{fill:#52545c;}
</style>
<g>
	<path class="st0" d="M94.3,50C94.3,25.6,74.4,5.7,50,5.7S5.7,25.6,5.7,50S25.6,94.3,50,94.3S94.3,74.4,94.3,50z"/>
	<path class="st1" d="M50,0C22.4,0,0,22.4,0,50s22.4,50,50,50c27.6,0,50-22.4,50-50S77.6,0,50,0z M5.7,50C5.7,25.6,25.6,5.7,50,5.7
		S94.3,25.6,94.3,50S74.4,94.3,50,94.3S5.7,74.4,5.7,50z"/>
	<g>
		<g>
			<g>
				<path class="st1" d="M49.3,77.8c4,0,7.3-3.3,7.3-7.3H42C42,74.5,45.3,77.8,49.3,77.8z"/>
			</g>
		</g>
		<g>
			<path class="st1" d="M68.2,59v-9.2c0-11.3-5.9-20.8-14-23.5c0-2.7-2.2-4.9-4.9-4.9c-2.7,0-4.9,2.2-4.9,4.9
				c-8.1,2.8-14,12.3-14,23.5V59c-2.2,0-4,1.8-4,4s1.8,4,4,4v0h0.1h37.8h0.1v0c2.2,0,4-1.8,4-4S70.4,59.1,68.2,59z"/>
		</g>
	</g>
</g>
</svg>
