<?xml version="1.0" encoding="utf-8"?>
<!-- Generator: Adobe Illustrator 20.1.0, SVG Export Plug-In . SVG Version: 6.00 Build 0)  -->
<svg version="1.1" id="Layer_1" xmlns="http://www.w3.org/2000/svg" xmlns:xlink="http://www.w3.org/1999/xlink" x="0px" y="0px"
	 width="64px" height="64px" viewBox="0 0 64 64" style="enable-background:new 0 0 64 64;" xml:space="preserve">
<style type="text/css">
	.st0{fill:#52545c;}
</style>
<path class="st0" d="M59.4,23.7c-1.7-1.7-4.4-1.7-6,0L41.6,35.6l-12.9-13l11.8-11.9c1.7-1.7,1.7-4.4,0-6.1s-4.4-1.7-6,0L22.7,16.5
	L12.6,6.2C1.3,17.6,0.4,35.5,9.8,48l-3.6,3.6c-1.7,1.7-1.7,4.4,0,6.1c1.7,1.7,4.4,1.7,6,0l3.6-3.6c12.4,9.5,30.1,8.6,41.4-2.8
	l-9.5-9.6l11.8-11.9C61,28.1,61,25.4,59.4,23.7z"/>
</svg>
