<?xml version="1.0" encoding="utf-8"?>
<!-- Generator: Adobe Illustrator 19.0.1, SVG Export Plug-In . SVG Version: 6.00 Build 0)  -->
<!DOCTYPE svg PUBLIC "-//W3C//DTD SVG 1.1//EN" "http://www.w3.org/Graphics/SVG/1.1/DTD/svg11.dtd">
<svg version="1.1" id="Layer_1" xmlns="http://www.w3.org/2000/svg" xmlns:xlink="http://www.w3.org/1999/xlink" x="0px" y="0px"
	 width="121px" height="100px" viewBox="0 0 121 100" style="enable-background:new 0 0 100 100;" xml:space="preserve">
<style type="text/css">
	.st0{fill:#FFFFFF;}
	.st1{fill:#52545c;}
</style>
<g>
	<path class="st0" d="M94.3,50C94.3,25.6,74.4,5.7,50,5.7S5.7,25.6,5.7,50S25.6,94.3,50,94.3S94.3,74.4,94.3,50z"/>
	<path class="st1" d="M50,0C22.4,0,0,22.4,0,50s22.4,50,50,50c27.6,0,50-22.4,50-50S77.6,0,50,0z M5.7,50C5.7,25.6,25.6,5.7,50,5.7
		S94.3,25.6,94.3,50S74.4,94.3,50,94.3S5.7,74.4,5.7,50z"/>
	<g>
		<path class="st1" d="M78,65.8H25.6V30.4c0-1.5-1.2-2.8-2.8-2.8c-1.5,0-2.8,1.2-2.8,2.8v38.1c0,1.5,1.2,2.8,2.8,2.8H78
			c1.5,0,2.8-1.2,2.8-2.8C80.7,67.1,79.5,65.8,78,65.8z"/>
		<g>
			<polygon class="st1" points="77.9,63.1 78.2,49 63.1,28.3 47.2,49.5 36,38.7 28.3,43.1 28.3,63.1 			"/>
		</g>
	</g>
</g>
</svg>
