<?xml version="1.0" encoding="utf-8"?>
<!-- Generator: Adobe Illustrator 20.1.0, SVG Export Plug-In . SVG Version: 6.00 Build 0)  -->
<svg version="1.1" id="Layer_1" xmlns="http://www.w3.org/2000/svg" xmlns:xlink="http://www.w3.org/1999/xlink" x="0px" y="0px"
	 width="64px" height="64px" viewBox="0 0 64 64" style="enable-background:new 0 0 64 64;" xml:space="preserve">
<style type="text/css">
	.st0{fill:#52545c;}
</style>
<g>
	<path class="st0" d="M0.1,31.8c0-1.6,1-2.9,2.5-3.4c0.5-0.2,1-0.4,1.4-0.6c0.9-0.6,1.4-1.5,1.4-2.7v-9.9c0-2,0.4-3.5,1.1-4.5
		c0.7-1,1.9-1.7,3.4-2.2c0.9-0.3,2-0.4,3.3-0.5c1.8-0.2,3.3,1.2,3.3,3v0.1c0,1.4-1,2.6-2.4,3c-0.1,0-0.1,0-0.2,0.1
		c-0.5,0.2-0.8,0.4-1.1,0.7c-0.3,0.3-0.4,0.7-0.4,1.3v10.3c0,1.6-0.4,2.9-1.2,3.7c-0.8,0.9-2.1,1.4-4,1.7v0.3c1.8,0.3,3.2,0.9,4,1.7
		c0.8,0.8,1.2,2,1.2,3.6v10.4c0,0.6,0.2,1,0.5,1.3c0.3,0.3,0.7,0.5,1.2,0.7c0,0,0.1,0,0.1,0c1.4,0.4,2.3,1.6,2.3,3v0
		c0,1.8-1.6,3.3-3.4,3.1c-1.3-0.1-2.3-0.3-3.2-0.6c-1.6-0.5-2.7-1.2-3.4-2.2c-0.7-1-1-2.5-1-4.5v-9.8c0-1.1-0.5-2-1.4-2.7
		c-0.4-0.3-0.8-0.5-1.3-0.6c-1.5-0.5-2.5-1.8-2.5-3.4V31.8z"/>
</g>
<g>
	<g>
		<path class="st0" d="M64,32.2c0,1.6-1,2.9-2.5,3.4c-0.5,0.2-0.9,0.4-1.3,0.6c-1,0.6-1.4,1.5-1.4,2.7v9.8c0,2-0.4,3.5-1.1,4.5
			c-0.7,1-1.8,1.7-3.4,2.2c-0.9,0.3-1.9,0.4-3.2,0.6c-1.8,0.2-3.4-1.3-3.4-3.1v0c0-1.4,1-2.7,2.4-3c0.4-0.1,0.6-0.2,0.9-0.3
			c0.6-0.4,0.9-0.9,0.9-1.7V37.4c0-1.6,0.4-2.8,1.2-3.6c0.8-0.8,2.1-1.4,4-1.7v-0.3c-1.8-0.3-3.1-0.8-4-1.7
			c-0.8-0.9-1.2-2.1-1.2-3.7V16.2c0-0.6-0.1-1-0.4-1.3c-0.3-0.3-0.6-0.5-1.1-0.7c-0.1,0-0.1,0-0.2-0.1c-1.4-0.4-2.4-1.6-2.4-3v-0.1
			c0-1.8,1.6-3.2,3.3-3.1c1.3,0.1,2.4,0.3,3.2,0.5c1.6,0.5,2.7,1.2,3.4,2.2c0.7,1,1.1,2.5,1.1,4.5v9.9c0,1.2,0.5,2.1,1.4,2.7
			c0.4,0.3,0.8,0.5,1.3,0.6c1.5,0.5,2.6,1.8,2.6,3.4V32.2z"/>
	</g>
	<g>
		<path class="st0" d="M42.9,55.5h-6.5c-1.7,0-3.1-1.4-3.1-3.1c0-1.7,1.4-3.1,3.1-3.1h3.4V14.7h-2.6c-1.7,0-3.1-1.4-3.1-3.1
			s1.4-3.1,3.1-3.1h5.7c1.7,0,3.1,1.4,3.1,3.1v40.9C46,54.1,44.6,55.5,42.9,55.5z"/>
	</g>
</g>
<g>
	<path class="st0" d="M20.4,8.5H27c1.7,0,3.1,1.4,3.1,3.1s-1.4,3.1-3.1,3.1h-3.4v34.6h2.6c1.7,0,3.1,1.4,3.1,3.1s-1.4,3.1-3.1,3.1
		h-5.7c-1.7,0-3.1-1.4-3.1-3.1V11.6C17.3,9.9,18.7,8.5,20.4,8.5z"/>
</g>
</svg>
