<?xml version="1.0" encoding="utf-8"?>
<!-- Generator: Adobe Illustrator 23.0.1, SVG Export Plug-In . SVG Version: 6.00 Build 0)  -->
<svg version="1.1" id="Layer_1" xmlns="http://www.w3.org/2000/svg" xmlns:xlink="http://www.w3.org/1999/xlink" x="0px" y="0px"
	 width="22px" height="22px" viewBox="0 0 22 22" style="enable-background:new 0 0 22 22;" xml:space="preserve">
<style type="text/css">
	.st0{fill:none;}
	.st1{fill:#52545c;}
</style>
<g>
	<polygon class="st0" points="7.93,14.21 6.99,17.47 9.52,15.21 9,14.28 	"/>
	<polygon class="st0" points="14.15,7.86 15.08,4.6 12.56,6.86 13.08,7.79 	"/>
	<polygon class="st0" points="14.28,13.07 14.22,14.14 17.47,15.08 15.22,12.55 	"/>
	<polygon class="st0" points="7.8,9 7.86,7.93 4.61,6.99 6.86,9.52 	"/>
	<path class="st0" d="M8.82,1.31L8.36,9.35l-7.05,3.9l8.04,0.46l3.9,7.05l0.46-8.04l7.05-3.9l-8.04-0.46L8.82,1.31z M11.38,11.78
		c-0.41,0.19-0.89,0.01-1.08-0.4c-0.19-0.41-0.01-0.89,0.4-1.08c0.41-0.19,0.89-0.01,1.08,0.4C11.97,11.1,11.79,11.59,11.38,11.78z"
		/>
	<path class="st1" d="M21.72,8.56c-1.35-5.92-7.24-9.63-13.16-8.28C2.64,1.63-1.07,7.52,0.28,13.44s7.24,9.63,13.16,8.28
		C19.36,20.37,23.07,14.48,21.72,8.56z M15.08,4.6l-0.94,3.25l-1.07-0.06l-0.52-0.94L15.08,4.6z M7.86,7.93L7.8,9L6.86,9.52
		L4.61,6.99L7.86,7.93z M6.99,17.47l0.94-3.25L9,14.28l0.52,0.94L6.99,17.47z M14.22,14.14l0.06-1.07l0.94-0.52l2.25,2.53
		L14.22,14.14z M13.72,12.72l-0.46,8.04l-3.9-7.05l-8.04-0.46l7.05-3.9l0.46-8.04l3.9,7.05l8.04,0.46L13.72,12.72z"/>
	<path class="st1" d="M10.7,10.29c-0.41,0.19-0.59,0.67-0.4,1.08c0.19,0.41,0.67,0.59,1.08,0.4c0.41-0.19,0.59-0.67,0.4-1.08
		C11.59,10.28,11.1,10.11,10.7,10.29z"/>
</g>
</svg>
