<?xml version="1.0" encoding="utf-8"?>
<!-- Generator: Adobe Illustrator 20.1.0, SVG Export Plug-In . SVG Version: 6.00 Build 0)  -->
<svg version="1.1" id="Layer_1" xmlns="http://www.w3.org/2000/svg" xmlns:xlink="http://www.w3.org/1999/xlink" x="0px" y="0px"
	 width="64px" height="64px" viewBox="0 0 64 64" style="enable-background:new 0 0 64 64;" xml:space="preserve">
<style type="text/css">
	.st0{fill:#52545c;}
</style>
<g>
	<path class="st0" d="M60.8,4.4H18.9c-1.8,0-3.2,1.4-3.2,3.2v6.6h36.9c3.6,0,6.6,2.9,6.6,6.6V35h1.6c1.8,0,3.2-1.4,3.2-3.2V7.5
		C64,5.8,62.5,4.4,60.8,4.4z"/>
	<path class="st0" d="M55.8,20.7c0-1.8-1.4-3.2-3.2-3.2H10.8c-1.8,0-3.2,1.4-3.2,3.2v5.9h37.6c3.6,0,6.6,2.9,6.6,6.6v14.9h0.9
		c1.8,0,3.2-1.4,3.2-3.2L55.8,20.7L55.8,20.7z"/>
	<path class="st0" d="M48.3,33.2c0-1.8-1.4-3.2-3.2-3.2H3.3c-1.8,0-3.2,1.4-3.2,3.2v24.2c0,1.8,1.4,3.2,3.2,3.2h41.9
		c1.8,0,3.2-1.4,3.2-3.2V33.2H48.3z M18.7,55V35.6c0-0.7,0.8-1.2,1.4-0.7l13.3,9.7c0.5,0.4,0.5,1.1,0,1.4l-13.3,9.7
		C19.5,56.2,18.7,55.8,18.7,55z"/>
</g>
</svg>
