<?xml version="1.0" encoding="utf-8"?>
<!-- Generator: Adobe Illustrator 20.1.0, SVG Export Plug-In . SVG Version: 6.00 Build 0)  -->
<svg version="1.1" id="Layer_1" xmlns="http://www.w3.org/2000/svg" xmlns:xlink="http://www.w3.org/1999/xlink" x="0px" y="0px"
	 width="64px" height="64px" viewBox="0 0 64 64" style="enable-background:new 0 0 64 64;" xml:space="preserve">
<style type="text/css">
  .st0{fill:#52545c;}
	.st1{fill:url(#SVGID_1_);}
</style>
<g>
	<path class="st0" d="M33.9,47.9v-7.2c0-2.4,1.9-4.3,4.3-4.3h4.4v-4.4c0-2.4,1.9-4.3,4.3-4.3H54c2.4,0,4.3,1.9,4.3,4.3v4.4h1.4
		L63.8,26c0.9-2.2-0.8-4.4-3.2-4.4H16.2c-1.9,0-3.5,1.2-4.1,2.9L3.3,51.4h6.4h26C34.6,50.6,33.9,49.3,33.9,47.9z"/>
	<path class="st0" d="M14.6,18.2H60v-0.8c0-3.2-2.6-5.8-5.8-5.8h-25L28,8.5l0-0.1c-0.5-1-1.5-1.6-2.6-1.6H12.7
		c-1.1,0-2.1,0.6-2.6,1.7l-1.2,3.2H5.8c-3.2,0-5.8,2.6-5.8,5.8v33.9l9.2-29.1C10,19.8,12.1,18.2,14.6,18.2z"/>
	<linearGradient id="SVGID_1_" gradientUnits="userSpaceOnUse" x1="50.3805" y1="69.5624" x2="50.3805" y2="18.6477">
		<stop  offset="0" style="stop-color:#FFF23A"/>
		<stop  offset="4.010540e-02" style="stop-color:#FEE62D"/>
		<stop  offset="0.1171" style="stop-color:#FED41A"/>
		<stop  offset="0.1964" style="stop-color:#FDC90F"/>
		<stop  offset="0.2809" style="stop-color:#FDC60B"/>
		<stop  offset="0.6685" style="stop-color:#F28F3F"/>
		<stop  offset="0.8876" style="stop-color:#ED693C"/>
		<stop  offset="1" style="stop-color:#E83E39"/>
	</linearGradient>
	<path class="st1" d="M62.6,40h-4.4h-0.3h-3.2v-7.9c0-0.4-0.3-0.7-0.7-0.7h-7.2c-0.4,0-0.7,0.3-0.7,0.7V40h-7.9
		c-0.4,0-0.7,0.3-0.7,0.7v7.2c0,0.4,0.3,0.7,0.7,0.7h7.9v2.8v1.1v4c0,0.4,0.3,0.7,0.7,0.7H54c0.4,0,0.7-0.3,0.7-0.7v-7.9h7.9
		c0.4,0,0.7-0.3,0.7-0.7v-7.2C63.3,40.4,63,40,62.6,40z"/>
</g>
</svg>
