<svg xmlns="http://www.w3.org/2000/svg" xmlns:xlink="http://www.w3.org/1999/xlink" id="Layer_1" width="64" height="64" x="0" style="enable-background:new 0 0 64 64" y="0" version="1.1" viewBox="0 0 64 64" xml:space="preserve"><style type="text/css">.st0{fill:#66c9dc}.st1{fill:#f7f8fa}.st2{fill:#5cb947}.st3{fill:url(#SVGID_1_)}</style><ellipse cx="28.5" cy="27.5" class="st0" rx="0" ry="0"/><path d="M41.4,29.9h2.1l0.3-0.3l8.7-8.7c4.8-4.8,4.8-12.5,0-17.3S40-1.2,35.2,3.6l-8.7,8.7c2.7-0.2,5.5,0.3,8,1.5	l5.4-5.4c2.1-2.1,5.6-2.1,7.7,0c2.1,2.1,2.1,5.6,0,7.7l-5.4,5.4l-3.1,3.1l-2.9,2.9c-0.9,0.9-2.1,1.4-3.3,1.6	c-1.6,0.2-3.2-0.4-4.4-1.6l0,0l0,0c-0.5-0.5-1.4-0.5-2,0l-3.7,3.7c0.3,0.4,0.6,0.7,0.9,1.1c0.3,0.3,0.7,0.6,1.1,0.9	c1.1,0.9,2.4,1.6,3.7,2c2.4,0.8,5,0.8,7.3,0.1C35.9,32.4,38.4,29.9,41.4,29.9z" class="st1"/><ellipse cx="31.4" cy="24.7" class="st2" rx="0" ry="0"/><path d="M30.4,39.9c-1.7-0.2-3.4-0.7-5-1.4L20,43.8c-2.1,2.1-5.6,2.1-7.7,0s-2.1-5.6,0-7.7l5.4-5.4l3.1-3.1l2.9-2.9	c0.9-0.9,2.1-1.4,3.3-1.6c1.6-0.2,3.2,0.4,4.4,1.6l0,0l0,0c0.5,0.5,1.4,0.5,2,0l3.7-3.7c-0.3-0.4-0.6-0.7-0.9-1.1	c-0.3-0.3-0.7-0.6-1.1-0.9c-1.1-0.9-2.4-1.6-3.7-2c-3.2-1.1-6.7-0.8-9.7,0.9c-1,0.5-1.9,1.2-2.8,2.1l-2.7,2.7l-8.7,8.7	c-4.8,4.8-4.8,12.5,0,17.3s12.5,4.8,17.3,0l1.3-1.3v-2.1C26.1,42.6,27.9,40.4,30.4,39.9z" class="st1"/><linearGradient id="SVGID_1_" x1="45.408" x2="45.408" y1="-17.587" y2="44.985" gradientTransform="matrix(1 0 0 -1 0 66)" gradientUnits="userSpaceOnUse"><stop offset="0" style="stop-color:#fff23a"/><stop offset=".04" style="stop-color:#fee62d"/><stop offset=".117" style="stop-color:#fed41a"/><stop offset=".196" style="stop-color:#fdc90f"/><stop offset=".281" style="stop-color:#fdc60b"/><stop offset=".668" style="stop-color:#f28f3f"/><stop offset=".888" style="stop-color:#ed693c"/><stop offset="1" style="stop-color:#e83e39"/></linearGradient><path d="M59.4,44.5h-5H54h-3.7v-9c0-0.4-0.4-0.8-0.8-0.8h-8.2c-0.4,0-0.8,0.4-0.8,0.8v9h-9c-0.4,0-0.8,0.4-0.8,0.8v8.2	c0,0.4,0.4,0.8,0.8,0.8h9v3.1v1.3v4.6c0,0.4,0.4,0.8,0.8,0.8h8.2c0.4,0,0.8-0.4,0.8-0.8v-9h9c0.4,0,0.8-0.4,0.8-0.8v-8.2	C60.2,44.8,59.8,44.5,59.4,44.5z" class="st3"/></svg>