<?xml version="1.0" encoding="utf-8"?>
<!-- Generator: Adobe Illustrator 20.1.0, SVG Export Plug-In . SVG Version: 6.00 Build 0)  -->
<svg version="1.1" id="Layer_1" xmlns="http://www.w3.org/2000/svg" xmlns:xlink="http://www.w3.org/1999/xlink" x="0px" y="0px"
	 width="100px" height="100px" viewBox="0 0 100 100" style="enable-background:new 0 0 100 100;" xml:space="preserve">
<style type="text/css">
  .st0{fill:#52545c;}
</style>
<g>
	<path class="st0" d="M50,84.1c-22.1,0-40.7-6.5-49.3-16.2C0.2,69.1,0,70.4,0,71.7c0,13,22.9,23.9,50,23.9s50-11,50-23.9
		c0-1.3-0.2-2.6-0.7-3.9C90.7,77.5,72.1,84.1,50,84.1z"/>
	<path class="st0" d="M50,62.3c-22.1,0-40.7-6.5-49.3-16.2C0.2,47.4,0,48.7,0,50c0,13,22.9,23.9,50,23.9s50-11,50-23.9
		c0-1.3-0.2-2.6-0.7-3.9C90.7,55.8,72.1,62.3,50,62.3z"/>
	<path class="st0" d="M0,28.3c0,13,22.9,23.9,50,23.9s50-11,50-23.9s-22.9-24-50-24S0,15.3,0,28.3z"/>
</g>
</svg>
