<?xml version="1.0" encoding="utf-8"?>
<!-- Generator: Adobe Illustrator 19.0.1, SVG Export Plug-In . SVG Version: 6.00 Build 0)  -->
<!DOCTYPE svg PUBLIC "-//W3C//DTD SVG 1.1//EN" "http://www.w3.org/Graphics/SVG/1.1/DTD/svg11.dtd">
<svg version="1.1" id="Layer_1" xmlns="http://www.w3.org/2000/svg" xmlns:xlink="http://www.w3.org/1999/xlink" x="0px" y="0px"
	 width="121px" height="100px" viewBox="0 0 121 100" style="enable-background:new 0 0 121 100;" xml:space="preserve">
<style type="text/css">
	.st0{fill:url(#SVGID_1_);}
	.st1{fill:#FFFFFF;}
	.st2{fill:url(#SVGID_2_);}
	.st3{fill:url(#SVGID_3_);}
	.st4{fill:url(#SVGID_4_);}
</style>
<g>
	<g>
		<linearGradient id="SVGID_1_" gradientUnits="userSpaceOnUse" x1="60.5" y1="130.7753" x2="60.5" y2="18.6673">
			<stop  offset="0" style="stop-color:#FBB017"/>
			<stop  offset="1" style="stop-color:#EF4E28"/>
		</linearGradient>
		<path class="st0" d="M120.8,50L87.2,16.4C78.1,6.3,64.9,0,50.2,0c-27.6,0-50,22.4-50,50s22.4,50,50,50c14.4,0,27.5-6.1,36.6-15.9
			c0.1-0.1,0.1-0.1,0.2-0.2L120.8,50z"/>
	</g>
	<path class="st1" d="M94.4,50c0-24.4-19.9-44.3-44.3-44.3S5.9,25.6,5.9,50s19.9,44.3,44.3,44.3S94.4,74.4,94.4,50z M49.3,73.7
		c-13.9,0-25.7-5.6-25.7-12.3c0-0.7,0.1-1.3,0.4-2c4.4,5,14,8.3,25.3,8.3s20.9-3.4,25.3-8.3c0.2,0.6,0.4,1.3,0.4,2
		C75,68,63.2,73.7,49.3,73.7z M49.3,62.5c-13.9,0-25.7-5.6-25.7-12.3c0-0.7,0.1-1.3,0.4-2c4.4,5,14,8.3,25.3,8.3s20.9-3.4,25.3-8.3
		c0.2,0.6,0.4,1.3,0.4,2C75,56.9,63.2,62.5,49.3,62.5z M49.3,51.3c-13.9,0-25.7-5.6-25.7-12.3c0-6.7,11.8-12.3,25.7-12.3
		S75,32.4,75,39C75,45.7,63.2,51.3,49.3,51.3z"/>
	<linearGradient id="SVGID_2_" gradientUnits="userSpaceOnUse" x1="49.2981" y1="130.777" x2="49.2981" y2="18.669">
		<stop  offset="0" style="stop-color:#FBB017"/>
		<stop  offset="1" style="stop-color:#EF4E28"/>
	</linearGradient>
	<path class="st2" d="M49.3,67.7c-11.4,0-20.9-3.4-25.3-8.3c-0.2,0.6-0.4,1.3-0.4,2c0,6.7,11.8,12.3,25.7,12.3S75,68,75,61.4
		c0-0.7-0.1-1.3-0.4-2C70.2,64.4,60.7,67.7,49.3,67.7z"/>
	<linearGradient id="SVGID_3_" gradientUnits="userSpaceOnUse" x1="49.2981" y1="130.7753" x2="49.2981" y2="18.6673">
		<stop  offset="0" style="stop-color:#FBB017"/>
		<stop  offset="1" style="stop-color:#EF4E28"/>
	</linearGradient>
	<path class="st3" d="M49.3,56.5c-11.4,0-20.9-3.4-25.3-8.3c-0.2,0.6-0.4,1.3-0.4,2c0,6.7,11.8,12.3,25.7,12.3S75,56.9,75,50.2
		c0-0.7-0.1-1.3-0.4-2C70.2,53.2,60.7,56.5,49.3,56.5z"/>
	<linearGradient id="SVGID_4_" gradientUnits="userSpaceOnUse" x1="49.2981" y1="130.7753" x2="49.2981" y2="18.6673">
		<stop  offset="0" style="stop-color:#FBB017"/>
		<stop  offset="1" style="stop-color:#EF4E28"/>
	</linearGradient>
	<path class="st4" d="M49.3,26.7c-13.9,0-25.7,5.6-25.7,12.3c0,6.7,11.8,12.3,25.7,12.3S75,45.7,75,39C75,32.4,63.2,26.7,49.3,26.7z
		"/>
</g>
</svg>
