<svg xmlns="http://www.w3.org/2000/svg" xmlns:xlink="http://www.w3.org/1999/xlink" viewBox="0 0 121.85 99.17"><defs><style>.cls-1{fill:url(#linear-gradient);}</style><linearGradient id="linear-gradient" x1="168.55" y1="13.4" x2="27.2" y2="57" gradientUnits="userSpaceOnUse"><stop offset="0" stop-color="#fff100"/><stop offset="1" stop-color="#f05a28"/></linearGradient></defs><g id="Layer_6" data-name="Layer 6"><path class="cls-1" d="M4.66,25H2.37a2.37,2.37,0,0,0,0,4.74H4.66a2.37,2.37,0,1,0,0-4.74ZM48.48,59.57H46.19a2.37,2.37,0,1,0,0,4.74h2.29a2.37,2.37,0,1,0,0-4.74ZM46.56,37a2.37,2.37,0,0,0-2.37-2.37H36.27a2.37,2.37,0,0,0,0,4.74h7.92A2.37,2.37,0,0,0,46.56,37ZM121.73,22.1,119.32,8.56A9.88,9.88,0,0,0,109.07,0H16.24A6.28,6.28,0,0,0,9.9,7.7l2.54,14.4a3.38,3.38,0,0,0,.08.34v0c.3,1.76-.59,2.47-1.39,2.73h0a2.37,2.37,0,0,0,.79,4.6H115.39A6.28,6.28,0,0,0,121.73,22.1ZM90.15,76.42c-1-5.25-4-7.2-7.39-7.2H58.24a2.39,2.39,0,0,0-2.37,2.4A2.37,2.37,0,0,0,58,74h0c.78.14,1.62,1.16,2.15,3.68l2.52,14a9.59,9.59,0,0,0,9.19,7.54l14.63-.07a6.28,6.28,0,0,0,6.44-7.61ZM57.73,64.48H84.34a2.27,2.27,0,0,0,.59-.09c2.46-.52,2.58-2.52,2.26-4.51L83.8,41.27c-.93-4.84-3.74-6.75-7.43-6.75H52a2.37,2.37,0,0,0-.28,4.72h0c.81.15,1.7,1.24,2.22,4l2.57,14.24v0A1.92,1.92,0,0,1,55,59.87h0a2.36,2.36,0,0,0,.79,4.59h1.9Z"/></g></svg>