<?xml version="1.0" encoding="UTF-8"?>
<svg version="1.1" id="aquarium" xmlns="http://www.w3.org/2000/svg" width="15" height="15" viewBox="0 0 15 15">
  <path d="M10.9,11.6c-0.3-0.6-0.3-2.3,0-2.8c0.4-0.6,3.4,1.4,3.4,1.4c0.9,0.4,0.9-6.1,0-5.7&#xA;&#x9;c0,0-3.1,2.1-3.4,1.4c-0.3-0.7-0.3-2.1,0-2.8C11.2,2.5,15,2.4,15,2.4C15,1.7,12.1,1,10.9,1S8.4,1.1,6.8,1.8C5.2,2.4,3.9,3.4,2.7,4.6&#xA;&#x9;S0,8.2,0,8.9s1.5,2.8,3.7,3.7s3.3,1.1,4.5,1.3c1.1,0.1,2.6,0,3.9-0.3c1-0.2,2.9-0.7,2.9-1.1C15,12.3,11.2,12.2,10.9,11.6z M4.5,9.3&#xA;&#x9;C3.7,9.3,3,8.6,3,7.8s0.7-1.5,1.5-1.5S6,7,6,7.8S5.3,9.3,4.5,9.3z"/>
</svg>