<?xml version="1.0" encoding="UTF-8"?>
<svg version="1.1" id="bank" xmlns="http://www.w3.org/2000/svg" width="15" height="15" viewBox="0 0 15 15">
  <path id="rect5668" d="M1,3C0.446,3,0,3.446,0,4v7c0,0.554,0.446,1,1,1h13c0.554,0,1-0.446,1-1V4c0-0.554-0.446-1-1-1H1z M1,4h1.5&#xA;&#x9;C2.7761,4,3,4.2239,3,4.5S2.7761,5,2.5,5S2,4.7761,2,4.5L1.5,5C1.7761,5,2,5.2239,2,5.5S1.7761,6,1.5,6S1,5.7761,1,5.5V4z M7.5,4&#xA;&#x9;C8.8807,4,10,5.567,10,7.5l0,0C10,9.433,8.8807,11,7.5,11S5,9.433,5,7.5S6.1193,4,7.5,4z M12.5,4H14v1.5C14,5.7761,13.7761,6,13.5,6&#xA;&#x9;S13,5.7761,13,5.5S13.2239,5,13.5,5L13,4.5C13,4.7761,12.7761,5,12.5,5S12,4.7761,12,4.5S12.2239,4,12.5,4z M7.5,5.5&#xA;&#x9;c-0.323,0-0.5336,0.1088-0.6816,0.25h1.3633C8.0336,5.6088,7.823,5.5,7.5,5.5z M6.625,6C6.5795,6.091,6.5633,6.1711,6.5449,6.25&#xA;&#x9;h1.9102C8.4367,6.1711,8.4205,6.091,8.375,6H6.625z M6.5,6.5v0.25h2V6.5H6.5z M6.5,7v0.25h2V7H6.5z M6.5,7.5v0.25h2V7.5H6.5z M6.5,8&#xA;&#x9;L6.25,8.25h2L8.5,8H6.5z M6,8.5c0,0,0.0353,0.1024,0.1016,0.25H8.375L8,8.5H6z M1.5,9C1.7761,9,2,9.2239,2,9.5S1.7761,10,1.5,10&#xA;&#x9;L2,10.5C2,10.2239,2.2239,10,2.5,10S3,10.2239,3,10.5S2.7761,11,2.5,11H1V9.5C1,9.2239,1.2239,9,1.5,9z M6.2383,9&#xA;&#x9;C6.2842,9.0856,6.3144,9.159,6.375,9.25h2.2676C8.7092,9.1121,8.75,9,8.75,9H6.2383z M13.5,9C13.7761,9,14,9.2239,14,9.5V11h-1.5&#xA;&#x9;c-0.2761,0-0.5-0.2239-0.5-0.5s0.2239-0.5,0.5-0.5s0.5,0.2239,0.5,0.5l0.5-0.5C13.2239,10,13,9.7761,13,9.5S13.2239,9,13.5,9z&#xA;&#x9; M6.5664,9.5c0.0786,0.0912,0.1647,0.1763,0.2598,0.25h1.4199C8.3462,9.6727,8.4338,9.5883,8.5,9.5H6.5664z"/>
</svg>