<?xml version="1.0" encoding="UTF-8"?>
<svg version="1.1" id="baseball" xmlns="http://www.w3.org/2000/svg" width="15" height="15" viewBox="0 0 15 15">
  <path d="M10,3.5C10,4.3284,9.3284,5,8.5,5S7,4.3284,7,3.5S7.6716,2,8.5,2S10,2.6716,10,3.5z M7,0.28C7,0.1254,6.8746,0,6.72,0&#xA;&#x9;c0,0,0,0,0,0C6.6221,0.0262,6.5348,0.0821,6.47,0.16L4,4.59C3.9941,4.6331,3.9941,4.6769,4,4.72C4,4.8746,4.1254,5,4.28,5&#xA;&#x9;c0.1015-0.0243,0.1926-0.0803,0.26-0.16L7,0.41C7.006,0.3669,7.006,0.3231,7,0.28z M12.9,14.2L12.9,14.2L10,6.39l0,0&#xA;&#x9;C9.9526,6.1627,9.7522,5.9999,9.52,6h-5c-0.2761,0-0.5,0.2239-0.5,0.5S4.2439,7,4.52,7H7l1.45,2.51l-4.27,4.61l0,0&#xA;&#x9;C4.0659,14.2132,3.9998,14.3527,4,14.5C4,14.7761,4.2239,15,4.5,15c0.1224-0.0006,0.2401-0.047,0.33-0.13l0,0l4.45-4.15l2.76,4l0,0&#xA;&#x9;c0.0895,0.1592,0.2574,0.2584,0.44,0.26c0.2796,0.0002,0.5092-0.2207,0.52-0.5C12.9958,14.3787,12.961,14.281,12.9,14.2z"/>
</svg>