<?xml version="1.0" encoding="UTF-8"?>
<svg id="bbq" xmlns="http://www.w3.org/2000/svg" width="15" height="15" viewBox="0 0 15 15">
  <path d="M9.32,7.655C10.8782,7.108,11.9471,5.6506,12,4H3c0.053,1.6299,1.0978,3.0728,2.63,3.631L4.923,9.044&#xA;&#x9;c-1.3571-0.2355-2.6482,0.6737-2.8837,2.0308s0.6737,2.6482,2.0308,2.8837C4.9927,14.1187,5.9273,13.7485,6.49,13h4.223l0.335,0.717&#xA;&#x9;c0.0836,0.1735,0.2594,0.2836,0.452,0.283c0.0733,0.0003,0.1457-0.0158,0.212-0.047c0.2497-0.117,0.3575-0.4141,0.241-0.664&#xA;&#x9;L9.32,7.655z M4.5,12.75c-0.6904,0-1.25-0.5596-1.25-1.25s0.5596-1.25,1.25-1.25s1.25,0.5596,1.25,1.25&#xA;&#x9;C5.7484,12.1897,5.1897,12.7484,4.5,12.75z M6.95,12c0.2066-1.007-0.2268-2.0374-1.091-2.594L6.6,7.923&#xA;&#x9;c0.577,0.1042,1.168,0.1042,1.745,0l1.9,4.07L6.95,12z M4.75,1C4.6119,1,4.5,1.1119,4.5,1.25c0,0.5-0.5,0.5-0.5,0.5c-1,0-1,1-1,1&#xA;&#x9;C3,2.8881,3.1119,3,3.25,3S3.5,2.8881,3.5,2.75c0-0.5,0.5-0.5,0.5-0.5c1,0,1-1,1-1C5,1.1119,4.8881,1,4.75,1z M6.75,1&#xA;&#x9;C6.6119,1,6.5,1.1119,6.5,1.25c0,0.5-0.5,0.5-0.5,0.5c-1,0-1,1-1,1C5,2.8881,5.1119,3,5.25,3S5.5,2.8881,5.5,2.75&#xA;&#x9;c0-0.5,0.5-0.5,0.5-0.5c1,0,1-1,1-1C7,1.1119,6.8881,1,6.75,1z M8.75,1C8.6119,1,8.5,1.1119,8.5,1.25c0,0.5-0.5,0.5-0.5,0.5&#xA;&#x9;c-1,0-1,1-1,1C7,2.8881,7.1119,3,7.25,3S7.5,2.8881,7.5,2.75c0-0.5,0.5-0.5,0.5-0.5c1,0,1-1,1-1C9,1.1119,8.8881,1,8.75,1z M10.75,1&#xA;&#x9;c-0.1381,0-0.25,0.1119-0.25,0.25c0,0.5-0.5,0.5-0.5,0.5c-1,0-1,1-1,1C9,2.8881,9.1119,3,9.25,3S9.5,2.8881,9.5,2.75&#xA;&#x9;c0-0.5,0.5-0.5,0.5-0.5c1,0,1-1,1-1C11,1.1119,10.8881,1,10.75,1z M12.75,1c-0.1381,0-0.25,0.1119-0.25,0.25c0,0.5-0.5,0.5-0.5,0.5&#xA;&#x9;c-1,0-1,1-1,1C11,2.8881,11.1119,3,11.25,3s0.25-0.1119,0.25-0.25c0-0.5,0.5-0.5,0.5-0.5c1,0,1-1,1-1C13,1.1119,12.8881,1,12.75,1z"/>
</svg>