<?xml version="1.0" encoding="UTF-8"?>
<svg version="1.1" id="bicycle" xmlns="http://www.w3.org/2000/svg" width="15" height="15" viewBox="0 0 15 15">
  <path id="path4668" d="&#xA;&#x9;M7.5,2c-0.6761-0.01-0.6761,1.0096,0,1H9v1.2656l-2.8027,2.334L5.2226,4H5.5c0.6761,0.01,0.6761-1.0096,0-1h-2&#xA;&#x9;c-0.6761-0.01-0.6761,1.0096,0,1h0.6523L5.043,6.375C4.5752,6.1424,4.0559,6,3.5,6C1.5729,6,0,7.5729,0,9.5S1.5729,13,3.5,13&#xA;&#x9;S7,11.4271,7,9.5c0-0.6699-0.2003-1.2911-0.5293-1.8242L9.291,5.3262l0.4629,1.1602C8.7114,7.0937,8,8.2112,8,9.5&#xA;&#x9;c0,1.9271,1.5729,3.5,3.5,3.5S15,11.4271,15,9.5S13.4271,6,11.5,6c-0.2831,0-0.5544,0.0434-0.8184,0.1074L10,4.4023V2.5&#xA;&#x9;c0-0.2761-0.2239-0.5-0.5-0.5H7.5z M3.5,7c0.5923,0,1.1276,0.2119,1.5547,0.5527l-1.875,1.5625&#xA;&#x9;c-0.5109,0.4273,0.1278,1.1945,0.6406,0.7695l1.875-1.5625C5.8835,8.674,6,9.0711,6,9.5C6,10.8866,4.8866,12,3.5,12S1,10.8866,1,9.5&#xA;&#x9;S2.1133,7,3.5,7L3.5,7z M11.5,7C12.8866,7,14,8.1134,14,9.5S12.8866,12,11.5,12S9,10.8866,9,9.5c0-0.877,0.4468-1.6421,1.125-2.0879&#xA;&#x9;l0.9102,2.2734c0.246,0.6231,1.1804,0.2501,0.9297-0.3711l-0.9082-2.2695C11.2009,7.0193,11.3481,7,11.5,7L11.5,7z"/>
</svg>