<?xml version="1.0" encoding="UTF-8"?>
<svg version="1.1" id="bicycle-share" xmlns="http://www.w3.org/2000/svg" width="15" height="15" viewBox="0 0 15 15">
  <path id="circle4604" d="&#xA;&#x9;M10,1C9.4477,1,9,1.4477,9,2c0,0.5523,0.4477,1,1,1s1-0.4477,1-1C11,1.4477,10.5523,1,10,1z M8.1445,2.9941&#xA;&#x9;c-0.13,0.0005-0.2547,0.0517-0.3477,0.1426l-2.6406,2.5c-0.2256,0.2128-0.2051,0.5775,0.043,0.7637L7,7.75v2.75&#xA;&#x9;c-0.01,0.6762,1.0096,0.6762,1,0v-3c0.0003-0.1574-0.0735-0.3057-0.1992-0.4004L7.0332,6.5234l1.818-1.7212l0.7484,0.9985&#xA;&#x9;C9.6943,5.9265,9.8426,6.0003,10,6h1.5c0.6761,0.01,0.6761-1.0096,0-1h-1.25L9.5,4L8.9004,3.1992&#xA;&#x9;C8.8103,3.0756,8.6685,3,8.5156,2.9941H8.1445z M3,7c-1.6569,0-3,1.3432-3,3s1.3431,3,3,3s3-1.3432,3-3S4.6569,7,3,7z M12,7&#xA;&#x9;c-1.6569,0-3,1.3432-3,3s1.3431,3,3,3s3-1.3432,3-3S13.6569,7,12,7z M3,8c1.1046,0,2,0.8954,2,2s-0.8954,2-2,2s-2-0.8954-2-2&#xA;&#x9;S1.8954,8,3,8z M12,8c1.1046,0,2,0.8954,2,2s-0.8954,2-2,2s-2-0.8954-2-2S10.8954,8,12,8z"/>
</svg>