<?xml version="1.0" encoding="UTF-8"?>
<svg id="bowling-alley" xmlns="http://www.w3.org/2000/svg" width="15" height="15" viewBox="0 0 15 15">
  <path id="icon_concepts:_sports_leisure" d="M8.83,5.39a11.0127,11.0127,0,0,0-.96,4.28,11.4686,11.4686,0,0,0,.58,3.69A4.9424,4.9424,0,0,1,6,14,5,5,0,1,1,8.98,4.99C8.94,5.12,8.88,5.25,8.83,5.39ZM4.12,8.5a.62.62,0,1,0-.62.62h0a.6105.6105,0,0,0,.62-.6009C4.12,8.5128,4.12,8.5064,4.12,8.5ZM4.5,7.12a.62.62,0,1,0-.62-.62h0a.6106.6106,0,0,0,.6011.62ZM6.12,8.5a.62.62,0,1,0-.62.62h0a.6105.6105,0,0,0,.62-.6009C6.12,8.5128,6.12,8.5064,6.12,8.5Zm4.8022-5.3341c0-.7222-.1444-.7222-.1444-1.4444a.7222.7222,0,0,1,1.4444-.0007v.0007c0,.7222-.1444.7222-.1444,1.4444,0,2.1667,1.5528,3.6168,1.5528,6.5,0,2.1667-.6861,4.3333-1.4083,4.3333H10.7778c-.7222,0-1.4083-2.1667-1.4083-4.3333C9.3694,6.7826,10.9222,5.3325,10.9222,3.1659Z"/>
</svg>