<?xml version="1.0" encoding="UTF-8"?>
<svg version="1.1" id="bus" xmlns="http://www.w3.org/2000/svg" width="15" height="15" viewBox="0 0 15 15">
  <path id="path8043" d="M4,0C2.6364,0,1,0.7433,1,2.7461v5.4531V12c0,0,0,1,1,1v1c0,0,0,1,1,1s1-1,1-1v-1h7v1c0,0,0,1,1,1s1-1,1-1v-1&#xA;&#x9;c0,0,1,0,1-1V2.7461C14,0.7006,12.764,0,11.4004,0H4z M4.25,1.5h6.5C10.8885,1.5,11,1.6115,11,1.75S10.8885,2,10.75,2h-6.5&#xA;&#x9;C4.1115,2,4,1.8885,4,1.75S4.1115,1.5,4.25,1.5z M3,3h9c1,0,1,0.9668,1,0.9668V7c0,0,0,1-1,1H3C2,8,2,7,2,7V4C2,4,2,3,3,3z M3,10&#xA;&#x9;c0.5523,0,1,0.4477,1,1s-0.4477,1-1,1s-1-0.4477-1-1S2.4477,10,3,10z M12,10c0.5523,0,1,0.4477,1,1s-0.4477,1-1,1s-1-0.4477-1-1&#xA;&#x9;S11.4477,10,12,10z"/>
</svg>