<?xml version="1.0" encoding="UTF-8"?>
<svg xmlns="http://www.w3.org/2000/svg" id="car-rental" width="15" height="15" viewBox="0 0 15 15">
  <path d="M12.6,8.7,11.5,6.5a1.05,1.05,0,0,0-.9-.5H4.4a1.05,1.05,0,0,0-.9.5L2.4,8.7,1.16,9.852a.5.5,0,0,0-.16.367V14.5a.5.5,0,0,0,.5.5h2c.2,0,.5-.2.5-.4V14h7v.5c0,.2.2.5.4.5h2.1a.5.5,0,0,0,.5-.5V10.219a.5.5,0,0,0-.16-.367ZM4.5,7h6l1,2h-8ZM5,11.6c0,.2-.3.4-.5.4H2.4c-.2,0-.4-.3-.4-.5V10.4c.1-.3.3-.5.6-.4l2,.4c.2,0,.4.3.4.5Zm8-.1c0,.2-.2.5-.4.5H10.5c-.2,0-.5-.2-.5-.4v-.7c0-.2.2-.5.4-.5l2-.4c.3-.1.5.1.6.4ZM13.5,0H11a1,1,0,0,0-1,1H2L1,2V3L2,4,3.5,2.5,5,4,6.5,2.5,8,4h2a1,1,0,0,0,1,1h2.5a.5.5,0,0,0,.5-.5V.5A.5.5,0,0,0,13.5,0ZM13,3.5a.5.5,0,0,1-1,0v-2a.5.5,0,0,1,1,0Z"/>
</svg>