<?xml version="1.0" encoding="UTF-8"?>
<svg version="1.1" id="casino" xmlns="http://www.w3.org/2000/svg" width="15" height="15" viewBox="0 0 15 15">
  <path d="M8.5,10c0.4561,0.6072,1.1821,1,2,1c1.3807,0,2.5-1.1193,2.5-2.5c0-0.5642-0.1938-1.0789-0.509-1.4973L12.5,7l-5-6l-5,6&#xA;&#x9;l0.009,0.0027C2.1938,7.4211,2,7.9358,2,8.5C2,9.8807,3.1193,11,4.5,11c0.8179,0,1.5439-0.3928,2-1&#xA;&#x9;C6.5997,9.8672,6.7902,9.6135,7,9.3337V11.5C7,13,4.5,13,4.5,13C4.2239,13,4,13.2238,4,13.5C4,13.7761,4.2239,14,4.5,14H7h1h2.5&#xA;&#x9;c0.2761,0,0.5-0.2239,0.5-0.5c0-0.2762-0.2239-0.5-0.5-0.5c0,0-2.5,0-2.5-1.5V9.3337C8.2098,9.6135,8.4003,9.8672,8.5,10z"/>
</svg>