<?xml version="1.0" encoding="UTF-8"?>
<svg version="1.1" id="cemetery" xmlns="http://www.w3.org/2000/svg" width="15" height="15" viewBox="0 0 15 15">
  <path d="M11.46,12h-0.68L12,3.55c0.0175-0.2867-0.2008-0.5332-0.4874-0.5507C11.4884,2.9979,11.4641,2.9981,11.44,3h-1.18&#xA;&#x9;c0-0.92-1.23-2-2.75-2S4.77,2.08,4.77,3H3.54C3.253,2.9885,3.0111,3.2117,2.9995,3.4987C2.9988,3.5158,2.999,3.5329,3,3.55L4.2,12&#xA;&#x9;H3.55C3.2609,11.9886,3.0162,12.2112,3,12.5V14h9v-1.51C11.9839,12.2067,11.7435,11.9886,11.46,12z M4.5,5h6v1h-6V5z"/>
</svg>