<?xml version="1.0" encoding="UTF-8"?>
<svg version="1.1" id="cinema" xmlns="http://www.w3.org/2000/svg" width="15" height="15" viewBox="0 0 15 15">
  <path d="M14,7.5v2c0,0.2761-0.2239,0.5-0.5,0.5S13,9.7761,13,9.5c0,0,0.06-0.5-1-0.5h-1v2.5c0,0.2761-0.2239,0.5-0.5,0.5h-8&#xA;&#x9;C2.2239,12,2,11.7761,2,11.5v-4C2,7.2239,2.2239,7,2.5,7h8C10.7761,7,11,7.2239,11,7.5V8h1c1.06,0,1-0.5,1-0.5&#xA;&#x9;C13,7.2239,13.2239,7,13.5,7S14,7.2239,14,7.5z M4,3C2.8954,3,2,3.8954,2,5s0.8954,2,2,2s2-0.8954,2-2S5.1046,3,4,3z M4,6&#xA;&#x9;C3.4477,6,3,5.5523,3,5s0.4477-1,1-1s1,0.4477,1,1S4.5523,6,4,6z M8.5,2C7.1193,2,6,3.1193,6,4.5S7.1193,7,8.5,7S11,5.8807,11,4.5&#xA;&#x9;S9.8807,2,8.5,2z M8.5,6C7.6716,6,7,5.3284,7,4.5S7.6716,3,8.5,3S10,3.6716,10,4.5S9.3284,6,8.5,6z"/>
</svg>