<?xml version="1.0" encoding="UTF-8"?>
<svg xmlns="http://www.w3.org/2000/svg" width="15" height="15" viewBox="0 0 15 15" id="defibrillator">
  <path d="M1.55,6.3381C-0.8368,1.7416,5.18-1.3228,7.502,3.2737c2.3215-4.5965,8.3387-1.5322,5.9523,3.0644-0.0869.1671-.2028,0.3456-0.3114,0.5212H11.335L9.5205,4.1377A0.6252,0.6252,0,0,0,8.42,4.2524l-1.6484,4.12-1.33-1.33A0.6254,0.6254,0,0,0,5,6.8594H1.8611C1.7525,6.6837,1.6366,6.5052,1.55,6.3381ZM11,8.1094a0.6263,0.6263,0,0,1-.5205-0.2783L9.1387,5.82,7.58,9.7168a0.6245,0.6245,0,0,1-.4546.38A0.6047,0.6047,0,0,1,7,10.1094a0.6251,0.6251,0,0,1-.4419-0.1826L4.7412,8.1094H2.7358a42.67,42.67,0,0,0,4.46,4.6732,0.4642,0.4642,0,0,0,.6222,0,43.26,43.26,0,0,0,4.4505-4.6732H11Z"/>
</svg>