<?xml version="1.0" encoding="UTF-8"?>
<svg xmlns="http://www.w3.org/2000/svg" version="1.1" id="dog-park" width="15" height="15" viewBox="0 0 15 15">
  <path d="M 10.300781 1.2207031 C 9.9144812 1.2207031 9.6 1.2 9.5 2 L 9.0996094 4.5214844 L 11.5 6.5 L 13.5 6.5 C 14.9 6.5 15 5.5410156 15 5.5410156 L 13.099609 3.3222656 C 12.399609 2.6222656 11.7 2.5 11 2.5 L 11 2 C 11 2 11.067481 1.2206031 10.300781 1.2207031 z M 4.75 1.5 C 4.75 1.5 3.7992187 1.5206031 3.1992188 1.7207031 C 2.5992187 1.9207031 2 2.6210938 2 3.6210938 L 2 7.5214844 C 2 9.2214844 1.3 9.5 1 9.5 C 1 9.5 0 9.5214844 0 10.521484 L 0 12.720703 C 0 12.720703 0.00078125 13.521484 0.80078125 13.521484 L 1 13.521484 L 1.5 13.521484 L 2 13.521484 L 2 13.021484 L 2 12.822266 C 2 12.422266 1.8 12.221094 1.5 12.121094 L 1.5 11.021484 C 2.5 11.021484 2.6 10.820703 3 10.720703 L 3.5507812 12.917969 C 3.6507813 13.217969 3.7507813 13.417578 4.0507812 13.517578 L 5.0507812 13.517578 L 6 13.5 L 6 12.699219 C 6 12.022819 5 12 5 12 L 5 9.5 L 8.5 9.5 L 9.1992188 12.121094 C 9.5992188 13.521094 10.5 13.5 10.5 13.5 L 11 13.5 L 12 13.5 L 12 12.699219 C 12 11.987419 11 12 11 12 L 11.099609 7.921875 L 8 5.5 L 3.5 5.5 L 3.5 3.5 C 3.5 3.1 3.7765 3.0053 4 3 C 4.4941 2.9882 4.75 3 4.75 3 C 5.1642 3 5.5 2.6642 5.5 2.25 C 5.5 1.8358 5.1642 1.5 4.75 1.5 z M 11.75 4 C 11.8881 4 12 4.1119 12 4.25 C 12 4.3881 11.8881 4.5 11.75 4.5 C 11.6119 4.5 11.5 4.3881 11.5 4.25 C 11.5 4.1119 11.6119 4 11.75 4 z " id="path5"/>
</svg>