<?xml version="1.0" encoding="UTF-8"?>
<svg id="emergency-phone" xmlns="http://www.w3.org/2000/svg" width="15" height="15" viewBox="0 0 15 15">
  <path d="M7.875,11.49a.51.51,0,0,0,.72,0l.72-.72,2.18,2.16-.37.37a2.24,2.24,0,0,1-1.44.7H8.24a2.24,2.24,0,0,1-1.45-.7L1.72,8.23A2.24,2.24,0,0,1,1,6.78V5.33a2.24,2.24,0,0,1,.72-1.45l.36-.36L4.26,5.69l-.73.73a.51.51,0,0,0,0,.72Zm4.72.38a1,1,0,0,0,.036-1.414h0l-.036-.036-.72-.72a1,1,0,0,0-1.414-.036h0l-.036.036ZM5.315,4.62a1,1,0,0,0,.036-1.414h0L4.595,2.45a1,1,0,0,0-1.414-.036h0L3.14,2.45ZM10,2V4H8V5h2V7h1V5h2V4H11V2Z"/>
</svg>