<?xml version="1.0" encoding="UTF-8"?>
<svg version="1.1" id="fast-food" xmlns="http://www.w3.org/2000/svg" width="15" height="15" viewBox="0 0 15 15">
  <path d="M14,8c0,0.5523-0.4477,1-1,1H2C1.4477,9,1,8.5523,1,8s0.4477-1,1-1h11C13.5523,7,14,7.4477,14,8z M3.5,10H2&#xA;&#x9;c0,1.6569,1.3431,3,3,3h5c1.6569,0,3-1.3431,3-3H3.5z M3,6H2V4c0-1.1046,0.8954-2,2-2h7c1.1046,0,2,0.8954,2,2v2H3z M11,4.5&#xA;&#x9;C11,4.7761,11.2239,5,11.5,5S12,4.7761,12,4.5S11.7761,4,11.5,4S11,4.2239,11,4.5z M9,3.5C9,3.7761,9.2239,4,9.5,4S10,3.7761,10,3.5&#xA;&#x9;S9.7761,3,9.5,3S9,3.2239,9,3.5z M7,4.5C7,4.7761,7.2239,5,7.5,5S8,4.7761,8,4.5S7.7761,4,7.5,4S7,4.2239,7,4.5z M5,3.5&#xA;&#x9;C5,3.7761,5.2239,4,5.5,4S6,3.7761,6,3.5S5.7761,3,5.5,3S5,3.2239,5,3.5z M3,4.5C3,4.7761,3.2239,5,3.5,5S4,4.7761,4,4.5&#xA;&#x9;S3.7761,4,3.5,4S3,4.2239,3,4.5z"/>
</svg>