<?xml version="1.0" encoding="UTF-8"?>
<svg version="1.1" id="gaming" xmlns="http://www.w3.org/2000/svg" width="15" height="15" viewBox="0 0 15 15">
  <path d="M13.1,12.5c-0.6,0.3-1.4,0.1-1.8-0.5l-1.1-1.4H4.8L3.7,12l0,0c-0.5,0.7-1.4,0.8-2.1,0.3c-0.5-0.4-0.7-1-0.6-1.5l0.7-3.7l0,0&#xA;&#x9;C1.9,5.9,3,5,4.2,5v0H7V3.5C7,2.7,7.6,2,8.4,2h3.1C11.8,2,12,2.2,12,2.5S11.8,3,11.5,3h-3C8.2,3,8,3.2,8,3.4c0,0,0,0.1,0,0.1V5h2.8&#xA;&#x9;v0c1.2,0,2.3,0.9,2.5,2.1l0,0l0.7,3.7l0,0C14.1,11.5,13.8,12.2,13.1,12.5z M6,7.5C6,6.7,5.3,6,4.5,6S3,6.7,3,7.5S3.7,9,4.5,9&#xA;&#x9;S6,8.3,6,7.5z M12,7.5C12,7.2,11.8,7,11.5,7H11V6.5C11,6.2,10.8,6,10.5,6S10,6.2,10,6.5V7H9.5C9.2,7,9,7.2,9,7.5S9.2,8,9.5,8H10v0.5&#xA;&#x9;C10,8.8,10.2,9,10.5,9S11,8.8,11,8.5V8h0.5C11.8,8,12,7.8,12,7.5z"/>
</svg>