<?xml version="1.0" encoding="UTF-8"?>
<svg version="1.1" id="hairdresser" xmlns="http://www.w3.org/2000/svg" width="15" height="15" viewBox="0 0 15 15">
  <path d="M15,3c0,0-2-0.6-3.5,0.5l-4.3,3C6.4,5.9,5.2,5.2,4,4.8V4c0-1.1-0.9-2-2-2C0.9,2,0,2.9,0,4v1.5&#xA;&#x9;C0,6,0.5,6,0.5,6H2h0.5C4.5,6,6,7.5,6,7.5S4.5,9,2.5,9H2H0.5C0.5,9,0,9,0,9.5V11c0,1.1,0.9,2,2,2c1.1,0,2-0.9,2-2v-0.8&#xA;&#x9;c1.2-0.4,2.4-1.1,3.2-1.7l4.3,3C13,12.6,15,12,15,12L8.5,7.5L15,3z M3,5H2H1V4c0-0.6,0.4-1,1-1c0.6,0,1,0.4,1,1V5z M3,11&#xA;&#x9;c0,0.6-0.4,1-1,1c-0.6,0-1-0.4-1-1v-1h1h1V11z M7.25,8c-0.2761,0-0.5-0.2239-0.5-0.5S6.9739,7,7.25,7s0.5,0.2239,0.5,0.5&#xA;&#x9;S7.5261,8,7.25,8z"/>
</svg>