<?xml version="1.0" encoding="UTF-8"?>
<svg version="1.1" id="hardware" xmlns="http://www.w3.org/2000/svg" width="15" height="15" viewBox="0 0 15 15">
  <path d="M13.7919,3.2619c0,0-1.676,1.675-2.1163,2.1208c-0.085,0.0861-0.1688,0.1135-0.282,0.0961&#xA;&#x9;c-0.1481-0.0226-0.2974-0.038-0.4462-0.0558c-0.4072-0.0485-0.8145-0.0966-1.2292-0.1458C9.649,4.6852,9.5787,4.1049,9.5177,3.5236&#xA;&#x9;C9.512,3.4689,9.5509,3.3943,9.5925,3.3522c0.5071-0.5134,1.9261-1.9287,2.134-2.136c-0.4508-0.2129-1.2243-0.2968-1.8007-0.2031&#xA;&#x9;c-2.1801,0.3543-3.5112,2.534-2.8206,4.625C7.1432,5.753,7.1194,5.8201,7.0374,5.902C5.1891,7.7454,3.3436,9.5914,1.498,11.4374&#xA;&#x9;c-0.0616,0.0616-0.1231,0.124-0.1779,0.1913c-0.5264,0.6473-0.3873,1.6264,0.2974,2.102c0.6044,0.4197,1.3658,0.3442,1.9053-0.1948&#xA;&#x9;c1.8534-1.8519,3.7059-3.7047,5.556-5.5598C9.1707,7.884,9.2437,7.8526,9.3779,7.8983c0.6189,0.2109,1.2524,0.2354,1.8884,0.0884&#xA;&#x9;c1.9386-0.4478,3.1251-2.3732,2.6549-4.3034C13.8895,3.5532,13.843,3.4244,13.7919,3.2619z"/>
</svg>