<?xml version="1.0" encoding="UTF-8"?>
<svg version="1.1" id="heliport" xmlns="http://www.w3.org/2000/svg" width="15" height="15" viewBox="0 0 15 15">
  <path id="path10415" d="M4,2C3,2,3,3,4,3h4v1C7.723,4,7.5,4.223,7.5,4.5V5H5H3.9707H3.9316&#xA;&#x9;C3.7041,4.1201,2.9122,3.5011,2,3.5c-1.1046,0-2,0.8954-2,2s0.8954,2,2,2c0.3722-0.001,0.7368-0.1058,1.0527-0.3027L5.5,10.5&#xA;&#x9;C6.5074,11.9505,8.3182,12,9,12h5c0,0,1,0,1-1v-0.9941C15,9.2734,14.874,8.874,14.5,8.5l-3-3c0,0-0.5916-0.5-1.2734-0.5H9.5V4.5&#xA;&#x9;C9.5,4.223,9.277,4,9,4V3h4c1,0,1-1,0-1C13,2,4,2,4,2z M2,4.5c0.5523,0,1,0.4477,1,1s-0.4477,1-1,1s-1-0.4477-1-1&#xA;&#x9;C1,4.9477,1.4477,4.5,2,4.5z M10,6c0.5,0,0.7896,0.3231,1,0.5L13.5,9H10c0,0-1,0-1-1V7C9,7,9,6,10,6z"/>
</svg>