<?xml version="1.0" encoding="UTF-8"?>
<svg xmlns="http://www.w3.org/2000/svg" id="hot-spring" width="15" height="15" viewBox="0 0 15 15">
  <path d="M13.536,12.008h0a1.584,1.584,0,0,0-1.105.416l-.437.407a.662.662,0,0,1-.928,0c-.139-.119-.269-.258-.409-.387a1.679,1.679,0,0,0-2.275,0c-.148.129-.288.278-.436.407a.663.663,0,0,1-.929,0c-.148-.129-.288-.278-.436-.407a1.68,1.68,0,0,0-2.266,0c-.139.129-.269.268-.408.387a.86.86,0,0,1-.279.159.748.748,0,0,1-.743-.248,5.9,5.9,0,0,0-.733-.576,1.089,1.089,0,0,0-.632-.158H1.464a.5.5,0,0,0,0,.992h0a.847.847,0,0,1,.6.307l.334.258a1.676,1.676,0,0,0,2.164.06c.176-.139.334-.317.51-.466a.663.663,0,0,1,.929,0l.362.347a1.687,1.687,0,0,0,2.284.07c.14-.11.251-.248.39-.367A.683.683,0,0,1,10,13.15c.017.015.422.406.422.406a1.667,1.667,0,0,0,1.634.367,1.961,1.961,0,0,0,.928-.6A.923.923,0,0,1,13.536,13h0a.5.5,0,0,0,0-.992ZM7.464,2.047A2.871,2.871,0,0,0,6.87,6.583a1.785,1.785,0,0,1,.562,1.694C7.119,9.17,6.342,10,6.774,11c.286-.971,1.367-1.291,1.861-2.124.99-1.565-.155-3-1.03-4.245C7.144,3.323,8.824,2.32,8.225,1A2.2,2.2,0,0,1,7.464,2.047Zm2.946,1.5a2.262,2.262,0,0,0,.525,3.106,1.059,1.059,0,0,1,.52,1.067c-.319.741-1.088,1.408-.686,2.28.374-.87,1.016-.644,1.817-1.546a2.261,2.261,0,0,0-.519-3.109,1.059,1.059,0,0,1-.527-1.067c.318-.741,1.088-1.406.687-2.278C11.855,2.87,11.211,2.645,10.41,3.547Zm-8,0a2.262,2.262,0,0,0,.525,3.106,1.059,1.059,0,0,1,.52,1.067c-.319.741-1.088,1.408-.686,2.28.374-.87,1.016-.644,1.817-1.546a2.261,2.261,0,0,0-.519-3.109A1.059,1.059,0,0,1,3.54,4.278C3.858,3.537,4.628,2.872,4.227,2,3.855,2.87,3.211,2.645,2.41,3.547Z"/>
</svg>