<?xml version="1.0" encoding="UTF-8"?>
<svg id="landuse" xmlns="http://www.w3.org/2000/svg" width="15" height="15" viewBox="0 0 15 15">
  <path d="M8.911,3.854A.248.248,0,0,1,9,4.044V7.75A.25.25,0,0,1,8.75,8H6.25A.25.25,0,0,1,6,7.75V6H5V7.75A.25.25,0,0,1,4.75,8H2.25A.25.25,0,0,1,2,7.75v-3.7a.248.248,0,0,1,.089-.19L5.343,1.132a.245.245,0,0,1,.315,0ZM7.752,9.5a.248.248,0,0,0-.138.042L5,11.5H4v-2a.5.5,0,0,0-1,0v2H2v-2a.5.5,0,0,0-1,0v4.25a.25.25,0,0,0,.25.25h6.5A.25.25,0,0,0,8,13.75v-4A.248.248,0,0,0,7.752,9.5ZM14,6.245v6.5a.253.253,0,0,1-.253.253H10.253A.253.253,0,0,1,10,12.747V6.25A.249.249,0,0,1,10.25,6H11V5.249A.249.249,0,0,1,11.249,5h1.5A.253.253,0,0,1,13,5.253V6h.755A.245.245,0,0,1,14,6.245ZM13,11H11v1h2Zm0-2H11v1h2Zm0-2H11V8h2Z"/>
</svg>