<?xml version="1.0" encoding="UTF-8"?>
<svg version="1.1" id="music" xmlns="http://www.w3.org/2000/svg" width="15" height="15" viewBox="0 0 15 15">
  <path d="M13.5,1c-0.0804,0.0008-0.1594,0.0214-0.23,0.06L4.5,3.5C4.2239,3.5,4,3.7239,4,4v6.28C3.6971,10.1002,3.3522,10.0037,3,10&#xA;&#x9;c-1.1046,0-2,0.8954-2,2s0.8954,2,2,2s2-0.8954,2-2V7.36l8-2.22v3.64c-0.3029-0.1798-0.6478-0.2763-1-0.28c-1.1046,0-2,0.8954-2,2&#xA;&#x9;s0.8954,2,2,2s2-0.8954,2-2v-9C14,1.2239,13.7761,1,13.5,1z M13,4.14L5,6.36v-2l8-2.22C13,2.14,13,4.14,13,4.14z"/>
</svg>