<?xml version="1.0" encoding="UTF-8"?>
<svg version="1.1" id="optician" xmlns="http://www.w3.org/2000/svg" width="15" height="15" viewBox="0 0 15 15">
  <path d="M14.5,6h-0.6766c-0.2828-0.5892-0.8801-1-1.5763-1H9.752C8.9344,5,8.2513,5.5656,8.059,6.3246&#xA;&#x9;C7.8854,6.2835,7.6991,6.25,7.5,6.25S7.1146,6.2834,6.941,6.3245C6.7487,5.5656,6.0654,5,5.2476,5H2.7529&#xA;&#x9;C2.0566,5,1.4592,5.4108,1.1765,6H0.4992C0.2235,6,0,6.2234,0,6.4991v0.0016C0,6.7765,0.2235,7,0.4992,7H1v0.5&#xA;&#x9;C1,9.0889,2.0024,10,3.75,10h0.5C5.9976,10,7,9.0889,7,7.5V7.3413C7.1503,7.2933,7.3307,7.25,7.5,7.25&#xA;&#x9;c0.1693,0,0.3499,0.0433,0.5,0.0913V7.5C8,9.0889,9.002,10,10.75,10h0.5C12.998,10,14,9.0889,14,7.5V7h0.5&#xA;&#x9;C14.7761,7,15,6.7761,15,6.5C15,6.2238,14.7761,6,14.5,6z M6,7.5C6,8.1982,5.8013,9,4.25,9h-0.5C2.1987,9,2,8.1982,2,7.5V6.7524&#xA;&#x9;C2,6.3374,2.3379,6,2.7529,6h2.4946C5.6626,6,6,6.3374,6,6.7524V7.5z M13,7.5C13,8.1982,12.8008,9,11.25,9h-0.5&#xA;&#x9;C9.1992,9,9,8.1982,9,7.5V6.7524C9,6.3374,9.3369,6,9.752,6h2.4951C12.6621,6,13,6.3379,13,6.7529V7.5z"/>
</svg>