<?xml version="1.0" encoding="UTF-8"?>
<svg version="1.1" id="paint" xmlns="http://www.w3.org/2000/svg" width="15" height="15" viewBox="0 0 15 15">
  <path d="M13.5,2.5h-1V1.5027C12.5,1.225,12.2749,1,11.9973,1H1.5027C1.2251,1,1,1.225,1,1.5027v2.9946C1,4.7749,1.2251,5,1.5027,5&#xA;&#x9;h10.4946C12.2749,5,12.5,4.7749,12.5,4.4973V3.5H13v3.1021L6.8877,8.0127C6.6606,8.0654,6.5,8.2676,6.5,8.5v1.5074&#xA;&#x9;c-0.2783,0.02-0.5,0.246-0.5,0.5295v2.9261C6,13.7596,6.2404,14,6.5369,14h0.9261C7.7596,14,8,13.7596,8,13.4631v-2.9261&#xA;&#x9;c0-0.2834-0.2217-0.5095-0.5-0.5295v-1.11l6.1123-1.4102C13.8389,7.4351,14,7.2329,14,7V3C14,2.7236,13.7764,2.5,13.5,2.5z"/>
</svg>