<?xml version="1.0" encoding="UTF-8"?>
<svg version="1.1" id="park" xmlns="http://www.w3.org/2000/svg" width="15" height="15" viewBox="0 0 15 15">
  <path d="M14,5.75c0.0113-0.6863-0.3798-1.3159-1-1.61C12.9475,3.4906,12.4014,2.9926,11.75,3&#xA;&#x9;c-0.0988,0.0079-0.1962,0.0281-0.29,0.06c-0.0607-0.66-0.6449-1.1458-1.3048-1.0851C9.8965,1.9987,9.6526,2.1058,9.46,2.28l0,0&#xA;&#x9;c0-0.6904-0.5596-1.25-1.25-1.25S6.96,1.5896,6.96,2.28C6.96,2.28,7,2.3,7,2.33C6.4886,1.8913,5.7184,1.9503,5.2797,2.4618&#xA;&#x9;C5.1316,2.6345,5.0347,2.8451,5,3.07C4.8417,3.0195,4.6761,2.9959,4.51,3C3.6816,2.9931,3.0044,3.659,2.9975,4.4874&#xA;&#x9;C2.9958,4.6872,3.0341,4.8852,3.11,5.07C2.3175,5.2915,1.8546,6.1136,2.0761,6.9061C2.2163,7.4078,2.6083,7.7998,3.11,7.94&#xA;&#x9;c0.2533,0.7829,1.0934,1.2123,1.8763,0.959C5.5216,8.7258,5.9137,8.2659,6,7.71C6.183,7.8691,6.4093,7.9701,6.65,8v5L5,14h5l-1.6-1&#xA;&#x9;v-2c0.7381-0.8915,1.6915-1.5799,2.77-2c0.8012,0.1879,1.603-0.3092,1.7909-1.1103C12.9893,7.7686,13.0025,7.6444,13,7.52&#xA;&#x9;c0.0029-0.0533,0.0029-0.1067,0-0.16C13.6202,7.0659,14.0113,6.4363,14,5.75z M8.4,10.26V6.82C8.6703,7.3007,9.1785,7.5987,9.73,7.6&#xA;&#x9;h0.28c0.0156,0.4391,0.2242,0.849,0.57,1.12C9.7643,9.094,9.0251,9.6162,8.4,10.26z"/>
</svg>