<?xml version="1.0" encoding="UTF-8"?>
<svg version="1.1" id="prison" xmlns="http://www.w3.org/2000/svg" width="15" height="15" viewBox="0 0 15 15">
  <path id="rect3607" d="M3.5,1v13H12V1H3.5z M9.5,2H11v3.5H9.5V2z M4.5,2.0547H6V7H4.5V2.0547z M7,2.0547h1.5V7H7V2.0547z M10.25,6.5&#xA;&#x9;C10.6642,6.5,11,6.8358,11,7.25S10.6642,8,10.25,8l0,0C9.8358,8,9.5,7.6642,9.5,7.25l0,0C9.5,6.8358,9.8358,6.5,10.25,6.5z M7,8&#xA;&#x9;h1.4727L8.5,13H7.0273L7,8z M4.5,8.166H6V13H4.5V8.166z M9.5,9H11v4H9.5V9z"/>
</svg>