<?xml version="1.0" encoding="UTF-8"?>
<svg xmlns="http://www.w3.org/2000/svg" width="15" height="15" viewBox="0 0 15 15" id="racetrack-boat">
  <path d="M10.0643 12.2159C10.5334 11.7034 11.0001 11.1935 11.6581 10.9742C12.5793 10.6671 13.2483 11.052 13.5246 11.2547C14.2487 11.7857 14.915 11.0343 14.116 10.4483C13.6891 10.1352 12.6709 9.58253 11.3419 10.0255C10.6217 10.2656 10.1292 10.7922 9.63703 11.3186C9.23691 11.7465 8.83694 12.1742 8.31491 12.4477C7.6958 12.772 7.25005 12.4211 7.25005 11.8125V11.8004C7.25026 11.0022 6.84186 10.5 6.00005 10.5C5.50934 10.5 5.00789 10.7582 4.50004 11C3.32493 11.5596 2.18205 12.2859 1.1829 13.1134C0.972261 13.2885 0.939711 13.6085 1.11594 13.82C1.36644 14.1206 1.6967 13.9821 1.94532 13.7821C2.35893 13.4492 3.72648 12.3908 4.87908 11.8421C5.3556 11.6151 5.74077 11.5 6.00005 11.5C6.25002 11.5 6.25002 11.6016 6.25002 11.8396C6.248 13.166 7.54027 13.9824 8.77895 13.3335C9.2831 13.0694 9.67452 12.6418 10.0643 12.2159ZM2.50004 10C4.00004 9 5.75496 8 7.50004 8C8.25004 8 8.25004 8.375 8.25004 8.75C8.25004 9.125 8.25004 9.5 9.00004 9.5C11.5275 9.5 14.3632 6.28623 14.5 4L12 5L9.65805 4.02555C9.04629 3.82163 8.73006 4.77031 9.34182 4.97423L10.5 5.5L9.00004 6L5.00004 4.75C4.76398 4.67131 4.61132 4.77744 4.50004 5L3.00004 8L1 9L2.50004 10ZM5.00004 3C5.00004 2.4477 5.44774 2 6.00004 2C6.55234 2 7.00004 2.4477 7.00004 3C7.00004 3.5523 6.55234 4 6.00004 4C5.44774 4 5.00004 3.5523 5.00004 3Z"/>
</svg>