<?xml version="1.0" encoding="UTF-8"?>
<svg xmlns="http://www.w3.org/2000/svg" width="15" height="15" viewBox="0 0 15 15" id="racetrack-cycling">
  <path d="M8 1L11 4H12C14 4 14 1 12 1H8ZM8.463 3C8.34323 3.00901 8.2307 3.06084 8.146 3.146L5.646 5.646C5.59615 5.69579 5.55739 5.75555 5.53225 5.82136C5.50711 5.88718 5.49617 5.95757 5.50014 6.02791C5.5041 6.09825 5.52289 6.16696 5.55526 6.22953C5.58764 6.2921 5.63287 6.34713 5.688 6.391L7.846 8.117L6.57 10.242C6.50157 10.356 6.48125 10.4926 6.51351 10.6216C6.54577 10.7506 6.62796 10.8616 6.742 10.93C6.85604 10.9984 6.9926 11.0187 7.12162 10.9865C7.25065 10.9542 7.36157 10.872 7.43 10.758L8.93 8.258C8.99256 8.15404 9.01519 8.03088 8.99366 7.91148C8.97214 7.79207 8.90793 7.68457 8.813 7.609L7.304 6.402L9 4.707L10.146 5.854C10.1925 5.9004 10.2477 5.93718 10.3085 5.96223C10.3692 5.98728 10.4343 6.00012 10.5 6H13C13.1326 6 13.2598 5.94732 13.3536 5.85355C13.4473 5.75979 13.5 5.63261 13.5 5.5C13.5 5.36739 13.4473 5.24021 13.3536 5.14645C13.2598 5.05268 13.1326 5 13 5H10.707L8.854 3.146C8.80319 3.09493 8.74195 3.05545 8.67446 3.03025C8.60698 3.00505 8.53484 2.99473 8.463 3ZM2.949 7C2.16222 7.01338 1.4122 7.33534 0.860573 7.89651C0.308947 8.45767 -0.000113683 9.21311 3.13683e-08 10C3.13683e-08 10.7956 0.316071 11.5587 0.87868 12.1213C1.44129 12.6839 2.20435 13 3 13C3.79565 13 4.55871 12.6839 5.12132 12.1213C5.68393 11.5587 6 10.7956 6 10C6.00006 9.60179 5.92083 9.20756 5.76695 8.84028C5.61307 8.47301 5.38761 8.14004 5.10372 7.8608C4.81982 7.58157 4.48318 7.36164 4.11341 7.21385C3.74364 7.06606 3.34815 6.99336 2.95 7H2.949ZM11.949 7C11.1622 7.01338 10.4122 7.33534 9.86057 7.89651C9.30895 8.45767 8.99989 9.21311 9 10C9 10.7956 9.31607 11.5587 9.87868 12.1213C10.4413 12.6839 11.2044 13 12 13C12.7956 13 13.5587 12.6839 14.1213 12.1213C14.6839 11.5587 15 10.7956 15 10C15.0001 9.60179 14.9208 9.20756 14.767 8.84028C14.6131 8.47301 14.3876 8.14004 14.1037 7.8608C13.8198 7.58157 13.4832 7.36164 13.1134 7.21385C12.7436 7.06606 12.3482 6.99336 11.95 7H11.949ZM12.049 8C12.5709 8.01279 13.0671 8.22914 13.4316 8.60283C13.7962 8.97653 14.0002 9.47795 14 10C14 10.5304 13.7893 11.0391 13.4142 11.4142C13.0391 11.7893 12.5304 12 12 12C11.4696 12 10.9609 11.7893 10.5858 11.4142C10.2107 11.0391 10 10.5304 10 10C9.99992 9.73318 10.0532 9.46904 10.1568 9.22314C10.2603 8.97724 10.4121 8.75455 10.603 8.56818C10.7939 8.3818 11.0202 8.23552 11.2686 8.13794C11.5169 8.04036 11.7823 7.99346 12.049 8V8Z"/>
</svg>