<?xml version="1.0" encoding="UTF-8"?>
<svg version="1.1" id="rail-metro" xmlns="http://www.w3.org/2000/svg" width="15" height="15" viewBox="0 0 15 15">
  <path id="path5258" d="M5.5,0c0,0-0.75,0-1,1L3,6.5V10c0,1,1,1,1,1h7c0,0,1,0,1-1V6.5L10.5,1c-0.2727-1-1-1-1-1H5.5z M6.5,1.5h2&#xA;&#x9;c0,0,0.5357,0,0.75,1L10,6c0.2146,1.0017-1,1-1,1H6c0,0-1.2146,0.0017-1-1l0.75-3.5C5.9643,1.5,6.5,1.5,6.5,1.5z M5,8&#xA;&#x9;c0.5523,0,1,0.4477,1,1s-0.4477,1-1,1S4,9.5523,4,9S4.4477,8,5,8z M6.75,8h1.5C8.3885,8,8.5,8.1115,8.5,8.25S8.3885,8.5,8.25,8.5&#xA;&#x9;h-1.5C6.6115,8.5,6.5,8.3885,6.5,8.25S6.6115,8,6.75,8z M10,8c0.5523,0,1,0.4477,1,1s-0.4477,1-1,1S9,9.5523,9,9S9.4477,8,10,8z&#xA;&#x9; M4.125,12L3,15h1.5l0.375-1h5.25l0.375,1H12l-1.125-3h-1.5l0.375,1h-4.5l0.375-1H4.125z"/>
</svg>