<?xml version="1.0" encoding="UTF-8"?>
<svg version="1.1" id="religious-muslim" xmlns="http://www.w3.org/2000/svg" width="15" height="15" viewBox="0 0 15 15">
  <path id="path7552-2-1" d="M6.7941,0C3,0,0,3,0,6.7941&#xA;&#x9;s3,6.7941,6.7941,6.7941c2.1176,0,4.4118-0.7059,5.6471-2.2941C11.6471,11.8235,10.1471,12.4412,9,12.4412&#xA;&#x9;c-2.9118,0-5.1176-2.9118-5.1176-5.8235S6.0882,1.1471,9,1.1471c1.0588,0,2.5588,0.6176,3.4412,1.1471&#xA;&#x9;C11.2059,0.7059,8.9118,0,6.7941,0z M11,3l-1,2.5H7L9.5,7l-1,3L11,8.5l2.5,1.5l-1-3L15,5.5h-3L11,3z"/>
</svg>