<?xml version="1.0" encoding="UTF-8"?>
<svg xmlns="http://www.w3.org/2000/svg" width="15" height="15" viewBox="0 0 15 15" id="restaurant-bbq">
  <path d="M12.0166,12.5H14.5L12,15V12.5165a1.6189,1.6189,0,0,1-1.1367.4806,1.6,1.6,0,0,1-.9931-.3448A6.7838,6.7838,0,0,1,9.8783,2.3418,1.6179,1.6179,0,0,1,12,2.462V0l2.5,2.5H12.036a1.5927,1.5927,0,0,1,.1225.1289,1.6239,1.6239,0,0,1-.2871,2.2793A3.5148,3.5148,0,0,0,10.75,7.4951a3.5578,3.5578,0,0,0,1.1465,2.6162,1.6352,1.6352,0,0,1,.2325,2.2783C12.0949,12.4315,12.0535,12.4624,12.0166,12.5ZM2.504,0l-1,5.5c-.1464.805,1.7815,1.181,1.75,2L3.004,14a.9625.9625,0,0,0,1,1,.9625.9625,0,0,0,1-1l-.25-6.5c-.0314-.8176,1.7334-1.1808,1.75-2l-1-5.5h-.5l.25,4-.75.5L4.254,0h-.5l-.25,4.5L2.754,4l.25-4Z"/>
</svg>