<?xml version="1.0" encoding="UTF-8"?>
<svg id="restaurant-seafood" xmlns="http://www.w3.org/2000/svg" width="15" height="15" viewBox="0 0 15 15">
  <path d="M11.433,10.0889h2.49v.75H11.8525A4.81,4.81,0,0,1,13.4751,13.14l-.71.2422a4.01,4.01,0,0,0-1.74-2.1971,1.7775,1.7775,0,0,1-1.0352.4538L8.4374,12.9852H6.5188L4.9839,11.623a2.0222,2.0222,0,0,1-1.0929-.44,4.0093,4.0093,0,0,0-1.7426,2.1988l-.71-.2422a4.8146,4.8146,0,0,1,1.622-2.3007H.99v-.75H3.4839l.8633-.6764L3.3329,7.7567a2.2738,2.2738,0,0,1-.269.0293,2.0192,2.0192,0,0,1-2.0532-2.08c0-2.08,1.979-4.16,1.979-4.16L2.2531,5.9931l1.7255-.0012L4.9913,2.9852l0,2.9956a2.0936,2.0936,0,0,1-.6993,1.4121l.8536,1.3936L5.23,8.7208a3.8669,3.8669,0,0,1,4.4784,0l.0605.0474.869-1.4152a2.1177,2.1177,0,0,1-.6433-1.3722l0-2.9956.9836,3.0067,1.7547.0012-.7367-4.4466s1.982,2.08,1.982,4.16a2.0211,2.0211,0,0,1-2.0562,2.08,2.3125,2.3125,0,0,1-.3441-.0376L10.5676,9.3945l.8407.6593C11.4212,10.0638,11.4218,10.0782,11.433,10.0889Z"/>
</svg>