<?xml version="1.0" encoding="UTF-8"?>
<svg version="1.1" id="restaurant-sushi" xmlns="http://www.w3.org/2000/svg" width="15" height="15" viewBox="0 0 15 15">
  <path id="path4999" d="M5.5,3C5.2239,3,5,3.2239,5,3.5H2.75C1.2265,3.5,0,4.7265,0,6.25c0,0.8274,0.3687,1.5592,0.9434,2.0625&#xA;&#x9;C0.3803,8.6675,0,9.2893,0,10c0,1.0994,0.9006,2,2,2h3.5h2H10c1.0994,0,2-0.9006,2-2c0-0.4883-0.1863-0.9294-0.4805-1.2773&#xA;&#x9;l2.1777,0.9629c0.3716,0.1831,0.8213,0.0303,1.0044-0.3413c0.1831-0.3716,0.0303-0.8213-0.3413-1.0044&#xA;&#x9;c-0.0188-0.0093-0.038-0.0178-0.0576-0.0254l-1.8105-0.8027l1.6309-0.2715c0.4099-0.0599,0.6936-0.4408,0.6337-0.8507&#xA;&#x9;c-0.0544-0.3724-0.3765-0.6469-0.7528-0.6415c-0.0426,0.0003-0.085,0.0042-0.127,0.0117l-2.1309,0.3555&#xA;&#x9;C11.2595,4.9521,10.0387,3.7837,8,3.5488V3.5C8,3.2239,7.7761,3,7.5,3H5.5z M6,4h1v5v2H6V9V4z M9.5,8&#xA;&#x9;c0.259,0,0.4638,0.1974,0.4902,0.4492l0.0762-0.1328c0.1385-0.2399,0.4437-0.3201,0.6836-0.1816s0.3201,0.4418,0.1816,0.6816&#xA;&#x9;l-0.2578,0.4473C10.8727,9.445,11,9.7021,11,10c0,0.5626-0.4374,1-1,1H8V9h1V8.5C9,8.223,9.223,8,9.5,8z M2.4395,8.0703&#xA;&#x9;c0.1934-0.0242,0.3903,0.0662,0.4941,0.2461l0.2012,0.3477C3.226,8.5647,3.3538,8.5,3.5,8.5C3.777,8.5,4,8.723,4,9h1v2H2&#xA;&#x9;c-0.5626,0-1-0.4374-1-1s0.4374-1,1-1h0.1738L2.0684,8.8164C1.9299,8.5765,2.0101,8.2733,2.25,8.1348&#xA;&#x9;C2.31,8.1001,2.375,8.0784,2.4395,8.0703z"/>
</svg>