<?xml version="1.0" encoding="UTF-8"?>
<svg xmlns="http://www.w3.org/2000/svg" id="road-accident" width="15" height="15" viewBox="0 0 15 15">
  <path d="M12.6,8.7,11.5,6.5a1.05,1.05,0,0,0-.9-.5H4.4a1.05,1.05,0,0,0-.9.5L2.4,8.7,1.16,9.852a.5.5,0,0,0-.16.366V14.5a.5.5,0,0,0,.5.5h2c.2,0,.5-.2.5-.4V14h7v.5c0,.2.2.5.4.5h2.1a.5.5,0,0,0,.5-.5V10.218a.5.5,0,0,0-.16-.366ZM4.5,7h6l1,2h-8ZM5,11.6c0,.2-.3.4-.5.4H2.4c-.2,0-.4-.3-.4-.5V10.4c.1-.3.3-.5.6-.4l2,.4c.2,0,.4.3.4.5Zm8-.1c0,.2-.2.5-.4.5H10.5c-.2,0-.5-.2-.5-.4v-.7c0-.2.2-.5.4-.5l2-.4c.3-.1.5.1.6.4ZM8,4H7L6,0H9ZM1.1,1.8,3.7.3l1.1,4L4,4.7ZM11.3.3l2.6,1.5L11,4.8l-.9-.5Z"/>
</svg>