<?xml version="1.0" encoding="UTF-8"?>
<svg version="1.1" id="shop" xmlns="http://www.w3.org/2000/svg" width="15" height="15" viewBox="0 0 15 15">
  <path d="M13.33,6H11.5l-0.39-2.33c-0.1601-0.7182-0.7017-1.2905-1.41-1.49C9.3507,2.0676,8.9869,2.007,8.62,2H6.38&#xA;&#x9;C6.0131,2.007,5.6493,2.0676,5.3,2.18C4.5917,2.3795,4.0501,2.9518,3.89,3.67L3.5,6H1.67C1.3939,5.9983,1.1687,6.2208,1.167,6.497&#xA;&#x9;C1.1667,6.5489,1.1744,6.6005,1.19,6.65l1.88,6.3l0,0C3.2664,13.5746,3.8453,13.9996,4.5,14h6c0.651-0.0047,1.2247-0.4289,1.42-1.05&#xA;&#x9;l0,0l1.88-6.3c0.0829-0.2634-0.0635-0.5441-0.3269-0.627C13.4268,6.0084,13.3786,6.0007,13.33,6z M4.52,6l0.36-2.17&#xA;&#x9;c0.0807-0.3625,0.3736-0.6395,0.74-0.7C5.8663,3.0524,6.1219,3.0087,6.38,3h2.24c0.2614,0.0078,0.5205,0.0515,0.77,0.13&#xA;&#x9;c0.3664,0.0605,0.6593,0.3375,0.74,0.7L10.48,6h-6H4.52z"/>
</svg>