<?xml version="1.0" encoding="UTF-8"?>
<svg id="slaughterhouse" xmlns="http://www.w3.org/2000/svg" width="15" height="15" viewBox="0 0 15 15">
  <path d="M15,8.1c0,1.376-1.363.694-1.363.694L12.5,9H11a5.309,5.309,0,0,1-1.5,2,3.272,3.272,0,0,1-.523,1.125c-.077.091-.061.2-.068.33L9,14.755a.264.264,0,0,1-.266.25A.242.242,0,0,1,8.5,14.8L8,11.5H4v3.253A.247.247,0,0,1,3.753,15h0a.25.25,0,0,1-.241-.2L3,12v-.5a8.2,8.2,0,0,1-1.426-.1A1.886,1.886,0,0,1,.9,12.826c-.128.083-.148.211-.133.386,0,0,.19,1.532.19,1.538a.25.25,0,0,1-.25.25.238.238,0,0,1-.23-.174l-.427-1.7a.35.35,0,0,1,.055-.3c.437-.68-.049-2.55-.049-2.55A1.354,1.354,0,0,1,0,9.922V7.5A2.027,2.027,0,0,1,2.736,5.586s.1.03.142.049a15.15,15.15,0,0,0,3.814.038l.179-.062a1.842,1.842,0,0,1,1.26,0,.972.972,0,0,1,.227.089,1.994,1.994,0,0,1,.287.171A1.8,1.8,0,0,0,9.5,6h1V5l.5.5c.5-1.5,2.5-1,2.5-1a1.687,1.687,0,0,0-1.5,1l2.5,2a.613.613,0,0,1,.186-.069A.318.318,0,0,1,15,7.752V8.1Z"/>
</svg>