<?xml version="1.0" encoding="UTF-8"?>
<svg version="1.1" id="swimming" xmlns="http://www.w3.org/2000/svg" width="15" height="15" viewBox="0 0 15 15">
  <path id="path16388" d="M10.1113,2C9.9989,2,9.6758,2.1465,9.6758,2.1465L6.3535,3.8262&#xA;&#x9;C5.9111,4.0024,5.7358,4.7081,6.002,5.0605l0.9707,1.4082L3.002,8.498L5,9.998l2.502-1.5l2.5,1.5l1.002-1.002l-3-4l2.5566-1.5293&#xA;&#x9;c0.5286-0.2662,0.4434-0.7045,0.4434-0.9707C10.9999,2.2861,10.6437,2,10.1113,2z M12.252,5C11.2847,5,10.5,5.7827,10.5,6.75&#xA;&#x9;s0.7847,1.752,1.752,1.752s1.75-0.7847,1.75-1.752S13.2192,5,12.252,5z M2.5,10L0,11.5V13l2.5-1.5L5,13l2.502-1.5l2.5,1.5L12,11.5&#xA;&#x9;l3,1.5v-1.5L12,10l-1.998,1.5l-2.5-1.5L5,11.5L2.5,10z"/>
</svg>