<?xml version="1.0" encoding="UTF-8"?>
<svg version="1.1" id="theatre" xmlns="http://www.w3.org/2000/svg" width="15" height="15" viewBox="0 0 15 15">
  <path id="path6342-3" d="M2,1c0,0-1,0-1,1v5.1582C1,8.8885,1.354,11,4.5,11H5V8L2.5,9c0,0,0-2.5,2.5-2.5V5&#xA;&#x9;c0-0.7078,0.0868-1.3209,0.5-1.7754C5.8815,2.805,6.5046,1.9674,8.1562,2.7539L9,3.3027V2c0,0,0-1-1-1C7.2922,1,6.0224,2,5,2&#xA;&#x9;S2.7865,1,2,1z M3,3c0.5523,0,1,0.4477,1,1S3.5523,5,3,5S2,4.5523,2,4S2.4477,3,3,3z M7,4c0,0-1,0-1,1v5c0,2,1,4,4,4s4-2,4-4V5&#xA;&#x9;c0-1-1-1-1-1c-0.7078,0-1.9776,1-3,1S7.7865,4,7,4z M8,6c0.5523,0,1,0.4477,1,1S8.5523,8,8,8S7,7.5523,7,7S7.4477,6,8,6z M12,6&#xA;&#x9;c0.5523,0,1,0.4477,1,1s-0.4477,1-1,1s-1-0.4477-1-1S11.4477,6,12,6z M7.5,10H10h2.5c0,0,0,2.5-2.5,2.5S7.5,10,7.5,10z"/>
</svg>