<?xml version="1.0" encoding="UTF-8"?>
<svg id="town" xmlns="http://www.w3.org/2000/svg" width="15" height="15" viewBox="0 0 15 15">
  <path d="M10.651,7.121a.251.251,0,0,0-.314,0L8.092,8.929A.247.247,0,0,0,8,9.122v4.625A.253.253,0,0,0,8.253,14H9.747A.253.253,0,0,0,10,13.747h0V12h1v1.747a.253.253,0,0,0,.253.253h1.494A.253.253,0,0,0,13,13.747h0V9.12a.25.25,0,0,0-.094-.2ZM10,11H9V10h1Zm2,0H11V10h1ZM5.71,1.815a.252.252,0,0,0-.42,0L2.042,5.936A.252.252,0,0,0,2,6.076v7.671A.252.252,0,0,0,2.251,14h2.5A.252.252,0,0,0,5,13.748V12H6v1.748A.252.252,0,0,0,6.252,14H7V8a.5.5,0,0,1,.188-.391L9,6C9,5.95,5.71,1.815,5.71,1.815ZM4,10H3V9H4ZM4,7H3V6H4Zm2,3H5V9H6ZM6,7H5V6H6Z"/>
</svg>