<?xml version="1.0" encoding="UTF-8"?>
<svg xmlns="http://www.w3.org/2000/svg" width="15" height="15" viewBox="0 0 15 15" id="veterinary">
  <path d="M7.5,6c-2.5,0-3,2.28-3,3.47h0a6.149,6.149,0,0,0-1.7.89,2,2,0,0,0-.4,2.78,2.06,2.06,0,0,0,2.8.4,4,4,0,0,1,2.3-.69,4,4,0,0,1,2.3.69,2,2,0,0,0,2.8-.3,1.929,1.929,0,0,0-.226-2.72c-.024-.021-.049-.041-.074-.06l-.1-.1a8.992,8.992,0,0,0-1.7-.89h0C10.5,8.29,10,6,7.5,6ZM2.08,4.3a1.58,1.58,0,0,0-.76,2A1.52,1.52,0,0,0,2.93,7.7a1.58,1.58,0,0,0,.76-2A1.52,1.52,0,0,0,2.08,4.3Zm10.85,0a1.58,1.58,0,0,1,.76,2,1.52,1.52,0,0,1-1.61,1.4,1.58,1.58,0,0,1-.76-2A1.52,1.52,0,0,1,12.93,4.3Zm-7.85-3c-.68.09-1,.94-.76,1.87A1.77,1.77,0,0,0,5.93,4.7c.68-.09,1-.94.76-1.87A1.77,1.77,0,0,0,5.08,1.3Zm4.85,0c.68.09,1,.94.76,1.87A1.77,1.77,0,0,1,9.07,4.7c-.68-.08-1-.94-.76-1.87A1.769,1.769,0,0,1,9.93,1.3Z"/>
</svg>