<?xml version="1.0" encoding="UTF-8"?>
<svg xmlns="http://www.w3.org/2000/svg" width="15" height="15" viewBox="0 0 15 15" id="watch">
  <path d="M12.5,7H12a.426.426,0,0,0-.049.01A4.484,4.484,0,0,0,10,3.76V1.5A.5.5,0,0,0,9.5,1h-4a.5.5,0,0,0-.5.5V3.76a4.5,4.5,0,0,0,0,7.48V13.5a.5.5,0,0,0,.5.5h4a.5.5,0,0,0,.5-.5V11.24a4.486,4.486,0,0,0,1.951-3.25A.426.426,0,0,0,12,8h.5a.5.5,0,0,0,0-1Zm-5,4A3.5,3.5,0,1,1,11,7.5,3.5,3.5,0,0,1,7.5,11ZM9,7H8V5.5a.5.5,0,0,0-1,0v2a.5.5,0,0,0,.5.5H9A.5.5,0,0,0,9,7Z"/>
</svg>