<?xml version="1.0" encoding="UTF-8"?>
<svg version="1.1" id="watermill" xmlns="http://www.w3.org/2000/svg" width="15" height="15" viewBox="0 0 15 15">
  <path d="M2,10.2L4,9l2.5,1.5l1.4659-0.8788C7.6592,9.4698,7.3716,9.285,7.1231,9.0536l1.4131-1.4131&#xA;&#x9;C8.7672,7.836,9.0557,7.9606,9.375,7.9874V9.224l0.25,0.1501V7.9874c0.3193-0.0268,0.6078-0.1514,0.8388-0.3469l1.4131,1.4131&#xA;&#x9;c-0.4059,0.3781-0.9044,0.6492-1.4528,0.8003L11.5,10.5l0.6984-0.4191C13.2863,9.2595,14,7.9682,14,6.5C14,4.0147,11.9853,2,9.5,2&#xA;&#x9;C8.1917,2,7.0241,2.5674,6.2018,3.4587L4.5,2L1,5h1V10.2z M12.0536,8.8769l-1.4131-1.4131c0.1954-0.231,0.3201-0.5196,0.3469-0.8388&#xA;&#x9;h1.9999C12.956,7.4946,12.6089,8.2806,12.0536,8.8769z M12.9874,6.375h-1.9999c-0.0268-0.3193-0.1514-0.6078-0.3469-0.8388&#xA;&#x9;l1.4131-1.4131C12.6089,4.7193,12.956,5.5054,12.9874,6.375z M9.625,3.0126c0.8696,0.0314,1.6557,0.3784,2.2519,0.9337&#xA;&#x9;l-1.4131,1.4131c-0.231-0.1954-0.5196-0.32-0.8388-0.3468C9.625,5.0126,9.625,3.0126,9.625,3.0126z M9.375,3.0126v1.9999&#xA;&#x9;C9.0558,5.0394,8.7672,5.164,8.5362,5.3594L7.1231,3.9463C7.7193,3.3911,8.5054,3.044,9.375,3.0126z M6.9464,4.1231l1.4131,1.4131&#xA;&#x9;C8.164,5.7672,8.0394,6.0557,8.0126,6.375h-2C6.044,5.5054,6.3911,4.7193,6.9464,4.1231z M8.0126,6.625&#xA;&#x9;c0.0268,0.3192,0.1515,0.6078,0.3469,0.8388L6.9464,8.8769C6.3911,8.2807,6.044,7.4946,6.0126,6.625H8.0126z M9.002,10L6.5,11.5&#xA;&#x9;L4,10l-2.5,1.5V13L4,11.5L6.5,13l2.502-1.5L11.5,13l2.5-1.5V10l-2.5,1.5L9.002,10z"/>
</svg>