<?xml version="1.0" encoding="UTF-8"?>
<svg id="waterfall" xmlns="http://www.w3.org/2000/svg" width="15" height="15" viewBox="0 0 15 15">
  <path d="M12.9,3H15V1H5c0,0-4,0-4,4v5.5h0c-1.1,0.8-1.3,2.4-0.5,3.5s2.4,1.3,3.5,0.5c1,0.8,2.5,0.6,3.4-0.4C8,14.7,8.9,15,9.8,15&#xA;&#x9;c2.1,0,3.7-1.6,3.8-3.7c0-1.6-1-3-2.5-3.5V5C11,3.9,11.8,3,12.9,3z M10,8v0.5c1.5,0.1,2.6,1.5,2.5,3c-0.1,1.4-1.3,2.5-2.7,2.5&#xA;&#x9;c-1.1,0.1-1.8-0.6-2.1-1H6.9c-0.1,0.2-0.4,1-1.4,1s-1.3-0.6-1.4-1H3.9c-0.2,0.4-0.5,0.8-0.9,0.9c-0.9,0.3-1.7-0.2-1.9-1&#xA;&#x9;c-0.2-0.8,0.2-1.6,0.9-1.8V6c0-0.5,0.4-1,1-1c0,0,0,0,0,0h0c0.5,0,1,0.4,1,1c0,0,0,0,0,0c0,0,0,0,0,0v4.5C4,10.8,4.2,11,4.5,11&#xA;&#x9;S5,10.8,5,10.5V7c0-0.6,0.4-1,1-1s1,0.4,1,1v3.5C7,10.8,7.2,11,7.5,11S8,10.8,8,10.5V6c0-0.6,0.4-1,1-1s1,0.4,1,1V8z"/>
</svg>