<?xml version="1.0" encoding="UTF-8"?>
<svg version="1.1" id="zoo" xmlns="http://www.w3.org/2000/svg" width="15" height="15" viewBox="0 0 15 15">
  <path id="path17499" d="&#xA;&#x9;M8.3879,3.8928C8.3879,3.8928,7.6818,5,7,5H4.5C3.8182,5,3.2016,5.4086,2.7273,5.8636L0.5,8C0.231,8.258,0.0072,8.7681,0,9&#xA;&#x9;c-0.0156,0.5,0,1,0,1s1,0,1-1V8.5l1-1h0.5l0.158,0.2892c0,0-0.9535,1.8244-0.9535,3.5289C1.7046,12,2.3864,12,2.3864,12h0.6818&#xA;&#x9;c0,0,0.3409,0,0-0.3409l-0.3409-0.3409C2.7273,10.6364,3.5002,9.6667,4,9c0,0,0.0168,1.1579,0,2c-0.008,0.4096,0.2721,1,0.6818,1&#xA;&#x9;h0.6818c0,0,0.3409,0,0-0.3409l-0.3409-0.3409C4.7105,10.7495,5.5,8.5,5.5,8.5C6.7716,8.5,7,9,8.5,9l0.3636,2.3182&#xA;&#x9;C8.975,12.0282,9.5,12,9.5,12H11c0.3409,0,0.9611-0.3115,0.3409-0.7736L11,11V9c1.2142-0.1722,2-1,2-2h1c0.3214,0,1,0,1-0.5v-1&#xA;&#x9;l-1.7045-1.6818C12.5444,3.0772,12,2.5,11,2.5C9.5469,2.5,8.8636,3.0688,8.3879,3.8928z"/>
</svg>