<svg width="158" height="48" viewBox="0 0 158 48" fill="none" xmlns="http://www.w3.org/2000/svg">
<g clip-path="url(#clip0_1144_161721)">
<path d="M0 1.04083V13H15V0H0.626828C0.460583 0 0 0 0 0C0 0 0 0.764787 0 1.04083Z" fill="url(#paint0_linear_1144_161721)"/>
<path d="M15 17.5H0V30.5H15V17.5Z" fill="#84AFF1"/>
<path d="M15 35H0V48H15V35Z" fill="#84AFF1"/>
<path d="M8.5 21H7.07158L5.5 21.9199V23.1738L6.92531 22.3535H6.96266V27H8.5V21Z" fill="#24292E"/>
<path d="M5.33733 44.5H9.75V43.3468H7.33409V43.3092L8.04722 42.6561C9.33959 41.5376 9.67723 40.9682 9.67723 40.289C9.67723 39.2225 8.8011 38.5 7.44761 38.5C6.12905 38.5 5.2471 39.2543 5.25001 40.4595H6.61514C6.61514 39.9249 6.94696 39.6156 7.44179 39.6156C7.92788 39.6156 8.28008 39.9133 8.28008 40.4017C8.28008 40.8439 8.00065 41.1445 7.51165 41.5809L5.33733 43.4711V44.5Z" fill="#24292E"/>
</g>
<path d="M27.3343 30H30.674V25.674H35V22.3343H30.674V18H27.3343V22.3343H23V25.674H27.3343V30Z" fill="#CCCCDC"/>
<g clip-path="url(#clip1_1144_161721)">
<path d="M58 26.5H43V39.5H58V26.5Z" fill="#3865AB"/>
<path d="M43 10.0408V22H58V9H43.6268C43.4606 9 43.3011 9.10966 43.1836 9.30485C43.066 9.50005 43 9.76479 43 10.0408Z" fill="url(#paint1_linear_1144_161721)"/>
<path d="M51.5 30H50.0716L48.5 30.9199V32.1738L49.9253 31.3535H49.9627V36H51.5V30Z" fill="white"/>
</g>
<g clip-path="url(#clip2_1144_161721)">
<path d="M77 26.5H62V39.5H77V26.5Z" fill="#3865AB"/>
<path d="M62 22H77V10.0408C77 9.76479 76.934 9.50005 76.8164 9.30485C76.6989 9.10966 76.5394 9 76.3732 9H62V22Z" fill="url(#paint2_linear_1144_161721)"/>
<path d="M67.3373 36H71.75V34.8468H69.3341V34.8092L70.0472 34.1561C71.3396 33.0376 71.6772 32.4682 71.6772 31.789C71.6772 30.7225 70.8011 30 69.4476 30C68.129 30 67.2471 30.7543 67.25 31.9595H68.6151C68.6151 31.4249 68.947 31.1156 69.4418 31.1156C69.9279 31.1156 70.2801 31.4133 70.2801 31.9017C70.2801 32.3439 70.0006 32.6445 69.5116 33.0809L67.3373 34.9711V36Z" fill="white"/>
</g>
<path d="M85 28.566H97V25.2034H85V28.566ZM85 22.7966H97V19.434H85V22.7966Z" fill="#CCCCDC"/>
<g clip-path="url(#clip3_1144_161721)">
<path d="M105 1.04083V13H120V0H105.627C105.461 0 105.301 0.109659 105.184 0.304853C105.066 0.500047 105 0.764787 105 1.04083Z" fill="url(#paint3_linear_1144_161721)"/>
<path d="M120 17.5H105V30.5H120V17.5Z" fill="#84AFF1"/>
<path d="M120 35H105V48H120V35Z" fill="#84AFF1"/>
<path d="M110.337 44.5H114.75V43.3468H112.334V43.3092L113.047 42.6561C114.34 41.5376 114.677 40.9682 114.677 40.289C114.677 39.2225 113.801 38.5 112.448 38.5C111.129 38.5 110.247 39.2543 110.25 40.4595H111.615C111.615 39.9249 111.947 39.6156 112.442 39.6156C112.928 39.6156 113.28 39.9133 113.28 40.4017C113.28 40.8439 113.001 41.1445 112.512 41.5809L110.337 43.4711V44.5Z" fill="#24292E"/>
<path d="M113.5 21H112.072L110.5 21.9199V23.1738L111.925 22.3535H111.963V27H113.5V21Z" fill="#24292E"/>
</g>
<g clip-path="url(#clip4_1144_161721)">
<path d="M139 35H124V48H139V35Z" fill="#CCCCDC" fill-opacity="0.4"/>
<path d="M124.5 35.5H138.5V47.5H124.5V35.5Z" stroke="#CCCCDC" stroke-opacity="0.25"/>
<path d="M124 1.04083V13H139V0H124.627C124.461 0 124 0 124 0C124 0 124 0.764787 124 1.04083Z" fill="url(#paint4_linear_1144_161721)"/>
<path d="M139 17.5H124V30.5H139V17.5Z" fill="#3865AB"/>
<path d="M132.5 21H131.072L129.5 21.9199V23.1738L130.925 22.3535H130.963V27H132.5V21Z" fill="white"/>
</g>
<g clip-path="url(#clip5_1144_161721)">
<path d="M158 17.5H143V30.5H158V17.5Z" fill="#3865AB"/>
<path d="M143 13H158V1.04083C158 0.764787 157.934 0.500047 157.816 0.304853C157.699 0.109659 157.539 0 157.373 0L143 0V13Z" fill="url(#paint5_linear_1144_161721)"/>
<path d="M148.337 27H152.75V25.8468H150.334V25.8092L151.047 25.1561C152.34 24.0376 152.677 23.4682 152.677 22.789C152.677 21.7225 151.801 21 150.448 21C149.129 21 148.247 21.7543 148.25 22.9595H149.615C149.615 22.4249 149.947 22.1156 150.442 22.1156C150.928 22.1156 151.28 22.4133 151.28 22.9017C151.28 23.3439 151.001 23.6445 150.512 24.0809L148.337 25.9711V27Z" fill="white"/>
<path d="M158 35H143V48H158V35Z" fill="#CCCCDC" fill-opacity="0.4"/>
<path d="M143.5 35.5H157.5V47.5H143.5V35.5Z" stroke="#CCCCDC" stroke-opacity="0.25"/>
</g>
<defs>
<linearGradient id="paint0_linear_1144_161721" x1="0" y1="6.5052" x2="15" y2="6.5052" gradientUnits="userSpaceOnUse">
<stop stop-color="#F2CC0C"/>
<stop offset="1" stop-color="#FF9830"/>
</linearGradient>
<linearGradient id="paint1_linear_1144_161721" x1="43" y1="15.5052" x2="58" y2="15.5052" gradientUnits="userSpaceOnUse">
<stop stop-color="#F2CC0C"/>
<stop offset="1" stop-color="#FF9830"/>
</linearGradient>
<linearGradient id="paint2_linear_1144_161721" x1="62" y1="15.5052" x2="77" y2="15.5052" gradientUnits="userSpaceOnUse">
<stop stop-color="#F2CC0C"/>
<stop offset="1" stop-color="#FF9830"/>
</linearGradient>
<linearGradient id="paint3_linear_1144_161721" x1="105" y1="6.5052" x2="120" y2="6.5052" gradientUnits="userSpaceOnUse">
<stop stop-color="#F2CC0C"/>
<stop offset="1" stop-color="#FF9830"/>
</linearGradient>
<linearGradient id="paint4_linear_1144_161721" x1="124" y1="6.5052" x2="139" y2="6.5052" gradientUnits="userSpaceOnUse">
<stop stop-color="#F2CC0C"/>
<stop offset="1" stop-color="#FF9830"/>
</linearGradient>
<linearGradient id="paint5_linear_1144_161721" x1="143" y1="6.5052" x2="158" y2="6.5052" gradientUnits="userSpaceOnUse">
<stop stop-color="#F2CC0C"/>
<stop offset="1" stop-color="#FF9830"/>
</linearGradient>
<clipPath id="clip0_1144_161721">
<rect width="15" height="48" fill="white"/>
</clipPath>
<clipPath id="clip1_1144_161721">
<rect width="15" height="30.5" fill="white" transform="translate(43 9)"/>
</clipPath>
<clipPath id="clip2_1144_161721">
<rect width="15" height="30.5" fill="white" transform="translate(62 9)"/>
</clipPath>
<clipPath id="clip3_1144_161721">
<rect width="15" height="48" fill="white" transform="translate(105)"/>
</clipPath>
<clipPath id="clip4_1144_161721">
<rect width="15" height="48" fill="white" transform="translate(124)"/>
</clipPath>
<clipPath id="clip5_1144_161721">
<rect width="15" height="48" fill="white" transform="translate(143)"/>
</clipPath>
</defs>
</svg>
