<svg width="50" height="48" viewBox="0 0 50 48" fill="none" xmlns="http://www.w3.org/2000/svg">
<path d="M0 0.611699V7.64012H14V0H0.58504C0.429878 0 0.28107 0.0644467 0.171354 0.179162C0.0616379 0.293878 0 0.449466 0 0.611699Z" fill="url(#paint0_linear_1144_162206)"/>
<path d="M14 10.0869H0V17.727H14V10.0869Z" fill="#84AFF1"/>
<path d="M14 20.1799H0V27.8262H14V20.1799Z" fill="#3865AB"/>
<path d="M14 30.2668H0V37.907H14V30.2668Z" fill="#84AFF1"/>
<path d="M14 48V40.3721H0V47.3883C0 47.5505 0.0616379 47.7061 0.171354 47.8209C0.28107 47.9356 0.429878 48 0.58504 48H14Z" fill="#3865AB"/>
<path d="M47.5651 35.5782L42.3742 30.4293C44.3891 27.9169 45.3649 24.7281 45.1009 21.5184C44.8369 18.3087 43.3531 15.3222 40.9548 13.1728C38.5564 11.0235 35.4256 9.87482 32.2063 9.96291C28.987 10.051 25.9238 11.3692 23.6465 13.6465C21.3693 15.9237 20.0511 18.9869 19.963 22.2063C19.8749 25.4256 21.0236 28.5563 23.1729 30.9547C25.3222 33.3531 28.3088 34.8368 31.5185 35.1008C34.7281 35.3649 37.917 34.3891 40.4293 32.3741L45.5783 37.5231C45.7084 37.6542 45.8631 37.7583 46.0336 37.8293C46.2041 37.9004 46.387 37.9369 46.5717 37.9369C46.7564 37.9369 46.9393 37.9004 47.1098 37.8293C47.2803 37.7583 47.435 37.6542 47.5651 37.5231C47.8173 37.2622 47.9583 36.9135 47.9583 36.5506C47.9583 36.1878 47.8173 35.8391 47.5651 35.5782V35.5782ZM32.58 32.3741C30.6429 32.3741 28.7493 31.7997 27.1387 30.7235C25.528 29.6473 24.2727 28.1177 23.5314 26.328C22.7901 24.5384 22.5961 22.5691 22.974 20.6692C23.3519 18.7693 24.2847 17.0242 25.6545 15.6544C27.0242 14.2847 28.7694 13.3519 30.6693 12.974C32.5691 12.5961 34.5384 12.79 36.3281 13.5313C38.1177 14.2726 39.6474 15.528 40.7236 17.1386C41.7998 18.7492 42.3742 20.6428 42.3742 22.5799C42.3742 25.1775 41.3423 27.6687 39.5055 29.5055C37.6688 31.3422 35.1776 32.3741 32.58 32.3741V32.3741Z" fill="#CCCCDC"/>
<path d="M32.5 16C31.0413 16 29.6424 16.5479 28.6109 17.523C27.5795 18.4982 27 19.8209 27 21.2C27 24.71 31.8469 28.675 32.0531 28.844C32.1777 28.9447 32.3361 29 32.5 29C32.6639 29 32.8223 28.9447 32.9469 28.844C33.1875 28.675 38 24.71 38 21.2C38 19.8209 37.4205 18.4982 36.3891 17.523C35.3576 16.5479 33.9587 16 32.5 16Z" fill="#FF0000"/>
<path d="M35 21.5C35 22.8807 33.8807 24 32.5 24C31.1193 24 30 22.8807 30 21.5C30 20.1193 31.1193 19 32.5 19C33.8807 19 35 20.1193 35 21.5Z" fill="white"/>
<defs>
<linearGradient id="paint0_linear_1144_162206" x1="0" y1="3.82312" x2="14" y2="3.82312" gradientUnits="userSpaceOnUse">
<stop stop-color="#F2CC0C"/>
<stop offset="1" stop-color="#FF9830"/>
</linearGradient>
</defs>
</svg>
