<svg width="140" height="48" viewBox="0 0 140 48" fill="none" xmlns="http://www.w3.org/2000/svg">
<path d="M0 1.04083V13H15V0H0.626828C0.460583 0 0.301147 0.109659 0.183594 0.304853C0.0660407 0.500047 0 0.764787 0 1.04083Z" fill="url(#paint0_linear_1144_162032)"/>
<path d="M15 17.5H0V30.5H15V17.5Z" fill="#84AFF1"/>
<path d="M15 35H0V48H15V35Z" fill="#84AFF1"/>
<path d="M8.5 21H7.07158L5.5 21.9199V23.1738L6.92531 22.3535H6.96266V27H8.5V21Z" fill="#24292E"/>
<path d="M5.33733 44.5H9.75V43.3468H7.33409V43.3092L8.04722 42.6561C9.33959 41.5376 9.67723 40.9682 9.67723 40.289C9.67723 39.2225 8.8011 38.5 7.44761 38.5C6.12905 38.5 5.2471 39.2543 5.25001 40.4595H6.61514C6.61514 39.9249 6.94696 39.6156 7.44179 39.6156C7.92788 39.6156 8.28008 39.9133 8.28008 40.4017C8.28008 40.8439 8.00065 41.1445 7.51165 41.5809L5.33733 43.4711V44.5Z" fill="#24292E"/>
<path d="M6.77442 9.5C7.52635 9.5 8.04638 9.23767 8.34153 8.74147H8.3837V9.41783H10V6.1182C10 5.09102 8.98454 4.5 7.61068 4.5C6.15952 4.5 5.33732 5.1574 5.20028 6.04235L6.78496 6.09292C6.85875 5.78319 7.14336 5.59355 7.59663 5.59355C8.01827 5.59355 8.28531 5.77686 8.28531 6.1024V6.1182C8.28531 6.4153 7.92692 6.47851 7.00633 6.5512C5.91356 6.63338 5 6.99684 5 8.07143C5 9.03224 5.74139 9.5 6.77442 9.5ZM7.30499 8.48862C6.90794 8.48862 6.62684 8.31795 6.62684 7.99558C6.62684 7.68268 6.90091 7.49305 7.38932 7.42668C7.70907 7.38559 8.1026 7.32238 8.29585 7.23072V7.69216C8.29585 8.16625 7.85313 8.48862 7.30499 8.48862Z" fill="#24292E"/>
<g clip-path="url(#clip0_1144_162032)">
<path d="M19 13H34V1.04083C34 0.764787 33.934 0.500047 33.8164 0.304853C33.6989 0.109659 33.5394 0 33.3732 0L19 0V13Z" fill="url(#paint1_linear_1144_162032)"/>
<path d="M34 17.5H19V30.5H34V17.5Z" fill="#84AFF1"/>
<path d="M34 35H19V48H34V35Z" fill="#84AFF1"/>
<path d="M24 9.68623H25.5663V8.96449H25.6149C25.8155 9.37609 26.2621 9.75 27.0129 9.75C28.1133 9.75 29 8.97898 29 7.46304C29 5.89203 28.0615 5.17609 27.0227 5.17609C26.2362 5.17609 25.8058 5.58768 25.6149 5.99638H25.5825V3.75H24V9.68623ZM25.5502 7.46015C25.5502 6.73261 25.8867 6.28333 26.466 6.28333C27.0518 6.28333 27.3754 6.7442 27.3754 7.46015C27.3754 8.17899 27.0518 8.64565 26.466 8.64565C25.8867 8.64565 25.5502 8.18188 25.5502 7.46015Z" fill="#24292E"/>
<path d="M26.4792 27C27.8085 27 28.7528 26.2757 28.75 25.2605C28.7528 24.5418 28.2958 24.0285 27.4208 23.923V23.8774C28.0771 23.7804 28.5423 23.327 28.5395 22.6711C28.5423 21.7186 27.706 21 26.4903 21C25.2663 21 24.3746 21.73 24.3635 22.7681H25.6734C25.6845 22.3688 26.0334 22.1008 26.4903 22.1008C26.9251 22.1008 27.2214 22.3717 27.2186 22.7624C27.2214 23.1673 26.8725 23.4468 26.3685 23.4468H25.8174V24.4506H26.3685C26.9417 24.4506 27.3155 24.7414 27.31 25.1521C27.3155 25.5656 26.9721 25.8536 26.4848 25.8536C26.0001 25.8536 25.6429 25.5884 25.6291 25.2034H24.25C24.2611 26.2586 25.1832 27 26.4792 27Z" fill="#24292E"/>
<path d="M24 43.4453V42.4463L26.5893 38.5H28.2308V42.4287H29V43.4453H28.2308V44.5H26.977V43.4453H24ZM27.0012 42.4287V39.8828H26.9528L25.3204 42.3818V42.4287H27.0012Z" fill="#24292E"/>
</g>
<g clip-path="url(#clip1_1144_162032)">
<path d="M51.675 18.75H44.325C43.9073 18.75 43.5067 18.9159 43.2113 19.2113C42.9159 19.5067 42.75 19.9073 42.75 20.325V20.9392C42.7499 21.156 42.7946 21.3705 42.8813 21.5692V21.6007C42.9554 21.7693 43.0605 21.9224 43.191 22.0522L46.425 25.2652V28.725C46.4248 28.8142 46.4474 28.902 46.4906 28.9801C46.5337 29.0582 46.5961 29.124 46.6717 29.1712C46.7553 29.223 46.8517 29.2503 46.95 29.25C47.0322 29.2495 47.1131 29.2297 47.1862 29.1922L49.2862 28.1422C49.3728 28.0986 49.4456 28.0319 49.4966 27.9494C49.5476 27.8669 49.5747 27.7719 49.575 27.675V25.2652L52.788 22.0522C52.9185 21.9224 53.0236 21.7693 53.0977 21.6007V21.5692C53.1916 21.3721 53.2435 21.1575 53.25 20.9392V20.325C53.25 19.9073 53.0841 19.5067 52.7887 19.2113C52.4933 18.9159 52.0927 18.75 51.675 18.75ZM48.6772 24.6772C48.6286 24.7263 48.5901 24.7845 48.564 24.8484C48.5378 24.9124 48.5246 24.9809 48.525 25.05V27.3495L47.475 27.8745V25.05C47.4754 24.9809 47.4622 24.9124 47.436 24.8484C47.4099 24.7845 47.3714 24.7263 47.3227 24.6772L44.5402 21.9H51.4597L48.6772 24.6772ZM52.2 20.85H43.8V20.325C43.8 20.1858 43.8553 20.0522 43.9538 19.9538C44.0522 19.8553 44.1858 19.8 44.325 19.8H51.675C51.8142 19.8 51.9478 19.8553 52.0462 19.9538C52.1447 20.0522 52.2 20.1858 52.2 20.325V20.85Z" fill="#CCCCDC" fill-opacity="0.65"/>
</g>
<path d="M56.8087 27C55.7696 27 55 26.4879 55 25.477C55 24.3364 55.9682 23.9972 57.0463 23.9041C57.9932 23.8176 58.3656 23.7744 58.3656 23.4452V23.4252C58.3656 23.0062 58.0712 22.7635 57.557 22.7635C57.0144 22.7635 56.6917 23.0129 56.5888 23.3521L55.1915 23.2456C55.4007 22.3145 56.259 21.7292 57.5641 21.7292C58.777 21.7292 59.8764 22.2414 59.8764 23.4585V26.9036H58.4436V26.1953H58.401C58.1351 26.6708 57.6137 27 56.8087 27ZM57.2414 26.0224C57.9045 26.0224 58.3762 25.6133 58.3762 25.0779V24.5359C58.1954 24.649 57.6563 24.7221 57.3265 24.7654C56.7945 24.8352 56.4434 25.0314 56.4434 25.4304C56.4434 25.8195 56.7768 26.0224 57.2414 26.0224Z" fill="#CCCCDC" fill-opacity="0.65"/>
<path d="M61.3889 26.3727V25.1922H66.2866V26.3727H61.3889ZM61.3889 24.1646V22.9841H66.2866V24.1646H61.3889Z" fill="#CCCCDC" fill-opacity="0.65"/>
<path d="M67.0676 27V26.0983L69.5304 24.1474C70.1588 23.6301 70.4966 23.3064 70.4966 22.8353C70.4966 22.315 70.0439 21.9913 69.4358 21.9913C68.8041 21.9913 68.3851 22.3381 68.3885 22.9046H67C66.9966 21.7428 67.9933 21 69.446 21C70.9291 21 71.9088 21.7254 71.9088 22.7514C71.9088 23.4249 71.527 23.9798 70.1047 25.0896L69.0946 25.9364V25.9769H72V27H67.0676Z" fill="#CCCCDC" fill-opacity="0.65"/>
<path d="M87.9067 30C88.6011 30 93.9327 26 93.9327 24C93.9327 22 88.7357 18 87.9067 18C87.0777 18 86.4023 18.5 86.4023 19.4756C86.4023 20.4512 89.9067 22.9206 89.9067 22.9206C89.9067 22.9206 82.2539 22.25 82 22.9206C81.7461 23.5911 81.7461 24.4089 82 25.0794C82.2539 25.75 89.9067 25.0794 89.9067 25.0794C89.9067 25.0794 86.4023 27.75 86.4023 28.5301C86.4023 29.3103 87.2123 30 87.9067 30Z" fill="#CCCCDC"/>
<path d="M102 9.79083V21.75H117V8.75H102.627C102.461 8.75 102.301 8.85966 102.184 9.05485C102.066 9.25005 102 9.51479 102 9.79083Z" fill="url(#paint2_linear_1144_162032)"/>
<path d="M117 26.25H102V39.25H117V26.25Z" fill="#84AFF1"/>
<path d="M110.5 29.75H109.072L107.5 30.6699V31.9238L108.925 31.1035H108.963V35.75H110.5V29.75Z" fill="#24292E"/>
<path d="M108.774 18.25C109.526 18.25 110.046 17.9877 110.342 17.4915H110.384V18.1678H112V14.8682C112 13.841 110.985 13.25 109.611 13.25C108.16 13.25 107.337 13.9074 107.2 14.7924L108.785 14.8429C108.859 14.5332 109.143 14.3436 109.597 14.3436C110.018 14.3436 110.285 14.5269 110.285 14.8524V14.8682C110.285 15.1653 109.927 15.2285 109.006 15.3012C107.914 15.3834 107 15.7468 107 16.8214C107 17.7822 107.741 18.25 108.774 18.25ZM109.305 17.2386C108.908 17.2386 108.627 17.068 108.627 16.7456C108.627 16.4327 108.901 16.243 109.389 16.1767C109.709 16.1356 110.103 16.0724 110.296 15.9807V16.4422C110.296 16.9162 109.853 17.2386 109.305 17.2386Z" fill="#24292E"/>
<g clip-path="url(#clip2_1144_162032)">
<path d="M121 21.75H136V9.79083C136 9.51479 135.934 9.25005 135.816 9.05485C135.699 8.85966 135.539 8.75 135.373 8.75H121V21.75Z" fill="url(#paint3_linear_1144_162032)"/>
<path d="M136 26.25H121V39.25H136V26.25Z" fill="#84AFF1"/>
<path d="M126 18.4362H127.566V17.7145H127.615C127.816 18.1261 128.262 18.5 129.013 18.5C130.113 18.5 131 17.729 131 16.213C131 14.642 130.061 13.9261 129.023 13.9261C128.236 13.9261 127.806 14.3377 127.615 14.7464H127.583V12.5H126V18.4362ZM127.55 16.2101C127.55 15.4826 127.887 15.0333 128.466 15.0333C129.052 15.0333 129.375 15.4942 129.375 16.2101C129.375 16.929 129.052 17.3957 128.466 17.3957C127.887 17.3957 127.55 16.9319 127.55 16.2101Z" fill="#24292E"/>
<path d="M128.479 35.75C129.808 35.75 130.753 35.0257 130.75 34.0105C130.753 33.2918 130.296 32.7785 129.421 32.673V32.6274C130.077 32.5304 130.542 32.077 130.54 31.4211C130.542 30.4686 129.706 29.75 128.49 29.75C127.266 29.75 126.375 30.48 126.364 31.5181H127.673C127.684 31.1188 128.033 30.8508 128.49 30.8508C128.925 30.8508 129.221 31.1217 129.219 31.5124C129.221 31.9173 128.872 32.1968 128.368 32.1968H127.817V33.2006H128.368C128.942 33.2006 129.316 33.4914 129.31 33.9021C129.316 34.3156 128.972 34.6036 128.485 34.6036C128 34.6036 127.643 34.3384 127.629 33.9534H126.25C126.261 35.0086 127.183 35.75 128.479 35.75Z" fill="#24292E"/>
</g>
<defs>
<linearGradient id="paint0_linear_1144_162032" x1="0" y1="6.5052" x2="15" y2="6.5052" gradientUnits="userSpaceOnUse">
<stop stop-color="#F2CC0C"/>
<stop offset="1" stop-color="#FF9830"/>
</linearGradient>
<linearGradient id="paint1_linear_1144_162032" x1="19" y1="6.5052" x2="34" y2="6.5052" gradientUnits="userSpaceOnUse">
<stop stop-color="#F2CC0C"/>
<stop offset="1" stop-color="#FF9830"/>
</linearGradient>
<linearGradient id="paint2_linear_1144_162032" x1="102" y1="15.2552" x2="117" y2="15.2552" gradientUnits="userSpaceOnUse">
<stop stop-color="#F2CC0C"/>
<stop offset="1" stop-color="#FF9830"/>
</linearGradient>
<linearGradient id="paint3_linear_1144_162032" x1="121" y1="15.2552" x2="136" y2="15.2552" gradientUnits="userSpaceOnUse">
<stop stop-color="#F2CC0C"/>
<stop offset="1" stop-color="#FF9830"/>
</linearGradient>
<clipPath id="clip0_1144_162032">
<rect width="15" height="48" fill="white" transform="translate(19)"/>
</clipPath>
<clipPath id="clip1_1144_162032">
<rect width="12" height="12" fill="white" transform="translate(42 18)"/>
</clipPath>
<clipPath id="clip2_1144_162032">
<rect width="15" height="30.5" fill="white" transform="translate(121 8.75)"/>
</clipPath>
</defs>
</svg>
