<svg width="58" height="48" viewBox="0 0 58 48" fill="none" xmlns="http://www.w3.org/2000/svg">
<path d="M0 1.04083V13H15V0H0.626828C0.460583 0 0.301147 0.109659 0.183594 0.304853C0.0660407 0.500047 0 0.764787 0 1.04083Z" fill="url(#paint0_linear_1810_47693)"/>
<path d="M15 17.5H0V30.5H15V17.5Z" fill="#84AFF1"/>
<path d="M15 35H0V48H15V35Z" fill="#84AFF1"/>
<path d="M9.65 9.3H9.3V3.35C9.3 3.25717 9.26313 3.16815 9.19749 3.10251C9.13185 3.03687 9.04283 3 8.95 3H7.725C7.66392 3.00037 7.604 3.01672 7.5512 3.04742C7.49839 3.07812 7.45454 3.1221 7.424 3.175L3.8505 9.3H3.35C3.25717 9.3 3.16815 9.33687 3.10251 9.40251C3.03687 9.46815 3 9.55717 3 9.65C3 9.74283 3.03687 9.83185 3.10251 9.89749C3.16815 9.96313 3.25717 10 3.35 10H4.75C4.84283 10 4.93185 9.96313 4.99749 9.89749C5.06313 9.83185 5.1 9.74283 5.1 9.65C5.1 9.55717 5.06313 9.46815 4.99749 9.40251C4.93185 9.33687 4.84283 9.3 4.75 9.3H4.659L5.884 7.2H8.6V9.3H8.25C8.15717 9.3 8.06815 9.33687 8.00251 9.40251C7.93687 9.46815 7.9 9.55717 7.9 9.65C7.9 9.74283 7.93687 9.83185 8.00251 9.89749C8.06815 9.96313 8.15717 10 8.25 10H9.65C9.74283 10 9.83185 9.96313 9.89749 9.89749C9.96313 9.83185 10 9.74283 10 9.65C10 9.55717 9.96313 9.46815 9.89749 9.40251C9.83185 9.33687 9.74283 9.3 9.65 9.3ZM8.6 6.5H6.2935L7.9245 3.7H8.6V6.5Z" fill="white"/>
<path d="M6.84608 27C7.52244 27 7.9902 26.7377 8.25569 26.2415H8.29362V26.9178H9.74747V23.6182C9.74747 22.591 8.83407 22 7.59829 22C6.29298 22 5.55341 22.6574 5.43015 23.5424L6.85556 23.5929C6.92193 23.2832 7.17794 23.0936 7.58565 23.0936C7.96492 23.0936 8.20512 23.2769 8.20512 23.6024V23.6182C8.20512 23.9153 7.88274 23.9785 7.05468 24.0512C6.07174 24.1334 5.25 24.4968 5.25 25.5714C5.25 26.5322 5.91688 27 6.84608 27ZM7.32333 25.9886C6.96618 25.9886 6.71334 25.818 6.71334 25.4956C6.71334 25.1827 6.95986 24.993 7.39918 24.9267C7.68679 24.8856 8.04077 24.8224 8.2146 24.7307V25.1922C8.2146 25.6662 7.81637 25.9886 7.32333 25.9886Z" fill="#24292E"/>
<path d="M5 44.4362H6.56634V43.7145H6.61489C6.81553 44.1261 7.26214 44.5 8.01294 44.5C9.11327 44.5 10 43.729 10 42.213C10 40.642 9.06149 39.9261 8.02265 39.9261C7.23625 39.9261 6.80583 40.3377 6.61489 40.7464H6.58252V38.5H5V44.4362ZM6.55016 42.2101C6.55016 41.4826 6.88673 41.0333 7.46602 41.0333C8.05178 41.0333 8.3754 41.4942 8.3754 42.2101C8.3754 42.929 8.05178 43.3957 7.46602 43.3957C6.88673 43.3957 6.55016 42.9319 6.55016 42.2101Z" fill="#24292E"/>
<path d="M28.9067 30C29.6011 30 34.9327 26 34.9327 24C34.9327 22 29.7357 18 28.9067 18C28.0777 18 27.4023 18.5 27.4023 19.4756C27.4023 20.4512 30.9067 22.9206 30.9067 22.9206C30.9067 22.9206 23.2539 22.25 23 22.9206C22.7461 23.5911 22.7461 24.4089 23 25.0794C23.2539 25.75 30.9067 25.0794 30.9067 25.0794C30.9067 25.0794 27.4023 27.75 27.4023 28.5301C27.4023 29.3103 28.2123 30 28.9067 30Z" fill="#CCCCDC"/>
<path d="M43 1.04083V13H58V0H43.6268C43.4606 0 43.3011 0.109659 43.1836 0.304853C43.066 0.500047 43 0.764787 43 1.04083Z" fill="url(#paint1_linear_1810_47693)"/>
<path d="M58 17.5H43V30.5H58V17.5Z" fill="#84AFF1"/>
<path d="M58 35H43V48H58V35Z" fill="#84AFF1"/>
<path d="M52.65 9.3H52.3V3.35C52.3 3.25717 52.2631 3.16815 52.1975 3.10251C52.1318 3.03687 52.0428 3 51.95 3H50.725C50.6639 3.00037 50.604 3.01672 50.5512 3.04742C50.4984 3.07812 50.4545 3.1221 50.424 3.175L46.8505 9.3H46.35C46.2572 9.3 46.1682 9.33687 46.1025 9.40251C46.0369 9.46815 46 9.55717 46 9.65C46 9.74283 46.0369 9.83185 46.1025 9.89749C46.1682 9.96313 46.2572 10 46.35 10H47.75C47.8428 10 47.9318 9.96313 47.9975 9.89749C48.0631 9.83185 48.1 9.74283 48.1 9.65C48.1 9.55717 48.0631 9.46815 47.9975 9.40251C47.9318 9.33687 47.8428 9.3 47.75 9.3H47.659L48.884 7.2H51.6V9.3H51.25C51.1572 9.3 51.0682 9.33687 51.0025 9.40251C50.9369 9.46815 50.9 9.55717 50.9 9.65C50.9 9.74283 50.9369 9.83185 51.0025 9.89749C51.0682 9.96313 51.1572 10 51.25 10H52.65C52.7428 10 52.8318 9.96313 52.8975 9.89749C52.9631 9.83185 53 9.74283 53 9.65C53 9.55717 52.9631 9.46815 52.8975 9.40251C52.8318 9.33687 52.7428 9.3 52.65 9.3ZM51.6 6.5H49.2935L50.9245 3.7H51.6V6.5Z" fill="white"/>
<path d="M49.0114 26.8182H47.5L49.4631 21H51.3352L53.2983 26.8182H51.7869L51.4034 25.5966H49.3949L49.0114 26.8182ZM49.7301 24.5284H51.0682L50.4205 22.4659H50.375L49.7301 24.5284Z" fill="black"/>
<path d="M48.5 44.8182V39H50.9261C52.233 39 52.9091 39.5938 52.9091 40.4716C52.9091 41.1364 52.4602 41.5994 51.821 41.733V41.7898C52.5256 41.821 53.1364 42.3494 53.1364 43.1903C53.1364 44.1307 52.3977 44.8182 51.1108 44.8182H48.5ZM49.9062 43.6847H50.7756C51.3835 43.6847 51.6676 43.4403 51.6676 43.0284C51.6676 42.5824 51.3381 42.2983 50.8011 42.2983H49.9062V43.6847ZM49.9062 41.392H50.6847C51.1449 41.392 51.4744 41.1534 51.4744 40.7443C51.4744 40.358 51.1761 40.1165 50.7074 40.1165H49.9062V41.392Z" fill="black"/>
<defs>
<linearGradient id="paint0_linear_1810_47693" x1="0" y1="6.5052" x2="15" y2="6.5052" gradientUnits="userSpaceOnUse">
<stop stop-color="#F2CC0C"/>
<stop offset="1" stop-color="#FF9830"/>
</linearGradient>
<linearGradient id="paint1_linear_1810_47693" x1="43" y1="6.5052" x2="58" y2="6.5052" gradientUnits="userSpaceOnUse">
<stop stop-color="#F2CC0C"/>
<stop offset="1" stop-color="#FF9830"/>
</linearGradient>
</defs>
</svg>
