<svg width="106" height="50" viewBox="0 0 106 50" fill="none" xmlns="http://www.w3.org/2000/svg">
<g clip-path="url(#clip0_1899_468)">
<path d="M0 0.800641V10H24V1.05456e-06H1.00292L0.000198677 0L0 0.800641Z" fill="url(#paint0_linear_1899_468)"/>
<path d="M24 13H0V22.5H24V13Z" fill="#84AFF1"/>
<path d="M24 25.75H0V35.25H24V25.75Z" fill="#84AFF1"/>
<path d="M24 38.5H0V48H24V38.5Z" fill="#84AFF1"/>
<path d="M13 14.6179H11.5716L10 15.5378V16.7917L11.4253 15.9714H11.4627V20.6179H13V14.6179Z" fill="#24292E"/>
<path d="M9.83733 33.5H14.25V32.3468H11.8341V32.3092L12.5472 31.6561C13.8396 30.5376 14.1772 29.9682 14.1772 29.289C14.1772 28.2225 13.3011 27.5 11.9476 27.5C10.629 27.5 9.7471 28.2543 9.75001 29.4595H11.1151C11.1151 28.9249 11.447 28.6156 11.9418 28.6156C12.4279 28.6156 12.7801 28.9133 12.7801 29.4017C12.7801 29.8439 12.5006 30.1445 12.0116 30.5809L9.83733 32.4711V33.5Z" fill="#24292E"/>
<path d="M9.83733 46.25H14.25V45.0968H11.8341V45.0592L12.5472 44.4061C13.8396 43.2876 14.1772 42.7182 14.1772 42.039C14.1772 40.9725 13.3011 40.25 11.9476 40.25C10.629 40.25 9.7471 41.0043 9.75001 42.2095H11.1151C11.1151 41.6749 11.447 41.3656 11.9418 41.3656C12.4279 41.3656 12.7801 41.6633 12.7801 42.1517C12.7801 42.5939 12.5006 42.8945 12.0116 43.3309L9.83733 45.2211V46.25Z" fill="#24292E"/>
</g>
<g clip-path="url(#clip1_1899_468)">
<path d="M28 0.800641V10H52V1.05456e-06H29.0029L28.0002 0L28 0.800641Z" fill="url(#paint1_linear_1899_468)"/>
<path d="M52 13H28V22.5H52V13Z" fill="#84AFF1"/>
<path d="M52 25.75H28V35.25H52V25.75Z" fill="#84AFF1"/>
<path d="M52 38.5H28V48H52V38.5Z" fill="#84AFF1"/>
<path d="M39.9792 20.875C41.3085 20.875 42.2528 20.1507 42.25 19.1355C42.2528 18.4168 41.7958 17.9035 40.9208 17.798V17.7524C41.5771 17.6554 42.0423 17.202 42.0395 16.5461C42.0423 15.5936 41.206 14.875 39.9903 14.875C38.7663 14.875 37.8746 15.605 37.8635 16.6431H39.1734C39.1845 16.2438 39.5334 15.9758 39.9903 15.9758C40.4251 15.9758 40.7214 16.2467 40.7186 16.6374C40.7214 17.0423 40.3725 17.3218 39.8685 17.3218H39.3174V18.3256H39.8685C40.4417 18.3256 40.8155 18.6164 40.81 19.0271C40.8155 19.4406 40.4721 19.7286 39.9848 19.7286C39.5001 19.7286 39.1429 19.4634 39.1291 19.0784H37.75C37.7611 20.1336 38.6832 20.875 39.9792 20.875Z" fill="#24292E"/>
<path d="M37.5 32.4453V31.4463L40.0893 27.5H41.7308V31.4287H42.5V32.4453H41.7308V33.5H40.477V32.4453H37.5ZM40.5012 31.4287V28.8828H40.4528L38.8204 31.3818V31.4287H40.5012Z" fill="#24292E"/>
<path d="M40.2102 46.25C38.8025 46.25 37.7766 45.5188 37.75 44.4957H39.1444C39.1776 44.9552 39.6391 45.2673 40.2102 45.2673C40.8841 45.2673 41.3655 44.8425 41.3655 44.2269C41.3655 43.6055 40.8742 43.1749 40.1902 43.172C39.7885 43.172 39.3835 43.3251 39.1743 43.5708L37.8961 43.3714L38.2181 40.25H42.3748V41.2731H39.4034L39.2274 42.7558H39.2673C39.5063 42.4639 40.0209 42.2471 40.6185 42.2471C41.8436 42.2471 42.7533 43.0621 42.75 44.1951C42.7533 45.3916 41.7241 46.25 40.2102 46.25Z" fill="#24292E"/>
</g>
<path d="M80 0.800641V10H104V1.05456e-06H81.0029L80.0002 0L80 0.800641Z" fill="url(#paint2_linear_1899_468)"/>
<path d="M104 17H80V24H104V17Z" fill="#84AFF1"/>
<path d="M104 33H80V40H104V33Z" fill="#84AFF1"/>
<path d="M104 41H80V48H104V41Z" fill="#84AFF1"/>
<path d="M91.8577 23C92.9654 23 93.7523 22.3964 93.75 21.5504C93.7523 20.9515 93.3715 20.5238 92.6423 20.4358V20.3978C93.1892 20.317 93.5769 19.9392 93.5746 19.3926C93.5769 18.5989 92.88 18 91.8669 18C90.8469 18 90.1038 18.6084 90.0946 19.4734H91.1862C91.1954 19.1407 91.4861 18.9173 91.8669 18.9173C92.2292 18.9173 92.4761 19.1431 92.4738 19.4686C92.4761 19.8061 92.1854 20.039 91.7654 20.039H91.3062V20.8755H91.7654C92.2431 20.8755 92.5546 21.1179 92.55 21.4601C92.5546 21.8047 92.2685 22.0447 91.8623 22.0447C91.4585 22.0447 91.1608 21.8237 91.1492 21.5029H90C90.0092 22.3821 90.7777 23 91.8577 23Z" fill="#24292E"/>
<path d="M90 38.1211V37.2886L92.1578 34H93.5256V37.2739H94.1667V38.1211H93.5256V39H92.4808V38.1211H90ZM92.501 37.2739V35.1523H92.4606L91.1003 37.2349V37.2739H92.501Z" fill="#24292E"/>
<path d="M92.0501 47C90.877 47 90.0221 46.3907 90 45.5381H91.162C91.1897 45.921 91.5743 46.1811 92.0501 46.1811C92.6118 46.1811 93.0129 45.8271 93.0129 45.3141C93.0129 44.7962 92.6035 44.4374 92.0335 44.435C91.6988 44.435 91.3612 44.5626 91.1869 44.7673L90.1217 44.6012L90.3901 42H93.854V42.8526H91.3778L91.2312 44.0881H91.2644C91.4636 43.8449 91.8924 43.6643 92.3904 43.6643C93.4113 43.6643 94.1694 44.3434 94.1667 45.2876C94.1694 46.2847 93.3117 47 92.0501 47Z" fill="#24292E"/>
<path fill-rule="evenodd" clip-rule="evenodd" d="M104 33H80V47.579H104V33ZM78 28V50H106V28L78 28Z" fill="#CCCCDC"/>
<path fill-rule="evenodd" clip-rule="evenodd" d="M104 17H80V24H104V17ZM78 12V26H106V12H78Z" fill="#CCCCDC"/>
<path d="M65.9067 31.75C66.6011 31.75 71.9327 27.75 71.9327 25.75C71.9327 23.75 66.7357 19.75 65.9067 19.75C65.0777 19.75 64.4023 20.25 64.4023 21.2256C64.4023 22.2012 67.9067 24.6706 67.9067 24.6706C67.9067 24.6706 60.2539 24 60 24.6706C59.7461 25.3411 59.7461 26.1589 60 26.8294C60.2539 27.5 67.9067 26.8294 67.9067 26.8294C67.9067 26.8294 64.4023 29.5 64.4023 30.2801C64.4023 31.0603 65.2123 31.75 65.9067 31.75Z" fill="#CCCCDC"/>
<path d="M81.25 13H80.1787L79 13.6899V14.6304L80.069 14.0151H80.097V17.5H81.25V13Z" fill="#24292E"/>
<path d="M79.0655 33.5H82.375V32.6351H80.5631V32.6069L81.0979 32.1171C82.0672 31.2782 82.3204 30.8512 82.3204 30.3418C82.3204 29.5419 81.6633 29 80.6482 29C79.6593 29 78.9978 29.5658 79 30.4697H80.0239C80.0239 30.0686 80.2727 29.8367 80.6438 29.8367C81.0084 29.8367 81.2726 30.06 81.2726 30.4263C81.2726 30.7579 81.063 30.9834 80.6962 31.3107L79.0655 32.7283V33.5Z" fill="#24292E"/>
<defs>
<linearGradient id="paint0_linear_1899_468" x1="0.00781255" y1="5.004" x2="24.0078" y2="5.004" gradientUnits="userSpaceOnUse">
<stop stop-color="#F2CC0C"/>
<stop offset="1" stop-color="#FF9830"/>
</linearGradient>
<linearGradient id="paint1_linear_1899_468" x1="28.0078" y1="5.004" x2="52.0078" y2="5.004" gradientUnits="userSpaceOnUse">
<stop stop-color="#F2CC0C"/>
<stop offset="1" stop-color="#FF9830"/>
</linearGradient>
<linearGradient id="paint2_linear_1899_468" x1="80.0078" y1="5.004" x2="104.008" y2="5.004" gradientUnits="userSpaceOnUse">
<stop stop-color="#F2CC0C"/>
<stop offset="1" stop-color="#FF9830"/>
</linearGradient>
<clipPath id="clip0_1899_468">
<rect width="24" height="48" fill="white"/>
</clipPath>
<clipPath id="clip1_1899_468">
<rect width="24" height="48" fill="white" transform="translate(28)"/>
</clipPath>
</defs>
</svg>
