<svg width="121" height="48" viewBox="0 0 121 48" fill="none" xmlns="http://www.w3.org/2000/svg">
<g clip-path="url(#clip0_1144_161622)">
<path d="M0 0.611699V7.64012H14.394V0H0.601504C0.441975 0 0.28898 0.0644467 0.176176 0.179162C0.0633725 0.293878 0 0.449466 0 0.611699Z" fill="url(#paint0_linear_1144_161622)"/>
<path d="M33.606 7.64012H48V0.611699C48 0.449466 47.9366 0.293878 47.8238 0.179162C47.711 0.0644467 47.558 0 47.3985 0L33.606 0V7.64012Z" fill="url(#paint1_linear_1144_161622)"/>
<path d="M31.194 0H16.8V7.64012H31.194V0Z" fill="url(#paint2_linear_1144_161622)"/>
<path d="M31.194 10.0869H16.8V17.727H31.194V10.0869Z" fill="#84AFF1"/>
<path d="M14.394 10.0869H0V17.727H14.394V10.0869Z" fill="#84AFF1"/>
<path d="M48 10.0869H33.606V17.727H48V10.0869Z" fill="#84AFF1"/>
<path d="M48 20.1799H33.606V27.8262H48V20.1799Z" fill="#3865AB"/>
<path d="M31.194 20.1799H16.8V27.8262H31.194V20.1799Z" fill="#3865AB"/>
<path d="M14.394 20.1799H0V27.8262H14.394V20.1799Z" fill="#3865AB"/>
<path d="M31.194 30.2668H16.8V37.907H31.194V30.2668Z" fill="#84AFF1"/>
<path d="M48 30.2668H33.606V37.907H48V30.2668Z" fill="#84AFF1"/>
<path d="M14.394 30.2668H0V37.907H14.394V30.2668Z" fill="#84AFF1"/>
<path d="M31.194 40.3599H16.8V48H31.194V40.3599Z" fill="#3865AB"/>
<path d="M48 47.3883V40.3721H33.606V48H47.3985C47.558 48 47.711 47.9356 47.8238 47.8209C47.9366 47.7061 48 47.5505 48 47.3883Z" fill="#3865AB"/>
<path d="M14.394 48V40.3721H0V47.3883C0 47.5505 0.0633725 47.7061 0.176176 47.8209C0.28898 47.9356 0.441975 48 0.601504 48H14.394Z" fill="#3865AB"/>
</g>
<path d="M61.9067 30C62.6011 30 67.9327 26 67.9327 24C67.9327 22 62.7357 18 61.9067 18C61.0777 18 60.4023 18.5 60.4023 19.4756C60.4023 20.4512 63.9067 22.9206 63.9067 22.9206C63.9067 22.9206 56.2539 22.25 56 22.9206C55.7461 23.5911 55.7461 24.4089 56 25.0794C56.2539 25.75 63.9067 25.0794 63.9067 25.0794C63.9067 25.0794 60.4023 27.75 60.4023 28.5301C60.4023 29.3103 61.2123 30 61.9067 30Z" fill="#CCCCDC"/>
<g clip-path="url(#clip1_1144_161622)">
<path d="M87.833 48H85.4439C85.2855 48 85.1336 47.9371 85.0216 47.825C84.9095 47.7129 84.8466 47.5609 84.8466 47.4023V28.8144C84.8466 28.6559 84.9095 28.5038 85.0216 28.3917C85.1336 28.2797 85.2855 28.2167 85.4439 28.2167H87.833C87.9914 28.2167 88.1433 28.2797 88.2554 28.3917C88.3674 28.5038 88.4303 28.6559 88.4303 28.8144V47.4023C88.4303 47.5609 88.3674 47.7129 88.2554 47.825C88.1433 47.9371 87.9914 48 87.833 48ZM82.4157 40.8278H80.0266C79.8682 40.8278 79.7162 40.8908 79.6042 41.0029C79.4922 41.115 79.4293 41.267 79.4293 41.4255V47.4023C79.4293 47.5609 79.4922 47.7129 79.6042 47.825C79.7162 47.9371 79.8682 48 80.0266 48H82.4157C82.5741 48 82.726 47.9371 82.838 47.825C82.95 47.7129 83.013 47.5609 83.013 47.4023V41.4255C83.0114 41.268 82.9478 41.1175 82.8359 41.0067C82.7241 40.8959 82.5731 40.8338 82.4157 40.8338V40.8278ZM93.2503 9.92756H90.8612C90.7028 9.92756 90.5509 9.99053 90.4389 10.1026C90.3269 10.2147 90.2639 10.3667 90.2639 10.5252V47.4023C90.2639 47.5609 90.3269 47.7129 90.4389 47.825C90.5509 47.9371 90.7028 48 90.8612 48H93.2503C93.4088 48 93.5607 47.9371 93.6727 47.825C93.7847 47.7129 93.8476 47.5609 93.8476 47.4023V10.5252C93.8476 10.3667 93.7847 10.2147 93.6727 10.1026C93.5607 9.99053 93.4088 9.92756 93.2503 9.92756ZM98.6677 4.07623H96.2786C96.1202 4.07623 95.9682 4.1392 95.8562 4.25129C95.7442 4.36338 95.6813 4.5154 95.6813 4.67392V47.4023C95.6813 47.5609 95.7442 47.7129 95.8562 47.825C95.9682 47.9371 96.1202 48 96.2786 48H98.6677C98.8261 48 98.978 47.9371 99.09 47.825C99.202 47.7129 99.265 47.5609 99.265 47.4023V4.67392C99.265 4.5154 99.202 4.36338 99.09 4.25129C98.978 4.1392 98.8261 4.07623 98.6677 4.07623ZM104.085 9.92756H101.696C101.537 9.92756 101.386 9.99053 101.274 10.1026C101.162 10.2147 101.099 10.3667 101.099 10.5252V47.4023C101.099 47.5609 101.162 47.7129 101.274 47.825C101.386 47.9371 101.537 48 101.696 48H104.085C104.243 48 104.395 47.9371 104.507 47.825C104.619 47.7129 104.682 47.5609 104.682 47.4023V10.5252C104.682 10.3667 104.619 10.2147 104.507 10.1026C104.395 9.99053 104.243 9.92756 104.085 9.92756ZM109.502 28.2167H107.113C106.955 28.2167 106.803 28.2797 106.691 28.3917C106.579 28.5038 106.516 28.6559 106.516 28.8144V47.4023C106.516 47.5609 106.579 47.7129 106.691 47.825C106.803 47.9371 106.955 48 107.113 48H109.502C109.661 48 109.813 47.9371 109.925 47.825C110.037 47.7129 110.1 47.5609 110.1 47.4023V28.8144C110.1 28.6559 110.037 28.5038 109.925 28.3917C109.813 28.2797 109.661 28.2167 109.502 28.2167ZM114.92 40.8338H112.531C112.372 40.8338 112.22 40.8968 112.108 41.0089C111.996 41.1209 111.933 41.273 111.933 41.4315V47.4083C111.933 47.5668 111.996 47.7189 112.108 47.831C112.22 47.943 112.372 48.006 112.531 48.006H114.92C115.078 48.006 115.23 47.943 115.342 47.831C115.454 47.7189 115.517 47.5668 115.517 47.4083V41.4315C115.517 41.273 115.454 41.1209 115.342 41.0089C115.23 40.8968 115.078 40.8338 114.92 40.8338ZM120.403 43.7087H118.014C117.855 43.7087 117.703 43.7716 117.591 43.8837C117.479 43.9958 117.416 44.1478 117.416 44.3063V47.4023C117.416 47.5609 117.479 47.7129 117.591 47.825C117.703 47.9371 117.855 48 118.014 48H120.403C120.561 48 120.713 47.9371 120.825 47.825C120.937 47.7129 121 47.5609 121 47.4023V44.3063C121 44.1478 120.937 43.9958 120.825 43.8837C120.713 43.7716 120.561 43.7087 120.403 43.7087ZM76.9864 43.7087H74.5973C74.4389 43.7087 74.287 43.7716 74.1749 43.8837C74.0629 43.9958 74 44.1478 74 44.3063V47.4023C74 47.5609 74.0629 47.7129 74.1749 47.825C74.287 47.9371 74.4389 48 74.5973 48H76.9864C77.1448 48 77.2967 47.9371 77.4087 47.825C77.5208 47.7129 77.5837 47.5609 77.5837 47.4023V44.3063C77.5837 44.1478 77.5208 43.9958 77.4087 43.8837C77.2967 43.7716 77.1448 43.7087 76.9864 43.7087Z" fill="url(#paint3_linear_1144_161622)"/>
<path d="M74 42.0231V39.6324C74.4652 39.6368 74.9277 39.562 75.3678 39.4113L76.1502 41.6705C75.4581 41.907 74.7314 42.0262 74 42.0231Z" fill="#3865AB"/>
<path d="M79.1008 39.6563L77.309 38.0486C78.0263 37.2234 78.6217 36.2995 79.0769 35.3052L81.2331 36.3332C80.6874 37.5387 79.9691 38.6582 79.1008 39.6563ZM115.863 39.6145C115.001 38.6141 114.287 37.495 113.743 36.2914L115.905 35.2634C116.349 36.2573 116.933 37.183 117.637 38.0127L115.863 39.6145ZM82.4157 33.4046L80.1401 32.6335C80.4805 31.6414 80.809 30.5357 81.1495 29.2447L83.4609 29.8424C83.1026 31.1991 82.7621 32.3646 82.4038 33.4046H82.4157ZM112.59 33.3627C112.238 32.3227 111.891 31.1573 111.539 29.8125L113.851 29.2148C114.191 30.5058 114.52 31.6055 114.854 32.6037L112.59 33.3627ZM84.1896 26.8958L81.8662 26.3519C82.135 25.1984 82.3918 24.0209 82.6546 22.8315L84.99 23.3515C84.7511 24.5469 84.4584 25.7363 84.1896 26.8958ZM110.798 26.848C110.53 25.7004 110.267 24.505 109.998 23.3097L112.333 22.7897C112.596 23.9851 112.859 25.1804 113.122 26.31L110.798 26.848ZM85.647 20.4109L83.3176 19.879C83.6282 18.5043 83.9149 17.3747 84.1657 16.3287L86.4832 16.9264C86.2204 17.9305 85.9456 19.0542 85.647 20.4109ZM109.341 20.3631C109.025 18.9765 108.744 17.8708 108.505 16.8726L110.822 16.2749C111.079 17.291 111.354 18.4206 111.671 19.8252L109.341 20.3631ZM87.2417 14.0575L84.9541 13.3762C85.3424 12.0672 85.7306 10.9197 86.1487 9.85581L88.3766 10.7165C88.0063 11.7206 87.6359 12.8143 87.2656 14.0575H87.2417ZM107.693 14.0037C107.322 12.7665 106.958 11.6787 106.564 10.6687L108.792 9.80202C109.204 10.8719 109.598 12.0254 109.986 13.3224L107.693 14.0037ZM89.5652 8.08069L87.4388 6.98693C88.0182 5.83371 88.719 4.74572 89.5293 3.7415L91.3809 5.27157C90.6776 6.1407 90.0689 7.08239 89.5652 8.08069ZM105.411 8.03885C104.905 7.04259 104.294 6.10294 103.589 5.23571L105.417 3.69966C106.238 4.69703 106.947 5.78131 107.531 6.93313L105.411 8.03885ZM93.328 3.4845L92.008 1.49421C93.1468 0.726757 94.439 0.216857 95.7948 0L96.1711 2.39074C95.154 2.53977 94.1829 2.91339 93.328 3.4845ZM101.63 3.4845C100.775 2.91445 99.8039 2.54094 98.7872 2.39074L99.1455 0C100.502 0.204683 101.799 0.702305 102.944 1.45835L101.63 3.4845Z" fill="#3865AB"/>
<path d="M121 42.0231C120.269 42.0262 119.542 41.907 118.85 41.6705L119.626 39.4113C120.069 39.5586 120.533 39.6333 121 39.6324V42.0231Z" fill="#3865AB"/>
</g>
<defs>
<linearGradient id="paint0_linear_1144_161622" x1="0" y1="3.82312" x2="14.394" y2="3.82312" gradientUnits="userSpaceOnUse">
<stop stop-color="#F2CC0C"/>
<stop offset="1" stop-color="#FF9830"/>
</linearGradient>
<linearGradient id="paint1_linear_1144_161622" x1="33.606" y1="3.82312" x2="48" y2="3.82312" gradientUnits="userSpaceOnUse">
<stop stop-color="#F2CC0C"/>
<stop offset="1" stop-color="#FF9830"/>
</linearGradient>
<linearGradient id="paint2_linear_1144_161622" x1="16.8" y1="3.82312" x2="31.2" y2="3.82312" gradientUnits="userSpaceOnUse">
<stop stop-color="#F2CC0C"/>
<stop offset="1" stop-color="#FF9830"/>
</linearGradient>
<linearGradient id="paint3_linear_1144_161622" x1="74" y1="26.0411" x2="121" y2="26.0411" gradientUnits="userSpaceOnUse">
<stop stop-color="#F2CC0C"/>
<stop offset="1" stop-color="#FF9830"/>
</linearGradient>
<clipPath id="clip0_1144_161622">
<rect width="48" height="48" fill="white"/>
</clipPath>
<clipPath id="clip1_1144_161622">
<rect width="47" height="48" fill="white" transform="translate(74)"/>
</clipPath>
</defs>
</svg>
