<svg width="108" height="48" viewBox="0 0 108 48" fill="none" xmlns="http://www.w3.org/2000/svg">
<g clip-path="url(#clip0_1144_162397)">
<path d="M0 0.800642V10H24V1.05456e-06H1.00292L0.000198677 0L0 0.800642Z" fill="url(#paint0_linear_1144_162397)"/>
<path d="M24 13H0V22.5H24V13Z" fill="#84AFF1"/>
<path d="M24 25.75H0V35.25H24V25.75Z" fill="#84AFF1"/>
<path d="M24 38.5H0V48H24V38.5Z" fill="#84AFF1"/>
<path d="M13 14.75H11.5716L10 15.6699V16.9238L11.4253 16.1035H11.4627V20.75H13V14.75Z" fill="#24292E"/>
<path d="M9.83733 33.5H14.25V32.3468H11.8341V32.3092L12.5472 31.6561C13.8396 30.5376 14.1772 29.9682 14.1772 29.289C14.1772 28.2225 13.3011 27.5 11.9476 27.5C10.629 27.5 9.7471 28.2543 9.75001 29.4595H11.1151C11.1151 28.9249 11.447 28.6156 11.9418 28.6156C12.4279 28.6156 12.7801 28.9133 12.7801 29.4017C12.7801 29.8439 12.5006 30.1445 12.0116 30.5809L9.83733 32.4711V33.5Z" fill="#24292E"/>
<path d="M11.9792 46.25C13.3085 46.25 14.2528 45.5257 14.25 44.5105C14.2528 43.7918 13.7958 43.2785 12.9208 43.173V43.1274C13.5771 43.0304 14.0423 42.577 14.0395 41.9211C14.0423 40.9686 13.206 40.25 11.9903 40.25C10.7663 40.25 9.87462 40.98 9.86354 42.0181H11.1734C11.1845 41.6188 11.5334 41.3508 11.9903 41.3508C12.4251 41.3508 12.7214 41.6217 12.7186 42.0124C12.7214 42.4173 12.3725 42.6968 11.8685 42.6968H11.3174V43.7006H11.8685C12.4417 43.7006 12.8155 43.9914 12.81 44.4021C12.8155 44.8156 12.4721 45.1036 11.9848 45.1036C11.5001 45.1036 11.1429 44.8384 11.1291 44.4534H9.75C9.76108 45.5086 10.6832 46.25 11.9792 46.25Z" fill="#24292E"/>
<path d="M10.7744 7.5C11.5264 7.5 12.0464 7.23767 12.3415 6.74147H12.3837V7.41783H14V4.1182C14 3.09102 12.9845 2.5 11.6107 2.5C10.1595 2.5 9.33732 3.1574 9.20028 4.04235L10.785 4.09292C10.8587 3.78319 11.1434 3.59355 11.5966 3.59355C12.0183 3.59355 12.2853 3.77686 12.2853 4.1024V4.1182C12.2853 4.4153 11.9269 4.47851 11.0063 4.5512C9.91356 4.63338 9 4.99684 9 6.07143C9 7.03224 9.74139 7.5 10.7744 7.5ZM11.305 6.48862C10.9079 6.48862 10.6268 6.31795 10.6268 5.99558C10.6268 5.68268 10.9009 5.49305 11.3893 5.42668C11.7091 5.38559 12.1026 5.32238 12.2959 5.23072V5.69216C12.2959 6.16625 11.8531 6.48862 11.305 6.48862Z" fill="#24292E"/>
</g>
<path d="M32.5 19H55.5V29H32.5V19Z" stroke="#CCCCDC"/>
<path d="M36.0776 26.5H40V25.539H37.8525V25.5077L38.4864 24.9634C39.6352 24.0313 39.9353 23.5568 39.9353 22.9908C39.9353 22.1021 39.1565 21.5 37.9534 21.5C36.7814 21.5 35.9974 22.1286 36 23.1329H37.2135C37.2135 22.6874 37.5084 22.4297 37.9483 22.4297C38.3803 22.4297 38.6934 22.6777 38.6934 23.0848C38.6934 23.4533 38.445 23.7038 38.0104 24.0674L36.0776 25.6426V26.5Z" fill="white"/>
<path d="M37.3525 25.539V26H36.5776V25.8801L38.026 24.6997L37.5268 25.1284L37.3525 25.278V25.5077V25.539ZM39.4353 22.9908C39.4353 23.2453 39.359 23.5204 38.6951 24.1273C38.9687 23.8557 39.1934 23.5298 39.1934 23.0848C39.1934 22.7428 39.0569 22.4371 38.8075 22.2243C38.7381 22.1651 38.6631 22.1156 38.5841 22.0751C38.7959 22.1308 38.9657 22.2137 39.0935 22.3106C39.3183 22.481 39.4353 22.7084 39.4353 22.9908ZM36.8547 22.3253C36.9643 22.2347 37.1045 22.1569 37.275 22.1C37.2042 22.1413 37.137 22.1906 37.0748 22.2487C36.9565 22.3591 36.8684 22.4896 36.8089 22.6329H36.6079C36.6683 22.512 36.7522 22.41 36.8547 22.3253Z" stroke="#CCCCDC" stroke-opacity="0.25"/>
<mask id="path-12-inside-1_1144_162397" fill="white">
<path d="M51.8597 22.6397C51.7708 22.5502 51.6506 22.5 51.5253 22.5C51.4 22.5 51.2798 22.5502 51.1909 22.6397L49.4881 24.3398L47.8091 22.6397C47.7202 22.5502 47.6 22.5 47.4747 22.5C47.3494 22.5 47.2292 22.5502 47.1403 22.6397C47.0958 22.6843 47.0606 22.7374 47.0365 22.7959C47.0124 22.8545 47 22.9172 47 22.9806C47 23.044 47.0124 23.1068 47.0365 23.1653C47.0606 23.2239 47.0958 23.277 47.1403 23.3216L49.1514 25.3579C49.1955 25.403 49.2479 25.4387 49.3057 25.4631C49.3635 25.4874 49.4255 25.5 49.4881 25.5C49.5508 25.5 49.6128 25.4874 49.6706 25.4631C49.7284 25.4387 49.7808 25.403 49.8249 25.3579L51.8597 23.3216C51.9042 23.277 51.9394 23.2239 51.9635 23.1653C51.9876 23.1068 52 23.044 52 22.9806C52 22.9172 51.9876 22.8545 51.9635 22.7959C51.9394 22.7374 51.9042 22.6843 51.8597 22.6397Z"/>
</mask>
<path d="M51.8597 22.6397C51.7708 22.5502 51.6506 22.5 51.5253 22.5C51.4 22.5 51.2798 22.5502 51.1909 22.6397L49.4881 24.3398L47.8091 22.6397C47.7202 22.5502 47.6 22.5 47.4747 22.5C47.3494 22.5 47.2292 22.5502 47.1403 22.6397C47.0958 22.6843 47.0606 22.7374 47.0365 22.7959C47.0124 22.8545 47 22.9172 47 22.9806C47 23.044 47.0124 23.1068 47.0365 23.1653C47.0606 23.2239 47.0958 23.277 47.1403 23.3216L49.1514 25.3579C49.1955 25.403 49.2479 25.4387 49.3057 25.4631C49.3635 25.4874 49.4255 25.5 49.4881 25.5C49.5508 25.5 49.6128 25.4874 49.6706 25.4631C49.7284 25.4387 49.7808 25.403 49.8249 25.3579L51.8597 23.3216C51.9042 23.277 51.9394 23.2239 51.9635 23.1653C51.9876 23.1068 52 23.044 52 22.9806C52 22.9172 51.9876 22.8545 51.9635 22.7959C51.9394 22.7374 51.9042 22.6843 51.8597 22.6397Z" fill="white"/>
<path d="M51.8597 22.6397L51.1503 23.3445L51.1511 23.3453L51.8597 22.6397ZM51.5253 22.5V21.5V22.5ZM51.1909 22.6397L51.8975 23.3473L51.9003 23.3445L51.1909 22.6397ZM49.4881 24.3398L48.7766 25.0425L49.4832 25.7579L50.1947 25.0474L49.4881 24.3398ZM47.8091 22.6397L48.5206 21.937L48.5185 21.9349L47.8091 22.6397ZM47.1403 22.6397L47.8489 23.3453L47.8497 23.3445L47.1403 22.6397ZM47.1403 23.3216L47.8518 22.6189L47.8489 22.616L47.1403 23.3216ZM49.1514 25.3579L49.8658 24.6582L49.8629 24.6553L49.1514 25.3579ZM49.8249 25.3579L49.1175 24.6511L49.1105 24.6582L49.8249 25.3579ZM51.8597 23.3216L52.5671 24.0285L52.5683 24.0272L51.8597 23.3216ZM52.5691 21.9349C52.2938 21.6578 51.9188 21.5 51.5253 21.5V23.5C51.3824 23.5 51.2478 23.4426 51.1503 23.3445L52.5691 21.9349ZM51.5253 21.5C51.1318 21.5 50.7568 21.6578 50.4815 21.9349L51.9003 23.3445C51.8028 23.4426 51.6682 23.5 51.5253 23.5V21.5ZM50.4844 21.932L48.7816 23.6321L50.1947 25.0474L51.8975 23.3473L50.4844 21.932ZM50.1996 23.6371L48.5206 21.937L47.0976 23.3423L48.7766 25.0425L50.1996 23.6371ZM48.5185 21.9349C48.2432 21.6578 47.8682 21.5 47.4747 21.5V23.5C47.3318 23.5 47.1972 23.4426 47.0997 23.3445L48.5185 21.9349ZM47.4747 21.5C47.0812 21.5 46.7062 21.6578 46.4309 21.9349L47.8497 23.3445C47.7522 23.4426 47.6176 23.5 47.4747 23.5V21.5ZM46.4317 21.9341C46.2941 22.0722 46.1855 22.236 46.1117 22.4154L47.9613 23.1765C47.9356 23.2389 47.8976 23.2964 47.8489 23.3453L46.4317 21.9341ZM46.1117 22.4154C46.0379 22.5949 46 22.787 46 22.9806H48C48 23.0475 47.9869 23.114 47.9613 23.1765L46.1117 22.4154ZM46 22.9806C46 23.1743 46.0379 23.3664 46.1117 23.5458L47.9613 22.7848C47.9869 22.8472 48 22.9138 48 22.9806H46ZM46.1117 23.5458C46.1855 23.7253 46.2941 23.889 46.4317 24.0272L47.8489 22.616C47.8976 22.6649 47.9356 22.7224 47.9613 22.7848L46.1117 23.5458ZM46.4288 24.0243L48.4399 26.0606L49.8629 24.6553L47.8518 22.6189L46.4288 24.0243ZM48.437 26.0577C48.5735 26.197 48.7365 26.3083 48.9171 26.3844L49.6944 24.5417C49.7594 24.5691 49.8175 24.6089 49.8658 24.6582L48.437 26.0577ZM48.9171 26.3844C49.0976 26.4606 49.2918 26.5 49.4881 26.5V24.5C49.5593 24.5 49.6294 24.5143 49.6944 24.5417L48.9171 26.3844ZM49.4881 26.5C49.6845 26.5 49.8787 26.4606 50.0592 26.3844L49.2819 24.5417C49.3468 24.5143 49.417 24.5 49.4881 24.5V26.5ZM50.0592 26.3844C50.2398 26.3083 50.4028 26.197 50.5393 26.0577L49.1105 24.6582C49.1588 24.6089 49.2169 24.5691 49.2819 24.5417L50.0592 26.3844ZM50.5323 26.0648L52.5671 24.0285L51.1523 22.6148L49.1175 24.6511L50.5323 26.0648ZM52.5683 24.0272C52.7059 23.889 52.8145 23.7253 52.8883 23.5458L51.0387 22.7848C51.0644 22.7224 51.1024 22.6649 51.1511 22.616L52.5683 24.0272ZM52.8883 23.5458C52.9621 23.3664 53 23.1743 53 22.9806H51C51 22.9138 51.0131 22.8472 51.0387 22.7848L52.8883 23.5458ZM53 22.9806C53 22.787 52.9621 22.5949 52.8883 22.4154L51.0387 23.1765C51.0131 23.114 51 23.0475 51 22.9806H53ZM52.8883 22.4154C52.8145 22.236 52.7059 22.0722 52.5683 21.9341L51.1511 23.3453C51.1024 23.2964 51.0644 23.2389 51.0387 23.1765L52.8883 22.4154Z" fill="#CCCCDC" fill-opacity="0.25" mask="url(#path-12-inside-1_1144_162397)"/>
<path d="M69.9067 30C70.6011 30 75.9327 26 75.9327 24C75.9327 22 70.7357 18 69.9067 18C69.0777 18 68.4023 18.5 68.4023 19.4756C68.4023 20.4512 71.9067 22.9206 71.9067 22.9206C71.9067 22.9206 64.2539 22.25 64 22.9206C63.7461 23.5911 63.7461 24.4089 64 25.0794C64.2539 25.75 71.9067 25.0794 71.9067 25.0794C71.9067 25.0794 68.4023 27.75 68.4023 28.5301C68.4023 29.3103 69.2123 30 69.9067 30Z" fill="#CCCCDC"/>
<g clip-path="url(#clip1_1144_162397)">
<path d="M84 6.80064V16H108V6H85.0029L84.0002 6L84 6.80064Z" fill="url(#paint1_linear_1144_162397)"/>
<path d="M108 19H84V28.5H108V19Z" fill="#84AFF1"/>
<path d="M108 19H84V28.5H108V19Z" fill="#84AFF1"/>
<path d="M108 31.75H84V41.25H108V31.75Z" fill="#84AFF1"/>
<path d="M97 20.75H95.5716L94 21.6699V22.9238L95.4253 22.1035H95.4627V26.75H97V20.75Z" fill="#24292E"/>
<path d="M93.8373 39.5H98.25V38.3468H95.8341V38.3092L96.5472 37.6561C97.8396 36.5376 98.1772 35.9682 98.1772 35.289C98.1772 34.2225 97.3011 33.5 95.9476 33.5C94.629 33.5 93.7471 34.2543 93.75 35.4595H95.1151C95.1151 34.9249 95.447 34.6156 95.9418 34.6156C96.4279 34.6156 96.7801 34.9133 96.7801 35.4017C96.7801 35.8439 96.5006 36.1445 96.0116 36.5809L93.8373 38.4711V39.5Z" fill="#24292E"/>
<path d="M94.7744 13.5C95.5264 13.5 96.0464 13.2377 96.3415 12.7415H96.3837V13.4178H98V10.1182C98 9.09102 96.9845 8.5 95.6107 8.5C94.1595 8.5 93.3373 9.1574 93.2003 10.0424L94.785 10.0929C94.8587 9.78319 95.1434 9.59355 95.5966 9.59355C96.0183 9.59355 96.2853 9.77686 96.2853 10.1024V10.1182C96.2853 10.4153 95.9269 10.4785 95.0063 10.5512C93.9136 10.6334 93 10.9968 93 12.0714C93 13.0322 93.7414 13.5 94.7744 13.5ZM95.305 12.4886C94.9079 12.4886 94.6268 12.318 94.6268 11.9956C94.6268 11.6827 94.9009 11.493 95.3893 11.4267C95.7091 11.3856 96.1026 11.3224 96.2959 11.2307V11.6922C96.2959 12.1662 95.8531 12.4886 95.305 12.4886Z" fill="#24292E"/>
</g>
<defs>
<linearGradient id="paint0_linear_1144_162397" x1="0.00781255" y1="5.004" x2="24.0078" y2="5.004" gradientUnits="userSpaceOnUse">
<stop stop-color="#F2CC0C"/>
<stop offset="1" stop-color="#FF9830"/>
</linearGradient>
<linearGradient id="paint1_linear_1144_162397" x1="84.0078" y1="11.004" x2="108.008" y2="11.004" gradientUnits="userSpaceOnUse">
<stop stop-color="#F2CC0C"/>
<stop offset="1" stop-color="#FF9830"/>
</linearGradient>
<clipPath id="clip0_1144_162397">
<rect width="24" height="48" fill="white"/>
</clipPath>
<clipPath id="clip1_1144_162397">
<rect width="24" height="36" fill="white" transform="translate(84 6)"/>
</clipPath>
</defs>
</svg>
