<svg width="180" height="48" viewBox="0 0 180 48" fill="none" xmlns="http://www.w3.org/2000/svg">
<path d="M0 9.79071V21.7499H15V8.74988H0.626828C0.460583 8.74988 0.301147 8.85954 0.183594 9.05473C0.0660407 9.24992 0 9.51466 0 9.79071Z" fill="url(#paint0_linear_1144_162613)"/>
<path d="M15 26.2499H0V39.2499H15V26.2499Z" fill="#84AFF1"/>
<path d="M8.5 30H7.07158L5.5 30.9199V32.1738L6.92531 31.3535H6.96266V36H8.5V30Z" fill="#24292E"/>
<path d="M19 9.79083V21.75H34V8.75H19.6268C19.4606 8.75 19 8.75 19 8.75C19 8.75 19 9.51479 19 9.79083Z" fill="url(#paint1_linear_1144_162613)"/>
<path d="M34 26.25H19V39.25H34V26.25Z" fill="#84AFF1"/>
<path d="M26.5739 18.25C25.3778 18.2443 24.2472 17.5199 24.25 15.3812C24.2557 13.4192 25.179 12.25 26.6165 12.25C27.7784 12.25 28.5739 13 28.6903 13.961H27.4773C27.3835 13.5532 27.0625 13.308 26.6165 13.308C25.858 13.308 25.4602 14.0152 25.4545 15.153H25.4943C25.7557 14.6369 26.321 14.3289 26.9602 14.3289C27.9915 14.3289 28.7528 15.1188 28.75 16.2139C28.7528 17.403 27.8693 18.2557 26.5739 18.25ZM26.5682 17.2804C27.1364 17.2804 27.5597 16.8327 27.5568 16.2481C27.5597 15.6692 27.1449 15.2215 26.5767 15.2215C26.0114 15.2215 25.5824 15.6834 25.5795 16.2509C25.5795 16.8213 26 17.2804 26.5682 17.2804Z" fill="#24292E"/>
<path d="M26.2292 35.75C27.5585 35.75 28.5028 35.0257 28.5 34.0105C28.5028 33.2918 28.0458 32.7785 27.1708 32.673V32.6274C27.8271 32.5304 28.2923 32.077 28.2895 31.4211C28.2923 30.4686 27.456 29.75 26.2403 29.75C25.0163 29.75 24.1246 30.48 24.1135 31.5181H25.4234C25.4345 31.1188 25.7834 30.8508 26.2403 30.8508C26.6751 30.8508 26.9714 31.1217 26.9686 31.5124C26.9714 31.9173 26.6225 32.1968 26.1185 32.1968H25.5674V33.2006H26.1185C26.6917 33.2006 27.0655 33.4914 27.06 33.9021C27.0655 34.3156 26.7221 34.6036 26.2348 34.6036C25.7501 34.6036 25.3929 34.3384 25.3791 33.9534H24C24.0111 35.0086 24.9332 35.75 26.2292 35.75Z" fill="#24292E"/>
<path d="M38 9.79083V21.75H53V8.75H38.6268C38.4606 8.75 38 8.75 38 8.75C38 8.75 38 9.51479 38 9.79083Z" fill="url(#paint2_linear_1144_162613)"/>
<path d="M53 26.25H38V39.25H53V26.25Z" fill="#84AFF1"/>
<path d="M43.6884 18.25L46.3471 13.3281V13.2871H43.25V12.25H47.75V13.3018L45.0882 18.25H43.6884Z" fill="#24292E"/>
<path d="M43 34.6953V33.6963L45.5893 29.75H47.2308V33.6787H48V34.6953H47.2308V35.75H45.977V34.6953H43ZM46.0012 33.6787V31.1328H45.9528L44.3204 33.6318V33.6787H46.0012Z" fill="#24292E"/>
<path d="M57 21.7499H72V9.79071C72 9.51466 71.934 9.24992 71.8164 9.05473C71.6989 8.85954 71.5394 8.74988 71.3732 8.74988H57V21.7499Z" fill="url(#paint3_linear_1144_162613)"/>
<path d="M72 26.2499H57V39.2499H72V26.2499Z" fill="#84AFF1"/>
<path d="M64.4602 35.75C63.0525 35.75 62.0266 35.0188 62 33.9957H63.3944C63.4276 34.4552 63.8891 34.7673 64.4602 34.7673C65.1341 34.7673 65.6155 34.3425 65.6155 33.7269C65.6155 33.1055 65.1242 32.6749 64.4402 32.672C64.0385 32.672 63.6335 32.8251 63.4243 33.0708L62.1461 32.8714L62.4681 29.75H66.6248V30.7731H63.6534L63.4774 32.2558H63.5173C63.7563 31.9639 64.2709 31.7471 64.8685 31.7471C66.0936 31.7471 67.0033 32.5621 67 33.6951C67.0033 34.8916 65.9741 35.75 64.4602 35.75Z" fill="#24292E"/>
<path d="M64.4986 18.25C63.1902 18.25 62.2472 17.5456 62.25 16.5989C62.2472 15.8688 62.7994 15.2728 63.5074 15.1559V15.116C62.89 14.9905 62.4624 14.4601 62.4652 13.8213C62.4624 12.9173 63.3233 12.25 64.4986 12.25C65.671 12.25 66.5319 12.9173 66.5348 13.8213C66.5319 14.4629 66.0986 14.9905 65.4926 15.116V15.1559C66.1893 15.2728 66.7472 15.8688 66.75 16.5989C66.7472 17.5456 65.807 18.25 64.4986 18.25ZM64.4986 17.3432C65.0791 17.3432 65.4728 16.9981 65.4728 16.5019C65.4728 15.9971 65.0593 15.6321 64.4986 15.6321C63.935 15.6321 63.5244 15.9971 63.5244 16.5019C63.5244 16.9952 63.9152 17.3432 64.4986 17.3432ZM64.4986 14.7338C64.9857 14.7338 65.3369 14.4116 65.3369 13.9496C65.3369 13.4962 64.9914 13.1797 64.4986 13.1797C64.003 13.1797 63.6603 13.4933 63.6603 13.9496C63.6603 14.4116 64.0087 14.7338 64.4986 14.7338Z" fill="#24292E"/>
<path d="M85.9067 30C86.6011 30 91.9327 26 91.9327 24C91.9327 22 86.7357 18 85.9067 18C85.0777 18 84.4023 18.5 84.4023 19.4756C84.4023 20.4512 87.9067 22.9206 87.9067 22.9206C87.9067 22.9206 80.2539 22.25 80 22.9206C79.7461 23.5911 79.7461 24.4089 80 25.0794C80.2539 25.75 87.9067 25.0794 87.9067 25.0794C87.9067 25.0794 84.4023 27.75 84.4023 28.5301C84.4023 29.3103 85.2123 30 85.9067 30Z" fill="#CCCCDC"/>
<g clip-path="url(#clip0_1144_162613)">
<path d="M100 0.800641V10H124V0H101.003C100.737 0 100.482 0.084353 100.294 0.234502C100.106 0.384651 100 0.588297 100 0.800641Z" fill="url(#paint4_linear_1144_162613)"/>
<path d="M124 13H100V22.5H124V13Z" fill="#84AFF1"/>
<path d="M124 25.75H100V35.25H124V25.75Z" fill="#84AFF1"/>
<path d="M124 38.5H100V48H112H124V38.5Z" fill="#84AFF1"/>
<path d="M113.5 40.25H112.072L110.5 41.1699V42.4238L111.925 41.6035H111.963V46.25H113.5V40.25Z" fill="#24292E"/>
<path d="M113.5 14.75H112.072L110.5 15.6699V16.9238L111.925 16.1035H111.963V20.75H113.5V14.75Z" fill="#24292E"/>
<path d="M113.5 27.5H112.072L110.5 28.4199V29.6738L111.925 28.8535H111.963V33.5H113.5V27.5Z" fill="#24292E"/>
</g>
<g clip-path="url(#clip1_1144_162613)">
<path d="M152 13H128V22.5H152V13Z" fill="#84AFF1"/>
<path d="M152 25.75H128V35.25H152V25.75Z" fill="#84AFF1"/>
<path d="M152 38.5H128V48H140H152V38.5Z" fill="#84AFF1"/>
<path d="M128 0.800641V10H152V1.05456e-06H129.003L128 0L128 0.800641Z" fill="url(#paint5_linear_1144_162613)"/>
<path d="M139.979 20.75C141.308 20.75 142.253 20.0257 142.25 19.0105C142.253 18.2918 141.796 17.7785 140.921 17.673V17.6274C141.577 17.5304 142.042 17.077 142.04 16.4211C142.042 15.4686 141.206 14.75 139.99 14.75C138.766 14.75 137.875 15.48 137.864 16.5181H139.173C139.184 16.1188 139.533 15.8508 139.99 15.8508C140.425 15.8508 140.721 16.1217 140.719 16.5124C140.721 16.9173 140.372 17.1968 139.868 17.1968H139.317V18.2006H139.868C140.442 18.2006 140.816 18.4914 140.81 18.9021C140.816 19.3156 140.472 19.6036 139.985 19.6036C139.5 19.6036 139.143 19.3384 139.129 18.9534H137.75C137.761 20.0086 138.683 20.75 139.979 20.75Z" fill="#24292E"/>
<path d="M137.75 32.4453V31.4463L140.339 27.5H141.981V31.4287H142.75V32.4453H141.981V33.5H140.727V32.4453H137.75ZM140.751 31.4287V28.8828H140.703L139.07 31.3818V31.4287H140.751Z" fill="#24292E"/>
<path d="M140.21 46.25C138.802 46.25 137.777 45.5188 137.75 44.4957H139.144C139.178 44.9552 139.639 45.2673 140.21 45.2673C140.884 45.2673 141.366 44.8425 141.366 44.2269C141.366 43.6055 140.874 43.1749 140.19 43.172C139.789 43.172 139.383 43.3251 139.174 43.5708L137.896 43.3714L138.218 40.25H142.375V41.2731H139.403L139.227 42.7558H139.267C139.506 42.4639 140.021 42.2471 140.619 42.2471C141.844 42.2471 142.753 43.0621 142.75 44.1951C142.753 45.3916 141.724 46.25 140.21 46.25Z" fill="#24292E"/>
</g>
<g clip-path="url(#clip2_1144_162613)">
<path d="M180 13H156V22.5H180V13Z" fill="#84AFF1"/>
<path d="M180 25.75H156V35.25H180V25.75Z" fill="#84AFF1"/>
<path d="M180 38.5H156V48H168H180V38.5Z" fill="#84AFF1"/>
<path d="M156 10H180V0.800641C180 0.588297 179.894 0.384651 179.706 0.234502C179.518 0.084353 179.263 0 178.997 0L156 0V10Z" fill="url(#paint6_linear_1144_162613)"/>
<path d="M167.999 46.25C166.69 46.25 165.747 45.5456 165.75 44.5989C165.747 43.8688 166.299 43.2728 167.007 43.1559V43.116C166.39 42.9905 165.962 42.4601 165.965 41.8213C165.962 40.9173 166.823 40.25 167.999 40.25C169.171 40.25 170.032 40.9173 170.035 41.8213C170.032 42.4629 169.599 42.9905 168.993 43.116V43.1559C169.689 43.2728 170.247 43.8688 170.25 44.5989C170.247 45.5456 169.307 46.25 167.999 46.25ZM167.999 45.3432C168.579 45.3432 168.973 44.9981 168.973 44.5019C168.973 43.9971 168.559 43.6321 167.999 43.6321C167.435 43.6321 167.024 43.9971 167.024 44.5019C167.024 44.9952 167.415 45.3432 167.999 45.3432ZM167.999 42.7338C168.486 42.7338 168.837 42.4116 168.837 41.9496C168.837 41.4962 168.491 41.1797 167.999 41.1797C167.503 41.1797 167.16 41.4933 167.16 41.9496C167.16 42.4116 167.509 42.7338 167.999 42.7338Z" fill="#24292E"/>
<path d="M166.188 33.5L168.847 28.5781V28.5371H165.75V27.5H170.25V28.5518L167.588 33.5H166.188Z" fill="#24292E"/>
<path d="M168.074 20.75C166.878 20.7443 165.747 20.0199 165.75 17.8812C165.756 15.9192 166.679 14.75 168.116 14.75C169.278 14.75 170.074 15.5 170.19 16.461H168.977C168.884 16.0532 168.562 15.808 168.116 15.808C167.358 15.808 166.96 16.5152 166.955 17.653H166.994C167.256 17.1369 167.821 16.8289 168.46 16.8289C169.491 16.8289 170.253 17.6188 170.25 18.7139C170.253 19.903 169.369 20.7557 168.074 20.75ZM168.068 19.7804C168.636 19.7804 169.06 19.3327 169.057 18.7481C169.06 18.1692 168.645 17.7215 168.077 17.7215C167.511 17.7215 167.082 18.1834 167.08 18.7509C167.08 19.3213 167.5 19.7804 168.068 19.7804Z" fill="#24292E"/>
</g>
<defs>
<linearGradient id="paint0_linear_1144_162613" x1="0" y1="15.2551" x2="15" y2="15.2551" gradientUnits="userSpaceOnUse">
<stop stop-color="#F2CC0C"/>
<stop offset="1" stop-color="#FF9830"/>
</linearGradient>
<linearGradient id="paint1_linear_1144_162613" x1="19" y1="15.2552" x2="34" y2="15.2552" gradientUnits="userSpaceOnUse">
<stop stop-color="#F2CC0C"/>
<stop offset="1" stop-color="#FF9830"/>
</linearGradient>
<linearGradient id="paint2_linear_1144_162613" x1="38" y1="15.2552" x2="53" y2="15.2552" gradientUnits="userSpaceOnUse">
<stop stop-color="#F2CC0C"/>
<stop offset="1" stop-color="#FF9830"/>
</linearGradient>
<linearGradient id="paint3_linear_1144_162613" x1="57" y1="15.2551" x2="72" y2="15.2551" gradientUnits="userSpaceOnUse">
<stop stop-color="#F2CC0C"/>
<stop offset="1" stop-color="#FF9830"/>
</linearGradient>
<linearGradient id="paint4_linear_1144_162613" x1="100" y1="5.004" x2="124" y2="5.004" gradientUnits="userSpaceOnUse">
<stop stop-color="#F2CC0C"/>
<stop offset="1" stop-color="#FF9830"/>
</linearGradient>
<linearGradient id="paint5_linear_1144_162613" x1="128.008" y1="5.004" x2="152.008" y2="5.004" gradientUnits="userSpaceOnUse">
<stop stop-color="#F2CC0C"/>
<stop offset="1" stop-color="#FF9830"/>
</linearGradient>
<linearGradient id="paint6_linear_1144_162613" x1="156" y1="5.004" x2="180" y2="5.004" gradientUnits="userSpaceOnUse">
<stop stop-color="#F2CC0C"/>
<stop offset="1" stop-color="#FF9830"/>
</linearGradient>
<clipPath id="clip0_1144_162613">
<rect width="24" height="48" fill="white" transform="translate(100)"/>
</clipPath>
<clipPath id="clip1_1144_162613">
<rect width="24" height="48" fill="white" transform="translate(128)"/>
</clipPath>
<clipPath id="clip2_1144_162613">
<rect width="24" height="48" fill="white" transform="translate(156)"/>
</clipPath>
</defs>
</svg>
