<svg width="105" height="48" viewBox="0 0 105 48" fill="none" xmlns="http://www.w3.org/2000/svg">
<path d="M0 1.04083V13H15V0H0.626828C0.460583 0 0.301147 0.109659 0.183594 0.304853C0.0660407 0.500047 0 0.764787 0 1.04083Z" fill="url(#paint0_linear_1144_162425)"/>
<path d="M15 17.5H0V30.5H15V17.5Z" fill="#84AFF1"/>
<path d="M15 35H0V48H15V35Z" fill="#84AFF1"/>
<path d="M8.5 21H7.07158L5.5 21.9199V23.1738L6.92531 22.3535H6.96266V27H8.5V21Z" fill="#24292E"/>
<path d="M5.33733 44.5H9.75V43.3468H7.33409V43.3092L8.04722 42.6561C9.33959 41.5376 9.67723 40.9682 9.67723 40.289C9.67723 39.2225 8.8011 38.5 7.44761 38.5C6.12905 38.5 5.2471 39.2543 5.25001 40.4595H6.61514C6.61514 39.9249 6.94696 39.6156 7.44179 39.6156C7.92788 39.6156 8.28008 39.9133 8.28008 40.4017C8.28008 40.8439 8.00065 41.1445 7.51165 41.5809L5.33733 43.4711V44.5Z" fill="#24292E"/>
<path d="M6.77442 9.5C7.52635 9.5 8.04638 9.23767 8.34153 8.74147H8.3837V9.41783H10V6.1182C10 5.09102 8.98454 4.5 7.61068 4.5C6.15952 4.5 5.33732 5.1574 5.20028 6.04235L6.78496 6.09292C6.85875 5.78319 7.14336 5.59355 7.59663 5.59355C8.01827 5.59355 8.28531 5.77686 8.28531 6.1024V6.1182C8.28531 6.4153 7.92692 6.47851 7.00633 6.5512C5.91356 6.63338 5 6.99684 5 8.07143C5 9.03224 5.74139 9.5 6.77442 9.5ZM7.30499 8.48862C6.90794 8.48862 6.62684 8.31795 6.62684 7.99558C6.62684 7.68268 6.90091 7.49305 7.38932 7.42668C7.70907 7.38559 8.1026 7.32238 8.29585 7.23072V7.69216C8.29585 8.16625 7.85313 8.48862 7.30499 8.48862Z" fill="#24292E"/>
<g clip-path="url(#clip0_1144_162425)">
<path d="M19 13H34V1.04083C34 0.764787 33.934 0.500047 33.8164 0.304853C33.6989 0.109659 33.5394 0 33.3732 0L19 0V13Z" fill="url(#paint1_linear_1144_162425)"/>
<path d="M34 17.5H19V30.5H34V17.5Z" fill="#84AFF1"/>
<path d="M34 35H19V48H34V35Z" fill="#84AFF1"/>
<path d="M24 9.68623H25.5663V8.96449H25.6149C25.8155 9.37609 26.2621 9.75 27.0129 9.75C28.1133 9.75 29 8.97898 29 7.46304C29 5.89203 28.0615 5.17609 27.0227 5.17609C26.2362 5.17609 25.8058 5.58768 25.6149 5.99638H25.5825V3.75H24V9.68623ZM25.5502 7.46015C25.5502 6.73261 25.8867 6.28333 26.466 6.28333C27.0518 6.28333 27.3754 6.7442 27.3754 7.46015C27.3754 8.17899 27.0518 8.64565 26.466 8.64565C25.8867 8.64565 25.5502 8.18188 25.5502 7.46015Z" fill="#24292E"/>
<path d="M26.4792 27C27.8085 27 28.7528 26.2757 28.75 25.2605C28.7528 24.5418 28.2958 24.0285 27.4208 23.923V23.8774C28.0771 23.7804 28.5423 23.327 28.5395 22.6711C28.5423 21.7186 27.706 21 26.4903 21C25.2663 21 24.3746 21.73 24.3635 22.7681H25.6734C25.6845 22.3688 26.0334 22.1008 26.4903 22.1008C26.9251 22.1008 27.2214 22.3717 27.2186 22.7624C27.2214 23.1673 26.8725 23.4468 26.3685 23.4468H25.8174V24.4506H26.3685C26.9417 24.4506 27.3155 24.7414 27.31 25.1521C27.3155 25.5656 26.9721 25.8536 26.4848 25.8536C26.0001 25.8536 25.6429 25.5884 25.6291 25.2034H24.25C24.2611 26.2586 25.1832 27 26.4792 27Z" fill="#24292E"/>
<path d="M24 43.4453V42.4463L26.5893 38.5H28.2308V42.4287H29V43.4453H28.2308V44.5H26.977V43.4453H24ZM27.0012 42.4287V39.8828H26.9528L25.3204 42.3818V42.4287H27.0012Z" fill="#24292E"/>
</g>
<path d="M47.9067 30C48.6011 30 53.9327 26 53.9327 24C53.9327 22 48.7357 18 47.9067 18C47.0777 18 46.4023 18.5 46.4023 19.4756C46.4023 20.4512 49.9067 22.9206 49.9067 22.9206C49.9067 22.9206 42.2539 22.25 42 22.9206C41.7461 23.5911 41.7461 24.4089 42 25.0794C42.2539 25.75 49.9067 25.0794 49.9067 25.0794C49.9067 25.0794 46.4023 27.75 46.4023 28.5301C46.4023 29.3103 47.2123 30 47.9067 30Z" fill="#CCCCDC"/>
<path d="M67.7955 20.1818H68.2727V20.6591C68.2727 20.9123 68.3733 21.155 68.5523 21.3341C68.7313 21.5131 68.9741 21.6136 69.2273 21.6136C69.4804 21.6136 69.7232 21.5131 69.9022 21.3341C70.0812 21.155 70.1818 20.9123 70.1818 20.6591V20.1818H70.6591C70.9123 20.1818 71.155 20.0813 71.3341 19.9022C71.5131 19.7232 71.6136 19.4804 71.6136 19.2273C71.6136 18.9741 71.5131 18.7313 71.3341 18.5523C71.155 18.3733 70.9123 18.2727 70.6591 18.2727H70.1818V17.7955C70.1818 17.5423 70.0812 17.2995 69.9022 17.1205C69.7232 16.9415 69.4804 16.8409 69.2273 16.8409C68.9741 16.8409 68.7313 16.9415 68.5523 17.1205C68.3733 17.2995 68.2727 17.5423 68.2727 17.7955V18.2727H67.7955C67.5423 18.2727 67.2995 18.3733 67.1205 18.5523C66.9415 18.7313 66.8409 18.9741 66.8409 19.2273C66.8409 19.4804 66.9415 19.7232 67.1205 19.9022C67.2995 20.0813 67.5423 20.1818 67.7955 20.1818ZM67.2036 30.7964C67.3825 30.9742 67.6244 31.0739 67.8766 31.0739C68.1288 31.0739 68.3707 30.9742 68.5495 30.7964L69.2273 30.1186L69.905 30.7964C70.0838 30.9742 70.3258 31.0739 70.578 31.0739C70.8301 31.0739 71.0721 30.9742 71.2509 30.7964C71.4287 30.6175 71.5285 30.3756 71.5285 30.1234C71.5285 29.8712 71.4287 29.6293 71.2509 29.4505L70.5732 28.7727L71.2509 28.095C71.4073 27.9124 71.489 27.6775 71.4797 27.4373C71.4704 27.197 71.3709 26.9691 71.2009 26.7991C71.0309 26.6291 70.803 26.5296 70.5627 26.5203C70.3225 26.511 70.0876 26.5927 69.905 26.7491L69.2273 27.4268L68.5495 26.7491C68.3669 26.5927 68.132 26.511 67.8918 26.5203C67.6516 26.5296 67.4237 26.6291 67.2537 26.7991C67.0837 26.9691 66.9841 27.197 66.9748 27.4373C66.9655 27.6775 67.0473 27.9124 67.2036 28.095L67.8814 28.7727L67.2036 29.4505C67.0259 29.6293 66.9261 29.8712 66.9261 30.1234C66.9261 30.3756 67.0259 30.6175 67.2036 30.7964V30.7964ZM81.6364 13.5H66.3636C65.6042 13.5 64.8758 13.8017 64.3387 14.3387C63.8017 14.8758 63.5 15.6042 63.5 16.3636V31.6364C63.5 32.3959 63.8017 33.1242 64.3387 33.6613C64.8758 34.1983 65.6042 34.5 66.3636 34.5H81.6364C82.3958 34.5 83.1242 34.1983 83.6613 33.6613C84.1983 33.1242 84.5 32.3959 84.5 31.6364V16.3636C84.5 15.6042 84.1983 14.8758 83.6613 14.3387C83.1242 13.8017 82.3958 13.5 81.6364 13.5V13.5ZM73.0455 32.5909H66.3636C66.1105 32.5909 65.8677 32.4903 65.6887 32.3113C65.5097 32.1323 65.4091 31.8895 65.4091 31.6364V24.9545H73.0455V32.5909ZM73.0455 23.0455H65.4091V16.3636C65.4091 16.1105 65.5097 15.8677 65.6887 15.6887C65.8677 15.5097 66.1105 15.4091 66.3636 15.4091H73.0455V23.0455ZM82.5909 31.6364C82.5909 31.8895 82.4903 32.1323 82.3113 32.3113C82.1323 32.4903 81.8895 32.5909 81.6364 32.5909H74.9545V24.9545H82.5909V31.6364ZM82.5909 23.0455H74.9545V15.4091H81.6364C81.8895 15.4091 82.1323 15.5097 82.3113 15.6887C82.4903 15.8677 82.5909 16.1105 82.5909 16.3636V23.0455ZM77.3409 28.2955H80.2045C80.4577 28.2955 80.7005 28.1949 80.8795 28.0159C81.0585 27.8369 81.1591 27.5941 81.1591 27.3409C81.1591 27.0878 81.0585 26.845 80.8795 26.6659C80.7005 26.4869 80.4577 26.3864 80.2045 26.3864H77.3409C77.0877 26.3864 76.845 26.4869 76.6659 26.6659C76.4869 26.845 76.3864 27.0878 76.3864 27.3409C76.3864 27.5941 76.4869 27.8369 76.6659 28.0159C76.845 28.1949 77.0877 28.2955 77.3409 28.2955V28.2955ZM80.2045 18.2727H77.3409C77.0877 18.2727 76.845 18.3733 76.6659 18.5523C76.4869 18.7313 76.3864 18.9741 76.3864 19.2273C76.3864 19.4804 76.4869 19.7232 76.6659 19.9022C76.845 20.0813 77.0877 20.1818 77.3409 20.1818H80.2045C80.4577 20.1818 80.7005 20.0813 80.8795 19.9022C81.0585 19.7232 81.1591 19.4804 81.1591 19.2273C81.1591 18.9741 81.0585 18.7313 80.8795 18.5523C80.7005 18.3733 80.4577 18.2727 80.2045 18.2727ZM77.3409 31.1591H80.2045C80.4577 31.1591 80.7005 31.0585 80.8795 30.8795C81.0585 30.7005 81.1591 30.4577 81.1591 30.2045C81.1591 29.9514 81.0585 29.7086 80.8795 29.5296C80.7005 29.3506 80.4577 29.25 80.2045 29.25H77.3409C77.0877 29.25 76.845 29.3506 76.6659 29.5296C76.4869 29.7086 76.3864 29.9514 76.3864 30.2045C76.3864 30.4577 76.4869 30.7005 76.6659 30.8795C76.845 31.0585 77.0877 31.1591 77.3409 31.1591V31.1591Z" fill="white"/>
<path d="M90 9.79083V21.75H105V8.75H90.6268C90.4606 8.75 90.3011 8.85966 90.1836 9.05485C90.066 9.25005 90 9.51479 90 9.79083Z" fill="url(#paint2_linear_1144_162425)"/>
<path d="M105 26.25H90V39.25H105V26.25Z" fill="#84AFF1"/>
<path d="M98.5 29.75H97.0716L95.5 30.6699V31.9238L96.9253 31.1035H96.9627V35.75H98.5V29.75Z" fill="#24292E"/>
<path d="M96.7744 18.25C97.5264 18.25 98.0464 17.9877 98.3415 17.4915H98.3837V18.1678H100V14.8682C100 13.841 98.9845 13.25 97.6107 13.25C96.1595 13.25 95.3373 13.9074 95.2003 14.7924L96.785 14.8429C96.8587 14.5332 97.1434 14.3436 97.5966 14.3436C98.0183 14.3436 98.2853 14.5269 98.2853 14.8524V14.8682C98.2853 15.1653 97.9269 15.2285 97.0063 15.3012C95.9136 15.3834 95 15.7468 95 16.8214C95 17.7822 95.7414 18.25 96.7744 18.25ZM97.305 17.2386C96.9079 17.2386 96.6268 17.068 96.6268 16.7456C96.6268 16.4327 96.9009 16.243 97.3893 16.1767C97.7091 16.1356 98.1026 16.0724 98.2959 15.9807V16.4422C98.2959 16.9162 97.8531 17.2386 97.305 17.2386Z" fill="#24292E"/>
<defs>
<linearGradient id="paint0_linear_1144_162425" x1="0" y1="6.5052" x2="15" y2="6.5052" gradientUnits="userSpaceOnUse">
<stop stop-color="#F2CC0C"/>
<stop offset="1" stop-color="#FF9830"/>
</linearGradient>
<linearGradient id="paint1_linear_1144_162425" x1="19" y1="6.5052" x2="34" y2="6.5052" gradientUnits="userSpaceOnUse">
<stop stop-color="#F2CC0C"/>
<stop offset="1" stop-color="#FF9830"/>
</linearGradient>
<linearGradient id="paint2_linear_1144_162425" x1="90" y1="15.2552" x2="105" y2="15.2552" gradientUnits="userSpaceOnUse">
<stop stop-color="#F2CC0C"/>
<stop offset="1" stop-color="#FF9830"/>
</linearGradient>
<clipPath id="clip0_1144_162425">
<rect width="15" height="48" fill="white" transform="translate(19)"/>
</clipPath>
</defs>
</svg>
