<?xml version="1.0"?>
<svg width="86" height="48.00000000000001" xmlns="http://www.w3.org/2000/svg" xmlns:svg="http://www.w3.org/2000/svg">
 <defs>
  <linearGradient id="paint0_linear_smoothing_dark" x1="0" x2="1" y1="0.5" y2="0.5">
   <stop stop-color="#F2CC0C"/>
   <stop offset="1" stop-color="#FF9830"/>
  </linearGradient>
  <linearGradient id="paint1_linear_smoothing_dark" x1="0" x2="1" y1="0.5" y2="0.5">
   <stop stop-color="#F2CC0C"/>
   <stop offset="1" stop-color="#FF9830"/>
  </linearGradient>
  <clipPath id="clip0_smoothing_dark">
   <rect fill="white" height="48" id="svg_1" width="24"/>
  </clipPath>
  <clipPath id="clip1_smoothing_dark">
   <rect fill="white" height="36" id="svg_2" transform="translate(62 6)" width="24"/>
  </clipPath>
 </defs>
 <g class="layer">
  <title>Layer 1</title>
  <g clip-path="url(#clip0_smoothing_dark)" id="svg_3">
   <path d="m0,0.8l0,9.2l24,0l0,-10l-23,0l-1,0l0,0.8z" fill="url(#paint0_linear_smoothing_dark)" id="svg_4"/>
   <path d="m24,13l-24,0l0,9.5l24,0l0,-9.5z" fill="#84AFF1" id="svg_5"/>
   <path d="m24,25.75l-24,0l0,9.5l24,0l0,-9.5z" fill="#84AFF1" id="svg_6"/>
   <path d="m24,38.5l-24,0l0,9.5l24,0l0,-9.5z" fill="#84AFF1" id="svg_7"/>
   <path d="m13,14.75l-1.43,0l-1.57,0.92l0,1.25l1.43,-0.82l0.03,0l0,4.65l1.54,0l0,-6z" fill="#24292E" id="svg_8"/>
   <path d="m9.84,33.5l4.41,0l0,-1.15l-2.42,0l0,-0.04l0.72,-0.65c1.29,-1.12 1.63,-1.69 1.63,-2.37c0,-1.07 -0.88,-1.79 -2.23,-1.79c-1.32,0 -2.2,0.75 -2.2,1.96l1.37,0c0,-0.54 0.33,-0.84 0.82,-0.84c0.49,0 0.84,0.29 0.84,0.78c0,0.44 -0.28,0.74 -0.77,1.18l-2.17,1.89l0,1.03z" fill="#24292E" id="svg_9"/>
   <path d="m11.98,46.25c1.33,0 2.27,-0.72 2.27,-1.74c0,-0.72 -0.45,-1.23 -1.33,-1.34l0,-0.04c0.66,-0.1 1.12,-0.55 1.12,-1.21c0,-0.95 -0.83,-1.67 -2.05,-1.67c-1.22,0 -2.12,0.73 -2.13,1.77l1.31,0c0.01,-0.4 0.36,-0.67 0.82,-0.67c0.44,0 0.73,0.27 0.73,0.66c0,0.41 -0.35,0.69 -0.85,0.69l-0.55,0l0,1l0.55,0c0.57,0 0.95,0.29 0.94,0.7c0.01,0.42 -0.34,0.7 -0.83,0.7c-0.48,0 -0.84,-0.26 -0.85,-0.65l-1.38,0c0.01,1.06 0.93,1.8 2.23,1.8z" fill="#24292E" id="svg_10"/>
   <path d="m10.77,7.5c0.76,0 1.28,-0.26 1.57,-0.76l0.04,0l0,0.68l1.62,0l0,-3.3c0,-1.03 -1.02,-1.62 -2.39,-1.62c-1.45,0 -2.27,0.66 -2.41,1.54l1.59,0.05c0.07,-0.31 0.35,-0.5 0.81,-0.5c0.42,0 0.69,0.19 0.69,0.51l0,0.02c0,0.3 -0.36,0.36 -1.28,0.43c-1.1,0.08 -2.01,0.45 -2.01,1.52c0,0.96 0.74,1.43 1.77,1.43zm0.53,-1.01c-0.39,0 -0.67,-0.17 -0.67,-0.49c0,-0.32 0.27,-0.51 0.76,-0.57c0.32,-0.04 0.71,-0.11 0.91,-0.2l0,0.46c0,0.48 -0.45,0.8 -1,0.8z" fill="#24292E" id="svg_11"/>
  </g>
  <path d="m42.1,29c0.69,0 6.02,-4 6.02,-6c0,-2 -5.19,-6 -6.02,-6c-0.83,0 -1.51,0.5 -1.51,1.48c0,0.97 3.51,3.44 3.51,3.44c0,0 -7.66,-0.67 -7.91,0c-0.25,0.67 -0.25,1.49 0,2.16c0.25,0.67 7.91,0 7.91,0c0,0 -3.51,2.67 -3.51,3.45c0,0.78 0.81,1.47 1.51,1.47z" fill="#CCCCDC" id="svg_12"/>
  <g clip-path="url(#clip1_smoothing_dark)" id="svg_13" transform="matrix(1 0 0 1 0 0)">
   <path d="m62,6.8l0,9.2l24,0l0,-10l-23,0l-1,0l0,0.8z" fill="url(#paint1_linear_smoothing_dark)" id="svg_14"/>
   <path d="m86,19l-24,0l0,9.5l24,0l0,-9.5z" fill="#84AFF1" id="svg_15"/>
   <path d="m86,31.75l-24,0l0,9.5l24,0l0,-9.5z" fill="#84AFF1" id="svg_16"/>
   <path d="m86,44l-24,0l0,4l24,0l0,-4z" fill="#84AFF1" id="svg_17"/>
   <path d="m75,20.75l-1.43,0l-1.57,0.92l0,1.25l1.43,-0.82l0.03,0l0,4.65l1.54,0l0,-6z" fill="#24292E" id="svg_18"/>
   <path d="m71.84,39.5l4.41,0l0,-1.15l-2.42,0l0,-0.04l0.72,-0.65c1.29,-1.12 1.63,-1.69 1.63,-2.37c0,-1.07 -0.88,-1.79 -2.23,-1.79c-1.32,0 -2.2,0.75 -2.2,1.96l1.37,0c0,-0.54 0.33,-0.84 0.82,-0.84c0.49,0 0.84,0.29 0.84,0.78c0,0.44 -0.28,0.74 -0.77,1.18l-2.17,1.89l0,1.03z" fill="#24292E" id="svg_19"/>
   <path d="m72.77,13.5c0.76,0 1.28,-0.26 1.57,-0.76l0.04,0l0,0.68l1.62,0l0,-3.3c0,-1.03 -1.02,-1.62 -2.39,-1.62c-1.45,0 -2.27,0.66 -2.41,1.54l1.58,0.05c0.08,-0.31 0.36,-0.5 0.82,-0.5c0.42,0 0.69,0.19 0.69,0.51l0,0.02c0,0.3 -0.36,0.36 -1.28,0.43c-1.1,0.08 -2.01,0.45 -2.01,1.52c0,0.96 0.74,1.43 1.77,1.43zm0.54,-1.01c-0.4,0 -0.68,-0.17 -0.68,-0.49c0,-0.32 0.27,-0.51 0.76,-0.57c0.32,-0.04 0.71,-0.11 0.91,-0.2l0,0.46c0,0.48 -0.45,0.8 -0.99,0.8z" fill="#24292E" id="svg_20"/>
  </g>
 </g>
</svg>