<svg xmlns="http://www.w3.org/2000/svg" version="1.1" x="0px" y="0px" viewBox="0 0 100 125" style="enable-background:new 0 0 100 100;" xml:space="preserve">
    <defs><style>.cls-1{fill:#84aff1;}.cls-2{fill:url(#linear-gradient);}.cls-3{fill:#3865ab;}</style><linearGradient id="linear-gradient" y1="40.18" x2="82.99" y2="40.18" gradientUnits="userSpaceOnUse"><stop offset="0" stop-color="#f2cc0c"/><stop offset="1" stop-color="#ff9830"/></linearGradient></defs>
    <g>
    <path class="cls-2" d="M8.8,31.6c-2.2,0-3.9,1.7-3.9,3.9c0,2.2,1.7,3.9,3.9,3.9c26.1,0,47.3,21.2,47.3,47.3c0,2.2,1.7,3.9,3.9,3.9  c2.2,0,3.9-1.7,3.9-3.9C63.9,56.3,39.2,31.6,8.8,31.6z"/>
    <path class="cls-2" d="M8.8,47.9c-2.2,0-3.9,1.7-3.9,3.9c0,2.2,1.7,3.9,3.9,3.9c17.1,0,31.1,13.9,31.1,31c0,2.2,1.7,3.9,3.9,3.9    c2.2,0,3.9-1.7,3.9-3.9C47.7,65.3,30.2,47.9,8.8,47.9z"/>
    <path class="cls-2" d="M8.8,64.1c-2.2,0-3.9,1.7-3.9,3.9c0,2.2,1.7,3.9,3.9,3.9c8.2,0,14.8,6.6,14.8,14.8c0,2.2,1.7,3.9,3.9,3.9    s3.9-1.7,3.9-3.9C31.4,74.2,21.2,64.1,8.8,64.1z"/>
    <path class="cls-3" d="M8.8,80.4c-3.5,0-6.3,2.8-6.3,6.3c0,3.5,2.8,6.3,6.3,6.3c3.5,0,6.3-2.8,6.3-6.3C15.1,83.2,12.3,80.4,8.8,80.4z"/>
    <path class="cls-2" d="M93.6,7H8.9C6.7,7,5,8.7,5,10.9v8.6c0,2.2,1.7,3.9,3.9,3.9s3.9-1.7,3.9-3.9v-4.7h76.9v67.9H76c-2.2,0-3.9,1.7-3.9,3.9  c0,2.2,1.7,3.9,3.9,3.9h17.6c2.2,0,3.9-1.7,3.9-3.9V10.9C97.5,8.7,95.8,7,93.6,7z"/>
  </g>
</svg>