<svg width="482" height="144.6" fill="none" xmlns="http://www.w3.org/2000/svg">
<defs><style>@media (prefers-color-scheme:light){.add-panel-chart{opacity:.5}}</style></defs><path stroke="#ccccdc" stroke-linecap="round" stroke-linejoin="round" stroke-width="1.5" d="m.066 33.626 9.352 1.241 15.77-7.924 7.99 5.027 8.846-.946 8.088-7.274 7.33 1.892 8.847 3.371 7.835-4.021 7.836 2.838 9.857-.354 7.33-2.839 7.078 7.333 9.352-.946 7.835-4.08 7.33 1.419 9.099-4.08 7.33 4.73 8.089 2.01L164.106.866l8.089 6.623 7.835-.591 7.583 5.736 8.594-1.715 7.835 19.16 8.594 5.676 8.594-4.73 7.33 4.73h8.341l8.088 16.617 7.836-7.687 7.835 7.183 10.11 4.998 13.649-10.821 9.1-4.731 8.846 7.924 8.341-1.36 7.33-4.494 8.341-1.242 8.847 2.543 15.671 2.01 8.341 4.021 9.352-2.838 6.572-.65 9.099-5.086 6.066 1.242 9.858 7.332 7.836-7.332 7.835 1.3h8.088l8.594-5.558 7.836-1.774 9.099-.828 7.33 4.79 13.396-4.79 10.869-4.021" aria-hidden="true" class="add-panel-chart" opacity=".2" transform="matrix(1 0 0 1.483 0 29.3)"/><path stroke="#5794f2" stroke-linecap="round" stroke-width="11" d="M241 39.3v66M208 72.3h66"/>
</svg>
