<svg width="482" height="58" viewBox="0 0 482 58" fill="none" xmlns="http://www.w3.org/2000/svg">
<path d="M0.0658112 33.6255L9.41789 34.8673L25.1884 26.9434L33.1772 31.9698L42.0238 31.0236L50.1121 23.7501L57.4421 25.6424L66.2886 29.0131L74.1241 24.992L81.9597 27.8304L91.8173 27.4756L99.1473 24.6371L106.225 31.9698L115.577 31.0236L123.412 26.9434L130.742 28.3626L139.841 24.2823L147.171 29.0131L155.26 31.0236L164.106 0.865234L172.195 7.48825L180.03 6.89691L187.613 12.6329L196.207 10.918L204.042 30.0775L212.636 35.7544L221.23 31.0236L228.56 35.7544H236.901L244.989 52.371L252.825 44.6836L260.66 51.8671L270.77 56.8652L284.419 46.0437L293.519 41.313L302.365 49.2369L310.706 47.8768L318.036 43.3827L326.377 42.1408L335.224 44.6836L350.895 46.6942L359.236 50.7153L368.588 47.8768L375.16 47.2264L384.259 42.1408L390.325 43.3827L400.183 50.7153L408.019 43.3827L415.854 44.6836H423.942L432.536 39.125L440.372 37.351L449.471 36.5231L456.801 41.313L470.197 36.5231L481.066 32.502" stroke="#CCCCDC"/>
</svg>
