<?xml version="1.0" encoding="utf-8"?>
<!DOCTYPE svg PUBLIC "-//W3C//DTD SVG 1.1//EN" "http://www.w3.org/Graphics/SVG/1.1/DTD/svg11.dtd">
<svg version="1.1" xmlns="http://www.w3.org/2000/svg" xmlns:xlink="http://www.w3.org/1999/xlink" 
    x="0px" y="0px" viewBox="0 0 1000 1000" enable-background="new 0 0 1000 1000" xml:space="preserve">
<g><g transform="translate(0.000000,24.000000) scale(0.100000,-0.100000)">
  <path d="M767.5-2142C-256.8-3694.1-70.5-6922.5,1109-7884.7c807.1-652.1,1024.3-31.2,434.6,1148.6c-745,1458.7-745,2452.2,0,3880.1c310.4,651.8,496.7,1241.7,403.6,1334.8C1605.7-1210.7,1264.2-1366,767.5-2142z"/>
  <path d="M8279.8-1614.2c-62.1-124.3,93.1-900.3,372.3-1707.3c496.9-1366,496.9-1552,0-2917.9c-620.8-1676.4-279.2-2452.5,527.8-1210.8c713.9,1055.6,931.3,2980.1,496.9,4314.9C9272.9-1955.7,8559-1179.7,8279.8-1614.2z"/>
  <path d="M2257.6-3383.7C1792-4408,1792-5153,2257.6-6177.4c403.5-900.4,1086.5-869.1,900.2,30.9c-124.1,745.1-124.1,1986.7,0,2731.7C3344.1-2514.6,2661.1-2483.5,2257.6-3383.7z"/>
  <path d="M6944.8-2949.1c-248.3-248.3-279.2-558.7-30.9-1086.5c248.3-527.6,248.3-962.2,0-1490c-248.3-589.6-248.3-838.2,62.1-1086.5c310.4-248.3,496.6-155.2,744.8,465.6c465.6,993.4,465.6,1955.6-30.9,2855.8C7379.5-2793.9,7193.3-2700.7,6944.8-2949.1z"/>
  <path d="M4058-4004.6C3250.9-4997.8,4461.5-6519,5547.9-5836c279.5,186.4,559,589.9,620.8,869.1C6417.3-3787.2,4834.1-3073.3,4058-4004.6z"/>
</g></g>
</svg>