<svg width="177" height="52" viewBox="0 0 177 52" fill="none" xmlns="http://www.w3.org/2000/svg">
<g clip-path="url(#clip0_1248_126012)">
<path d="M0 3.04083V15H15V2H0.626828C0.460583 2 0.301147 2.10966 0.183594 2.30485C0.0660407 2.50005 0 2.76479 0 3.04083Z" fill="url(#paint0_linear_1248_126012)"/>
<path d="M15 19.5H0V32.5H15V19.5Z" fill="#84AFF1"/>
<path d="M15 37H0V50H15V37Z" fill="#84AFF1"/>
<path d="M6.77442 11.5C7.52635 11.5 8.04638 11.2377 8.34153 10.7415H8.3837V11.4178H10V8.1182C10 7.09102 8.98454 6.5 7.61068 6.5C6.15952 6.5 5.33732 7.1574 5.20028 8.04235L6.78496 8.09292C6.85875 7.78319 7.14336 7.59355 7.59663 7.59355C8.01827 7.59355 8.28531 7.77686 8.28531 8.1024V8.1182C8.28531 8.4153 7.92692 8.47851 7.00633 8.5512C5.91356 8.63338 5 8.99684 5 10.0714C5 11.0322 5.74139 11.5 6.77442 11.5ZM7.30499 10.4886C6.90794 10.4886 6.62684 10.318 6.62684 9.99558C6.62684 9.68268 6.90091 9.49305 7.38932 9.42668C7.70907 9.38559 8.1026 9.32238 8.29585 9.23072V9.69216C8.29585 10.1662 7.85313 10.4886 7.30499 10.4886Z" fill="#24292E"/>
</g>
<g clip-path="url(#clip1_1248_126012)">
<path d="M19 15H34V3.04083C34 2.76479 33.934 2.50005 33.8164 2.30485C33.6989 2.10966 33.5394 2 33.3732 2H19V15Z" fill="url(#paint1_linear_1248_126012)"/>
<path d="M34 19.5H19V32.5H34V19.5Z" fill="#84AFF1"/>
<path d="M34 37H19V50H34V37Z" fill="#84AFF1"/>
<path d="M27.5 23H26.0716L24.5 23.9199V25.1738L25.9253 24.3535H25.9627V29H27.5V23Z" fill="#24292E"/>
<path d="M24.3373 46.5H28.75V45.3468H26.3341V45.3092L27.0472 44.6561C28.3396 43.5376 28.6772 42.9682 28.6772 42.289C28.6772 41.2225 27.8011 40.5 26.4476 40.5C25.129 40.5 24.2471 41.2543 24.25 42.4595H25.6151C25.6151 41.9249 25.947 41.6156 26.4418 41.6156C26.9279 41.6156 27.2801 41.9133 27.2801 42.4017C27.2801 42.8439 27.0006 43.1445 26.5116 43.5809L24.3373 45.4711V46.5Z" fill="#24292E"/>
<path d="M24 11.6862H25.5663V10.9645H25.6149C25.8155 11.3761 26.2621 11.75 27.0129 11.75C28.1133 11.75 29 10.979 29 9.46304C29 7.89203 28.0615 7.17609 27.0227 7.17609C26.2362 7.17609 25.8058 7.58768 25.6149 7.99638H25.5825V5.75H24V11.6862ZM25.5502 9.46015C25.5502 8.73261 25.8867 8.28333 26.466 8.28333C27.0518 8.28333 27.3754 8.7442 27.3754 9.46015C27.3754 10.179 27.0518 10.6457 26.466 10.6457C25.8867 10.6457 25.5502 10.1819 25.5502 9.46015Z" fill="#24292E"/>
</g>
<path d="M46.3343 30H49.674V25.3135H54V21.6954H49.674V17H46.3343V21.6954H42V25.3135H46.3343V30Z" fill="#24292E"/>
<g clip-path="url(#clip2_1248_126012)">
<path d="M77 25.5H62V38.5H77V25.5Z" fill="#3865AB"/>
<path d="M62 9.04083V21H77V8H62.6268C62.4606 8 62.3011 8.10966 62.1836 8.30485C62.066 8.50005 62 8.76479 62 9.04083Z" fill="url(#paint2_linear_1248_126012)"/>
<path d="M70.5 29H69.0716L67.5 29.9199V31.1738L68.9253 30.3535H68.9627V35H70.5V29Z" fill="white"/>
<path d="M67 17.6862H68.5663V16.9645H68.6149C68.8155 17.3761 69.2621 17.75 70.0129 17.75C71.1133 17.75 72 16.979 72 15.463C72 13.892 71.0615 13.1761 70.0227 13.1761C69.2362 13.1761 68.8058 13.5877 68.6149 13.9964H68.5825V11.75H67V17.6862ZM68.5502 15.4601C68.5502 14.7326 68.8867 14.2833 69.466 14.2833C70.0518 14.2833 70.3754 14.7442 70.3754 15.4601C70.3754 16.179 70.0518 16.6457 69.466 16.6457C68.8867 16.6457 68.5502 16.1819 68.5502 15.4601Z" fill="#24292E"/>
</g>
<g clip-path="url(#clip3_1248_126012)">
<path d="M96 25.5H81V38.5H96V25.5Z" fill="#3865AB"/>
<path d="M81 21H96V9.04083C96 8.76479 95.934 8.50005 95.8164 8.30485C95.6989 8.10966 95.5394 8 95.3732 8H81V21Z" fill="url(#paint3_linear_1248_126012)"/>
<path d="M88.6058 17.5C90.0564 17.5 90.9563 16.7082 91 15.5095H89.4654C89.405 16.0237 89.0759 16.3044 88.6259 16.3044C88.0484 16.3044 87.6723 15.847 87.6723 14.9858C87.6723 14.1309 88.0517 13.6735 88.6259 13.6735C89.096 13.6735 89.4016 13.9732 89.4654 14.4685H91C90.9631 13.276 90.0363 12.5 88.6024 12.5C86.9805 12.5 86 13.5158 86 15.0016C86 16.4811 86.9738 17.5 88.6058 17.5Z" fill="#24292E"/>
</g>
<path d="M104 28H116V24.686H104V28ZM104 22.314H116V19H104V22.314Z" fill="#24292E"/>
<path d="M124 3.04083V15H139V2H124.627C124.461 2 124.301 2.10966 124.184 2.30485C124.066 2.50005 124 2.76479 124 3.04083Z" fill="url(#paint4_linear_1248_126012)"/>
<path d="M139 19.5H124V32.5H139V19.5Z" fill="#84AFF1"/>
<path d="M139 37H124V50H139V37Z" fill="#84AFF1"/>
<path d="M139 32.5V19.5L124 32.5H139Z" fill="#3865AB"/>
<path d="M129.337 46.5H133.75V45.3468H131.334V45.3092L132.047 44.6561C133.34 43.5376 133.677 42.9682 133.677 42.289C133.677 41.2225 132.801 40.5 131.448 40.5C130.129 40.5 129.247 41.2543 129.25 42.4595H130.615C130.615 41.9249 130.947 41.6156 131.442 41.6156C131.928 41.6156 132.28 41.9133 132.28 42.4017C132.28 42.8439 132.001 43.1445 131.512 43.5809L129.337 45.4711V46.5Z" fill="white"/>
<path d="M132.5 23H131.072L129.5 23.9199V25.1738L130.925 24.3535H130.963V29H132.5V23Z" fill="white"/>
<path d="M129 11.6862H130.566V10.9645H130.615C130.816 11.3761 131.262 11.75 132.013 11.75C133.113 11.75 134 10.979 134 9.46304C134 7.89203 133.061 7.17609 132.023 7.17609C131.236 7.17609 130.806 7.58768 130.615 7.99638H130.583V5.75H129V11.6862ZM130.55 9.46015C130.55 8.73261 130.887 8.28333 131.466 8.28333C132.052 8.28333 132.375 8.7442 132.375 9.46015C132.375 10.179 132.052 10.6457 131.466 10.6457C130.887 10.6457 130.55 10.1819 130.55 9.46015Z" fill="#24292E"/>
<g clip-path="url(#clip4_1248_126012)">
<path d="M143 3.04083V15H158V2H143.627C143.461 2 143 2 143 2C143 2 143 2.76479 143 3.04083Z" fill="url(#paint5_linear_1248_126012)"/>
<path d="M158 19.5H143V32.5H158V19.5Z" fill="#84AFF1"/>
<path d="M158 37H143V50H158V37Z" fill="#84AFF1"/>
<path d="M149.774 11.5C150.526 11.5 151.046 11.2377 151.342 10.7415H151.384V11.4178H153V8.1182C153 7.09102 151.985 6.5 150.611 6.5C149.16 6.5 148.337 7.1574 148.2 8.04235L149.785 8.09292C149.859 7.78319 150.143 7.59355 150.597 7.59355C151.018 7.59355 151.285 7.77686 151.285 8.1024V8.1182C151.285 8.4153 150.927 8.47851 150.006 8.5512C148.914 8.63338 148 8.99684 148 10.0714C148 11.0322 148.741 11.5 149.774 11.5ZM150.305 10.4886C149.908 10.4886 149.627 10.318 149.627 9.99558C149.627 9.68268 149.901 9.49305 150.389 9.42668C150.709 9.38559 151.103 9.32238 151.296 9.23072V9.69216C151.296 10.1662 150.853 10.4886 150.305 10.4886Z" fill="#24292E"/>
</g>
<g clip-path="url(#clip5_1248_126012)">
<path d="M162 15.005H177V3.04584C177 2.76979 176.934 2.50505 176.816 2.30986C176.699 2.11466 176.539 2.005 176.373 2.005H162V15.005Z" fill="url(#paint6_linear_1248_126012)"/>
<path d="M177 19.505H162V32.505H177V19.505Z" fill="#3865AB"/>
<path d="M177 37.005H162V50.005H177V37.005Z" fill="#CCCCDC" fill-opacity="0.4"/>
<path d="M162.5 37.505H176.5V49.505H162.5V37.505Z" stroke="#CCCCDC" stroke-opacity="0.25"/>
<path d="M169.606 11.5C171.056 11.5 171.956 10.7082 172 9.50946H170.465C170.405 10.0237 170.076 10.3044 169.626 10.3044C169.048 10.3044 168.672 9.847 168.672 8.9858C168.672 8.13092 169.052 7.6735 169.626 7.6735C170.096 7.6735 170.402 7.97319 170.465 8.46845H172C171.963 7.27602 171.036 6.5 169.602 6.5C167.981 6.5 167 7.51577 167 9.00158C167 10.4811 167.974 11.5 169.606 11.5Z" fill="#24292E"/>
</g>
<rect x="18" y="1" width="17" height="50" stroke="#26262A" stroke-width="2"/>
<rect x="61" y="7" width="17" height="32.5" stroke="#26262A" stroke-width="2"/>
<defs>
<linearGradient id="paint0_linear_1248_126012" x1="0" y1="8.5052" x2="15" y2="8.5052" gradientUnits="userSpaceOnUse">
<stop stop-color="#F2CC0C"/>
<stop offset="1" stop-color="#FF9830"/>
</linearGradient>
<linearGradient id="paint1_linear_1248_126012" x1="19" y1="8.5052" x2="34" y2="8.5052" gradientUnits="userSpaceOnUse">
<stop stop-color="#F2CC0C"/>
<stop offset="1" stop-color="#FF9830"/>
</linearGradient>
<linearGradient id="paint2_linear_1248_126012" x1="62" y1="14.5052" x2="77" y2="14.5052" gradientUnits="userSpaceOnUse">
<stop stop-color="#F2CC0C"/>
<stop offset="1" stop-color="#FF9830"/>
</linearGradient>
<linearGradient id="paint3_linear_1248_126012" x1="81" y1="14.5052" x2="96" y2="14.5052" gradientUnits="userSpaceOnUse">
<stop stop-color="#F2CC0C"/>
<stop offset="1" stop-color="#FF9830"/>
</linearGradient>
<linearGradient id="paint4_linear_1248_126012" x1="124" y1="8.5052" x2="139" y2="8.5052" gradientUnits="userSpaceOnUse">
<stop stop-color="#F2CC0C"/>
<stop offset="1" stop-color="#FF9830"/>
</linearGradient>
<linearGradient id="paint5_linear_1248_126012" x1="143" y1="8.5052" x2="158" y2="8.5052" gradientUnits="userSpaceOnUse">
<stop stop-color="#F2CC0C"/>
<stop offset="1" stop-color="#FF9830"/>
</linearGradient>
<linearGradient id="paint6_linear_1248_126012" x1="162" y1="8.51021" x2="177" y2="8.51021" gradientUnits="userSpaceOnUse">
<stop stop-color="#F2CC0C"/>
<stop offset="1" stop-color="#FF9830"/>
</linearGradient>
<clipPath id="clip0_1248_126012">
<rect width="15" height="48" fill="white" transform="translate(0 2)"/>
</clipPath>
<clipPath id="clip1_1248_126012">
<rect width="15" height="48" fill="white" transform="translate(19 2)"/>
</clipPath>
<clipPath id="clip2_1248_126012">
<rect width="15" height="30.5" fill="white" transform="translate(62 8)"/>
</clipPath>
<clipPath id="clip3_1248_126012">
<rect width="15" height="30.5" fill="white" transform="translate(81 8)"/>
</clipPath>
<clipPath id="clip4_1248_126012">
<rect width="15" height="48" fill="white" transform="translate(143 2)"/>
</clipPath>
<clipPath id="clip5_1248_126012">
<rect width="15" height="48" fill="white" transform="translate(162 2)"/>
</clipPath>
</defs>
</svg>
