<svg width="95" height="48" viewBox="0 0 95 48" fill="none" xmlns="http://www.w3.org/2000/svg">
<g clip-path="url(#clip0_1834_45844)">
<path d="M0 0.611699V7.64012H14.394V0H0.601504C0.441975 0 0.28898 0.0644467 0.176176 0.179162C0.0633725 0.293878 0 0.449466 0 0.611699Z" fill="url(#paint0_linear_1834_45844)"/>
<path d="M33.606 7.64012H48V0.611699C48 0.449466 47.9366 0.293878 47.8238 0.179162C47.711 0.0644467 47.558 0 47.3985 0L33.606 0V7.64012Z" fill="url(#paint1_linear_1834_45844)"/>
<path d="M31.194 0H16.8V7.64012H31.194V0Z" fill="url(#paint2_linear_1834_45844)"/>
<path d="M31.194 10.0869H16.8V17.727H31.194V10.0869Z" fill="#84AFF1"/>
<path d="M14.394 10.0869H0V17.727H14.394V10.0869Z" fill="#84AFF1"/>
<path d="M48 10.0869H33.606V17.727H48V10.0869Z" fill="#84AFF1"/>
<path d="M48 20.1799H33.606V27.8262H48V20.1799Z" fill="#3865AB"/>
<path d="M31.194 20.1799H16.8V27.8262H31.194V20.1799Z" fill="#3865AB"/>
<path d="M14.394 20.1799H0V27.8262H14.394V20.1799Z" fill="#3865AB"/>
<path d="M31.194 30.2668H16.8V37.907H31.194V30.2668Z" fill="#84AFF1"/>
<path d="M48 30.2668H33.606V37.907H48V30.2668Z" fill="#84AFF1"/>
<path d="M14.394 30.2668H0V37.907H14.394V30.2668Z" fill="#84AFF1"/>
<path d="M31.194 40.3599H16.8V48H31.194V40.3599Z" fill="#3865AB"/>
<path d="M48 47.3883V40.3721H33.606V48H47.3985C47.558 48 47.711 47.9355 47.8238 47.8208C47.9366 47.7061 48 47.5505 48 47.3883Z" fill="#3865AB"/>
<path d="M14.394 48V40.3721H0V47.3883C0 47.5505 0.0633725 47.7061 0.176176 47.8208C0.28898 47.9355 0.441975 48 0.601504 48H14.394Z" fill="#3865AB"/>
</g>
<path d="M61.9067 30.4001C62.6011 30.4001 67.9327 26.1334 67.9327 24.0001C67.9327 21.8668 62.7357 17.6001 61.9067 17.6001C61.0778 17.6001 60.4023 18.1334 60.4023 19.1741C60.4023 20.2147 63.9067 22.8487 63.9067 22.8487C63.9067 22.8487 56.2539 22.1334 56 22.8487C55.7461 23.564 55.7461 24.4362 56 25.1515C56.2539 25.8668 63.9067 25.1515 63.9067 25.1515C63.9067 25.1515 60.4023 28.0001 60.4023 28.8323C60.4023 29.6644 61.2124 30.4001 61.9067 30.4001Z" fill="#CCCCDC"/>
<path d="M93.832 24.801C93.832 26.5482 93.3775 27.9971 92.3406 29.2613H90.4229C91.2042 28.3238 91.7866 26.4772 91.7866 24.801C91.7866 23.1249 91.2042 21.2783 90.4229 20.3408H92.3406C93.3775 21.605 93.832 23.0539 93.832 24.801Z" fill="#24292E"/>
<path d="M86.5016 22.1592L87.297 23.8495L88.1351 22.1592H90.0811L88.6181 24.8865L90.1522 27.6137H88.2203L87.297 25.8808L86.4022 27.6137H84.4419L85.9902 24.8865L84.5414 22.1592H86.5016Z" fill="#24292E"/>
<path d="M80.7621 24.801C80.7621 23.0539 81.2166 21.605 82.2536 20.3408H84.1712C83.3899 21.2783 82.8075 23.1249 82.8075 24.801C82.8075 26.4772 83.3899 28.3238 84.1712 29.2613H82.2536C81.2166 27.9971 80.7621 26.5482 80.7621 24.801Z" fill="#24292E"/>
<path d="M79.6506 22.1591V23.5795H78.6563V27.6136H76.696V23.5795H76V22.1591H76.696V22.0028C76.696 20.6534 77.4631 20 78.6563 20C79.1534 20 79.679 20.0994 79.9063 20.1562L79.6222 21.5625C79.4801 21.5199 79.267 21.4915 79.125 21.4915C78.7557 21.4915 78.6563 21.6619 78.6563 21.9176V22.1591H79.6506Z" fill="#24292E"/>
<defs>
<linearGradient id="paint0_linear_1834_45844" x1="0" y1="3.82312" x2="14.394" y2="3.82312" gradientUnits="userSpaceOnUse">
<stop stop-color="#F2CC0C"/>
<stop offset="1" stop-color="#FF9830"/>
</linearGradient>
<linearGradient id="paint1_linear_1834_45844" x1="33.606" y1="3.82312" x2="48" y2="3.82312" gradientUnits="userSpaceOnUse">
<stop stop-color="#F2CC0C"/>
<stop offset="1" stop-color="#FF9830"/>
</linearGradient>
<linearGradient id="paint2_linear_1834_45844" x1="16.8" y1="3.82312" x2="31.2" y2="3.82312" gradientUnits="userSpaceOnUse">
<stop stop-color="#F2CC0C"/>
<stop offset="1" stop-color="#FF9830"/>
</linearGradient>
<clipPath id="clip0_1834_45844">
<rect width="48" height="48" fill="white"/>
</clipPath>
</defs>
</svg>
