<svg width="96" height="48" viewBox="0 0 96 48" fill="none" xmlns="http://www.w3.org/2000/svg">
<path d="M0 1.04083V13H15V0H0.626828C0.460583 0 0.301147 0.109659 0.183594 0.304853C0.0660407 0.500047 0 0.764787 0 1.04083Z" fill="url(#paint0_linear_1248_126533)"/>
<path d="M15 17.5H0V30.5H15V17.5Z" fill="#84AFF1"/>
<path d="M15 35H0V48H15V35Z" fill="#84AFF1"/>
<path d="M6.84608 27C7.52244 27 7.9902 26.7377 8.25569 26.2415H8.29362V26.9178H9.74747V23.6182C9.74747 22.591 8.83407 22 7.59829 22C6.29298 22 5.55341 22.6574 5.43015 23.5424L6.85556 23.5929C6.92193 23.2832 7.17794 23.0936 7.58565 23.0936C7.96492 23.0936 8.20512 23.2769 8.20512 23.6024V23.6182C8.20512 23.9153 7.88274 23.9785 7.05468 24.0512C6.07174 24.1334 5.25 24.4968 5.25 25.5714C5.25 26.5322 5.91688 27 6.84608 27ZM7.32333 25.9886C6.96618 25.9886 6.71334 25.818 6.71334 25.4956C6.71334 25.1827 6.95986 24.993 7.39918 24.9267C7.68679 24.8856 8.04077 24.8224 8.2146 24.7307V25.1922C8.2146 25.6662 7.81637 25.9886 7.32333 25.9886Z" fill="#24292E"/>
<path d="M5 44.4362H6.56634V43.7145H6.61489C6.81553 44.1261 7.26214 44.5 8.01294 44.5C9.11327 44.5 10 43.729 10 42.213C10 40.642 9.06149 39.9261 8.02265 39.9261C7.23625 39.9261 6.80583 40.3377 6.61489 40.7464H6.58252V38.5H5V44.4362ZM6.55016 42.2101C6.55016 41.4826 6.88673 41.0333 7.46602 41.0333C8.05178 41.0333 8.3754 41.4942 8.3754 42.2101C8.3754 42.929 8.05178 43.3957 7.46602 43.3957C6.88673 43.3957 6.55016 42.9319 6.55016 42.2101Z" fill="#24292E"/>
<g clip-path="url(#clip0_1248_126533)">
<path d="M19 13H34V1.04083C34 0.764787 33.934 0.500047 33.8164 0.304853C33.6989 0.109659 33.5394 0 33.3732 0L19 0V13Z" fill="url(#paint1_linear_1248_126533)"/>
<path d="M34 17.5H19V30.5H34V17.5Z" fill="#84AFF1"/>
<path d="M34 35H19V48H34V35Z" fill="#84AFF1"/>
<path d="M27.5 21H26.0716L24.5 21.9199V23.1738L25.9253 22.3535H25.9627V27H27.5V21Z" fill="#24292E"/>
<path d="M24.3373 44.5H28.75V43.3468H26.3341V43.3092L27.0472 42.6561C28.3396 41.5376 28.6772 40.9682 28.6772 40.289C28.6772 39.2225 27.8011 38.5 26.4476 38.5C25.129 38.5 24.2471 39.2543 24.25 40.4595H25.6151C25.6151 39.9249 25.947 39.6156 26.4418 39.6156C26.9279 39.6156 27.2801 39.9133 27.2801 40.4017C27.2801 40.8439 27.0006 41.1445 26.5116 41.5809L24.3373 43.4711V44.5Z" fill="#24292E"/>
</g>
<path d="M47.9067 30C48.6011 30 53.9327 26 53.9327 24C53.9327 22 48.7357 18 47.9067 18C47.0778 18 46.4023 18.5 46.4023 19.4756C46.4023 20.4512 49.9067 22.9206 49.9067 22.9206C49.9067 22.9206 42.2539 22.25 42 22.9206C41.7461 23.5911 41.7461 24.4089 42 25.0794C42.2539 25.75 49.9067 25.0794 49.9067 25.0794C49.9067 25.0794 46.4023 27.75 46.4023 28.5301C46.4023 29.3103 47.2124 30 47.9067 30Z" fill="#24292E"/>
<path d="M62 9.79083V21.75H77V8.75H62.6268C62.4606 8.75 62.3011 8.85966 62.1836 9.05485C62.066 9.25005 62 9.51479 62 9.79083Z" fill="url(#paint2_linear_1248_126533)"/>
<path d="M77 26.25H62V39.25H77V26.25Z" fill="#84AFF1"/>
<path d="M70.5 29.75H69.0716L67.5 30.6699V31.9238L68.9253 31.1035H68.9627V35.75H70.5V29.75Z" fill="#24292E"/>
<path d="M68.7744 18.25C69.5264 18.25 70.0464 17.9877 70.3415 17.4915H70.3837V18.1678H72V14.8682C72 13.841 70.9845 13.25 69.6107 13.25C68.1595 13.25 67.3373 13.9074 67.2003 14.7924L68.785 14.8429C68.8587 14.5332 69.1434 14.3436 69.5966 14.3436C70.0183 14.3436 70.2853 14.5269 70.2853 14.8524V14.8682C70.2853 15.1653 69.9269 15.2285 69.0063 15.3012C67.9136 15.3834 67 15.7468 67 16.8214C67 17.7822 67.7414 18.25 68.7744 18.25ZM69.305 17.2386C68.9079 17.2386 68.6268 17.068 68.6268 16.7456C68.6268 16.4327 68.9009 16.243 69.3893 16.1767C69.7091 16.1356 70.1026 16.0724 70.2959 15.9807V16.4422C70.2959 16.9162 69.8531 17.2386 69.305 17.2386Z" fill="#24292E"/>
<g clip-path="url(#clip1_1248_126533)">
<path d="M81 21.75H96V9.79083C96 9.51479 95.934 9.25005 95.8164 9.05485C95.6989 8.85966 95.5394 8.75 95.3732 8.75H81V21.75Z" fill="url(#paint3_linear_1248_126533)"/>
<path d="M96 26.25H81V39.25H96V26.25Z" fill="#84AFF1"/>
<path d="M86.3373 35.75H90.75V34.5968H88.3341V34.5592L89.0472 33.9061C90.3396 32.7876 90.6772 32.2182 90.6772 31.539C90.6772 30.4725 89.8011 29.75 88.4476 29.75C87.129 29.75 86.2471 30.5043 86.25 31.7095H87.6151C87.6151 31.1749 87.947 30.8656 88.4418 30.8656C88.9279 30.8656 89.2801 31.1633 89.2801 31.6517C89.2801 32.0939 89.0006 32.3945 88.5116 32.8309L86.3373 34.7211V35.75Z" fill="#24292E"/>
<path d="M86 18.4362H87.5663V17.7145H87.6149C87.8155 18.1261 88.2621 18.5 89.0129 18.5C90.1133 18.5 91 17.729 91 16.213C91 14.642 90.0615 13.9261 89.0227 13.9261C88.2362 13.9261 87.8058 14.3377 87.6149 14.7464H87.5825V12.5H86V18.4362ZM87.5502 16.2101C87.5502 15.4826 87.8867 15.0333 88.466 15.0333C89.0518 15.0333 89.3754 15.4942 89.3754 16.2101C89.3754 16.929 89.0518 17.3957 88.466 17.3957C87.8867 17.3957 87.5502 16.9319 87.5502 16.2101Z" fill="#24292E"/>
</g>
<defs>
<linearGradient id="paint0_linear_1248_126533" x1="0" y1="6.5052" x2="15" y2="6.5052" gradientUnits="userSpaceOnUse">
<stop stop-color="#F2CC0C"/>
<stop offset="1" stop-color="#FF9830"/>
</linearGradient>
<linearGradient id="paint1_linear_1248_126533" x1="19" y1="6.5052" x2="34" y2="6.5052" gradientUnits="userSpaceOnUse">
<stop stop-color="#F2CC0C"/>
<stop offset="1" stop-color="#FF9830"/>
</linearGradient>
<linearGradient id="paint2_linear_1248_126533" x1="62" y1="15.2552" x2="77" y2="15.2552" gradientUnits="userSpaceOnUse">
<stop stop-color="#F2CC0C"/>
<stop offset="1" stop-color="#FF9830"/>
</linearGradient>
<linearGradient id="paint3_linear_1248_126533" x1="81" y1="15.2552" x2="96" y2="15.2552" gradientUnits="userSpaceOnUse">
<stop stop-color="#F2CC0C"/>
<stop offset="1" stop-color="#FF9830"/>
</linearGradient>
<clipPath id="clip0_1248_126533">
<rect width="15" height="48" fill="white" transform="translate(19)"/>
</clipPath>
<clipPath id="clip1_1248_126533">
<rect width="15" height="30.5" fill="white" transform="translate(81 8.75)"/>
</clipPath>
</defs>
</svg>
