<svg width="34" height="31" viewBox="0 0 34 31" fill="none" xmlns="http://www.w3.org/2000/svg">
<g filter="url(#filter0_i_204_76)">
<path d="M32.6123 27.8615C33.3787 27.8615 34 28.5641 34 29.4308C34 30.2974 33.3787 31 32.6123 31H16.1838C15.4173 31 14.796 30.2974 14.796 29.4308C14.796 28.5641 15.4173 27.8615 16.1838 27.8615H32.6123ZM0.406734 0.459619C0.948684 -0.153206 1.82715 -0.153206 2.3691 0.459619L13.6694 13.2378C14.488 14.1634 14.4816 15.6666 13.6549 16.5831L2.35961 29.1053C1.81232 29.7121 0.933354 29.7022 0.396796 29.0834C-0.13976 28.4645 -0.131063 27.4706 0.416221 26.8639L11.2115 14.8964L0.406734 2.67862C-0.135215 2.06579 -0.135215 1.07244 0.406734 0.459619Z" fill="#35D840"/>
</g>
<defs>
<filter id="filter0_i_204_76" x="0" y="0" width="34" height="33" filterUnits="userSpaceOnUse" color-interpolation-filters="sRGB">
<feFlood flood-opacity="0" result="BackgroundImageFix"/>
<feBlend mode="normal" in="SourceGraphic" in2="BackgroundImageFix" result="shape"/>
<feColorMatrix in="SourceAlpha" type="matrix" values="0 0 0 0 0 0 0 0 0 0 0 0 0 0 0 0 0 0 127 0" result="hardAlpha"/>
<feOffset dy="2"/>
<feGaussianBlur stdDeviation="2"/>
<feComposite in2="hardAlpha" operator="arithmetic" k2="-1" k3="1"/>
<feColorMatrix type="matrix" values="0 0 0 0 0 0 0 0 0 0 0 0 0 0 0 0 0 0 0.15 0"/>
<feBlend mode="normal" in2="shape" result="effect1_innerShadow_204_76"/>
</filter>
</defs>
</svg>
