<svg xmlns="http://www.w3.org/2000/svg" enable-background="new 0 0 24 24" viewBox="0 0 24 24"><path class="uim-tertiary" d="M16.358,10.57538c0.19678-1.33057-0.80493-2.0459-2.17468-2.52307l0.44433-1.80249l-1.0849-0.27344l-0.43255,1.755c-0.28522-0.0719-0.57813-0.13971-0.8692-0.2069l0.43567-1.76655L11.59241,5.4845l-0.44464,1.80188c-0.23609-0.05439-0.46784-0.10816-0.69275-0.16468l0.00122-0.00567l-1.4961-0.37781L8.67151,7.9101c0,0,0.80493,0.18658,0.788,0.19812c0.3137,0.04037,0.53799,0.32351,0.5055,0.63812l-1.21741,4.9378c-0.06361,0.20836-0.28408,0.32571-0.49244,0.2621c-0.00159-0.00048-0.00317-0.00098-0.00475-0.00148c0.0108,0.01593-0.78852-0.19909-0.78852-0.19909l-0.53857,1.25592l1.41174,0.356c0.26264,0.06653,0.52,0.13623,0.77344,0.20185l-0.449,1.82312l1.08362,0.27343l0.44464-1.80371c0.296,0.08124,0.58338,0.15625,0.86457,0.22687l-0.44312,1.79529l1.08484,0.27344l0.449-1.81971c1.84991,0.35407,3.241,0.21125,3.82653-1.48089c0.48088-0.95304,0.09812-2.11545-0.85492-2.59633c-0.04641-0.02342-0.09375-0.04496-0.1419-0.06456C15.74629,12.02545,16.31479,11.36429,16.358,10.57538z M13.87921,14.0907c-0.3352,1.36249-2.60351,0.62591-3.33893,0.44122l0.59577-2.41528C11.8714,12.30225,14.22961,12.66974,13.87921,14.0907z M14.21478,10.5557c-0.30591,1.23931-2.19378,0.60968-2.80621,0.45526l0.5401-2.19056c0.61243,0.15439,2.58472,0.44254,2.26611,1.73533L14.21478,10.5557z"/><path class="uim-primary" d="M11.94867 8.82037l-.5401 2.19061c.61243.15442 2.50031.784 2.80621-.45526C14.53339 9.26294 12.5611 8.97479 11.94867 8.82037zM11.13605 12.11664l-.59576 2.41528c.73541.18469 3.00372.92126 3.33893-.44122C14.22961 12.66974 11.8714 12.30225 11.13605 12.11664z"/><path class="uim-primary" d="M12,2C6.47717,2,2,6.47717,2,12s4.47717,10,10,10s10-4.47717,10-10S17.52283,2,12,2z M16.35797,10.57538c-0.04315,0.78894-0.61169,1.45007-1.38519,1.61102c0.04816,0.01959,0.09546,0.04114,0.14191,0.06458c0.953,0.48083,1.33575,1.64325,0.85492,2.59631c-0.58557,1.69214-1.97662,1.83496-3.82654,1.4809l-0.44904,1.8197l-1.08484-0.27344l0.44312-1.79529c-0.28119-0.07062-0.56854-0.14563-0.86456-0.22687L9.7431,17.65601l-1.08362-0.27344l0.44904-1.82312c-0.25348-0.06561-0.5108-0.13531-0.77344-0.20184l-1.41174-0.35602l0.53857-1.25592c0,0,0.79932,0.21503,0.78851,0.1991c0.00159,0.00049,0.00317,0.00098,0.0047,0.00146c0.20837,0.0636,0.42889-0.05371,0.49249-0.26208l1.21741-4.93781C9.9975,8.4317,9.77319,8.14862,9.45953,8.10822C9.47644,8.09668,8.67151,7.9101,8.67151,7.9101l0.28864-1.17188l1.49609,0.37781L10.45502,7.1217c0.22491,0.05652,0.45667,0.11029,0.69275,0.16467l0.44464-1.80188l1.08429,0.27344l-0.43567,1.76654c0.29102,0.0672,0.58392,0.13501,0.8692,0.20691l0.4325-1.755l1.0849,0.27344l-0.44427,1.80249C15.5531,8.52948,16.55481,9.24481,16.35797,10.57538z"/></svg>