<svg xmlns="http://www.w3.org/2000/svg" viewBox="0 0 24 24"><path class="uim-primary" d="M20,11H11.41406l2.293-2.293A.99989.99989,0,0,0,12.293,7.293l-4,4a.99962.99962,0,0,0,0,1.41406l4,4A.99989.99989,0,0,0,13.707,15.293L11.41406,13H20Z"/><path class="uim-tertiary" d="M11.41406,11H20V5a3.00328,3.00328,0,0,0-3-3H7A3.00328,3.00328,0,0,0,4,5V19a3.00328,3.00328,0,0,0,3,3H17a3.00328,3.00328,0,0,0,3-3V13H11.41406l2.293,2.293A.99989.99989,0,1,1,12.293,16.707l-4-4a.99962.99962,0,0,1,0-1.41406l4-4A.99989.99989,0,0,1,13.707,8.707Z"/></svg>