<svg xmlns="http://www.w3.org/2000/svg" viewBox="0 0 24 24"><path class="uim-tertiary" d="M15.728,22H8.272a1.00014,1.00014,0,0,1-.707-.293l-5.272-5.272A1.00014,1.00014,0,0,1,2,15.728V8.272a1.00014,1.00014,0,0,1,.293-.707l5.272-5.272A1.00014,1.00014,0,0,1,8.272,2H15.728a1.00014,1.00014,0,0,1,.707.293l5.272,5.272A1.00014,1.00014,0,0,1,22,8.272V15.728a1.00014,1.00014,0,0,1-.293.707l-5.272,5.272A1.00014,1.00014,0,0,1,15.728,22Z"/><circle cx="12" cy="16" r="1" class="uim-primary"/><path class="uim-primary" d="M12,13a1,1,0,0,1-1-1V8a1,1,0,0,1,2,0v4A1,1,0,0,1,12,13Z"/></svg>