<svg xmlns="http://www.w3.org/2000/svg" viewBox="0 0 24 24"><path class="uim-quaternary" d="M12,22a.99974.99974,0,0,1-1-1V3a1,1,0,0,1,2,0V21A.99974.99974,0,0,1,12,22Z"/><polygon class="uim-primary" points="21 12 16 7 16 17 21 12"/><path class="uim-primary" d="M16,18a1,1,0,0,1-1-1V7a.99991.99991,0,0,1,1.707-.707l5,5a.99962.99962,0,0,1,0,1.41406l-5,5A.99893.99893,0,0,1,16,18Zm1-8.58594v5.17188L19.58594,12Z"/><path class="uim-tertiary" d="M3 13a.99075.99075 0 0 1-.92041-1.37988A1.14883 1.14883 0 0 1 2.29 11.29a1.04669 1.04669 0 0 1 1.41992 0 1.03724 1.03724 0 0 1 .21.33008A.83792.83792 0 0 1 4 12a.99042.99042 0 0 1-1 1zM4.79 15.21a1.00761 1.00761 0 0 1 0-1.41992h0a1.00671 1.00671 0 0 1 1.41992 0h0a1.0085 1.0085 0 0 1 0 1.41992h0a1.02749 1.02749 0 0 1-.71.29h0A1.02577 1.02577 0 0 1 4.79 15.21zM8 18a.99183.99183 0 0 1-.71-.29 1.16213 1.16213 0 0 1-.21045-.33008A.99906.99906 0 0 1 7 17a1.05 1.05 0 0 1 .29-.71 1.0387 1.0387 0 0 1 1.08984-.21 1.15384 1.15384 0 0 1 .33008.21A1.05232 1.05232 0 0 1 9 17a.9994.9994 0 0 1-.08008.37988 1.17124 1.17124 0 0 1-.21.33008A.99183.99183 0 0 1 8 18zM7 13.66992a.996.996 0 0 1 1-1H8a.99632.99632 0 0 1 1 1H9a1.00319 1.00319 0 0 1-1 1H8A1.00288 1.00288 0 0 1 7 13.66992zm0-3.33984a1.00288 1.00288 0 0 1 1-1H8a1.00319 1.00319 0 0 1 1 1H9a.99693.99693 0 0 1-1 1H8A.99663.99663 0 0 1 7 10.33008zM8 8a.99075.99075 0 0 1-.92041-1.37988A1.03011 1.03011 0 0 1 7.29 6.29a.98544.98544 0 0 1 1.62988.33008A.99013.99013 0 0 1 8 8zM4.79 10.21A1.00761 1.00761 0 0 1 4.79 8.79h0A1.00671 1.00671 0 0 1 6.21 8.79h0a1.0085 1.0085 0 0 1 0 1.41992h0a1.02749 1.02749 0 0 1-.71.29h0A1.02577 1.02577 0 0 1 4.79 10.21z"/></svg>