<svg xmlns="http://www.w3.org/2000/svg" viewBox="0 0 24 24"><path class="uim-tertiary" d="M20 11a.99018.99018 0 0 1-.71-.29 1.16044 1.16044 0 0 1-.21-.33008.94107.94107 0 0 1 0-.75976A1.02883 1.02883 0 0 1 19.29 9.29a1.04667 1.04667 0 0 1 1.41992 0 1.14718 1.14718 0 0 1 .21.33008.94107.94107 0 0 1 0 .75976 1.16044 1.16044 0 0 1-.21.33008A.99349.99349 0 0 1 20 11zM19 6.5a1.0032 1.0032 0 0 1 1-1h0a1.0032 1.0032 0 0 1 1 1h0a1.0032 1.0032 0 0 1-1 1h0A1.0032 1.0032 0 0 1 19 6.5zM20 4a.98979.98979 0 0 1-.91992-1.37988A1.02883 1.02883 0 0 1 19.29 2.29a1.04669 1.04669 0 0 1 1.41992 0 1.02883 1.02883 0 0 1 .21.33008A.98919.98919 0 0 1 20.71 3.71a1.16044 1.16044 0 0 1-.33008.21A.9994.9994 0 0 1 20 4zM7.03027 6.24023a.99364.99364 0 0 1 .7295-1.21h0a.9907.9907 0 0 1 1.21.7295h0a.99891.99891 0 0 1-.7295 1.21h0A.96451.96451 0 0 1 8 7H8A.99122.99122 0 0 1 7.03027 6.24023zm4-1a.99364.99364 0 0 1 .7295-1.21h0a.9907.9907 0 0 1 1.21.7295h0a.99891.99891 0 0 1-.7295 1.21h0A.96451.96451 0 0 1 12 6h0A1.00294 1.00294 0 0 1 11.03027 5.24023zm4-1a.99816.99816 0 0 1 .7295-1.21h0a1.00272 1.00272 0 0 1 1.21.7295h0a.99891.99891 0 0 1-.7295 1.21h0A.96451.96451 0 0 1 16 5h0A.99122.99122 0 0 1 15.03027 4.24023zM4 8A.99042.99042 0 0 1 3 7a.83154.83154 0 0 1 .08008-.37988A1.02883 1.02883 0 0 1 3.29 6.29 1.04669 1.04669 0 0 1 4.71 6.29a1.02883 1.02883 0 0 1 .21.33008A.99013.99013 0 0 1 4 8zM4 11a.99018.99018 0 0 1-.71-.29 1.16044 1.16044 0 0 1-.21-.33008.94107.94107 0 0 1 0-.75976A1.14718 1.14718 0 0 1 3.29 9.29 1.04667 1.04667 0 0 1 4.71 9.29a1.14718 1.14718 0 0 1 .21.33008.94107.94107 0 0 1 0 .75976 1.16044 1.16044 0 0 1-.21.33008A.99349.99349 0 0 1 4 11zM15 10a1.0032 1.0032 0 0 1 1-1h0a1.0032 1.0032 0 0 1 1 1h0a1.0032 1.0032 0 0 1-1 1h0A1.0032 1.0032 0 0 1 15 10zm-4 0a1.0032 1.0032 0 0 1 1-1h0a1.0032 1.0032 0 0 1 1 1h0a1.0032 1.0032 0 0 1-1 1h0A1.0032 1.0032 0 0 1 11 10zM7 10A1.0032 1.0032 0 0 1 8 9H8a1.0032 1.0032 0 0 1 1 1H9a1.0032 1.0032 0 0 1-1 1H8A1.0032 1.0032 0 0 1 7 10z"/><polygon class="uim-primary" points="20 14 20 21 4 17 4 14 20 14"/><path class="uim-primary" d="M20,22a.97427.97427,0,0,1-.24219-.03027l-16-4A.99961.99961,0,0,1,3,17V14a.99943.99943,0,0,1,1-1H20a.99943.99943,0,0,1,1,1v7a1.0005,1.0005,0,0,1-1,1ZM5,16.21875l14,3.5V15H5Z"/></svg>