<svg xmlns="http://www.w3.org/2000/svg" viewBox="0 0 24 24"><path class="uim-tertiary" d="M10 21a.99018.99018 0 0 1-.71-.29 1.16044 1.16044 0 0 1-.21-.33008A.83154.83154 0 0 1 9 20a1 1 0 1 1 2 0 .99042.99042 0 0 1-1 1zM5.5 20a1.0032 1.0032 0 0 1 1-1h0a1.0032 1.0032 0 0 1 1 1h0a1.0032 1.0032 0 0 1-1 1h0A1.0032 1.0032 0 0 1 5.5 20zM3 21a.99018.99018 0 0 1-.71-.29 1.16044 1.16044 0 0 1-.21-.33008A.9994.9994 0 0 1 2 20a1.04778 1.04778 0 0 1 .29-.71 1.04667 1.04667 0 0 1 1.41992 0A1.05232 1.05232 0 0 1 4 20a.9994.9994 0 0 1-.08008.37988 1.16044 1.16044 0 0 1-.21.33008A.99349.99349 0 0 1 3 21zM3.75977 16.96973a.99816.99816 0 0 1-.7295-1.21h0a.99364.99364 0 0 1 1.21-.7295h0a.99891.99891 0 0 1 .7295 1.21h0A.992.992 0 0 1 4 17H4A.96451.96451 0 0 1 3.75977 16.96973zm.99023-4a.99212.99212 0 0 1-.71973-1.21h0a.99816.99816 0 0 1 1.21-.7295h0a.99891.99891 0 0 1 .7295 1.21h0A1.00024 1.00024 0 0 1 5 13H5A1.10439 1.10439 0 0 1 4.75 12.96973zm1.00977-4a.99816.99816 0 0 1-.7295-1.21h0a.99364.99364 0 0 1 1.21-.7295h0a.99891.99891 0 0 1 .7295 1.21h0A.992.992 0 0 1 6 9H6A.96451.96451 0 0 1 5.75977 8.96973zM7 5A.99042.99042 0 0 1 6 4a1.04778 1.04778 0 0 1 .29-.71 1.03423 1.03423 0 0 1 1.41016 0A1.01842 1.01842 0 0 1 8 4 1.00694 1.00694 0 0 1 7 5zM10 5A.99042.99042 0 0 1 9 4a1.04778 1.04778 0 0 1 .29-.71 1.04669 1.04669 0 0 1 1.41992 0A1.05232 1.05232 0 0 1 11 4a.99042.99042 0 0 1-1 1zM9 16a1.0032 1.0032 0 0 1 1-1h0a1.0032 1.0032 0 0 1 1 1h0a1.0032 1.0032 0 0 1-1 1h0A1.0032 1.0032 0 0 1 9 16zm0-4a1.0032 1.0032 0 0 1 1-1h0a1.0032 1.0032 0 0 1 1 1h0a1.0032 1.0032 0 0 1-1 1h0A1.0032 1.0032 0 0 1 9 12zM9 8a1.0032 1.0032 0 0 1 1-1h0a1.0032 1.0032 0 0 1 1 1h0a1.0032 1.0032 0 0 1-1 1h0A1.0032 1.0032 0 0 1 9 8z"/><polygon class="uim-primary" points="14 20 21 20 17 4 14 4 14 20"/><path class="uim-primary" d="M21,21H14a.99943.99943,0,0,1-1-1V4a.99943.99943,0,0,1,1-1h3a.99962.99962,0,0,1,.96973.75781l4,16A.9997.9997,0,0,1,21,21Zm-6-2h4.71875l-3.5-14H15Z"/></svg>