<svg xmlns="http://www.w3.org/2000/svg" data-name="Layer 1" viewBox="0 0 24 24"><path class="uim-primary" d="M21.93927,12.86544,20.87433,9.58565l.00112.00448-.0013-.00513-.00006-.0003V9.58458L18.76,3.076a.83312.83312,0,0,0-.79867-.57014.82177.82177,0,0,0-.78851.57516l-2.00669,6.1779H8.83437L6.8239,3.08057a.82163.82163,0,0,0-.7884-.5748H6.03108a.83858.83858,0,0,0-.796.57539L3.12683,9.58394l-.00029.00082v.00018l-.0013.005.00112-.00449-1.06884,3.28a1.19526,1.19526,0,0,0,.43427,1.33919l9.229,6.70557.00425.0026.0118.00837-.011-.0079,0-.00006.00194.00118.0016.00094.00023.00018a.47521.47521,0,0,0,.04443.02732l.00614.00377.00012.00006.00377.00213.003.00124.00218.00088.00531.00224.02472.01033.02313.00967.001.00042.00383.00159.0049.00177.002.00047.00637.00154.00248.00059c.01109.00336.02259.00578.034.00832l.01334.00324.00194.00047.00437.00106.00726.00154.0059.00047.001.00006H11.931A.46518.46518,0,0,0,11.99733,21h.00077a.46675.46675,0,0,0,.06644-.00531h.00023l.00107-.00006.006-.00047.00731-.00154.00431-.00106.00189-.00047.01363-.0033c.01127-.00248.0226-.0049.03363-.00821l.0023-.00053.00661-.00159.002-.00047.005-.00183.00378-.0016.001-.00041.02449-.01021.02283-.00955.00555-.0023.00224-.00095.00307-.0013.00395-.00218.00006-.00006.00631-.00389a.47764.47764,0,0,0,.04419-.02714l.0036-.00219.00095-.00059.0043-.00265,9.23042-6.70569A1.19514,1.19514,0,0,0,21.93927,12.86544ZM17.96719,3.68571,19.7774,9.25889H16.157Zm1.49319,6.51557-.73866.94647-5.448,6.98046,2.57707-7.92693ZM11.54968,20.6746h0l.00171.00419Zm-.82651-2.54592L4.5399,10.20128H8.1497ZM6.02978,3.68565,7.84335,9.25889H4.22293ZM3.04594,13.44237a.25485.25485,0,0,1-.09222-.28545l.79453-2.4383,5.82182,7.464Zm8.65862,7.45538-.00537-.0046-.00112-.001-.01044-.009-.01965-.01806.00165.00136.00219.00183a.47835.47835,0,0,0,.0426.03628l.00047.00042.002.00177Zm.29354-1.89382-1.51431-4.66471L9.14053,10.20128h5.71933Zm.30995,1.87919-.01056.00908-.00124.00112-.00531.00455-.01222.009.00207-.00172.00035-.00035a.45994.45994,0,0,0,.04243-.03617l.00171-.00141.00212-.00183Zm8.643-7.44092L14.4279,18.18114l5.82377-7.46193.79135,2.43724A.255.255,0,0,1,20.95109,13.4422Z" data-name="logo art"/></svg>