<svg xmlns="http://www.w3.org/2000/svg" viewBox="0 0 24 24"><path class="uim-tertiary" d="M12,23a1.00092,1.00092,0,0,1-1-1V20.52344a9.84232,9.84232,0,1,1,10.70508-8.52735A12.53133,12.53133,0,0,1,12.23926,22.9707.99665.99665,0,0,1,12,23Z"/><path class="uim-primary" d="M9,11.68878H9a2,2,0,0,1-2-2H7a2,2,0,0,1,2-2H9a2,2,0,0,1,2,2h0A2,2,0,0,1,9,11.68878Z"/><path class="uim-primary" d="M8.51465 14.68848a1 1 0 0 1 0-2 .501.501 0 0 0 .5-.5v-2.5a1 1 0 0 1 2 0v2.5A2.50232 2.50232 0 0 1 8.51465 14.68848zM15 11.68878h0a2 2 0 0 1-2-2h0a2 2 0 0 1 2-2h0a2 2 0 0 1 2 2h0A2 2 0 0 1 15 11.68878z"/><path class="uim-primary" d="M14.51465,14.68848a1,1,0,0,1,0-2,.501.501,0,0,0,.5-.5v-2.5a1,1,0,0,1,2,0v2.5A2.50232,2.50232,0,0,1,14.51465,14.68848Z"/></svg>