<svg xmlns="http://www.w3.org/2000/svg" data-name="Layer 1" viewBox="0 0 24 24"><path class="uim-quaternary" d="M17.54394,19.98523a.19245.19245,0,0,1,.048.11575c0,.05792-.05486.09766-.124.09766a7.539,7.539,0,0,1-2.85707-1.51717.5382.5382,0,0,0-.48788-.08,9.97923,9.97923,0,0,1-2.12262.227c-4.597,0-8.32376-3.07675-8.32376-6.87329,0-3.79466,3.72678-6.87094,8.32376-6.87094,4.59651,0,8.32306,3.07628,8.32306,6.87094a6.566,6.566,0,0,1-3.374,5.52619.54616.54616,0,0,0-.28254.43787,4.66712,4.66712,0,0,0,.877,2.066Z"/><path class="uim-primary" d="M17.46157,13.86872a.39923.39923,0,0,0-.39822-.39751.3916.3916,0,0,0-.26373.10079,7.32068,7.32068,0,0,1-4.79543,1.71115h-.00838A7.62253,7.62253,0,0,1,7.2003,13.57223a.49736.49736,0,0,0-.272-.093.40506.40506,0,0,0-.38976.44023.93193.93193,0,0,0,.22713.48051,6.44474,6.44474,0,0,0,5.21261,2.40759h.04342a6.445,6.445,0,0,0,5.21253-2.40759,1.09023,1.09023,0,0,0,.22729-.53122"/><path class="uim-primary" d="M17.54394,19.98523a.19245.19245,0,0,1,.048.11575c0,.05792-.05486.09766-.124.09766a7.539,7.539,0,0,1-2.85707-1.51717.5382.5382,0,0,0-.48788-.08,9.97923,9.97923,0,0,1-2.12262.227c-4.597,0-8.32376-3.07675-8.32376-6.87329,0-3.79466,3.72678-6.87094,8.32376-6.87094,4.59651,0,8.32306,3.07628,8.32306,6.87094a6.566,6.566,0,0,1-3.374,5.52619.54616.54616,0,0,0-.28254.43787,4.66712,4.66712,0,0,0,.877,2.066Zm2.67625.83868a3.67217,3.67217,0,0,1-1.68387-2.01516.369.369,0,0,1,.13417-.43945A8.14387,8.14387,0,0,0,22,11.941c0-4.76462-4.47714-8.627-9.99957-8.627C6.47738,3.3141,2,7.1764,2,11.94094c0,4.76682,4.47738,8.6299,10.00043,8.6299a11.56679,11.56679,0,0,0,2.10342-.19139.565.565,0,0,1,.41264.07642A10.75753,10.75753,0,0,0,19.71037,22a.70326.70326,0,0,0,.79715-.69769.54026.54026,0,0,0-.28733-.4784Z"/></svg>