<svg xmlns="http://www.w3.org/2000/svg" viewBox="0 0 24 24"><path class="uim-tertiary" d="M11.99023,22a1.00125,1.00125,0,0,1-.26855-.03711L5.249,20.1582a1.00024,1.00024,0,0,1-.72754-.874L3.0791,3.08887A.99964.99964,0,0,1,4.0752,2H19.9248a.99964.99964,0,0,1,.9961,1.08887L19.47754,19.27734a.999.999,0,0,1-.72754.874l-6.49121,1.81152A1.00132,1.00132,0,0,1,11.99023,22Z"/><path class="uim-primary" d="M16.77734,6.3252A.99981.99981,0,0,0,16.04,6H7.96a1,1,0,1,0,0,2h6.98731l-.17749,2H10a1,1,0,0,0,0,2h4.59229l-.26417,2.97656L12,15.50488l-2.32812-.52929-.09571-1.06446a1.00005,1.00005,0,0,0-1.99219.17774l.16016,1.79a1.00141,1.00141,0,0,0,.77441.88671l3.25977.74024a1.0188,1.0188,0,0,0,.44336,0l3.25977-.74024a1.00126,1.00126,0,0,0,.77441-.88671l.78027-8.79A1.001,1.001,0,0,0,16.77734,6.3252Z"/></svg>