<svg xmlns="http://www.w3.org/2000/svg" enable-background="new 0 0 24 24" viewBox="0 0 24 24"><path class="uim-tertiary" d="M20.93633,7.56378C20.9285,6.86754,20.80075,6.17785,20.55868,5.525c-0.17592-0.47693-0.45653-0.90836-0.82117-1.26255c-0.35413-0.36469-0.78556-0.64529-1.26251-0.82113c-0.65302-0.24142-1.34258-0.36915-2.03874-0.37765C15.278,3.01176,14.93137,3,11.99973,3C9.06918,3,8.72146,3.01071,7.56378,3.06367C6.86754,3.0715,6.17785,3.19925,5.525,3.44132C5.04789,3.6169,4.61639,3.89755,4.26245,4.26249C3.89838,4.61735,3.61788,5.0488,3.44128,5.52554C3.1999,6.17858,3.07217,6.86815,3.06363,7.56432C3.01176,8.7225,3,9.06918,3,12.00077s0.01071,3.27881,0.06422,4.436c0.00784,0.69624,0.13559,1.38593,0.37765,2.03879c0.17551,0.47694,0.45616,0.90823,0.82113,1.26189c0.35439,0.3644,0.78576,0.64497,1.26255,0.82117c0.65282,0.24212,1.3425,0.36989,2.03873,0.37771C8.72146,20.98984,9.06918,21,11.99973,21c2.93164,0,3.27936-0.01071,4.43649-0.06367c0.69624-0.00782,1.38591-0.13559,2.03874-0.37771c0.95745-0.36916,1.71428-1.12577,2.08372-2.08311c0.2415-0.65301,0.36924-1.3426,0.37765-2.03879C20.98933,15.27854,21,14.93082,21,12.00027C21,9.06863,20.98929,8.722,20.93633,7.56378z"/><path class="uim-primary" d="M17.79315,7.6178c-0.24975-0.64829-0.76212-1.16065-1.4104-1.4104c-0.442-0.16326-0.90867-0.24971-1.37982-0.25562c-0.78381-0.03564-1.01935-0.04333-3.00262-0.04333s-2.21857,0.0072-3.00177,0.04321c-0.4712,0.00529-0.93795,0.09176-1.37977,0.25562c-0.64831,0.24973-1.1607,0.7621-1.41046,1.4104c-0.16319,0.442-0.24962,0.90864-0.25555,1.37976c-0.03546,0.78387-0.04321,1.01849-0.04321,3.00268s0.0072,2.21942,0.04321,3.00263c0.00531,0.4712,0.09175,0.93797,0.25555,1.37982c0.2501,0.64794,0.7624,1.16,1.41046,1.40979c0.44186,0.16372,0.90859,0.25018,1.37977,0.25561v0.00013c0.78295,0.036,1.01757,0.04321,3.00177,0.04321s2.21942-0.0072,3.00262-0.04321c0.47121-0.00535,0.93797-0.09182,1.37982-0.25562c0.64804-0.24981,1.16031-0.76186,1.4104-1.40979c0.16342-0.44196,0.24988-0.90865,0.25562-1.37982c0.036-0.78388,0.04321-1.01843,0.04321-3.00263s-0.0072-2.21881-0.04321-3.00268C18.04342,8.52637,17.95695,8.05963,17.79315,7.6178z M12.00031,15.81525c-2.10705,0.00006-3.8152-1.708-3.81525-3.81505c0-0.00007,0-0.00013,0-0.0002h0.00006c0.00002-2.10709,1.70816-3.81521,3.81525-3.81519c2.10709,0.00002,3.81521,1.70816,3.81519,3.81525C15.81554,14.10715,14.1074,15.81527,12.00031,15.81525z M15.96631,8.92542c-0.49242-0.00181-0.89014-0.40246-0.88833-0.89488c0.0018-0.49,0.39869-0.88673,0.88869-0.88833H15.967c0.49242-0.00146,0.89279,0.39653,0.89426,0.88895c0.00146,0.49242-0.39653,0.89279-0.88895,0.89426c-0.00201,0.00001-0.00402,0-0.00603,0H15.96631z"/><path class="uim-primary" d="M12.00031,9.52307c-1.36795-0.00002-2.47692,1.10891-2.47694,2.47686s1.10891,2.47692,2.47686,2.47694s2.47692-1.10891,2.47694-2.47686c0,0,0-0.00001,0-0.00001c0.00017-1.3678-1.10853-2.47676-2.47633-2.47693C12.00066,9.52307,12.00049,9.52307,12.00031,9.52307z"/><path class="uim-primary" d="M21.92926,7.07086c-0.00871-0.77359-0.15066-1.53989-0.41962-2.26526c-0.19547-0.52993-0.50725-1.00929-0.91241-1.40283c-0.39348-0.40523-0.87286-0.71702-1.40283-0.91241c-0.72557-0.26825-1.49175-0.41017-2.26526-0.41962C15.64221,2.01306,15.25708,2,11.99969,2C8.74353,2,8.35718,2.0119,7.07086,2.07074C6.29727,2.07945,5.53097,2.2214,4.8056,2.49036C4.27548,2.68544,3.79604,2.99728,3.40277,3.40277C2.99825,3.79705,2.68658,4.27644,2.49036,4.80615c-0.26822,0.7256-0.41014,1.49179-0.41962,2.26532C2.01306,8.35834,2,8.74353,2,12.00085s0.0119,3.64313,0.07135,4.92884c0.00873,0.7736,0.15069,1.53992,0.41965,2.26531c0.19502,0.52995,0.50687,1.0092,0.91241,1.40216c0.39377,0.40488,0.87306,0.71662,1.40283,0.91241c0.72536,0.26902,1.49167,0.41099,2.26526,0.41968C8.35718,21.98871,8.74353,22,11.99969,22c3.25739,0,3.64374-0.0119,4.92945-0.07074c0.77359-0.00868,1.5399-0.15066,2.26526-0.41968c1.06383-0.41018,1.90476-1.25086,2.31524-2.31458c0.26835-0.72556,0.41028-1.49178,0.41962-2.26532C21.9881,15.64282,22,15.25647,22,12.00031C22,8.74292,21.9881,8.35779,21.92926,7.07086z M19.38538,15.06323c-0.0119,0.6164-0.1286,1.22628-0.3451,1.80353c-0.386,0.99815-1.17506,1.78723-2.17321,2.17324c-0.57731,0.21621-1.18712,0.33289-1.80347,0.34509c-0.79224,0.03662-1.04553,0.045-3.06329,0.045s-2.27063-0.009-3.0633-0.045C8.32067,19.37282,7.71087,19.25614,7.13354,19.04c-0.99818-0.38596-1.78725-1.17504-2.17321-2.17322c-0.21621-0.57733-0.3329-1.18716-0.3451-1.80353c-0.03662-0.79217-0.045-1.04547-0.045-3.06323s0.00842-2.27106,0.045-3.06329c0.01221-0.61635,0.12889-1.22616,0.3451-1.80347C5.34623,6.13504,6.13532,5.34592,7.13354,4.96C7.71085,4.74378,8.32065,4.62708,8.937,4.61487h0.00031c0.79266-0.03656,1.04638-0.045,3.06384-0.045s2.27069,0.00878,3.063,0.045c0.61639,0.01206,1.22624,0.12877,1.80353,0.34513c0.99786,0.38624,1.78665,1.17525,2.1726,2.17322c0.21625,0.5773,0.33294,1.18712,0.3451,1.80347c0.036,0.79223,0.04443,1.04553,0.04443,3.06329S19.42139,14.27045,19.38538,15.06323z"/></svg>