<svg xmlns="http://www.w3.org/2000/svg" enable-background="new 0 0 24 24" viewBox="0 0 24 24"><path class="uim-tertiary" d="M19.33336,12.99594c-0.00401,0.3682-0.30575,0.66343-0.67395,0.65941C18.29688,13.6514,18.00395,13.35847,18,12.99594V7c0.00401-0.3682,0.30575-0.66343,0.67395-0.65941C19.03648,6.34454,19.32941,6.63747,19.33336,7V12.99594z M19.1007,17.16883c-2.05712,1.49713-4.55834,2.25818-7.1007,2.16054c-2.54233,0.09763-5.0435-0.66345-7.10055-2.16062c-0.27992-0.23921-0.31292-0.66004-0.07371-0.93996s0.66004-0.31292,0.93996-0.07371c1.82274,1.27506,4.01139,1.92132,6.23438,1.84086c2.22344,0.09006,4.41441-0.55657,6.23265-1.83946c0.27955-0.23969,0.70048-0.20738,0.94017,0.07218c0.23969,0.27955,0.20738,0.70048-0.07217,0.94017H19.1007z M4.66664,7c0.00403-0.3682,0.30577-0.66342,0.67397-0.65939C5.70313,6.34458,5.99604,6.63749,6,7v5.99594c-0.00404,0.3682-0.3058,0.66341-0.67399,0.65937c-0.3625-0.00398-0.65539-0.29687-0.65937-0.65937C4.66664,12.99594,4.66664,7,4.66664,7z M8.00008,5.66664c0.00571-0.36818,0.3088-0.66201,0.67698-0.6563c0.36013,0.00559,0.65071,0.29617,0.6563,0.6563V14.573c-0.00571,0.36817-0.3088,0.66201-0.67698,0.6563c-0.36013-0.00558-0.65071-0.29618-0.6563-0.6563V5.66664z M11.33336,5.3293c-0.00005-0.36813,0.29834-0.66659,0.66646-0.66664c0.00001,0,0.00001,0,0.00002,0H12c0.36813-0.00009,0.66663,0.29827,0.66672,0.6664v0v9.66688c-0.00404,0.3682-0.3058,0.66341-0.67399,0.65937c-0.3625-0.00398-0.65539-0.29687-0.65937-0.65937C11.33336,14.99594,11.33336,5.3293,11.33336,5.3293z M14.66672,5.66664c0.00571-0.36818,0.3088-0.66201,0.67698-0.6563C15.70382,5.01592,15.99441,5.30651,16,5.66664V14.573c-0.00571,0.36817-0.3088,0.66201-0.67698,0.6563c-0.36013-0.00558-0.65071-0.29618-0.6563-0.6563V5.66664z"/><path class="uim-primary" d="M19.5,2h-15C3.11926,2,2,3.11926,2,4.5v15C2,20.88074,3.11926,22,4.5,22h15c1.38074,0,2.5-1.11926,2.5-2.5v-15C22,3.11926,20.88074,2,19.5,2z M14.66675,5.66663c0.00568-0.36816,0.30878-0.66199,0.67694-0.65631C15.7038,5.01593,15.99438,5.30652,16,5.66663V14.573c-0.00574,0.36816-0.30878,0.66199-0.677,0.65631c-0.36011-0.00562-0.6507-0.2962-0.65625-0.65631V5.66663z M11.33337,5.32928c-0.00006-0.3681,0.29834-0.66656,0.66644-0.66663H12c0.3681-0.00006,0.66663,0.29828,0.66675,0.66638v9.66687c-0.00409,0.36823-0.30585,0.66345-0.67401,0.65942c-0.36249-0.00403-0.6554-0.29688-0.65936-0.65942V5.32928z M8.00006,5.66663c0.00574-0.36816,0.30884-0.66199,0.677-0.65631c0.36011,0.00562,0.6507,0.2962,0.65631,0.65631V14.573c-0.00574,0.36816-0.30884,0.66199-0.677,0.65631c-0.36011-0.00562-0.6507-0.2962-0.65631-0.65631V5.66663z M4.66663,7c0.00403-0.36823,0.30579-0.66339,0.67401-0.65936C5.70312,6.3446,5.99603,6.63751,6,7v5.99591c-0.00403,0.36823-0.30579,0.66345-0.67401,0.65942c-0.36249-0.00403-0.6554-0.29688-0.65936-0.65942V7z M19.10071,17.16882C17.04358,18.66595,14.54236,19.427,12,19.32935c-2.5423,0.09766-5.04352-0.66345-7.10052-2.16058c-0.27997-0.2392-0.31293-0.66003-0.07373-0.94c0.2392-0.27991,0.66003-0.31287,0.93994-0.07367c1.82275,1.27502,4.01141,1.92133,6.23438,1.84082c2.22345,0.09009,4.41443-0.55652,6.23267-1.83942c0.27954-0.23969,0.7005-0.2074,0.94019,0.07214S19.38031,16.92914,19.10071,17.16882z M19.33337,12.99591c-0.00403,0.36823-0.30579,0.66345-0.67395,0.65942C18.29688,13.65137,18.00397,13.35846,18,12.99591V7c0.00403-0.36823,0.30573-0.66345,0.67395-0.65942C19.0365,6.34454,19.32941,6.63745,19.33337,7V12.99591z"/></svg>