<svg xmlns="http://www.w3.org/2000/svg" enable-background="new 0 0 24 24" viewBox="0 0 24 24"><path class="uim-quaternary" d="M12,14.19531c-0.17551-0.00004-0.34793-0.04618-0.5-0.13379l-9-5.19726C2.02161,8.58794,1.85779,7.97612,2.13411,7.49773C2.22187,7.34579,2.34806,7.2196,2.5,7.13184l9-5.19336c0.30964-0.17774,0.69036-0.17774,1,0l9,5.19336c0.4784,0.27632,0.64221,0.88814,0.36589,1.36653C21.77813,8.65031,21.65194,8.7765,21.5,8.86426l-9,5.19726C12.34793,14.14913,12.17551,14.19527,12,14.19531z"/><path class="uim-tertiary" d="M21.5,11.13184l-1.96411-1.13337L12.5,14.06152c-0.30947,0.17839-0.69053,0.17839-1,0L4.46411,9.99847L2.5,11.13184c-0.47839,0.27632-0.64221,0.88814-0.36589,1.36653C2.22187,12.65031,2.34806,12.7765,2.5,12.86426l9,5.19726c0.30947,0.17838,0.69053,0.17838,1,0l9-5.19726c0.4784-0.27632,0.64221-0.88814,0.36589-1.36653C21.77813,11.34579,21.65194,11.2196,21.5,11.13184z"/><path class="uim-primary" d="M21.5,15.13184l-1.96411-1.13337L12.5,18.06152c-0.30947,0.17838-0.69053,0.17838-1,0l-7.03589-4.06305L2.5,15.13184c-0.47839,0.27632-0.64221,0.88814-0.36589,1.36653C2.22187,16.65031,2.34806,16.7765,2.5,16.86426l9,5.19726c0.30947,0.17838,0.69053,0.17838,1,0l9-5.19726c0.4784-0.27632,0.64221-0.88814,0.36589-1.36653C21.77813,15.34579,21.65194,15.2196,21.5,15.13184z"/></svg>