<svg xmlns="http://www.w3.org/2000/svg" enable-background="new 0 0 24 24" viewBox="0 0 24 24"><path class="uim-tertiary" d="M18.22272,14.27783c-0.04119,0.0598-0.08659,0.11659-0.13587,0.16992l-0.00427,0.00464c-0.24191,0.28846-0.50896,0.55486-0.798,0.79608c-2.02912,1.87555-5.369,4.10846-5.80976,3.764c-0.38324-0.29944,0.63111-1.7641-0.53912-2.00787c-0.08167-0.0094-0.16309-0.01941-0.24384-0.03089l-0.00152-0.00006v-0.00012c-3.43714-0.48828-6.0473-2.89252-6.0473-5.785C4.643,7.94354,7.92816,5.313,11.98059,5.313s7.33759,2.63055,7.33759,5.87555C19.30886,12.31185,18.92314,13.39959,18.22272,14.27783z"/><path class="uim-primary" d="M17.90668,2H6.09326C3.83264,2,2,3.83264,2,6.09326v11.81342C2,20.16736,3.83264,22,6.09332,22h11.81335C20.16736,22,22,20.16736,22,17.90668V6.09332C22,3.83264,20.16736,2,17.90668,2z M18.22272,14.27783c-0.0412,0.05981-0.08661,0.11658-0.13586,0.16992l-0.00427,0.00464c-0.24194,0.28845-0.50897,0.55487-0.79797,0.79608c-2.02917,1.87555-5.36902,4.10846-5.80981,3.76398c-0.38324-0.29944,0.63116-1.7641-0.53912-2.00787c-0.08167-0.0094-0.16309-0.01941-0.24384-0.03088l-0.00146-0.00006v-0.00012c-3.43719-0.48828-6.0473-2.89252-6.0473-5.78497c-0.00006-3.245,3.2851-5.87555,7.33752-5.87555s7.33759,2.63055,7.33759,5.87555C19.30884,12.31183,18.92316,13.3996,18.22272,14.27783z"/><path class="uim-primary" d="M9.20319,12.26538H8.13794V9.84167C8.13733,9.63057,7.96635,9.4596,7.75525,9.459H7.72333C7.51222,9.4596,7.34124,9.63058,7.34064,9.84169v2.83826c0.00059,0.21112,0.17157,0.38212,0.38269,0.38275h1.47986c0.21112-0.00063,0.3821-0.17163,0.38269-0.38275V12.648C9.58525,12.43692,9.41427,12.26597,9.20319,12.26538z M13.77545,9.45911h-0.032c-0.21109,0.00062-0.38204,0.1716-0.38263,0.38269v1.66607l-1.38316-1.85528c-0.06808-0.11938-0.19484-0.19319-0.33227-0.19348h-0.03193c-0.21112,0.00059-0.38212,0.17157-0.38275,0.38269V12.68c0.0006,0.21114,0.17161,0.38215,0.38275,0.38275h0.03193c0.21109-0.00066,0.38202-0.17166,0.38261-0.38275v-1.6972l1.39318,1.90283c0.00857,0.01332,0.01792,0.02612,0.028,0.03833l0.00006,0.00006c0.03779,0.05047,0.08961,0.08868,0.149,0.10986c0.04603,0.01906,0.09538,0.02885,0.1452,0.02881h0.03192c0.06236,0.00004,0.12376-0.0153,0.17877-0.04467c0.03575-0.01607,0.06756-0.03976,0.0932-0.0694l0.00013-0.00018c0.07081-0.0714,0.11058-0.16788,0.11065-0.26844V9.8418C14.15751,9.63071,13.98654,9.45973,13.77545,9.45911z M10.27734,9.459h0.03192c0.21139,0,0.38275,0.17136,0.38275,0.38275v2.83813c0,0.21139-0.17136,0.38275-0.38275,0.38275h-0.03192c-0.21133,0-0.38266-0.1713-0.38269-0.38263V9.84174C9.89462,9.63039,10.06594,9.45903,10.27729,9.459C10.27731,9.459,10.27732,9.459,10.27734,9.459z M16.51062,9.46582h-1.47986c-0.21111,0.0006-0.38209,0.17159-0.38269,0.38269v2.83826c0.00062,0.2111,0.17159,0.38208,0.38269,0.38269h1.47986c0.21111-0.00062,0.3821-0.17158,0.38275-0.38269v-0.032c-0.00065-0.2111-0.17165-0.38205-0.38275-0.38263h-1.06519v-0.606h1.06519c0.2111-0.00052,0.38213-0.17147,0.38275-0.38257v-0.03192c-0.00063-0.21112-0.17163-0.3821-0.38275-0.38269h-1.06519v-0.6059h1.06519c0.21112-0.00059,0.38212-0.17157,0.38275-0.38269V9.84851C16.89274,9.63739,16.72174,9.46641,16.51062,9.46582z"/></svg>