<svg xmlns="http://www.w3.org/2000/svg" data-name="Layer 1" viewBox="0 0 24 24"><path class="uim-quaternary" d="M11.44141,13.60352a.99927.99927,0,0,1-.707-.293L7.19824,9.772a.99964.99964,0,0,1,0-1.41406l6.36231-6.36279a.99655.99655,0,0,1,.39062-.2417l2.1211-.70752a.99976.99976,0,0,1,1.02343.2417l2.12207,2.12158A.9997.9997,0,0,1,19.459,4.43262l-.708,2.12207a.99138.99138,0,0,1-.24121.39062l-6.36133,6.36524A.99928.99928,0,0,1,11.44141,13.60352Zm6.36132-7.36524h0Z"/><path class="uim-tertiary" d="M7.19824,9.772l-.00006-.00012L5.78223,11.1875a.99963.99963,0,0,0,0,1.41406l2.12207,2.1211a.99965.99965,0,0,0,1.41406,0l1.41406-1.41407Z"/><path class="uim-primary" d="M8,18.00537H4a1,1,0,0,1,0-2H8a1,1,0,0,1,0,2Z"/><path class="uim-tertiary" d="M20,23.00537H4a1,1,0,0,1,0-2H20a1,1,0,0,1,0,2Z"/><path class="uim-quaternary" d="M14.81573,21.00537a2.96457,2.96457,0,0,0,.18427-1,3,3,0,0,0-6,0,2.96485,2.96485,0,0,0,.18433,1Z"/><path class="uim-tertiary" d="M17.87256 7.58289L16.45789 8.99847A5.95544 5.95544 0 0 1 18 13.00537a6.048 6.048 0 0 1-3.45483 5.43085A2.97112 2.97112 0 0 1 15 20.00537a2.64483 2.64483 0 0 1-.03973.40765A8.04378 8.04378 0 0 0 20 13.00537 7.94487 7.94487 0 0 0 17.87256 7.58289zM9.42059 18.49921a7.03623 7.03623 0 0 1-1.09478-.55957A.98281.98281 0 0 1 8 18.00537H5.32635a8.87269 8.87269 0 0 0 3.71967 2.472 2.69006 2.69006 0 0 1-.046-.472A2.96586 2.96586 0 0 1 9.42059 18.49921z"/></svg>