<svg xmlns="http://www.w3.org/2000/svg" viewBox="0 0 24 24"><path class="uim-primary" d="M8.8916,21.85352A6.25,6.25,0,0,1,4.47168,11.18457l7.95508-7.95508A4.49986,4.49986,0,0,1,18.791,9.59277L11.89648,16.4873a2.8164,2.8164,0,0,1-3.88964,0,2.75018,2.75018,0,0,1,.001-3.88867l5.126-5.12695a.99989.99989,0,1,1,1.41406,1.41406l-5.126,5.127a.74971.74971,0,0,0,0,1.06054.76811.76811,0,0,0,1.06054,0L17.377,8.17871a2.50263,2.50263,0,0,0,0-3.53516,2.5591,2.5591,0,0,0-3.53613,0L5.88574,12.59863a4.24989,4.24989,0,1,0,6.01074,6.00977l6.1875-6.18652a.99989.99989,0,1,1,1.41407,1.41406l-6.1875,6.18652A6.20551,6.20551,0,0,1,8.8916,21.85352Z"/></svg>