<svg xmlns="http://www.w3.org/2000/svg" enable-background="new 0 0 24 24" viewBox="0 0 24 24"><path class="uim-primary" d="M3.8084 11.6513c.42191.08136.84863-.1159 1.06-.49.39438.20225.82732.31816 1.27.34.47581.00808.93565-.17155 1.28-.5.20634-.20141.31569-.48209.3-.77v-.62c-.16628-1.18261-.11545-2.38563.15-3.55.69512-1.58056 2.27373-2.58692 4-2.55h.4c1.72703-.03965 3.30703.9676 4 2.55.26726 1.19122.31807 2.42079.15 3.63v.54c-.01606.29288.09727.57805.31.78.33514.32389.78394.50341 1.25.5.43416-.03788.85607-.16377 1.24-.37.15955.36559.52111.60139.92.6l0 0c.55228 0 1-.44771 1-1-.05095-.68602-.5271-1.2662-1.19-1.45-.4706-.19501-.9994-.19501-1.47 0 .16674-1.34375.04399-2.70762-.36-4-1.00548-2.36573-3.36073-3.87103-5.93-3.79h-.4c-2.50507-.0362-4.78732 1.43407-5.79 3.73-.41706 1.32424-.53657 2.72423-.35 4.1l-.11-.05c-.9703-.39955-2.08078.06314-2.48032 1.03344C3.0356 10.36931 3.01569 10.42489 2.9984 10.4813c-.10219.54275.25495 1.06557.7977 1.16776C3.80019 11.64984 3.80429 11.65058 3.8084 11.6513zM21.9984 16.11131c-1.25628-.27908-2.34171-1.06421-3-2.17-.30928-.4584-.9316-.57928-1.39-.27-.4584.30928-.57928.9316-.27 1.39.61858.94399 1.43812 1.73962 2.4 2.33-.14841.03497-.29864.06168-.45.08-.57786.1316-1.00558.61985-1.06 1.21-.66197-.11189-1.33803-.11189-2 0-.73905.16297-1.42619.50655-2 1-.58637.51761-1.32921.82391-2.11.87h-.26c-.78079-.04609-1.52363-.35239-2.11-.87-.55685-.46837-1.21919-.7944-1.93-.95-.66237-.10701-1.33763-.10701-2 0-.06168-.59044-.49154-1.07654-1.07-1.21l-.45-.12c.67894-.3927 1.28459-.90023 1.79-1.5.23998-.28013.45418-.58136.64-.9.29629-.46608.15864-1.0841-.30744-1.38039-.46608-.29629-1.0841-.15864-1.38039.30744-.01507.02371-.02914.04805-.04217.07295-.13551.2168-.28587.42396-.45.62-.64396.78622-1.5489 1.31499-2.55 1.49-.59212.1125-1.01549.63749-1 1.24-.00063.1824.03684.36292.11.53.32.72 1.16 1.17 2.79 1.48v.12c0 .12.06.25.09.35.14028.59167.67197 1.00705 1.28 1 .20318-.0024.40506-.03268.6-.09.52593-.09291 1.06407-.09291 1.59 0 .41274.12071.7947.32874 1.12.61.97598.76124 2.18237 1.1669 3.42 1.15h.16c1.20157-.04205 2.3552-.4817 3.28-1.25.3253-.28126.70726-.48929 1.12-.61.52554-.08322 1.06228-.06284 1.58.06.20479.03609.41209.05615.62.06.57597.01577 1.0881-.3642 1.24-.92 0-.12.07-.24.1-.36v-.12c1.63-.31 2.47-.75 2.76-1.42.08085-.15871.12849-.33225.14-.51C23.04613 16.80194 22.61718 16.23573 21.9984 16.11131z"/></svg>