<svg xmlns="http://www.w3.org/2000/svg" enable-background="new 0 0 24 24" viewBox="0 0 24 24"><path class="uim-tertiary" d="M19.17365,15.65173c-1.37303-0.33253-2.51178-1.28758-3.07831-2.58173l-0.004-0.00861c-0.12072-0.1973-0.14811-0.43785-0.07483-0.65723c0.14093-0.33209,0.60724-0.4801,0.91626-0.57818c0.07709-0.02448,0.15009-0.04761,0.20728-0.07025c0.55853-0.22064,0.67211-0.449,0.66937-0.60181c-0.03002-0.19503-0.17521-0.35243-0.36719-0.39807l-0.00409-0.00159c-0.08295-0.03328-0.17154-0.05023-0.26092-0.04992c-0.07874-0.00135-0.15687,0.01415-0.22913,0.04547c-0.21807,0.11026-0.45573,0.17646-0.6994,0.19482c-0.14045,0.0033-0.27764-0.0426-0.38782-0.12976c0.00678-0.12445,0.01471-0.25281,0.02332-0.38843l0.003-0.04779c0.14079-0.98657,0.08079-1.99141-0.17639-2.95422c-0.62001-1.41315-2.02518-2.31839-3.56824-2.29871l-0.29468,0.00275c-1.54088-0.01903-2.94362,0.88569-3.56181,2.29725c-0.25718,0.96193-0.31726,1.96592-0.17663,2.95166c0.00946,0.14581,0.01825,0.2917,0.02636,0.43768c-0.12136,0.09506-0.27372,0.14161-0.42749,0.13062c-0.25871-0.01106-0.51197-0.07792-0.74243-0.196c-0.05651-0.02501-0.11784-0.03726-0.17963-0.03588c-0.26088-0.01024-0.49941,0.14649-0.59356,0.39c-0.05994,0.31531,0.3902,0.54376,0.66394,0.65186c0.05786,0.023,0.13049,0.046,0.20727,0.07031c0.30878,0.098,0.77546,0.246,0.91639,0.57831c0.07315,0.21946,0.04577,0.46001-0.07483,0.65741l-0.004,0.00842c-0.20233,0.44052-0.4659,0.85024-0.7829,1.217c-0.5759,0.71639-1.3909,1.20099-2.29535,1.36481c-0.08851,0.01458-0.15181,0.09353-0.14679,0.1831c0.0019,0.03276,0.00959,0.06492,0.02271,0.095c0.12866,0.301,0.77484,0.54956,1.86853,0.71833c0.10223,0.0158,0.14551,0.18249,0.2052,0.45556c0.02386,0.10932,0.04858,0.22278,0.08307,0.33991c0.02327,0.1076,0.12432,0.18004,0.2337,0.16754c0.10481-0.00587,0.20892-0.02081,0.31116-0.04462c0.26956-0.05882,0.54442-0.08993,0.82031-0.09283c0.1982,0.00051,0.39602,0.01723,0.59149,0.05c0.413,0.10467,0.79715,0.30092,1.124,0.57422c0.5516,0.47106,1.24481,0.74426,1.96948,0.77619c0.02472,0,0.04938-0.00086,0.0733-0.00293c0.03009,0.00146,0.0697,0.00293,0.11121,0.00293c0.72508-0.03209,1.41866-0.30547,1.97064-0.77674c0.32651-0.27301,0.71028-0.46904,1.12286-0.57354c0.19551-0.03276,0.39338-0.04948,0.59162-0.05c0.27568,0.00128,0.55053,0.03037,0.82037,0.08685c0.10235,0.02244,0.20651,0.03561,0.31122,0.03937h0.01715c0.10256,0.00824,0.19524-0.06109,0.21631-0.1618c0.03406-0.11561,0.059-0.22559,0.08343-0.33777c0.05915-0.27167,0.10242-0.43763,0.20508-0.45349c1.09393-0.16895,1.74005-0.41718,1.86792-0.71656c0.01332-0.0303,0.02117-0.06272,0.02319-0.09576C19.32533,15.74535,19.26211,15.66643,19.17365,15.65173z"/><path class="uim-primary" d="M17.508,2h-11c-2.48529,0-4.5,2.01471-4.5,4.5v11c0,2.48529,2.01471,4.5,4.5,4.5h11c2.48529,0,4.5-2.01471,4.5-4.5v-11C22.008,4.01471,19.99329,2,17.508,2z M19.29718,15.93066c-0.12787,0.29938-0.77399,0.54761-1.86792,0.71655c-0.10266,0.01587-0.14594,0.18182-0.20508,0.45349c-0.02441,0.11218-0.04938,0.22217-0.08344,0.33777c-0.02106,0.10071-0.11377,0.17004-0.21631,0.1618h-0.01715c-0.10474-0.00378-0.20886-0.01697-0.31122-0.03937c-0.26984-0.05652-0.54468-0.08557-0.82037-0.08685c-0.19824,0.00049-0.39612,0.01721-0.59161,0.04999c-0.4126,0.10449-0.79633,0.30054-1.12286,0.57355c-0.552,0.47125-1.24554,0.74463-1.97064,0.77673c-0.0415,0-0.08112-0.00146-0.11121-0.00293c-0.02393,0.00208-0.04858,0.00293-0.0733,0.00293c-0.72467-0.03192-1.41785-0.30511-1.96948-0.77618c-0.32684-0.27332-0.711-0.46954-1.12402-0.57422c-0.19543-0.03278-0.39325-0.0495-0.59149-0.04999c-0.27588,0.00287-0.55072,0.034-0.82025,0.09277c-0.10229,0.02386-0.20636,0.03876-0.31122,0.04468c-0.10938,0.01245-0.21039-0.05994-0.23364-0.16754c-0.03455-0.11719-0.05927-0.23059-0.08307-0.33997c-0.05969-0.27307-0.10303-0.43976-0.2052-0.45551c-1.09369-0.16882-1.73987-0.41736-1.86853-0.71838c-0.01312-0.03003-0.02081-0.06219-0.02277-0.09497c-0.005-0.0896,0.05829-0.16852,0.14679-0.18311c0.90448-0.16382,1.71948-0.64844,2.29535-1.36481c0.31702-0.36676,0.58063-0.77649,0.78296-1.21698l0.00397-0.00842c0.12061-0.19745,0.14801-0.43799,0.07483-0.65741c-0.14093-0.33234-0.6076-0.48035-0.91638-0.57831c-0.07678-0.02435-0.14941-0.0473-0.20728-0.07031c-0.27374-0.10809-0.72388-0.33655-0.66394-0.65186c0.09418-0.24353,0.3327-0.40027,0.59357-0.39001c0.06177-0.0014,0.12311,0.01086,0.17963,0.03589c0.23047,0.11804,0.4837,0.18494,0.74243,0.19598c0.15375,0.01099,0.30615-0.03558,0.42749-0.13062c-0.00812-0.146-0.01691-0.29187-0.02637-0.43768C7.96881,9.39166,8.02887,8.38763,8.28607,7.42572c0.61823-1.41156,2.02094-2.31628,3.56183-2.29724l0.29468-0.00275c1.54303-0.01971,2.94824,0.88556,3.56824,2.29871c0.25714,0.96277,0.31714,1.96765,0.17639,2.95422l-0.00299,0.04779c-0.00861,0.13562-0.01654,0.26398-0.02332,0.38843c0.11017,0.08716,0.24731,0.13306,0.38782,0.12976c0.24365-0.01837,0.48132-0.08459,0.6994-0.19482c0.0722-0.03131,0.15033-0.04681,0.22913-0.04547c0.08936-0.00031,0.17798,0.0166,0.26093,0.04993l0.00409,0.00159c0.19196,0.04565,0.33716,0.203,0.36719,0.39807c0.00269,0.15277-0.11084,0.38116-0.66937,0.60181c-0.05719,0.02264-0.13019,0.04578-0.20728,0.07025c-0.30902,0.09808-0.77533,0.24609-0.91626,0.57819c-0.0733,0.21936-0.0459,0.4599,0.07483,0.65723l0.00397,0.00861c0.56653,1.29413,1.70526,2.24921,3.07831,2.58173c0.08844,0.01471,0.15167,0.09363,0.14673,0.18317C19.31836,15.86792,19.31049,15.90033,19.29718,15.93066z"/></svg>