<svg xmlns="http://www.w3.org/2000/svg" viewBox="0 0 24 24"><path class="uim-primary" d="M13.41406,12l3.293-3.293A.99989.99989,0,0,0,15.293,7.293L12,10.58594,8.707,7.293A.99989.99989,0,0,0,7.293,8.707L10.58594,12,7.293,15.293A.99989.99989,0,0,0,8.707,16.707L12,13.41406l3.293,3.293A.99989.99989,0,0,0,16.707,15.293Z"/><path class="uim-tertiary" d="M19.0708,4.9292A9.99962,9.99962,0,1,0,4.9292,19.0708,9.99962,9.99962,0,1,0,19.0708,4.9292ZM16.707,15.293A.99989.99989,0,1,1,15.293,16.707L12,13.41406,8.707,16.707A.99989.99989,0,0,1,7.293,15.293L10.58594,12,7.293,8.707A.99989.99989,0,0,1,8.707,7.293L12,10.58594l3.293-3.293A.99989.99989,0,0,1,16.707,8.707L13.41406,12Z"/></svg>