<svg xmlns="http://www.w3.org/2000/svg" enable-background="new 0 0 24 24" viewBox="0 0 24 24"><path class="uim-tertiary" d="M15.0625,23H8.92725C2.77783,23,1,21.21973,1,15.0625V8.92676C1,2.77832,2.78027,1,8.9375,1h6.13525C21.22217,1,23,2.78027,23,8.9375v6.13574C23,21.22168,21.21973,23,15.0625,23z"/><path class="uim-primary" d="M11.6543,17.002c-0.21034-0.00021-0.41529-0.06648-0.58594-0.18945c-2.87352-2.05247-4.81551-5.16099-5.3999-8.64355C5.57623,7.62454,5.94284,7.10839,6.4873,7.01616S7.54791,7.29053,7.64014,7.835c0.37608,2.25524,1.42702,4.34349,3.01416,5.98926V8.002c0-0.55228,0.44771-1,1-1s1,0.44772,1,1v8c0.00025,0.55203-0.44705,0.99975-0.99908,1C11.65491,17.002,11.65461,17.002,11.6543,17.002z"/><path class="uim-primary" d="M16.65479,17.002c-0.2804,0.00027-0.54798-0.1174-0.73731-0.32422l-1.64795-1.79687c-0.43688-0.47554-0.99514-0.82297-1.61474-1.00491l-0.00049,2.126c0.00014,0.55214-0.44734,0.99986-0.99948,1c-0.00017,0-0.00035,0-0.00052,0l0,0c-0.55214,0.00015-0.99985-0.44732-1-0.99946c0-0.00018,0-0.00036,0-0.00054v-3.2705c-0.00015-0.55214,0.44732-0.99985,0.99946-1c0.00018,0,0.00036,0,0.00054,0c1.55447,0.00146,3.03738,0.65341,4.08935,1.79785l1.64746,1.79687c0.37338,0.40674,0.34633,1.03915-0.06041,1.41253C17.1463,16.90802,16.90511,17.00196,16.65479,17.002z"/><path class="uim-primary" d="M11.6499,14.96c-0.55214,0.00014-0.99986-0.44734-1-0.99948c0-0.00017,0-0.00035,0-0.00052V8.04c0-0.55228,0.44771-1,1-1s1,0.44772,1,1v5.92c0.00015,0.55214-0.44732,0.99985-0.99946,1C11.65026,14.96,11.65008,14.96,11.6499,14.96z"/><path class="uim-primary" d="M12.57031,13.83008c-0.55241,0.00012-1.00031-0.4476-1.00043-1.00001c-0.00008-0.40604,0.24531-0.77184,0.62104-0.92577c1.76348-0.72651,3.06314-2.26571,3.48388-4.126c0.11911-0.53929,0.65285-0.8799,1.19214-0.76079c0.53929,0.11911,0.87991,0.65285,0.76079,1.19214c-0.00089,0.00401-0.00179,0.00801-0.00273,0.01201c-0.56559,2.49564-2.31,4.56008-4.67627,5.53418C12.82863,13.80499,12.70008,13.83021,12.57031,13.83008z M11.6543,9.002h-0.00293L10.99707,9C10.44494,8.99801,9.99875,8.5492,10,7.99707C10.01707,7.45137,10.45714,7.01388,11.00293,7l0.6543,0.00195c0.55228,0.00081,0.99934,0.44918,0.99854,1.00146c-0.00081,0.55229-0.44918,0.99934-1.00146,0.99854V9.002z"/></svg>