<svg xmlns="http://www.w3.org/2000/svg" fill='red' viewBox="0 0 24 24"><path d="M16 2H8C7.20436 2 6.4413 2.31601 5.87869 2.87851C5.31608 3.441 5.00001 4.20391 5.00001 4.9994V20.9962C4.99931 21.1724 5.04518 21.3456 5.13299 21.4984C5.22079 21.6511 5.3474 21.778 5.50001 21.8661C5.65203 21.9538 5.82447 22 6.00001 22C6.17554 22 6.34799 21.9538 6.50001 21.8661L12 18.6867L17.5 21.8661C17.6524 21.9524 17.8248 21.9972 18 21.996C18.1752 21.9972 18.3476 21.9524 18.5 21.8661C18.6526 21.778 18.7792 21.6511 18.867 21.4984C18.9548 21.3456 19.0007 21.1724 19 20.9962V4.9994C19 4.20391 18.6839 3.441 18.1213 2.87851C17.5587 2.31601 16.7956 2 16 2ZM17 19.2666L12.5 16.6671C12.348 16.5793 12.1755 16.5331 12 16.5331C11.8245 16.5331 11.652 16.5793 11.5 16.6671L7.00001 19.2666V4.9994C7.00001 4.73424 7.10536 4.47994 7.2929 4.29244C7.48043 4.10494 7.73479 3.9996 8 3.9996H16C16.2652 3.9996 16.5196 4.10494 16.7071 4.29244C16.8946 4.47994 17 4.73424 17 4.9994V19.2666Z" fill="#CCCCDC" fill-opacity="0.65"/></svg>
