<svg xmlns="http://www.w3.org/2000/svg" viewBox="0 0 24 24"><path d="M21.316 9.552l-1.886-.63.89-1.777a1 1 0 00-.188-1.155L18.01 3.868a1 1 0 00-1.154-.187l-1.778.89-.63-1.887A1 1 0 0013.5 2h-3a1 1 0 00-.949.684L8.922 4.57l-1.778-.89a.996.996 0 00-1.154.188L3.868 5.99a1 1 0 00-.187 1.155l.89 1.778-1.887.629A.999.999 0 002 10.5v3a.999.999 0 00.684.948l1.886.63-.89 1.777a1 1 0 00.188 1.155l2.122 2.122a.998.998 0 001.154.187l1.778-.89.63 1.887A1 1 0 0010.5 22h3a1 1 0 00.949-.684l.629-1.886 1.778.89a1 1 0 001.154-.188l2.122-2.122a1 1 0 00.187-1.155l-.889-1.778 1.886-.629A.999.999 0 0022 13.5v-3a.999.999 0 00-.684-.948zM12 15a3 3 0 113-3 3.003 3.003 0 01-3 3z"/><path opacity=".6" d="M12 16a4 4 0 114-4 4.004 4.004 0 01-4 4zm0-6a2 2 0 102 2 2.002 2.002 0 00-2-2z"/></svg>