<svg width="24" height="24" viewBox="0 0 24 24" fill="none" xmlns="http://www.w3.org/2000/svg">
<path opacity="0.5" d="M1.51465 12.3495L6.95272 21.0972L6.95374 21.0962L8.86788 17.7716L12.4643 24L16.6971 16.6696L18.1475 19.1893L22.4855 12.3495L21.363 12.3495L18.1485 17.4652L17.1935 15.8116L19.1548 12.3495H18.0538L16.6568 14.8812L15.198 12.3495H14.1858L16.1629 15.7381L12.4654 22.1421L9.40414 16.8411L11.9901 12.3495H10.9977L8.92407 16.0097L6.78373 12.3495H5.69817L8.38782 16.9382L6.95374 19.4212L2.41182 12.3495H1.51465Z" fill="currentColor"/>
<path d="M20.4315 8.78179C20.8207 8.44065 21.1036 7.98818 21.2394 7.48158C21.4233 6.79828 21.3293 6.08434 20.9759 5.47151C20.6225 4.85868 20.0516 4.42051 19.3683 4.23769C19.1426 4.17743 18.9117 4.14679 18.6799 4.14679C18.397 4.14679 18.113 4.19479 17.8424 4.28569L17.0467 2.90377L15.1326 6.22835L11.5364 0L7.3038 7.33041L5.85345 4.81068L1.51465 12.3495H22.4855L20.4315 8.78179ZM18.6799 4.98329C18.8382 4.98329 18.9975 5.00474 19.1528 5.0456C19.6185 5.16918 20.0087 5.46845 20.2518 5.88823C20.4938 6.307 20.5582 6.79521 20.4326 7.263C20.3529 7.55818 20.2058 7.81965 20.0026 8.03516L18.2734 5.0313C18.4072 4.99963 18.5451 4.98329 18.6809 4.98329H18.6799ZM3.00688 11.4874L5.85243 6.53476L6.80741 8.18837L4.91685 11.4874H3.00688ZM7.34364 9.11782L8.67347 11.4874H6.01381L7.34364 9.11782ZM9.65603 11.4874L7.83798 8.26191L11.5354 1.85788L14.5964 7.15882L12.1421 11.4874H9.65603ZM15.0765 7.99022L17.0569 11.4874H13.096L15.0765 7.99022ZM18.1682 11.4874L15.6127 7.06179L17.0467 4.57883L21.0352 11.4874H18.1682Z" fill="currentColor"/>
</svg>
