<svg width="12" height="15" viewBox="0 0 12 15" fill="none" xmlns="http://www.w3.org/2000/svg">
<path d="M7.99984 8.83334H3.99984C3.82303 8.83334 3.65346 8.90358 3.52843 9.02861C3.40341 9.15363 3.33317 9.3232 3.33317 9.50001C3.33317 9.67682 3.40341 9.84639 3.52843 9.97141C3.65346 10.0964 3.82303 10.1667 3.99984 10.1667H7.99984C8.17665 10.1667 8.34622 10.0964 8.47124 9.97141C8.59627 9.84639 8.6665 9.67682 8.6665 9.50001C8.6665 9.3232 8.59627 9.15363 8.47124 9.02861C8.34622 8.90358 8.17665 8.83334 7.99984 8.83334ZM7.99984 6.16668H5.33317C5.15636 6.16668 4.98679 6.23692 4.86177 6.36194C4.73674 6.48696 4.6665 6.65653 4.6665 6.83334C4.6665 7.01015 4.73674 7.17972 4.86177 7.30475C4.98679 7.42977 5.15636 7.50001 5.33317 7.50001H7.99984C8.17665 7.50001 8.34622 7.42977 8.47124 7.30475C8.59627 7.17972 8.6665 7.01015 8.6665 6.83334C8.6665 6.65653 8.59627 6.48696 8.47124 6.36194C8.34622 6.23692 8.17665 6.16668 7.99984 6.16668ZM9.33317 2.16668H8.5465C8.40896 1.77764 8.15446 1.44068 7.81788 1.20197C7.4813 0.963263 7.07913 0.834503 6.6665 0.833344H5.33317C4.92054 0.834503 4.51837 0.963263 4.18179 1.20197C3.84522 1.44068 3.59071 1.77764 3.45317 2.16668H2.6665C2.13607 2.16668 1.62736 2.37739 1.25229 2.75246C0.877218 3.12754 0.666504 3.63624 0.666504 4.16668V12.1667C0.666504 12.6971 0.877218 13.2058 1.25229 13.5809C1.62736 13.956 2.13607 14.1667 2.6665 14.1667H9.33317C9.8636 14.1667 10.3723 13.956 10.7474 13.5809C11.1225 13.2058 11.3332 12.6971 11.3332 12.1667V4.16668C11.3332 3.63624 11.1225 3.12754 10.7474 2.75246C10.3723 2.37739 9.8636 2.16668 9.33317 2.16668ZM4.6665 2.83334C4.6665 2.65653 4.73674 2.48696 4.86177 2.36194C4.98679 2.23691 5.15636 2.16668 5.33317 2.16668H6.6665C6.84332 2.16668 7.01288 2.23691 7.13791 2.36194C7.26293 2.48696 7.33317 2.65653 7.33317 2.83334V3.50001H4.6665V2.83334ZM9.99984 12.1667C9.99984 12.3435 9.9296 12.5131 9.80458 12.6381C9.67955 12.7631 9.50998 12.8333 9.33317 12.8333H2.6665C2.48969 12.8333 2.32012 12.7631 2.1951 12.6381C2.07008 12.5131 1.99984 12.3435 1.99984 12.1667V4.16668C1.99984 3.98987 2.07008 3.8203 2.1951 3.69527C2.32012 3.57025 2.48969 3.50001 2.6665 3.50001H3.33317V4.16668C3.33317 4.34349 3.40341 4.51306 3.52843 4.63808C3.65346 4.76311 3.82303 4.83334 3.99984 4.83334H7.99984C8.17665 4.83334 8.34622 4.76311 8.47124 4.63808C8.59627 4.51306 8.6665 4.34349 8.6665 4.16668V3.50001H9.33317C9.50998 3.50001 9.67955 3.57025 9.80458 3.69527C9.9296 3.8203 9.99984 3.98987 9.99984 4.16668V12.1667Z" fill="currentColor"/>
</svg>
