<svg width="10" height="10" viewBox="0 0 10 10" fill="none" xmlns="http://www.w3.org/2000/svg">
  <path d="M8.82779 6.53638L6.1668 5L8.82779 3.46363C8.96171 3.38623 9.05942 3.25881 9.09943 3.10939C9.13944 2.95998 9.11848 2.80078 9.04115 2.66682C8.96382 2.53285 8.83646 2.43508 8.68706 2.39499C8.53766 2.3549 8.37846 2.37579 8.24445 2.45305L5.58329 3.98953V0.916669C5.58329 0.76196 5.52183 0.613587 5.41243 0.50419C5.30303 0.394794 5.15466 0.333336 4.99995 0.333336C4.84524 0.333336 4.69687 0.394794 4.58747 0.50419C4.47808 0.613587 4.41662 0.76196 4.41662 0.916669V3.98953L1.75545 2.45303C1.62145 2.37577 1.46224 2.35489 1.31285 2.39497C1.16345 2.43506 1.03608 2.53283 0.958754 2.6668C0.881425 2.80077 0.860461 2.95996 0.900472 3.10938C0.940482 3.2588 1.03819 3.38621 1.17212 3.46361L3.8331 5L1.17212 6.53638C1.03819 6.61378 0.940482 6.74119 0.900472 6.89061C0.860461 7.04003 0.881425 7.19922 0.958754 7.33319C1.03608 7.46715 1.16345 7.56493 1.31285 7.60501C1.46224 7.6451 1.62145 7.62422 1.75545 7.54696L4.41662 6.01048V9.08334C4.41662 9.23805 4.47808 9.38642 4.58747 9.49582C4.69687 9.60521 4.84524 9.66667 4.99995 9.66667C5.15466 9.66667 5.30303 9.60521 5.41243 9.49582C5.52183 9.38642 5.58329 9.23805 5.58329 9.08334V6.01048L8.24445 7.54698C8.37846 7.62424 8.53766 7.64512 8.68706 7.60503C8.83646 7.56495 8.96382 7.46717 9.04115 7.3332C9.11848 7.19924 9.13944 7.04005 9.09943 6.89063C9.05942 6.74121 8.96171 6.6138 8.82779 6.5364V6.53638Z" fill="#6E9FFF"/>
</svg>
