<svg width="24" height="24" viewBox="0 0 24 24" fill="none" xmlns="http://www.w3.org/2000/svg">
<path d="M21.7155 4.99135C21.8952 6.50074 21.5238 8.60757 20.4267 11.5316C20.2327 12.0487 19.6563 12.3106 19.1392 12.1166C18.6221 11.9226 18.3602 11.3461 18.5542 10.829C19.6155 8.00029 19.852 6.25727 19.7295 5.2278C19.6702 4.7303 19.5319 4.43981 19.4002 4.2676C19.2721 4.10015 19.1086 3.98951 18.8993 3.91767C18.4343 3.75805 17.7889 3.80756 17.1534 3.96281C16.8545 4.03583 16.5935 4.12328 16.4079 4.19239C16.3156 4.22672 16.2436 4.25592 16.1967 4.27562C16.1733 4.28546 16.1562 4.29288 16.1461 4.29732L16.1368 4.30145C16.0986 4.31897 16.0599 4.33388 16.0209 4.34625C15.7736 4.50058 15.4613 4.54599 15.1643 4.44341C13.4711 3.85846 11.7989 3.96554 10.3936 5.2147C10.1729 5.41094 9.88936 5.49159 9.61725 5.461C9.46282 5.45232 9.30812 5.40757 9.16576 5.32352L9.16202 5.32133L9.14318 5.31043C9.12553 5.30027 9.09786 5.28451 9.06108 5.26402C8.98745 5.22299 8.87768 5.16318 8.73884 5.09148C8.46014 4.94754 8.06967 4.7584 7.62321 4.57734C6.68421 4.19652 5.67417 3.92583 4.94062 4.01559C4.6046 4.05671 4.39583 4.16502 4.25773 4.31151C4.1177 4.46006 3.94786 4.75671 3.89994 5.36897C3.79982 6.64831 4.2611 8.92948 5.93544 12.766C6.15635 13.2722 5.92509 13.8616 5.41891 14.0825C4.91273 14.3034 4.32331 14.0722 4.1024 13.566C2.40688 9.68091 1.76514 7.01333 1.90604 5.21293C1.97863 4.28534 2.26531 3.50938 2.80245 2.9396C3.34152 2.36776 4.03058 2.11203 4.69771 2.0304C5.97043 1.87467 7.38791 2.32369 8.37486 2.72396C8.86291 2.92189 9.289 3.12632 9.60286 3.28686C11.4413 1.95374 13.5312 1.86861 15.4293 2.42872C15.4982 2.39988 15.5934 2.36151 15.7101 2.31806C15.9499 2.2288 16.2869 2.11569 16.6788 2.01995C17.4248 1.83768 18.5314 1.67686 19.5486 2.026C20.0804 2.20854 20.5907 2.53206 20.9888 3.05252C21.3832 3.56824 21.6235 4.21942 21.7155 4.99135Z" fill="currentColor"/>
<path d="M7.14947 8.85943C7.43069 9.33352 8.04236 9.49048 8.51698 9.21093L8.51898 9.20975L8.52049 9.2089C8.52512 9.20625 8.53398 9.20123 8.54675 9.1942C8.57236 9.1801 8.61335 9.15812 8.66727 9.13108C8.75121 9.08899 8.86387 9.03597 8.99647 8.98178C9.01752 9.06736 9.043 9.15374 9.07382 9.239C9.20393 9.59883 9.54421 10.22 10.3184 10.3348C10.6658 10.3863 10.9974 10.315 11.3044 10.1781C11.3599 10.6218 11.3707 11.2031 11.3 11.9595C11.2193 12.8227 11.0759 13.5149 10.8964 14.0693C9.80596 13.7294 9.38896 13.2116 9.21965 12.8202C9.02924 12.3801 9.07747 11.927 9.16666 11.6788C9.35344 11.1591 9.08352 10.5863 8.56378 10.3995C8.04404 10.2128 7.47129 10.4827 7.28451 11.0024C7.05326 11.6459 6.95937 12.6327 7.38407 13.6143C7.77791 14.5247 8.56829 15.3184 9.8506 15.8207C9.4363 16.178 8.97168 16.3297 8.49381 16.3692C7.87289 16.4205 7.23242 16.2784 6.71654 16.1005C6.46474 16.0137 6.25711 15.9233 6.115 15.856C6.04427 15.8225 5.99067 15.7952 5.95694 15.7775C5.02625 15.4102 4.71063 15.856 4.55463 16.1288C4.28045 16.6083 4.44685 17.2192 4.92627 17.4933L4.92833 17.4945L4.93098 17.496L4.93797 17.5L4.95869 17.5115C4.97546 17.5207 4.9981 17.5329 5.02625 17.5477C5.08251 17.5773 5.1611 17.6172 5.25914 17.6637C5.45458 17.7562 5.73084 17.8761 6.06442 17.9912C6.7193 18.2171 7.65557 18.4453 8.65856 18.3624C9.69038 18.2771 10.7897 17.8596 11.6683 16.8165C12.5255 15.7987 13.0917 14.281 13.2913 12.1457C13.4537 10.4086 13.2768 9.10786 12.7565 8.19079C12.1957 7.20234 11.318 6.79814 10.4705 6.72491C9.67972 6.65658 8.92214 6.87081 8.41392 7.0621C8.1496 7.16158 7.92801 7.26443 7.77085 7.34323C7.69187 7.38283 7.6281 7.41689 7.58216 7.44218C7.55917 7.45484 7.54056 7.46535 7.52667 7.4733L7.50938 7.48329L7.50344 7.48676L7.50117 7.48811C6.94842 7.804 6.93799 8.50292 7.14947 8.85943Z" fill="currentColor"/>
<path fill-rule="evenodd" clip-rule="evenodd" d="M17.7514 8.01903C18.3236 7.19891 18.3232 7.1986 18.3227 7.19828L18.3217 7.19762L18.3197 7.19619L18.315 7.19293L18.3031 7.18488C18.2941 7.17886 18.283 7.17153 18.2699 7.1631C18.2438 7.1463 18.2093 7.12489 18.1676 7.10066C18.0852 7.0528 17.9693 6.99091 17.8295 6.93168C17.5726 6.82291 17.1263 6.67604 16.6214 6.74813C16.0403 6.8311 15.5268 7.18369 15.2154 7.80597C14.9357 8.36511 14.8353 9.10334 14.8696 10.0137C14.9643 12.5344 15.3699 14.2668 16.0352 15.3977C16.0597 15.4394 16.0847 15.4803 16.1099 15.5204C16.0573 15.667 16.0382 15.828 16.0607 15.9929L16.0618 16.0008L16.0667 16.0415C16.0711 16.079 16.0774 16.1369 16.0844 16.2121C16.0985 16.3628 16.1152 16.5817 16.1246 16.846C16.1436 17.3803 16.1318 18.0739 16.0194 18.7551C15.9049 19.4496 15.6998 20.044 15.3947 20.4514C15.121 20.817 14.7526 21.0595 14.1513 21.0817C13.3431 21.1117 13.0211 20.9156 12.8942 20.7954C12.7604 20.6686 12.6616 20.454 12.642 20.0944C12.6223 19.7345 12.6902 19.3375 12.7779 19.0042C12.8202 18.8433 12.8639 18.7094 12.8962 18.6179C12.9122 18.5724 12.9252 18.5381 12.9334 18.5169L12.9418 18.4955C13.1554 17.9861 12.9156 17.4001 12.4063 17.1866C11.897 16.973 11.3109 17.2128 11.0974 17.7221L11.0967 17.7238L11.0959 17.7258L11.0937 17.7309L11.0877 17.7458C11.0829 17.7577 11.0765 17.7736 11.069 17.7931C11.0538 17.8321 11.0335 17.8861 11.01 17.9529C10.963 18.0859 10.9023 18.2725 10.8437 18.4953C10.7295 18.9294 10.6093 19.5525 10.6449 20.2037C10.6806 20.8552 10.8806 21.6427 11.5186 22.2472C12.1635 22.8582 13.0863 23.1226 14.2254 23.0804C15.4724 23.0342 16.386 22.4645 16.9957 21.6502C17.574 20.8778 17.8536 19.9248 17.9928 19.0805C18.1149 18.3399 18.1397 17.615 18.1301 17.0373C18.3514 17.0861 18.5775 17.1087 18.8058 17.107C19.7577 17.1 20.6125 16.6712 21.1632 16.3245C21.4519 16.1427 21.6898 15.9624 21.8565 15.8269C21.9404 15.7587 22.0075 15.7009 22.0553 15.6585C22.0793 15.6372 22.0985 15.6198 22.1127 15.6067L22.1302 15.5905L22.136 15.585L22.1382 15.5829L22.1391 15.582C22.1395 15.5817 22.1399 15.5813 21.453 14.8596L22.1399 15.5813C22.54 15.2005 22.5556 14.5676 22.1748 14.1675C21.7947 13.7682 21.1632 13.752 20.763 14.1307L20.7583 14.1351L20.7469 14.1455L20.7284 14.1621C20.6997 14.1875 20.6545 14.2266 20.5951 14.2749C20.4753 14.3722 20.3032 14.5025 20.0976 14.632C19.6595 14.9078 19.1883 15.1041 18.791 15.1071C18.4963 15.1092 18.1305 15.0149 17.759 14.3835C17.3544 13.6958 16.9794 12.4111 16.8762 10.1328C16.9381 10.1258 17.001 10.1126 17.0626 10.0934L17.0662 10.0923L17.0733 10.0901L17.0949 10.0831C17.1126 10.0773 17.1365 10.0693 17.1657 10.0593C17.2238 10.0393 17.304 10.0105 17.397 9.97392C17.5755 9.90375 17.8324 9.79287 18.0746 9.64646C18.2636 9.53224 18.6673 9.26951 18.8563 8.81866C18.9723 8.54183 19.0033 8.20066 18.8671 7.85893C18.7432 7.54794 18.521 7.33848 18.3288 7.20254L18.3236 7.19891L17.7514 8.01903ZM16.8673 9.46845C17.0618 10.0937 17.0624 10.0935 17.0626 10.0934L16.8673 9.46845Z" fill="currentColor"/>
</svg>
