<svg width="20" height="21" viewBox="0 0 20 21" fill="none" xmlns="http://www.w3.org/2000/svg">
<path d="M17.088 2.95453C17.0806 2.94672 17.0784 2.93634 17.0708 2.92871C17.0632 2.92108 17.0526 2.91876 17.0447 2.91138C15.1743 1.04693 12.641 0 10 0C7.35902 0 4.82573 1.04693 2.95526 2.91138C2.94739 2.91876 2.93689 2.92102 2.9292 2.92871C2.92151 2.9364 2.91937 2.94671 2.91205 2.95453C1.51831 4.35495 0.57065 6.13686 0.18867 8.07536C-0.19331 10.0139 0.0075112 12.0221 0.76579 13.8465C1.52407 15.671 2.80582 17.23 4.44927 18.3267C6.09273 19.4234 8.02423 20.0087 10 20.0087C11.9758 20.0087 13.9073 19.4234 15.5507 18.3267C17.1942 17.23 18.4759 15.671 19.2342 13.8465C19.9925 12.0221 20.1933 10.0139 19.8113 8.07536C19.4294 6.13686 18.4817 4.35495 17.088 2.95453V2.95453ZM9.99995 18C8.80222 17.9996 7.61992 17.7298 6.54062 17.2104C5.46132 16.6911 4.51268 15.9357 3.76495 15H7.78022C8.05831 15.3144 8.4 15.5661 8.78266 15.7385C9.16533 15.9109 9.58025 16 9.99995 16C10.4197 16 10.8346 15.9109 11.2172 15.7385C11.5999 15.5661 11.9416 15.3144 12.2197 15H16.235C15.4873 15.9357 14.5386 16.6911 13.4593 17.2105C12.38 17.7298 11.1977 17.9996 9.99995 18V18ZM8.99995 13C8.99995 12.8022 9.0586 12.6089 9.16848 12.4444C9.27837 12.28 9.43454 12.1518 9.61727 12.0761C9.8 12.0004 10.0011 11.9806 10.195 12.0192C10.389 12.0578 10.5672 12.153 10.7071 12.2929C10.8469 12.4327 10.9422 12.6109 10.9807 12.8049C11.0193 12.9989 10.9995 13.2 10.9238 13.3827C10.8481 13.5654 10.72 13.7216 10.5555 13.8315C10.3911 13.9413 10.1977 14 9.99995 14C9.73482 13.9997 9.48062 13.8943 9.29314 13.7068C9.10566 13.5193 9.00022 13.2651 8.99995 13V13ZM17.4102 13.0021L17.3999 13H13C12.9981 12.3816 12.8048 11.779 12.4467 11.2748C12.0886 10.7707 11.5832 10.3897 11 10.1843V7C11 6.73478 10.8946 6.48043 10.7071 6.29289C10.5195 6.10536 10.2652 6 9.99995 6C9.73474 6 9.48038 6.10536 9.29285 6.29289C9.10531 6.48043 8.99995 6.73478 8.99995 7V10.1843C8.41669 10.3897 7.91132 10.7707 7.55322 11.2748C7.19512 11.779 7.00186 12.3816 6.99995 13H2.60005L2.58973 13.0021C2.32963 12.3603 2.1547 11.6872 2.06941 11H2.99995C3.26517 11 3.51952 10.8946 3.70706 10.7071C3.8946 10.5196 3.99995 10.2652 3.99995 10C3.99995 9.73478 3.8946 9.48043 3.70706 9.29289C3.51952 9.10536 3.26517 9 2.99995 9H2.06941C2.2481 7.57857 2.80751 6.23182 3.68849 5.10211L4.34321 5.75684C4.43606 5.84969 4.54629 5.92334 4.6676 5.97359C4.78892 6.02384 4.91894 6.0497 5.05025 6.0497C5.18156 6.0497 5.31158 6.02383 5.43289 5.97359C5.5542 5.92334 5.66443 5.84968 5.75728 5.75683C5.85013 5.66398 5.92378 5.55376 5.97403 5.43244C6.02428 5.31113 6.05014 5.18111 6.05014 5.0498C6.05014 4.91849 6.02428 4.78847 5.97403 4.66716C5.92378 4.54585 5.85012 4.43562 5.75727 4.34277L5.10261 3.68811C6.23224 2.80741 7.57877 2.24817 8.99995 2.06946V3C8.99995 3.26522 9.10531 3.51957 9.29285 3.70711C9.48038 3.89464 9.73474 4 9.99995 4C10.2652 4 10.5195 3.89464 10.7071 3.70711C10.8946 3.51957 11 3.26522 11 3V2.06946C12.4211 2.24817 13.7677 2.80741 14.8973 3.68811L14.2426 4.34277C14.0551 4.53029 13.9498 4.78461 13.9498 5.0498C13.9498 5.31499 14.0551 5.56932 14.2426 5.75683C14.4301 5.94435 14.6845 6.0497 14.9497 6.0497C15.2148 6.0497 15.4692 5.94436 15.6567 5.75684L16.3114 5.10211C17.1924 6.23182 17.7518 7.57857 17.9305 9H17C16.7347 9 16.4804 9.10536 16.2928 9.29289C16.1053 9.48043 16 9.73478 16 10C16 10.2652 16.1053 10.5196 16.2928 10.7071C16.4804 10.8946 16.7347 11 17 11H17.9305C17.8452 11.6872 17.6703 12.3603 17.4102 13.0021V13.0021Z" fill="currentColor"/>
</svg>
