<svg width="24" height="24" viewBox="0 0 24 24" fill="none" xmlns="http://www.w3.org/2000/svg">
<path d="M7.5 2C6.94772 2 6.5 2.44772 6.5 3V4.125C6.5 4.67728 6.94772 5.125 7.5 5.125H8.625C9.17728 5.125 9.625 4.67728 9.625 4.125V3C9.625 2.44772 9.17728 2 8.625 2H7.5Z" fill="currentColor"/>
<path d="M15.375 2C14.8227 2 14.375 2.44772 14.375 3V4.125C14.375 4.67728 14.8227 5.125 15.375 5.125H16.5C17.0523 5.125 17.5 4.67728 17.5 4.125V3C17.5 2.44772 17.0523 2 16.5 2H15.375Z" fill="currentColor"/>
<path d="M10.875 5.375C10.3227 5.375 9.875 5.82272 9.875 6.375V8.625C9.875 9.17728 10.3227 9.625 10.875 9.625H13.125C13.6773 9.625 14.125 9.17728 14.125 8.625V6.375C14.125 5.82272 13.6773 5.375 13.125 5.375H10.875Z" fill="currentColor"/>
<path d="M3 6.5C2.44772 6.5 2 6.94772 2 7.5V8.625C2 9.17728 2.44772 9.625 3 9.625H4.125C4.67728 9.625 5.125 9.17728 5.125 8.625V7.5C5.125 6.94772 4.67728 6.5 4.125 6.5H3Z" fill="currentColor"/>
<path d="M19.875 6.5C19.3227 6.5 18.875 6.94772 18.875 7.5V8.625C18.875 9.17728 19.3227 9.625 19.875 9.625H21C21.5523 9.625 22 9.17728 22 8.625V7.5C22 6.94772 21.5523 6.5 21 6.5H19.875Z" fill="currentColor"/>
<path d="M6.375 9.875C5.82272 9.875 5.375 10.3227 5.375 10.875V13.125C5.375 13.6773 5.82272 14.125 6.375 14.125H8.625C9.17728 14.125 9.625 13.6773 9.625 13.125V10.875C9.625 10.3227 9.17728 9.875 8.625 9.875H6.375Z" fill="currentColor"/>
<path d="M15.375 9.875C14.8227 9.875 14.375 10.3227 14.375 10.875V13.125C14.375 13.6773 14.8227 14.125 15.375 14.125H17.625C18.1773 14.125 18.625 13.6773 18.625 13.125V10.875C18.625 10.3227 18.1773 9.875 17.625 9.875H15.375Z" fill="currentColor"/>
<path d="M3 14.375C2.44772 14.375 2 14.8227 2 15.375V16.5C2 17.0523 2.44772 17.5 3 17.5H4.125C4.67728 17.5 5.125 17.0523 5.125 16.5V15.375C5.125 14.8227 4.67728 14.375 4.125 14.375H3Z" fill="currentColor"/>
<path d="M10.875 14.375C10.3227 14.375 9.875 14.8227 9.875 15.375V17.625C9.875 18.1773 10.3227 18.625 10.875 18.625H13.125C13.6773 18.625 14.125 18.1773 14.125 17.625V15.375C14.125 14.8227 13.6773 14.375 13.125 14.375H10.875Z" fill="currentColor"/>
<path d="M19.875 14.375C19.3227 14.375 18.875 14.8227 18.875 15.375V16.5C18.875 17.0523 19.3227 17.5 19.875 17.5H21C21.5523 17.5 22 17.0523 22 16.5V15.375C22 14.8227 21.5523 14.375 21 14.375H19.875Z" fill="currentColor"/>
<path d="M7.5 18.875C6.94772 18.875 6.5 19.3227 6.5 19.875V21C6.5 21.5523 6.94772 22 7.5 22H8.625C9.17728 22 9.625 21.5523 9.625 21V19.875C9.625 19.3227 9.17728 18.875 8.625 18.875H7.5Z" fill="currentColor"/>
<path d="M15.375 18.875C14.8227 18.875 14.375 19.3227 14.375 19.875V21C14.375 21.5523 14.8227 22 15.375 22H16.5C17.0523 22 17.5 21.5523 17.5 21V19.875C17.5 19.3227 17.0523 18.875 16.5 18.875H15.375Z" fill="currentColor"/>
</svg>
