<svg width="14" height="9" viewBox="0 0 14 9" fill="none" xmlns="http://www.w3.org/2000/svg">
<path d="M12.6416 4.1338C12.4647 4.44877 12.2649 4.75077 12.0441 5.03653C12.0815 4.98782 12.1204 4.93749 12.1578 4.88878C11.7746 5.38236 11.3314 5.82562 10.8361 6.20879C10.8848 6.17145 10.9352 6.13248 10.9839 6.09514C10.4935 6.47184 9.95613 6.78518 9.38625 7.02712C9.4447 7.00276 9.50315 6.97841 9.55998 6.95405C8.98522 7.19435 8.38122 7.35997 7.76262 7.4444C7.82756 7.43628 7.89251 7.42654 7.95745 7.41842C7.32097 7.50285 6.67479 7.50285 6.0367 7.41842C6.10165 7.42654 6.16659 7.43628 6.23154 7.4444C5.61293 7.35997 5.00893 7.19436 4.43418 6.95405C4.49263 6.97841 4.55108 7.00276 4.60791 7.02712C4.03802 6.78682 3.50059 6.47347 3.01027 6.09514C3.05898 6.13248 3.10931 6.17145 3.15802 6.20879C2.6628 5.82723 2.21957 5.38236 1.83637 4.88878C1.87371 4.93749 1.91268 4.98782 1.95002 5.03653C1.72921 4.75077 1.52951 4.44877 1.35253 4.1338V4.87092C1.5295 4.55595 1.72923 4.25395 1.95002 3.96819C1.91268 4.0169 1.87371 4.06723 1.83637 4.11594C2.21954 3.62235 2.6628 3.17909 3.15802 2.79592C3.10931 2.83327 3.05898 2.87223 3.01027 2.90958C3.50062 2.53288 4.03802 2.21954 4.60791 1.9776C4.54946 2.00196 4.49101 2.02631 4.43418 2.05066C5.00893 1.81036 5.61293 1.64475 6.23154 1.56031C6.16659 1.56843 6.10165 1.57817 6.0367 1.58629C6.67318 1.50186 7.31937 1.50186 7.95745 1.58629C7.89251 1.57817 7.82756 1.56843 7.76262 1.56031C8.38122 1.64474 8.98522 1.81035 9.55998 2.05066C9.50153 2.02631 9.44308 2.00195 9.38625 1.9776C9.95613 2.2179 10.4936 2.53125 10.9839 2.90958C10.9352 2.87223 10.8848 2.83327 10.8361 2.79592C11.3297 3.17749 11.7746 3.62235 12.1578 4.11594C12.1204 4.06723 12.0815 4.0169 12.0441 3.96819C12.2649 4.25395 12.4647 4.55595 12.6416 4.87092C12.7309 5.03004 12.9047 5.15831 13.0784 5.207C13.2537 5.25571 13.4859 5.23298 13.6418 5.13394C13.9795 4.91638 14.1045 4.49099 13.9032 4.13377C13.6304 3.64992 13.3025 3.19532 12.9388 2.7748C12.5751 2.35428 12.1627 1.98735 11.7227 1.64963C10.8865 1.00829 9.90258 0.54068 8.87809 0.290666C7.74966 0.0162715 6.5774 -0.00158937 5.43769 0.220849C4.88078 0.329633 4.34984 0.513104 3.82868 0.735543C3.36757 0.933627 2.92918 1.1788 2.5184 1.4678C1.6108 2.10752 0.839558 2.91284 0.255065 3.85779C0.224215 3.90812 0.193368 3.95845 0.164141 4.00879C0.147905 4.03639 0.131667 4.06399 0.117057 4.08997C0.0261337 4.24908 -0.0177054 4.41308 0.00664874 4.59653C0.0342506 4.80435 0.157645 4.98783 0.268054 5.16318C0.415806 5.40023 0.578159 5.62428 0.748665 5.84511C1.06851 6.25913 1.42086 6.64556 1.81864 6.98652C2.66618 7.71714 3.64521 8.27082 4.71682 8.59879C5.7949 8.93001 6.9412 9.00957 8.05657 8.85857C9.14278 8.71245 10.1949 8.34388 11.1267 7.76426C12.0733 7.17973 12.8754 6.40202 13.5135 5.48955C13.6531 5.28984 13.783 5.08364 13.9015 4.87094C13.9957 4.70371 14.0266 4.49425 13.9746 4.30753C13.9275 4.13867 13.7976 3.95358 13.6385 3.87077C13.2959 3.68893 12.8413 3.77822 12.6416 4.1338L12.6416 4.1338Z" fill="currentColor"/>
<path d="M8.00478 4.50227C8.00478 4.57696 7.99991 4.65165 7.99017 4.72634C7.99829 4.66139 8.00803 4.59645 8.01615 4.5315C7.99504 4.68412 7.95608 4.83187 7.89762 4.97313C7.92198 4.91468 7.94633 4.85623 7.97069 4.7994C7.91223 4.93741 7.83755 5.0673 7.74825 5.18584C7.78559 5.13713 7.82456 5.08679 7.8619 5.03808C7.76611 5.16148 7.65732 5.27189 7.53392 5.36606C7.58263 5.32872 7.63296 5.28975 7.68167 5.25241C7.56153 5.34333 7.43326 5.41802 7.29524 5.47485C7.35369 5.45049 7.41214 5.42614 7.46897 5.40178C7.32609 5.46024 7.17996 5.4992 7.02734 5.52031C7.09229 5.51219 7.15723 5.50245 7.22218 5.49433C7.0728 5.51219 6.92181 5.51219 6.77244 5.49433C6.83739 5.50245 6.90233 5.51219 6.96728 5.52031C6.81466 5.4992 6.66691 5.46024 6.52565 5.40178C6.5841 5.42614 6.64255 5.45049 6.69938 5.47485C6.56137 5.41639 6.43148 5.34171 6.31294 5.25241C6.36165 5.28975 6.41199 5.32872 6.4607 5.36606C6.3373 5.27027 6.22689 5.16148 6.13272 5.03808C6.17006 5.08679 6.20903 5.13712 6.24637 5.18584C6.15545 5.06569 6.08076 4.93742 6.02393 4.7994C6.04829 4.85785 6.07264 4.9163 6.097 4.97313C6.03854 4.83025 5.99958 4.68412 5.97847 4.5315C5.98659 4.59645 5.99633 4.66139 6.00445 4.72634C5.98659 4.57696 5.98659 4.42597 6.00445 4.2766C5.99633 4.34155 5.98659 4.40649 5.97847 4.47144C5.99958 4.31882 6.03854 4.17107 6.097 4.02981C6.07264 4.08826 6.04829 4.14671 6.02393 4.20354C6.08239 4.06553 6.15707 3.93564 6.24637 3.8171C6.20903 3.86581 6.17006 3.91614 6.13272 3.96486C6.22851 3.84146 6.3373 3.73105 6.4607 3.63688C6.41199 3.67422 6.36166 3.71319 6.31294 3.75053C6.43309 3.65961 6.56136 3.58492 6.69938 3.52809C6.64093 3.55245 6.58248 3.5768 6.52565 3.60116C6.66853 3.5427 6.81466 3.50374 6.96728 3.48263C6.90233 3.49075 6.83739 3.50049 6.77244 3.50861C6.92182 3.49075 7.07281 3.49075 7.22218 3.50861C7.15723 3.50049 7.09229 3.49075 7.02734 3.48263C7.17996 3.50374 7.32771 3.5427 7.46897 3.60116C7.41052 3.5768 7.35207 3.55245 7.29524 3.52809C7.43325 3.58655 7.56314 3.66123 7.68167 3.75053C7.63297 3.71319 7.58263 3.67422 7.53392 3.63688C7.65732 3.73267 7.76773 3.84146 7.8619 3.96486C7.82456 3.91615 7.78559 3.86582 7.74825 3.8171C7.83917 3.93725 7.91386 4.06552 7.97069 4.20354C7.94633 4.14509 7.92198 4.08664 7.89762 4.02981C7.95608 4.17269 7.99504 4.31882 8.01615 4.47144C8.00803 4.40649 7.99829 4.34155 7.99017 4.2766C7.99991 4.35291 8.00478 4.4276 8.00478 4.50229C8.00641 4.69063 8.08597 4.88546 8.21911 5.01862C8.34575 5.14526 8.55358 5.24105 8.73543 5.23294C8.92377 5.22482 9.12023 5.16312 9.25176 5.01862C9.38327 4.87574 9.4677 4.69877 9.46608 4.50229C9.46283 4.02168 9.32482 3.51675 9.04232 3.12221C8.88158 2.89653 8.71111 2.71467 8.49355 2.54582C8.2776 2.37859 8.05515 2.26331 7.79864 2.16752C7.56808 2.08147 7.31156 2.04413 7.06638 2.03438C6.82121 2.02464 6.5663 2.05711 6.33089 2.12368C6.10196 2.18863 5.86978 2.28767 5.67006 2.42081C5.47523 2.54908 5.28689 2.70008 5.1375 2.88192C5.04495 2.99557 4.9524 3.11247 4.87609 3.23751C4.79978 3.36577 4.74295 3.50378 4.68613 3.64015C4.59358 3.86746 4.55461 4.10939 4.53351 4.35454C4.5124 4.60295 4.54325 4.86273 4.6017 5.10467C4.6569 5.33522 4.7527 5.56254 4.87447 5.76549C4.99624 5.96682 5.15049 6.16327 5.32584 6.31914C5.50119 6.47501 5.69603 6.6195 5.91036 6.71531C6.04675 6.77701 6.18475 6.83709 6.32764 6.87768C6.4754 6.91989 6.62801 6.93775 6.78064 6.95561C7.02744 6.98484 7.2791 6.95724 7.52264 6.91015C7.75969 6.86469 7.99348 6.7689 8.20294 6.65199C8.40752 6.53834 8.59911 6.39059 8.76145 6.22174C8.92544 6.05125 9.07482 5.85317 9.18034 5.64211C9.2875 5.42779 9.37842 5.20048 9.41414 4.96181C9.4385 4.80757 9.4596 4.65494 9.46123 4.49907C9.46285 4.31236 9.37842 4.11427 9.24691 3.98275C9.12026 3.8561 8.91243 3.76031 8.73058 3.76843C8.33767 3.78953 8.00806 4.09317 8.00483 4.50232L8.00478 4.50227Z" fill="currentColor"/>
</svg>
