<svg width="24" height="24" viewBox="0 0 24 24" fill="none" xmlns="http://www.w3.org/2000/svg">
<path fill-rule="evenodd" clip-rule="evenodd" d="M13.4884 16.6653C10.9281 16.5438 8.99527 15.6942 7.72752 14.349C6.07399 12.5945 5.73067 10.1802 6.42528 8.04107C7.12122 5.8979 8.86221 3.99144 11.4293 3.14278C14.0021 2.29224 17.2989 2.53363 21.0995 4.45619C21.5923 4.70549 21.7897 5.30709 21.5404 5.79991C21.2911 6.29273 20.6895 6.49014 20.1967 6.24085C16.7497 4.49714 14.009 4.39639 12.0571 5.0417C10.3445 5.60785 9.15743 6.77106 8.55169 8.08612C10.521 6.95185 12.4615 6.50154 14.2283 6.62305C16.6053 6.78653 18.5905 7.98495 19.7643 9.78151C20.9397 11.5803 21.2657 13.922 20.4468 16.3024C19.6297 18.6775 17.6981 21.0339 14.4555 22.9928C13.9827 23.2784 13.368 23.1267 13.0824 22.654C12.7969 22.1813 12.9486 21.5665 13.4213 21.281C16.3646 19.5029 17.9256 17.4828 18.5556 15.6518C19.0961 14.0805 18.9696 12.6069 18.4005 11.4256C18.2678 13.698 17.4131 15.5912 16.1185 17.0107C14.326 18.9762 11.7402 19.9757 9.25751 19.8443C6.75112 19.7116 4.32779 18.4195 2.97911 15.81C1.64543 13.2296 1.44473 9.52529 2.96205 4.68155C3.12714 4.15452 3.68822 3.86111 4.21525 4.02621C4.74228 4.1913 5.03569 4.75238 4.8706 5.27941C3.44358 9.8349 3.75091 12.9473 4.75584 14.8917C5.74577 16.8071 7.49164 17.748 9.36324 17.8471C10.7803 17.9221 12.2564 17.5107 13.4884 16.6653ZM15.4187 14.6177C12.1901 14.9231 10.2275 14.0856 9.183 12.9773C8.59532 12.3537 8.24559 11.5903 8.12898 10.7753C10.3409 9.06861 12.4125 8.50289 14.0911 8.61834C14.908 8.67452 15.6483 8.89204 16.2896 9.23406C16.6459 11.4555 16.2368 13.2543 15.4187 14.6177Z" fill="currentColor"/>
</svg>
