<svg width="24" height="24" viewBox="0 0 24 24" fill="none" xmlns="http://www.w3.org/2000/svg">
<path fill-rule="evenodd" clip-rule="evenodd" d="M15.7539 5.34875C13.0397 2.83955 10.1076 2.20162 7.41237 2.77037C7.15883 2.65138 6.8698 2.50665 6.54755 2.34528L6.43354 2.2882C5.94652 2.04448 5.40174 1.7742 4.87333 1.54881C4.35594 1.32812 3.7907 1.12223 3.26798 1.03958C2.79784 0.965238 2.02819 0.938383 1.47544 1.51436C0.960409 2.05104 0.955014 2.73576 1.04391 3.21167C1.13446 3.69646 1.35453 4.17573 1.58161 4.5782C2.03522 5.38214 2.67663 6.15484 3.05614 6.49845C3.28739 6.70782 3.45277 6.90054 3.58564 7.17232C3.72422 7.45576 3.8547 7.88221 3.92466 8.58644C4.01309 9.47659 4.26056 10.3864 4.55221 11.145C4.83086 11.8699 5.20004 12.5886 5.60013 13.0081C5.61699 13.0257 5.6345 13.0428 5.65261 13.0592C5.65261 13.0592 5.66303 13.0689 5.68158 13.0905C5.69937 13.1113 5.72023 13.1381 5.74174 13.1695C5.78369 13.2308 5.81679 13.2929 5.83733 13.3459C5.60998 13.6344 5.38281 14.0544 5.19952 14.5322C4.98466 15.0924 4.80342 15.8003 4.75805 16.6028C4.6658 18.2342 5.14034 20.2128 6.92563 22.0514C7.24342 22.3786 7.5748 22.662 7.9223 22.8298C8.29143 23.008 8.8336 23.1175 9.34481 22.789C9.7688 22.5165 9.93575 22.0782 10.0109 21.8242C10.0963 21.5356 10.1381 21.2155 10.1641 20.927C10.1809 20.7402 10.1929 20.5434 10.2029 20.3489C10.7222 20.972 11.3378 21.6091 11.9685 22.1273C12.3952 22.478 13.0254 22.4163 13.376 21.9896C13.7266 21.5629 13.665 20.9327 13.2383 20.5821C12.6256 20.0786 11.9975 19.4077 11.4959 18.7675C10.9649 18.0897 10.6802 17.5785 10.625 17.3896C10.5213 17.0345 10.23 16.7657 9.86773 16.6907C9.50546 16.6158 9.13141 16.7469 8.89529 17.0317C8.64054 17.3389 8.50932 17.705 8.43209 18.0072C8.35173 18.3216 8.30758 18.6589 8.27911 18.9746C8.25043 19.2927 8.23496 19.6229 8.22105 19.9222L8.22074 19.9288C8.21157 20.1263 8.20306 20.3093 8.19235 20.479C6.97009 19.1322 6.69434 17.786 6.75486 16.7157C6.78721 16.1436 6.91708 15.639 7.06684 15.2485C7.14156 15.0538 7.21899 14.8933 7.28706 14.7723C7.32101 14.7119 7.35102 14.6642 7.37527 14.6289C7.38729 14.6113 7.39714 14.5979 7.40457 14.5883C7.41214 14.5785 7.41593 14.5743 7.41593 14.5743C7.99898 13.9221 7.89146 13.143 7.72164 12.675C7.56154 12.2337 7.28159 11.8492 7.03323 11.6122C6.90929 11.4714 6.66403 11.0647 6.41901 10.4274C6.17724 9.79844 5.98205 9.06502 5.91487 8.38873C5.82921 7.52653 5.65525 6.85194 5.38239 6.29386C5.10384 5.72411 4.7508 5.33483 4.39848 5.01585C4.19443 4.83109 3.68299 4.23256 3.32347 3.59539C3.20093 3.3782 3.11471 3.18868 3.06199 3.03488C3.32555 3.09087 3.67132 3.21044 4.08865 3.38845C4.55371 3.58681 5.04767 3.83112 5.53849 4.07675L5.6656 4.1404C6.1005 4.35829 6.54103 4.579 6.91299 4.7391C7.11458 4.82587 7.33912 4.84391 7.55198 4.79044C9.66858 4.25876 12.0473 4.64583 14.3963 6.81734C16.791 9.03123 19.1806 13.1313 21.0764 20.0712C21.2219 20.604 21.7718 20.9179 22.3046 20.7723C22.8373 20.6268 23.1512 20.0769 23.0057 19.5442C21.0633 12.4335 18.5394 7.92386 15.7539 5.34875Z" fill="currentColor"/>
<path d="M8.90105 6.14333C8.42722 5.8596 7.81309 6.01371 7.52936 6.48754C7.24564 6.96137 7.39975 7.5755 7.87358 7.85922C8.02705 7.95112 8.10531 8.00065 8.15452 8.03645L8.15872 8.049C8.18235 8.12126 8.20966 8.22782 8.25586 8.42379C8.38259 8.96134 8.92109 9.29438 9.45864 9.16765C9.99619 9.04093 10.3292 8.50243 10.2025 7.96488L10.1917 7.91882C10.1169 7.59995 10.0243 7.20537 9.79133 6.87495C9.54778 6.52958 9.20096 6.32245 8.93637 6.16444L8.90105 6.14333Z" fill="currentColor"/>
</svg>
