<svg width="24" height="24" viewBox="0 0 24 24" fill="none" xmlns="http://www.w3.org/2000/svg">
<path d="M11.9998 1C12.2905 1 12.5667 1.12646 12.7567 1.34646C16.1242 5.24649 17.1326 8.92536 16.9824 12.052C16.8338 15.1473 15.556 17.5868 14.5443 19.0595C14.3028 19.4111 13.8648 19.5708 13.4536 19.4571C13.0424 19.3434 12.7486 18.9814 12.722 18.5557L11.9998 7L11.2776 18.5556C11.251 18.9814 10.9572 19.3434 10.546 19.4571C10.1348 19.5708 9.69681 19.4111 9.45526 19.0595C8.44363 17.5868 7.16583 15.1473 7.01721 12.0519C6.86708 8.92532 7.87542 5.24647 11.2429 1.34646C11.4329 1.12646 11.7092 1 11.9998 1Z" fill="currentColor"/>
<path d="M12.9998 20C12.9998 19.4477 12.5521 19 11.9998 19C11.4475 19 10.9998 19.4477 10.9998 20V22C10.9998 22.5523 11.4475 23 11.9998 23C12.5521 23 12.9998 22.5523 12.9998 22V20Z" fill="currentColor"/>
</svg>
