<svg width="180" height="206" viewBox="0 0 180 206" fill="none" xmlns="http://www.w3.org/2000/svg">
<path opacity="0.33" d="M0 105.999L46.6768 181.085L46.6855 181.076L63.1152 152.54L93.9847 206L130.316 143.08L142.766 164.708L180 106L170.365 105.999L142.774 149.91L134.577 135.716L151.411 105.999H141.961L129.97 127.73L117.449 105.999H108.761L125.731 135.085L93.9935 190.053L67.7181 144.553L89.9146 105.999H81.3959L63.5975 137.417L45.2263 105.999H35.9086L58.9948 145.386L46.6855 166.698L7.70068 105.999H0Z" fill="#F68254"/>
<path d="M162.37 75.377C165.71 72.4489 168.139 68.5652 169.304 64.2169C170.883 58.3519 170.076 52.2239 167.043 46.9638C164.009 41.7037 159.109 37.9427 153.244 36.3735C151.306 35.8562 149.325 35.5932 147.335 35.5932C144.906 35.5932 142.469 36.0053 140.146 36.7855L133.317 24.924L116.888 53.46L86.0199 0L49.6902 62.9194L37.2414 41.2917L0 105.999H180L162.37 75.377ZM147.335 42.7733C148.694 42.7733 150.061 42.9574 151.394 43.308C155.392 44.3688 158.74 46.9375 160.827 50.5406C162.905 54.135 163.457 58.3256 162.379 62.3408C161.695 64.8744 160.432 67.1187 158.688 68.9685L143.846 43.1853C144.994 42.9135 146.178 42.7733 147.344 42.7733H147.335ZM12.8083 98.6003L37.2326 56.09L45.4296 70.2835L29.2022 98.6003H12.8083ZM50.0321 78.2613L61.4465 98.6003H38.6178L50.0321 78.2613ZM69.8802 98.6003L54.2753 70.9147L86.0111 15.9468L112.285 61.4465L91.2186 98.6003H69.8802ZM116.406 68.5827L133.404 98.6003H99.4068L116.406 68.5827ZM142.943 98.6003L121.008 60.6137L133.317 39.3016L167.551 98.6003H142.943Z" fill="url(#paint0_linear_10869_73540)"/>
<defs>
<linearGradient id="paint0_linear_10869_73540" x1="13" y1="98" x2="131.5" y2="21.5001" gradientUnits="userSpaceOnUse">
<stop stop-color="#AC3100"/>
<stop offset="1" stop-color="#FF7E1A"/>
</linearGradient>
</defs>
</svg>
