<?xml version="1.0" encoding="utf-8"?>
<svg version="1.1" id="Capa_1" xmlns="http://www.w3.org/2000/svg" xmlns:xlink="http://www.w3.org/1999/xlink" x="0px" y="0px"
	 width="99.65px" height="90.45px" viewBox="0 0 99.65 90.45" enable-background="new 0 0 99.65 90.45" xml:space="preserve">
<g>
	<g>
		<g>
			<circle fill="none" cx="50.28" cy="45.18" r="41.43"/>
			<g>
				<circle fill="none" cx="50.31" cy="45.06" r="40.17"/>
			</g>
		</g>
		<g>
			<defs>
				<circle id="SVGID_1_" cx="50.31" cy="45.06" r="40.17"/>
			</defs>
			<clipPath id="SVGID_2_">
				<use xlink:href="#SVGID_1_"  overflow="visible"/>
			</clipPath>
			<g clip-path="url(#SVGID_2_)">
				<g>
					<path fill="#FDFDFD" d="M32.64,18.05c0.64-0.74,1.83-1.25,2.41-0.69s0.73,1.63,0.18,2.35c-0.45,0.59-1.99,1.26-2.73,0.51
						C31.82,19.52,32.24,18.52,32.64,18.05z"/>
					<g>
						<path fill="#FDFDFD" d="M82.84,57.29c3.29,1.48,9.17-0.04,10.71-1.01c1.81-1.14,1.63-2.97-0.57-4.03s-29.83-11.04-31.32-11.6
							c0.32-0.9-0.31-2.64-1.24-3.08c-0.75-0.35-9.98-3.86-16.6-6.56c-1.82-0.74-4.28-2.16-4.7-4.54c-0.79,3.45,1.67,5.3,2.99,5.88
							c1.58,0.69,15.83,6.47,16.95,6.98c0.67,0.31,0.89,1.54,0.39,2.61c4.7,1.76,29.94,11.07,31.1,11.65
							c1.16,0.58,1.27,1.18-0.01,1.48c-1.72,0.39-4.58,1.07-7.99-0.32c-2.15-0.88-16.92-6.79-19.57-7.72
							c2.05,1.2,14.05,7.26,16.73,8.56c-1.92,1.38-12.7-1.11-15.78-2.89C70.11,58.55,81.27,58.84,82.84,57.29z M54.42,48.51
							c2.27,0.67,5.04-0.08,6.55-1.93c-4.03,1.6-18.98-4.43-20.1-12.98c-0.55,4.58,1.89,7.81,3.47,9.01
							c-1.16,1.02-1.67,2.55-1.53,4.22c-1.68-0.84-2.97-4.63-2.73-7c-1.4,0.63-1.92,1.52-2.63,2.78c-0.48-2.2,0.11-4.66,1.27-5.8
							c-0.76-0.23-1.6-0.27-2.26-0.15c0.33-0.91,1.13-2,2.62-3.02c-1.95,0.15-4.99,1.99-5.45,4.8c0.87-0.2,2.06-0.07,2.74,0.14
							c-0.88,2.07-0.89,5.48,0.91,8.17c0.11-0.95,0.67-2.69,1.78-3.51c-0.19,2.5,1.6,6.6,5.36,7.38c-0.04-1.37,0.1-2.96,0.71-4.03
							c1.66,6.44,5.4,8.99,9.35,8.68c-1.57-0.9-3.52-2.77-3.76-5.6c2.57,4.08,12.72,6.85,15.38,5.68
							C61.73,54.33,55.93,51.7,54.42,48.51z M49.59,13.1c1.4-0.05,2.09,0.01,2.74,0.1c-6.05,2.63-11.06,3.52-13.06,6.55
							c-0.31-0.83,0.03-2.37,0.72-3.46c-2.2,0.86-3.08,3.44-2.62,6.87c-1.57,2.33-1.92,5.66,0.8,9.17
							c-2.63-8.75,5.49-12.68,15.61-17.18c-0.87-0.38-2.57-0.46-2.57-0.46c0.86-0.55,2-1.23,3.32-1.81
							c-1.53-0.39-3.35-0.79-6.15-0.76L49.59,13.1z M58.03,63.2c0.49,0.84,2.34,1.46,3.99,1.25c-0.67,2.37-4.65,3.16-6.59,2.74
							c5.1,5.63,4.1,12.74,13.1,11.96c-5.08-0.84-7.15-6.57-7.5-9.58c2.09,2.61,5.45,3.63,7.67,3.6c-1.27-2.4-1.98-4.58-2.12-7.51
							c8,5.38,15.48,7.65,22.08,9.74c1.15,0.36,0.82,1.49,0.05,1.86c-3.23,1.59-13.81,0.84-17.63-4c2.47,4.85,8.01,6.1,13.66,6.82
							c0.03,0.33,0.06,2.33-1.96,2.13c-3.74-0.38-10.56-1.01-14.46-6.91c1.61,6.45,12.01,8.88,15.13,9.73
							c1.44,0.39,3.45,0.37,4.17-4.85c1.9-0.37,3.47-1.39,4.14-2.22c0.69-0.86,2.18-3.81-0.55-4.33c-3.15-0.6-14.39-4.04-22.01-9.14
							c-3.35-2.25-3.4-5.37-6.17-7.72C64.25,61.41,60.9,63.09,58.03,63.2z M53.62,57.08c2,6.01-0.9,7.25-3.8,7.08
							c-2.99-0.17-4.4-1.79-4.92-5.1c1.37,0.06,3.3-0.32,4.52-1.4c-14.16-1.66-24.17-13.74-24-18.72c1.44,1.49,4.92,1.98,6.81-0.01
							c-2.48-0.62-4.61-3.56-4.37-6.17c1.86,1.56,4,0.72,4.79-0.93c-3.64,0.76-7.1-4.85-5.02-10.77c1.97-5.62,7.44-7.44,10.87-6.73
							c-0.36,0.52-0.54,1.29-0.23,2.22c0.95-1.57,2.99-2.44,5.7-2.93l-1.23-1.01c-0.85,0.13-1.61,0.38-2.49,0.76
							c-3.91-1.72-12.49-0.47-18.24,10.4c0.92-0.75,2.1-1.23,2.52-1.27c-1.55,2.4-3.41,6.41-3.99,9.81
							c0.66-0.61,1.62-1.14,2.45-1.35c-2.22,9.27,3.81,19.23,10.84,23.42c-0.21,2.07,0.36,3.24,2.2,5.31
							c-0.15,0.21-0.7,0.92-1.02,1.37c-0.17,0.24-0.44,0.62-0.97,0.51c-0.93-0.19-12.96-3.55-14.03-4.38
							c-0.52-2.46-3.84-4.91-6.51-3.71c-1.13-0.29-1.65,0.44-1.89,1.01c0.65-0.41,1.41-0.21,1.76,0.13c0.4,1.17,2.57-1.04,4.39,2.18
							c-1.13-0.34-5.1-1.19-5.65,0.02c-0.5,0.05-1.28,0.06-1.56,1.13c0.63-0.29,1.13-0.32,1.57-0.19c0.71,1.09,5.55-0.32,8.04,1.82
							c2.18,2.23,0.62,3.42,2.09,4.06c-0.06,0.77-0.65,0.97-1.22,1.11c0.75,0.41,1.79,0.41,2.25-0.81c1.37-0.32,0.34-3.27-1.12-4.11
							c2.77,1.01,9.82,3.05,11.79,3.46c1.01,0.21,1.77-0.01,2.23-0.63c0.34-0.46,0.88-1.01,1.34-1.71c1.03,0.79,1.79,0.92,2.68,0.78
							c-0.21-1.71,0.38-3.21,1.44-3.96c0.58,6.44,3.56,9.26,7.13,9.36c0.57,0.63,2.49,4.16,2.7,4.55c0.19,0.35,0.48,1.03,0.03,1.26
							c-0.76,0.4-10.09,2.57-13.05,3.29c-1.48-1.31-6.3-2.93-6.99-0.14c-1.02,0.79-1.01,1.6-0.37,2.31
							c-0.08-0.91,0.15-1.07,0.93-1.69c1.2,0.58,1.62-1.23,4.45,0.31c-2.4,0.89-4.97,2-4.37,4.04c-0.36,0.43-0.29,1.51-0.08,2.16
							c0.41-0.38,0.65-0.89,0.83-1.69c1.1,0.32,0.2-1.47,5.61-3.27c3.38,0.95,3.9,3.34,4.83,3.41c0.5,0.69,0.07,1.52-0.47,2.03
							c1.48-0.01,1.92-1.44,1.4-2.23c1.2-1.9-2.25-3.74-3.53-3.8c2.7-0.72,11.02-2.69,12.45-3.36c1.13-0.53,1.19-1.54,0.49-2.73
							c-0.3-0.52-1.87-3.76-2.24-4.43C57.73,66.31,56.52,59.04,53.62,57.08z"/>
						<path fill="#FDFDFD" d="M81.24,29.92c-0.16-4.17-2.79-4.84-4.55-4.98c-0.92-0.07-1.47-0.07-2.03-0.1
							c-1.86-1.34-5.34-3.15-5.8-3.45c-0.54-0.35-1.56-0.93-2.89-1.16c1-0.09,1.5-0.35,1.81-0.6c0.31-0.25,0.41-0.43,0.84-0.56
							c0.43-0.13,0.25-0.7-0.23-1.01c-0.48-0.32-0.78-0.77-1.15,0.04c-0.37,0.81-0.89,0.94-1.5,0.97c-0.61,0.03-0.77,0.89-1.3,0.93
							c-3.85,0.27-8.64-1.84-11.37-3.4l-1.44,0.79c1.54,0.88,3.51,1.77,3.98,1.94c0.7,0.25,3.21,1.28,3.94,1.37
							c-0.47,3.65-0.08,5.29,0.41,7.6c0.13,0.58,0.41,1.85-0.73,2.39c1.22,1.03,2.2-0.9,2.57-0.47c0.36,0.43,1.02,0.31,1.02,0.31
							c-2.79-3.96-2.36-6.03-2.29-9.53c4.61,0.12,7.22,1.1,8.74,1.98c1.89,1.09,4.31,2.18,5.84,2.77c2.9,1.13,3.78,4.22,3.68,6.42
							c-1.09-4.41-4.33-5.36-5.61-5.76c-2.83,3.27-0.77,6.89,1.97,7.85c2.19,0.77,4.63,1.81,5.08,3.96
							C81.07,36.02,81.4,34.1,81.24,29.92z"/>
					</g>
				</g>
				<path fill="#FDFDFD" d="M44.99,12.92c-2.98-2.66-5.42-3.27-6.6-2.12c-0.84,0.82-1.78-0.67-1.68-1.15
					c0.24-1.15,1.32-0.47,2.45-0.77c2.63-0.69,8.08,3.7,8.08,3.7l2.22,1.86l-1.77,0.77L44.99,12.92z"/>
			</g>
		</g>
	</g>
</g>
<path fill="#FFFFFF" d="M48.28,3.75C25.4,3.75,6.85,22.3,6.85,45.18c0,22.88,18.55,41.43,41.43,41.43
	c22.88,0,41.43-18.55,41.43-41.43C89.71,22.3,71.16,3.75,48.28,3.75z M48.28,85.35C26.09,85.35,8.1,67.37,8.1,45.18
	C8.1,23,26.09,5.01,48.28,5.01c22.19,0,40.17,17.98,40.17,40.17C88.45,67.37,70.46,85.35,48.28,85.35z"/>
</svg>
