<svg width="57" height="54" viewBox="0 0 57 54" fill="none" xmlns="http://www.w3.org/2000/svg">
  <path d="M54.1801 26.65C54.1801 41.37 42.2501 53.31 27.5301 53.31C12.8101 53.31 0.870117 41.38 0.870117 26.65C0.870117 11.93 12.8001 6.27682e-06 27.5301 6.27682e-06C42.2401 -0.00999372 54.1801 11.93 54.1801 26.65Z" fill="white"/>
  <path d="M53.3699 26.57C53.3699 40.84 41.7899 52.41 27.5199 52.41C13.2499 52.41 1.66992 40.84 1.66992 26.56C1.66992 12.29 13.2399 0.709961 27.5199 0.709961C41.7899 0.719961 53.3699 12.29 53.3699 26.57Z" fill="url(#paint0_linear_15_151)"/>
  <path opacity="0.12" d="M27.5397 1.57996C41.6697 1.57996 53.1397 12.92 53.3697 26.99C53.3697 26.85 53.3797 26.7 53.3797 26.56C53.3797 12.29 41.8097 0.709961 27.5297 0.709961C13.2597 0.709961 1.67969 12.28 1.67969 26.56C1.67969 26.7 1.68969 26.85 1.68969 26.99C1.93969 12.92 13.4097 1.57996 27.5397 1.57996Z" fill="#822000"/>
  <path d="M16.1698 9.19002C16.5798 8.71002 17.3498 8.39002 17.7198 8.75002C18.0898 9.11002 18.1898 9.80002 17.8298 10.26C17.5398 10.64 16.5498 11.07 16.0798 10.59C15.6498 10.14 15.9098 9.50002 16.1698 9.19002Z" fill="white"/>
  <path d="M48.47 34.44C50.59 35.4 54.37 34.41 55.36 33.79C56.52 33.06 56.41 31.88 54.99 31.2C53.58 30.52 35.8 24.1 34.84 23.74C35.05 23.16 34.64 22.04 34.04 21.76C33.56 21.53 27.62 19.28 23.36 17.54C22.19 17.06 20.6 16.15 20.34 14.62C19.83 16.84 21.41 18.03 22.26 18.4C23.27 18.84 32.45 22.56 33.17 22.89C33.6 23.09 33.74 23.88 33.42 24.57C36.45 25.7 52.68 31.69 53.43 32.07C54.18 32.44 54.25 32.83 53.42 33.02C52.32 33.27 50.47 33.71 48.28 32.81C46.89 32.24 37.4 28.44 35.69 27.84C37.01 28.61 44.73 32.51 46.45 33.35C45.22 34.24 38.28 32.64 36.3 31.49C40.28 35.25 47.46 35.43 48.47 34.44ZM30.19 28.79C31.65 29.22 33.43 28.74 34.41 27.55C31.82 28.58 22.2 24.7 21.48 19.2C21.13 22.15 22.7 24.23 23.71 25C22.96 25.66 22.64 26.64 22.73 27.72C21.65 27.18 20.82 24.74 20.98 23.22C20.08 23.62 19.74 24.2 19.29 25.01C18.98 23.59 19.36 22.01 20.1 21.28C19.61 21.13 19.07 21.11 18.64 21.18C18.85 20.59 19.37 19.89 20.33 19.24C19.07 19.33 17.12 20.52 16.83 22.33C17.39 22.2 18.15 22.29 18.6 22.42C18.03 23.75 18.03 25.94 19.19 27.68C19.26 27.07 19.62 25.95 20.33 25.42C20.21 27.03 21.36 29.67 23.78 30.17C23.76 29.29 23.85 28.27 24.24 27.58C25.31 31.72 27.72 33.36 30.26 33.16C29.25 32.58 28 31.38 27.84 29.56C29.49 32.18 36.03 33.97 37.73 33.22C34.89 32.53 31.16 30.84 30.19 28.79ZM27.08 6.00998C27.98 5.97998 28.43 6.01998 28.85 6.06998C24.96 7.75998 21.74 8.33998 20.45 10.29C20.25 9.74998 20.47 8.76998 20.91 8.05998C19.49 8.60998 18.93 10.27 19.22 12.48C18.21 13.98 17.98 16.12 19.74 18.38C18.05 12.75 23.27 10.22 29.78 7.32998C29.22 7.08998 28.12 7.02998 28.12 7.02998C28.68 6.67998 29.41 6.23998 30.26 5.85998C29.28 5.60998 28.11 5.34998 26.3 5.36998L27.08 6.00998ZM32.51 38.24C32.82 38.78 34.01 39.18 35.08 39.04C34.65 40.56 32.09 41.08 30.84 40.81C34.12 44.43 33.48 49.01 39.27 48.5C36 47.96 34.67 44.27 34.45 42.34C35.79 44.02 37.95 44.68 39.39 44.66C38.57 43.12 38.11 41.71 38.02 39.83C43.17 43.29 47.98 44.75 52.23 46.09C52.97 46.32 52.76 47.05 52.26 47.29C50.18 48.31 43.38 47.83 40.92 44.71C42.51 47.83 46.08 48.64 49.71 49.1C49.73 49.31 49.75 50.6 48.45 50.47C46.04 50.23 41.66 49.82 39.14 46.03C40.18 50.18 46.87 51.75 48.87 52.29C49.8 52.54 51.09 52.53 51.55 49.17C52.78 48.93 53.78 48.28 54.21 47.74C54.65 47.19 55.61 45.29 53.86 44.95C51.83 44.56 44.6 42.35 39.7 39.07C37.54 37.63 37.51 35.62 35.73 34.1C36.51 37.09 34.35 38.17 32.51 38.24ZM29.67 34.3C30.96 38.17 29.09 38.96 27.23 38.85C25.31 38.74 24.4 37.7 24.07 35.57C24.95 35.61 26.19 35.36 26.98 34.67C17.87 33.6 11.43 25.83 11.54 22.63C12.46 23.59 14.71 23.91 15.92 22.62C14.32 22.22 12.95 20.33 13.11 18.65C14.31 19.65 15.68 19.11 16.19 18.05C13.85 18.54 11.62 14.93 12.96 11.12C14.23 7.49998 17.74 6.33998 19.95 6.78998C19.72 7.12998 19.61 7.61998 19.8 8.21998C20.41 7.20998 21.72 6.64998 23.47 6.33998L22.68 5.68998C22.13 5.76998 21.65 5.92998 21.08 6.17998C18.56 5.06998 13.05 5.87998 9.33998 12.87C9.92998 12.39 10.69 12.08 10.96 12.05C9.95998 13.59 8.75998 16.18 8.38998 18.36C8.81998 17.97 9.42998 17.63 9.96998 17.49C8.53998 23.46 12.42 29.86 16.95 32.56C16.82 33.89 17.18 34.64 18.37 35.98C18.28 36.12 17.92 36.57 17.71 36.86C17.6 37.01 17.43 37.26 17.09 37.19C16.49 37.07 8.74998 34.91 8.05998 34.37C7.71998 32.79 5.58998 31.21 3.86998 31.99C3.13998 31.8 2.80998 32.27 2.65998 32.64C3.07998 32.38 3.55998 32.51 3.78998 32.72C4.04998 33.48 5.43998 32.05 6.61998 34.12C5.88998 33.9 3.33998 33.36 2.97998 34.13C2.65998 34.16 2.14998 34.17 1.97998 34.86C2.38998 34.68 2.70998 34.65 2.98998 34.74C3.44998 35.44 6.55998 34.53 8.15998 35.91C9.55998 37.35 8.55998 38.11 9.50998 38.52C9.46998 39.01 9.08998 39.15 8.72998 39.23C9.20998 39.49 9.87998 39.49 10.18 38.71C11.06 38.51 10.4 36.61 9.45998 36.07C11.24 36.72 15.78 38.03 17.04 38.29C17.69 38.43 18.18 38.29 18.47 37.88C18.69 37.58 19.04 37.23 19.33 36.78C20 37.29 20.48 37.37 21.05 37.28C20.92 36.18 21.3 35.21 21.98 34.73C22.35 38.87 24.27 40.69 26.57 40.75C26.93 41.15 28.17 43.43 28.3 43.68C28.42 43.91 28.61 44.34 28.32 44.49C27.83 44.75 21.83 46.14 19.92 46.61C18.97 45.77 15.87 44.73 15.42 46.52C14.76 47.03 14.77 47.55 15.18 48.01C15.13 47.42 15.28 47.32 15.78 46.92C16.55 47.3 16.82 46.13 18.64 47.12C17.09 47.7 15.44 48.41 15.83 49.72C15.6 49.99 15.65 50.69 15.78 51.11C16.05 50.87 16.2 50.54 16.31 50.02C17.02 50.22 16.44 49.07 19.92 47.92C22.09 48.53 22.43 50.07 23.03 50.11C23.35 50.55 23.07 51.09 22.73 51.41C23.68 51.41 23.96 50.48 23.63 49.97C24.4 48.74 22.18 47.57 21.36 47.52C23.1 47.06 28.45 45.79 29.37 45.36C30.1 45.02 30.13 44.37 29.68 43.61C29.49 43.28 28.48 41.19 28.24 40.76C32.32 40.24 31.54 35.56 29.67 34.3Z" fill="white"/>
  <path d="M47.4399 16.83C47.3399 14.14 45.6499 13.71 44.5099 13.63C43.9199 13.59 43.5599 13.59 43.1999 13.56C41.9999 12.7 39.7599 11.53 39.4699 11.34C39.1199 11.12 38.4699 10.74 37.6099 10.59C38.2499 10.53 38.5699 10.37 38.7699 10.2C38.9699 10.03 39.0299 9.92001 39.3099 9.84001C39.5799 9.76001 39.4699 9.39001 39.1599 9.19001C38.8499 8.99001 38.6599 8.69001 38.4199 9.22001C38.1799 9.74001 37.8499 9.83001 37.4599 9.85001C37.0699 9.87001 36.9599 10.43 36.6199 10.45C34.1399 10.63 31.0599 9.27001 29.3099 8.26001L28.3799 8.77001C29.3699 9.34001 30.6399 9.91001 30.9399 10.02C31.3899 10.18 33.0099 10.84 33.4699 10.9C33.1699 13.25 33.4199 14.3 33.7299 15.79C33.8099 16.17 33.9999 16.98 33.2599 17.33C34.0399 17.99 34.6799 16.75 34.9099 17.03C35.1399 17.31 35.5699 17.23 35.5699 17.23C33.7699 14.68 34.0499 13.35 34.0999 11.1C37.0599 11.18 38.7399 11.81 39.7199 12.38C40.9399 13.08 42.4899 13.78 43.4799 14.17C45.3499 14.9 45.9099 16.89 45.8499 18.3C45.1499 15.46 43.0599 14.85 42.2399 14.59C40.4199 16.7 41.7499 19.02 43.5099 19.64C44.9199 20.13 46.4899 20.81 46.7799 22.19C47.3299 20.75 47.5399 19.51 47.4399 16.83Z" fill="white"/>
  <path d="M24.1202 5.89003C22.2002 4.18003 20.6402 3.78003 19.8702 4.53003C19.3302 5.06003 18.7202 4.10003 18.7902 3.79003C18.9502 3.05003 19.6402 3.49003 20.3602 3.30003C22.0502 2.86003 25.5602 5.68003 25.5602 5.68003L26.9902 6.87003L25.8502 7.36003L24.1202 5.89003Z" fill="white"/>
  <defs>
    <linearGradient id="paint0_linear_15_151" x1="27.5201" y1="-2.05634" x2="27.5201" y2="31.2309" gradientUnits="userSpaceOnUse">
      <stop stop-color="#FBBB1C"/>
      <stop offset="1" stop-color="#BD2B0B"/>
    </linearGradient>
  </defs>
</svg>
