<svg width="23" height="19" viewBox="0 0 23 19" fill="none" xmlns="http://www.w3.org/2000/svg">
<path fill-rule="evenodd" clip-rule="evenodd" d="M20.4071 0C19.5947 0 18.9361 0.658595 18.9361 1.47101V17.529C18.9361 18.3414 19.5947 19 20.4071 19H21.029C21.8414 19 22.5 18.3414 22.5 17.529V1.47101C22.5 0.658595 21.8414 0 21.029 0H20.4071ZM7.78307 6.57693C6.97065 6.57693 6.31206 7.23553 6.31206 8.04795V17.529C6.31206 18.3414 6.97065 19 7.78307 19H8.40491C9.21733 19 9.87593 18.3414 9.87593 17.529V8.04795C9.87593 7.23553 9.21733 6.57693 8.40491 6.57693H7.78307ZM1.47101 14.6154C0.658596 14.6154 0 15.274 0 16.0864V17.529C0 18.3414 0.658596 19 1.47101 19H2.09285C2.90527 19 3.56387 18.3414 3.56387 17.529V16.0864C3.56387 15.274 2.90527 14.6154 2.09285 14.6154H1.47101ZM12.624 11.7018C12.624 10.8894 13.2826 10.2308 14.095 10.2308H14.7168C15.5293 10.2308 16.1878 10.8894 16.1878 11.7018V17.529C16.1878 18.3414 15.5293 19 14.7168 19H14.095C13.2826 19 12.624 18.3414 12.624 17.529V11.7018Z" fill="#A7AEB8"/>
</svg>
