<svg xmlns="http://www.w3.org/2000/svg" version="1.1" id="Layer_1" x="0px" y="0px" viewBox="0 0 512 512" enableBackground="new 0 0 512 512">
    <g>
    <g>
        <path d="M256,168.751v15.673c38.891,0,70.531,31.64,70.531,70.531h15.673C342.204,207.421,303.532,168.751,256,168.751z" />
    </g>
    <g>
        <path
        d="M261.881,302.02L256,295.344l-5.881,6.676c-6.567,7.455-64.164,73.887-64.164,110.156
    c0,38.623,31.422,70.045,70.045,70.045s70.045-31.422,70.045-70.045C326.045,375.908,268.448,309.475,261.881,302.02z
        M256,466.546c-29.98,0-54.371-24.391-54.371-54.371c0-23.103,35.055-69.819,54.35-92.901c5.88,7.064,15.39,18.868,24.808,32.169
    c19.077,26.943,29.584,48.511,29.584,60.732C310.371,442.155,285.98,466.546,256,466.546z"
        />
    </g>
    <g>
        <path d="M232.732,412.734h-15.674c0,21.472,17.469,38.941,38.941,38.941v-15.673C243.171,436.002,232.732,425.563,232.732,412.734 z" />
    </g>
    <g>
        <path
        d="M376.97,187.558v0.001c-19.753-35.44-53.43-59.909-92.235-68.065V76.799h62.694V58.514
    c0-15.845-12.891-28.735-28.735-28.735H193.306c-15.845,0-28.735,12.89-28.735,28.735v18.286h62.694v42.695
    c-38.804,8.155-72.481,32.626-92.234,68.065H0v130.612h132.803c11.6,22.604,29.109,41.501,50.889,54.86l8.195-13.36
    c-20.593-12.631-36.881-30.841-47.104-52.661l-2.114-4.512H47.02v-99.265h97.489l2.186-4.257
    c21.157-41.202,63.04-66.797,109.305-66.797c46.264,0,88.148,25.595,109.305,66.796l2.186,4.257h97.489v99.265h-95.648
    l-2.114,4.512c-10.222,21.82-26.51,40.03-47.104,52.661l8.196,13.36c21.779-13.359,39.288-32.257,50.888-54.86H512V187.558H376.97
    z M31.347,302.497H15.673v-99.265h15.673V302.497z M180.245,61.126v-2.612c0-7.202,5.859-13.061,13.061-13.061h125.388
    c7.202,0,13.061,5.859,13.061,13.061v2.612h-47.02h-57.469H180.245z M269.061,117.126c-4.312-0.402-8.667-0.621-13.061-0.621
    c-4.394,0-8.749,0.218-13.061,0.621V76.799h26.122V117.126z M496.327,302.497h-15.673v-99.265h15.673V302.497z"
        />
    </g>
    </g>
</svg>