<svg xmlns="http://www.w3.org/2000/svg" version="1.1" id="Layer_1" x="0px" y="0px" viewBox="0 0 512 512" enableBackground="new 0 0 512 512">
<g>
    <path
    d="M493.137,59.284c10.401,0,18.863-8.463,18.863-18.863V18.863C512,8.463,503.537,0,493.137,0H374.568
    c-10.401,0-18.863,8.463-18.863,18.863v21.558c0,10.401,8.463,18.863,18.863,18.863h2.695v48.505h-7.211
    c-3.032-6.368-9.532-10.779-17.042-10.779h-21.558c-10.401,0-18.863,8.463-18.863,18.863v2.695h-13.474
    c-10.401,0-18.863,8.463-18.863,18.863v10.779c0,10.401,8.463,18.863,18.863,18.863h13.474v16.168h-48.505v-13.474
    c0-16.345-13.297-29.642-29.642-29.642h-204.8C13.297,140.126,0,153.423,0,169.768v172.463c0,16.345,13.297,29.642,29.642,29.642
    h204.8c16.345,0,29.642-13.297,29.642-29.642v-13.474h48.505v16.168h-13.474c-10.401,0-18.863,8.463-18.863,18.863v10.779
    c0,10.401,8.463,18.863,18.863,18.863h13.474v2.695c0,10.401,8.463,18.863,18.863,18.863h21.558
    c7.51,0,14.009-4.411,17.042-10.779h7.211v48.505h-2.695c-10.401,0-18.863,8.463-18.863,18.863v21.558
    c0,10.401,8.463,18.863,18.863,18.863h118.568c10.401,0,18.863-8.463,18.863-18.863v-21.558c0-10.401-8.463-18.863-18.863-18.863
    h-2.695v-48.505h2.695c10.401,0,18.863-8.463,18.863-18.863V126.653c0-10.401-8.463-18.863-18.863-18.863h-2.695V59.284H493.137z
    M247.916,342.232c0,7.43-6.044,13.474-13.474,13.474H59.284v-26.947h188.632V342.232z M247.916,312.589H59.284v-26.947h188.632
    V312.589z M247.916,269.474H59.284v-26.947h188.632V269.474z M247.916,226.358H59.284v-2.695c0-4.465-3.62-8.084-8.084-8.084
    s-8.084,3.62-8.084,8.084v132.042H29.642c-7.43,0-13.474-6.044-13.474-13.474V169.768c0-7.43,6.044-13.474,13.474-13.474h13.474
    v35.032c0,4.465,3.62,8.084,8.084,8.084h196.716V226.358z M247.916,183.242H59.284v-26.947h175.158
    c7.43,0,13.474,6.044,13.474,13.474V183.242z M312.589,377.263h-13.474c-1.485,0-2.695-1.209-2.695-2.695v-10.779
    c0-1.485,1.209-2.695,2.695-2.695h13.474V377.263z M312.589,312.589h-48.505V199.411h48.505V312.589z M312.589,150.905h-13.474
    c-1.485,0-2.695-1.209-2.695-2.695v-10.779c0-1.485,1.209-2.695,2.695-2.695h13.474V150.905z M493.137,468.884
    c1.485,0,2.695,1.209,2.695,2.695v21.558c0,1.485-1.209,2.695-2.695,2.695H374.568c-1.485,0-2.695-1.209-2.695-2.695v-21.558
    c0-1.485,1.209-2.695,2.695-2.695h32.337c4.465,0,8.084-3.62,8.084-8.084s-3.62-8.084-8.084-8.084h-13.474v-48.505h80.842v48.505
    h-35.032c-4.465,0-8.084,3.62-8.084,8.084s3.62,8.084,8.084,8.084H493.137z M493.137,123.958c1.485,0,2.695,1.209,2.695,2.695
    v258.695c0,1.485-1.209,2.695-2.695,2.695H371.874V202.105c0-4.465-3.62-8.084-8.084-8.084c-4.465,0-8.084,3.62-8.084,8.084
    v194.021c0,1.485-1.209,2.695-2.695,2.695h-21.558c-1.485,0-2.695-1.209-2.695-2.695V115.874c0-1.485,1.209-2.695,2.695-2.695
    h21.558c1.485,0,2.695,1.209,2.695,2.695v53.895c0,4.465,3.62,8.084,8.084,8.084c4.465,0,8.084-3.62,8.084-8.084v-45.811H493.137z
    M439.242,59.284h35.032v48.505h-80.842V59.284h13.474c4.465,0,8.084-3.62,8.084-8.084s-3.62-8.084-8.084-8.084h-32.337
    c-1.485,0-2.695-1.209-2.695-2.695V18.863c0-1.485,1.209-2.695,2.695-2.695h118.568c1.485,0,2.695,1.209,2.695,2.695v21.558
    c0,1.485-1.209,2.695-2.695,2.695h-53.895c-4.465,0-8.084,3.62-8.084,8.084S434.777,59.284,439.242,59.284z"
    />
</g>
</svg>