<svg xmlns="http://www.w3.org/2000/svg" viewBox="0 0 24 24"><path class="uim-primary" d="M19.70492,19.26562l-.067.067a8.826,8.826,0,0,1-2.89063,1.95312A9.13594,9.13594,0,0,1,13.20939,22a9.04352,9.04352,0,0,1-6.42857-2.66741A8.9718,8.9718,0,0,1,4.225,14.34375q-.04464-.3125.53572-.40179.56919-.08928.625.22322a.06463.06463,0,0,1,.01116.04464,9.89552,9.89552,0,0,0,.51339,1.77456A7.54294,7.54294,0,0,0,7.60671,18.5067a7.91559,7.91559,0,0,0,8.683,1.69642A7.961,7.961,0,0,0,18.8009,18.5067l.067-.067a.27.27,0,0,1,.279-.067,1.02268,1.02268,0,0,1,.3683.24553Q19.917,19.03125,19.70492,19.26562Zm-5.26785-6.86383-.73661.7366.70312.70313q.23438.23438-.07812.54687a.53151.53151,0,0,1-.35714.18973.28725.28725,0,0,1-.21206-.1116l-.692-.68081-.73661.73661a.22738.22738,0,0,1-.16741.0558.50641.50641,0,0,1-.346-.17857l-.02232-.02232a.45169.45169,0,0,1-.2009-.32366.33047.33047,0,0,1,.08929-.18973l.73661-.72545-.73661-.7366q-.17857-.17858.15625-.50224a.54963.54963,0,0,1,.346-.20089.255.255,0,0,1,.14509.0558l.72545.73661.72544-.72545q.20089-.18972.53572.14509Q14.61564,12.21206,14.43707,12.40179Zm5.25669.63616a6.48054,6.48054,0,0,1-1.91964,4.62053,6.61515,6.61515,0,0,1-2.087,1.40625,6.56291,6.56291,0,0,1-5.08929,0,6.615,6.615,0,0,1-2.087-1.40625,6.33981,6.33981,0,0,1-1.39509-2.07589,1.63137,1.63137,0,0,1-.16741-.44643H6.93707q-.10046-.30134.47991-.49107.558-.17857.66964.13393a5.9105,5.9105,0,0,0,1.08259,1.86384h.01116V12.83705a3.59193,3.59193,0,0,1,1.13839-2.58928,3.88647,3.88647,0,0,1,2.82366-1.14956,3.836,3.836,0,0,1,2.80134,1.14956,3.76774,3.76774,0,0,1,1.16072,2.779,3.97251,3.97251,0,0,1-3.96206,3.962,4.37667,4.37667,0,0,1-1.25-.17857q-.3125-.12278-.14509-.68081.17858-.56919.49107-.47991l.15625.03349q.15625.03348.36273.067a2.20729,2.20729,0,0,0,.3404.03348,2.68154,2.68154,0,0,0,1.96429-.798,2.6404,2.6404,0,0,0,.80357-1.94754,2.56008,2.56008,0,0,0-.80357-1.90849,2.65408,2.65408,0,0,0-1.95313-.79241,2.545,2.545,0,0,0-1.98661.89286,2.62482,2.62482,0,0,0-.71428,1.78571V17.625a5.09315,5.09315,0,0,0,2.70089.74777,5.39077,5.39077,0,0,0,2.06473-.40737A5.32774,5.32774,0,0,0,18.47724,13.038,5.35376,5.35376,0,0,0,13.1201,7.692a5.16626,5.16626,0,0,0-3.79464,1.5625,8.09762,8.09762,0,0,0-.85938.971l-.02232.02232a1.18319,1.18319,0,0,1-.14509.173.70415.70415,0,0,1-.24.106A.677.677,0,0,1,7.629,10.4933a1.10389,1.10389,0,0,1-.40737-.18415.3665.3665,0,0,1-.173-.29576V2.42411a.42563.42563,0,0,1,.11719-.29576A.396.396,0,0,1,7.47278,2h9.78795q.33482,0,.33482.61384t-.33482.61384H8.20939V8.6183h.01116a6.95758,6.95758,0,0,1,1.13839-.9375A7.006,7.006,0,0,1,10.5643,7a6.56263,6.56263,0,0,1,2.57812-.51339A6.37415,6.37415,0,0,1,15.68707,7a6.52437,6.52437,0,0,1,4.00669,6.038Zm-.346-6.48438a.26448.26448,0,0,1,.10045.20089.34643.34643,0,0,1-.06139.2009q-.06138.08928-.18415.23437-.29018.29018-.43527.29018a.24581.24581,0,0,1-.17857-.07812,8.78962,8.78962,0,0,0-2.31027-1.48438,7.59989,7.59989,0,0,0-3.08035-.625,8.1748,8.1748,0,0,0-2.92411.54688q-.30133.1116-.50223-.413a1.12509,1.12509,0,0,1-.08929-.42411A.25979.25979,0,0,1,9.86117,4.779a8.24024,8.24024,0,0,1,3.33706-.63616,9.00039,9.00039,0,0,1,3.52678.71428A8.56968,8.56968,0,0,1,19.34778,6.55357Z" data-name="Brand Logos"/></svg>