<svg xmlns="http://www.w3.org/2000/svg" enable-background="new 0 0 24 24" viewBox="0 0 24 24"><path class="uim-tertiary" fill-rule="evenodd" d="M18.33264,10.92169L18.22382,10.7l-0.1789-0.13983c-0.23486-0.1839-1.42285,0.01111-1.74219-0.27844c-0.22723-0.20819-0.26269-0.58386-0.33007-1.08936c-0.0155-0.4774-0.13922-0.94505-0.36182-1.36767c-0.65779-1.16389-1.80305-1.97126-3.1203-2.1997H9.66681C7.44133,5.63088,5.63697,7.4303,5.625,9.65576v4.69434c0.01338,2.22392,1.81785,4.02085,4.04181,4.0249h4.639c2.22099-0.00703,4.02229-1.80085,4.03857-4.02179l0.01965-2.67548l0.00458-0.57843L18.33264,10.92169z M9.71844,8.91663h2.23877c0.42572,0,0.77084,0.34512,0.77084,0.77084c0,0.42572-0.34512,0.77084-0.77084,0.77084H9.71844c-0.42572,0-0.77084-0.34512-0.77084-0.77084C8.9476,9.26175,9.29272,8.91663,9.71844,8.91663z M14.26709,15.04163H9.71844c-0.41421,0.01266-0.76026-0.31287-0.77292-0.72708c-0.01266-0.41421,0.31287-0.76026,0.72709-0.77292c0.01527-0.00047,0.03056-0.00047,0.04583,0h4.54865c0.41421-0.01048,0.7585,0.31681,0.76898,0.73102c0.01048,0.41421-0.31681,0.7585-0.73102,0.76898C14.29239,15.04195,14.27974,15.04195,14.26709,15.04163z" clip-rule="evenodd"/><path class="uim-primary" d="M14.26709 13.54163H9.71844c-.01526-.00049-.03058-.00049-.04584 0-.41418.01263-.73975.3587-.72711.77295.0127.41418.3587.73969.77295.72705h4.54865c.01263.00031.02533.00031.03796 0 .41418-.0105.74152-.35474.73102-.76898C15.02557 13.85846 14.68127 13.53113 14.26709 13.54163zM9.71844 10.45831h2.23877c.42572 0 .77081-.34509.77081-.77087 0-.42572-.34509-.77081-.77081-.77081H9.71844c-.42572 0-.77087.34509-.77087.77081C8.94757 10.11322 9.29272 10.45831 9.71844 10.45831z"/><path class="uim-primary" d="M19.5,2h-15C3.11926,2,2,3.11926,2,4.5v15C2,20.88074,3.11926,22,4.5,22h15c1.38074,0,2.5-1.11926,2.5-2.5v-15C22,3.11926,20.88074,2,19.5,2z M18.36401,11.67773l-0.01965,2.67548c-0.01624,2.22095-1.81757,4.01477-4.03857,4.02179H9.66681c-2.22394-0.00403-4.02844-1.80096-4.04181-4.0249V9.65576C5.63696,7.4303,7.44135,5.63086,9.66681,5.625h2.82373c1.31726,0.22845,2.46252,1.03583,3.1203,2.19971c0.2226,0.42261,0.34631,0.89026,0.36182,1.36768c0.06738,0.50549,0.10284,0.88116,0.33008,1.08936c0.31934,0.28955,1.50732,0.09454,1.74219,0.27844l0.17889,0.13983l0.10883,0.22168l0.03595,0.17761L18.36401,11.67773z"/></svg>