<svg xmlns="http://www.w3.org/2000/svg" viewBox="0 0 24 24"><circle cx="12" cy="16" r="1" class="uim-tertiary"/><circle cx="12" cy="20" r="1" class="uim-tertiary"/><circle cx="12" cy="8" r="1" class="uim-tertiary"/><circle cx="12" cy="4" r="1" class="uim-tertiary"/><circle cx="4" cy="16" r="1" class="uim-tertiary"/><circle cx="4" cy="20" r="1" class="uim-tertiary"/><circle cx="4" cy="8" r="1" class="uim-tertiary"/><circle cx="4" cy="4" r="1" class="uim-tertiary"/><circle cx="8" cy="4" r="1" class="uim-tertiary"/><circle cx="16" cy="4" r="1" class="uim-tertiary"/><circle cx="8" cy="20" r="1" class="uim-tertiary"/><circle cx="16" cy="20" r="1" class="uim-tertiary"/><circle cx="8" cy="12" r="1" class="uim-tertiary"/><circle cx="16" cy="12" r="1" class="uim-tertiary"/><circle cx="20" cy="16" r="1" class="uim-tertiary"/><circle cx="20" cy="20" r="1" class="uim-tertiary"/><circle cx="20" cy="8" r="1" class="uim-tertiary"/><circle cx="12" cy="12" r="1" class="uim-tertiary"/><circle cx="4" cy="12" r="1" class="uim-tertiary"/><circle cx="20" cy="12" r="1" class="uim-tertiary"/><circle cx="20" cy="4" r="1" class="uim-tertiary"/></svg>