<svg xmlns="http://www.w3.org/2000/svg" viewBox="0 0 24 24"><path class="uim-primary" d="M20.5,21a.99974.99974,0,0,1-1-1V4a1,1,0,0,1,2,0V20A.99974.99974,0,0,1,20.5,21Z"/><circle cx="16.5" cy="12" r="1" class="uim-tertiary"/><circle cx="12.5" cy="12" r="1" class="uim-tertiary"/><circle cx="8.5" cy="12" r="1" class="uim-tertiary"/><circle cx="4.5" cy="12" r="1" class="uim-tertiary"/><circle cx="16.5" cy="20" r="1" class="uim-tertiary"/><circle cx="12.5" cy="20" r="1" class="uim-tertiary"/><circle cx="8.5" cy="20" r="1" class="uim-tertiary"/><circle cx="4.5" cy="20" r="1" class="uim-tertiary"/><circle cx="4.5" cy="16" r="1" class="uim-tertiary"/><circle cx="4.5" cy="8" r="1" class="uim-tertiary"/><circle cx="12.5" cy="16" r="1" class="uim-tertiary"/><circle cx="12.5" cy="8" r="1" class="uim-tertiary"/><circle cx="16.5" cy="4" r="1" class="uim-tertiary"/><circle cx="12.5" cy="4" r="1" class="uim-tertiary"/><circle cx="8.5" cy="4" r="1" class="uim-tertiary"/><circle cx="4.5" cy="4" r="1" class="uim-tertiary"/></svg>