<svg xmlns="http://www.w3.org/2000/svg" enable-background="new 0 0 24 24" viewBox="0 0 24 24"><path class="uim-quaternary" d="M15,2c-3.3772,0.00142-6.27155,2.41462-6.88025,5.73651c2.90693-1.59074,6.553-0.52375,8.14374,2.38317c0.98206,1.79462,0.98206,3.96594,0,5.76057c3.8013-0.69634,6.31837-4.3424,5.62202-8.14369C21.27662,4.41261,18.37925,1.99872,15,2z"/><circle cx="7" cy="17" r="5" class="uim-primary"/><path class="uim-tertiary" d="M11,7c-3.08339,0.00031-5.66461,2.33759-5.97,5.40582c2.5358-1.08949,5.47469,0.08297,6.56418,2.61877c0.54113,1.25947,0.54113,2.68593,0,3.94541c3.29729-0.32786,5.7045-3.26663,5.37664-6.56392C16.66569,9.33735,14.08386,6.99972,11,7z"/></svg>