<svg xmlns="http://www.w3.org/2000/svg" data-name="Layer 1" viewBox="0 0 24 24"><path class="uim-primary" d="M20.772,3.36426A1.00062,1.00062,0,0,0,20,3H6A1,1,0,0,0,6,5H18.78613l-.78094,4H5a1,1,0,0,0,0,2H17.61475l-1.1626,5.95508-6.32324,1.99658L4.71875,17.25244l.20361-1.06494a1.00015,1.00015,0,0,0-1.96484-.375L2.5874,17.75244A1.00059,1.00059,0,0,0,3.27,18.894L9.83008,20.9541a1.00175,1.00175,0,0,0,.60107-.00049l7.18994-2.27a1.00064,1.00064,0,0,0,.68018-.7622l2.68018-13.73A1.00008,1.00008,0,0,0,20.772,3.36426Z"/></svg>