<svg xmlns="http://www.w3.org/2000/svg" enable-background="new 0 0 24 24" viewBox="0 0 24 24"><path class="uim-tertiary" d="M8.85431,21.5708c2.04081,0.68312,4.24853,0.68335,6.28949,0.00067c-0.25926,0.08328-0.53694-0.05938-0.62022-0.31864c-0.0163-0.05074-0.02426-0.10379-0.02358-0.15707c0-0.33746,0.01251-1.41247,0.01251-2.75c0.05423-0.68542-0.1921-1.36057-0.675-1.85c2.225-0.25,4.5625-1.1,4.5625-4.9375c0.01638-0.99426-0.35068-1.95667-1.025-2.6875c0.30573-0.86378,0.26996-1.81172-0.1-2.65c0,0-0.83753-0.275-2.75,1.025c-1.63629-0.45004-3.36371-0.45004-5,0c-1.91253-1.28748-2.75-1.025-2.75-1.025c-0.36998,0.83828-0.40575,1.78622-0.1,2.65c-0.67233,0.73207-1.03907,1.69364-1.025,2.6875c0,3.825,2.325,4.6875,4.55,4.9375c-0.36769,0.35377-0.59426,0.82912-0.63752,1.33752c-1.02982,0.57709-2.33248,0.21008-2.90957-0.81974C6.65195,17.01179,6.65097,17.01005,6.65,17.0083c-0.31464-0.572-0.88851-0.95457-1.53753-1.025C4.275,15.99581,4.775,16.4583,5.12498,16.64583c0.45125,0.38065,0.80305,0.86542,1.02502,1.41246c0.2,0.5625,0.85,1.63751,3.36249,1.175c0,0.83752,0.01251,1.625,0.01251,1.86248C9.525,21.3548,9.3396,21.647,8.85431,21.5708z"/><path class="uim-primary" d="M12,2.08301c-5.52283,0-10,4.47717-10,10c0,4.42297,2.87469,8.1687,6.85516,9.48779c0.48462,0.07562,0.66986-0.21619,0.66986-0.47504c0-0.23749-0.01251-1.02496-0.01251-1.86249C7,19.6958,6.34998,18.62079,6.15002,18.05829c-0.22198-0.54706-0.57379-1.0318-1.02502-1.41248c-0.34998-0.1875-0.84998-0.65002-0.01251-0.66254c0.64899,0.07043,1.2229,0.453,1.53754,1.02502c0.00098,0.00177,0.00195,0.00348,0.00293,0.00525c0.57709,1.02979,1.8797,1.39679,2.90955,0.8197c0.04327-0.50836,0.26984-0.9837,0.63751-1.33746c-2.22498-0.25-4.54999-1.11255-4.54999-4.9375c-0.0141-0.9939,0.35266-1.95544,1.02496-2.6875C6.36926,8.00696,6.40503,7.05902,6.77502,6.22076c0,0,0.83746-0.26251,2.75,1.02502c1.63629-0.45007,3.36371-0.45007,5,0c1.91248-1.30005,2.75-1.02502,2.75-1.02502c0.36993,0.83826,0.4057,1.78619,0.09998,2.65002c0.67432,0.73083,1.04138,1.69318,1.02502,2.6875c0,3.83746-2.33752,4.6875-4.5625,4.9375c0.48291,0.48938,0.72925,1.16455,0.67499,1.84998c0,1.33752-0.01251,2.41254-0.01251,2.75c-0.00067,0.05328,0.00726,0.10632,0.02356,0.15704c0.08319,0.25885,0.36017,0.40118,0.61902,0.31879C19.12427,20.25317,22,16.50684,22,12.08301C22,6.56018,17.52283,2.08301,12,2.08301z"/></svg>