<svg xmlns="http://www.w3.org/2000/svg" viewBox="0 0 24 24"><path class="uim-primary" d="M20.11554,5.90131a3.88274,3.88274,0,0,0-.26-.31,4.41253,4.41253,0,0,0,.21-.76,5.28351,5.28351,0,0,0-.35-2.8s-1.12-.35-3.69,1.38a12.47675,12.47675,0,0,0-3.35-.45,12.60429,12.60429,0,0,0-3.36.45c-2.57-1.75-3.69-1.38-3.69-1.38a5.26343,5.26343,0,0,0-.35,2.77,4.21027,4.21027,0,0,0,.22.79c-.09.1-.18.21-.26.31a5.13973,5.13973,0,0,0-1.12,3.3,7.68624,7.68624,0,0,0,.04.85c.31994,4.43,3.27,5.46,6.08,5.78a2.55759,2.55759,0,0,0-.77,1.39,4.02183,4.02183,0,0,0-.13,1.09v1.30957c-1.11822.09937-2.26648-.06335-2.62219-1.06134a5.69461,5.69461,0,0,0-1.83447-2.41211,1.1789,1.1789,0,0,1-.169-.1123,1.00141,1.00141,0,0,0-.93066-.64551H3.77441a.99965.99965,0,0,0-1,.99512c-.0039.8125.80909,1.33691,1.14258,1.51562a4.4665,4.4665,0,0,1,.92285,1.3584c.36426,1.02344,1.4292,2.57812,4.46582,2.376.001.03515.002.06835.00245.09863l.00439.26758a.99974.99974,0,0,0,1,1l.00311-.00061V23.001h4.71112a.99974.99974,0,0,0,1-1s.00733-3.15967.00733-3.68964a4.02421,4.02421,0,0,0-.13-1.09l-.00183-.0061.00336.0061c-.00861-.035-.02173-.06353-.03113-.09747A2.53213,2.53213,0,0,0,15.134,15.8313l.0116.02087c-.00684-.00616-.01324-.01489-.02008-.02087,2.81-.32,5.74-1.37,6.06-5.78a7.68675,7.68675,0,0,0,.04-.85A5.2306,5.2306,0,0,0,20.11554,5.90131Z" data-name="Brand Logos"/></svg>