<svg xmlns="http://www.w3.org/2000/svg" enable-background="new 0 0 24 24" viewBox="0 0 24 24"><path class="uim-tertiary" d="M9.81816,14.31321c-0.14735,0.03723-0.29679,0.06557-0.44754,0.08488c-0.10555,0.01608-0.20647-0.04926-0.235-0.15215l0.00119-0.9681c0.00566-0.095-0.0326-0.19682,0.04348-0.28061c0.03617-0.04178,0.08444-0.07126,0.13813-0.08434c0.17212-0.03148,0.33864-0.08824,0.49415-0.16845c0.27366-0.15808,0.46875-0.42339,0.53807-0.73173c0.01217-0.0501,0.0238-0.10052,0.03543-0.15084c-0.68054-0.00133-1.36101-0.00246-2.04141-0.00337c-0.05865,0.0019-0.11729-0.00415-0.17432-0.018c-0.17593-0.04679-0.30044-0.20331-0.30647-0.38526c-0.0013-1.02897-0.00079-2.05797,0.00152-3.087c-0.03306-0.15951,0.01936-0.32473,0.13835-0.436C8.07372,7.86791,8.16495,7.8316,8.26,7.83024c1.0006-0.00022,2.0012-0.0004,3.00179-0.00055c0.22983,0.00091,0.41541,0.18796,0.4145,0.4178c-0.00015,0.03713-0.00526,0.07407-0.01521,0.10983c0.0157,0.04938,0.02135,0.1014,0.01663,0.153c0.00021,1.12123,0.00652,2.2429-0.00207,3.36413c0.00164,0.71716-0.30418,1.40063-0.84,1.8773c-0.02847,0.02641-0.056,0.05391-0.08379,0.08086c-0.27656,0.22016-0.59389,0.38352-0.93376,0.48068L9.81816,14.31321z M15.35378,14.2417l-0.03815,0.01065L15.294,14.26463c-0.19323,0.05593-0.38992,0.09913-0.58881,0.12933c-0.11545,0.02968-0.23309-0.03985-0.26277-0.1553c-0.00517-0.02011-0.00741-0.04087-0.00665-0.06162c-0.00152-0.10738-0.00228-0.215-0.00315-0.32245l0.00554-0.5773c-0.00086-0.04249-0.00239-0.08466-0.00228-0.12693c0.00022-0.14781,0.05706-0.21019,0.24083-0.25214c0.23408-0.0401,0.45299-0.14268,0.6336-0.2969c0.20558-0.19699,0.33861-0.45762,0.37754-0.73967l-1.88578-0.00358c-0.06835-0.00011-0.13682,0.00087-0.20529-0.00033c-0.23124,0.00774-0.42498-0.17344-0.43273-0.40468c-0.00039-0.01171-0.00029-0.02343,0.0003-0.03514c0.00033-1.01624,0.00112-2.03249,0.00239-3.04874L13.165,8.33984c-0.03296-0.17835,0.04832-0.35842,0.20388-0.45167c0.06377-0.03948,0.13759-0.05971,0.21258-0.05825c0.994-0.00054,1.98797-0.00083,2.9819-0.00087c0.22991,0.00106,0.41543,0.18831,0.41437,0.41822c-0.00017,0.03702-0.00528,0.07385-0.01519,0.10952c0.01556,0.04938,0.02117,0.10135,0.01652,0.15291c0,1.12319-0.00011,2.24641-0.00033,3.36967c-0.01001,1.01636-0.62108,1.93027-1.55649,2.32788C15.39888,14.21725,15.3766,14.23018,15.35378,14.2417z"/><path class="uim-primary" d="M20.8656,9.05499v0.00006c-0.28845-1.62494-1.04346-3.1308-2.17291-4.33405c-1.38306-1.48407-3.24799-2.42908-5.26263-2.66675C13.26886,2.04553,13.10828,2.0274,12.94916,2H11.8147c-0.01227,0.02856-0.03857,0.01813-0.05945,0.02008c-0.29218,0.02576-0.58289,0.05902-0.87115,0.11371C8.83533,2.49634,6.99225,3.60175,5.70764,5.2384C4.62323,6.58038,3.98077,8.22516,3.86835,9.94684c-0.06384,0.84741-0.00159,1.69958,0.18475,2.52875c0.1377,0.6189,0.34723,1.21967,0.62427,1.78998c0.02448,0.04871,0.04858,0.09735,0.07349,0.14606c0.45001,0.89679,1.05353,1.70795,1.78314,2.39673c1.5592,1.47473,3.61707,2.30762,5.76306,2.33246c0.10022,0.0014,0.1275,0.02606,0.12683,0.12842c-0.00458,0.8736-0.00256,1.74725-0.00238,2.62091c0.00012,0.03387,0.00275,0.06769,0.0047,0.10986c0.02826-0.01154,0.04596-0.01801,0.06299-0.02606c1.63702-0.75793,3.1507-1.75775,4.4903-2.96594c0.26703-0.24316,0.52332-0.49731,0.76886-0.76251c0.10535-0.11334,0.20978-0.22864,0.31531-0.34186c0.16302-0.17432,0.30408-0.36908,0.45776-0.55267c0.17743-0.21167,0.33679-0.43677,0.49396-0.66321c0.34906-0.4986,0.65631-1.02521,0.91852-1.57446c0.13196-0.27887,0.25757-0.55988,0.36877-0.84753c0.00421-0.005,0.00793-0.01038,0.01105-0.01611c0.29919-0.7854,0.50092-1.60455,0.60059-2.43903c0.03607-0.29126,0.05945-0.58441,0.07422-0.87726C21.02032,10.30457,20.97906,9.67426,20.8656,9.05499z M11.67566,11.87445c0.00159,0.71716-0.3042,1.40063-0.84003,1.87732c-0.02844,0.02637-0.05597,0.05389-0.0838,0.08081c-0.27655,0.22021-0.59387,0.38354-0.93372,0.48071l0.00006-0.00006c-0.14734,0.03723-0.29681,0.06555-0.44757,0.08484c-0.10553,0.01611-0.20648-0.04926-0.23499-0.15216l0.00122-0.96808c0.00562-0.09497-0.03265-0.19684,0.04346-0.28058c0.03613-0.04181,0.08441-0.07129,0.13812-0.08435c0.17212-0.03149,0.33862-0.08826,0.49414-0.16846c0.27368-0.15808,0.46875-0.4234,0.53809-0.73175c0.01215-0.05011,0.0238-0.10052,0.0354-0.15082c-0.68054-0.00134-1.36096-0.00244-2.04138-0.00336c-0.05865,0.00189-0.11731-0.00415-0.17432-0.01801c-0.17596-0.04681-0.30048-0.20331-0.30646-0.38525C7.86255,10.42627,7.8631,9.39728,7.86542,8.36823C7.83234,8.20874,7.88477,8.04352,8.00372,7.93225C8.07373,7.86792,8.16498,7.8316,8.26001,7.83026c1.00061-0.00024,2.00116-0.00043,3.00177-0.00055c0.22986,0.00092,0.41541,0.18793,0.41449,0.41779c-0.00012,0.03711-0.00525,0.07404-0.0152,0.1098c0.01569,0.04938,0.02136,0.10144,0.01666,0.15302C11.67792,9.63153,11.6842,10.75323,11.67566,11.87445z M16.97876,11.87939c-0.01007,1.01636-0.62109,1.93024-1.55652,2.32788c-0.02338,0.00995-0.04565,0.02289-0.06848,0.03442l-0.03815,0.01062l-0.02161,0.01233c-0.19324,0.05591-0.38995,0.09912-0.58881,0.12933c-0.11548,0.02966-0.23309-0.03986-0.26276-0.15533c-0.00519-0.02008-0.00745-0.04083-0.00665-0.06158c-0.00153-0.10742-0.00232-0.21503-0.00317-0.32245l0.00555-0.57733c-0.00085-0.04248-0.00238-0.08466-0.00232-0.12695c0.00024-0.14777,0.05707-0.21014,0.24084-0.25214c0.23407-0.0401,0.453-0.14264,0.63361-0.29688c0.20557-0.19696,0.33862-0.45764,0.37756-0.73969l-1.8858-0.00354c-0.06836-0.00012-0.13684,0.00085-0.20526-0.00037c-0.23126,0.00775-0.42499-0.1734-0.43274-0.40466c-0.00043-0.01172-0.00031-0.02344,0.00031-0.03516c0.00031-1.01624,0.0011-2.03247,0.00238-3.04871l-0.00177-0.02936c-0.03296-0.17834,0.04834-0.3584,0.20392-0.45166c0.06378-0.03949,0.13757-0.05969,0.21259-0.05829c0.99396-0.00049,1.98798-0.00079,2.98187-0.00085c0.22992,0.0011,0.41547,0.18829,0.41437,0.41821c-0.00018,0.03705-0.00525,0.07385-0.0152,0.10956c0.01556,0.04938,0.02118,0.10132,0.01654,0.15289C16.97906,9.63287,16.97894,10.7561,16.97876,11.87939z"/></svg>