<svg xmlns="http://www.w3.org/2000/svg" data-name="Layer 1" viewBox="0 0 24 24"><path class="uim-tertiary" d="M12,18a3.5,3.5,0,1,1,3.5-3.5A3.50424,3.50424,0,0,1,12,18Z"/><path class="uim-primary" d="M14.64026,16.77179a3.452,3.452,0,0,1-5.28052,0A4.98821,4.98821,0,0,0,7,21a.99974.99974,0,0,0,1,1h8a.99974.99974,0,0,0,1-1A4.98821,4.98821,0,0,0,14.64026,16.77179Z"/><path class="uim-tertiary" d="M21,12a.99554.99554,0,0,1-.66406-.25244L12,4.33789,3.66406,11.74756a.99991.99991,0,0,1-1.32812-1.49512l9-8a.99893.99893,0,0,1,1.32812,0l9,8A1,1,0,0,1,21,12Z"/><path class="uim-quaternary" d="M12,4.33789,4,11.449V21a.99974.99974,0,0,0,1,1H8a.99974.99974,0,0,1-1-1,4.98821,4.98821,0,0,1,2.35974-4.22821l.00006.00006A3.46882,3.46882,0,0,1,8.5,14.5a3.5,3.5,0,0,1,7,0,3.46882,3.46882,0,0,1-.8598,2.27185l.00006-.00006A4.98821,4.98821,0,0,1,17,21a.99974.99974,0,0,1-1,1h3a.99974.99974,0,0,0,1-1V11.449Z"/></svg>