<svg xmlns="http://www.w3.org/2000/svg" data-name="Layer 1" viewBox="0 0 24 24"><path class="uim-primary" d="M21.46777,2.3252A1.00007,1.00007,0,0,0,20.73,2H3.27a1.00039,1.00039,0,0,0-.99609,1.08887l1.52,17a.99944.99944,0,0,0,.72851.87451l7.2002,2A.99628.99628,0,0,0,11.99023,23a1.01206,1.01206,0,0,0,.26709-.03613l7.21973-2a1.00055,1.00055,0,0,0,.729-.875l1.52-17A1,1,0,0,0,21.46777,2.3252Z"/><path class="uim-quaternary" d="M7.81982,13h6.895l-.32714,3.271-2.56788.917L8.65625,16.05811a1.00017,1.00017,0,1,0-.67285,1.88378l3.5,1.25a1.00291,1.00291,0,0,0,.67285,0l3.5-1.25a1.00044,1.00044,0,0,0,.65869-.84228l.5-5A1.00064,1.00064,0,0,0,15.81982,11H8.72461L8.4248,8h7.895a1,1,0,0,0,0-2h-9a1.00064,1.00064,0,0,0-.99511,1.09961l.5,5A1.00012,1.00012,0,0,0,7.81982,13Z"/></svg>