<svg xmlns="http://www.w3.org/2000/svg" enable-background="new 0 0 24 24" viewBox="0 0 24 24"><path class="uim-quaternary" d="M13.5,9C12.67157,9,12,8.32843,12,7.5S12.67157,6,13.5,6S15,6.67157,15,7.5C14.9991,8.32805,14.32805,8.9991,13.5,9z"/><path class="uim-tertiary" d="M19,2H5C3.34515,2.00483,2.00483,3.34515,2,5v8.86l3.88-3.88c1.18747-1.13,3.05253-1.13,4.24,0l2.87139,2.887l0.88752-0.88751c1.17344-1.16662,3.06874-1.16662,4.24218,0L22,15.8584V5C21.99517,3.34515,20.65485,2.00483,19,2z M13.5,9C12.67157,9,12,8.32843,12,7.5S12.67157,6,13.5,6S15,6.67157,15,7.5C14.9991,8.32805,14.32805,8.9991,13.5,9z"/><path class="uim-primary" d="M10.12,9.98c-1.18747-1.13-3.05253-1.13-4.24,0L2,13.86V19c0.00484,1.65484,1.34516,2.99516,3,3h14c0.81512-0.00034,1.59497-0.3325,2.16-0.92L10.12,9.98z"/><path class="uim-quaternary" d="M22,15.8584l-3.87891-3.87891c-1.17345-1.1666-3.06873-1.1666-4.24218,0L12.99139,12.867l8.16425,8.20856C21.69776,20.5208,22.00089,19.77567,22,19V15.8584z"/></svg>