<svg xmlns="http://www.w3.org/2000/svg" enable-background="new 0 0 24 24" viewBox="0 0 24 24"><path class="uim-tertiary" d="M16.43964,15.9931c-0.41385,0.55474-0.97761,0.97967-1.62488,1.22473c-0.80097,0.31884-1.65856,0.47098-2.52033,0.44709c-1.00106,0.03247-1.99514-0.1774-2.89764-0.61176c-0.52788-0.28121-0.98047-0.68514-1.31964-1.17779c-0.30108-0.41177-0.47302-0.90372-0.494-1.41339c-0.0048-0.26221,0.10755-0.51291,0.30646-0.68384c0.21172-0.19239,0.49058-0.29384,0.77643-0.28247c0.23122-0.00955,0.4579,0.06614,0.637,0.2127c0.1965,0.18327,0.34929,0.40836,0.44708,0.65863c0.12098,0.31375,0.28785,0.60781,0.49518,0.87256c0.18963,0.24882,0.44117,0.44359,0.72955,0.56488c0.39477,0.16635,0.82047,0.24665,1.24872,0.23554c0.6058,0.03316,1.20689-0.1231,1.71985-0.44708c0.40279-0.23543,0.65307-0.66442,0.65979-1.13092c0.01372-0.32787-0.11513-0.64563-0.35333-0.87134c-0.25942-0.24565-0.57512-0.42393-0.91944-0.51923c-0.37616-0.11774-0.89538-0.23553-1.53112-0.37616c-0.73013-0.15444-1.44673-0.36705-2.14295-0.6358c-0.53513-0.21443-1.00582-0.5634-1.36651-1.01312c-0.34117-0.45366-0.51598-1.01083-0.49512-1.57807c-0.00067-0.57914,0.18987-1.1423,0.54205-1.60205c0.39905-0.49732,0.92948-0.87285,1.53113-1.084c0.7637-0.2692,1.57014-0.3967,2.37964-0.37623c0.63754-0.00816,1.27272,0.07894,1.88452,0.25843c0.47596,0.13788,0.92275,0.36147,1.31842,0.65979c0.31533,0.23503,0.57985,0.53142,0.77765,0.87134c0.15113,0.26579,0.23218,0.56565,0.23553,0.87139c0.00074,0.26796-0.11033,0.52408-0.30645,0.70667c-0.19577,0.20528-0.47012,0.31685-0.7536,0.30646c-0.22747,0.01346-0.45244-0.05331-0.63575-0.18866c-0.18927-0.17694-0.3484-0.38358-0.47113-0.61176c-0.18745-0.37378-0.45256-0.70323-0.77758-0.96631C13.08344,8.04072,12.57106,7.91674,12.0589,7.96c-0.52888-0.02465-1.05335,0.10657-1.5083,0.37738c-0.33231,0.17872-0.54668,0.51851-0.56488,0.89539c0.00126,0.20356,0.06735,0.40142,0.18866,0.56488c0.14592,0.175,0.33185,0.31227,0.54205,0.4002c0.21469,0.11713,0.44435,0.20446,0.68262,0.25959c0.23559,0.07092,0.613,0.16467,1.15381,0.28247c0.65979,0.14178,1.27276,0.30646,1.81475,0.47107c0.49079,0.14539,0.95856,0.35944,1.38941,0.6358c0.36687,0.24112,0.67324,0.56355,0.89532,0.94226c0.22699,0.42767,0.34039,0.90645,0.32935,1.3905C17.00969,14.82777,16.81876,15.46656,16.43964,15.9931z"/><path class="uim-primary" d="M21.43451,14.15552c0.14227-0.66602,0.2132-1.34528,0.21155-2.02631c-0.02972-5.23364-4.29651-9.45233-9.53015-9.42261c-0.00336,0-0.00677,0.00006-0.01013,0.00006c-0.5448-0.0014-1.08862,0.04608-1.62494,0.14178c-2.58862-1.62653-6.00568-0.84656-7.6322,1.74207C2.30682,5.45276,2.01343,6.44775,2.00061,7.466c0.00061,0.96942,0.2608,1.92096,0.75354,2.7558c-0.12225,0.62079-0.18542,1.25177-0.18866,1.88452c0.04352,5.15753,4.25983,9.30328,9.41736,9.2597c0.04102-0.00031,0.08197-0.00092,0.12292-0.00183c0.58502,0.00439,1.16895-0.05121,1.74268-0.16583C14.6402,21.67841,15.53894,21.95392,16.46368,22c3,0.05676,5.47803-2.32916,5.53485-5.32922C22.01501,15.79926,21.82159,14.93658,21.43451,14.15552z M16.43964,15.9931c-0.41382,0.55475-0.9776,0.97968-1.62488,1.22473c-0.80096,0.31885-1.65857,0.47095-2.52032,0.44708c-1.00104,0.03247-1.99512-0.17737-2.89764-0.61176c-0.52789-0.28119-0.98047-0.68512-1.31964-1.1778c-0.30109-0.41174-0.47302-0.90369-0.49402-1.41339c-0.00476-0.26221,0.10754-0.51288,0.30646-0.68384c0.21173-0.19238,0.4906-0.29382,0.77643-0.28247c0.23126-0.00952,0.45795,0.06616,0.63702,0.21271c0.19647,0.18329,0.3493,0.40839,0.44708,0.65863c0.12097,0.31372,0.28784,0.60779,0.49518,0.87256c0.18964,0.24884,0.44116,0.4436,0.72955,0.56488c0.39478,0.16638,0.8205,0.24664,1.24872,0.23553c0.60577,0.03314,1.20691-0.12311,1.71985-0.44708c0.40277-0.23541,0.65308-0.66443,0.65979-1.13092c0.01373-0.32788-0.11511-0.64563-0.35333-0.87134c-0.2594-0.24567-0.57513-0.42395-0.91943-0.51923c-0.37616-0.11774-0.89539-0.23553-1.53113-0.37616c-0.7301-0.15442-1.44672-0.36707-2.14294-0.6358c-0.53516-0.21442-1.0058-0.56342-1.36652-1.01312c-0.34119-0.45367-0.51599-1.0108-0.49512-1.57806C7.79407,8.8891,7.98462,8.32599,8.33679,7.86621C8.73584,7.3689,9.2663,6.99335,9.86792,6.78223c0.76367-0.26923,1.57013-0.39673,2.37964-0.37622c0.63751-0.00818,1.27271,0.07892,1.88452,0.25842c0.47595,0.13788,0.92273,0.36145,1.31842,0.65979c0.31531,0.23505,0.57983,0.53143,0.77765,0.87134c0.15112,0.26581,0.23218,0.56561,0.23553,0.8714c0.00073,0.26794-0.11035,0.52405-0.30646,0.70667c-0.19574,0.20526-0.47009,0.31683-0.7536,0.30646c-0.22748,0.01343-0.45245-0.05334-0.63574-0.18866c-0.18927-0.17694-0.34839-0.38361-0.47113-0.61176c-0.18744-0.37378-0.45258-0.70325-0.77759-0.96631c-0.43573-0.27264-0.94812-0.39661-1.46027-0.35333c-0.52887-0.02466-1.05334,0.10657-1.5083,0.37738c-0.33234,0.17871-0.54669,0.51849-0.56488,0.89539c0.00128,0.20355,0.06732,0.40143,0.18866,0.56488c0.14594,0.17499,0.33185,0.31226,0.54205,0.40021c0.21472,0.11713,0.44434,0.20441,0.68262,0.25958c0.2356,0.07092,0.61298,0.16467,1.15381,0.28247c0.65979,0.14178,1.27277,0.30646,1.81476,0.47107c0.49078,0.14539,0.95856,0.35944,1.3894,0.6358c0.36688,0.24109,0.67322,0.56354,0.89532,0.94226c0.22699,0.42767,0.34039,0.90643,0.32935,1.3905C17.0097,14.82776,16.81879,15.46655,16.43964,15.9931z"/></svg>