<svg xmlns="http://www.w3.org/2000/svg" viewBox="0 0 24 24"><path class="uim-primary" d="M21,22H3a.99974.99974,0,0,1-1-1V3A.99974.99974,0,0,1,3,2H21a.99974.99974,0,0,1,1,1V21A.99974.99974,0,0,1,21,22ZM4,20H20V4H4Z"/><path class="uim-primary" d="M9 22a.99974.99974 0 0 1-1-1V3a1 1 0 0 1 2 0V21A.99974.99974 0 0 1 9 22zM15 22a.99974.99974 0 0 1-1-1V3a1 1 0 0 1 2 0V21A.99974.99974 0 0 1 15 22z"/><path class="uim-primary" d="M21 10H3A1 1 0 0 1 3 8H21a1 1 0 0 1 0 2zM21 16H3a1 1 0 0 1 0-2H21a1 1 0 0 1 0 2z"/></svg>