<svg xmlns="http://www.w3.org/2000/svg" data-name="Layer 1" viewBox="0 0 24 24"><circle cx="9" cy="15" r="1" class="uim-primary"/><circle cx="15" cy="9" r="1" class="uim-primary"/><path class="uim-quaternary" d="M12 8a1 1 0 0 1-1-1V2a1 1 0 0 1 2 0V7A1 1 0 0 1 12 8zM12 23a1 1 0 0 1-1-1V17a1 1 0 0 1 2 0v5A1 1 0 0 1 12 23zM22 13H18a1 1 0 0 1 0-2h4a1 1 0 0 1 0 2z"/><path class="uim-primary" d="M4.97906 17.60687l-.75738.75739a.99989.99989 0 1 0 1.41406 1.41406l.75781-.75781A9.05911 9.05911 0 0 1 4.97906 17.60687zM19.02051 6.39355l.75781-.75781a.99989.99989 0 0 0-1.41406-1.41406l-.75739.75738A9.05911 9.05911 0 0 1 19.02051 6.39355z"/><path class="uim-quaternary" d="M6,13H2a1,1,0,0,1,0-2H6a1,1,0,0,1,0,2Z"/><path class="uim-primary" d="M22,23.002a.99672.99672,0,0,1-.707-.293l-20-20A.99989.99989,0,0,1,2.707,1.29492l20,20A1,1,0,0,1,22,23.002Z"/><path class="uim-secondary" d="M15.74628 14.33417a1.49957 1.49957 0 0 0-2.08045-2.08045zM8.25232 9.66833a1.49925 1.49925 0 0 0 2.07935 2.07935z"/><path class="uim-tertiary" d="M17.60632 19.02234l-7.27465-7.27466A1.49925 1.49925 0 0 1 8.25232 9.66833L4.97821 6.39423A8.94314 8.94314 0 0 0 3.059 11H6a1 1 0 0 1 0 2H3.059A9.01235 9.01235 0 0 0 11 20.93915V17a1 1 0 0 1 2 0v3.941A8.94864 8.94864 0 0 0 17.60632 19.02234zM9 16a1 1 0 1 1 1-1A1 1 0 0 1 9 16zM6.39246 4.98035l7.27337 7.27337a1.49957 1.49957 0 0 1 2.08045 2.08045l3.27429 3.27429A8.94873 8.94873 0 0 0 20.941 13H18a1 1 0 0 1 0-2h2.93915A9.01235 9.01235 0 0 0 13 3.059V7a1 1 0 0 1-2 0V3.06085A8.95292 8.95292 0 0 0 6.39246 4.98035zM15 8a1 1 0 1 1-1 1A1 1 0 0 1 15 8z"/></svg>