<svg xmlns="http://www.w3.org/2000/svg" enable-background="new 0 0 24 24" viewBox="0 0 24 24"><path class="uim-tertiary" d="M18.14581,16.27081h-1.45833c-0.552,0-0.71873-0.44793-1.70829-1.4375C14.11456,14,13.75,13.89581,13.53125,13.89581c-0.30206,0-0.38544,0.08332-0.38544,0.5v1.3125c0,0.35419-0.11456,0.5625-1.04162,0.5625c-1.82498-0.12261-3.47987-1.11477-4.44794-2.66668c-1.13289-1.41009-1.92114-3.06507-2.30206-4.83332c0-0.21875,0.08329-0.41668,0.5-0.41668h1.45829c0.375,0,0.51046,0.16668,0.65627,0.55212c0.70831,2.08331,1.91669,3.89581,2.40625,3.89581c0.18748,0,0.27081-0.08331,0.27081-0.55206v-2.14587c-0.0625-0.97913-0.58333-1.0625-0.58333-1.41663c0.01426-0.19426,0.18041-0.34196,0.375-0.33337h2.29171c0.3125,0,0.41662,0.15625,0.41662,0.53125v2.89587c0,0.3125,0.13544,0.41663,0.22919,0.41663c0.18748,0,0.33331-0.10413,0.67706-0.44788c0.73869-0.90082,1.34225-1.90441,1.79169-2.97919c0.09427-0.26579,0.35411-0.43617,0.63544-0.41668h1.45829c0.43752,0,0.53127,0.21875,0.43752,0.53125c-0.53063,1.18831-1.18715,2.3163-1.95831,3.36462c-0.15625,0.23956-0.21875,0.36456,0,0.64581c0.14579,0.21875,0.65625,0.64582,1,1.05207c0.49999,0.49874,0.91516,1.07579,1.22912,1.70837C18.77081,16.0625,18.56248,16.27081,18.14581,16.27081z"/><path class="uim-primary" d="M15.07294,2H8.9375C3.33331,2,2,3.33331,2,8.92706v6.13544C2,20.66663,3.32294,22,8.92706,22h6.13544C20.66669,22,22,20.67706,22,15.07288V8.9375C22,3.33331,20.67706,2,15.07294,2z M18.14581,16.27081H16.6875c-0.552,0-0.71875-0.44794-1.70831-1.4375C14.11456,14,13.75,13.89581,13.53125,13.89581c-0.30206,0-0.38544,0.08331-0.38544,0.5v1.3125c0,0.35419-0.11456,0.5625-1.04163,0.5625c-1.82495-0.12262-3.47986-1.11475-4.44794-2.66669c-1.13287-1.4101-1.92114-3.06506-2.30206-4.83331c0-0.21875,0.08331-0.41669,0.5-0.41669H7.3125c0.375,0,0.51044,0.16669,0.65625,0.55212c0.70831,2.08331,1.91669,3.89581,2.40625,3.89581c0.1875,0,0.27081-0.08331,0.27081-0.55206v-2.14587C10.58331,9.125,10.0625,9.04163,10.0625,8.6875c0.01422-0.19427,0.18042-0.34198,0.375-0.33337h2.29169c0.3125,0,0.41663,0.15625,0.41663,0.53125v2.89587c0,0.3125,0.13544,0.41663,0.22919,0.41663c0.1875,0,0.33331-0.10413,0.67706-0.44788c0.73871-0.90082,1.34222-1.90442,1.79169-2.97919c0.09424-0.26581,0.35413-0.43616,0.63544-0.41669h1.45831c0.4375,0,0.53125,0.21875,0.4375,0.53125c-0.53064,1.18829-1.18713,2.31628-1.95831,3.36462c-0.15625,0.23956-0.21875,0.36456,0,0.64581c0.14581,0.21875,0.65625,0.64581,1,1.05206c0.5,0.49872,0.91516,1.07581,1.22913,1.70837C18.77081,16.0625,18.5625,16.27081,18.14581,16.27081z"/></svg>