<svg xmlns="http://www.w3.org/2000/svg" enable-background="new 0 0 24 24" viewBox="0 0 24 24"><path class="uim-primary" d="M6.97592,3.43329l3.64623,0.00129l1.38355,1.956l1.3743-1.956l3.64334-0.00074l-4.99953,8.40656L6.97592,3.43329z"/><path class="uim-primary" d="M14.59955,2.43c-0.32568-0.00003-0.63097,0.15854-0.81824,0.425L12,5.39l-1.7912-2.5368C10.02143,2.5878,9.71679,2.42997,9.39191,2.43H6.38l3.55,5.92l2.1,3.5l2.07-3.5l3.52-5.92L14.59955,2.43z"/><path class="uim-tertiary" d="M22.00098,2.43848L17.617,2.43506l-3.51703,5.91492l-2.06995,3.5l-2.10004-3.5l-3.5459-5.91315L1.99463,2.46094c-0.17621,0.00085-0.349,0.04828-0.50098,0.13745C1.01733,2.87787,0.85779,3.49048,1.13721,3.9668l10.01953,17.10547c0.17963,0.30603,0.50793,0.49408,0.86279,0.49414h0.00098c0.35547-0.00031,0.68408-0.18915,0.86328-0.49609l9.98047-17.12793C22.95312,3.78986,23,3.61652,23.00024,3.44C23.00085,2.88751,22.55353,2.43915,22.00098,2.43848z"/></svg>