<svg xmlns="http://www.w3.org/2000/svg" data-name="Layer 1" viewBox="0 0 24 24"><circle cx="12" cy="12" r="10" class="uim-quaternary"/><path class="uim-primary" d="M12,1.99991a10.00009,10.00009,0,1,0,10,9.99975A10.01117,10.01117,0,0,0,12,1.99991ZM3.00928,11.99966a8.95545,8.95545,0,0,1,.77844-3.659L8.07654,20.09122A8.99125,8.99125,0,0,1,3.00928,11.99966ZM12,20.99112a8.98762,8.98762,0,0,1-2.54-.36633l2.69788-7.83869,2.7633,7.57135a.84324.84324,0,0,0,.06446.1239A8.97139,8.97139,0,0,1,12,20.99112ZM13.239,7.78427c.54126-.02844,1.02906-.08539,1.02906-.08539a.37165.37165,0,0,0-.05738-.741s-1.4563.11432-2.39648.11432c-.8833,0-2.3678-.11432-2.3678-.11432a.37165.37165,0,0,0-.057.741s.4585.05695.943.08539l1.40075,3.838-1.968,5.90088L6.49133,7.78427c.54163-.02844,1.02893-.08539,1.02893-.08539a.37166.37166,0,0,0-.05749-.741s-1.45593.11432-2.39612.11432c-.1687,0-.36768-.00416-.57861-.01093A8.98815,8.98815,0,0,1,18.07117,5.36948c-.0387-.00238-.07654-.00721-.11634-.00721A1.5567,1.5567,0,0,0,16.445,6.95792a4.21016,4.21016,0,0,0,.88317,2.1087,4.73577,4.73577,0,0,1,.74122,2.47955,10.88314,10.88314,0,0,1-.68409,2.9065l-.897,2.99634ZM16.52,19.7709l2.74609-7.93969a8.489,8.489,0,0,0,.68372-3.22028,6.9105,6.9105,0,0,0-.06043-.92456A8.99223,8.99223,0,0,1,16.52,19.7709Z"/></svg>