<svg xmlns="http://www.w3.org/2000/svg" enable-background="new 0 0 24 24" viewBox="0 0 24 24"><path class="uim-tertiary" d="M15.66349,11.77493c-2.017-1.07792-3.9484-2.07746-5.9226-3.11211v6.18993c2.07746-1.12933,4.26757-2.164,5.93117-3.08639C15.67206,11.76636,15.66349,11.77493,15.66349,11.77493z"/><path class="uim-primary" d="M22.97382,9.7146c0.04663-1.43134-0.26746-2.85144-0.91345-4.12958c-0.4317-0.53339-1.04034-0.89423-1.71545-1.01715c-2.77203-0.24066-5.55463-0.3385-8.33679-0.29303C9.22614,4.22913,6.44366,4.32697,3.67175,4.56787C3.12262,4.67041,2.6142,4.92755,2.20612,5.30908C1.31146,6.13843,1.24615,7.56,1.11145,8.75751c-0.14758,2.15845-0.14758,4.32452,0,6.48297C1.1358,15.91644,1.237,16.5874,1.41309,17.24042c0.11926,0.50562,0.36218,0.97375,0.70691,1.36237c0.40814,0.40222,0.92773,0.67236,1.49139,0.77545c2.15582,0.26709,4.32831,0.37665,6.50012,0.32776v0.00006c3.49408,0.05591,6.57275-0.0033,10.1983-0.27594c0.57941-0.09943,1.11475-0.37305,1.53461-0.78442c0.27277-0.27124,0.47931-0.60168,0.6037-0.9657c0.36157-1.09528,0.53918-2.24286,0.5257-3.39618C23.00806,13.68872,23.00806,10.30969,22.97382,9.7146z M15.66351,11.7749c-0.00128-0.00067-0.0025-0.00134-0.00378-0.00201c-0.82916,0.45929-1.7876,0.94629-2.79803,1.45905c-1.0152,0.51514-2.08203,1.05609-3.12079,1.62079V8.66284V8.66278c0.98712,0.51733,1.9635,1.02594,2.94525,1.53986c0.98053,0.51331,1.96643,1.03198,2.97357,1.57025c0.00385-0.00214,0.00848-0.00439,0.01233-0.00653L15.66351,11.7749z"/></svg>