<svg xmlns="http://www.w3.org/2000/svg" x="0px" y="0px"
	 width="512px" height="512px" viewBox="0 0 512 512" enable-background="new 0 0 512 512" xml:space="preserve">
<defs>
	<style>.cls-1{fill:#84aff1;}.cls-2{fill:url(#linear-gradient);}.cls-3{fill:#3865ab;}</style>
	<linearGradient id="linear-gradient" y1="40.18" x2="82.99" y2="40.18" gradientUnits="userSpaceOnUse"><stop offset="0" stop-color="#f2cc0c"/><stop offset="1" stop-color="#ff9830"/>
	</linearGradient>
</defs>
<path  class="cls-3"  d="M416,48c-44.188,0-80,35.813-80,80c0,11.938,2.625,23.281,7.313,33.438L416,304l72.688-142.563
	C493.375,151.281,496,139.938,496,128C496,83.813,460.188,48,416,48z M416,176c-26.5,0-48-21.5-48-48s21.5-48,48-48s48,21.5,48,48
	S442.5,176,416,176z M439.938,327.469l29.125,58.219l-73.844,36.906l-24.75-123.813l4.156-4.156l0.438-0.438l-15.25-30L352,272
	l-96-64l-96,64l-64-64L0,400l128,64l128-64l128,64l128-64l-54-107.969L439.938,327.469z M116.75,422.594l-73.813-36.906L104.75,262
	l32.625,32.625l4.156,4.156L116.75,422.594z M240,372.219l-89.5,44.75l23.125-115.594l4.125-2.75l62.25-41.5V372.219z M272,372.219
	V257.125l62.25,41.5l4.094,2.75l23.125,115.594L272,372.219z"/>
</svg>
