<svg xmlns="http://www.w3.org/2000/svg" xmlns:xlink="http://www.w3.org/1999/xlink" viewBox="0 0 79.8 82.08"><defs><style>.cls-1{fill:#84aff1;}.cls-2{fill:#3865ab;}.cls-3{fill:#fff;}.cls-4{fill:url(#linear-gradient);}</style><linearGradient id="linear-gradient" x1="23.91" y1="19.31" x2="55.89" y2="19.31" gradientUnits="userSpaceOnUse"><stop offset="0" stop-color="#f2cc0c"/><stop offset="1" stop-color="#ff9830"/></linearGradient></defs><g id="Layer_2" data-name="Layer 2"><g id="Layer_1-2" data-name="Layer 1"><path class="cls-1" d="M54,30.13,39.9,44.27h0V82.08l20-10V16.88A19.85,19.85,0,0,1,54,30.13Z"/><path class="cls-2" d="M25.76,30.13A19.89,19.89,0,0,1,20,16.69V72.11l20,10V44.27Z"/><path class="cls-1" d="M20,72.11,1.45,81.36A1,1,0,0,1,0,80.47V26.18a1,1,0,0,1,.55-.89L20,15.6Z"/><path class="cls-2" d="M78.35,81.36l-18.5-9.25V15.6l19.4,9.69a1,1,0,0,1,.55.89V80.47A1,1,0,0,1,78.35,81.36Z"/><path class="cls-3" d="M68.37,37.9a2.26,2.26,0,0,0,.79.5,2.39,2.39,0,0,0,1.82,0,2.17,2.17,0,0,0,.79-.5,2.55,2.55,0,0,0,.51-.79,2.42,2.42,0,0,0-.51-2.62A2.71,2.71,0,0,0,71,34a2.22,2.22,0,0,0-1.82,0,2.71,2.71,0,0,0-.79.5,2.42,2.42,0,0,0-.51,2.62A2.55,2.55,0,0,0,68.37,37.9Z"/><path class="cls-3" d="M68.37,67.57a2.44,2.44,0,0,0,.79.51,2.39,2.39,0,0,0,1.82,0,2.23,2.23,0,0,0,1.3-1.3,2.41,2.41,0,0,0-.51-2.61,3,3,0,0,0-.79-.51,2.3,2.3,0,0,0-1.82,0,3,3,0,0,0-.79.51,2.41,2.41,0,0,0-.51,2.61A2.34,2.34,0,0,0,68.37,67.57Z"/><path class="cls-3" d="M48.17,47.39a2.52,2.52,0,0,0,.79.5,2.42,2.42,0,0,0,1.83,0,2.52,2.52,0,0,0,.79-.5,2.3,2.3,0,0,0,.5-.8,2.38,2.38,0,0,0-.5-2.61,2.71,2.71,0,0,0-.79-.5,2.24,2.24,0,0,0-1.83,0,2.85,2.85,0,0,0-.79.5,2.38,2.38,0,0,0-.5,2.61A2.3,2.3,0,0,0,48.17,47.39Z"/><path class="cls-3" d="M28,67.57a2.55,2.55,0,0,0,.79.51,2.39,2.39,0,0,0,1.82,0,2.23,2.23,0,0,0,1.3-1.3,2.41,2.41,0,0,0-.51-2.61,3,3,0,0,0-.79-.51,2.3,2.3,0,0,0-1.82,0,3,3,0,0,0-.79.51,2.38,2.38,0,0,0-.5,2.61A2.17,2.17,0,0,0,28,67.57Z"/><path class="cls-3" d="M8.27,37.9a2.35,2.35,0,0,0,.79.5,2.42,2.42,0,0,0,1.83,0,2.13,2.13,0,0,0,1.29-1.29,2.4,2.4,0,0,0-.5-2.62,2.85,2.85,0,0,0-.79-.5,2.24,2.24,0,0,0-1.83,0,2.85,2.85,0,0,0-.79.5,2.4,2.4,0,0,0-.5,2.62A2.35,2.35,0,0,0,8.27,37.9Z"/><path class="cls-4" d="M51.21,4.68A16,16,0,0,0,28.59,27.3L39.9,38.61,51.21,27.3a16,16,0,0,0,0-22.62ZM45.38,17.17a5.38,5.38,0,0,1-3.21,3.21,5.9,5.9,0,0,1-4.52,0,6,6,0,0,1-2-1.25,6,6,0,0,1-1.25-2,6,6,0,0,1,1.25-6.48,6.79,6.79,0,0,1,2-1.25,5.56,5.56,0,0,1,4.52,0,6.74,6.74,0,0,1,2,1.25A5.94,5.94,0,0,1,45.38,17.17Z"/></g></g></svg>