<?xml version="1.0" encoding="UTF-8" standalone="no"?>
<svg
   xmlns:dc="http://purl.org/dc/elements/1.1/"
   xmlns:cc="http://creativecommons.org/ns#"
   xmlns:rdf="http://www.w3.org/1999/02/22-rdf-syntax-ns#"
   xmlns:svg="http://www.w3.org/2000/svg"
   xmlns="http://www.w3.org/2000/svg"
   id="svg3849"
   version="1.1"
   viewBox="0 0 61.945309 61.946365"
   height="61.946365mm"
   width="61.945309mm">
  <defs
     id="defs3843">
    <clipPath
       id="clipPath3787"
       clipPathUnits="userSpaceOnUse">
      <path
         id="path3785"
         d="M 0,256 H 800 V 0 H 0 Z" />
    </clipPath>
  </defs>
  <metadata
     id="metadata3846">
    <rdf:RDF>
      <cc:Work
         rdf:about="">
        <dc:format>image/svg+xml</dc:format>
        <dc:type
           rdf:resource="http://purl.org/dc/dcmitype/StillImage" />
        <dc:title></dc:title>
      </cc:Work>
    </rdf:RDF>
  </metadata>
  <g
     transform="translate(-79.396395,-81.574437)"
     id="layer1">
    <g
       id="g3781"
       transform="matrix(0.35277777,0,0,-0.35277777,70.947367,156.99141)">
      <g
         clip-path="url(#clipPath3787)"
         id="g3783">
        <g
           transform="translate(199.543,125.9844)"
           id="g3789">
          <path
             id="path3791"
             style="fill:#558ed5;fill-opacity:1;fill-rule:nonzero;stroke:none"
             d="m 0,0 c 0,-48.489 -39.309,-87.8 -87.796,-87.8 -48.491,0 -87.797,39.311 -87.797,87.8 0,48.489 39.306,87.796 87.797,87.796 C -39.309,87.796 0,48.489 0,0" />
        </g>
        <g
           transform="translate(147.9321,194.0879)"
           id="g3793">
          <path
             id="path3795"
             style="fill:#ffffff;fill-opacity:1;fill-rule:nonzero;stroke:none"
             d="M 0,0 C -11.599,0 -20.999,-9.4 -20.999,-20.999 -20.999,-32.597 -11.599,-42 0,-42 c 11.598,0 20.999,9.403 20.999,21.001 C 20.999,-9.4 11.598,0 0,0" />
        </g>
        <g
           transform="translate(37.3682,171.7598)"
           id="g3797">
          <path
             id="path3799"
             style="fill:#ffffff;fill-opacity:1;fill-rule:nonzero;stroke:none"
             d="M 0,0 C -5.852,-5.809 -8.902,-12.808 -9.224,-20.97 -6.92,-13.304 -3.593,-6.086 0.593,0.538 0.398,0.353 0.193,0.191 0,0" />
        </g>
        <g
           transform="translate(34.0835,85.46)"
           id="g3801">
          <path
             id="path3803"
             style="fill:#ffffff;fill-opacity:1;fill-rule:nonzero;stroke:none"
             d="m 0,0 h -3.925 v -15.39 h 13.97 C 6.181,-10.648 2.817,-5.488 0,0" />
        </g>
        <g
           transform="translate(194.915,95.9609)"
           id="g3805">
          <path
             id="path3807"
             style="fill:#ffffff;fill-opacity:1;fill-rule:nonzero;stroke:none"
             d="M 0,0 C -1.781,-4.99 -4.009,-9.763 -6.621,-14.286 -3.104,-10.058 -0.91,-5.29 0,0" />
        </g>
        <g
           transform="translate(163.9429,70.0703)"
           id="g3809">
          <path
             id="path3811"
             style="fill:#ffffff;fill-opacity:1;fill-rule:nonzero;stroke:none"
             d="m 0,0 c 8.686,0 16.103,3.096 22.25,9.287 0.748,0.754 1.446,1.527 2.102,2.317 2.611,4.524 4.839,9.296 6.62,14.287 0.318,1.844 0.498,3.747 0.498,5.719 0,8.685 -3.075,16.101 -9.22,22.251 C 16.103,60.006 8.686,63.08 0,63.08 h -104.254 c -4.53,0 -8.366,1.593 -11.506,4.783 -3.144,3.187 -4.715,7.001 -4.715,11.436 0,4.529 1.571,8.364 4.715,11.507 3.14,3.141 6.976,4.715 11.506,4.715 h 100.92 v 15.387 h -100.92 c -8.419,0 -15.653,-2.911 -21.727,-8.681 -4.186,-6.624 -7.514,-13.841 -9.818,-21.507 -0.019,-0.474 -0.064,-0.937 -0.064,-1.421 0,-8.688 3.095,-16.104 9.288,-22.251 6.192,-6.146 13.632,-9.218 22.321,-9.218 H 0 c 4.436,0 8.248,-1.596 11.437,-4.781 3.188,-3.192 4.783,-7.004 4.783,-11.439 0,-4.529 -1.595,-8.366 -4.783,-11.51 C 8.248,16.959 4.436,15.39 0,15.39 h -129.859 c 2.817,-5.489 6.181,-10.649 10.045,-15.39 z" />
        </g>
        <g
           transform="translate(158.5571,173.0879)"
           id="g3813">
          <path
             id="path3815"
             style="fill:#e46c0a;fill-opacity:1;fill-rule:nonzero;stroke:none"
             d="m 0,0 c 0,-5.867 -4.758,-10.625 -10.625,-10.625 -5.867,0 -10.624,4.758 -10.624,10.625 0,5.867 4.757,10.625 10.624,10.625 C -4.758,10.625 0,5.867 0,0" />
        </g>
      </g>
    </g>
  </g>
</svg>
