<svg xmlns="http://www.w3.org/2000/svg" xmlns:xlink="http://www.w3.org/1999/xlink" viewBox="0 0 80.09 80.09">
    <defs>
        <style>.cls-1{fill:#3865ab;}.cls-2{fill:#84aff1;}.cls-3{fill:url(#linear-gradient);}.cls-4{fill:url(#linear-gradient-2);}</style>
        <linearGradient id="linear-gradient" y1="19.02" x2="66.08" y2="19.02" gradientUnits="userSpaceOnUse">
            <stop offset="0" stop-color="#f2cc0c" />
            <stop offset="1" stop-color="#ff9830" />
        </linearGradient>
        <linearGradient id="linear-gradient-2" y1="54.06" x2="66.08" y2="54.06" xlink:href="#linear-gradient" />
    </defs>
    <g id="Layer_2" data-name="Layer 2">
        <g id="Layer_1-2" data-name="Layer 1">
            <rect class="cls-1" width="10.02" height="10.02" rx="1" />
            <rect class="cls-1" x="28.03" width="10.02" height="10.02" rx="1" />
            <rect class="cls-1" x="42.05" width="10.02" height="10.02" rx="1" />
            <rect class="cls-3" x="56.06" width="10.02" height="10.02" rx="1" />
            <rect class="cls-1" x="70.08" y="14.02" width="10.02" height="10.02" rx="1" />
            <rect class="cls-1" x="28.03" y="28.03" width="10.02" height="10.02" rx="1" />
            <rect class="cls-1" x="42.05" y="28.03" width="10.02" height="10.02" rx="1" />
            <rect class="cls-1" x="56.06" y="28.03" width="10.02" height="10.02" rx="1" />
            <rect class="cls-3" x="70.08" y="28.03" width="10.02" height="10.02" rx="1" />
            <rect class="cls-1" y="42.05" width="10.02" height="10.02" rx="1" />
            <rect class="cls-1" x="42.05" y="42.05" width="10.02" height="10.02" rx="1" />
            <rect class="cls-1" x="56.06" y="42.05" width="10.02" height="10.02" rx="1" />
            <rect class="cls-1" x="70.08" y="42.05" width="10.02" height="10.02" rx="1" />
            <rect class="cls-3" x="14.02" y="56.06" width="10.02" height="10.02" rx="1" />
            <rect class="cls-1" x="14.02" y="70.08" width="10.02" height="10.02" rx="1" />
            <rect class="cls-1" x="28.03" y="70.08" width="10.02" height="10.02" rx="1" />
            <rect class="cls-3" x="42.05" y="70.08" width="10.02" height="10.02" rx="1" />
            <rect class="cls-1" x="14.02" width="10.02" height="10.02" rx="1" />
            <rect class="cls-1" y="28.03" width="10.02" height="10.02" rx="1" transform="translate(38.05 28.03) rotate(90)" />
            <rect class="cls-1" x="70.08" y="56.06" width="10.02" height="10.02" rx="1" transform="translate(136.16 -14.02) rotate(90)" />
            <rect class="cls-1" x="70.08" width="10.02" height="10.02" rx="1" transform="translate(80.09 -70.08) rotate(90)" />
            <path class="cls-1" d="M9,24H1a1,1,0,0,1-1-1V15a1,1,0,0,1,1-1H9a1,1,0,0,1,1,1v8A1,1,0,0,1,9,24Zm15-1V15a1,1,0,0,0-1-1H15a1,1,0,0,0-1,1v8a1,1,0,0,0,1,1h8A1,1,0,0,0,24,23Zm14,0V15a1,1,0,0,0-1-1H29a1,1,0,0,0-1,1v8a1,1,0,0,0,1,1h8A1,1,0,0,0,38.05,23Zm28,0V15a1,1,0,0,0-1-1h-8a1,1,0,0,0-1,1v8a1,1,0,0,0,1,1h8A1,1,0,0,0,66.08,23Zm-15,1h-8a1,1,0,0,1-1-1V15a1,1,0,0,1,1-1h8a1,1,0,0,1,1,1v8A1,1,0,0,1,51.06,24Z" />
            <rect class="cls-1" x="14.02" y="28.03" width="10.02" height="10.02" rx="1" />
            <rect class="cls-1" x="28.03" y="56.06" width="10.02" height="10.02" rx="1" />
            <path class="cls-1" d="M37.05,52.06H29a1,1,0,0,1-1-1v-8a1,1,0,0,1,1-1h8a1,1,0,0,1,1,1v8A1,1,0,0,1,37.05,52.06Zm-14,0H15a1,1,0,0,1-1-1v-8a1,1,0,0,1,1-1h8a1,1,0,0,1,1,1v8A1,1,0,0,1,23,52.06Zm-13,13v-8a1,1,0,0,0-1-1H1a1,1,0,0,0-1,1v8a1,1,0,0,0,1,1H9A1,1,0,0,0,10,65.08Zm42,0v-8a1,1,0,0,0-1-1h-8a1,1,0,0,0-1,1v8a1,1,0,0,0,1,1h8A1,1,0,0,0,52.06,65.08Zm14,0v-8a1,1,0,0,0-1-1h-8a1,1,0,0,0-1,1v8a1,1,0,0,0,1,1h8A1,1,0,0,0,66.08,65.08Z" />
            <rect class="cls-1" y="70.08" width="10.02" height="10.02" rx="1" />
            <rect class="cls-1" x="56.06" y="70.08" width="10.02" height="10.02" rx="1" />
            <rect class="cls-1" x="70.08" y="70.08" width="10.02" height="10.02" rx="1" />
        </g>
    </g>
</svg>