<?xml version="1.0" encoding="utf-8"?>
<svg id="Layer_1" data-name="Layer 1" viewBox="0 0 100 100" xmlns="http://www.w3.org/2000/svg">
  <defs>
    <style>.cls-1{fill:#0962a4;}</style>
  </defs>
  <title>Main-horizontal-color</title>
  <path class="cls-1" d="M 9.07 15 L 9.07 85 L 79.07 85 L 79.07 15 L 9.07 15 Z M 73.76 79.68 L 14.39 79.68 L 14.39 20.32 L 73.76 20.32 L 73.76 79.68 Z M 63.54 40.54 C 63.534 37.974 61.456 35.896 58.89 35.89 L 58.26 35.89 C 55.694 35.896 53.616 37.974 53.61 40.54 L 53.61 64.11 L 63.54 64.11 L 63.54 40.54 Z M 48.92 40.54 C 48.92 37.972 46.838 35.89 44.27 35.89 L 43.65 35.89 C 41.084 35.896 39.006 37.974 39 40.54 L 39 64.11 L 48.93 64.11 L 48.92 40.54 Z M 33.81 64.17 L 34.55 64.32 L 34.55 35.65 L 33.79 35.84 C 27.64 37.31 23.5 43 23.5 50 C 23.5 57 27.74 63 33.81 64.17 Z"/>
</svg>