<?xml version="1.0" encoding="UTF-8" standalone="no"?>
<!-- Created with Inkscape (http://www.inkscape.org/) -->

<svg
   xmlns:dc="http://purl.org/dc/elements/1.1/"
   xmlns:cc="http://creativecommons.org/ns#"
   xmlns:rdf="http://www.w3.org/1999/02/22-rdf-syntax-ns#"
   xmlns:svg="http://www.w3.org/2000/svg"
   xmlns="http://www.w3.org/2000/svg"
   version="1.1"
   width="279.18411"
   height="187.47701"
   id="svg2816"
   xml:space="preserve"><title
     id="title3537">Apache Cassandra</title><metadata
     id="metadata2822"><rdf:RDF><cc:Work
         rdf:about=""><dc:format>image/svg+xml</dc:format><dc:type
           rdf:resource="http://purl.org/dc/dcmitype/StillImage" /><dc:title>Apache Cassandra</dc:title><cc:license
           rdf:resource="Apache License" /><dc:creator><cc:Agent><dc:title>Apache Software Foundation</dc:title></cc:Agent></dc:creator><dc:source>https://svn.apache.org/repos/asf/cassandra/logo/cassandra.svg</dc:source></cc:Work></rdf:RDF></metadata><defs
     id="defs2820"><clipPath
       id="clipPath2832"><path
         d="M 0,792 612,792 612,0 0,0 0,792 z"
         id="path2834" /></clipPath><clipPath
       id="clipPath2844"><path
         d="M 0,792 612,792 612,0 0,0 0,792 z"
         id="path2846" /></clipPath><clipPath
       id="clipPath2852"><path
         d="m 96.0078,715.93 88.2902,0 0,-62.176 -88.2902,0 0,62.176 z"
         id="path2854" /></clipPath><clipPath
       id="clipPath2868"><path
         d="M 0,792 612,792 612,0 0,0 0,792 z"
         id="path2870" /></clipPath><clipPath
       id="clipPath2880"><path
         d="M 0,792 612,792 612,0 0,0 0,792 z"
         id="path2882" /></clipPath><clipPath
       id="clipPath2908"><path
         d="M 0,792 612,792 612,0 0,0 0,792 z"
         id="path2910" /></clipPath><clipPath
       id="clipPath2936"><path
         d="M 0,792 612,792 612,0 0,0 0,792 z"
         id="path2938" /></clipPath><clipPath
       id="clipPath2944"><path
         d="m 121.202,708.378 45.899,0 0,-45.859 -45.899,0 0,45.859 z"
         id="path2946" /></clipPath><clipPath
       id="clipPath2960"><path
         d="M 0,792 612,792 612,0 0,0 0,792 z"
         id="path2962" /></clipPath><clipPath
       id="clipPath2968"><path
         d="m 40.4033,726.188 212.4017,0 0,-61.818 -212.4017,0 0,61.818 z"
         id="path2970" /></clipPath><clipPath
       id="clipPath2988"><path
         d="M 0,792 612,792 612,0 0,0 0,792 z"
         id="path2990" /></clipPath><clipPath
       id="clipPath2996"><path
         d="m 39.5195,688.644 199.3805,0 0,-73.818 -199.3805,0 0,73.818 z"
         id="path2998" /></clipPath><clipPath
       id="clipPath3016"><path
         d="M 0,792 612,792 612,0 0,0 0,792 z"
         id="path3018" /></clipPath></defs><g
     transform="translate(-62.668647,-74.06425)"
     id="layer2"
     style="display:inline"><g
       transform="matrix(1.25,0,0,-1.25,19.117647,990)"
       id="g4555"><g
         id="g2828"><g
           clip-path="url(#clipPath2832)"
           id="g2830"><g
             transform="translate(210.8784,690.4834)"
             id="g2836"><path
               d="m 0,0 c 1.584,-18.452 -27.455,-36.014 -64.859,-39.223 -37.404,-3.209 -69.01,9.151 -70.592,27.602 -1.584,18.455 27.455,36.016 64.859,39.225 C -33.188,30.812 -1.582,18.455 0,0"
               id="path2838"
               style="fill:#bbe6fb;fill-opacity:1;fill-rule:nonzero;stroke:none" /></g></g></g><g
         id="g2840"><g
           clip-path="url(#clipPath2844)"
           id="g2842"><g
             id="g2848"><g
               id="g2850" /><g
               id="g2856"><g
                 clip-path="url(#clipPath2852)"
                 id="g2858"
                 style="opacity:0.35000604"><g
                   transform="translate(141.3843,715.9233)"
                   id="g2860"><path
                     d="m 0,0 c -14.268,0.232 -30.964,-5.433 -43.387,-10.738 -1.293,-3.726 -1.989,-7.689 -1.989,-11.797 0,-21.888 19.764,-39.634 44.145,-39.634 24.381,0 44.145,17.746 44.145,39.634 0,6.927 -1.984,13.435 -5.463,19.101 C 27.512,-1.889 13.842,-0.225 0,0"
                     id="path2862"
                     style="fill:#ffffff;fill-opacity:1;fill-rule:nonzero;stroke:none" /></g></g></g></g></g></g><g
         id="g2864"><g
           clip-path="url(#clipPath2868)"
           id="g2866"><g
             transform="translate(140.1528,715.9277)"
             id="g2872"><path
               d="m 0,0 c -7.899,0.482 -21.514,-3.639 -32.867,-7.75 -1.725,-4.071 -2.683,-8.526 -2.683,-13.201 0,-19.178 17.388,-34.725 35.782,-34.725 18.273,0 34.44,15.572 35.782,34.725 0.436,6.237 -1.711,12.114 -4.692,17.181 C 19.552,-1.697 7.061,-0.431 0,0"
               id="path2874"
               style="fill:#ffffff;fill-opacity:1;fill-rule:nonzero;stroke:none" /></g></g></g><g
         id="g2876"><g
           clip-path="url(#clipPath2880)"
           id="g2878"><g
             transform="translate(119.8818,697.4946)"
             id="g2884"><path
               d="M 0,0 C 0.969,2.146 2.437,3.197 3.859,4.996 3.701,5.422 3.355,6.815 3.355,7.298 c 0,2.156 1.749,3.906 3.906,3.906 0.509,0 0.995,-0.101 1.44,-0.278 6.465,4.927 14.976,7.075 23.529,5.163 0.781,-0.176 1.547,-0.389 2.299,-0.623 C 26.076,16.638 16.548,13.644 10.067,8.413 10.265,7.946 10.814,6.611 10.814,6.074 10.814,3.917 9.418,3.392 7.261,3.392 6.771,3.392 6.303,3.486 5.87,3.651 4.406,1.685 2.612,-2.06 1.734,-4.401 c 3.584,-3.206 6.822,-4.368 11.042,-5.945 -0.011,0.201 0.145,0.387 0.145,0.592 0,6.503 5.725,11.788 12.229,11.788 5.828,0 10.654,-4.238 11.596,-9.798 2.908,1.85 5.72,3.268 7.863,6.01 -0.5,0.61 -1.039,2.337 -1.039,3.187 0,1.957 1.588,3.544 3.545,3.544 0.277,0 0.543,-0.04 0.802,-0.1 1.088,2.236 1.909,4.606 2.434,7.05 -10.17,7.529 -29.847,6.502 -29.847,6.502 0,0 -15.658,0.817 -26.258,-4.349 C -5.047,8.969 -3.008,4.11 0,0"
               id="path2886"
               style="fill:#373535;fill-opacity:1;fill-rule:nonzero;stroke:none" /></g><g
             transform="translate(168.4907,700.4282)"
             id="g2888"><path
               d="m 0,0 c 0.719,-0.648 1.111,-1.217 1.42,-1.771 0.951,-1.71 -0.957,-3.275 -2.914,-3.275 -0.199,0 -0.391,0.027 -0.582,0.059 -2.205,-3.446 -6.067,-7.865 -9.498,-10.089 5.261,-0.862 10.222,-2.969 14.17,-6.225 2.875,5.151 5.08,12.589 5.08,18.907 0,4.809 -2.123,8.334 -5.328,10.92 C 2.18,5.95 0.805,2.347 0,0"
               id="path2890"
               style="fill:#373535;fill-opacity:1;fill-rule:nonzero;stroke:none" /></g><g
             transform="translate(125.7842,667.8032)"
             id="g2892"><path
               d="M 0,0 C 1.753,4.841 6.065,8.592 10.144,11.892 9.547,12.709 8.652,14.732 8.279,15.69 3.304,17.203 -1.098,20.035 -4.512,23.784 -4.537,23.675 -4.568,23.569 -4.594,23.46 -5.237,20.579 -5.355,17.692 -5.035,14.876 -2.653,14.432 -0.85,12.345 -0.85,9.834 -0.85,8.345 -2.155,6.187 -3.168,5.248 -2.067,2.872 -1.316,1.726 0,0"
               id="path2894"
               style="fill:#373535;fill-opacity:1;fill-rule:nonzero;stroke:none" /></g><g
             transform="translate(125.4756,663.7393)"
             id="g2896"><path
               d="m 0,0 c -2.091,2.079 -3.537,6.226 -4.894,8.83 -0.254,-0.039 -0.514,-0.066 -0.78,-0.066 -2.836,0 -5.807,2.38 -5.135,5.134 0.372,1.524 1.424,2.521 3.137,3.353 -0.39,3.157 -0.496,7.695 0.237,10.977 0.21,0.939 0.655,1.379 0.95,2.273 -3.129,4.579 -5.151,10.589 -5.151,16.552 0,0.218 0.011,0.433 0.016,0.649 -5.288,-2.652 -9.253,-6.83 -9.253,-13.407 0,-14.548 8.379,-28.819 20.846,-34.413 C -0.018,-0.079 -0.01,-0.039 0,0"
               id="path2898"
               style="fill:#373535;fill-opacity:1;fill-rule:nonzero;stroke:none" /></g><g
             transform="translate(156.1313,683.8511)"
             id="g2900"><path
               d="m 0,0 c -1.611,-4.582 -5.967,-7.873 -11.1,-7.873 -2.746,0 -5.265,0.947 -7.267,2.521 -4.127,-3.214 -7.871,-8.86 -9.774,-13.758 0.854,-0.919 1.449,-1.675 2.407,-2.49 2.887,-0.752 6.863,0 9.988,0 12.57,0 23.703,5.592 30.086,15.398 C 10.096,-3.263 5.09,-0.466 0,0"
               id="path2902"
               style="fill:#373535;fill-opacity:1;fill-rule:nonzero;stroke:none" /></g></g></g><g
         id="g2904"><g
           clip-path="url(#clipPath2908)"
           id="g2906"><g
             transform="translate(119.5596,695.7944)"
             id="g2912"><path
               d="m 0,0 c 0.969,2.146 2.184,4.132 3.605,5.931 -0.158,0.425 -0.25,0.884 -0.25,1.367 0,2.156 1.749,3.906 3.906,3.906 0.509,0 0.995,-0.101 1.44,-0.278 6.465,4.927 14.976,7.075 23.529,5.163 0.781,-0.176 1.547,-0.389 2.299,-0.623 -8.453,1.172 -17.187,-1.419 -23.668,-6.651 0.198,-0.466 0.306,-0.98 0.306,-1.517 0,-2.157 -1.749,-3.906 -3.906,-3.906 -0.49,0 -0.958,0.094 -1.391,0.259 -1.464,-1.966 -2.661,-4.138 -3.539,-6.48 3.078,-3.317 6.856,-5.94 11.075,-7.517 -0.01,0.201 -0.031,0.4 -0.031,0.605 0,6.503 5.271,11.775 11.775,11.775 5.828,0 10.654,-4.238 11.596,-9.798 2.908,1.85 5.492,4.226 7.634,6.968 -0.5,0.61 -0.81,1.379 -0.81,2.229 0,1.957 1.588,3.544 3.545,3.544 0.277,0 0.543,-0.04 0.802,-0.1 1.088,2.236 1.909,4.606 2.434,7.05 -10.17,7.529 -29.847,6.502 -29.847,6.502 0,0 -15.658,0.817 -26.258,-4.349 C -5.047,8.969 -3.008,4.11 0,0"
               id="path2914"
               style="fill:#1287b1;fill-opacity:1;fill-rule:nonzero;stroke:none" /></g><g
             transform="translate(169.0396,699.8481)"
             id="g2916"><path
               d="m 0,0 c 0.719,-0.648 1.18,-1.577 1.18,-2.621 0,-1.957 -1.588,-3.545 -3.545,-3.545 -0.199,0 -0.391,0.027 -0.582,0.059 -2.205,-3.446 -5.127,-6.384 -8.559,-8.608 5.072,-0.793 9.846,-2.945 13.793,-6.201 2.875,5.151 4.518,11.084 4.518,17.402 0,4.809 -2.123,8.334 -5.328,10.92 C 1.309,4.83 0.805,2.347 0,0"
               id="path2918"
               style="fill:#1287b1;fill-opacity:1;fill-rule:nonzero;stroke:none" /></g><g
             transform="translate(126.3252,666.6401)"
             id="g2920"><path
               d="M 0,0 C 1.753,4.841 4.799,9.185 8.878,12.484 8.281,13.302 7.789,14.195 7.416,15.153 2.44,16.666 -1.961,19.498 -5.375,23.247 -5.4,23.138 -5.432,23.032 -5.457,22.923 -6.101,20.042 -6.219,17.155 -5.898,14.339 -3.517,13.895 -1.713,11.808 -1.713,9.297 -1.713,7.808 -2.352,6.469 -3.365,5.53 -2.446,3.582 -1.316,1.726 0,0"
               id="path2922"
               style="fill:#1287b1;fill-opacity:1;fill-rule:nonzero;stroke:none" /></g><g
             transform="translate(125.4619,663.7983)"
             id="g2924"><path
               d="m 0,0 c -2.091,2.079 -3.846,4.467 -5.202,7.07 -0.255,-0.039 -0.515,-0.065 -0.78,-0.065 -2.836,0 -5.135,2.299 -5.135,5.134 0,2.032 1.184,3.784 2.897,4.616 -0.389,3.156 -0.257,6.432 0.477,9.714 0.21,0.938 0.466,1.854 0.761,2.749 -3.129,4.578 -4.962,10.113 -4.962,16.076 0,0.218 0.01,0.433 0.015,0.648 -5.288,-2.651 -9.253,-6.83 -9.253,-13.406 0,-14.549 8.688,-27.06 21.155,-32.654 C -0.018,-0.079 -0.01,-0.039 0,0"
               id="path2926"
               style="fill:#1287b1;fill-opacity:1;fill-rule:nonzero;stroke:none" /></g><g
             transform="translate(155.8091,682.1509)"
             id="g2928"><path
               d="m 0,0 c -1.611,-4.582 -5.967,-7.873 -11.1,-7.873 -2.746,0 -5.265,0.947 -7.267,2.521 -4.127,-3.214 -7.242,-7.595 -9.144,-12.494 0.853,-0.919 1.765,-1.785 2.723,-2.599 2.888,-0.752 5.917,-1.155 9.042,-1.155 12.57,0 23.621,6.49 30.004,16.295 C 10.014,-2.365 5.09,-0.466 0,0"
               id="path2930"
               style="fill:#1287b1;fill-opacity:1;fill-rule:nonzero;stroke:none" /></g></g></g><g
         id="g2932"><g
           clip-path="url(#clipPath2936)"
           id="g2934"><g
             id="g2940"><g
               id="g2942" /><g
               id="g2948"><g
                 clip-path="url(#clipPath2944)"
                 id="g2950"><g
                   transform="translate(156.2222,685.187)"
                   id="g2952"><path
                     d="M 0,0 10.879,2.595 -0.041,3.152 8.846,9.944 -1.238,6.329 5.615,15.826 -3.85,9.535 l 3.309,11.117 -6.5,-9.163 -0.148,11.579 -4.277,-10.314 -3.566,10.437 0.193,-12.295 -6.163,11.021 3.335,-11.702 -9.997,7.27 7.831,-9.84 -12.411,4.564 9.795,-7.247 -12.56,-0.386 12.842,-3.314 -12.853,-2.779 12.687,-0.92 -10.699,-6.851 11.017,3.994 -7.644,-9.681 9.659,7.79 -3.478,-12.991 7.457,10.572 -1.045,-12.486 4.233,11.319 3.603,-11.897 0.876,11.933 5.348,-10.181 -3.16,11.645 9.793,-7.586 -6.322,9.672 10.744,-4.186 -8.215,8.073 L 10.85,-4.164 0,0 z"
                     id="path2954"
                     style="fill:#ffffff;fill-opacity:1;fill-rule:nonzero;stroke:none" /></g></g></g></g></g></g><g
         id="g2956"><g
           clip-path="url(#clipPath2960)"
           id="g2958"><g
             id="g2964"><g
               id="g2966" /><g
               id="g2972"><g
                 clip-path="url(#clipPath2968)"
                 id="g2974"
                 style="opacity:0.35000604"><g
                   transform="translate(40.4033,664.3701)"
                   id="g2976"><path
                     d="m 0,0 c 33.74,33.739 60.687,44.155 85.143,48.91 3.236,0.629 3.848,7.7 3.848,7.7 0,0 0.453,-5.208 2.718,-5.887 2.264,-0.68 5.207,8.152 5.207,8.152 0,0 -2.717,-7.926 0,-8.379 2.718,-0.453 7.699,7.699 7.699,7.699 0,0 -2.037,-7.019 -0.678,-7.472 1.357,-0.453 8.15,10.189 8.15,10.189 0,0 -4.076,-7.019 -0.226,-7.699 3.851,-0.679 9.467,4.791 9.467,4.791 0,0 -4.416,-5.005 -2.448,-5.696 8.379,-2.945 15.159,7.945 15.159,7.945 0,0 -1.571,-4.775 -5.647,-9.983 8.83,-2.264 15.389,11.039 15.389,11.039 l -6.559,-13.303 c 3.397,-1.813 16.985,13.812 16.985,13.812 0,0 -7.02,-12.228 -11.096,-14.718 2.264,-1.812 10.416,5.434 10.416,5.434 0,0 -6.567,-8.151 -4.076,-8.604 3.623,-2.944 16.982,15.171 16.982,15.171 0,0 -5.207,-10.642 -12.906,-19.021 6.435,-3.219 22.418,17.436 22.418,17.436 0,0 -0.453,-6.567 -12.002,-16.983 8.605,1.132 19.701,17.436 19.701,17.436 0,0 -4.076,-12.228 -13.814,-20.832 8.449,0.879 21.964,21.738 21.964,21.738 0,0 -5.207,-14.492 -15.849,-22.871 11.775,-2.604 28.758,14.945 28.758,14.945 0,0 -6.68,-12.455 -15.399,-17.549 9.738,-3.736 23.098,11.662 23.098,11.662 0,0 -13.36,-20.607 -34.645,-19.701 -6.984,0.297 -28.109,21.188 -73.368,19.474 C 44.609,42.57 31.929,17.209 0,0"
                     id="path2978"
                     style="fill:#373535;fill-opacity:1;fill-rule:nonzero;stroke:none" /></g></g></g></g><g
             transform="translate(41.7861,666.9326)"
             id="g2980"><path
               d="m 0,0 c 33.74,33.739 60.686,44.154 85.142,48.91 3.237,0.629 3.849,7.699 3.849,7.699 0,0 0.452,-5.209 2.718,-5.887 2.264,-0.679 5.207,8.151 5.207,8.151 0,0 -2.717,-7.926 0,-8.378 2.718,-0.452 7.699,7.699 7.699,7.699 0,0 -2.037,-7.019 -0.68,-7.472 1.359,-0.453 8.152,10.19 8.152,10.19 0,0 -4.076,-7.02 -0.226,-7.699 3.849,-0.68 9.467,4.79 9.467,4.79 0,0 -4.416,-5.005 -2.448,-5.696 8.379,-2.944 15.157,7.945 15.157,7.945 0,0 -1.571,-4.775 -5.645,-9.983 8.83,-2.265 15.389,11.04 15.389,11.04 l -6.559,-13.305 c 3.397,-1.811 16.983,13.812 16.983,13.812 0,0 -7.018,-12.226 -11.094,-14.717 2.264,-1.812 10.416,5.434 10.416,5.434 0,0 -6.567,-8.152 -4.076,-8.604 3.623,-2.945 16.982,15.171 16.982,15.171 0,0 -5.209,-10.643 -12.906,-19.021 6.435,-3.22 22.418,17.436 22.418,17.436 0,0 -0.453,-6.568 -12.002,-16.984 8.605,1.133 19.701,17.437 19.701,17.437 0,0 -4.076,-12.228 -13.814,-20.833 8.449,0.879 21.964,21.738 21.964,21.738 0,0 -5.207,-14.492 -15.849,-22.87 11.775,-2.604 28.758,14.944 28.758,14.944 0,0 -6.68,-12.453 -15.399,-17.548 9.738,-3.736 23.098,11.662 23.098,11.662 0,0 -13.36,-20.607 -34.647,-19.701 -6.982,0.298 -28.107,21.189 -73.367,19.474 C 44.609,42.57 31.928,17.209 0,0"
               id="path2982"
               style="fill:#ffffff;fill-opacity:1;fill-rule:nonzero;stroke:none" /></g></g></g><g
         id="g2984"><g
           clip-path="url(#clipPath2988)"
           id="g2986"><g
             id="g2992"><g
               id="g2994" /><g
               id="g3000"><g
                 clip-path="url(#clipPath2996)"
                 id="g3002"
                 style="opacity:0.35000604"><g
                   transform="translate(39.5195,660.6802)"
                   id="g3004"><path
                     d="m 0,0 c 17.832,-8.945 34.137,1.358 54.686,-4.433 15.623,-4.404 34.645,-9.833 60.458,-6.096 25.814,3.735 47.893,14.944 58.424,34.985 3.283,8.943 16.642,-2.039 16.642,-2.039 0,0 -9.736,4.076 -9.509,2.151 0.226,-1.924 14.605,-8.604 14.605,-8.604 0,0 -13.021,4.076 -12.228,1.019 0.793,-3.057 16.302,-15.285 16.302,-15.285 0,0 -17.548,13.36 -19.019,11.549 -1.473,-1.812 7.472,-9.172 7.472,-9.172 0,0 -14.832,9.172 -20.041,6.467 -3.746,-1.943 15.399,-14.506 15.399,-14.506 0,0 -12.455,9.512 -15.399,7.021 -2.943,-2.492 14.04,-22.871 14.04,-22.871 0,0 -19.249,20.833 -21.172,19.814 -1.926,-1.019 5.32,-10.983 5.32,-10.983 0,0 -9.51,10.417 -12.113,8.605 -2.604,-1.812 13.586,-28.871 13.586,-28.871 0,0 -17.549,27.738 -24.795,23.098 11.379,-24.966 7.133,-28.533 7.133,-28.533 0,0 -1.452,25.47 -15.625,24.796 -7.133,-0.34 3.396,-19.021 3.396,-19.021 0,0 -9.691,17.062 -16.145,16.722 11.895,-22.511 7.655,-31.667 7.655,-31.667 0,0 1.967,19.226 -14.166,29.925 6.113,-5.433 -3.836,-29.925 -3.836,-29.925 0,0 8.752,36.091 -6.455,29.21 -2.403,-1.085 -0.17,-18.002 -0.17,-18.002 0,0 -3.057,19.362 -7.641,18.342 -2.673,-0.593 -16.984,-26.833 -16.984,-26.833 0,0 11.719,28.362 8.153,27.173 -2.598,-0.867 -7.473,-12.568 -7.473,-12.568 0,0 2.377,11.549 0,12.228 -2.377,0.68 -15.625,-12.228 -15.625,-12.228 0,0 9.851,11.549 8.152,13.927 -2.574,3.603 -5.591,3.772 -9.171,2.377 -5.209,-2.03 -12.227,-11.548 -12.227,-11.548 0,0 6.996,9.637 5.773,13.247 -1.963,5.8 -22.077,-11.209 -22.077,-11.209 0,0 11.888,11.209 9.171,13.587 -2.717,2.377 -17.471,1.642 -22.078,1.655 C 8.832,-6.454 4.124,-3.267 0,0"
                     id="path3006"
                     style="fill:#373535;fill-opacity:1;fill-rule:nonzero;stroke:none" /></g></g></g></g><g
             transform="translate(38.8408,662.7183)"
             id="g3008"><path
               d="m 0,0 c 17.832,-8.945 34.136,1.358 54.685,-4.434 15.623,-4.402 34.646,-9.832 60.46,-6.095 25.814,3.736 47.891,14.945 58.422,34.984 3.283,8.944 16.642,-2.037 16.642,-2.037 0,0 -9.736,4.075 -9.509,2.15 0.226,-1.924 14.605,-8.604 14.605,-8.604 0,0 -13.021,4.075 -12.228,1.018 0.793,-3.056 16.304,-15.284 16.304,-15.284 0,0 -17.55,13.361 -19.021,11.548 -1.471,-1.811 7.473,-9.17 7.473,-9.17 0,0 -14.833,9.17 -20.041,6.467 -3.747,-1.944 15.398,-14.506 15.398,-14.506 0,0 -12.455,9.511 -15.398,7.02 -2.944,-2.492 14.041,-22.871 14.041,-22.871 0,0 -19.25,20.833 -21.174,19.814 -1.924,-1.02 5.322,-10.982 5.322,-10.982 0,0 -9.512,10.416 -12.115,8.604 -2.604,-1.811 13.586,-28.871 13.586,-28.871 0,0 -17.549,27.739 -24.795,23.097 11.379,-24.965 7.133,-28.532 7.133,-28.532 0,0 -1.452,25.47 -15.625,24.795 -7.133,-0.34 3.396,-19.02 3.396,-19.02 0,0 -9.691,17.063 -16.144,16.723 11.896,-22.512 7.654,-31.668 7.654,-31.668 0,0 1.967,19.227 -14.166,29.926 6.113,-5.434 -3.836,-29.926 -3.836,-29.926 0,0 8.754,36.091 -6.453,29.21 -2.403,-1.086 -0.17,-18.002 -0.17,-18.002 0,0 -3.059,19.361 -7.642,18.342 -2.674,-0.593 -16.985,-26.833 -16.985,-26.833 0,0 11.719,28.362 8.153,27.172 -2.598,-0.865 -7.473,-12.566 -7.473,-12.566 0,0 2.378,11.548 0,12.227 -2.377,0.679 -15.624,-12.227 -15.624,-12.227 0,0 9.851,11.548 8.151,13.926 -2.574,3.603 -5.591,3.771 -9.17,2.376 -5.21,-2.029 -12.228,-11.547 -12.228,-11.547 0,0 6.996,9.638 5.774,13.247 -1.964,5.799 -22.077,-11.209 -22.077,-11.209 0,0 11.888,11.209 9.17,13.586 C 41.778,-5.774 27.024,-6.51 22.417,-6.496 8.831,-6.453 4.124,-3.267 0,0"
               id="path3010"
               style="fill:#ffffff;fill-opacity:1;fill-rule:nonzero;stroke:none" /></g></g></g></g></g></svg>
