<?xml version="1.0" encoding="UTF-8"?>
<svg xmlns="http://www.w3.org/2000/svg" version="1.1" viewBox="0 0 1080 1080">
  <defs>
    <style>
      .cls-1 {
        fill: #231f20;
      }

      .cls-2 {
        fill: #fff;
      }

      .cls-3 {
        fill: #ef6122;
      }

      .cls-4 {
        fill-opacity: .5;
      }

      .cls-4, .cls-5 {
        fill: #fac20c;
      }

      .cls-5, .cls-6, .cls-7, .cls-8 {
        stroke-miterlimit: 10;
        stroke-width: 13.9px;
      }

      .cls-5, .cls-6, .cls-8 {
        stroke: #3a1103;
      }

      .cls-6, .cls-8 {
        fill: none;
      }

      .cls-7 {
        fill: #5545ef;
        stroke: #231735;
      }

      .cls-9 {
        fill: #f99f10;
      }

      .cls-10 {
        fill: #19052d;
      }

      .cls-8 {
        stroke-linecap: round;
      }
    </style>
  </defs>
  <!-- Generator: Adobe Illustrator 28.6.0, SVG Export Plug-In . SVG Version: 1.2.0 Build 709)  -->
  <g>
    <g id="Capa_1">
      <g>
        <path class="cls-9" d="M924.4,765.2c31.1,9.1,86,53.1,71.1,96.5-14.9,43.4-67.5,36.3-127.9-7"/>
        <path class="cls-8" d="M924.4,765.2c31.1,9.1,86,53.1,71.1,96.5-14.9,43.4-67.5,36.3-127.9-7"/>
        <path class="cls-3" d="M423.4,263.7c-88.4-61.6-201.4-75.4-221.3-53.3-16.1,17.9,44.8,116,34.9,144.7-9.8,28.7-96.3,10.1-105.7,46.6-4.5,17.3,61.8,59.1,60,83.3-1.8,24.2-53,17.4-56.7,48.7-2.5,21.1,44.2,25.7,42.4,50.8-1.8,25.1-35.5,20.5-34,44.8,1.2,19.7,38.1,6.7,47.9,39.9,9.8,33.1,232.5-405.4,232.5-405.4h0Z"/>
        <path class="cls-5" d="M29.3,852c2.7-81.1,59.3-99.1,100.4-85.2,41.1,13.8,38.8,61.6,28.4,79.6-16.6,28.7-40.9,16.3-31.8-3.8,6.7-19.3,8-46-23.9-37.5-39.6,10.6-27.3,117,56.1,96.1,57.1-14.3,52.6-74.7,48.1-162.9-12.2-85.3,1-197.1,37.3-303.2,73.5-215,516.1-284.9,663-86,190.9,258.3-19.6,510.7-52,542.9-100.8,78.3-84.5,149.1-156.7,153.8-68.7,4.5-63-65.3-108.4-69.2-2.7,0-5.3,0-8,0-53.3,3.9-63.6,70.4-144,69.2-65.5-.9-36.3-58.2-80.1-85.6-9.2-4.3-17.1-7.4-24.5-9.4-5.8-1.2-12.2-2.1-19.5-2.6-1.7-.1-11.8,0-14.7,0-26,.5-41.6,6.6-100.4,18.6-105.9,21.5-171.5-46.1-169.2-114.7Z"/>
        <path class="cls-3" d="M318.3,318.6c150.5-106.6,325.7-48.4,348.1-33.6,22.4,14.8,54.1-2.8,36.3-47.2C642.9,89.1,488.8,13.5,447.3,39.1c-46.4,28.6,12,156.4-18.4,186.3-24.3,24-40.9,5.7-82.3-8.2-37.4-12.5-28.4,101.4-28.4,101.4Z"/>
        <path class="cls-4" d="M581.9,153.5c-.1-2.1-.5-4.4-1.1-7.1-.6-2.7-1.6-5.5-3-8.6-1.4-3-3.4-6.2-5.9-9.2-.9-1.2-2-2.4-3.1-3.5,1.9-6.9-1.9-13-1.9-13-6.7-.5-10.8,1.8-12.5,3-.3-.1-.5-.3-.8-.3-1.1-.4-2.3-1-3.4-1.3-1.2-.4-2.4-.7-3.6-1.1-1.2-.3-2.5-.6-3.9-.9-.3,0-.4,0-.7-.1-2.8-9.3-11-13.3-11-13.3-9.3,5.7-11.3,13.9-11.3,13.9,0,0,0,.1-.1.5-.5.1-1.1.3-1.6.4-.7.3-1.5.5-2.1.6-.7.3-1.5.5-2.1.8-1.3.6-2.8,1.3-4.2,1.9-1.3.8-2.7,1.6-3.9,2.3-.1-.1-.3-.1-.3-.1-12.7-5-24.2.8-24.2.8-1.3,13.6,4.7,22.4,6,24-.3.8-.6,1.7-.8,2.5-1,3.1-1.7,6.2-2.3,9.6,0,.5-.2.9-.2,1.5-12.1,5.4-15.8,17.3-15.8,17.3,9.7,11.5,21.3,12.5,21.3,12.5,1.4,2.7,3.1,5.1,4.9,7.6.8.9,1.6,1.9,2.5,2.8-3.8,10.2.2,18.9.2,18.9,11.1.6,18.4-4.5,19.8-5.7,1.1.4,2.3.7,3.3,1,3.3,1,6.8,1.4,10.3,1.8.8,0,1.7,0,2.5,0h.4s.3,0,.3,0h.5s.5,0,.5,0c5.1,7.6,14.1,8.6,14.1,8.6,6.7-6.7,7-13.5,7.1-15h0c0-.1,0-.4,0-.4v-.3c1.4-.9,2.7-2,3.9-3,2.6-2.4,5-5,6.9-7.8.1-.3.4-.5.5-.8,7.3.5,12.6-4.3,12.6-4.3-1.1-7.6-5.4-11.4-6.3-12.2h-.1c0-.1-.1-.1-.1-.1,0,0-.1,0-.1-.1,0-.4.2-.9.2-1.3,0-.8.2-1.6.2-2.5v-.7s0-.3,0-.3h0v-.9s0-.7,0-.7v-.7s0-.7,0-.7v-.7s-.1-.7-.1-.7c-.1-.8-.2-1.7-.5-2.5-.7-3.3-1.9-6.4-3.6-9.3-1.7-2.8-3.8-5.4-6.1-7.6-2.4-2.2-5-3.8-7.8-5.2-2.8-1.3-5.7-2.2-8.6-2.6-1.5-.2-2.9-.3-4.4-.3h-.5s-.1,0-.1,0c0,0-.3,0-.1,0h-.3s-.5,0-.5,0h-.5c-.8.1-1.5,0-2.3.2-2.9.5-5.6,1.5-8.2,2.9-2.4,1.4-4.6,3.1-6.4,5.2-1.8,2-3.1,4.2-4.1,6.6-1,2.4-1.6,4.8-1.7,7.2v1.7s0,.4,0,.4v.5s0,.8,0,.8c.1,1.2.4,2.4.6,3.5.6,2.3,1.5,4.3,2.8,5.9,1.2,1.8,2.8,3.1,4.3,4.3,1.6,1.1,3.3,1.9,5,2.5,1.7.6,3.3.7,4.9.7h.5s.3,0,.3,0h.3s.5,0,.5,0h.1s.1,0,.1,0h.3c.3,0,.4,0,.5-.1.1,0,.4-.1.5-.1.4-.1.7-.1,1.1-.3.7-.3,1.3-.5,2-.8.7-.3,1.2-.6,1.8-1,.1-.1.3-.3.4-.3.5-.4.7-1.2.2-1.7-.4-.5-1.1-.7-1.6-.3-.1.1-.3.1-.4.3-.4.3-.9.4-1.5.5-.5.1-1.1.3-1.6.4-.3,0-.5.1-.8.1h-.4s-.4,0-.4,0h-.4s-.5,0-.5,0h-.1s-.3,0-.3,0h-.4c-1.2-.2-2.5-.6-3.7-1.1-1.2-.6-2.4-1.4-3.4-2.3-1.1-.9-2-2.2-2.6-3.4-.6-1.3-1.2-2.7-1.4-4.3-.1-.8-.1-1.5,0-2.3v-.7s0-.1,0-.1h0v-.4c0-.4.1-.8.2-1.2.6-3.2,2.4-6.4,4.9-8.7.7-.7,1.4-1.2,2-1.6.7-.5,1.5-.9,2.3-1.3.8-.4,1.6-.6,2.6-.9.8-.3,1.7-.4,2.7-.4h1.3s.3,0,.3,0h.4s.3,0,.3,0h.1s.4,0,.4,0c.9.2,2,.3,2.9.4,1.9.4,3.7,1.1,5.4,2.2,3.4,1.9,6.3,5.1,8.1,8.7.9,1.9,1.5,3.8,1.8,5.8.1.5.1,1.1.1,1.5v.4s0,.4,0,.4v.4s0,.4,0,.4v.7s0,.9,0,.9c0,.5-.1,1.1-.2,1.6,0,.5-.1,1.1-.3,1.6-.1.5-.3,1.1-.4,1.6-.3,1.1-.7,2.1-1.1,3.2-.8,2-1.9,4-3.3,5.8-2.7,3.6-6.2,6.4-10.4,8.2-2,.9-4.2,1.5-6.4,1.9-1.1.1-2.3.2-3.3.3h-.3s-.1,0-.1,0h-.4s-.5,0-.5,0h-.4c-.5,0-1.2,0-1.7-.2-2.4-.2-4.8-.8-7.1-1.5-2.3-.7-4.5-1.7-6.5-2.8-4.1-2.3-7.9-5.5-10.8-9.3-1.4-1.9-2.7-3.9-3.8-5.9-1-2.2-1.8-4.3-2.4-6.6-.6-2.3-.9-4.6-1.1-6.8v-.4s0-.1,0-.1h0c0-.1,0-.3,0-.3v-.4s0-.1,0-.1h0c0-.1,0-.4,0-.4v-.5s0-.1,0-.1v-1.1c0-1.2.2-2.3.3-3.5.2-1.2.4-2.4.6-3.5.3-1.2.6-2.3.9-3.4.7-2.3,1.5-4.5,2.5-6.5,1.9-4.1,4.5-7.8,7.7-10.7.8-.8,1.6-1.4,2.4-2.1.8-.6,1.6-1.2,2.6-1.8.8-.5,1.8-1,2.7-1.6.4-.3.9-.4,1.3-.6.3-.1.5-.3.7-.3.3-.1.5-.3.7-.3.9-.4,2-.8,2.9-1,.3-.1.5-.1.8-.3.3-.1.5-.1.8-.3.5-.1,1.1-.3,1.5-.4.3-.1.5-.1.8-.1s.5-.1.8-.1c.3,0,.5-.1.8-.1h.4c0-.1.4-.1.4-.1.3,0,.5-.1.8-.1.3,0,.5-.1.9-.1.3,0,.7-.1.9-.1h.5s.4,0,.4,0h.1s.3,0,.3,0h.9s.4,0,.4,0h.1s.1,0,.1,0h.8s2.9,0,2.9,0c2,.2,3.9.3,5.7.8,3.7.7,7.3,2,10.5,3.7,3.2,1.7,6.1,3.6,8.4,5.7.1.1.3.3.4.4.1.1.3.3.4.4.3.3.5.5.9.8.3.3.5.5.8.8.3.3.5.5.8.8,1.1,1.1,2,2.3,2.9,3.5,1.7,2.3,3.1,4.6,4.2,6.9.1.1.1.3.3.4.1.1.1.3.1.4.1.3.3.5.4.8.1.3.3.5.4.8.1.3.2.5.4.8.4,1.1.8,2,1,3,.5,1.5.9,2.8,1.1,4,.1.4.5.8,1.1.7.5,0,.9-.4.9-.9.8-2,.9-3.4.8-5.1h0Z"/>
        <path class="cls-9" d="M507,827.4c-38.8,35.3-83,48.3-107.6,18.1-27.3-33.3-2.8-72,33-104.6"/>
        <path class="cls-8" d="M507,827.4c-38.8,35.3-83,48.3-107.6,18.1-27.3-33.3-2.8-72,33-104.6"/>
        <path class="cls-6" d="M371.6,233.9c-75.9-35.7-149.9-54.6-169.5-23.5-21.2,33.7,51.1,105.2,34.9,144.7-15.1,36.9-100.2,5.2-105.7,46.6-4.4,33.1,61.8,59.1,60,83.3-1.8,24.2-53.6,14.3-57.4,45.7-2.5,21.1,44.9,28.7,43,53.8-1.8,25.1-33.6,20.5-34,44.8-.4,22.7,58.1,22.4,59.7,63.6"/>
        <path class="cls-6" d="M666.3,285c22.4,14.8,54.1-2.8,36.3-47.2C642.9,89.1,493.3,13.2,447.3,39.1c-48.3,27.2,12,156.4-18.4,186.3-16.9,16.7-39.2,16-59.6,7.5"/>
        <path class="cls-6" d="M667.2,285.7c-80.5-47.7-220.7-50.6-346.9,43.9"/>
        <path class="cls-7" d="M542.8,617.3l411,33.3c49.4,4,92.7-32.8,96.7-82.2h0c4-49.4-32.8-92.7-82.2-96.7l-411-33.3c-49.4-4-92.7,32.8-96.7,82.2h0c-4,49.4,32.8,92.7,82.2,96.7Z"/>
        <path class="cls-10" d="M640,594.9l311.9,25.2c32.8,2.7,61.5-21.8,64.1-54.5s-21.8-61.5-54.5-64.1l-311.9-25.2c-32.8-2.7-61.5,21.8-64.1,54.5-2.7,32.8,21.8,61.5,54.5,64.1Z"/>
        <path class="cls-2" d="M703.1,576.5c.3-4.2-3.9-8-9.4-8.5l-51.1-4.1c-5.5-.4-10.3,2.6-10.6,6.8-.3,4.2,3.9,8,9.4,8.5l51.1,4.1c5.5.4,10.3-2.6,10.6-6.8Z"/>
        <path class="cls-2" d="M705.5,546.2c.3-4.2-3.9-8-9.4-8.5l-51.1-4.1c-5.5-.4-10.3,2.6-10.6,6.8-.3,4.2,3.9,8,9.4,8.5l51.1,4.1c5.5.4,10.3-2.6,10.6-6.8Z"/>
        <path class="cls-2" d="M791.3,583.7c.3-4.2-3.9-8-9.4-8.5l-51.1-4.1c-5.5-.4-10.3,2.6-10.6,6.8-.3,4.2,3.9,8,9.4,8.5l51.1,4.1c5.5.4,10.3-2.6,10.6-6.8Z"/>
        <path class="cls-2" d="M793.7,553.4c.3-4.2-3.9-8-9.4-8.5l-51.1-4.1c-5.5-.4-10.3,2.6-10.6,6.8-.3,4.2,3.9,8,9.4,8.5l51.1,4.1c5.5.4,10.3-2.6,10.6-6.8Z"/>
        <path class="cls-2" d="M796.2,523.1c.3-4.2-3.9-8-9.4-8.5l-51.1-4.1c-5.5-.4-10.3,2.6-10.6,6.8-.3,4.2,3.9,8,9.4,8.5l51.1,4.1c5.5.4,10.3-2.6,10.6-6.8Z"/>
        <path class="cls-2" d="M879.5,590.8c.3-4.2-3.9-8-9.4-8.5l-51.1-4.1c-5.5-.4-10.3,2.6-10.6,6.8-.3,4.2,3.9,8,9.4,8.5l51.1,4.1c5.5.4,10.3-2.6,10.6-6.8Z"/>
        <path class="cls-2" d="M967.7,597.9c.3-4.2-3.9-8-9.4-8.5l-51.1-4.1c-5.5-.4-10.3,2.6-10.6,6.8-.3,4.2,3.9,8,9.4,8.5l51.1,4.1c5.5.4,10.3-2.6,10.6-6.8Z"/>
        <path class="cls-2" d="M970.1,567.7c.3-4.2-3.9-8-9.4-8.5l-51.1-4.1c-5.5-.4-10.3,2.6-10.6,6.8-.3,4.2,3.9,8,9.4,8.5l51.1,4.1c5.5.4,10.3-2.6,10.6-6.8Z"/>
        <path class="cls-1" d="M801.7,722l-83-9.4c-12.7-1.4-21.8-12.9-20.4-25.6.4-3.7,3.8-6.4,7.5-6,3.7.4,6.4,3.8,6,7.5-.6,5.2,3.2,10,8.4,10.6l83,9.4c3.7.4,6.4,3.8,6,7.5-.4,3.7-3.8,6.4-7.5,6Z"/>
      </g>
    </g>
  </g>
</svg>