<svg width="124" height="48" viewBox="0 0 124 48" fill="none" xmlns="http://www.w3.org/2000/svg">
<g clip-path="url(#clip0_1764_106195)">
<path d="M76 0.611699V7.64012H90.394V0H76.6015C76.442 0 76.289 0.0644467 76.1762 0.179162C76.0634 0.293878 76 0.449466 76 0.611699Z" fill="#CCCCDC" fill-opacity="0.04"/>
<path d="M109.606 7.64012H124V0.611699C124 0.449466 123.937 0.293878 123.824 0.179162C123.711 0.0644467 123.558 0 123.398 0L109.606 0V7.64012Z" fill="#CCCCDC" fill-opacity="0.04"/>
<path d="M107.194 0H92.8V7.64012H107.194V0Z" fill="#CCCCDC" fill-opacity="0.04"/>
<path d="M107.194 10.0869H92.8V17.727H107.194V10.0869Z" fill="#CCCCDC" fill-opacity="0.12"/>
<path d="M90.394 10.0869H76V17.727H90.394V10.0869Z" fill="#CCCCDC" fill-opacity="0.12"/>
<path d="M124 10.0869H109.606V17.727H124V10.0869Z" fill="#CCCCDC" fill-opacity="0.12"/>
<path d="M124 20.1799H109.606V27.8262H124V20.1799Z" fill="#CCCCDC" fill-opacity="0.04"/>
<path d="M107.194 20.1799H92.8V27.8262H107.194V20.1799Z" fill="#CCCCDC" fill-opacity="0.04"/>
<path d="M90.394 20.1799H76V27.8262H90.394V20.1799Z" fill="#CCCCDC" fill-opacity="0.04"/>
<path d="M107.194 30.2668H92.8V37.907H107.194V30.2668Z" fill="#CCCCDC" fill-opacity="0.12"/>
<path d="M124 30.2668H109.606V37.907H124V30.2668Z" fill="#CCCCDC" fill-opacity="0.12"/>
<path d="M90.394 30.2668H76V37.907H90.394V30.2668Z" fill="#CCCCDC" fill-opacity="0.12"/>
<path d="M107.194 40.3599H92.8V48H107.194V40.3599Z" fill="#CCCCDC" fill-opacity="0.04"/>
<path d="M124 47.3883V40.3721H109.606V48H123.398C123.558 48 123.711 47.9355 123.824 47.8208C123.937 47.7061 124 47.5505 124 47.3883Z" fill="#CCCCDC" fill-opacity="0.04"/>
<path d="M90.394 48V40.3721H76V47.3883C76 47.5505 76.0634 47.7061 76.1762 47.8208C76.289 47.9355 76.442 48 76.6015 48H90.394Z" fill="#CCCCDC" fill-opacity="0.04"/>
</g>
<path d="M61.9067 30.4C62.6011 30.4 67.9327 26.1333 67.9327 24C67.9327 21.8666 62.7357 17.6 61.9067 17.6C61.0777 17.6 60.4023 18.1333 60.4023 19.1739C60.4023 20.2146 63.9067 22.8486 63.9067 22.8486C63.9067 22.8486 56.2539 22.1333 56 22.8486C55.7461 23.5639 55.7461 24.4361 56 25.1514C56.2539 25.8666 63.9067 25.1514 63.9067 25.1514C63.9067 25.1514 60.4023 28 60.4023 28.8321C60.4023 29.6643 61.2123 30.4 61.9067 30.4Z" fill="#CCCCDC" fill-opacity="0.4"/>
<g clip-path="url(#clip1_1764_106195)">
<path d="M20.5657 14.8473C20.3886 14.8474 20.2136 14.8094 20.0525 14.736L10.963 10.6159L1.68804 14.1483C1.38138 14.2648 1.04102 14.2546 0.741842 14.12C0.442666 13.9854 0.209179 13.7375 0.0927449 13.4307C-0.0236892 13.1238 -0.0135325 12.7833 0.120981 12.484C0.255494 12.1847 0.503345 11.9511 0.81001 11.8346L10.5796 8.12275C10.8825 7.9973 11.2228 7.9973 11.5257 8.12275L20.2813 12.0882L29.5562 2.19003C29.7339 2.01998 29.9583 1.90678 30.2006 1.86491C30.4429 1.82304 30.6922 1.85438 30.9166 1.95495L40.2843 6.01939L49.0832 0.204206C49.2187 0.111618 49.3713 0.0469507 49.5321 0.0139747C49.6929 -0.0190012 49.8586 -0.0196266 50.0197 0.0121352C50.1807 0.043897 50.3338 0.10741 50.47 0.198973C50.6063 0.290536 50.7229 0.408317 50.8132 0.545449C50.9035 0.682581 50.9656 0.836322 50.9959 0.997709C51.0262 1.1591 51.024 1.3249 50.9896 1.48546C50.9552 1.64602 50.8892 1.79812 50.7954 1.93289C50.7017 2.06766 50.582 2.18241 50.4435 2.27045L41.0881 8.45682C40.916 8.56985 40.7184 8.63811 40.5133 8.6554C40.3081 8.67268 40.1019 8.63845 39.9133 8.5558L30.7434 4.57178L21.4685 14.47C21.3516 14.591 21.2112 14.6869 21.056 14.7518C20.9008 14.8167 20.7339 14.8492 20.5657 14.8473Z" fill="#CCCCDC" fill-opacity="0.04"/>
<path d="M49.7632 10.9623L40.4079 20.8605L30.4342 13.4368L20.5656 20.8605L11.0062 19.0046L1.23657 27.0468H1.30459V47.9939H49.8931L49.7632 10.9623Z" fill="#CCCCDC" fill-opacity="0.04"/>
<path d="M1.30458 28.2841H1.23657C0.98245 28.2834 0.734739 28.2043 0.527135 28.0577C0.319532 27.911 0.162116 27.704 0.0763042 27.4647C-0.00950775 27.2254 -0.0195494 26.9654 0.0475455 26.7202C0.11464 26.475 0.255614 26.2564 0.451287 26.0942L10.2209 18.0519C10.3614 17.9361 10.5257 17.8528 10.702 17.8079C10.8784 17.763 11.0625 17.7576 11.2412 17.7921L20.2626 19.5428L29.6798 12.447C29.8939 12.2864 30.1542 12.1996 30.4218 12.1996C30.6894 12.1996 30.9498 12.2864 31.1638 12.447L40.2533 19.2149L48.8481 10.1148C48.9577 9.9891 49.0916 9.88688 49.2417 9.81428C49.3918 9.74167 49.555 9.70018 49.7215 9.6923C49.8881 9.68442 50.0545 9.7103 50.2107 9.76841C50.367 9.82651 50.5099 9.91562 50.6309 10.0304C50.7519 10.1452 50.8484 10.2832 50.9147 10.4363C50.981 10.5893 51.0156 10.7542 51.0166 10.921C51.0176 11.0878 50.9848 11.2531 50.9203 11.4069C50.8558 11.5607 50.7609 11.6999 50.6413 11.816L41.3045 21.7142C41.0966 21.9331 40.8159 22.0685 40.5152 22.0947C40.2145 22.1209 39.9147 22.0362 39.6721 21.8565L30.4404 14.9835L21.3076 21.8503C21.1698 21.9547 21.0117 22.0289 20.8434 22.0684C20.6751 22.1078 20.5004 22.1115 20.3307 22.0792L11.3401 20.3347L2.31247 27.7583C2.19874 27.9202 2.04786 28.0524 1.87249 28.1439C1.69712 28.2354 1.50237 28.2835 1.30458 28.2841Z" fill="#CCCCDC" fill-opacity="0.12"/>
</g>
<defs>
<clipPath id="clip0_1764_106195">
<rect width="48" height="48" fill="white" transform="translate(76)"/>
</clipPath>
<clipPath id="clip1_1764_106195">
<rect width="51" height="48" fill="white"/>
</clipPath>
</defs>
</svg>
