<?xml version="1.0" standalone="no"?><!-- Generator: Gravit.io --><svg xmlns="http://www.w3.org/2000/svg" xmlns:xlink="http://www.w3.org/1999/xlink" style="isolation:isolate" viewBox="0 0 792 612" width="792" height="612"><defs><clipPath id="_clipPath_0phW3gyETQS0r51LebYo1myW4YPxczuf"><rect width="792" height="612"/></clipPath></defs><g clip-path="url(#_clipPath_0phW3gyETQS0r51LebYo1myW4YPxczuf)"><path d=" M 244.171 215.327 L 142.037 215.327 L 142.037 215.327 L 142.037 215.327 L 84.563 336.406 L 27.272 215.327 L 0 215.327 L 84.746 394 L 155.947 243.687 L 244.171 243.687 L 244.171 215.327 Z " fill="rgb(255,255,255)"/><path d=" M 244.171 315.68 L 244.171 287.32 L 142.769 287.32 L 142.769 386.146 L 244.171 386.146 L 244.171 357.785 L 166.563 357.785 L 166.563 315.68 L 244.171 315.68 Z " fill="rgb(255,255,255)"/><rect x="495.114" y="215.327" width="23.795" height="170.82" transform="matrix(1,0,0,1,0,0)" fill="rgb(255,255,255)"/><path d=" M 485.78 215.327 L 364.243 215.327 L 364.243 215.763 C 371.748 222.962 377.422 232.561 380.716 243.687 L 413.114 243.687 L 413.114 386.146 L 436.909 386.146 L 436.909 243.687 L 485.78 243.687 L 485.78 215.327 Z " fill="rgb(255,255,255)"/><path d=" M 358.386 386.146 L 382.181 386.146 L 347.038 309.354 C 362.047 302.154 372.663 284.483 372.663 264.195 C 372.663 237.143 354.359 215.327 331.663 215.327 L 277.85 215.327 L 261.926 215.327 L 254.055 215.327 L 254.055 386.146 L 277.85 386.146 L 277.85 312.844 L 324.89 312.844 L 358.386 386.146 Z  M 277.85 243.688 L 331.663 243.688 C 341.18 243.688 348.868 252.85 348.868 264.195 C 348.868 275.539 341.18 284.702 331.663 284.702 L 277.85 284.702 L 277.85 243.688 Z " fill="rgb(255,255,255)"/><path d=" M 702.678 209 L 702.678 209 L 641.544 330.297 L 641.544 330.515 L 641.544 330.515 C 632.941 347.532 617.383 358.876 599.628 358.876 C 572.539 358.876 550.575 332.697 550.575 300.409 C 550.575 268.121 572.539 241.942 599.628 241.942 C 616.285 241.942 630.928 251.759 639.896 267.031 L 652.709 241.506 C 639.53 224.489 620.678 214.018 599.628 214.018 C 559.543 214.018 527.146 252.632 527.146 300.409 C 527.146 348.186 559.543 386.801 599.628 386.801 C 625.986 386.801 649.048 370.002 661.861 344.914 L 661.861 344.914 L 702.678 263.758 L 764.544 386.583 L 792 386.146 L 702.678 209 Z " fill="rgb(255,255,255)"/></g></svg>