<?xml version="1.0" encoding="utf-8"?>
<!-- Generator: Adobe Illustrator 19.0.0, SVG Export Plug-In . SVG Version: 6.00 Build 0)  -->
<svg version="1.1" id="Layer_1" xmlns="http://www.w3.org/2000/svg" xmlns:xlink="http://www.w3.org/1999/xlink" x="0px" y="0px"
	 viewBox="0 0 792 612" style="enable-background:new 0 0 792 612;" xml:space="preserve">
<polygon points="313.6,267 257.8,267 257.8,267 257.8,267 226.4,322.5 195.1,267 180.2,267 226.5,348.9 265.4,280 313.6,280 "/>
<polygon points="313.6,313 313.6,300 258.2,300 258.2,345.3 313.6,345.3 313.6,332.3 271.2,332.3 271.2,313 "/>
<rect x="450.7" y="267" width="13" height="78.3"/>
<path d="M445.6,267h-66.4v0.2c4.1,3.3,7.2,7.7,9,12.8h17.7v65.3h13V280h26.7V267z"/>
<path d="M376,345.3h13l-19.2-35.2c8.2-3.3,14-11.4,14-20.7c0-12.4-10-22.4-22.4-22.4H332h-8.7H319v78.3h13v-33.6h25.7L376,345.3z
	 M332,280h29.4c5.2,0,9.4,4.2,9.4,9.4s-4.2,9.4-9.4,9.4H332V280z"/>
<path d="M564.1,264.1L564.1,264.1l-33.4,55.6l0,0.1l0,0c-4.7,7.8-13.2,13-22.9,13c-14.8,0-26.8-12-26.8-26.8s12-26.8,26.8-26.8
	c9.1,0,17.1,4.5,22,11.5l7-11.7c-7.2-7.8-17.5-12.6-29-12.6c-21.9,0-39.6,17.7-39.6,39.6s17.7,39.6,39.6,39.6c14.4,0,27-7.7,34-19.2
	l0,0l22.3-37.2l33.8,56.3l15-0.2L564.1,264.1z"/>
</svg>
