<?xml version="1.0" encoding="utf-8"?>
<!-- Generator: Adobe Illustrator 18.1.1, SVG Export Plug-In . SVG Version: 6.00 Build 0)  -->
<svg version="1.1" id="Layer_1" xmlns="http://www.w3.org/2000/svg" xmlns:xlink="http://www.w3.org/1999/xlink" x="0px" y="0px"
	 viewBox="0 0 113.6 125.8" enable-background="new 0 0 113.6 125.8" xml:space="preserve">
<g>
	<polygon fill="#FFFFFF" points="15.1,115.1 16.4,123.3 53.6,117.5 43.1,114.8 	"/>
	<path fill="#FFFFFF" d="M96.6,84.9l-0.1-0.5l17-61.7l-17.7-4.9V7.4H84.7l-0.4-2.9L65.6,7.4h-7.3L31.4,0l-2,7.4H10.7v8.5L0,17.5
		l9.6,61.8L3,103.2l7.7,2.1v9.1h73.7l-39.2,0.4l35,9.7l5,1.4l3.1-11.4h7.6V111l4.7-0.7L96.6,84.9z M106.2,26.8L95.9,64.2V24
		L106.2,26.8z M35.6,7.4L35.6,7.4L35.6,7.4L35.6,7.4z M16.7,13.4h73.2v75.3H16.7V13.4z M10.7,22v25.4L6.8,22.6L10.7,22z"/>
	<polygon fill="#FFFFFF" points="35.6,7.4 35.6,7.4 35.7,7.4 	"/>
	<path fill="#FFFFFF" d="M23.3,44.9c0,3.2,2.6,5.7,5.7,5.7h17.3c3.2,0,5.7-2.6,5.7-5.7V27.7c0-3.2-2.6-5.7-5.7-5.7H29
		c-3.2,0-5.7,2.6-5.7,5.7V44.9z M29,24.2h17.3c1.9,0,3.4,1.5,3.4,3.4v17.3c0,1.9-1.5,3.4-3.4,3.4H29c-1.9,0-3.4-1.5-3.4-3.4V27.7
		C25.5,25.8,27.1,24.2,29,24.2z"/>
	<path fill="#FFFFFF" d="M54.6,27.7v17.3c0,3.2,2.6,5.7,5.7,5.7h17.3c3.2,0,5.7-2.6,5.7-5.7V27.7c0-3.2-2.6-5.7-5.7-5.7H60.3
		C57.1,21.9,54.6,24.5,54.6,27.7z M81,27.7v17.3c0,1.9-1.5,3.4-3.4,3.4H60.3c-1.9,0-3.4-1.5-3.4-3.4V27.7c0-1.9,1.5-3.4,3.4-3.4
		h17.3C79.5,24.2,81,25.8,81,27.7z"/>
	<path fill="#FFFFFF" d="M52,58.3c0-3.2-2.6-5.7-5.7-5.7H29c-3.2,0-5.7,2.6-5.7,5.7v17.3c0,3.2,2.6,5.7,5.7,5.7h17.3
		c3.2,0,5.7-2.6,5.7-5.7V58.3z M25.5,75.5V58.3c0-1.9,1.5-3.4,3.4-3.4h17.3c1.9,0,3.4,1.5,3.4,3.4v17.3c0,1.9-1.5,3.4-3.4,3.4H29
		C27.1,79,25.5,77.4,25.5,75.5z"/>
	<path fill="#FFFFFF" d="M60.3,81.2h17.3c3.2,0,5.7-2.6,5.7-5.7V58.3c0-3.2-2.6-5.7-5.7-5.7H60.3c-3.2,0-5.7,2.6-5.7,5.7v17.3
		C54.6,78.7,57.1,81.2,60.3,81.2z M81,58.3v17.3c0,1.9-1.5,3.4-3.4,3.4H60.3c-1.9,0-3.4-1.5-3.4-3.4V58.3c0-1.9,1.5-3.4,3.4-3.4
		h17.3C79.5,54.8,81,56.4,81,58.3z"/>
</g>
</svg>
