<?xml version="1.0" encoding="utf-8"?>
<!-- Generator: Adobe Illustrator 18.1.1, SVG Export Plug-In . SVG Version: 6.00 Build 0)  -->
<!DOCTYPE svg PUBLIC "-//W3C//DTD SVG 1.0//EN" "http://www.w3.org/TR/2001/REC-SVG-20010904/DTD/svg10.dtd">
<svg version="1.0" id="Layer_1" xmlns="http://www.w3.org/2000/svg" xmlns:xlink="http://www.w3.org/1999/xlink" x="0px" y="0px"
	 viewBox="0 0 223 279" enable-background="new 0 0 223 279" xml:space="preserve">
<path fill="#FFFFFF" d="M33.6,98.4c0,8.3,6.6,14.9,14.9,14.9h44.9c8.3,0,14.9-6.6,14.9-14.9V53.5c0-8.3-6.6-14.9-14.9-14.9H48.5
	c-8.3,0-14.9,6.6-14.9,14.9L33.6,98.4L33.6,98.4z M48.5,44.6h44.9c5,0,8.9,4,8.9,8.9v44.9c0,5-4,8.9-8.9,8.9H48.5
	c-5,0-8.9-4-8.9-8.9V53.5C39.6,48.6,43.7,44.6,48.5,44.6z"/>
<path fill="#FFFFFF" d="M115.1,53.5v44.9c0,8.3,6.6,14.9,14.9,14.9h44.7c8.3,0,14.9-6.6,14.9-14.9V53.5c0-8.3-6.6-14.9-14.9-14.9
	H130C121.7,38.6,115.1,45.4,115.1,53.5z M183.7,53.5v44.9c0,5-4,8.9-8.9,8.9H130c-5,0-8.9-4-8.9-8.9V53.5c0-5,4-8.9,8.9-8.9h44.7
	C179.7,44.6,183.7,48.6,183.7,53.5z"/>
<path fill="#FFFFFF" d="M108.3,133.1c0-8.3-6.6-14.9-14.9-14.9H48.5c-8.3,0-14.9,6.6-14.9,14.9V178c0,8.3,6.6,14.9,14.9,14.9h44.9
	c8.3,0,14.9-6.6,14.9-14.9V133.1z M39.6,178v-44.9c0-5,4-8.9,8.9-8.9h44.9c5,0,8.9,4,8.9,8.9V178c0,5-4,8.9-8.9,8.9H48.5
	C43.7,186.9,39.6,182.8,39.6,178z"/>
<path fill="#FFFFFF" d="M130,192.9h44.7c8.3,0,14.9-6.6,14.9-14.9v-44.9c0-8.3-6.6-14.9-14.9-14.9H130c-8.3,0-14.9,6.6-14.9,14.9
	V178C115.1,186.1,121.7,192.9,130,192.9z M183.7,133.1V178c0,5-4,8.9-8.9,8.9H130c-5,0-8.9-4-8.9-8.9v-44.9c0-5,4-8.9,8.9-8.9h44.7
	C179.7,124.1,183.7,128.1,183.7,133.1z"/>
<path fill="#FFFFFF" d="M0.9,0.8V212v42v24.9H223V254v-42V0.8H0.9z M16.9,212V16.8H207V212H16.9z"/>
</svg>
