<?xml version="1.0" encoding="utf-8"?>
<!-- Generator: Adobe Illustrator 18.1.1, SVG Export Plug-In . SVG Version: 6.00 Build 0)  -->
<!DOCTYPE svg PUBLIC "-//W3C//DTD SVG 1.0//EN" "http://www.w3.org/TR/2001/REC-SVG-20010904/DTD/svg10.dtd">
<svg version="1.0" id="Layer_1" xmlns="http://www.w3.org/2000/svg" xmlns:xlink="http://www.w3.org/1999/xlink" x="0px" y="0px"
	 viewBox="0 0 262.2 310" enable-background="new 0 0 262.2 310" xml:space="preserve">
<path fill="#FFFFFF" d="M47.4,125.9c1.3,8.2,8.8,13.7,17,12.5l44.4-6.9c8.2-1.3,13.7-8.8,12.5-17l-6.9-44.4
	c-1.3-8.2-8.8-13.7-17-12.5L53,64.5c-8.2,1.3-13.7,8.8-12.5,17L47.4,125.9L47.4,125.9z M53.9,70.4l44.4-6.9
	c4.9-0.8,9.5,2.6,10.2,7.5l6.9,44.4c0.8,4.9-2.6,9.5-7.5,10.2l-44.4,6.9c-4.9,0.8-9.5-2.6-10.2-7.5l-6.9-44.4
	C45.6,75.7,49.1,71.1,53.9,70.4z"/>
<path fill="#FFFFFF" d="M121.1,69.1l6.9,44.4c1.3,8.2,8.8,13.7,17,12.5l44.2-6.8c8.2-1.3,13.7-8.8,12.5-17l-6.9-44.4
	c-1.3-8.2-8.8-13.7-17-12.5L133.5,52C125.3,53.3,119.8,61,121.1,69.1z M188.9,58.6l6.9,44.4c0.8,4.9-2.6,9.5-7.5,10.2L144,120
	c-4.9,0.8-9.5-2.6-10.2-7.5L127,68.1c-0.8-4.9,2.6-9.5,7.5-10.2l44.2-6.8C183.6,50.3,188.1,53.6,188.9,58.6z"/>
<path fill="#FFFFFF" d="M126.5,148.7c-1.3-8.2-8.8-13.7-17-12.5l-44.4,6.9c-8.2,1.3-13.7,8.8-12.5,17l6.9,44.4
	c1.3,8.2,8.8,13.7,17,12.5l44.4-6.9c8.2-1.3,13.7-8.8,12.5-17L126.5,148.7z M65.4,203.6l-6.9-44.4c-0.8-4.9,2.6-9.5,7.5-10.2
	l44.4-6.9c4.9-0.8,9.5,2.6,10.2,7.5l6.9,44.4c0.8,4.9-2.6,9.5-7.5,10.2l-44.4,6.9C70.9,211.8,66.2,208.3,65.4,203.6z"/>
<path fill="#FFFFFF" d="M157.1,204.5l44.2-6.8c8.2-1.3,13.7-8.8,12.5-17l-6.9-44.4c-1.3-8.2-8.8-13.7-17-12.5l-44.2,6.8
	c-8.2,1.3-13.7,8.8-12.5,17l6.9,44.4C141.4,200,148.9,205.7,157.1,204.5z M201,137.2l6.9,44.4c0.8,4.9-2.6,9.5-7.5,10.2l-44.2,6.8
	c-4.9,0.8-9.5-2.6-10.2-7.5l-6.9-44.4c-0.8-4.9,2.6-9.5,7.5-10.2l44.2-6.8C195.7,128.9,200.3,132.2,201,137.2z"/>
<path fill="#FFFFFF" d="M0.2,34.5l32.3,208.7l6.4,41.5l3.8,24.6l219.4-34l-3.8-24.6l-6.4-41.5L219.6,0.5L0.2,34.5z M48.3,240.7
	L18.4,47.8l187.8-29.1l29.9,192.9L48.3,240.7z"/>
</svg>
