<svg xmlns="http://www.w3.org/2000/svg" xmlns:xlink="http://www.w3.org/1999/xlink" viewBox="0 0 82.99 80.36"><defs><style>.cls-1{fill:#84aff1;}.cls-2{fill:url(#linear-gradient);}.cls-3{fill:#3865ab;}</style><linearGradient id="linear-gradient" y1="40.18" x2="82.99" y2="40.18" gradientUnits="userSpaceOnUse"><stop offset="0" stop-color="#f2cc0c"/><stop offset="1" stop-color="#ff9830"/></linearGradient></defs><g id="Layer_2" data-name="Layer 2"><g id="Layer_1-2" data-name="Layer 1"><path class="cls-1" d="M35.69,17v4.35H33.26V13.73h2.31v1.4h.08a2.16,2.16,0,0,1,.87-1.1,2.54,2.54,0,0,1,1.45-.4,2.63,2.63,0,0,1,1.4.36,2.37,2.37,0,0,1,.93,1,3.14,3.14,0,0,1,.32,1.51v4.86H38.19V17a1.36,1.36,0,0,0-.32-1,1.16,1.16,0,0,0-.9-.36A1.25,1.25,0,0,0,36,16,1.45,1.45,0,0,0,35.69,17Z"/><path class="cls-1" d="M46,21.51a3.79,3.79,0,0,1-2.83-1.05,4,4,0,0,1-1-2.88,4.46,4.46,0,0,1,.47-2.08,3.38,3.38,0,0,1,1.32-1.38,3.88,3.88,0,0,1,2-.49,4,4,0,0,1,1.92.45,3.2,3.2,0,0,1,1.31,1.32,4.47,4.47,0,0,1,.47,2.13v.6H44.52v.07a1.59,1.59,0,0,0,.4,1.13,1.47,1.47,0,0,0,1.11.42,1.6,1.6,0,0,0,.83-.2,1.08,1.08,0,0,0,.49-.58l2.23.07a2.71,2.71,0,0,1-1.15,1.79A4.13,4.13,0,0,1,46,21.51Zm-1.46-4.79h2.83a1.32,1.32,0,0,0-.4-1,1.37,1.37,0,0,0-1-.38,1.4,1.4,0,0,0-1,.39A1.3,1.3,0,0,0,44.52,16.72Z"/><path class="cls-1" d="M52.48,21.36l-2-7.63h2.45l1,4.89H54l1.1-4.89h2.38l1.14,4.85h.06l1-4.85h2.44l-2,7.63h-2.6l-1.19-4.45h-.09l-1.19,4.45Z"/><path class="cls-1" d="M70.08,16.06l-2.23.06a.92.92,0,0,0-.37-.6,1.3,1.3,0,0,0-.79-.23,1.47,1.47,0,0,0-.72.17.49.49,0,0,0-.29.46.53.53,0,0,0,.18.39,1.6,1.6,0,0,0,.67.26l1.47.28c1.5.29,2.26,1,2.27,2.07a2.1,2.1,0,0,1-.47,1.36,3,3,0,0,1-1.25.91,4.92,4.92,0,0,1-1.82.32,4.36,4.36,0,0,1-2.58-.68A2.48,2.48,0,0,1,63.07,19L65.48,19a.9.9,0,0,0,.41.63,1.47,1.47,0,0,0,.85.22,1.55,1.55,0,0,0,.76-.17.57.57,0,0,0,.3-.46c0-.33-.32-.55-.93-.67l-1.33-.25c-1.53-.28-2.28-1-2.27-2.21a2.06,2.06,0,0,1,.91-1.79,4.19,4.19,0,0,1,2.46-.64,4,4,0,0,1,2.45.65A2.31,2.31,0,0,1,70.08,16.06Z"/><path class="cls-2" d="M20.23,1V22.7H1a1,1,0,0,0-1,1V68.24A12.12,12.12,0,0,0,12.11,80.36H69.47A13.52,13.52,0,0,0,83,66.83V1a1,1,0,0,0-1-1H21.23A1,1,0,0,0,20.23,1Zm0,67.24A8.12,8.12,0,1,1,4,68.24V26.7H20.23ZM79,66.83a9.54,9.54,0,0,1-9.52,9.53H21.1a12.09,12.09,0,0,0,3.13-8.12V4H79Z"/><rect class="cls-3" x="32.48" y="29" width="38.25" height="4" rx="1"/><rect class="cls-3" x="32.48" y="40.06" width="38.25" height="4" rx="1"/><rect class="cls-3" x="32.48" y="51.12" width="38.25" height="4" rx="1"/><rect class="cls-3" x="32.48" y="62.17" width="38.25" height="4" rx="1"/></g></g></svg>