<svg xmlns="http://www.w3.org/2000/svg" xmlns:xlink="http://www.w3.org/1999/xlink" viewBox="0 0 80.99 80.99"><defs><style>.cls-1{fill:#3865ab;}.cls-2{fill:url(#linear-gradient);}.cls-3{fill:url(#linear-gradient-2);}.cls-4{fill:url(#linear-gradient-3);}.cls-5{fill:url(#linear-gradient-4);}.cls-6{fill:#84aff1;}</style><linearGradient id="linear-gradient" x1="72.9" y1="4.04" x2="80.99" y2="4.04" gradientUnits="userSpaceOnUse"><stop offset="0" stop-color="#f2cc0c"/><stop offset="1" stop-color="#ff9830"/></linearGradient><linearGradient id="linear-gradient-2" x1="72.9" y1="76.95" x2="80.99" y2="76.95" xlink:href="#linear-gradient"/><linearGradient id="linear-gradient-3" x1="72.9" y1="58.72" x2="80.99" y2="58.72" xlink:href="#linear-gradient"/><linearGradient id="linear-gradient-4" x1="72.9" y1="40.49" x2="80.99" y2="40.49" xlink:href="#linear-gradient"/></defs><g id="Layer_2" data-name="Layer 2"><g id="Layer_1-2" data-name="Layer 1"><path class="cls-1" d="M16.28,8H1A1,1,0,0,1,0,7V1A1,1,0,0,1,1,0H16.28Z"/><rect class="cls-1" x="24.17" y="0.04" width="43.28" height="8"/><path class="cls-2" d="M73.22,5.59a4,4,0,0,1,.85-4.41A4.72,4.72,0,0,1,75.41.32a3.84,3.84,0,0,1,3.08,0,4.67,4.67,0,0,1,1.33.86,4,4,0,0,1,.85,4.41,4,4,0,0,1-.85,1.34,4.14,4.14,0,0,1-1.33.85,4.1,4.1,0,0,1-3.08,0,4.18,4.18,0,0,1-1.34-.85A4,4,0,0,1,73.22,5.59Z"/><path class="cls-1" d="M16.28,81H1a1,1,0,0,1-1-1V74a1,1,0,0,1,1-1H16.28Z"/><rect class="cls-1" x="24.17" y="72.95" width="43.28" height="8"/><path class="cls-3" d="M74.07,79.83a4.2,4.2,0,0,0,4.42.85,3.67,3.67,0,0,0,2.18-2.18,4,4,0,0,0-.85-4.42,4.64,4.64,0,0,0-1.33-.85,3.84,3.84,0,0,0-3.08,0,4.69,4.69,0,0,0-1.34.85,4.07,4.07,0,0,0-.85,4.42A4,4,0,0,0,74.07,79.83Z"/><path class="cls-1" d="M16.28,62.72H1a1,1,0,0,1-1-1v-6a1,1,0,0,1,1-1H16.28Z"/><rect class="cls-1" x="24.17" y="54.72" width="43.28" height="8"/><path class="cls-4" d="M74.07,61.61a4.18,4.18,0,0,0,1.34.85,4.17,4.17,0,0,0,4.41-.85,4.19,4.19,0,0,0,0-5.75A4.44,4.44,0,0,0,78.49,55a3.76,3.76,0,0,0-3.08,0,4.48,4.48,0,0,0-1.34.85,4.19,4.19,0,0,0,0,5.75Z"/><path class="cls-1" d="M16.28,44.49H1a1,1,0,0,1-1-1v-6a1,1,0,0,1,1-1H16.28Z"/><rect class="cls-1" x="24.17" y="36.49" width="43.28" height="8"/><path class="cls-5" d="M74.07,43.38a4.2,4.2,0,0,0,4.42.85,4,4,0,0,0,1.33-.85,4.19,4.19,0,0,0,0-5.75,4.44,4.44,0,0,0-1.33-.85,3.84,3.84,0,0,0-3.08,0,4.48,4.48,0,0,0-1.34.85,4.19,4.19,0,0,0,0,5.75Z"/><path class="cls-1" d="M16.28,26.27H1a1,1,0,0,1-1-1v-6a1,1,0,0,1,1-1H16.28Z"/><rect class="cls-1" x="24.17" y="18.27" width="43.28" height="8"/><path class="cls-6" d="M74.07,25.15a4.2,4.2,0,0,0,4.42.85,3.67,3.67,0,0,0,2.18-2.18,4,4,0,0,0-.85-4.42,4.64,4.64,0,0,0-1.33-.85,3.84,3.84,0,0,0-3.08,0,4.69,4.69,0,0,0-1.34.85,4.07,4.07,0,0,0-.85,4.42A4,4,0,0,0,74.07,25.15Z"/></g></g></svg>